<svg width="42" height="42" viewBox="0 0 42 42" fill="none" xmlns="http://www.w3.org/2000/svg">
<g clip-path="url(#clip0_3528_111141)">
<path d="M16.4702 9.55537C15.9461 9.49035 15.9212 9.46868 16.1707 9.44701C16.6449 9.382 17.7429 9.46868 18.5165 9.62039C20.3133 9.98881 21.9354 10.9424 23.6574 12.6111L24.1066 13.0662L24.7554 12.9795C27.5254 12.5894 30.3704 12.8928 32.7411 13.8464C33.39 14.1065 34.4131 14.6266 34.5379 14.7566C34.5878 14.8 34.6627 15.0817 34.7126 15.3634C34.8873 16.382 34.8124 17.1405 34.4381 17.7257C34.2385 18.0507 34.2385 18.1374 34.3632 18.4192C34.4631 18.6359 34.7625 18.7876 35.037 18.7876C35.636 18.7876 36.2598 17.964 36.5593 16.8154L36.6841 16.3603L36.9087 16.577C38.1814 17.8123 39.1796 19.5244 39.3294 20.738L39.3793 21.0631L39.1547 20.7814C38.7803 20.2829 38.431 19.9579 37.9568 19.6761C37.1083 19.1777 36.2099 19.026 33.8392 18.9176C31.693 18.8092 30.4702 18.6575 29.2723 18.3108C27.226 17.7257 26.1779 16.9671 23.7572 14.1715C22.6841 12.9362 22.0103 12.2644 21.3365 11.7009C19.8641 10.4656 18.3918 9.81543 16.4702 9.55537Z" fill="#FF007A"/>
<path d="M35.0624 12.3074C35.1123 11.4839 35.2371 10.9421 35.5116 10.4436C35.6115 10.2486 35.7113 10.0752 35.7362 10.0752C35.7612 10.0752 35.7113 10.2269 35.6364 10.4003C35.4368 10.8771 35.4118 11.5489 35.5366 12.3074C35.7113 13.2826 35.7861 13.4127 36.984 14.4746C37.533 14.973 38.1819 15.6015 38.4314 15.8616L38.8557 16.3384L38.4314 15.9916C37.9074 15.5582 36.7095 14.7346 36.435 14.6263C36.2603 14.5396 36.2353 14.5396 36.1106 14.648C36.0107 14.7346 35.9858 14.8647 35.9858 15.4932C35.9608 16.4684 35.8111 17.0752 35.4368 17.7037C35.2371 18.0288 35.2122 17.9637 35.3869 17.5953C35.5116 17.3136 35.5366 17.1836 35.5366 16.2517C35.5366 14.3662 35.287 13.9111 33.7648 13.1526C33.3904 12.9575 32.7416 12.6758 32.3673 12.5241C31.968 12.3724 31.6685 12.2424 31.6935 12.2424C31.7434 12.199 33.2157 12.5675 33.7897 12.7842C34.6632 13.0876 34.8129 13.1093 34.9127 13.0876C34.9876 13.0226 35.0375 12.8492 35.0624 12.3074Z" fill="#FF007A"/>
<path d="M17.4937 15.5378C16.4456 14.2808 15.7718 12.3303 15.9215 10.8783L15.9715 10.4232L16.221 10.4666C16.6702 10.5316 17.4438 10.7916 17.8182 10.9867C18.8164 11.5068 19.2656 12.222 19.6898 13.9991C19.8146 14.5192 19.9893 15.126 20.0641 15.3211C20.1889 15.6461 20.6631 16.4046 21.0624 16.8814C21.3369 17.2282 21.1622 17.4015 20.5383 17.3582C19.59 17.2715 18.3173 16.513 17.4937 15.5378Z" fill="#FF007A"/>
<path d="M33.7895 24.9638C28.8483 23.23 27.1014 21.7347 27.1014 19.199C27.1014 18.8306 27.1263 18.5272 27.1263 18.5272C27.1513 18.5272 27.326 18.6573 27.5506 18.809C28.5488 19.5025 29.6718 19.8059 32.7912 20.196C34.613 20.4343 35.6611 20.6077 36.6094 20.8895C39.629 21.7563 41.5007 23.5334 41.9499 25.939C42.0747 26.6325 41.9998 27.9545 41.8001 28.648C41.6255 29.1898 41.1264 30.1867 41.0016 30.2083C40.9766 30.2083 40.9267 30.1 40.9267 29.9266C40.8768 29.0164 40.3527 28.1495 39.4793 27.4777C38.4312 26.6975 37.0836 26.1124 33.7895 24.9638Z" fill="#FF007A"/>
<path d="M30.296 25.6812C30.246 25.3561 30.1213 24.9444 30.0464 24.771L29.9216 24.4459L30.1462 24.6843C30.4706 25.0094 30.7202 25.3995 30.9448 25.9413C31.1195 26.353 31.1195 26.4831 31.1195 27.1549C31.1195 27.8051 31.0945 27.9568 30.9448 28.3252C30.6952 28.9103 30.3958 29.3221 29.8967 29.7772C28.9983 30.579 27.8254 31.0125 26.1533 31.2075C25.8539 31.2292 25.0054 31.2942 24.2567 31.3376C22.3851 31.4243 21.1373 31.5976 20.0143 31.9444C19.8646 31.9877 19.7148 32.0311 19.6899 32.0094C19.64 31.966 20.4136 31.576 21.0375 31.3159C21.9109 30.9475 22.8093 30.7524 24.7808 30.449C25.7541 30.319 26.7523 30.1456 27.0018 30.0589C29.4724 29.3871 30.6952 27.7184 30.296 25.6812Z" fill="#FF007A"/>
<path d="M32.567 29.1714C31.9182 27.9361 31.7684 26.7658 32.1178 25.6606C32.1677 25.5522 32.2176 25.4438 32.2675 25.4438C32.3174 25.4438 32.4672 25.5089 32.6169 25.5955C32.9164 25.7689 33.5403 26.0723 35.1374 26.8308C37.1588 27.7844 38.3068 28.5212 39.1053 29.3664C39.8041 30.1033 40.2283 30.9485 40.428 31.9887C40.5527 32.5739 40.4779 33.9825 40.3032 34.5677C39.7542 36.4098 38.5064 37.8835 36.6846 38.7287C36.4101 38.8587 36.1855 38.9454 36.1606 38.9454C36.1356 38.9454 36.2354 38.7287 36.3852 38.4686C36.9841 37.3633 37.059 36.3014 36.6098 35.1095C36.3353 34.3726 35.7613 33.4841 34.6133 31.9887C33.2408 30.255 32.9164 29.7999 32.567 29.1714Z" fill="#FF007A"/>
<path d="M13.9753 35.8029C15.822 34.4592 18.0929 33.5057 20.1892 33.2023C21.0876 33.0722 22.5849 33.1156 23.4084 33.3106C24.7311 33.614 25.9289 34.2642 26.5528 35.066C27.1517 35.8462 27.4263 36.518 27.7008 38.0134C27.8006 38.5985 27.9254 39.2053 27.9503 39.3354C28.15 40.1156 28.5493 40.7224 29.0484 41.0475C29.822 41.5459 31.1696 41.5676 32.4922 41.1341C32.7168 41.0691 32.9164 41.0041 32.9164 41.0258C32.9664 41.0691 32.2926 41.4592 31.8434 41.6543C31.2195 41.936 30.7204 42.0227 30.0466 42.0227C28.8487 42.0227 27.8255 41.4809 27.002 40.3973C26.8273 40.1806 26.478 39.5521 26.1785 38.967C25.305 37.2115 24.8558 36.6914 23.8327 36.1063C22.9343 35.6078 21.7863 35.4995 20.9129 35.8679C19.7649 36.3447 19.4655 37.6233 20.264 38.4035C20.5885 38.7286 21.1874 38.9886 21.6865 39.0536C22.6099 39.162 23.4084 38.5335 23.4084 37.7317C23.4084 37.2115 23.1838 36.9081 22.5849 36.6697C21.7863 36.3663 20.9129 36.7131 20.9378 37.3849C20.9378 37.6667 21.0876 37.84 21.412 37.9701C21.6116 38.0567 21.6116 38.0567 21.4619 38.0351C20.7382 37.905 20.5635 37.1249 21.1375 36.6264C21.8362 36.0196 23.3086 36.2797 23.8077 37.1249C24.0074 37.4716 24.0323 38.1651 23.8576 38.5985C23.4334 39.5521 22.2355 40.0505 21.0127 39.7688C20.1892 39.5738 19.8398 39.3787 18.8416 38.4902C17.0947 36.9298 16.4209 36.6264 13.9254 36.3013L13.4512 36.2363L13.9753 35.8029Z" fill="#FF007A"/>
<path fill-rule="evenodd" clip-rule="evenodd" d="M0.848985 0.931889C6.6636 7.06502 15.6226 16.6006 16.0718 17.1207C16.4461 17.5542 16.2964 17.9659 15.6725 18.2694C15.3231 18.4427 14.5994 18.6161 14.2501 18.6161C13.8508 18.6161 13.3766 18.4427 13.0522 18.161C12.8276 17.9659 11.8543 16.7306 9.65826 13.7616C7.98624 11.4861 6.56378 9.60062 6.53883 9.57895C6.439 9.5356 6.439 9.5356 9.48357 14.2601C11.4051 17.2291 12.029 18.291 12.029 18.4211C12.029 18.7028 11.9292 18.8545 11.5299 19.2446C10.8561 19.8947 10.5567 20.6316 10.3321 22.1703C10.0825 23.8824 9.4087 25.096 7.48713 27.1548C6.36414 28.3684 6.18945 28.5851 5.91494 29.0836C5.56556 29.6904 5.46574 30.0372 5.41583 30.8173C5.36592 31.6409 5.46574 32.161 5.74025 32.9412C5.98981 33.6347 6.26432 34.0898 6.93811 34.9783C7.51209 35.7585 7.86146 36.3437 7.86146 36.5604C7.86146 36.7337 7.91138 36.7337 8.80977 36.5604C10.9559 36.1269 12.7278 35.3901 13.701 34.4799C14.3 33.9164 14.4497 33.613 14.4497 32.8328C14.4497 32.3344 14.4247 32.226 14.275 31.9226C14.0255 31.4458 13.5513 31.0557 12.5281 30.4489C11.1805 29.6471 10.6066 28.9969 10.4568 28.13C10.3321 27.3932 10.4818 26.8947 11.2304 25.5294C12.0041 24.1207 12.2037 23.5356 12.3285 22.1053C12.4034 21.195 12.5281 20.8266 12.8276 20.5449C13.152 20.2415 13.4265 20.1331 14.2001 20.0464C15.4729 19.8947 16.2964 19.613 16.9452 19.0712C17.5192 18.6161 17.7688 18.161 17.7937 17.4892L17.8187 16.9907L17.4943 16.6873C16.3214 15.517 0.075366 0 0.000499678 0C-0.0244558 0 0.374831 0.411765 0.848985 0.931889ZM8.51031 31.7492C8.78482 31.3375 8.63508 30.8173 8.18589 30.5573C7.76164 30.3189 7.1128 30.4272 7.1128 30.7523C7.1128 30.839 7.16271 30.9257 7.31244 30.969C7.53704 31.0774 7.562 31.1858 7.38731 31.4241C7.21262 31.6625 7.21262 31.8793 7.43722 32.031C7.7866 32.2694 8.26075 32.1393 8.51031 31.7492Z" fill="#FF007A"/>
<path fill-rule="evenodd" clip-rule="evenodd" d="M18.6166 20.3502C18.0177 20.5019 17.4437 21.0654 17.269 21.6289C17.1692 21.9756 17.2191 22.6041 17.3938 22.7991C17.6683 23.1025 17.9179 23.1892 18.6166 23.1892C19.9892 23.1892 21.1621 22.6691 21.2869 22.0406C21.4116 21.5205 20.8876 20.8053 20.1639 20.4802C19.7895 20.3069 19.0159 20.2419 18.6166 20.3502ZM20.2138 21.4338C20.4134 21.1737 20.3386 20.892 19.9642 20.697C19.2904 20.3285 18.2672 20.632 18.2672 21.1954C18.2672 21.4772 18.7913 21.7806 19.2904 21.7806C19.6148 21.7806 20.064 21.6072 20.2138 21.4338Z" fill="#FF007A"/>
</g>
<defs>
<clipPath id="clip0_3528_111141">
<rect width="42" height="42" fill="white"/>
</clipPath>
</defs>
</svg>
