<svg width="20" height="21" viewBox="0 0 20 21" fill="none" xmlns="http://www.w3.org/2000/svg">
<path fill-rule="evenodd" clip-rule="evenodd" d="M10 0.0507812C4.48 0.0507812 0 4.53078 0 10.0508C0 15.5708 4.48 20.0508 10 20.0508C15.51 20.0508 20 15.5708 20 10.0508C20 4.53078 15.51 0.0507812 10 0.0507812ZM16.605 4.66078C17.8357 6.16009 18.5167 8.03515 18.535 9.97478C18.254 9.92078 15.434 9.34578 12.592 9.70378C12.527 9.56278 12.472 9.41078 12.408 9.25878C12.231 8.84183 12.043 8.42968 11.844 8.02278C14.989 6.74278 16.421 4.89878 16.605 4.66078ZM10 1.52578C12.17 1.52578 14.154 2.33878 15.662 3.67378C15.51 3.88978 14.219 5.61478 11.182 6.75378C9.783 4.18378 8.232 2.07878 7.993 1.75378C8.65086 1.6 9.32441 1.52348 10 1.52578ZM6.367 2.32878C7.51144 3.91509 8.56867 5.56253 9.534 7.26378C5.542 8.32678 2.017 8.30378 1.638 8.30378C1.91283 7.01091 2.48261 5.799 3.3029 4.76257C4.12319 3.72615 5.17182 2.89323 6.367 2.32878ZM1.453 10.0608V9.80078C1.823 9.81078 5.965 9.86578 10.228 8.58578C10.478 9.06278 10.705 9.55078 10.922 10.0388C10.813 10.0718 10.694 10.1038 10.586 10.1368C6.182 11.5568 3.839 15.4398 3.644 15.7658C2.23384 14.2002 1.45264 12.1678 1.453 10.0608ZM10 18.5978C8.10143 18.601 6.25667 17.9672 4.761 16.7978C4.913 16.4828 6.649 13.1418 11.464 11.4608C11.486 11.4508 11.497 11.4508 11.518 11.4388C12.3303 13.5342 12.9407 15.7024 13.341 17.9138C12.2858 18.3678 11.1487 18.6006 10 18.5978ZM14.761 17.1328C14.675 16.6128 14.219 14.1178 13.102 11.0488C15.781 10.6258 18.124 11.3198 18.416 11.4178C18.2336 12.5709 17.8148 13.6738 17.1858 14.6573C16.5568 15.6408 15.7313 16.4836 14.761 17.1328Z" fill="#9CA3AF"/>
</svg>
