<svg width="530" height="150" viewBox="0 0 530 150" fill="none" xmlns="http://www.w3.org/2000/svg">
<path d="M233.16 59.058L236.644 52.0903C231.534 48.7225 224.451 46.5161 217.134 46.5161C205.986 46.5161 195.883 51.5096 195.883 63.1225C195.767 84.7225 230.025 77.1742 229.676 92.0387C229.56 98.1935 223.754 100.981 216.554 100.981C209.354 100.981 201.457 98.0774 196.231 93.2L192.747 99.8193C198.554 105.394 207.496 108.413 216.205 108.413C227.934 108.413 238.618 103.071 238.618 91.1096C238.618 69.1613 204.476 76.2451 204.476 62.4258C204.476 56.6193 209.702 54.1806 216.554 54.1806C222.244 54.1806 228.399 56.0387 233.16 59.058Z" fill="white"/>
<path d="M277.652 46.6322C259.884 46.7484 247.342 59.2903 247.342 77.5225C247.342 95.7548 259.768 108.413 277.768 108.413C287.988 108.413 296.581 104.697 302.388 98.3096L297.394 93.0838C292.633 98.0774 286.013 100.864 278.465 100.864C266.504 100.864 257.794 92.9677 256.284 80.8903H306.22C307.149 60.2193 297.394 46.6322 277.652 46.6322ZM256.284 73.6903C257.562 61.8451 265.923 54.1806 277.652 54.1806C289.613 54.1806 297.51 61.8451 298.091 73.6903H256.284Z" fill="white"/>
<path d="M364.504 61.9613L369.498 55.6903C363.923 50 355.794 46.6322 345.923 46.6322C328.272 46.6322 315.614 59.4064 315.614 77.5225C315.614 95.7548 328.156 108.413 345.923 108.413C356.491 108.413 364.968 104.464 370.427 97.8451L365.201 92.5032C360.904 97.6129 354.285 100.4 346.272 100.4C333.614 100.4 324.556 91.1096 324.556 77.5225C324.556 64.0516 333.614 54.7613 346.272 54.7613C353.704 54.7613 359.859 57.4322 364.504 61.9613Z" fill="white"/>
<path d="M395.922 60.5677V46.9806H386.864V108.064H395.922V75.5484C396.967 63.2387 404.98 55.2258 417.871 55.458V46.6322C407.535 46.7484 399.987 51.6258 395.922 60.5677Z" fill="white"/>
<path d="M454.227 46.6322C436.46 46.7484 423.918 59.2903 423.918 77.5225C423.918 95.7548 436.343 108.413 454.343 108.413C464.563 108.413 473.156 104.697 478.963 98.3096L473.969 93.0838C469.208 98.0774 462.589 100.864 455.04 100.864C443.079 100.864 434.369 92.9677 432.86 80.8903H482.795C483.724 60.2193 473.969 46.6322 454.227 46.6322ZM432.86 73.6903C434.137 61.8451 442.498 54.1806 454.227 54.1806C466.189 54.1806 474.085 61.8451 474.666 73.6903H432.86Z" fill="white"/>
<path d="M527.376 96.9161C524.008 98.8903 520.757 99.9355 517.621 100.052C512.395 100.052 509.492 97.0322 509.492 89.6V55.9225H528.886V48.8387H509.492V32.8129H500.55V48.8387H491.724V55.9225H500.55V91.1096C500.55 103.187 507.169 108.529 516.111 108.413C520.989 108.413 525.634 106.787 529.931 103.884L527.376 96.9161Z" fill="white"/>
<path d="M127.989 21.975C113.829 7.8 95.0192 0 75.0092 0C33.6842 0 0.0692139 33.645 0.0692139 75C0.0692139 116.355 33.6842 150 75.0092 150C95.0192 150 113.844 142.2 127.989 128.025C142.149 113.85 149.934 95.025 149.934 75C149.934 54.975 142.149 36.135 127.989 21.975ZM75.0092 144.81C36.5492 144.81 5.25922 113.49 5.25922 75C5.25922 36.51 36.5492 5.19 75.0092 5.19C113.469 5.19 144.759 36.51 144.759 75C144.759 113.49 113.469 144.81 75.0092 144.81Z" fill="white"/>
<path d="M99.6097 76.7701C94.8097 72.4801 88.5247 69.6151 82.4347 66.8401L82.3897 66.8251C71.6497 61.9201 62.3647 57.6751 63.0247 47.6401C63.3097 43.8151 66.0847 41.5051 68.3647 40.2601C70.9297 38.8501 74.3347 38.0101 77.4847 38.0101C77.8597 38.0101 78.2347 38.0251 78.5947 38.0401C87.7597 38.6551 94.9897 42.5401 102.055 50.6101L102.475 51.1051L102.97 50.6851L105.73 48.2851L106.225 47.8501L105.79 47.3551C97.9147 38.3251 89.3647 33.7801 78.9097 33.0751C78.4597 33.0301 77.9797 33.0151 77.4547 33.0151C77.1397 33.0151 76.7947 33.0151 76.4347 33.0301H75.9847C69.1297 33.0301 61.6147 35.2801 55.8997 39.0601C49.0747 43.5751 45.2497 49.7851 45.1447 56.5501C44.8747 73.0051 58.3297 78.5401 70.1947 83.4451L70.2247 83.4601L70.3447 83.5051C80.8447 87.8551 89.9047 91.6051 89.7097 101.655C89.6197 108.285 80.1397 111.945 73.6297 111.945H73.3597H72.7147V111.96C63.0097 111.675 54.3397 107.49 46.9447 99.5551L46.4947 99.0751L46.0147 99.5101L43.3297 102L42.8497 102.45L43.2997 102.93C51.6997 111.975 62.0647 116.835 73.2847 116.97H73.7947C81.0397 116.97 88.9147 115.02 94.8547 111.735C102.295 107.67 106.63 101.745 107.08 95.0551C107.59 87.7051 105.145 81.7201 99.6097 76.7701ZM64.7797 62.4601C69.0547 66.1201 74.8447 68.7451 80.4397 71.2801L80.5447 71.3251C86.4697 74.0551 92.0797 76.6351 96.1447 80.2201C100.645 84.1801 102.55 88.7701 102.145 94.6651C101.77 100.5 97.4347 104.4 93.4897 106.755C94.2547 105.195 94.6747 103.5 94.7197 101.7C94.8097 95.6401 92.4847 90.7951 87.5947 86.8651C83.3197 83.4301 77.6497 81.1051 72.1597 78.8401C60.7447 74.1451 49.9597 69.7051 50.1547 56.5951C50.2147 51.5551 53.2447 46.7851 58.6897 43.1701C58.8697 43.0501 59.0497 42.9301 59.2447 42.8101C58.5997 44.2201 58.2397 45.6901 58.1497 47.2351C57.7147 53.3101 59.8897 58.2901 64.7797 62.4601Z" fill="white"/>
</svg>
