<svg width="20" height="18" viewBox="0 0 20 18" fill="none" xmlns="http://www.w3.org/2000/svg">
<path d="M0.572754 10.2001C0.572754 9.53736 1.11001 9.0001 1.77275 9.0001H4.17275C4.8355 9.0001 5.37275 9.53736 5.37275 10.2001V16.2001C5.37275 16.8628 4.8355 17.4001 4.17275 17.4001H1.77275C1.11001 17.4001 0.572754 16.8628 0.572754 16.2001V10.2001Z" fill="white"/>
<path d="M7.77275 5.4001C7.77275 4.73736 8.31001 4.2001 8.97275 4.2001H11.3728C12.0355 4.2001 12.5728 4.73736 12.5728 5.4001V16.2001C12.5728 16.8628 12.0355 17.4001 11.3728 17.4001H8.97275C8.31001 17.4001 7.77275 16.8628 7.77275 16.2001V5.4001Z" fill="white"/>
<path d="M14.9728 1.8001C14.9728 1.13736 15.51 0.600098 16.1728 0.600098H18.5728C19.2355 0.600098 19.7728 1.13736 19.7728 1.8001V16.2001C19.7728 16.8628 19.2355 17.4001 18.5728 17.4001H16.1728C15.51 17.4001 14.9728 16.8628 14.9728 16.2001V1.8001Z" fill="white"/>
</svg>
