<svg width="332" height="275" viewBox="0 0 332 275" fill="none" xmlns="http://www.w3.org/2000/svg">
<g opacity="0.2">
<path opacity="0.2" d="M224.523 247.01C221.697 247.05 217.759 246.867 213.843 246.716C210.862 246.605 207.898 246.244 204.944 245.861C201.148 245.372 197.379 244.802 193.623 243.966C190.508 243.272 187.429 242.471 184.385 241.523C181.055 240.453 177.787 239.199 174.595 237.767C170.689 236.042 166.876 234.111 163.173 231.982C159.92 230.058 156.776 227.957 153.752 225.69C151.754 224.235 149.716 222.824 147.789 221.28C145.371 219.34 143.089 217.237 140.959 214.984C139.139 213.057 137.363 211.081 135.69 209.03C133.127 205.878 130.795 202.546 128.713 199.058C127.097 196.366 125.544 193.633 123.951 190.928C123.199 189.655 122.323 188.445 121.686 187.119C120.796 185.241 119.715 183.452 118.763 181.596C117.811 179.741 116.845 177.992 115.968 176.145C115.132 174.392 114.26 172.661 113.49 170.872C112.916 169.537 112.342 168.202 111.763 166.867C110.967 165.021 110.304 163.112 109.627 161.216C108.92 159.218 108.208 157.211 107.607 155.195C107.006 153.18 106.459 151.03 105.996 148.925C105.32 145.851 104.546 142.794 103.976 139.692C103.593 137.614 102.89 135.589 102.472 133.516C102.083 131.605 101.742 129.686 101.448 127.757C101 124.664 100.873 121.532 101.07 118.413C101.146 116.966 101.382 115.525 101.515 114.083C101.688 112.355 101.977 110.641 102.383 108.952C102.753 107.261 103.252 105.601 103.874 103.986C104.359 102.776 104.804 101.543 105.324 100.342C106.178 98.3591 107.221 96.4636 108.439 94.6815C110.125 92.189 112.209 89.9898 114.607 88.1713C115.795 87.3564 117.081 86.6927 118.434 86.1955C120.663 85.3171 123.007 84.7641 125.393 84.5535C126.526 84.4513 127.665 84.4245 128.802 84.4734C130.72 84.5001 132.638 84.6069 134.555 84.6069C137.325 84.617 140.061 84.0089 142.565 82.827C146.409 81.0824 149.435 77.9283 151.02 74.0162C151.825 72.052 152.503 70.038 153.049 67.9867C153.832 65.0364 154.451 62.055 155.056 59.0869C155.501 56.862 155.906 54.637 156.422 52.4477C157.023 49.8623 157.584 47.2636 158.336 44.7183C159.052 42.2842 159.791 39.8501 160.654 37.4516C161.58 34.8885 162.679 32.401 163.796 29.9224C164.899 27.5078 166.202 25.1902 167.694 22.994C168.922 21.0557 170.273 19.1978 171.739 17.4316C173.887 14.9311 176.246 12.6205 178.792 10.5254C180.225 9.37292 181.657 8.21595 183.17 7.19248C185.365 5.70631 187.695 4.43094 190.13 3.38339C192.358 2.39307 194.669 1.6009 197.036 1.01606C201.112 0.0330248 205.327 -0.239447 209.496 0.210627C212.278 0.529553 215.014 1.1717 217.648 2.12407C220.159 3.07462 222.576 4.25904 224.866 5.66172C226.611 6.6669 228.251 7.84459 229.761 9.17712C231.12 10.3998 232.384 11.7237 233.543 13.1375C235.7 15.7589 237.496 18.6579 238.883 21.7569C240.025 24.3856 240.841 27.1443 241.312 29.9714C241.975 33.7048 242.336 37.4694 242.647 41.2518C243.155 47.4193 243.137 53.5958 243.306 59.7722C243.457 65.4458 243.666 71.1238 244.098 76.7841C244.267 79.049 244.338 81.3274 244.587 83.579C244.948 86.7874 245.202 90.0046 245.673 93.1996C245.994 95.3756 246.301 97.5516 246.648 99.7232C247.173 103.043 247.867 106.331 248.463 109.642C248.877 111.943 249.389 114.225 249.972 116.481C250.466 118.39 251.035 120.29 251.681 122.168C252.548 124.674 253.501 127.139 254.573 129.56C255.645 131.98 256.718 134.339 257.999 136.617C259.099 138.624 260.256 140.622 261.493 142.531C262.663 144.373 263.936 146.14 265.271 147.849C266.837 149.851 268.572 151.72 270.254 153.633C272.479 156.139 274.847 158.488 277.178 160.882C278.807 162.551 280.48 164.175 282.073 165.875C284.163 168.112 286.096 170.491 287.858 172.995C288.993 174.606 290.047 176.265 291.093 177.93C291.876 179.18 292.526 180.524 293.189 181.854C293.785 183.056 294.391 184.262 294.862 185.512C295.571 187.252 296.166 189.035 296.642 190.852C296.954 192.165 297.278 193.469 297.532 194.795C297.719 195.733 297.851 196.681 297.928 197.634C298.057 199.44 298.173 201.243 298.124 203.058C298.048 205.861 297.599 208.642 296.789 211.326C296.099 213.743 295.169 216.085 294.012 218.317C293.02 220.246 291.838 222.073 290.484 223.768C289.19 225.404 287.777 226.942 286.256 228.369C284.422 230.03 282.491 231.58 280.471 233.01C277.491 235.1 274.334 236.927 271.038 238.47C268.594 239.603 266.088 240.594 263.531 241.438C260.714 242.408 257.817 243.054 254.956 243.85C253.496 244.26 251.988 244.5 250.506 244.816C248.041 245.336 245.553 245.706 243.057 246.004C240.454 246.32 237.846 246.618 235.225 246.769C232.034 246.974 228.839 246.974 224.523 247.01Z" fill="#EB8045"/>
<path opacity="0.2" d="M288.076 138.019C287.916 135.202 288.521 132.465 289.237 129.755C289.85 127.646 290.889 125.685 292.29 123.993C294.109 121.623 296.63 119.889 299.494 119.04C302.372 118.167 305.454 118.245 308.283 119.263C311.069 120.298 313.71 121.688 316.141 123.397C318.397 124.972 320.523 126.725 322.5 128.638C324.708 130.636 326.56 132.994 327.978 135.611C328.925 137.351 329.759 139.149 330.474 140.996C331.737 144.407 332.067 148.094 331.431 151.675C330.822 155.422 328.926 158.488 326.238 161.065C324.706 162.526 322.915 163.688 320.956 164.491C319.012 165.341 316.961 165.924 314.86 166.222C314.011 166.323 313.153 166.335 312.301 166.258C310.076 166.049 307.851 166.031 305.68 165.332C303.219 164.527 300.847 163.552 298.769 161.919C296.469 160.159 294.516 157.986 293.011 155.511C292.155 154.046 291.401 152.524 290.755 150.955C289.939 148.991 289.288 146.962 288.81 144.889C288.206 142.652 287.958 140.333 288.076 138.019Z" fill="#EB8046"/>
<path opacity="0.2" d="M277.882 97.9477C275.681 98.0145 273.492 97.6031 271.465 96.7418C269.727 96.0246 268.189 94.8961 266.984 93.4533C265.303 91.5435 264.147 89.2296 263.629 86.7384C263.059 83.8505 263.58 81.1494 264.701 78.564C265.512 76.6063 266.785 74.8747 268.412 73.5179C269.45 72.6338 270.654 71.9646 271.952 71.5491C273.251 71.1336 274.619 70.9799 275.977 71.0971C277.352 71.2417 278.699 71.5756 279.982 72.0894C280.374 72.2568 280.783 72.3807 281.201 72.4588C281.809 72.5167 282.375 72.7934 282.794 73.2375C283.684 74.2209 284.788 74.9196 285.584 75.9831C286.606 77.2922 287.427 78.7452 288.023 80.295C288.645 81.8777 288.937 83.5705 288.882 85.27C288.717 88.3849 287.992 91.3707 285.914 93.8404C284.693 95.2604 283.159 96.377 281.433 97.1022C280.318 97.6207 279.11 97.9083 277.882 97.9477Z" fill="#EB8046"/>
</g>
<path d="M69.2934 273.526C69.5248 273.451 69.6005 273.255 69.6939 273.081C71.5406 269.33 73.9302 265.93 76.3687 262.557C78.9141 259.042 81.9044 255.883 84.8235 252.674C87.9384 249.248 91.1557 245.942 94.3907 242.635C97.6258 239.329 100.883 236.152 104.305 233.09C107.113 230.576 109.836 227.973 112.711 225.526C116.507 222.308 120.325 219.122 124.281 216.119C129.376 212.252 134.515 208.456 139.855 204.94C146.53 200.566 153.28 196.383 160.213 192.481C166.345 189.01 172.575 185.747 178.903 182.691C185.444 179.576 192.07 176.613 198.74 173.76C204.165 171.442 209.674 169.333 215.24 167.384C221.51 165.181 227.923 163.45 234.375 161.781C240.934 160.081 247.506 158.426 254.132 156.98C258.774 155.965 263.428 155.031 268.123 154.283C269.734 154.025 269.738 154.034 269.747 152.356C269.747 150.131 269.645 147.933 269.8 145.739C269.943 143.746 269.916 141.761 269.934 139.772C270.081 137.182 270.254 134.592 270.379 131.998C270.481 131.145 270.36 130.28 270.027 129.488C269.984 129.411 269.957 129.326 269.948 129.238C269.939 129.15 269.948 129.061 269.974 128.977C270.33 128.26 269.894 128.087 269.338 127.846C264.514 125.933 259.692 124.005 254.871 122.062C248.468 119.494 242.127 116.762 235.679 114.31C230.517 112.271 225.227 110.575 219.842 109.233C219.704 109.201 219.517 109.201 219.441 109.112C218.84 108.396 218.151 108.534 217.421 108.854C217.253 108.915 217.078 108.954 216.9 108.97L207.716 110.26C202.118 111.061 196.555 112.067 191.011 113.162C185.253 114.305 179.557 115.698 173.861 117.104C166.332 118.96 158.82 120.882 151.429 123.223C143.255 125.817 135.29 129.008 127.4 132.381C113.921 138.166 100.736 144.551 88.0675 151.96C79.2478 157.127 70.6284 162.591 62.3427 168.576C51.5215 176.406 41.2617 184.984 31.6386 194.247C24.9104 200.709 18.4507 207.431 12.2594 214.414C7.68493 219.54 3.6578 225.027 0.574034 231.181C0.197282 231.904 0.00037068 232.707 0 233.522C0 234.163 0.048949 234.804 0.0889978 235.44C0.249193 238.11 0.649682 240.749 0.614083 243.45C0.614083 244.478 0.725331 245.51 0.792079 246.538C0.776422 246.863 0.884962 247.182 1.09568 247.43C1.30641 247.677 1.60353 247.836 1.9268 247.873C2.86619 248.077 3.7797 248.386 4.65012 248.794C6.21647 249.47 7.76503 250.16 9.34029 250.845C14.3864 253.07 19.575 254.957 24.6746 257.031C30.8732 259.54 37.1342 261.863 43.2394 264.627C50.7508 268.031 58.2311 271.524 65.9338 274.47C66.2917 274.629 66.6587 274.767 67.0329 274.884C68.3679 275.222 68.9819 274.839 69.2934 273.526Z" fill="white"/>
<path d="M69.2939 273.526C68.9824 274.861 68.3683 275.222 67.0689 274.861C66.6947 274.745 66.3277 274.607 65.9698 274.447C58.2582 271.502 50.778 268.009 43.2755 264.604C37.1791 261.841 30.9093 259.518 24.7106 257.008C19.6021 254.935 14.4225 253.044 9.37632 250.823C7.81441 250.138 6.26141 249.448 4.68615 248.772C3.81091 248.367 2.8929 248.063 1.94948 247.864C1.623 247.831 1.32148 247.675 1.10707 247.426C0.892648 247.178 0.781657 246.857 0.79696 246.529C0.730212 245.501 0.601165 244.469 0.618964 243.441C0.654563 240.771 0.254074 238.101 0.0938789 235.431C0.0538301 234.795 0.0137826 234.154 0.00488281 233.513C0.00525349 232.698 0.202163 231.895 0.578915 231.172C3.66268 225.018 7.69871 219.532 12.2643 214.405C18.4733 207.44 24.9331 200.718 31.6435 194.238C41.2666 184.975 51.5264 176.397 62.3476 168.567C70.6333 162.582 79.2571 157.118 88.0723 151.951C100.741 144.52 113.926 138.157 127.405 132.372C135.281 128.977 143.246 125.808 151.434 123.214C158.825 120.873 166.337 118.951 173.866 117.095C179.562 115.689 185.258 114.296 191.016 113.153C196.56 112.058 202.14 111.053 207.721 110.252L216.91 108.939C217.087 108.923 217.262 108.884 217.43 108.823C218.16 108.503 218.85 108.378 219.45 109.081C219.526 109.17 219.713 109.17 219.851 109.201C225.236 110.544 230.526 112.24 235.688 114.279C242.136 116.731 248.477 119.463 254.88 122.03C259.698 123.962 264.52 125.89 269.347 127.815C269.903 128.038 270.339 128.229 269.983 128.945C269.957 129.03 269.948 129.119 269.957 129.207C269.967 129.295 269.994 129.38 270.037 129.457C270.369 130.249 270.49 131.114 270.388 131.967C270.281 134.561 270.108 137.151 269.943 139.741C268.912 139.706 267.881 139.797 266.873 140.012C261.742 140.902 256.611 141.846 251.538 143.034C245.353 144.484 239.181 145.971 233.036 147.59C225.792 149.504 218.574 151.497 211.521 154.056C208.148 155.281 204.798 156.564 201.473 157.905C197.717 159.418 194.015 161.069 190.299 162.68C184.652 165.127 179.09 167.753 173.581 170.476C170.043 172.225 166.55 174.067 163.093 175.972C159.23 178.094 155.439 180.342 151.63 182.553C148.617 184.302 145.676 186.171 142.761 188.075C138.476 190.87 134.164 193.629 130.052 196.686C125.122 200.353 120.196 204.024 115.488 207.975C112.738 210.285 109.979 212.576 107.309 214.97C104.639 217.365 102.058 219.661 99.5486 222.121C96.2468 225.361 92.945 228.596 89.7588 231.969C86.5727 235.342 83.4801 238.555 80.472 241.972C79.7199 242.827 78.9368 243.654 78.207 244.527C76.5475 246.472 74.988 248.501 73.5346 250.605C71.782 253.109 70.1658 255.705 68.6931 258.383C68.2342 259.23 68.0142 260.185 68.0568 261.147C68.1591 264.204 68.6308 267.225 68.84 270.273C68.9334 271.35 68.8444 272.485 69.2939 273.526Z" fill="#EB8045"/>
<path d="M69.2934 273.526C68.8484 272.485 68.933 271.35 68.8484 270.269C68.6393 267.221 68.1676 264.199 68.0653 261.142C68.0227 260.181 68.2426 259.225 68.7016 258.379C70.1743 255.701 71.7904 253.104 73.543 250.601C74.9994 248.496 76.5618 246.468 78.2243 244.522C78.9541 243.632 79.7373 242.822 80.4893 241.968C83.4974 238.55 86.6568 235.293 89.7762 231.965C92.8956 228.636 96.2463 225.356 99.5659 222.117C102.076 219.656 104.71 217.316 107.326 214.966C109.943 212.616 112.755 210.28 115.505 207.971C120.213 204.019 125.139 200.348 130.07 196.681C134.181 193.624 138.493 190.865 142.779 188.071C145.693 186.166 148.635 184.297 151.647 182.549C155.456 180.324 159.248 178.099 163.11 175.967C166.568 174.063 170.061 172.221 173.598 170.472C179.107 167.748 184.67 165.132 190.317 162.676C194.032 161.065 197.735 159.414 201.49 157.901C204.813 156.557 208.162 155.274 211.538 154.052C218.591 151.493 225.809 149.499 233.053 147.586C239.199 145.966 245.371 144.471 251.556 143.029C256.629 141.841 261.759 140.916 266.89 140.008C267.899 139.793 268.93 139.702 269.961 139.736C269.961 141.726 269.961 143.71 269.827 145.704C269.671 147.898 269.783 150.114 269.774 152.321C269.774 153.998 269.774 153.989 268.149 154.247C263.455 154.995 258.805 155.93 254.159 156.944C247.533 158.39 240.961 160.059 234.402 161.746C227.971 163.414 221.559 165.145 215.267 167.348C209.7 169.297 204.191 171.406 198.767 173.725C192.092 176.577 185.471 179.509 178.929 182.655C172.581 185.708 166.351 188.971 160.24 192.445C153.307 196.366 146.539 200.548 139.882 204.905C134.542 208.42 129.385 212.216 124.307 216.083C120.342 219.087 116.524 222.273 112.738 225.49C109.863 227.924 107.14 230.527 104.332 233.055C100.91 236.116 97.6302 239.325 94.4174 242.6C91.2046 245.875 87.9517 249.212 84.8502 252.639C81.9444 255.851 78.9541 259.006 76.3954 262.522C73.9524 265.895 71.5629 269.295 69.7206 273.046C69.6005 273.255 69.5248 273.451 69.2934 273.526Z" fill="#FBC998"/>
<path d="M255.4 20.551C255.125 20.7423 254.902 20.551 254.693 20.4754C251.459 19.1567 248.012 18.436 244.521 18.3483C241.303 18.1538 238.089 18.7753 235.176 20.155C231.927 21.7302 229.244 24.0575 226.761 26.6251C226.045 27.3692 225.385 28.1649 224.785 29.0058C220.58 34.9196 218.449 41.6123 217.63 48.741C217.082 53.1176 216.807 57.524 216.807 61.9348C216.838 65.3167 216.584 68.6942 216.807 72.0716C217.194 77.6518 217.216 83.2364 217.118 88.821C217.06 92.0961 216.753 95.3578 216.736 98.6329C216.718 101.908 216.633 105.25 216.562 108.556C216.535 109.749 216.517 109.78 217.594 110.189C222.543 112.072 227.482 113.981 232.546 115.529C240.364 117.945 247.831 121.314 255.516 124.086C259.485 125.524 263.326 127.321 267.233 128.941C268.234 129.359 269.257 129.715 270.348 130.134V128.799C270.348 120.646 270.348 112.497 270.348 104.351C270.348 94.1742 270.401 83.9973 269.778 73.8293C269.453 68.4895 269.333 63.0962 269.124 57.7297C269.005 53.4981 268.641 49.277 268.034 45.0876C267.269 40.4971 265.869 36.0355 263.873 31.8314C263.677 31.3864 263.477 30.9949 263.281 30.5766C261.716 27.1465 259.862 23.8552 257.741 20.7379C256.996 19.7236 256.015 18.9052 254.884 18.3528C254.782 18.2797 254.657 18.2466 254.533 18.2597C254.408 18.2729 254.292 18.3313 254.208 18.424C254.12 18.5153 254.07 18.6373 254.07 18.7644C254.07 18.8914 254.12 19.0135 254.208 19.1048C254.355 19.3006 254.559 19.4563 254.715 19.6477C254.942 19.9414 255.329 20.1327 255.4 20.551Z" fill="#1A2128"/>
<path d="M264.572 36.5705C264.572 36.5928 264.572 36.6328 264.54 36.6417C264.509 36.6506 264.452 36.6417 264.465 36.5572C264.478 36.4726 264.5 36.5216 264.523 36.5038L264.572 36.5705Z" fill="#282F35"/>
<path d="M248.388 19.0558C247.498 19.1582 246.634 18.9045 245.753 18.8689C244.131 18.8604 242.511 18.9929 240.912 19.265C240.761 19.0692 240.618 19.087 240.467 19.265C240.254 19.254 240.04 19.2705 239.831 19.3139C237.886 19.9814 235.875 20.4931 234.095 21.5745C231.934 22.8784 229.925 24.4186 228.105 26.1667C226.102 28.1884 224.389 30.4782 223.014 32.9706C220.531 37.3518 218.932 42.1776 218.307 47.1746C218.053 48.9545 217.933 50.7701 217.781 52.5723C217.523 55.6561 217.514 58.7443 217.336 61.8236C217.216 63.9595 217.216 66.0866 217.172 68.218C217.141 69.602 216.878 70.977 216.994 72.3653C217.194 74.884 217.163 77.407 217.221 79.9301C217.305 83.5835 217.221 87.2413 217.198 90.8946C217.198 93.4221 217.425 95.9363 217.412 98.4594C217.412 100.133 217.11 101.788 217.207 103.461C217.065 103.644 216.987 103.87 216.987 104.102C216.987 104.334 217.065 104.56 217.207 104.743C217.207 106.051 217.207 107.359 217.207 108.667C217.207 109.584 217.096 109.633 216.139 109.557C215.427 109.491 214.76 109.775 214.066 109.869C211.903 110.171 209.781 110.701 207.609 110.932C207.458 110.737 207.315 110.754 207.164 110.955C206.501 110.897 205.869 111.177 205.211 111.173C204.97 111.173 204.868 111.36 204.734 111.524C204.503 111.8 204.236 111.898 203.942 111.604C203.942 111.302 204.04 110.972 203.747 110.737C203.769 109.735 203.439 108.756 203.546 107.746C203.611 107.695 203.663 107.631 203.699 107.557C203.735 107.483 203.754 107.401 203.754 107.319C203.754 107.237 203.735 107.156 203.699 107.082C203.663 107.008 203.611 106.943 203.546 106.892C203.582 105.25 203.244 103.621 203.355 101.997C203.411 101.963 203.458 101.915 203.489 101.857C203.52 101.799 203.535 101.734 203.532 101.669C203.529 101.603 203.509 101.539 203.473 101.484C203.437 101.429 203.387 101.385 203.328 101.356C203.417 100.631 203.115 99.9412 203.141 99.2203C203.197 99.1861 203.242 99.1378 203.273 99.0804C203.303 99.023 203.318 98.9585 203.316 98.8935C203.314 98.8284 203.294 98.7652 203.26 98.71C203.225 98.6549 203.177 98.6099 203.119 98.5795C203.119 96.052 203.061 93.5245 203.119 91.0147C203.204 86.6049 203.017 82.1951 202.843 77.7897C202.665 73.1307 202.843 68.4717 202.661 63.8171C202.469 58.7665 202.518 53.7204 202.527 48.6875C202.503 42.562 203.689 36.4921 206.016 30.8258C207.395 27.4705 208.953 24.1509 211.267 21.3386C213.937 18.0769 216.758 14.9664 220.54 12.9595C223.624 11.322 226.846 9.96029 230.294 9.33286C233.334 8.74924 236.454 8.71458 239.506 9.23051C242.09 9.71844 244.608 10.5132 247.004 11.5978C249.171 12.5878 251.205 13.8483 253.056 15.3491C254.907 16.7538 256.48 18.4925 257.692 20.4753C257.945 20.8212 258.121 21.2172 258.209 21.6368C257.854 21.6713 257.497 21.5968 257.185 21.4232C255.405 20.5688 253.492 20.1817 251.6 19.7189C250.675 19.4919 249.736 19.2739 248.806 19.087C248.681 18.8689 248.539 18.86 248.388 19.0558Z" fill="#B2BFCD"/>
<path d="M217.189 104.72C217.046 104.537 216.969 104.312 216.969 104.08C216.969 103.847 217.046 103.622 217.189 103.439C217.337 103.62 217.417 103.846 217.417 104.08C217.417 104.313 217.337 104.539 217.189 104.72Z" fill="#D9DFE6"/>
<path d="M203.528 106.856C203.593 106.907 203.645 106.972 203.681 107.046C203.717 107.12 203.736 107.201 203.736 107.283C203.736 107.366 203.717 107.447 203.681 107.521C203.645 107.595 203.593 107.66 203.528 107.711C203.461 107.662 203.406 107.597 203.369 107.523C203.331 107.449 203.312 107.367 203.312 107.283C203.312 107.2 203.331 107.118 203.369 107.044C203.406 106.97 203.461 106.905 203.528 106.856Z" fill="#D9DFE6"/>
<path d="M203.746 110.701C204.04 110.937 203.924 111.266 203.942 111.569C203.613 111.337 203.372 111.088 203.746 110.701Z" fill="#D9DFE6"/>
<path d="M203.101 98.5261C203.159 98.5565 203.207 98.6015 203.242 98.6566C203.276 98.7117 203.296 98.775 203.298 98.8401C203.3 98.9051 203.285 98.9696 203.255 99.027C203.224 99.0844 203.179 99.1327 203.123 99.1669C202.852 98.9622 202.847 98.7486 203.101 98.5261Z" fill="#D9DFE6"/>
<path d="M203.31 101.303C203.369 101.332 203.419 101.376 203.455 101.431C203.491 101.486 203.511 101.55 203.514 101.615C203.517 101.681 203.502 101.746 203.471 101.804C203.439 101.862 203.393 101.91 203.337 101.944C203.277 101.916 203.225 101.872 203.188 101.817C203.151 101.762 203.131 101.698 203.128 101.631C203.125 101.565 203.141 101.499 203.173 101.441C203.205 101.384 203.252 101.336 203.31 101.303Z" fill="#D9DFE6"/>
<path d="M248.387 19.0558C248.539 18.86 248.681 18.8689 248.832 19.0558C248.654 19.2783 248.521 19.265 248.387 19.0558Z" fill="#D9DFE6"/>
<path d="M240.484 19.2872C240.618 19.087 240.76 19.0692 240.929 19.2872C240.778 19.4741 240.645 19.4919 240.484 19.2872Z" fill="#D9DFE6"/>
<path d="M207.164 110.919C207.297 110.719 207.439 110.701 207.609 110.897C207.457 111.106 207.319 111.124 207.164 110.919Z" fill="#D9DFE6"/>
<path d="M258.208 21.6368L258.288 21.6813C258.288 21.748 258.239 21.7258 258.217 21.6234L258.208 21.6368Z" fill="#B2BFCD"/>
<path d="M224.3 58.9579C222.965 61.8191 222.52 68.9345 228.345 72.9794C232.768 75.1421 237.752 75.5203 241.802 71.9426C244.338 69.4017 248.681 61.2184 239.083 54.1431C238.019 53.8316 237.637 53.0351 236.084 52.8882C231.999 52.5144 226.89 53.3688 224.3 58.9579Z" fill="#EB8045"/>
<path d="M236.435 52.9594C238.037 53.0529 244.338 55.8741 245.095 61.4142C245.54 65.1788 244.623 69.3172 241.535 72.3297C237.53 72.3653 232.39 57.7342 236.435 52.9594Z" fill="#FBC998"/>
<path d="M254.813 41.0827C254.088 41.7725 253.162 41.946 252.228 42.0929C252.207 42.0558 252.176 42.025 252.139 42.0036C252.103 41.9822 252.061 41.9709 252.018 41.9709C251.976 41.9709 251.934 41.9822 251.897 42.0036C251.861 42.025 251.83 42.0558 251.809 42.0929C250.804 42.0448 249.841 41.677 249.06 41.043C248.278 40.4091 247.72 39.5421 247.466 38.5686C247.133 37.3998 247.217 36.1515 247.704 35.0381C248.191 33.9248 249.051 33.0159 250.136 32.4678C251.145 31.9626 252.305 31.8467 253.394 32.1421C254.483 32.4376 255.426 33.1238 256.041 34.0697C256.173 34.2397 256.247 34.4468 256.255 34.6616C255.519 35.0497 254.928 35.6655 254.571 36.417C254.214 37.1686 254.11 38.0155 254.274 38.8311C254.402 39.5932 254.582 40.3455 254.813 41.0827Z" fill="#EB8247"/>
<path d="M254.813 41.0827C254.587 40.3451 254.414 39.5927 254.292 38.8311C254.128 38.0155 254.232 37.1686 254.589 36.417C254.946 35.6655 255.536 35.0496 256.272 34.6616C256.33 34.7016 256.41 34.7283 256.446 34.7817C257.425 36.2991 256.998 39.8902 254.813 41.0827Z" fill="#FBC898"/>
<path d="M251.81 42.0929C251.831 42.0558 251.861 42.025 251.898 42.0036C251.934 41.9822 251.976 41.9709 252.019 41.9709C252.061 41.9709 252.103 41.9822 252.14 42.0036C252.176 42.025 252.207 42.0558 252.228 42.0929C252.09 42.2797 251.948 42.2797 251.81 42.0929Z" fill="#FBC898"/>
<path d="M258.417 99.5852C257.687 100.108 256.812 100.389 255.914 100.389C255.016 100.389 254.141 100.108 253.411 99.5852C252.653 99.1412 252.046 98.4793 251.669 97.6857C251.292 96.8921 251.163 96.0035 251.297 95.1353C251.389 94.2244 251.754 93.3623 252.344 92.6621C252.934 91.9618 253.722 91.4559 254.604 91.2106C255.303 90.9416 256.065 90.8803 256.799 91.0343C257.532 91.1882 258.205 91.5508 258.738 92.0783C258.698 92.1373 258.655 92.1938 258.609 92.2474C256.762 94.0941 256.29 96.6572 258.19 99.0156C258.337 99.1687 258.419 99.373 258.417 99.5852Z" fill="#FDD639"/>
<path d="M229.582 93.6046C227.989 94.4501 226.44 94.2899 225.168 93.1596C224.61 92.6368 224.223 91.958 224.057 91.2118C223.891 90.4655 223.954 89.6866 224.238 88.9767C224.528 88.2476 225.04 87.6279 225.701 87.2048C226.361 86.7817 227.138 86.5766 227.922 86.6183C228.419 86.6385 228.902 86.7922 229.319 87.0633C228.14 88.7097 228.243 90.3873 229.11 92.1361C229.333 92.5633 229.662 93.035 229.582 93.6046Z" fill="#FDD639"/>
<path d="M258.418 99.5852C258.42 99.3715 258.339 99.1653 258.191 99.0112C256.291 96.6527 256.762 94.0896 258.609 92.2429C258.655 92.1893 258.699 92.1328 258.738 92.0738C261.408 93.8048 261.154 97.6896 258.738 99.5007C258.637 99.548 258.529 99.5766 258.418 99.5852Z" fill="#FDECA4"/>
<path d="M260.633 73.3176C260.499 73.9423 260.132 74.4928 259.608 74.8579C259.083 75.2229 258.44 75.3754 257.808 75.2845C256.562 75.0753 255.52 73.6336 255.645 72.2852C255.792 70.7322 256.784 69.8111 258.368 69.7622C258.463 70.1002 258.539 70.4434 258.595 70.7901C258.621 71.3735 258.833 71.9334 259.2 72.3881C259.566 72.8427 260.069 73.1684 260.633 73.3176Z" fill="#FDD639"/>
<path d="M242.87 110.274C242.745 111.164 242.042 111.351 241.343 111.506C240.871 111.582 240.387 111.52 239.949 111.327C239.51 111.135 239.137 110.82 238.874 110.421C238.6 110.024 238.453 109.554 238.453 109.072C238.453 108.591 238.6 108.12 238.874 107.724C239.118 107.317 239.484 106.997 239.92 106.81C240.356 106.622 240.84 106.576 241.303 106.678C240.814 108.316 241.668 109.371 242.87 110.274Z" fill="#FDD639"/>
<path d="M229.582 93.6046C229.662 93.035 229.333 92.5678 229.11 92.1139C228.22 90.3651 228.14 88.6875 229.319 87.041C230.472 87.397 231.055 88.2692 231.38 89.355C231.776 90.6855 231.433 92.7725 229.582 93.6046Z" fill="#FDECA4"/>
<path d="M234.17 39.3295C233.017 39.3295 232.025 38.4395 232.043 37.3982C232.065 36.1745 233.008 35.1065 234.027 35.1733C235.046 35.24 236.159 36.3837 236.154 37.3537C236.114 37.8659 235.892 38.3467 235.528 38.7092C235.164 39.0716 234.682 39.2917 234.17 39.3295Z" fill="#FDECA4"/>
<path d="M242.869 110.274C241.668 109.384 240.813 108.316 241.294 106.678C241.637 106.7 241.971 106.797 242.272 106.962C242.573 107.127 242.834 107.356 243.037 107.634C243.24 107.911 243.38 108.229 243.446 108.566C243.512 108.903 243.504 109.251 243.421 109.584C243.345 109.878 243.274 110.225 242.869 110.274Z" fill="#FDECA4"/>
<path d="M260.633 73.3176C260.068 73.1684 259.566 72.8427 259.2 72.3881C258.833 71.9334 258.621 71.3735 258.595 70.7901C258.539 70.4434 258.463 70.1002 258.368 69.7622C259.926 70.0781 260.927 71.2084 260.945 72.6724C260.95 72.7972 260.924 72.9214 260.87 73.034C260.815 73.1465 260.734 73.2439 260.633 73.3176Z" fill="#FDECA4"/>
<path d="M259.499 51.9805C259.463 51.9826 259.427 51.9826 259.392 51.9805C258.853 51.9805 258.275 52.0739 258.057 51.4153C257.976 51.1576 257.975 50.8813 258.055 50.6231C258.134 50.3649 258.29 50.1368 258.502 49.9691C258.583 49.8611 258.685 49.7709 258.802 49.7042C258.919 49.6375 259.049 49.5957 259.183 49.5815C259.317 49.5673 259.453 49.581 259.581 49.6216C259.71 49.6623 259.829 49.7291 259.93 49.8178C259.739 50.5387 259.334 51.1795 259.499 51.9805Z" fill="#FDD639"/>
<path d="M259.499 51.9805C259.312 51.1973 259.739 50.5387 259.917 49.8312C260.807 50.6233 260.776 51.4598 259.864 52.0561C259.835 52.0765 259.803 52.0907 259.769 52.0979C259.734 52.1052 259.699 52.1052 259.665 52.0981C259.631 52.091 259.598 52.0769 259.57 52.0567C259.541 52.0364 259.517 52.0105 259.499 51.9805Z" fill="#FDECA4"/>
<path d="M241.21 25.8152C240.963 25.8097 240.726 25.7175 240.541 25.5548C240.355 25.392 240.233 25.1691 240.195 24.9252C240.199 24.6766 240.3 24.4394 240.478 24.2652C240.655 24.091 240.894 23.994 241.143 23.9952C241.391 24.0153 241.623 24.1247 241.797 24.3031C241.97 24.4815 242.073 24.7168 242.087 24.9653C242.086 25.079 242.063 25.1915 242.018 25.2961C241.974 25.4007 241.909 25.4954 241.827 25.5745C241.745 25.6537 241.649 25.7157 241.543 25.7571C241.437 25.7984 241.324 25.8182 241.21 25.8152Z" fill="#FDD843"/>
<path d="M263.201 91.175C263.201 90.9442 263.29 90.7224 263.45 90.5564C263.61 90.3904 263.829 90.2931 264.06 90.285C264.175 90.2775 264.291 90.2943 264.4 90.3341C264.509 90.3739 264.609 90.436 264.692 90.5163C264.776 90.5967 264.842 90.6936 264.886 90.8008C264.931 90.9081 264.952 91.0234 264.949 91.1393C264.953 91.3683 264.865 91.5893 264.706 91.7537C264.627 91.8351 264.533 91.9001 264.429 91.9452C264.325 91.9902 264.213 92.0142 264.1 92.016C263.871 92.0195 263.65 91.932 263.485 91.7726C263.321 91.6132 263.226 91.395 263.223 91.166L263.201 91.175Z" fill="#FDD741"/>
<path d="M248.262 77.9321C248.385 77.927 248.508 77.9485 248.623 77.9951C248.737 78.0417 248.84 78.1124 248.924 78.2023C249.009 78.2923 249.073 78.3994 249.112 78.5163C249.151 78.6332 249.165 78.7573 249.152 78.88C249.121 79.11 249.001 79.3188 248.818 79.4618C248.635 79.6048 248.404 79.6706 248.173 79.6453C247.93 79.6172 247.705 79.5013 247.542 79.3195C247.378 79.1376 247.286 78.9022 247.283 78.6575C247.3 78.5454 247.338 78.4377 247.396 78.3405C247.454 78.2433 247.531 78.1586 247.622 78.0911C247.713 78.0237 247.816 77.975 247.926 77.9477C248.036 77.9204 248.15 77.9151 248.262 77.9321Z" fill="#FDD741"/>
<path d="M257.42 115.329C257.431 115.096 257.528 114.876 257.693 114.712C257.858 114.547 258.078 114.45 258.31 114.439C258.543 114.439 258.766 114.53 258.932 114.692C259.098 114.854 259.195 115.074 259.2 115.307C259.2 115.543 259.107 115.769 258.94 115.936C258.773 116.103 258.546 116.197 258.31 116.197C258.074 116.197 257.848 116.103 257.681 115.936C257.514 115.769 257.42 115.543 257.42 115.307V115.329Z" fill="#FDD843"/>
<path d="M267.313 121.452C267.312 121.668 267.23 121.875 267.082 122.032C266.934 122.189 266.732 122.284 266.516 122.297C266.288 122.298 266.068 122.21 265.902 122.053C265.737 121.895 265.638 121.68 265.627 121.452C265.624 121.236 265.705 121.028 265.853 120.872C266.001 120.715 266.203 120.621 266.419 120.611C266.533 120.607 266.647 120.625 266.753 120.665C266.86 120.706 266.958 120.766 267.041 120.845C267.125 120.923 267.191 121.017 267.238 121.121C267.285 121.225 267.31 121.338 267.313 121.452Z" fill="#FDD741"/>
<path d="M225.212 36.0499C225.443 36.0498 225.665 36.1392 225.831 36.2995C225.997 36.4597 226.094 36.6781 226.102 36.9087C226.101 37.1237 226.019 37.3305 225.872 37.4873C225.725 37.6442 225.524 37.7396 225.31 37.7542C225.081 37.7459 224.863 37.6531 224.699 37.4936C224.535 37.3342 224.435 37.1194 224.42 36.8909C224.43 36.6794 224.516 36.4786 224.661 36.3244C224.806 36.1703 225.002 36.0729 225.212 36.0499Z" fill="#FDD843"/>
</svg>
