<svg width="28" height="28" viewBox="0 0 28 28" fill="none" xmlns="http://www.w3.org/2000/svg">
<path fill-rule="evenodd" clip-rule="evenodd" d="M13.9998 25.2C20.1854 25.2 25.1998 20.1856 25.1998 14C25.1998 7.81446 20.1854 2.80005 13.9998 2.80005C7.81422 2.80005 2.7998 7.81446 2.7998 14C2.7998 20.1856 7.81422 25.2 13.9998 25.2ZM19.1898 12.19C19.7365 11.6433 19.7365 10.7568 19.1898 10.2101C18.643 9.66336 17.7566 9.66336 17.2099 10.2101L12.5998 14.8201L10.7898 13.0101C10.243 12.4634 9.35659 12.4634 8.80985 13.0101C8.26312 13.5568 8.26312 14.4433 8.80985 14.99L11.6099 17.79C12.1566 18.3367 13.043 18.3367 13.5898 17.79L19.1898 12.19Z" fill="#4CBEB3"/>
<path d="M19.1898 12.19C19.7365 11.6433 19.7365 10.7568 19.1898 10.2101C18.643 9.66336 17.7566 9.66336 17.2099 10.2101L12.5998 14.8201L10.7898 13.0101C10.243 12.4634 9.35659 12.4634 8.80985 13.0101C8.26312 13.5568 8.26312 14.4433 8.80985 14.99L11.6099 17.79C12.1566 18.3367 13.043 18.3367 13.5898 17.79L19.1898 12.19Z" fill="white"/>
</svg>
