<svg width="48" height="48" viewBox="0 0 48 48" fill="none" xmlns="http://www.w3.org/2000/svg">
<rect width="48" height="48" rx="6" fill="#E8504A"/>
<path d="M27.6002 20.4H20.4002V27.6H27.6002V20.4Z" fill="white"/>
<path fill-rule="evenodd" clip-rule="evenodd" d="M20.4002 14.4C20.4002 13.7372 20.9375 13.2 21.6002 13.2C22.2629 13.2 22.8002 13.7372 22.8002 14.4V15.6H25.2002V14.4C25.2002 13.7372 25.7375 13.2 26.4002 13.2C27.0629 13.2 27.6002 13.7372 27.6002 14.4V15.6H30.0002C31.3257 15.6 32.4002 16.6745 32.4002 18V20.4H33.6002C34.2629 20.4 34.8002 20.9372 34.8002 21.6C34.8002 22.2627 34.2629 22.8 33.6002 22.8H32.4002V25.2H33.6002C34.2629 25.2 34.8002 25.7372 34.8002 26.4C34.8002 27.0627 34.2629 27.6 33.6002 27.6H32.4002V30C32.4002 31.3254 31.3257 32.4 30.0002 32.4H27.6002V33.6C27.6002 34.2627 27.0629 34.7999 26.4002 34.7999C25.7375 34.7999 25.2002 34.2627 25.2002 33.6V32.4H22.8002V33.6C22.8002 34.2627 22.2629 34.7999 21.6002 34.7999C20.9375 34.7999 20.4002 34.2627 20.4002 33.6V32.4H18.0002C16.6747 32.4 15.6002 31.3254 15.6002 30V27.6H14.4002C13.7375 27.6 13.2002 27.0627 13.2002 26.4C13.2002 25.7372 13.7375 25.2 14.4002 25.2H15.6002V22.8H14.4002C13.7375 22.8 13.2002 22.2627 13.2002 21.6C13.2002 20.9372 13.7375 20.4 14.4002 20.4H15.6002V18C15.6002 16.6745 16.6747 15.6 18.0002 15.6H20.4002V14.4ZM18.0002 18H30.0002V30H18.0002V18Z" fill="white"/>
</svg>
