<svg width="48" height="48" viewBox="0 0 48 48" fill="none" xmlns="http://www.w3.org/2000/svg">
<rect width="48" height="48" rx="6" fill="#5596DC"/>
<path fill-rule="evenodd" clip-rule="evenodd" d="M26.3999 20.4C25.7372 20.4 25.1999 19.8627 25.1999 19.2C25.1999 18.5373 25.7372 18 26.3999 18H32.3999C33.0626 18 33.5999 18.5373 33.5999 19.2V25.2C33.5999 25.8627 33.0626 26.4 32.3999 26.4C31.7372 26.4 31.1999 25.8627 31.1999 25.2V22.0971L26.0484 27.2485C25.5798 27.7172 24.82 27.7172 24.3514 27.2485L21.5999 24.4971L16.4484 29.6485C15.9798 30.1172 15.22 30.1172 14.7514 29.6485C14.2827 29.1799 14.2827 28.4201 14.7514 27.9515L20.7514 21.9515C21.22 21.4828 21.9798 21.4828 22.4484 21.9515L25.1999 24.7029L29.5028 20.4H26.3999Z" fill="white"/>
</svg>
