<svg width="18" height="20" viewBox="0 0 18 20" fill="none" xmlns="http://www.w3.org/2000/svg">
<path fill-rule="evenodd" clip-rule="evenodd" d="M8.17295 0.57752C8.79175 0.220254 9.55415 0.220254 10.1729 0.577519L16.8332 4.42282C17.452 4.78008 17.8332 5.44034 17.8332 6.15487V13.8455C17.8332 14.56 17.452 15.2203 16.8332 15.5775L10.1729 19.4228C9.55415 19.7801 8.79175 19.7801 8.17295 19.4228L1.5127 15.5775C0.893893 15.2203 0.512695 14.56 0.512695 13.8455V6.15487C0.512695 5.44034 0.893893 4.78008 1.5127 4.42282L8.17295 0.57752ZM4.17297 15.0002C5.27754 15.0002 6.17297 14.1048 6.17297 13.0002C6.17297 11.8956 5.27754 11.0002 4.17297 11.0002C3.0684 11.0002 2.17297 11.8956 2.17297 13.0002C2.17297 14.1048 3.0684 15.0002 4.17297 15.0002ZM11.173 4.50018C11.173 5.60475 10.2775 6.50018 9.17297 6.50018C8.0684 6.50018 7.17297 5.60475 7.17297 4.50018C7.17297 3.39561 8.0684 2.50018 9.17297 2.50018C10.2775 2.50018 11.173 3.39561 11.173 4.50018ZM14.1729 15.0002C15.2775 15.0002 16.1729 14.1047 16.1729 13.0002C16.1729 11.8956 15.2775 11.0002 14.1729 11.0002C13.0684 11.0002 12.1729 11.8956 12.1729 13.0002C12.1729 14.1047 13.0684 15.0002 14.1729 15.0002ZM8.03047 8.01468C8.31461 7.5411 8.16105 6.92684 7.68747 6.64269C7.21389 6.35854 6.59963 6.51211 6.31548 6.98569L4.81548 9.48569C4.53133 9.95927 4.6849 10.5735 5.15848 10.8577C5.63206 11.1418 6.24632 10.9883 6.53047 10.5147L8.03047 8.01468ZM10.6585 6.64269C10.1849 6.92684 10.0313 7.5411 10.3155 8.01468L11.8155 10.5147C12.0996 10.9883 12.7139 11.1418 13.1875 10.8577C13.661 10.5735 13.8146 9.95927 13.5305 9.48569L12.0305 6.98569C11.7463 6.51211 11.1321 6.35854 10.6585 6.64269ZM7.67297 12.0002C7.12069 12.0002 6.67297 12.4479 6.67297 13.0002C6.67297 13.5525 7.12069 14.0002 7.67297 14.0002H10.673C11.2253 14.0002 11.673 13.5525 11.673 13.0002C11.673 12.4479 11.2253 12.0002 10.673 12.0002H7.67297Z" fill="white"/>
</svg>
