<svg width="48" height="49" viewBox="0 0 48 49" fill="none" xmlns="http://www.w3.org/2000/svg">
<rect y="0.793945" width="48" height="48" rx="6" fill="#040506"/>
<g clip-path="url(#clip0_5253_126792)">
<path fill-rule="evenodd" clip-rule="evenodd" d="M23.1728 15.3715C23.7916 15.0142 24.554 15.0142 25.1728 15.3715L31.8331 19.2168C32.4519 19.574 32.8331 20.2343 32.8331 20.9488V28.6394C32.8331 29.3539 32.4519 30.0142 31.8331 30.3715L25.1728 34.2168C24.554 34.574 23.7916 34.574 23.1728 34.2168L16.5126 30.3715C15.8938 30.0142 15.5126 29.3539 15.5126 28.6394V20.9488C15.5126 20.2343 15.8938 19.574 16.5126 19.2168L23.1728 15.3715ZM19.1729 29.7941C20.2774 29.7941 21.1729 28.8987 21.1729 27.7941C21.1729 26.6896 20.2774 25.7941 19.1729 25.7941C18.0683 25.7941 17.1729 26.6896 17.1729 27.7941C17.1729 28.8987 18.0683 29.7941 19.1729 29.7941ZM26.1729 19.2941C26.1729 20.3987 25.2774 21.2941 24.1729 21.2941C23.0683 21.2941 22.1729 20.3987 22.1729 19.2941C22.1729 18.1896 23.0683 17.2941 24.1729 17.2941C25.2774 17.2941 26.1729 18.1896 26.1729 19.2941ZM29.1728 29.7941C30.2774 29.7941 31.1728 28.8987 31.1728 27.7941C31.1728 26.6895 30.2774 25.7941 29.1728 25.7941C28.0683 25.7941 27.1728 26.6895 27.1728 27.7941C27.1728 28.8987 28.0683 29.7941 29.1728 29.7941ZM23.0303 22.8086C23.3145 22.335 23.1609 21.7208 22.6873 21.4366C22.2138 21.1525 21.5995 21.3061 21.3154 21.7796L19.8154 24.2796C19.5312 24.7532 19.6848 25.3675 20.1584 25.6516C20.6319 25.9358 21.2462 25.7822 21.5303 25.3086L23.0303 22.8086ZM25.6584 21.4366C25.1848 21.7208 25.0312 22.335 25.3154 22.8086L26.8154 25.3086C27.0995 25.7822 27.7138 25.9358 28.1873 25.6516C28.6609 25.3675 28.8145 24.7532 28.5303 24.2796L27.0303 21.7796C26.7462 21.3061 26.1319 21.1525 25.6584 21.4366ZM22.6729 26.7941C22.1206 26.7941 21.6729 27.2418 21.6729 27.7941C21.6729 28.3464 22.1206 28.7941 22.6729 28.7941H25.6729C26.2251 28.7941 26.6729 28.3464 26.6729 27.7941C26.6729 27.2418 26.2251 26.7941 25.6729 26.7941H22.6729Z" fill="#B2BFCD"/>
</g>
<defs>
<clipPath id="clip0_5253_126792">
<rect width="24" height="24" fill="white" transform="translate(12 12.7939)"/>
</clipPath>
</defs>
</svg>
