<svg width="48" height="48" viewBox="0 0 48 48" fill="none" xmlns="http://www.w3.org/2000/svg">
<rect width="48" height="48" rx="6" fill="#5596DC"/>
<path fill-rule="evenodd" clip-rule="evenodd" d="M16.8995 22.7999H19.2343C19.3413 20.9442 19.6946 19.2348 20.2396 17.8586C18.5009 18.9255 17.2501 20.7101 16.8995 22.7999ZM23.9999 14.3999C18.698 14.3999 14.3999 18.698 14.3999 23.9999C14.3999 29.3018 18.698 33.5999 23.9999 33.5999C29.3018 33.5999 33.5999 29.3018 33.5999 23.9999C33.5999 18.698 29.3018 14.3999 23.9999 14.3999ZM23.9999 16.7999C23.9086 16.7999 23.7213 16.838 23.4415 17.1141C23.1566 17.3953 22.8449 17.8618 22.5573 18.5329C22.0909 19.6212 21.7498 21.1026 21.6387 22.7999H26.3611C26.25 21.1026 25.9089 19.6212 25.4425 18.5329C25.1549 17.8618 24.8432 17.3953 24.5583 17.1141C24.2785 16.838 24.0912 16.7999 23.9999 16.7999ZM28.7655 22.7999C28.6585 20.9442 28.3052 19.2348 27.7602 17.8586C29.4989 18.9255 30.7497 20.7101 31.1004 22.7999H28.7655ZM26.3611 25.1999H21.6387C21.7498 26.8972 22.0909 28.3786 22.5573 29.4669C22.8449 30.138 23.1566 30.6045 23.4415 30.8857C23.7213 31.1618 23.9086 31.1999 23.9999 31.1999C24.0912 31.1999 24.2785 31.1618 24.5583 30.8857C24.8432 30.6045 25.1549 30.138 25.4425 29.4669C25.9089 28.3786 26.25 26.8972 26.3611 25.1999ZM27.7602 30.1412C28.3052 28.765 28.6585 27.0556 28.7655 25.1999H31.1004C30.7497 27.2897 29.4989 29.0743 27.7602 30.1412ZM20.2396 30.1412C19.6946 28.765 19.3413 27.0556 19.2343 25.1999H16.8995C17.2501 27.2897 18.5009 29.0743 20.2396 30.1412Z" fill="white"/>
</svg>
