<svg width="101" height="104" viewBox="0 0 101 104" fill="none" xmlns="http://www.w3.org/2000/svg">
<path d="M11.8584 30.1248L51.4418 11.3748M11.8584 30.1248V73.8749M11.8584 30.1248L51.4418 51.9999M11.8584 30.1248L51.4418 92.6249M11.8584 30.1248H88.9418M51.4418 11.3748L88.9418 30.1248M51.4418 11.3748V51.9999M51.4418 11.3748L88.9418 73.8749M51.4418 11.3748L11.8584 73.8749M88.9418 30.1248V73.8749M88.9418 30.1248L51.4418 51.9999M88.9418 30.1248L51.4418 92.6249M88.9418 73.8749L51.4418 92.6249M88.9418 73.8749L51.4418 51.9999M88.9418 73.8749H11.8584M51.4418 92.6249L11.8584 73.8749M51.4418 92.6249V51.9999M11.8584 73.8749L51.4418 51.9999" stroke="#96C3ED" stroke-width="3"/>
<path d="M44.1501 89.4998L51.4418 85.3332L58.7335 89.4998V95.7499L51.4418 99.9165L44.1501 95.7499V89.4998Z" fill="#5596DC" stroke="#5596DC" stroke-width="2"/>
<path d="M4.56677 70.7499L11.8584 66.5832L19.1501 70.7499V76.9998L11.8584 81.1665L4.56677 76.9998V70.7499Z" fill="#5596DC" stroke="#5596DC" stroke-width="2"/>
<path d="M2.4834 26.107L11.8584 20.7498L21.2334 26.107V34.1427L11.8584 39.4998L2.4834 34.1427V26.107Z" fill="#5596DC" stroke="#5596DC" stroke-width="2"/>
<path d="M42.0668 47.982L51.4418 42.6248L60.8168 47.982V56.0177L51.4418 61.3749L42.0668 56.0177V47.982Z" fill="#5596DC" stroke="#5596DC" stroke-width="2"/>
<path d="M2.4834 69.857L11.8584 64.4998L21.2334 69.857V77.8927L11.8584 83.2499L2.4834 77.8927V69.857Z" fill="#5596DC" stroke="#5596DC" stroke-width="2"/>
<path d="M44.1501 8.24986L51.4418 4.08319L58.7335 8.24986V14.4999L51.4418 18.6665L44.1501 14.4999V8.24986Z" fill="#5596DC" stroke="#5596DC" stroke-width="2"/>
<path d="M81.6501 70.7499L88.9418 66.5832L96.2334 70.7499V76.9998L88.9418 81.1665L81.6501 76.9998V70.7499Z" fill="#5596DC" stroke="#5596DC" stroke-width="2"/>
<path d="M81.6501 26.9999L88.9418 22.8332L96.2334 26.9999V33.2499L88.9418 37.4165L81.6501 33.2499V26.9999Z" fill="#5596DC" stroke="#5596DC" stroke-width="2"/>
<path d="M42.0667 88.6071L51.4417 83.25L60.8167 88.6071V96.6429L51.4417 102L42.0667 96.6429V88.6071Z" fill="#5596DC" stroke="#5596DC" stroke-width="2"/>
<path d="M79.5667 69.8571L88.9417 64.5L98.3167 69.8571V77.8929L88.9417 83.25L79.5667 77.8929V69.8571Z" fill="#5596DC" stroke="#5596DC" stroke-width="2"/>
<path d="M79.5667 26.1071L88.9417 20.75L98.3167 26.1071V34.1429L88.9417 39.5L79.5667 34.1429V26.1071Z" fill="#5596DC" stroke="#5596DC" stroke-width="2"/>
<path d="M42.0667 7.35714L51.4417 2L60.8167 7.35714V15.3929L51.4417 20.75L42.0667 15.3929V7.35714Z" fill="#5596DC" stroke="#5596DC" stroke-width="2"/>
</svg>
