<svg width="97" height="96" viewBox="0 0 97 96" fill="none" xmlns="http://www.w3.org/2000/svg">
<path fill-rule="evenodd" clip-rule="evenodd" d="M42.4394 13.6918C40.7238 10.2068 40.8705 9.87084 45.0319 7.75919C46.9641 6.7788 48.61 5.97633 48.6892 5.97633C48.7684 5.97633 50.439 6.75741 52.4013 7.71227C55.6236 9.28043 55.9692 9.54842 55.9692 10.4815C55.9692 14.3227 50.9776 19.9355 48.1198 19.308C46.3572 18.921 43.7396 16.3327 42.4394 13.6918Z" fill="#BDDEBA"/>
<path fill-rule="evenodd" clip-rule="evenodd" d="M27.999 6.84824C16.8473 10.6005 7.51569 13.8074 7.26159 13.9744C6.93767 14.1876 6.79993 15.6586 6.79993 18.9075C6.79993 23.8901 6.84233 23.9926 8.89505 23.9926C9.74182 23.9926 9.80263 24.1273 9.80263 25.9987C9.80263 27.5282 9.98092 28.1663 10.5533 28.6843C11.2612 29.3246 11.304 29.8403 11.304 37.6924C11.304 45.5445 11.2612 46.0602 10.5533 46.7005C9.99931 47.202 9.80263 47.8566 9.80263 49.1984C9.80263 50.94 9.75797 51.0169 8.75169 51.0169C6.94631 51.0169 6.79993 51.4835 6.79993 57.2449C6.79993 61.7565 6.89075 62.607 7.3937 62.7999C7.72025 62.9253 11.4361 63.0277 15.6511 63.0277H23.3148V65.7535V68.4788L17.3094 74.4756L11.304 80.4723V82.447C11.304 83.9052 11.164 84.422 10.7699 84.422C10.0053 84.422 7.99538 86.2019 7.34942 87.4506C6.62389 88.854 6.65167 91.3155 7.41173 92.9171C8.33093 94.8538 10.8506 96.1968 13.1503 95.9757C18.9245 95.4209 20.755 87.9134 15.8054 85.0868C14.518 84.3518 14.3119 84.0553 14.3097 82.935C14.3071 81.7575 14.8693 81.0691 20.3121 75.5903L26.3175 69.5447V66.2861V63.0277H30.8216H35.3256V65.7576V68.4878L32.3229 71.4729L29.3202 74.4579V79.4402C29.3202 83.4987 29.2211 84.422 28.7861 84.422C28.0216 84.422 26.0116 86.2019 25.3657 87.4506C24.6401 88.854 24.6679 91.3155 25.428 92.9171C26.3472 94.8538 28.8668 96.1968 31.1665 95.9757C36.9235 95.4224 38.7562 87.9048 33.8216 85.0868L32.3286 84.2344L32.3259 79.9435L32.3229 75.653L35.3256 72.5764L38.3283 69.5001V66.2639V63.0277H42.8324H47.3365V73.7249C47.3365 82.727 47.2516 84.422 46.8024 84.422C46.0378 84.422 44.0279 86.2019 43.3819 87.4506C41.3232 91.4322 44.7181 96.4047 49.2011 95.9738C54.9577 95.4206 56.7774 87.9074 51.8379 85.0868L50.3448 84.2344L50.3422 73.6311L50.3392 63.0277H54.8432H59.3473V66.5083V69.9892L62.35 72.9742L65.3527 75.9593V80.1908C65.3527 83.6004 65.2491 84.422 64.8186 84.422C64.054 84.422 62.0441 86.2019 61.3981 87.4506C59.3394 91.4322 62.7343 96.4047 67.2174 95.9738C72.974 95.4206 74.7936 87.9074 69.8541 85.0868L68.361 84.2344L68.3584 79.403L68.3554 74.5716L65.3527 71.4954L62.35 68.4187V65.7234V63.0277H66.8541H71.3581V66.5041V69.9801L77.3635 75.9769C82.6674 81.2729 83.3689 82.1167 83.3689 83.1977C83.3689 84.0065 83.1877 84.422 82.8348 84.422C82.0703 84.422 80.0603 86.2019 79.4144 87.4506C78.6584 88.9126 78.7256 91.4911 79.5608 93.0608C81.7681 97.2087 88.1815 96.887 90.1607 92.529C91.0431 90.5855 91.0405 89.5131 90.1483 87.5479C89.6697 86.4935 88.9375 85.6967 87.9075 85.1082C86.4437 84.2723 86.3773 84.1544 86.3747 82.3836L86.3716 80.5324L80.3662 74.4868L74.3608 68.4416V65.7347V63.0277H82.2298C89.6254 63.0277 90.122 62.9842 90.4872 62.3018C90.7008 61.9025 90.8757 59.4654 90.8757 56.8861C90.8757 51.7894 90.6006 51.0169 88.7847 51.0169C87.9586 51.0169 87.873 50.863 87.873 49.3786C87.873 48.3085 87.6125 47.4092 87.1223 46.7857C86.4231 45.8966 86.3716 45.263 86.3716 37.5047C86.3716 29.7465 86.4231 29.1129 87.1223 28.2238C87.6125 27.6003 87.873 26.701 87.873 25.6309C87.873 24.065 87.9222 23.9926 88.9859 23.9926C89.702 23.9926 90.2372 23.7336 90.4872 23.2667C91.0528 22.2097 90.9879 14.8932 90.4065 14.1643C90.1487 13.8404 83.6035 11.5107 75.8622 8.98655C68.1208 6.46277 59.8446 3.71491 57.4706 2.88015C52.9568 1.2936 48.7826 -0.0407125 48.4625 0.000950048C48.3593 0.0144622 39.1507 3.09561 27.999 6.84824ZM21.0628 27.1829C21.5286 26.7614 21.8135 26.0269 21.8135 25.2481V23.9926H17.3094H12.8053V25.1531C12.8053 25.7916 13.1431 26.7434 13.556 27.2681C14.2609 28.1641 14.3067 28.7909 14.3067 37.5047C14.3067 46.2186 14.2609 46.8454 13.556 47.7414C13.1431 48.2661 12.8053 49.2179 12.8053 49.8564V51.0169H17.3094H21.8135V49.9491C21.8135 49.3579 21.4783 48.578 21.0628 48.2019C20.3485 47.5556 20.3121 47.0458 20.3121 37.6924C20.3121 28.339 20.3485 27.8293 21.0628 27.1829ZM31.5723 28.6843C30.9999 28.1663 30.8216 27.5282 30.8216 25.9987V23.9926H27.8189H24.8162V25.8111C24.8162 27.1529 24.6195 27.8075 24.0655 28.309C23.3572 28.95 23.3148 29.465 23.3148 37.4394C23.3148 44.7578 23.3978 45.9821 23.9326 46.5733C24.2723 46.9486 24.6315 48.102 24.731 49.1365L24.9115 51.0169H27.8665H30.8216V49.1984C30.8216 47.8566 31.0183 47.202 31.5723 46.7005C32.2801 46.0602 32.3229 45.5445 32.3229 37.6924C32.3229 29.8403 32.2801 29.3246 31.5723 28.6843ZM42.0817 27.1829C42.5475 26.7614 42.8324 26.0269 42.8324 25.2481V23.9926H38.3283H33.8243V25.1531C33.8243 25.7916 34.1621 26.7434 34.575 27.2681C35.2798 28.1641 35.3256 28.7909 35.3256 37.5047C35.3256 46.2186 35.2798 46.8454 34.575 47.7414C34.1621 48.2661 33.8243 49.2179 33.8243 49.8564V51.0169H38.3283H42.8324V49.9491C42.8324 49.3579 42.4972 48.578 42.0817 48.2019C41.3675 47.5556 41.3311 47.0458 41.3311 37.6924C41.3311 28.339 41.3675 27.8293 42.0817 27.1829ZM52.5912 28.6843C52.0188 28.1663 51.8405 27.5282 51.8405 25.9987V23.9926H48.8378H45.8351V25.8111C45.8351 27.1529 45.6384 27.8075 45.0844 28.309C44.3762 28.95 44.3338 29.465 44.3338 37.4098C44.3338 45.263 44.3844 45.8958 45.0844 46.7857C45.5746 47.4092 45.8351 48.3085 45.8351 49.3786V51.0169H48.8378H51.8405V49.1984C51.8405 47.8566 52.0372 47.202 52.5912 46.7005C53.2991 46.0602 53.3419 45.5445 53.3419 37.6924C53.3419 29.8403 53.2991 29.3246 52.5912 28.6843ZM63.1007 27.1829C63.5665 26.7614 63.8513 26.0269 63.8513 25.2481V23.9926H59.1923H54.5332L54.7235 25.1978C54.8279 25.8606 55.2355 26.8125 55.6288 27.3128C56.289 28.1521 56.3446 28.9422 56.3446 37.5047C56.3446 46.2186 56.2988 46.8454 55.5939 47.7414C55.181 48.2661 54.8432 49.2179 54.8432 49.8564V51.0169H59.3473H63.8513V49.9491C63.8513 49.3579 63.5162 48.578 63.1007 48.2019C62.3864 47.5556 62.35 47.0458 62.35 37.6924C62.35 28.339 62.3864 27.8293 63.1007 27.1829ZM73.6101 28.6843C73.0378 28.1663 72.8595 27.5282 72.8595 25.9987V23.9926H69.8568H66.8541V25.6309C66.8541 26.701 66.5936 27.6003 66.1034 28.2238C65.4041 29.1129 65.3527 29.7465 65.3527 37.5047C65.3527 45.263 65.4041 45.8966 66.1034 46.7857C66.5936 47.4092 66.8541 48.3085 66.8541 49.3786V51.0169H69.8568H72.8595V49.1984C72.8595 47.8566 73.0561 47.202 73.6101 46.7005C74.318 46.0602 74.3608 45.5445 74.3608 37.6924C74.3608 29.8403 74.318 29.3246 73.6101 28.6843ZM84.1196 27.0977C84.5325 26.5726 84.8703 25.6594 84.8703 25.0679V23.9926H80.3662H75.8622V25.1531C75.8622 25.7916 76.2 26.7434 76.6128 27.2681C77.3177 28.1641 77.3635 28.7909 77.3635 37.5047C77.3635 46.2186 77.3177 46.8454 76.6128 47.7414C76.2 48.2661 75.8622 49.2179 75.8622 49.8564V51.0169H80.3662H84.8703V49.9491C84.8703 49.3579 84.5351 48.578 84.1196 48.2019C83.4057 47.5559 83.3689 47.0458 83.3689 37.7874C83.3689 28.6205 83.4128 27.9963 84.1196 27.0977Z" fill="#BDDEBA"/>
<path d="M21.8135 25.2481C21.8135 26.0269 21.5286 26.7614 21.0628 27.1829C20.3485 27.8293 20.3121 28.339 20.3121 37.6924C20.3121 47.0458 20.3485 47.5556 21.0628 48.2019C21.4783 48.578 21.8135 49.3579 21.8135 49.9491V51.0169H17.3094H12.8053V49.8564C12.8053 49.2179 13.1431 48.2661 13.556 47.7414C14.2609 46.8454 14.3067 46.2186 14.3067 37.5047C14.3067 28.7909 14.2609 28.1641 13.556 27.2681C13.1431 26.7434 12.8053 25.7916 12.8053 25.1531V23.9926H17.3094H21.8135V25.2481Z" fill="#BDDEBA"/>
<path d="M42.8324 25.2481C42.8324 26.0269 42.5475 26.7614 42.0817 27.1829C41.3675 27.8293 41.3311 28.339 41.3311 37.6924C41.3311 47.0458 41.3675 47.5556 42.0817 48.2019C42.4972 48.578 42.8324 49.3579 42.8324 49.9491V51.0169H38.3283H33.8243V49.8564C33.8243 49.2179 34.1621 48.2661 34.575 47.7414C35.2798 46.8454 35.3256 46.2186 35.3256 37.5047C35.3256 28.7909 35.2798 28.1641 34.575 27.2681C34.1621 26.7434 33.8243 25.7916 33.8243 25.1531V23.9926H38.3283H42.8324V25.2481Z" fill="#BDDEBA"/>
<path d="M63.8513 25.2481C63.8513 26.0269 63.5665 26.7614 63.1007 27.1829C62.3864 27.8293 62.35 28.339 62.35 37.6924C62.35 47.0458 62.3864 47.5556 63.1007 48.2019C63.5162 48.578 63.8513 49.3579 63.8513 49.9491V51.0169H59.3473H54.8432V49.8564C54.8432 49.2179 55.181 48.2661 55.5939 47.7414C56.2988 46.8454 56.3446 46.2186 56.3446 37.5047C56.3446 28.9422 56.289 28.1521 55.6288 27.3128C55.2355 26.8125 54.8279 25.8606 54.7235 25.1978L54.5332 23.9926H59.1923H63.8513V25.2481Z" fill="#BDDEBA"/>
<path d="M84.8703 25.0679C84.8703 25.6594 84.5325 26.5726 84.1196 27.0977C83.4128 27.9963 83.3689 28.6205 83.3689 37.7874C83.3689 47.0458 83.4057 47.5559 84.1196 48.2019C84.5351 48.578 84.8703 49.3579 84.8703 49.9491V51.0169H80.3662H75.8622V49.8564C75.8622 49.2179 76.2 48.2661 76.6128 47.7414C77.3177 46.8454 77.3635 46.2186 77.3635 37.5047C77.3635 28.7909 77.3177 28.1641 76.6128 27.2681C76.2 26.7434 75.8622 25.7916 75.8622 25.1531V23.9926H80.3662H84.8703V25.0679Z" fill="#BDDEBA"/>
<path fill-rule="evenodd" clip-rule="evenodd" d="M7.26159 13.9744C7.51569 13.8074 16.8473 10.6005 27.999 6.84824C39.1507 3.09561 48.3593 0.0144622 48.4625 0.000950048C48.7826 -0.0407125 52.9568 1.2936 57.4706 2.88015C59.8446 3.71491 68.1208 6.46277 75.8622 8.98655C83.6035 11.5107 90.1487 13.8404 90.4065 14.1643C90.9879 14.8932 91.0528 22.2097 90.4872 23.2667C90.2372 23.7336 89.702 23.9926 88.9859 23.9926C87.9222 23.9926 87.873 24.065 87.873 25.6309C87.873 26.701 87.6125 27.6003 87.1223 28.2238C86.4231 29.1129 86.3716 29.7465 86.3716 37.5047C86.3716 45.263 86.4231 45.8966 87.1223 46.7857C87.6125 47.4092 87.873 48.3085 87.873 49.3786C87.873 50.863 87.9586 51.0169 88.7847 51.0169C90.6006 51.0169 90.8757 51.7894 90.8757 56.8861C90.8757 59.4654 90.7008 61.9025 90.4872 62.3018C90.122 62.9842 89.6254 63.0277 82.2298 63.0277H74.3608H71.3581H66.8541H62.35H59.3473H54.8432H50.3392H47.3365H42.8324H38.3283H35.3256H30.8216H26.3175H23.3148H15.6511C11.4361 63.0277 7.72025 62.9253 7.3937 62.7999C6.89075 62.607 6.79993 61.7565 6.79993 57.2449C6.79993 51.4835 6.94631 51.0169 8.75169 51.0169C9.75797 51.0169 9.80263 50.94 9.80263 49.1984C9.80263 47.8566 9.99931 47.202 10.5533 46.7005C11.2612 46.0602 11.304 45.5445 11.304 37.6924C11.304 29.8403 11.2612 29.3246 10.5533 28.6843C9.98092 28.1663 9.80263 27.5282 9.80263 25.9987C9.80263 24.1273 9.74182 23.9926 8.89505 23.9926C6.84233 23.9926 6.79993 23.8901 6.79993 18.9075C6.79993 15.6586 6.93767 14.1876 7.26159 13.9744ZM21.0628 27.1829C21.5286 26.7614 21.8135 26.0269 21.8135 25.2481V23.9926H17.3094H12.8053V25.1531C12.8053 25.7916 13.1431 26.7434 13.556 27.2681C14.2609 28.1641 14.3067 28.7909 14.3067 37.5047C14.3067 46.2186 14.2609 46.8454 13.556 47.7414C13.1431 48.2661 12.8053 49.2179 12.8053 49.8564V51.0169H17.3094H21.8135V49.9491C21.8135 49.3579 21.4783 48.578 21.0628 48.2019C20.3485 47.5556 20.3121 47.0458 20.3121 37.6924C20.3121 28.339 20.3485 27.8293 21.0628 27.1829ZM31.5723 28.6843C30.9999 28.1663 30.8216 27.5282 30.8216 25.9987V23.9926H27.8189H24.8162V25.8111C24.8162 27.1529 24.6195 27.8075 24.0655 28.309C23.3572 28.95 23.3148 29.465 23.3148 37.4394C23.3148 44.7578 23.3978 45.9821 23.9326 46.5733C24.2723 46.9486 24.6315 48.102 24.731 49.1365L24.9115 51.0169H27.8665H30.8216V49.1984C30.8216 47.8566 31.0183 47.202 31.5723 46.7005C32.2801 46.0602 32.3229 45.5445 32.3229 37.6924C32.3229 29.8403 32.2801 29.3246 31.5723 28.6843ZM42.0817 27.1829C42.5475 26.7614 42.8324 26.0269 42.8324 25.2481V23.9926H38.3283H33.8243V25.1531C33.8243 25.7916 34.1621 26.7434 34.575 27.2681C35.2798 28.1641 35.3256 28.7909 35.3256 37.5047C35.3256 46.2186 35.2798 46.8454 34.575 47.7414C34.1621 48.2661 33.8243 49.2179 33.8243 49.8564V51.0169H38.3283H42.8324V49.9491C42.8324 49.3579 42.4972 48.578 42.0817 48.2019C41.3675 47.5556 41.3311 47.0458 41.3311 37.6924C41.3311 28.339 41.3675 27.8293 42.0817 27.1829ZM52.5912 28.6843C52.0188 28.1663 51.8405 27.5282 51.8405 25.9987V23.9926H48.8378H45.8351V25.8111C45.8351 27.1529 45.6384 27.8075 45.0844 28.309C44.3762 28.95 44.3338 29.465 44.3338 37.4098C44.3338 45.263 44.3844 45.8958 45.0844 46.7857C45.5746 47.4092 45.8351 48.3085 45.8351 49.3786V51.0169H48.8378H51.8405V49.1984C51.8405 47.8566 52.0372 47.202 52.5912 46.7005C53.2991 46.0602 53.3419 45.5445 53.3419 37.6924C53.3419 29.8403 53.2991 29.3246 52.5912 28.6843ZM63.1007 27.1829C63.5665 26.7614 63.8513 26.0269 63.8513 25.2481V23.9926H59.1923H54.5332L54.7235 25.1978C54.8279 25.8606 55.2355 26.8125 55.6288 27.3128C56.289 28.1521 56.3446 28.9422 56.3446 37.5047C56.3446 46.2186 56.2988 46.8454 55.5939 47.7414C55.181 48.2661 54.8432 49.2179 54.8432 49.8564V51.0169H59.3473H63.8513V49.9491C63.8513 49.3579 63.5162 48.578 63.1007 48.2019C62.3864 47.5556 62.35 47.0458 62.35 37.6924C62.35 28.339 62.3864 27.8293 63.1007 27.1829ZM73.6101 28.6843C73.0378 28.1663 72.8595 27.5282 72.8595 25.9987V23.9926H69.8568H66.8541V25.6309C66.8541 26.701 66.5936 27.6003 66.1034 28.2238C65.4041 29.1129 65.3527 29.7465 65.3527 37.5047C65.3527 45.263 65.4041 45.8966 66.1034 46.7857C66.5936 47.4092 66.8541 48.3085 66.8541 49.3786V51.0169H69.8568H72.8595V49.1984C72.8595 47.8566 73.0561 47.202 73.6101 46.7005C74.318 46.0602 74.3608 45.5445 74.3608 37.6924C74.3608 29.8403 74.318 29.3246 73.6101 28.6843ZM84.1196 27.0977C84.5325 26.5726 84.8703 25.6594 84.8703 25.0679V23.9926H80.3662H75.8622V25.1531C75.8622 25.7916 76.2 26.7434 76.6128 27.2681C77.3177 28.1641 77.3635 28.7909 77.3635 37.5047C77.3635 46.2186 77.3177 46.8454 76.6128 47.7414C76.2 48.2661 75.8622 49.2179 75.8622 49.8564V51.0169H80.3662H84.8703V49.9491C84.8703 49.3579 84.5351 48.578 84.1196 48.2019C83.4057 47.5559 83.3689 47.0458 83.3689 37.7874C83.3689 28.6205 83.4128 27.9963 84.1196 27.0977ZM42.4394 13.6918C40.7238 10.2068 40.8705 9.87084 45.0319 7.75919C46.9641 6.7788 48.61 5.97633 48.6892 5.97633C48.7684 5.97633 50.439 6.75741 52.4013 7.71227C55.6236 9.28043 55.9692 9.54842 55.9692 10.4815C55.9692 14.3227 50.9776 19.9355 48.1198 19.308C46.3572 18.921 43.7396 16.3327 42.4394 13.6918Z" fill="#7BBD75"/>
</svg>
