<svg width="48" height="49" viewBox="0 0 48 49" fill="none" xmlns="http://www.w3.org/2000/svg">
<rect y="0.793945" width="48" height="48" rx="6" fill="#040506"/>
<circle cx="28.7162" cy="31.9463" r="2.5" fill="#B2BFCD"/>
<circle cx="19.151" cy="31.9463" r="2.5" fill="#B2BFCD"/>
<circle cx="32.1947" cy="24.1201" r="2.5" fill="#B2BFCD"/>
<circle cx="24" cy="24.1201" r="2.5" fill="#B2BFCD"/>
<circle cx="15.6729" cy="24.1201" r="2.5" fill="#B2BFCD"/>
<circle cx="28.7162" cy="16.2939" r="2.5" fill="#B2BFCD"/>
<circle cx="19.151" cy="16.2939" r="2.5" fill="#B2BFCD"/>
<path d="M18.8571 15.7939L23.9229 24.0439M18.8571 15.7939L15.1729 24.0439M18.8571 15.7939H28.9886M23.9229 24.0439L28.9886 15.7939M23.9229 24.0439H15.1729M23.9229 24.0439H32.6729M23.9229 24.0439L28.9886 32.2939M23.9229 24.0439L18.8571 32.2939M28.9886 15.7939L32.6729 24.0439M32.6729 24.0439L28.9886 32.2939M28.9886 32.2939H18.8571M18.8571 32.2939L15.1729 24.0439" stroke="#B2BFCD" stroke-width="2"/>
</svg>
