<svg width="24" height="24" viewBox="0 0 24 24" fill="none" xmlns="http://www.w3.org/2000/svg">
<path d="M10.9729 2.3999C9.64747 2.3999 8.57295 3.47442 8.57295 4.7999V14.3999C8.57295 15.7254 9.64746 16.7999 10.9729 16.7999H18.1729C19.4984 16.7999 20.573 15.7254 20.573 14.3999V7.69696C20.573 7.06044 20.3201 6.44999 19.87 5.9999L16.9729 3.10285C16.5229 2.65276 15.9124 2.3999 15.2759 2.3999H10.9729Z" fill="white"/>
<path d="M3.77295 9.5999C3.77295 8.27442 4.84747 7.1999 6.17295 7.1999V19.1999H15.7729C15.7729 20.5254 14.6984 21.5999 13.3729 21.5999H6.17295C4.84747 21.5999 3.77295 20.5254 3.77295 19.1999V9.5999Z" fill="white"/>
</svg>
