<svg width="108" height="150" viewBox="0 0 108 150" fill="none" xmlns="http://www.w3.org/2000/svg">
<g clip-path="url(#clip0_6039_112323)">
<path d="M10.7419 88.1911C10.6121 87.4174 10.9427 86.7685 11.3761 86.1907C11.7547 85.7194 12.2011 85.3069 12.7007 84.9665C13.614 84.2931 14.4783 83.5561 15.3793 82.8657C17.9404 80.9069 20.5798 79.0461 23.2511 77.2342C24.3823 76.463 25.4963 75.6648 26.6324 74.9008C27.1833 74.5311 27.771 74.2153 28.3341 73.8651C28.4329 73.8026 28.5458 73.7655 28.6624 73.7574C28.7791 73.7493 28.896 73.7703 29.0025 73.8186C29.7316 74.0982 30.4416 74.4254 31.1278 74.798C32.9152 75.7186 34.6756 76.698 36.4899 77.5599C37.3885 77.9859 38.2944 78.4046 39.2004 78.8208C41.3158 79.8002 43.3505 80.9216 45.4072 82.0038C45.7182 82.1679 46.0291 82.3319 46.3425 82.4935C46.509 82.5768 46.6461 82.6747 46.6437 82.8853C46.1883 83.1938 45.8577 83.6394 45.4195 83.9773C44.7143 84.5331 43.9822 85.057 43.2673 85.5982C42.1459 86.4478 41.049 87.3268 39.9643 88.2205C39.0092 88.9961 38.0146 89.7218 36.9845 90.3947C34.7172 91.8883 32.5626 93.5508 30.1998 94.8974C28.7724 95.7128 27.2886 96.2979 25.5845 96.1804C25.0948 96.1486 24.6394 95.9698 24.1595 95.9209C23.3196 95.7157 22.5801 95.2184 22.0734 94.5179C21.9901 94.3307 21.9563 94.1252 21.9751 93.9211C21.994 93.717 22.0649 93.5212 22.1811 93.3524C22.3501 93.0758 22.4847 92.7795 22.6316 92.5004C22.5019 92.3779 22.3868 92.4343 22.2864 92.4783C21.9975 92.5885 21.7061 92.7036 21.4099 92.7942C20.7606 92.9894 20.0873 93.0933 19.4095 93.1027C19.0397 93.1027 18.6872 92.9411 18.3126 92.9827C17.9722 92.8138 17.6294 92.6522 17.2915 92.4734C16.7872 92.2066 16.4468 91.7609 16.0845 91.3398C15.9767 90.6273 16.3293 90.0715 16.7186 89.5377C16.687 89.5062 16.6461 89.4859 16.6019 89.4797C16.5577 89.4735 16.5128 89.4819 16.4738 89.5035C15.471 89.9798 14.3446 90.1313 13.2516 89.9368C13.1704 89.9261 13.0885 89.922 13.0067 89.9246C12.9133 89.8262 12.7948 89.7551 12.664 89.7189C11.9955 89.408 11.3222 89.1093 10.9892 88.3772C10.9674 88.3275 10.9332 88.2843 10.8899 88.2518C10.8466 88.2192 10.7956 88.1983 10.7419 88.1911ZM37.5721 84.7828C37.7656 84.7583 37.817 84.6384 37.8317 84.4572C37.9392 83.3005 37.6434 82.1422 36.9943 81.1787C36.418 80.3653 35.6492 79.7075 34.7564 79.264C33.3948 78.5439 31.8884 78.1396 30.3492 78.0814C29.201 78.0191 28.0512 78.1702 26.9581 78.527C25.2172 79.1146 23.6282 79.9251 22.3329 81.2717C20.8761 82.7873 20.4305 84.5282 21.0401 86.5384C21.1062 86.7587 21.1846 87.0011 21.4906 87.006C21.5903 87.0673 21.6742 87.1512 21.7355 87.2509C22.2643 87.9586 22.9182 88.5636 23.6649 89.0358C24.9528 89.8585 26.4267 90.0813 27.9056 90.1841C29.7664 90.3163 31.5465 89.8854 33.28 89.239C33.742 89.078 34.1764 88.8468 34.5679 88.5535C35.4372 87.8848 36.2195 87.11 36.8964 86.247C37.2687 85.8413 37.505 85.3294 37.5721 84.7828Z" fill="#EB8046"/>
<path d="M24.1643 95.9282C24.654 95.9772 25.0922 96.1559 25.5893 96.1877C27.3032 96.3053 28.7723 95.7201 30.2046 94.9048C32.5674 93.5581 34.722 91.8956 36.9893 90.402C38.0194 89.7292 39.014 89.0035 39.9691 88.2278C41.0537 87.3341 42.1507 86.4551 43.272 85.6055C43.987 85.0644 44.7191 84.5404 45.4242 83.9846C45.8576 83.6467 46.1882 83.2011 46.6485 82.8926C46.8076 83.0028 46.7562 83.1717 46.7587 83.3211C46.7587 83.7912 46.7758 84.2613 46.7587 84.7314C46.7072 86.531 46.8664 88.3257 46.8811 90.118C46.9015 90.3079 46.8674 90.4997 46.7829 90.671C46.6983 90.8422 46.5668 90.9859 46.4036 91.0852C45.0178 92.0352 43.5977 92.9313 42.1825 93.8323C40.3184 95.019 38.5122 96.2865 36.764 97.6348C35.1383 98.886 33.439 100.034 31.7961 101.261C30.2242 102.431 28.4589 103.019 26.5931 103.401C25.6799 103.587 24.7396 103.712 23.8411 103.283C23.8411 103.07 23.868 102.855 23.8582 102.642C23.8345 101.49 23.877 100.337 23.9855 99.1896C24.0516 98.1073 24.1079 97.0178 24.1643 95.9282Z" fill="#FBC998"/>
<path d="M18.3173 92.9901C18.6919 92.9484 19.0519 93.1174 19.4142 93.11C20.0921 93.1006 20.7654 92.9968 21.4146 92.8015C21.7109 92.7109 22.0023 92.5959 22.2912 92.4857C22.4014 92.4416 22.5066 92.3853 22.6364 92.5077C22.4895 92.7868 22.3548 93.0831 22.1859 93.3598C22.0697 93.5286 21.9988 93.7244 21.9799 93.9284C21.961 94.1325 21.9949 94.338 22.0782 94.5252C21.8994 94.677 21.9557 94.8876 21.9655 95.0737C22.0316 96.6701 21.8529 98.2567 21.826 99.8555C21.5517 99.9143 21.2579 99.9535 21.0914 99.9927C20.6146 100.127 20.1273 100.221 19.6346 100.274C19.3889 100.284 19.1429 100.269 18.9001 100.23C18.7066 100.203 18.3663 100.093 18.1655 100.066C18.1655 99.9975 18.1655 99.7747 18.1655 99.7747C18.1974 97.4536 18.1484 95.3087 18.3173 92.9901Z" fill="#DE5F1A"/>
<path d="M13.0287 89.9319C13.1105 89.9293 13.1924 89.9334 13.2736 89.9442C14.3666 90.1386 15.493 89.9871 16.4957 89.5108C16.5348 89.4892 16.5797 89.4809 16.6239 89.487C16.6681 89.4932 16.709 89.5136 16.7406 89.5451C16.3513 90.0788 16.0061 90.6346 16.1064 91.3471C16.0501 92.5714 16.1775 93.7956 16.0012 95.0076C15.9513 95.6283 15.9456 96.2518 15.984 96.8733H15.7392L15.4037 96.888C15.2026 96.9628 14.9953 97.0202 14.7843 97.0594C14.3247 97.136 13.8567 97.1492 13.3936 97.0986C13.1923 97.0932 12.9928 97.0594 12.801 96.9982C12.8622 94.6844 12.7765 92.2555 13.0287 89.9319Z" fill="#DE5F19"/>
<path d="M13.0287 89.9319C12.7838 92.2482 12.9772 94.5718 12.9087 96.8905C12.8695 96.9272 12.8303 96.9639 12.7936 97.0031C11.9777 96.8014 11.2616 96.313 10.7761 95.627C10.6174 95.3573 10.5448 95.0455 10.568 94.7334C10.5361 93.3084 10.7393 91.8931 10.71 90.4706C10.6753 89.7108 10.6859 88.9496 10.7418 88.1911C10.8002 88.1952 10.8563 88.2155 10.9039 88.2496C10.9514 88.2838 10.9886 88.3305 11.0111 88.3845C11.3441 89.119 12.0174 89.4153 12.6859 89.7263C12.8167 89.7624 12.9352 89.8335 13.0287 89.9319Z" fill="#ED691F"/>
<path d="M15.967 96.8733C15.9286 96.2518 15.9343 95.6283 15.9841 95.0076C16.1604 93.7834 16.0331 92.5591 16.0894 91.3471C16.4518 91.7683 16.7921 92.2139 17.2965 92.4808C17.6344 92.6595 17.9772 92.8211 18.3175 92.9901C18.1486 95.3088 18.2024 97.745 18.1804 100.066C18.1461 100.066 18.0384 100.037 17.9111 100C17.5011 99.903 17.1145 99.7256 16.7736 99.478C16.4328 99.2304 16.1445 98.9177 15.9254 98.5579C15.8758 98.4773 15.8543 98.3826 15.8642 98.2885C15.8642 98.1735 15.8813 98.0021 15.8911 97.9017C15.9379 97.6103 15.9494 97.3143 15.9254 97.0202C15.9401 96.9713 15.9548 96.9223 15.967 96.8733Z" fill="#ED691F"/>
<path d="M21.8261 99.8457C21.853 98.2518 22.0318 96.6628 21.9656 95.0639C21.9656 94.8778 21.8995 94.6673 22.0783 94.5155C22.585 95.216 23.3245 95.7133 24.1644 95.9184C24.1081 97.008 24.0517 98.0975 23.9856 99.1871C23.8771 100.334 23.8346 101.487 23.8583 102.639C23.8583 102.852 23.8461 103.068 23.8412 103.281C23.2077 103.027 22.6304 102.651 22.1419 102.174C22.0109 102.049 21.9093 101.896 21.8445 101.727C21.7797 101.557 21.7533 101.376 21.7673 101.195C21.804 100.747 21.7747 100.301 21.8261 99.8457Z" fill="#ED691F"/>
<path d="M37.5722 84.7828C37.506 85.3311 37.2697 85.8449 36.8964 86.2519C36.2196 87.1149 35.4373 87.8897 34.5679 88.5583C34.1764 88.8517 33.742 89.0829 33.2801 89.2439C31.5466 89.8903 29.7665 90.3212 27.9057 90.189C26.4366 90.0862 24.9528 89.8634 23.665 89.0407C22.9183 88.5685 22.2644 87.9635 21.7356 87.2558C21.6743 87.1561 21.5904 87.0722 21.4907 87.0109C21.7009 86.0575 22.1782 85.1836 22.8668 84.4915C23.3406 83.9981 23.8813 83.5737 24.473 83.2305C25.8381 82.4006 27.3419 81.8241 28.912 81.5288C29.3519 81.4427 29.7983 81.3936 30.2464 81.3819C31.2362 81.3455 32.226 81.4536 33.1846 81.7027C33.889 81.897 34.5698 82.1688 35.2143 82.5131C36.2024 83.027 37.0211 83.8151 37.5722 84.7828Z" fill="#FFFEFE"/>
<path d="M37.5721 84.7828C37.0224 83.8136 36.2045 83.0238 35.2167 82.5082C34.5721 82.1639 33.8914 81.8921 33.1869 81.6978C32.2283 81.4487 31.2386 81.3406 30.2488 81.377C29.8007 81.3887 29.3543 81.4378 28.9144 81.5239C27.3443 81.8192 25.8405 82.3957 24.4753 83.2256C23.8836 83.5688 23.343 83.9932 22.8691 84.4866C22.1806 85.1787 21.7033 86.0526 21.4931 87.006C21.187 87.006 21.1087 86.7612 21.0426 86.5384C20.4329 84.5282 20.8785 82.7873 22.3354 81.2717C23.6306 79.9251 25.2196 79.1146 26.9605 78.527C28.0536 78.1702 29.2034 78.0191 30.3516 78.0814C31.8909 78.1396 33.3972 78.5439 34.7589 79.264C35.6516 79.7075 36.4205 80.3653 36.9967 81.1787C37.6467 82.1419 37.9434 83.3002 37.8366 84.4572C37.8194 84.6384 37.7656 84.7583 37.5721 84.7828Z" fill="#DE601A"/>
<path d="M34.5874 106.552C34.4135 105.529 34.8518 104.674 35.4247 103.91C35.9248 103.284 36.5138 102.735 37.1729 102.28C38.38 101.391 39.5234 100.416 40.7134 99.503C44.0996 96.9076 47.5887 94.4591 51.1169 92.0596C52.6129 91.0435 54.0844 89.9858 55.5853 88.977C56.3199 88.4873 57.0887 88.0736 57.8355 87.6083C57.9659 87.5259 58.1148 87.4773 58.2687 87.467C58.4227 87.4567 58.5767 87.4851 58.7169 87.5496C59.6819 87.9224 60.621 88.3592 61.5278 88.8571C63.8881 90.0813 66.2141 91.3667 68.6136 92.5077C69.7987 93.0709 70.9959 93.6218 72.1932 94.1727C74.9894 95.4581 77.6802 96.9492 80.3956 98.3889C80.8069 98.6068 81.2183 98.8247 81.6198 99.0329C81.8402 99.143 82.0238 99.2777 82.0165 99.5495C81.4166 99.9608 80.9808 100.548 80.4078 100.997C79.4725 101.731 78.5078 102.422 77.5603 103.136C76.0912 104.258 74.6221 105.421 73.1971 106.601C71.936 107.628 70.6218 108.587 69.26 109.476C66.2655 111.447 63.418 113.638 60.2937 115.428C58.4084 116.505 56.4472 117.276 54.1971 117.122C53.5384 117.078 52.9459 116.843 52.3118 116.779C51.1953 116.456 50.2355 115.9 49.5572 114.926C49.4463 114.679 49.4008 114.407 49.4253 114.137C49.4497 113.868 49.5432 113.609 49.6968 113.386C49.9221 113.018 50.1008 112.627 50.2918 112.257C50.1204 112.095 49.9833 112.171 49.8364 112.228C49.4544 112.375 49.0724 112.526 48.6782 112.646C47.8197 112.903 46.9299 113.041 46.0339 113.055C45.5442 113.055 45.0815 112.84 44.5869 112.896C44.1363 112.673 43.6809 112.458 43.2378 112.223C42.5693 111.87 42.1188 111.283 41.6414 110.724C41.4969 109.784 41.9621 109.047 42.4787 108.342C42.4378 108.302 42.3855 108.277 42.3292 108.269C42.2729 108.261 42.2155 108.271 42.1653 108.298C40.7991 108.885 39.3912 109.167 37.905 108.868C37.8027 108.856 37.6995 108.852 37.5965 108.856C37.4736 108.725 37.3168 108.63 37.1435 108.582C36.2597 108.173 35.3684 107.774 34.9399 106.809C34.9107 106.738 34.8623 106.676 34.8 106.631C34.7378 106.585 34.6642 106.558 34.5874 106.552ZM70.0435 102.049C70.2883 102.018 70.3691 101.861 70.3838 101.621C70.5271 100.092 70.1369 98.5609 69.2796 97.2871C68.519 96.2114 67.5025 95.3422 66.3218 94.7578C64.524 93.8057 62.5348 93.271 60.5019 93.1933C58.9848 93.1105 57.4656 93.3097 56.0212 93.7809C53.7172 94.5571 51.6139 95.6295 49.9 97.4095C47.9706 99.4124 47.383 101.714 48.1861 104.371C48.2742 104.659 48.3771 104.98 48.7811 104.988C48.9131 105.069 49.0238 105.181 49.1043 105.313C49.8029 106.247 50.6658 107.046 51.6507 107.671C53.3646 108.758 55.3013 109.052 57.2576 109.189C59.7061 109.36 62.0689 108.792 64.3582 107.94C64.9725 107.727 65.5504 107.42 66.0721 107.032C67.2205 106.148 68.2537 105.124 69.1474 103.984C69.5954 103.413 69.9945 102.811 70.0435 102.049Z" fill="#EB8046"/>
<path d="M52.324 116.779C52.9582 116.843 53.5482 117.078 54.2093 117.122C56.4595 117.276 58.4207 116.505 60.306 115.428C63.4302 113.645 66.2778 111.447 69.2722 109.476C70.6341 108.587 71.9483 107.628 73.2094 106.601C74.6442 105.421 76.0912 104.258 77.5725 103.136C78.5201 102.422 79.4848 101.731 80.4201 100.997C80.993 100.548 81.4288 99.9608 82.0287 99.5495C82.2417 99.6964 82.1732 99.9192 82.1756 100.118C82.1756 100.739 82.2001 101.361 82.1756 101.981C82.1095 104.361 82.3201 106.733 82.3372 109.108C82.3651 109.359 82.3204 109.613 82.2084 109.84C82.0965 110.066 81.9219 110.256 81.7055 110.386C79.8741 111.642 77.9961 112.835 76.1255 114.017C73.6656 115.588 71.2792 117.262 68.9662 119.042C66.8189 120.694 64.5737 122.225 62.4043 123.833C60.3256 125.383 57.9971 126.159 55.5266 126.664C54.3195 126.909 53.0781 127.073 51.8882 126.507C51.8882 126.225 51.9249 125.941 51.9102 125.66C51.8319 124.134 51.9886 122.614 52.0816 121.098C52.1771 119.659 52.2506 118.209 52.324 116.779Z" fill="#FBC998"/>
<path d="M44.5992 112.896C45.0889 112.84 45.559 113.065 46.0462 113.055C46.9423 113.041 47.8321 112.903 48.6906 112.646C49.0848 112.526 49.4667 112.375 49.8487 112.228C49.9956 112.171 50.1327 112.095 50.3041 112.257C50.1131 112.627 49.9344 113.018 49.7091 113.386C49.5556 113.609 49.462 113.868 49.4376 114.137C49.4131 114.407 49.4586 114.679 49.5696 114.926C49.3247 115.127 49.408 115.416 49.4178 115.66C49.5059 117.771 49.2684 119.874 49.2341 121.98C48.8742 122.058 48.4824 122.11 48.2694 122.161C47.6394 122.338 46.9956 122.463 46.3449 122.533C46.0173 122.546 45.6893 122.526 45.3656 122.474C45.1207 122.44 44.6604 122.293 44.4058 122.257C44.4058 122.168 44.4058 121.872 44.4058 121.872C44.4474 118.792 44.3739 115.962 44.5992 112.896Z" fill="#DE5F1A"/>
<path d="M37.6088 108.856C37.7118 108.852 37.815 108.856 37.9173 108.868C39.4035 109.167 40.8114 108.885 42.1776 108.298C42.2278 108.271 42.2852 108.261 42.3415 108.269C42.3978 108.277 42.4501 108.302 42.491 108.342C41.9744 109.047 41.5117 109.784 41.6537 110.724C41.5778 112.335 41.7467 113.949 41.5117 115.562C41.3966 116.368 41.4921 117.203 41.4921 118.026H41.1811L40.7379 118.045C40.4726 118.147 40.1978 118.222 39.9177 118.27C39.3101 118.372 38.6913 118.389 38.0789 118.322C37.8135 118.316 37.5503 118.272 37.2979 118.19C37.386 115.134 37.2734 111.914 37.6088 108.856Z" fill="#DE5F19"/>
<path d="M37.6088 108.856C37.2734 111.914 37.5403 114.977 37.4497 118.048L37.2979 118.197C36.2202 117.932 35.2743 117.287 34.634 116.38C34.422 116.025 34.3254 115.613 34.3573 115.2C34.3157 113.317 34.5825 111.447 34.5434 109.569C34.4981 108.565 34.5128 107.559 34.5874 106.557C34.6647 106.563 34.7388 106.59 34.8015 106.635C34.8642 106.68 34.913 106.742 34.9425 106.814C35.3807 107.779 36.272 108.178 37.1461 108.587C37.3223 108.632 37.4826 108.725 37.6088 108.856Z" fill="#ED691F"/>
<path d="M41.4922 118.026C41.4922 117.203 41.3967 116.368 41.5118 115.562C41.7566 113.949 41.5779 112.335 41.6538 110.724C42.1435 111.282 42.5817 111.87 43.2502 112.223C43.6933 112.468 44.1487 112.673 44.5993 112.896C44.374 115.962 44.445 119.179 44.4156 122.244C44.3716 122.232 44.2295 122.208 44.063 122.159C43.5207 122.031 43.009 121.797 42.558 121.47C42.107 121.143 41.7255 120.73 41.4359 120.254C41.3712 120.146 41.3437 120.021 41.3575 119.896C41.3575 119.747 41.3771 119.519 41.3893 119.384C41.4525 119 41.4681 118.61 41.4359 118.221L41.4922 118.026Z" fill="#ED691F"/>
<path d="M49.2343 121.968C49.2685 119.862 49.506 117.759 49.4179 115.648C49.4179 115.403 49.3298 115.127 49.5697 114.914C50.2479 115.893 51.2077 116.444 52.3242 116.767C52.2508 118.207 52.1773 119.646 52.0794 121.086C51.9863 122.602 51.8345 124.122 51.908 125.648C51.9227 125.929 51.8957 126.213 51.8859 126.495C51.0488 126.158 50.2865 125.659 49.6431 125.026C49.4698 124.858 49.336 124.653 49.2513 124.427C49.1666 124.201 49.1332 123.959 49.1535 123.718C49.2049 123.148 49.1681 122.555 49.2343 121.968Z" fill="#ED691F"/>
<path d="M70.0437 102.049C69.9947 102.811 69.5956 103.413 69.1475 103.984C68.2538 105.124 67.2207 106.148 66.0723 107.032C65.5506 107.42 64.9726 107.727 64.3583 107.94C62.0715 108.792 59.7185 109.36 57.2578 109.189C55.299 109.052 53.355 108.758 51.6508 107.671C50.666 107.046 49.8031 106.247 49.1044 105.313C49.024 105.181 48.9132 105.069 48.7812 104.988C49.0576 103.727 49.6888 102.571 50.6005 101.658C51.2279 101.007 51.9422 100.446 52.7233 99.9902C54.5265 98.8942 56.5132 98.1335 58.5873 97.745C59.1699 97.629 59.7613 97.5635 60.3551 97.5491C61.665 97.5491 62.9529 97.5981 64.2359 97.9702C65.171 98.2269 66.0744 98.5875 66.9292 99.0451C68.2355 99.7251 69.3171 100.768 70.0437 102.049Z" fill="#FFFEFE"/>
<path d="M70.0436 102.049C69.3171 100.768 68.2354 99.7251 66.9292 99.0451C66.0743 98.5875 65.1709 98.2269 64.2359 97.9702C62.9529 97.5981 61.665 97.5466 60.3551 97.5491C59.7613 97.5635 59.1698 97.629 58.5873 97.745C56.5131 98.1335 54.5264 98.8942 52.7232 99.9902C51.9422 100.446 51.2278 101.007 50.6004 101.658C49.6888 102.571 49.0575 103.727 48.7812 104.988C48.3772 104.988 48.2744 104.659 48.1862 104.371C47.3807 101.714 47.9683 99.4124 49.9001 97.4095C51.6141 95.6295 53.7075 94.5571 56.0213 93.7809C57.4657 93.3097 58.9849 93.1105 60.502 93.1933C62.5349 93.271 64.5241 93.8057 66.322 94.7579C67.5026 95.3422 68.5192 96.2114 69.2797 97.2871C70.1371 98.5609 70.5272 100.092 70.384 101.621C70.3693 101.861 70.2983 102.018 70.0436 102.049Z" fill="#DE601A"/>
<path d="M70.2297 126.154C70.0999 125.381 70.4305 124.732 70.8639 124.154C71.2438 123.684 71.69 123.272 72.1885 122.93C73.1017 122.259 73.9661 121.52 74.8671 120.829C77.4282 118.87 80.0676 117.009 82.7389 115.198C83.8701 114.429 84.9841 113.628 86.1202 112.864C86.6711 112.495 87.2588 112.181 87.8219 111.829C87.9209 111.766 88.0339 111.73 88.1505 111.722C88.2672 111.714 88.384 111.736 88.4903 111.784C89.2199 112.063 89.9299 112.39 90.6156 112.764C92.403 113.684 94.1634 114.664 95.9777 115.526C96.8763 115.952 97.7822 116.37 98.6882 116.787C100.801 117.766 102.851 118.887 104.895 119.97C105.206 120.136 105.517 120.3 105.83 120.459C105.997 120.543 106.134 120.641 106.129 120.851C105.676 121.16 105.346 121.605 104.905 121.946C104.197 122.501 103.468 123.023 102.753 123.566C101.631 124.414 100.534 125.295 99.4496 126.186C98.4952 126.963 97.5005 127.688 96.4698 128.361C94.2026 129.854 92.0479 131.517 89.6852 132.866C88.2577 133.681 86.7739 134.264 85.0698 134.149C84.5801 134.114 84.1247 133.938 83.6448 133.889C82.8061 133.681 82.0674 133.185 81.5587 132.486C81.4754 132.299 81.4416 132.093 81.4605 131.889C81.4793 131.685 81.5503 131.49 81.6665 131.321C81.8354 131.044 81.9701 130.745 82.117 130.466C81.9872 130.344 81.8721 130.403 81.7717 130.444C81.4828 130.554 81.1915 130.672 80.8952 130.76C80.246 130.955 79.5727 131.059 78.8948 131.069C78.5251 131.069 78.1603 130.907 77.7979 130.951C77.4576 130.78 77.1148 130.618 76.7769 130.439C76.2725 130.172 75.9322 129.729 75.5698 129.306C75.4621 128.593 75.8146 128.037 76.204 127.504C76.1724 127.472 76.1314 127.452 76.0873 127.446C76.0431 127.439 75.9981 127.448 75.9591 127.469C74.9563 127.946 73.8299 128.097 72.7369 127.903C72.6554 127.896 72.5736 127.896 72.4921 127.903C72.3993 127.803 72.2807 127.731 72.1493 127.695C71.4809 127.386 70.8075 127.085 70.4745 126.353C70.4545 126.301 70.4213 126.256 70.3784 126.221C70.3355 126.186 70.2842 126.163 70.2297 126.154ZM97.0599 122.746C97.2534 122.722 97.3048 122.604 97.3195 122.423C97.4274 121.265 97.1315 120.106 96.4821 119.142C95.9064 118.329 95.1373 117.672 94.2442 117.23C92.8832 116.508 91.3766 116.103 89.837 116.045C88.6893 115.984 87.5403 116.137 86.4483 116.495C84.7074 117.083 83.1184 117.893 81.8232 119.24C80.3663 120.756 79.9207 122.499 80.5304 124.507C80.5965 124.727 80.6748 124.969 80.9809 124.974C81.0809 125.035 81.1648 125.119 81.2257 125.219C81.7559 125.926 82.4096 126.53 83.1551 127.004C84.443 127.827 85.917 128.047 87.3959 128.152C89.2567 128.282 91.0367 127.851 92.7825 127.207C93.2441 127.044 93.6783 126.812 94.0704 126.519C94.9397 125.851 95.722 125.076 96.3988 124.213C96.7659 123.804 96.9969 123.292 97.0599 122.746Z" fill="#EB8046"/>
<path d="M83.6523 133.894C84.142 133.943 84.5802 134.119 85.0773 134.154C86.7912 134.269 88.2603 133.686 89.6926 132.871C92.0554 131.521 94.21 129.859 96.4773 128.365C97.508 127.693 98.5026 126.968 99.4571 126.191C100.542 125.3 101.639 124.418 102.76 123.571C103.475 123.028 104.205 122.506 104.912 121.95C105.346 121.61 105.676 121.164 106.136 120.856C106.298 120.966 106.247 121.135 106.249 121.284C106.249 121.755 106.266 122.225 106.249 122.695C106.198 124.494 106.357 126.292 106.372 128.081C106.394 128.271 106.362 128.464 106.28 128.637C106.197 128.809 106.066 128.955 105.904 129.056C104.518 130.006 103.098 130.902 101.683 131.803C99.8203 132.991 98.0141 134.259 96.2643 135.606C94.6385 136.857 92.9393 138.007 91.2964 139.232C89.7245 140.404 87.9591 140.992 86.0934 141.372C85.1801 141.56 84.2399 141.683 83.3413 141.254C83.3413 141.041 83.3682 140.826 83.3584 140.613C83.3347 139.461 83.3772 138.309 83.4858 137.163C83.5396 136.083 83.596 134.984 83.6523 133.894Z" fill="#FBC998"/>
<path d="M77.8052 130.956C78.1798 130.912 78.5397 131.081 78.9021 131.073C79.58 131.064 80.2532 130.96 80.9025 130.765C81.1987 130.677 81.4901 130.559 81.779 130.449C81.8892 130.407 81.9945 130.349 82.1242 130.471C81.9773 130.75 81.8427 131.049 81.6737 131.326C81.5575 131.494 81.4866 131.69 81.4677 131.894C81.4489 132.098 81.4827 132.304 81.566 132.491C81.3873 132.643 81.4436 132.851 81.4534 133.037C81.5195 134.636 81.3407 136.22 81.3138 137.819C81.0396 137.88 80.7458 137.917 80.5793 137.956C80.0984 138.091 79.607 138.185 79.1102 138.238C78.8645 138.247 78.6185 138.232 78.3757 138.194C78.1822 138.167 77.8419 138.056 77.6411 138.029C77.6411 137.961 77.6411 137.738 77.6411 137.738C77.6852 135.417 77.6362 133.275 77.8052 130.956Z" fill="#DE5F1A"/>
<path d="M72.5165 127.898C72.598 127.891 72.6799 127.891 72.7614 127.898C73.8544 128.092 74.9808 127.941 75.9835 127.464C76.0225 127.443 76.0675 127.434 76.1117 127.441C76.1558 127.447 76.1968 127.467 76.2284 127.499C75.8391 128.032 75.4938 128.588 75.5942 129.301C75.5379 130.525 75.6652 131.749 75.489 132.973C75.4391 133.593 75.4334 134.216 75.4718 134.837H75.227L74.8915 134.851C74.6911 134.929 74.4836 134.986 74.2721 135.023C73.8125 135.099 73.3445 135.113 72.8813 135.062C72.6801 135.057 72.4806 135.023 72.2888 134.962C72.3598 132.655 72.2643 130.207 72.5165 127.898Z" fill="#DE5F19"/>
<path d="M72.5166 127.898C72.2718 130.212 72.4652 132.535 72.3966 134.854C72.3575 134.891 72.3183 134.927 72.2815 134.966C71.4663 134.765 70.7505 134.277 70.264 133.593C70.1055 133.322 70.033 133.01 70.0559 132.697C70.0241 131.274 70.2273 129.859 70.1979 128.434C70.1632 127.674 70.1738 126.913 70.2297 126.154C70.2881 126.159 70.3441 126.179 70.3916 126.213C70.4391 126.247 70.4763 126.294 70.4991 126.348C70.8321 127.082 71.5054 127.381 72.1738 127.69C72.3052 127.726 72.4239 127.798 72.5166 127.898Z" fill="#ED691F"/>
<path d="M75.4547 134.837C75.4162 134.216 75.422 133.593 75.4718 132.973C75.6481 131.749 75.5208 130.525 75.5771 129.301C75.9395 129.724 76.2798 130.167 76.7842 130.434C77.1221 130.613 77.4648 130.775 77.8052 130.946C77.6362 133.265 77.6901 135.699 77.6681 138.02C77.6338 138.02 77.5261 137.99 77.3987 137.954C76.989 137.857 76.6025 137.68 76.2616 137.433C75.9208 137.186 75.6323 136.873 75.413 136.514C75.3638 136.432 75.3423 136.337 75.3518 136.242C75.3518 136.129 75.369 135.956 75.3763 135.855C75.4252 135.564 75.4376 135.268 75.413 134.974C75.4277 134.935 75.4424 134.886 75.4547 134.837Z" fill="#ED691F"/>
<path d="M81.3139 137.819C81.3408 136.225 81.5195 134.636 81.4534 133.037C81.4534 132.851 81.3873 132.643 81.5661 132.491C82.0747 133.19 82.8134 133.686 83.6521 133.894C83.5958 134.984 83.5395 136.073 83.4734 137.163C83.3649 138.309 83.3223 139.461 83.3461 140.613C83.3461 140.826 83.3461 141.041 83.3289 141.254C82.6955 141 82.1182 140.624 81.6297 140.147C81.4986 140.022 81.397 139.869 81.3323 139.7C81.2675 139.53 81.2411 139.349 81.2551 139.168C81.2918 138.713 81.2625 138.265 81.3139 137.819Z" fill="#ED691F"/>
<path d="M97.06 122.746C96.9934 123.294 96.7571 123.808 96.3843 124.215C95.7074 125.078 94.9251 125.853 94.0558 126.522C93.6637 126.815 93.2295 127.047 92.7679 127.21C91.0344 127.854 89.2543 128.285 87.3813 128.155C85.9122 128.05 84.4284 127.829 83.1405 127.007C82.395 126.533 81.7413 125.928 81.2112 125.222C81.1502 125.122 81.0663 125.038 80.9663 124.977C81.1748 124.023 81.6523 123.148 82.3423 122.457C82.8175 121.965 83.3579 121.541 83.9485 121.196C85.3134 120.366 86.8174 119.791 88.3876 119.497C88.8274 119.41 89.2738 119.36 89.722 119.348C90.7117 119.313 91.7013 119.421 92.6601 119.668C93.365 119.863 94.0459 120.135 94.6899 120.481C95.682 120.992 96.5051 121.778 97.06 122.746Z" fill="#FFFEFE"/>
<path d="M97.0599 122.746C96.51 121.778 95.6921 120.989 94.7045 120.474C94.0605 120.128 93.3796 119.855 92.6747 119.661C91.7159 119.413 90.7263 119.305 89.7366 119.34C89.2884 119.353 88.842 119.403 88.4022 119.49C86.832 119.783 85.328 120.359 83.9631 121.189C83.3725 121.534 82.8321 121.958 82.3569 122.45C81.6669 123.141 81.1894 124.015 80.9809 124.969C80.6748 124.969 80.5965 124.725 80.5304 124.502C79.9207 122.494 80.3663 120.751 81.8232 119.235C83.1184 117.888 84.7074 117.078 86.4483 116.49C87.5414 116.134 88.6912 115.982 89.8394 116.045C91.379 116.103 92.8856 116.508 94.2466 117.23C95.1397 117.672 95.9088 118.329 96.4845 119.142C97.134 120.106 97.4298 121.265 97.3219 122.423C97.3072 122.616 97.2534 122.722 97.0599 122.746Z" fill="#DE601A"/>
<path d="M70.9741 80.1063C70.8443 79.3301 71.1749 78.6837 71.6082 78.1059C71.9869 77.6346 72.4333 77.2221 72.9329 76.8816C73.8461 76.2083 74.7104 75.4713 75.6115 74.7809C78.1726 72.8221 80.812 70.9613 83.4833 69.1494C84.6145 68.3806 85.7285 67.5824 86.8646 66.8185C87.413 66.4488 88.0031 66.1329 88.5785 65.7828C88.6773 65.7202 88.7902 65.6832 88.9068 65.675C89.0235 65.6669 89.1404 65.688 89.2469 65.7363C89.9754 66.0173 90.6853 66.3444 91.3722 66.7156C93.1596 67.6387 94.92 68.6181 96.7343 69.4799C97.6329 69.906 98.5388 70.3222 99.4423 70.7385C101.558 71.7178 103.605 72.8392 105.652 73.9215C105.96 74.0855 106.274 74.2495 106.587 74.4111C106.753 74.4944 106.891 74.5923 106.886 74.8029C106.433 75.1114 106.102 75.557 105.661 75.8949C104.954 76.4507 104.224 76.9747 103.507 77.5158C102.385 78.363 101.291 79.2444 100.206 80.1356C99.2518 80.9129 98.2572 81.6395 97.2265 82.3123C94.9592 83.8034 92.8045 85.4659 90.4418 86.815C89.0094 87.6353 87.5257 88.2205 85.8264 88.0931C85.3367 88.0589 84.8813 87.8826 84.4014 87.8336C83.562 87.6275 82.8228 87.1304 82.3153 86.4306C82.2321 86.2434 82.1982 86.0379 82.2171 85.8338C82.236 85.6298 82.3069 85.434 82.4231 85.2652C82.592 84.9885 82.7267 84.6922 82.8736 84.4107C82.7438 84.2882 82.6288 84.347 82.5284 84.3886C82.237 84.5012 81.9481 84.6163 81.6518 84.7069C81.0015 84.9012 80.3276 85.005 79.649 85.0154C79.2817 85.0154 78.9291 84.8538 78.5545 84.8954C78.2142 84.7265 77.8714 84.5649 77.5335 84.3862C77.0291 84.1193 76.6888 83.6737 76.3264 83.2525C76.2187 82.54 76.5713 81.9842 76.9606 81.4505C76.9292 81.4186 76.8882 81.398 76.844 81.3918C76.7997 81.3856 76.7546 81.3942 76.7157 81.4162C75.7122 81.8932 74.5846 82.0438 73.4911 81.8471C73.4096 81.8402 73.3277 81.8402 73.2463 81.8471C73.1532 81.7482 73.0345 81.677 72.9035 81.6414C72.235 81.3305 71.5593 81.0293 71.2287 80.2997C71.2078 80.2474 71.173 80.2018 71.1282 80.1677C71.0833 80.1337 71.0301 80.1124 70.9741 80.1063ZM97.8043 76.698C97.9953 76.6735 98.0491 76.5535 98.0614 76.3724C98.1704 75.2159 97.8754 74.0573 97.2265 73.0939C96.6502 72.2805 95.8813 71.6226 94.9886 71.1792C93.6273 70.4582 92.1207 70.0539 90.5813 69.9966C89.4333 69.9344 88.2837 70.0846 87.1902 70.4397C85.4494 71.0274 83.8603 71.8403 82.5651 73.1869C81.096 74.7025 80.6626 76.4434 81.2723 78.4536C81.3384 78.6739 81.4168 78.9139 81.7228 78.9212C81.8219 78.9832 81.9057 79.0669 81.9677 79.1661C82.4958 79.8744 83.1499 80.4794 83.8971 80.951C85.1849 81.7737 86.6565 81.9965 88.1378 82.0993C89.9986 82.2291 91.7786 81.8006 93.5097 81.1542C93.9722 80.9928 94.4074 80.7616 94.8001 80.4686C95.6675 79.7987 96.4488 79.024 97.1261 78.1622C97.4982 77.7561 97.7352 77.2445 97.8043 76.698Z" fill="#EB8046"/>
<path d="M84.3965 87.8483C84.8862 87.8973 85.3244 88.0736 85.8215 88.1078C87.5354 88.2254 89.0045 87.6402 90.4368 86.8248C92.7996 85.4757 94.9542 83.8132 97.2215 82.3221C98.2522 81.6492 99.2468 80.9227 100.201 80.1454C101.286 79.2542 102.38 78.3728 103.502 77.5256C104.219 76.9845 104.949 76.4605 105.656 75.9047C106.09 75.5668 106.42 75.1212 106.881 74.8127C107.042 74.9229 106.991 75.0918 106.993 75.2412C106.993 75.7113 107.01 76.1814 106.993 76.6515C106.942 78.4511 107.101 80.2458 107.116 82.0381C107.138 82.2312 107.103 82.4266 107.016 82.6004C106.929 82.7743 106.794 82.9192 106.626 83.0175C105.24 83.965 103.823 84.8636 102.405 85.7647C100.544 86.953 98.7379 88.2205 96.9865 89.5671C95.3631 90.8158 93.6639 91.9666 92.021 93.1908C90.4491 94.3636 88.6837 94.9513 86.818 95.3332C85.9047 95.5193 84.9645 95.6442 84.0635 95.2157C84.0635 95.0002 84.0929 94.7872 84.0806 94.5742C84.0589 93.4219 84.1022 92.2693 84.2104 91.1219C84.2838 90.0225 84.3401 88.933 84.3965 87.8483Z" fill="#FBC998"/>
<path d="M78.5496 84.9101C78.9242 84.8685 79.2841 85.0375 79.644 85.0301C80.3226 85.0197 80.9966 84.9159 81.6468 84.7216C81.9431 84.631 82.232 84.5159 82.5234 84.4033C82.6336 84.3617 82.7389 84.3029 82.8686 84.4253C82.7217 84.7069 82.5871 85.0032 82.4181 85.2799C82.3019 85.4487 82.231 85.6445 82.2121 85.8485C82.1933 86.0526 82.2271 86.2581 82.3104 86.4453C82.1292 86.5971 82.188 86.8077 82.1953 86.9938C82.2639 88.5902 82.0827 90.1768 82.0582 91.7756C81.784 91.8344 81.4877 91.8736 81.3237 91.9127C80.8425 92.0468 80.3512 92.1409 79.8546 92.1943C79.6089 92.2038 79.3628 92.1891 79.12 92.1502C78.9266 92.1233 78.5863 92.0107 78.3855 91.9862C78.3855 91.9176 78.3855 91.6948 78.3855 91.6948C78.4296 89.3688 78.3806 87.2239 78.5496 84.9101Z" fill="#DE5F1A"/>
<path d="M73.2609 81.8471C73.3424 81.8402 73.4243 81.8402 73.5058 81.8471C74.5993 82.0438 75.7269 81.8932 76.7304 81.4162C76.7693 81.3942 76.8143 81.3856 76.8586 81.3918C76.9029 81.398 76.9439 81.4186 76.9752 81.4505C76.5835 81.9842 76.2407 82.54 76.3411 83.2525C76.2848 84.4768 76.4096 85.701 76.2333 86.9252C76.1843 87.5452 76.1794 88.1678 76.2187 88.7885H75.9738L75.6384 88.8032C75.4376 88.8798 75.2302 88.9379 75.0189 88.977C74.5591 89.0512 74.0915 89.0644 73.6282 89.0162C73.4259 89.0109 73.2255 88.9763 73.0332 88.9134C73.0944 86.5971 73.0063 84.1756 73.2609 81.8471Z" fill="#DE5F19"/>
<path d="M73.2607 81.8471C73.0159 84.1634 73.2093 86.4869 73.1408 88.8032L73.0233 88.9158C72.2079 88.7159 71.4923 88.2281 71.0082 87.5422C70.8483 87.2729 70.7756 86.9608 70.8001 86.6485C70.7682 85.2235 70.9715 83.8083 70.9421 82.3833C70.9074 81.6243 70.918 80.864 70.9739 80.1063C71.0325 80.1098 71.0888 80.1299 71.1365 80.1641C71.1842 80.1983 71.2212 80.2453 71.2432 80.2997C71.5738 81.0342 72.2495 81.3305 72.918 81.6414C73.0491 81.677 73.1677 81.7482 73.2607 81.8471Z" fill="#ED691F"/>
<path d="M76.1989 88.7861C76.1597 88.1654 76.1646 87.5427 76.2136 86.9228C76.3899 85.6985 76.265 84.4743 76.3214 83.2501C76.6837 83.6712 77.0241 84.1168 77.5284 84.3837C77.8663 84.5625 78.2091 84.7241 78.5495 84.893C78.3805 87.2117 78.4344 89.6479 78.4123 91.969C78.3781 91.969 78.2703 91.9397 78.143 91.9029C77.7331 91.8059 77.3465 91.6285 77.0056 91.3809C76.6647 91.1334 76.3764 90.8206 76.1573 90.4608C76.1077 90.3802 76.0862 90.2855 76.0961 90.1915C76.0961 90.0764 76.1132 89.905 76.1206 89.8046C76.1695 89.5135 76.1818 89.2174 76.1573 88.9232C76.172 88.8864 76.1842 88.8277 76.1989 88.7861Z" fill="#ED691F"/>
<path d="M82.0583 91.7658C82.0827 90.1719 82.2639 88.5828 82.1954 86.984C82.1954 86.7979 82.1293 86.5873 82.3105 86.4355C82.8179 87.1353 83.5571 87.6324 84.3965 87.8385C84.3402 88.9281 84.2839 90.0176 84.2178 91.1072C84.1097 92.2546 84.0663 93.4072 84.088 94.5595C84.1003 94.7725 84.088 94.9856 84.0709 95.201C83.4382 94.9469 82.8617 94.5709 82.3741 94.0943C82.243 93.969 82.1414 93.8161 82.0766 93.6468C82.0119 93.4774 81.9855 93.2957 81.9995 93.1149C82.0362 92.662 82.0068 92.2139 82.0583 91.7658Z" fill="#ED691F"/>
<path d="M97.8041 76.698C97.736 77.2462 97.499 77.7596 97.1259 78.1671C96.4486 79.0289 95.6674 79.8036 94.7999 80.4735C94.4072 80.7665 93.9721 80.9977 93.5095 81.1591C91.7785 81.8055 89.9985 82.234 88.1376 82.1042C86.6563 82.0014 85.1848 81.7786 83.8969 80.9559C83.1497 80.4843 82.4957 79.8793 81.9675 79.1709C81.9055 79.0718 81.8218 78.9881 81.7227 78.9261C81.9305 77.9718 82.4081 77.0973 83.0987 76.4066C83.5725 75.9133 84.1132 75.4889 84.7049 75.1457C86.0683 74.3115 87.5714 73.7309 89.1415 73.4318C89.5823 73.3458 90.0294 73.2967 90.4784 73.2849C91.468 73.2489 92.4576 73.3561 93.4165 73.6032C94.1204 73.7979 94.8004 74.0706 95.4438 74.416C96.4347 74.9325 97.2545 75.7251 97.8041 76.698Z" fill="#FFFEFE"/>
<path d="M97.8043 76.698C97.2542 75.7282 96.4353 74.9382 95.4464 74.4234C94.8029 74.0779 94.123 73.8053 93.4191 73.6105C92.4601 73.3635 91.4705 73.2563 90.4809 73.2922C90.032 73.304 89.5848 73.3531 89.1441 73.4391C87.5739 73.7382 86.0709 74.3189 84.7075 75.153C84.1158 75.4962 83.5751 75.9207 83.1013 76.414C82.4107 77.1046 81.9331 77.9791 81.7252 78.9334C81.4192 78.9334 81.3408 78.6886 81.2747 78.4658C80.665 76.4556 81.1082 74.7148 82.5675 73.1992C83.8627 71.8525 85.4518 71.0396 87.1926 70.452C88.2861 70.0969 89.4357 69.9466 90.5838 70.0088C92.1231 70.0662 93.6297 70.4704 94.991 71.1914C95.8837 71.6349 96.6526 72.2927 97.2289 73.1061C97.8768 74.0656 98.1734 75.2194 98.0687 76.3724C98.0516 76.5535 97.9952 76.6735 97.8043 76.698Z" fill="#DE601A"/>
<path d="M6.43747 134.614C6.3077 133.84 6.63824 133.191 7.07162 132.613C7.45083 132.143 7.89713 131.73 8.39624 131.389C9.30951 130.696 10.1689 129.962 11.0749 129.276C13.6384 127.317 16.2754 125.457 18.9466 123.645C20.0803 122.874 21.1919 122.075 22.328 121.311C22.8789 120.942 23.4665 120.626 24.0296 120.276C24.1285 120.213 24.2413 120.176 24.358 120.168C24.4747 120.16 24.5915 120.181 24.6981 120.229C25.426 120.512 26.1344 120.844 26.8184 121.221C28.6058 122.141 30.3663 123.121 32.1806 123.983C33.0792 124.409 33.9851 124.827 34.891 125.241C37.0065 126.221 39.0412 127.344 41.0979 128.424C41.4088 128.588 41.7198 128.752 42.0332 128.914C42.1997 128.997 42.3368 129.095 42.3343 129.306C41.8789 129.614 41.5484 130.06 41.1101 130.398C40.4025 130.953 39.6704 131.477 38.9555 132.019C37.8341 132.868 36.7396 133.747 35.6525 134.641C34.7046 135.417 33.7174 136.143 32.6947 136.817C30.4275 138.311 28.2728 139.974 25.9101 141.32C24.4826 142.136 22.9989 142.721 21.2972 142.603C20.8075 142.571 20.3496 142.393 19.8697 142.344C19.0303 142.139 18.2914 141.642 17.7861 140.941C17.7017 140.754 17.6671 140.548 17.6856 140.344C17.704 140.14 17.7749 139.944 17.8914 139.775C18.0603 139.499 18.195 139.202 18.3419 138.923C18.2121 138.801 18.097 138.857 17.9966 138.901C17.7077 139.011 17.4188 139.126 17.1201 139.217C16.4709 139.412 15.7976 139.516 15.1197 139.525C14.7524 139.525 14.3974 139.364 14.0228 139.406C13.6825 139.237 13.3397 139.075 13.0042 138.896C12.4974 138.629 12.1571 138.184 11.7947 137.763C11.687 137.05 12.0395 136.494 12.4288 135.961C12.3975 135.929 12.3565 135.908 12.3122 135.902C12.268 135.896 12.2229 135.904 12.184 135.926C11.1803 136.402 10.0532 136.554 8.95938 136.36C8.88196 136.354 8.80419 136.354 8.72677 136.36C8.63204 136.262 8.51287 136.191 8.38154 136.154C7.71312 135.843 7.03978 135.542 6.70679 134.812C6.68496 134.757 6.64815 134.71 6.60054 134.674C6.55292 134.639 6.49642 134.618 6.43747 134.614ZM33.2677 131.206C33.4611 131.181 33.5125 131.061 33.5272 130.88C33.6368 129.723 33.3426 128.564 32.6947 127.599C32.1191 126.785 31.3501 126.127 30.4569 125.684C29.0952 124.964 27.5889 124.56 26.0496 124.502C24.9006 124.439 23.7498 124.59 22.6561 124.947C20.9128 125.535 19.3237 126.345 18.0309 127.692C16.5618 129.208 16.126 130.949 16.7357 132.959C16.8018 133.179 16.8801 133.421 17.1862 133.426C17.2852 133.489 17.3688 133.572 17.4311 133.671C17.9583 134.379 18.6115 134.985 19.358 135.456C20.6483 136.279 22.1199 136.502 23.5987 136.604C25.4596 136.737 27.242 136.306 28.9731 135.659C29.4351 135.498 29.8695 135.267 30.261 134.974C31.1304 134.305 31.9126 133.53 32.5895 132.667C32.9627 132.262 33.1998 131.75 33.2677 131.203V131.206Z" fill="#EB8046"/>
<path d="M19.8601 142.349C20.3497 142.398 20.7905 142.576 21.2875 142.608C22.9892 142.726 24.4705 142.14 25.9004 141.325C28.2632 139.978 30.4178 138.316 32.6851 136.822C33.7152 136.15 34.7098 135.424 35.6649 134.648C36.752 133.754 37.8464 132.875 38.9678 132.026C39.6828 131.485 40.4149 130.961 41.1225 130.405C41.5534 130.067 41.884 129.621 42.3467 129.313C42.5083 129.423 42.4544 129.592 42.4569 129.741C42.4569 130.212 42.474 130.682 42.4569 131.152C42.4079 132.951 42.5671 134.746 42.5793 136.538C42.6021 136.73 42.5693 136.925 42.4846 137.098C42.3999 137.272 42.2671 137.418 42.1019 137.518C40.716 138.468 39.2959 139.364 37.8807 140.265C36.0166 141.453 34.2105 142.721 32.4623 144.067C30.8365 145.319 29.1373 146.467 27.4944 147.694C25.9224 148.864 24.1571 149.452 22.2914 149.833C21.3781 150.02 20.4403 150.144 19.5393 149.716C19.5393 149.503 19.5662 149.287 19.5564 149.074C19.5339 147.922 19.5764 146.77 19.6838 145.622C19.7499 144.528 19.8037 143.428 19.8601 142.349Z" fill="#FBC998"/>
<path d="M14.0131 139.41C14.3877 139.369 14.7477 139.538 15.11 139.53C15.7879 139.521 16.4612 139.417 17.1104 139.222C17.4091 139.131 17.6981 139.016 17.987 138.906C18.0972 138.862 18.2024 138.806 18.3322 138.928C18.1853 139.207 18.0506 139.503 17.8817 139.78C17.7652 139.949 17.6943 140.145 17.6759 140.349C17.6574 140.553 17.6921 140.759 17.7764 140.946C17.5952 141.097 17.654 141.308 17.6613 141.494C17.7274 143.09 17.5487 144.677 17.5218 146.276C17.25 146.335 16.9537 146.374 16.7872 146.413C16.3112 146.547 15.8247 146.642 15.3328 146.695C15.0871 146.704 14.8411 146.689 14.5983 146.65C14.4073 146.624 14.067 146.513 13.8638 146.486C13.8638 146.418 13.8638 146.195 13.8638 146.195C13.8932 143.874 13.8417 141.729 14.0131 139.41Z" fill="#DE5F1A"/>
<path d="M8.72675 136.352C8.80416 136.346 8.88194 136.346 8.95936 136.352C10.0531 136.547 11.1803 136.395 12.184 135.919C12.2229 135.897 12.2679 135.888 12.3122 135.895C12.3565 135.901 12.3975 135.921 12.4288 135.953C12.0395 136.487 11.6943 137.043 11.7947 137.755C11.7384 138.979 11.8657 140.204 11.6894 141.428C11.6404 142.049 11.6355 142.672 11.6747 143.294H11.4299L11.0944 143.308C10.8933 143.383 10.6861 143.441 10.475 143.48C10.0154 143.556 9.54741 143.57 9.08423 143.519C8.88297 143.514 8.68348 143.48 8.4917 143.419C8.55781 141.105 8.47211 138.669 8.72675 136.352Z" fill="#DE5F19"/>
<path d="M8.72682 136.352C8.48197 138.669 8.67295 140.992 8.6044 143.311L8.48933 143.423C7.67418 143.222 6.95889 142.733 6.47424 142.047C6.31434 141.778 6.24164 141.466 6.26612 141.154C6.23184 139.729 6.43506 138.313 6.40568 136.891C6.37222 136.131 6.38285 135.37 6.43751 134.611C6.49592 134.616 6.55204 134.636 6.5996 134.67C6.64716 134.704 6.68429 134.751 6.70684 134.805C7.03983 135.539 7.71316 135.836 8.38159 136.147C8.51292 136.183 8.63208 136.254 8.72682 136.352Z" fill="#ED691F"/>
<path d="M11.6649 143.294C11.6257 142.672 11.6306 142.049 11.6796 141.428C11.8559 140.204 11.7285 138.979 11.7849 137.755C12.1472 138.176 12.4876 138.622 12.9944 138.889C13.3298 139.068 13.6726 139.229 14.013 139.398C13.844 141.717 13.8979 144.153 13.8758 146.474C13.8416 146.474 13.7338 146.445 13.609 146.408C13.1986 146.311 12.8115 146.134 12.4702 145.887C12.1289 145.639 11.8402 145.326 11.6208 144.966C11.5721 144.885 11.5514 144.79 11.562 144.697C11.562 144.582 11.5767 144.41 11.5865 144.31C11.6346 144.019 11.6461 143.722 11.6208 143.428L11.6649 143.294Z" fill="#ED691F"/>
<path d="M17.5144 146.276C17.5414 144.682 17.7201 143.093 17.654 141.494C17.654 141.308 17.5879 141.097 17.7691 140.946C18.2744 141.646 19.0133 142.144 19.8527 142.349C19.7964 143.438 19.7425 144.528 19.674 145.617C19.5666 146.765 19.5241 147.917 19.5466 149.07C19.5466 149.283 19.5344 149.498 19.5295 149.711C18.8965 149.458 18.3199 149.081 17.8327 148.604C17.702 148.479 17.6005 148.326 17.5354 148.157C17.4702 147.987 17.443 147.806 17.4557 147.625C17.4997 147.167 17.4703 146.722 17.5144 146.276Z" fill="#ED691F"/>
<path d="M33.2678 131.203C33.2016 131.751 32.9652 132.265 32.592 132.672C31.9151 133.535 31.1329 134.31 30.2635 134.979C29.872 135.272 29.4376 135.503 28.9756 135.664C27.2445 136.311 25.4621 136.742 23.6012 136.609C22.1322 136.507 20.6508 136.284 19.3605 135.461C18.6141 134.989 17.9609 134.384 17.4336 133.676C17.3714 133.577 17.2877 133.493 17.1887 133.431C17.3989 132.478 17.8762 131.604 18.5648 130.912C19.0391 130.419 19.5797 129.995 20.1709 129.651C21.5352 128.817 23.0391 128.236 24.61 127.937C25.0507 127.851 25.4979 127.802 25.9469 127.79C26.9366 127.754 27.9264 127.862 28.885 128.111C29.5887 128.305 30.2686 128.577 30.9123 128.921C31.9016 129.438 32.7198 130.231 33.2678 131.203Z" fill="#FFFEFE"/>
<path d="M33.2676 131.203C32.7186 130.233 31.9005 129.443 30.9122 128.929C30.2685 128.584 29.5885 128.312 28.8849 128.118C27.9263 127.869 26.9365 127.761 25.9467 127.797C25.4978 127.809 25.0506 127.858 24.6099 127.944C23.039 128.243 21.5351 128.824 20.1708 129.658C19.5795 130.002 19.039 130.426 18.5646 130.919C17.8761 131.611 17.3988 132.485 17.1886 133.439C16.8825 133.439 16.8042 133.194 16.7381 132.971C16.1284 130.961 16.574 129.22 18.0333 127.704C19.3261 126.358 20.9152 125.547 22.6585 124.96C23.7507 124.603 24.8997 124.451 26.0471 124.514C27.5864 124.572 29.0927 124.976 30.4544 125.697C31.3476 126.139 32.1166 126.797 32.6922 127.611C33.3413 128.575 33.6371 129.733 33.5296 130.89C33.5149 131.059 33.4611 131.186 33.2676 131.203Z" fill="#DE601A"/>
<path d="M33.8406 124.705C32.6678 124.183 31.4681 123.726 30.3491 122.991C30.6895 122.501 31.1669 122.205 31.5905 121.85C33.5248 120.234 35.5913 118.792 37.5843 117.254C38.3189 116.694 39.0216 116.113 39.7414 115.54C39.8614 115.442 39.9863 115.357 40.1136 115.259C40.1595 115.214 40.2145 115.18 40.275 115.158C40.3354 115.136 40.3998 115.128 40.4637 115.134C40.5277 115.139 40.5896 115.159 40.6454 115.19C40.7012 115.222 40.7495 115.265 40.7869 115.318C40.8555 115.386 40.9216 115.46 40.9901 115.528C41.1697 115.722 41.387 115.877 41.6287 115.984C41.8703 116.091 42.1313 116.147 42.3955 116.15C42.8844 116.119 43.375 116.174 43.845 116.312C44.0899 116.405 44.3812 116.441 44.5355 116.706C44.498 116.818 44.4192 116.912 44.3151 116.968C42.1931 118.419 40.0915 119.895 38.0103 121.397C36.6368 122.376 35.295 123.415 33.9606 124.455C33.9244 124.486 33.8951 124.525 33.8745 124.568C33.8538 124.611 33.8423 124.657 33.8406 124.705Z" fill="#EE7F7B"/>
<path d="M70.2493 114.382C70.5284 112.237 72.9842 111.295 74.774 112.338C74.9258 112.428 75.0703 112.531 75.2147 112.629L80.5867 116.214C80.6968 116.29 80.8315 116.339 80.905 116.459C80.8903 116.647 80.7164 116.691 80.5965 116.779C79.4898 117.585 78.3782 118.383 77.2078 119.093C77.0633 118.789 76.7573 118.67 76.5002 118.508C74.6271 117.325 72.8104 116.059 71.0156 114.769C70.7855 114.612 70.5651 114.399 70.2493 114.382Z" fill="#EE7F7B"/>
<path d="M72.6194 94.5155C71.3952 93.9009 70.0559 93.4871 68.8733 92.7085C69.0122 92.5005 69.1953 92.3258 69.4095 92.1968C71.6131 90.5563 73.8486 88.9281 75.9787 87.1774C76.0691 87.1024 76.164 87.0329 76.2627 86.9693C76.6178 86.7245 76.7402 86.7098 77.0169 87.033C77.5653 87.6745 78.2558 87.8581 79.0613 87.841C79.6686 87.841 80.2709 87.9046 80.7336 88.3772C80.6953 88.4888 80.6167 88.5822 80.5133 88.6392C79.2335 89.5304 77.9546 90.4233 76.6765 91.3178C75.3984 92.2123 74.1399 93.1002 72.901 93.9817C72.8031 94.0287 72.7228 94.106 72.6721 94.2021C72.6214 94.2982 72.603 94.4081 72.6194 94.5155Z" fill="#EE7F7B"/>
<path d="M35.9316 93.4602C36.0755 92.9073 36.3827 92.4107 36.8131 92.0352C37.5476 91.4181 38.3948 91.3202 39.2958 91.5822C39.9859 91.8044 40.6406 92.1243 41.2399 92.5322C42.8216 93.5385 44.2711 94.7358 45.9434 95.7691C44.8437 96.627 43.6995 97.4263 42.5155 98.1637C42.5155 97.9017 42.3221 97.8037 42.1409 97.674C41.7027 97.385 41.2717 97.0839 40.831 96.795C39.4966 95.9209 38.1255 95.1055 36.8988 94.0698C36.6123 93.8348 36.3307 93.5483 35.9316 93.4602Z" fill="#EE7F7B"/>
<path d="M33.8406 124.705C33.8429 124.658 33.8547 124.612 33.8754 124.57C33.896 124.528 33.925 124.491 33.9606 124.46C35.295 123.42 36.6367 122.391 38.0103 121.402C40.0964 119.904 42.198 118.427 44.3151 116.973C44.4192 116.917 44.498 116.823 44.5354 116.711C44.6514 116.762 44.755 116.838 44.8395 116.932C44.9239 117.027 44.9872 117.138 45.0251 117.259C45.1701 117.654 45.2031 118.082 45.1206 118.494C45.0381 118.907 44.8432 119.289 44.5575 119.597C44.2899 119.854 43.9989 120.085 43.6883 120.288C41.4675 121.74 39.2419 123.189 37.0921 124.747C36.7126 125.021 36.2964 125.236 35.9095 125.506C35.8161 125.575 35.7028 125.613 35.5863 125.613C35.4699 125.613 35.3565 125.575 35.2631 125.506C34.7979 125.231 34.318 124.972 33.8406 124.705Z" fill="#E8524C"/>
<path d="M72.6194 94.5155C72.6029 94.4081 72.6214 94.2982 72.6721 94.2021C72.7228 94.106 72.803 94.0287 72.901 93.9817C74.1595 93.0937 75.418 92.2057 76.6765 91.3178C77.935 90.4298 79.2139 89.5369 80.5132 88.6392C80.6167 88.5823 80.6953 88.4888 80.7336 88.3772C80.8495 88.4285 80.9532 88.504 81.0376 88.5985C81.1221 88.6931 81.1854 88.8046 81.2233 88.9256C81.368 89.3218 81.4005 89.7503 81.3171 90.1638C81.2337 90.5773 81.0377 90.9597 80.7507 91.2688C80.482 91.5242 80.1911 91.7553 79.8815 91.9593C78.2166 93.0611 76.5222 94.1164 74.9038 95.2843C74.7967 95.3814 74.659 95.4379 74.5146 95.4442C74.3701 95.4505 74.2281 95.406 74.1129 95.3185C73.633 95.0247 73.1213 94.7799 72.6194 94.5155Z" fill="#E8524C"/>
<path d="M35.9317 93.4602C36.3308 93.5483 36.6173 93.8348 36.9111 94.0796C38.1353 95.1153 39.5089 95.9307 40.8433 96.8048C41.284 97.0937 41.715 97.3948 42.1533 97.6838C42.3344 97.8037 42.5303 97.9017 42.5279 98.1735C42.0798 98.5187 41.6219 98.8541 41.1886 99.2165C41.1498 99.2595 41.1024 99.2939 41.0494 99.3174C40.9965 99.341 40.9392 99.3532 40.8813 99.3532C40.8233 99.3532 40.7661 99.341 40.7131 99.3174C40.6602 99.2939 40.6128 99.2595 40.574 99.2165C40.2851 98.9863 39.9717 98.7831 39.6754 98.5579C38.7401 97.8527 37.7999 97.1524 36.8768 96.4277C36.4237 96.0982 36.0877 95.6327 35.9177 95.0989C35.7477 94.5651 35.7526 93.991 35.9317 93.4602Z" fill="#E8524C"/>
<path d="M70.2491 114.382C70.565 114.399 70.7853 114.612 71.0155 114.779C72.8102 116.074 74.6269 117.335 76.5 118.518C76.7571 118.679 77.0632 118.799 77.2076 119.103L76.4731 119.668C76.3847 119.747 76.2722 119.793 76.1543 119.798C76.0363 119.804 75.9199 119.77 75.8242 119.7C74.2744 118.721 72.7123 117.766 71.1722 116.774C70.3005 116.214 70.041 115.379 70.2491 114.382Z" fill="#E8534D"/>
<path d="M1.84424 29.4721C2.41963 28.1916 3.55816 27.4448 4.63304 26.6956C8.08047 24.3108 11.5597 21.9847 15.1345 19.7811C20.4599 16.5222 25.7363 13.1703 31.0935 9.96768C32.0999 9.36291 33.0646 8.68958 34.0439 8.03829C34.7696 7.53863 35.5401 7.10748 36.3455 6.7504C37.5379 6.24112 38.6495 6.48597 39.6852 7.1495C40.7209 7.81303 41.5974 8.76304 42.5327 9.59796C44.6384 11.4735 46.7123 13.3841 48.7543 15.3298C49.7067 16.2357 50.7914 16.9825 51.8271 17.7783C53.4578 19.0417 54.8926 20.5181 56.3886 21.926C58.0584 23.5044 59.7095 25.0975 61.3418 26.7054C62.4852 27.8316 63.7388 28.8429 64.919 29.9324C66.6746 31.5509 68.3934 33.2109 70.1563 34.8293C72.426 36.9056 74.468 39.2121 76.7402 41.2884C79.2537 43.5623 81.5921 46.0226 83.7354 48.6484L84.6903 49.836C84.7907 50.3967 85.1604 50.8153 85.4591 51.2683C86.2983 52.5294 86.7386 54.0139 86.7225 55.5286C86.7225 56.6255 86.5634 57.7127 86.5781 58.8071C86.5789 58.8661 86.5748 58.9251 86.5658 58.9834C86.3299 60.3275 86.0102 61.6555 85.6085 62.9597C85.1433 64.5047 84.4161 65.9297 83.7036 67.3669C83.2486 68.254 82.6653 69.0691 81.9725 69.786C81.0732 70.7378 80.0899 71.6064 79.0344 72.3814C77.5114 73.5077 76.0448 74.7099 74.5855 75.9169C73.518 76.8 72.4358 77.6668 71.3389 78.5172C69.9849 79.5725 68.7264 80.7502 67.3209 81.7443C66.1562 82.532 65.0348 83.382 63.9617 84.2907C62.9717 85.1741 61.8955 85.9558 60.7493 86.6241C60.0147 87.0403 59.3096 87.5153 58.4061 87.4223C57.9326 87.4704 57.4585 87.3374 57.079 87.0501C56.7675 86.8496 56.4757 86.62 56.2074 86.3645C55.5708 85.7304 54.9832 85.0399 54.3539 84.4058C52.3486 82.4005 50.4143 80.3242 48.2964 78.4315C47.7284 77.9247 47.2607 77.3126 46.7245 76.7764C45.1232 75.1702 43.5023 73.5811 41.8839 71.9921C38.7278 68.8972 35.5399 65.8293 32.5381 62.5777C31.7032 61.6743 30.8389 60.7953 29.977 59.9187C25.6775 55.5605 21.3291 51.2512 17.0002 46.9125C15.94 45.845 14.8431 44.8142 13.849 43.6781C12.855 42.542 11.8095 41.4745 10.7811 40.3727C9.6891 39.2047 8.48936 38.1323 7.51977 36.8493C7.08149 36.269 6.54038 35.794 6.05069 35.2554C5.20516 34.3103 4.36779 33.3586 3.53858 32.4005C2.87259 31.6366 2.18702 30.8824 2.00828 29.8247C2.00094 29.7023 1.9887 29.548 1.84424 29.4721ZM50.1842 68.6132C50.9187 68.3537 51.4941 67.8468 52.1258 67.4281C52.8603 66.9384 53.0024 66.4904 52.7526 65.5747C52.782 65.2245 52.5518 65.0115 52.3437 64.7765C51.9079 64.2868 51.3643 63.9024 51.0191 63.3221C51.5553 62.8691 52.0964 62.4235 52.6229 61.9607C53.1493 61.498 53.2325 61.1625 52.9754 60.4182C52.9945 60.3312 52.9915 60.2408 52.9667 60.1553C52.9419 60.0698 52.8961 59.9918 52.8334 59.9285C52.1324 59.2756 51.4709 58.5815 50.8526 57.8498C50.8204 57.7995 50.777 57.7573 50.7258 57.7266C50.6746 57.6959 50.617 57.6774 50.5575 57.6727C50.498 57.6679 50.4382 57.677 50.3827 57.6992C50.3273 57.7215 50.2778 57.7562 50.238 57.8008C49.5476 58.3811 48.7494 58.8022 48.0075 59.309C47.4272 59.7106 47.3268 59.6861 46.9008 59.1474C46.2936 58.3835 45.6203 57.6784 45.0424 56.8826C44.68 56.3929 44.5356 56.3929 44.063 56.8116C43.6345 57.1862 43.2355 57.5951 42.78 57.9257C42.1519 58.3651 41.7108 59.0236 41.5436 59.7718C41.4926 59.9072 41.484 60.0549 41.519 60.1953C41.5539 60.3357 41.6309 60.4621 41.7394 60.5578C42.1092 60.9079 42.4617 61.2752 42.8094 61.6449C43.0788 61.9338 43.0763 61.9803 42.8094 62.2766C42.3393 62.8005 41.8741 63.327 41.3893 63.8362C40.9637 64.2982 40.6842 64.8758 40.5862 65.4963C40.5634 65.6022 40.5714 65.7124 40.6091 65.8139C40.6468 65.9154 40.7128 66.004 40.7992 66.0692C41.7159 66.8619 42.5866 67.7064 43.4068 68.5985C43.6248 68.8213 43.8059 68.8874 44.0606 68.7062C44.2834 68.7062 44.3911 68.5251 44.5356 68.4051C45.2701 67.8028 45.9557 67.149 46.7392 66.6201C46.8234 66.6664 46.9051 66.7171 46.984 66.772C47.8434 67.4404 48.742 68.05 49.648 68.6524C49.8634 68.7968 50.025 68.8556 50.1842 68.6132ZM57.4635 32.6404C57.466 32.3113 57.4324 31.9828 57.3631 31.661C57.0524 30.4039 56.5228 29.2112 55.7985 28.1377C54.0552 25.584 51.8516 23.4318 49.6773 21.2649C48.3895 19.9794 47.0942 18.6989 45.7598 17.4722C44.6898 16.4928 43.6737 15.4596 42.6135 14.4728C42.0553 13.9538 41.4701 13.4592 40.8653 13.0038C40.5564 12.763 40.2018 12.5874 39.8231 12.4876C39.4443 12.3879 39.0492 12.3661 38.6617 12.4235C37.9473 12.5405 37.2737 12.8351 36.703 13.2804C35.5865 14.0737 34.4381 14.8181 33.2751 15.5428C31.0495 16.9262 28.885 18.4075 26.6251 19.7419C24.6198 20.9245 22.6586 22.1904 20.597 23.2702C18.9222 24.1565 17.2793 25.109 15.7001 26.152C13.7682 27.4179 11.8217 28.6568 9.88253 29.9104C9.42222 30.2091 8.95946 30.5029 8.51629 30.8261C7.794 31.355 7.65933 32.1018 8.19309 32.7604C9.2141 34.0238 10.2498 35.2774 11.3761 36.4453C13.2394 38.3747 15.1198 40.287 16.9855 42.2139C17.5168 42.7624 18.0237 43.3328 18.5329 43.9009C19.6813 45.1839 20.81 46.484 21.9779 47.7499C23.1458 49.0157 24.4092 50.1983 25.5723 51.4617C26.2333 52.184 26.9385 52.8671 27.6314 53.5576C27.8776 53.8117 28.1762 54.009 28.5065 54.1359C28.8368 54.2627 29.1907 54.3161 29.5437 54.2922C30.3117 54.2566 31.0535 54.0017 31.6812 53.5576C32.6459 52.8892 33.6155 52.2257 34.5459 51.5107C37.9737 48.8762 41.3746 46.2073 44.8661 43.656C46.9987 42.0988 49.1093 40.5098 51.2199 38.9232C52.9338 37.6304 54.7285 36.4233 56.3249 34.9738C56.9836 34.3494 57.5418 33.6492 57.4635 32.6404ZM63.9127 65.9395C63.9127 65.5771 63.9127 65.2343 63.5258 65.0238C63.139 64.8132 62.8207 64.9356 62.4926 65.1462C62.2118 65.3241 61.9702 65.5574 61.7825 65.8317C61.2809 66.579 60.9361 67.4203 60.7689 68.3047C60.6922 68.6701 60.729 69.0503 60.8742 69.3943C60.9117 69.5056 60.9879 69.5997 61.0891 69.6595C61.1902 69.7193 61.3094 69.7407 61.4251 69.7199C61.6969 69.7008 61.9619 69.6257 62.2034 69.4993C62.4448 69.3729 62.6575 69.1979 62.828 68.9854C63.5577 68.0868 63.7168 67.007 63.9127 65.937V65.9395ZM67.3136 63.2462C67.3029 63.5102 67.3318 63.7743 67.3993 64.0297C67.6441 64.6296 68.1094 64.796 68.6529 64.4435C68.7666 64.3678 68.8717 64.28 68.9663 64.1815C69.4637 63.6577 69.8619 63.0479 70.1416 62.3819C70.316 62.0323 70.4216 61.6524 70.4525 61.2629C70.4991 60.357 69.9114 59.9628 69.0936 60.335C69.0067 60.3744 68.9245 60.4237 68.8488 60.4819C68.4185 60.8147 68.0605 61.2317 67.7966 61.7073C67.5327 62.183 67.3684 62.7074 67.3136 63.2486V63.2462Z" fill="#EB8045"/>
<path d="M1.84422 29.4721C1.98623 29.548 1.99847 29.7023 2.01806 29.8271C2.1968 30.8849 2.88236 31.639 3.54835 32.4029C4.38082 33.3611 5.2182 34.3127 6.06047 35.2578C6.55016 35.7965 7.08882 36.2715 7.52954 36.8518C8.50893 38.1348 9.69888 39.2072 10.7909 40.3751C11.8192 41.472 12.8696 42.5493 13.8588 43.6805C14.848 44.8117 15.9498 45.8474 17.01 46.9149C21.3291 51.2536 25.6775 55.5629 29.9868 59.9212C30.8487 60.7977 31.713 61.6767 32.5479 62.5802C35.5497 65.8317 38.7376 68.8997 41.8937 71.9945C43.5121 73.5836 45.133 75.1775 46.7343 76.7788C47.2705 77.315 47.7382 77.9271 48.3062 78.434C50.4241 80.3266 52.3584 82.4029 54.3637 84.4082C54.9978 85.0399 55.5879 85.7304 56.2172 86.367C56.4855 86.6225 56.7773 86.852 57.0888 87.0525C57.4682 87.3399 57.9424 87.4728 58.4159 87.4247C58.5065 87.6204 58.5339 87.8395 58.4942 88.0515C58.2298 89.7238 57.9482 91.3937 57.723 93.0733C57.6348 93.7197 57.2847 94.3734 57.6691 95.0321C57.2496 95.0783 56.8251 95.0406 56.4203 94.9212C56.0155 94.8018 55.6385 94.6031 55.3112 94.3367C55.0297 94.1261 54.7554 93.9009 54.4641 93.705C53.4063 92.995 52.6155 92.0229 51.8295 91.046C51.095 90.1303 50.3776 89.1974 49.6504 88.2743C48.6171 86.9595 47.3635 85.8577 46.1369 84.7338C43.9332 82.7114 41.7933 80.6082 39.6533 78.5123C36.1014 75.0306 32.5487 71.5497 28.9952 68.0696C27.2348 66.3386 25.5674 64.5169 23.8534 62.7393C22.1395 60.9618 20.4746 59.2503 18.7704 57.5217C18.2342 56.9781 17.6588 56.4762 17.0981 55.9571C15.0169 54.0228 13.0949 51.9269 11.0357 49.9731C9.75764 48.7611 8.43057 47.5981 7.22838 46.3004C5.91845 44.8974 4.62812 43.4797 3.31085 42.0719C2.79177 41.5112 2.24577 40.9774 1.73404 40.4094C1.27871 39.935 0.926921 39.3712 0.701002 38.7538C0.475082 38.1363 0.379959 37.4786 0.421665 36.8224C0.551433 34.9101 0.708135 32.9979 1.01909 31.1052C1.08763 30.479 1.38076 29.8988 1.84422 29.4721Z" fill="#ED691F"/>
<path d="M57.6692 95.0345C57.2848 94.371 57.6349 93.7173 57.7231 93.0758C57.9483 91.3961 58.2299 89.7263 58.4943 88.054C58.534 87.842 58.5066 87.6229 58.416 87.4272C59.3195 87.5202 60.0344 87.0452 60.7592 86.629C61.9059 85.9569 62.9822 85.171 63.9715 84.2833C65.0412 83.3716 66.1593 82.5183 67.321 81.7271C68.7264 80.7331 69.985 79.5554 71.339 78.5001C72.4326 77.648 73.5148 76.7813 74.5856 75.8998C76.0547 74.6927 77.5115 73.4905 79.0345 72.3642C80.0899 71.5893 81.0733 70.7206 81.9726 69.7689C82.6654 69.052 83.2487 68.2368 83.7037 67.3498C84.4162 65.9125 85.1434 64.4875 85.6086 62.9426C86.0084 61.6399 86.3265 60.3135 86.561 58.9712C86.57 58.9128 86.5741 58.8539 86.5733 58.7949C86.5586 57.7004 86.7202 56.6133 86.7177 55.5164C86.7316 54.0039 86.2905 52.5222 85.4519 51.2634C85.1532 50.8153 84.7835 50.3918 84.6831 49.8311C85.1189 50.0245 85.305 50.4652 85.5988 50.7933C86.4557 51.7555 87.298 52.7325 88.0987 53.7437C88.9581 54.8308 89.8126 55.9473 90.3023 57.2523C90.8525 58.7373 91.0413 60.332 90.8532 61.9044C90.58 64.2157 89.9618 66.473 89.0193 68.601C88.1354 70.6968 86.8769 72.5405 85.0601 73.9729C84.1273 74.7074 83.2776 75.5595 82.3399 76.294C80.4472 77.7631 78.7088 79.4378 76.7745 80.8702C75.019 82.1728 73.31 83.5415 71.6328 84.9444C70.5236 85.8699 69.4292 86.815 68.3176 87.7406C67.6271 88.3159 66.9219 88.8742 66.1825 89.3859C65.2031 90.069 64.3143 90.855 63.3962 91.6238C62.1694 92.5914 60.8902 93.4905 59.5643 94.3171C58.9828 94.6723 58.3401 94.9156 57.6692 95.0345Z" fill="#FBC998"/>
<path d="M57.4634 32.6404C57.5417 33.6492 56.9737 34.3543 56.3003 34.9665C54.7039 36.4159 52.9166 37.623 51.1953 38.9158C49.0847 40.5024 46.9742 42.0988 44.8415 43.6487C41.35 46.2 37.9491 48.8688 34.5213 51.5034C33.5909 52.2183 32.6213 52.8818 31.6566 53.5503C31.0289 53.9944 30.2871 54.2493 29.5191 54.2848C29.1661 54.3087 28.8122 54.2554 28.4819 54.1285C28.1517 54.0017 27.853 53.8043 27.6068 53.5503C26.9139 52.8598 26.2088 52.1767 25.5477 51.4544C24.3847 50.1836 23.1213 49.0059 21.9533 47.7425C20.7854 46.4791 19.6567 45.1765 18.5084 43.8935C17.9991 43.3255 17.4923 42.755 16.9609 42.2066C15.0952 40.2796 13.2148 38.3674 11.3515 36.438C10.2228 35.2701 9.18707 34.0165 8.16852 32.753C7.63475 32.0944 7.76942 31.3476 8.49171 30.8188C8.93489 30.4956 9.39765 30.2018 9.85796 29.903C11.7971 28.6494 13.7437 27.4105 15.6755 26.1447C17.2645 25.1016 18.9075 24.1492 20.5724 23.2628C22.634 22.1733 24.5952 20.9172 26.6005 19.7346C28.8605 18.4002 31.0249 16.9189 33.2505 15.5355C34.4136 14.8009 35.5619 14.0664 36.6784 13.2731C37.2492 12.8278 37.9227 12.5331 38.6372 12.4161C39.0246 12.3587 39.4197 12.3805 39.7985 12.4803C40.1773 12.58 40.5318 12.7556 40.8408 12.9964C41.4455 13.4592 42.0307 13.9538 42.589 14.4655C43.6492 15.4449 44.6653 16.4879 45.7352 17.4649C47.0794 18.6891 48.3747 19.9721 49.6528 21.2575C51.8246 23.4244 54.0282 25.5766 55.7739 28.1304C56.4982 29.2039 57.0278 30.3965 57.3385 31.6537C57.4166 31.977 57.4584 32.3079 57.4634 32.6404ZM53.3426 33.4411C53.3434 33.2123 53.2975 32.9858 53.2078 32.7753C53.1182 32.5648 52.9866 32.3748 52.8211 32.2168C52.0865 31.5704 51.4279 30.8506 50.6934 30.2115C49.19 28.9041 47.6646 27.6162 46.2102 26.2548C44.4376 24.5972 42.6869 22.9176 40.9338 21.2404C39.832 20.1851 38.7302 19.1176 37.6431 18.0574C37.5605 17.97 37.4722 17.8882 37.3786 17.8125C37.2154 17.6676 37.0065 17.5843 36.7883 17.5771C36.5701 17.57 36.3562 17.6394 36.1838 17.7734C35.4174 18.2778 34.607 18.7136 33.8676 19.2669C32.4254 20.3443 30.8388 21.2061 29.3232 22.1708C27.575 23.2824 25.7632 24.2936 23.988 25.3538C21.875 26.6221 19.7742 27.9051 17.6685 29.1856C17.2986 29.4064 16.9581 29.6729 16.6549 29.9789C16.1529 30.4931 16.1774 30.902 16.7602 31.328C17.0588 31.5501 17.3271 31.8102 17.5584 32.1018C17.9914 32.6559 18.4549 33.1856 18.9466 33.6884C19.5979 34.3348 20.2884 34.9469 20.9421 35.5884C23.4689 38.0678 25.977 40.5669 28.4663 43.0855C29.3771 44.0037 30.3956 44.7995 31.3334 45.6809C31.6472 46.0039 31.9991 46.2875 32.3813 46.5256C32.7441 46.7583 33.1812 46.8457 33.6056 46.7705C34.5288 46.6027 35.3946 46.2043 36.1226 45.6124C37.2391 44.7236 38.456 43.9768 39.5676 43.0831C39.9849 42.7609 40.4252 42.4696 40.8848 42.2114C41.9132 41.6108 42.926 40.9823 43.9234 40.3261C46.0388 38.9305 47.9584 37.2411 50.2184 36.0536C50.9137 35.6888 51.494 35.155 52.1551 34.7412C52.4899 34.5075 52.8104 34.2541 53.1149 33.9822C53.1957 33.9187 53.259 33.8358 53.2988 33.7411C53.3387 33.6464 53.3537 33.5432 53.3426 33.4411ZM18.4643 39.834C18.7494 39.8415 19.0262 39.7379 19.2364 39.5451C19.4465 39.3523 19.5735 39.0854 19.5906 38.8007C19.5942 38.4646 19.4674 38.1401 19.2368 37.8954C19.0063 37.6507 18.6899 37.5048 18.3541 37.4884C17.6636 37.4884 17.1299 37.912 17.1715 38.5167C17.2131 39.3688 17.8106 39.8732 18.4643 39.834Z" fill="#BDB3CF"/>
<path d="M51.0191 63.3221C51.357 63.9023 51.9079 64.2892 52.3437 64.7764C52.5518 65.0213 52.782 65.2245 52.7526 65.5746C52.2577 66.0112 51.7306 66.4098 51.1758 66.767C50.1401 67.3865 50.1425 67.3865 50.1842 68.6132C50.025 68.858 49.8634 68.7968 49.6504 68.6573C48.7445 68.0549 47.8459 67.4453 46.9865 66.7768C46.9076 66.722 46.8258 66.6713 46.7416 66.625V65.5477C46.6744 65.5364 46.6055 65.5424 46.5412 65.5651C46.4769 65.5878 46.4195 65.6265 46.3744 65.6775C45.7843 66.1892 45.1746 66.6789 44.587 67.1906C44.4227 67.3246 44.2906 67.4939 44.2008 67.6859C44.1109 67.878 44.0655 68.0878 44.0679 68.2998C44.0679 68.4369 44.0679 68.574 44.0679 68.7111C43.8231 68.8923 43.6321 68.8262 43.4142 68.6034C42.5939 67.7113 41.7233 66.8668 40.8066 66.0741C40.7201 66.0089 40.6542 65.9203 40.6164 65.8188C40.5787 65.7173 40.5707 65.6071 40.5935 65.5012C40.6911 64.8861 40.9669 64.3132 41.3868 63.8534C41.8765 63.3441 42.3368 62.8177 42.8069 62.2937C43.0714 61.9974 43.0738 61.9509 42.8069 61.662C42.4593 61.2923 42.1067 60.9275 41.737 60.5749C41.6284 60.4793 41.5515 60.3529 41.5165 60.2125C41.4815 60.0721 41.4901 59.9243 41.5411 59.7889C41.7083 59.0408 42.1494 58.3822 42.7776 57.9428C43.233 57.6123 43.6321 57.2083 44.0606 56.8288C44.538 56.4125 44.6825 56.4052 45.04 56.8998C45.6178 57.6906 46.2911 58.4007 46.8983 59.1646C47.3244 59.7032 47.4247 59.7277 48.005 59.3262C48.7396 58.8194 49.5451 58.3982 50.2356 57.8179C50.2753 57.7734 50.3248 57.7386 50.3803 57.7164C50.4357 57.6941 50.4955 57.685 50.555 57.6898C50.6145 57.6945 50.6722 57.713 50.7234 57.7437C50.7746 57.7744 50.818 57.8166 50.8501 57.8669C51.4685 58.5986 52.1299 59.2927 52.8309 59.9456C52.8936 60.0089 52.9394 60.0869 52.9642 60.1724C52.989 60.258 52.992 60.3483 52.973 60.4353C52.3045 61.023 51.6777 61.6596 50.9628 62.1958C50.2845 62.7051 50.287 62.7932 50.9628 63.3196C50.9812 63.3242 51.0003 63.325 51.0191 63.3221Z" fill="#8B7AB0"/>
<path d="M63.9126 65.937C63.7167 67.007 63.5576 68.0868 62.8279 68.9756C62.6574 69.1881 62.4447 69.3631 62.2033 69.4895C61.9618 69.6159 61.6968 69.691 61.425 69.7101C61.3094 69.7309 61.1901 69.7095 61.089 69.6497C60.9878 69.5899 60.9116 69.4958 60.8741 69.3845C60.7289 69.0405 60.6921 68.6603 60.7688 68.2949C60.936 67.4105 61.2808 66.5692 61.7824 65.8219C61.9701 65.5476 62.2117 65.3143 62.4925 65.1364C62.8206 64.9258 63.1389 64.8034 63.5258 65.014C63.9126 65.2245 63.9028 65.5673 63.9126 65.937Z" fill="#8B7AB0"/>
<path d="M67.3135 63.2486C67.3674 62.7086 67.5303 62.1851 67.7925 61.7099C68.0547 61.2348 68.4107 60.8178 68.8389 60.4843C68.9146 60.4261 68.9968 60.3769 69.0837 60.3374C69.9015 59.9652 70.4891 60.3594 70.4426 61.2654C70.4117 61.6548 70.3061 62.0347 70.1317 62.3843C69.852 63.0503 69.4538 63.6601 68.9564 64.1839C68.8618 64.2824 68.7567 64.3703 68.643 64.4459C68.0995 64.7985 67.622 64.632 67.3894 64.0321C67.3252 63.7762 67.2996 63.5121 67.3135 63.2486Z" fill="#8B7AB0"/>
<path d="M50.1841 68.6132C50.1424 67.389 50.14 67.389 51.1757 66.7671C51.7305 66.4098 52.2576 66.0112 52.7525 65.5747C52.9974 66.4904 52.8602 66.9384 52.1257 67.4281C51.494 67.8468 50.9137 68.3537 50.1841 68.6132Z" fill="#BDB3CF"/>
<path d="M44.0582 68.7111C44.0582 68.574 44.0582 68.4369 44.0582 68.2998C44.0558 68.0878 44.1012 67.878 44.1911 67.6859C44.2809 67.4939 44.4129 67.3246 44.5773 67.1906C45.1649 66.6789 45.7746 66.1892 46.3646 65.6775C46.4098 65.6265 46.4672 65.5878 46.5315 65.5651C46.5957 65.5424 46.6647 65.5364 46.7319 65.5477V66.625C45.9435 67.1539 45.2628 67.8076 44.5283 68.41C44.3887 68.5299 44.281 68.716 44.0582 68.7111Z" fill="#BDB3CF"/>
<path d="M51.0191 63.3221C51 63.3193 50.9817 63.3126 50.9653 63.3025C50.2895 62.7761 50.287 62.6879 50.9653 62.1786C51.6802 61.6424 52.307 61.0058 52.9755 60.4182C53.2325 61.1527 53.164 61.4906 52.6229 61.9607C52.0818 62.4308 51.548 62.874 51.0191 63.3221Z" fill="#BDB3CF"/>
<path d="M53.3426 33.4411C53.3555 33.5447 53.3412 33.65 53.3013 33.7465C53.2614 33.8431 53.1972 33.9276 53.1149 33.992C52.8109 34.2604 52.4912 34.5106 52.1575 34.7412C51.4965 35.155 50.9162 35.6888 50.2208 36.0536C47.9609 37.2411 46.0413 38.9305 43.9258 40.3261C42.9285 40.9791 41.9156 41.6075 40.8873 42.2114C40.4276 42.4696 39.9874 42.7609 39.57 43.0831C38.4584 43.9768 37.2415 44.7236 36.125 45.6124C35.3965 46.2137 34.527 46.6199 33.5982 46.7925C33.1739 46.8677 32.7368 46.7803 32.374 46.5477C31.9918 46.3096 31.6399 46.0259 31.3261 45.7029C30.3883 44.8191 29.3673 44.0258 28.4589 43.1076C25.9696 40.5922 23.464 38.0915 20.9421 35.6055C20.2884 34.964 19.5979 34.3519 18.9466 33.7055C18.4549 33.2027 17.9914 32.6731 17.5584 32.1189C17.3271 31.8273 17.0588 31.5672 16.7602 31.3452C16.1774 30.9191 16.1529 30.5103 16.6549 29.9961C16.9581 29.6901 17.2986 29.4235 17.6685 29.2028C19.7742 27.9222 21.875 26.6392 23.988 25.3709C25.7632 24.301 27.575 23.2897 29.3232 22.1879C30.8388 21.2232 32.4254 20.3614 33.8676 19.2841C34.6021 18.7307 35.4174 18.3047 36.1838 17.7905C36.3562 17.6565 36.5701 17.5871 36.7883 17.5943C37.0065 17.6014 37.2154 17.6847 37.3786 17.8297C37.4722 17.9053 37.5605 17.9871 37.6431 18.0745C38.74 19.1347 39.832 20.2022 40.9338 21.2575C42.6869 22.9347 44.4376 24.6144 46.2102 26.272C47.6646 27.6333 49.19 28.9212 50.6934 30.2287C51.4279 30.8677 52.0914 31.5876 52.8211 32.234C52.9845 32.3899 53.1149 32.5772 53.2045 32.7845C53.2941 32.9919 53.341 33.2152 53.3426 33.4411Z" fill="#8B7AB0"/>
<path d="M18.4643 39.834C17.8106 39.8732 17.2132 39.3443 17.1715 38.5167C17.1397 37.9119 17.6612 37.481 18.3542 37.4884C18.6899 37.5048 19.0063 37.6507 19.2369 37.8954C19.4674 38.1401 19.5942 38.4646 19.5906 38.8007C19.5736 39.0854 19.4466 39.3523 19.2364 39.5451C19.0263 39.7379 18.7494 39.8415 18.4643 39.834Z" fill="#EB8045"/>
<g opacity="0.59">
<path opacity="0.59" d="M46.1614 12.5704C46.9993 12.1861 47.8794 11.9018 48.7837 11.7232C52.6205 10.9518 56.5848 11.0918 60.3576 12.1321C64.0752 13.1142 67.5673 14.807 70.6411 17.1172C75.4649 20.6764 79.5414 25.1498 82.6386 30.2826C84.7386 33.7676 86.0631 37.6642 86.5218 41.7071C86.883 44.8419 86.9223 48.0055 86.6393 51.1483C86.4582 53.1781 86.2623 55.2054 85.8877 57.2058C85.6232 58.6063 85.2731 59.9946 84.8936 61.3682C84.1395 64.1031 83.236 66.7915 82.2517 69.4481C80.8634 73.2114 79.4825 76.9771 77.9106 80.6694C77.5041 81.6219 77.083 82.5719 76.6153 83.4974C75.8747 85.0088 75.2644 86.5807 74.7912 88.196C74.2477 89.9711 73.5523 91.6997 73.0259 93.4822C72.3673 95.7152 71.7307 97.9531 71.192 100.22C71.0116 100.961 70.7842 101.69 70.5113 102.402C70.2102 103.19 69.6642 103.802 69.1304 104.424C68.3882 105.281 67.5686 106.067 66.6819 106.772C66.2071 107.151 65.6832 107.463 65.1247 107.7C63.2571 108.512 61.2746 109.027 59.2484 109.228C57.7471 109.377 56.2318 109.294 54.7555 108.983C54.0273 108.846 53.3078 108.665 52.6008 108.442C50.9898 107.904 49.719 106.88 48.6025 105.656C46.8078 103.697 44.9543 101.77 43.2722 99.7037C41.5901 97.6372 39.8444 95.7201 38.3753 93.5532C36.986 91.5642 35.7579 89.4674 34.7026 87.2827C33.2746 84.3684 32.9485 81.036 33.7844 77.9002C34.3108 75.947 35.2269 74.1205 36.4777 72.5307C38.1794 70.2806 40.3341 68.5055 42.7336 66.9629C46.2642 64.7079 49.9222 62.6561 53.4284 60.3668C56.0161 58.7094 58.4957 56.8889 60.8522 54.9165C61.8805 54.0424 62.9725 53.2393 64.0352 52.4068C66.341 50.5815 68.4522 48.5228 70.335 46.2637C71.192 45.2475 71.9755 44.1653 72.737 43.0807C73.4985 41.996 74.1497 40.8036 74.397 39.479C74.8378 37.1015 74.517 34.844 73.1312 32.7947C72.7174 32.185 72.1518 31.7296 71.6352 31.2252C70.8596 30.5039 70.025 29.8487 69.1402 29.2664C68.0408 28.5074 66.775 28.1548 65.5067 27.8145C65.279 27.7557 65.0513 27.7019 64.826 27.6358C64.1528 27.4143 63.4353 27.363 62.7375 27.4864C62.6255 27.5213 62.5057 27.5217 62.3935 27.4877C62.2813 27.4536 62.1819 27.3866 62.1082 27.2954C62.0054 27.1779 61.8634 27.0922 61.7654 26.9747C61.2096 26.3405 60.5192 25.8533 59.8948 25.2926C58.744 24.2569 57.6667 23.1477 56.5674 22.0606C54.4935 20.0039 52.2654 18.1211 50.0324 16.2406C48.7886 15.1951 47.6109 14.0713 46.4062 12.9817C46.281 12.8758 46.1948 12.731 46.1614 12.5704Z" fill="#534672"/>
<path opacity="0.59" d="M46.2421 26.8572C46.1662 30.9143 45.2897 35.057 44.0092 39.1288C42.9159 42.6471 41.3702 46.0084 39.4109 49.1283C37.4594 52.2196 34.8617 54.8516 31.7962 56.8434C30.8107 57.4468 29.7791 57.9716 28.7112 58.4129C26.7524 59.2944 24.7936 60.1758 22.6953 60.7389C20.8688 61.2286 19.0226 61.6081 17.13 61.307C14.6815 60.9201 12.5073 59.9897 10.9452 57.9526C10.5167 57.3943 10.0662 56.8508 9.65481 56.2778C8.16125 54.1991 7.36795 51.8412 6.91009 49.3512C6.83664 48.9472 6.73625 48.5456 6.68973 48.1269C6.36898 45.3944 6.97375 42.9166 8.76358 40.7815C9.49812 39.8928 10.5044 39.3125 11.4887 38.7714C12.7007 38.0931 13.9763 37.53 15.1883 36.8518C17.1153 35.772 19.052 34.702 20.7145 33.206C21.9201 32.1449 23.0546 31.0055 24.1105 29.7953C25.609 28.0373 26.4096 25.9463 26.9948 23.755C27.3939 22.2687 27.4698 20.7458 27.5359 19.218C27.6241 17.1417 27.4894 15.0556 27.602 12.9915C27.6904 11.27 27.9696 9.56356 28.4345 7.90363C28.5544 7.44713 28.7646 7.01929 29.0526 6.64542C29.3407 6.27156 29.7008 5.95924 30.1117 5.72695C31.1939 5.10259 32.2712 5.23726 33.187 6.07953C34.0947 6.9249 34.7614 7.99636 35.1188 9.18417C35.7069 11.0509 36.1393 12.9632 36.4116 14.9013C36.583 16.1011 36.7911 17.2984 36.9894 18.4932C37.0501 18.9616 37.2122 19.4112 37.4644 19.8105C37.8243 20.3418 38.2185 20.4348 38.7719 20.1116C39.1966 19.8339 39.5856 19.5049 39.93 19.1323C40.4391 18.5852 41.076 18.173 41.7835 17.9325C42.3338 17.7421 42.9306 17.7327 43.4866 17.9059C44.0426 18.079 44.5286 18.4255 44.8735 18.8948C45.4365 19.631 45.7871 20.5075 45.8871 21.4289C46.1344 23.1502 46.3572 24.8812 46.2421 26.8572Z" fill="#534672"/>
<path opacity="0.59" d="M38.9947 4.8455C38.982 3.80531 39.1803 2.77333 39.5774 1.81186C39.9912 0.869202 40.6499 0.161597 41.7296 0.022035C42.6209 -0.0930426 43.4093 0.161597 43.9479 0.923068C44.7481 2.06256 45.2957 3.35979 45.5541 4.72797C45.799 6.00362 45.9361 7.28417 45.5737 8.56471C45.4871 8.90351 45.364 9.2319 45.2065 9.5441C45.0569 9.84748 44.8452 10.116 44.5852 10.3323C44.3251 10.5485 44.0224 10.7076 43.6969 10.7993C43.3713 10.891 43.0301 10.9131 42.6954 10.8643C42.3607 10.8156 42.04 10.6969 41.7541 10.5161C40.9792 10.0421 40.3491 9.36463 39.9325 8.55737C39.3078 7.42053 38.985 6.14259 38.9947 4.8455Z" fill="#534672"/>
</g>
</g>
<defs>
<clipPath id="clip0_6039_112323">
<rect width="106.694" height="150" fill="white" transform="translate(0.416748)"/>
</clipPath>
</defs>
</svg>
