<svg width="101" height="100" viewBox="0 0 101 100" fill="none" xmlns="http://www.w3.org/2000/svg">
<path d="M82.853 78.8669C78.5171 79.7848 74.1264 77.6481 72.181 73.6638L69.5638 68.3044C71.1419 67.1911 72.181 65.363 72.181 63.2888C72.181 59.9021 69.4232 57.1443 66.0404 57.1443C63.0209 57.1443 60.517 59.3396 60.0052 62.2107H40.3922C39.8805 59.3357 37.3766 57.1443 34.357 57.1443C30.9703 57.1443 28.2164 59.9021 28.2164 63.2888C28.2164 65.363 29.2555 67.1911 30.8336 68.3044L28.2164 73.6638C26.2711 77.6482 21.8766 79.7888 17.5444 78.8669C12.4116 77.7771 9.12251 72.8747 10.06 67.7109L16.4702 32.3559C17.0093 29.3754 19.5991 27.2153 22.6264 27.2153H39.3994V29.5591C39.3994 32.27 41.6025 34.4732 44.3135 34.4732H56.0835C58.7944 34.4732 60.9976 32.2701 60.9976 29.5591V27.2153H77.7706C80.7979 27.2153 83.3878 29.3794 83.9268 32.3559L90.337 67.7109C91.2784 72.875 87.9897 77.7769 82.853 78.8669ZM63.052 33.9259C63.052 31.1212 65.3332 28.8439 68.134 28.8439C70.9387 28.8439 73.216 31.1251 73.216 33.9259C73.216 36.7306 70.9348 39.0079 68.134 39.0079C65.3293 39.0079 63.052 36.7267 63.052 33.9259ZM59.7786 47.3599C56.9739 47.3599 54.6966 45.0787 54.6966 42.2779C54.6966 39.4732 56.9778 37.1959 59.7786 37.1959C62.5833 37.1959 64.8606 39.4771 64.8606 42.2779C64.8645 45.0826 62.5833 47.3599 59.7786 47.3599ZM81.5676 42.2779C81.5676 45.0826 79.2864 47.3599 76.4856 47.3599C73.6809 47.3599 71.4036 45.0787 71.4036 42.2779C71.4036 39.4732 73.6848 37.1959 76.4856 37.1959C79.2864 37.1959 81.5676 39.4771 81.5676 42.2779ZM73.216 50.6334C73.216 53.4381 70.9348 55.7154 68.134 55.7154C65.3293 55.7154 63.052 53.4342 63.052 50.6334C63.052 47.8287 65.3332 45.5514 68.134 45.5514C70.9348 45.5475 73.216 47.8287 73.216 50.6334ZM44.083 40.4694C44.083 38.3288 42.3408 36.5827 40.1963 36.5827H37.9658V34.3522C37.9658 32.2116 36.2236 30.4655 34.0791 30.4655H30.458C28.3174 30.4655 26.5713 32.2077 26.5713 34.3522V36.5827H24.3408C22.2002 36.5827 20.4541 38.3249 20.4541 40.4694V44.0905C20.4541 46.235 22.1963 47.9772 24.3408 47.9772H26.5713V50.2077C26.5713 52.3483 28.3135 54.0944 30.458 54.0944H34.0791C36.2197 54.0944 37.9658 52.3522 37.9658 50.2077V47.9772H40.1963C42.3369 47.9772 44.083 46.235 44.083 44.0905V40.4694ZM36.4072 44.2077C37.0166 44.8171 37.0166 45.8054 36.4072 46.4186C36.1025 46.7233 35.7041 46.8756 35.3017 46.8756C34.9033 46.8756 34.5009 46.7233 34.1962 46.4186L32.2665 44.4889L30.3368 46.4186C30.0321 46.7233 29.6337 46.8756 29.2313 46.8756C28.8329 46.8756 28.4305 46.7233 28.1258 46.4186C27.5164 45.8092 27.5164 44.8209 28.1258 44.2077L30.0555 42.278L28.1258 40.3483C27.5164 39.7389 27.5164 38.7506 28.1258 38.1374C28.7352 37.528 29.7235 37.528 30.3367 38.1374L32.2664 40.0671L34.1961 38.1374C34.8055 37.528 35.7938 37.528 36.407 38.1374C37.0164 38.7468 37.0164 39.7351 36.407 40.3483L34.4773 42.278L36.4072 44.2077ZM57.0122 54.7777C57.0122 57.1058 55.1177 58.9965 52.7934 58.9965H47.6098C45.2817 58.9965 43.391 57.1059 43.391 54.7777C43.391 52.4495 45.2855 50.5589 47.6098 50.5589H52.7934C55.1176 50.5589 57.0122 52.4534 57.0122 54.7777Z" fill="#FBC998"/>
<path d="M93.415 67.1519L87.0048 31.7968C86.2314 27.539 82.6532 24.4257 78.3876 24.1406V23.4844C78.3876 20.461 75.9267 18 72.9032 18H63.3563C60.3329 18 57.8719 20.4609 57.8719 23.4844V24.086H42.5199V23.4844C42.5199 20.461 40.059 18 37.0355 18H27.4886C24.4652 18 22.0042 20.4609 22.0042 23.4844V24.1406C17.7386 24.4219 14.1604 27.5351 13.387 31.7968L6.98474 67.1519C5.74644 73.9917 10.1019 80.4759 16.8988 81.9219C17.7895 82.1094 18.684 82.2031 19.5668 82.2031C24.3676 82.2031 28.852 79.4922 31.0278 75.0312L33.7934 69.371C33.9848 69.3866 34.1684 69.4296 34.3638 69.4296C37.0279 69.4296 39.2817 67.7148 40.1293 65.3358H60.2854C61.133 67.7108 63.3869 69.4296 66.0509 69.4296C66.2463 69.4296 66.4299 69.3905 66.6213 69.371L69.3869 75.0312C71.9611 80.3046 77.7697 83.1367 83.5159 81.9218C90.3011 80.4765 94.6536 73.9922 93.415 67.1519ZM82.853 78.8669C78.5171 79.7848 74.1264 77.648 72.181 73.6637L69.5638 68.3044C71.1419 67.1911 72.181 65.3629 72.181 63.2887C72.181 59.9021 69.4232 57.1442 66.0404 57.1442C63.0209 57.1442 60.517 59.3396 60.0052 62.2107H40.3922C39.8805 59.3357 37.3766 57.1442 34.357 57.1442C30.9703 57.1442 28.2164 59.9021 28.2164 63.2887C28.2164 65.3629 29.2555 67.1911 30.8336 68.3044L28.2164 73.6637C26.2711 77.6482 21.8766 79.7888 17.5444 78.8669C12.4116 77.7771 9.12254 72.8747 10.06 67.7109L16.4702 32.3558C17.0093 29.3753 19.5991 27.2152 22.6264 27.2152H39.3994V29.559C39.3994 32.2699 41.6025 34.4731 44.3135 34.4731H56.0835C58.7944 34.4731 60.9976 32.27 60.9976 29.559V27.2152H77.7706C80.7979 27.2152 83.3878 29.3793 83.9268 32.3558L90.337 67.7109C91.2784 72.875 87.9897 77.7769 82.853 78.8669ZM63.052 33.9258C63.052 31.1212 65.3332 28.8438 68.134 28.8438C70.9387 28.8438 73.216 31.125 73.216 33.9258C73.216 36.7305 70.9348 39.0078 68.134 39.0078C65.3293 39.0078 63.052 36.7267 63.052 33.9258ZM59.7786 47.3598C56.9739 47.3598 54.6966 45.0786 54.6966 42.2778C54.6966 39.4731 56.9778 37.1958 59.7786 37.1958C62.5833 37.1958 64.8606 39.477 64.8606 42.2778C64.8645 45.0825 62.5833 47.3598 59.7786 47.3598ZM81.5676 42.2778C81.5676 45.0825 79.2864 47.3598 76.4856 47.3598C73.6809 47.3598 71.4036 45.0786 71.4036 42.2778C71.4036 39.4731 73.6848 37.1958 76.4856 37.1958C79.2864 37.1958 81.5676 39.477 81.5676 42.2778ZM73.216 50.6334C73.216 53.4381 70.9348 55.7154 68.134 55.7154C65.3293 55.7154 63.052 53.4342 63.052 50.6334C63.052 47.8287 65.3332 45.5513 68.134 45.5513C70.9348 45.5474 73.216 47.8287 73.216 50.6334ZM44.083 40.4693C44.083 38.3287 42.3408 36.5826 40.1963 36.5826H37.9658V34.3521C37.9658 32.2115 36.2236 30.4654 34.0791 30.4654H30.458C28.3174 30.4654 26.5713 32.2077 26.5713 34.3521V36.5826H24.3408C22.2002 36.5826 20.4541 38.3248 20.4541 40.4693V44.0904C20.4541 46.2349 22.1963 47.9771 24.3408 47.9771H26.5713V50.2076C26.5713 52.3482 28.3135 54.0944 30.458 54.0944H34.0791C36.2197 54.0944 37.9658 52.3521 37.9658 50.2076V47.9771H40.1963C42.3369 47.9771 44.083 46.2349 44.083 44.0904V40.4693ZM36.4072 44.2076C37.0166 44.817 37.0166 45.8053 36.4072 46.4185C36.1025 46.7232 35.7041 46.8756 35.3017 46.8756C34.9033 46.8756 34.501 46.7232 34.1962 46.4185L32.2665 44.4888L30.3368 46.4185C30.0322 46.7232 29.6337 46.8756 29.2313 46.8756C28.8329 46.8756 28.4306 46.7232 28.1258 46.4185C27.5165 45.8092 27.5165 44.8208 28.1258 44.2076L30.0555 42.2779L28.1258 40.3482C27.5165 39.7389 27.5165 38.7505 28.1258 38.1373C28.7352 37.528 29.7235 37.528 30.3367 38.1373L32.2664 40.067L34.1961 38.1373C34.8055 37.528 35.7938 37.528 36.407 38.1373C37.0164 38.7467 37.0164 39.735 36.407 40.3482L34.4773 42.2779L36.4072 44.2076ZM57.0122 54.7776C57.0122 57.1057 55.1177 58.9965 52.7934 58.9965H47.6098C45.2817 58.9965 43.391 57.1059 43.391 54.7776C43.391 52.4494 45.2855 50.5589 47.6098 50.5589H52.7934C55.1176 50.5589 57.0122 52.4534 57.0122 54.7776Z" fill="#EB8045"/>
</svg>
