<svg width="48" height="48" viewBox="0 0 48 48" fill="none" xmlns="http://www.w3.org/2000/svg">
<rect width="48" height="48" rx="6" fill="#E8504A"/>
<path fill-rule="evenodd" clip-rule="evenodd" d="M33.5999 21.6C33.5999 25.5765 30.3764 28.8 26.3999 28.8C25.6725 28.8 24.9703 28.6922 24.3084 28.4915L21.5999 31.2H19.1999V33.6H14.3999V28.8L19.5084 23.6915C19.3078 23.0296 19.1999 22.3274 19.1999 21.6C19.1999 17.6236 22.4235 14.4 26.3999 14.4C30.3764 14.4 33.5999 17.6236 33.5999 21.6ZM26.3999 16.8C25.7372 16.8 25.1999 17.3373 25.1999 18C25.1999 18.6628 25.7372 19.2 26.3999 19.2C27.7254 19.2 28.7999 20.2745 28.7999 21.6C28.7999 22.2628 29.3372 22.8 29.9999 22.8C30.6626 22.8 31.1999 22.2628 31.1999 21.6C31.1999 18.9491 29.0509 16.8 26.3999 16.8Z" fill="white"/>
</svg>
