<svg width="100" height="100" viewBox="0 0 100 100" fill="none" xmlns="http://www.w3.org/2000/svg">
<path fill-rule="evenodd" clip-rule="evenodd" d="M44.1648 10H75.773C77.9862 10 79.724 11.7375 79.724 13.9507L79.7271 85.1467C79.7271 87.3599 77.9893 89.0977 75.7761 89.0977H44.1679C43.3777 89.0977 42.8252 88.4649 42.8252 87.755V77.1678H36.8183L31.9968 81.9893C31.7592 82.227 31.3641 82.3844 31.0492 82.3844H24.2095C23.6923 83.9598 22.2272 85.0696 20.4585 85.0696C18.2453 85.0696 16.5075 83.3318 16.5075 81.1186C16.5075 78.9054 18.2453 77.1675 20.4585 77.1675C22.1984 77.1675 23.6444 78.2415 24.1834 79.7761H30.4967L35.3953 74.8775C35.633 74.6398 36.0281 74.4824 36.343 74.4824H42.9023V63.9718H38.1611L35.9479 66.185C35.7102 66.4227 35.3151 66.5801 35.0002 66.5801H18.9952C18.4781 68.1556 17.0129 69.2655 15.2442 69.2655C13.031 69.2655 11.2932 67.5277 11.2932 65.3145C11.2932 63.1013 13.031 61.3634 15.2442 61.3634C16.984 61.3634 18.43 62.4373 18.9691 63.9718H34.4479L36.6611 61.7586C36.8988 61.5209 37.2939 61.3635 37.6087 61.3635H42.9025V53.4615H31.0494C30.6543 53.4615 30.3395 53.304 30.1018 53.0664L26.5459 49.5104H13.6755C13.1358 51.0449 11.6884 52.1188 9.95103 52.1188C7.73782 52.1188 6 50.381 6 48.1678C6 45.9546 7.73782 44.2167 9.95103 44.2167C11.6908 44.2167 13.1368 45.2906 13.6758 46.825H27.0982C27.4933 46.825 27.8082 46.9824 28.0458 47.2201L31.6018 50.776H42.9025V37.5804H37.6087C37.2136 37.5804 36.8988 37.423 36.6611 37.1853L34.4479 34.9721H18.9951C18.478 36.5474 17.0129 37.6573 15.2442 37.6573C13.031 37.6573 11.2932 35.9195 11.2932 33.7062C11.2932 31.493 13.031 29.7552 15.2442 29.7552C16.9841 29.7552 18.4301 30.8292 18.9691 32.3638H35.0002C35.3953 32.3638 35.7102 32.5212 35.9479 32.7589L38.1611 34.9721H42.9023V24.4616H36.343C35.9479 24.4616 35.633 24.3041 35.3953 24.0665L30.4967 19.1678H24.2095C23.6924 20.7433 22.2273 21.8532 20.4585 21.8532C18.3256 21.8532 16.5075 20.1153 16.5075 17.9021C16.5075 15.6889 18.2453 13.9511 20.4585 13.9511C22.1983 13.9511 23.6443 15.025 24.1834 16.5595H30.9721C31.3672 16.5595 31.682 16.7169 31.9197 16.9546L36.8183 21.8532H42.8221V11.3427C42.8221 10.5525 43.4549 10 44.1648 10Z" fill="#BDB3D0"/>
<path fill-rule="evenodd" clip-rule="evenodd" d="M75.7738 10H44.1656C43.4556 10 42.8229 10.5525 42.8229 11.3427V21.8532L42.9031 24.4616V34.9721L42.9032 37.5804V50.776V53.4615V61.3635L42.9031 63.9718V74.4824L42.826 77.1678V87.755C42.826 88.4649 43.3785 89.0977 44.1687 89.0977H75.7769C77.9901 89.0977 79.7279 87.3599 79.7279 85.1467L79.7248 13.9507C79.7248 11.7375 77.987 10 75.7738 10ZM71.8228 58.2025L64.8683 51.2481C64.3158 50.6956 63.5256 50.6956 62.9731 51.2481L57.3645 56.8598L50.41 49.9054C49.8575 49.3529 49.0673 49.3529 48.5148 49.9054L45.5114 52.9088V17.9019H71.826L71.8228 58.2025ZM77.1196 85.0695C77.1196 85.7795 76.5671 86.4123 75.7769 86.4123H45.5112V83.8039H54.7558L62.6581 83.7263H73.1686C73.8785 83.7263 74.5113 83.1738 74.5113 82.3836V16.5587C74.5113 15.8488 73.9588 15.216 73.1686 15.216H45.5114V12.6077H75.777C76.5642 12.6077 77.1197 13.2405 77.1197 13.9504L77.1196 85.0695Z" fill="#8B7AB0"/>
<path d="M57.3629 81.1182H59.9712V83.7265H57.3629V81.1182Z" fill="#8B7AB0"/>
<path d="M58.7064 44.2168C63.0525 44.2168 66.6084 40.6608 66.6084 36.3147C66.6084 31.9686 63.0525 28.4127 58.7064 28.4127C54.3602 28.4127 50.8043 31.9686 50.8043 36.3147C50.8043 40.6608 54.3602 44.2168 58.7064 44.2168Z" fill="#8B7AB0"/>
</svg>
