<svg width="100" height="101" viewBox="0 0 100 101" fill="none" xmlns="http://www.w3.org/2000/svg">
<path fill-rule="evenodd" clip-rule="evenodd" d="M49.5949 0.867135C49.4748 0.903511 49.2761 0.999137 49.1533 1.07957C49.0241 1.16414 48.3555 2.15635 47.5678 3.43265C46.8186 4.6464 46.1956 5.65076 46.1833 5.66461C46.1711 5.67845 45.8885 5.71888 45.5555 5.75449L44.9501 5.81914L43.2125 3.94715C42.2568 2.91755 41.3756 2.01751 41.2543 1.94695C41.133 1.87648 40.9134 1.793 40.7665 1.76161C40.6194 1.73021 40.3437 1.74642 40.1538 1.79748C39.9639 1.84862 39.6846 2.01422 39.5334 2.16555C39.3102 2.3887 39.093 2.88565 38.3823 4.79959C37.9005 6.09707 37.4724 7.20229 37.4307 7.25572C37.389 7.30906 37.108 7.41954 36.8062 7.50124C36.2691 7.64657 36.2526 7.64615 36.0286 7.4809C35.9028 7.38806 34.9739 6.72037 33.9645 5.99731C32.9551 5.27417 31.9918 4.63712 31.8238 4.58167C31.6559 4.5263 31.3842 4.50267 31.2203 4.52934C31.0562 4.55593 30.7814 4.67079 30.6094 4.78457C30.4374 4.89834 30.2345 5.1225 30.1585 5.2827C30.0825 5.44297 29.8489 6.63327 29.6395 7.9278C29.4301 9.22232 29.2401 10.3574 29.2173 10.4503C29.193 10.5494 28.9632 10.733 28.6602 10.8953L28.1444 11.1716L25.894 10.1458C24.6562 9.5817 23.5071 9.08391 23.3404 9.03977C23.1375 8.98609 22.9223 8.99048 22.6899 9.05302C22.499 9.10442 22.2312 9.2403 22.095 9.355C21.9586 9.46962 21.784 9.7213 21.7067 9.91415C21.5788 10.2337 21.575 10.4946 21.6636 12.844L21.7608 15.4231L21.3937 15.7449C21.1918 15.9218 20.9696 16.0976 20.8999 16.1356C20.8217 16.1782 19.8539 15.9849 18.3674 15.6296C17.0441 15.3132 15.8146 15.0534 15.6353 15.0523C15.4502 15.051 15.1635 15.1319 14.9727 15.239C14.7848 15.3446 14.5469 15.5807 14.4336 15.774C14.3096 15.9855 14.2323 16.2482 14.2345 16.4501C14.2365 16.6317 14.496 17.8627 14.8112 19.1857C15.3698 21.5312 15.3804 21.5963 15.2358 21.8021C15.1542 21.9181 14.9802 22.1393 14.8491 22.2936L14.6108 22.5742L12.0572 22.4769C10.1172 22.4031 9.43211 22.4033 9.20595 22.478C9.04218 22.532 8.79796 22.669 8.66314 22.7823C8.52841 22.8957 8.35392 23.1567 8.27532 23.3622C8.18221 23.606 8.15173 23.8378 8.18753 24.0287C8.21775 24.1898 8.71531 25.3611 9.29315 26.6318L10.3439 28.9422L10.0714 29.4678C9.90713 29.7847 9.73188 30.0096 9.63007 30.0342C9.53721 30.0567 8.40001 30.2471 7.103 30.4574C5.806 30.6677 4.61815 30.8999 4.46332 30.9733C4.30841 31.0468 4.10514 31.2145 4.01152 31.346C3.91781 31.4775 3.80047 31.7019 3.75075 31.8446C3.70094 31.9874 3.68431 32.2648 3.71377 32.4611C3.75607 32.7435 4.02148 33.1705 4.98402 34.5052C5.65329 35.4331 6.34045 36.3912 6.51106 36.6345L6.8213 37.0766L6.67247 37.6263C6.59067 37.9285 6.48185 38.2088 6.43069 38.249C6.37962 38.2894 5.29307 38.7129 4.01624 39.1904C2.73941 39.6677 1.6099 40.1134 1.50631 40.1808C1.40265 40.2481 1.23305 40.4403 1.12939 40.6079C0.999297 40.8184 0.940964 41.0452 0.940964 41.3407C0.940964 41.6323 0.998959 41.8619 1.12297 42.0611C1.22309 42.2219 2.13574 43.1224 3.15104 44.0622L4.9971 45.7709L4.93244 46.3759C4.89681 46.7087 4.83426 47.0033 4.79331 47.0305C4.75237 47.0576 3.78316 47.6618 2.63955 48.3729C1.49585 49.0841 0.465013 49.7789 0.348769 49.917C0.232524 50.0552 0.0969484 50.3183 0.0475636 50.5019C-0.0164256 50.7396 -0.0159191 50.9339 0.0495052 51.1766C0.0999874 51.3641 0.243921 51.6283 0.369282 51.7637C0.494728 51.8992 1.54658 52.5961 2.70674 53.3127C4.26519 54.2751 4.83088 54.6675 4.87216 54.8145C4.90289 54.924 4.92965 55.2224 4.93176 55.4777L4.93539 55.9419L3.3306 57.4189C2.44792 58.2313 1.57875 59.0539 1.39902 59.247C1.21929 59.4401 1.03036 59.7534 0.979205 59.9433C0.911586 60.1943 0.911586 60.3825 0.979037 60.6329C1.03003 60.8224 1.19295 61.1081 1.34102 61.2681C1.57267 61.5182 1.94681 61.6838 4.01624 62.4523C5.3395 62.9437 6.44884 63.3882 6.48135 63.4401C6.51393 63.4921 6.60417 63.7696 6.68201 64.0569L6.82341 64.5793L5.35647 66.6098C4.54968 67.7267 3.83761 68.7727 3.77396 68.9342C3.69723 69.1291 3.67798 69.359 3.71681 69.6178C3.75809 69.8929 3.86209 70.1038 4.07019 70.334C4.23235 70.5135 4.48603 70.6983 4.63385 70.7446C4.78166 70.791 5.9853 71.0038 7.30856 71.2175C9.15023 71.5149 9.74083 71.6398 9.82676 71.7498C9.88847 71.8288 10.0322 72.0751 10.146 72.2971L10.3531 72.7006L9.30801 74.9979C8.73312 76.2613 8.237 77.401 8.20542 77.5304C8.17377 77.6599 8.19031 77.9257 8.24206 78.1212C8.29389 78.3167 8.4374 78.5846 8.56108 78.7164C8.68475 78.8482 8.89681 79.0139 9.03239 79.0847C9.2317 79.1887 9.54666 79.2077 10.6785 79.1843C11.4484 79.1683 12.662 79.1545 13.3755 79.1536L14.673 79.152L15.0318 79.574L15.3904 79.996L14.8085 82.4436C14.3932 84.1908 14.2358 85.0049 14.2582 85.2885C14.2794 85.5551 14.3649 85.7843 14.518 85.9849C14.6434 86.1494 14.8676 86.3476 15.0161 86.4253C15.1646 86.503 15.4571 86.5647 15.666 86.5625C15.8749 86.5602 17.12 86.3031 18.4329 85.9912L20.8198 85.4243L21.278 85.7907C21.7083 86.135 21.7363 86.1802 21.74 86.537C21.7421 86.7459 21.7035 87.9153 21.6541 89.1357C21.5884 90.7629 21.5897 91.4311 21.659 91.6411C21.711 91.7986 21.9024 92.0619 22.0844 92.2263C22.2663 92.3906 22.5134 92.5497 22.6334 92.5798C22.7534 92.61 23.0108 92.616 23.2054 92.5932C23.4075 92.5695 24.5166 92.1129 25.7931 91.5278C27.0218 90.9646 28.072 90.5038 28.1267 90.5038C28.1815 90.5038 28.4466 90.6276 28.7158 90.7789L29.2053 91.0541L29.6323 93.6429C29.9699 95.6897 30.0963 96.2815 30.2359 96.4695C30.3331 96.6002 30.542 96.796 30.7002 96.9045C30.9424 97.0706 31.0696 97.0968 31.5044 97.07L32.021 97.0382L34.0712 95.5645C35.1989 94.7539 36.1631 94.066 36.2139 94.0358C36.2647 94.0055 36.5655 94.0625 36.8825 94.1624L37.4585 94.344L38.3653 96.7696C38.9271 98.2726 39.3501 99.2798 39.4775 99.4179C39.5905 99.5405 39.8053 99.6928 39.9547 99.7565C40.1041 99.8201 40.3909 99.8722 40.592 99.8722C40.8476 99.8722 41.0581 99.8047 41.2912 99.6484C41.4746 99.5252 42.3796 98.6123 43.3022 97.6197L44.9798 95.8149L45.4971 95.8668C45.7817 95.8952 46.0565 95.9314 46.1079 95.947C46.1594 95.9625 46.8047 96.952 47.542 98.1458C48.3941 99.5253 48.9852 100.394 49.1641 100.531C49.3593 100.68 49.5847 100.757 49.9001 100.783C50.276 100.814 50.4174 100.784 50.7171 100.608C51.0333 100.423 51.2523 100.119 52.4302 98.226C53.1731 97.0325 53.7999 96.0278 53.8231 95.9934C53.8463 95.9591 54.1355 95.9064 54.4657 95.8764L55.0661 95.822L56.8257 97.7191C57.7935 98.7626 58.7067 99.6738 58.855 99.7442C59.0035 99.8146 59.2842 99.8722 59.4792 99.8722C59.6741 99.8722 59.9649 99.8099 60.1254 99.7337C60.2859 99.6576 60.5055 99.4771 60.6133 99.3328C60.7212 99.1885 61.2011 98.0128 61.6799 96.7201C62.375 94.8432 62.5867 94.356 62.7311 94.3011C62.8306 94.2633 63.1021 94.1758 63.3345 94.1069L63.757 93.9815L65.6913 95.3778C66.7551 96.1458 67.7395 96.8443 67.8788 96.9302C68.0448 97.0325 68.2927 97.0865 68.5979 97.0866C68.9577 97.0869 69.1354 97.0383 69.3785 96.8731C69.5516 96.7554 69.7639 96.5181 69.85 96.3456C69.9464 96.153 70.1635 95.0694 70.4129 93.5374L70.8188 91.0429L71.3056 90.7733C71.5733 90.6251 71.8368 90.5038 71.8914 90.5038C71.9458 90.5038 73.0325 90.9785 74.3062 91.5588C76.0057 92.3329 76.7097 92.6138 76.9513 92.6138C77.1323 92.6138 77.3874 92.5733 77.5181 92.5237C77.6488 92.4743 77.8448 92.3508 77.9537 92.2494C78.0626 92.1481 78.207 91.959 78.2745 91.8291C78.342 91.6993 78.404 91.4334 78.4121 91.2383C78.4203 91.0433 78.3948 89.8188 78.3555 88.5174L78.284 86.1513L78.7542 85.7886L79.2244 85.4259L81.7557 86.0226C83.5343 86.4419 84.3703 86.6038 84.567 86.5671C84.7209 86.5383 84.9685 86.4419 85.117 86.3528C85.2655 86.2638 85.4618 86.0693 85.5531 85.9209C85.6444 85.7723 85.7432 85.5178 85.7726 85.3554C85.8114 85.1412 85.6623 84.3666 85.2303 82.5374C84.7393 80.4589 84.6531 79.991 84.7403 79.8788C84.7984 79.804 84.9696 79.5908 85.1208 79.4052L85.3956 79.0676L87.8788 79.152C89.2445 79.1984 90.5006 79.2135 90.6701 79.1855C90.8395 79.1574 91.0802 79.059 91.2049 78.9667C91.3295 78.8744 91.517 78.6732 91.6215 78.5198C91.7559 78.3224 91.8114 78.1175 91.8114 77.8191C91.8114 77.4592 91.6551 77.0533 90.7449 75.0503L89.6785 72.7032L89.9622 72.156C90.2433 71.6139 90.2501 71.6081 90.67 71.5506C90.9031 71.5186 92.0732 71.33 93.2702 71.1314C95.1889 70.813 95.4813 70.7438 95.7396 70.5468C95.9007 70.424 96.0895 70.2133 96.159 70.0788C96.2286 69.9442 96.2856 69.6277 96.2856 69.3754C96.2856 68.9807 96.2389 68.8473 95.9519 68.4217C95.7684 68.1495 95.0702 67.1681 94.4004 66.2408L93.1825 64.5548L93.3065 64.1377C93.3746 63.9083 93.4613 63.6392 93.4991 63.5398C93.554 63.3954 94.0413 63.1837 95.9186 62.4888C97.2116 62.0101 98.3875 61.5303 98.5319 61.4224C98.6762 61.3147 98.8567 61.0951 98.9329 60.9346C99.0091 60.7742 99.0714 60.4834 99.0714 60.2885C99.0714 60.0937 99.0126 59.8104 98.9408 59.6592C98.8688 59.5074 97.9604 58.5963 96.9155 57.6278L95.0207 55.8717L95.0739 55.2738C95.1032 54.945 95.1314 54.6708 95.1366 54.6645C95.1417 54.6583 96.0197 54.1132 97.0876 53.4534C98.1555 52.7935 99.1746 52.1553 99.3522 52.0351C99.5298 51.915 99.7483 51.6735 99.8376 51.4983C99.9269 51.3233 100 51.0228 100 50.8307C100 50.6386 99.9385 50.3519 99.8633 50.1934C99.7881 50.0349 99.62 49.8203 99.4898 49.7164C99.3595 49.6125 98.3225 48.9578 97.1853 48.2615L95.1177 46.9955L95.0579 46.3761C95.0117 45.8982 95.0246 45.7328 95.1142 45.6517C95.1781 45.5939 96.0332 44.8 97.0144 43.8874C98.0385 42.9348 98.8565 42.1056 98.9349 41.9404C99.0099 41.7823 99.0706 41.5256 99.0695 41.3702C99.0685 41.2147 98.998 40.9356 98.9126 40.7499C98.8273 40.5642 98.6779 40.3415 98.5805 40.2549C98.4831 40.1683 97.3096 39.6898 95.9727 39.1915L93.542 38.2856L93.3466 37.6862L93.1512 37.0869L94.603 35.0781C95.4015 33.9734 96.1108 32.9377 96.1791 32.7765C96.2555 32.5964 96.2886 32.3294 96.2651 32.0838C96.24 31.8232 96.1472 31.5799 95.9985 31.3849C95.873 31.2205 95.6669 31.0324 95.5404 30.9671C95.414 30.9017 94.1908 30.6684 92.8223 30.4487C91.4538 30.229 90.2905 30.0072 90.2373 29.9557C90.1842 29.9043 90.0269 29.6534 89.8879 29.3981L89.6352 28.9339L90.7209 26.5707C91.4927 24.8908 91.8073 24.1151 91.809 23.8883C91.8103 23.7127 91.7601 23.4463 91.6974 23.2961C91.6346 23.1461 91.4455 22.9022 91.277 22.7544C91.1086 22.6066 90.8465 22.4623 90.6946 22.4338C90.5425 22.4053 89.3926 22.4222 88.139 22.4715C86.8855 22.5207 85.7454 22.5611 85.6056 22.5613C85.3965 22.5616 85.2849 22.4769 84.9799 22.0863L84.6084 21.6109L85.1826 19.1955C85.4983 17.8672 85.755 16.6237 85.7528 16.4325C85.7507 16.2411 85.6885 15.9678 85.6145 15.8249C85.5406 15.6821 85.3456 15.4625 85.1811 15.3371C84.9837 15.1865 84.7469 15.0972 84.4846 15.0741C84.1935 15.0485 83.432 15.1957 81.639 15.6241L79.1909 16.209L78.8649 15.9461C78.6857 15.8014 78.4717 15.6261 78.3894 15.5565C78.2487 15.4373 78.245 15.2782 78.3284 12.8537C78.377 11.4369 78.391 10.1748 78.3594 10.049C78.3279 9.92327 78.1869 9.68923 78.0461 9.52887C77.9053 9.36859 77.6216 9.17312 77.4157 9.09446C77.1775 9.00347 76.9422 8.97132 76.7687 9.00601C76.6187 9.03605 75.458 9.53461 74.1891 10.1139L71.8822 11.1672L71.4845 10.9632C71.2657 10.851 71.0206 10.7086 70.9399 10.6469C70.8258 10.5597 70.7001 9.97357 70.3772 8.02275C70.0967 6.32833 69.9095 5.42196 69.8019 5.2378C69.7142 5.08765 69.5168 4.88019 69.3632 4.77672C69.2096 4.67324 68.9462 4.56268 68.7778 4.53111C68.5823 4.49448 68.3491 4.51879 68.133 4.59846C67.9467 4.66708 66.8928 5.3757 65.7908 6.17303C64.6888 6.97045 63.7391 7.62227 63.6803 7.62159C63.6216 7.62092 63.3455 7.54968 63.0669 7.46317L62.5604 7.30602L61.6664 4.91134C60.9464 2.98305 60.7162 2.45673 60.4845 2.20876C60.3065 2.01827 60.06 1.86424 59.8379 1.80465C59.5723 1.73333 59.3884 1.73274 59.1296 1.80246C58.908 1.86213 58.6222 2.04747 58.3487 2.30911C58.1115 2.53598 57.2906 3.40378 56.5245 4.23748L55.1316 5.75331L54.6251 5.75846C54.3465 5.76124 54.0326 5.71668 53.9275 5.65929C53.8212 5.60131 53.1737 4.63763 52.4682 3.48725C51.7707 2.34996 51.0895 1.31733 50.9543 1.19258C50.8192 1.06775 50.5641 0.92554 50.3875 0.876503C50.2109 0.827467 50.0095 0.790415 49.9399 0.794213C49.8702 0.797927 49.715 0.830758 49.5949 0.867135ZM50.7576 9.91483C51.0668 10.0305 51.4063 10.2501 51.689 10.5174C51.9337 10.7489 52.2386 11.1512 52.3665 11.4117C52.5681 11.8221 52.5991 11.9863 52.5991 12.6464C52.5991 13.3353 52.5729 13.461 52.3238 13.9666C52.1716 14.2759 51.8933 14.6659 51.7008 14.8397C51.5095 15.0125 51.1585 15.2416 50.9208 15.3488C50.6831 15.4561 50.2759 15.5693 50.0159 15.6005C49.6905 15.6395 49.3749 15.6145 49.0029 15.5201C48.705 15.4445 48.2664 15.2487 48.0254 15.0838C47.785 14.9193 47.4537 14.5881 47.2891 14.3477C47.123 14.105 46.9283 13.668 46.8514 13.3651C46.7571 12.9937 46.7304 12.6707 46.7678 12.3531C46.798 12.0965 46.9119 11.6918 47.0209 11.4537C47.1299 11.2156 47.36 10.8648 47.5324 10.6741C47.7047 10.4833 47.9778 10.2458 48.1393 10.1459C48.3007 10.0462 48.5915 9.915 48.7854 9.85431C48.9793 9.79371 49.3929 9.74164 49.7045 9.73852C50.0898 9.73463 50.427 9.7911 50.7576 9.91483ZM46.2256 17.8281C47.7165 19.3822 48.1234 19.7588 48.5048 19.938C48.8829 20.1157 49.0943 20.1562 49.6444 20.1562C50.2087 20.1563 50.3961 20.1186 50.7841 19.9272C51.1294 19.7568 51.8753 19.1004 53.6965 17.3645C55.043 16.081 56.259 14.9226 56.3987 14.7903L56.6529 14.5497L57.7788 14.7974C58.398 14.9335 59.3283 15.1646 59.8461 15.3109C60.3639 15.4572 61.2806 15.7481 61.8832 15.9573C62.4857 16.1665 63.4699 16.5444 64.0701 16.7971C64.6704 17.0497 65.6493 17.5008 66.2455 17.7996C66.8418 18.0983 67.7571 18.5951 68.2795 18.9036C68.802 19.2121 69.7803 19.8377 70.4536 20.2937C71.1268 20.7497 72.0341 21.4069 72.4699 21.7541C72.9056 22.1014 73.6309 22.709 74.0816 23.1045C74.5323 23.4998 75.4294 24.3657 76.0751 25.0286C76.7209 25.6916 77.5761 26.6325 77.9755 27.1197C78.375 27.6069 78.9287 28.3093 79.2061 28.6807C79.4835 29.052 79.9442 29.7046 80.2299 30.1308C80.5155 30.5571 80.9533 31.2422 81.2026 31.6534L81.656 32.401L79.8478 36.486C78.8533 38.7327 78.0037 40.7649 77.9599 41.0019C77.9085 41.2799 77.9103 41.5918 77.9652 41.8808C78.0119 42.1271 78.1528 42.5173 78.2783 42.7478C78.4038 42.9783 78.6401 43.2843 78.8034 43.4276C78.9667 43.571 79.4436 43.8466 79.8632 44.0402C80.2827 44.2337 81.8865 44.9532 83.4271 45.639C85.0536 46.363 86.2526 46.9443 86.2864 47.0251C86.3184 47.1017 86.3641 48.3267 86.3879 49.7473C86.4117 51.1679 86.4043 52.5447 86.3717 52.8068L86.3121 53.2833H84.3024C82.5364 53.2833 82.2788 53.3002 82.1769 53.4228C82.0906 53.5268 82.0476 54.0274 82.0081 55.3851C81.9685 56.7531 81.9191 57.3237 81.8102 57.6721C81.7304 57.9274 81.55 58.3537 81.4094 58.6194C81.2686 58.885 80.9555 59.2897 80.7134 59.5186C80.4713 59.7475 80.0487 60.0474 79.7743 60.1851C79.4998 60.3227 79.0094 60.503 78.6843 60.5857C78.3289 60.6761 77.7739 60.7372 77.2914 60.7389C76.8002 60.7407 76.2837 60.687 75.9585 60.6005C75.6665 60.5227 75.2106 60.3566 74.9455 60.2313C74.6804 60.106 74.268 59.8083 74.0293 59.5697C73.6561 59.197 73.5811 59.0656 73.4961 58.6361C73.4417 58.3613 73.2805 57.6426 73.1379 57.0391C72.9953 56.4357 72.7483 55.5658 72.589 55.1061C72.4296 54.6464 72.1144 53.9019 71.8884 53.4517C71.6624 53.0014 71.2482 52.3288 70.9677 51.9567C70.6874 51.5847 70.137 50.9765 69.7447 50.6052C69.3523 50.2339 68.7054 49.6719 68.3071 49.3564C67.9088 49.0407 67.5952 48.77 67.6104 48.7549C67.6256 48.7397 68.059 48.4326 68.5735 48.0724C69.0881 47.7122 69.8912 47.1012 70.3582 46.7146C70.8252 46.3281 71.5072 45.6951 71.8736 45.3081C72.24 44.921 72.7311 44.3491 72.9648 44.0371C73.1985 43.7251 73.5604 43.1806 73.7689 42.8272C73.9774 42.4739 74.2829 41.8429 74.448 41.4251C74.6129 41.0073 74.8118 40.3237 74.8899 39.9059C74.9994 39.3199 75.0219 38.8569 74.9885 37.8803C74.9551 36.9069 74.8965 36.429 74.7347 35.8125C74.6191 35.3715 74.3754 34.6658 74.1931 34.2444C74.0109 33.8229 73.6127 33.1013 73.3083 32.6408C73.0039 32.1803 72.5225 31.5376 72.2384 31.2127C71.9543 30.8877 71.408 30.344 71.0244 30.0043C70.6408 29.6646 69.9317 29.1208 69.4486 28.7959C68.9655 28.471 68.2437 28.0419 67.8447 27.8425C67.4455 27.6431 66.7724 27.3435 66.3487 27.1769C65.925 27.0103 65.1462 26.7587 64.6181 26.6179C64.09 26.477 63.278 26.3045 62.8137 26.2346C62.0807 26.1242 59.3785 26.1071 42.3 26.1042L22.6305 26.1009L24.2345 24.5204C25.1166 23.6512 26.3512 22.529 26.9781 22.0268C27.6049 21.5244 28.7635 20.683 29.5528 20.157C30.3421 19.6311 31.3644 18.9856 31.8244 18.7229C32.2845 18.4602 33.0633 18.0438 33.555 17.7976C34.0467 17.5514 34.8599 17.1716 35.3619 16.9533C35.8639 16.7351 36.8406 16.3507 37.5321 16.099C38.2237 15.8472 39.3324 15.4885 39.9961 15.3017C40.6596 15.1151 41.6204 14.872 42.1312 14.7617L43.0598 14.5611L43.7353 15.2487C44.1068 15.6269 45.2275 16.7876 46.2256 17.8281ZM15.3884 36.839C15.7437 36.9717 16.0187 37.1631 16.3962 37.5402C16.8348 37.9782 16.943 38.148 17.0927 38.6326C17.1902 38.9481 17.2699 39.3663 17.2699 39.5619C17.2699 39.7574 17.2104 40.1237 17.1376 40.3758C17.0648 40.628 16.8728 41.0299 16.711 41.269C16.5491 41.5082 16.2762 41.8008 16.1046 41.9193C15.933 42.0377 15.6027 42.2185 15.3705 42.3209C15.0701 42.4535 14.7781 42.508 14.3575 42.5102C14.0108 42.5119 13.5921 42.4531 13.3445 42.3679C13.1123 42.2881 12.7484 42.095 12.5357 41.9389C12.323 41.7829 12.027 41.4712 11.8781 41.2464C11.7292 41.0216 11.5472 40.6308 11.4737 40.3781C11.3842 40.0704 11.3536 39.7293 11.3811 39.3458C11.4085 38.9625 11.4965 38.6209 11.6471 38.3132C11.7708 38.0602 12.0214 37.6996 12.2038 37.5116C12.3862 37.3237 12.6986 37.0866 12.8978 36.9849C13.097 36.8831 13.355 36.7709 13.4711 36.7354C13.5872 36.7 13.9562 36.6677 14.291 36.6638C14.7226 36.6586 15.0421 36.7097 15.3884 36.839ZM86.2522 36.9885C86.5144 37.0875 86.9024 37.3211 87.1144 37.5078C87.3524 37.7172 87.606 38.0625 87.7773 38.4105C88.0289 38.9213 88.0548 39.0452 88.0548 39.7353C88.0548 40.392 88.0234 40.5606 87.8264 40.9615C87.7009 41.2171 87.435 41.5928 87.2355 41.7964C87.0361 41.9999 86.664 42.2647 86.4086 42.3848C86.0612 42.5482 85.7743 42.6108 85.269 42.6334C84.7325 42.6573 84.4947 42.6264 84.1123 42.4829C83.8426 42.3816 83.4448 42.1349 83.2074 41.9215C82.9476 41.6878 82.6849 41.3389 82.5279 41.0187C82.3734 40.7034 82.2512 40.2939 82.2195 39.9845C82.1821 39.6211 82.2084 39.3267 82.3096 38.9717C82.3882 38.6964 82.583 38.2719 82.7427 38.0285C82.9134 37.7682 83.2152 37.4653 83.4756 37.293C83.7191 37.1319 84.1272 36.942 84.3826 36.871C84.6465 36.7977 85.0473 36.7563 85.3112 36.7752C85.5666 36.7935 85.99 36.8895 86.2522 36.9885ZM25.1209 48.8945V60.5417H19.9418H14.7627L14.4975 59.4656C14.3517 58.8737 14.1583 58.0262 14.0679 57.5821C13.9774 57.138 13.8271 56.2265 13.7339 55.5565C13.6407 54.8865 13.5191 53.6927 13.4638 52.9035C13.3984 51.9723 13.3838 50.7726 13.4222 49.4853C13.4547 48.3944 13.5076 47.3002 13.5396 47.0537L13.5977 46.6055L16.8056 45.184C18.57 44.4022 20.1932 43.6409 20.4127 43.492C20.6322 43.3431 20.9275 43.0468 21.0688 42.8334C21.2101 42.6201 21.3819 42.2565 21.4505 42.0255C21.5191 41.7945 21.575 41.4699 21.5748 41.3042C21.5745 41.1386 21.5325 40.8524 21.4813 40.6681C21.4302 40.4839 21.0885 39.6569 20.7221 38.8305C20.3556 38.0039 20.0557 37.3097 20.0557 37.2875C20.0557 37.2654 21.1954 37.2473 22.5883 37.2473H25.1209V48.8945ZM54.9658 37.6701C55.3306 37.7633 55.9433 37.9917 56.3274 38.1776C56.7802 38.3967 57.1909 38.6767 57.4952 38.9737C57.7775 39.2494 58.0545 39.627 58.1907 39.922C58.3712 40.3132 58.4173 40.5403 58.4192 41.0453C58.4209 41.529 58.3759 41.7779 58.2284 42.1003C58.1223 42.3324 57.9139 42.6505 57.7654 42.8072C57.6168 42.9638 57.3054 43.2151 57.0732 43.3656C56.8411 43.5161 56.3724 43.7396 56.0318 43.8622C55.6911 43.985 55.0643 44.1418 54.6389 44.2108C54.0058 44.3134 52.7579 44.3363 47.7661 44.3366L41.6669 44.3369V40.9187V37.5005H47.9847C54.0359 37.5005 54.3306 37.5077 54.9658 37.6701ZM52.286 54.3407C52.6676 54.4163 53.251 54.6235 53.6965 54.8415C54.1238 55.0507 54.6693 55.404 54.9432 55.6491C55.211 55.8887 55.6011 56.3243 55.8101 56.6171C56.0191 56.9099 56.2991 57.3905 56.4323 57.6851C56.5656 57.9797 56.7527 58.4742 56.8481 58.784C56.9435 59.0938 57.2537 60.4801 57.5374 61.8646C57.8211 63.2491 58.1844 64.92 58.3448 65.5776C58.5052 66.2354 58.7462 67.0432 58.8805 67.3731C59.0148 67.7028 59.2824 68.2472 59.4752 68.5827C59.668 68.9182 60.0886 69.5233 60.4097 69.9273C60.7309 70.3313 61.2512 70.8746 61.566 71.1346C61.8808 71.3946 62.3844 71.7286 62.6852 71.877L63.2321 72.1468L71.317 72.1691C75.7637 72.1814 79.4019 72.2128 79.4019 72.2388C79.4019 72.2648 79.236 72.5016 79.0333 72.7651C78.8306 73.0285 78.428 73.5288 78.1387 73.877C77.8494 74.2251 77.2782 74.8733 76.8692 75.3173L76.1256 76.1246L73.0574 75.4602C70.7033 74.9504 69.8223 74.7933 69.2717 74.7849C68.6502 74.7755 68.4897 74.8049 68.0728 75.005C67.7866 75.1422 67.4381 75.4062 67.2136 75.6559C67.0057 75.887 66.7757 76.2364 66.7024 76.4324C66.6291 76.6284 66.2462 78.308 65.8515 80.1648C65.4568 82.0216 65.0995 83.6207 65.0575 83.7184C65.004 83.8428 64.6559 84.0299 63.8974 84.3421C63.3014 84.5874 62.1952 84.9925 61.4394 85.2423C60.6836 85.492 59.468 85.8433 58.738 86.0228C58.0081 86.2023 56.8221 86.4467 56.1024 86.5659C55.3827 86.685 54.4094 86.8236 53.9394 86.8738C53.4695 86.924 52.3879 86.9995 51.536 87.0415C50.6025 87.0875 49.3391 87.087 48.3564 87.0402C47.4597 86.9975 46.2239 86.9019 45.6104 86.8277C44.9968 86.7535 43.982 86.5992 43.3552 86.4847C42.7284 86.3702 41.6837 86.1439 41.0337 85.9819C40.3837 85.8198 39.1871 85.4639 38.3745 85.191C37.562 84.9179 36.4374 84.5001 35.8753 84.2626C35.3133 84.0249 34.7925 83.7843 34.718 83.7278C34.6234 83.6561 34.3508 82.5449 33.8154 80.0487C33.3056 77.6715 32.9813 76.3414 32.8485 76.0819C32.7386 75.8672 32.5029 75.5514 32.3248 75.38C32.1467 75.2087 31.792 74.9717 31.5367 74.8534C31.19 74.6928 30.9332 74.6381 30.5236 74.6377C30.1518 74.6373 28.9682 74.8555 26.8514 75.3145L23.7279 75.9918L23.5169 75.7473C23.4008 75.6128 23.0175 75.1844 22.6649 74.7954C22.3125 74.4063 21.7082 73.6892 21.322 73.2018L20.6199 72.3156L35.7231 72.2733C44.0298 72.2501 50.8738 72.2004 50.9318 72.1629C51.0144 72.1094 51.0373 70.8979 51.0373 66.5743C51.0373 61.203 51.0329 61.0517 50.874 60.9667C50.7673 60.9096 49.1576 60.8793 46.231 60.8793H41.7513V57.5455V54.2117H46.6933C50.7865 54.2117 51.7471 54.2338 52.286 54.3407ZM29.0619 78.7735C29.3806 78.9304 29.7324 79.1955 29.9649 79.454C30.1772 79.6902 30.426 80.0904 30.5272 80.3587C30.6762 80.7538 30.7022 80.9684 30.6725 81.5574C30.6467 82.0675 30.582 82.3878 30.4486 82.666C30.3453 82.8813 30.1329 83.2068 29.9765 83.3894C29.8202 83.572 29.4519 83.8517 29.1582 84.0109C28.6513 84.2857 28.5814 84.3004 27.78 84.3004C27.07 84.3004 26.8733 84.2696 26.5423 84.1065C26.3258 83.9999 25.9765 83.7611 25.7661 83.576C25.5557 83.3909 25.2857 83.0393 25.1661 82.7949C25.0465 82.5505 24.9131 82.132 24.8696 81.8651C24.8179 81.5471 24.8211 81.2145 24.879 80.9015C24.9276 80.6385 25.0426 80.2759 25.1345 80.0957C25.2265 79.9156 25.4589 79.5977 25.6511 79.3892C25.8432 79.1808 26.1822 78.9182 26.4045 78.8056C26.6267 78.693 26.9511 78.565 27.1255 78.521C27.2998 78.4771 27.6893 78.4581 27.9911 78.4789C28.3752 78.5053 28.6964 78.5937 29.0619 78.7735ZM73.0941 78.8936C73.3849 79.0312 73.7291 79.2946 73.9882 79.578C74.2389 79.8523 74.4801 80.2277 74.5841 80.5058C74.699 80.813 74.7589 81.1729 74.7589 81.5574C74.7589 81.9418 74.699 82.3017 74.5841 82.6089C74.4801 82.887 74.2389 83.2624 73.9881 83.5367C73.737 83.8114 73.3729 84.0927 73.0866 84.2334C72.6685 84.4386 72.5074 84.4692 71.8447 84.4692C71.1541 84.4692 71.0305 84.4433 70.5186 84.1913C70.1814 84.0253 69.8339 83.7731 69.6555 83.5647C69.4913 83.3729 69.2791 83.0553 69.1841 82.8589C69.089 82.6626 68.9686 82.2732 68.9167 81.9938C68.8384 81.5729 68.8463 81.387 68.9631 80.9097C69.0504 80.5529 69.2243 80.1592 69.42 79.8757C69.5938 79.6238 69.9207 79.2914 70.1465 79.1369C70.3723 78.9825 70.7332 78.7994 70.9485 78.7301C71.2056 78.6473 71.5598 78.6154 71.9806 78.637C72.448 78.661 72.749 78.7304 73.0941 78.8936Z" fill="#B2BFCD"/>
</svg>
