<svg width="261" height="88" viewBox="0 0 261 88" fill="none" xmlns="http://www.w3.org/2000/svg">
<path d="M109.654 84.5721H123.146V87.1614H106.837V56.5436H109.654V84.5721Z" fill="white"/>
<path d="M151.888 76.1681H163.745L163.063 74.2147L157.885 58.9058C157.491 60.1172 155.719 65.2353 152.57 74.2601L151.888 76.1681ZM167.47 87.1614L164.563 78.6665H151.025L148.073 87.1614H145.029L155.841 56.5436H159.929L170.513 87.1614H167.47Z" fill="white"/>
<path d="M197.261 84.6629H205.075C207.043 84.6629 208.573 84.1784 209.663 83.2092C210.784 82.2099 211.344 80.7865 211.344 78.9391C211.344 77.0312 210.708 75.5624 209.436 74.5327C208.194 73.4727 206.453 72.9427 204.212 72.9427H197.261V84.6629ZM197.261 59.042V70.4442H202.758C205.393 70.4442 207.331 69.884 208.573 68.7634C209.814 67.6126 210.435 66.159 210.435 64.4024C210.435 62.8882 209.83 61.6162 208.618 60.5866C207.437 59.5569 205.665 59.042 203.303 59.042H197.261ZM194.445 56.5436H202.985C206.074 56.5436 208.573 57.2552 210.481 58.6786C212.419 60.0717 213.388 62.0099 213.388 64.4933C213.388 66.3104 212.873 67.87 211.843 69.1723C210.844 70.4442 209.542 71.2468 207.937 71.5799C209.663 71.7919 211.147 72.5339 212.389 73.8058C213.661 75.0778 214.297 76.8192 214.297 79.03C214.297 81.483 213.494 83.4515 211.889 84.9355C210.314 86.4194 208.043 87.1614 205.075 87.1614H194.445V56.5436Z" fill="white"/>
<path d="M254.119 57.6338V60.7683C253.392 60.2837 252.438 59.8749 251.257 59.5417C250.076 59.2086 248.925 59.042 247.804 59.042C245.775 59.042 244.155 59.5266 242.944 60.4957C241.732 61.4345 241.126 62.6914 241.126 64.2662C241.126 65.0838 241.278 65.8107 241.581 66.4467C241.914 67.0826 242.459 67.6732 243.216 68.2183C243.973 68.7332 244.624 69.142 245.169 69.4448C245.745 69.7174 246.608 70.096 247.759 70.5805C248.819 71.0348 249.621 71.3982 250.166 71.6708C250.712 71.913 251.408 72.3068 252.256 72.8519C253.104 73.397 253.74 73.9421 254.164 74.4872C254.618 75.0021 255.012 75.6835 255.345 76.5315C255.709 77.3492 255.89 78.2577 255.89 79.2571C255.89 81.9221 254.997 83.9664 253.21 85.3897C251.423 86.7828 249.137 87.4794 246.351 87.4794C243.201 87.4794 240.521 86.8131 238.31 85.4806V82.3461C239.218 83.0427 240.384 83.6181 241.808 84.0724C243.261 84.5266 244.73 84.7538 246.214 84.7538C248.364 84.7538 250.03 84.2844 251.211 83.3455C252.423 82.4067 253.028 81.059 253.028 79.3025C253.028 77.97 252.574 76.8949 251.666 76.0772C250.757 75.2292 249.44 74.4267 247.713 73.6696C247.471 73.5484 246.941 73.3213 246.123 72.9882C245.306 72.6247 244.73 72.3673 244.397 72.2159C244.064 72.0645 243.549 71.8071 242.853 71.4436C242.156 71.0802 241.641 70.7622 241.308 70.4897C241.005 70.2171 240.612 69.8537 240.127 69.3994C239.642 68.9451 239.294 68.4909 239.082 68.0366C238.87 67.5823 238.673 67.0524 238.492 66.4467C238.31 65.8107 238.219 65.1444 238.219 64.4479C238.219 61.8737 239.143 59.8749 240.99 58.4515C242.838 56.9978 245.094 56.271 247.759 56.271C250.303 56.271 252.423 56.7253 254.119 57.6338Z" fill="white"/>
<path d="M133.391 5.97253C130.046 4.42388 126.082 3.86637 122.613 3.86637C113.135 3.86637 107.684 8.82205 107.684 15.8839C107.684 22.5741 112.206 25.6714 116.604 27.7156C121.374 29.9456 125.091 31.0607 125.091 34.096C125.091 36.5738 122.923 38.2464 120.073 38.2464C116.17 38.2464 112.144 37.1314 108.056 34.158V43.7596C111.153 45.4941 115.737 46.3613 120.073 46.3613C129.241 46.3613 135.25 41.2198 135.25 33.7243C135.25 26.105 129.427 23.1316 124.223 20.8396C120.693 19.2909 118.029 17.8042 118.029 15.5122C118.029 13.5299 119.639 11.9813 122.985 11.9813C126.515 11.9813 130.294 13.0963 133.391 14.8928V5.97253Z" fill="white"/>
<path d="M179.191 5.91059C175.783 3.80443 171.323 3.55664 168.35 3.55664C155.465 3.55664 146.793 12.4149 146.793 25.1138C146.793 37.8747 156.27 46.3613 168.288 46.3613C171.261 46.3613 175.783 46.1135 179.191 44.0074V34.6535C176.403 36.6358 172.5 37.6269 169.217 37.6269C162.155 37.6269 157.014 32.981 157.014 25.1138C157.014 16.9989 162.403 12.2291 168.846 12.2291C172.562 12.2291 175.474 12.7866 179.191 15.0786V5.91059Z" fill="white"/>
<path d="M203.098 11.8574H207.806C211.461 11.8574 213.815 13.9636 213.815 17.5564C213.815 21.521 211.957 23.6271 207.621 23.6271H203.098V11.8574ZM215.054 45.8657H226.452L215.859 29.8217C220.319 27.8395 223.479 23.8749 223.479 17.4945C223.479 9.62735 217.408 4.11415 207.992 4.11415H193.559V45.8657H203.098V31.3704H206.01L215.054 45.8657Z" fill="white"/>
<path d="M260.456 4.11415H230.474V11.7955H240.695V45.8657H250.297V11.7955H260.456V4.11415Z" fill="white"/>
<path d="M43.5639 3.97191C51.6136 3.95577 59.4778 6.35941 66.1483 10.8763C72.6414 15.2561 77.7229 21.4346 80.7879 28.6535C86.1033 41.2282 84.7079 55.6501 77.0615 66.9665C72.6736 73.4595 66.5032 78.5491 59.2843 81.6061C46.7095 86.9296 32.2958 85.5261 20.9874 77.8797C14.4944 73.4918 9.40482 67.3214 6.34785 60.1024C1.03243 47.5196 2.42783 33.1059 10.0743 21.7895C14.4621 15.2883 20.6325 10.2068 27.8434 7.14987C32.8201 5.04467 38.1678 3.96384 43.5639 3.97191ZM43.5639 0.793945C19.5033 0.793945 0 20.3053 0 44.3739C0 68.4426 19.5033 87.9539 43.5639 87.9539C67.6244 87.9539 87.1277 68.4426 87.1277 44.3739C87.1277 20.3053 67.6244 0.793945 43.5639 0.793945Z" fill="white"/>
<path d="M55.4447 64.3107C57.9693 62.7943 60.752 60.2939 60.994 56.5513C61.2521 52.7684 60.0261 49.8244 57.1466 47.2836C54.5332 44.9848 50.9359 43.3313 47.1368 41.581L47.0723 41.5488C43.483 39.9195 39.7727 38.2418 37.0303 35.8865C33.8926 33.2167 32.4972 30.0145 32.7715 26.1187C32.8279 25.1428 33.0618 24.1748 33.4732 23.2876C33.3522 23.3602 33.2312 23.4409 33.1183 23.5134C29.6258 25.8364 27.6819 28.8934 27.6416 32.1278C27.5206 40.5405 34.4814 43.4039 41.8053 46.4206C45.322 47.8724 48.9194 49.3404 51.6618 51.5505C54.7994 54.067 56.2916 57.1805 56.2271 61.0602C56.2029 62.1894 55.9367 63.2944 55.4447 64.3107Z" fill="url(#paint0_linear_5292_143969)"/>
<path d="M59.3485 45.0744C56.2754 42.324 52.2424 40.4849 48.3385 38.7024L48.3063 38.6943C41.418 35.5486 35.4654 32.8223 35.8848 26.3858C36.0703 23.9337 37.8448 22.4496 39.3128 21.6511C40.9583 20.7477 43.1441 20.2073 45.1606 20.2073C45.4026 20.2073 45.6445 20.2154 45.8704 20.2234C51.7585 20.6187 56.3883 23.111 60.9213 28.2893L61.1875 28.6039L61.5101 28.3377L63.2766 26.7971L63.5911 26.5148L63.3169 26.2002C58.2676 20.4089 52.7828 17.4972 46.072 17.0374C45.7817 17.0132 45.4752 16.9971 45.1445 16.9971C44.9428 16.9971 44.717 16.9971 44.4911 17.0132H44.2007C39.7968 17.0132 34.9814 18.457 31.3115 20.8768C26.9398 23.7805 24.4877 27.765 24.4151 32.1045C24.2458 42.6627 32.8762 46.2117 40.4824 49.3574L40.5066 49.3735L40.5792 49.3977C47.3142 52.1966 53.1297 54.5922 53.0087 61.0449C52.9442 65.2956 46.8706 67.6428 42.6924 67.6428H42.1036V67.6589C35.8768 67.4734 30.3194 64.7874 25.5766 59.6979L25.3588 59.464L25.0523 59.7463L23.2536 61.2627L22.9471 61.553L23.2375 61.8595C28.6255 67.667 35.2718 70.7885 42.4666 70.8691H42.7973C47.4432 70.8691 52.4925 69.6189 56.2996 67.5137C61.0746 64.9004 63.8492 61.1013 64.1396 56.8103C64.4703 52.0917 62.9055 48.2524 59.3485 45.0744ZM37.014 35.8954C39.7564 38.2426 43.4668 39.9284 47.0561 41.5577L47.1206 41.5819C50.9277 43.3322 54.5251 44.9938 57.1304 47.2925C60.0179 49.8333 61.2359 52.7773 60.9778 56.5602C60.7358 60.3028 57.9531 62.8032 55.4285 64.3196C55.9205 63.3033 56.1947 62.1983 56.2189 61.0691C56.2754 57.1813 54.7832 54.076 51.6456 51.5594C48.9032 49.3574 45.3138 47.8813 41.789 46.4295C34.4652 43.4128 27.5044 40.5414 27.6334 32.1367C27.6657 28.9023 29.6096 25.8454 33.1021 23.5224C33.2231 23.4417 33.336 23.3691 33.4651 23.2885C33.0537 24.1838 32.8117 25.1517 32.7553 26.1277C32.481 30.0235 33.8764 33.2176 37.014 35.8954Z" fill="white"/>
<defs>
<linearGradient id="paint0_linear_5292_143969" x1="31.0428" y1="34.2392" x2="60.393" y2="55.1317" gradientUnits="userSpaceOnUse">
<stop stop-color="#FF00F9"/>
<stop offset="1" stop-color="#521C93"/>
</linearGradient>
</defs>
</svg>
