<svg width="101" height="100" viewBox="0 0 101 100" fill="none" xmlns="http://www.w3.org/2000/svg">
<path d="M82.9422 40.6415C77.4114 35.0646 70.0733 32 62.2561 32C46.129 32 33 45.2384 33 61.5C33 77.7615 46.129 91 62.2561 91C70.0733 91 77.4114 87.9354 82.9422 82.3584C88.4731 76.7815 91.5124 69.3823 91.5124 61.5C91.5124 53.6176 88.4731 46.2185 82.9422 40.6415ZM62.2561 89.4815C46.9504 89.4815 34.5059 76.9333 34.5059 61.5C34.5059 46.0667 46.9504 33.5185 62.2561 33.5185C77.562 33.5185 90.0065 46.0667 90.0065 61.5C90.0065 76.9333 77.562 89.4815 62.2561 89.4815Z" fill="#FDD535"/>
<path d="M61.5248 76.6204H61.0462C57.2015 76.4458 53.7636 74.7543 50.8029 71.5492L50.4618 71.18L50.0944 71.523L48.9856 72.5584L48.6225 72.8974L48.9591 73.2627C52.4501 77.0514 56.7794 79.1094 61.4914 79.1664V79.1665H61.4974H61.4978H61.4982H61.4986H61.499H61.4994H61.4998H61.5002H61.5006H61.501H61.5014H61.5018H61.5022H61.5026H61.503H61.5034H61.5038H61.5042H61.5046H61.505H61.5054H61.5058H61.5062H61.5066H61.507H61.5074H61.5078H61.5082H61.5086H61.509H61.5094H61.5098H61.5102H61.5106H61.511H61.5114H61.5119H61.5123H61.5127H61.5131H61.5135H61.5139H61.5143H61.5147H61.5151H61.5155H61.5159H61.5163H61.5167H61.5171H61.5175H61.5179H61.5183H61.5187H61.5191H61.5195H61.5199H61.5203H61.5207H61.5211H61.5215H61.5219H61.5223H61.5227H61.5231H61.5235H61.5239H61.5243H61.5247H61.5251H61.5255H61.5259H61.5263H61.5267H61.5271H61.5275H61.5279H61.5283H61.5287H61.5291H61.5295H61.5299H61.5303H61.5307H61.5311H61.5315H61.5319H61.5323H61.5327H61.5331H61.5335H61.5339H61.5343H61.5347H61.5351H61.5355H61.5359H61.5363H61.5367H61.5371H61.5375H61.5379H61.5383H61.5387H61.5391H61.5395H61.5399H61.5403H61.5407H61.5411H61.5415H61.5419H61.5423H61.5427H61.5431H61.5435H61.5439H61.5443H61.5447H61.5451H61.5455H61.5459H61.5463H61.5467H61.5471H61.5475H61.5479H61.5483H61.5487H61.5491H61.5496H61.55H61.5504H61.5508H61.5512H61.5516H61.552H61.5524H61.5528H61.5532H61.5536H61.554H61.5544H61.5548H61.5552H61.5556H61.556H61.5564H61.5568H61.5572H61.5576H61.558H61.5584H61.5588H61.5592H61.5596H61.56H61.5604H61.5608H61.5612H61.5616H61.562H61.5624H61.5628H61.5632H61.5636H61.564H61.5644H61.5648H61.5652H61.5656H61.566H61.5664H61.5668H61.5672H61.5676H61.568H61.5684H61.5688H61.5692H61.5696H61.57H61.5704H61.5708H61.5712H61.5716H61.572H61.5724H61.5728H61.5732H61.5736H61.574H61.5744H61.5748H61.5752H61.5756H61.576H61.5764H61.5768H61.5772H61.5776H61.578H61.5784H61.5788H61.5792H61.5796H61.58H61.5804H61.5808H61.5812H61.5816H61.582H61.5824H61.5828H61.5832H61.5836H61.584H61.5844H61.5848H61.5852H61.5856H61.586H61.5864H61.5868H61.5873H61.5877H61.5881H61.5885H61.5889H61.5893H61.5897H61.5901H61.5905H61.5909H61.5913H61.5917H61.5921H61.5925H61.5929H61.5933H61.5937H61.5941H61.5945H61.5949H61.5953H61.5957H61.5961H61.5965H61.5969H61.5973H61.5977H61.5981H61.5985H61.5989H61.5993H61.5997H61.6001H61.6005H61.6009H61.6013H61.6017H61.6021H61.6025H61.6029H61.6033H61.6037H61.6041H61.6045H61.6049H61.6053H61.6057H61.6061H61.6065H61.6069H61.6073H61.6077H61.6081H61.6085H61.6089H61.6093H61.6097H61.6101H61.6105H61.6109H61.6113H61.6117H61.6121H61.6125H61.6129H61.6133H61.6137H61.6141H61.6145H61.6149H61.6153H61.6157H61.6161H61.6165H61.6169H61.6173H61.6177H61.6181H61.6185H61.6189H61.6193H61.6197H61.6201H61.6205H61.6209H61.6213H61.6217H61.6221H61.6225H61.6229H61.6233H61.6237H61.6241H61.6245H61.6249H61.6254H61.6258H61.6262H61.6266H61.627H61.6274H61.6278H61.6282H61.6286H61.629H61.6294H61.6298H61.6302H61.6306H61.631H61.6314H61.6318H61.6322H61.6326H61.633H61.6334H61.6338H61.6342H61.6346H61.635H61.6354H61.6358H61.6362H61.6366H61.637H61.6374H61.6378H61.6382H61.6386H61.639H61.6394H61.6398H61.6402H61.6406H61.641H61.6414H61.6418H61.6422H61.6426H61.643H61.6434H61.6438H61.6442H61.6446H61.645H61.6454H61.6458H61.6462H61.6466H61.647H61.6474H61.6478H61.6482H61.6486H61.649H61.6494H61.6498H61.6502H61.6506H61.651H61.6514H61.6518H61.6522H61.6526H61.653H61.6534H61.6538H61.6542H61.6546H61.655H61.6554H61.6558H61.6562H61.6566H61.657H61.6574H61.6578H61.6582H61.6586H61.659H61.6594H61.6598H61.6602H61.6606H61.661H61.6614H61.6618H61.6622H61.6626H61.6631H61.6635H61.6639H61.6643H61.6647H61.6651H61.6655H61.6659H61.6663H61.6667H61.6671H61.6675H61.6679H61.6683H61.6687H61.6691H61.6695H61.6699H61.6703H61.6707H61.6711H61.6715H61.6719H61.6723H61.6727H61.6731H61.6735H61.6739H61.6743H61.6747H61.6751H61.6755H61.6759H61.6763H61.6767H61.6771H61.6775H61.6779H61.6783H61.6787H61.6791H61.6795H61.6799H61.6803H61.6807H61.6811H61.6815H61.6819H61.6823H61.6827H61.6831H61.6835H61.6839H61.6843H61.6847H61.6851H61.6855H61.6859H61.6863H61.6867H61.6871H61.6875H61.6879H61.6883H61.6887H61.6891H61.6895H61.6899H61.6903H61.6907H61.6911H61.6915H61.6919H61.6923H61.6927H61.6931H61.6935H61.6939H61.6943H61.6947H61.6951H61.6955H61.6959H61.6963H61.6967H61.6971H61.6975H61.6979H61.6983H61.6987H61.6991H61.6995H61.6999H61.7003H61.7007H61.7012H61.7016H61.702H61.7024H61.7028C64.7245 79.1665 67.9847 78.3611 70.501 76.9645C73.5895 75.2643 75.4667 72.7447 75.6592 69.8518C75.897 66.3498 74.5409 63.9046 72.4984 62.0661C70.4948 60.2626 67.8206 59.0348 65.3949 57.9212L65.3617 57.906C65.3617 57.906 65.3616 57.9059 65.3616 57.9059C63.0766 56.8549 61.0334 55.9126 59.5855 54.7093C58.1705 53.5332 57.3616 52.1395 57.4921 50.1533C57.598 48.6929 58.6356 47.791 59.5762 47.2712L59.5766 47.2709C60.7348 46.6293 62.3087 46.2896 63.668 46.3799C67.373 46.6318 70.295 48.1958 73.1808 51.5233L73.5098 51.9026L73.8877 51.5721L75.0241 50.5782L75.3986 50.2507L75.0729 49.8745C71.7972 46.0917 68.2169 44.1652 63.8354 43.864C63.4841 43.8347 63.1379 43.8349 62.788 43.8488H62.788H62.7876H62.7872H62.7868H62.7864H62.786H62.7856H62.7852H62.7848H62.7844H62.784H62.7836H62.7832H62.7828H62.7824H62.782H62.7816H62.7812H62.7808H62.7804H62.78H62.7796H62.7792H62.7788H62.7784H62.778H62.7775H62.7772H62.7767H62.7763H62.7759H62.7755H62.7751H62.7747H62.7743H62.7739H62.7735H62.7731H62.7727H62.7723H62.7719H62.7716H62.7712H62.7708H62.7704H62.77H62.7696H62.7692H62.7688H62.7684H62.768H62.7676H62.7672H62.7668H62.7664H62.766H62.7656H62.7652H62.7648H62.7644H62.764H62.7636H62.7632H62.7628H62.7624H62.762H62.7616H62.7612H62.7608H62.7604H62.76H62.7596H62.7592H62.7588H62.7584H62.758H62.7576H62.7572H62.7568H62.7564H62.756H62.7556H62.7552H62.7548H62.7544H62.754H62.7536H62.7532H62.7528H62.7524H62.752H62.7516H62.7512H62.7508H62.7504H62.75H62.7496H62.7492H62.7488H62.7485H62.7481H62.7477H62.7473H62.7469H62.7465H62.7461H62.7457H62.7453H62.7449H62.7445H62.7441H62.7437H62.7433H62.7429H62.7425H62.7421H62.7417H62.7413H62.7409H62.7405H62.7401H62.7398H62.7394H62.739H62.7386H62.7382H62.7378H62.7374H62.737H62.7366H62.7362H62.7358H62.7354H62.735H62.7346H62.7342H62.7338H62.7335H62.7331H62.7327H62.7323H62.7319H62.7315H62.7311H62.7307H62.7303H62.7299H62.7295H62.7291H62.7287H62.7284H62.728H62.7276H62.7272H62.7268H62.7264H62.726H62.7256H62.7252H62.7248H62.7244H62.7241H62.7237H62.7233H62.7229H62.7225H62.7221H62.7217H62.7213H62.7209H62.7205H62.7202H62.7198H62.7194H62.719H62.7186H62.7182H62.7178H62.7174H62.717H62.7167H62.7163H62.7159H62.7155H62.7151H62.7147H62.7143H62.7139H62.7136H62.7132H62.7128H62.7124H62.712H62.7116H62.7112H62.7108H62.7105H62.7101H62.7097H62.7093H62.7089H62.7085H62.7081H62.7078H62.7074H62.707H62.7066H62.7062H62.7058H62.7055H62.7051H62.7047H62.7043H62.7039H62.7035H62.7031H62.7028H62.7024H62.702H62.7016H62.7012H62.7008H62.7005H62.7001H62.6997H62.6993H62.6989H62.6986H62.6982H62.6978H62.6974H62.697H62.6967H62.6963H62.6959H62.6955H62.6951H62.6947H62.6944H62.694H62.6936H62.6932H62.6929H62.6925H62.6921H62.6917H62.6913H62.691H62.6906H62.6902H62.6898H62.6894H62.6891H62.6887H62.6883H62.6879H62.6876H62.6872H62.6868H62.6864H62.6861H62.6857H62.6853H62.6849H62.6845H62.6842H62.6838H62.6834H62.683H62.6827H62.6823H62.6819H62.6816H62.6812H62.6808H62.6804H62.6801H62.6797H62.6793H62.6789H62.6786H62.6782H62.6778H62.6774H62.6771H62.6767H62.6763H62.676H62.6756H62.6752H62.6748H62.6745H62.6741H62.6737H62.6734H62.673H62.6726H62.6723H62.6719H62.6715H62.6712H62.6708H62.6704H62.67H62.6697H62.6693H62.6689H62.6686H62.6682H62.6678H62.6675H62.6671H62.6667H62.6664H62.666H62.6656H62.6653H62.6649H62.6645H62.6642H62.6638H62.6635H62.6631H62.6627H62.6624H62.662H62.6616H62.6613H62.6609H62.6605H62.6602H62.6598H62.6595H62.6591H62.6587H62.6584H62.658H62.6576H62.6573H62.6569H62.6566H62.6562H62.6558H62.6555H62.6551H62.6548H62.6544H62.6541H62.6537H62.6533H62.653H62.6526H62.6523H62.6519H62.6515H62.6512H62.6508H62.6505H62.6501H62.6498H62.6494H62.6491H62.6487H62.6483H62.648H62.6476H62.6473H62.6469H62.6466H62.6462H62.6459H62.6455H62.6452H62.6448H62.6445H62.6441H62.6437H62.6434H62.643H62.6427H62.6423H62.642H62.6416H62.6413H62.6409H62.6406H62.6402H62.6399H62.6395H62.6392H62.6388H62.6385H62.6382H62.6378H62.6375H62.6371H62.6368H62.6364H62.6361H62.6357H62.6354H62.635H62.6347H62.6343H62.634H62.6337H62.6333H62.633H62.6326H62.6323H62.6319H62.6316H62.6312H62.6309H62.6306H62.6302H62.6299H62.6295H62.6292H62.6289H62.6285H62.6282H62.6278H62.6275H62.6272H62.6268H62.6265H62.6261H62.6258H62.6255H62.6251H62.6248H62.6245H62.6241H62.6238H62.6234H62.6231H62.6228H62.6224H62.6221H62.6218H62.6214H62.6211H62.6208H62.6204H62.6201H62.6198H62.6194H62.6191H62.6188H62.6184H62.6181H62.6178H62.6174H62.6171H62.6168H62.6164H62.6161H62.6158H62.6155H62.6151H62.6148H62.6145H62.6141H62.6138H62.6135H62.6132H62.6128H62.6125H62.6122H62.6119H62.6115H62.6112H62.6109H62.6105H62.6102H62.6099H62.6096H62.6093H62.6089H62.6086H62.6083H62.608H62.6076H62.6073H62.607H62.6067H62.6064C59.7287 43.8488 56.607 44.789 54.1976 46.3894L54.1973 46.3897C51.3555 48.2809 49.7062 50.918 49.6619 53.838C49.6044 57.3329 51.0224 59.7 53.0773 61.4326C55.088 63.1281 57.7133 64.2185 60.0938 65.2072L60.1413 65.2269L60.1419 65.2272L60.1428 65.2276C62.3801 66.1606 64.3793 66.9943 65.8206 68.119C67.2274 69.2167 68.0719 70.5678 68.0343 72.5694L68.0343 72.5718C68.0173 73.7932 67.1789 74.7965 65.8869 75.5213C64.6017 76.2424 62.9723 76.6204 61.6343 76.6204H61.6341H61.6338H61.6336H61.6333H61.6331H61.6329H61.6326H61.6324H61.6322H61.6319H61.6317H61.6314H61.6312H61.631H61.6307H61.6305H61.6303H61.63H61.6298H61.6296H61.6293H61.6291H61.6289H61.6286H61.6284H61.6282H61.6279H61.6277H61.6275H61.6272H61.627H61.6268H61.6265H61.6263H61.6261H61.6258H61.6256H61.6254H61.6252H61.6249H61.6247H61.6245H61.6242H61.624H61.6238H61.6236H61.6233H61.6231H61.6229H61.6227H61.6224H61.6222H61.622H61.6217H61.6215H61.6213H61.6211H61.6208H61.6206H61.6204H61.6202H61.62H61.6197H61.6195H61.6193H61.6191H61.6188H61.6186H61.6184H61.6182H61.6179H61.6177H61.6175H61.6173H61.6171H61.6168H61.6166H61.6164H61.6162H61.616H61.6157H61.6155H61.6153H61.6151H61.6149H61.6147H61.6144H61.6142H61.614H61.6138H61.6136H61.6133H61.6131H61.6129H61.6127H61.6125H61.6123H61.6121H61.6118H61.6116H61.6114H61.6112H61.611H61.6108H61.6105H61.6103H61.6101H61.6099H61.6097H61.6095H61.6093H61.609H61.6088H61.6086H61.6084H61.6082H61.608H61.6078H61.6076H61.6073H61.6071H61.6069H61.6067H61.6065H61.6063H61.6061H61.6059H61.6057H61.6054H61.6052H61.605H61.6048H61.6046H61.6044H61.6042H61.604H61.6038H61.6036H61.6034H61.6031H61.6029H61.6027H61.6025H61.6023H61.6021H61.6019H61.6017H61.6015H61.6013H61.6011H61.6009H61.6006H61.6004H61.6002H61.6H61.5998H61.5996H61.5994H61.5992H61.599H61.5988H61.5986H61.5984H61.5982H61.598H61.5978H61.5976H61.5974H61.5971H61.5969H61.5967H61.5965H61.5963H61.5961H61.5959H61.5957H61.5955H61.5953H61.5951H61.5949H61.5947H61.5945H61.5943H61.5941H61.5939H61.5937H61.5935H61.5933H61.5931H61.5929H61.5927H61.5925H61.5922H61.592H61.5918H61.5916H61.5914H61.5912H61.591H61.5908H61.5906H61.5904H61.5902H61.59H61.5898H61.5896H61.5894H61.5892H61.589H61.5888H61.5886H61.5884H61.5882H61.588H61.5878H61.5876H61.5874H61.5872H61.587H61.5868H61.5866H61.5864H61.5862H61.586H61.5858H61.5856H61.5854H61.5852H61.585H61.5848H61.5846H61.5844H61.5842H61.584H61.5838H61.5836H61.5834H61.5832H61.583H61.5828H61.5826H61.5824H61.5822H61.582H61.5818H61.5816H61.5814H61.5812H61.581H61.5808H61.5806H61.5804H61.5802H61.58H61.5798H61.5796H61.5794H61.5792H61.579H61.5788H61.5786H61.5784H61.5782H61.578H61.5778H61.5776H61.5774H61.5772H61.577H61.5768H61.5766H61.5764H61.5762H61.576H61.5758H61.5756H61.5754H61.5752H61.575H61.5747H61.5745H61.5743H61.5741H61.5739H61.5737H61.5735H61.5733H61.5731H61.5729H61.5727H61.5725H61.5723H61.5721H61.5719H61.5717H61.5715H61.5713H61.5711H61.5709H61.5707H61.5705H61.5703H61.5701H61.5699H61.5697H61.5695H61.5693H61.5691H61.5689H61.5687H61.5685H61.5683H61.5681H61.5679H61.5677H61.5675H61.5673H61.5671H61.5669H61.5667H61.5665H61.5663H61.5661H61.5659H61.5657H61.5655H61.5653H61.5651H61.5648H61.5646H61.5644H61.5642H61.564H61.5638H61.5636H61.5634H61.5632H61.563H61.5628H61.5626H61.5624H61.5622H61.562H61.5618H61.5616H61.5614H61.5612H61.561H61.5608H61.5605H61.5603H61.5601H61.5599H61.5597H61.5595H61.5593H61.5591H61.5589H61.5587H61.5585H61.5583H61.5581H61.5579H61.5577H61.5574H61.5572H61.557H61.5568H61.5566H61.5564H61.5562H61.556H61.5558H61.5556H61.5554H61.5552H61.5549H61.5547H61.5545H61.5543H61.5541H61.5539H61.5537H61.5535H61.5533H61.5531H61.5528H61.5526H61.5524H61.5522H61.552H61.5518H61.5516H61.5514H61.5511H61.5509H61.5507H61.5505H61.5503H61.5501H61.5499H61.5497H61.5494H61.5492H61.549H61.5488H61.5486H61.5484H61.5482H61.5479H61.5477H61.5475H61.5473H61.5471H61.5469H61.5466H61.5464H61.5462H61.546H61.5458H61.5456H61.5453H61.5451H61.5449H61.5447H61.5445H61.5443H61.544H61.5438H61.5436H61.5434H61.5432H61.5429H61.5427H61.5425H61.5423H61.5421H61.5418H61.5416H61.5414H61.5412H61.541H61.5407H61.5405H61.5403H61.5401H61.5398H61.5396H61.5394H61.5392H61.539H61.5387H61.5385H61.5383H61.5381H61.5378H61.5376H61.5374H61.5372H61.5369H61.5367H61.5365H61.5363H61.536H61.5358H61.5356H61.5353H61.5351H61.5349H61.5347H61.5344H61.5342H61.534H61.5337H61.5335H61.5333H61.5331H61.5328H61.5326H61.5324H61.5321H61.5319H61.5317H61.5314H61.5312H61.531H61.5307H61.5305H61.5303H61.53H61.5298H61.5296H61.5293H61.5291H61.5289H61.5286H61.5284H61.5282H61.5279H61.5277H61.5274H61.5272H61.527H61.5267H61.5265H61.5263H61.526H61.5258H61.5255H61.5253H61.5251H61.5248ZM73.1556 69.6594L73.1555 69.6613C73.0255 71.667 71.7182 73.1206 70.3008 74.1108C70.4528 73.6395 70.5404 73.1369 70.5537 72.6051L70.5537 72.6051L70.5538 72.6002C70.5976 69.7155 69.3575 67.7382 67.5328 66.2611C65.7457 64.8145 63.3801 63.8344 61.1387 62.9058L61.114 62.8956C61.1139 62.8955 61.1139 62.8955 61.1138 62.8955C58.6996 61.894 56.4453 60.9513 54.7929 59.5849C53.1753 58.2473 52.1428 56.509 52.1814 53.8673L52.1814 53.8663C52.2048 51.9952 53.2508 50.1808 55.2306 48.7364C55.1134 49.1307 55.0406 49.5404 55.0158 49.9632C54.819 52.8549 56.0118 54.8999 57.8322 56.4698C59.6215 58.013 62.0409 59.1173 64.336 60.1648L64.3397 60.1665C64.3402 60.1667 64.3407 60.1669 64.3411 60.1672C66.7967 61.3078 69.094 62.3754 70.7429 63.8306C72.358 65.256 73.3352 67.0403 73.1556 69.6594Z" fill="#FDD535" stroke="#FDD535"/>
<path d="M43.256 71.1209C58.9323 71.1209 71.6405 58.3068 71.6405 42.4998C71.6405 26.6929 58.9323 13.8788 43.256 13.8788C27.5796 13.8788 14.8715 26.6929 14.8715 42.4998C14.8715 58.3068 27.5796 71.1209 43.256 71.1209Z" fill="#FDD535"/>
<path d="M64.6352 20.9344C58.9168 15.1685 51.33 12 43.2479 12C26.5741 12 13 25.6871 13 42.5C13 59.3128 26.5741 73 43.2479 73C51.33 73 58.9168 69.8315 64.6352 64.0655C70.3536 58.2995 73.4959 50.6495 73.4959 42.5C73.4959 34.3504 70.3536 26.7005 64.6352 20.9344ZM43.2479 71.43C27.4233 71.43 14.557 58.4565 14.557 42.5C14.557 26.5435 27.4233 13.57 43.2479 13.57C59.0725 13.57 71.9389 26.5435 71.9389 42.5C71.9389 58.4565 59.0725 71.43 43.2479 71.43Z" fill="#FDD535"/>
<path d="M63.9422 21.6415C58.4114 16.0646 51.0733 13 43.2561 13C27.129 13 14 26.2384 14 42.5C14 58.7615 27.129 72 43.2561 72C51.0733 72 58.4114 68.9354 63.9422 63.3584C69.4731 57.7815 72.5124 50.3823 72.5124 42.5C72.5124 34.6176 69.4731 27.2185 63.9422 21.6415ZM43.2561 70.4815C27.9504 70.4815 15.5059 57.9333 15.5059 42.5C15.5059 27.0667 27.9504 14.5185 43.2561 14.5185C58.562 14.5185 71.0065 27.0667 71.0065 42.5C71.0065 57.9333 58.562 70.4815 43.2561 70.4815Z" fill="#FEECA5"/>
<path d="M42.5248 57.6204H42.0462C38.2015 57.4458 34.7636 55.7543 31.8029 52.5492L31.4618 52.18L31.0944 52.523L29.9856 53.5584L29.6225 53.8974L29.9591 54.2627C33.4501 58.0514 37.7794 60.1094 42.4914 60.1664V60.1665H42.4974H42.4978H42.4982H42.4986H42.499H42.4994H42.4998H42.5002H42.5006H42.501H42.5014H42.5018H42.5022H42.5026H42.503H42.5034H42.5038H42.5042H42.5046H42.505H42.5054H42.5058H42.5062H42.5066H42.507H42.5074H42.5078H42.5082H42.5086H42.509H42.5094H42.5098H42.5102H42.5106H42.511H42.5114H42.5119H42.5123H42.5127H42.5131H42.5135H42.5139H42.5143H42.5147H42.5151H42.5155H42.5159H42.5163H42.5167H42.5171H42.5175H42.5179H42.5183H42.5187H42.5191H42.5195H42.5199H42.5203H42.5207H42.5211H42.5215H42.5219H42.5223H42.5227H42.5231H42.5235H42.5239H42.5243H42.5247H42.5251H42.5255H42.5259H42.5263H42.5267H42.5271H42.5275H42.5279H42.5283H42.5287H42.5291H42.5295H42.5299H42.5303H42.5307H42.5311H42.5315H42.5319H42.5323H42.5327H42.5331H42.5335H42.5339H42.5343H42.5347H42.5351H42.5355H42.5359H42.5363H42.5367H42.5371H42.5375H42.5379H42.5383H42.5387H42.5391H42.5395H42.5399H42.5403H42.5407H42.5411H42.5415H42.5419H42.5423H42.5427H42.5431H42.5435H42.5439H42.5443H42.5447H42.5451H42.5455H42.5459H42.5463H42.5467H42.5471H42.5475H42.5479H42.5483H42.5487H42.5491H42.5496H42.55H42.5504H42.5508H42.5512H42.5516H42.552H42.5524H42.5528H42.5532H42.5536H42.554H42.5544H42.5548H42.5552H42.5556H42.556H42.5564H42.5568H42.5572H42.5576H42.558H42.5584H42.5588H42.5592H42.5596H42.56H42.5604H42.5608H42.5612H42.5616H42.562H42.5624H42.5628H42.5632H42.5636H42.564H42.5644H42.5648H42.5652H42.5656H42.566H42.5664H42.5668H42.5672H42.5676H42.568H42.5684H42.5688H42.5692H42.5696H42.57H42.5704H42.5708H42.5712H42.5716H42.572H42.5724H42.5728H42.5732H42.5736H42.574H42.5744H42.5748H42.5752H42.5756H42.576H42.5764H42.5768H42.5772H42.5776H42.578H42.5784H42.5788H42.5792H42.5796H42.58H42.5804H42.5808H42.5812H42.5816H42.582H42.5824H42.5828H42.5832H42.5836H42.584H42.5844H42.5848H42.5852H42.5856H42.586H42.5864H42.5868H42.5873H42.5877H42.5881H42.5885H42.5889H42.5893H42.5897H42.5901H42.5905H42.5909H42.5913H42.5917H42.5921H42.5925H42.5929H42.5933H42.5937H42.5941H42.5945H42.5949H42.5953H42.5957H42.5961H42.5965H42.5969H42.5973H42.5977H42.5981H42.5985H42.5989H42.5993H42.5997H42.6001H42.6005H42.6009H42.6013H42.6017H42.6021H42.6025H42.6029H42.6033H42.6037H42.6041H42.6045H42.6049H42.6053H42.6057H42.6061H42.6065H42.6069H42.6073H42.6077H42.6081H42.6085H42.6089H42.6093H42.6097H42.6101H42.6105H42.6109H42.6113H42.6117H42.6121H42.6125H42.6129H42.6133H42.6137H42.6141H42.6145H42.6149H42.6153H42.6157H42.6161H42.6165H42.6169H42.6173H42.6177H42.6181H42.6185H42.6189H42.6193H42.6197H42.6201H42.6205H42.6209H42.6213H42.6217H42.6221H42.6225H42.6229H42.6233H42.6237H42.6241H42.6245H42.6249H42.6254H42.6258H42.6262H42.6266H42.627H42.6274H42.6278H42.6282H42.6286H42.629H42.6294H42.6298H42.6302H42.6306H42.631H42.6314H42.6318H42.6322H42.6326H42.633H42.6334H42.6338H42.6342H42.6346H42.635H42.6354H42.6358H42.6362H42.6366H42.637H42.6374H42.6378H42.6382H42.6386H42.639H42.6394H42.6398H42.6402H42.6406H42.641H42.6414H42.6418H42.6422H42.6426H42.643H42.6434H42.6438H42.6442H42.6446H42.645H42.6454H42.6458H42.6462H42.6466H42.647H42.6474H42.6478H42.6482H42.6486H42.649H42.6494H42.6498H42.6502H42.6506H42.651H42.6514H42.6518H42.6522H42.6526H42.653H42.6534H42.6538H42.6542H42.6546H42.655H42.6554H42.6558H42.6562H42.6566H42.657H42.6574H42.6578H42.6582H42.6586H42.659H42.6594H42.6598H42.6602H42.6606H42.661H42.6614H42.6618H42.6622H42.6626H42.6631H42.6635H42.6639H42.6643H42.6647H42.6651H42.6655H42.6659H42.6663H42.6667H42.6671H42.6675H42.6679H42.6683H42.6687H42.6691H42.6695H42.6699H42.6703H42.6707H42.6711H42.6715H42.6719H42.6723H42.6727H42.6731H42.6735H42.6739H42.6743H42.6747H42.6751H42.6755H42.6759H42.6763H42.6767H42.6771H42.6775H42.6779H42.6783H42.6787H42.6791H42.6795H42.6799H42.6803H42.6807H42.6811H42.6815H42.6819H42.6823H42.6827H42.6831H42.6835H42.6839H42.6843H42.6847H42.6851H42.6855H42.6859H42.6863H42.6867H42.6871H42.6875H42.6879H42.6883H42.6887H42.6891H42.6895H42.6899H42.6903H42.6907H42.6911H42.6915H42.6919H42.6923H42.6927H42.6931H42.6935H42.6939H42.6943H42.6947H42.6951H42.6955H42.6959H42.6963H42.6967H42.6971H42.6975H42.6979H42.6983H42.6987H42.6991H42.6995H42.6999H42.7003H42.7007H42.7012H42.7016H42.702H42.7024H42.7028C45.7245 60.1665 48.9847 59.3611 51.501 57.9645C54.5895 56.2643 56.4667 53.7447 56.6592 50.8518C56.897 47.3498 55.5409 44.9046 53.4984 43.0661C51.4948 41.2626 48.8206 40.0348 46.3949 38.9212L46.3617 38.906C46.3617 38.906 46.3616 38.9059 46.3616 38.9059C44.0766 37.8549 42.0334 36.9126 40.5855 35.7093C39.1705 34.5332 38.3616 33.1395 38.4921 31.1533C38.598 29.6929 39.6356 28.791 40.5762 28.2712L40.5766 28.2709C41.7348 27.6293 43.3087 27.2896 44.668 27.3799C48.373 27.6318 51.295 29.1958 54.1808 32.5233L54.5098 32.9026L54.8877 32.5721L56.0241 31.5782L56.3986 31.2507L56.0729 30.8745C52.7972 27.0917 49.2169 25.1652 44.8354 24.864C44.4841 24.8347 44.1379 24.8349 43.788 24.8488H43.788H43.7876H43.7872H43.7868H43.7864H43.786H43.7856H43.7852H43.7848H43.7844H43.784H43.7836H43.7832H43.7828H43.7824H43.782H43.7816H43.7812H43.7808H43.7804H43.78H43.7796H43.7792H43.7788H43.7784H43.778H43.7775H43.7772H43.7767H43.7763H43.7759H43.7755H43.7751H43.7747H43.7743H43.7739H43.7735H43.7731H43.7727H43.7723H43.7719H43.7716H43.7712H43.7708H43.7704H43.77H43.7696H43.7692H43.7688H43.7684H43.768H43.7676H43.7672H43.7668H43.7664H43.766H43.7656H43.7652H43.7648H43.7644H43.764H43.7636H43.7632H43.7628H43.7624H43.762H43.7616H43.7612H43.7608H43.7604H43.76H43.7596H43.7592H43.7588H43.7584H43.758H43.7576H43.7572H43.7568H43.7564H43.756H43.7556H43.7552H43.7548H43.7544H43.754H43.7536H43.7532H43.7528H43.7524H43.752H43.7516H43.7512H43.7508H43.7504H43.75H43.7496H43.7492H43.7488H43.7485H43.7481H43.7477H43.7473H43.7469H43.7465H43.7461H43.7457H43.7453H43.7449H43.7445H43.7441H43.7437H43.7433H43.7429H43.7425H43.7421H43.7417H43.7413H43.7409H43.7405H43.7401H43.7398H43.7394H43.739H43.7386H43.7382H43.7378H43.7374H43.737H43.7366H43.7362H43.7358H43.7354H43.735H43.7346H43.7342H43.7338H43.7335H43.7331H43.7327H43.7323H43.7319H43.7315H43.7311H43.7307H43.7303H43.7299H43.7295H43.7291H43.7287H43.7284H43.728H43.7276H43.7272H43.7268H43.7264H43.726H43.7256H43.7252H43.7248H43.7244H43.7241H43.7237H43.7233H43.7229H43.7225H43.7221H43.7217H43.7213H43.7209H43.7205H43.7202H43.7198H43.7194H43.719H43.7186H43.7182H43.7178H43.7174H43.717H43.7167H43.7163H43.7159H43.7155H43.7151H43.7147H43.7143H43.7139H43.7136H43.7132H43.7128H43.7124H43.712H43.7116H43.7112H43.7108H43.7105H43.7101H43.7097H43.7093H43.7089H43.7085H43.7081H43.7078H43.7074H43.707H43.7066H43.7062H43.7058H43.7055H43.7051H43.7047H43.7043H43.7039H43.7035H43.7031H43.7028H43.7024H43.702H43.7016H43.7012H43.7008H43.7005H43.7001H43.6997H43.6993H43.6989H43.6986H43.6982H43.6978H43.6974H43.697H43.6967H43.6963H43.6959H43.6955H43.6951H43.6947H43.6944H43.694H43.6936H43.6932H43.6929H43.6925H43.6921H43.6917H43.6913H43.691H43.6906H43.6902H43.6898H43.6894H43.6891H43.6887H43.6883H43.6879H43.6876H43.6872H43.6868H43.6864H43.6861H43.6857H43.6853H43.6849H43.6845H43.6842H43.6838H43.6834H43.683H43.6827H43.6823H43.6819H43.6816H43.6812H43.6808H43.6804H43.6801H43.6797H43.6793H43.6789H43.6786H43.6782H43.6778H43.6774H43.6771H43.6767H43.6763H43.676H43.6756H43.6752H43.6748H43.6745H43.6741H43.6737H43.6734H43.673H43.6726H43.6723H43.6719H43.6715H43.6712H43.6708H43.6704H43.67H43.6697H43.6693H43.6689H43.6686H43.6682H43.6678H43.6675H43.6671H43.6667H43.6664H43.666H43.6656H43.6653H43.6649H43.6645H43.6642H43.6638H43.6635H43.6631H43.6627H43.6624H43.662H43.6616H43.6613H43.6609H43.6605H43.6602H43.6598H43.6595H43.6591H43.6587H43.6584H43.658H43.6576H43.6573H43.6569H43.6566H43.6562H43.6558H43.6555H43.6551H43.6548H43.6544H43.6541H43.6537H43.6533H43.653H43.6526H43.6523H43.6519H43.6515H43.6512H43.6508H43.6505H43.6501H43.6498H43.6494H43.6491H43.6487H43.6483H43.648H43.6476H43.6473H43.6469H43.6466H43.6462H43.6459H43.6455H43.6452H43.6448H43.6445H43.6441H43.6437H43.6434H43.643H43.6427H43.6423H43.642H43.6416H43.6413H43.6409H43.6406H43.6402H43.6399H43.6395H43.6392H43.6388H43.6385H43.6382H43.6378H43.6375H43.6371H43.6368H43.6364H43.6361H43.6357H43.6354H43.635H43.6347H43.6343H43.634H43.6337H43.6333H43.633H43.6326H43.6323H43.6319H43.6316H43.6312H43.6309H43.6306H43.6302H43.6299H43.6295H43.6292H43.6289H43.6285H43.6282H43.6278H43.6275H43.6272H43.6268H43.6265H43.6261H43.6258H43.6255H43.6251H43.6248H43.6245H43.6241H43.6238H43.6234H43.6231H43.6228H43.6224H43.6221H43.6218H43.6214H43.6211H43.6208H43.6204H43.6201H43.6198H43.6194H43.6191H43.6188H43.6184H43.6181H43.6178H43.6174H43.6171H43.6168H43.6164H43.6161H43.6158H43.6155H43.6151H43.6148H43.6145H43.6141H43.6138H43.6135H43.6132H43.6128H43.6125H43.6122H43.6119H43.6115H43.6112H43.6109H43.6105H43.6102H43.6099H43.6096H43.6093H43.6089H43.6086H43.6083H43.608H43.6076H43.6073H43.607H43.6067H43.6064C40.7287 24.8488 37.607 25.789 35.1976 27.3894L35.1973 27.3897C32.3555 29.2809 30.7062 31.918 30.6619 34.838C30.6044 38.3329 32.0224 40.7 34.0773 42.4326C36.088 44.1281 38.7133 45.2185 41.0938 46.2072L41.1413 46.2269L41.1419 46.2272L41.1428 46.2276C43.3801 47.1606 45.3793 47.9943 46.8206 49.119C48.2274 50.2167 49.0719 51.5678 49.0343 53.5694L49.0343 53.5718C49.0173 54.7932 48.1789 55.7965 46.8869 56.5213C45.6017 57.2424 43.9723 57.6204 42.6343 57.6204H42.6341H42.6338H42.6336H42.6333H42.6331H42.6329H42.6326H42.6324H42.6322H42.6319H42.6317H42.6314H42.6312H42.631H42.6307H42.6305H42.6303H42.63H42.6298H42.6296H42.6293H42.6291H42.6289H42.6286H42.6284H42.6282H42.6279H42.6277H42.6275H42.6272H42.627H42.6268H42.6265H42.6263H42.6261H42.6258H42.6256H42.6254H42.6252H42.6249H42.6247H42.6245H42.6242H42.624H42.6238H42.6236H42.6233H42.6231H42.6229H42.6227H42.6224H42.6222H42.622H42.6217H42.6215H42.6213H42.6211H42.6208H42.6206H42.6204H42.6202H42.62H42.6197H42.6195H42.6193H42.6191H42.6188H42.6186H42.6184H42.6182H42.6179H42.6177H42.6175H42.6173H42.6171H42.6168H42.6166H42.6164H42.6162H42.616H42.6157H42.6155H42.6153H42.6151H42.6149H42.6147H42.6144H42.6142H42.614H42.6138H42.6136H42.6133H42.6131H42.6129H42.6127H42.6125H42.6123H42.6121H42.6118H42.6116H42.6114H42.6112H42.611H42.6108H42.6105H42.6103H42.6101H42.6099H42.6097H42.6095H42.6093H42.609H42.6088H42.6086H42.6084H42.6082H42.608H42.6078H42.6076H42.6073H42.6071H42.6069H42.6067H42.6065H42.6063H42.6061H42.6059H42.6057H42.6054H42.6052H42.605H42.6048H42.6046H42.6044H42.6042H42.604H42.6038H42.6036H42.6034H42.6031H42.6029H42.6027H42.6025H42.6023H42.6021H42.6019H42.6017H42.6015H42.6013H42.6011H42.6009H42.6006H42.6004H42.6002H42.6H42.5998H42.5996H42.5994H42.5992H42.599H42.5988H42.5986H42.5984H42.5982H42.598H42.5978H42.5976H42.5974H42.5971H42.5969H42.5967H42.5965H42.5963H42.5961H42.5959H42.5957H42.5955H42.5953H42.5951H42.5949H42.5947H42.5945H42.5943H42.5941H42.5939H42.5937H42.5935H42.5933H42.5931H42.5929H42.5927H42.5925H42.5922H42.592H42.5918H42.5916H42.5914H42.5912H42.591H42.5908H42.5906H42.5904H42.5902H42.59H42.5898H42.5896H42.5894H42.5892H42.589H42.5888H42.5886H42.5884H42.5882H42.588H42.5878H42.5876H42.5874H42.5872H42.587H42.5868H42.5866H42.5864H42.5862H42.586H42.5858H42.5856H42.5854H42.5852H42.585H42.5848H42.5846H42.5844H42.5842H42.584H42.5838H42.5836H42.5834H42.5832H42.583H42.5828H42.5826H42.5824H42.5822H42.582H42.5818H42.5816H42.5814H42.5812H42.581H42.5808H42.5806H42.5804H42.5802H42.58H42.5798H42.5796H42.5794H42.5792H42.579H42.5788H42.5786H42.5784H42.5782H42.578H42.5778H42.5776H42.5774H42.5772H42.577H42.5768H42.5766H42.5764H42.5762H42.576H42.5758H42.5756H42.5754H42.5752H42.575H42.5747H42.5745H42.5743H42.5741H42.5739H42.5737H42.5735H42.5733H42.5731H42.5729H42.5727H42.5725H42.5723H42.5721H42.5719H42.5717H42.5715H42.5713H42.5711H42.5709H42.5707H42.5705H42.5703H42.5701H42.5699H42.5697H42.5695H42.5693H42.5691H42.5689H42.5687H42.5685H42.5683H42.5681H42.5679H42.5677H42.5675H42.5673H42.5671H42.5669H42.5667H42.5665H42.5663H42.5661H42.5659H42.5657H42.5655H42.5653H42.5651H42.5648H42.5646H42.5644H42.5642H42.564H42.5638H42.5636H42.5634H42.5632H42.563H42.5628H42.5626H42.5624H42.5622H42.562H42.5618H42.5616H42.5614H42.5612H42.561H42.5608H42.5605H42.5603H42.5601H42.5599H42.5597H42.5595H42.5593H42.5591H42.5589H42.5587H42.5585H42.5583H42.5581H42.5579H42.5577H42.5574H42.5572H42.557H42.5568H42.5566H42.5564H42.5562H42.556H42.5558H42.5556H42.5554H42.5552H42.5549H42.5547H42.5545H42.5543H42.5541H42.5539H42.5537H42.5535H42.5533H42.5531H42.5528H42.5526H42.5524H42.5522H42.552H42.5518H42.5516H42.5514H42.5511H42.5509H42.5507H42.5505H42.5503H42.5501H42.5499H42.5497H42.5494H42.5492H42.549H42.5488H42.5486H42.5484H42.5482H42.5479H42.5477H42.5475H42.5473H42.5471H42.5469H42.5466H42.5464H42.5462H42.546H42.5458H42.5456H42.5453H42.5451H42.5449H42.5447H42.5445H42.5443H42.544H42.5438H42.5436H42.5434H42.5432H42.5429H42.5427H42.5425H42.5423H42.5421H42.5418H42.5416H42.5414H42.5412H42.541H42.5407H42.5405H42.5403H42.5401H42.5398H42.5396H42.5394H42.5392H42.539H42.5387H42.5385H42.5383H42.5381H42.5378H42.5376H42.5374H42.5372H42.5369H42.5367H42.5365H42.5363H42.536H42.5358H42.5356H42.5353H42.5351H42.5349H42.5347H42.5344H42.5342H42.534H42.5337H42.5335H42.5333H42.5331H42.5328H42.5326H42.5324H42.5321H42.5319H42.5317H42.5314H42.5312H42.531H42.5307H42.5305H42.5303H42.53H42.5298H42.5296H42.5293H42.5291H42.5289H42.5286H42.5284H42.5282H42.5279H42.5277H42.5274H42.5272H42.527H42.5267H42.5265H42.5263H42.526H42.5258H42.5255H42.5253H42.5251H42.5248ZM54.1556 50.6594L54.1555 50.6613C54.0255 52.667 52.7182 54.1206 51.3008 55.1108C51.4528 54.6395 51.5404 54.1369 51.5537 53.6051L51.5537 53.6051L51.5538 53.6002C51.5976 50.7155 50.3575 48.7382 48.5328 47.2611C46.7457 45.8145 44.3801 44.8344 42.1387 43.9058L42.114 43.8956C42.1139 43.8955 42.1139 43.8955 42.1138 43.8955C39.6996 42.894 37.4453 41.9513 35.7929 40.5849C34.1753 39.2473 33.1428 37.509 33.1814 34.8673L33.1814 34.8663C33.2048 32.9952 34.2508 31.1808 36.2306 29.7364C36.1134 30.1307 36.0406 30.5404 36.0158 30.9632C35.819 33.8549 37.0118 35.8999 38.8322 37.4698C40.6215 39.013 43.0409 40.1173 45.336 41.1648L45.3397 41.1665C45.3402 41.1667 45.3407 41.1669 45.3411 41.1672C47.7967 42.3078 50.094 43.3754 51.7429 44.8306C53.358 46.256 54.3352 48.0403 54.1556 50.6594Z" fill="#FEECA5" stroke="#FEECA5"/>
</svg>
