<svg width="100" height="101" viewBox="0 0 100 101" fill="none" xmlns="http://www.w3.org/2000/svg">
<path fill-rule="evenodd" clip-rule="evenodd" d="M0 50.7939V100.794H50H100V50.7939V0.793945H80.7208H61.4417L61.3897 1.89811C61.3611 2.50545 61.2648 3.32436 61.1754 3.71803C61.0862 4.1117 60.9163 4.72203 60.7982 5.07428C60.6799 5.42653 60.4298 6.01978 60.2423 6.39261C60.0548 6.76545 59.8033 7.22395 59.6832 7.41136C59.5632 7.59886 59.2323 8.05503 58.9478 8.42495C58.6634 8.79495 58.142 9.36736 57.789 9.69695C57.4361 10.0266 56.8071 10.5239 56.3913 10.802C55.9754 11.0801 55.3891 11.4315 55.0884 11.5829C54.7877 11.7343 54.2208 11.9713 53.8286 12.1097C53.4364 12.248 52.754 12.4395 52.3121 12.5353C51.8702 12.631 51.0848 12.7335 50.5668 12.763C49.9956 12.7955 49.2823 12.7768 48.7543 12.7153C48.2753 12.6595 47.5271 12.5213 47.0915 12.4081C46.6558 12.2949 45.9506 12.0566 45.5242 11.8784C45.0977 11.7003 44.4398 11.3669 44.062 11.1375C43.6842 10.9082 43.0708 10.4761 42.6992 10.1774C42.3274 9.87861 41.7995 9.37945 41.5261 9.0682C41.2526 8.75695 40.8774 8.29603 40.6923 8.04395C40.5072 7.79186 40.2041 7.32236 40.0188 7.0007C39.8334 6.67895 39.5475 6.09145 39.3834 5.69503C39.2193 5.2987 38.993 4.60561 38.8804 4.15503C38.7679 3.70436 38.6362 2.97145 38.5879 2.52636C38.5396 2.08136 38.5 1.50945 38.5 1.25553V0.793945H19.25H0V50.7939ZM32.1162 66.7106C33.3494 73.2877 34.3716 78.6845 34.3876 78.7037C34.4036 78.7228 34.4316 78.7228 34.4499 78.7037C34.4682 78.6845 35.6974 73.2877 37.1816 66.7106L39.88 54.7523H42.9983H46.1168L48.5438 66.7939C49.8787 73.4169 50.9918 78.8919 51.0174 78.9606C51.0588 79.0717 51.0693 79.0717 51.1122 78.9606C51.1387 78.8919 52.2886 73.4919 53.6674 66.9606C55.0463 60.4294 56.1956 55.0012 56.2213 54.8981L56.2681 54.7106H59.5181H62.7681L62.7173 54.9128C62.6894 55.0239 60.7916 62.9753 58.5 72.5824C56.2083 82.1895 54.3333 90.0674 54.3333 90.0886C54.3333 90.1099 52.8546 90.1273 51.0473 90.1273C47.9892 90.1273 47.7583 90.1172 47.7195 89.9814C47.6965 89.9012 46.6047 84.5106 45.2932 78.0023C43.9817 71.4939 42.8864 66.1127 42.8592 66.0439C42.8247 65.9567 42.7865 65.9944 42.7324 66.1689C42.6898 66.3064 41.5032 71.7439 40.0954 78.2523L37.5358 90.0856L34.1864 90.1074L30.837 90.1292L30.7923 89.9407C30.7677 89.8371 29.0793 81.971 27.0401 72.4606C25.001 62.9502 23.3109 55.0654 23.2845 54.9388L23.2363 54.7087L26.5551 54.7304L29.8738 54.7523L32.1162 66.7106ZM85.8577 72.3161C88.6898 81.9977 91.0053 89.9663 91.0035 90.024C91.0008 90.1072 90.2919 90.1246 87.6068 90.1074L84.2135 90.0856L83.0897 86.1481L81.9658 82.2106H76.0302C70.4498 82.2106 70.0919 82.2194 70.0498 82.3564C70.0252 82.4366 69.6289 84.2024 69.1692 86.2802C68.7095 88.358 68.3333 90.0737 68.3333 90.0927C68.3333 90.1117 66.8293 90.1273 64.991 90.1273H61.6486L61.6956 89.9398C61.7214 89.8367 63.6388 81.9148 65.9564 72.3356C68.2741 62.7564 70.1871 54.8721 70.2075 54.8148C70.2368 54.7329 71.3656 54.7109 75.4766 54.7119L80.7083 54.7133L85.8577 72.3161ZM74.2077 63.4814C74.1873 63.5388 73.5345 66.4535 72.757 69.9587C71.9795 73.4639 71.3539 76.3424 71.3668 76.3553C71.3798 76.3682 73.3948 76.369 75.8447 76.3572L80.2989 76.3356L78.7786 70.3773C77.9424 67.1002 77.196 64.1846 77.1198 63.8981L76.9815 63.3773H75.6132C74.5938 63.3773 74.2353 63.4039 74.2077 63.4814Z" fill="#B2BFCD"/>
</svg>
