<svg width="70" height="54" viewBox="0 0 70 54" fill="none" xmlns="http://www.w3.org/2000/svg">
<path fill-rule="evenodd" clip-rule="evenodd" d="M33.7726 0.135294C33.3878 0.200148 32.723 0.368206 32.2954 0.508723C31.8679 0.649239 31.0526 0.996015 30.4838 1.27942C29.9151 1.56297 28.918 2.14118 28.268 2.5645C27.618 2.98783 26.4547 3.85951 25.6828 4.50168C24.9109 5.1437 23.5961 6.36438 22.761 7.21414C21.9257 8.0639 21.266 8.78263 21.2948 8.8115C21.3235 8.84022 22.0401 8.8001 22.8871 8.72207C23.7342 8.64418 25.7234 8.51181 27.3078 8.42815C28.8921 8.34449 32.1704 8.27564 34.5928 8.27505C37.0152 8.2746 40.4719 8.34538 42.2744 8.4323C44.077 8.51936 46.1932 8.63722 46.9772 8.69438L48.4029 8.79832L47.8438 8.12905C47.5364 7.76096 46.4943 6.69353 45.5283 5.757C44.5624 4.82047 43.4081 3.77644 42.9631 3.43692C42.518 3.0974 41.5661 2.45004 40.8474 1.99858C40.1287 1.54698 39.0254 0.978247 38.3955 0.734823C37.7657 0.491399 36.8247 0.222951 36.3046 0.138404C35.7843 0.0538572 35.1593 -0.00803543 34.9156 0.000848662C34.6718 0.00988082 34.1576 0.0702922 33.7726 0.135294ZM26.643 10.7962C25.4243 10.8659 23.2306 11.0309 21.7681 11.163C20.3057 11.295 17.8808 11.5679 16.3794 11.7696C14.8781 11.9713 12.5011 12.368 11.0973 12.6512C9.69345 12.9345 7.76418 13.4032 6.81003 13.693C5.85588 13.9828 4.59904 14.4184 4.01701 14.6611C3.43513 14.9038 2.5377 15.356 2.02274 15.666C1.50792 15.9761 0.870636 16.5105 0.606654 16.8535C0.276638 17.2823 0.126551 17.6381 0.126551 17.9914C0.126551 18.2742 0.224048 18.6945 0.343114 18.9254C0.462327 19.1564 0.860591 19.6109 1.22828 19.9351C1.59596 20.2595 2.40431 20.773 3.0243 21.0761C3.64445 21.3792 4.92477 21.8815 5.86932 22.1924C6.81387 22.5032 8.68346 23.0028 10.0241 23.3026C11.3647 23.6025 12.4778 23.8637 12.4977 23.8832C12.5176 23.9026 12.111 24.8461 11.5942 25.9799C11.0775 27.1136 10.3858 28.687 10.0573 29.476L9.46005 30.911L9.85285 30.9855C10.0688 31.0263 11.9075 31.0961 13.9387 31.1402C15.9699 31.1843 18.0517 31.1714 18.5647 31.1116L19.4975 31.0026L19.9406 29.8921C20.1844 29.2813 20.7859 27.9646 21.2774 26.9661C21.7689 25.9676 22.2272 25.1157 22.2959 25.0732C22.3646 25.0306 23.4585 25.0713 24.7266 25.1636C25.9948 25.2558 27.0624 25.3013 27.0992 25.2644C27.1358 25.2275 26.2505 25.1163 25.1318 25.0173C24.0129 24.9182 22.9526 24.8023 22.7752 24.7598C22.4621 24.6849 22.4702 24.6536 23.053 23.6966C23.3833 23.1544 24.1058 22.0445 24.6588 21.2301C25.2117 20.4158 26.2377 19.0328 26.9388 18.1568C27.6397 17.2807 28.7241 16.129 29.3486 15.5973C29.9977 15.0446 31.0532 14.346 31.8133 13.9659C32.5941 13.5754 33.5332 13.2333 34.0883 13.137C34.8059 13.0123 35.2813 13.0172 36.0607 13.1569C36.6453 13.2615 37.578 13.5867 38.2253 13.9116C38.8511 14.2255 39.8231 14.8696 40.3853 15.3429C40.9476 15.8163 41.7983 16.6681 42.2758 17.2361C42.7532 17.8041 43.6132 18.8932 44.1869 19.6562C44.7605 20.4193 45.7561 21.8852 46.3995 22.9137L47.5691 24.7838L47.0774 24.8753L46.5857 24.9669L47.1382 24.9863C47.6819 25.0056 47.7018 25.0278 48.3828 26.3755C48.7635 27.1287 49.3867 28.4781 49.768 29.3739L50.4611 31.0026L51.3302 31.1126C51.8082 31.1732 53.9712 31.1811 56.1368 31.1301C58.3025 31.0792 60.1594 30.9849 60.2632 30.9205C60.4074 30.8312 60.2845 30.4062 59.7444 29.1263C59.3552 28.2037 58.6679 26.6653 58.2171 25.7076C57.7664 24.7497 57.426 23.9374 57.4609 23.9026C57.4958 23.8677 58.3536 23.6673 59.3673 23.4572C60.381 23.2473 61.9344 22.8703 62.8193 22.6195C63.704 22.3688 64.8673 21.9982 65.4045 21.7959C65.9414 21.5936 66.8461 21.1838 67.4148 20.8851C67.9836 20.5866 68.7591 20.0423 69.1382 19.6757C69.6357 19.1943 69.8574 18.847 69.9354 18.4256C70.0207 17.9654 69.9749 17.7125 69.7189 17.2287C69.5403 16.8914 69.0819 16.3788 68.7 16.0895C68.3182 15.8003 67.6069 15.3637 67.1194 15.1192C66.6319 14.8749 65.6482 14.4682 64.9335 14.2155C64.2187 13.9628 62.5568 13.4912 61.2404 13.1674C59.9239 12.8435 57.8448 12.4104 56.6202 12.2048C55.3956 11.9993 53.2657 11.6973 51.887 11.5342C50.5084 11.371 48.0869 11.1311 46.5058 11.0011C44.5345 10.8393 41.3104 10.75 36.2451 10.7173C32.1827 10.6911 27.8617 10.7266 26.643 10.7962ZM18.1489 13.8245C18.1489 13.864 17.4593 15.0467 16.6164 16.4527C15.7735 17.8588 14.5692 19.9955 13.9402 21.2011L12.7967 23.3931L12.3336 23.3C12.0789 23.2486 10.9265 22.9773 9.77248 22.697C8.61846 22.4167 6.98981 21.9493 6.15325 21.6583C5.31669 21.3672 4.11761 20.8616 3.4889 20.5347C2.86004 20.2077 2.14535 19.7117 1.90086 19.4324C1.62654 19.1193 1.45607 18.7614 1.45607 18.4983C1.45607 18.177 1.62388 17.9238 2.13619 17.4719C2.54922 17.1075 3.27514 16.6944 3.9851 16.42C4.628 16.1715 5.95914 15.771 6.94313 15.5302C7.92712 15.2893 9.73747 14.9236 10.9662 14.7173C12.1949 14.5112 14.2305 14.2172 15.4898 14.0638C16.7492 13.9105 17.8627 13.7779 17.9642 13.769C18.0659 13.7599 18.1489 13.785 18.1489 13.8245ZM53.6765 13.9745C54.2452 14.025 55.8653 14.2308 57.2768 14.432C58.6883 14.6332 60.6494 14.9682 61.6347 15.1765C62.62 15.3848 64.0578 15.7574 64.8297 16.0044C65.6015 16.2513 66.6063 16.6418 67.0628 16.872C67.5191 17.1023 68.0675 17.4991 68.2815 17.7541C68.4954 18.0089 68.6702 18.3289 68.6699 18.4653C68.6696 18.6015 68.5374 18.9299 68.3762 19.1949C68.2149 19.46 67.7243 19.9068 67.2857 20.188C66.8473 20.4692 65.9324 20.929 65.2529 21.2098C64.5732 21.4906 63.4521 21.8916 62.7615 22.1008C62.0709 22.3101 60.6619 22.6828 59.6304 22.9292C58.599 23.1756 57.6237 23.3771 57.4633 23.3771C57.2371 23.3771 56.8712 22.8148 55.8333 20.8717C55.0972 19.4936 54.0206 17.578 53.4406 16.6147C52.8608 15.6514 52.261 14.6864 52.1081 14.4702C51.9551 14.254 51.8299 13.9988 51.8299 13.9031C51.8299 13.7934 51.98 13.7576 52.2362 13.806C52.4595 13.8482 53.1078 13.924 53.6765 13.9745ZM45.1454 25.1129C45.4096 25.1458 45.8415 25.1458 46.1056 25.1129C46.3698 25.0802 46.1537 25.0533 45.6255 25.0533C45.0974 25.0533 44.8813 25.0802 45.1454 25.1129ZM43.301 25.2602C43.5255 25.2942 43.8579 25.2933 44.0396 25.2582C44.2213 25.2231 44.0375 25.1953 43.6313 25.1963C43.225 25.1975 43.0764 25.2262 43.301 25.2602ZM30.8929 25.4046C31.0366 25.4422 31.236 25.4397 31.3361 25.3991C31.4361 25.3586 31.3185 25.3279 31.0747 25.3309C30.831 25.3338 30.7491 25.367 30.8929 25.4046ZM33.6599 25.4501C33.3343 25.5188 33.8265 25.5595 34.9894 25.5601C36.3666 25.5608 36.667 25.5309 36.1712 25.4425C35.8056 25.3774 35.2073 25.3278 34.8417 25.3325C34.4761 25.3371 33.9443 25.3901 33.6599 25.4501ZM39.0272 25.4008C39.0814 25.455 39.17 25.455 39.2242 25.4008C39.2783 25.3464 39.234 25.302 39.1257 25.302C39.0174 25.302 38.9731 25.3464 39.0272 25.4008ZM6.18323 35.9632C5.65512 36.0358 4.76863 36.2046 4.21304 36.3381C3.6576 36.4717 2.97629 36.676 2.69887 36.7923L2.19469 37.0034V39.1271V41.2509L3.34043 40.8446C3.97048 40.621 5.00056 40.3549 5.62942 40.2533C6.27881 40.1484 7.3764 40.1001 8.16938 40.1417C9.2881 40.2003 9.72772 40.2941 10.3783 40.6131C10.8779 40.8582 11.3011 41.194 11.4777 41.4856C11.6357 41.7463 11.8102 42.1747 11.8656 42.4374C11.921 42.7 11.9263 42.98 11.8773 43.0595C11.823 43.1472 11.5301 43.0931 11.131 42.9217C10.7695 42.7664 9.97649 42.5364 9.36876 42.4106C8.76102 42.2847 7.64615 42.183 6.89113 42.1843C6.13611 42.1858 5.07678 42.2807 4.537 42.3954C3.99722 42.51 3.27307 42.7483 2.92799 42.9248C2.58291 43.1013 1.9861 43.5405 1.60187 43.9006C1.17687 44.2992 0.748617 44.9014 0.507974 45.4387C0.227594 46.065 0.0876993 46.678 0.0269848 47.5463C-0.0355025 48.4405 0.00763302 49.0292 0.186822 49.7284C0.321842 50.2549 0.637823 51.0069 0.889102 51.3995C1.14038 51.792 1.71562 52.3784 2.16736 52.7026C2.6191 53.0269 3.41105 53.423 3.92719 53.5827C4.44334 53.7425 5.37814 53.9159 6.00464 53.9679C6.65196 54.0218 7.62162 53.9887 8.25137 53.8915C8.86073 53.7973 9.78962 53.5194 10.3157 53.2737C10.8417 53.0281 11.4899 52.6607 11.756 52.4573L12.2399 52.0873V52.7611V53.435H15.0467H17.8534L17.8522 48.3636C17.8517 45.5745 17.7867 42.7259 17.7078 42.0337C17.5999 41.0886 17.4342 40.5107 17.0417 39.7132C16.6942 39.0071 16.2672 38.4243 15.7668 37.9732C15.3529 37.6004 14.6003 37.0971 14.0942 36.855C13.5882 36.6129 12.7478 36.3116 12.2269 36.1853C11.7059 36.0592 10.3491 35.9278 9.21158 35.8935C8.0741 35.8593 6.71135 35.8907 6.18323 35.9632ZM41.5685 35.9691C41.0838 36.0457 40.3525 36.218 39.9435 36.3523C39.5343 36.4866 38.8203 36.7865 38.3569 37.0186C37.8935 37.251 37.0923 37.8367 36.5764 38.3205C36.0606 38.8042 35.4565 39.5348 35.2342 39.9442C35.012 40.3536 34.6919 41.0744 34.5229 41.5461C34.287 42.2044 34.1991 42.8857 34.1446 44.4768C34.0901 46.0677 34.1292 46.787 34.3125 47.5695C34.4439 48.1303 34.7984 49.0604 35.1004 49.6363C35.4051 50.2176 36.0035 51.0329 36.4454 51.4688C36.9476 51.9642 37.6846 52.4716 38.442 52.8437C39.1025 53.1681 40.0748 53.5472 40.6029 53.6862C41.3161 53.8741 42.1523 53.9377 43.8529 53.9335C45.6939 53.9289 46.403 53.8641 47.4721 53.6029C48.2033 53.424 49.1672 53.0943 49.6141 52.8701L50.4266 52.4623L50.4672 50.0478C50.4896 48.7197 50.4564 47.6563 50.3933 47.6846C50.3304 47.7129 49.9234 47.9233 49.4891 48.152C49.0548 48.381 48.1965 48.6969 47.582 48.8545C46.8825 49.0338 45.966 49.141 45.1316 49.141C44.343 49.141 43.4441 49.0413 42.9311 48.8971C42.3226 48.726 41.8487 48.4594 41.3438 48.0043C40.8263 47.538 40.5536 47.1437 40.3741 46.6022C40.1917 46.0513 40.1422 45.5252 40.1905 44.6446C40.2363 43.8086 40.3527 43.2537 40.5709 42.8297C40.7439 42.4938 41.1044 42.0336 41.372 41.8069C41.6397 41.58 42.1577 41.2608 42.5233 41.0972C42.9955 40.8859 43.6221 40.78 44.6853 40.7318C45.7706 40.6824 46.4959 40.7337 47.3224 40.918C47.9494 41.0578 48.8876 41.3944 49.4076 41.6661L50.3527 42.1599V39.7496V37.3394L49.3556 36.8866C48.8072 36.6377 47.8599 36.3229 47.2505 36.1871C46.6411 36.0513 45.3116 35.9155 44.296 35.8852C43.2804 35.855 42.053 35.8927 41.5685 35.9691ZM58.8468 35.9078C58.5218 35.9432 57.7241 36.0775 57.0742 36.2062C56.4242 36.335 55.5433 36.571 55.1168 36.7305L54.3413 37.0207V39.1729C54.3413 41.1653 54.3605 41.3169 54.5998 41.2162C54.7419 41.1564 55.1601 40.9882 55.529 40.8427C55.8978 40.697 56.7094 40.4723 57.3324 40.3434C57.9553 40.2144 59.0189 40.1088 59.696 40.1088C60.3728 40.1088 61.3203 40.2116 61.8015 40.3371C62.2826 40.4627 62.9019 40.7381 63.1777 40.949C63.4535 41.1598 63.7718 41.5547 63.8851 41.8264C63.9984 42.0981 64.091 42.5223 64.091 42.7693C64.091 43.0163 64.0662 43.2183 64.0359 43.2183C64.0057 43.2183 63.69 43.0899 63.3343 42.9329C62.9787 42.776 62.1296 42.5348 61.4474 42.3969C60.543 42.2141 59.7624 42.1655 58.5668 42.2176C57.4138 42.2677 56.6364 42.3872 55.9504 42.6193C55.4136 42.8012 54.6519 43.1943 54.2576 43.4929C53.8634 43.7916 53.3598 44.3017 53.1386 44.6265C52.9175 44.9514 52.6237 45.5746 52.4857 46.0116C52.3232 46.5265 52.2369 47.2818 52.2408 48.1586C52.2452 49.169 52.3267 49.7247 52.5633 50.3554C52.7408 50.8287 53.1736 51.5271 53.5483 51.9448C53.9895 52.4365 54.5769 52.8682 55.2761 53.2142C56.0825 53.6132 56.6613 53.7786 57.699 53.9064C58.7053 54.0302 59.3665 54.0311 60.2229 53.9097C60.8611 53.8192 61.762 53.6032 62.2251 53.4295C62.6883 53.2558 63.3645 52.8862 63.7281 52.608C64.0916 52.3299 64.4216 52.1024 64.4617 52.1024C64.5016 52.1024 64.5342 52.4022 64.5342 52.7687V53.435H67.2671H70V47.8285C70 44.6818 69.9347 41.8771 69.8511 41.4355C69.7693 41.0027 69.5401 40.2939 69.342 39.8602C69.1439 39.4264 68.6442 38.7136 68.2313 38.276C67.8186 37.8386 67.0879 37.2708 66.6078 37.0142C66.1277 36.7577 65.2155 36.4133 64.5806 36.2487C63.7864 36.0429 62.8041 35.933 61.432 35.8966C60.3352 35.8674 59.1718 35.8724 58.8468 35.9078ZM31.3702 36.2169C31.1264 36.2506 30.5282 36.3794 30.0407 36.5032C29.5532 36.627 28.786 36.9243 28.3361 37.1639C27.886 37.4036 27.3404 37.7645 27.1237 37.9658C26.907 38.1672 26.6937 38.332 26.6495 38.332C26.6053 38.332 26.5691 37.8989 26.5691 37.3696V36.4071H23.7624H20.9556V44.921V53.435H23.8363H26.7169V48.6153C26.7169 44.6964 26.7569 43.7183 26.9309 43.381C27.0487 43.1528 27.394 42.7468 27.6985 42.479C28.003 42.211 28.5881 41.8448 28.9986 41.6653C29.4093 41.4859 30.0444 41.2673 30.41 41.1797C30.7756 41.0921 31.5235 40.9741 32.0719 40.9176L33.069 40.8147V38.4629V36.111L32.4412 36.1332C32.0959 36.1453 31.6139 36.1829 31.3702 36.2169ZM11.0144 46.5639L11.8706 47.002L11.9148 47.7631C11.9554 48.4619 11.9168 48.5665 11.4438 49.0406C11.1605 49.3247 10.5565 49.6967 10.1015 49.8673C9.64662 50.0378 8.9278 50.1773 8.50427 50.1772C8.06332 50.1772 7.51792 50.0664 7.22779 49.918C6.94918 49.7758 6.58357 49.4712 6.41531 49.2412C6.20525 48.9541 6.10937 48.598 6.10937 48.1045C6.10937 47.611 6.20525 47.2549 6.41531 46.9678C6.58357 46.7378 6.94918 46.4291 7.22779 46.2816C7.63004 46.0689 7.98384 46.0252 8.94626 46.0698C9.92774 46.1152 10.3211 46.2091 11.0144 46.5639ZM63.1492 46.5593L64.0172 46.994L64.0609 47.8279C64.1039 48.6461 64.0928 48.6722 63.4765 49.201C63.131 49.4974 62.5176 49.8384 62.1133 49.9588C61.7091 50.079 61.0559 50.1775 60.6618 50.1775C60.2678 50.1775 59.7314 50.0867 59.4699 49.9758C59.2085 49.8649 58.8616 49.6247 58.6991 49.442C58.4653 49.179 58.4037 48.9005 58.4037 48.1045C58.4037 47.3085 58.4651 47.03 58.6991 46.7672C58.8616 46.5846 59.194 46.3431 59.4377 46.2303C59.7353 46.0926 60.2755 46.0415 61.081 46.0749C62.0496 46.1151 62.4486 46.2085 63.1492 46.5593Z" fill="#B2BFCD"/>
</svg>
