<svg width="128" height="37" viewBox="0 0 128 37" fill="none" xmlns="http://www.w3.org/2000/svg">
<path fill-rule="evenodd" clip-rule="evenodd" d="M17.8401 0.504814C17.9482 0.784416 19.2817 3.50297 20.8038 6.5463C22.3258 9.58963 25.0848 15.165 26.9346 18.9362C28.7844 22.7072 30.2978 25.8323 30.2978 25.8811C30.2978 25.9297 28.8723 25.9694 27.1302 25.9694H23.9628L25.9116 29.8653C26.9834 32.008 27.9614 33.8859 28.0848 34.0383C28.2556 34.2495 28.5575 34.1447 29.3518 33.5991C29.9251 33.2052 31.0118 32.2661 31.7665 31.5124C32.5212 30.7588 33.6145 29.3797 34.196 28.4481C34.7774 27.5165 35.5215 26.0442 35.8492 25.1762C36.1772 24.3081 36.5888 22.8522 36.7641 21.9407C36.9393 21.0292 37.0805 19.403 37.0777 18.3271C37.075 17.2256 36.8765 15.4825 36.6234 14.3381C36.3762 13.2202 35.8158 11.5523 35.3781 10.6317C34.9405 9.71113 34.1397 8.3391 33.5985 7.58272C33.057 6.82635 32.0545 5.67994 31.3705 5.03514C30.6864 4.39011 29.4156 3.40314 28.5464 2.84168C27.6773 2.28022 26.418 1.60086 25.7484 1.3321C25.0787 1.06334 23.8183 0.654552 22.9476 0.423959C22.0275 0.180041 20.5853 0.00274893 19.5042 0.000490428C17.6671 -0.00334902 17.6463 0.00297522 17.8401 0.504814ZM13.2226 0.649582C12.4762 0.866623 11.255 1.33165 10.5086 1.68262C9.7623 2.03382 8.54102 2.75179 7.79469 3.27802C7.04835 3.80425 5.86123 4.83978 5.15696 5.57921C4.45246 6.31864 3.42387 7.62631 2.87113 8.48522C2.31862 9.34413 1.58969 10.7439 1.25158 11.5956C0.913469 12.4475 0.493484 13.8196 0.318434 14.6446C0.143158 15.4699 0 17.1613 0 18.4034C0 19.6456 0.148133 21.36 0.329063 22.2133C0.509993 23.0665 0.870953 24.337 1.13104 25.0364C1.39135 25.7359 1.9174 26.8672 2.3003 27.5504C2.68341 28.2335 3.43179 29.3583 3.96372 30.0501C4.49543 30.7416 5.42224 31.7372 6.02338 32.2623C6.62452 32.7874 7.65492 33.5767 8.3135 34.016C8.97209 34.4555 10.1425 35.0985 10.9144 35.4454C11.6863 35.7921 13.015 36.2483 13.8667 36.459C14.7186 36.6699 16.3056 36.9001 17.3935 36.9703C18.5084 37.0426 20.1913 36.9787 21.2511 36.824C22.2849 36.6729 23.8529 36.2912 24.7354 35.9757C25.6179 35.6602 26.3843 35.3614 26.4384 35.3117C26.4924 35.2618 25.4804 33.1395 24.1894 30.5953L21.8421 25.9694H14.3147H6.78736L10.0907 19.4762C11.9075 15.9051 13.8502 12.1334 14.4079 11.0947L15.422 9.20659L16.4359 11.0947C16.9934 12.1334 18.6749 15.4477 20.1726 18.4599L22.8955 23.9368L24.5047 23.9334C25.3897 23.9313 26.2568 23.8394 26.4316 23.729C26.6849 23.5688 25.5932 21.2031 21.0602 12.0875C17.9313 5.79512 15.3711 0.551565 15.3711 0.434801C15.3711 0.318036 15.1929 0.229732 14.9753 0.23854C14.7578 0.247348 13.9689 0.432314 13.2226 0.649582ZM72.8487 1.6754C72.3068 1.85156 71.6102 2.23211 71.3006 2.52075C70.9912 2.80939 70.595 3.32004 70.4202 3.65542C70.2454 3.99104 70.1024 4.71263 70.1024 5.25941C70.1024 5.91776 70.275 6.50949 70.6133 7.01088C70.9569 7.51994 71.5311 7.93121 72.3661 8.26615C73.0491 8.5401 74.31 8.95205 75.168 9.18152C76.2622 9.474 76.852 9.76669 77.1438 10.1615C77.3925 10.4982 77.5079 10.9176 77.4305 11.2051C77.3595 11.4696 77.0506 11.7998 76.7444 11.9391C76.4381 12.0785 75.6737 12.1926 75.0457 12.1926C74.2638 12.1926 73.7023 12.0491 73.2644 11.7377C72.9125 11.4877 72.5581 10.9795 72.4765 10.6084C72.3322 9.95234 72.2917 9.93405 70.9892 9.93405C69.7498 9.93405 69.6506 9.97199 69.6551 10.4422C69.6578 10.7218 69.8503 11.3686 70.0828 11.88C70.3153 12.3913 70.8474 13.0632 71.2651 13.3733C71.6831 13.6834 72.3708 14.0527 72.7935 14.194C73.2165 14.3354 74.1636 14.4511 74.8984 14.4511C75.6335 14.4511 76.6944 14.3354 77.2564 14.1943C77.8227 14.0517 78.612 13.6226 79.0277 13.2312C79.4398 12.843 79.9034 12.1045 80.0576 11.5902C80.2184 11.0543 80.2727 10.3065 80.1848 9.83807C80.1004 9.38863 79.7336 8.68239 79.3697 8.26863C78.8929 7.72614 78.2807 7.38465 77.1759 7.0443C76.333 6.7848 75.2205 6.46364 74.7037 6.33062C74.1867 6.19759 73.5353 5.90399 73.256 5.67814C72.8768 5.37121 72.784 5.1248 72.8899 4.70336C72.9679 4.39327 73.2934 4.02039 73.6132 3.87472C73.9329 3.72927 74.5323 3.61025 74.945 3.61025C75.3578 3.61025 75.9576 3.81623 76.278 4.06782C76.5985 4.31942 76.9244 4.72595 77.0022 4.97122C77.1223 5.34907 77.3484 5.41705 78.4856 5.41705C79.6236 5.41705 79.8274 5.35562 79.8274 5.01323C79.8274 4.791 79.5983 4.15591 79.3185 3.60167C78.9637 2.89905 78.5105 2.43041 77.8209 2.05369C77.1352 1.67901 76.3728 1.48907 75.3331 1.43396C74.4357 1.38654 73.4388 1.48342 72.8487 1.6754ZM60.6601 1.72508C60.4437 1.81384 60.3774 3.29203 60.3774 8.03307V14.2252H61.6213H62.8652V12.6793C62.8652 11.4685 62.9548 11.0522 63.2789 10.7595C63.5064 10.554 63.7568 10.3858 63.8352 10.3858C63.9139 10.3858 64.5067 11.2496 65.1529 12.3055L66.3276 14.2252H67.8892C69.0768 14.2252 69.4106 14.1577 69.2835 13.9429C69.1915 13.7877 68.4177 12.6156 67.564 11.3386C66.7104 10.0614 65.9607 8.8834 65.8983 8.72078C65.8347 8.55546 66.5114 7.71485 67.4346 6.81213L69.0847 5.19888L67.4651 5.19504L65.8454 5.1912L64.4984 6.65923C63.7574 7.46664 63.0898 8.12725 63.0145 8.12725C62.9392 8.12725 62.8494 6.68 62.8148 4.91137L62.7521 1.6955L61.8475 1.65236C61.3499 1.62864 60.8157 1.66139 60.6601 1.72508ZM42.8732 7.73292C41.6422 10.9931 40.588 13.7877 40.5308 13.9429C40.4543 14.1502 40.8137 14.2252 41.8853 14.2252H43.3436L43.7545 12.8701L44.1654 11.515H46.4922H48.819L49.3136 12.8701L49.8084 14.2252H51.2724C52.5615 14.2252 52.7185 14.1789 52.5877 13.8385C52.5061 13.6258 51.4569 10.8309 50.2565 7.62767L48.0738 1.80345L46.5926 1.80435L45.1115 1.80526L42.8732 7.73292ZM82.0438 3.77964C81.9764 5.06834 81.9703 5.07873 81.2283 5.15009C80.5154 5.2183 80.4837 5.26076 80.5498 6.05349C80.6126 6.80964 80.6857 6.8914 81.354 6.95577L82.089 7.02669V10.0364C82.089 12.583 82.1508 13.1221 82.4907 13.5413C82.7863 13.9058 83.249 14.0779 84.2435 14.1931C84.9866 14.2792 85.7728 14.3142 85.9903 14.2708C86.2959 14.2101 86.3861 13.9639 86.3861 13.1924C86.3861 12.2063 86.3755 12.1926 85.6188 12.1926C85.1275 12.1926 84.8019 12.064 84.7141 11.8353C84.6386 11.6388 84.5768 10.47 84.5768 9.23798V6.998H85.4815C86.3839 6.998 86.3861 6.99574 86.3861 6.10815C86.3861 5.24315 86.3626 5.2165 85.538 5.14829L84.6899 5.07828L84.6221 3.77964L84.5542 2.481H83.3329H82.1116L82.0438 3.77964ZM97.0927 5.0584C96.5752 5.22282 95.8461 5.57492 95.4724 5.84052C95.0986 6.10612 94.5705 6.78254 94.2986 7.34332C93.9599 8.0421 93.8042 8.78673 93.8042 9.7082C93.8042 10.6362 93.9601 11.3745 94.3065 12.0896C94.6168 12.7294 95.1583 13.3566 95.7223 13.7295C96.4562 14.2144 96.9511 14.3463 98.2393 14.4007C99.5811 14.4574 99.9896 14.3833 100.743 13.947C101.238 13.6601 101.872 13.021 102.153 12.5268C102.433 12.0324 102.664 11.5518 102.666 11.4585C102.668 11.3653 102.201 11.2892 101.628 11.2892C100.847 11.2892 100.419 11.4303 99.9147 11.8538C99.4913 12.2095 98.963 12.4184 98.4869 12.4184C98.0713 12.4184 97.5665 12.3552 97.3652 12.2781C97.1637 12.2009 96.8502 11.8504 96.6681 11.4987C96.4861 11.1473 96.3373 10.7532 96.3373 10.6229C96.3373 10.4682 97.4855 10.3858 99.6426 10.3858H102.948L102.791 9.08711C102.704 8.37275 102.383 7.35642 102.076 6.82816C101.744 6.25495 101.182 5.69711 100.681 5.4437C100.22 5.2104 99.4357 4.96106 98.9381 4.88947C98.4309 4.81674 97.6203 4.89082 97.0927 5.0584ZM107.419 4.88947C107.108 4.94503 106.54 5.08889 106.156 5.20905C105.772 5.3292 105.183 5.71449 104.846 6.06524C104.51 6.41621 104.213 6.99822 104.187 7.35868C104.141 7.99738 104.171 8.01613 105.328 8.08253C106.407 8.14464 106.536 8.10037 106.724 7.60531C106.839 7.30516 107.101 6.99484 107.307 6.91579C107.514 6.83674 108.018 6.77215 108.428 6.77215C108.838 6.77215 109.299 6.92324 109.452 7.10799C109.609 7.2968 109.67 7.68616 109.592 7.99761C109.475 8.46196 109.279 8.5724 108.38 8.68013C107.789 8.75082 106.848 8.91298 106.288 9.04013C105.729 9.16751 105.016 9.45593 104.705 9.6811C104.394 9.90605 104.046 10.4616 103.93 10.9156C103.802 11.422 103.802 12.0652 103.93 12.5801C104.072 13.1497 104.387 13.5854 104.908 13.9352C105.483 14.3207 105.999 14.4511 106.952 14.4511C107.758 14.4511 108.538 14.2934 109.068 14.0237C109.731 13.6861 109.907 13.6624 109.907 13.9108C109.907 14.143 110.247 14.2252 111.207 14.2254L112.508 14.2257L112.433 10.5554C112.389 8.38653 112.25 6.65403 112.094 6.32045C111.948 6.00991 111.473 5.58689 111.038 5.38024C110.602 5.17359 109.737 4.95587 109.115 4.89647C108.493 4.83684 107.73 4.83368 107.419 4.88947ZM118.415 4.97303C118.057 5.08031 117.531 5.38634 117.246 5.65307L116.729 6.13842L116.654 5.6289C116.589 5.18849 116.449 5.12209 115.618 5.13813C115.089 5.14807 114.555 5.16433 114.43 5.17381C114.288 5.18488 114.204 6.8591 114.204 9.7082V14.2252H115.561H116.918V11.106C116.918 8.2788 116.961 7.94025 117.379 7.49239C117.637 7.21572 118.11 6.99959 118.453 7.00139C118.791 7.00343 119.219 7.10099 119.406 7.21865C119.677 7.38962 119.76 8.11212 119.818 10.8289L119.891 14.2252H121.231H122.572L122.577 11.1198C122.581 8.4868 122.644 7.93438 122.987 7.48877C123.299 7.08383 123.569 6.97993 124.164 7.03707C124.719 7.09015 125.017 7.27015 125.221 7.67555C125.406 8.04323 125.507 9.28451 125.509 11.2327L125.512 14.2252H126.756H128V10.3632V6.50113L127.265 5.76825C126.828 5.33326 126.187 4.97145 125.685 4.87795C125.22 4.79122 124.426 4.83165 123.92 4.96761C123.415 5.1038 122.793 5.42225 122.54 5.67543L122.079 6.13571L121.648 5.67452C121.412 5.42089 120.836 5.10718 120.369 4.97754C119.901 4.84813 119.417 4.75012 119.293 4.76028C119.168 4.77022 118.773 4.86598 118.415 4.97303ZM56.6231 5.73324L55.8542 6.50113V5.84617C55.8542 5.20249 55.8325 5.1912 54.6056 5.1912H53.3569L53.4182 9.65174L53.4795 14.1123L54.784 14.18L56.0885 14.248L56.0648 11.548C56.0507 9.94602 56.1439 8.65664 56.2936 8.37704C56.4325 8.11799 56.8434 7.75257 57.2066 7.56489C57.5699 7.37743 58.1776 7.22385 58.5568 7.22385C59.2337 7.22385 59.2466 7.20285 59.2466 6.0946V4.96535H58.3194C57.5665 4.96535 57.2476 5.10967 56.6231 5.73324ZM90.8042 5.66639L90.0047 6.3672V5.77932C90.0047 5.21695 89.95 5.1912 88.7608 5.1912H87.5169V9.7082V14.2252H88.8739H90.2309V11.6426C90.2309 10.2222 90.332 8.79441 90.4557 8.46986C90.5918 8.11234 91.008 7.74286 91.5116 7.53259C91.9689 7.34197 92.5803 7.23108 92.87 7.28641C93.3691 7.38172 93.3972 7.32255 93.3972 6.17613V4.96535H92.5004C91.8199 4.96535 91.4108 5.13429 90.8042 5.66639ZM47.3898 7.22408L48.0853 9.2565H46.5506H45.016L45.7382 7.22385C46.1353 6.10589 46.513 5.1912 46.5775 5.19143C46.6419 5.19166 47.0074 6.10635 47.3898 7.22408ZM98.9863 7.00929C99.3608 7.13961 99.7831 7.50006 99.9247 7.81038C100.066 8.12047 100.182 8.4204 100.182 8.47664C100.182 8.53288 99.317 8.57895 98.2597 8.57895C97.2023 8.57895 96.3373 8.4999 96.3373 8.40346C96.3373 8.3068 96.5008 7.99468 96.7007 7.70965C96.9006 7.42463 97.2822 7.10347 97.5488 6.9962C97.8155 6.88869 98.0946 6.79428 98.1694 6.78638C98.244 6.7787 98.6118 6.87875 98.9863 7.00929ZM109.819 10.6681C109.74 11.0719 109.488 11.6562 109.26 11.9667C109.031 12.2772 108.615 12.5652 108.335 12.6065C108.055 12.6479 107.584 12.6212 107.29 12.5474C106.995 12.4735 106.646 12.2111 106.513 11.964C106.347 11.6532 106.344 11.3808 106.506 11.0791C106.66 10.7927 107.225 10.5283 108.154 10.3085C108.932 10.1244 109.657 9.965 109.766 9.95393C109.874 9.94309 109.899 10.2642 109.819 10.6681ZM12.8216 18.5164L10.2332 23.8238L15.4365 23.8846C18.2983 23.918 20.6674 23.9178 20.7011 23.8841C20.7348 23.8505 19.5581 21.4348 18.0862 18.5159L15.41 13.2089L12.8216 18.5164ZM45.1701 19.2894C44.7048 19.4552 44.0754 19.7536 43.7717 19.9523C43.4677 20.1513 42.9478 20.6694 42.616 21.1037C42.284 21.5382 41.8287 22.4805 41.6039 23.1975C41.3647 23.9605 41.2192 25.0168 41.2534 25.7436C41.2855 26.4267 41.452 27.4431 41.6236 28.0021C41.824 28.6543 42.3424 29.4355 43.0713 30.1829C43.9341 31.0677 44.5018 31.4336 45.4354 31.7073C46.1109 31.9054 46.983 32.0673 47.3731 32.0673C47.7632 32.0673 48.5844 31.9181 49.1978 31.7358C49.8114 31.5533 50.6346 31.1102 51.0274 30.7511C51.4203 30.392 51.9423 29.7027 52.1872 29.2194C52.4321 28.7363 52.7042 28.0106 52.7913 27.6068L52.95 26.8728H51.5926C50.2442 26.8728 50.2334 26.878 49.9765 27.6558C49.834 28.0865 49.4113 28.6963 49.037 29.0109C48.5408 29.4278 48.0939 29.583 47.3892 29.583C46.7582 29.583 46.1634 29.4064 45.6767 29.0748C45.2669 28.7955 44.7428 28.2125 44.5126 27.7798C44.2276 27.2445 44.0938 26.5193 44.0938 25.5125C44.0938 24.4268 44.2292 23.764 44.6026 23.0248C44.9285 22.3793 45.396 21.8707 45.9031 21.61C46.4194 21.3444 46.9925 21.2392 47.5513 21.3074C48.0226 21.3648 48.6715 21.5841 48.9936 21.7948C49.3156 22.0055 49.6901 22.4721 49.8261 22.8314C50.0592 23.4485 50.1463 23.4851 51.3805 23.4851C52.4767 23.4851 52.687 23.4211 52.6829 23.0898C52.6802 22.8725 52.4898 22.2808 52.2598 21.7751C52.0298 21.2695 51.447 20.5307 50.9643 20.1332C50.4819 19.7357 49.7309 19.3116 49.2955 19.1905C48.8601 19.0695 47.9442 18.9744 47.26 18.9791C46.5759 18.9841 45.6355 19.1237 45.1701 19.2894ZM74.8518 20.2102V21.2266H76.0957H77.3396V20.2102V19.1939H76.0957H74.8518V20.2102ZM95.4855 25.4612L95.5457 31.7286L96.7896 31.7281L98.0335 31.7277L98.0936 25.4608L98.1538 19.1939H96.7896H95.4254L95.4855 25.4612ZM80.0536 21.2266V22.5817H79.262C78.4915 22.5817 78.4704 22.6051 78.4704 23.4708C78.4704 24.3087 78.5127 24.3638 79.2055 24.4307L79.9405 24.5014L79.9959 27.3245C80.0262 28.8772 80.1063 30.383 80.1735 30.6707C80.2488 30.9925 80.5943 31.3182 81.072 31.5176C81.499 31.6958 82.4113 31.8415 83.0995 31.8415H84.3507V30.8252C84.3507 29.9008 84.3011 29.8088 83.8038 29.8088C83.503 29.8088 83.0959 29.7472 82.8991 29.6718C82.6017 29.5579 82.5414 29.0995 82.5414 26.9616V24.3885H83.446H84.3507V23.4851V22.5817H83.446H82.5414V21.2266V19.8715H81.2975H80.0536V21.2266ZM56.5616 22.6013C56.1423 22.7296 55.5107 23.0476 55.1581 23.308C54.8055 23.5684 54.4106 24.0856 54.2808 24.4573C54.1512 24.8291 54.0449 25.2198 54.0449 25.3255C54.0449 25.4312 54.601 25.5177 55.2809 25.5177C56.3323 25.5177 56.5567 25.4418 56.7849 25.0095C56.9321 24.7299 57.1648 24.4266 57.3016 24.3354C57.4385 24.2441 57.9118 24.168 58.3533 24.166C58.795 24.1642 59.2783 24.2846 59.4276 24.4336C59.5768 24.5827 59.699 24.9323 59.699 25.2108C59.699 25.4892 59.5816 25.7894 59.438 25.8779C59.2944 25.9667 58.2567 26.2235 57.1322 26.4487C55.5844 26.7587 54.9468 26.9986 54.5097 27.4354C54.0327 27.9115 53.9318 28.2252 53.9318 29.2311C53.9318 30.2118 54.0395 30.5646 54.4825 31.0354C54.7854 31.3573 55.4229 31.7256 55.8994 31.8537C56.3757 31.9818 57.1456 32.0201 57.6104 31.9391C58.0749 31.858 58.7857 31.603 59.1901 31.3724C59.796 31.0271 59.9251 31.0115 59.9251 31.2846C59.9251 31.5371 60.2338 31.6157 61.2256 31.6161L62.526 31.6166L62.4129 27.8105C62.3288 24.9781 62.2173 23.9056 61.9771 23.617C61.7996 23.4037 61.3594 23.0772 60.9989 22.8911C60.6384 22.7047 59.6641 22.511 58.8339 22.4601C58.0036 22.4093 56.9812 22.4728 56.5616 22.6013ZM67.9245 22.681C67.5353 22.8504 67.1476 23.1004 67.063 23.2368C66.9787 23.3735 66.8138 23.4851 66.6966 23.4851C66.5795 23.4851 66.4838 23.2818 66.4838 23.0334C66.4838 22.642 66.333 22.5817 65.353 22.5817H64.2222V28.7925V35.0034H65.4661H66.71V32.9707C66.71 31.8528 66.7993 30.9381 66.9086 30.9381C67.0176 30.9381 67.2331 31.0899 67.3871 31.2753C67.5411 31.4607 68.0627 31.7186 68.5455 31.8485C69.1634 32.0147 69.6933 32.0125 70.3315 31.8406C70.8307 31.7064 71.5928 31.2864 72.0253 30.9074C72.5472 30.4496 72.9263 29.8319 73.1531 29.069C73.3411 28.437 73.4949 27.6012 73.4949 27.2116C73.4949 26.822 73.3449 25.9992 73.1617 25.3831C72.9625 24.713 72.5251 23.9693 72.073 23.5316C71.6571 23.1291 70.968 22.7 70.5416 22.5778C70.1151 22.4556 69.511 22.3599 69.1994 22.3646C68.8875 22.3696 68.3139 22.5119 67.9245 22.681ZM87.7702 22.6015C87.3496 22.7303 86.7731 22.9877 86.4888 23.1738C86.2047 23.3597 85.8108 23.9144 85.6138 24.4065C85.4166 24.8984 85.2553 25.3497 85.2553 25.4093C85.2553 25.4689 85.8659 25.5177 86.6123 25.5177C87.5981 25.5177 87.9693 25.4346 87.9693 25.2139C87.9693 25.0468 88.1554 24.7419 88.3829 24.5364C88.6104 24.3309 89.1677 24.1626 89.6216 24.1626C90.2628 24.1626 90.5335 24.295 90.8363 24.7564C91.2129 25.3302 91.2088 25.3639 90.7187 25.7603C90.4396 25.9859 89.7324 26.2318 89.1469 26.3068C88.5613 26.3816 87.6569 26.5507 87.1372 26.6826C86.6173 26.8145 85.9557 27.1736 85.6672 27.4806C85.2494 27.9246 85.1422 28.292 85.1422 29.281C85.1422 30.385 85.2202 30.593 85.8422 31.1479C86.2515 31.5131 86.9382 31.8359 87.4959 31.9248C88.0219 32.0089 88.8746 31.9637 89.3968 31.8243C89.9179 31.6852 90.4821 31.4582 90.6511 31.3198C90.884 31.1289 91.0258 31.1603 91.2373 31.449C91.4431 31.7302 91.8029 31.8167 92.6117 31.7792L93.7072 31.7286L93.6498 28.0021C93.6068 25.2144 93.51 24.1484 93.2653 23.7705C93.0857 23.4927 92.6922 23.1043 92.391 22.9073C92.0637 22.693 91.1785 22.5125 90.189 22.4583C89.2792 22.4084 88.1907 22.4728 87.7702 22.6015ZM74.8518 27.0743C74.8518 31.5474 74.8541 31.5671 75.3607 31.6848C75.6405 31.7498 76.124 31.7737 76.435 31.7381C76.7459 31.7024 77.0766 31.6604 77.17 31.6446C77.2634 31.6285 77.3396 29.583 77.3396 27.0986V22.5817H76.0957H74.8518V27.0743ZM70.057 24.8465C70.3277 25.0983 70.6135 25.5604 70.6923 25.8732C70.771 26.186 70.7877 27.0135 70.7298 27.7121C70.6443 28.7392 70.5073 29.0825 70.0115 29.5082C69.6745 29.7978 69.1433 30.0347 68.8309 30.0347C68.5188 30.0347 68.0676 29.9301 67.8284 29.8021C67.5889 29.6742 67.2284 29.2515 67.0271 28.8625C66.7695 28.365 66.6892 27.7656 66.7561 26.8396C66.8276 25.8535 66.9852 25.3815 67.3855 24.9562C67.7662 24.5515 68.1561 24.3885 68.7423 24.3885C69.2559 24.3885 69.7496 24.5603 70.057 24.8465ZM59.699 28.351C59.699 28.9 59.5244 29.326 59.1437 29.7061C58.8384 30.011 58.3872 30.2605 58.1409 30.2605C57.8944 30.2605 57.4405 30.1648 57.1322 30.0476C56.8238 29.9306 56.5094 29.6399 56.4338 29.4019C56.3581 29.1638 56.3567 28.8117 56.4307 28.6191C56.5046 28.4266 56.8378 28.1624 57.1709 28.0319C57.504 27.9013 58.0819 27.7547 58.4551 27.7062C58.8282 27.6576 59.2609 27.6028 59.4163 27.5842C59.5956 27.5628 59.699 27.843 59.699 28.351ZM91.0598 28.3973C90.9786 28.9066 90.6911 29.4468 90.339 29.7524C90.0169 30.0318 89.5603 30.2605 89.3242 30.2605C89.0883 30.2605 88.6446 30.1465 88.3384 30.0071C88.0321 29.8678 87.7313 29.5625 87.67 29.3287C87.609 29.0949 87.7275 28.6988 87.9338 28.4481C88.1398 28.1974 88.7665 27.904 89.3262 27.7961C89.886 27.6881 90.5353 27.5887 90.7694 27.5752C91.1367 27.5537 91.1762 27.666 91.0598 28.3973Z" fill="#B2BFCD"/>
</svg>
