<svg width="130" height="64" viewBox="0 0 130 64" fill="none" xmlns="http://www.w3.org/2000/svg">
<g clip-path="url(#clip0_4463_152428)">
<g clip-path="url(#clip1_4463_152428)">
<path d="M86.3986 15.9111C86.3986 15.9111 91.3257 13.8881 85.926 9.97699C85.926 9.97699 92.473 10.9885 89.9082 15.9111C89.9082 15.9111 88.221 18.6085 87.0061 18.069C85.791 17.5295 86.3986 15.9111 86.3986 15.9111Z" fill="#B2BFCD" stroke="#B2BFCD" stroke-width="3.29452" stroke-miterlimit="10"/>
<path d="M48.6039 17.2579L68.5802 7.14294L85.4556 14.0886L91.5974 17.9323L84.9813 32.835L80.6635 29.868L81.674 34.7906L81.001 38.904L77.017 42.1408L75.9371 39.1737L79.1786 36.5438L77.152 32.0258L71.2144 31.9584L69.122 38.0274L70.5376 42.5454H67.2321L67.3671 38.0948L63.7225 29.6656H58.3906L56.3638 36.0044L60.0084 42.5454H57.6462L52.7866 34.251L54.2715 27.0358L42.9344 33.779L39.1547 40.5224L39.6253 42.5454H37.6699L37.0605 40.0504L40.9771 30.4748L48.6039 17.2579Z" fill="#B2BFCD"/>
<path fill-rule="evenodd" clip-rule="evenodd" d="M68.5763 7.03999L85.4987 14.005L91.7163 17.896L85.0213 32.9762L80.8022 30.0769L81.7695 34.7886L81.0879 38.9543L76.9739 42.2964L75.8263 39.1431L79.0638 36.5166L77.091 32.1187L71.281 32.0528L69.2207 38.0287L70.6653 42.639H67.1358L67.2729 38.1127L63.661 29.7592H58.4592L56.4656 35.9943L60.1681 42.639H57.5925L52.6877 34.2675L54.137 27.2248L43.004 33.8468L39.2544 40.5365L39.7435 42.639H37.5964L36.9624 40.043L40.8928 30.4336L48.5367 17.187L68.5763 7.03999ZM68.5843 7.2459L48.6713 17.3289L41.0616 30.5162L37.159 40.0577L37.7436 42.4517H39.5074L39.0553 40.5083L42.865 33.7115L54.4062 26.8466L52.8858 34.2348L57.7 42.4517H59.8492L56.2623 36.0146L58.3222 29.572H63.7842L67.4616 38.0768L67.3289 42.4517H70.4101L69.0234 38.026L71.1478 31.8639L77.213 31.9328L79.2938 36.5711L76.048 39.2044L77.0601 41.9851L80.9144 38.8538L81.5788 34.7924L80.525 29.6591L84.9414 32.6939L91.479 17.9685L85.4127 14.1722L68.5843 7.2459Z" fill="#B2BFCD"/>
<path fill-rule="evenodd" clip-rule="evenodd" d="M47.6695 12.6679C46.7638 13.3685 46.3197 14.4685 46.5412 15.4599L46.5413 15.4604C46.8295 16.7848 48.2893 17.7863 49.9226 17.5344L49.9513 17.7195C48.2324 17.9846 46.6701 16.9332 46.3582 15.5005C46.1186 14.4277 46.6007 13.2577 47.5548 12.5198L47.6695 12.6679Z" fill="#B2BFCD"/>
<path d="M48.2036 12.162C48.2036 12.162 49.7241 10.2008 50.5734 10.5361C51.4227 10.8714 48.2036 12.162 48.2036 12.162Z" fill="#B2BFCD"/>
<path fill-rule="evenodd" clip-rule="evenodd" d="M49.3716 11.3302C49.4405 11.2959 49.5093 11.261 49.5769 11.2257C49.8801 11.0675 50.1406 10.9124 50.3036 10.7824C50.217 10.7931 50.1085 10.8281 49.9751 10.8978C49.7807 10.9992 49.5732 11.1539 49.3716 11.3302ZM48.2037 12.162L48.3084 12.4228L47.3469 12.8083L47.9813 11.9899L48.2037 12.162ZM49.7147 10.3997C49.999 10.2513 50.3483 10.1451 50.6768 10.2748C50.7545 10.3054 50.8391 10.3528 50.9035 10.4305C50.9746 10.5164 51.0061 10.6221 50.9953 10.7302C50.9855 10.8278 50.9434 10.9091 50.9024 10.9691C50.8601 11.0309 50.8072 11.0874 50.7522 11.1381C50.5397 11.3341 50.1866 11.5415 49.8372 11.7238C49.4799 11.9103 49.0976 12.085 48.8062 12.2125C48.6601 12.2764 48.5361 12.3288 48.4485 12.3653C48.4046 12.3835 48.3699 12.3978 48.3459 12.4076C48.334 12.4124 48.3247 12.4162 48.3184 12.4187L48.3111 12.4217L48.3084 12.4228C48.3084 12.4228 48.3084 12.4228 48.2037 12.162C47.9813 11.9899 47.9813 11.9899 47.9813 11.9899L47.9829 11.9879L47.9867 11.9831C47.9899 11.9789 47.9946 11.973 48.0007 11.9654C48.0127 11.9502 48.0303 11.9283 48.0527 11.9008C48.0976 11.8458 48.1623 11.7681 48.2425 11.6762C48.4024 11.4929 48.6263 11.2502 48.8793 11.0168C49.1302 10.7856 49.4209 10.553 49.7147 10.3997Z" fill="#B2BFCD"/>
<path d="M80.2697 16.8253C80.2697 16.8253 75.3427 14.8022 80.7423 10.8911C80.7423 10.8911 74.1953 11.9026 76.76 16.8253C76.76 16.8253 78.4475 19.5226 79.6624 18.9831C80.8773 18.4437 80.2697 16.8253 80.2697 16.8253Z" fill="#B2BFCD"/>
<path d="M0.0983887 52.9267H3.7407C4.72121 52.9267 5.45433 53.1274 5.93988 53.529C6.42562 53.9213 6.66849 54.5516 6.66849 55.4202C6.66849 55.9899 6.57507 56.4381 6.38822 56.765C6.21077 57.0919 5.92597 57.3627 5.53366 57.5775C6.44893 57.9324 6.90648 58.6749 6.90648 59.8048C6.90648 61.6166 5.88857 62.5225 3.85273 62.5225H0.0983887V52.9267ZM3.7407 58.3341H1.65336V61.1776H3.76871C4.28227 61.1776 4.66519 61.0703 4.91727 60.8554C5.17875 60.6408 5.30959 60.2718 5.30959 59.7488C5.30959 59.2258 5.16014 58.8615 4.86125 58.6563C4.56236 58.4414 4.18885 58.3341 3.7407 58.3341ZM3.65649 54.2715H1.65336V57.0172H3.71269C4.62778 57.0172 5.08551 56.5455 5.08551 55.6023C5.08551 54.7151 4.60917 54.2715 3.65649 54.2715Z" fill="#B2BFCD"/>
<path d="M15.6799 62.5225V52.9267H17.2349V62.5225H15.6799Z" fill="#B2BFCD"/>
<path d="M29.2625 54.1314C28.0763 54.1314 27.4833 54.547 27.4833 55.3782C27.4833 55.8078 27.6235 56.116 27.9036 56.3027C28.1839 56.4802 28.8001 56.7043 29.7527 56.9751C30.7146 57.2366 31.3918 57.5542 31.7841 57.9277C32.1762 58.292 32.3723 58.8709 32.3723 59.6648C32.3723 60.6735 32.0828 61.4299 31.5038 61.9343C30.9342 62.4292 30.1543 62.6766 29.1644 62.6766C28.3705 62.6766 27.4927 62.5832 26.5308 62.3965L26.0264 62.2984L26.1806 61.0517C27.4413 61.2198 28.4032 61.3038 29.0662 61.3038C30.2244 61.3038 30.8034 60.7902 30.8034 59.7629C30.8034 59.3612 30.6725 59.067 30.4111 58.8803C30.1496 58.6843 29.5612 58.4741 28.6461 58.2499C27.7308 58.0164 27.049 57.6989 26.6009 57.2973C26.1525 56.8958 25.9285 56.2607 25.9285 55.3922C25.9285 54.5237 26.2086 53.8699 26.7689 53.431C27.3385 52.9827 28.1231 52.7586 29.1223 52.7586C29.8415 52.7586 30.6913 52.8426 31.6718 53.0107L32.1623 53.0948L32.0361 54.3555C30.7287 54.2061 29.8041 54.1314 29.2625 54.1314Z" fill="#B2BFCD"/>
<path d="M42.7241 60.4913C43.0416 61.0423 43.6488 61.3179 44.5453 61.3179C45.4418 61.3179 46.0442 61.047 46.3523 60.5052C46.6698 59.9637 46.8287 59.0578 46.8287 57.7876C46.8287 56.5082 46.6653 55.5789 46.3384 54.9999C46.0209 54.4209 45.4231 54.1314 44.5453 54.1314C43.6674 54.1314 43.0651 54.4209 42.7382 54.9999C42.4113 55.5789 42.248 56.5035 42.248 57.7736C42.248 59.0345 42.4066 59.9404 42.7241 60.4913ZM47.5712 61.4998C47.0014 62.2845 45.9929 62.6766 44.5453 62.6766C43.0978 62.6766 42.0844 62.2845 41.5054 61.4998C40.9265 60.706 40.637 59.464 40.637 57.7736C40.637 56.0833 40.9265 54.8272 41.5054 54.0053C42.0938 53.1835 43.107 52.7726 44.5453 52.7726C45.9835 52.7726 46.992 53.1835 47.5712 54.0053C48.1502 54.8178 48.4397 56.0739 48.4397 57.7736C48.4397 59.4734 48.1502 60.7154 47.5712 61.4998Z" fill="#B2BFCD"/>
<path d="M57.2544 62.5225V52.9267H59.9722L62.8859 61.1496H63.0961V52.9267H64.651V62.5225H61.9894L59.0056 54.2855H58.8094V62.5225H57.2544Z" fill="#B2BFCD"/>
<path d="M83.9446 62.5225V52.9267H89.8981V54.2855H85.4996V57.5215H89.1558V58.8803H85.4996V62.5225H83.9446Z" fill="#B2BFCD"/>
<path d="M99.8486 59.4546C99.8486 60.6968 100.502 61.3179 101.81 61.3179C103.117 61.3179 103.771 60.6968 103.771 59.4546V52.9267H105.34V59.4266C105.34 60.5567 105.041 61.3831 104.443 61.9061C103.855 62.4198 102.972 62.6766 101.796 62.6766C100.628 62.6766 99.7505 62.4198 99.1621 61.9061C98.5737 61.3831 98.2795 60.5567 98.2795 59.4266V52.9267H99.8486V59.4546Z" fill="#B2BFCD"/>
<path d="M114.479 62.5225V52.9267H117.196L120.11 61.1496H120.32V52.9267H121.876V62.5225H119.214L116.23 54.2855H116.034V62.5225H114.479Z" fill="#B2BFCD"/>
</g>
</g>
<defs>
<clipPath id="clip0_4463_152428">
<rect width="129.458" height="64" fill="white" transform="translate(0.0983887)"/>
</clipPath>
<clipPath id="clip1_4463_152428">
<rect width="138.24" height="59.2715" fill="white" transform="translate(0.0983887 7.03999)"/>
</clipPath>
</defs>
</svg>
