<svg width="104" height="46" viewBox="0 0 104 46" fill="none" xmlns="http://www.w3.org/2000/svg">
<path d="M64.7253 7.93328C64.7253 7.93328 68.4206 6.41601 64.3708 3.48267C64.3708 3.48267 69.2811 4.24131 67.3575 7.93328C67.3575 7.93328 66.0921 9.95627 65.1809 9.55167C64.2696 9.14708 64.7253 7.93328 64.7253 7.93328Z" fill="#B2BFCD" stroke="#B2BFCD" stroke-width="3.29452" stroke-miterlimit="10"/>
<path d="M36.3792 8.94342L51.3614 1.35718L64.018 6.56641L68.6243 9.44917L63.6622 20.6262L60.4239 18.401L61.1817 22.0929L60.677 25.178L57.689 27.6056L56.8791 25.3802L59.3102 23.4079L57.7903 20.0193L53.337 19.9688L51.7677 24.5205L52.8295 27.9091H50.3504L50.4516 24.5711L47.7181 18.2492H43.7192L42.1991 23.0033L44.9326 27.9091H43.1609L39.5162 21.6883L40.6299 16.2768L32.1271 21.3342L29.2923 26.3918L29.6453 27.9091H28.1787L27.7217 26.0378L30.6591 18.8561L36.3792 8.94342Z" fill="#B2BFCD"/>
<path fill-rule="evenodd" clip-rule="evenodd" d="M51.3584 1.28003L64.0502 6.50379L68.7134 9.42205L63.6921 20.7322L60.5278 18.5577L61.2533 22.0915L60.7421 25.2157L57.6566 27.7224L56.7959 25.3574L59.224 23.3875L57.7444 20.0891L53.3869 20.0396L51.8417 24.5216L52.9251 27.9793H50.278L50.3808 24.5846L47.6719 18.3195H43.7705L42.2754 22.9958L45.0522 27.9793H43.1205L39.4419 21.7007L40.5289 16.4187L32.1792 21.3851L29.3669 26.4024L29.7337 27.9793H28.1234L27.6479 26.0323L30.5958 18.8253L36.3287 8.89028L51.3584 1.28003ZM51.3644 1.43446L36.4296 8.99668L30.7223 18.8872L27.7954 26.0433L28.2339 27.8388H29.5567L29.2177 26.3813L32.0749 21.2836L40.7308 16.135L39.5905 21.6761L43.2012 27.8388H44.813L42.1229 23.011L43.6678 18.1791H47.7643L50.5223 24.5576L50.4229 27.8388H52.7338L51.6937 24.5195L53.287 19.898L57.8359 19.9496L59.3965 23.4284L56.9621 25.4033L57.7212 27.4888L60.612 25.1404L61.1103 22.0944L60.3199 18.2444L63.6322 20.5205L68.5354 9.47644L63.9857 6.62916L51.3644 1.43446Z" fill="#B2BFCD"/>
<path fill-rule="evenodd" clip-rule="evenodd" d="M35.6785 5.50097C34.9993 6.02641 34.6662 6.85145 34.8323 7.595L34.8324 7.59539C35.0485 8.58867 36.1434 9.33979 37.3684 9.15086L37.3898 9.28971C36.1007 9.48852 34.929 8.69999 34.695 7.62542C34.5154 6.82087 34.8769 5.94335 35.5925 5.38989L35.6785 5.50097Z" fill="#B2BFCD"/>
<path d="M36.0789 5.12164C36.0789 5.12164 37.2192 3.65074 37.8562 3.90222C38.4931 4.15368 36.0789 5.12164 36.0789 5.12164Z" fill="#B2BFCD"/>
<path fill-rule="evenodd" clip-rule="evenodd" d="M36.9548 4.49773C37.0065 4.47201 37.058 4.44583 37.1087 4.41936C37.3362 4.30067 37.5316 4.18432 37.6538 4.08684C37.5889 4.09491 37.5075 4.12114 37.4074 4.17337C37.2616 4.24943 37.106 4.36544 36.9548 4.49773ZM36.0788 5.12156L36.1574 5.31713L35.4363 5.60624L35.9121 4.99251L36.0788 5.12156ZM37.2121 3.7998C37.4253 3.68851 37.6873 3.60889 37.9337 3.70615C37.9919 3.72913 38.0554 3.76466 38.1037 3.82295C38.157 3.88736 38.1807 3.96661 38.1726 4.04769C38.1652 4.12091 38.1336 4.18191 38.1029 4.22691C38.0712 4.27323 38.0315 4.31561 37.9902 4.35361C37.8308 4.50061 37.5661 4.65618 37.304 4.79293C37.036 4.93278 36.7493 5.0638 36.5307 5.15942C36.4212 5.20735 36.3282 5.24664 36.2624 5.27401C36.2296 5.28768 36.2035 5.29839 36.1855 5.30572C36.1766 5.30938 36.1696 5.3122 36.1649 5.31411L36.1594 5.31632L36.1574 5.31713C36.1574 5.31713 36.1574 5.31713 36.0788 5.12156C35.9121 4.99251 35.9121 4.99251 35.9121 4.99251L35.9133 4.99098L35.9161 4.98736C35.9185 4.98426 35.9221 4.97981 35.9266 4.97411C35.9356 4.96272 35.9488 4.94631 35.9656 4.92567C35.9993 4.88443 36.0478 4.82616 36.108 4.75721C36.2279 4.61972 36.3958 4.43769 36.5856 4.26269C36.7737 4.08923 36.9917 3.91478 37.2121 3.7998Z" fill="#B2BFCD"/>
<path d="M60.1286 8.61907C60.1286 8.61907 56.4334 7.1018 60.483 4.16846C60.483 4.16846 55.5728 4.9271 57.4964 8.61907C57.4964 8.61907 58.7619 10.6421 59.6731 10.2375C60.5843 9.83287 60.1286 8.61907 60.1286 8.61907Z" fill="#B2BFCD"/>
<path d="M0 35.6951H2.73173C3.46711 35.6951 4.01696 35.8457 4.38112 36.1468C4.74543 36.441 4.92758 36.9138 4.92758 37.5652C4.92758 37.9925 4.85751 38.3287 4.71737 38.5738C4.58428 38.819 4.37069 39.0221 4.07645 39.1832C4.76291 39.4494 5.10607 40.0062 5.10607 40.8537C5.10607 42.2125 4.34263 42.8919 2.81576 42.8919H0V35.6951ZM2.73173 39.7506H1.16623V41.8833H2.75274C3.13791 41.8833 3.4251 41.8028 3.61416 41.6417C3.81027 41.4807 3.9084 41.2039 3.9084 40.8117C3.9084 40.4195 3.79631 40.1462 3.57215 39.9923C3.34798 39.8311 3.06784 39.7506 2.73173 39.7506ZM2.66857 36.7037H1.16623V38.7629H2.71073C3.39705 38.7629 3.74034 38.4092 3.74034 37.7018C3.74034 37.0364 3.38309 36.7037 2.66857 36.7037Z" fill="#B2BFCD"/>
<path d="M11.6863 42.8919V35.6951H12.8525V42.8919H11.6863Z" fill="#B2BFCD"/>
<path d="M21.8731 36.5987C20.9835 36.5987 20.5387 36.9104 20.5387 37.5338C20.5387 37.856 20.6438 38.0871 20.8539 38.2272C21.0641 38.3603 21.5263 38.5284 22.2408 38.7315C22.9622 38.9276 23.47 39.1658 23.7643 39.446C24.0584 39.7191 24.2054 40.1534 24.2054 40.7487C24.2054 41.5053 23.9883 42.0726 23.5541 42.4508C23.1269 42.8221 22.5419 43.0076 21.7995 43.0076C21.2041 43.0076 20.5457 42.9375 19.8243 42.7975L19.446 42.7239L19.5616 41.7889C20.5072 41.915 21.2286 41.978 21.7259 41.978C22.5945 41.978 23.0287 41.5928 23.0287 40.8223C23.0287 40.521 22.9306 40.3004 22.7345 40.1604C22.5384 40.0134 22.0971 39.8557 21.4108 39.6875C20.7243 39.5124 20.213 39.2743 19.8769 38.9732C19.5406 38.672 19.3726 38.1957 19.3726 37.5443C19.3726 36.8929 19.5826 36.4026 20.0029 36.0734C20.4301 35.7372 21.0186 35.5691 21.7679 35.5691C22.3073 35.5691 22.9447 35.6321 23.6801 35.7582L24.0479 35.8212L23.9533 36.7668C22.9728 36.6547 22.2793 36.5987 21.8731 36.5987Z" fill="#B2BFCD"/>
<path d="M31.9692 41.3684C32.2073 41.7816 32.6627 41.9883 33.335 41.9883C34.0074 41.9883 34.4593 41.7852 34.6903 41.3788C34.9285 40.9727 35.0476 40.2933 35.0476 39.3407C35.0476 38.3811 34.9251 37.6841 34.6799 37.2499C34.4418 36.8156 33.9934 36.5985 33.335 36.5985C32.6766 36.5985 32.2249 36.8156 31.9797 37.2499C31.7346 37.6841 31.6121 38.3776 31.6121 39.3301C31.6121 40.2758 31.731 40.9552 31.9692 41.3684ZM35.6045 42.1248C35.1772 42.7133 34.4208 43.0074 33.335 43.0074C32.2494 43.0074 31.4894 42.7133 31.0552 42.1248C30.6209 41.5294 30.4038 40.5979 30.4038 39.3301C30.4038 38.0624 30.6209 37.1203 31.0552 36.5039C31.4965 35.8875 32.2564 35.5793 33.335 35.5793C34.4137 35.5793 35.1701 35.8875 35.6045 36.5039C36.0387 37.1133 36.2558 38.0554 36.2558 39.3301C36.2558 40.605 36.0387 41.5365 35.6045 42.1248Z" fill="#B2BFCD"/>
<path d="M42.8669 42.8919V35.6951H44.9053L47.0906 41.8623H47.2482V35.6951H48.4144V42.8919H46.4182L44.1804 36.7142H44.0332V42.8919H42.8669Z" fill="#B2BFCD"/>
<path d="M62.8848 42.8919V35.6951H67.3499V36.7142H64.051V39.1412H66.7932V40.1603H64.051V42.8919H62.8848Z" fill="#B2BFCD"/>
<path d="M74.8128 40.591C74.8128 41.5227 75.303 41.9885 76.2837 41.9885C77.2642 41.9885 77.7546 41.5227 77.7546 40.591V35.6951H78.9312V40.57C78.9312 41.4176 78.7071 42.0374 78.2589 42.4296C77.8176 42.8149 77.1557 43.0075 76.2731 43.0075C75.3976 43.0075 74.7392 42.8149 74.2979 42.4296C73.8566 42.0374 73.636 41.4176 73.636 40.57V35.6951H74.8128V40.591Z" fill="#B2BFCD"/>
<path d="M85.7854 42.8919V35.6951H87.8231L90.0092 41.8623H90.1664V35.6951H91.3333V42.8919H89.337L87.0987 36.7142H86.9516V42.8919H85.7854Z" fill="#B2BFCD"/>
<path d="M100.731 42.8919H98.2412V35.6951H100.731C101.838 35.6951 102.594 35.9752 103.001 36.5356C103.408 37.0959 103.61 37.975 103.61 39.1727C103.61 39.7821 103.568 40.3003 103.483 40.7277C103.408 41.1479 103.267 41.5296 103.063 41.8729C102.665 42.5523 101.887 42.8919 100.731 42.8919ZM102.402 39.1727C102.402 38.3042 102.294 37.6773 102.077 37.292C101.858 36.9068 101.411 36.7142 100.731 36.7142H99.4081V41.8623H100.731C101.425 41.8623 101.887 41.6067 102.119 41.0953C102.23 40.8362 102.304 40.5596 102.338 40.2654C102.38 39.9711 102.402 39.607 102.402 39.1727Z" fill="#B2BFCD"/>
</svg>
