<svg width="130" height="64" viewBox="0 0 130 64" fill="none" xmlns="http://www.w3.org/2000/svg">
<g clip-path="url(#clip0_4463_152455)">
<path fill-rule="evenodd" clip-rule="evenodd" d="M11.9553 23.8497C11.9553 27.5242 11.9914 28.5571 12.1201 28.5605C12.2107 28.5629 15.9018 29.2724 20.3227 30.137C24.7436 31.0017 28.4052 31.6818 28.4595 31.6486C28.5138 31.6153 28.5583 29.5326 28.5583 27.0204C28.5583 23.4878 28.521 22.4384 28.3936 22.3902C28.3031 22.3558 24.7008 21.6426 20.3886 20.8053C16.0764 19.9678 12.4148 19.2514 12.2518 19.2129L11.9553 19.1432V23.8497ZM5.07302 22.4396L0.365022 25.5748L0.362255 34.95L0.359619 44.325L2.7938 42.7015L5.22811 41.078L5.23154 36.4089L5.23509 31.7399L7.60695 30.1462L9.9788 28.5526V23.9168C9.9788 21.3669 9.93426 19.2861 9.87997 19.2926C9.82568 19.2991 7.66255 20.7153 5.07302 22.4396ZM102.646 20.8106C101.705 21.0654 101.045 21.4251 100.552 21.9524C99.8338 22.7208 99.6518 23.2105 99.6498 24.3822C99.6482 25.293 99.6973 25.5263 99.9974 26.0386C100.329 26.604 100.753 27.0039 101.375 27.3369C101.528 27.4187 102.359 27.6406 103.22 27.8299C105.262 28.2786 105.452 28.3609 105.709 28.9056C105.988 29.4968 105.839 29.9781 105.251 30.3781C104.903 30.6153 104.63 30.6763 103.912 30.6763C102.846 30.6763 101.981 30.381 101.026 29.6911L100.36 29.2098L99.938 29.505C99.7061 29.6675 99.2612 30.0071 98.9496 30.2597L98.383 30.7191L98.9364 31.2861C99.5756 31.9409 100.766 32.6165 101.739 32.8772C103.351 33.3089 105.941 32.9844 107.061 32.2104C107.948 31.5981 108.543 30.4298 108.541 29.3066C108.54 28.255 108.114 27.3045 107.386 26.7244C106.687 26.1675 106.271 26.0023 104.324 25.508C102.585 25.0666 102.36 24.9204 102.353 24.226C102.346 23.4986 102.941 23.0988 104.047 23.0883C104.925 23.08 105.607 23.2867 106.477 23.8248L107.115 24.2197L107.924 23.4397C108.369 23.0107 108.764 22.6402 108.802 22.6163C108.839 22.5925 108.663 22.4008 108.41 22.1903C106.83 20.8771 104.479 20.3142 102.646 20.8106ZM57.6794 26.8336V32.7964H58.8653H60.0512V28.8874C60.0512 26.7375 60.0956 24.9824 60.1501 24.9871C60.2045 24.9919 60.5227 25.4241 60.8575 25.9478C61.1922 26.4715 62.3389 28.2265 63.4056 29.8481L65.3451 32.7964H66.7172H68.0892V26.8336V20.8708H66.9033H65.7173V24.7798C65.7173 26.9297 65.6729 28.6878 65.6185 28.6866C65.5641 28.6852 64.3717 26.9262 62.9685 24.7776L60.4174 20.8708H59.0483H57.6794V26.8336ZM34.4879 26.8999V32.7964H35.7397H36.9916V30.345V27.8936H39.3634H41.7353V26.7673V25.641H39.3634H36.9916V24.4485V23.2559H39.6269H42.2623V22.1296V21.0034H38.3751H34.4879V26.8999ZM45.4248 26.8999V32.7964H49.5756H53.7263V31.6727V30.5489L50.8603 30.5133L47.9943 30.4775L47.9566 29.1856L47.9189 27.8936H50.2955H52.6721V26.7673V25.641H50.3003H47.9284V24.4485V23.2559H50.5638H53.1992V22.1296V21.0034H49.312H45.4248V26.8999ZM72.5693 26.8999V32.7964H75.7304C79.1804 32.7964 79.6724 32.7117 80.6707 31.9459C82.1764 30.7911 82.2149 27.7914 80.7379 26.7155L80.2447 26.3562L80.6808 25.8776C81.9196 24.5183 81.3777 22.3238 79.5687 21.3734L78.8642 21.0034H75.7168H72.5693V26.8999ZM85.351 24.8882C85.351 29.1722 85.417 29.6542 86.1668 30.8415C86.623 31.5641 87.2186 32.0705 88.2499 32.6128C88.8997 32.9544 89.104 32.9939 90.2265 32.9945C91.3074 32.995 91.5804 32.947 92.2261 32.6426C93.2254 32.1715 94.0466 31.3848 94.5894 30.3784L95.0361 29.55L95.0757 25.2767L95.1155 21.0034H93.9284H92.7413L92.7028 24.8791C92.6672 28.4457 92.6431 28.7971 92.4007 29.2832C91.9271 30.2324 90.6861 30.8109 89.6977 30.5432C89.0531 30.3687 88.2732 29.7047 88.0326 29.1257C87.897 28.7992 87.8546 27.7815 87.8546 24.8503V21.0034H86.6028H85.351V24.8882ZM112.627 26.8999V32.7964H113.81H114.993L115.029 30.3119L115.065 27.8274L117.404 27.7912L119.743 27.755V30.2757V32.7964H120.995H122.246V26.8999V21.0034H120.995H119.743V23.259V25.5146L117.404 25.4785L115.065 25.4423L115.029 23.2228L114.993 21.0034H113.81H112.627V26.8999ZM126.595 26.8999V32.7964H127.847H129.098V26.8999V21.0034H127.847H126.595V26.8999ZM78.2427 23.3924C78.628 23.5997 78.9246 24.2733 78.8271 24.7196C78.781 24.931 78.5629 25.2564 78.3424 25.443C77.9579 25.7683 77.8824 25.7804 76.4745 25.7447L75.0071 25.7073L74.9691 24.4816L74.9313 23.2559H76.4602C77.3012 23.2559 78.1033 23.3173 78.2427 23.3924ZM78.5824 27.8634C79.171 28.343 79.3464 29.2865 78.9521 29.8525C78.562 30.4127 78.0901 30.5438 76.4631 30.5438H74.9412V29.0862V27.6286L76.6213 27.6315C78.0138 27.6341 78.3494 27.6737 78.5824 27.8634ZM7.07987 36.4016V41.0846L15.1508 42.6493C19.5898 43.5098 23.3253 44.2427 23.4522 44.2781C23.6687 44.3383 23.6828 44.0568 23.6828 39.6914C23.6828 36.0911 23.6457 35.0271 23.5181 34.9807C23.4276 34.9477 19.7956 34.2307 15.4472 33.3875C11.0988 32.5443 7.43723 31.8238 7.31046 31.7864C7.09397 31.7225 7.07987 32.0038 7.07987 36.4016ZM37.5845 37.0228C35.5117 37.5509 34.161 39.8895 34.6205 42.1554C34.9703 43.8811 35.9099 45.0367 37.3006 45.452C38.7919 45.8973 40.1453 45.5756 41.1536 44.536C41.5222 44.1559 41.8869 43.6623 41.9643 43.4393L42.105 43.0336L41.2668 42.6993L40.4288 42.3649L40.2818 42.8125C40.0034 43.6612 38.8944 44.1924 37.9406 43.934C36.8545 43.64 36.2565 42.4363 36.4106 40.8543C36.5572 39.3488 37.2448 38.6281 38.5352 38.6271C39.1111 38.6267 39.2953 38.691 39.672 39.0235C39.9192 39.2418 40.1954 39.5996 40.2855 39.8185C40.3758 40.0375 40.462 40.2167 40.477 40.2167C40.4921 40.2167 40.8556 40.072 41.2846 39.8952C42.156 39.5363 42.1831 39.445 41.6644 38.6185C41.3064 38.0483 40.6787 37.5291 40.0151 37.254C39.4443 37.0175 38.1054 36.89 37.5845 37.0228ZM51.7787 41.2466C51.0381 43.4945 50.4321 45.3749 50.4321 45.4253C50.4321 45.4757 50.8378 45.5169 51.3336 45.5169H52.2351L52.4757 44.7179L52.7163 43.9187L54.2424 43.956L55.7687 43.9931L56.0085 44.755L56.2484 45.5169H57.1615C57.6638 45.5169 58.071 45.4721 58.0665 45.4175C58.0619 45.3629 57.4531 43.4995 56.7135 41.2767L55.3687 37.2353L54.247 37.1974L53.1253 37.1596L51.7787 41.2466ZM67.035 41.2767V45.3844H67.8915H68.748V43.9286V42.4727L69.979 42.4925C71.055 42.5097 71.2825 42.4719 71.7854 42.1926C72.6447 41.7154 73.1628 40.7993 73.1603 39.7624C73.1577 38.7615 72.7887 38.0982 71.93 37.5505C71.334 37.1704 71.324 37.169 69.1834 37.169H67.035V41.2767ZM82.2196 41.3098L82.2544 45.4506L83.078 45.4901L83.9015 45.5295V41.3493V37.169H83.0432H82.1848L82.2196 41.3098ZM92.7301 37.9641V38.7591H93.916H95.1019V42.0717V45.3844H95.9584H96.8149V42.0717V38.7591H98.0009H99.1868V37.9641V37.169H95.9584H92.7301V37.9641ZM109.79 37.3347C109.683 37.6197 107.093 45.4438 107.093 45.4813C107.093 45.5009 107.503 45.5169 108.004 45.5169H108.916L109.168 44.755L109.42 43.9931L110.956 43.9557L112.492 43.9185L112.713 44.7176L112.934 45.5169H113.835C114.4 45.5169 114.736 45.4628 114.736 45.3717C114.736 45.2918 114.134 43.4135 113.399 41.1977L112.062 37.169H110.957C110.194 37.169 109.833 37.2203 109.79 37.3347ZM123.696 41.2767V45.3844H126.397H129.098V44.5894V43.7943H127.254H125.409V40.4817V37.169H124.552H123.696V41.2767ZM71.1985 39.0663C71.3748 39.2723 71.5152 39.6061 71.5152 39.8192C71.5152 40.0322 71.3748 40.366 71.1985 40.5721C70.9089 40.9106 70.7905 40.9465 69.815 40.991L68.748 41.0398V39.8192V38.5985L69.815 38.6473C70.7905 38.6918 70.9089 38.7277 71.1985 39.0663ZM54.7727 40.6142C55.003 41.3794 55.2215 42.1098 55.2584 42.2374C55.3182 42.4446 55.2123 42.4693 54.2622 42.4693C53.6775 42.4693 53.1992 42.4233 53.1992 42.3671C53.1992 42.3111 53.4064 41.6104 53.6594 40.8102C53.9125 40.0101 54.12 39.2689 54.1205 39.1632C54.1229 38.7317 54.3751 39.2927 54.7727 40.6142ZM111.966 42.3036C111.968 42.4228 111.668 42.4693 110.9 42.4693C110.1 42.4693 109.848 42.4277 109.895 42.3036C109.929 42.2126 110.181 41.4225 110.454 40.5479L110.951 38.9579L111.457 40.5479C111.735 41.4225 111.964 42.2126 111.966 42.3036Z" fill="#B2BFCD"/>
</g>
<defs>
<clipPath id="clip0_4463_152455">
<rect width="128.739" height="64" fill="white" transform="translate(0.359619)"/>
</clipPath>
</defs>
</svg>
