<svg width="131" height="64" viewBox="0 0 131 64" fill="none" xmlns="http://www.w3.org/2000/svg">
<g clip-path="url(#clip0_4463_152483)">
<path fill-rule="evenodd" clip-rule="evenodd" d="M9.49441 26.4526V44.1187H10.9608H12.4271V26.4526V8.78658H10.9608H9.49441V26.4526ZM22.133 24.4975V30.8517H23.1424H24.1519L24.1898 28.1634L24.2278 25.4751H27.6493H31.0708L31.1087 28.1634L31.1466 30.8517H32.1184H33.0901L33.1278 24.4975L33.1656 18.1432L32.1531 18.1433H31.1406V20.9364V23.7294H27.6493H24.1579V20.9364V18.1433H23.1455H22.133V24.4975ZM38.3671 24.4975L35.1909 30.8517H36.3542H37.5175L39.5959 26.451C40.7391 24.0305 41.7311 22.0692 41.8006 22.0923C41.8701 22.1155 42.5999 23.5773 43.4226 25.3409C44.2452 27.1045 45.1811 29.066 45.5025 29.6996L46.0865 30.8517H47.2022C47.8158 30.8517 48.3179 30.8129 48.3179 30.7653C48.3179 30.7178 46.8881 27.8595 45.1408 24.4137C43.0866 20.3628 41.8894 18.1475 41.7535 18.1458C41.6151 18.1441 40.4589 20.3127 38.3671 24.4975ZM47.9092 19.0511L48.6227 19.9588H51.1726C52.7306 19.9588 53.9073 20.0215 54.1974 20.1198C54.4584 20.2084 54.8522 20.4064 55.0725 20.5599C55.2925 20.7133 55.5897 21.0965 55.7327 21.4113C55.8756 21.7261 55.994 22.2309 55.9957 22.5332C55.9974 22.8354 55.8741 23.3381 55.7216 23.6504C55.5691 23.9626 55.2185 24.371 54.9427 24.5578C54.5307 24.8367 54.2063 24.9116 53.1285 24.9768L51.816 25.0561L54.0559 27.9539L56.2958 30.8517H57.489C58.4516 30.8517 58.6677 30.8141 58.6073 30.657C58.5663 30.5501 57.8369 29.5778 56.9864 28.4966C56.1359 27.4154 55.4402 26.4989 55.4402 26.4596C55.4402 26.4205 55.6787 26.2668 55.9701 26.1182C56.2616 25.9694 56.7602 25.5656 57.078 25.2208C57.4459 24.8218 57.7355 24.326 57.8747 23.8569C57.9951 23.4516 58.0936 22.7972 58.0936 22.4027C58.0936 22.0082 58.0011 21.3754 57.8881 20.9967C57.7752 20.6178 57.4876 20.0722 57.2494 19.7841C57.0111 19.496 56.5315 19.0935 56.1837 18.8896C55.8358 18.6857 55.1963 18.4355 54.7624 18.3332C54.2218 18.206 52.908 18.1469 50.5849 18.1455L47.1959 18.1433L47.9092 19.0511ZM60.328 19.0511V19.9588H62.4926H64.6572V25.4053V30.8517H65.7046H66.752V25.4053V19.9588H68.8349H70.9177L70.9646 19.0508L71.0114 18.1428L65.6697 18.143L60.328 18.1433V19.0511ZM73.4554 24.4975V30.8517H74.5028H75.5501V26.7142V22.5769L77.6222 24.7208C79.4041 26.5644 79.7318 26.8456 79.9614 26.7285C80.1083 26.6536 81.0769 25.7125 82.1138 24.6372C83.1507 23.5618 84.0462 22.6611 84.1039 22.6355C84.1616 22.6098 84.2086 24.4481 84.2086 26.7204V30.8517H85.1862H86.1638V24.4975C86.1638 18.3864 86.1538 18.1433 85.9029 18.1433C85.7479 18.1433 84.4649 19.3421 82.74 21.0984L79.838 24.0534L76.91 21.0984C75.16 19.3323 73.8759 18.1433 73.7186 18.1433C73.4646 18.1433 73.4554 18.3658 73.4554 24.4975ZM91.4706 24.3622C89.7424 27.7787 88.3074 30.6365 88.2819 30.7129C88.2534 30.7975 88.6933 30.8517 89.4107 30.8517H90.5861L92.0936 27.6746C92.9225 25.9273 93.8532 23.9477 94.1617 23.2755C94.47 22.6035 94.7673 22.0536 94.8222 22.0536C94.8771 22.0536 95.1744 22.6035 95.4826 23.2755C95.791 23.9477 96.7204 25.9273 97.5481 27.6746L99.0527 30.8517H100.219C100.861 30.8517 101.386 30.8111 101.386 30.7615C101.386 30.7118 99.9563 27.8531 98.2088 24.4088C96.1382 20.3276 94.9588 18.1472 94.8222 18.1485C94.6869 18.1496 93.5 20.35 91.4706 24.3622ZM103.481 24.4975V30.8517H104.526H105.571L105.608 26.6098L105.645 22.3678L110.037 26.6098C112.453 28.9428 114.541 30.8517 114.678 30.8517C114.912 30.8517 114.929 30.4836 114.964 24.4975L115.002 18.1432L113.922 18.1433H112.842L112.805 22.2823L112.768 26.4215L108.438 22.2869C105.434 19.4174 104.013 18.1511 103.795 18.1479L103.481 18.1433V24.4975ZM118.563 24.4883V30.8517H119.611H120.658V26.6505C120.658 24.2588 120.711 22.4693 120.782 22.4959C120.85 22.5214 122.832 24.4119 125.186 26.697C127.847 29.2803 129.57 30.8517 129.74 30.8517C130.009 30.8517 130.015 30.7197 130.015 24.4975V18.1433H128.969H127.924L127.887 22.2885L127.85 26.4338L123.542 22.3234C120.769 19.6785 119.114 18.1974 118.898 18.169L118.563 18.1247V24.4883ZM1.28982 22.8548L0.556641 22.9062V38.8192V54.7323H2.02299H3.48935V38.7421V22.7519L2.75617 22.7777C2.35285 22.7919 1.69313 22.8266 1.28982 22.8548ZM117.586 37.8269C117.317 37.8796 116.96 38.0093 116.793 38.1153C116.625 38.2213 116.421 38.4558 116.339 38.6364C116.256 38.8169 116.189 39.1238 116.189 39.318C116.189 39.5176 116.357 39.8391 116.575 40.0569C116.809 40.2915 117.411 40.5928 118.111 40.8258C118.816 41.0605 119.343 41.325 119.471 41.5079C119.586 41.6723 119.68 41.8899 119.68 41.9915C119.68 42.0932 119.526 42.3305 119.338 42.519C119.064 42.793 118.852 42.8618 118.286 42.8618C117.896 42.8618 117.347 42.7659 117.066 42.6486C116.624 42.4637 116.529 42.4619 116.356 42.6348C116.183 42.8077 116.208 42.8677 116.539 43.0847C116.754 43.2254 117.279 43.3611 117.738 43.3943C118.186 43.4267 118.783 43.4104 119.062 43.3579C119.342 43.3054 119.721 43.1002 119.905 42.9021C120.139 42.6496 120.239 42.3781 120.239 41.9943C120.239 41.6932 120.174 41.3257 120.095 41.1774C120.015 41.0289 119.717 40.7897 119.431 40.6456C119.146 40.5014 118.562 40.2827 118.134 40.1596C117.706 40.0364 117.25 39.8192 117.121 39.6769C116.993 39.5348 116.887 39.2855 116.887 39.1231C116.887 38.9606 117.027 38.7299 117.198 38.6104C117.391 38.4752 117.8 38.3948 118.28 38.3978C118.705 38.4006 119.209 38.4897 119.401 38.5959C119.646 38.7315 119.801 38.7457 119.924 38.6436C120.021 38.5638 120.099 38.4167 120.099 38.3168C120.099 38.217 119.895 38.0733 119.645 37.9973C119.396 37.9215 118.94 37.8306 118.633 37.7952C118.326 37.76 117.854 37.7743 117.586 37.8269ZM52.8915 37.943L50.9713 37.9818V40.6313V43.2808H53.0064C54.8695 43.2808 55.0377 43.2601 54.9948 43.0364C54.9537 42.822 54.7369 42.7871 53.2324 42.7528L51.5168 42.7135L51.5582 41.845L51.5997 40.9765L53.101 40.9369C54.487 40.9003 54.6022 40.8763 54.6022 40.6227C54.6022 40.3662 54.5003 40.3481 53.0596 40.3481H51.5172L51.5584 39.4054L51.5997 38.4628L53.3105 38.4235C54.6711 38.3924 55.0212 38.3441 55.0212 38.1874C55.0212 38.0792 54.9741 37.9711 54.9165 37.9473C54.8588 37.9236 53.9477 37.9216 52.8915 37.943ZM56.5571 40.5925C56.5574 43.1657 56.5691 43.2808 56.83 43.2808C57.067 43.2808 57.1082 43.1664 57.1442 42.408L57.1858 41.5351L58.0295 41.4944L58.8731 41.4534L59.6144 42.3672C60.1544 43.0328 60.4467 43.2808 60.691 43.2808C60.8754 43.2808 61.0263 43.2404 61.0263 43.1911C61.0263 43.1418 60.7435 42.7704 60.3978 42.3658C60.0522 41.9612 59.7694 41.5723 59.7694 41.5015C59.7694 41.4308 59.9318 41.2859 60.1304 41.1796C60.329 41.0733 60.5804 40.8145 60.689 40.6044C60.7977 40.3942 60.8866 39.9504 60.8866 39.618C60.8866 39.2856 60.7891 38.8745 60.67 38.7044C60.5509 38.5343 60.3152 38.316 60.1463 38.2195C59.9719 38.1197 59.1301 38.0137 58.198 37.974L56.5568 37.9042L56.5571 40.5925ZM63.1752 37.9712C63.0131 38.0367 62.7459 38.2613 62.5817 38.47C62.4175 38.6788 62.2831 39.0345 62.2831 39.2605C62.2831 39.5229 62.4225 39.8107 62.6689 40.0569C62.9021 40.2901 63.5029 40.5919 64.1888 40.8204C64.8128 41.0282 65.4248 41.3104 65.5489 41.4474C65.6729 41.5846 65.7745 41.8047 65.7745 41.9365C65.7745 42.0683 65.6201 42.3305 65.4316 42.519C65.1494 42.8014 64.9509 42.8618 64.3075 42.8618C63.8721 42.8618 63.3392 42.7652 63.1042 42.6436C62.773 42.4725 62.6387 42.4613 62.4809 42.5923C62.339 42.71 62.3221 42.8103 62.4238 42.9328C62.503 43.0283 62.8476 43.1847 63.1896 43.2805C63.5318 43.3762 64.1997 43.4265 64.6741 43.3922C65.4291 43.3376 65.5863 43.2742 65.9349 42.8842C66.2265 42.5578 66.3331 42.2947 66.3331 41.9012C66.3331 41.5096 66.2352 41.2659 65.9726 41.0032C65.7676 40.7983 65.1276 40.4815 64.4891 40.2688C63.8714 40.0631 63.248 39.7768 63.1039 39.6327C62.9598 39.4885 62.8418 39.3049 62.8418 39.2246C62.8418 39.1443 62.9961 38.9243 63.1846 38.7358C63.4699 38.4504 63.6629 38.3931 64.3367 38.3938C64.7818 38.3944 65.3186 38.4847 65.5296 38.5948C65.8809 38.778 65.9258 38.7717 66.0605 38.52C66.1884 38.281 66.1433 38.2181 65.7162 38.0396C65.446 37.9268 64.83 37.8384 64.3475 37.8431C63.865 37.848 63.3375 37.9057 63.1752 37.9712ZM68.0061 37.9042C68.0043 37.9042 67.9884 39.114 67.9709 40.5925L67.9391 43.2808H69.9291C71.826 43.2808 71.9192 43.2677 71.9192 43.0015C71.9192 42.7377 71.826 42.7222 70.2433 42.7222H68.5675V41.8144V40.9067H70.0339C71.4071 40.9067 71.5002 40.889 71.5002 40.6274C71.5002 40.3658 71.4071 40.3481 70.0339 40.3481H68.5675V39.3705V38.393H70.2535C71.7844 38.393 71.9352 38.3705 71.8922 38.1486C71.8496 37.93 71.6421 37.9042 69.9272 37.9042C68.8725 37.9042 68.0081 37.9042 68.0061 37.9042ZM74.4016 37.9121C74.3589 37.9549 74.9121 39.1803 75.6311 40.6354C76.3501 42.0904 76.9873 43.2777 77.0472 43.274C77.1071 43.2703 77.7217 42.1028 78.413 40.6798C79.1043 39.2566 79.6927 38.0289 79.7203 37.9515C79.7481 37.8741 79.6224 37.8318 79.441 37.8575C79.1793 37.8945 78.9661 38.192 78.4065 39.3007C78.0189 40.0688 77.5589 41.0332 77.3843 41.4441L77.0668 42.1908L76.0036 40.0126C75.2707 38.5111 74.8688 37.8343 74.7099 37.8343C74.5832 37.8343 74.4445 37.8694 74.4016 37.9121ZM81.0935 37.9237C81.0402 37.9769 80.9966 39.2041 80.9966 40.6507V43.2808H82.8819C83.9188 43.2808 84.8143 43.2808 84.872 43.2808C84.9296 43.2808 84.9767 43.1708 84.9767 43.0364C84.9767 42.819 84.7869 42.7877 83.2594 42.7528L81.5421 42.7135L81.5836 41.845L81.625 40.9765L83.1263 40.9369C84.5033 40.9006 84.6276 40.8749 84.6276 40.6274C84.6276 40.3799 84.5033 40.3542 83.1263 40.3179L81.625 40.2783V39.3705V38.4628L83.3451 38.4235C84.8843 38.3883 85.0605 38.3589 85.0193 38.1442C84.9789 37.9336 84.7407 37.8994 83.0818 37.8655C82.0415 37.8443 81.1467 37.8704 81.0935 37.9237ZM86.5897 40.5063C86.583 43.1337 86.5943 43.2513 86.862 43.3213C87.1322 43.392 87.1415 43.3249 87.1437 41.2776L87.1459 39.161L89.2315 41.3257L91.3171 43.4903L91.3239 40.6623C91.3306 37.9251 91.322 37.8343 91.0516 37.8343C90.7851 37.8343 90.7723 37.9275 90.7723 39.8593C90.7723 40.973 90.7301 41.8843 90.6785 41.8843C90.6269 41.8843 89.6875 40.9574 88.5908 39.8244L86.5968 37.7645L86.5897 40.5063ZM92.7271 38.1451C92.7269 38.4477 92.7697 38.4605 93.6315 38.4161L94.5364 38.3694L94.5746 40.8601C94.6111 43.2448 94.6246 43.3506 94.8921 43.3506C95.1595 43.3506 95.173 43.2448 95.2095 40.8623L95.2477 38.374L96.187 38.408C97.0331 38.4386 97.1265 38.4153 97.1265 38.1731C97.1265 37.9207 96.9919 37.9018 94.927 37.8658L92.7274 37.8272L92.7271 38.1451ZM98.4535 39.8244C98.4536 41.4403 98.4996 41.9058 98.6979 42.3004C98.8321 42.5677 99.1555 42.9292 99.4165 43.1034C99.7714 43.3406 100.092 43.4205 100.688 43.4205C101.283 43.4205 101.602 43.3409 101.951 43.1058C102.208 42.9326 102.528 42.6022 102.663 42.3715C102.863 42.0298 102.912 41.5768 102.931 39.928C102.952 37.9677 102.944 37.9028 102.658 37.8595C102.371 37.816 102.363 37.8607 102.363 39.7169C102.363 41.1311 102.31 41.7223 102.155 42.0224C102.04 42.2443 101.806 42.524 101.635 42.6438C101.464 42.7638 101.071 42.8609 100.761 42.8597C100.452 42.8586 100.042 42.7792 99.8497 42.6832C99.6577 42.5873 99.3907 42.2897 99.2565 42.022C99.0608 41.6319 99.0122 41.1673 99.0121 39.6847C99.0118 37.9275 98.9977 37.8343 98.7325 37.8343C98.4662 37.8343 98.4532 37.9274 98.4535 39.8244ZM104.909 40.5925C104.946 43.2449 104.958 43.3506 105.226 43.3506C105.475 43.3506 105.508 43.2511 105.525 42.4429L105.544 41.5351L106.377 41.4941L107.21 41.453L108.014 42.4367C108.457 42.9778 108.927 43.4205 109.059 43.4205C109.192 43.4205 109.34 43.3802 109.389 43.3309C109.438 43.2818 109.158 42.8391 108.767 42.3471C108.376 41.8552 108.079 41.4365 108.107 41.4167C108.136 41.397 108.337 41.2692 108.555 41.1329C108.772 40.9965 109.044 40.6619 109.158 40.3893C109.29 40.0733 109.333 39.704 109.276 39.37C109.224 39.0618 109.026 38.6908 108.794 38.4688C108.577 38.2611 108.157 38.035 107.86 37.9662C107.564 37.8973 106.77 37.8395 106.096 37.8377L104.871 37.8343L104.909 40.5925ZM111.022 40.6274V43.4281L113.012 43.3893C114.896 43.3527 115.002 43.3357 115.002 43.0713C115.002 42.8093 114.896 42.7896 113.285 42.7528L111.567 42.7135L111.609 41.845L111.65 40.9765L113.152 40.9369C114.538 40.9003 114.653 40.8763 114.653 40.6227C114.653 40.3662 114.551 40.3481 113.11 40.3481H111.568L111.609 39.4169L111.65 38.4857L113.326 38.4742C114.905 38.4635 115.002 38.4466 115.002 38.1835C115.002 37.9191 114.896 37.9021 113.012 37.8655L111.022 37.8267V40.6274ZM123.73 40.6274C123.73 43.3273 123.74 43.4205 124.01 43.4205C124.28 43.4205 124.289 43.3273 124.289 40.6274C124.289 37.9275 124.28 37.8343 124.01 37.8343C123.74 37.8343 123.73 37.9275 123.73 40.6274ZM22.208 40.5925C22.203 43.1895 22.2123 43.2808 22.4821 43.2808C22.748 43.2808 22.7617 43.1857 22.7676 41.2908L22.7736 39.3007L23.7102 40.3149C24.2253 40.8726 24.7161 41.3282 24.8009 41.3273C24.8858 41.3264 25.3461 40.8858 25.824 40.3481C26.3019 39.8104 26.7407 39.3705 26.7992 39.3705C26.8577 39.3705 26.9 40.2503 26.8933 41.3257C26.8823 43.0993 26.9039 43.2808 27.1256 43.2808C27.3501 43.2808 27.3694 43.0622 27.3633 40.5925L27.3564 37.9042L26.1294 39.196C25.4545 39.9064 24.8586 40.4877 24.8052 40.4877C24.7519 40.4877 24.1468 39.9064 23.4607 39.196L22.2131 37.9042L22.208 40.5925ZM29.4648 40.6274V43.2808H31.4199C33.1887 43.2808 33.375 43.2575 33.3752 43.0364C33.3753 42.8176 33.2041 42.792 31.7342 42.792H30.0932L30.0519 41.8494L30.0107 40.9067H31.4833C32.8629 40.9067 32.9561 40.8891 32.9561 40.6274C32.9561 40.3658 32.8629 40.3481 31.4897 40.3481H30.0234V39.3705V38.393H31.6992C33.0957 38.393 33.375 38.358 33.375 38.1835C33.375 38.0072 33.0647 37.974 31.4199 37.974H29.4648V40.6274ZM34.3526 38.1835C34.3526 38.3497 34.5543 38.393 35.3302 38.393H36.3077V40.8369C36.3077 43.1877 36.3183 43.2808 36.587 43.2808C36.8557 43.2808 36.8663 43.1877 36.8663 40.8369V38.393H37.8439C38.6198 38.393 38.8215 38.3497 38.8215 38.1835C38.8215 38.006 38.4802 37.974 36.587 37.974C34.6939 37.974 34.3526 38.006 34.3526 38.1835ZM40.208 40.5632C39.5223 41.9872 38.9611 43.1812 38.9611 43.2166C38.9611 43.2519 39.0807 43.2808 39.2266 43.2808C39.382 43.2808 39.6118 43.0782 39.7805 42.792L40.069 42.3032H41.5447H43.0204L43.3089 42.792C43.5116 43.1356 43.6972 43.2808 43.9336 43.2808C44.2619 43.2808 44.2505 43.2411 43.455 41.6399C43.0069 40.7374 42.4296 39.5434 42.1725 38.9865C41.9152 38.4295 41.6485 37.974 41.5798 37.974C41.5109 37.974 40.8937 39.1391 40.208 40.5632ZM44.4076 38.0532C44.4076 38.0966 44.9686 39.2906 45.6541 40.7066C46.3398 42.1224 46.9366 43.2808 46.9801 43.2808C47.0238 43.2808 47.6572 42.0868 48.3877 40.6274C49.6894 38.0266 49.7087 37.974 49.356 37.974C49.0325 37.974 48.9114 38.1528 48.1543 39.7472C47.6914 40.7224 47.2512 41.6807 47.1763 41.8769C47.0516 42.2037 46.9547 42.056 46.013 40.1037C45.1786 38.374 44.9314 37.974 44.6967 37.974C44.5378 37.974 44.4076 38.0096 44.4076 38.0532ZM59.3813 38.5388C59.667 38.6182 59.9969 38.8203 60.1145 38.988C60.2319 39.1557 60.328 39.492 60.328 39.7353C60.328 39.9784 60.208 40.3259 60.0613 40.5072C59.8255 40.7988 59.6465 40.845 58.5132 40.9067C57.8084 40.9451 57.2056 40.9504 57.1738 40.9183C57.142 40.8863 57.116 40.347 57.116 39.7197C57.116 39.0923 57.1579 38.5372 57.2091 38.4861C57.2603 38.4349 57.6531 38.3934 58.082 38.3938C58.5108 38.3942 59.0954 38.4594 59.3813 38.5388ZM107.6 38.5291C107.908 38.6002 108.269 38.7942 108.403 38.9601C108.538 39.1261 108.648 39.4776 108.648 39.7414C108.648 40.0646 108.536 40.333 108.305 40.5639C107.995 40.8739 107.849 40.9067 106.779 40.9067H105.596L105.551 39.7074C105.526 39.0478 105.532 38.4822 105.564 38.4505C105.596 38.4188 105.942 38.3945 106.332 38.3963C106.722 38.3981 107.293 38.4579 107.6 38.5291ZM42.2099 40.4069C42.4969 41.0536 42.7318 41.6506 42.7318 41.7336C42.7318 41.8295 42.3011 41.8843 41.5447 41.8843C40.8918 41.8843 40.3577 41.8302 40.3577 41.7642C40.3577 41.6981 40.6085 41.1011 40.9152 40.4375C41.2217 39.7738 41.521 39.2309 41.5802 39.2309C41.6394 39.2309 41.9228 39.76 42.2099 40.4069Z" fill="#B2BFCD"/>
</g>
<defs>
<clipPath id="clip0_4463_152483">
<rect width="129.458" height="64" fill="white" transform="translate(0.556641)"/>
</clipPath>
</defs>
</svg>
