<svg width="130" height="64" viewBox="0 0 130 64" fill="none" xmlns="http://www.w3.org/2000/svg">
<g clip-path="url(#clip0_4463_152488)">
<path fill-rule="evenodd" clip-rule="evenodd" d="M0.443359 22.5684V32.8657H2.8151H5.18683V28.7014V24.537L9.23855 24.6496L13.2903 24.7623L13.4029 28.814L13.5156 32.8657H15.6758H17.8361V22.5882V12.3107H15.6758H13.5156L13.4029 16.3624L13.2903 20.4141L9.25239 20.5268L5.2149 20.639L5.10185 16.5739L4.98919 12.5083L2.71627 12.3897L0.443359 12.2711V22.5684ZM28.146 13.2001C27.9575 13.6894 26.2475 17.736 24.3465 22.1929C22.4456 26.6498 20.6454 30.8743 20.3462 31.581L19.8019 32.8657H22.1329H24.4643L25.3466 30.6916L26.2289 28.5175H30.6328H35.0367L35.8368 30.5928L36.6369 32.6681L39.0881 32.7855L41.5396 32.9033L40.1352 29.6232C39.3628 27.8195 37.3934 23.1863 35.7585 19.3271L32.7863 12.3107H30.6379C28.775 12.3107 28.4437 12.4289 28.146 13.2001ZM45.7862 13.1368C43.7252 14.2243 42.7425 15.9687 42.7409 18.5424C42.7386 21.6921 44.1505 23.0191 49.2616 24.671C53.0947 25.9094 53.2145 25.9837 53.2145 27.1222C53.2145 29.5192 49.9305 29.8643 46.2392 27.855L44.3581 26.8312L43.252 28.1452C42.6441 28.8682 42.1464 29.6406 42.1464 29.8623C42.1464 30.5375 44.7399 32.0601 47.0199 32.723C50.9764 33.8729 55.51 32.7993 56.9927 30.3612C58.1501 28.4583 58.3347 26.3782 57.4979 24.6722C56.5472 22.7329 54.8431 21.6454 50.8432 20.4256C47.1286 19.2927 46.2705 18.323 47.7085 16.8846C48.5548 16.0387 50.8772 16.1173 52.9611 17.0628C53.909 17.4929 54.8364 17.8447 55.0222 17.8447C55.5451 17.8447 57.3591 14.9927 57.1014 14.5757C56.9757 14.3725 55.961 13.7812 54.8459 13.2621C52.1848 12.0229 48.0058 11.9652 45.7862 13.1368ZM60.5274 22.5684V32.8657H62.8991H65.2709V28.7014V24.537L69.3226 24.6496L73.3743 24.7623L73.4869 28.814L73.5996 32.8657H75.7599H77.9201V22.5882V12.3107H75.7599H73.5996L73.4869 16.3624L73.3743 20.4141L69.3364 20.5268L65.2989 20.639L65.1859 16.5739L65.0732 12.5083L62.8003 12.3897L60.5274 12.2711V22.5684ZM82.3533 15.5853L79.0957 18.8598L80.6903 20.4173L82.2849 21.9743L87.1169 17.1427L91.9489 12.3107H88.7799H85.6109L82.3533 15.5853ZM93.6084 12.566C93.4586 12.7155 93.3364 17.3439 93.3364 22.8519V32.8657H101.242H109.148V30.8893V28.9128H103.614H98.0799V26.7387V24.5647H102.823H107.567V22.5882V20.6118H102.823H98.0799V18.6464V16.681L103.515 16.5711L108.95 16.4612V14.4848V12.5083L101.415 12.4012C97.2707 12.3423 93.7578 12.4166 93.6084 12.566ZM109.939 12.4949C109.939 12.5961 111.717 15.4746 113.891 18.8915L117.844 25.1042V28.9848V32.8657H120.018H122.193V28.8508V24.8354L125.881 19.0674C127.909 15.8948 129.698 13.0764 129.857 12.8048C130.075 12.4305 129.521 12.3107 127.574 12.3107H125.002L122.529 16.4351C120.425 19.9441 119.99 20.46 119.611 19.8939C119.365 19.5279 118.233 17.672 117.094 15.7695L115.024 12.3107H112.481C111.083 12.3107 109.939 12.3937 109.939 12.4949ZM32.0361 21.3284L33.2077 24.1694H30.6605C29.2596 24.1694 28.1136 24.1022 28.1136 24.0199C28.1136 23.9377 28.3804 23.2262 28.7066 22.4388C29.0327 21.6514 29.5687 20.3572 29.8976 19.5627C30.2265 18.7685 30.5787 18.2017 30.6802 18.3029C30.7814 18.4045 31.3918 19.7658 32.0361 21.3284ZM80.5733 25.2695L79.1135 26.7644L82.1817 29.8153L85.2504 32.8657H88.3977H91.5446L87.0118 28.3199C84.5187 25.8197 82.3786 23.7741 82.256 23.7741C82.1335 23.7741 81.3765 24.4469 80.5733 25.2695ZM72.5837 41.0613C70.0574 41.6937 68.0952 44.9719 68.6075 47.7037C68.7553 48.4919 69.4546 49.7675 70.1614 50.5387C71.2409 51.7167 71.7781 51.9732 73.5154 52.14C74.9985 52.2827 76.0267 52.1393 77.1473 51.6341L78.7107 50.9289V48.4196V45.9103H76.5366C74.6262 45.9103 74.3625 46.0059 74.3625 46.7009C74.3625 47.3408 74.6262 47.4914 75.746 47.4914C77.0023 47.4914 77.1295 47.5946 77.1295 48.6137C77.1295 49.8312 75.9385 50.6538 74.1767 50.6538C72.807 50.6538 70.8749 48.8587 70.5859 47.3179C70.3037 45.8146 71.1662 43.7963 72.3643 43.1551C73.3597 42.6223 75.3907 42.6357 76.4109 43.182C77.0398 43.5184 77.3552 43.4824 77.8154 43.0223C78.6107 42.227 78.1925 41.6752 76.4236 41.1838C74.8926 40.7585 73.917 40.7272 72.5837 41.0613ZM95.3208 41.4641C91.3094 43.4793 91.09 49.4078 94.948 51.5368C96.847 52.5848 100.077 52.3274 101.481 51.0162C102.925 49.6663 103.614 48.1713 103.614 46.3838C103.614 43.5223 100.805 40.7727 97.8822 40.7727C97.23 40.7727 96.0773 41.0838 95.3208 41.4641ZM81.4777 46.7009V52.2349H82.4659C83.3882 52.2349 83.4542 52.1033 83.4542 50.2585C83.4542 48.3389 83.4874 48.282 84.6064 48.282C85.5322 48.282 86.0437 48.6706 87.2094 50.2585C88.2558 51.6839 88.9262 52.2349 89.6148 52.2349C90.1397 52.2349 90.5694 52.1227 90.5694 51.9855C90.5694 51.8487 89.9626 50.8917 89.2211 49.8596L87.8727 47.9828L88.7819 47.4962C89.6974 47.006 90.5694 45.5577 90.5694 44.5268C90.5694 43.4496 89.6808 42.0396 88.7285 41.6056C88.1984 41.3645 86.3505 41.1668 84.6215 41.1668H81.4777V46.7009ZM105.593 44.4279C105.595 48.1982 106.066 50.2462 107.158 51.234C108.17 52.1499 111.173 52.4745 112.718 51.8345C114.589 51.0593 115.077 49.6746 115.077 45.1395C115.077 41.4305 115.025 41.1668 114.287 41.1668C113.566 41.1668 113.494 41.4376 113.474 44.2303C113.445 48.1662 112.86 49.8853 111.382 50.3735C109.926 50.8546 108.469 50.2091 107.954 48.854C107.741 48.2939 107.567 46.3348 107.567 44.5011C107.567 41.2079 107.555 41.1668 106.579 41.1668C105.604 41.1668 105.59 41.2123 105.593 44.4279ZM117.844 46.7009V52.2349H118.833C119.74 52.2349 119.821 52.0898 119.821 50.4561C119.821 48.6836 119.826 48.6773 121.217 48.6773C125.649 48.6773 128.061 44.9984 125.385 42.3222C124.299 41.236 124.039 41.1668 121.037 41.1668H117.844V46.7009ZM60.5274 46.408C60.5274 49.1781 60.6665 51.4443 60.8361 51.4443C61.0061 51.4443 62.203 50.3751 63.4964 49.0683L65.8476 46.6922L63.1877 44.0319L60.5274 41.372V46.408ZM87.9929 43.3903C89.4938 44.8912 87.8363 46.6835 84.9365 46.6949L83.4542 46.7009V44.7244V42.748H85.4025C86.6734 42.748 87.5739 42.9713 87.9929 43.3903ZM100.482 43.9034C102.319 45.7407 101.868 48.9196 99.6037 50.0905C98.2763 50.7771 97.6356 50.7945 96.29 50.1814C94.0566 49.1639 93.4696 45.9617 95.1504 43.9643C96.5738 42.2724 98.8254 42.2467 100.482 43.9034ZM123.841 43.4022C125.496 44.8991 124.256 46.7009 121.572 46.7009H119.821V44.7244V42.748H121.47C122.449 42.748 123.412 43.0136 123.841 43.4022Z" fill="#B2BFCD"/>
</g>
<defs>
<clipPath id="clip0_4463_152488">
<rect width="129.458" height="64" fill="white" transform="translate(0.443359)"/>
</clipPath>
</defs>
</svg>
