<svg width="131" height="64" viewBox="0 0 131 64" fill="none" xmlns="http://www.w3.org/2000/svg">
<g clip-path="url(#clip0_4463_152528)">
<path fill-rule="evenodd" clip-rule="evenodd" d="M114.37 0.0734303C114.113 0.570798 113.976 1.09502 114.064 1.23853C114.153 1.38204 114.966 1.9176 115.871 2.42809C116.776 2.93889 118.543 4.32805 119.798 5.51493C121.053 6.70181 122.722 8.6519 123.506 9.84833C124.291 11.0451 125.335 13.0659 125.826 14.3396C126.317 15.6133 126.877 17.566 127.071 18.6795C127.276 19.8542 127.368 22.2267 127.29 24.3326C127.176 27.4072 127.01 28.3873 126.207 30.7488C125.685 32.2818 124.898 34.1615 124.458 34.9259C124.018 35.6903 123.086 37.0702 122.386 37.9924C121.686 38.9146 120.426 40.2871 119.586 41.0423C118.746 41.7974 117.23 42.9583 116.217 43.6219C115.204 44.2854 113.31 45.2402 112.008 45.7435C110.706 46.2469 108.646 46.849 107.431 47.0814C106.216 47.3141 104.328 47.5033 103.235 47.5018C102.141 47.5006 100.374 47.3583 99.3076 47.1855C98.241 47.0128 96.4285 46.5542 95.2798 46.1666C94.1311 45.7793 92.983 45.3804 92.7288 45.2808C92.4024 45.1525 92.1121 45.4222 91.743 46.1961C91.4554 46.7994 91.3277 47.3869 91.4596 47.5012C91.5914 47.6157 92.4459 48.0042 93.3583 48.3643C94.271 48.7248 96.2849 49.2809 97.8337 49.6004C99.3828 49.92 101.028 50.1834 101.489 50.1855C102.275 50.1891 102.321 50.2595 102.235 51.3083L102.142 52.4271L51.5699 52.5763L0.997705 52.7255V53.9189V55.1124H54.106H107.214L107.306 53.8443L107.398 52.5763H106.187C104.979 52.5763 104.976 52.5733 104.976 51.4169C104.976 50.2601 104.98 50.2565 106.394 50.0578C107.173 49.9483 108.818 49.5912 110.049 49.2645C111.279 48.9378 113.495 48.0818 114.972 47.3621C116.448 46.6428 118.731 45.1874 120.044 44.1282C121.357 43.069 123.113 41.3478 123.946 40.3032C124.78 39.2587 125.938 37.5986 126.519 36.614C127.1 35.6294 127.915 33.9511 128.331 32.8845C128.746 31.8178 129.316 29.891 129.599 28.6027C130.001 26.769 130.081 25.3428 129.968 22.0388C129.842 18.348 129.707 17.4607 128.893 14.9828C128.38 13.4239 127.321 11.0084 126.538 9.61501C125.508 7.78009 124.334 6.29962 122.281 4.24451C120.63 2.591 118.641 0.940465 117.515 0.288546C116.451 -0.326674 115.414 -0.830307 115.21 -0.830307C115.005 -0.830307 114.627 -0.423639 114.37 0.0734303ZM99.1585 3.79279C98.0098 4.02939 95.8001 4.85108 94.2483 5.61877C92.0011 6.73046 90.9628 7.47845 89.1452 9.29576C87.3323 11.1089 86.5763 12.1567 85.464 14.3989C84.446 16.4508 83.9349 17.953 83.5903 19.9058C83.195 22.1453 83.1729 23.0526 83.4563 25.37C83.6506 26.9575 84.156 29.0753 84.6351 30.3096C85.0967 31.498 85.9748 33.224 86.5864 34.1456C87.1981 35.0673 88.6189 36.6895 89.7437 37.7504C91.0544 38.9871 92.6527 40.1123 94.1946 40.8838C95.5179 41.5462 97.6279 42.3166 98.8834 42.5961C100.564 42.97 101.965 43.0634 104.19 42.9509C106.045 42.8569 107.964 42.557 109.154 42.1751C110.22 41.8329 111.964 41.0458 113.028 40.4258C114.092 39.8062 115.904 38.3549 117.056 37.2006C118.207 36.0465 119.602 34.3336 120.156 33.3941C120.711 32.4545 121.502 30.7807 121.914 29.6747C122.505 28.0922 122.694 26.9316 122.801 24.232C122.901 21.7037 122.808 20.2534 122.449 18.7207C122.18 17.5765 121.503 15.6968 120.943 14.5436C120.384 13.3902 119.246 11.6134 118.415 10.5948C117.584 9.57622 116.05 8.13335 115.006 7.38834C113.962 6.64334 112.341 5.68232 111.403 5.25298C110.465 4.82363 109.004 4.28479 108.157 4.05565C107.311 3.82651 105.409 3.57678 103.932 3.5007C102.225 3.41269 100.486 3.5189 99.1585 3.79279ZM107.171 6.50669C108.179 6.76775 109.71 7.31465 110.572 7.72251C111.435 8.13007 112.822 9.00218 113.654 9.66066C114.487 10.3188 115.109 10.9168 115.037 10.9893C114.964 11.0618 113.587 11.3762 111.976 11.6883L109.048 12.2555L108.222 11.6051C107.768 11.2476 107.389 10.7365 107.38 10.4692C107.371 10.2022 107.565 9.8167 107.811 9.61232C108.057 9.40795 108.258 8.85926 108.258 8.39292C108.258 7.8332 108.042 7.42922 107.624 7.20515C107.163 6.9587 106.795 6.95423 106.282 7.18844C105.773 7.41997 105.573 7.75503 105.573 8.37592C105.573 8.8518 105.775 9.40795 106.021 9.61232C106.267 9.8167 106.468 10.2037 106.468 10.4722C106.468 10.7407 106.218 11.117 105.912 11.3079C105.446 11.5988 104.965 11.4296 102.944 10.2639C101.599 9.48821 100.392 8.56598 100.216 8.1787C99.9798 7.66135 99.6988 7.50858 99.1113 7.5787C98.6781 7.63061 98.1766 7.90779 97.9966 8.19511C97.7597 8.57373 97.7597 8.86075 97.9966 9.23937C98.1766 9.5267 98.7569 9.80447 99.2865 9.85668C99.8163 9.90919 101.231 10.5477 102.43 11.276C104.224 12.3647 104.634 12.7573 104.741 13.4859C104.86 14.2927 104.532 14.6916 101.069 17.9593C97.9122 20.9381 97.1123 21.5468 96.3521 21.5468C95.5182 21.5468 95.3433 21.3618 94.3927 19.4741C93.5976 17.8954 93.3926 17.1826 93.5329 16.4824C93.6644 15.8248 93.5651 15.396 93.1838 14.9748C92.8908 14.651 92.3806 14.3861 92.0497 14.3861C91.7188 14.3861 91.2027 14.6084 90.9025 14.8799C90.6024 15.1514 90.3568 15.6789 90.3568 16.0522C90.3568 16.4251 90.5678 16.9413 90.8255 17.1993C91.0836 17.4571 91.4846 17.6681 91.717 17.6681C91.9495 17.6681 92.5993 18.5814 93.1614 19.6975C94.0887 21.5387 94.1526 21.8257 93.8497 22.7927C93.5561 23.7311 93.3052 23.9345 91.757 24.4919C90.7894 24.8398 89.8696 25.0456 89.7127 24.9487C89.556 24.8517 89.1159 24.8508 88.7346 24.9466C88.3533 25.0424 87.9756 25.3714 87.8953 25.6782C87.8151 25.9849 87.873 26.4563 88.0236 26.7257C88.1746 26.9951 88.6195 27.2156 89.0121 27.2156C89.4047 27.2156 89.9018 26.9748 90.116 26.6804C90.3306 26.3862 91.2549 25.8733 92.17 25.5406C93.6459 25.0039 93.907 24.9842 94.4822 25.3661C95.01 25.7167 95.1288 26.0807 95.121 27.3266C95.1157 28.196 94.9226 29.1066 94.6735 29.4357C94.4327 29.7544 94.2355 30.1234 94.2355 30.2562C94.2355 30.389 94.504 30.7661 94.8322 31.0943C95.1604 31.4225 95.6208 31.691 95.8553 31.691C96.0895 31.691 96.4923 31.4801 96.7504 31.2223C97.0082 30.9642 97.2191 30.4436 97.2191 30.0653C97.2191 29.6869 97.0177 29.2102 96.7716 29.0058C96.4887 28.771 96.3276 28.1265 96.3333 27.2538C96.341 26.1194 96.4801 25.7727 97.1126 25.3118C97.8692 24.7604 97.9388 24.7625 101.179 25.4425C103.948 26.0237 104.594 26.2683 105.223 26.9733C105.634 27.4346 106.131 27.8123 106.328 27.8123C106.525 27.8123 106.914 28.4097 107.192 29.1395C107.584 30.1649 107.624 30.6074 107.368 31.0851C107.186 31.4252 107.121 31.8387 107.223 32.0043C107.326 32.1699 106.974 32.8051 106.441 33.4156C105.908 34.026 105.106 34.6263 104.659 34.7495C104.212 34.8728 103.762 35.1938 103.659 35.4629C103.556 35.732 103.548 36.1948 103.642 36.4917C103.737 36.7882 104.085 37.117 104.416 37.2223C104.794 37.342 105.234 37.2191 105.595 36.893C105.911 36.6065 106.17 36.1509 106.17 35.8803C106.17 35.6097 106.633 34.9402 107.198 34.3921C107.857 33.7533 108.571 33.3684 109.187 33.3201C109.892 33.2646 110.647 33.5728 112.031 34.4816C113.067 35.1622 113.918 35.88 113.921 36.0766C113.925 36.2736 113.485 36.7715 112.945 37.1836C112.405 37.5956 111.207 38.2788 110.283 38.7019C109.359 39.1247 107.62 39.6799 106.417 39.9353C104.928 40.2519 103.517 40.3423 101.993 40.2191C100.762 40.1194 99.1134 39.8434 98.329 39.6057C97.5446 39.3679 95.994 38.6956 94.8829 38.1118C93.7504 37.5165 92.1237 36.2992 91.1797 35.3403C90.2536 34.3998 89.0127 32.8248 88.4222 31.8402C87.8315 30.8556 87.0608 29.1102 86.7096 27.9615C86.2552 26.4757 86.0673 25.0549 86.058 23.0386C86.0479 20.828 86.2036 19.7148 86.7657 17.9813C87.162 16.759 88.1427 14.7772 88.945 13.5781C89.7473 12.3787 91.1651 10.7738 92.0957 10.0118C93.0265 9.24982 94.6541 8.21868 95.713 7.72042C96.7716 7.22215 98.3156 6.6499 99.1441 6.4485C99.9724 6.24741 101.705 6.07138 102.994 6.05736C104.283 6.04333 106.163 6.24562 107.171 6.50669ZM116.985 13.1106C117.281 13.3779 117.927 14.4183 118.421 15.4223C118.915 16.4263 119.514 17.9799 119.753 18.8749C119.991 19.77 120.188 21.7491 120.189 23.2728C120.192 25.4723 120.031 26.5336 119.406 28.4249C118.973 29.735 118.064 31.6346 117.386 32.6464C116.586 33.8404 115.88 34.5589 115.371 34.6949C114.751 34.8605 114.206 34.6529 112.749 33.6957C111.504 32.8773 110.772 32.1571 110.483 31.4655C110.249 30.9037 109.785 30.3729 109.454 30.2863C109.105 30.195 108.607 29.5742 108.269 28.8098C107.802 27.7554 107.751 27.346 108.014 26.7687C108.275 26.1952 108.241 25.8906 107.846 25.2885C107.512 24.7777 107.079 24.5304 106.521 24.5304C106.066 24.5304 105.551 24.6715 105.379 24.8439C105.16 25.0632 104.043 24.9221 101.669 24.3752C99.8008 23.945 98.1718 23.4348 98.0489 23.2411C97.9256 23.0478 97.823 22.8124 97.8203 22.7187C97.8179 22.6247 99.509 20.9554 101.578 19.0089C105.238 15.5676 105.381 15.4685 106.782 15.4056C108.144 15.3441 108.321 15.4295 110.031 16.9771C111.355 18.1756 111.839 18.8197 111.839 19.3851C111.839 19.8097 112.061 20.4025 112.333 20.7027C112.604 21.0028 113.097 21.2484 113.428 21.2484C113.759 21.2484 114.275 21.0261 114.575 20.7546C114.875 20.4831 115.121 19.9556 115.121 19.5823C115.121 19.2094 114.91 18.6932 114.652 18.4352C114.394 18.1774 113.82 17.9664 113.375 17.9664C112.78 17.9664 112.081 17.4753 110.721 16.1017C109.321 14.6877 108.941 14.1286 109.151 13.7894C109.304 13.5432 110.474 13.1157 111.752 12.8394C113.031 12.5631 114.61 12.4017 115.262 12.4808C115.914 12.5595 116.69 12.8433 116.985 13.1106ZM0.987261 16.2455C0.903123 16.4642 0.871199 19.1226 0.916251 22.153L0.997705 27.6632L2.11656 27.7557L3.23541 27.8484L3.2557 23.7278C3.26853 21.0792 3.36967 19.8204 3.53914 20.2041C3.68385 20.5323 4.28355 22.3786 4.87162 24.3066L5.94125 27.8123H7.10366H8.26637L9.55499 23.9008L10.8436 19.9893L10.9928 23.8262L11.142 27.6632H12.3354H13.5289V21.8451V16.0271H11.7638H9.99836L8.59099 20.2041C7.79228 22.5746 7.10575 24.1876 7.00371 23.9336C6.90466 23.6875 6.31241 21.8078 5.68734 19.7566L4.55088 16.0271L2.84545 15.9376C1.63351 15.8737 1.09557 15.9629 0.987261 16.2455ZM16.8854 21.6106C15.7776 24.7759 14.8715 27.4734 14.8715 27.6053C14.8715 27.7372 15.5055 27.804 16.28 27.7542C17.6865 27.6635 17.6895 27.6608 18.0914 26.2328L18.4939 24.8025L20.4795 24.8902L22.4648 24.9779L22.958 26.3205C23.41 27.5516 23.5439 27.6709 24.5709 27.758C25.187 27.8102 25.7954 27.7431 25.9231 27.6089C26.0508 27.4746 25.2503 24.8138 24.1442 21.6959L22.1336 16.0271L20.5165 15.9415L18.8994 15.8555L16.8854 21.6106ZM29.7618 16.5716C28.9485 17.0006 28.2011 17.7015 27.8025 18.4089C27.448 19.0378 27.0744 20.109 26.9724 20.7889C26.8704 21.4692 26.9375 22.7277 27.1213 23.5852C27.3054 24.443 27.8069 25.5615 28.2357 26.0714C28.6647 26.5813 29.4542 27.1816 29.9897 27.4054C30.5256 27.6291 31.7402 27.8114 32.689 27.8105C33.6378 27.8097 34.9178 27.6691 35.533 27.4982L36.6518 27.1876V24.0688V20.95H34.247H31.842L31.9348 22.0689C32.0192 23.0905 32.1117 23.1958 32.9969 23.2811C33.8807 23.3665 33.9666 23.464 33.9666 24.38C33.9666 25.1268 33.8114 25.4344 33.3633 25.5767C33.0312 25.682 32.3739 25.6835 31.9022 25.58C31.4308 25.4765 30.7998 25.1208 30.5002 24.7899C30.1183 24.3678 29.9214 23.5831 29.8412 22.1614C29.7334 20.2534 29.7794 20.0758 30.6261 19.128C31.412 18.2487 31.708 18.121 32.9698 18.1186C33.7643 18.1168 34.7092 18.223 35.0699 18.3546C35.6123 18.5521 35.8057 18.439 36.1888 17.6982C36.4436 17.2056 36.6518 16.742 36.6518 16.6677C36.6518 16.5937 36.2291 16.3857 35.7123 16.2055C35.1955 16.0253 33.9409 15.8779 32.9247 15.8779C31.5666 15.8779 30.7282 16.0617 29.7618 16.5716ZM39.1715 16.2604C39.0909 16.4708 39.0614 19.1226 39.1065 22.153L39.1879 27.6632H40.3813H41.5748L41.5485 23.5592C41.5339 21.3021 41.5817 19.5146 41.6542 19.5874C41.727 19.6602 42.813 21.5068 44.0676 23.6914L46.3486 27.6632H47.9896H49.6305V21.8451V16.0271H48.4371H47.2436L47.2878 20.0463C47.3257 23.5133 47.2759 23.9886 46.9235 23.507C46.6988 23.1997 45.605 21.3591 44.4925 19.4165L42.4699 15.8845L40.8942 15.8812C39.8852 15.8791 39.2655 16.0155 39.1715 16.2604ZM52.2776 16.3174C52.1848 16.5591 52.1556 18.6306 52.2123 20.9205C52.303 24.5644 52.3931 25.1897 52.9337 25.9264C53.2735 26.3892 54.012 27.0029 54.5747 27.2896C55.1448 27.5805 56.2583 27.8114 57.0896 27.8114C57.9151 27.8114 59.045 27.5784 59.6197 27.2896C60.1907 27.0029 60.9629 26.3119 61.3352 25.7542C61.9636 24.8138 62.0125 24.4194 62.0125 20.3092V15.8779H60.6699H59.3273V19.9884C59.3273 23.2656 59.2309 24.2368 58.8523 24.7777C58.4546 25.3455 58.1517 25.4413 56.9944 25.3661C55.8663 25.2927 55.5429 25.139 55.2364 24.5304C54.9915 24.0443 54.859 22.4069 54.8563 19.8312L54.8519 15.8779H53.6492C52.8651 15.8779 52.3874 16.031 52.2776 16.3174ZM65.5409 16.3887C65.102 16.6611 64.5987 17.2008 64.4221 17.5884C64.2454 17.9757 64.101 18.746 64.101 19.3001C64.101 19.9308 64.3714 20.6287 64.824 21.1669C65.2217 21.6395 66.1585 22.3407 66.9056 22.7247C67.6527 23.109 68.501 23.6854 68.7907 24.0053C69.2964 24.5644 69.2895 24.6094 68.6155 25.1554C68.2295 25.4681 67.7485 25.7238 67.5465 25.7238C67.3445 25.7238 66.5205 25.5239 65.7149 25.2796C64.9093 25.0352 64.1497 24.8338 64.0265 24.832C63.9032 24.8302 63.8027 25.3527 63.8027 25.9929C63.8027 27.0306 63.905 27.1929 64.7422 27.4847C65.259 27.665 66.4071 27.8123 67.2932 27.8123C68.1793 27.8123 69.2925 27.6118 69.7666 27.3666C70.2407 27.1213 70.8383 26.6216 71.0943 26.2558C71.3506 25.8903 71.5601 25.0349 71.5601 24.3549C71.5601 23.5843 71.3426 22.8425 70.9824 22.3846C70.6647 21.9806 69.5906 21.2162 68.5956 20.686C67.1455 19.9129 66.7863 19.5782 66.7863 18.9988C66.7863 18.4862 66.9931 18.2242 67.4976 18.0977C67.8884 17.9995 68.7277 18.0634 69.3623 18.2394C69.9967 18.4158 70.6032 18.5605 70.7103 18.5614C70.8175 18.5623 71.0523 18.1404 71.2325 17.6236C71.4127 17.1069 71.5601 16.6501 71.5601 16.6086C71.5601 16.5668 71.1373 16.3857 70.6205 16.2055C70.1038 16.0253 68.9288 15.8815 68.0099 15.886C66.9853 15.8907 66.0302 16.0853 65.5409 16.3887ZM21.2591 20.6314C21.5202 21.5226 21.7338 22.3616 21.7338 22.4961C21.7338 22.6304 21.1967 22.7402 20.5403 22.7402C19.884 22.7402 19.3469 22.6038 19.3469 22.4374C19.3469 22.2709 19.5713 21.3272 19.8458 20.3405C20.12 19.3535 20.4434 18.6509 20.5645 18.7786C20.6856 18.9063 20.998 19.7399 21.2591 20.6314ZM4.27968 35.4856C3.95148 35.5652 3.23213 35.9704 2.68076 36.386C2.12969 36.8014 1.42764 37.6941 1.12093 38.3695C0.777515 39.1262 0.560607 40.2892 0.556728 41.3991C0.551954 42.6847 0.742308 43.5813 1.22148 44.5295C1.59055 45.2605 2.34898 46.1615 2.90662 46.5321C3.70891 47.0653 4.34173 47.2058 5.94035 47.2058C7.05145 47.2058 8.17269 47.1243 8.43226 47.0247C8.69184 46.925 8.90427 46.5366 8.90427 46.1612C8.90427 45.5129 8.84161 45.4932 7.63624 45.7644C6.93867 45.9214 5.93588 45.9688 5.40718 45.87C4.87879 45.7713 4.0562 45.3619 3.57912 44.9603C3.03312 44.5012 2.58409 43.7236 2.36718 42.8629C2.17772 42.1104 2.11059 41.0008 2.218 40.3972C2.32511 39.7933 2.66196 38.886 2.96599 38.3809C3.27032 37.8758 3.86436 37.305 4.28624 37.1128C4.70842 36.9204 5.57575 36.7632 6.21365 36.7632C6.85154 36.7632 7.7156 36.8932 8.13361 37.052C8.75569 37.2886 8.94843 37.2382 9.19726 36.7733C9.36434 36.4612 9.50099 36.1429 9.50099 36.0662C9.50099 35.9892 9.07821 35.7792 8.56145 35.599C8.04469 35.4188 7.00401 35.2869 6.24916 35.306C5.494 35.3251 4.60787 35.4059 4.27968 35.4856ZM12.251 40.7024C11.0811 43.7048 10.0324 46.4071 9.92049 46.7075C9.74953 47.167 9.85037 47.2377 10.5587 47.1551C11.2858 47.07 11.4839 46.8221 12.0168 45.3309L12.6338 43.6049L14.9771 43.6899L17.3201 43.7747L17.9771 45.4156C18.5207 46.7738 18.7726 47.073 19.4379 47.1509C19.8801 47.2028 20.23 47.1357 20.2154 47.0017C20.2008 46.8678 19.1601 44.2073 17.9031 41.0894C16.0455 36.4824 15.5013 35.4038 14.998 35.3319C14.452 35.2541 14.1256 35.8926 12.251 40.7024ZM21.5682 35.6539C21.4876 35.8642 21.4581 38.516 21.5032 41.5465L21.5846 47.0566L22.4051 47.1509L23.2256 47.2455V45.0296V42.8139L24.8329 42.648C25.7172 42.5567 26.8689 42.2605 27.3925 41.9896C27.9645 41.6939 28.5257 41.064 28.7981 40.4124C29.0711 39.7593 29.1839 38.9129 29.0821 38.2851C28.989 37.712 28.5943 36.924 28.2049 36.5346C27.8153 36.1453 26.9721 35.7049 26.3306 35.556C25.6895 35.4074 24.3886 35.2824 23.4401 35.2785C22.3066 35.2737 21.6646 35.4026 21.5682 35.6539ZM31.4905 35.4599C31.3756 35.5751 31.2813 38.2648 31.2813 41.4376V47.2058H32.0335H32.7857L32.7048 41.3171C32.6356 36.2795 32.5571 35.4155 32.1618 35.3394C31.9076 35.2908 31.6057 35.3448 31.4905 35.4599ZM34.7704 35.4623C34.6564 35.576 34.5633 35.9152 34.5633 36.2163C34.5633 36.6859 34.8163 36.7632 36.3535 36.7632H38.1436V41.9845V47.2058H38.8895H39.6354V41.9845V36.7632H41.4465C43.1537 36.7632 43.2519 36.7247 43.1621 36.0919C43.069 35.4381 42.9607 35.4185 39.022 35.3379C36.7974 35.2925 34.884 35.3483 34.7704 35.4623ZM47.8472 35.5587C47.7494 35.7168 46.7209 38.2344 45.5615 41.153C44.4021 44.0718 43.3814 46.6383 43.2936 46.8567C43.1782 47.1428 43.3694 47.2258 43.9787 47.1551C44.6933 47.0718 44.9254 46.803 45.4815 45.4156L46.1394 43.7747H48.4634H50.7873L51.4446 45.4156C51.9885 46.7729 52.2415 47.0733 52.9074 47.1536C53.6283 47.2404 53.69 47.1778 53.4955 46.5569C53.3759 46.1753 52.3385 43.4799 51.1901 40.5673C49.5595 36.4317 48.984 35.2714 48.5633 35.2714C48.267 35.2714 47.9448 35.4009 47.8472 35.5587ZM55.3594 35.4599C55.2445 35.5751 55.1502 38.2648 55.1502 41.4376V47.2058H58.4322H61.7142V46.4599C61.7142 45.7229 61.6837 45.714 59.1852 45.714H56.656L56.5746 40.5711C56.5051 36.2076 56.4227 35.4149 56.0307 35.3394C55.7765 35.2908 55.4745 35.3448 55.3594 35.4599ZM26.3035 37.1063C26.6618 37.2948 27.0539 37.5971 27.1744 37.7776C27.2949 37.9581 27.3955 38.5163 27.3982 39.0185C27.4006 39.5203 27.2212 40.1791 26.9999 40.4819C26.7179 40.8674 26.0908 41.0748 24.9113 41.1726L23.2256 41.3126V39.0379V36.7632H24.4387C25.1059 36.7632 25.9449 36.9174 26.3035 37.1063ZM15.8904 39.8569C16.3147 40.9841 16.6617 41.9576 16.6617 42.02C16.6617 42.0826 15.9232 42.1337 15.0207 42.1337C14.1181 42.1337 13.3797 42.0743 13.3797 42.0015C13.3797 41.929 13.7326 40.9169 14.1644 39.7527C14.5958 38.5885 14.9873 37.6747 15.0341 37.7218C15.0809 37.7689 15.4664 38.7297 15.8904 39.8569ZM49.3062 39.6785C49.7308 40.7895 50.0781 41.7965 50.0781 41.9162C50.0781 42.0358 49.3286 42.1337 48.4123 42.1337C47.4961 42.1337 46.791 42.0275 46.8459 41.8977C46.9005 41.7679 47.2723 40.7609 47.6718 39.66C48.0713 38.559 48.4287 37.6583 48.4663 37.6583C48.5036 37.6583 48.8814 38.5674 49.3062 39.6785ZM14.0179 59.4666C13.4665 59.5812 12.814 59.8766 12.5675 60.1227C12.3214 60.3692 12.0547 61.1551 11.9747 61.8693C11.8595 62.9008 11.9652 63.34 12.4882 64.0026C13.0897 64.7646 13.2923 64.8294 14.8294 64.7485L16.5125 64.6599V63.3173C16.5125 62.0206 16.4794 61.9714 15.5428 61.8813C14.8226 61.8118 14.5731 61.9075 14.5731 62.2542C14.5731 62.5269 14.8294 62.7206 15.1907 62.7206C15.6604 62.7206 15.7854 62.8814 15.7129 63.3919C15.6451 63.8681 15.3844 64.09 14.8151 64.156C14.3076 64.2145 13.7866 64.0226 13.3979 63.6339C13.0503 63.2863 12.783 62.6299 12.783 62.1238C12.783 61.611 13.0518 60.9599 13.4125 60.5992C13.9218 60.0899 14.2637 60.0049 15.2027 60.1553C16.0855 60.2964 16.3633 60.2412 16.3633 59.9243C16.3633 59.6955 16.0614 59.452 15.692 59.3831C15.3226 59.3145 14.5695 59.3521 14.0179 59.4666ZM50.1789 59.458C49.8242 59.5902 49.4468 59.973 49.3402 60.3083C49.2337 60.644 49.2737 61.1455 49.4288 61.4227C49.5843 61.7002 50.1631 62.1406 50.7151 62.4013C51.3598 62.7056 51.7191 63.0879 51.7191 63.4692C51.7191 63.9731 51.5269 64.0593 50.451 64.0375C49.5789 64.0196 49.183 64.1363 49.183 64.4105C49.183 64.69 49.6299 64.8091 50.6811 64.8091C52.0019 64.8091 52.2209 64.7178 52.5297 64.0399C52.7759 63.4999 52.7881 63.1225 52.5712 62.7719C52.4011 62.4977 51.7617 62.0328 51.1504 61.7393C50.3961 61.3773 50.0724 61.0414 50.1431 60.695C50.2204 60.3155 50.5316 60.1932 51.356 60.2185C52.1105 60.2418 52.465 60.1224 52.465 59.8456C52.465 59.6218 52.2973 59.4285 52.092 59.4156C51.887 59.4031 51.5177 59.3536 51.2715 59.3055C51.0254 59.2572 50.5337 59.3258 50.1789 59.458ZM55.809 59.4741C55.4802 59.5955 55.1177 59.8465 55.0034 60.0314C54.8891 60.2164 54.8775 60.6941 54.9778 61.093C55.0902 61.5415 55.6136 62.0496 56.3484 62.4246C57.0021 62.7582 57.5371 63.2272 57.5371 63.4668C57.5371 63.7066 57.211 63.9844 56.8127 64.0844C56.4144 64.1843 55.8102 64.1781 55.4701 64.0701C55.0243 63.9286 54.8519 64.0041 54.8519 64.3416C54.8519 64.6957 55.1723 64.8091 56.1733 64.8091C56.9765 64.8091 57.6782 64.6253 57.9635 64.3404C58.2212 64.0823 58.4322 63.6333 58.4322 63.3424C58.4322 63.0512 58.1971 62.6167 57.9101 62.3769C57.623 62.137 57.009 61.7792 56.5462 61.5814C55.9931 61.3454 55.7407 61.0444 55.8102 60.7034C55.8896 60.3146 56.1939 60.1932 57.0248 60.2185C57.7316 60.2403 58.1338 60.1171 58.1338 59.8796C58.1338 59.6743 57.7454 59.4493 57.2704 59.3795C56.7954 59.31 56.1378 59.3524 55.809 59.4741ZM72.6789 59.4869C72.0542 59.7152 71.8584 59.9834 71.8584 60.6106C71.8584 61.0638 72.0935 61.6411 72.3806 61.8932C72.6676 62.1453 73.2127 62.4461 73.5913 62.5618C74.0809 62.711 74.2534 62.9587 74.188 63.4175C74.1125 63.948 73.8971 64.0632 72.9815 64.0632C72.3683 64.0632 71.8313 64.1975 71.788 64.3615C71.7448 64.5257 72.2899 64.7017 72.9994 64.7527C73.7089 64.8037 74.481 64.6868 74.7149 64.4925C74.9489 64.2983 75.1404 63.7556 75.1404 63.2869C75.1404 62.595 74.9193 62.3214 73.9672 61.8359C73.3219 61.5065 72.7192 61.1163 72.6279 60.9686C72.5366 60.8206 72.6598 60.5351 72.9021 60.3343C73.1488 60.1296 73.6644 60.0493 74.0741 60.1523C74.4762 60.2531 74.8889 60.2009 74.9909 60.0359C75.093 59.8709 74.8238 59.6018 74.393 59.438C73.9622 59.2742 73.585 59.151 73.5546 59.1638C73.5242 59.1766 73.13 59.3222 72.6789 59.4869ZM1.74361 62.1238V64.8091H3.04595C3.893 64.8091 4.61145 64.602 5.10106 64.2171C5.51489 63.8916 5.94185 63.2737 6.04955 62.8444C6.15726 62.4151 6.09461 61.6062 5.90992 61.0474C5.72553 60.4882 5.32543 59.8975 5.0214 59.7346C4.71707 59.572 3.85511 59.4386 3.10592 59.4386H1.74361V62.1238ZM8.60591 62.1238C8.60591 64.3117 8.68885 64.8091 9.05345 64.8091C9.41805 64.8091 9.50099 64.3117 9.50099 62.1238C9.50099 59.936 9.41805 59.4386 9.05345 59.4386C8.68885 59.4386 8.60591 59.936 8.60591 62.1238ZM19.0485 62.1238C19.0485 64.3117 19.1315 64.8091 19.4961 64.8091C19.8607 64.8091 19.9436 64.3117 19.9436 62.1238C19.9436 59.936 19.8607 59.4386 19.4961 59.4386C19.1315 59.4386 19.0485 59.936 19.0485 62.1238ZM22.0322 59.737C22.0322 59.9011 22.4349 60.0353 22.9272 60.0353H23.8223V62.4222C23.8223 63.7445 23.9497 64.8091 24.1081 64.8091C24.2654 64.8091 24.4331 63.7684 24.4811 62.4968C24.5667 60.2206 24.581 60.183 25.3887 60.0902C25.8398 60.0383 26.2092 59.8703 26.2092 59.7173C26.2092 59.5639 25.2694 59.4386 24.1207 59.4386C22.9272 59.4386 22.0322 59.5666 22.0322 59.737ZM28.6707 61.9028C28.1375 63.2642 27.701 64.4749 27.701 64.5934C27.701 64.7121 27.8729 64.8091 28.0832 64.8091C28.2933 64.8091 28.6173 64.4063 28.8032 63.914C29.0797 63.1812 29.311 63.0189 30.0775 63.0189C30.8499 63.0189 31.0686 63.1759 31.3261 63.914C31.4977 64.4063 31.8264 64.8091 32.0565 64.8091C32.2865 64.8091 32.4748 64.7679 32.4748 64.7175C32.4748 64.6674 32.0332 63.4933 31.4938 62.1089C30.9543 60.7242 30.3164 59.5547 30.0766 59.5096C29.7794 59.4538 29.3316 60.2161 28.6707 61.9028ZM34.5633 62.1238V64.8091H36.0375C36.8485 64.8091 37.5947 64.6748 37.6961 64.5107C37.8074 64.3305 37.4007 64.2124 36.6694 64.2124H35.4584V61.8255C35.4584 59.9028 35.3713 59.4386 35.0109 59.4386C34.6463 59.4386 34.5633 59.936 34.5633 62.1238ZM44.5969 59.6746C44.5166 59.8047 44.1195 60.7779 43.7146 61.8377C43.3095 62.8978 42.8831 63.9999 42.7667 64.287C42.6208 64.6471 42.6951 64.8091 43.0054 64.8091C43.2531 64.8091 43.5962 64.4063 43.7677 63.914C44.0252 63.1759 44.2439 63.0189 45.0164 63.0189C45.7829 63.0189 46.0141 63.1812 46.2907 63.914C46.4766 64.4063 46.8006 64.8091 47.0106 64.8091C47.221 64.8091 47.3928 64.7121 47.3928 64.5934C47.3928 64.4749 46.9566 63.2669 46.4232 61.9093C45.8897 60.5515 45.2936 59.4404 45.0981 59.4398C44.9027 59.4392 44.6771 59.5448 44.5969 59.6746ZM60.8191 62.1238V64.8091H62.3109C63.1314 64.8091 63.8027 64.6829 63.8027 64.5286C63.8027 64.3747 63.2993 64.2067 62.6838 64.1557C61.7195 64.076 61.5521 63.9525 61.4725 63.2618C61.388 62.5323 61.4796 62.452 62.4935 62.3667C63.1063 62.3151 63.6625 62.1053 63.7299 61.9001C63.8146 61.642 63.4709 61.5271 62.6134 61.5271C61.499 61.5271 61.3839 61.4594 61.4695 60.8558C61.5462 60.3167 61.7852 60.1663 62.6838 60.092C63.2993 60.041 63.8027 59.873 63.8027 59.7191C63.8027 59.5648 63.1314 59.4386 62.3109 59.4386H60.8191V62.1238ZM65.8912 59.737C65.8912 59.9011 66.2269 60.0353 66.6371 60.0353C67.3705 60.0353 67.383 60.075 67.383 62.4222C67.383 64.3448 67.4701 64.8091 67.8306 64.8091C68.191 64.8091 68.2781 64.3448 68.2781 62.4222C68.2781 60.075 68.2906 60.0353 69.024 60.0353C69.4342 60.0353 69.7699 59.9011 69.7699 59.737C69.7699 59.5687 68.9246 59.4386 67.8306 59.4386C66.7365 59.4386 65.8912 59.5687 65.8912 59.737ZM81.1076 62.1238C81.1076 64.3117 81.1906 64.8091 81.5552 64.8091C81.8783 64.8091 82.0027 64.4776 82.0027 63.6157C82.0027 62.4506 82.0275 62.4222 83.047 62.4222C83.6213 62.4222 84.0912 62.2879 84.0912 62.1238C84.0912 61.9597 83.6213 61.8255 83.047 61.8255C82.0856 61.8255 82.0027 61.7545 82.0027 60.9304C82.0027 60.1063 82.0856 60.0353 83.047 60.0353C83.6213 60.0353 84.0912 59.9011 84.0912 59.737C84.0912 59.5729 83.4199 59.4386 82.5994 59.4386H81.1076V62.1238ZM86.4781 61.6551C86.4781 63.2719 86.6049 63.9981 86.9468 64.3404C87.2118 64.605 87.9186 64.8091 88.5711 64.8091C89.4265 64.8091 89.8466 64.6369 90.1906 64.1458C90.5 63.7043 90.6552 62.808 90.6552 61.4606C90.6552 59.8623 90.5615 59.4386 90.2076 59.4386C89.8538 59.4386 89.7601 59.8629 89.7601 61.4674C89.7601 62.6478 89.6103 63.6461 89.4021 63.8543C89.2051 64.0513 88.8119 64.2124 88.5282 64.2124C88.2447 64.2124 87.8017 64.0014 87.5436 63.7436C87.2148 63.4146 87.0748 62.7024 87.0748 61.3568C87.0748 60.277 86.9445 59.4386 86.7765 59.4386C86.6043 59.4386 86.4781 60.3763 86.4781 61.6551ZM93.3404 62.1486C93.3404 64.1834 93.4335 64.8282 93.7134 64.736C93.9312 64.6644 94.1484 63.8806 94.2355 62.8518L94.3847 61.0903L95.5781 62.9527C96.296 64.073 96.95 64.7828 97.2191 64.7342C97.5685 64.671 97.6854 64.0817 97.7529 62.046C97.8251 59.8605 97.7648 59.4386 97.3799 59.4386C97.012 59.4386 96.9208 59.8384 96.9208 61.4493V63.4602L95.5719 61.4493C94.8298 60.3435 94.0243 59.4386 93.7817 59.4386C93.4246 59.4386 93.3404 59.9557 93.3404 62.1486ZM100.501 62.1238V64.8091H101.681C102.329 64.8091 103.193 64.6575 103.6 64.4719C104.007 64.2867 104.498 63.7517 104.692 63.2836C104.893 62.7993 104.961 61.9833 104.849 61.3914C104.742 60.8191 104.361 60.1457 104.003 59.8948C103.64 59.64 102.723 59.4386 101.926 59.4386H100.501V62.1238ZM4.51687 60.4083C4.79226 60.6135 5.10136 61.2088 5.204 61.7312C5.35587 62.5037 5.24398 62.8277 4.60489 63.4665C4.11856 63.9531 3.56629 64.2162 3.15455 64.1578C2.55216 64.0721 2.48116 63.8731 2.4012 62.0493L2.31318 60.0353H3.1647C3.63313 60.0353 4.24178 60.2033 4.51687 60.4083ZM103.485 60.632C103.813 60.9602 104.079 61.5981 104.077 62.0493C104.074 62.5004 103.974 63.0174 103.853 63.1979C103.733 63.3785 103.341 63.6807 102.982 63.8693C102.624 64.0581 102.12 64.2124 101.863 64.2124C101.484 64.2124 101.396 63.8203 101.396 62.1238C101.396 60.095 101.417 60.0353 102.142 60.0353C102.552 60.0353 103.156 60.3038 103.485 60.632ZM30.3863 61.2043C30.3863 61.355 30.4677 61.6906 30.5674 61.9502C30.6971 62.2885 30.5703 62.4222 30.1198 62.4222C29.774 62.4222 29.4912 62.299 29.4912 62.1483C29.4912 61.9976 29.5726 61.662 29.6723 61.4024C29.7719 61.1428 29.9733 60.9304 30.1198 60.9304C30.2663 60.9304 30.3863 61.0536 30.3863 61.2043ZM45.4216 61.4024C45.5212 61.662 45.6027 61.9976 45.6027 62.1483C45.6027 62.299 45.3198 62.4222 44.974 62.4222C44.5235 62.4222 44.3967 62.2885 44.5265 61.9502C44.6261 61.6906 44.7076 61.355 44.7076 61.2043C44.7076 61.0536 44.8275 60.9304 44.974 60.9304C45.1205 60.9304 45.3219 61.1428 45.4216 61.4024Z" fill="#B2BFCD"/>
</g>
<defs>
<clipPath id="clip0_4463_152528">
<rect width="129.458" height="64" fill="white" transform="translate(0.556641)"/>
</clipPath>
</defs>
</svg>
