<svg width="113" height="37" viewBox="0 0 113 37" fill="none" xmlns="http://www.w3.org/2000/svg">
<path fill-rule="evenodd" clip-rule="evenodd" d="M0 15.3373V30.6376L4.95878 33.5896C7.6858 35.2135 10.1207 36.6617 10.3684 36.808C10.616 36.9544 10.8191 30.208 10.8191 21.8166V6.55935L7.9641 4.91358C6.39412 4.00815 3.95981 2.54058 2.55452 1.65203L0 0.0368925V15.3373ZM16.2329 15.2172L16.2365 30.4344L21.4796 33.5609C24.3635 35.2804 26.9313 36.7811 27.1861 36.8956C27.4404 37.0106 27.6471 30.2574 27.6453 21.8885L27.6411 6.67316L25.9413 5.66706C25.0067 5.1143 22.4389 3.61296 20.2348 2.33048L16.2287 0L16.2329 15.2172ZM33.0585 15.3304V30.6064L38.4633 33.8029C41.4361 35.5612 44.0105 37 44.1842 37C44.3579 37 44.4276 30.1962 44.3393 21.8797L44.1782 6.76007L41.4734 5.12743C39.9858 4.2295 37.4835 2.72129 35.9136 1.77522L33.0585 0.0550268V15.3304ZM53.8956 4.90169C53.675 5.13055 53.4947 9.49199 53.4947 14.5938V23.8688H55.8761H58.2581L58.4306 18.1179L58.6037 12.3671L62.1049 18.1179C65.5484 23.7731 65.6458 23.8688 67.9653 23.8688H70.3245V14.1392V4.40896L68.0705 4.60343L65.8165 4.79727V10.5819C65.8165 13.764 65.7768 16.3665 65.7281 16.3659C65.6794 16.3659 63.9748 13.6921 61.9402 10.4249C58.5063 4.90982 58.1 4.48462 56.2686 4.48462C55.1837 4.48462 54.1156 4.67221 53.8956 4.90169ZM79.0098 5.36441C78.0019 5.82088 76.4577 7.0846 75.5778 8.17199C74.6984 9.25938 73.8028 11.1259 73.587 12.319C73.3719 13.5126 73.3827 15.5242 73.6111 16.7898C73.8539 18.1367 74.8307 19.9276 75.9679 21.1106C77.0366 22.2224 79.0435 23.4486 80.4284 23.8369C82.2009 24.3334 83.623 24.3528 85.2297 23.9026C86.4847 23.5511 88.2097 22.485 89.0626 21.5339C89.9161 20.5829 90.9175 19.1897 91.2884 18.4387C91.6592 17.6871 91.9628 16.2102 91.9628 15.1559V13.2388H86.8537H81.7447V15.1146C81.7447 16.8861 81.8781 16.9905 84.1489 16.9905C85.4713 16.9905 86.5532 17.2156 86.5532 17.4908C86.5532 17.7659 86.2286 18.3287 85.8319 18.7414C85.4352 19.1541 84.1507 19.4873 82.9769 19.4823C81.8036 19.4767 80.5456 19.266 80.1819 19.0134C79.8183 18.7607 79.2094 17.9391 78.8295 17.1881C78.449 16.4365 78.1383 14.9464 78.1383 13.8766C78.1383 12.6447 78.6793 11.3685 79.6139 10.3968C80.4253 9.55264 81.717 8.86169 82.4852 8.86169C83.2534 8.86169 84.4819 9.2994 85.2158 9.83403C86.082 10.465 87.5323 10.7395 89.3487 10.6156L92.1479 10.4249L90.4301 8.30768C89.4858 7.14338 87.8299 5.8065 86.7509 5.33753C85.6714 4.86855 83.9007 4.49588 82.8158 4.50901C81.7309 4.52276 80.0184 4.90732 79.0098 5.36441ZM99.767 5.64267C98.6153 6.27922 97.0406 7.75617 96.2676 8.92547C95.0775 10.7257 94.8984 11.6468 95.0937 14.9539C95.2975 18.3912 95.5703 19.1209 97.3796 21.0625C98.5096 22.2755 100.462 23.5555 101.718 23.9076C102.974 24.2596 105.012 24.3528 106.247 24.1145C107.67 23.8407 109.318 22.827 110.746 21.3476C111.986 20.0639 113 18.6988 113 18.3149C113 17.906 111.907 17.6158 110.369 17.6158C108.763 17.6158 107.446 17.9816 106.989 18.5538C106.563 19.0878 105.253 19.4917 103.944 19.4917C102.253 19.4917 101.401 19.1259 100.712 18.1017C100.198 17.3376 99.7766 15.5292 99.7766 14.0829C99.7766 11.9875 100.098 11.1909 101.36 10.1579C102.231 9.44509 103.532 8.86169 104.251 8.86169C104.969 8.86169 106.082 9.27501 106.724 9.77963C107.366 10.2849 109.04 10.7069 110.445 10.7176C111.851 10.7288 113 10.4943 113 10.1967C113 9.89906 112.466 8.94986 111.814 8.08758C111.162 7.22467 109.701 6.06162 108.568 5.50198C107.434 4.94234 105.462 4.48462 104.184 4.48462C102.907 4.48462 100.919 5.00549 99.767 5.64267ZM79.8778 28.7148C79.8429 29.317 79.8585 30.6532 79.9132 31.685C79.9673 32.7167 80.1495 34.053 80.3178 34.6551C80.4861 35.2573 81.0108 35.7494 81.4844 35.7494C81.9581 35.7494 82.3457 35.468 82.3457 35.1241C82.3457 34.7802 82.0753 34.4988 81.7447 34.4988C81.4141 34.4988 81.1436 33.5377 81.1436 32.3622C81.1436 31.1873 81.482 30.0842 81.8949 29.9104C82.496 29.6584 82.496 29.5852 81.8949 29.5459C81.482 29.519 81.1436 29.0744 81.1436 28.5585C81.1436 28.0426 80.8731 27.6206 80.5426 27.6206C80.212 27.6206 79.9126 28.1127 79.8778 28.7148ZM54.0957 29.9079C54.0957 30.1743 54.5381 31.5981 55.0791 33.0713C55.62 34.5438 56.2602 35.7494 56.5018 35.7494C56.7428 35.7494 57.5026 34.3425 58.1896 32.6229C58.8766 30.9034 59.2006 29.4965 58.9097 29.4965C58.6188 29.4965 58.0387 30.4813 57.6204 31.685C57.202 32.8887 56.6647 33.8735 56.4273 33.8735C56.1893 33.8735 55.8172 33.0325 55.6002 32.0045C55.3832 30.9772 54.9559 29.9754 54.6505 29.7791C54.3452 29.5834 54.0957 29.6409 54.0957 29.9079ZM63.1676 30.3644C62.7583 30.8771 62.5112 32.082 62.6176 33.0425C62.7547 34.2812 63.2806 34.959 64.428 35.3767C65.5875 35.7982 66.3148 35.7319 66.997 35.1429C67.5211 34.6908 67.8307 34.1974 67.6858 34.0461C67.5409 33.8954 66.8768 34.0761 66.2102 34.4469C65.2563 34.9778 64.773 34.889 63.9418 34.0286C62.935 32.9869 63.0053 32.9262 65.4396 32.7411C67.6798 32.571 67.9713 32.3784 67.8072 31.1779C67.6678 30.1593 67.1454 29.761 65.7654 29.6209C64.6636 29.509 63.6094 29.811 63.1676 30.3644ZM70.9255 32.2734C70.9255 33.801 71.1804 35.2142 71.4911 35.4142C71.8025 35.6143 72.1409 34.5757 72.2425 33.1063C72.3945 30.9159 72.6446 30.4344 73.6303 30.4344C74.5668 30.4344 74.8751 30.9184 75.0254 32.6229C75.1318 33.8266 75.4702 35.0785 75.7767 35.4055C76.1229 35.7738 76.3351 35.1391 76.3351 33.7372C76.3351 32.4929 76.171 31.0297 75.9703 30.4857C75.7238 29.8179 74.8445 29.4965 73.2655 29.4965H70.9255V32.2734ZM85.5218 32.0495C85.7027 33.4533 86.0225 34.7802 86.2316 34.9978C86.4408 35.2154 87.5455 35.4261 88.6864 35.4655L90.7606 35.5368V32.5166C90.7606 30.8558 90.4902 29.4965 90.1596 29.4965C89.829 29.4965 89.5585 30.592 89.5585 31.9307C89.5585 33.3083 89.2321 34.4901 88.8072 34.6526C88.3943 34.8108 87.7181 34.8171 87.3045 34.667C86.876 34.5119 86.5532 33.3426 86.5532 31.9457C86.5532 30.5394 86.2635 29.4965 85.8728 29.4965C85.4238 29.4965 85.3048 30.3644 85.5218 32.0495ZM93.8411 32.9124L93.9162 36.0621L94.3394 33.3514C94.572 31.8607 95.143 30.3956 95.6088 30.0961C96.2327 29.6953 96.1017 29.5796 95.1105 29.6572C93.8988 29.7522 93.7732 30.0736 93.8411 32.9124ZM99.7459 31.1441C99.2879 32.3966 99.3673 33.1463 100.075 34.2706C100.587 35.0841 101.384 35.7494 101.845 35.7494C102.306 35.7494 103.111 35.5787 103.634 35.3699C104.157 35.161 104.585 34.7289 104.585 34.41C104.585 34.0886 104.032 34.138 103.345 34.5201C102.424 35.0328 101.882 35.0191 101.241 34.4657C100.766 34.0555 100.378 33.4733 100.378 33.1719C100.378 32.8699 101.46 32.6229 102.782 32.6229C104.354 32.6229 105.186 32.3415 105.186 31.81C105.186 31.363 104.862 30.6595 104.465 30.2468C104.068 29.8341 102.98 29.4965 102.046 29.4965C100.765 29.4965 100.2 29.901 99.7459 31.1441ZM108.62 29.8848C108.384 30.1299 108.191 30.7202 108.191 31.1966C108.191 31.6731 109.003 32.3572 109.995 32.7167C110.986 33.0763 111.798 33.6078 111.798 33.8979C111.798 34.188 111.504 34.6139 111.145 34.8452C110.785 35.076 110.19 34.9522 109.822 34.5695C109.454 34.1868 108.904 33.8735 108.599 33.8735C108.294 33.8735 108.392 34.3094 108.817 34.8415C109.242 35.3742 110.153 35.7256 110.843 35.6231C111.609 35.5093 112.172 34.8965 112.288 34.0517C112.431 33.0069 112.098 32.5685 110.935 32.2646C110.087 32.0433 109.394 31.4705 109.394 30.9922C109.394 30.5132 109.745 30.1217 110.175 30.1217C110.605 30.1217 111.315 30.4738 111.753 30.9034C112.395 31.5343 112.497 31.5043 112.278 30.747C112.128 30.2312 111.34 29.7259 110.527 29.624C109.713 29.5221 108.855 29.6396 108.62 29.8848ZM67.1719 31.216C67.3402 31.7469 66.7049 31.9976 65.192 31.9976C63.2493 31.9976 63.063 31.8738 63.7368 31.0297C64.1618 30.4969 65.0525 30.1455 65.7167 30.2481C66.3809 30.3506 67.0361 30.7864 67.1719 31.216ZM103.837 31.216C103.999 31.7281 103.445 31.9976 102.231 31.9976C101.211 31.9976 100.378 31.7631 100.378 31.4768C100.378 31.1898 100.569 30.7558 100.804 30.5119C101.038 30.2687 101.761 30.1511 102.41 30.2518C103.058 30.3525 103.701 30.7864 103.837 31.216Z" fill="#B2BFCD"/>
</svg>
