<svg width="103" height="34" viewBox="0 0 103 34" fill="none" xmlns="http://www.w3.org/2000/svg">
<path d="M42.04 21.117V33H48.041V32.303H42.754V21.117H42.04Z" fill="#B2BFCD"/>
<path d="M65.6141 33H66.3961L60.9561 21.117H60.1911L54.8021 33H55.5841L57.1141 29.617H64.0671L65.6141 33ZM57.4201 28.903L60.5651 21.933L63.7441 28.903H57.4201Z" fill="#B2BFCD"/>
<path d="M79.4382 21.117H74.5762V33H79.4722C82.1582 33 83.7392 31.827 83.7392 29.804C83.7392 28.138 82.6852 27.016 80.8492 26.795C82.3112 26.523 83.1442 25.52 83.1442 24.058C83.1442 22.205 81.7672 21.117 79.4382 21.117ZM79.4212 26.506H75.2902V21.814H79.4212C81.3252 21.814 82.4302 22.664 82.4302 24.143C82.4302 25.656 81.3252 26.506 79.4212 26.506ZM79.4212 32.286H75.2902V27.203H79.4212C81.7162 27.203 83.0252 28.121 83.0252 29.719C83.0252 31.368 81.7162 32.303 79.4212 32.286Z" fill="#B2BFCD"/>
<path d="M99.1335 22.698L99.4565 22.052C98.5725 21.474 97.2635 21.083 96.0565 21.083C93.7105 21.083 92.1465 22.188 92.1465 23.905C92.1465 28.189 99.1335 26.285 99.0995 30.008C99.0995 31.402 97.7905 32.286 95.7505 32.286C94.3565 32.286 92.8435 31.674 91.8745 30.671L91.5005 31.3C92.5375 32.32 94.1525 33.017 95.7335 33.017C98.2155 33.017 99.8645 31.827 99.8645 29.991C99.8985 25.605 92.9115 27.475 92.9115 23.854C92.9115 22.613 94.1355 21.831 96.0225 21.831C97.0425 21.831 98.2495 22.12 99.1335 22.698Z" fill="#B2BFCD"/>
<path d="M53.9489 6.21301L55.7199 2.53301C53.9719 1.40601 51.4419 0.670013 48.9809 0.670013C44.9559 0.670013 42.3109 2.64801 42.3109 5.75301C42.3109 11.434 50.7289 9.89301 50.7289 12.331C50.7289 13.067 50.0849 13.412 49.0729 13.412C47.4169 13.412 44.7259 12.354 43.0699 10.951L41.2759 14.585C43.2999 16.172 46.2899 17.138 49.0269 17.138C52.6379 17.138 55.6739 15.505 55.6739 12.078C55.6739 6.25901 47.2559 7.66201 47.2559 5.29301C47.2559 4.69501 47.7849 4.41901 48.5899 4.41901C49.9469 4.41901 52.2929 5.27001 53.9489 6.21301Z" fill="#B2BFCD"/>
<path d="M69.0892 6.85701L71.8492 3.59101C70.2162 1.84301 67.6172 0.739014 65.1792 0.739014C60.1882 0.739014 56.5082 4.21201 56.5082 8.90401C56.5082 13.665 60.1192 17.207 65.0182 17.207C67.4562 17.207 70.1012 15.988 71.8492 14.102L69.0892 11.158C67.9852 12.285 66.4902 13.021 65.2482 13.021C63.0632 13.021 61.4072 11.227 61.4072 8.85801C61.4072 6.48901 63.0632 4.71801 65.2482 4.71801C66.5822 4.71801 68.0772 5.56901 69.0892 6.85701Z" fill="#B2BFCD"/>
<path d="M88.189 17L84.923 11.733C86.6711 10.744 87.6371 8.99601 87.6371 6.60401C87.6371 2.94701 85.153 0.877013 80.829 0.877013H73.308V17H78.092V12.653H80.6221L82.7611 17H88.189ZM78.092 4.55701H80.829C82.255 4.55701 83.083 5.33901 83.083 6.74201C83.083 8.19101 82.255 8.97301 80.829 8.97301H78.092V4.55701Z" fill="#B2BFCD"/>
<path d="M88.7551 0.877013V4.69501H93.4241V17H98.2311V4.69501H102.923V0.877013H88.7551Z" fill="#B2BFCD"/>
<path d="M28.8099 5.14365C25.6568 2.01092 21.4682 0.287094 17.0124 0.287094C7.81027 0.287094 0.324951 7.72276 0.324951 16.8624C0.324951 26.002 7.81027 33.4376 17.0124 33.4376C21.4682 33.4376 25.6601 31.7138 28.8099 28.5811C31.963 25.4484 33.6966 21.288 33.6966 16.8624C33.6966 12.4368 31.963 8.27306 28.8099 5.14365ZM17.0124 32.2906C8.44824 32.2906 1.48065 25.3688 1.48065 16.8624C1.48065 8.35594 8.44824 1.4341 17.0124 1.4341C25.5766 1.4341 32.5442 8.35594 32.5442 16.8624C32.5442 25.3688 25.5766 32.2906 17.0124 32.2906Z" fill="#B2BFCD"/>
<path d="M22.4905 17.2537C21.4217 16.3056 20.0221 15.6724 18.666 15.0591L18.656 15.0558C16.2644 13.9718 14.1969 13.0336 14.3438 10.8159C14.4073 9.97052 15.0252 9.46 15.5329 9.18485C16.1041 8.87324 16.8623 8.68759 17.5638 8.68759C17.6473 8.68759 17.7308 8.69091 17.8109 8.69422C19.8518 8.83014 21.4617 9.68874 23.035 11.4722L23.1285 11.5816L23.2387 11.4888L23.8533 10.9584L23.9635 10.8623L23.8667 10.7529C22.1131 8.75721 20.2092 7.75275 17.8811 7.59694C17.7809 7.587 17.674 7.58368 17.5571 7.58368C17.4869 7.58368 17.4101 7.58368 17.33 7.58699H17.2298C15.7033 7.58699 14.0299 8.08425 12.7573 8.91965C11.2375 9.91748 10.3857 11.2899 10.3624 12.785C10.3022 16.4216 13.2984 17.6449 15.9404 18.7289L15.9471 18.7322L15.9738 18.7422C18.312 19.7035 20.3294 20.5323 20.286 22.7534C20.266 24.2186 18.155 25.0275 16.7053 25.0275H16.6452H16.5016V25.0308C14.3405 24.9678 12.4099 24.0429 10.7632 22.2893L10.663 22.1832L10.5561 22.2793L9.9582 22.8296L9.85132 22.9291L9.95152 23.0352C11.822 25.0341 14.1301 26.1082 16.6285 26.138H16.7421C18.3554 26.138 20.109 25.7071 21.4317 24.9811C23.0884 24.0827 24.0537 22.7733 24.1539 21.2947C24.2675 19.6704 23.723 18.3477 22.4905 17.2537ZM14.7346 14.0911C15.6866 14.9 16.9759 15.4801 18.2218 16.0404L18.2452 16.0503C19.5645 16.6537 20.8138 17.2239 21.7189 18.0162C22.721 18.8913 23.1452 19.9057 23.055 21.2086C22.9715 22.4981 22.0062 23.36 21.1277 23.8805C21.2981 23.5357 21.3916 23.1611 21.4016 22.7633C21.4217 21.424 20.9039 20.3533 19.815 19.4847C18.8631 18.7256 17.6005 18.2117 16.378 17.7112C13.8361 16.6736 11.4346 15.6923 11.478 12.7949C11.4913 11.6811 12.1661 10.6269 13.3785 9.82797C13.4186 9.80145 13.4587 9.77493 13.5021 9.74841C13.3585 10.06 13.2783 10.3849 13.2583 10.7264C13.1614 12.0689 13.6458 13.1695 14.7346 14.0911Z" fill="#B2BFCD"/>
</svg>
