<svg width="122" height="48" viewBox="0 0 122 48" fill="none" xmlns="http://www.w3.org/2000/svg">
<path fill-rule="evenodd" clip-rule="evenodd" d="M65.2539 0.0784693C65.0945 0.116354 64.7719 0.259769 64.537 0.397069C64.3022 0.53446 63.9821 0.827865 63.8259 1.04915L63.5417 1.45155H56.5218H49.5018L46.4082 5.05667L43.3146 8.66179L32.4031 8.66261L21.4915 8.66343L21.5173 9.78173L21.543 10.9L49.0666 10.9001L76.5902 10.9002L76.7386 11.1275C76.8201 11.2525 77.0202 11.5034 77.1831 11.685C77.346 11.8667 77.7327 12.1287 78.0423 12.2674C78.5397 12.4901 78.6865 12.5147 79.3012 12.4781C79.768 12.4502 80.1233 12.3717 80.3808 12.2396C80.5917 12.1313 80.9166 11.8883 81.1025 11.6995C81.2886 11.5108 81.5398 11.1431 81.6609 10.8823C81.8244 10.5304 81.8816 10.248 81.8831 9.78629C81.8844 9.36371 81.8264 9.02795 81.7022 8.73865C81.6016 8.50449 81.3647 8.14217 81.1756 7.93339C80.9866 7.72461 80.6235 7.44818 80.3688 7.3191C80.0635 7.16445 79.7029 7.07043 79.311 7.04331C78.854 7.01164 78.5983 7.0466 78.2061 7.19449C77.9253 7.30029 77.5328 7.52596 77.3337 7.69604C77.1347 7.86602 76.8919 8.15321 76.7942 8.33433L76.6166 8.66343H61.4979C53.1826 8.66343 46.3791 8.63951 46.3791 8.6103C46.3791 8.58109 47.3109 7.47192 48.4498 6.14548L50.5204 3.73379H57.0382H63.5559L63.6964 3.94778C63.7736 4.06545 63.961 4.28564 64.1128 4.43709C64.2645 4.58854 64.5868 4.80599 64.8289 4.92019C65.1456 5.06963 65.4367 5.12824 65.8659 5.12897C66.2833 5.1297 66.5995 5.06963 66.9179 4.92932C67.1684 4.81895 67.5107 4.59721 67.6787 4.43663C67.8467 4.27596 68.0857 3.94622 68.2099 3.70385C68.334 3.46148 68.4587 3.06774 68.487 2.82902C68.5197 2.55369 68.4841 2.20816 68.3898 1.88427C68.2831 1.51801 68.1105 1.23118 67.7795 0.869583C67.4436 0.502873 67.1812 0.314543 66.8161 0.178248C66.5401 0.0751817 66.1409 -0.00488038 65.929 0.000231837C65.7171 0.00543534 65.4132 0.0405841 65.2539 0.0784693ZM42.9701 12.9571C42.7807 13.0044 42.4692 13.1227 42.2778 13.2201C42.0865 13.3176 41.7738 13.5698 41.5829 13.7807C41.3919 13.9915 41.16 14.3352 41.0672 14.5443C40.9745 14.7534 40.8721 15.0905 40.8396 15.2932C40.8029 15.5221 40.8363 15.8793 40.9275 16.2346C41.0084 16.5495 41.1665 16.9365 41.2791 17.0944C41.3915 17.2523 41.5868 17.4767 41.713 17.5929C41.8392 17.7091 42.1689 17.9128 42.4456 18.0455C42.8466 18.2379 43.0787 18.286 43.589 18.2825C44.0304 18.2795 44.3623 18.2194 44.6571 18.0891C44.8923 17.985 45.2716 17.7282 45.4998 17.5182C45.728 17.3083 45.9397 17.0582 45.9701 16.9626C46.0244 16.792 46.5385 16.788 71.7017 16.7656L97.3778 16.7426L97.4036 15.6243L97.4293 14.506H71.7744H46.1196L45.9353 14.2093C45.8338 14.046 45.6144 13.7812 45.4475 13.6205C45.2807 13.46 44.9556 13.2454 44.7253 13.1439C44.4949 13.0424 44.0832 12.9394 43.8105 12.9152C43.5377 12.891 43.1597 12.9099 42.9701 12.9571ZM31.7779 19.3093C31.5709 19.3826 31.2342 19.5856 31.0295 19.7604C30.8243 19.9357 30.5316 20.3295 30.3768 20.6387C30.1723 21.047 30.0961 21.3272 30.0961 21.6705C30.0961 21.9297 30.1616 22.3337 30.2417 22.5683C30.3219 22.8029 30.5676 23.1949 30.788 23.4394C31.0349 23.7135 31.3707 23.9622 31.6636 24.088C32.0503 24.254 32.2689 24.286 32.8398 24.2601C33.4284 24.2334 33.6131 24.1838 33.991 23.9511C34.2387 23.7986 34.5853 23.4803 34.7613 23.2436L35.0813 22.8133H56.3729C68.0833 22.8133 77.6644 22.8375 77.6644 22.867C77.6644 22.8966 76.7145 24.0263 75.5535 25.3775L73.4427 27.8342H66.957H60.4713L60.3365 27.5739C60.2623 27.4307 60.0478 27.1789 59.8598 27.0142C59.6719 26.8495 59.3507 26.6389 59.1462 26.5461C58.898 26.4337 58.5614 26.3776 58.134 26.3776C57.7066 26.3776 57.37 26.4337 57.1218 26.5461C56.9172 26.6389 56.5918 26.8533 56.3985 27.0226C56.2053 27.1919 55.9301 27.5773 55.787 27.8791C55.5979 28.278 55.527 28.5668 55.527 28.9379C55.5269 29.325 55.5947 29.5837 55.8075 30.0088C55.9619 30.3171 56.2548 30.7117 56.4586 30.8857C56.6622 31.0597 57.0167 31.2659 57.2462 31.344C57.4757 31.422 57.8764 31.4858 58.1366 31.4858C58.3969 31.4858 58.7497 31.4379 58.9208 31.3793C59.0917 31.3207 59.3882 31.175 59.5796 31.0556C59.771 30.9361 60.0567 30.6554 60.2147 30.4318L60.5019 30.0252H67.5218H74.5418L77.6353 26.4201L80.7289 22.815L91.5919 22.8141L102.455 22.8133V21.7178V20.6224H68.7681H35.0813L34.7613 20.1887C34.5351 19.8822 34.2696 19.6682 33.8554 19.4584C33.3755 19.2154 33.1686 19.163 32.7119 19.1689C32.4053 19.1729 31.9849 19.2361 31.7779 19.3093ZM9.57194 41.017C9.37764 41.0891 9.0946 41.2643 8.94293 41.4063C8.79136 41.5484 8.59102 41.8289 8.4979 42.0298C8.40468 42.2306 8.32757 42.5874 8.32647 42.8226C8.32537 43.0579 8.36827 43.366 8.42179 43.5073C8.4753 43.6486 8.62963 43.881 8.76483 44.0237C8.89994 44.1663 9.15462 44.3551 9.33071 44.4431C9.5068 44.5311 9.99383 44.7204 10.4129 44.8638C10.9376 45.0434 11.2439 45.2065 11.3963 45.3872C11.518 45.5315 11.6176 45.7505 11.6176 45.8739C11.6176 45.9971 11.5584 46.2396 11.4859 46.4126C11.4135 46.5857 11.218 46.8124 11.0514 46.9166C10.8074 47.0693 10.6322 47.1003 10.1488 47.0763C9.65179 47.0518 9.46591 46.9934 9.06387 46.736C8.69082 46.4971 8.544 46.4469 8.42865 46.5188C8.34623 46.5702 8.21697 46.7239 8.1415 46.8603C8.01014 47.0978 8.0159 47.1178 8.27872 47.3317C8.42966 47.4546 8.73839 47.647 8.9648 47.7594C9.29961 47.9254 9.53004 47.9635 10.1997 47.9629C10.8671 47.9624 11.0924 47.9251 11.389 47.7659C11.5902 47.6579 11.8659 47.4527 12.0016 47.3101C12.1372 47.1674 12.3182 46.8864 12.4035 46.6855C12.489 46.4847 12.5595 46.0944 12.5604 45.8183C12.5612 45.5369 12.4989 45.1958 12.4187 45.0423C12.3399 44.8917 12.1789 44.6808 12.0609 44.5737C11.9429 44.4666 11.7143 44.3125 11.5531 44.2311C11.3917 44.1498 10.9134 43.9582 10.49 43.8053C10.0666 43.6524 9.62856 43.4299 9.51632 43.3106C9.38111 43.167 9.31241 42.98 9.31241 42.7557C9.31241 42.5634 9.38926 42.3139 9.49043 42.1778C9.58831 42.0462 9.82908 41.8842 10.0256 41.8177C10.2367 41.7464 10.5323 41.7203 10.7486 41.754C10.9499 41.7853 11.2923 41.9149 11.5094 42.0419C11.7266 42.1689 11.9611 42.251 12.0307 42.2245C12.1001 42.1978 12.2238 42.0471 12.3055 41.8895C12.4447 41.6207 12.4436 41.5948 12.2874 41.472C12.1957 41.4 11.9561 41.2526 11.7549 41.1447C11.4903 41.0028 11.1862 40.9398 10.6571 40.9171C10.1748 40.8965 9.80493 40.9305 9.57194 41.017ZM109.814 41.0587C109.561 41.1453 109.203 41.3082 109.02 41.421C108.838 41.5337 108.562 41.7697 108.407 41.9453C108.253 42.121 108.025 42.4643 107.901 42.7083C107.777 42.9523 107.631 43.4308 107.576 43.7717C107.522 44.1126 107.505 44.6201 107.539 44.8994C107.573 45.1789 107.678 45.6149 107.772 45.8683C107.866 46.1217 108.066 46.4966 108.217 46.7012C108.368 46.9059 108.708 47.2198 108.972 47.3988C109.237 47.5779 109.697 47.7936 109.996 47.8783C110.4 47.9927 110.753 48.0205 111.368 47.9864C111.886 47.9577 112.38 47.8702 112.684 47.7531C112.951 47.6499 113.27 47.5001 113.393 47.4201C113.612 47.2768 113.615 47.2548 113.615 45.9075V44.5402H112.517H111.42V44.8415C111.42 45.0072 111.469 45.192 111.529 45.2523C111.59 45.3125 111.878 45.3618 112.17 45.3618H112.7V46.0848V46.8078L112.22 46.9699C111.931 47.0675 111.479 47.1308 111.085 47.129C110.559 47.1265 110.328 47.0761 109.912 46.8729C109.579 46.7105 109.297 46.4866 109.124 46.2478C108.975 46.043 108.788 45.6503 108.708 45.3749C108.61 45.0387 108.576 44.662 108.604 44.2279C108.627 43.8634 108.726 43.3998 108.831 43.1645C108.933 42.9351 109.17 42.5979 109.359 42.4155C109.548 42.2322 109.907 42.0154 110.16 41.9314C110.489 41.8223 110.819 41.7909 111.325 41.8202C111.869 41.8516 112.131 41.917 112.469 42.1051C112.709 42.2394 112.981 42.3493 113.072 42.3493C113.162 42.3493 113.328 42.2208 113.44 42.0639L113.644 41.7784L113.424 41.6045C113.303 41.5089 113.086 41.367 112.943 41.2894C112.799 41.2117 112.49 41.0902 112.256 41.0194C112.023 40.9485 111.481 40.893 111.054 40.896C110.571 40.8994 110.101 40.961 109.814 41.0587ZM15.7341 44.4489V47.9179H16.2373H16.7404V46.366V44.8141H17.0985C17.4482 44.8141 17.489 44.8512 18.8067 46.366L20.1566 47.9179H20.7354C21.0538 47.9179 21.3143 47.8995 21.3143 47.877C21.3143 47.8544 20.6316 47.0284 19.7971 46.0414L18.28 44.2469L18.4989 44.0055C18.6192 43.8728 19.2064 43.2097 19.8037 42.5319C20.401 41.854 20.9504 41.2275 21.0247 41.1397C21.1511 40.9901 21.1218 40.9799 20.564 40.9799H19.9683L18.7092 42.3977C18.0166 43.1774 17.3753 43.8552 17.2841 43.9039C17.1929 43.9526 17.0333 43.9925 16.9294 43.9925C16.7461 43.9925 16.7404 43.9476 16.7404 42.4862V40.9799H16.2373H15.7341V44.4489ZM23.3504 41.0438C23.3723 41.084 23.9524 42.0453 24.6392 43.1801L25.8881 45.2433V46.5806V47.9179H26.3913H26.8944V46.5354V45.1527L28.1675 43.0664L29.4406 40.9799H28.8755C28.3891 40.9799 28.2924 41.0085 28.1806 41.1853C28.109 41.2983 27.6728 42.0355 27.2111 42.8236L26.3717 44.2564L25.421 42.641L24.4702 41.0256L23.8903 40.9982C23.5713 40.9831 23.3283 41.0037 23.3504 41.0438ZM32.2001 44.4489V47.9179H32.656H33.112L33.1363 45.3575L33.1606 42.797L35.0311 45.2321C36.06 46.5714 36.9583 47.7237 37.0274 47.7926C37.0964 47.8615 37.3147 47.9179 37.5123 47.9179H37.8717V44.4489V40.9799H37.4158H36.9598L36.9355 43.5403L36.9112 46.1006L34.9444 43.5414L32.9777 40.9823L32.5889 40.9811L32.2001 40.9799V44.4489ZM41.4393 44.4489V47.9179H43.589H45.7388V47.5071V47.0963H44.0922H42.4456V45.9552V44.8141H43.772H45.0984V44.4033V43.9925H43.772H42.4456V42.897V41.8015H44.0922H45.7388V41.3907V40.9799H43.589H41.4393V44.4489ZM48.2087 41.3907V41.8015H49.3064H50.4041V44.8597V47.9179H50.953H51.5019V44.8597V41.8015H52.5996H53.6973V41.3907V40.9799H50.953H48.2087V41.3907ZM59.6434 41.3907V41.8015H60.7411H61.8388V44.8597V47.9179H62.3877H62.9365V44.8597V41.8015H64.0343H65.132V41.3907V40.9799H62.3877H59.6434V41.3907ZM68.0593 44.4414V47.9179H68.5624H69.0655V46.4982V45.0784L69.5458 45.106L70.0261 45.1336L70.873 46.2747C71.3388 46.9023 71.8122 47.5318 71.925 47.6735C72.1161 47.9135 72.1685 47.929 72.6935 47.9017L73.2571 47.8723L72.171 46.4117C71.5737 45.6083 71.0834 44.9285 71.0814 44.9009C71.0796 44.8733 71.2119 44.8019 71.3754 44.7422C71.5388 44.6824 71.8065 44.5077 71.97 44.3539C72.1336 44.2002 72.3298 43.954 72.4061 43.8068C72.4823 43.6596 72.5689 43.3635 72.5984 43.1487C72.6279 42.9339 72.6055 42.5859 72.5487 42.3753C72.4919 42.1647 72.3384 41.8655 72.2076 41.7104C72.0768 41.5552 71.8001 41.3381 71.5925 41.2276C71.2541 41.0475 71.0528 41.0236 69.6373 40.9958L68.0593 40.9649V44.4414ZM76.7028 44.3348C75.9625 46.18 75.3356 47.7433 75.3097 47.8088C75.2736 47.9001 75.3873 47.9213 75.8003 47.9L76.338 47.8723L76.6989 46.9822L77.0598 46.0921H78.5849H80.11L80.409 46.8909C80.5734 47.3303 80.7486 47.7411 80.7983 47.8038C80.8509 47.8703 81.098 47.9179 81.3902 47.9179C81.7548 47.9179 81.8796 47.8867 81.8468 47.8038C81.822 47.7411 81.1959 46.18 80.4556 44.3348L79.1095 40.9799H78.5792H78.0489L76.7028 44.3348ZM84.6167 44.4505V47.9316L86.4234 47.902C88.0625 47.875 88.2711 47.8534 88.6719 47.6688C88.9149 47.5569 89.2717 47.3404 89.4649 47.1877C89.6581 47.0351 89.9414 46.7214 90.0945 46.4907C90.2476 46.2599 90.4406 45.8397 90.5232 45.5567C90.6302 45.1902 90.6628 44.8061 90.6366 44.2207C90.608 43.5816 90.5468 43.2841 90.3608 42.881C90.2293 42.5961 89.9533 42.1806 89.7474 41.9576C89.525 41.7169 89.141 41.4454 88.8015 41.2889C88.2416 41.0309 88.1938 41.025 86.4234 40.9975L84.6167 40.9693V44.4505ZM93.9474 44.4489V47.9179H94.4506H94.9537V44.4489V40.9799H94.4506H93.9474V44.4489ZM98.7043 44.4489V47.9179H99.1602H99.6162L99.6405 45.3575L99.6648 42.797L101.535 45.2321C102.564 46.5714 103.462 47.7237 103.532 47.7926C103.601 47.8615 103.819 47.9179 104.016 47.9179H104.376V44.4489V40.9799H103.92H103.464L103.44 43.5403L103.415 46.1006L101.449 43.5414L99.4818 40.9823L99.093 40.9811L98.7043 40.9799V44.4489ZM70.9866 41.9615C71.1663 42.051 71.3788 42.2612 71.4711 42.4406C71.5875 42.6668 71.6195 42.8667 71.5808 43.1252C71.5508 43.3261 71.4633 43.5862 71.3865 43.7035C71.3096 43.8206 71.075 43.9943 70.8651 44.0894C70.5976 44.2107 70.2714 44.263 69.7745 44.2644L69.0655 44.2664V43.0339V41.8015L69.866 41.8017C70.4448 41.8018 70.755 41.846 70.9866 41.9615ZM88.2758 42.0201C88.4519 42.1122 88.713 42.2958 88.856 42.4282C88.9989 42.5605 89.1927 42.8179 89.2867 43.0001C89.3806 43.1823 89.4981 43.5829 89.5476 43.8902C89.6073 44.2599 89.6068 44.642 89.5462 45.0195C89.4958 45.3333 89.3579 45.7544 89.2398 45.9552C89.1217 46.156 88.928 46.4108 88.8093 46.5214C88.6906 46.632 88.4294 46.793 88.2288 46.8792C87.9752 46.9882 87.5228 47.0485 86.7436 47.0772L85.623 47.1183V44.4508V41.7832L86.7893 41.8179C87.6937 41.8448 88.0276 41.8902 88.2758 42.0201ZM79.1738 43.6829C79.4757 44.4665 79.7364 45.1442 79.7531 45.189C79.7701 45.2343 79.2476 45.2705 78.5792 45.2705C77.9101 45.2705 77.3884 45.2343 77.4053 45.189C77.422 45.1441 77.6817 44.4663 77.9824 43.6827C78.283 42.8991 78.5506 42.2581 78.577 42.2582C78.6034 42.2583 78.8719 42.8995 79.1738 43.6829ZM0.357951 44.3834C0.278183 44.4446 0.164933 44.5843 0.106388 44.694C0.0479337 44.8037 0 44.9759 0 45.0768C0 45.1778 0.0976061 45.3736 0.216801 45.5119C0.378351 45.6993 0.517214 45.7635 0.761185 45.7635C0.948348 45.7635 1.16671 45.693 1.27099 45.5988C1.37125 45.5083 1.47892 45.3176 1.5103 45.1751C1.54195 45.0313 1.51725 44.8223 1.45477 44.7054C1.39293 44.5894 1.27694 44.4446 1.19717 44.3834C1.11731 44.3222 0.928497 44.2722 0.777559 44.2722C0.626621 44.2722 0.437811 44.3222 0.357951 44.3834ZM120.834 44.3834C120.754 44.4446 120.641 44.5843 120.582 44.694C120.524 44.8037 120.476 44.9759 120.476 45.0768C120.476 45.1778 120.574 45.3736 120.693 45.5119C120.854 45.6993 120.993 45.7635 121.237 45.7635C121.424 45.7635 121.643 45.693 121.747 45.5988C121.847 45.5083 121.955 45.3176 121.986 45.1751C122.018 45.0313 121.993 44.8223 121.931 44.7054C121.869 44.5894 121.753 44.4446 121.673 44.3834C121.593 44.3222 121.404 44.2722 121.253 44.2722C121.103 44.2722 120.914 44.3222 120.834 44.3834Z" fill="#B2BFCD"/>
</svg>
