<svg width="20" height="20" viewBox="0 0 20 20" fill="none" xmlns="http://www.w3.org/2000/svg">
<path fill-rule="evenodd" clip-rule="evenodd" d="M5 0C4.30964 0 3.75 0.559644 3.75 1.25V2.5H2.5C1.11929 2.5 0 3.61929 0 5V17.5C0 18.8807 1.11929 20 2.5 20H17.5C18.8807 20 20 18.8807 20 17.5V5C20 3.61929 18.8807 2.5 17.5 2.5H16.25V1.25C16.25 0.559644 15.6904 0 15 0C14.3096 0 13.75 0.559644 13.75 1.25V2.5H6.25V1.25C6.25 0.559644 5.69036 0 5 0ZM5 6.25C4.30964 6.25 3.75 6.80964 3.75 7.5C3.75 8.19036 4.30964 8.75 5 8.75H15C15.6904 8.75 16.25 8.19036 16.25 7.5C16.25 6.80964 15.6904 6.25 15 6.25H5Z" fill="#4CBEB3"/>
</svg>
