<svg width="21" height="20" viewBox="0 0 21 20" fill="none" xmlns="http://www.w3.org/2000/svg">
<path fill-rule="evenodd" clip-rule="evenodd" d="M5.5 0C4.80964 0 4.25 0.559644 4.25 1.25V2.5H3C1.61929 2.5 0.5 3.61929 0.5 5V17.5C0.5 18.8807 1.61929 20 3 20H18C19.3807 20 20.5 18.8807 20.5 17.5V5C20.5 3.61929 19.3807 2.5 18 2.5H16.75V1.25C16.75 0.559644 16.1904 0 15.5 0C14.8096 0 14.25 0.559644 14.25 1.25V2.5H6.75V1.25C6.75 0.559644 6.19036 0 5.5 0ZM5.5 6.25C4.80964 6.25 4.25 6.80964 4.25 7.5C4.25 8.19036 4.80964 8.75 5.5 8.75H15.5C16.1904 8.75 16.75 8.19036 16.75 7.5C16.75 6.80964 16.1904 6.25 15.5 6.25H5.5Z" fill="#B2BFCD"/>
</svg>
