<svg width="22" height="24" viewBox="0 0 22 24" fill="none" xmlns="http://www.w3.org/2000/svg">
<path fill-rule="evenodd" clip-rule="evenodd" d="M13 1.15467C11.7624 0.440142 10.2376 0.440142 8.99997 1.15467L2.60767 4.84527C1.37006 5.5598 0.607666 6.88031 0.607666 8.30937V15.6906C0.607666 17.1196 1.37006 18.4401 2.60767 19.1547L8.99997 22.8453C10.2376 23.5598 11.7624 23.5598 13 22.8453L19.3923 19.1547C20.6299 18.4401 21.3923 17.1196 21.3923 15.6906V8.30937C21.3923 6.88031 20.6299 5.5598 19.3923 4.84527L13 1.15467ZM8.79218 7.67746C9.27992 7.41643 9.87174 7.44504 10.332 7.7519L14.832 10.7519C15.2493 11.0301 15.5 11.4984 15.5 12C15.5 12.5015 15.2493 12.9699 14.832 13.248L10.332 16.248C9.87174 16.5549 9.27992 16.5835 8.79218 16.3225C8.30445 16.0615 7.99997 15.5532 7.99997 15V8.99997C7.99997 8.44678 8.30445 7.93849 8.79218 7.67746Z" fill="#E8504A"/>
</svg>
