<svg width="575" height="420" viewBox="0 0 575 420" fill="none" xmlns="http://www.w3.org/2000/svg">
<g clip-path="url(#clip0_5947_30085)">
<g opacity="0.22">
<path opacity="0.22" d="M370.651 38.1753C370.521 46.8784 369.836 55.5644 368.601 64.1805C367.525 72.1204 366.407 80.0531 365.503 88.0145C364.478 97.0579 363.632 106.13 363.739 115.245C363.833 122.282 364.679 129.197 367.819 135.625C369.123 138.438 371.013 140.94 373.363 142.964C375.712 144.989 378.467 146.488 381.443 147.363C387.01 149.075 392.831 149.819 398.651 149.563C405.19 149.312 411.557 148.13 417.931 146.79C424.764 145.356 431.476 143.493 438.194 141.673C442.941 140.39 447.644 138.957 452.384 137.675C457.625 136.241 462.873 134.894 468.201 133.812C473.504 132.622 478.879 131.773 484.291 131.268C491.626 130.731 498.824 131.347 505.514 134.78C512.763 138.499 517.036 144.525 518.886 152.343C520.068 157.668 520.265 163.164 519.467 168.56C517.825 181.208 513.014 192.702 506.79 203.709C501.409 213.112 495.055 221.924 487.833 230.001C478.541 240.686 468.029 250.249 456.514 258.493C451.222 262.233 445.78 265.728 440.187 268.976C435.634 271.635 430.816 273.778 426.055 276.042C417.365 280.177 408.488 283.925 399.963 288.396C395.195 290.904 390.448 293.448 385.859 296.279C378.95 300.564 372.341 305.314 366.077 310.496C357.86 317.225 350.374 324.72 342.753 332.073C335.783 338.794 328.9 345.609 321.407 351.758C316.11 356.226 310.387 360.164 304.321 363.517C296.57 367.659 288.496 371.156 279.806 372.739C268.563 374.796 258.074 372.904 249.132 365.373C244.427 361.302 240.743 356.185 238.377 350.432C235.007 342.671 232.742 334.588 230.82 326.39C229.68 321.539 228.669 316.666 227.4 311.85C226.216 307.124 224.111 302.677 221.205 298.765C215.493 291.066 208.527 284.38 200.598 278.987C194.862 275.161 188.868 271.821 182.888 268.46C173.674 263.251 164.547 257.898 155.856 251.85C151.303 248.682 146.815 245.436 142.513 241.932C137.103 237.615 132.094 232.819 127.549 227.6C123.678 223.071 120.141 218.267 116.966 213.225C115.309 210.61 113.746 207.944 112.32 205.199C109.653 200.199 107.341 195.017 105.4 189.692C103.151 183.508 101.487 177.126 100.431 170.631C99.3724 163.603 99.1175 156.477 99.6714 149.391C100.153 142.875 101.139 136.407 102.618 130.043C103.292 127.176 104.052 124.31 104.863 121.444C106.523 115.684 108.608 110.055 111.101 104.604C113.484 99.2211 116.487 94.1347 120.049 89.4477C125.169 82.8463 132.168 77.9476 140.125 75.3952C144.804 73.8748 149.651 72.9314 154.559 72.5862C158.344 72.2852 162.116 72.3855 165.895 72.3999C170.132 72.3999 174.363 72.7725 178.6 72.8012C181.468 72.8012 184.336 72.966 187.204 72.966C191.779 72.966 196.348 72.8131 200.913 72.5074C205.036 72.235 209.145 71.9484 213.232 71.3751C219.749 70.5017 226.144 68.8811 232.29 66.5453C243.497 62.2457 253.449 55.7963 262.835 48.4512C269.539 43.1843 275.884 37.4945 282.237 31.8119C290.612 24.3235 299.445 17.48 309.182 11.7974C313.291 9.43946 317.572 7.39378 321.988 5.67765C326.198 4.041 330.524 2.71884 334.93 1.72205C339.791 0.554942 344.839 0.393992 349.765 1.24909C357.466 2.63212 362.728 7.06784 366.192 13.9257C368.543 18.605 369.662 23.5925 370.264 28.7377C370.569 31.8739 370.698 35.0247 370.651 38.1753Z" fill="#EB8045"/>
</g>
<path d="M269.596 218.628C269.596 218.628 269.754 216.478 269.754 216.056C269.754 215.633 270.27 215.626 271.066 215.683C271.862 215.74 311.405 215.375 315.349 215.296C319.292 215.217 407.678 215.525 408.288 215.525C408.897 215.525 409.292 216.013 409.865 217.102C410.439 218.191 417.752 229.721 418.749 231.434C419.746 233.146 428.07 246.146 428.981 247.371C429.891 248.596 437.169 261.746 437.965 262.943C438.761 264.139 449.308 282.914 449.961 283.96C450.613 285.007 454.851 292.258 455.761 294.365C456.672 296.472 458.192 298.994 458.264 299.181C458.335 299.367 458.264 299.532 457.962 299.589C457.661 299.647 402.824 303.566 399.074 303.796C395.324 304.025 345.298 307.429 338.58 308.095C331.862 308.762 271.375 314.459 269.675 314.681L265.567 315.24C265.395 315.24 265.137 315.326 265.165 314.566C265.194 313.806 265.495 306.899 265.466 305.967C265.438 305.035 266.528 283.666 266.528 282.19C266.528 280.714 267.13 267.565 267.173 266.053C267.216 264.541 267.775 247.149 267.775 245.938C267.775 244.727 268.385 236.013 268.492 234.909C268.6 233.806 269.596 219.273 269.596 218.628Z" fill="#FFDAB6"/>
<path d="M196.82 140.462C196.82 140.462 196.985 138.312 196.985 137.89C196.985 137.467 197.494 137.46 198.29 137.517C199.086 137.574 238.629 137.209 242.573 137.13C246.516 137.051 334.902 137.359 335.512 137.359C336.121 137.359 336.515 137.847 337.096 138.936C337.677 140.025 344.983 151.555 345.973 153.268C346.962 154.98 355.294 167.979 356.204 169.205C357.115 170.43 364.393 183.58 365.189 184.776C365.985 185.973 376.532 204.748 377.184 205.794C377.837 206.84 382.074 214.092 382.985 216.199C383.895 218.306 385.416 220.828 385.487 221.015C385.559 221.201 385.487 221.366 385.186 221.423C384.885 221.48 330.055 225.4 326.298 225.63C322.541 225.859 272.522 229.263 265.804 229.929C259.085 230.596 198.605 236.292 196.899 236.515L192.79 237.074C192.618 237.074 192.36 237.16 192.389 236.4C192.418 235.64 192.719 228.732 192.69 227.801C192.661 226.869 193.751 205.5 193.751 204.024C193.751 202.548 194.361 189.398 194.397 187.886C194.432 186.374 194.999 168.983 194.999 167.772C194.999 166.561 195.608 157.847 195.716 156.743C195.823 155.64 196.82 141.086 196.82 140.462Z" fill="#F5BB83"/>
<path d="M233.208 59.5441C233.208 59.5441 233.373 57.3943 233.373 56.9644C233.373 56.5344 233.882 56.5416 234.678 56.5989C235.473 56.6563 275.017 56.2836 278.96 56.2048C282.904 56.126 371.29 56.4341 371.899 56.4341C372.509 56.4341 372.903 56.9286 373.477 58.0178C374.05 59.107 381.364 70.6299 382.36 72.3497C383.357 74.0695 391.682 87.0686 392.592 88.2868C393.503 89.505 400.78 102.662 401.576 103.858C402.372 105.055 412.919 123.83 413.572 124.883C414.224 125.937 418.462 133.182 419.373 135.281C420.283 137.381 421.803 139.91 421.875 140.097C421.947 140.283 421.875 140.455 421.574 140.505C421.273 140.555 366.443 144.489 362.686 144.712C358.929 144.934 308.91 148.352 302.191 149.011C295.473 149.67 234.993 155.374 233.287 155.604L229.178 156.156C229.006 156.156 228.748 156.242 228.777 155.489C228.805 154.737 229.106 147.814 229.078 146.89C229.049 145.966 230.139 124.582 230.139 123.106C230.139 121.63 230.741 108.488 230.784 106.968C230.827 105.449 231.387 88.0646 231.387 86.8536C231.387 85.6425 231.996 76.9287 232.104 75.8323C232.211 74.736 233.208 60.1747 233.208 59.5441Z" fill="#FFDAB6"/>
<path d="M299.302 272.437C300.227 271.004 300.966 269.822 301.668 268.647C302.217 267.772 302.914 266.999 303.726 266.361C305.002 265.3 306.293 265.501 307.268 266.841C307.95 267.826 308.545 268.869 309.046 269.958C310.624 273.204 312.215 276.465 314.876 279.002C315.967 280.194 317.435 280.975 319.034 281.216C320.154 281.348 321.289 281.167 322.312 280.693C323.335 280.218 324.206 279.469 324.828 278.529C326.384 276.462 327.465 274.08 327.997 271.549C328.106 271.173 328.127 270.776 328.057 270.391C327.987 270.006 327.829 269.642 327.595 269.327C327.043 268.611 326.67 267.729 327.223 266.769C327.307 266.557 327.454 266.376 327.643 266.248C327.832 266.12 328.055 266.052 328.284 266.053C328.485 266.062 328.679 266.128 328.845 266.242C329.011 266.356 329.142 266.513 329.223 266.698C329.439 267.164 329.588 267.659 329.668 268.167C329.99 269.535 330.6 269.951 331.983 269.836C332.156 269.832 332.327 269.806 332.493 269.757C333.116 269.542 333.819 269.299 333.991 270.216C334.142 270.99 333.403 271.047 332.865 271.241C332.269 271.446 331.631 271.5 331.008 271.398C329.668 271.191 329.617 271.183 329.316 272.502C328.733 274.727 327.762 276.833 326.448 278.722C325.464 280.34 323.982 281.597 322.225 282.305C319.421 283.394 316.933 282.656 314.725 280.793C312.495 278.834 310.666 276.461 309.34 273.806C308.509 272.237 307.741 270.632 306.938 269.041C306.744 268.563 306.464 268.123 306.114 267.744C306.012 267.622 305.887 267.522 305.745 267.45C305.603 267.378 305.448 267.337 305.289 267.327C305.131 267.318 304.972 267.341 304.823 267.395C304.673 267.45 304.537 267.534 304.422 267.643C304.068 267.933 303.757 268.271 303.497 268.647C302.221 270.475 301.076 272.391 300.069 274.379C299.714 275.101 299.588 275.914 299.711 276.708C300.182 279.824 300.114 282.996 299.51 286.089C299.123 287.758 299.424 289.507 298.994 291.198C298.69 292.767 298.28 294.313 297.768 295.827C297.591 296.313 297.35 296.774 297.051 297.196C296.95 297.372 296.805 297.519 296.631 297.622C296.456 297.726 296.258 297.782 296.055 297.787C295.853 297.791 295.652 297.743 295.474 297.647C295.295 297.551 295.144 297.41 295.036 297.239C294.762 296.947 294.55 296.604 294.412 296.228C293.803 294.258 293.279 292.251 293.882 290.188C294.355 288.575 294.104 286.898 294.534 285.265C295.286 282.093 296.332 278.998 297.66 276.02C297.947 275.519 298.063 274.938 297.99 274.365C297.452 271.305 296.764 268.324 294.957 265.687C292.863 262.627 289.938 261.617 286.439 262.247C284.792 262.621 283.294 263.477 282.137 264.705C279.342 267.515 277.203 270.906 275.87 274.637C274.494 278.095 273.713 281.761 273.561 285.48C273.504 287.235 273.483 289.177 274.852 290.675C275.211 291.062 275.325 291.499 274.852 291.857C274.379 292.216 274.135 291.821 273.827 291.535C272.753 290.319 272.168 288.749 272.185 287.128C271.869 280.578 273.748 274.58 276.974 268.962C278.285 266.615 280.015 264.529 282.08 262.806C285.579 259.94 291.178 259.775 294.663 263.043C296.1 264.455 297.196 266.175 297.868 268.073C298.363 269.413 298.75 270.768 299.302 272.437ZM297.976 278.744C297.904 278.966 297.854 279.188 297.768 279.396C296.04 283.917 294.9 288.539 295.194 293.427C295.15 294.487 295.5 295.525 296.176 296.343C297.991 290.687 298.806 284.758 298.585 278.822C298.585 278.536 298.85 278.106 298.406 278.034C297.961 277.962 297.99 278.421 297.968 278.744H297.976Z" fill="#B8C4D1"/>
<path d="M279.075 168.288C279.606 167.872 279.598 167.377 279.792 166.976C280.011 166.449 280.272 165.941 280.574 165.457C281.936 163.529 283.678 163.551 284.976 165.507C285.738 166.727 286.259 168.082 286.51 169.499C287.256 173.566 287.256 177.735 286.51 181.803C286.081 184.404 285.465 186.971 284.668 189.484C284.302 190.66 284.352 190.774 285.385 191.412C286.316 191.983 287.309 192.444 288.346 192.788C289.493 193.168 290.648 193.505 291.845 192.903C291.914 192.85 291.994 192.814 292.078 192.796C292.163 192.778 292.251 192.779 292.335 192.799C292.419 192.819 292.498 192.857 292.566 192.911C292.634 192.965 292.689 193.033 292.727 193.11C292.805 193.267 292.824 193.446 292.779 193.615C292.734 193.784 292.629 193.931 292.483 194.028C292.217 194.247 291.908 194.41 291.576 194.506C291.245 194.602 290.897 194.629 290.554 194.587C288.654 194.587 286.969 193.748 285.356 192.946C285.048 192.795 284.761 192.594 284.467 192.422C284.391 192.355 284.298 192.309 284.199 192.289C284.099 192.268 283.996 192.273 283.899 192.304C283.802 192.335 283.715 192.391 283.646 192.466C283.578 192.54 283.529 192.632 283.506 192.731C283.219 193.447 282.961 194.121 282.667 194.802C280.941 199.119 278.596 203.162 275.705 206.805C273.332 209.671 270.578 212.064 266.922 213.161C264.527 213.877 262.139 213.877 259.945 212.573C259.013 212.007 258.511 212.308 257.923 212.967C255.691 215.433 253.23 217.681 250.574 219.682C248.624 221.115 246.616 222.434 244.185 222.921C243.22 223.158 242.201 223.038 241.317 222.584C240.9 222.382 240.568 222.038 240.382 221.614C240.195 221.19 240.166 220.713 240.299 220.269C240.329 220.128 240.404 220 240.513 219.905C240.621 219.809 240.757 219.751 240.901 219.739C240.974 219.733 241.047 219.742 241.116 219.766C241.185 219.789 241.248 219.827 241.302 219.876C241.356 219.925 241.399 219.985 241.429 220.051C241.459 220.118 241.474 220.189 241.475 220.262C241.511 220.778 241.511 221.308 242.099 221.559C242.634 221.773 243.221 221.82 243.784 221.695C245.191 221.398 246.525 220.829 247.713 220.019C251.334 217.74 254.353 214.759 257.271 211.67C257.615 211.305 257.809 210.954 257.429 210.481C253.922 205.973 253.169 200.663 253.255 195.203C253.379 185.302 255.851 175.572 260.469 166.811C261.941 163.866 264.009 161.257 266.542 159.151C267.461 158.373 268.506 157.757 269.632 157.331C270.861 156.81 272.237 156.748 273.508 157.156C274.779 157.564 275.862 158.414 276.558 159.552C277.992 161.587 278.473 163.938 278.774 166.346C278.759 167.006 278.861 167.663 279.075 168.288ZM258.798 209.771C259.18 209.588 259.499 209.297 259.716 208.933C262.15 205.966 264.357 202.821 266.319 199.524C270.55 192.473 274.257 185.192 276.358 177.195C277.369 173.354 277.971 169.463 277.318 165.478C277.103 163.533 276.409 161.672 275.296 160.061C274.758 159.274 273.97 158.691 273.059 158.406C272.149 158.121 271.169 158.151 270.277 158.492C269.03 158.933 267.887 159.629 266.922 160.534C264.907 162.332 263.235 164.481 261.989 166.876C256.943 176.191 254.404 186.655 254.618 197.245C254.61 200.816 255.456 204.336 257.084 207.514C257.543 208.352 257.923 209.313 258.798 209.771ZM278.294 175.482C278.208 175.561 278.078 175.625 278.057 175.711C276.171 183.888 272.572 191.348 268.384 198.557C266.067 202.583 263.429 206.417 260.497 210.022C259.78 210.889 259.838 211.061 260.77 211.556C262.245 212.361 263.967 212.591 265.602 212.201C269.302 211.362 272.056 209.134 274.458 206.317C277.971 202.14 280.337 197.324 282.345 192.294C282.508 191.939 282.559 191.543 282.492 191.159C282.424 190.775 282.24 190.421 281.965 190.144C280.457 188.331 279.424 186.171 278.96 183.859C278.533 181.667 278.348 179.435 278.408 177.202C278.518 176.628 278.478 176.036 278.294 175.482ZM282.983 189.363C283.571 189.055 283.542 188.646 283.642 188.352C285.227 183.436 285.916 178.276 285.679 173.117C285.616 171.171 285.231 169.248 284.539 167.428C284.332 166.83 284.008 166.279 283.585 165.808C282.968 165.192 282.581 165.185 281.986 165.808C281.426 166.464 281.017 167.234 280.789 168.065C280.23 169.812 279.921 171.629 279.871 173.461C279.634 177.123 279.405 180.785 280.38 184.389C280.866 186.22 281.755 187.92 282.983 189.363Z" fill="#ED8B54"/>
<path d="M275.87 100.619C275.727 103.249 275.87 105.872 277.154 108.287C279.591 112.852 283.248 113.862 287.514 112.343C290.647 111.195 293.393 109.188 295.437 106.553C296.563 105.17 297.588 103.737 298.607 102.253C298.83 102 298.944 101.67 298.925 101.333C298.907 100.997 298.756 100.681 298.506 100.455C295.545 96.5348 295.301 92.2495 297.072 87.7995C297.596 86.4738 298.506 85.1696 300.141 85.1624C301.776 85.1552 302.787 86.3233 303.454 87.7565C304.191 89.3822 304.373 91.2055 303.97 92.9446C303.497 95.2974 302.713 97.577 301.639 99.7236C301.059 100.892 301.044 100.97 302.249 101.472C305.721 103.009 309.596 103.383 313.298 102.54C314.534 102.255 315.663 101.623 316.553 100.72C317.118 100.237 317.717 99.7962 318.346 99.4011C318.397 99.35 318.457 99.3094 318.523 99.2817C318.59 99.254 318.661 99.2398 318.733 99.2398C318.805 99.2398 318.876 99.254 318.943 99.2817C319.009 99.3094 319.07 99.35 319.12 99.4011C319.222 99.5056 319.279 99.6457 319.279 99.7917C319.279 99.9376 319.222 100.078 319.12 100.182C318.71 100.662 318.269 101.114 317.801 101.537C316.03 103.084 314.065 104.145 311.613 104.059C310.122 104.002 308.63 104.016 307.139 104.023C305.194 104.045 303.274 103.59 301.546 102.697C300.399 102.11 300.32 102.103 299.653 103.199C298.138 105.546 296.336 107.696 294.29 109.598C292.348 111.633 289.901 113.116 287.199 113.898C282.388 115.123 278.459 114.134 275.978 109.262C275.002 107.348 274.44 105.251 274.329 103.106C274.204 100.425 274.353 97.7382 274.773 95.0872C275.655 89.0607 277.935 83.5715 280.76 78.2831C282.712 74.5134 285.314 71.1173 288.446 68.2507C289.957 66.8529 291.782 65.838 293.767 65.2912C294.618 65.0383 295.516 64.9862 296.39 65.1391C297.264 65.2919 298.092 65.6455 298.806 66.172C299.521 66.6986 300.103 67.3836 300.508 68.1734C300.912 68.9631 301.128 69.8358 301.138 70.723C301.295 73.8545 300.148 76.5059 298.678 79.1287C296.568 83.0095 293.537 86.314 289.852 88.7525C287.957 90.0561 285.818 90.9629 283.564 91.4183C282.808 91.6123 282.013 91.5799 281.276 91.3251C280.539 91.0702 279.893 90.6042 279.419 89.9851C279.301 89.8575 279.212 89.7063 279.157 89.5415C279.102 89.3768 279.083 89.2022 279.1 89.0294C279.118 88.8566 279.172 88.6895 279.259 88.5393C279.346 88.389 279.464 88.2589 279.606 88.1578C279.739 88.004 279.919 87.8978 280.118 87.8552C280.317 87.8125 280.525 87.8357 280.71 87.9213C281.104 88.1219 280.982 88.4731 280.882 88.817C280.624 89.634 281.183 89.8346 281.793 89.8991C283.227 90.0392 284.674 89.7917 285.98 89.1825C288.639 87.9571 291.043 86.2406 293.064 84.1233C295.463 81.7377 297.421 78.948 298.85 75.8825C299.695 73.991 299.986 71.8988 299.689 69.8488C299.431 67.5556 296.821 65.972 294.52 66.5524C292.746 67.0333 291.118 67.944 289.78 69.2038C285.349 73.1737 282.252 78.0681 279.878 83.4784C278.478 86.6132 277.372 89.8709 276.573 93.2098C275.98 95.6325 275.744 98.1285 275.87 100.619ZM297.596 93.0521C297.596 93.4176 297.553 94.0553 297.596 94.6788C297.722 96.3395 298.308 97.9323 299.288 99.2793C299.596 99.7093 300.041 100.154 300.435 99.3367C301.826 96.3699 303.095 93.3674 302.751 89.9779C302.682 88.9994 302.323 88.0636 301.718 87.2907C300.822 86.2015 299.94 86.1943 299.022 87.2907C298.745 87.6553 298.505 88.0466 298.305 88.4587C297.648 89.8946 297.402 91.4848 297.596 93.0521Z" fill="#B8C4D1"/>
<path d="M356.204 264.118C356.023 263.515 355.621 263.003 355.078 262.685C354.634 262.334 354.232 261.968 353.809 261.567C353.073 260.906 352.511 260.073 352.174 259.143C351.836 258.213 351.733 257.215 351.873 256.235C352.239 255.734 352.59 255.239 352.978 254.731C353.639 253.689 354.58 252.852 355.692 252.317C356.805 251.781 358.045 251.567 359.273 251.699C361.137 251.859 362.985 252.163 364.801 252.609C367.669 253.326 370.487 254.222 373.319 255.046C378.446 256.185 383.551 257.403 388.699 258.435C395.152 259.725 401.483 261.388 408.001 262.248C410.317 262.556 411.837 261.022 411.349 258.758C410.98 257.082 410.456 255.444 409.786 253.863C408.431 250.603 406.33 248.181 402.788 247.077C400.766 246.447 398.838 245.587 396.679 245.529C396.558 245.422 396.443 245.236 396.307 245.207C393.287 244.624 390.23 244.265 387.158 244.132C379.282 244.24 371.48 245.656 364.07 248.324C360.27 249.886 356.376 251.226 352.533 252.688C352.035 252.908 351.496 253.021 350.952 253.021C350.408 253.021 349.869 252.908 349.371 252.688C348.374 251.112 348.926 249.564 349.636 248.131C350.246 246.959 351.026 245.884 351.952 244.942C357.266 239.414 363.329 234.657 369.964 230.811C375.369 227.574 381.234 225.175 387.358 223.695C390.186 223.041 393.065 222.631 395.962 222.469C396.206 222.792 396.436 222.77 396.679 222.469C397.963 222.613 399.189 222.075 400.465 222.161C400.516 222.254 400.59 222.331 400.681 222.385C400.772 222.439 400.876 222.468 400.981 222.468C401.087 222.468 401.191 222.439 401.282 222.385C401.373 222.331 401.447 222.254 401.498 222.161H405.284C405.334 222.254 405.409 222.331 405.5 222.385C405.59 222.439 405.694 222.468 405.8 222.468C405.905 222.468 406.009 222.439 406.1 222.385C406.191 222.331 406.265 222.254 406.316 222.161C413.881 222.756 421.237 224.11 428.206 227.349C434.538 230.295 440.18 234.25 445.802 238.306C449.846 241.223 453.503 244.605 457.539 247.529C460.171 249.435 462.558 251.685 464.996 253.849C472.597 260.571 479.795 267.708 486.829 275.01C491.554 279.919 496.186 284.914 500.653 290.059C503.098 292.861 505.672 295.576 508.16 298.314C512.462 302.986 516.764 307.63 520.959 312.431C523.261 315.061 525.648 317.605 527.979 320.206C531.325 323.951 534.616 327.756 537.852 331.621C539.802 333.943 541.831 336.2 543.875 338.443C546.951 341.833 550.105 345.151 553.196 348.547C556.064 351.736 558.538 355.255 561.226 358.58C563.743 361.697 566.331 364.749 568.812 367.895C569.687 368.999 570.87 369.916 571.229 371.385C570.239 371.55 569.336 370.962 568.361 371.091C565.808 371.442 563.277 371.808 560.925 372.983C558.573 374.158 556.107 375.369 553.755 376.695C547.193 380.341 541.278 385.043 536.246 390.611C532.062 395.256 528.714 400.59 526.351 406.376C525.11 409.408 524.013 412.453 524.035 415.785C523.117 415.2 522.324 414.438 521.705 413.542C520.615 412.21 519.389 411.006 518.198 409.773C513.559 404.943 509.078 399.977 504.826 394.803C503.048 392.654 501.162 390.561 499.262 388.497C497.018 386.054 494.688 383.689 492.429 381.253C487.768 376.236 483.108 371.17 478.419 366.154C474.748 362.227 471.249 358.15 467.549 354.237C463.39 349.823 459.468 345.194 455.302 340.786C451.882 337.203 448.276 333.721 444.719 330.224C440.08 325.818 435.204 321.667 430.114 317.791C424.325 313.214 418.534 308.645 412.74 304.082C409.277 301.367 405.757 298.715 402.258 296.049C402.011 295.909 401.749 295.798 401.476 295.72C400.759 294.523 399.469 293.871 398.407 293.033C395.138 290.453 391.667 288.138 388.255 285.752C384.512 283.136 380.733 280.564 376.861 278.142C371.39 274.716 366.106 270.976 360.807 267.343C359.266 266.246 357.997 264.799 356.204 264.118ZM363.611 259.274C362.571 256.973 360.635 255.791 358.334 255.117C357.627 254.915 356.874 254.945 356.186 255.203C355.498 255.462 354.911 255.934 354.512 256.551C353.702 257.812 353.91 258.994 354.763 260.191C356.055 261.932 357.812 263.273 359.832 264.061C360.592 265.1 361.539 264.612 362.449 264.369C362.901 264.29 363.319 264.077 363.647 263.757C363.976 263.438 364.201 263.026 364.292 262.577C364.486 261.438 364.6 260.227 363.611 259.274ZM382.855 270.739C382.518 270.625 382.138 270.517 381.995 270.961C381.852 271.406 382.167 271.678 382.475 271.957C382.605 272.069 382.76 272.145 382.926 272.18C383.093 272.215 383.266 272.208 383.429 272.158C384.004 272.003 384.508 271.655 384.857 271.172C385.205 270.689 385.377 270.101 385.343 269.507C385.293 268.959 385.034 268.452 384.62 268.09C384.207 267.727 383.67 267.537 383.121 267.558C382.373 267.573 381.648 267.815 381.041 268.251C380.435 268.688 379.974 269.298 379.722 270.001C379.496 270.595 379.454 271.242 379.599 271.86C379.745 272.478 380.072 273.039 380.539 273.469C381.457 274.365 382.69 274.401 383.895 274.243C384.061 274.2 384.214 274.116 384.34 274C384.439 273.941 384.513 273.848 384.547 273.738C384.581 273.628 384.574 273.51 384.526 273.405C384.491 273.332 384.44 273.267 384.379 273.214C384.317 273.161 384.245 273.121 384.168 273.097C383.658 273.04 383.128 273.097 382.626 272.997C382.142 272.919 381.702 272.672 381.385 272.299C381.068 271.925 380.895 271.451 380.898 270.961C380.999 270.49 381.222 270.054 381.544 269.696C381.866 269.338 382.276 269.07 382.734 268.919C382.93 268.869 383.136 268.878 383.327 268.944C383.519 269.01 383.686 269.131 383.809 269.292C383.927 269.456 383.996 269.65 384.008 269.852C384.019 270.054 383.973 270.255 383.874 270.431C383.833 270.524 383.773 270.606 383.698 270.674C383.623 270.742 383.535 270.793 383.438 270.824C383.342 270.855 383.241 270.865 383.14 270.855C383.04 270.844 382.943 270.812 382.855 270.761V270.739Z" fill="#FBC998"/>
<path d="M524.035 415.742C524.035 412.41 525.111 409.365 526.351 406.333C528.714 400.547 532.062 395.213 536.246 390.568C541.268 384.995 547.173 380.286 553.727 376.631C556.071 375.305 558.473 374.101 560.897 372.919C563.32 371.736 565.78 371.378 568.332 371.027C569.329 370.898 570.232 371.485 571.2 371.321C572.025 371.915 573.093 372.216 573.645 373.162C574.838 375.187 575.256 377.575 574.821 379.884C573.953 384.707 571.093 388.354 567.766 391.729C561.387 398.326 554.414 404.323 546.936 409.644C543.803 411.837 540.591 413.944 537.379 415.979C535.052 417.439 532.471 418.45 529.771 418.96C528.881 419.194 527.942 419.172 527.063 418.897C526.184 418.622 525.4 418.105 524.802 417.405C524.358 416.889 524.444 416.222 524.035 415.742Z" fill="#EB8146"/>
<path d="M356.205 264.118C357.997 264.799 359.266 266.268 360.808 267.3C366.128 270.947 371.391 274.673 376.862 278.099C380.734 280.521 384.512 283.115 388.255 285.709C391.668 288.095 395.138 290.41 398.408 292.99C399.469 293.828 400.724 294.48 401.477 295.677C398.709 296.605 395.866 297.291 392.98 297.726C391.474 298.02 389.94 298.199 388.42 298.443C388.169 298.149 387.939 298.192 387.703 298.5C386.778 298.536 385.882 298.873 384.942 298.765C383.257 298.328 381.487 298.328 379.801 298.765C377.944 298.572 376.102 298.407 374.481 297.332C373.977 297.005 373.542 296.581 373.203 296.086C372.863 295.59 372.624 295.032 372.501 294.444C372.378 293.856 372.372 293.249 372.484 292.659C372.596 292.069 372.824 291.507 373.155 291.005C373.933 289.679 374.918 288.486 376.073 287.472C376.223 287.399 376.366 287.316 376.503 287.221C376.711 287.07 377.105 286.898 376.847 286.612C376.589 286.325 376.238 286.526 376.03 286.848C374.567 287.259 373.077 287.564 371.57 287.758C371.319 287.457 371.09 287.5 370.853 287.809H368.136C367.928 287.508 367.705 287.45 367.419 287.744C366.644 287.536 365.87 287.343 365.103 287.113C362.45 286.318 359.833 282.929 361.582 279.231C361.998 278.357 362.435 277.504 362.866 276.644C362.73 276.563 362.576 276.514 362.418 276.503C362.26 276.492 362.101 276.518 361.955 276.58C359.996 277.255 357.902 277.444 355.853 277.131C354.529 277.017 353.278 276.477 352.288 275.592C351.298 274.707 350.621 273.525 350.361 272.223C350.21 271.206 350.429 270.168 350.978 269.299C352.275 267.099 354.283 265.659 356.205 264.118Z" fill="#ECA26D"/>
<path d="M373.319 255.06C370.451 254.236 367.669 253.34 364.801 252.624C362.985 252.177 361.136 251.873 359.273 251.714C358.045 251.582 356.805 251.795 355.692 252.331C354.58 252.867 353.639 253.703 352.977 254.745C352.619 255.254 352.26 255.748 351.873 256.25C350.088 255.741 349.521 254.379 349.378 252.717C349.875 252.936 350.412 253.05 350.955 253.05C351.499 253.05 352.036 252.936 352.533 252.717C356.376 251.284 360.269 249.915 364.069 248.353C371.479 245.685 379.282 244.268 387.157 244.161C390.229 244.293 393.287 244.653 396.306 245.236C396.443 245.236 396.557 245.451 396.679 245.558C396.636 245.787 396.586 246.074 396.335 246.095C395.267 246.269 394.216 246.535 393.194 246.891C386.641 248.686 380.279 251.12 374.201 254.157C373.806 254.336 373.297 254.458 373.319 255.06Z" fill="#ECA36C"/>
<path d="M379.83 298.744C381.516 298.307 383.285 298.307 384.971 298.744C383.296 299.26 381.505 299.26 379.83 298.744Z" fill="#F4BD9D"/>
<path d="M376.022 286.848C376.23 286.526 376.56 286.311 376.84 286.612C377.119 286.913 376.704 287.07 376.496 287.221C376.359 287.316 376.215 287.399 376.065 287.472L376.022 286.848Z" fill="#F7D7C0"/>
<path d="M401.497 222.09C401.447 222.182 401.372 222.26 401.281 222.314C401.19 222.367 401.087 222.396 400.981 222.396C400.875 222.396 400.772 222.367 400.681 222.314C400.59 222.26 400.515 222.182 400.465 222.09C400.802 221.688 401.117 221.681 401.497 222.09Z" fill="#FDE5CE"/>
<path d="M406.316 222.111C406.265 222.204 406.19 222.281 406.1 222.335C406.009 222.389 405.905 222.417 405.799 222.417C405.694 222.417 405.59 222.389 405.499 222.335C405.408 222.281 405.334 222.204 405.283 222.111C405.334 222.018 405.408 221.941 405.499 221.887C405.59 221.833 405.694 221.805 405.799 221.805C405.905 221.805 406.009 221.833 406.1 221.887C406.19 221.941 406.265 222.018 406.316 222.111Z" fill="#FDE5CE"/>
<path d="M396.68 222.426C396.465 222.756 396.235 222.777 395.963 222.426C396.214 222.125 396.443 222.104 396.68 222.426Z" fill="#FDE5CE"/>
<path d="M367.418 287.744C367.676 287.45 367.898 287.508 368.135 287.809C367.855 288.138 367.633 288.052 367.418 287.744Z" fill="#F4CDB0"/>
<path d="M370.867 287.809C371.075 287.5 371.305 287.457 371.584 287.758C371.348 288.059 371.125 288.138 370.867 287.809Z" fill="#F4CDB0"/>
<path d="M387.731 298.486C387.939 298.178 388.169 298.135 388.448 298.428C388.212 298.729 387.99 298.772 387.731 298.486Z" fill="#F4CDB0"/>
<path d="M373.319 255.06C373.319 254.451 373.807 254.343 374.201 254.143C380.291 251.104 386.665 248.67 393.231 246.877C394.253 246.521 395.303 246.255 396.371 246.081C396.622 246.081 396.672 245.773 396.715 245.544C398.866 245.601 400.802 246.461 402.824 247.092C406.366 248.195 408.467 250.617 409.822 253.878C410.493 255.458 411.016 257.096 411.385 258.772C411.873 261.036 410.353 262.57 408.037 262.262C401.519 261.402 395.131 259.739 388.735 258.45C383.551 257.418 378.446 256.199 373.319 255.06Z" fill="#EB8146"/>
<path d="M359.832 264.089C357.812 263.302 356.055 261.96 354.763 260.22C353.91 259.023 353.702 257.841 354.512 256.579C354.911 255.962 355.498 255.49 356.186 255.232C356.874 254.974 357.627 254.944 358.334 255.146C360.635 255.82 362.571 257.002 363.611 259.302C362.867 259.302 362.138 259.517 361.514 259.923C360.89 260.329 360.398 260.908 360.098 261.588C359.674 262.341 359.94 263.251 359.832 264.089Z" fill="#ECA26C"/>
<path d="M382.856 270.761C382.944 270.806 383.041 270.832 383.14 270.838C383.239 270.844 383.338 270.829 383.431 270.795C383.524 270.761 383.609 270.707 383.68 270.638C383.751 270.57 383.808 270.487 383.845 270.395C383.944 270.219 383.991 270.018 383.979 269.816C383.968 269.614 383.899 269.42 383.781 269.256C383.658 269.095 383.49 268.974 383.299 268.908C383.108 268.842 382.901 268.833 382.705 268.883C382.248 269.034 381.837 269.302 381.515 269.66C381.193 270.018 380.971 270.455 380.87 270.926C380.867 271.415 381.04 271.89 381.357 272.263C381.674 272.636 382.114 272.884 382.598 272.961C383.1 273.047 383.63 273.004 384.139 273.061C384.217 273.085 384.289 273.125 384.35 273.178C384.412 273.231 384.462 273.296 384.498 273.369C384.546 273.474 384.553 273.592 384.519 273.702C384.484 273.812 384.41 273.905 384.311 273.964C384.185 274.08 384.033 274.164 383.867 274.208C382.655 274.365 381.429 274.329 380.511 273.434C380.044 273.003 379.717 272.443 379.571 271.825C379.425 271.206 379.468 270.559 379.694 269.965C379.946 269.262 380.406 268.652 381.013 268.216C381.62 267.779 382.345 267.537 383.092 267.522C383.653 267.494 384.201 267.686 384.622 268.057C385.043 268.428 385.302 268.948 385.344 269.507C385.393 270.107 385.232 270.705 384.888 271.199C384.543 271.694 384.038 272.053 383.458 272.215C383.295 272.265 383.122 272.273 382.955 272.238C382.789 272.202 382.634 272.126 382.504 272.015C382.196 271.757 381.845 271.484 382.024 271.019C382.203 270.553 382.519 270.646 382.856 270.761Z" fill="#EC874D"/>
<path d="M359.832 264.089C359.94 263.251 359.674 262.369 360.097 261.56C360.398 260.879 360.89 260.301 361.514 259.895C362.138 259.489 362.866 259.273 363.611 259.274C364.6 260.227 364.485 261.424 364.292 262.606C364.201 263.055 363.976 263.466 363.647 263.786C363.318 264.106 362.901 264.319 362.449 264.397C361.539 264.641 360.592 265.128 359.832 264.089Z" fill="#EB8247"/>
<path d="M497.241 200.771C496.495 201.392 495.645 201.877 494.731 202.204C488.278 205.07 481.689 207.399 475.157 209.972C466.122 213.536 457.172 217.305 448.304 221.28C432.243 228.517 416.476 236.328 400.745 244.268C396.672 246.318 392.485 248.116 388.334 250.001C384.835 251.585 381.522 253.519 378.152 255.354C377.775 255.604 377.345 255.763 376.895 255.818C376.446 255.873 375.99 255.822 375.564 255.669C374.252 255.182 372.825 255.053 371.534 254.48C372.251 253.34 373.542 253.276 374.596 252.745C379.952 250.022 385.423 247.529 390.85 244.942C393.79 243.509 396.658 241.982 399.533 240.434C401.651 239.302 403.74 238.108 405.8 236.851C410.403 234.078 414.999 231.283 419.839 228.969C423.281 227.306 426.773 225.715 430.286 224.182C436.467 221.483 442.719 218.968 449.043 216.636C456.12 214.021 463.104 211.176 470.116 208.417C476.813 205.78 483.467 203.035 490.128 200.305C491.239 199.854 492.279 199.259 493.361 198.707C493.813 198.478 494.48 198.127 494.222 197.618C493.899 196.987 493.318 197.575 492.903 197.768C492.487 197.962 492.042 198.363 491.576 198.549C485.486 201.019 479.392 203.475 473.292 205.916C469.158 207.564 465.013 209.198 460.859 210.817C455.589 212.874 450.334 214.952 445.035 216.916C438.761 219.252 432.616 221.882 426.514 224.598C422.14 226.455 417.878 228.568 413.752 230.925C409.765 233.28 405.755 235.593 401.72 237.862C398.788 239.517 395.862 241.215 392.822 242.663C389.517 244.239 386.254 245.909 382.913 247.407C378.948 249.191 375.069 251.176 371.154 253.068C370.839 253.199 370.516 253.309 370.186 253.398C369.984 253.454 369.771 253.463 369.565 253.423C369.358 253.384 369.164 253.297 368.997 253.17C368.829 253.043 368.694 252.879 368.6 252.691C368.507 252.503 368.458 252.296 368.458 252.086C368.37 251.603 368.258 251.125 368.121 250.653C372.182 248.323 376.358 246.2 380.633 244.29C385.91 241.782 391.166 239.23 396.321 236.5C402.387 233.297 408.374 229.943 414.562 226.991C420.75 224.039 427.239 221.179 433.577 218.284C438.775 215.912 443.988 213.562 449.172 211.161C455.295 208.295 461.419 205.507 467.606 202.82C472.69 200.606 477.817 198.521 483.051 196.701C486.019 195.669 488.995 194.658 491.892 193.44C492.257 193.277 492.653 193.197 493.053 193.204C493.921 195.174 494.781 197.152 495.649 199.123C495.772 199.5 495.979 199.845 496.254 200.13C496.53 200.416 496.867 200.635 497.241 200.771Z" fill="#323E4C"/>
<path d="M363.303 252.144C361.704 252.144 360.169 251.556 358.506 251.499C359.445 251.011 360.37 250.503 361.317 250.03C377.686 241.796 394.07 233.584 410.74 225.973C430.917 216.763 451.053 207.471 471.148 198.098C477.35 195.196 483.596 192.365 489.913 189.757C490.336 189.585 490.773 189.456 491.21 189.305L491.927 189.484L492.644 192.172C491.282 192.243 490.207 193.103 488.966 193.519C484.951 194.852 480.95 196.228 476.992 197.711C472.331 199.452 467.778 201.444 463.233 203.444C460.307 204.748 457.41 206.117 454.499 207.442C449.66 209.649 444.805 211.828 439.973 214.035C436.796 215.468 433.656 217.009 430.458 218.413C424.856 220.879 419.299 223.437 413.787 226.088C408.317 228.725 402.996 231.649 397.619 234.458C391.073 237.89 384.426 241.129 377.793 244.404C373.491 246.554 369.254 248.84 364.823 250.739C364.22 251.026 363.31 251.126 363.303 252.144Z" fill="#36424F"/>
<path d="M363.303 252.144C363.303 251.126 364.221 251.026 364.837 250.76C369.268 248.862 373.491 246.554 377.808 244.426C384.44 241.151 391.087 237.912 397.633 234.479C403.011 231.67 408.331 228.747 413.802 226.11C419.273 223.473 424.872 220.9 430.472 218.435C433.67 217.002 436.811 215.504 439.987 214.056C444.82 211.849 449.674 209.671 454.514 207.464C457.425 206.138 460.322 204.769 463.247 203.465C467.793 201.444 472.346 199.452 477.006 197.732C480.964 196.249 484.965 194.866 488.98 193.54C490.221 193.125 491.296 192.265 492.659 192.193C492.789 192.33 492.892 192.492 492.959 192.67C493.027 192.847 493.059 193.035 493.053 193.225C492.653 193.218 492.257 193.299 491.892 193.462C489.023 194.68 486.019 195.69 483.051 196.722C477.817 198.549 472.69 200.627 467.606 202.842C461.419 205.529 455.295 208.345 449.172 211.183C443.988 213.583 438.775 215.934 433.577 218.306C427.239 221.172 420.857 224.039 414.562 227.013C408.267 229.986 402.373 233.319 396.321 236.522C391.166 239.252 385.91 241.803 380.633 244.311C376.363 246.214 372.192 248.331 368.135 250.653C367.308 250.834 366.524 251.175 365.827 251.656C365.109 252.097 364.249 252.246 363.425 252.072L363.303 252.144Z" fill="#404D5C"/>
<path d="M370.186 253.405C370.515 253.316 370.839 253.206 371.154 253.075C375.068 251.183 378.947 249.198 382.912 247.414C386.254 245.916 389.516 244.247 392.822 242.67C395.862 241.237 398.787 239.524 401.72 237.869C405.749 235.6 409.76 233.288 413.751 230.932C417.878 228.575 422.139 226.462 426.514 224.605C432.616 221.889 438.761 219.259 445.034 216.923C450.333 214.959 455.589 212.881 460.859 210.825C465.008 209.215 469.152 207.581 473.292 205.923C479.391 203.482 485.486 201.026 491.576 198.557C492.042 198.37 492.436 197.99 492.902 197.775C493.368 197.56 493.899 196.994 494.221 197.625C494.479 198.134 493.813 198.485 493.361 198.714C492.293 199.266 491.21 199.861 490.127 200.312C483.466 203.042 476.812 205.787 470.115 208.424C463.103 211.183 456.119 214.028 449.042 216.643C442.718 218.98 436.466 221.495 430.285 224.189C426.772 225.723 423.28 227.314 419.839 228.976C414.999 231.312 410.403 234.107 405.8 236.859C403.739 238.096 401.65 239.29 399.533 240.442C396.665 241.989 393.797 243.544 390.85 244.949C385.422 247.536 379.951 250.03 374.595 252.753C373.541 253.283 372.229 253.347 371.534 254.487L370.515 254.05L370.186 253.405Z" fill="#404D5C"/>
<path d="M510.956 194.938C508.164 196.285 505.29 197.458 502.352 198.449C502.406 198.052 502.325 197.648 502.123 197.303C500.172 194.436 499.183 191.168 498.322 187.865C498.251 187.308 497.999 186.789 497.605 186.389C498.06 186.048 498.58 185.804 499.133 185.672C501.764 184.798 504.317 183.723 506.862 182.634C506.303 183.737 505.579 184.784 505.83 186.138C506.518 189.692 507.687 192.924 510.956 194.938Z" fill="#EB8248"/>
<path d="M346.424 269.507C344.443 270.218 342.425 270.823 340.38 271.32C338.99 271.663 337.554 271.779 336.128 271.664C333.733 271.499 332.593 269.392 333.64 267.436C334.302 266.228 335.219 265.179 336.329 264.361C338.047 263.036 339.897 261.891 341.849 260.943C343.821 261.065 344.001 261.072 344.001 262.333C344.001 263.595 345.75 263.416 345.714 264.598C345.687 264.821 345.632 265.041 345.549 265.25C345.477 265.39 345.434 265.543 345.424 265.7C345.413 265.857 345.434 266.014 345.487 266.163C345.539 266.311 345.621 266.447 345.728 266.562C345.835 266.678 345.965 266.77 346.109 266.834C347.091 267.328 347.27 267.966 346.539 268.84C346.395 268.962 346.453 269.256 346.424 269.507Z" fill="#34404E"/>
<path d="M497.613 186.382C498.007 186.782 498.259 187.301 498.33 187.858C499.19 191.161 500.18 194.422 502.13 197.295C502.333 197.641 502.414 198.045 502.36 198.442C502.33 198.582 502.266 198.712 502.173 198.821C502.081 198.93 501.962 199.014 501.829 199.065C500.352 199.782 498.961 200.649 497.219 200.764C496.846 200.628 496.508 200.409 496.233 200.123C495.957 199.837 495.75 199.493 495.627 199.115C494.759 197.145 493.899 195.167 493.031 193.196C493.037 193.007 493.005 192.818 492.938 192.641C492.87 192.464 492.768 192.302 492.637 192.165L491.92 189.477L491.984 188.954C492.981 187.707 494.602 187.521 495.828 186.697C496.358 186.361 497 186.247 497.613 186.382Z" fill="#B2BECB"/>
<path d="M510.957 194.938C507.687 192.924 506.497 189.692 505.837 186.159C505.586 184.827 506.311 183.759 506.87 182.655C509.365 181.58 509.638 181.939 510.842 183.436C512.682 185.588 513.699 188.323 513.71 191.154C513.689 193.318 513.079 194.157 510.957 194.938Z" fill="#FBC898"/>
<path d="M346.424 269.507C346.424 269.284 346.424 268.991 346.517 268.84C347.234 267.966 347.069 267.328 346.087 266.834C345.943 266.77 345.814 266.678 345.707 266.562C345.6 266.447 345.518 266.311 345.465 266.163C345.413 266.014 345.392 265.857 345.402 265.7C345.413 265.543 345.456 265.39 345.528 265.25C345.61 265.041 345.666 264.821 345.693 264.598C345.693 263.416 343.958 263.674 343.979 262.333C344.001 260.993 343.821 261.065 341.828 260.943C342.289 260.42 342.913 260.067 343.599 259.94C343.753 260.012 343.9 260.098 344.037 260.198C345.37 261.359 345.327 261.287 346.826 260.42C348.324 259.553 349.816 258.328 351.622 257.898C351.802 258.214 351.886 258.574 351.866 258.937C349.715 259.89 347.865 261.259 345.743 262.52C346.377 263.151 346.826 263.944 347.041 264.813C347.937 264.376 348.69 263.967 349.471 263.645C350.905 263.043 352.339 262.212 353.96 262.076C354.017 262.3 353.991 262.537 353.887 262.744C353.783 262.951 353.608 263.113 353.394 263.201C352.72 263.494 352.053 263.824 351.379 264.118C350.332 264.569 349.278 264.999 348.231 265.451C347.622 265.723 347.277 266.088 347.808 266.755C348.339 267.421 348.052 268.188 348.116 268.905C347.65 269.314 347.044 269.529 346.424 269.507Z" fill="#465361"/>
<path d="M348.152 268.855C348.087 268.138 348.36 267.35 347.843 266.705C347.327 266.06 347.657 265.673 348.266 265.401C349.313 264.949 350.367 264.519 351.414 264.068C352.088 263.774 352.755 263.444 353.429 263.15C353.643 263.063 353.818 262.9 353.922 262.694C354.026 262.487 354.052 262.25 353.995 262.025L357.523 264.72C356.491 265.623 350.453 268.26 348.152 268.855Z" fill="#384452"/>
<path d="M353.982 262.011C352.354 262.147 350.963 262.978 349.493 263.58C348.712 263.903 347.959 264.297 347.062 264.748C346.848 263.88 346.399 263.087 345.765 262.455C347.916 261.23 349.758 259.861 351.888 258.872C352.511 259.967 353.211 261.015 353.982 262.011Z" fill="#36424F"/>
<path d="M351.643 257.869C349.837 258.299 348.41 259.489 346.847 260.392C345.284 261.294 345.413 261.33 344.057 260.169C343.92 260.069 343.774 259.983 343.62 259.911C346.216 258.141 349.141 256.945 351.737 255.189C352.052 254.974 352.368 255.519 352.633 255.125C352.038 255.934 352.045 256.981 351.643 257.869Z" fill="#3A4654"/>
<path d="M370.186 253.405L370.516 254.043C368.113 253.515 365.741 252.857 363.41 252.072C364.235 252.246 365.094 252.097 365.812 251.656C366.509 251.175 367.293 250.834 368.121 250.653C368.258 251.125 368.37 251.603 368.458 252.086C368.457 252.297 368.505 252.505 368.598 252.694C368.691 252.883 368.826 253.048 368.994 253.175C369.161 253.303 369.356 253.39 369.563 253.43C369.77 253.47 369.983 253.461 370.186 253.405Z" fill="#36424F"/>
<path d="M491.991 188.961L491.927 189.484L491.21 189.305C491.382 188.99 491.69 188.976 491.991 188.961Z" fill="#767F8A"/>
<path d="M352.634 255.125L352.67 255.082L352.641 255.125H352.634Z" fill="#3A4654"/>
<path d="M214.192 217.754C208.872 221.402 203.609 225.121 198.139 228.553C194.267 230.975 190.488 233.569 186.745 236.163C183.332 238.542 179.862 240.857 176.592 243.444C175.531 244.282 174.276 244.927 173.524 246.124C173.251 246.203 172.989 246.313 172.742 246.454C169.243 249.127 165.722 251.778 162.259 254.487C156.452 259.035 150.66 263.604 144.886 268.195C139.795 272.074 134.92 276.227 130.281 280.635C126.696 284.132 123.11 287.579 119.698 291.198C115.532 295.605 111.61 300.234 107.451 304.641C103.758 308.554 100.281 312.638 96.5811 316.558C91.8846 321.574 87.2599 326.591 82.5707 331.664C80.3121 334.101 77.9818 336.465 75.7375 338.909C73.8375 340.973 71.9517 343.051 70.1735 345.215C65.9217 350.389 61.4403 355.348 56.8013 360.177C55.611 361.417 54.3849 362.614 53.2951 363.954C52.6716 364.846 51.8801 365.608 50.9648 366.197C50.9648 362.865 49.8893 359.812 48.6489 356.788C46.2866 351.001 42.9388 345.667 38.7541 341.023C33.7306 335.451 27.825 330.742 21.2734 327.085C18.9287 325.759 16.5268 324.563 14.1033 323.373C11.7428 322.348 9.23184 321.712 6.66785 321.488C5.6712 321.352 4.76777 321.94 3.7998 321.775C4.15831 320.342 5.34138 319.389 6.21613 318.285C8.69699 315.147 11.2854 312.094 13.8021 308.97C16.4909 305.63 18.9574 302.105 21.8326 298.937C24.9086 295.541 28.0635 292.216 31.1538 288.833C33.1973 286.59 35.2264 284.333 37.1767 282.011C40.4128 278.156 43.7039 274.348 47.0499 270.589C49.3802 267.987 51.7679 265.444 54.0695 262.821C58.2496 258.041 62.5661 253.376 66.8681 248.704C69.3848 245.959 71.9302 243.251 74.3752 240.441C78.8422 235.303 83.4741 230.309 88.1992 225.393C95.2331 218.091 102.432 210.954 110.032 204.225C112.47 202.075 114.858 199.81 117.489 197.904C121.526 194.981 125.183 191.598 129.227 188.682C134.848 184.633 140.491 180.67 146.822 177.732C153.791 174.493 161.162 173.139 168.712 172.544C168.763 172.637 168.838 172.714 168.928 172.768C169.019 172.822 169.123 172.85 169.229 172.85C169.334 172.85 169.438 172.822 169.529 172.768C169.62 172.714 169.694 172.637 169.745 172.544H173.531C173.861 172.967 174.205 172.967 174.563 172.544C175.839 172.458 177.066 172.995 178.349 172.852C178.564 173.189 178.794 173.203 179.066 172.852C181.963 173.021 184.841 173.431 187.67 174.078C193.796 175.557 199.661 177.959 205.065 181.201C211.705 185.056 217.768 189.828 223.076 195.375C224.002 196.315 224.782 197.387 225.392 198.556C226.109 199.99 226.654 201.537 225.657 203.121C225.159 203.339 224.621 203.452 224.076 203.452C223.532 203.452 222.994 203.339 222.495 203.121C218.652 201.688 214.759 200.312 210.959 198.757C207.078 197.258 203.039 196.205 198.92 195.618C195.281 194.904 191.579 194.563 187.871 194.601C184.799 194.73 181.74 195.089 178.722 195.676C178.586 195.676 178.471 195.884 178.349 195.998C176.198 196.048 174.262 196.915 172.24 197.539C168.698 198.65 166.597 201.072 165.242 204.332C164.572 205.91 164.049 207.546 163.679 209.219C163.191 211.491 164.711 213.017 167.027 212.716C173.545 211.856 179.898 210.194 186.329 208.904C191.478 207.872 196.583 206.647 201.709 205.515C204.541 204.691 207.359 203.788 210.227 203.071C212.044 202.628 213.892 202.324 215.756 202.161C216.983 202.031 218.223 202.245 219.335 202.781C220.447 203.316 221.388 204.151 222.051 205.192C222.409 205.701 222.768 206.203 223.155 206.704C223.294 207.683 223.191 208.682 222.853 209.611C222.515 210.541 221.954 211.374 221.219 212.036C220.796 212.408 220.395 212.802 219.95 213.146C219.409 213.467 219.007 213.978 218.824 214.58C217.003 215.246 215.734 216.693 214.192 217.754ZM210.708 213.06C210.798 213.51 211.022 213.921 211.351 214.239C211.68 214.558 212.098 214.769 212.55 214.845C213.461 215.088 214.408 215.561 215.168 214.537C217.186 213.749 218.942 212.411 220.237 210.674C221.09 209.47 221.298 208.288 220.488 207.027C220.086 206.412 219.499 205.942 218.812 205.684C218.125 205.427 217.373 205.395 216.666 205.593C214.365 206.267 212.429 207.457 211.389 209.75C210.392 210.674 210.514 211.885 210.708 213.06ZM191.155 220.85C191.055 220.672 191.008 220.47 191.02 220.267C191.031 220.064 191.1 219.868 191.219 219.703C191.342 219.542 191.51 219.422 191.701 219.357C191.893 219.292 192.1 219.285 192.295 219.338C192.753 219.488 193.163 219.756 193.485 220.115C193.807 220.473 194.029 220.909 194.13 221.38C194.132 221.869 193.958 222.343 193.642 222.716C193.325 223.089 192.886 223.337 192.402 223.415C191.901 223.501 191.37 223.451 190.861 223.508C190.706 223.56 190.577 223.671 190.502 223.816C190.454 223.921 190.447 224.04 190.481 224.15C190.516 224.259 190.59 224.353 190.689 224.411C190.813 224.53 190.966 224.614 191.133 224.655C192.345 224.813 193.571 224.777 194.489 223.881C194.961 223.455 195.294 222.898 195.445 222.281C195.596 221.663 195.558 221.015 195.335 220.42C195.082 219.716 194.622 219.106 194.016 218.668C193.409 218.231 192.684 217.987 191.936 217.969C191.389 217.959 190.858 218.153 190.447 218.513C190.036 218.874 189.774 219.375 189.714 219.918C189.664 220.519 189.825 221.119 190.169 221.614C190.513 222.109 191.019 222.47 191.599 222.634C191.763 222.681 191.936 222.686 192.102 222.65C192.269 222.614 192.424 222.537 192.553 222.426C192.861 222.175 193.213 221.903 193.033 221.43C192.854 220.957 192.51 221.093 192.173 221.215C192.084 221.265 191.984 221.295 191.882 221.304C191.78 221.312 191.677 221.299 191.581 221.264C191.484 221.23 191.396 221.175 191.323 221.103C191.249 221.032 191.192 220.945 191.155 220.85Z" fill="#FBC998"/>
<path d="M50.9651 366.197C50.9651 362.865 49.8896 359.812 48.6492 356.788C46.2869 351.001 42.9392 345.667 38.7544 341.023C33.7309 335.451 27.8253 330.742 21.2737 327.085C18.9291 325.759 16.5271 324.563 14.1036 323.373C11.7431 322.348 9.23216 321.712 6.66818 321.488C5.67153 321.352 4.7681 321.94 3.80013 321.775C2.97557 322.377 1.90722 322.678 1.35512 323.617C0.16239 325.641 -0.255393 328.029 0.179226 330.338C1.04681 335.161 3.90768 338.816 7.23462 342.191C13.6151 348.786 20.5874 354.783 28.0638 360.106C31.1971 362.299 34.4093 364.405 37.6216 366.44C39.9483 367.903 42.5287 368.916 45.229 369.429C46.1206 369.659 47.0589 369.635 47.9374 369.359C48.8158 369.083 49.5991 368.566 50.1979 367.866C50.6425 367.343 50.5493 366.67 50.9651 366.197Z" fill="#EB8146"/>
<path d="M218.796 214.565C217.003 215.246 215.734 216.715 214.192 217.754C208.872 221.402 203.609 225.121 198.138 228.553C194.267 230.975 190.488 233.569 186.745 236.163C183.332 238.542 179.862 240.857 176.592 243.444C175.531 244.282 174.276 244.927 173.523 246.124C176.291 247.052 179.134 247.74 182.02 248.181C183.526 248.467 185.06 248.646 186.58 248.897C186.831 248.611 187.061 248.646 187.297 248.955C188.222 248.955 189.118 249.327 190.058 249.22C191.743 248.779 193.513 248.779 195.199 249.22C197.056 249.026 198.898 248.854 200.519 247.751C201.532 247.099 202.245 246.072 202.502 244.895C202.758 243.718 202.538 242.488 201.888 241.473C201.111 240.15 200.126 238.959 198.97 237.948C198.822 237.873 198.678 237.789 198.54 237.697C198.332 237.539 197.938 237.367 198.196 237.088C198.454 236.808 198.805 236.995 199.013 237.317C200.475 237.732 201.966 238.036 203.473 238.227C203.724 237.926 203.953 237.969 204.19 238.285H206.936C207.144 237.976 207.366 237.919 207.653 238.22C208.428 238.005 209.202 237.812 209.969 237.582C212.622 236.787 215.239 233.397 213.49 229.7C213.074 228.833 212.636 227.98 212.206 227.12C212.342 227.038 212.495 226.989 212.653 226.976C212.811 226.964 212.97 226.989 213.117 227.048C215.075 227.73 217.169 227.921 219.219 227.607C220.543 227.493 221.795 226.952 222.786 226.065C223.776 225.179 224.452 223.995 224.711 222.691C224.862 221.674 224.643 220.637 224.094 219.768C222.725 217.553 220.717 216.106 218.796 214.565Z" fill="#ECA26D"/>
<path d="M201.681 205.515C204.513 204.69 207.331 203.788 210.199 203.071C212.016 202.628 213.864 202.324 215.727 202.161C216.955 202.03 218.195 202.245 219.307 202.781C220.419 203.316 221.36 204.151 222.023 205.192C222.381 205.701 222.74 206.202 223.127 206.704C224.912 206.195 225.479 204.834 225.622 203.171C225.125 203.389 224.588 203.502 224.045 203.502C223.502 203.502 222.965 203.389 222.467 203.171C218.624 201.738 214.731 200.362 210.931 198.807C207.061 197.293 203.032 196.224 198.921 195.618C195.282 194.904 191.58 194.563 187.872 194.601C184.799 194.73 181.741 195.089 178.722 195.676C178.586 195.676 178.472 195.884 178.35 195.998C178.393 196.22 178.443 196.514 178.694 196.528C179.763 196.701 180.814 196.97 181.834 197.331C188.389 199.123 194.751 201.557 200.828 204.597C201.194 204.784 201.703 204.905 201.681 205.515Z" fill="#ECA36C"/>
<path d="M195.17 249.198C193.485 248.757 191.715 248.757 190.029 249.198C191.704 249.714 193.495 249.714 195.17 249.198Z" fill="#F4BD9D"/>
<path d="M198.985 237.296C198.777 236.973 198.448 236.765 198.168 237.066C197.888 237.367 198.304 237.518 198.512 237.675C198.65 237.767 198.794 237.851 198.942 237.926L198.985 237.296Z" fill="#F7D7C0"/>
<path d="M173.502 172.537C173.832 172.96 174.176 172.96 174.534 172.537C174.484 172.444 174.409 172.367 174.318 172.313C174.228 172.259 174.124 172.23 174.018 172.23C173.913 172.23 173.809 172.259 173.718 172.313C173.627 172.367 173.553 172.444 173.502 172.537Z" fill="#FDE5CE"/>
<path d="M168.684 172.566C168.734 172.658 168.809 172.736 168.9 172.79C168.99 172.843 169.094 172.872 169.2 172.872C169.306 172.872 169.409 172.843 169.5 172.79C169.591 172.736 169.666 172.658 169.716 172.566C169.358 172.136 169.013 172.136 168.684 172.566Z" fill="#FDE5CE"/>
<path d="M178.32 172.874C178.535 173.21 178.765 173.225 179.037 172.874C178.786 172.573 178.557 172.551 178.32 172.874Z" fill="#FDE5CE"/>
<path d="M207.568 238.198C207.309 237.897 207.087 237.955 206.851 238.263C207.145 238.557 207.367 238.507 207.568 238.198Z" fill="#F4CDB0"/>
<path d="M204.133 238.263C203.925 237.948 203.696 237.905 203.416 238.206C203.653 238.507 203.875 238.55 204.133 238.263Z" fill="#F4CDB0"/>
<path d="M187.269 248.933C187.061 248.625 186.831 248.589 186.552 248.876C186.788 249.177 187.011 249.22 187.269 248.933Z" fill="#F4CDB0"/>
<path d="M201.681 205.515C201.681 204.905 201.193 204.798 200.799 204.597C194.722 201.557 188.36 199.123 181.805 197.331C180.785 196.97 179.734 196.701 178.665 196.528C178.414 196.528 178.364 196.22 178.321 195.998C176.17 196.048 174.234 196.915 172.212 197.539C168.67 198.65 166.569 201.072 165.214 204.332C164.544 205.91 164.021 207.546 163.651 209.219C163.163 211.491 164.683 213.017 166.999 212.716C173.517 211.856 179.869 210.194 186.301 208.904C191.449 207.879 196.554 206.647 201.681 205.515Z" fill="#EB8146"/>
<path d="M215.168 214.537C217.187 213.749 218.943 212.411 220.238 210.674C221.091 209.47 221.299 208.288 220.489 207.027C220.087 206.412 219.5 205.942 218.813 205.684C218.125 205.427 217.374 205.395 216.667 205.593C214.365 206.267 212.429 207.457 211.39 209.75C212.135 209.749 212.865 209.965 213.489 210.372C214.113 210.78 214.604 211.36 214.903 212.043C215.326 212.817 215.061 213.698 215.168 214.537Z" fill="#ECA26C"/>
<path d="M192.144 221.215C192.056 221.26 191.96 221.287 191.861 221.292C191.762 221.298 191.663 221.284 191.57 221.249C191.477 221.215 191.392 221.162 191.32 221.093C191.249 221.024 191.193 220.941 191.155 220.85C191.055 220.672 191.008 220.47 191.02 220.267C191.031 220.064 191.101 219.868 191.22 219.703C191.342 219.542 191.51 219.422 191.702 219.357C191.893 219.292 192.1 219.285 192.295 219.338C192.753 219.488 193.163 219.756 193.485 220.115C193.807 220.473 194.03 220.909 194.131 221.38C194.132 221.869 193.959 222.343 193.642 222.716C193.325 223.089 192.886 223.337 192.403 223.415C191.901 223.501 191.37 223.451 190.861 223.508C190.706 223.56 190.577 223.671 190.503 223.816C190.455 223.921 190.447 224.04 190.482 224.15C190.516 224.259 190.59 224.353 190.689 224.411C190.813 224.53 190.966 224.614 191.133 224.655C192.345 224.813 193.571 224.777 194.489 223.881C194.961 223.455 195.294 222.898 195.445 222.281C195.596 221.663 195.558 221.015 195.335 220.42C195.082 219.716 194.622 219.106 194.016 218.668C193.409 218.231 192.684 217.987 191.937 217.969C191.39 217.959 190.858 218.153 190.447 218.513C190.036 218.874 189.774 219.375 189.714 219.918C189.664 220.519 189.826 221.119 190.169 221.614C190.513 222.109 191.019 222.47 191.6 222.634C191.763 222.681 191.936 222.686 192.102 222.65C192.269 222.614 192.424 222.537 192.553 222.426C192.861 222.175 193.213 221.903 193.034 221.43C192.854 220.957 192.467 221.093 192.144 221.215Z" fill="#EC874D"/>
<path d="M215.168 214.536C215.06 213.698 215.325 212.817 214.902 212.014C214.604 211.332 214.112 210.751 213.488 210.344C212.864 209.936 212.134 209.72 211.389 209.721C210.399 210.674 210.514 211.871 210.708 213.06C210.798 213.509 211.022 213.921 211.351 214.239C211.68 214.558 212.098 214.769 212.55 214.845C213.461 215.088 214.408 215.576 215.168 214.536Z" fill="#EB8247"/>
<path d="M77.7451 151.225C78.4908 151.847 79.3404 152.332 80.2547 152.659C86.7078 155.525 93.2971 157.854 99.8291 160.434C108.863 163.993 117.814 167.762 126.681 171.741C142.742 178.972 158.509 186.79 174.24 194.73C178.313 196.779 182.5 198.571 186.652 200.463C190.151 202.039 193.464 203.974 196.834 205.816C197.211 206.065 197.642 206.223 198.091 206.276C198.541 206.33 198.996 206.278 199.422 206.124C200.734 205.636 202.161 205.515 203.452 204.941C202.735 203.795 201.444 203.73 200.39 203.2C195.034 200.484 189.563 197.983 184.142 195.396C181.196 193.999 178.327 192.437 175.452 190.896C173.301 189.757 171.243 188.581 169.186 187.313C164.582 184.54 159.986 181.745 155.146 179.431C151.705 177.768 148.213 176.184 144.7 174.651C138.519 171.952 132.267 169.436 125.943 167.105C118.866 164.482 111.882 161.645 104.87 158.879C98.1728 156.249 91.5189 153.497 84.8579 150.767C83.7465 150.315 82.7068 149.728 81.6242 149.169C81.1724 148.939 80.5056 148.595 80.7637 148.087C81.0864 147.449 81.6672 148.044 82.083 148.237C82.4989 148.431 82.9434 148.825 83.4095 149.018C89.4993 151.483 95.5939 153.936 101.693 156.378C105.833 158.035 109.977 159.672 114.126 161.286C119.396 163.336 124.652 165.414 129.951 167.385C136.225 169.714 142.369 172.351 148.478 175.059C152.854 176.911 157.118 179.016 161.248 181.365C165.235 183.73 169.25 186.03 173.28 188.302C176.212 189.964 179.138 191.663 182.178 193.11C185.483 194.68 188.746 196.357 192.087 197.854C196.052 199.631 199.931 201.624 203.853 203.515C204.167 203.642 204.487 203.75 204.814 203.838C205.016 203.896 205.228 203.906 205.435 203.867C205.641 203.829 205.836 203.743 206.003 203.616C206.171 203.49 206.307 203.326 206.4 203.138C206.494 202.951 206.542 202.743 206.542 202.534C206.63 202.05 206.742 201.572 206.879 201.1C202.864 198.678 198.59 196.743 194.367 194.737C189.09 192.229 183.834 189.678 178.679 186.955C172.613 183.744 166.626 180.398 160.438 177.446C154.25 174.493 147.761 171.634 141.423 168.739C136.225 166.36 131.012 164.009 125.828 161.609C119.705 158.778 113.581 155.955 107.394 153.268C102.31 151.061 97.1833 148.968 91.9491 147.155C88.9807 146.116 86.0051 145.113 83.1084 143.887C82.7426 143.727 82.3461 143.649 81.9468 143.658L79.3512 149.57C79.2274 149.95 79.0183 150.297 78.7399 150.584C78.4616 150.87 78.1213 151.09 77.7451 151.225Z" fill="#323E4C"/>
<path d="M211.697 202.591C213.296 202.591 214.83 202.003 216.494 201.953C215.555 201.459 214.63 200.957 213.683 200.477C197.314 192.243 180.93 184.038 164.26 176.428C144.083 167.213 123.947 157.918 103.851 148.545C97.6493 145.679 91.4042 142.848 85.0873 140.211C84.6643 140.032 84.2269 139.91 83.7895 139.76L83.0725 139.932L82.3555 142.619C83.7178 142.691 84.7933 143.558 86.0337 143.966C90.049 145.306 94.0499 146.675 98.0078 148.158C102.668 149.907 107.221 151.892 111.767 153.891C114.693 155.195 117.589 156.564 120.5 157.89C125.34 160.09 130.194 162.268 135.027 164.475C138.203 165.908 141.344 167.449 144.542 168.861C150.144 171.326 155.701 173.884 161.212 176.535C166.655 179.216 171.989 182.118 177.367 184.948C183.913 188.374 190.56 191.62 197.192 194.887C201.494 197.037 205.732 199.33 210.163 201.222C210.779 201.48 211.69 201.573 211.697 202.591Z" fill="#36424F"/>
<path d="M211.697 202.591C211.697 201.573 210.779 201.48 210.163 201.208C205.732 199.316 201.508 197.001 197.192 194.873C190.56 191.606 183.913 188.359 177.367 184.934C171.989 182.118 166.669 179.201 161.198 176.564C155.727 173.927 150.163 171.333 144.527 168.889C141.33 167.456 138.189 165.951 135.013 164.504C130.18 162.297 125.326 160.118 120.486 157.918C117.575 156.593 114.678 155.224 111.753 153.92C107.207 151.892 102.654 149.907 97.9934 148.187C94.0355 146.704 90.0346 145.321 86.0193 143.995C84.7789 143.586 83.7034 142.719 82.3411 142.648C82.0792 142.929 81.9377 143.302 81.9467 143.687C82.346 143.677 82.7425 143.756 83.1082 143.916C85.9763 145.141 88.9806 146.145 91.949 147.184C97.1832 149.004 102.31 151.089 107.393 153.296C113.581 155.984 119.705 158.807 125.828 161.637C131.012 164.038 136.224 166.389 141.423 168.768C147.761 171.634 154.143 174.5 160.438 177.474C166.733 180.448 172.627 183.773 178.679 186.983C183.834 189.707 189.09 192.258 194.367 194.766C198.59 196.772 202.863 198.707 206.879 201.129C207.704 201.316 208.487 201.657 209.188 202.132C209.906 202.571 210.764 202.722 211.59 202.555L211.697 202.591Z" fill="#404D5C"/>
<path d="M204.814 203.852C204.488 203.764 204.167 203.656 203.853 203.53C199.931 201.638 196.052 199.646 192.087 197.868C188.746 196.371 185.483 194.694 182.178 193.125C179.138 191.691 176.213 189.979 173.28 188.316C169.25 186.045 165.235 183.744 161.248 181.38C157.124 179.024 152.864 176.911 148.493 175.052C142.384 172.343 136.239 169.706 129.965 167.377C124.667 165.407 119.411 163.329 114.141 161.279C109.987 159.66 105.843 158.023 101.708 156.37C95.6085 153.934 89.5139 151.481 83.4241 149.011C82.958 148.818 82.5637 148.438 82.0976 148.23C81.6316 148.022 81.101 147.442 80.7783 148.079C80.5202 148.588 81.187 148.932 81.6387 149.162C82.7071 149.72 83.7898 150.308 84.8725 150.76C91.5335 153.49 98.1874 156.241 104.884 158.871C111.897 161.637 118.88 164.475 125.957 167.098C132.281 169.434 138.534 171.949 144.714 174.644C148.228 176.177 151.719 177.761 155.161 179.423C160.001 181.767 164.597 184.561 169.2 187.306C171.258 188.546 173.352 189.721 175.467 190.889C178.335 192.43 181.203 193.992 184.157 195.389C189.578 197.976 195.048 200.477 200.404 203.193C201.458 203.723 202.771 203.788 203.466 204.934L204.484 204.497C204.599 204.296 204.707 204.067 204.814 203.852Z" fill="#404D5C"/>
<path d="M64.043 145.385C66.8342 146.735 69.708 147.908 72.6471 148.896C72.5931 148.499 72.6739 148.096 72.8766 147.75C74.8268 144.883 75.8163 141.616 76.6767 138.312C76.7545 137.77 77.0061 137.267 77.3937 136.879C76.9387 136.539 76.419 136.295 75.8665 136.163C73.2351 135.288 70.6825 134.213 68.1371 133.124C68.6964 134.228 69.4205 135.274 69.1696 136.635C68.5028 140.147 67.3125 143.386 64.043 145.385Z" fill="#EB8248"/>
<path d="M228.576 219.932C230.556 220.645 232.574 221.248 234.621 221.738C236.009 222.088 237.446 222.204 238.872 222.082C241.267 221.925 242.407 219.811 241.36 217.861C240.701 216.652 239.783 215.603 238.672 214.787C236.955 213.459 235.105 212.314 233.151 211.369C231.179 211.491 231 211.491 231 212.759C231 214.028 229.25 213.841 229.286 215.024C229.314 215.247 229.369 215.466 229.451 215.676C229.523 215.816 229.566 215.969 229.576 216.126C229.587 216.283 229.566 216.44 229.513 216.588C229.461 216.737 229.379 216.873 229.272 216.988C229.165 217.104 229.036 217.196 228.892 217.26C227.909 217.747 227.73 218.392 228.461 219.266C228.605 219.409 228.547 219.703 228.576 219.932Z" fill="#34404E"/>
<path d="M77.387 136.843C76.9993 137.231 76.7477 137.734 76.6699 138.276C75.8095 141.58 74.8201 144.848 72.8698 147.714C72.6671 148.06 72.5864 148.463 72.6403 148.861C72.6701 149.001 72.7341 149.132 72.8266 149.242C72.9192 149.352 73.0374 149.438 73.1709 149.491C74.648 150.208 76.039 151.068 77.7813 151.19C78.1549 151.052 78.4923 150.832 78.7681 150.545C79.0438 150.258 79.2507 149.913 79.3731 149.534L81.9687 143.622C81.9597 143.238 82.1012 142.865 82.363 142.583L83.08 139.896L83.0155 139.373C82.0189 138.133 80.3984 137.94 79.1723 137.116C78.635 136.797 77.9949 136.699 77.387 136.843Z" fill="#B2BECB"/>
<path d="M64.0434 145.385C67.3129 143.371 68.5032 140.147 69.1628 136.614C69.4138 135.281 68.6896 134.206 68.1303 133.103C65.6351 132.028 65.3627 132.386 64.1581 133.884C62.3184 136.039 61.3022 138.776 61.29 141.609C61.3187 143.773 61.921 144.604 64.0434 145.385Z" fill="#FBC898"/>
<path d="M228.576 219.933C228.576 219.703 228.576 219.409 228.483 219.266C227.766 218.392 227.931 217.747 228.913 217.26C229.057 217.196 229.186 217.104 229.293 216.988C229.4 216.873 229.482 216.737 229.535 216.588C229.587 216.44 229.608 216.283 229.598 216.126C229.587 215.969 229.544 215.816 229.472 215.676C229.39 215.466 229.335 215.247 229.307 215.024C229.271 213.841 231.042 214.092 231.021 212.759C230.999 211.427 231.179 211.491 233.172 211.369C232.711 210.846 232.087 210.493 231.401 210.366C231.244 210.432 231.097 210.519 230.963 210.624C229.63 211.778 229.673 211.713 228.174 210.839C226.676 209.965 225.184 208.754 223.377 208.317C223.197 208.635 223.113 208.998 223.134 209.363C225.285 210.316 227.135 211.677 229.257 212.903C228.625 213.536 228.177 214.329 227.959 215.196C227.063 214.766 226.31 214.357 225.529 214.028C224.059 213.426 222.66 212.595 221.04 212.458C220.983 212.682 221.009 212.918 221.114 213.124C221.218 213.329 221.393 213.49 221.606 213.576C222.28 213.877 222.947 214.207 223.621 214.501C224.668 214.952 225.722 215.375 226.769 215.834C227.378 216.099 227.723 216.471 227.192 217.138C226.661 217.804 226.948 218.571 226.884 219.288C227.344 219.712 227.95 219.943 228.576 219.933Z" fill="#465361"/>
<path d="M226.884 219.302C226.949 218.585 226.676 217.804 227.192 217.152C227.709 216.5 227.379 216.113 226.769 215.848C225.722 215.389 224.668 214.967 223.622 214.515C222.948 214.221 222.281 213.892 221.607 213.591C221.393 213.504 221.218 213.343 221.114 213.138C221.01 212.932 220.984 212.696 221.04 212.473L217.513 215.167C218.509 216.077 224.547 218.707 226.884 219.302Z" fill="#384452"/>
<path d="M221.019 212.458C222.646 212.595 224.037 213.426 225.507 214.028C226.289 214.357 227.041 214.744 227.938 215.196C228.156 214.329 228.604 213.536 229.236 212.903C227.084 211.677 225.242 210.316 223.112 209.363C222.486 210.441 221.787 211.476 221.019 212.458Z" fill="#36424F"/>
<path d="M223.356 208.316C225.163 208.754 226.589 209.936 228.152 210.839C229.716 211.742 229.587 211.778 230.942 210.624C231.075 210.519 231.222 210.432 231.379 210.366C228.783 208.589 225.858 207.392 223.262 205.636C222.947 205.429 222.632 205.973 222.366 205.572C222.961 206.389 222.954 207.428 223.356 208.316Z" fill="#3A4654"/>
<path d="M204.814 203.852C204.707 204.067 204.599 204.282 204.484 204.497C206.886 203.966 209.258 203.308 211.59 202.526C210.765 202.694 209.906 202.543 209.188 202.104C208.488 201.628 207.705 201.288 206.879 201.1C206.743 201.572 206.63 202.05 206.542 202.534C206.545 202.745 206.498 202.953 206.405 203.143C206.313 203.333 206.177 203.498 206.009 203.626C205.842 203.755 205.646 203.842 205.439 203.881C205.231 203.92 205.017 203.91 204.814 203.852Z" fill="#36424F"/>
<path d="M83.0088 139.409L83.0733 139.932L83.7903 139.76C83.6182 139.437 83.3099 139.423 83.0088 139.409Z" fill="#767F8A"/>
<path d="M222.367 205.572L222.331 205.529L222.36 205.572H222.367Z" fill="#3A4654"/>
<path d="M338.021 96.8071C337.839 96.2056 337.437 95.6943 336.896 95.3739C336.458 95.03 336.057 94.6573 335.634 94.2632C334.897 93.6027 334.334 92.7704 333.996 91.8403C333.659 90.9102 333.556 89.911 333.698 88.9317C334.064 88.4301 334.415 87.9285 334.802 87.4197C335.465 86.379 336.406 85.5438 337.518 85.0083C338.63 84.4728 339.87 84.2581 341.097 84.3885C342.962 84.5655 344.81 84.8841 346.626 85.3416C349.494 86.0582 352.304 86.9611 355.144 87.7852C360.27 88.9174 365.375 90.1428 370.524 91.1747C376.977 92.4646 383.308 94.1271 389.826 94.987C392.134 95.288 393.662 93.7616 393.174 91.49C392.804 89.8165 392.281 88.1805 391.611 86.6028C390.256 83.3423 388.155 80.9202 384.606 79.8166C382.591 79.186 380.655 78.319 378.504 78.2688C378.375 78.1542 378.267 77.975 378.124 77.9463C375.105 77.3599 372.047 77.0006 368.975 76.8714C361.108 76.9745 353.313 78.3839 345.909 81.042C342.101 82.597 338.215 83.9084 334.372 85.4061C333.873 85.6241 333.335 85.7367 332.791 85.7367C332.247 85.7367 331.708 85.6241 331.21 85.4061C330.213 83.8224 330.765 82.2817 331.475 80.8414C332.085 79.6736 332.863 78.6016 333.784 77.6597C339.095 72.114 345.161 67.3425 351.802 63.4854C357.206 60.2438 363.071 57.8421 369.197 56.3625C372.026 55.715 374.904 55.3051 377.801 55.1371C378.045 55.4596 378.274 55.4452 378.518 55.1371C379.802 55.2804 381.028 54.7501 382.304 54.829C382.663 55.2231 383.021 55.2231 383.337 54.829H387.122C387.173 54.9217 387.248 54.9991 387.338 55.053C387.429 55.1069 387.533 55.1354 387.639 55.1354C387.744 55.1354 387.848 55.1069 387.939 55.053C388.03 54.9991 388.104 54.9217 388.155 54.829C395.719 55.4237 403.069 56.7781 410.045 60.0171C416.376 62.9552 422.012 66.9179 427.641 70.9739C431.677 73.8832 435.341 77.2656 439.371 80.1893C442.002 82.0954 444.39 84.3527 446.835 86.5097C454.428 93.2385 461.634 100.376 468.668 107.678C473.386 112.579 477.989 117.574 482.492 122.726C484.937 125.535 487.511 128.251 489.999 130.989C494.301 135.661 498.603 140.304 502.798 145.106C505.092 147.728 507.487 150.272 509.81 152.874C513.156 156.629 516.45 160.436 519.691 164.296C521.641 166.618 523.663 168.875 525.706 171.118C528.789 174.5 531.944 177.825 535.027 181.222C537.896 184.404 540.369 187.929 543.065 191.254C545.575 194.372 548.163 197.424 550.644 200.57C551.519 201.674 552.709 202.591 553.06 204.06C552.078 204.232 551.167 203.637 550.192 203.773C547.627 203.995 545.116 204.634 542.757 205.665C540.341 206.848 537.939 208.051 535.587 209.37C529.033 213.024 523.126 217.733 518.106 223.308C513.921 227.953 510.571 233.287 508.204 239.073C506.971 242.097 505.867 245.15 505.895 248.482C504.977 247.897 504.185 247.134 503.565 246.239C502.475 244.899 501.249 243.702 500.059 242.462C495.42 237.633 490.938 232.674 486.687 227.5C484.908 225.35 483.016 223.258 481.123 221.194C478.878 218.75 476.541 216.385 474.289 213.949C469.622 208.933 464.968 203.859 460.279 198.85C456.608 194.923 453.109 190.839 449.409 186.926C445.25 182.519 441.321 177.89 437.163 173.483C433.735 169.864 430.129 166.417 426.58 162.92C421.938 158.512 417.06 154.359 411.967 150.48C406.188 145.908 400.409 141.322 394.601 136.779C391.13 134.063 387.617 131.412 384.111 128.746C383.87 128.598 383.61 128.487 383.337 128.416C382.577 127.212 381.329 126.567 380.268 125.729C376.998 123.142 373.528 120.827 370.115 118.448C366.365 115.833 362.586 113.26 358.722 110.838C353.251 107.406 347.966 103.672 342.668 100.039C341.076 98.9569 339.807 97.5237 338.021 96.8071ZM345.435 91.963C344.396 89.6698 342.453 88.4875 340.158 87.8067C339.452 87.6068 338.699 87.6381 338.012 87.8959C337.324 88.1538 336.737 88.6247 336.336 89.2399C335.526 90.5011 335.734 91.6835 336.58 92.8874C337.876 94.6259 339.635 95.9645 341.657 96.7498C342.417 97.7889 343.356 97.3016 344.274 97.0579C344.725 96.9821 345.142 96.7707 345.47 96.452C345.798 96.1332 346.021 95.7222 346.109 95.2736C346.296 94.1486 346.411 92.9447 345.421 91.9844L345.435 91.963ZM364.68 103.428C364.343 103.307 363.963 103.206 363.812 103.643C363.662 104.081 363.984 104.36 364.293 104.64C364.424 104.75 364.58 104.827 364.747 104.863C364.915 104.899 365.089 104.894 365.254 104.847C365.835 104.686 366.341 104.325 366.685 103.829C367.028 103.333 367.186 102.732 367.132 102.131C367.08 101.587 366.821 101.083 366.409 100.722C365.998 100.361 365.464 100.171 364.917 100.189C364.169 100.204 363.443 100.446 362.836 100.882C362.229 101.319 361.769 101.929 361.518 102.633C361.29 103.225 361.246 103.872 361.392 104.49C361.538 105.107 361.866 105.666 362.335 106.094C363.253 106.99 364.486 107.026 365.684 106.868C365.852 106.826 366.008 106.742 366.136 106.624C366.236 106.567 366.31 106.473 366.344 106.363C366.377 106.252 366.367 106.133 366.315 106.03C366.279 105.957 366.229 105.892 366.167 105.839C366.105 105.786 366.034 105.746 365.956 105.722C365.447 105.664 364.924 105.722 364.422 105.628C363.937 105.552 363.496 105.304 363.178 104.931C362.86 104.558 362.686 104.084 362.687 103.593C362.79 103.122 363.015 102.687 363.338 102.329C363.661 101.97 364.071 101.703 364.529 101.551C364.725 101.499 364.932 101.507 365.124 101.573C365.316 101.639 365.483 101.762 365.605 101.924C365.72 102.089 365.787 102.283 365.798 102.484C365.81 102.685 365.765 102.886 365.669 103.063C365.637 103.161 365.584 103.251 365.514 103.326C365.444 103.402 365.358 103.461 365.263 103.501C365.168 103.54 365.065 103.559 364.962 103.555C364.859 103.551 364.758 103.525 364.666 103.479L364.68 103.428Z" fill="#FBC998"/>
<path d="M505.845 248.46C505.845 245.128 506.92 242.075 508.154 239.051C510.52 233.265 513.87 227.931 518.055 223.286C523.076 217.711 528.982 213.002 535.536 209.349C537.881 208.03 540.283 206.826 542.706 205.644C545.065 204.612 547.577 203.973 550.142 203.752C551.131 203.616 552.042 204.211 553.01 204.039C553.841 204.64 554.91 204.941 555.455 205.88C556.654 207.902 557.072 210.293 556.631 212.602C555.763 217.425 552.902 221.079 549.582 224.454C543.201 231.052 536.226 237.048 528.746 242.369C525.62 244.562 522.408 246.669 519.188 248.704C516.862 250.167 514.282 251.181 511.581 251.692C510.689 251.923 509.751 251.899 508.872 251.622C507.994 251.346 507.211 250.829 506.612 250.13C506.16 249.607 506.253 248.933 505.845 248.46Z" fill="#EB8146"/>
<path d="M338.022 96.8071C339.822 97.4879 341.091 98.9569 342.632 99.996C347.945 103.643 353.215 107.363 358.686 110.795C362.551 113.217 366.329 115.811 370.079 118.405C373.492 120.784 376.963 123.099 380.232 125.686C381.293 126.524 382.541 127.169 383.301 128.373C380.532 129.295 377.69 129.981 374.804 130.423C373.292 130.709 371.764 130.888 370.244 131.139C369.986 130.853 369.764 130.888 369.527 131.197C368.615 131.355 367.692 131.446 366.767 131.469C365.08 131.025 363.306 131.025 361.619 131.469C359.769 131.275 357.926 131.103 356.306 130C355.292 129.35 354.578 128.325 354.32 127.149C354.061 125.974 354.281 124.744 354.929 123.73C355.709 122.406 356.694 121.213 357.847 120.197C357.991 120.111 358.148 120.046 358.285 119.946C358.421 119.846 358.887 119.616 358.622 119.337C358.356 119.057 358.019 119.244 357.811 119.566C356.353 119.971 354.868 120.268 353.366 120.455C353.108 120.154 352.885 120.204 352.649 120.512H349.924C349.723 120.204 349.501 120.147 349.207 120.448C348.44 120.233 347.658 120.039 346.891 119.81C346.11 119.569 345.389 119.163 344.778 118.621C344.166 118.079 343.678 117.412 343.345 116.665C343.012 115.919 342.843 115.11 342.849 114.293C342.854 113.476 343.035 112.669 343.378 111.927C343.787 111.06 344.231 110.207 344.661 109.348C344.524 109.265 344.37 109.216 344.211 109.204C344.052 109.191 343.892 109.216 343.744 109.276C341.788 109.957 339.696 110.149 337.649 109.835C336.324 109.721 335.072 109.182 334.081 108.296C333.089 107.411 332.411 106.229 332.15 104.926C331.999 103.906 332.22 102.866 332.773 101.995C334.078 99.8168 336.093 98.3693 338.022 96.8071Z" fill="#ECA26D"/>
<path d="M355.129 87.778C352.29 86.9539 349.493 86.0582 346.625 85.3416C344.808 84.8986 342.96 84.5943 341.097 84.4315C339.87 84.3011 338.63 84.5158 337.518 85.0513C336.406 85.5868 335.465 86.4219 334.802 87.4627C334.436 87.9715 334.085 88.4731 333.698 88.9747C331.912 88.4659 331.339 87.1044 331.195 85.4419C331.694 85.6599 332.232 85.7725 332.776 85.7725C333.32 85.7725 333.859 85.6599 334.357 85.4419C338.201 84.0087 342.087 82.6328 345.894 81.0778C353.302 78.4108 361.102 76.9941 368.975 76.8857C372.047 77.0149 375.105 77.3742 378.124 77.9606C378.267 77.9606 378.375 78.1684 378.504 78.2831C378.454 78.5052 378.41 78.7991 378.152 78.8205C377.083 78.9882 376.032 79.2545 375.012 79.616C368.458 81.4107 362.096 83.8445 356.018 86.8822C355.617 87.0471 355.1 87.1689 355.129 87.778Z" fill="#ECA36C"/>
<path d="M361.633 131.462C363.32 131.017 365.094 131.017 366.781 131.462C365.103 131.974 363.311 131.974 361.633 131.462Z" fill="#F4BD9D"/>
<path d="M357.825 119.559C358.033 119.237 358.363 119.029 358.635 119.33C358.908 119.631 358.499 119.781 358.298 119.939C358.098 120.097 358.004 120.104 357.861 120.19C357.847 119.975 357.832 119.738 357.825 119.559Z" fill="#F7D7C0"/>
<path d="M383.308 54.8003C382.978 55.2231 382.634 55.2231 382.275 54.8003C382.326 54.7076 382.401 54.6302 382.491 54.5763C382.582 54.5223 382.686 54.4939 382.792 54.4939C382.897 54.4939 383.001 54.5223 383.092 54.5763C383.183 54.6302 383.257 54.7076 383.308 54.8003Z" fill="#FDE5CE"/>
<path d="M388.126 54.829C388.076 54.9217 388.001 54.9991 387.91 55.053C387.819 55.1069 387.716 55.1354 387.61 55.1354C387.504 55.1354 387.401 55.1069 387.31 55.053C387.219 54.9991 387.144 54.9217 387.094 54.829C387.144 54.7363 387.219 54.6589 387.31 54.605C387.401 54.551 387.504 54.5226 387.61 54.5226C387.716 54.5226 387.819 54.551 387.91 54.605C388.001 54.6589 388.076 54.7363 388.126 54.829Z" fill="#FDE5CE"/>
<path d="M378.489 55.1371C378.274 55.4739 378.045 55.4883 377.772 55.1371C378.016 54.8362 378.246 54.8218 378.489 55.1371Z" fill="#FDE5CE"/>
<path d="M349.235 120.455C349.501 120.154 349.723 120.211 349.952 120.519C349.666 120.82 349.436 120.77 349.235 120.455Z" fill="#F4CDB0"/>
<path d="M352.677 120.526C352.885 120.218 353.107 120.168 353.394 120.469C353.157 120.777 352.928 120.813 352.677 120.526Z" fill="#F4CDB0"/>
<path d="M369.57 131.204C369.778 130.896 370.001 130.86 370.287 131.146C370.022 131.44 369.793 131.483 369.57 131.204Z" fill="#F4CDB0"/>
<path d="M355.129 87.7781C355.129 87.1689 355.616 87.0615 356.004 86.8608C362.082 83.8279 368.444 81.399 374.997 79.6089C376.017 79.2474 377.069 78.9811 378.138 78.8134C378.396 78.8134 378.439 78.4981 378.489 78.276C380.64 78.3262 382.576 79.1932 384.591 79.8239C388.14 80.9274 390.241 83.3495 391.596 86.61C392.266 88.1877 392.789 89.8237 393.159 91.4972C393.647 93.7688 392.12 95.2951 389.811 94.9942C383.293 94.1343 376.905 92.4718 370.509 91.1819C365.361 90.1357 360.248 88.9246 355.129 87.7781Z" fill="#EB8146"/>
<path d="M341.642 96.8071C339.628 96.0163 337.876 94.6755 336.587 92.9375C335.741 91.7336 335.533 90.5512 336.344 89.29C336.744 88.6749 337.331 88.2039 338.019 87.9461C338.707 87.6882 339.459 87.6569 340.165 87.8568C342.46 88.5376 344.403 89.72 345.443 92.0131C344.697 92.0111 343.967 92.2271 343.343 92.6346C342.718 93.042 342.227 93.6231 341.929 94.3062C341.477 95.0801 341.743 95.9615 341.642 96.8071Z" fill="#ECA26C"/>
<path d="M364.665 103.479C364.754 103.524 364.85 103.55 364.949 103.556C365.048 103.562 365.147 103.547 365.24 103.513C365.333 103.478 365.418 103.425 365.49 103.356C365.561 103.288 365.617 103.205 365.655 103.113C365.751 102.936 365.795 102.735 365.784 102.534C365.773 102.333 365.706 102.139 365.59 101.974C365.469 101.812 365.301 101.69 365.11 101.623C364.918 101.557 364.711 101.549 364.515 101.601C364.057 101.753 363.646 102.021 363.323 102.379C363 102.737 362.776 103.173 362.672 103.643C362.671 104.134 362.846 104.608 363.164 104.981C363.482 105.354 363.923 105.602 364.407 105.679C364.909 105.765 365.433 105.714 365.942 105.772C366.019 105.796 366.091 105.836 366.153 105.889C366.214 105.942 366.264 106.007 366.3 106.08C366.352 106.183 366.363 106.302 366.329 106.413C366.296 106.524 366.221 106.617 366.121 106.675C365.993 106.792 365.838 106.876 365.669 106.918C364.458 107.076 363.239 107.04 362.321 106.144C361.852 105.717 361.523 105.157 361.377 104.54C361.232 103.922 361.275 103.275 361.503 102.683C361.755 101.979 362.215 101.369 362.822 100.932C363.429 100.496 364.154 100.254 364.902 100.24C365.449 100.221 365.983 100.411 366.395 100.772C366.807 101.133 367.065 101.637 367.118 102.182C367.172 102.782 367.013 103.383 366.67 103.879C366.327 104.375 365.821 104.736 365.239 104.897C365.074 104.944 364.9 104.949 364.733 104.913C364.565 104.877 364.409 104.8 364.278 104.69C363.97 104.439 363.619 104.167 363.798 103.694C363.977 103.221 364.328 103.357 364.665 103.479Z" fill="#EC874D"/>
<path d="M341.643 96.8071C341.743 95.9687 341.478 95.0873 341.908 94.2847C342.206 93.6016 342.697 93.0206 343.321 92.6131C343.946 92.2057 344.676 91.9896 345.421 91.9916C346.411 92.9518 346.296 94.1414 346.095 95.3309C346.007 95.7795 345.784 96.1905 345.456 96.5093C345.128 96.828 344.711 97.0394 344.26 97.1153C343.342 97.3517 342.403 97.839 341.643 96.8071Z" fill="#EB8247"/>
<path d="M479.05 33.4888C478.305 34.1102 477.455 34.5954 476.541 34.922C470.088 37.7883 463.498 40.1173 456.966 42.697C447.937 46.2848 438.986 50.0565 430.114 54.0121C414.046 61.2425 398.286 69.0606 382.548 77.0005C378.475 79.0499 374.288 80.8414 370.144 82.7332C366.637 84.3097 363.325 86.2445 359.962 88.0862C359.584 88.3356 359.154 88.4933 358.704 88.5468C358.255 88.6003 357.799 88.5481 357.374 88.3943C356.061 87.907 354.635 87.7852 353.337 87.2119C354.054 86.0725 355.352 86.0009 356.398 85.4706C361.762 82.7547 367.225 80.2538 372.653 77.6741C375.6 76.2409 378.468 74.7073 381.343 73.1667C383.494 72.0273 385.545 70.8521 387.603 69.5837C392.206 66.8105 396.802 64.0157 401.642 61.7011C405.091 60.0315 408.575 58.4478 412.089 56.9143C418.269 54.2103 424.524 51.6951 430.853 49.3685C437.923 46.753 444.906 43.9081 451.926 41.142C458.623 38.5121 465.277 35.7604 471.93 33.0373C473.042 32.5787 474.082 31.9911 475.171 31.4393C475.616 31.2028 476.29 30.8589 476.025 30.3501C475.702 29.7123 475.128 30.3071 474.705 30.5006C474.282 30.694 473.852 31.0882 473.379 31.2817C467.27 33.742 461.178 36.1927 455.102 38.6339C450.967 40.2916 446.823 41.9279 442.669 43.5426C437.399 45.5921 432.136 47.6702 426.838 49.6408C420.571 51.9698 414.426 54.6068 408.317 57.3227C403.942 59.1764 399.68 61.2869 395.554 63.6431C391.575 66.0079 387.56 68.3081 383.53 70.5869C380.59 72.2423 377.672 73.9406 374.625 75.3881C371.319 76.9646 368.064 78.6343 364.723 80.132C360.751 81.9163 356.879 83.9013 352.957 85.7931C352.641 85.9198 352.318 86.0275 351.989 86.1155C351.787 86.172 351.576 86.181 351.37 86.142C351.165 86.1029 350.971 86.0169 350.804 85.8906C350.638 85.7643 350.503 85.6011 350.409 85.4139C350.316 85.2266 350.268 85.0204 350.268 84.8113C350.181 84.3274 350.066 83.8489 349.924 83.3781C353.939 80.9561 358.22 79.0213 362.443 77.0148C367.72 74.5067 372.976 71.9556 378.131 69.2326C384.19 66.0222 390.177 62.6757 396.365 59.7233C402.552 56.771 409.041 53.9117 415.387 51.0167C420.585 48.6376 425.798 46.2872 430.982 43.8507C437.098 41.0202 443.228 38.1968 449.409 35.5096C454.493 33.3025 459.627 31.21 464.861 29.397C467.829 28.3579 470.798 27.3547 473.694 26.1293C474.063 25.969 474.461 25.8908 474.863 25.9C475.723 27.8731 476.589 29.8437 477.459 31.8119C477.578 32.1944 477.784 32.5444 478.06 32.8351C478.336 33.1257 478.675 33.3494 479.05 33.4888Z" fill="#323E4C"/>
<path d="M345.112 84.8543C343.513 84.8543 341.979 84.2667 340.315 84.2165C341.248 83.7221 342.18 83.2205 343.126 82.7403C359.495 74.5067 375.879 66.3016 392.55 58.6914C412.717 49.476 432.853 40.1817 452.958 30.8087C459.16 27.9423 465.405 25.0759 471.722 22.4746C472.138 22.2955 472.582 22.1737 473.013 22.0232L473.73 22.1952C473.973 23.0909 474.217 23.9867 474.447 24.8896C473.084 24.9541 472.016 25.8211 470.768 26.2368C466.76 27.5696 462.752 28.9383 458.794 30.4217C454.141 32.1702 449.581 34.1552 445.042 36.1545C442.117 37.4587 439.22 38.8274 436.302 40.1531L421.775 46.7386C418.599 48.1718 415.458 49.7124 412.267 51.1241C406.665 53.5892 401.106 56.1475 395.59 58.7989C390.126 61.436 384.835 64.3525 379.428 67.1687C372.875 70.594 366.228 73.8402 359.596 77.1079C355.294 79.2577 351.063 81.5508 346.632 83.4498C346.023 83.7436 345.112 83.8367 345.112 84.8543Z" fill="#36424F"/>
<path d="M345.112 84.8543C345.112 83.8368 346.023 83.7436 346.647 83.4785C351.078 81.5795 355.301 79.2649 359.61 77.1366C366.243 73.8689 372.889 70.6227 379.443 67.1974C384.82 64.3812 390.141 61.4647 395.604 58.8276C401.068 56.1905 406.682 53.6179 412.282 51.1529C415.473 49.7197 418.613 48.222 421.79 46.7673L436.316 40.1961C439.234 38.8704 442.131 37.5017 445.057 36.1975C449.595 34.1695 454.155 32.1846 458.809 30.4647C462.767 28.9814 466.775 27.5984 470.783 26.2798C472.03 25.8642 473.099 24.9971 474.461 24.9326C474.723 25.2119 474.867 25.5816 474.863 25.9645C474.461 25.9553 474.062 26.0335 473.694 26.1938C470.826 27.4192 467.829 28.4224 464.86 29.4615C459.626 31.2817 454.492 33.367 449.409 35.5741C443.228 38.2613 437.098 41.0847 430.982 43.9152C425.798 46.3158 420.585 48.6663 415.387 51.0812C409.041 53.9476 402.66 56.814 396.364 59.7878C390.069 62.7617 384.175 66.0867 378.131 69.2971C372.975 72.0201 367.72 74.5712 362.442 77.0793C358.219 79.0857 353.939 81.0206 349.923 83.4426C349.1 83.6287 348.319 83.9691 347.622 84.4459C346.903 84.8843 346.045 85.0353 345.22 84.8687L345.112 84.8543Z" fill="#404D5C"/>
<path d="M351.988 86.1155C352.317 86.0275 352.64 85.9198 352.956 85.7931C356.878 83.9013 360.75 81.9163 364.722 80.132C368.064 78.6343 371.319 76.9646 374.624 75.3881C377.672 73.9549 380.59 72.2422 383.53 70.5869C387.559 68.3081 391.574 66.0079 395.554 63.6431C399.671 61.2879 403.923 59.1774 408.288 57.3227C414.397 54.6068 420.542 51.9698 426.808 49.6408C432.107 47.6702 437.37 45.592 442.64 43.5426C446.789 41.9231 450.933 40.2869 455.073 38.6339C461.172 36.1975 467.265 33.7443 473.35 31.2745C473.823 31.081 474.21 30.7084 474.676 30.4934C475.142 30.2784 475.673 29.7051 475.995 30.3429C476.261 30.8517 475.587 31.1956 475.142 31.4321C474.074 31.9839 472.991 32.5715 471.901 33.0301C465.247 35.7532 458.594 38.5049 451.897 41.1348C444.877 43.9009 437.893 46.7458 430.824 49.3613C424.5 51.6974 418.245 54.2127 412.059 56.9071C408.546 58.4406 405.061 60.0243 401.613 61.694C396.773 64.0301 392.177 66.8248 387.574 69.5765C385.516 70.8162 383.429 71.9914 381.314 73.1595C378.446 74.7002 375.578 76.2623 372.624 77.6669C367.196 80.2466 361.732 82.7475 356.369 85.4634C355.322 85.9937 354.01 86.0654 353.308 87.2048L352.289 86.7676C352.211 86.5455 352.103 86.3305 351.988 86.1155Z" fill="#404D5C"/>
<path d="M492.767 27.6485C489.977 29.0014 487.103 30.1743 484.163 31.1598C484.224 30.7648 484.143 30.3607 483.933 30.0204C481.983 27.154 481.001 23.8792 480.133 20.5757C480.066 20.0194 479.813 19.5019 479.416 19.1066C479.875 18.7685 480.397 18.5249 480.95 18.39C483.582 17.5158 486.134 16.4409 488.68 15.3517C488.113 16.4552 487.396 17.5015 487.647 18.863C488.3 22.4102 489.49 25.642 492.767 27.6485Z" fill="#EB8248"/>
<path d="M328.234 102.196C326.254 102.908 324.236 103.511 322.189 104.002C320.801 104.351 319.364 104.468 317.938 104.346C315.536 104.188 314.395 102.074 315.442 100.125C316.109 98.92 317.025 97.8718 318.131 97.0507C319.849 95.7242 321.699 94.5787 323.652 93.6326C325.631 93.7544 325.803 93.7544 325.803 95.0228C325.803 96.2911 327.553 96.1048 327.524 97.2872C327.497 97.5115 327.439 97.7309 327.352 97.9393C327.28 98.0796 327.238 98.233 327.227 98.3903C327.217 98.5475 327.239 98.7052 327.292 98.8536C327.345 99.002 327.428 99.1379 327.536 99.2531C327.644 99.3682 327.774 99.46 327.918 99.523C328.901 100.017 329.08 100.655 328.341 101.529C328.198 101.673 328.255 101.967 328.234 102.196Z" fill="#34404E"/>
<path d="M479.416 19.1066C479.813 19.5019 480.066 20.0194 480.133 20.5756C481 23.8791 481.983 27.1468 483.933 30.0204C484.143 30.3607 484.224 30.7648 484.162 31.1597C484.133 31.2994 484.07 31.4297 483.978 31.5395C483.887 31.6494 483.771 31.7354 483.639 31.7904C482.155 32.5069 480.728 33.3669 479.029 33.4887C478.655 33.3515 478.318 33.1311 478.042 32.8443C477.766 32.5575 477.559 32.2118 477.437 31.8334C476.567 29.8651 475.702 27.8945 474.841 25.9214C474.846 25.5386 474.702 25.1688 474.44 24.8895C474.203 23.9866 473.959 23.0909 473.723 22.1951L473.787 21.672C474.777 20.4323 476.397 20.2388 477.63 19.4147C478.162 19.0816 478.803 18.9709 479.416 19.1066Z" fill="#B2BECB"/>
<path d="M492.767 27.6485C489.49 25.642 488.3 22.4102 487.647 18.8773C487.396 17.5445 488.113 16.4696 488.68 15.366C491.168 14.2983 491.447 14.6494 492.652 16.1471C494.492 18.3019 495.508 21.039 495.52 23.872C495.484 26.0361 494.889 26.8674 492.767 27.6485Z" fill="#FBC898"/>
<path d="M328.234 102.196C328.234 101.967 328.198 101.673 328.32 101.529C329.037 100.655 328.879 100.017 327.897 99.5229C327.753 99.46 327.622 99.3682 327.515 99.253C327.407 99.1379 327.324 99.002 327.271 98.8536C327.218 98.7052 327.196 98.5475 327.206 98.3903C327.216 98.233 327.259 98.0795 327.331 97.9393C327.418 97.7309 327.476 97.5114 327.503 97.2872C327.503 96.1048 325.768 96.3556 325.782 95.0227C325.796 93.6899 325.631 93.7544 323.631 93.6325C324.096 93.1104 324.721 92.7575 325.409 92.6293C325.564 92.6986 325.711 92.7851 325.846 92.8873C327.173 94.041 327.13 93.9765 328.636 93.1094C330.141 92.2423 331.618 91.017 333.432 90.5798C333.609 90.8991 333.694 91.2615 333.676 91.6261C331.574 92.7017 329.528 93.8832 327.546 95.1661C328.182 95.7957 328.632 96.5895 328.844 97.4592C329.747 97.0292 330.493 96.6207 331.281 96.2983C332.715 95.6892 334.149 94.8651 335.77 94.7218C335.825 94.945 335.798 95.1806 335.694 95.3858C335.59 95.5909 335.416 95.752 335.203 95.8396C334.522 96.1406 333.863 96.4703 333.181 96.7641C332.135 97.2155 331.081 97.6383 330.041 98.0969C329.424 98.3621 329.08 98.7347 329.618 99.4011C330.156 100.068 329.862 100.834 329.919 101.551C329.461 101.974 328.858 102.205 328.234 102.196Z" fill="#465361"/>
<path d="M329.955 101.565C329.897 100.849 330.17 100.068 329.654 99.4155C329.137 98.7634 329.46 98.3764 330.077 98.1113C331.116 97.6526 332.17 97.2298 333.217 96.7784C333.898 96.4846 334.558 96.1549 335.239 95.854C335.452 95.7663 335.626 95.6052 335.73 95.4001C335.834 95.1949 335.861 94.9593 335.806 94.7361L339.333 97.4305C338.294 98.3406 332.285 100.97 329.955 101.565Z" fill="#384452"/>
<path d="M335.792 94.7218C334.157 94.8579 332.766 95.6892 331.303 96.2983C330.514 96.6208 329.769 97.0149 328.865 97.4592C328.653 96.5895 328.204 95.7957 327.567 95.1661C329.55 93.8832 331.596 92.7017 333.698 91.6261C334.324 92.7047 335.024 93.739 335.792 94.7218Z" fill="#36424F"/>
<path d="M333.454 90.5799C331.64 91.017 330.22 92.2066 328.657 93.1095C327.094 94.0124 327.223 94.041 325.868 92.8873C325.732 92.7852 325.586 92.6986 325.431 92.6294C328.019 90.8522 330.944 89.6555 333.547 87.8998C333.856 87.692 334.171 88.2366 334.436 87.8353C333.841 88.6522 333.856 89.6913 333.454 90.5799Z" fill="#3A4654"/>
<path d="M351.988 86.1155C352.103 86.3305 352.211 86.5455 352.318 86.7604C349.919 86.2297 347.549 85.5719 345.22 84.7898C346.045 84.9564 346.903 84.8054 347.622 84.367C348.319 83.8902 349.1 83.5498 349.923 83.3638C350.065 83.8345 350.18 84.313 350.268 84.797C350.265 85.0072 350.312 85.2151 350.404 85.4042C350.496 85.5932 350.631 85.7583 350.798 85.8862C350.965 86.0142 351.159 86.1015 351.366 86.1413C351.573 86.1811 351.786 86.1723 351.988 86.1155Z" fill="#36424F"/>
<path d="M473.801 21.6721L473.737 22.1952L473.02 22.0232C473.184 21.7008 473.493 21.6865 473.801 21.6721Z" fill="#767F8A"/>
<path d="M334.436 87.8354L334.479 87.7924L334.443 87.8354H334.436Z" fill="#3A4654"/>
</g>
<defs>
<clipPath id="clip0_5947_30085">
<rect width="575" height="418.399" fill="white" transform="translate(0 0.704468)"/>
</clipPath>
</defs>
</svg>
