<svg width="593" height="492" viewBox="0 0 593 492" fill="none" xmlns="http://www.w3.org/2000/svg">
<g clip-path="url(#clip0_5947_12439)">
<g opacity="0.21">
<path opacity="0.21" d="M292.897 448.151C297.986 448.276 301.905 447.91 305.825 447.785C310.016 447.541 314.189 447.056 318.324 446.329C321.797 445.812 325.377 445.437 328.752 444.196C330.009 443.712 331.314 443.361 332.645 443.151C335.51 442.607 338.326 441.827 341.064 440.821C345.224 439.482 349.349 438 353.393 436.294C358.289 434.253 363.059 431.921 367.678 429.313C372.79 426.322 377.71 423.015 382.409 419.411C388.629 414.721 394.371 409.428 399.551 403.609C402.006 400.945 404.251 398.094 406.265 395.083C408.841 391.088 411.021 386.85 412.773 382.432C414.27 378.754 415.389 374.934 416.113 371.031C416.789 367.677 417.213 364.278 417.38 360.862C417.387 356.297 416.786 351.751 415.595 347.345C414.638 343.281 413.23 339.337 411.399 335.586C409.654 332.02 407.506 328.665 404.997 325.587C401.208 320.945 396.684 316.955 391.605 313.775C387.84 311.525 383.944 309.504 379.936 307.722C376.008 305.865 371.901 304.579 367.866 303.017C365.187 301.963 362.375 301.097 359.679 300.008C356.057 298.572 352.518 296.933 349.081 295.098C345.915 293.483 343.045 291.346 340.59 288.777C336.555 284.32 334.052 278.688 333.448 272.706C332.735 267.395 332.868 262.004 333.841 256.734C334.189 254.948 334.787 253.306 335.109 251.556C335.692 248.857 336.523 246.218 337.591 243.672C338.483 241.494 339.376 239.351 340.269 237.2C341.162 235.048 342.26 232.968 343.314 230.905C346.044 225.715 349.104 220.706 352.474 215.906C357.018 209.326 362.044 203.103 367.071 196.89C370.642 192.488 374.329 188.194 377.856 183.765C380.856 180.007 383.74 176.159 386.588 172.275C388.891 169.141 391.195 166.025 393.23 162.677C395.016 159.856 396.337 156.794 397.899 153.848C399.716 150.323 401.21 146.642 402.363 142.848C403.456 139.316 404.142 135.671 404.408 131.983C404.716 127.715 404.539 123.426 403.881 119.198C403.212 114.538 401.489 110.163 399.873 105.806C398.023 101.055 395.721 96.4923 392.998 92.1818C390.46 88.021 387.556 84.0949 384.32 80.4504C380.98 76.6082 377.328 73.0487 373.401 69.8082C367.688 65.1467 361.32 61.3532 354.5 58.5499C352.358 57.6571 350.09 57.0054 347.911 56.2019C343.314 54.5234 338.528 53.9609 333.778 53.1485C330.207 52.5235 326.511 52.9431 322.877 52.7824C317.119 52.5325 311.521 53.7913 305.914 54.7287C301.953 55.4955 298.039 56.4881 294.192 57.7018C291.111 58.5946 288.049 59.5677 285.103 60.7284C280.972 62.2104 276.919 63.903 272.961 65.7995C269.756 67.4512 266.39 68.7904 263.229 70.5581C261.622 71.4509 259.979 72.2902 258.363 73.183C255.587 74.7186 252.783 76.2096 250.069 77.8523C246.382 80.0932 242.695 82.3163 239.061 84.6465C234.829 87.3249 230.74 90.2712 226.651 93.1728C223.75 95.2262 220.973 97.4672 218.116 99.5742C214.545 102.253 211.054 105.02 207.536 107.752C202.903 111.323 198.403 115.136 193.859 118.85C191.18 120.984 188.609 123.135 185.984 125.278C184.198 126.751 182.413 128.287 180.52 129.662C177.842 131.626 175.163 133.59 172.485 135.617C169.176 138.182 165.789 140.625 162.325 142.946C157.206 146.393 151.956 149.634 146.576 152.669C142.263 155.106 137.898 157.455 133.407 159.535C129.996 161.115 126.523 162.57 123.05 163.999C117.613 166.275 112.06 168.195 106.516 170.168C103.65 171.195 100.712 172.034 97.8287 172.998C93.9986 174.284 90.1774 175.677 86.3384 176.927C82.4993 178.176 78.5353 179.792 74.6784 181.337C68.8636 183.606 63.2415 186.341 57.8669 189.515C50.8205 193.654 44.3208 198.66 38.5199 204.416C34.7293 208.256 31.2567 212.397 28.1366 216.799C25.8609 219.878 23.7451 223.073 21.7977 226.37C19.3533 230.524 17.159 234.82 15.2267 239.235C13.5482 243.217 11.6555 247.101 10.3788 251.261C9.71811 253.413 8.89674 255.511 8.27178 257.689C7.53968 260.216 6.80758 262.734 6.12012 265.269C4.97734 269.537 4.28095 273.894 3.35243 278.206C2.62926 281.527 2.40608 284.964 1.88825 288.339C1.24014 291.7 0.893542 295.112 0.852599 298.535C0.870576 299.676 0.825874 300.818 0.718684 301.955C0.415131 305.445 0.049064 308.918 0.057992 312.427C0.057992 318.632 -0.129491 324.855 0.593679 331.042C0.915087 333.72 0.593692 336.479 0.941884 339.166C1.47757 343.898 2.14715 348.621 2.90603 353.335C3.6039 357.259 4.06305 361.221 4.28095 365.201C4.59344 373.754 5.0309 382.289 6.00406 390.815C6.49588 395.625 7.44049 400.378 8.82531 405.011C10.363 409.518 12.2588 413.894 14.4946 418.099C16.9773 423.207 20.0582 428.003 23.6726 432.384C26.9185 436.387 30.5029 440.102 34.3862 443.49C38.1165 446.679 42.3372 449.245 46.8855 451.088C51.1888 452.82 55.6706 453.4 60.2061 453.829C66.0718 454.374 71.8839 453.293 77.705 452.838C81.8029 452.517 85.8652 451.713 89.9364 450.999C94.4004 450.213 98.8197 449.07 103.203 447.901C104.538 447.416 105.9 447.014 107.284 446.696C109.641 446.374 111.748 445.303 113.997 444.722C115.908 444.24 117.747 443.437 119.631 442.812C122.059 442.017 124.515 441.33 126.916 440.428C129.751 439.295 132.663 438.364 135.63 437.643C138.54 437.009 141.424 436.25 144.29 435.5C149.409 434.258 154.588 433.281 159.807 432.571C164.473 431.938 169.178 431.64 173.887 431.679C179.243 431.616 184.6 432.009 189.912 432.33C194.483 432.607 198.947 433.545 203.492 434C207.429 434.402 211.304 435.535 215.241 436.143C217.286 436.455 219.277 437.312 221.285 437.455C224.241 437.66 226.955 438.741 229.821 439.241C232.82 439.75 235.776 440.571 238.749 441.267C239.927 441.544 241.168 441.419 242.32 441.848C245.552 443.062 249.016 443.133 252.328 443.973C255.494 444.77 258.714 445.337 261.961 445.669C264.586 445.937 267.131 446.767 269.8 446.678C271.369 446.691 272.934 446.835 274.479 447.106C280.916 447.919 287.496 447.838 292.897 448.151Z" fill="white"/>
<path opacity="0.21" d="M292.897 448.151C287.54 447.838 280.915 447.919 274.398 447.035C272.853 446.763 271.288 446.62 269.72 446.606C267.041 446.696 264.506 445.865 261.881 445.597C258.633 445.266 255.413 444.699 252.248 443.901C248.935 443.062 245.471 443.008 242.239 441.776C241.079 441.348 239.838 441.473 238.668 441.196C235.704 440.5 232.749 439.678 229.74 439.169C226.874 438.687 224.16 437.607 221.205 437.384C219.196 437.241 217.205 436.384 215.161 436.071C211.223 435.464 207.349 434.286 203.411 433.929C198.867 433.473 194.403 432.536 189.832 432.259C184.475 431.938 179.118 431.545 173.806 431.607C169.098 431.569 164.392 431.867 159.727 432.5C154.507 433.21 149.328 434.187 144.21 435.428C141.344 436.178 138.46 436.937 135.549 437.571C132.583 438.293 129.671 439.223 126.836 440.357C124.434 441.25 121.979 441.946 119.55 442.74C117.667 443.365 115.827 444.169 113.917 444.651C111.658 445.231 109.56 446.303 107.203 446.624C105.82 446.942 104.457 447.345 103.123 447.829C98.7392 448.999 94.3556 450.142 89.8559 450.927C85.7847 451.642 81.7224 452.445 77.6245 452.767C71.8034 453.222 66.0181 454.302 60.1256 453.758C55.5901 453.329 51.1083 452.749 46.805 451.017C42.2568 449.173 38.036 446.608 34.3057 443.419C30.4225 440.031 26.838 436.315 23.5921 432.313C19.9777 427.931 16.8968 423.136 14.4141 418.028C12.1783 413.823 10.2825 409.446 8.74482 404.939C7.35999 400.307 6.41538 395.554 5.92356 390.744C4.95041 382.217 4.51294 373.682 4.20046 365.129C3.9925 361.142 3.54228 357.17 2.85232 353.237C2.09344 348.523 1.42385 343.8 0.888173 339.068C0.575693 336.39 0.88816 333.649 0.539968 330.944C-0.183202 324.757 0.00428104 318.534 0.00428104 312.329C0.00428104 308.82 0.36142 305.347 0.664973 301.856C0.772163 300.72 0.816865 299.578 0.798888 298.437C0.839831 295.014 1.18643 291.602 1.83454 288.241C2.35237 284.866 2.57555 281.429 3.29872 278.108C4.19152 273.796 4.92363 269.439 6.06641 265.171C6.75387 262.636 7.48597 260.118 8.21807 257.591C8.84303 255.413 9.6644 253.315 10.3251 251.163C11.575 247.003 13.4945 243.128 15.173 239.137C17.1053 234.722 19.2996 230.426 21.744 226.272C23.6914 222.975 25.8072 219.78 28.0829 216.701C31.2192 212.313 34.7066 208.186 38.5108 204.362C44.3117 198.606 50.8114 193.6 57.8579 189.462C63.2324 186.287 68.8545 183.553 74.6693 181.283C78.5262 179.739 82.392 178.194 86.3293 176.873C90.2666 175.552 93.9895 174.195 97.8196 172.945C100.703 171.98 103.641 171.159 106.507 170.115C112.051 168.141 117.604 166.222 123.041 163.945C126.514 162.49 129.987 161.035 133.398 159.481C137.862 157.401 142.254 155.017 146.567 152.616C151.923 149.58 157.173 146.339 162.316 142.893C165.774 140.572 169.161 138.128 172.476 135.563C175.101 133.536 177.833 131.572 180.511 129.608C182.395 128.233 184.163 126.698 185.975 125.224C188.6 123.082 191.216 120.93 193.849 118.796C198.394 115.082 202.894 111.306 207.527 107.699C211.045 104.967 214.518 102.172 218.107 99.5207C220.964 97.4136 223.74 95.1727 226.642 93.1193C230.731 90.2177 234.82 87.3071 239.052 84.593C242.686 82.2717 246.373 80.0397 250.06 77.7988C252.739 76.156 255.578 74.6651 258.354 73.1294C259.97 72.2366 261.613 71.4063 263.22 70.5046C266.381 68.719 269.747 67.3976 272.952 65.746C276.91 63.8494 280.963 62.1568 285.094 60.6748C288.04 59.5142 291.102 58.5321 294.183 57.6482C298.03 56.4346 301.944 55.4419 305.905 54.6752C311.503 53.7824 317.101 52.4789 322.868 52.7289C326.502 52.8896 330.162 52.47 333.769 53.095C338.519 53.9074 343.304 54.4699 347.902 56.1483C350.081 56.9519 352.366 57.6036 354.491 58.4964C361.311 61.2997 367.679 65.0932 373.392 69.7546C377.319 72.9952 380.971 76.5547 384.311 80.3968C387.547 84.0414 390.451 87.9674 392.989 92.1283C395.712 96.4388 398.014 101.001 399.863 105.752C401.479 110.145 403.203 114.52 403.872 119.144C404.53 123.372 404.707 127.662 404.399 131.929C404.112 135.617 403.405 139.259 402.292 142.786C401.138 146.579 399.644 150.261 397.828 153.785C396.265 156.731 394.908 159.794 393.159 162.615C391.123 165.927 388.82 169.079 386.516 172.213C383.668 176.096 380.784 179.944 377.784 183.703C374.213 188.167 370.562 192.426 366.999 196.827C361.973 203.077 356.946 209.264 352.402 215.844C349.022 220.648 345.954 225.664 343.215 230.861C342.162 232.923 341.055 234.977 340.171 237.155C339.287 239.333 338.385 241.449 337.492 243.628C336.424 246.174 335.594 248.813 335.01 251.511C334.689 253.297 334.118 254.931 333.743 256.689C332.769 261.959 332.637 267.35 333.35 272.662C333.954 278.644 336.457 284.275 340.492 288.732C342.947 291.302 345.817 293.439 348.983 295.053C352.42 296.888 355.958 298.527 359.58 299.964C362.259 301.053 365.062 301.919 367.767 302.972C371.785 304.535 375.91 305.82 379.838 307.677C383.845 309.459 387.742 311.481 391.507 313.731C396.586 316.91 401.109 320.901 404.899 325.542C407.407 328.62 409.555 331.975 411.3 335.542C413.156 339.29 414.588 343.234 415.568 347.3C416.759 351.707 417.36 356.252 417.353 360.817C417.186 364.234 416.762 367.633 416.086 370.986C415.362 374.89 414.243 378.71 412.747 382.387C410.994 386.806 408.814 391.043 406.238 395.038C404.224 398.049 401.979 400.9 399.524 403.564C394.344 409.383 388.602 414.676 382.382 419.367C377.7 422.975 372.798 426.287 367.705 429.286C363.086 431.895 358.316 434.226 353.42 436.268C349.376 437.973 345.251 439.455 341.09 440.794C338.353 441.801 335.537 442.58 332.671 443.124C331.341 443.335 330.036 443.685 328.779 444.169C325.404 445.41 321.824 445.785 318.351 446.303C314.216 447.029 310.042 447.515 305.851 447.758C301.905 447.91 298.013 448.276 292.897 448.151Z" fill="#EB8045"/>
</g>
<path d="M312.083 188.087C311.878 187.194 311.682 186.301 311.476 185.48C311.744 185.399 312.012 185.31 312.289 185.239C314.28 184.712 314.744 184.123 314.735 182.096C314.758 180.807 314.562 179.524 314.155 178.301C313.429 176.138 312.853 173.928 312.432 171.686C311.885 169.031 311.164 166.415 310.271 163.856C310.119 163.427 309.708 162.963 310.11 162.481C310.816 162.606 311.173 163.186 311.619 163.624C314.411 166.284 317.294 168.838 320.27 171.284C325.792 175.924 331.817 179.928 338.233 183.221C339.294 183.813 340.434 184.251 341.617 184.524C342.032 184.644 342.472 184.64 342.885 184.514C343.297 184.387 343.664 184.144 343.94 183.812C344.217 183.481 344.391 183.077 344.441 182.648C344.491 182.22 344.416 181.786 344.224 181.4C343.936 180.762 343.57 180.162 343.135 179.614C341.932 178.015 340.531 176.575 338.966 175.328C333.68 171.079 328.484 166.731 323.592 162.035C320.87 159.638 318.272 157.105 315.806 154.446L315.967 154.276C316.919 154.539 317.823 154.952 318.645 155.499C324.618 158.437 330.725 160.999 337.305 162.276C338.965 162.697 340.673 162.899 342.385 162.874C342.927 162.885 343.46 162.727 343.908 162.421C344.356 162.115 344.697 161.678 344.885 161.169C345.039 160.689 345.054 160.176 344.929 159.688C344.804 159.2 344.545 158.757 344.18 158.41C343.388 157.581 342.45 156.906 341.412 156.419C338.932 155.156 336.352 154.098 333.698 153.258C326.099 150.707 319.029 146.792 312.833 141.706C312.414 141.366 311.789 141.179 311.717 140.42C314.068 138.581 316.187 136.465 318.029 134.117C322.689 127.931 325.122 120.353 324.934 112.612C324.746 104.87 321.948 97.4194 316.994 91.4676C310.137 83.2627 301.263 78.8434 290.585 79.0844C278.746 79.3433 269.586 84.8162 263.283 94.9049C262.22 96.5923 262.22 96.628 260.551 95.5655C256.574 93.0188 252.394 90.806 248.052 88.9499C233.401 82.7003 218.286 80.7897 202.608 84.0038C190.899 86.4714 179.879 91.4922 170.333 98.7082C169.78 99.11 169.333 99.7171 168.548 99.7706C168.399 99.6147 168.27 99.4407 168.164 99.2528C164.066 89.6998 157.53 81.9057 150.308 74.6383C140.88 65.1299 129.273 61.0855 116.078 60.8534C115.149 60.8126 114.219 60.8665 113.301 61.0141C94.1147 64.5853 80.928 75.7632 72.6785 93.155C70.7054 97.3154 70.0001 101.86 69.6876 106.449C69.3086 111.081 69.7622 115.744 71.0268 120.216C72.7207 125.982 75.2794 131.457 78.6157 136.456C86.3027 148.062 96.5788 155.848 110.712 157.785C112.212 157.99 112.247 158.106 111.444 159.57C107.48 166.713 103.614 173.855 99.4447 180.828C91.3568 194.293 82.5901 207.339 73.1785 219.915C71.4895 222.043 70.0319 224.344 68.8305 226.781C68.4052 227.529 68.1835 228.375 68.1877 229.236C68.1903 229.614 68.2855 229.986 68.465 230.318C68.6445 230.651 68.9028 230.935 69.2174 231.144C69.5319 231.354 69.8931 231.483 70.2693 231.521C70.6454 231.559 71.0251 231.504 71.375 231.361C72.1137 231.08 72.7748 230.627 73.3035 230.039C74.3391 228.959 75.4016 227.888 76.3569 226.736C84.3028 217.103 92.4273 207.639 100.248 197.863C105.364 191.435 110.444 184.998 114.408 177.757C117.738 171.686 121.247 165.713 124.175 159.428C124.497 158.731 124.925 157.981 125.711 158.338C126.497 158.696 125.845 159.463 125.631 159.972C123.46 165.176 121.026 170.266 118.336 175.221C114.212 182.703 110.12 190.208 106.06 197.738C105.16 199.28 104.475 200.938 104.025 202.666C103.65 204.282 104.025 205.684 105.087 206.291C106.391 207.05 107.551 206.559 108.658 205.773C110.194 204.601 111.535 203.194 112.631 201.604C115.372 197.943 117.89 194.131 120.274 190.229C121.086 188.917 121.917 187.622 122.997 185.917C122.997 187.167 123.068 187.917 122.997 188.658C122.631 191.926 122.675 195.211 122.577 198.479C122.47 202.395 122.283 206.315 122.015 210.237C121.868 211.652 121.928 213.08 122.193 214.478C120.672 219.563 120.554 224.965 121.854 230.111C121.912 230.611 122.161 231.07 122.548 231.392C122.935 231.715 123.432 231.876 123.934 231.843C123.934 236.414 123.934 240.976 123.872 245.547C123.902 248.681 124.108 251.811 124.488 254.922C124.836 258.672 125.506 262.386 126.059 266.109C126.865 271.603 128.083 277.028 129.702 282.34C132.108 289.881 135.342 297.133 139.344 303.963C143.808 311.784 148.665 319.311 154.727 326.016C155.539 326.908 156.772 327.623 156.852 329.069C156.281 329.131 155.709 329.167 155.147 329.247C153.824 329.363 152.558 329.841 151.489 330.628C150.42 331.416 149.588 332.483 149.085 333.712C148.692 334.604 148.245 335.497 147.826 336.39C146.424 339.434 145.415 342.64 143.621 345.514C142.129 348.069 139.763 349.997 136.96 350.943C129.925 353.282 122.899 355.674 115.81 357.844C108.721 360.013 101.668 361.862 94.7218 364.236C86.8294 366.915 79.0799 370.057 71.3572 373.236C67.4554 374.83 63.6978 376.757 60.1257 378.994C55.0546 382.182 51.4209 386.824 48.2782 391.761C44.8216 397.436 41.8871 403.413 39.5109 409.618C35.9397 418.358 32.3685 427.063 31.565 436.598C31.1945 440.506 31.1945 444.44 31.565 448.347C31.8507 451.124 32.8417 453.758 33.2613 456.499C33.6747 458.888 34.4801 461.193 35.6451 463.32C38.3235 468.435 41.4394 473.14 46.0552 476.756C57.4473 485.684 70.0537 492.434 83.3207 498.023C87.3294 499.71 91.4631 501.103 95.5342 502.63C100.399 504.497 105.461 505.803 110.623 506.522C117.613 507.415 124.515 508.915 131.541 509.718C138.13 510.477 144.683 511.451 151.317 511.727C154.379 511.861 157.432 512.2 160.495 512.37C163.843 512.558 167.199 512.558 170.556 512.37C176.467 512.111 182.368 511.584 188.296 511.674C193.789 511.729 199.28 511.466 204.742 510.888C207.635 510.46 210.557 510.254 213.482 510.272C213.438 511.62 213.482 512.95 213.357 514.325C212.957 518.867 212.829 523.428 212.973 527.985C212.688 531.137 214.125 533.494 216.545 535.333C218.764 537.009 221.204 538.373 223.794 539.386C232.535 542.895 241.722 544.439 251.034 544.948C257.999 545.443 264.998 545.212 271.916 544.261C276.579 543.71 281.141 542.508 285.469 540.69C289.174 538.984 292.299 536.565 293.147 532.19C293.29 530.637 293.459 529.074 293.584 527.512C294.076 521.548 294.477 515.575 295.093 509.656C295.263 507.87 295.093 506.085 295.754 504.397C296.252 504.347 296.732 504.182 297.156 503.915C301.248 502.052 305.244 499.984 309.128 497.719C320.735 490.889 331.038 482.542 339.296 471.828C345.461 464.024 349.997 455.062 352.634 445.472C353.925 440.636 354.369 435.613 353.947 430.625C353.396 425.085 352.096 419.646 350.081 414.457C348.485 409.774 345.798 405.539 342.242 402.1C339.04 399.155 335.688 396.378 332.198 393.779C331.37 392.982 330.353 392.408 329.243 392.11C329.18 390.815 329.109 389.521 329.038 388.217C328.9 384.741 328.578 381.275 328.073 377.834C327.306 373.414 325.743 369.2 324.449 364.915C324.123 364.203 324.008 363.413 324.118 362.638C324.633 361.956 325.042 361.201 325.332 360.397C327.261 356.344 329.297 352.362 331.046 348.202C332.693 344.396 333.573 340.304 333.636 336.158C333.661 334.728 333.413 333.307 332.904 331.971C332.445 330.603 331.528 329.437 330.307 328.669C329.087 327.901 327.638 327.579 326.207 327.757C324.139 327.943 322.143 328.609 320.377 329.703C317.816 331.264 315.464 333.145 313.378 335.301C311.485 337.247 309.637 339.22 307.762 341.184C305.316 340.425 303.048 339.193 300.522 338.631C295.37 337.497 290.174 337.631 284.969 337.988C285.142 337.439 285.478 336.956 285.933 336.604C288.165 334.399 290.353 332.14 292.424 329.792C298.339 323.186 303.052 315.596 306.352 307.365C312.405 291.866 317.065 275.992 318.601 259.305C319.119 253.77 319.395 248.235 319.654 242.699C319.997 236.145 319.767 229.572 318.967 223.058C318.45 217.891 317.672 212.754 316.637 207.666C316.824 207.568 317.003 207.451 317.199 207.371C319.565 206.309 319.806 205.773 319.092 203.255C318.851 202.434 318.681 201.595 318.467 200.773C317.699 197.818 316.994 194.845 316.137 191.917C315.556 189.89 314.458 188.229 312.083 188.087ZM371.106 347.898C371.226 347.891 371.343 347.861 371.451 347.808C371.559 347.755 371.654 347.681 371.733 347.59C371.811 347.499 371.87 347.393 371.907 347.279C371.944 347.165 371.957 347.044 371.946 346.925C371.928 346.748 371.841 346.585 371.704 346.472C371.567 346.358 371.391 346.303 371.214 346.318C371.109 346.302 371.003 346.31 370.902 346.339C370.801 346.369 370.707 346.421 370.628 346.491C370.549 346.56 370.486 346.647 370.444 346.743C370.401 346.84 370.381 346.945 370.383 347.05C370.355 347.157 370.352 347.27 370.375 347.378C370.399 347.487 370.448 347.588 370.519 347.674C370.59 347.76 370.68 347.827 370.782 347.871C370.885 347.914 370.996 347.933 371.106 347.925V347.898Z" fill="white"/>
<path d="M213.509 510.37C210.584 510.352 207.662 510.558 204.768 510.986C199.306 511.565 193.815 511.827 188.323 511.772C182.395 511.683 176.493 512.209 170.583 512.468C167.226 512.611 163.869 512.611 160.521 512.468C157.459 512.299 154.405 511.959 151.343 511.825C144.709 511.549 138.156 510.576 131.567 509.817C124.541 509.013 117.64 507.549 110.649 506.62C105.488 505.902 100.425 504.596 95.5606 502.728C91.4894 501.201 87.3558 499.808 83.3471 498.121C70.08 492.532 57.4558 485.747 46.0815 476.854C41.4658 473.283 38.332 468.533 35.6715 463.418C34.5065 461.291 33.701 458.986 33.2877 456.597C32.8681 453.856 31.8771 451.24 31.5914 448.445C31.2209 444.538 31.2209 440.604 31.5914 436.696C32.4306 427.161 35.9929 418.456 39.5373 409.716C41.9135 403.511 44.848 397.534 48.3046 391.86C51.4473 386.922 55.081 382.28 60.1521 379.093C63.7242 376.855 67.4818 374.929 71.3835 373.334C79.1063 370.156 86.8558 367.04 94.7481 364.335C101.694 361.96 108.81 360.085 115.836 357.942C122.863 355.799 129.951 353.38 136.987 351.041C139.789 350.095 142.155 348.167 143.647 345.613C145.433 342.747 146.45 339.533 147.852 336.488C148.272 335.595 148.745 334.702 149.111 333.81C149.614 332.581 150.446 331.514 151.515 330.727C152.585 329.939 153.85 329.461 155.173 329.346C155.735 329.265 156.307 329.23 156.878 329.167C158.199 328.912 159.542 328.787 160.887 328.792C166.503 328.792 172.118 328.792 177.743 329.176C180.645 329.372 183.537 329.89 186.457 329.685C186.599 329.663 186.743 329.663 186.885 329.685C189.457 330.211 192.082 330.433 194.706 330.346C199.545 330.453 204.349 330.935 209.143 331.408C210.607 331.551 212.098 331.747 213.607 331.944C217.031 332.542 220.412 333.359 223.731 334.39C226.874 335.229 229.811 336.452 231.766 339.247C231.865 339.381 232.159 339.372 232.356 339.434C232.168 340.693 231.981 341.952 231.802 343.211C231.284 346.72 230.749 350.219 230.258 353.728C229.9 356.326 229.615 358.933 229.258 361.531C228.901 364.129 228.49 366.718 228.115 369.307C227.74 371.897 227.383 374.664 226.99 377.343C226.526 380.566 225.972 383.789 225.57 387.021C225.178 390.11 225.053 393.27 224.606 396.333C223.99 400.609 223.437 404.895 222.892 409.18C222.651 411.019 222.705 412.867 222.401 414.698C221.981 417.278 221.669 419.885 221.321 422.483C220.812 426.206 220.794 429.982 220.428 433.732C220.08 437.625 219.348 441.455 218.946 445.338C218.499 449.57 217.901 453.784 217.785 458.043C217.823 458.755 217.802 459.468 217.723 460.177C217.107 463.337 217.214 466.551 217.026 469.73C216.857 472.569 216.482 475.39 216.41 478.238C216.367 479.735 216.221 481.226 215.973 482.702C215.6 485.157 215.364 487.631 215.268 490.113C215.116 492.523 214.83 494.925 214.669 497.335C214.641 498.967 214.51 500.595 214.277 502.21C213.714 504.844 214.026 507.638 213.509 510.37Z" fill="#EDA967"/>
<path d="M315.806 154.401C318.271 157.06 320.87 159.593 323.591 161.99C328.484 166.686 333.68 171.034 338.965 175.284C340.53 176.531 341.931 177.971 343.135 179.569C343.57 180.117 343.936 180.717 344.224 181.355C344.416 181.741 344.491 182.175 344.44 182.604C344.39 183.032 344.216 183.437 343.94 183.768C343.663 184.099 343.297 184.343 342.884 184.469C342.472 184.596 342.031 184.599 341.617 184.48C340.433 184.207 339.294 183.768 338.233 183.176C331.818 179.892 325.793 175.897 320.27 171.266C317.294 168.814 314.41 166.261 311.619 163.606C311.172 163.169 310.815 162.588 310.11 162.463C309.708 162.981 310.11 163.41 310.27 163.838C311.163 166.397 311.885 169.013 312.431 171.668C312.853 173.91 313.429 176.121 314.154 178.284C314.562 179.506 314.758 180.79 314.734 182.078C314.734 184.105 314.279 184.694 312.288 185.221C312.011 185.292 311.744 185.381 311.476 185.462C308.556 185.542 305.646 185.346 302.735 185.274C296.111 185.105 289.522 184.524 282.942 183.855C280.005 183.56 277.344 182.667 275.558 180.132C274.549 178.483 273.836 176.67 273.451 174.775C273.254 173.457 272.825 172.184 272.184 171.016C270.987 173.614 269.961 176.034 268.791 178.373C266.666 182.605 263.872 186.247 259.336 188.122C256.161 189.399 252.837 190.269 249.444 190.711C246.56 191.113 243.659 191.408 240.757 191.649C235.73 192.077 230.731 192.845 225.704 193.176C220.348 193.524 214.991 193.122 209.634 193.693C207.705 193.899 206.759 192.881 206.616 190.926C206.557 190.286 206.578 189.641 206.679 189.006C207.214 186.122 207.063 183.194 207.348 180.292C207.705 176.677 207.589 173.034 207.714 169.4C207.884 164.347 208.259 159.294 208.277 154.223C208.277 150.723 208.911 147.259 208.759 143.759C208.787 143.404 208.841 143.052 208.92 142.706C209.348 139.134 209.018 135.563 209.143 131.992C208.967 131.964 208.786 132 208.634 132.093C208.482 132.187 208.368 132.331 208.313 132.501C203.768 140.491 199.277 148.509 194.456 156.348C189.823 163.883 185.109 171.347 179.279 178.016C178.672 178.712 178.261 179.569 177.395 180.034C177.158 180.197 176.89 180.309 176.607 180.362C176.325 180.415 176.034 180.409 175.754 180.343C175.474 180.278 175.211 180.154 174.982 179.981C174.752 179.808 174.561 179.589 174.422 179.337C174.186 178.932 174.057 178.474 174.048 178.005C174.039 177.536 174.149 177.073 174.368 176.659C176.556 170.025 177.939 163.186 179.475 156.383C179.752 155.133 180.323 153.839 179.841 152.312C179.288 152.788 178.874 153.405 178.645 154.098C175.672 159.713 172.672 165.302 169.717 170.945C163.994 182.025 157.003 192.372 151.664 203.702C150.969 205.122 149.819 206.269 148.397 206.96C146.204 208.157 143.854 209.038 141.415 209.576C140.348 209.651 139.32 210.005 138.433 210.603C136.754 210.907 135.103 211.853 133.362 210.862C132.852 209.39 132.78 207.802 133.156 206.291C133.264 205.53 133.264 204.757 133.156 203.996C131.692 206.195 130.569 208.603 129.826 211.139C129.398 211.597 129.05 212.126 128.8 212.701C127.425 214.933 125.844 215.549 123.282 214.835C122.88 214.728 122.488 214.594 122.086 214.46C121.821 213.063 121.761 211.634 121.907 210.219C122.175 206.297 122.363 202.377 122.47 198.461C122.568 195.175 122.523 191.89 122.889 188.64C122.97 187.899 122.889 187.149 122.889 185.899C121.809 187.605 120.979 188.899 120.166 190.212C117.782 194.113 115.265 197.925 112.524 201.586C111.427 203.176 110.086 204.583 108.551 205.755C107.444 206.541 106.283 207.032 104.98 206.273C103.917 205.666 103.542 204.264 103.917 202.648C104.367 200.92 105.052 199.262 105.953 197.72C110.024 190.185 114.116 182.658 118.229 175.141C120.918 170.185 123.353 165.096 125.523 159.892C125.737 159.383 126.416 158.642 125.603 158.258C124.791 157.874 124.389 158.651 124.068 159.347C121.139 165.597 117.631 171.606 114.301 177.677C110.336 184.917 105.256 191.354 100.141 197.782C92.3554 207.603 84.1952 217.022 76.2493 226.656C75.294 227.807 74.2316 228.879 73.1959 229.959C72.6672 230.546 72.0061 230.999 71.2674 231.28C70.9175 231.423 70.5378 231.479 70.1617 231.441C69.7855 231.403 69.4244 231.274 69.1098 231.064C68.7952 230.854 68.5369 230.571 68.3574 230.238C68.1779 229.905 68.0827 229.534 68.0801 229.156C68.076 228.295 68.2976 227.448 68.723 226.7C69.9243 224.264 71.3819 221.962 73.0709 219.835C82.4825 207.259 91.2492 194.213 99.3371 180.748C103.507 173.757 107.372 166.597 111.336 159.49C112.14 158.044 112.104 157.928 110.604 157.705C96.5784 155.803 86.3022 148.053 78.6152 136.447C75.279 131.448 72.7203 125.973 71.0264 120.207C69.7617 115.735 69.3082 111.072 69.6872 106.44C69.9997 101.851 70.705 97.3066 72.6781 93.1461C80.9275 75.799 94.1053 64.5764 113.301 61.0499C114.218 60.9022 115.149 60.8484 116.077 60.8892C129.237 61.1213 140.861 65.1657 150.325 74.6294C157.584 81.8968 164.119 89.691 168.181 99.2439C168.287 99.4319 168.416 99.6058 168.565 99.7618C169.36 99.7082 169.806 99.1011 170.351 98.6993C179.896 91.4833 190.916 86.4625 202.625 83.9949C218.303 80.7808 233.418 82.7092 248.069 88.941C252.411 90.7971 256.592 93.0099 260.568 95.5567C262.238 96.6191 262.238 96.5834 263.3 94.896C269.603 84.8073 278.764 79.3345 290.602 79.0755C301.316 78.8345 310.154 83.2539 317.011 91.4587C321.965 97.4105 324.763 104.861 324.951 112.603C325.139 120.345 322.706 127.923 318.047 134.108C316.205 136.456 314.085 138.572 311.735 140.411C311.806 141.17 312.431 141.357 312.851 141.697C319.051 146.772 326.125 150.674 333.724 153.214C336.378 154.054 338.958 155.111 341.438 156.374C342.476 156.861 343.414 157.536 344.206 158.365C344.571 158.712 344.831 159.155 344.956 159.643C345.08 160.131 345.065 160.644 344.911 161.124C344.724 161.633 344.382 162.071 343.934 162.376C343.486 162.682 342.954 162.84 342.411 162.829C340.699 162.854 338.991 162.653 337.331 162.231C330.751 160.954 324.645 158.392 318.672 155.455C317.85 154.908 316.945 154.495 315.993 154.232C315.922 154.062 315.77 153.901 315.618 154.062C315.467 154.223 315.663 154.303 315.806 154.401Z" fill="#EB8046"/>
<path d="M213.509 510.37C214.026 507.638 213.714 504.844 214.25 502.112C214.483 500.497 214.614 498.869 214.642 497.237C214.803 494.827 215.089 492.425 215.241 490.014C215.338 487.533 215.573 485.059 215.946 482.604C216.194 481.128 216.34 479.636 216.383 478.14C216.455 475.292 216.83 472.471 216.999 469.632C217.187 466.453 217.08 463.239 217.696 460.079C217.775 459.37 217.796 458.657 217.758 457.945C217.874 453.686 218.473 449.472 218.919 445.24C219.321 441.357 220.053 437.526 220.401 433.634C220.731 429.884 220.749 426.108 221.294 422.385C221.642 419.787 221.955 417.18 222.374 414.599C222.678 412.769 222.624 410.921 222.865 409.082C223.41 404.796 223.963 400.511 224.579 396.234C225.026 393.145 225.151 389.985 225.544 386.922C225.945 383.691 226.499 380.468 226.963 377.245C227.356 374.566 227.713 371.888 228.088 369.209C228.463 366.531 228.874 364.031 229.231 361.433C229.588 358.835 229.874 356.228 230.231 353.63C230.722 350.121 231.258 346.621 231.775 343.113C231.954 341.854 232.141 340.595 232.329 339.336L232.784 335.327C233.171 332.024 233.558 328.721 233.945 325.417C234.266 322.739 234.695 320.061 234.9 317.382C235.23 313.213 235.793 309.079 236.454 304.963C236.971 301.892 237.471 298.821 237.98 295.75C238.122 295.426 238.247 295.095 238.355 294.759C239.511 289.687 240.926 284.677 242.596 279.751C243.805 276.236 245.688 272.991 248.14 270.198C251.471 266.519 255.854 266.162 260.354 266.457C263.497 266.662 264.996 269.269 266.737 271.394C267.918 272.827 268.826 274.464 269.416 276.224C269.588 276.61 269.797 276.978 270.041 277.322C270.045 277.821 270.152 278.313 270.353 278.768C271.701 283.036 273.371 287.232 274.299 291.589C275.71 298.249 277.299 304.874 278.603 311.552C279.519 316.505 280.115 321.512 280.388 326.542C280.522 328.587 280.504 330.676 280.835 332.694C281.138 334.479 280.96 336.372 281.326 338.274L284.897 337.872C290.102 337.515 295.298 337.381 300.45 338.515C302.976 339.077 305.244 340.3 307.69 341.068C309.109 342.001 310.472 343.018 311.77 344.113C316.406 348.547 320.011 353.944 322.332 359.924C322.716 360.879 322.957 361.995 324.046 362.522C323.936 363.297 324.051 364.087 324.377 364.799C325.671 369.084 327.234 373.298 328.002 377.718C328.532 381.197 328.881 384.701 329.046 388.217C328.555 388.342 328.278 387.958 327.903 387.78C326.877 387.28 326.225 387.414 325.787 388.369C325.096 389.623 324.857 391.075 325.109 392.485C325.528 394.27 325.912 394.574 327.885 394.708C327.987 395.385 327.883 396.077 327.589 396.696C327.295 397.315 326.823 397.832 326.234 398.181C323.948 398.011 322.734 396.842 322.788 394.511C322.848 391.029 322.549 387.549 321.895 384.128C321.245 380.271 320.226 376.486 318.85 372.825C317.232 368.402 314.857 364.294 311.833 360.683C310.208 358.809 308.351 357.15 306.306 355.746C301.164 352.273 295.209 351.05 289.147 350.675C285.311 350.304 281.445 350.421 277.639 351.023C275.048 351.47 272.501 352.136 270.023 353.014C268.568 353.55 267.648 354.755 268.05 355.433C268.764 356.657 269.889 356.076 270.925 355.969C273.603 355.701 276.228 355.076 278.96 354.826C280.87 354.639 282.808 354.683 284.683 354.344C290.04 353.398 295.004 354.425 299.914 356.308C302.713 357.361 305.274 358.961 307.449 361.013C308.977 362.388 310.362 363.913 311.583 365.567C314.954 370.351 317.256 375.804 318.332 381.557C319.279 386.512 320.073 391.494 319.725 396.574C317.797 395.85 316.788 396.368 316.44 398.359C316.319 398.981 316.319 399.621 316.44 400.243C316.788 401.814 317.806 402.234 319.368 401.538C319.368 403.198 319.109 404.787 317.27 405.502C314.636 404.118 314.422 401.493 314.279 399.065C314.007 393.96 313.015 388.919 311.333 384.092C309.994 380.41 308.051 376.976 305.583 373.932C302.708 370.272 298.602 368.674 294.343 367.406C292.373 366.796 290.325 366.472 288.263 366.442C282.835 366.442 277.549 367.334 272.237 368.343C270.005 368.763 267.648 369.406 265.943 371.245C265.3 371.95 264.613 372.593 265.148 373.655C265.388 374.185 265.811 374.609 266.34 374.848C266.869 375.088 267.467 375.128 268.023 374.959C268.91 374.697 269.771 374.354 270.594 373.932C274.335 372.181 278.366 371.134 282.486 370.843C287.539 370.355 292.62 371.433 297.039 373.932C298.897 374.848 300.563 376.108 301.95 377.646C303.859 380.041 305.314 382.764 306.244 385.682C308.03 391.172 309.342 396.761 309.056 402.645C309.003 403.707 309.056 404.779 309.056 405.85C308.967 406.537 309.351 407.457 308.163 407.635C307.806 406.957 307.547 406.073 306.503 406.368C306.083 406.471 305.714 406.724 305.466 407.078C305.218 407.433 305.108 407.866 305.155 408.296C305.12 409.146 305.153 409.996 305.253 410.841C305.264 411.038 305.325 411.23 305.43 411.398C305.534 411.566 305.68 411.705 305.852 411.802C306.025 411.899 306.219 411.951 306.417 411.953C306.615 411.955 306.81 411.907 306.985 411.814C307.415 411.564 307.813 411.265 308.172 410.921C308.262 413.555 307.28 415.546 304.753 416.608C303.448 415.287 302.488 413.665 301.958 411.885C301.494 410.028 300.985 408.18 300.468 406.332C299.407 402.179 297.673 398.228 295.334 394.636C294.088 392.768 292.448 391.196 290.529 390.029C288.611 388.863 286.459 388.132 284.227 387.887C283.133 387.69 282.006 387.767 280.948 388.111C279.891 388.456 278.935 389.056 278.165 389.86C276.902 391.12 275.904 392.619 275.228 394.27C273.389 399.494 272.242 404.935 271.817 410.457C271.487 413.626 271.282 416.813 270.925 419.983C270.791 421.108 270.585 422.233 270.407 423.34C270.094 425.331 270.184 427.313 269.978 429.286C269.518 432.373 269.261 435.486 269.211 438.607C269.151 440.665 268.951 442.718 268.612 444.749C268.443 446.24 268.505 447.74 268.246 449.213C267.855 451.577 267.605 453.962 267.496 456.356C267.371 458.347 267.166 460.329 266.916 462.284C266.586 464.819 266.434 467.373 266.273 469.908C266.086 472.667 265.827 475.435 265.666 478.194C265.452 481.872 264.898 485.532 264.898 489.229C264.922 489.526 264.922 489.824 264.898 490.121C264.416 493.282 264.273 496.469 264.086 499.648C263.952 501.987 263.756 504.326 263.586 506.665C263.3 510.477 262.809 514.281 262.818 518.129C259.988 517.852 257.167 517.397 254.336 517.343C247.364 517.218 240.391 516.968 233.445 518.084C229.133 518.652 224.9 519.712 220.83 521.245C217.428 522.628 214.58 524.601 213 528.048C212.855 523.491 212.984 518.929 213.384 514.388C213.482 513.075 213.464 511.718 213.509 510.37ZM253.81 277.51C253.902 276.224 253.744 274.932 253.345 273.706C253.197 273.188 252.863 272.743 252.406 272.456C251.95 272.17 251.404 272.062 250.872 272.153C249.274 272.153 248.435 273.287 247.649 274.34C245.564 277.333 244.287 280.815 243.944 284.447C243.797 285.722 243.797 287.01 243.944 288.286C244.203 290.964 246.319 291.928 248.551 290.527C249.339 290.044 250.013 289.395 250.524 288.625C252.595 285.281 253.73 281.442 253.81 277.51Z" fill="#EB8045"/>
<path d="M237.945 295.839C237.436 298.91 236.936 301.981 236.418 305.052C235.731 309.168 235.195 313.302 234.865 317.471C234.659 320.15 234.231 322.828 233.909 325.507C233.517 328.81 233.13 332.113 232.749 335.417L232.294 339.425C232.097 339.363 231.802 339.372 231.704 339.238C229.731 336.443 226.794 335.22 223.669 334.381C220.35 333.35 216.968 332.533 213.545 331.935C212.08 331.738 210.59 331.542 209.081 331.399C204.286 330.926 199.483 330.444 194.644 330.337C192.02 330.424 189.395 330.202 186.823 329.676C186.681 329.654 186.537 329.654 186.395 329.676C183.475 329.881 180.582 329.363 177.681 329.167C172.056 328.801 166.44 328.828 160.825 328.783C159.479 328.778 158.137 328.903 156.816 329.158C156.736 327.712 155.504 326.998 154.691 326.105C148.629 319.4 143.79 311.874 139.308 304.053C135.306 297.222 132.073 289.97 129.666 282.429C128.047 277.117 126.829 271.692 126.023 266.198C125.47 262.475 124.8 258.761 124.452 255.011C124.072 251.9 123.866 248.77 123.836 245.637C123.907 241.065 123.881 236.503 123.898 231.932C125.863 231.432 127.871 231.7 129.862 231.584C133.488 231.283 137.126 231.17 140.763 231.245C141.308 231.245 141.951 231.066 142.308 231.691C143.585 233.914 145.808 234.2 148.022 234.45C149.808 234.646 149.808 234.602 149.897 236.387C150.299 244.083 150.432 251.779 150.522 259.484C150.566 263.18 150.843 266.894 151.236 270.572C151.62 274.144 153.227 275.403 156.807 275.385C161.084 275.385 165.369 275.26 169.646 275.144C170.784 275.165 171.921 275.042 173.029 274.778C178.824 275.036 184.591 274.51 190.368 274.278C193.787 274.045 197.197 273.76 200.608 273.599C202.885 273.492 205.134 273.001 207.42 273.108C207.5 275.661 207.527 278.206 207.786 280.759C208.03 283.512 208.493 286.24 209.17 288.92C209.812 291.64 211.277 294.097 213.366 295.955C215.598 297.865 218.357 298.401 220.669 295.678C221.389 294.796 222.043 293.862 222.624 292.884C223.982 290.714 225.24 288.473 226.758 286.42C228.544 284.036 230.633 284.42 231.695 286.795C231.901 287.25 232.124 287.688 232.347 288.143C233.106 289.67 233.838 291.214 234.633 292.723C235.3 294.145 236.484 295.26 237.945 295.839Z" fill="#FBC998"/>
<path d="M326.234 398.154C326.824 397.805 327.295 397.288 327.59 396.669C327.884 396.051 327.987 395.358 327.886 394.681C328.216 394.556 328.19 394.413 327.886 394.252C328.332 393.529 328.511 392.627 329.225 392.056C330.335 392.354 331.352 392.929 332.18 393.726C335.67 396.324 339.022 399.101 342.224 402.046C345.78 405.485 348.467 409.721 350.063 414.403C352.078 419.593 353.378 425.032 353.929 430.572C354.352 435.559 353.908 440.583 352.617 445.419C349.979 455.008 345.443 463.97 339.278 471.774C331.02 482.488 320.726 490.88 309.11 497.666C305.221 499.955 301.22 502.047 297.12 503.933C296.696 504.2 296.217 504.365 295.718 504.415C295.522 499.487 296.495 494.639 296.709 489.738C296.738 488.037 296.878 486.34 297.129 484.657C297.593 482.131 297.584 479.568 297.808 477.033C298.013 474.703 298.236 472.355 298.432 470.024C298.584 468.239 298.62 466.453 298.799 464.668C299.191 460.721 299.691 456.775 299.986 452.82C300.343 448.722 300.522 444.597 300.932 440.508C301.441 435.562 301.664 430.598 302.236 425.67C302.504 423.34 302.522 421.001 302.852 418.67C302.889 418.158 303.093 417.672 303.431 417.286C303.769 416.899 304.224 416.633 304.727 416.528C307.262 415.465 308.235 413.474 308.146 410.841C308.146 409.742 308.146 408.644 308.146 407.546C309.316 407.403 308.932 406.484 309.039 405.761C310.758 406.539 312.653 406.847 314.53 406.653C315.05 406.685 315.569 406.582 316.038 406.355C316.507 406.129 316.91 405.786 317.208 405.359C319.047 404.645 319.262 403.055 319.306 401.395C319.315 401.33 319.34 401.268 319.379 401.214C319.418 401.161 319.47 401.119 319.529 401.091C320.812 401.312 322.131 401.152 323.323 400.629C324.515 400.107 325.527 399.246 326.234 398.154Z" fill="#EDA967"/>
<path d="M304.762 416.572C304.259 416.678 303.805 416.944 303.466 417.33C303.128 417.717 302.925 418.203 302.887 418.715C302.557 421.045 302.539 423.384 302.271 425.715C301.7 430.643 301.477 435.607 300.968 440.553C300.557 444.642 300.379 448.767 300.021 452.865C299.682 456.82 299.227 460.766 298.834 464.712C298.655 466.498 298.62 468.283 298.468 470.069C298.272 472.399 298.048 474.747 297.843 477.078C297.62 479.613 297.629 482.175 297.164 484.702C296.914 486.384 296.774 488.081 296.745 489.782C296.531 494.684 295.557 499.532 295.754 504.46C295.075 506.147 295.263 507.969 295.093 509.718C294.495 515.673 294.075 521.646 293.584 527.574C293.459 529.137 293.29 530.699 293.147 532.253C293.005 532.269 292.862 532.242 292.736 532.175C292.61 532.108 292.507 532.004 292.442 531.878C291.013 528.369 288.254 526.244 285.004 524.584C281.283 522.781 277.396 521.343 273.398 520.289C269.907 519.28 266.256 518.914 262.756 518.129C262.756 514.281 263.238 510.477 263.524 506.665C263.693 504.326 263.89 501.987 264.024 499.648C264.211 496.469 264.354 493.282 264.836 490.121C264.86 489.824 264.86 489.526 264.836 489.229C264.836 485.532 265.39 481.872 265.604 478.194C265.765 475.435 266.024 472.667 266.211 469.908C266.372 467.373 266.523 464.819 266.854 462.284C267.104 460.329 267.309 458.347 267.434 456.356C267.543 453.962 267.793 451.577 268.184 449.213C268.443 447.749 268.381 446.249 268.55 444.749C268.889 442.718 269.089 440.665 269.148 438.607C269.22 435.485 269.497 432.371 269.979 429.286C270.184 427.313 270.095 425.331 270.407 423.34C270.586 422.233 270.791 421.108 270.925 419.983C271.291 416.813 271.496 413.626 271.818 410.457C272.243 404.935 273.389 399.494 275.228 394.27C275.904 392.619 276.903 391.12 278.166 389.86C278.935 389.056 279.891 388.456 280.949 388.111C282.006 387.767 283.133 387.69 284.228 387.887C286.46 388.132 288.611 388.863 290.53 390.029C292.449 391.195 294.089 392.768 295.334 394.636C297.67 398.217 299.404 402.156 300.468 406.296C300.986 408.144 301.495 409.992 301.959 411.849C302.491 413.63 303.454 415.253 304.762 416.572Z" fill="#DA6F34"/>
<path d="M284.969 337.961L281.398 338.363C281.032 336.461 281.211 334.604 280.907 332.783C280.577 330.765 280.595 328.676 280.461 326.632C280.188 321.602 279.591 316.595 278.675 311.641C277.372 304.963 275.783 298.339 274.372 291.678C273.479 287.322 271.774 283.125 270.426 278.858C270.224 278.402 270.118 277.91 270.113 277.411C270.123 272.334 269.536 267.272 268.363 262.332C269.426 262.278 270.417 261.859 271.506 261.886C274.184 261.957 276.863 261.287 279.541 261.412C279.782 261.412 280.041 261.216 280.3 261.1C284.436 261.236 288.571 260.794 292.585 259.788C294.019 259.463 295.332 258.739 296.371 257.699C297.411 256.66 298.135 255.347 298.46 253.913C299.691 249.521 301.16 245.199 302.861 240.967C306.656 231.048 310.004 220.969 313.512 210.951C314.119 209.237 314.78 207.996 316.628 207.675C317.666 212.757 318.447 217.888 318.967 223.049C319.768 229.563 319.998 236.136 319.655 242.69C319.396 248.226 319.119 253.761 318.601 259.296C317.03 275.983 312.405 291.857 306.352 307.356C303.053 315.587 298.339 323.177 292.424 329.783C290.353 332.149 288.166 334.39 285.934 336.595C285.482 336.943 285.145 337.419 284.969 337.961Z" fill="#FBC998"/>
<path d="M138.496 210.648C139.383 210.05 140.411 209.696 141.478 209.621C143.917 209.083 146.268 208.202 148.46 207.005C149.882 206.314 151.032 205.167 151.727 203.746C157.084 192.452 164.057 182.069 169.78 170.989C172.699 165.347 175.699 159.758 178.708 154.142C178.938 153.45 179.351 152.833 179.904 152.357C180.386 153.883 179.815 155.178 179.538 156.428C178.012 163.231 176.619 170.07 174.431 176.703C174.212 177.118 174.102 177.581 174.111 178.05C174.121 178.518 174.249 178.977 174.485 179.382C174.625 179.633 174.815 179.853 175.045 180.026C175.274 180.199 175.537 180.322 175.817 180.388C176.097 180.454 176.388 180.46 176.67 180.407C176.953 180.353 177.221 180.241 177.458 180.078C178.351 179.614 178.735 178.757 179.342 178.06C185.19 171.391 189.904 163.927 194.519 156.392C199.341 148.553 203.831 140.536 208.376 132.545C208.431 132.376 208.545 132.231 208.697 132.138C208.849 132.045 209.03 132.009 209.206 132.037C209.081 135.608 209.411 139.179 208.983 142.75C208.904 143.097 208.85 143.449 208.822 143.804C208.974 147.303 208.349 150.768 208.34 154.267C208.34 159.321 207.947 164.374 207.778 169.445C207.653 173.079 207.778 176.721 207.411 180.337C207.126 183.239 207.278 186.167 206.742 189.051C206.641 189.686 206.62 190.33 206.679 190.97C206.822 192.926 207.769 193.943 209.697 193.738C215.054 193.167 220.411 193.568 225.768 193.22C230.794 192.89 235.794 192.122 240.82 191.694C243.722 191.453 246.623 191.158 249.507 190.756C252.9 190.313 256.224 189.444 259.399 188.167C263.935 186.292 266.729 182.649 268.854 178.418C270.024 176.078 271.05 173.659 272.247 171.061C272.888 172.229 273.318 173.502 273.515 174.82C273.899 176.715 274.612 178.527 275.622 180.176C277.407 182.712 280.086 183.605 283.005 183.899C289.585 184.569 296.174 185.149 302.798 185.319C305.709 185.39 308.62 185.587 311.539 185.506C311.744 186.399 311.941 187.292 312.146 188.113C306.789 189.194 301.316 189.676 295.888 190.408C295.156 190.229 294.513 190.667 293.817 190.694C289.942 190.854 286.139 191.586 282.309 192.104C280.96 192.292 279.496 192.149 278.237 192.899C277.671 192.884 277.105 192.905 276.541 192.961C267.173 194.414 257.81 195.887 248.454 197.381C237.347 199.166 226.238 200.973 215.125 202.8C211.902 203.336 208.635 203.693 205.456 204.479C205.028 204.456 204.599 204.456 204.171 204.479C201.349 204.764 198.528 205.05 195.716 205.371C193.127 205.684 190.538 206.059 187.948 206.416C180.306 207.353 172.69 208.487 165.039 209.38C156.165 210.398 147.326 210.335 138.496 210.648Z" fill="#FAC897"/>
<path d="M138.496 210.648C147.326 210.335 156.164 210.398 164.976 209.38C172.628 208.487 180.243 207.353 187.886 206.416C187.771 207.122 187.499 207.793 187.091 208.38C182.324 218.111 176.86 227.504 172.467 237.432C172.046 238.336 171.691 239.27 171.405 240.226C170.824 242.342 171.815 243.878 173.958 244.315C175.308 244.544 176.696 244.328 177.913 243.699C181.422 242.101 184.797 240.253 188.162 238.342C188.922 237.815 189.764 237.417 190.653 237.164C190.975 238.057 190.394 238.583 190.109 239.182C186.859 245.851 183.565 252.502 180.288 259.171C177.797 264.305 175.235 269.403 173.021 274.67C171.913 274.935 170.776 275.058 169.637 275.037C165.36 275.153 161.075 275.251 156.798 275.278C153.227 275.278 151.611 273.992 151.227 270.465C150.834 266.787 150.558 263.073 150.513 259.377C150.424 251.672 150.29 243.976 149.888 236.28C149.79 234.494 149.763 234.539 148.013 234.343C145.799 234.093 143.549 233.807 142.299 231.584C141.942 230.959 141.299 231.164 140.755 231.137C137.118 231.063 133.479 231.176 129.854 231.477C127.863 231.593 125.854 231.325 123.89 231.825C123.387 231.858 122.891 231.697 122.503 231.374C122.116 231.052 121.868 230.593 121.809 230.093C120.51 224.947 120.627 219.545 122.149 214.46C122.55 214.594 122.943 214.728 123.345 214.835C125.907 215.549 127.488 214.933 128.863 212.701C129.113 212.126 129.46 211.597 129.889 211.139C131.063 211.246 132.246 211.156 133.389 210.871C135.166 211.898 136.817 210.951 138.496 210.648Z" fill="#020101"/>
<path d="M295.825 190.381C301.254 189.649 306.709 189.167 312.083 188.087C314.458 188.265 315.556 189.872 316.137 191.899C317.03 194.827 317.699 197.8 318.467 200.755C318.681 201.577 318.851 202.416 319.092 203.237C319.806 205.755 319.565 206.291 317.199 207.353C317.003 207.434 316.824 207.55 316.637 207.648C314.789 207.969 314.128 209.21 313.521 210.924C310.012 220.942 306.664 231.021 302.87 240.94C301.168 245.172 299.699 249.494 298.468 253.886C298.144 255.32 297.42 256.633 296.38 257.672C295.34 258.712 294.028 259.436 292.594 259.761C288.579 260.767 284.445 261.209 280.309 261.073C284.032 252.44 288.058 243.94 292.138 235.468C296.218 226.995 300.397 218.567 304.504 210.112C305.044 209.026 305.487 207.893 305.825 206.728C306.584 204.05 304.798 202.202 302.057 202.827C300.884 203.144 299.761 203.622 298.718 204.246C295.593 205.952 292.469 207.657 289.317 209.335C288.281 209.889 287.192 210.353 286.13 210.862C286.254 209.847 286.556 208.861 287.022 207.951C289.629 201.934 292.942 196.265 295.825 190.381Z" fill="#030303"/>
<path d="M324.118 362.611C323.029 362.085 322.788 360.969 322.404 360.013C320.083 354.034 316.477 348.636 311.842 344.202C310.543 343.107 309.181 342.091 307.762 341.157C309.637 339.193 311.485 337.22 313.377 335.274C315.463 333.118 317.816 331.237 320.377 329.676C322.142 328.582 324.139 327.916 326.207 327.73C327.638 327.552 329.086 327.874 330.307 328.642C331.527 329.41 332.444 330.577 332.903 331.944C333.412 333.28 333.661 334.701 333.635 336.131C333.572 340.277 332.692 344.369 331.046 348.175C329.26 352.317 327.26 356.317 325.332 360.371C325.042 361.174 324.633 361.93 324.118 362.611Z" fill="#DA7036"/>
<path d="M329.261 392.083C328.547 392.654 328.368 393.556 327.922 394.279V394.708C325.949 394.574 325.565 394.261 325.145 392.485C324.893 391.075 325.133 389.623 325.824 388.369C326.261 387.413 326.913 387.28 327.94 387.78C328.315 387.958 328.592 388.342 329.083 388.217C329.109 389.494 329.181 390.788 329.261 392.083Z" fill="#FAC897"/>
<path d="M371.106 347.925C370.998 347.932 370.89 347.913 370.791 347.871C370.691 347.829 370.603 347.764 370.533 347.682C370.462 347.599 370.412 347.502 370.387 347.397C370.361 347.292 370.359 347.182 370.383 347.077C370.381 346.971 370.401 346.867 370.444 346.77C370.486 346.673 370.549 346.587 370.628 346.517C370.707 346.448 370.8 346.396 370.902 346.366C371.003 346.336 371.109 346.329 371.214 346.345C371.391 346.33 371.567 346.385 371.704 346.498C371.841 346.612 371.928 346.775 371.946 346.952C371.957 347.071 371.943 347.192 371.907 347.306C371.87 347.42 371.811 347.526 371.733 347.617C371.654 347.707 371.559 347.781 371.451 347.834C371.343 347.887 371.226 347.918 371.106 347.925Z" fill="#FAC897"/>
<path d="M133.425 210.907C132.281 211.191 131.098 211.282 129.925 211.174C130.668 208.639 131.79 206.231 133.255 204.032C133.363 204.793 133.363 205.565 133.255 206.326C132.866 207.837 132.925 209.429 133.425 210.907Z" fill="#FAC897"/>
<path d="M315.806 154.401C315.663 154.33 315.431 154.24 315.592 154.062C315.752 153.883 315.895 154.062 315.967 154.231L315.806 154.401Z" fill="white"/>
<path d="M268.363 262.332C269.514 267.284 270.077 272.354 270.041 277.438C269.797 277.094 269.588 276.726 269.416 276.34C268.826 274.58 267.918 272.943 266.738 271.51C264.997 269.385 263.497 266.778 260.354 266.573C255.89 266.278 251.471 266.635 248.141 270.314C245.689 273.107 243.806 276.352 242.596 279.867C240.926 284.793 239.511 289.803 238.356 294.875C238.248 295.211 238.123 295.542 237.981 295.866C236.492 295.281 235.288 294.142 234.624 292.687C233.829 291.178 233.097 289.634 232.338 288.107C232.115 287.661 231.892 287.214 231.686 286.759C230.624 284.384 228.508 284 226.749 286.384C225.231 288.438 223.973 290.679 222.616 292.848C222.034 293.826 221.38 294.76 220.66 295.642C218.348 298.366 215.589 297.83 213.357 295.919C211.268 294.062 209.803 291.605 209.161 288.884C208.484 286.205 208.021 283.476 207.777 280.724C207.518 278.17 207.491 275.626 207.411 273.072C209.071 272.666 210.766 272.417 212.473 272.331C214.262 272.19 215.969 271.521 217.378 270.408C218.786 269.295 219.832 267.79 220.384 266.082C221.821 262.207 223.455 258.413 225.026 254.591C228.142 247.012 231.276 239.414 234.401 231.879C234.951 230.387 235.758 229.003 236.784 227.79C237.834 228.976 238.635 230.36 239.141 231.861C240.861 236.158 242.567 240.461 244.257 244.771C246.118 249.474 248.271 254.058 250.703 258.493C251.274 259.527 252.08 260.413 253.055 261.08C254.03 261.746 255.148 262.175 256.319 262.332C258.296 262.619 260.294 262.741 262.292 262.698C264.297 262.367 266.332 262.244 268.363 262.332Z" fill="#BCB2CF"/>
<path d="M317.235 405.448C316.936 405.875 316.533 406.218 316.065 406.445C315.596 406.671 315.076 406.774 314.556 406.743C312.679 406.937 310.785 406.629 309.066 405.85C309.066 404.779 309.021 403.707 309.066 402.645C309.351 396.797 308.066 391.208 306.253 385.681C305.324 382.764 303.868 380.041 301.959 377.646C300.572 376.108 298.906 374.848 297.049 373.932C292.626 371.404 287.531 370.304 282.46 370.781C278.34 371.071 274.309 372.118 270.568 373.87C269.745 374.291 268.884 374.635 267.997 374.896C267.441 375.065 266.843 375.026 266.314 374.786C265.785 374.546 265.361 374.122 265.122 373.593C264.586 372.53 265.274 371.888 265.917 371.182C267.622 369.343 269.979 368.7 272.211 368.281C277.496 367.29 282.808 366.343 288.237 366.379C290.299 366.409 292.346 366.734 294.317 367.343C298.575 368.611 302.682 370.209 305.557 373.87C308.025 376.914 309.968 380.347 311.307 384.03C312.989 388.857 313.981 393.897 314.253 399.002C314.387 401.439 314.601 404.064 317.235 405.448Z" fill="#DA6F34"/>
<path d="M326.235 398.154C325.542 399.257 324.54 400.131 323.355 400.669C322.169 401.208 320.851 401.385 319.565 401.181C320.118 399.692 320.159 398.061 319.681 396.547C320.03 391.467 319.235 386.485 318.289 381.53C317.212 375.777 314.91 370.324 311.539 365.54C310.318 363.887 308.933 362.361 307.405 360.987C305.231 358.934 302.669 357.335 299.87 356.282C294.96 354.398 289.978 353.398 284.621 354.291C282.746 354.63 280.809 354.585 278.898 354.773C276.22 355.023 273.541 355.666 270.863 355.915C269.827 356.023 268.702 356.603 267.988 355.38C267.586 354.701 268.506 353.496 269.961 352.96C272.439 352.082 274.986 351.416 277.577 350.969C281.383 350.368 285.25 350.251 289.085 350.621C295.147 350.996 301.102 352.219 306.245 355.692C308.289 357.096 310.147 358.755 311.771 360.629C314.796 364.24 317.17 368.348 318.789 372.772C320.164 376.433 321.183 380.218 321.833 384.074C322.487 387.496 322.787 390.975 322.726 394.458C322.735 396.815 323.949 397.984 326.235 398.154Z" fill="#DA6F34"/>
<path d="M253.81 277.51C253.725 281.437 252.587 285.269 250.516 288.607C250.004 289.377 249.331 290.026 248.543 290.509C246.311 291.911 244.195 290.911 243.936 288.268C243.788 286.992 243.788 285.704 243.936 284.429C244.279 280.797 245.555 277.315 247.641 274.322C248.426 273.269 249.266 272.126 250.864 272.135C251.397 272.045 251.946 272.155 252.402 272.445C252.859 272.736 253.192 273.185 253.337 273.706C253.739 274.932 253.899 276.223 253.81 277.51Z" fill="#FAC897"/>
<path d="M319.681 396.547C320.159 398.061 320.118 399.692 319.565 401.181C319.504 401.207 319.45 401.249 319.41 401.302C319.369 401.355 319.343 401.418 319.333 401.484C317.771 402.18 316.753 401.761 316.405 400.19C316.284 399.567 316.284 398.928 316.405 398.306C316.762 396.342 317.753 395.824 319.681 396.547Z" fill="#FAC897"/>
<path d="M308.173 407.591C308.173 408.689 308.173 409.787 308.173 410.885C307.814 411.229 307.415 411.529 306.985 411.778C306.811 411.871 306.615 411.919 306.417 411.917C306.219 411.915 306.025 411.863 305.852 411.766C305.68 411.669 305.535 411.53 305.43 411.362C305.325 411.194 305.264 411.003 305.253 410.805C305.153 409.961 305.12 409.11 305.155 408.26C305.108 407.83 305.218 407.397 305.466 407.043C305.714 406.688 306.083 406.435 306.503 406.332C307.557 406.073 307.833 406.912 308.173 407.591Z" fill="#FAC897"/>
<path d="M262.301 262.707C260.303 262.75 258.305 262.628 256.328 262.341C255.161 262.176 254.048 261.741 253.08 261.069C252.111 260.398 251.312 259.51 250.748 258.475C248.316 254.04 246.163 249.457 244.302 244.753C242.605 240.443 240.9 236.14 239.186 231.843C238.68 230.342 237.878 228.958 236.829 227.772C235.803 228.986 234.996 230.369 234.445 231.861C231.294 239.423 228.196 246.994 225.071 254.574C223.499 258.395 221.866 262.189 220.428 266.064C219.877 267.772 218.831 269.278 217.422 270.39C216.014 271.503 214.307 272.172 212.518 272.314C210.811 272.399 209.116 272.648 207.456 273.055C205.17 272.947 202.92 273.438 200.644 273.546C197.233 273.706 193.823 273.992 190.403 274.224C191.769 270.787 193.367 267.448 194.912 264.091C199.674 253.806 204.59 243.607 209.661 233.495C211.223 230.379 212.705 227.245 214.188 224.058C214.802 222.928 215.196 221.692 215.348 220.415C215.41 219.988 215.37 219.552 215.232 219.144C215.094 218.735 214.862 218.364 214.554 218.062C214.247 217.759 213.872 217.533 213.461 217.402C213.05 217.271 212.614 217.239 212.188 217.308C210.979 217.442 209.814 217.841 208.777 218.478C206.768 219.558 204.804 220.727 202.778 221.763C200.438 222.959 198.233 224.441 195.689 225.218L195.466 225.004C196.494 222.127 197.742 219.333 199.197 216.647C201.242 212.576 203.331 208.532 205.402 204.47C208.581 203.666 211.848 203.327 215.071 202.791C226.178 200.952 237.287 199.145 248.4 197.372C257.756 195.872 267.119 194.399 276.487 192.952C277.051 192.896 277.617 192.875 278.184 192.89L275.023 199.184C271.014 207.13 266.586 214.871 263.042 223.058C262.64 223.891 262.303 224.753 262.033 225.638C261.444 227.834 262.542 229.423 264.792 229.798C266.145 229.962 267.516 229.707 268.72 229.066C272.559 227.281 276.211 225.254 279.898 223.236C280.407 222.959 280.871 222.459 281.683 222.593C281.3 223.486 281.005 224.165 280.666 224.861C276.196 234.015 271.732 243.169 267.274 252.324C265.577 255.761 263.943 259.234 262.301 262.707Z" fill="#010101"/>
<path d="M195.679 225.2C198.224 224.424 200.429 222.942 202.768 221.745C204.795 220.71 206.759 219.54 208.768 218.46C209.805 217.823 210.969 217.424 212.178 217.29C212.602 217.222 213.035 217.254 213.444 217.384C213.853 217.513 214.226 217.737 214.533 218.036C214.84 218.335 215.073 218.702 215.213 219.108C215.353 219.513 215.396 219.945 215.339 220.37C215.187 221.647 214.793 222.883 214.178 224.013C212.696 227.173 211.214 230.334 209.652 233.45C204.575 243.568 199.658 253.767 194.903 264.046C193.358 267.403 191.76 270.742 190.394 274.179C184.618 274.412 178.85 274.938 173.056 274.679C175.27 269.412 177.832 264.314 180.323 259.18C183.564 252.511 186.859 245.86 190.144 239.191C190.43 238.592 191.037 238.03 190.689 237.173C189.799 237.426 188.958 237.824 188.198 238.351C184.832 240.226 181.457 242.074 177.948 243.708C176.732 244.337 175.344 244.553 173.993 244.324C171.851 243.887 170.86 242.351 171.44 240.235C171.726 239.279 172.081 238.345 172.502 237.441C176.895 227.513 182.323 218.12 187.126 208.389C187.535 207.802 187.806 207.131 187.921 206.425C190.51 206.068 193.099 205.693 195.688 205.38C198.501 205.041 201.322 204.755 204.143 204.487C204.571 204.465 205.001 204.465 205.429 204.487C203.358 208.55 201.268 212.594 199.224 216.665C197.768 219.351 196.521 222.145 195.492 225.022L195.233 225.254C195.34 225.432 195.528 225.37 195.679 225.2Z" fill="#B0BDCB"/>
<path d="M327.886 394.708V394.279C328.189 394.467 328.216 394.583 327.886 394.708Z" fill="#EB8045"/>
<path d="M262.301 262.707C263.953 259.234 265.587 255.761 267.274 252.306C271.732 243.146 276.196 233.991 280.666 224.843C281.005 224.147 281.3 223.433 281.684 222.576C280.854 222.442 280.389 222.942 279.898 223.218C276.211 225.236 272.559 227.307 268.72 229.048C267.517 229.689 266.146 229.944 264.792 229.78C262.542 229.405 261.444 227.816 262.033 225.62C262.303 224.736 262.641 223.873 263.042 223.04C266.613 214.853 271.015 207.112 275.024 199.166L278.184 192.872C279.443 192.122 280.907 192.265 282.255 192.077C286.085 191.56 289.889 190.827 293.763 190.667C294.46 190.667 295.103 190.203 295.835 190.381C292.951 196.265 289.639 201.934 287.023 207.951C286.556 208.861 286.254 209.847 286.13 210.862C287.192 210.353 288.282 209.889 289.317 209.335C292.46 207.657 295.567 205.952 298.718 204.246C299.761 203.622 300.885 203.144 302.058 202.827C304.799 202.202 306.584 204.023 305.825 206.728C305.487 207.893 305.045 209.026 304.504 210.112C300.397 218.567 296.21 226.995 292.139 235.468C288.067 243.94 284.032 252.431 280.309 261.073C280.05 261.189 279.791 261.395 279.55 261.386C276.872 261.261 274.193 261.93 271.515 261.859C270.426 261.859 269.435 262.252 268.372 262.305C266.34 262.229 264.306 262.364 262.301 262.707Z" fill="#B0BDCB"/>
<path d="M195.679 225.2C195.528 225.37 195.358 225.433 195.197 225.2L195.456 224.968L195.679 225.2Z" fill="#010101"/>
<g opacity="0.38">
<path opacity="0.38" d="M194.716 242.512C197.269 242.762 200.296 242.181 203.341 241.824C203.736 241.821 204.125 241.733 204.483 241.565C204.841 241.397 205.157 241.153 205.412 240.851C206.152 239.97 207.063 239.247 208.09 238.726L289.085 186.89L463.878 75.04L571.952 5.90139C572.445 5.61629 572.914 5.29079 573.353 4.92824C573.696 4.66298 573.964 4.31445 574.134 3.91586C574.303 3.51727 574.368 3.08191 574.321 2.65131C574.275 2.2207 574.119 1.8092 573.868 1.45603C573.617 1.10287 573.28 0.819815 572.889 0.633861C572.004 0.154949 571.001 -0.0647417 569.996 -2.69655e-05C566.568 -2.69655e-05 563.158 0.339238 559.747 0.678503C554.988 1.16062 550.248 1.82129 545.462 2.02663C540.257 2.25876 535.052 2.4641 529.838 2.45518C522.339 2.45518 514.842 2.47303 507.348 2.50875C506.063 2.50875 504.768 2.50875 503.492 2.44625C496.662 1.97307 489.841 1.27668 483.002 1.00884C472.797 0.607078 462.592 0.178533 452.379 0.419589C448.597 0.569942 444.809 0.474509 441.04 0.133893C439.982 -0.00273973 438.906 0.10485 437.895 0.448412C436.885 0.791975 435.966 1.36239 435.21 2.11591C422.312 13.8295 409.381 25.4954 396.418 37.1137L325.262 101.181L260.801 159.213L189.502 223.441L171.985 239.199C171.039 240.092 170.325 240.985 170.816 242.378C171.307 243.771 172.467 244.047 173.717 244.163C174.014 244.192 174.313 244.192 174.61 244.163C177.03 243.967 179.44 243.753 181.86 243.565C185.949 243.306 189.984 242.36 194.716 242.512ZM593.968 38.1762C593.984 37.7637 593.894 37.354 593.709 36.9852C593.523 36.6165 593.248 36.3006 592.907 36.0672C592.567 35.8337 592.173 35.6901 591.762 35.6499C591.351 35.6097 590.937 35.674 590.558 35.837C589.574 36.2669 588.625 36.7713 587.719 37.3459L509.152 82.4324L359.67 168.248C327.529 186.7 295.388 205.151 263.248 223.602C262.8 223.828 262.383 224.11 262.007 224.441C261.686 224.73 261.448 225.099 261.315 225.509C261.182 225.92 261.16 226.358 261.25 226.78C261.341 227.202 261.541 227.592 261.831 227.912C262.12 228.232 262.489 228.47 262.899 228.602C263.568 228.866 264.303 228.91 264.997 228.727C269.167 227.763 273.39 227.093 277.639 226.531C283.505 225.745 289.246 224.424 295.174 223.718C296.629 223.549 298.272 223.433 299.308 222.218C299.972 221.485 300.844 220.971 301.808 220.745L339.689 209.237L492.448 162.811L591.192 132.876C594.7 131.804 595.147 131.17 594.968 127.519C594.959 127.019 594.915 126.521 594.834 126.028C594.467 123.699 594.326 121.34 594.415 118.984C594.415 115.698 594.415 112.413 594.254 109.163C594.133 106.81 594.133 104.453 594.254 102.101C594.673 94.3245 594.665 86.5393 594.334 78.763C594.084 72.7723 593.522 66.7994 593.54 60.7998C593.54 59.657 593.37 58.5142 593.406 57.3804C593.584 51.1307 592.513 44.8811 593.932 38.6315C593.955 38.4808 593.967 38.3286 593.968 38.1762Z" fill="white"/>
<path opacity="0.38" d="M194.716 242.512C190.011 242.36 185.949 243.306 181.824 243.628C179.404 243.815 176.994 244.029 174.574 244.226C174.277 244.255 173.978 244.255 173.682 244.226C172.432 244.083 171.262 243.779 170.78 242.44C170.298 241.101 171.003 240.119 171.949 239.262L189.466 223.504L260.765 159.276L325.226 101.244L396.382 37.1762C409.369 25.4865 422.318 13.7997 435.228 2.11591C435.984 1.36239 436.902 0.791975 437.913 0.448412C438.923 0.10485 439.999 -0.00273973 441.058 0.133893C444.827 0.474509 448.615 0.569942 452.396 0.419589C462.61 0.178533 472.815 0.607077 483.019 1.00884C489.858 1.27668 496.679 1.97306 503.509 2.44625C504.786 2.53553 506.081 2.50875 507.366 2.50875C514.866 2.46708 522.362 2.44922 529.856 2.45518C535.07 2.45518 540.275 2.25876 545.48 2.02663C550.247 1.82129 554.988 1.13383 559.765 0.678503C563.175 0.339238 566.586 0.0178291 570.014 -2.69655e-05C571.019 -0.0647417 572.021 0.154949 572.907 0.633861C573.298 0.819815 573.635 1.10287 573.886 1.45603C574.136 1.8092 574.292 2.2207 574.339 2.65131C574.386 3.08191 574.321 3.51727 574.152 3.91586C573.982 4.31445 573.713 4.66298 573.371 4.92824C572.931 5.29079 572.463 5.61629 571.969 5.90139L463.878 75.04L289.085 186.89L208.081 238.726C207.054 239.247 206.143 239.97 205.403 240.851C205.151 241.143 204.84 241.378 204.491 241.541C204.141 241.704 203.762 241.792 203.376 241.797C200.296 242.181 197.269 242.762 194.716 242.512Z" fill="#DA6F35"/>
<path opacity="0.38" d="M593.968 38.1761C593.957 38.3173 593.936 38.4574 593.906 38.5958C592.459 44.8454 593.557 51.095 593.379 57.3446C593.379 58.4785 593.522 59.6212 593.513 60.764C593.513 66.7637 594.057 72.7365 594.307 78.7272C594.638 86.5035 594.647 94.2887 594.227 102.065C594.107 104.418 594.107 106.775 594.227 109.127C594.388 112.404 594.361 115.689 594.388 118.948C594.3 121.304 594.44 123.663 594.807 125.992C594.888 126.485 594.933 126.984 594.941 127.483C595.12 131.108 594.673 131.742 591.165 132.84L492.483 162.811L339.725 209.237L301.843 220.745C300.88 220.971 300.008 221.485 299.343 222.218C298.308 223.433 296.665 223.549 295.21 223.718C289.326 224.424 283.541 225.745 277.675 226.531C273.425 227.093 269.202 227.763 265.033 228.727C264.338 228.91 263.603 228.866 262.935 228.602C262.524 228.47 262.156 228.232 261.866 227.912C261.577 227.592 261.377 227.201 261.286 226.78C261.196 226.358 261.218 225.92 261.351 225.509C261.483 225.099 261.722 224.73 262.042 224.441C262.419 224.11 262.836 223.828 263.283 223.602C295.424 205.151 327.565 186.7 359.706 168.248L509.161 82.4234L587.727 37.3369C588.634 36.7654 589.583 36.264 590.567 35.837C590.945 35.676 591.359 35.6132 591.768 35.6544C592.178 35.6956 592.57 35.8395 592.91 36.0727C593.249 36.3059 593.524 36.621 593.709 36.9887C593.894 37.3563 593.983 37.7648 593.968 38.1761Z" fill="#DA6F35"/>
</g>
</g>
<defs>
<clipPath id="clip0_5947_12439">
<rect width="594.963" height="576" fill="white" transform="translate(0.0400391)"/>
</clipPath>
</defs>
</svg>
