<svg width="3500" height="705" viewBox="0 0 3500 705" fill="none" xmlns="http://www.w3.org/2000/svg">
<g clip-path="url(#clip0_4889_122265)">
<g clip-path="url(#clip1_4889_122265)">
<path d="M3146.35 -827.867C3210.32 -770.369 3149.16 -707.474 3123.9 -651.11C3117.04 -635.806 3117.29 -619.568 3108.79 -604.531C3101.06 -590.849 3084.34 -579.226 3075.67 -565.73L3067.47 -552.936C3053.47 -530.902 3068.93 -518.227 3064.08 -509.463L3062.96 -507.41L3056.74 -500.109C3051.03 -493.379 3044.22 -472.022 3036.08 -462.119L3032.28 -457.499C2986.51 -401.761 3022.71 -356.327 3006.27 -301.888C2986.65 -236.863 2976.9 -323.886 2990 -220.686C2996.87 -166.617 3044.82 -106.526 3100.19 -62.3544C3107.89 -56.1939 3121.21 -45.9262 3133.77 -29.8985C3146.33 -13.8707 3161.68 42.401 3191.92 76.7667C3200.96 86.9876 3212.88 96.3137 3227.23 104.381C3193.28 95.1406 3168.7 102.672 3142.97 110.542C3130.16 114.459 3117.05 118.469 3102.37 120.538C3062.21 126.185 3049 108.858 3033.7 88.7644C3031.06 85.3042 3028.37 81.7619 3025.49 78.2401L3023.67 76.0274C3012.23 61.8992 3004.26 34.957 2995.76 6.26923C2989.56 -14.7024 2983.07 -36.6032 2974.75 -55.1158L2973.52 -57.8007C2965.97 -73.9774 2942.47 -82.9564 2919 -91.8892C2908 -96.0887 2897 -100.283 2887.65 -105.237C2840.52 -130.229 2819.06 -169.045 2840.71 -193.421C2848.13 -201.635 2861.26 -205.937 2874.78 -209.808L2884.92 -212.672C2888.33 -213.578 2891.83 -214.378 2895.39 -215.07C2906.78 -217.406 2918.44 -219.803 2918.03 -227.011C2917.58 -235.138 2903.3 -238.732 2890.23 -241.386L2882.67 -242.926C2868.36 -245.909 2853.15 -247.685 2838.01 -249.451C2833.9 -249.934 2829.8 -250.411 2825.7 -250.914L2824.79 -251.027C2822.38 -251.32 2819.89 -251.54 2817.4 -251.777C2806.19 -252.803 2794.86 -253.861 2789.46 -260.751C2782.96 -269.078 2790.12 -276.152 2797.81 -282.78L2801.46 -285.901C2814.52 -296.769 2833.08 -304.758 2855.12 -307.756L2856.86 -308.002C2904.97 -315.02 2914.82 -335.119 2925.5 -356.897C2927.03 -360.018 2928.57 -363.175 2930.26 -366.332L2931.53 -368.694C2950.92 -403.604 2974.16 -437.821 2997.39 -472.007C3028.26 -517.4 3059.1 -562.788 3080.89 -609.87L3081.94 -612.103C3088.52 -625.913 3096.63 -639.513 3104.73 -653.107C3121.53 -681.271 3138.32 -709.425 3141.46 -739.432C3147.42 -796.217 3090.97 -843.305 2979.74 -871.766L2980.04 -871.689L2989.39 -870.729C3032.8 -866.212 3072.53 -861.417 3109.39 -852.248C3123.64 -845.137 3136.04 -836.933 3146.22 -827.877" fill="#5F5F6B"/>
<path d="M1339.93 8.41003C1369.32 4.78556 1400.4 -8.91145 1444.45 -17.7057C1476.6 -24.1229 1514.11 -27.4599 1547.15 -33.5127C1575.4 -38.6773 1605.14 -48.719 1627.24 -53.9042C1651.62 -59.6284 1667.5 -60.5473 1678.47 -64.0435L1678.97 -64.1923L1677.77 -63.8022C1670.6 -61.5073 1663.48 -59.8491 1655.45 -57.9855C1643.37 -55.2929 1631.6 -52.1684 1620.23 -48.6317C1613.76 -46.5782 1606.18 -43.6827 1598.16 -40.5922C1584.15 -35.1966 1568.77 -29.2721 1555.51 -26.6128C1539.47 -23.4042 1522.29 -21.6433 1505.38 -19.9081C1481.09 -17.4182 1457.33 -14.9847 1438.3 -8.38266C1381.08 11.4493 1317.08 23.6729 1269.46 23.6729C1206.45 23.6729 1140.39 24.905 1091.91 26.7531C1113.04 22.4351 1134.57 18.8045 1156.44 15.8797C1212.7 8.50245 1273.59 16.5985 1339.94 8.41517" fill="#5F5F6B"/>
<path d="M2716.97 -29.9241C2732.67 -49.561 2753.26 -68.284 2761.26 -89.3429C2772.96 -120.094 2756.83 -153.515 2777.27 -182.778C2778.82 -184.986 2780.83 -187.322 2784.62 -188.369C2796 -191.516 2803.31 -181.182 2802.85 -174.04C2799.53 -115.337 2805.63 -56.5845 2821.08 1.49993C2823.49 10.52 2826.16 19.6171 2832.33 28.052C2841.7 40.8865 2858.7 51.5751 2867.59 64.5021C2872.77 72.1638 2874.98 80.3604 2874.06 88.5421C2873.15 96.7234 2869.15 104.7 2862.32 111.938C2840.51 119.316 2810.74 113.284 2794.34 102.333C2777.94 91.3827 2771.64 76.8694 2765.84 62.9208C2761.15 51.6573 2756.47 40.3957 2751.77 29.1352C2750.92 27.0817 2749.9 24.8742 2747.02 23.5291C2725.34 13.436 2719.61 42.7296 2698.53 23.1543C2685.04 10.633 2707.74 -18.4552 2716.89 -29.8985" fill="#4195C4"/>
<path d="M2462.76 -67.5241C2448.03 -58.7658 2435.47 -49.3094 2421.97 -39.9915C2407.39 -29.8984 2387.25 -23.1783 2367.29 -17.1152C2332.65 -6.61147 2295.54 1.79257 2260.81 12.6249C2209.59 28.6013 2161.88 37.6574 2103.13 37.1029C2054.25 36.6357 2011.62 51.4262 1975.24 68.5218C1958.04 76.6076 1935.87 79.6417 1915.34 83.6871C1888.06 89.0673 1860.6 95.0328 1832.72 99.4992C1801.12 104.561 1751.05 112.934 1719.13 106.06C1713.43 104.833 1710.37 102.467 1713.72 99.2887C1715.61 97.5581 1717.88 95.9723 1720.49 94.5708C1760.59 87.979 1800 79.385 1838.9 70.8423C1849.59 68.4962 1860.47 66.0781 1869.73 62.3304L1871.44 62.0173C1871.39 61.9043 1871.34 61.7914 1871.29 61.6785C1872.36 61.2164 1873.42 60.7338 1874.45 60.2307C1884.87 55.0969 1891.66 48.0944 1899.72 41.749C1909.25 34.2783 1920.69 27.6454 1933.68 22.066C1959.2 25.326 1983.23 28.1341 2008.66 25.6853C2032.96 23.3494 2047.34 15.0173 2066.39 6.01257C2093.87 -6.97596 2125.03 -18.8145 2155.75 -28.8049C2182.73 -37.5837 2215.59 -40.3663 2246.21 -44.2064C2282.17 -48.7292 2316.7 -54.0633 2351.09 -61.4765C2383.38 -68.4379 2412.86 -76.7444 2442.64 -86.6938C2462.96 -93.4909 2504.95 -107.193 2511.18 -104.549C2517.4 -101.905 2474.85 -74.732 2462.72 -67.5138" fill="#EA7534"/>
<path d="M608.855 60.1845C613.54 59.6968 618.443 59.0653 621.952 57.248C627.075 54.5887 627.759 50.2403 628.087 46.3181C629.226 33.0215 628.998 17.81 611.453 8.91314C589.523 -2.17589 555.626 3.26595 526.359 5.20653C485.07 7.92231 443.106 2.12624 401.835 4.9601C330.623 9.83722 271.005 39.4798 200.111 45.6712C179.485 47.4732 157.519 47.3705 139.345 53.1615C133.457 55.0353 127.541 58.7316 130.303 62.2021C131.925 64.2556 135.945 65.2567 139.664 66.037C208.251 80.4785 289.243 74.554 349.007 50.7229C359.179 46.6672 368.786 42.1238 379.641 38.6841C412.691 28.206 456.14 30.5881 486.966 42.5345C501.631 48.2125 509.606 57.3404 525.247 61.1856C546.93 66.5042 586.515 62.5204 608.828 60.1845" fill="#5F5F6B"/>
<path d="M1463.8 68.2241L1233.66 89.9298C1216.34 91.5675 1198.51 93.2873 1183.28 98.2569C1169.46 102.769 1158.46 109.746 1144.24 113.838C1128.66 118.315 1110.59 118.972 1093.11 119.162C1031.35 119.877 969.682 116.218 909.545 108.268C894.643 106.296 876.824 102.153 875.657 93.5646C874.363 84.1492 894.105 78.6406 910.593 76.931C972.927 70.4778 1037.89 79.7341 1100.18 73.2141C1149.1 68.0803 1193.28 53.5825 1241.13 45.892C1286.04 38.6739 1333.19 37.5958 1379.88 36.5639L1518.01 33.5144C1539.2 33.0472 1560.67 32.5544 1580.9 29.012C1607.2 24.4173 1629.81 14.9967 1652.9 6.56702C1704.4 -12.2027 1760.49 -26.6272 1819.4 -36.249C1799.75 -9.59935 1755.95 10.9821 1705.88 17.0605C1654.5 23.3084 1640.56 35.2393 1597.34 48.0174C1556.71 60.0305 1508.45 64.0092 1463.75 68.2241" fill="#FFD72E"/>
<path d="M2127.86 -59.0072C2105.89 -43.8008 2069.36 -37.0806 2047.48 -21.823C2039.92 -16.5454 2034.31 -10.3694 2025.75 -5.60014C2010.56 2.87065 1988.51 5.72505 1968.86 10.4636C1941.19 17.1714 1917.27 27.9976 1899.7 41.7798C1891.64 48.1201 1884.85 55.1277 1874.43 60.2615C1864.29 65.2619 1851.45 68.1168 1838.89 70.8731C1760.34 88.1232 1679.68 105.619 1595.37 106.296C1554.36 106.625 1513.39 102.944 1472.49 104.469C1391.56 107.487 1318.01 130.384 1243.63 148.62C1169.25 166.855 1070.66 179.674 1008.07 165.3C992.359 155.951 1085.26 159.293 1109.83 141.884C1122.87 132.643 1134.22 122.299 1147.11 112.96C1159.97 108.802 1170.39 102.472 1183.25 98.2723C1198.48 93.3027 1216.26 91.5983 1233.62 89.9452L1463.8 68.2241C1508.46 64.0092 1556.77 60.01 1597.39 48.0174C1640.62 35.2342 1654.55 23.3089 1705.93 17.0605C1756.01 10.9615 1799.81 -9.59937 1819.45 -36.249C1816.91 -35.8331 1814.37 -35.3968 1811.83 -34.9599C1844.51 -44.7141 1876.7 -54.9823 1908.55 -65.5374C1927.91 -71.9649 1947.51 -78.5978 1969.34 -81.5908C1981.65 -83.2747 1994.43 -83.7619 2006.55 -85.8364C2041.42 -91.8071 2052.03 -86.262 2051.21 -85.6409C2047.34 -82.5606 2050.1 -80.7283 2057.2 -80.6308C2088.7 -80.2047 2119.74 -91.2834 2132.5 -107.511C2137.9 -114.37 2140.3 -122.019 2147.63 -128.282C2154.97 -134.546 2170.01 -139.038 2181.66 -135.393C2153.25 -112.897 2158.74 -80.4152 2127.8 -59.0072" fill="#E5C7A3"/>
<path d="M3511.35 77.2852C3508.63 77.2534 3505.93 77.0645 3503.28 76.7205C3465.42 76.5614 3468.65 111.245 3443.51 127.874C3420.45 143.126 3387.82 151.31 3334.36 140.436C3297.47 132.936 3258.06 121.806 3227.25 104.335C3212.9 96.267 3200.97 86.9409 3191.93 76.7205C3161.69 42.3548 3146.35 -13.9426 3133.78 -29.9498C3121.2 -45.957 3107.9 -56.2606 3100.2 -62.4006C3044.83 -106.551 2996.88 -166.663 2990.01 -220.732C2976.9 -323.922 2986.66 -236.909 3006.28 -301.934C3022.69 -356.352 2986.52 -401.807 3032.29 -457.545L3036.09 -462.165C3044.23 -472.053 3051.04 -493.41 3056.75 -500.156L3062.97 -507.456L3064.09 -509.509C3068.94 -518.273 3053.48 -530.948 3067.48 -552.982L3075.68 -565.776C3084.35 -579.273 3101.07 -590.896 3108.8 -604.577C3117.3 -619.614 3117.01 -635.852 3123.91 -651.156C3149.17 -707.52 3210.33 -770.399 3146.36 -827.919C3136.17 -836.975 3123.78 -845.173 3109.54 -852.284C3112.37 -851.58 3115.17 -850.851 3117.96 -850.091C3127.76 -846.554 3137.48 -843.284 3147.58 -840.727C3180.16 -828.807 3210.48 -811.819 3239.2 -786.432L3241.4 -784.476C3242.15 -783.793 3242.91 -783.131 3243.66 -782.474L3244.22 -781.961L3244 -782.063L3243.62 -782.243L3242.96 -782.52L3242.67 -782.638L3242.18 -782.828L3241.89 -782.931C3241.64 -783.018 3241.38 -783.106 3241.13 -783.183C3241.88 -781.57 3242.62 -779.953 3243.36 -778.336C3243.75 -777.479 3244.14 -776.616 3244.53 -775.769C3244.88 -774.989 3245.24 -774.229 3245.58 -773.428C3246 -772.525 3246.4 -771.621 3246.81 -770.712C3247.24 -769.722 3247.69 -768.726 3248.14 -767.735C3248.36 -767.222 3248.58 -766.708 3248.81 -766.22C3249.56 -764.511 3250.31 -762.817 3251.06 -761.148C3254.64 -753.093 3258.22 -745.028 3262 -737.019L3262.14 -736.716C3264.01 -732.758 3265.92 -728.81 3267.89 -724.873L3268.02 -724.595C3268.96 -722.737 3269.92 -720.879 3270.9 -719.025C3270.96 -718.887 3271.03 -718.753 3271.11 -718.62C3272.13 -716.674 3273.17 -714.733 3274.23 -712.788C3282.81 -697.35 3306.8 -692.951 3331.94 -690.512L3334.38 -690.281L3339.85 -689.768C3397.86 -684.603 3412.07 -672.2 3399.36 -640.298C3399.24 -640.011 3399.13 -639.723 3399.01 -639.431L3398.01 -636.941L3397.01 -634.446C3390.26 -617.289 3384.62 -599.982 3379.2 -582.635C3378.84 -581.48 3378.48 -580.325 3378.12 -579.165L3378.04 -578.929L3374.99 -569.072C3368.44 -548.105 3348.08 -534.454 3319.11 -526.779C3317.91 -526.456 3316.69 -526.148 3315.47 -525.85C3313 -525.25 3310.46 -524.695 3307.88 -524.177C3302.6 -523.124 3297.2 -522.246 3291.73 -521.553C3290.33 -521.374 3288.92 -521.204 3287.5 -521.04L3270.64 -519.104C3254.23 -517.236 3237.66 -515.577 3221.62 -515.511C3193.03 -515.408 3166.07 -520.398 3144.49 -538.438L3144.11 -538.757L3143.63 -539.116C3142.2 -540.143 3140.89 -540.559 3139.78 -540.589C3137.76 -540.641 3136.18 -539.445 3134.98 -538.115L3134.76 -537.869C3134.61 -537.699 3134.48 -537.53 3134.34 -537.355C3134.14 -537.104 3133.96 -536.842 3133.79 -536.616L3131.89 -533.915C3130.35 -531.693 3128.89 -529.475 3127.51 -527.277C3085.29 -459.989 3114.7 -404.338 3270.74 -383.757C3274.51 -373.833 3279.47 -363.976 3281.89 -353.929C3287.94 -328.845 3278.05 -303.438 3278.75 -278.128C3279.26 -259.395 3285.58 -240.883 3291.88 -222.483C3298.03 -204.484 3304.2 -186.449 3313.42 -168.871C3319.91 -156.503 3328.22 -144.08 3343.3 -134.377C3353.02 -128.134 3365.04 -123.344 3378.22 -119.617C3378.3 -118.852 3378.38 -118.077 3378.5 -117.327C3378.49 -117.317 3378.49 -117.307 3378.5 -117.296C3378.59 -116.716 3378.71 -116.141 3378.88 -115.582C3378.88 -115.536 3378.88 -115.489 3378.92 -115.438C3379 -115.181 3379.09 -114.925 3379.19 -114.683C3379.19 -114.666 3379.19 -114.649 3379.19 -114.632C3379.31 -114.37 3379.43 -114.119 3379.58 -113.862C3379.6 -113.816 3379.62 -113.772 3379.66 -113.728C3379.78 -113.528 3379.91 -113.328 3380.05 -113.138L3380.19 -112.958C3380.37 -112.734 3380.57 -112.514 3380.79 -112.301C3381.48 -111.617 3382.16 -110.932 3382.81 -110.248C3382.97 -110.089 3383.12 -109.935 3383.27 -109.775C3383.92 -109.091 3384.55 -108.406 3385.16 -107.722L3385.38 -107.47C3385.91 -106.865 3386.44 -106.254 3386.96 -105.643C3387.12 -105.458 3387.28 -105.273 3387.43 -105.093C3387.98 -104.431 3388.52 -103.774 3389.05 -103.112C3389.18 -102.942 3389.3 -102.773 3389.44 -102.598C3389.86 -102.085 3390.26 -101.525 3390.67 -100.991C3390.84 -100.771 3391 -100.555 3391.15 -100.339C3391.63 -99.7029 3392.07 -99.0663 3392.54 -98.4246C3392.7 -98.1833 3392.88 -97.9369 3393.05 -97.6956C3393.36 -97.2335 3393.68 -96.7766 3393.96 -96.3146C3394.13 -96.0476 3394.32 -95.8012 3394.49 -95.5188C3394.89 -94.9182 3395.27 -94.3175 3395.66 -93.7169C3395.87 -93.3883 3396.08 -93.0597 3396.28 -92.7363L3396.93 -91.6634C3397.3 -91.0714 3397.65 -90.481 3398 -89.8922L3398.52 -89.0092L3399.28 -87.6846L3399.57 -87.1713C3404.32 -78.7621 3408.29 -70.1937 3412.97 -61.7538C3428.67 -33.0609 3470.01 -21.248 3517.37 -14.3636V76.6692C3515.44 77.1153 3513.36 77.3253 3511.28 77.2852" fill="#EA7534"/>
<path d="M1688.08 -67.1597L1682.85 -65.4604L1678.99 -64.2026L1678.47 -64.0435C1667.53 -60.5474 1651.62 -59.6284 1627.24 -53.9042C1605.14 -48.7191 1575.36 -38.6773 1547.15 -33.5127C1514.11 -27.4702 1476.6 -24.123 1444.45 -17.7057C1400.4 -8.91148 1369.32 4.78553 1339.93 8.41C1273.58 16.5933 1212.7 8.49729 1156.43 15.8746C1134.56 18.7998 1113.02 22.4299 1091.9 26.748C1029.47 39.3207 978.341 54.717 946.066 57.1607C899.026 60.7236 868.775 72.0487 845.733 85.2786C837.22 85.6533 763.802 140.436 731.764 140.436C669.156 140.436 634.666 123.731 613.739 76.7205C613.235 75.5983 612.728 74.4873 612.217 73.3887C612.728 74.4873 613.247 75.5962 613.749 76.7205C613.247 75.5962 612.728 74.4822 612.208 73.3784C612.163 73.2911 612.126 73.2039 612.081 73.1166C611.561 72.0128 611.023 70.9142 610.485 69.8361V69.7899C610.212 69.2405 609.93 68.6912 609.647 68.147C609.364 67.6029 609.082 67.0638 608.799 66.5248V66.4683C608.371 65.6571 607.933 64.846 607.487 64.0503C607.936 64.8445 608.374 65.6505 608.799 66.4683C608.271 65.4672 607.733 64.4866 607.186 63.5112C607.013 63.2032 606.831 62.9003 606.657 62.5923C606.265 61.8992 605.864 61.2061 605.454 60.5387L605.837 61.1753L605.454 60.5387L608.9 60.1794C613.584 59.6917 618.488 59.0602 621.997 57.2428C627.129 54.5835 627.803 50.2352 628.131 46.3129C629.271 33.0164 629.043 17.8049 611.497 8.90798C589.568 -2.18105 555.67 3.2608 526.403 5.19624C485.114 7.9223 443.151 2.11596 401.88 4.95495C381.135 6.37702 361.375 9.89882 342.025 14.3344L338.096 14.5449L337.185 14.5963C335.298 14.7041 333.42 14.8119 331.534 14.93H331.206C329.492 15.0378 327.778 15.1456 326.065 15.2636L324.844 15.3458L320.004 15.6897L319.302 15.7411C317.479 15.8797 315.592 16.0286 313.742 16.1775L312.903 16.2442L308.228 16.6446L306.97 16.7576C305.229 16.9167 303.497 17.0759 301.756 17.271H301.538C299.715 17.4507 297.892 17.6355 296.023 17.8306L294.911 17.9486C293.426 18.1078 291.949 18.2721 290.463 18.462L289.242 18.6006C285.596 19.0216 281.987 19.4718 278.414 19.9508L277.165 20.1202L272.763 20.7363L271.66 20.8954C269.837 21.1557 268.032 21.4278 266.246 21.7117L265.799 21.7836C264.177 22.0403 262.555 22.297 260.932 22.5742L259.62 22.795C258.118 23.0516 256.615 23.3155 255.108 23.5856L254.251 23.7344C252.465 24.0563 250.685 24.39 248.91 24.7355L247.999 24.9101C246.522 25.1976 245.048 25.4938 243.578 25.7982L242.256 26.0703C240.652 26.404 239.048 26.7428 237.444 27.0971L236.979 27.1998C235.211 27.5899 233.452 27.9904 231.702 28.4011L230.553 28.6732C229.15 29.0156 227.752 29.358 226.361 29.6999L225.075 30.0182C223.344 30.4546 221.603 30.9012 219.871 31.3633L218.048 31.8356C216.018 32.3459 213.977 32.8059 211.923 33.2166L211.65 33.2731L209.89 33.6119L209.435 33.694L207.84 33.9764L207.275 34.0688L205.789 34.3101L205.151 34.4076L203.729 34.6181L203.036 34.7157L201.669 34.9005L200.922 34.9929L199.6 35.152L198.816 35.2393L197.513 35.3831L196.72 35.4652L195.426 35.5884L194.614 35.6654L193.338 35.7732L192.5 35.84L191.242 35.9324L190.394 35.9888L189.137 36.071L188.28 36.1223L187.031 36.1942L186.12 36.2353L184.871 36.2917L183.959 36.3277L182.72 36.3739L181.808 36.4047L180.651 36.4406H179.739L178.472 36.4714H177.607H176.349H175.437H174.17H168.93H167.672H166.888H165.466H164.746L163.26 36.4406H162.595L161.027 36.4047H160.453L158.73 36.3585H158.311L156.379 36.302H156.169C154.474 36.2507 152.778 36.1993 151.083 36.1377L147.747 36.0248L143.919 35.8913L143.163 35.8656L142.379 35.84H142.105L140.957 35.8143H140.045H138.924H136.901H135.989H134.923H134.012L132.954 35.8451L132.116 35.8759L131.086 35.9221L130.338 35.9272L129.327 35.9888L128.543 36.0402L127.558 36.1172L126.802 36.1788L125.836 36.2712L125.107 36.3431L124.195 36.4458L123.493 36.5279L122.582 36.6511L121.916 36.7384L121.005 36.8719L120.367 36.9745L119.456 37.1234L118.845 37.2261L117.933 37.3904L117.35 37.5084L116.484 37.683L115.919 37.8062L115.071 38.0013L114.534 38.1245L113.695 38.335L113.194 38.4685L112.374 38.6944L111.881 38.833L111.079 39.0691L110.624 39.2129L109.831 39.4696L109.393 39.6133L108.618 39.8854L108.208 40.0343L107.443 40.3218L107.06 40.4758L106.303 40.7787L105.948 40.9327C105.693 41.0405 105.446 41.1432 105.209 41.2561L104.863 41.4101C104.617 41.518 104.38 41.6309 104.143 41.749L103.824 41.903L103.104 42.2572L102.812 42.4112C102.575 42.5345 102.338 42.6577 102.111 42.786L101.837 42.9349L101.135 43.3302L100.898 43.4739C100.661 43.6126 100.433 43.7512 100.206 43.8949L99.9868 44.0284C99.7589 44.1773 99.522 44.321 99.3032 44.4699L99.1027 44.6034C98.8748 44.7523 98.647 44.9063 98.4282 45.0603L98.255 45.1835L97.5806 45.6712C97.5806 45.7072 97.4894 45.7482 97.4347 45.7842C97.2069 45.9536 96.9881 46.123 96.7694 46.2975C96.7694 46.3283 96.6873 46.3591 96.6509 46.3951C96.423 46.5696 96.2043 46.7493 95.9855 46.9341L95.8852 47.0163C95.6574 47.2062 95.4386 47.391 95.2199 47.5861L95.1561 47.6477C94.9282 47.848 94.7095 48.0482 94.4907 48.2484L94.4451 48.2895C94.2264 48.4999 93.9985 48.7104 93.7798 48.9261C87.5636 55.0558 84.328 62.7155 81.5389 70.5497L79.397 76.7102L81.5389 70.5805C81.4569 71.2889 75.979 116.615 -11.8491 117.555L-11.8491 -8.126C-2.06917 -7.22245 7.71989 -6.37538 17.4634 -5.73879C55.7446 -3.22835 93.0597 -3.89575 124.815 -16.8124C126.292 -17.411 127.756 -18.0394 129.208 -18.6965C131.389 -19.6786 133.54 -20.7223 135.661 -21.8281C137.071 -22.5674 138.471 -23.3354 139.863 -24.1332C141.255 -24.9305 142.628 -25.7571 143.983 -26.6129C164.892 -39.8324 177.643 -55.8756 179.411 -72.5861C179.521 -73.5749 179.587 -74.5678 179.612 -75.5638V-76.0771C179.7 -83.2763 177.734 -90.4369 173.788 -97.2849C173.523 -97.7572 173.241 -98.2193 172.958 -98.6762L172.694 -99.0715C172.493 -99.3898 172.293 -99.7029 172.074 -100.011C171.974 -100.165 171.864 -100.319 171.755 -100.473C171.555 -100.757 171.354 -101.034 171.153 -101.305C171.044 -101.459 170.926 -101.613 170.807 -101.762C170.597 -102.039 170.388 -102.306 170.169 -102.573L169.841 -102.983L169.075 -103.877C168.993 -103.969 168.92 -104.062 168.838 -104.149C168.492 -104.534 168.146 -104.909 167.79 -105.278L167.644 -105.422C167.334 -105.735 167.025 -106.043 166.733 -106.341L166.377 -106.67C166.122 -106.906 165.867 -107.142 165.612 -107.368C165.475 -107.491 165.338 -107.604 165.211 -107.722C164.956 -107.938 164.7 -108.153 164.445 -108.359L164.035 -108.697C163.762 -108.913 163.488 -109.123 163.206 -109.334L162.832 -109.616C162.486 -109.878 162.13 -110.13 161.765 -110.381L161.611 -110.489C161.191 -110.777 160.772 -111.059 160.334 -111.331C160.243 -111.393 160.143 -111.449 160.043 -111.511C159.715 -111.716 159.377 -111.921 159.049 -112.116L158.603 -112.373L157.691 -112.887L157.208 -113.143L156.297 -113.61L155.823 -113.847C155.495 -114.011 155.157 -114.165 154.82 -114.324L154.437 -114.504C153.526 -114.93 152.532 -115.33 151.557 -115.71L151.138 -115.864C150.792 -115.998 150.436 -116.131 150.081 -116.254L149.561 -116.434C149.233 -116.552 148.896 -116.66 148.568 -116.773L148.021 -116.947L146.991 -117.266L146.48 -117.415C146.088 -117.533 145.687 -117.64 145.286 -117.753L144.931 -117.851L143.336 -118.257L143.108 -118.308C142.652 -118.416 142.196 -118.523 141.732 -118.621L141.221 -118.734L140.1 -118.965L139.517 -119.078L138.432 -119.278L138.095 -119.34L137.831 -119.386L136.691 -119.576L136.153 -119.658C135.68 -119.735 135.242 -119.802 134.732 -119.869L134.467 -119.91L132.754 -120.13L132.28 -120.182L131.031 -120.325L130.384 -120.387L129.281 -120.495L128.588 -120.556L127.495 -120.644L126.811 -120.7L125.644 -120.777L125.025 -120.818L123.402 -120.906H123.019L121.47 -120.972H120.768L119.656 -121.008H118.863L117.824 -121.034H117.004H115.965H113.303H111.535H110.742H109.667H108.755H107.844H106.877L105.966 -121.008L104.972 -120.977L104.061 -120.947L103.04 -120.911L102.265 -120.88L99.6313 -120.767H99.4491L98.2277 -120.705L97.5715 -120.675L96.3592 -120.613L95.7121 -120.577L94.436 -120.51L93.9165 -120.479L92.522 -120.397H92.2941C88.5662 -120.177 84.8293 -119.93 81.1014 -119.689L77.7017 -119.468L76.7902 -119.412L72.2329 -119.129H71.8501L67.4751 -118.883H67.0102C65.479 -118.806 63.9477 -118.734 62.453 -118.672L54.8879 -118.385C53.0649 -118.313 51.3058 -118.226 49.5194 -118.133L48.3071 -117.974L44.0233 -117.733L42.8384 -117.661C39.2472 -117.442 35.6561 -117.199 32.0649 -116.932L30.9894 -116.85L26.4321 -116.501L25.5207 -116.434C17.0897 -115.772 8.64958 -115.038 0.209472 -114.334L-1.95068 -114.16L-4.55745 -113.944L-7.29183 -113.729L-9.74365 -113.539L-11.8491 -113.369L-11.8491 -252.973L32.7394 -232.992L37.0871 -231.077C94.7095 -205.875 162.932 -189.447 223.781 -166.817C249.475 -157.263 271.423 -144.819 296.333 -134.633C343.273 -115.438 380.379 -101.556 439.888 -96.2068C482.289 -92.3975 527.288 -99.3693 568.549 -92.685C604.652 -86.8428 629.972 -67.5293 664.918 -59.7773C702.935 -51.3476 745.199 -50.8907 784.565 -44.6736C813.476 -40.1251 840.273 -31.7929 869.331 -27.5729C1001.77 -8.36216 1183.44 -4.15757 1311.93 -5.77473L1314.03 -5.80553C1374.31 -6.77068 1366.55 -15.8627 1419.94 -25.3654C1457.95 -32.1369 1497.48 -35.9153 1535.7 -42.2659C1566.6 -47.3997 1595.85 -55.6138 1627.2 -59.7773C1646.89 -62.3904 1667.9 -65.1575 1689.18 -67.5037L1688.06 -67.1392L1688.08 -67.1597ZM-8.20329 65.765C-7.73773 66.3132 -7.22363 66.8477 -6.66292 67.3667C-7.22363 66.8477 -7.73773 66.3132 -8.20329 65.765Z" fill="#D53A2C"/>
<path d="M3146.35 -827.867C3210.32 -770.369 3149.16 -707.474 3123.9 -651.11C3117.04 -635.806 3117.29 -619.568 3108.79 -604.531C3101.06 -590.849 3084.34 -579.226 3075.67 -565.73L3067.47 -552.936C3053.47 -530.902 3068.93 -518.227 3064.08 -509.463L3062.96 -507.41L3056.74 -500.109C3051.03 -493.379 3044.22 -472.022 3036.08 -462.119L3032.28 -457.499C2986.51 -401.761 3022.71 -356.327 3006.27 -301.888C2986.65 -236.863 2976.9 -323.886 2990 -220.686C2996.87 -166.617 3044.82 -106.526 3100.19 -62.3544C3107.89 -56.1939 3121.21 -45.9262 3133.77 -29.8985C3146.33 -13.8707 3161.68 42.401 3191.92 76.7667C3200.96 86.9876 3212.88 96.3137 3227.23 104.381C3193.28 95.1406 3168.7 102.672 3142.97 110.542C3130.16 114.459 3117.05 118.469 3102.37 120.538C3062.21 126.185 3049 108.858 3033.7 88.7644C3031.06 85.3042 3028.37 81.7619 3025.49 78.2401L3023.67 76.0274C3012.23 61.8992 3004.26 34.957 2995.76 6.26923C2989.56 -14.7024 2983.07 -36.6032 2974.75 -55.1158L2973.52 -57.8007C2965.97 -73.9774 2942.47 -82.9564 2919 -91.8892C2908 -96.0887 2897 -100.283 2887.65 -105.237C2840.52 -130.229 2819.06 -169.045 2840.71 -193.421C2848.13 -201.635 2861.26 -205.937 2874.78 -209.808L2884.92 -212.672C2888.33 -213.578 2891.83 -214.378 2895.39 -215.07C2906.78 -217.406 2918.44 -219.803 2918.03 -227.011C2917.58 -235.138 2903.3 -238.732 2890.23 -241.386L2882.67 -242.926C2868.36 -245.909 2853.15 -247.685 2838.01 -249.451C2833.9 -249.934 2829.8 -250.411 2825.7 -250.914L2824.79 -251.027C2822.38 -251.32 2819.89 -251.54 2817.4 -251.777C2806.19 -252.803 2794.86 -253.861 2789.46 -260.751C2782.96 -269.078 2790.12 -276.152 2797.81 -282.78L2801.46 -285.901C2814.52 -296.769 2833.08 -304.758 2855.12 -307.756L2856.86 -308.002C2904.97 -315.02 2914.82 -335.119 2925.5 -356.897C2927.03 -360.018 2928.57 -363.175 2930.26 -366.332L2931.53 -368.694C2950.92 -403.604 2974.16 -437.821 2997.39 -472.007C3028.26 -517.4 3059.1 -562.788 3080.89 -609.87L3081.94 -612.103C3088.52 -625.913 3096.63 -639.513 3104.73 -653.107C3121.53 -681.271 3138.32 -709.425 3141.46 -739.432C3147.42 -796.217 3090.97 -843.305 2979.74 -871.766L2980.04 -871.689L2989.39 -870.729C3032.8 -866.212 3072.53 -861.417 3109.39 -852.248C3123.64 -845.137 3136.04 -836.933 3146.22 -827.877" fill="#E6C6A7"/>
<path d="M2484.53 -6.84251C2432.5 6.30518 2386.5 30.2801 2344.52 57.9154C2336.9 62.9311 2332.67 67.4232 2331.21 71.3916C2299.32 76.3725 2268.3 82.9848 2238.54 91.1465C2221.05 95.9467 2203.68 101.342 2184.55 103.314C2156.29 106.23 2127.47 101.383 2100.5 95.8337C2095.62 94.8326 2090.48 93.7083 2087.21 91.4392C2082.54 88.21 2082.77 83.5331 2084.48 79.4774C2094.6 55.3844 2142.81 43.474 2186.08 39.0384C2231.65 34.3666 2279.18 33.8532 2322.18 24.1503C2335.29 21.183 2347.77 17.3993 2360.22 13.626C2402.64 0.755526 2445.23 -12.1663 2484.03 -28.2608C2513.95 -40.6692 2546.36 -55.7575 2583.19 -53.016C2583.09 -51.8486 2582.9 -50.6904 2582.62 -49.5404C2560.48 -34.6524 2530.25 -18.3782 2484.53 -6.82197" fill="#5F5F6B"/>
<path d="M2484.54 -6.84252C2604.17 -37.0755 2617.71 -99.5181 2657.93 -85.703C2688.76 -75.2043 2598.74 -6.6423 2590.98 11.5211C2575.68 47.4578 2655.48 99.2785 2579.4 108.463C2503.32 117.647 2490.47 86.6185 2426.81 91.9987C2363.16 97.379 2302.54 85.5353 2344.52 57.9154C2386.5 30.2955 2432.5 6.30517 2484.54 -6.84252Z" fill="#D53A2C"/>
<path d="M1339.93 8.41003C1369.32 4.78556 1400.4 -8.91145 1444.45 -17.7057C1476.6 -24.1229 1514.11 -27.4599 1547.15 -33.5127C1575.4 -38.6773 1605.14 -48.719 1627.24 -53.9042C1651.62 -59.6284 1667.5 -60.5473 1678.47 -64.0435L1678.97 -64.1923L1677.77 -63.8022C1670.6 -61.5073 1663.48 -59.8491 1655.45 -57.9855C1643.37 -55.2929 1631.6 -52.1684 1620.23 -48.6317C1613.76 -46.5782 1606.18 -43.6827 1598.16 -40.5922C1584.15 -35.1966 1568.77 -29.2721 1555.51 -26.6128C1539.47 -23.4042 1522.29 -21.6433 1505.38 -19.9081C1481.09 -17.4182 1457.33 -14.9847 1438.3 -8.38266C1381.08 11.4493 1317.08 23.6729 1269.46 23.6729C1206.45 23.6729 1140.39 24.905 1091.91 26.7531C1113.04 22.4351 1134.57 18.8045 1156.44 15.8797C1212.7 8.50245 1273.59 16.5985 1339.94 8.41517" fill="#4195C4"/>
<path d="M2716.97 -29.9241C2732.67 -49.561 2753.26 -68.284 2761.26 -89.3429C2772.96 -120.094 2756.83 -153.515 2777.27 -182.778C2778.82 -184.986 2780.83 -187.322 2784.62 -188.369C2796 -191.516 2803.31 -181.182 2802.85 -174.04C2799.53 -115.337 2805.63 -56.5845 2821.08 1.49993C2823.49 10.52 2826.16 19.6171 2832.33 28.052C2841.7 40.8865 2858.7 51.5751 2867.59 64.5021C2872.77 72.1638 2874.98 80.3604 2874.06 88.5421C2873.15 96.7234 2869.15 104.7 2862.32 111.938C2840.51 119.316 2810.74 113.284 2794.34 102.333C2777.94 91.3827 2771.64 76.8694 2765.84 62.9208C2761.15 51.6573 2756.47 40.3957 2751.77 29.1352C2750.92 27.0817 2749.9 24.8742 2747.02 23.5291C2725.34 13.436 2719.61 42.7296 2698.53 23.1543C2685.04 10.633 2707.74 -18.4552 2716.89 -29.8985" fill="#40B5AD"/>
<path d="M2462.76 -67.5241C2448.03 -58.7658 2435.47 -49.3094 2421.97 -39.9915C2407.39 -29.8984 2387.25 -23.1783 2367.29 -17.1152C2332.65 -6.61147 2295.54 1.79257 2260.81 12.6249C2209.59 28.6013 2161.88 37.6574 2103.13 37.1029C2054.25 36.6357 2011.62 51.4262 1975.24 68.5218C1958.04 76.6076 1935.87 79.6417 1915.34 83.6871C1888.06 89.0673 1860.6 95.0328 1832.72 99.4992C1801.12 104.561 1751.05 112.934 1719.13 106.06C1713.43 104.833 1710.37 102.467 1713.72 99.2887C1715.61 97.5581 1717.88 95.9723 1720.49 94.5708C1760.59 87.979 1800 79.385 1838.9 70.8423C1849.59 68.4962 1860.47 66.0781 1869.73 62.3304L1871.44 62.0173C1871.39 61.9043 1871.34 61.7914 1871.29 61.6785C1872.36 61.2164 1873.42 60.7338 1874.45 60.2307C1884.87 55.0969 1891.66 48.0944 1899.72 41.749C1909.25 34.2783 1920.69 27.6454 1933.68 22.066C1959.2 25.326 1983.23 28.1341 2008.66 25.6853C2032.96 23.3494 2047.34 15.0173 2066.39 6.01257C2093.87 -6.97596 2125.03 -18.8145 2155.75 -28.8049C2182.73 -37.5837 2215.59 -40.3663 2246.21 -44.2064C2282.17 -48.7292 2316.7 -54.0633 2351.09 -61.4765C2383.38 -68.4379 2412.86 -76.7444 2442.64 -86.6938C2462.96 -93.4909 2504.95 -107.193 2511.18 -104.549C2517.4 -101.905 2474.85 -74.732 2462.72 -67.5138" fill="#5596DC"/>
<path d="M608.855 60.1845C613.54 59.6968 618.443 59.0653 621.952 57.248C627.075 54.5887 627.759 50.2403 628.087 46.3181C629.226 33.0215 628.998 17.81 611.453 8.91314C589.523 -2.17589 555.626 3.26595 526.359 5.20653C485.07 7.92231 443.106 2.12624 401.835 4.9601C330.623 9.83722 271.005 39.4798 200.111 45.6712C179.485 47.4732 157.519 47.3705 139.345 53.1615C133.457 55.0353 127.541 58.7316 130.303 62.2021C131.925 64.2556 135.945 65.2567 139.664 66.037C208.251 80.4785 289.243 74.554 349.007 50.7229C359.179 46.6672 368.786 42.1238 379.641 38.6841C412.691 28.206 456.14 30.5881 486.966 42.5345C501.631 48.2125 509.606 57.3404 525.247 61.1856C546.93 66.5042 586.515 62.5204 608.828 60.1845" fill="#5596DC"/>
<path d="M1463.8 68.2241L1233.66 89.9298C1216.34 91.5675 1198.51 93.2873 1183.28 98.2569C1169.46 102.769 1158.46 109.746 1144.24 113.838C1128.66 118.315 1110.59 118.972 1093.11 119.162C1031.35 119.877 969.682 116.218 909.545 108.268C894.643 106.296 876.824 102.153 875.657 93.5646C874.363 84.1492 894.105 78.6406 910.593 76.931C972.927 70.4778 1037.89 79.7341 1100.18 73.2141C1149.1 68.0803 1193.28 53.5825 1241.13 45.892C1286.04 38.6739 1333.19 37.5958 1379.88 36.5639L1518.01 33.5144C1539.2 33.0472 1560.67 32.5544 1580.9 29.012C1607.2 24.4173 1629.81 14.9967 1652.9 6.56702C1704.4 -12.2027 1760.49 -26.6272 1819.4 -36.249C1799.75 -9.59935 1755.95 10.9821 1705.88 17.0605C1654.5 23.3084 1640.56 35.2393 1597.34 48.0174C1556.71 60.0305 1508.45 64.0092 1463.75 68.2241" fill="#8B7AB0"/>
<path d="M2127.86 -59.0072C2105.89 -43.8008 2069.36 -37.0806 2047.48 -21.823C2039.92 -16.5454 2034.31 -10.3694 2025.75 -5.60014C2010.56 2.87065 1988.51 5.72505 1968.86 10.4636C1941.19 17.1714 1917.27 27.9976 1899.7 41.7798C1891.64 48.1201 1884.85 55.1277 1874.43 60.2615C1864.29 65.2619 1851.45 68.1168 1838.89 70.8731C1760.34 88.1232 1679.68 105.619 1595.37 106.296C1554.36 106.625 1513.39 102.944 1472.49 104.469C1391.56 107.487 1318.01 130.384 1243.63 148.62C1169.25 166.855 1070.66 179.674 1008.07 165.3C992.359 155.951 1085.26 159.293 1109.83 141.884C1122.87 132.643 1134.22 122.299 1147.11 112.96C1159.97 108.802 1170.39 102.472 1183.25 98.2723C1198.48 93.3027 1216.26 91.5983 1233.62 89.9452L1463.8 68.2241C1508.46 64.0092 1556.77 60.01 1597.39 48.0174C1640.62 35.2342 1654.55 23.3089 1705.93 17.0605C1756.01 10.9615 1799.81 -9.59937 1819.45 -36.249C1816.91 -35.8331 1814.37 -35.3968 1811.83 -34.9599C1844.51 -44.7141 1876.7 -54.9823 1908.55 -65.5374C1927.91 -71.9649 1947.51 -78.5978 1969.34 -81.5908C1981.65 -83.2747 1994.43 -83.7619 2006.55 -85.8364C2041.42 -91.8071 2052.03 -86.262 2051.21 -85.6409C2047.34 -82.5606 2050.1 -80.7283 2057.2 -80.6308C2088.7 -80.2047 2119.74 -91.2834 2132.5 -107.511C2137.9 -114.37 2140.3 -122.019 2147.63 -128.282C2154.97 -134.546 2170.01 -139.038 2181.66 -135.393C2153.25 -112.897 2158.74 -80.4152 2127.8 -59.0072" fill="#FEECA5"/>
<path d="M3511.35 77.2852C3508.63 77.2534 3505.93 77.0645 3503.28 76.7205C3465.42 76.5614 3468.65 111.245 3443.51 127.874C3420.45 143.126 3387.82 151.31 3334.36 140.436C3297.47 132.936 3258.06 121.806 3227.25 104.335C3212.9 96.267 3200.97 86.9409 3191.93 76.7205C3161.69 42.3548 3146.35 -13.9426 3133.78 -29.9498C3121.2 -45.957 3107.9 -56.2606 3100.2 -62.4006C3044.83 -106.551 2996.88 -166.663 2990.01 -220.732C2976.9 -323.922 2986.66 -236.909 3006.28 -301.934C3022.69 -356.352 2986.52 -401.807 3032.29 -457.545L3036.09 -462.165C3044.23 -472.053 3051.04 -493.41 3056.75 -500.156L3062.97 -507.456L3064.09 -509.509C3068.94 -518.273 3053.48 -530.948 3067.48 -552.982L3075.68 -565.776C3084.35 -579.273 3101.07 -590.896 3108.8 -604.577C3117.3 -619.614 3117.01 -635.852 3123.91 -651.156C3149.17 -707.52 3210.33 -770.399 3146.36 -827.919C3136.17 -836.975 3123.78 -845.173 3109.54 -852.284C3112.37 -851.58 3115.17 -850.851 3117.96 -850.091C3127.76 -846.554 3137.48 -843.284 3147.58 -840.727C3180.16 -828.807 3210.48 -811.819 3239.2 -786.432L3241.4 -784.476C3242.15 -783.793 3242.91 -783.131 3243.66 -782.474L3244.22 -781.961L3244 -782.063L3243.62 -782.243L3242.96 -782.52L3242.67 -782.638L3242.18 -782.828L3241.89 -782.931C3241.64 -783.018 3241.38 -783.106 3241.13 -783.183C3241.88 -781.57 3242.62 -779.953 3243.36 -778.336C3243.75 -777.479 3244.14 -776.616 3244.53 -775.769C3244.88 -774.989 3245.24 -774.229 3245.58 -773.428C3246 -772.525 3246.4 -771.621 3246.81 -770.712C3247.24 -769.722 3247.69 -768.726 3248.14 -767.735C3248.36 -767.222 3248.58 -766.708 3248.81 -766.22C3249.56 -764.511 3250.31 -762.817 3251.06 -761.148C3254.64 -753.093 3258.22 -745.028 3262 -737.019L3262.14 -736.716C3264.01 -732.758 3265.92 -728.81 3267.89 -724.873L3268.02 -724.595C3268.96 -722.737 3269.92 -720.879 3270.9 -719.025C3270.96 -718.887 3271.03 -718.753 3271.11 -718.62C3272.13 -716.674 3273.17 -714.733 3274.23 -712.788C3282.81 -697.35 3306.8 -692.951 3331.94 -690.512L3334.38 -690.281L3339.85 -689.768C3397.86 -684.603 3412.07 -672.2 3399.36 -640.298C3399.24 -640.011 3399.13 -639.723 3399.01 -639.431L3398.01 -636.941L3397.01 -634.446C3390.26 -617.289 3384.62 -599.982 3379.2 -582.635C3378.84 -581.48 3378.48 -580.325 3378.12 -579.165L3378.04 -578.929L3374.99 -569.072C3368.44 -548.105 3348.08 -534.454 3319.11 -526.779C3317.91 -526.456 3316.69 -526.148 3315.47 -525.85C3313 -525.25 3310.46 -524.695 3307.88 -524.177C3302.6 -523.124 3297.2 -522.246 3291.73 -521.553C3290.33 -521.374 3288.92 -521.204 3287.5 -521.04L3270.64 -519.104C3254.23 -517.236 3237.66 -515.577 3221.62 -515.511C3193.03 -515.408 3166.07 -520.398 3144.49 -538.438L3144.11 -538.757L3143.63 -539.116C3142.2 -540.143 3140.89 -540.559 3139.78 -540.589C3137.76 -540.641 3136.18 -539.445 3134.98 -538.115L3134.76 -537.869C3134.61 -537.699 3134.48 -537.53 3134.34 -537.355C3134.14 -537.104 3133.96 -536.842 3133.79 -536.616L3131.89 -533.915C3130.35 -531.693 3128.89 -529.475 3127.51 -527.277C3085.29 -459.989 3114.7 -404.338 3270.74 -383.757C3274.51 -373.833 3279.47 -363.976 3281.89 -353.929C3287.94 -328.845 3278.05 -303.438 3278.75 -278.128C3279.26 -259.395 3285.58 -240.883 3291.88 -222.483C3298.03 -204.484 3304.2 -186.449 3313.42 -168.871C3319.91 -156.503 3328.22 -144.08 3343.3 -134.377C3353.02 -128.134 3365.04 -123.344 3378.22 -119.617C3378.3 -118.852 3378.38 -118.077 3378.5 -117.327C3378.49 -117.317 3378.49 -117.307 3378.5 -117.296C3378.59 -116.716 3378.71 -116.141 3378.88 -115.582C3378.88 -115.536 3378.88 -115.489 3378.92 -115.438C3379 -115.181 3379.09 -114.925 3379.19 -114.683C3379.19 -114.666 3379.19 -114.649 3379.19 -114.632C3379.31 -114.37 3379.43 -114.119 3379.58 -113.862C3379.6 -113.816 3379.62 -113.772 3379.66 -113.728C3379.78 -113.528 3379.91 -113.328 3380.05 -113.138L3380.19 -112.958C3380.37 -112.734 3380.57 -112.514 3380.79 -112.301C3381.48 -111.617 3382.16 -110.932 3382.81 -110.248C3382.97 -110.089 3383.12 -109.935 3383.27 -109.775C3383.92 -109.091 3384.55 -108.406 3385.16 -107.722L3385.38 -107.47C3385.91 -106.865 3386.44 -106.254 3386.96 -105.643C3387.12 -105.458 3387.28 -105.273 3387.43 -105.093C3387.98 -104.431 3388.52 -103.774 3389.05 -103.112C3389.18 -102.942 3389.3 -102.773 3389.44 -102.598C3389.86 -102.085 3390.26 -101.525 3390.67 -100.991C3390.84 -100.771 3391 -100.555 3391.15 -100.339C3391.63 -99.7029 3392.07 -99.0663 3392.54 -98.4246C3392.7 -98.1833 3392.88 -97.9369 3393.05 -97.6956C3393.36 -97.2335 3393.68 -96.7766 3393.96 -96.3146C3394.13 -96.0476 3394.32 -95.8012 3394.49 -95.5188C3394.89 -94.9182 3395.27 -94.3175 3395.66 -93.7169C3395.87 -93.3883 3396.08 -93.0597 3396.28 -92.7363L3396.93 -91.6634C3397.3 -91.0714 3397.65 -90.481 3398 -89.8922L3398.52 -89.0092L3399.28 -87.6846L3399.57 -87.1713C3404.32 -78.7621 3408.29 -70.1937 3412.97 -61.7538C3428.67 -33.0609 3470.01 -21.248 3517.37 -14.3636V76.6692C3515.44 77.1153 3513.36 77.3253 3511.28 77.2852" fill="#ED746E"/>
<path d="M1688.08 -67.1597L1682.85 -65.4604L1678.99 -64.2026L1678.47 -64.0435C1667.53 -60.5474 1651.62 -59.6284 1627.24 -53.9042C1605.14 -48.7191 1575.36 -38.6773 1547.15 -33.5127C1514.11 -27.4702 1476.6 -24.123 1444.45 -17.7057C1400.4 -8.91148 1369.32 4.78553 1339.93 8.41C1273.58 16.5933 1212.7 8.49729 1156.43 15.8746C1134.56 18.7998 1113.02 22.4299 1091.9 26.748C1029.47 39.3207 978.341 54.717 946.066 57.1607C899.026 60.7236 868.775 72.0487 845.733 85.2786C837.22 85.6533 763.802 140.436 731.764 140.436C669.156 140.436 634.666 123.731 613.739 76.7205C613.235 75.5983 612.728 74.4873 612.217 73.3887C612.728 74.4873 613.247 75.5962 613.749 76.7205C613.247 75.5962 612.728 74.4822 612.208 73.3784C612.163 73.2911 612.126 73.2039 612.081 73.1166C611.561 72.0128 611.023 70.9142 610.485 69.8361V69.7899C610.212 69.2405 609.93 68.6912 609.647 68.147C609.364 67.6029 609.082 67.0638 608.799 66.5248V66.4683C608.371 65.6571 607.933 64.846 607.487 64.0503C607.936 64.8445 608.374 65.6505 608.799 66.4683C608.271 65.4672 607.733 64.4866 607.186 63.5112C607.013 63.2032 606.831 62.9003 606.657 62.5923C606.265 61.8992 605.864 61.2061 605.454 60.5387L605.837 61.1753L605.454 60.5387L608.9 60.1794C613.584 59.6917 618.488 59.0602 621.997 57.2428C627.129 54.5835 627.803 50.2352 628.131 46.3129C629.271 33.0164 629.043 17.8049 611.497 8.90798C589.568 -2.18105 555.67 3.2608 526.403 5.19624C485.114 7.9223 443.151 2.11596 401.88 4.95495C381.135 6.37702 361.375 9.89882 342.025 14.3344L338.096 14.5449L337.185 14.5963C335.298 14.7041 333.42 14.8119 331.534 14.93H331.206C329.492 15.0378 327.778 15.1456 326.065 15.2636L324.844 15.3458L320.004 15.6897L319.302 15.7411C317.479 15.8797 315.592 16.0286 313.742 16.1775L312.903 16.2442L308.228 16.6446L306.97 16.7576C305.229 16.9167 303.497 17.0759 301.756 17.271H301.538C299.715 17.4507 297.892 17.6355 296.023 17.8306L294.911 17.9486C293.426 18.1078 291.949 18.2721 290.463 18.462L289.242 18.6006C285.596 19.0216 281.987 19.4718 278.414 19.9508L277.165 20.1202L272.763 20.7363L271.66 20.8954C269.837 21.1557 268.032 21.4278 266.246 21.7117L265.799 21.7836C264.177 22.0403 262.555 22.297 260.932 22.5742L259.62 22.795C258.118 23.0516 256.615 23.3155 255.108 23.5856L254.251 23.7344C252.465 24.0563 250.685 24.39 248.91 24.7355L247.999 24.9101C246.522 25.1976 245.048 25.4938 243.578 25.7982L242.256 26.0703C240.652 26.404 239.048 26.7428 237.444 27.0971L236.979 27.1998C235.211 27.5899 233.452 27.9904 231.702 28.4011L230.553 28.6732C229.15 29.0156 227.752 29.358 226.361 29.6999L225.075 30.0182C223.344 30.4546 221.603 30.9012 219.871 31.3633L218.048 31.8356C216.018 32.3459 213.977 32.8059 211.923 33.2166L211.65 33.2731L209.89 33.6119L209.435 33.694L207.84 33.9764L207.275 34.0688L205.789 34.3101L205.151 34.4076L203.729 34.6181L203.036 34.7157L201.669 34.9005L200.922 34.9929L199.6 35.152L198.816 35.2393L197.513 35.3831L196.72 35.4652L195.426 35.5884L194.614 35.6654L193.338 35.7732L192.5 35.84L191.242 35.9324L190.394 35.9888L189.137 36.071L188.28 36.1223L187.031 36.1942L186.12 36.2353L184.871 36.2917L183.959 36.3277L182.72 36.3739L181.808 36.4047L180.651 36.4406H179.739L178.472 36.4714H177.607H176.349H175.437H174.17H168.93H167.672H166.888H165.466H164.746L163.26 36.4406H162.595L161.027 36.4047H160.453L158.73 36.3585H158.311L156.379 36.302H156.169C154.474 36.2507 152.778 36.1993 151.083 36.1377L147.747 36.0248L143.919 35.8913L143.163 35.8656L142.379 35.84H142.105L140.957 35.8143H140.045H138.924H136.901H135.989H134.923H134.012L132.954 35.8451L132.116 35.8759L131.086 35.9221L130.338 35.9272L129.327 35.9888L128.543 36.0402L127.558 36.1172L126.802 36.1788L125.836 36.2712L125.107 36.3431L124.195 36.4458L123.493 36.5279L122.582 36.6511L121.916 36.7384L121.005 36.8719L120.367 36.9745L119.456 37.1234L118.845 37.2261L117.933 37.3904L117.35 37.5084L116.484 37.683L115.919 37.8062L115.071 38.0013L114.534 38.1245L113.695 38.335L113.194 38.4685L112.374 38.6944L111.881 38.833L111.079 39.0691L110.624 39.2129L109.831 39.4696L109.393 39.6133L108.618 39.8854L108.208 40.0343L107.443 40.3218L107.06 40.4758L106.303 40.7787L105.948 40.9327C105.693 41.0405 105.446 41.1432 105.209 41.2561L104.863 41.4101C104.617 41.518 104.38 41.6309 104.143 41.749L103.824 41.903L103.104 42.2572L102.812 42.4112C102.575 42.5345 102.338 42.6577 102.111 42.786L101.837 42.9349L101.135 43.3302L100.898 43.4739C100.661 43.6126 100.433 43.7512 100.206 43.8949L99.9868 44.0284C99.7589 44.1773 99.522 44.321 99.3032 44.4699L99.1027 44.6034C98.8748 44.7523 98.647 44.9063 98.4282 45.0603L98.255 45.1835L97.5806 45.6712C97.5806 45.7072 97.4894 45.7482 97.4347 45.7842C97.2069 45.9536 96.9881 46.123 96.7694 46.2975C96.7694 46.3283 96.6873 46.3591 96.6509 46.3951C96.423 46.5696 96.2043 46.7493 95.9855 46.9341L95.8852 47.0163C95.6574 47.2062 95.4386 47.391 95.2199 47.5861L95.1561 47.6477C94.9282 47.848 94.7095 48.0482 94.4907 48.2484L94.4451 48.2895C94.2264 48.4999 93.9985 48.7104 93.7798 48.9261C87.5636 55.0558 84.328 62.7155 81.5389 70.5497L79.397 76.7102L81.5389 70.5805C81.4569 71.2889 75.979 116.615 -11.8491 117.555L-11.8491 -8.126C-2.06917 -7.22245 7.71989 -6.37538 17.4634 -5.73879C55.7446 -3.22835 93.0597 -3.89575 124.815 -16.8124C126.292 -17.411 127.756 -18.0394 129.208 -18.6965C131.389 -19.6786 133.54 -20.7223 135.661 -21.8281C137.071 -22.5674 138.471 -23.3354 139.863 -24.1332C141.255 -24.9305 142.628 -25.7571 143.983 -26.6129C164.892 -39.8324 177.643 -55.8756 179.411 -72.5861C179.521 -73.5749 179.587 -74.5678 179.612 -75.5638V-76.0771C179.7 -83.2763 177.734 -90.4369 173.788 -97.2849C173.523 -97.7572 173.241 -98.2193 172.958 -98.6762L172.694 -99.0715C172.493 -99.3898 172.293 -99.7029 172.074 -100.011C171.974 -100.165 171.864 -100.319 171.755 -100.473C171.555 -100.757 171.354 -101.034 171.153 -101.305C171.044 -101.459 170.926 -101.613 170.807 -101.762C170.597 -102.039 170.388 -102.306 170.169 -102.573L169.841 -102.983L169.075 -103.877C168.993 -103.969 168.92 -104.062 168.838 -104.149C168.492 -104.534 168.146 -104.909 167.79 -105.278L167.644 -105.422C167.334 -105.735 167.025 -106.043 166.733 -106.341L166.377 -106.67C166.122 -106.906 165.867 -107.142 165.612 -107.368C165.475 -107.491 165.338 -107.604 165.211 -107.722C164.956 -107.938 164.7 -108.153 164.445 -108.359L164.035 -108.697C163.762 -108.913 163.488 -109.123 163.206 -109.334L162.832 -109.616C162.486 -109.878 162.13 -110.13 161.765 -110.381L161.611 -110.489C161.191 -110.777 160.772 -111.059 160.334 -111.331C160.243 -111.393 160.143 -111.449 160.043 -111.511C159.715 -111.716 159.377 -111.921 159.049 -112.116L158.603 -112.373L157.691 -112.887L157.208 -113.143L156.297 -113.61L155.823 -113.847C155.495 -114.011 155.157 -114.165 154.82 -114.324L154.437 -114.504C153.526 -114.93 152.532 -115.33 151.557 -115.71L151.138 -115.864C150.792 -115.998 150.436 -116.131 150.081 -116.254L149.561 -116.434C149.233 -116.552 148.896 -116.66 148.568 -116.773L148.021 -116.947L146.991 -117.266L146.48 -117.415C146.088 -117.533 145.687 -117.64 145.286 -117.753L144.931 -117.851L143.336 -118.257L143.108 -118.308C142.652 -118.416 142.196 -118.523 141.732 -118.621L141.221 -118.734L140.1 -118.965L139.517 -119.078L138.432 -119.278L138.095 -119.34L137.831 -119.386L136.691 -119.576L136.153 -119.658C135.68 -119.735 135.242 -119.802 134.732 -119.869L134.467 -119.91L132.754 -120.13L132.28 -120.182L131.031 -120.325L130.384 -120.387L129.281 -120.495L128.588 -120.556L127.495 -120.644L126.811 -120.7L125.644 -120.777L125.025 -120.818L123.402 -120.906H123.019L121.47 -120.972H120.768L119.656 -121.008H118.863L117.824 -121.034H117.004H115.965H113.303H111.535H110.742H109.667H108.755H107.844H106.877L105.966 -121.008L104.972 -120.977L104.061 -120.947L103.04 -120.911L102.265 -120.88L99.6313 -120.767H99.4491L98.2277 -120.705L97.5715 -120.675L96.3592 -120.613L95.7121 -120.577L94.436 -120.51L93.9165 -120.479L92.522 -120.397H92.2941C88.5662 -120.177 84.8293 -119.93 81.1014 -119.689L77.7017 -119.468L76.7902 -119.412L72.2329 -119.129H71.8501L67.4751 -118.883H67.0102C65.479 -118.806 63.9477 -118.734 62.453 -118.672L54.8879 -118.385C53.0649 -118.313 51.3058 -118.226 49.5194 -118.133L48.3071 -117.974L44.0233 -117.733L42.8384 -117.661C39.2472 -117.442 35.6561 -117.199 32.0649 -116.932L30.9894 -116.85L26.4321 -116.501L25.5207 -116.434C17.0897 -115.772 8.64958 -115.038 0.209472 -114.334L-1.95068 -114.16L-4.55745 -113.944L-7.29183 -113.729L-9.74365 -113.539L-11.8491 -113.369L-11.8491 -252.973L32.7394 -232.992L37.0871 -231.077C94.7095 -205.875 162.932 -189.447 223.781 -166.817C249.475 -157.263 271.423 -144.819 296.333 -134.633C343.273 -115.438 380.379 -101.556 439.888 -96.2068C482.289 -92.3975 527.288 -99.3693 568.549 -92.685C604.652 -86.8428 629.972 -67.5293 664.918 -59.7773C702.935 -51.3476 745.199 -50.8907 784.565 -44.6736C813.476 -40.1251 840.273 -31.7929 869.331 -27.5729C1001.77 -8.36216 1183.44 -4.15757 1311.93 -5.77473L1314.03 -5.80553C1374.31 -6.77068 1366.55 -15.8627 1419.94 -25.3654C1457.95 -32.1369 1497.48 -35.9153 1535.7 -42.2659C1566.6 -47.3997 1595.85 -55.6138 1627.2 -59.7773C1646.89 -62.3904 1667.9 -65.1575 1689.18 -67.5037L1688.06 -67.1392L1688.08 -67.1597ZM-8.20329 65.765C-7.73773 66.3132 -7.22363 66.8477 -6.66292 67.3667C-7.22363 66.8477 -7.73773 66.3132 -8.20329 65.765Z" fill="#ED7342"/>
<path d="M2484.53 -6.84251C2432.5 6.30518 2386.5 30.2801 2344.52 57.9154C2336.9 62.9311 2332.67 67.4232 2331.21 71.3916C2299.32 76.3725 2268.3 82.9848 2238.54 91.1465C2221.05 95.9467 2203.68 101.342 2184.55 103.314C2156.29 106.23 2127.47 101.383 2100.5 95.8337C2095.62 94.8326 2090.48 93.7083 2087.21 91.4392C2082.54 88.21 2082.77 83.5331 2084.48 79.4774C2094.6 55.3844 2142.81 43.474 2186.08 39.0384C2231.65 34.3666 2279.18 33.8532 2322.18 24.1503C2335.29 21.183 2347.77 17.3993 2360.22 13.626C2402.64 0.755526 2445.23 -12.1663 2484.03 -28.2608C2513.95 -40.6692 2546.36 -55.7575 2583.19 -53.016C2583.09 -51.8486 2582.9 -50.6904 2582.62 -49.5404C2560.48 -34.6524 2530.25 -18.3782 2484.53 -6.82197" fill="#E6C6A7"/>
<path d="M2484.54 -6.84252C2604.17 -37.0755 2617.71 -99.5181 2657.93 -85.703C2688.76 -75.2043 2598.74 -6.6423 2590.98 11.5211C2575.68 47.4578 2655.48 99.2785 2579.4 108.463C2503.32 117.647 2490.47 86.6185 2426.81 91.9987C2363.16 97.379 2302.54 85.5353 2344.52 57.9154C2386.5 30.2955 2432.5 6.30517 2484.54 -6.84252Z" fill="#ED746E"/>
<path d="M1793.3 -545.723L1791.61 -542.92C1717.55 -422.891 1573.46 -332.972 1400.59 -254.913C1296.16 -207.805 1179.72 -172.674 1060.01 -140.429C1041.78 -135.511 1011.06 -127.522 999.96 -138.175C992.495 -145.414 1004.81 -150.891 1017.38 -156.482C1023.48 -159.193 1029.64 -161.929 1033.62 -164.907C1035.15 -166.021 1036.64 -167.135 1038.12 -168.249C1039.64 -169.383 1041.15 -170.518 1042.68 -171.658C1041.3 -171.535 1039.88 -171.458 1038.48 -171.386C1035.07 -171.201 1031.69 -171.021 1028.85 -170.22C965.051 -152.935 899.262 -138.18 833.455 -123.426L832.771 -123.272L831.805 -126.234C831.122 -128.287 706.671 -107.752 516.796 -70.0648C326.921 -32.3774 250.459 5.21231 19.3404 -4.89616C3.30782 -5.59436 -11.0567 -11.0567 -26.8614 -12.7047C-107.07 -21.1498 -203.456 -27.2539 -278.424 -47.8508C-416.136 -85.7075 -545.199 -136.121 -688.361 -167.967C-802.285 -193.312 -923.126 -195.391 -1033.59 -225.25C-1081.13 -238.084 -1106.71 -251.103 -1141.15 -268.651V-502.542C-1135.17 -502.029 -1129.15 -501.562 -1123.13 -501.094C-1080.21 -497.783 -1036.73 -494.42 -1004.97 -475.836C-969.492 -455.049 -975.307 -417.562 -1014.08 -381.512L-1015.41 -380.265C-1058.82 -339.236 -1048.81 -319.717 -974.24 -295.485C-937.117 -283.395 -898.133 -270.879 -857.92 -270.201H-858.503C-727.253 -250.57 -597.589 -229.413 -472.209 -200.243C-468.381 -198.944 -464.571 -197.63 -460.834 -196.279C-427.903 -184.441 -397.433 -170.492 -364.219 -158.869C-345.544 -152.329 -323.495 -149.043 -305.54 -141.892C-239.969 -115.786 -289.662 -120.92 -223.035 -108.009L-219.27 -107.29C-178.473 -99.5893 -104.344 -89.0855 -70.7025 -104.21C-37.6257 -119.057 -75.4604 -122.691 -26.1869 -124.637C1.15682 -125.715 28.701 -122.63 55.9992 -123.929C58.8429 -124.062 60.2192 -127.748 57.8221 -128.636L52.8547 -132.492C94.6451 -127.533 139.498 -119.534 152.031 -137.754L154.373 -138.493C186.119 -136.44 218.904 -134.771 252.81 -133.159L264.049 -132.646C324.998 -129.802 430.144 -126.331 502.176 -135.726L548.333 -141.758C678.671 -158.849 588.774 -148.186 728.346 -181.972L733.085 -183.116C889.929 -220.809 908.996 -216.05 1026.24 -288.873L1035.82 -294.854C1064.55 -312.925 1120.34 -349.621 1119.67 -373.36C1119.47 -380.034 1103.55 -384.141 1101.82 -390.758C1099.3 -400.348 1114.41 -410.78 1107.51 -419.662C1103.99 -424.18 1091.63 -414.954 1085.92 -411.206C1068.28 -399.645 1059.63 -393.654 1054.69 -390.83C951.051 -340.139 834.795 -301.841 704.165 -277.563C701.503 -276.993 699.115 -275.782 696.745 -274.58C695.706 -274.067 694.667 -273.554 693.61 -273.04C694.357 -272.527 695.086 -272.013 695.825 -271.469C697.52 -270.173 699.398 -268.953 701.43 -267.819C729.257 -253.84 708.321 -247.962 692.024 -243.387C690.019 -242.823 688.086 -242.284 686.327 -241.745L681.46 -240.204C636.917 -226.415 588.109 -219.356 539.273 -212.292C521.818 -209.766 504.355 -207.24 487.092 -204.411C483.637 -203.694 480.338 -202.752 477.266 -201.603C475.753 -201.09 474.24 -200.577 472.709 -200.109C474.532 -199.925 476.355 -199.673 478.178 -199.427C482.434 -198.841 486.727 -198.256 490.938 -198.467C585.912 -202.769 677.058 -216.389 766.754 -233.7L767.456 -233.833C769.826 -234.301 772.46 -234.86 775.194 -235.497C787.435 -238.228 801.927 -241.457 805.865 -236.77C811.197 -230.43 797.161 -225.809 785.612 -222.01C783.361 -221.271 781.201 -220.557 779.305 -219.874L775.787 -218.612C661.855 -178.101 533.448 -162.653 402.426 -152.488L394.323 -151.867C200.739 -137.123 22.6216 -159.958 -142.762 -219.361C-157.428 -224.634 -172.941 -229.203 -188.399 -233.736C-232.395 -246.683 -275.899 -259.497 -298.139 -288.067C-313.096 -307.344 -316.295 -327.803 -319.485 -348.256C-320.998 -357.902 -322.502 -367.543 -325.246 -377.067L-325.455 -377.801C-331.726 -399.188 -344.851 -417.172 -388.2 -422.639L-388.847 -422.727C-397.962 -424.082 -397.123 -428.656 -389.649 -432.06C-338.607 -455.008 -289.735 -446.481 -274.532 -412.038C-285.032 -383.648 -283.647 -354.539 -257.98 -328.911C-253.423 -324.404 -245.22 -321.334 -237.463 -318.536C-234.084 -317.311 -230.694 -316.09 -227.291 -314.876L-224.894 -314.023L-221.85 -312.94L-218.614 -311.795L-215.652 -310.769L-212.325 -309.608L-209.354 -308.582L-205.981 -307.416L-203.055 -306.415L-199.555 -305.229L-196.73 -304.279L-192.847 -302.986L-190.404 -302.18C-188.29 -301.487 -186.175 -300.794 -184.024 -300.126L-182.712 -298.453C-132.272 -235.343 1.80397 -179.754 140.182 -167.956C203.327 -162.467 267.448 -161.47 331.032 -164.989C335.051 -165.271 338.989 -166.19 342.881 -167.104C344.631 -167.515 346.372 -167.92 348.113 -168.264L344.366 -168.911C340.648 -169.614 336.856 -170.186 333.01 -170.621C326.338 -171.35 319.629 -172.032 312.958 -172.715C273.437 -176.74 233.898 -180.765 199.672 -194.077C195.48 -195.74 192.709 -198.585 189.938 -201.429C188.626 -202.774 187.313 -204.119 185.846 -205.341C188.07 -205.998 190.275 -206.819 192.49 -207.635C197.148 -209.36 201.833 -211.101 206.773 -211.378C233.205 -212.821 259.774 -213.734 286.352 -214.648C359.861 -217.174 433.425 -219.705 504.191 -233.397C506.925 -233.91 509.905 -234.424 513.004 -234.937C526.321 -237.104 541.26 -239.558 541.123 -247.433C541.168 -249.164 540.284 -250.863 538.58 -252.305C560.838 -252.306 583.041 -253.52 604.879 -255.929C609.528 -256.443 614.295 -257.043 618.15 -258.594C622.006 -260.144 624.749 -262.875 623.619 -265.463C606.885 -267.922 589.43 -268.399 572.359 -266.864C563.353 -266.053 554.275 -264.682 545.261 -265.432C541.141 -265.771 537.167 -266.551 533.047 -266.839C522.201 -267.604 511.346 -264.949 500.454 -265.463C491.239 -265.899 482.89 -268.543 474.195 -270.309C470.904 -270.976 466.629 -271.382 464.424 -269.857C462.801 -268.738 463.239 -267.044 464.752 -265.853L462.929 -266.125C408.396 -274.375 353.809 -282.635 304.59 -299.356C209.616 -331.514 201.249 -381.903 287.856 -420.617C295.84 -424.18 303.852 -427.804 311.918 -431.459L312.01 -431.5C386.904 -465.42 465.709 -501.11 562.752 -500.186C632.652 -499.513 700.801 -504.78 768.741 -510.027C824.778 -514.355 880.687 -518.673 937.361 -519.648C953.913 -519.956 976.836 -519.751 980.118 -509.201C983.208 -499.575 972.106 -488.614 957.012 -481.955C938.063 -473.587 917.355 -466.595 896.646 -459.603C864.654 -448.822 832.68 -438 807.278 -422.126C790.352 -411.679 779.989 -396.626 793.269 -384.439C804.452 -374.212 825.899 -378.555 843.7 -382.154C845.286 -382.473 846.844 -382.791 848.357 -383.089L853.653 -384.115C928.392 -398.757 990.718 -424.98 1050.53 -453.288L1056.31 -456.03C1057.66 -456.61 1059.12 -457.113 1060.66 -457.529C1061.57 -457.801 1062.49 -458.078 1063.4 -458.386C1063.16 -458.017 1062.95 -457.631 1062.74 -457.241C1062.29 -456.138 1061.47 -455.09 1060.32 -454.161C956.064 -381.343 774.493 -317.335 585.821 -329.923L585.073 -329.974L582.038 -330.154C570.435 -330.816 557.292 -331.571 552.708 -339.959V-340.986L559.234 -343.594C575.211 -349.975 591.071 -356.305 606.921 -362.795C609.118 -363.827 611.096 -364.997 612.809 -366.286C613.511 -366.799 614.204 -367.256 614.915 -367.713C613.402 -367.61 611.843 -367.574 610.293 -367.543C607.176 -367.472 604.068 -367.405 601.279 -366.794C593.878 -365.192 586.313 -363.287 578.657 -361.362C547.166 -353.441 514.18 -345.145 485.196 -355.936L483.692 -356.485C441.938 -371.532 413.838 -361.521 384.872 -351.208C379.503 -349.293 374.098 -347.373 368.575 -345.591L367.663 -345.288C343.391 -337.233 346.846 -326.637 367.873 -317.735C439.55 -287.42 522.511 -286.296 606.392 -290.598L610.284 -290.803C738.663 -297.734 855.995 -321.657 945.336 -375.511L947.98 -377.087C962.29 -385.548 977.575 -393.515 992.851 -401.437C1022.85 -417.033 1052.81 -432.604 1075.24 -452.015L1076.73 -453.293C1078.95 -455.172 1081.23 -457.067 1083.53 -458.977C1105.49 -477.207 1129.2 -496.89 1111.63 -519.304C1093.92 -542.036 1053.53 -544.84 1014.69 -547.54C1008.97 -547.94 1003.27 -548.336 997.682 -548.793L995.002 -549.013C988.202 -549.593 981.375 -550.086 974.53 -550.554C974.822 -550.651 975.105 -550.754 975.378 -550.862C977.638 -551.765 976.9 -553.855 974.166 -554.086H973.71L920.946 -553.885C917.61 -554.121 914.265 -554.373 910.92 -554.64C905.706 -555.01 900.638 -557.428 896.336 -559.692L894.869 -560.477C894.14 -560.79 898.515 -565.293 901.969 -566.828C979.106 -601.738 1180.33 -606.871 1261.29 -576.069C1299.78 -561.422 1321.98 -539.993 1340.17 -516.855L1343.82 -512.132C1402.05 -437.533 1436.86 -434.483 1547.45 -490.57C1607.13 -520.86 1657.52 -555.4 1702.82 -592.579L1703.21 -592.887C1703.91 -593.457 1704.62 -594.063 1705.33 -594.679C1710.32 -598.95 1716.04 -603.853 1725.21 -602.102C1730.68 -601.075 1734.85 -593.087 1734.67 -588.379C1732.85 -543.623 1704.83 -503.887 1660.62 -467.221L1660.07 -467.524C1661.98 -469.788 1663.9 -472.052 1665.83 -474.311C1685.53 -497.413 1705.26 -520.541 1710.06 -546.647C1710.22 -547.412 1710.44 -548.218 1710.66 -549.039C1711.96 -553.829 1713.39 -559.219 1704.42 -560.878C1698.95 -561.904 1688.01 -557.192 1682.41 -553.69L1674.93 -549.101C1617.62 -513.939 1558.59 -479.748 1489.55 -451.558C1420.51 -423.368 1377.29 -430.561 1342.72 -474.393C1338.44 -479.815 1334.38 -485.323 1330.33 -490.822C1309.36 -519.263 1288.4 -547.771 1236.12 -564.502C1233.45 -565.39 1230.7 -566.14 1227.92 -566.874L1223.74 -567.983C1200.27 -574.231 1175.89 -577.506 1149.69 -575.868C1155.82 -574.965 1162.02 -574.154 1168.22 -573.342C1181.74 -571.571 1195.3 -569.795 1208.27 -567.059C1238.99 -560.585 1260.36 -549.727 1276.83 -536.579C1268.31 -540.82 1258.6 -544.342 1248.77 -547.704L1248.08 -547.94L1244.25 -549.25C1233.03 -553.074 1221.65 -556.95 1209.12 -559.106C1193.4 -561.838 1176.64 -561.791 1160.19 -561.72C1126.31 -561.571 1091.61 -561.335 1059.92 -554.594C1077.47 -548.844 1097.69 -546.21 1117.93 -547.037C1138.89 -547.92 1160.56 -552.484 1180.43 -548.541C1181.21 -548.387 1181.99 -548.218 1182.74 -548.028L1183.5 -547.838C1184 -547.715 1184.5 -547.591 1184.99 -547.458L1185.9 -547.206C1186.34 -547.083 1186.76 -546.96 1187.19 -546.826C1187.62 -546.693 1187.79 -546.631 1188.1 -546.534L1189.3 -546.138L1190.21 -545.81C1190.59 -545.671 1190.97 -545.533 1191.33 -545.389C1191.69 -545.245 1191.91 -545.153 1192.24 -545.03C1192.57 -544.906 1192.96 -544.737 1193.31 -544.583C1193.65 -544.429 1193.87 -544.326 1194.16 -544.198C1194.44 -544.07 1194.84 -543.885 1195.18 -543.726L1196 -543.315C1196.32 -543.151 1196.65 -542.986 1196.97 -542.801L1197.76 -542.37L1198.68 -541.857L1199.44 -541.4C1199.74 -541.22 1200.03 -541.035 1200.35 -540.851L1201.09 -540.378C1201.38 -540.188 1201.67 -539.998 1201.95 -539.803C1202.23 -539.608 1202.41 -539.48 1202.64 -539.29C1202.87 -539.1 1203.2 -538.889 1203.47 -538.689C1203.74 -538.489 1203.92 -538.356 1204.14 -538.176L1204.93 -537.539C1205.14 -537.37 1205.35 -537.206 1205.55 -537.026C1205.75 -536.846 1206.08 -536.579 1206.33 -536.353L1206.91 -535.84C1207.17 -535.604 1207.43 -535.363 1207.68 -535.121L1208.2 -534.608C1208.47 -534.346 1208.73 -534.095 1208.99 -533.812L1209.43 -533.376L1210.41 -532.349L1210.6 -532.139C1210.98 -531.712 1211.35 -531.281 1211.71 -530.85C1211.82 -530.716 1211.92 -530.588 1212.02 -530.455C1212.27 -530.152 1212.52 -529.844 1212.76 -529.536C1212.9 -529.366 1213.01 -529.192 1213.15 -529.022L1213.75 -528.211L1214.15 -527.641L1214.69 -526.861L1215.07 -526.265C1215.25 -526.009 1215.41 -525.752 1215.57 -525.495C1215.69 -525.29 1215.82 -525.085 1215.94 -524.879C1216.06 -524.674 1216.25 -524.366 1216.4 -524.119L1216.75 -523.488C1216.9 -523.236 1217.03 -522.975 1217.17 -522.733C1217.31 -522.492 1217.4 -522.307 1217.51 -522.092C1217.62 -521.876 1217.77 -521.578 1217.9 -521.332L1218.21 -520.695C1218.34 -520.439 1218.45 -520.182 1218.57 -519.93C1218.69 -519.679 1218.76 -519.504 1218.87 -519.294L1219.19 -518.524L1219.47 -517.882L1219.77 -517.122C1219.86 -516.906 1219.94 -516.691 1220.02 -516.48C1220.1 -516.27 1220.21 -515.967 1220.31 -515.71L1220.52 -515.084C1220.62 -514.822 1220.71 -514.571 1220.79 -514.299C1220.87 -514.026 1220.93 -513.893 1220.99 -513.688C1221.27 -512.794 1221.54 -511.901 1221.76 -511.018C1222.01 -510.058 1222.4 -509.113 1222.94 -508.189V-508.128C1224.5 -492.049 1219.06 -475.785 1216.47 -459.629C1215.18 -451.62 1214.64 -443.514 1216.8 -435.566C1221.7 -417.716 1240.07 -401.883 1247.36 -384.29C1249.12 -380.26 1249.89 -376.117 1249.68 -371.969C1249.31 -371.286 1248.92 -370.598 1248.51 -369.915C1248.38 -369.689 1248.23 -369.463 1248.1 -369.238C1247.82 -368.781 1247.54 -368.319 1247.25 -367.867L1246.73 -367.061L1245.91 -365.829C1245.72 -365.546 1245.52 -365.269 1245.32 -364.987L1244.48 -363.806L1243.85 -362.954C1243.56 -362.564 1243.26 -362.179 1242.94 -361.788C1242.73 -361.511 1242.51 -361.234 1242.29 -360.957C1241.96 -360.546 1241.62 -360.14 1241.3 -359.735C1241.09 -359.483 1240.89 -359.222 1240.68 -358.985C1240.15 -358.354 1239.6 -357.728 1239.05 -357.106L1239 -357.05L1237.87 -355.818L1237.3 -355.202L1237.06 -354.94C1236.78 -354.652 1236.5 -354.365 1236.22 -354.083C1235.94 -353.8 1235.68 -353.518 1235.4 -353.235L1235.03 -352.856C1234.49 -352.342 1233.93 -351.783 1233.38 -351.249L1232.91 -350.802L1232.42 -350.35C1232.03 -349.986 1231.64 -349.626 1231.24 -349.267C1231.07 -349.103 1230.89 -348.944 1230.7 -348.754L1230.17 -348.286C1229.78 -347.948 1229.41 -347.609 1229.02 -347.26L1228.43 -346.746C1228.31 -346.639 1228.18 -346.536 1228.05 -346.433C1227.61 -346.053 1227.14 -345.673 1226.69 -345.299C1226.49 -345.129 1226.28 -344.965 1226.07 -344.785C1225.69 -344.472 1225.29 -344.164 1224.9 -343.851C1224.69 -343.687 1224.49 -343.522 1224.28 -343.337L1223.67 -342.865L1223.35 -342.624C1222.84 -342.229 1222.32 -341.833 1221.79 -341.438L1221.23 -341.032C1220.76 -340.688 1220.31 -340.344 1219.8 -340.006L1219.21 -339.574L1218.96 -339.405C1216.52 -337.695 1214.01 -336.037 1211.4 -334.43L1211.18 -334.297C1210.55 -333.912 1209.91 -333.532 1209.27 -333.147L1208.26 -332.546C1208.22 -332.526 1208.18 -332.505 1208.15 -332.479C1207.61 -332.171 1207.06 -331.863 1206.52 -331.55L1205.27 -330.837C1204.96 -330.662 1204.64 -330.493 1204.35 -330.323L1203.63 -329.923C1203.16 -329.671 1202.71 -329.409 1202.23 -329.168L1200.85 -328.444L1200.59 -328.316L1199.09 -327.536L1198.12 -327.063L1197.46 -326.73L1195.87 -325.954L1195.44 -325.749L1194.26 -325.184L1192.58 -324.409L1191.85 -324.075L1190.94 -323.68L1189.19 -322.91L1189.1 -322.874L1187.59 -322.222L1185.77 -321.452L1184.19 -320.805L1182.25 -320.035C1181.74 -319.835 1181.23 -319.635 1180.71 -319.44C1180.02 -319.173 1179.32 -318.926 1178.62 -318.654L1178.25 -318.516L1177.17 -318.12C1176.38 -317.833 1175.59 -317.555 1174.79 -317.273C1174.39 -317.135 1173.98 -316.986 1173.57 -316.847C1172.36 -316.429 1171.14 -316.024 1169.93 -315.63C1160.81 -312.673 1151.13 -310.168 1142.7 -306.61C1132.97 -302.503 1125.19 -297.143 1116.81 -292.189C1100.49 -282.554 1081.69 -274.369 1061.02 -267.912C1054.8 -265.971 1048.05 -263.979 1044.78 -260.426C1041.5 -256.874 1044.28 -251.355 1051.34 -250.919C1082.43 -262.927 1115 -273.662 1148.82 -283.041C1157.27 -285.382 1166.05 -287.743 1172.32 -291.702C1177.13 -294.736 1180.15 -298.504 1183.63 -302.062C1202.24 -321.057 1234.28 -334.127 1255.91 -351.86C1276.97 -369.12 1291.95 -389.742 1308.69 -408.419C1314 -414.348 1319.32 -420.345 1322.42 -426.752C1326.36 -434.848 1326.67 -443.339 1326.98 -451.728C1327.29 -460.799 1327.59 -469.932 1324.83 -478.865C1324.77 -479.086 1324.69 -479.306 1324.61 -479.532C1330.15 -471.467 1335.84 -463.422 1342.32 -455.614C1353.53 -442.184 1365.11 -432.645 1378.12 -426.865L1377.62 -427.08C1398.5 -409.677 1422.95 -402.556 1450.98 -405.713C1462.29 -406.986 1472.61 -414.143 1483.54 -412.659C1485.37 -412.387 1486.28 -412.202 1487.03 -411.263C1488.89 -408.742 1483.71 -403.516 1480.58 -400.554L1480.32 -400.307C1474.31 -394.588 1466.41 -389.578 1457.04 -385.548C1459.09 -390.076 1458.47 -394.912 1452.42 -396.472C1439.71 -399.753 1426.66 -386.395 1413.08 -388.258C1400.19 -390.045 1399.05 -401.74 1387.56 -405.446C1379.46 -408.049 1361.79 -410.58 1359.59 -405.446C1356.47 -398.192 1374.75 -392.987 1379.15 -385.938C1381.2 -382.657 1383.01 -377.724 1378.24 -375.532C1363.38 -368.57 1327.43 -363.359 1296.59 -348.271C1265.74 -333.183 1243.23 -314.809 1217.29 -288.318C1198.48 -279.863 1180.36 -271.346 1163.37 -262.809C1164.28 -263.229 1165.19 -263.645 1166.16 -264.056C1161.08 -261.489 1156.14 -258.886 1151.26 -256.289L1149.75 -255.472L1151.05 -255.775C1104.08 -244.84 1060.65 -229.988 1017.22 -215.126C988.056 -205.13 958.78 -195.13 928.456 -186.315C726.112 -127.63 509.45 -95.2666 286.58 -73.7611L277.301 -72.8575C193.839 -64.6435 169.093 -35.8941 230.398 -45.2736C529.356 -90.9388 828.132 -136.589 1111.67 -211.712C1132.38 -217.2 1153.17 -222.58 1173.94 -227.95C1305.14 -261.879 1435.37 -295.562 1537.95 -354.889C1655.29 -422.793 1755.54 -497.557 1775.92 -596.08C1784.47 -637.967 1768.46 -675.86 1704.23 -702.591C1699.79 -704.47 1694 -705.261 1688.17 -706.057L1687.52 -706.149C1686.66 -706.267 1685.77 -706.267 1684.9 -706.159C1684.05 -706.046 1683.24 -705.831 1682.56 -705.512C1681.87 -705.199 1681.32 -704.804 1680.96 -704.352C1680.59 -703.9 1680.41 -703.408 1680.44 -702.91V-702.863C1680.59 -699.886 1680.76 -696.929 1682.21 -694.192C1716.59 -629.26 1607.8 -519.473 1491 -501.243C1434 -492.3 1400.96 -511.511 1372.45 -532.939L1368.17 -536.199C1313.31 -577.701 1244.62 -605.675 1151.68 -612.976C1149.26 -613.181 1147 -613.93 1144.73 -614.685C1143.6 -615.06 1142.47 -615.435 1141.31 -615.743C1142.47 -616.015 1143.6 -616.348 1144.74 -616.677C1146.89 -617.401 1149.23 -617.919 1151.68 -618.217C1173.64 -620.42 1195.11 -618.32 1216.4 -615.527L1220.8 -614.937C1223.29 -614.634 1225.84 -614.423 1228.38 -614.244C1230.11 -614.11 1231.84 -613.977 1233.54 -613.812C1231.94 -614.326 1230.39 -614.839 1228.86 -615.414C1226.59 -616.282 1224.21 -617.052 1221.72 -617.704C1210.25 -620.568 1198.72 -623.392 1187.16 -626.226C1179.26 -628.156 1171.37 -630.097 1163.47 -632.042L1162.56 -632.263C1150.14 -635.379 1142.1 -638.937 1139.61 -648.532L1139.46 -649.046C1136.61 -657.588 1120.54 -656.51 1107.56 -655.638L1106.7 -655.581L1105.55 -655.504L1104.37 -655.432L1097.8 -655.068C1008.76 -650.011 926.788 -631.575 844.912 -613.155C834.321 -610.758 823.73 -608.386 813.129 -606.04L802.192 -603.627L799.995 -603.149L797.671 -602.636L793.442 -601.712C754.331 -593.185 714.929 -584.591 683.092 -568.255C661.444 -557.089 659.804 -544.593 679.637 -532.318L680.33 -531.882C694.758 -522.749 687.148 -518.693 671.152 -515.695L669.629 -515.418C649.158 -511.824 628.021 -513.138 607.185 -514.447C585.985 -515.777 565.094 -517.091 545.553 -513.164C423.472 -488.481 310.843 -453.658 234.071 -392.617C195.316 -361.814 222.067 -326.668 294.109 -298.607C333.001 -283.529 376.577 -274.293 420.209 -265.042C432.304 -262.475 444.399 -259.908 456.403 -257.228C457.788 -256.925 459.247 -256.633 460.732 -256.335C470.357 -254.41 481.14 -252.228 481.14 -245.862C480.976 -239.126 469.464 -237.242 459.493 -235.594L458.681 -235.461L451.982 -234.331C371.92 -221.122 290.062 -222.236 207.994 -224.613L200.046 -224.844C177.26 -225.563 154.747 -226.174 132.006 -226.482H129.836C119.61 -226.61 108.18 -226.754 103.258 -220.835C99.2115 -215.968 104.252 -212.004 109.201 -208.113C110.705 -206.927 112.2 -205.746 113.43 -204.55C114.724 -203.246 116.411 -201.829 118.124 -200.397C122.481 -196.757 126.956 -193.004 125.261 -190.725C121.879 -186.104 112.428 -186.808 103.741 -187.47C101.681 -187.624 99.6672 -187.778 97.7896 -187.855L94.8638 -187.994C-1.67787 -192.927 -106.568 -238.674 -155.878 -291.183L-155.605 -291.101L-150.291 -289.597L-147.867 -288.924L-145.451 -288.257L-144.886 -287.692C-111.098 -254.148 -59.0723 -229.295 10.0618 -212.831C29.3482 -208.21 44.2688 -208.426 41.7167 -225.835L41.6073 -226.651C38.9368 -249.399 67.0188 -247.186 90.5162 -245.348C94.3808 -245.046 98.1177 -244.753 101.572 -244.583L114.797 -243.875C123.301 -243.406 131.833 -242.923 140.391 -242.427H140.546C157.672 -241.442 174.799 -240.461 191.925 -239.655L207.31 -238.305L219.068 -237.252L222.586 -236.934L232.248 -236.056L235.894 -235.717L246.448 -234.727L249.119 -234.475C253.622 -234.049 258.133 -233.618 262.691 -233.171C268.934 -232.652 275.232 -232.408 281.54 -232.442C300.817 -232.396 325.946 -233.91 338.314 -237.73C340.976 -238.551 342.589 -240.148 343.601 -241.893L350.127 -242.448C360.964 -243.408 372.303 -244.933 374.262 -251.555C376.158 -257.967 365.64 -261.274 356.033 -264.292C353.672 -265.037 351.376 -265.76 349.325 -266.51L345.943 -267.732C340.001 -269.873 334.031 -271.978 328.06 -274.082C301.136 -283.575 274.284 -293.026 250.714 -305.424C195.224 -334.512 184.314 -372.811 232.485 -405.585C310.041 -458.366 413.965 -491.787 519.968 -523.041L533.959 -527.148C539.428 -528.689 546.145 -530.013 551.787 -529.608C592.429 -526.994 635.468 -547.92 660.816 -572.377C663.969 -575.422 657.671 -578.795 652.412 -576.88C614.86 -563.188 576.105 -540.065 547.512 -537.175C523.632 -534.762 499.56 -532.334 480.283 -523.668L473.903 -520.818C444.563 -507.984 413.473 -496.382 382.374 -484.774H382.319C357.127 -475.369 331.916 -465.959 307.644 -455.896C308.291 -459.254 304.28 -462.154 299.55 -463.859L304.171 -465.753L317.214 -471.031C325.116 -474.239 333.01 -477.463 340.912 -480.693C391.826 -501.526 443.077 -522.497 498.348 -538.936C548.342 -553.824 597.159 -570.057 646.004 -586.3C767.228 -626.626 888.452 -666.983 1028.18 -686.62C1154.43 -704.439 1274.88 -705.158 1384.77 -659.072C1390.96 -656.408 1397.15 -653.132 1401.33 -649.441C1402.24 -648.625 1403.23 -647.814 1404.2 -646.997C1411.84 -640.549 1429.83 -628.485 1415.88 -625.374L1403.44 -628.197C1395.54 -630.764 1395.3 -634.065 1385.32 -638.177C1383.08 -639.06 1380.7 -639.825 1378.32 -640.595C1377.35 -640.909 1376.37 -641.222 1375.42 -641.54C1375.25 -641.596 1375.06 -641.627 1374.87 -641.632C1374.68 -641.638 1374.49 -641.612 1374.31 -641.566C1374.14 -641.514 1374 -641.448 1373.89 -641.355C1373.78 -641.268 1373.7 -641.165 1373.69 -641.057C1373.59 -640.631 1373.49 -640.205 1373.39 -639.779C1372.87 -638.131 1372.72 -636.458 1372.97 -634.789C1374.79 -625.779 1371.69 -621.169 1352 -623.012L1348.12 -623.402C1333.67 -624.865 1315.61 -626.703 1307.61 -618.915C1300.55 -612 1310.16 -606.625 1319.15 -601.594C1321.73 -600.146 1324.27 -598.734 1326.34 -597.317C1352.53 -579.19 1378.73 -561.062 1406.54 -543.859C1443.29 -521.121 1485.32 -520.916 1526.98 -539.146C1577.92 -561.576 1618.86 -589.021 1646.52 -622.206C1666.52 -646.238 1665.5 -669.139 1644.89 -689.777C1632.59 -710.461 1599.56 -728.671 1545.94 -744.75C1486.7 -762.487 1423.41 -771.046 1359.32 -777.786C1355.78 -778.895 1352.59 -780.641 1349.43 -782.371C1348.4 -782.935 1347.38 -783.495 1346.34 -784.039C1345.82 -784.301 1345.51 -784.671 1345.46 -785.061C1345.41 -785.451 1345.64 -785.841 1346.1 -786.139C1347.09 -786.791 1348.06 -787.484 1349.03 -788.192C1352.1 -790.4 1355.17 -792.608 1359.06 -793.357C1445.47 -810.463 1543.72 -824.673 1617.59 -794.897C1691.64 -765.121 1766.6 -727.614 1800.07 -674.355C1827.48 -630.672 1818.15 -587.481 1793.04 -545.451L1793.3 -545.723ZM552.598 -454.757C623.236 -456.42 728.847 -415.093 767.994 -448.257L772.068 -452.652C798.1 -474.727 745.262 -468.628 708.95 -469.593C683.338 -470.292 656.751 -473.141 630.428 -475.282L634.748 -474.768L637.273 -474.47C625.141 -475.908 613.064 -477.299 601.726 -478.577L568.266 -482.351C567.027 -482.489 565.76 -482.541 564.502 -482.5C491.321 -480.02 440.872 -460.424 392.236 -439.304L381.736 -434.73C381.089 -434.509 380.907 -433.929 380.715 -433.349C380.642 -433.118 380.57 -432.887 380.469 -432.681C381.244 -432.743 382.019 -432.784 382.803 -432.794C384.124 -432.774 385.428 -432.912 386.649 -433.195C411.413 -439.833 436.797 -445.706 462.692 -450.788L458.372 -449.248C457.734 -449.022 457.196 -448.709 456.822 -448.339C456.448 -447.965 456.239 -447.549 456.211 -447.123C456.193 -446.697 456.357 -446.27 456.695 -445.89C457.032 -445.505 457.533 -445.177 458.153 -444.93C486.29 -433.811 521.043 -453.961 552.571 -454.685L552.598 -454.757ZM369.368 -304.521C326.256 -316.683 293.899 -340.889 360.791 -364.679C401.806 -379.274 451.362 -384.505 495.122 -396.339C508.073 -399.845 503.79 -409.656 491.303 -412.018C477.157 -414.733 462.455 -416.417 447.553 -417.033V-417.085L446.951 -417.218L440.735 -418.62L437.745 -419.292L432.632 -420.463C354.948 -419.641 262.891 -386.77 254.515 -358.503C248.7 -338.738 298.183 -305.963 334.021 -306.066C334.96 -306.091 335.89 -306.209 336.756 -306.415L337.667 -306.579L338.278 -306.682C338.068 -306.995 337.859 -307.324 337.658 -307.658C337.093 -308.724 336.264 -309.741 335.188 -310.676C334.094 -311.503 333.037 -312.309 332.007 -313.104L334.277 -311.374C342.799 -308.73 351.594 -307.267 363.443 -305.419L369.541 -304.485L369.368 -304.521Z" fill="#5596DC"/>
</g>
</g>
<defs>
<clipPath id="clip0_4889_122265">
<rect width="3500" height="705" fill="white"/>
</clipPath>
<clipPath id="clip1_4889_122265">
<rect width="3500" height="1362" fill="white" transform="matrix(1 0 0 -1 0 173)"/>
</clipPath>
</defs>
</svg>
