<svg width="1440" height="705" viewBox="0 0 1440 705" fill="none" xmlns="http://www.w3.org/2000/svg">
<g clip-path="url(#clip0_4889_122810)">
<path d="M1286.26 -502.278C1313.25 -467.397 1288.71 -428.3 1278.9 -393.475C1276.24 -384.019 1276.51 -374.04 1273.17 -364.737C1270.13 -356.272 1263.36 -349.008 1259.94 -340.65L1256.69 -332.728C1251.16 -319.084 1257.67 -311.405 1255.76 -305.983L1255.32 -304.713L1252.84 -300.181C1250.56 -296.003 1247.98 -282.828 1244.73 -276.682L1243.21 -273.815C1224.94 -239.228 1240.35 -211.562 1234.16 -177.984C1226.77 -137.876 1221.81 -191.294 1228.32 -127.958C1231.74 -94.7743 1252.14 -58.185 1275.44 -31.4342C1278.68 -27.7031 1284.28 -21.4881 1289.63 -11.7272C1294.98 -1.96637 1301.91 32.5098 1314.75 53.4146C1318.59 59.6316 1323.6 65.278 1329.6 70.1335C1315.51 64.698 1305.46 69.5039 1294.94 74.5263C1289.69 77.0261 1284.33 79.5848 1278.3 80.9621C1261.81 84.7221 1256.18 74.1675 1249.66 61.9272C1248.53 59.8194 1247.38 57.6616 1246.16 55.5177L1245.39 54.1708C1240.52 45.5694 1236.94 29.0671 1233.13 11.4957C1230.35 -1.34952 1227.44 -14.7639 1223.81 -26.0825L1223.28 -27.7239C1219.99 -37.6123 1210.21 -42.9621 1200.44 -48.2836C1195.86 -50.7856 1191.28 -53.2844 1187.37 -56.2622C1167.68 -71.2836 1158.41 -94.9873 1167.07 -110.125C1170.05 -115.227 1175.41 -117.966 1180.95 -120.442L1185.09 -122.276C1186.49 -122.857 1187.92 -123.374 1189.38 -123.825C1194.05 -125.343 1198.84 -126.9 1198.59 -131.327C1198.31 -136.319 1192.39 -138.425 1186.97 -139.963L1183.84 -140.855C1177.91 -142.585 1171.62 -143.567 1165.36 -144.544C1163.66 -144.811 1161.97 -145.075 1160.27 -145.355L1159.89 -145.418C1158.9 -145.58 1157.87 -145.698 1156.84 -145.825C1152.21 -146.375 1147.53 -146.944 1145.23 -151.14C1142.46 -156.211 1145.33 -160.611 1148.43 -164.74L1149.9 -166.684C1155.17 -173.458 1162.73 -178.502 1171.79 -180.503L1172.5 -180.667C1192.26 -185.327 1196.1 -197.751 1200.27 -211.213C1200.87 -213.143 1201.47 -215.094 1202.13 -217.047L1202.63 -218.508C1210.25 -240.104 1219.46 -261.302 1228.67 -282.482C1240.91 -310.604 1253.14 -338.723 1261.62 -367.818L1262.02 -369.198C1264.59 -377.734 1267.79 -386.151 1270.98 -394.564C1277.6 -411.996 1284.22 -429.421 1285.19 -447.887C1287.04 -482.832 1263.27 -511.368 1217.11 -528.061L1217.23 -528.016L1221.1 -527.493C1239.04 -525.029 1255.47 -522.367 1270.76 -516.997C1276.71 -512.729 1281.91 -507.776 1286.2 -502.283" fill="#5F5F6B"/>
<path d="M550.582 24.726C562.661 22.2868 575.326 13.6445 593.39 7.92225C606.573 3.74666 621.998 1.42576 635.554 -2.53223C647.146 -5.90989 659.298 -12.2959 668.35 -15.6419C678.339 -19.3356 684.874 -20.0147 689.36 -22.2425L689.565 -22.3376L689.074 -22.0891C686.145 -20.6271 683.225 -19.5566 679.938 -18.3535C674.985 -16.6115 670.168 -14.6064 665.517 -12.3508C662.871 -11.0421 659.78 -9.2079 656.507 -7.25062C650.79 -3.83347 644.515 -0.0814739 639.077 1.64846C632.498 3.73603 625.435 4.94196 618.484 6.13015C608.497 7.83531 598.728 9.50196 590.954 13.6968C567.579 26.2979 541.327 34.2715 521.699 34.6141C495.725 35.0675 468.506 36.3001 448.541 37.7849C457.204 34.9789 466.043 32.5924 475.026 30.6374C498.14 25.6982 523.325 30.2362 550.586 24.7291" fill="#5F5F6B"/>
<path d="M1117.82 -8.74391C1124.08 -20.9264 1132.37 -32.5824 1135.44 -45.5835C1139.93 -64.5686 1132.93 -84.9944 1141.04 -103.127C1141.65 -104.495 1142.46 -105.946 1144.01 -106.617C1148.66 -108.633 1151.79 -102.333 1151.68 -97.9409C1150.94 -61.8357 1154.08 -25.7683 1161.07 9.82128C1162.16 15.348 1163.36 20.9202 1166 26.0602C1170 33.8813 1177.12 40.3286 1180.92 48.21C1183.14 52.8819 1184.14 57.9039 1183.85 62.9393C1183.56 67.9743 1182 72.906 1179.26 77.404C1170.35 82.0953 1158.01 78.6019 1151.13 71.9894C1144.26 65.3768 1141.5 56.5018 1138.96 47.9703C1136.91 41.081 1134.86 34.1929 1132.8 27.3056C1132.43 26.0496 1131.98 24.7001 1130.78 23.8941C1121.74 17.8465 1119.69 35.8926 1110.79 24.0127C1105.09 16.4137 1114.14 -1.62833 1117.79 -8.72761" fill="#4195C4"/>
<path d="M1012.63 -30.0252C1006.65 -24.536 1001.57 -18.6334 996.108 -12.8092C990.204 -6.50068 981.973 -2.22529 973.81 1.64488C959.645 8.35009 944.436 13.7826 930.237 20.6904C909.296 30.8786 889.724 36.7881 865.499 36.87C845.344 36.9346 827.93 46.3321 813.118 57.1014C806.115 62.1949 797.01 64.2193 788.588 66.8535C777.401 70.3567 766.144 74.2209 754.702 77.1667C741.73 80.5053 721.178 86.0121 707.946 82.0166C705.585 81.3035 704.297 79.8709 705.646 77.8935C706.405 76.8163 707.323 75.8252 708.383 74.945C724.844 70.6049 740.998 65.0392 756.939 59.5087C761.321 57.9897 765.781 56.4252 769.558 54.0551L770.261 53.8503C770.237 53.7813 770.217 53.7122 770.194 53.6432C770.632 53.3515 771.063 53.0472 771.482 52.7306C775.721 49.5002 778.445 45.1474 781.699 41.1893C785.548 36.5289 790.193 32.3698 795.487 28.847C806.042 30.6671 815.98 32.2202 826.437 30.5321C836.428 28.9215 842.264 23.6968 850.02 18.0252C861.209 9.8442 873.928 2.34357 886.486 -4.01796C897.513 -9.60785 911.028 -11.5545 923.608 -14.1351C938.385 -17.1738 952.561 -20.7007 966.657 -25.5046C979.894 -30.0157 991.956 -35.3332 1004.12 -41.6627C1012.43 -45.9867 1029.59 -54.7107 1032.19 -53.1305C1034.78 -51.5502 1017.53 -34.5423 1012.61 -30.0185" fill="#EA7534"/>
<path d="M249.774 61.8086C251.7 61.4751 253.714 61.0517 255.142 59.9095C257.225 58.2381 257.46 55.5606 257.553 53.1475C257.88 44.9667 257.623 35.6188 250.295 30.2767C241.136 23.6188 227.221 27.2075 215.177 28.6108C198.186 30.5771 180.826 27.3166 163.843 29.3553C134.54 32.8654 110.282 51.5138 81.1247 55.8293C72.6414 57.0853 63.5853 57.1802 56.1555 60.8703C53.7485 62.0644 51.3497 64.3789 52.5253 66.4921C53.2162 67.7426 54.8839 68.3289 56.4252 68.7818C84.8534 77.1645 118.177 72.9404 142.557 57.8629C146.707 55.2969 150.618 52.4352 155.056 50.243C168.567 43.565 186.504 44.7165 199.339 51.8373C205.445 55.2217 208.831 60.7747 215.319 63.0255C224.315 66.1385 240.59 63.4051 249.763 61.8088" fill="#5F5F6B"/>
<path d="M602.289 60.5984L507.651 75.5955C500.53 76.7267 493.199 77.9121 486.974 81.0761C481.327 83.9491 476.866 88.3165 471.045 90.9338C464.672 93.7974 457.232 94.3312 450.028 94.5738C424.577 95.458 399.116 93.6523 374.241 89.1988C368.077 88.0944 360.687 85.6761 360.114 80.4055C359.479 74.6278 367.558 71.1 374.337 69.9306C399.963 65.5157 426.84 70.7375 452.447 66.2819C472.561 62.7745 490.617 53.5457 510.26 48.4745C528.694 43.7149 548.119 42.713 567.356 41.7428L624.26 38.8746C632.991 38.435 641.838 37.9775 650.137 35.6548C660.931 32.6414 670.152 26.6885 679.579 21.3412C700.606 9.43409 723.573 0.164705 747.753 -6.17305C739.938 10.3481 722.105 23.3134 701.528 27.4097C680.416 31.6195 674.799 39.053 657.119 47.2178C640.498 54.8939 620.646 57.6866 602.266 60.5988" fill="#FFD72E"/>
<path d="M874.665 -22.3806C865.769 -12.8761 850.782 -8.4828 841.929 1.05251C838.867 4.35071 836.622 8.18701 833.146 11.18C826.973 16.4958 817.915 18.4088 809.865 21.4627C798.53 25.7846 788.787 32.6109 781.691 41.2084C778.438 45.1633 775.714 49.5193 771.475 52.7497C767.346 55.8961 762.083 57.7432 756.935 59.5277C724.74 70.6954 691.68 82.0291 656.933 83.0523C640.029 83.5494 623.104 81.5817 606.258 82.8132C572.93 85.2509 542.855 99.8535 512.391 111.597C481.928 123.34 441.423 131.928 415.468 123.544C408.89 117.911 447.22 119.296 457.163 108.42C462.44 102.646 467.007 96.2061 472.22 90.3735C477.476 87.725 481.703 83.7594 486.959 81.0858C493.184 77.9217 500.497 76.7462 507.636 75.6052L602.289 60.5984C620.654 57.6864 640.524 54.8808 657.142 47.2174C674.821 39.0494 680.438 31.6194 701.551 27.4092C722.128 23.3003 739.964 10.3476 747.775 -6.17348C746.732 -5.89959 745.688 -5.61309 744.648 -5.32633C758.013 -11.5567 771.174 -18.0995 784.188 -24.8162C792.1 -28.9061 800.11 -33.124 809.077 -35.1207C814.131 -36.2442 819.397 -36.6356 824.368 -37.9979C838.679 -41.9186 843.112 -38.5868 842.781 -38.199C841.217 -36.2779 842.375 -35.1716 845.303 -35.1628C858.293 -35.1275 870.971 -42.1603 876.057 -52.2264C878.208 -56.4809 879.114 -61.1994 882.071 -65.1018C885.029 -69.0045 891.18 -71.8737 896.021 -69.7172C884.551 -55.6857 887.165 -35.7609 874.639 -22.3801" fill="#E5C7A3"/>
<path d="M1446.43 51.4349C1445.31 51.4348 1444.19 51.3382 1443.1 51.1458C1427.49 51.3204 1429.19 72.6152 1419.01 83.0166C1409.67 92.5572 1396.3 97.8218 1374.15 91.5232C1358.86 87.1786 1342.5 80.6212 1329.61 70.105C1323.61 65.2492 1318.59 59.6029 1314.75 53.3861C1301.92 32.4813 1294.99 -2.01072 1289.64 -11.7588C1284.28 -21.5069 1278.69 -27.7442 1275.45 -31.4626C1252.15 -58.2009 1231.74 -94.8027 1228.33 -127.986C1221.82 -191.316 1226.77 -137.905 1234.16 -178.013C1240.34 -211.578 1224.95 -239.256 1243.22 -273.844L1244.73 -276.711C1247.98 -282.847 1250.56 -296.022 1252.84 -300.21L1255.33 -304.742L1255.76 -306.012C1257.67 -311.433 1251.16 -319.112 1256.7 -332.756L1259.94 -340.679C1263.37 -349.037 1270.14 -356.301 1273.18 -364.766C1276.52 -374.069 1276.22 -384.047 1278.91 -393.503C1288.71 -428.329 1313.25 -467.416 1286.26 -502.309C1281.97 -507.802 1276.77 -512.752 1270.82 -517.02C1272 -516.608 1273.16 -516.18 1274.32 -515.733C1278.4 -513.63 1282.44 -511.69 1286.63 -510.191C1300.19 -503.098 1312.87 -492.875 1324.98 -477.478L1325.91 -476.292C1326.22 -475.878 1326.54 -475.476 1326.86 -475.078L1327.1 -474.766L1327 -474.828L1326.84 -474.935L1326.57 -475.101L1326.45 -475.171L1326.24 -475.285L1326.13 -475.346C1326.02 -475.398 1325.91 -475.449 1325.81 -475.495C1326.13 -474.509 1326.46 -473.521 1326.78 -472.532C1326.95 -472.008 1327.12 -471.481 1327.29 -470.963C1327.44 -470.486 1327.6 -470.021 1327.75 -469.532C1327.93 -468.979 1328.1 -468.427 1328.28 -467.871C1328.47 -467.265 1328.67 -466.656 1328.86 -466.051C1328.96 -465.737 1329.06 -465.423 1329.16 -465.125C1329.48 -464.079 1329.81 -463.043 1330.14 -462.023C1331.7 -457.098 1333.26 -452.167 1334.91 -447.271L1334.97 -447.086C1335.78 -444.667 1336.61 -442.254 1337.47 -439.848L1337.52 -439.679C1337.93 -438.543 1338.35 -437.408 1338.77 -436.276C1338.8 -436.191 1338.83 -436.109 1338.86 -436.028C1339.3 -434.839 1339.75 -433.654 1340.21 -432.466C1343.91 -423.039 1353.85 -420.508 1364.24 -419.19L1365.25 -419.065L1367.51 -418.789C1391.48 -416.032 1397.47 -408.511 1392.57 -388.812C1392.52 -388.634 1392.48 -388.457 1392.43 -388.276L1392.05 -386.738L1391.66 -385.198C1389.06 -374.604 1386.92 -363.926 1384.88 -353.225C1384.74 -352.512 1384.6 -351.8 1384.47 -351.084L1384.44 -350.938L1383.29 -344.858C1380.81 -331.924 1372.56 -323.387 1360.71 -318.462C1360.21 -318.254 1359.71 -318.056 1359.21 -317.864C1358.2 -317.477 1357.16 -317.118 1356.11 -316.781C1353.94 -316.096 1351.72 -315.518 1349.48 -315.052C1348.9 -314.932 1348.32 -314.818 1347.74 -314.706L1340.81 -313.395C1334.06 -312.129 1327.25 -310.99 1320.64 -310.834C1308.85 -310.565 1297.69 -313.438 1288.6 -324.371L1288.44 -324.564L1288.24 -324.781C1287.63 -325.402 1287.09 -325.648 1286.63 -325.659C1285.8 -325.676 1285.16 -324.93 1284.68 -324.104L1284.59 -323.951C1284.54 -323.846 1284.48 -323.741 1284.43 -323.632C1284.35 -323.476 1284.27 -323.314 1284.2 -323.174L1283.45 -321.5C1282.84 -320.123 1282.26 -318.749 1281.72 -317.389C1265.03 -275.727 1277.76 -241.734 1342.3 -230.207C1343.96 -224.134 1346.11 -218.112 1347.22 -211.954C1349.98 -196.58 1346.18 -180.893 1346.74 -165.341C1347.15 -153.831 1349.95 -142.498 1352.74 -131.234C1355.47 -120.216 1358.21 -109.175 1362.2 -98.4372C1365.01 -90.8825 1368.57 -83.3061 1374.89 -77.4509C1378.96 -73.6838 1383.97 -70.8263 1389.44 -68.6303C1389.48 -68.1607 1389.52 -67.6849 1389.58 -67.225C1389.58 -67.2186 1389.58 -67.2123 1389.58 -67.2061C1389.63 -66.8502 1389.68 -66.4976 1389.75 -66.1549C1389.75 -66.1265 1389.76 -66.0981 1389.77 -66.0668C1389.81 -65.9096 1389.85 -65.7525 1389.89 -65.6049C1389.89 -65.5945 1389.89 -65.5838 1389.89 -65.5733C1389.94 -65.4133 1390 -65.2596 1390.06 -65.1029C1390.07 -65.0749 1390.08 -65.0476 1390.1 -65.0214C1390.15 -64.8992 1390.2 -64.777 1390.26 -64.6613L1390.32 -64.5519C1390.4 -64.415 1390.49 -64.2817 1390.58 -64.1523C1390.87 -63.7367 1391.16 -63.3206 1391.43 -62.9047C1391.5 -62.808 1391.57 -62.7145 1391.63 -62.6177C1391.9 -62.2017 1392.17 -61.7853 1392.43 -61.3691L1392.52 -61.2161C1392.75 -60.8476 1392.97 -60.4759 1393.19 -60.1041C1393.26 -59.9917 1393.33 -59.8792 1393.39 -59.7699C1393.63 -59.3668 1393.86 -58.9668 1394.08 -58.5635C1394.14 -58.4603 1394.19 -58.3571 1394.25 -58.2508C1394.43 -57.9383 1394.6 -57.5972 1394.77 -57.272C1394.84 -57.1375 1394.91 -57.0062 1394.98 -56.8748C1395.18 -56.4869 1395.37 -56.0988 1395.57 -55.7078C1395.64 -55.5606 1395.71 -55.4104 1395.79 -55.2634C1395.92 -54.9816 1396.06 -54.7031 1396.18 -54.4211C1396.25 -54.2583 1396.33 -54.1081 1396.41 -53.9358C1396.58 -53.5695 1396.74 -53.2031 1396.91 -52.8367C1397 -52.6362 1397.09 -52.4358 1397.17 -52.2384L1397.45 -51.5837C1397.61 -51.2225 1397.76 -50.8622 1397.91 -50.5027L1398.14 -49.9637L1398.47 -49.1551L1398.59 -48.8416C1400.64 -43.7073 1402.37 -38.4694 1404.38 -33.3155C1411.17 -15.7929 1428.33 -8.82974 1447.93 -4.93908L1448.91 51.0129C1448.12 51.301 1447.26 51.445 1446.4 51.4354" fill="#EA7534"/>
<path d="M693.29 -24.227L691.152 -23.1449L689.572 -22.344L689.36 -22.2424C684.889 -20.0149 678.339 -19.3356 668.349 -15.6418C659.297 -12.2959 647.13 -5.90962 635.553 -2.53223C621.998 1.41944 606.573 3.74665 593.39 7.92224C575.326 13.6444 562.66 22.2867 550.582 24.726C523.321 30.2331 498.136 25.6951 475.022 30.6343C466.039 32.5896 457.196 34.9758 448.537 37.7818C422.938 45.9586 402.026 55.7896 388.747 57.5238C369.394 60.0522 357.046 67.2307 347.689 75.528C344.184 75.8196 314.507 110.019 301.301 110.25C275.492 110.7 261.095 100.681 251.964 71.9372C251.745 71.2511 251.523 70.5719 251.301 69.9003C251.523 70.5719 251.75 71.2497 251.968 71.9371C251.75 71.2497 251.523 70.5687 251.297 69.894C251.278 69.8407 251.262 69.7874 251.242 69.734C251.016 69.0594 250.783 68.388 250.549 67.7292L250.549 67.7008C250.43 67.3651 250.308 67.0295 250.185 66.6971C250.063 66.3647 249.941 66.0354 249.819 65.7061L249.818 65.6714C249.633 65.1759 249.444 64.6805 249.251 64.1946C249.445 64.6795 249.634 65.1718 249.818 65.6714C249.589 65.0599 249.357 64.4611 249.121 63.8655C249.047 63.6774 248.968 63.4925 248.894 63.3044C248.725 62.8813 248.552 62.4582 248.376 62.0509L248.54 62.4394L248.376 62.0509L249.792 61.8053C251.718 61.4718 253.733 61.0484 255.16 59.9061C257.246 58.2347 257.478 55.5572 257.571 53.1441C257.898 44.9633 257.641 35.6155 250.313 30.2734C241.154 23.6155 227.239 27.2041 215.195 28.6043C198.204 30.5769 180.844 27.3101 163.861 29.352C155.325 30.3753 147.217 32.6821 139.288 35.5476L137.671 35.7053L137.296 35.7434C136.519 35.8232 135.746 35.903 134.97 35.9891L134.835 35.9915C134.129 36.0701 133.424 36.1487 132.719 36.2336L132.217 36.2929L130.225 36.5391L129.936 36.5757C129.186 36.674 128.41 36.7791 127.649 36.8839L127.304 36.931L125.381 37.2107L124.864 37.2892C124.148 37.3996 123.436 37.5098 122.72 37.6423L122.63 37.6438C121.88 37.7674 121.131 37.8941 120.363 38.0275L119.906 38.108C119.295 38.2165 118.688 38.3281 118.078 38.4556L117.576 38.5496C116.077 38.8345 114.594 39.1372 113.127 39.4573L112.614 39.5705L110.805 39.9808L110.353 40.0865C109.604 40.2596 108.863 40.4399 108.13 40.6272L107.946 40.6746C107.28 40.844 106.614 41.0135 105.948 41.1956L105.41 41.3407C104.794 41.5093 104.176 41.6823 103.558 41.8591L103.207 41.9568C102.474 42.1675 101.744 42.3854 101.016 42.6105L100.642 42.7243C100.036 42.9117 99.4319 43.1043 98.8291 43.302L98.2872 43.4788C97.6295 43.6954 96.9719 43.9152 96.3144 44.1445L96.1239 44.2109C95.3992 44.4635 94.6783 44.7223 93.9614 44.9873L93.4909 45.1628C92.9159 45.3833 92.3436 45.6039 91.7735 45.824L91.2472 46.0289C90.538 46.3096 89.8252 46.5966 89.1162 46.8931L88.3699 47.1965C87.5386 47.5248 86.7019 47.8222 85.8598 48.0894L85.7477 48.1261L85.0262 48.347L84.8392 48.4007L84.1847 48.5858L83.9528 48.6466L83.3429 48.8056L83.081 48.8702L82.4971 49.0098L82.2126 49.0747L81.651 49.1981L81.3439 49.2603L80.8008 49.3676L80.4786 49.4269L79.9429 49.5247L79.6169 49.5809L79.0847 49.6659L78.7511 49.7191L78.2262 49.7945L77.8813 49.8416L77.3638 49.9074L77.0149 49.9482L76.4973 50.0078L76.1447 50.0455L75.6307 50.0986L75.2554 50.1304L74.7413 50.1741L74.366 50.2028L73.8555 50.2401L73.4801 50.2656L73.0033 50.296L72.6276 50.3026L72.1057 50.3306L71.7487 50.3368L71.2302 50.3459L70.8545 50.3524L70.3322 50.3616L68.1718 50.3993L67.6533 50.4083L67.3302 50.414L66.7441 50.4242L66.4473 50.4294L65.8345 50.4211L65.5602 50.4259L64.9136 50.4151L64.6769 50.4192L63.9663 50.4032L63.7934 50.4063L62.9963 50.3855L62.9099 50.387C62.2105 50.3676 61.5111 50.3483 60.8116 50.3226L59.4352 50.2772L57.8557 50.2227L57.5436 50.2123L57.2202 50.2022L57.1075 50.2042L56.6338 50.1967L56.2581 50.2032L55.7959 50.2113L54.9618 50.2258L54.5861 50.2324L54.1465 50.2401L53.7708 50.2466L53.3353 50.2732L52.9899 50.2981L52.5659 50.3339L52.2578 50.3425L51.8414 50.3876L51.5189 50.4248L51.1139 50.4792L50.8027 50.5225L50.4054 50.5863L50.1056 50.6357L49.731 50.7054L49.4426 50.7609L49.0682 50.8432L48.7948 50.9016L48.4206 50.9902L48.1586 51.0579L47.7845 51.156L47.5339 51.2235L47.1599 51.331L46.9207 51.4078L46.5657 51.5213L46.334 51.6011L45.9867 51.7271L45.7664 51.8067L45.4229 51.9421L45.2177 52.0278L44.882 52.1725L44.6806 52.2613L44.3525 52.4122L44.1662 52.5038L43.842 52.6673L43.6632 52.7588L43.3468 52.9316L43.1793 53.0261L42.8668 53.2083L42.7106 53.3057L42.402 53.4973L42.2572 53.5945C42.1531 53.6626 42.0528 53.7275 41.9563 53.7986L41.8152 53.8958C41.7149 53.9638 41.6184 54.0349 41.522 54.1092L41.3921 54.2062L41.0991 54.4291L40.9805 54.5258C40.8842 54.6033 40.7878 54.6807 40.6952 54.7612L40.5841 54.8547L40.2991 55.1027L40.2029 55.1928C40.1067 55.2797 40.0143 55.3665 39.9219 55.4565L39.8331 55.5401C39.7408 55.6333 39.6447 55.7233 39.5561 55.8164L39.4749 55.8999C39.3825 55.993 39.2902 56.0893 39.2017 56.1856L39.1317 56.2626L38.8588 56.5672C38.8592 56.5893 38.8221 56.6152 38.7999 56.6376C38.7078 56.7434 38.6195 56.8491 38.5312 56.958C38.5315 56.9769 38.498 56.9964 38.4834 57.0188C38.3913 57.1277 38.3031 57.2397 38.2149 57.3549L38.1744 57.4061C38.0825 57.5245 37.9944 57.6397 37.9063 57.7611L37.8806 57.7995C37.7888 57.9242 37.7008 58.0488 37.6128 58.1734L37.5945 58.199C37.5065 58.3299 37.4149 58.461 37.327 58.5951C34.8303 62.4074 33.5787 67.1385 32.513 71.9738L31.6962 75.7757L32.5133 71.9927C32.4871 72.4287 30.7153 100.327 -5.47937 101.537L-6.82774 24.2889C-2.78653 24.7739 1.25784 25.2241 5.28116 25.5452C21.0885 26.8128 36.4635 26.1341 49.4151 17.9666C50.0174 17.588 50.6144 17.1913 51.2059 16.7769C52.0945 16.1576 52.97 15.5006 53.8324 14.8057C54.4057 14.3412 54.9746 13.859 55.5398 13.3587C56.105 12.8586 56.6619 12.3407 57.2115 11.8049C65.6887 3.52929 70.773 -6.42315 71.3226 -16.7068C71.3571 -17.3153 71.3739 -17.926 71.3733 -18.5384L71.3678 -18.8539C71.327 -23.2794 70.4398 -27.6664 68.7394 -31.847C68.6254 -32.1354 68.504 -32.4174 68.3826 -32.6962L68.2694 -32.9373C68.1833 -33.1315 68.0973 -33.3225 68.0038 -33.5102C67.9608 -33.6042 67.9141 -33.6981 67.8674 -33.7919C67.7817 -33.965 67.696 -34.1339 67.6105 -34.2988C67.5637 -34.3927 67.5132 -34.4865 67.4628 -34.5771C67.3734 -34.746 67.2841 -34.9086 67.1911 -35.0711L67.0514 -35.3212L66.7262 -35.8647C66.6914 -35.9209 66.6604 -35.9772 66.6256 -36.0302C66.4787 -36.2644 66.3319 -36.4922 66.1814 -36.7169L66.1197 -36.8042C65.9886 -36.9944 65.8576 -37.1815 65.7342 -37.3624L65.5841 -37.5618C65.4764 -37.7051 65.3686 -37.8485 65.261 -37.9855C65.2033 -38.0602 65.1458 -38.1286 65.0919 -38.2003C64.9844 -38.331 64.8769 -38.4617 64.7695 -38.5861L64.5967 -38.7914C64.4817 -38.9219 64.3667 -39.0493 64.248 -39.1767L64.0909 -39.3475C63.9453 -39.506 63.7961 -39.658 63.6431 -39.81L63.5781 -39.8752C63.4022 -40.0489 63.2263 -40.2194 63.0431 -40.3835C63.0048 -40.4207 62.9629 -40.4547 62.9209 -40.4918C62.7834 -40.6157 62.6422 -40.7395 62.5049 -40.857L62.318 -41.0116L61.9368 -41.3205L61.7349 -41.4748L61.3541 -41.7554L61.1562 -41.8972C61.0192 -41.9958 60.8785 -42.088 60.7378 -42.1834L60.5781 -42.2911C60.1978 -42.5464 59.7839 -42.7854 59.3778 -43.0119L59.2034 -43.1035C59.0592 -43.1831 58.9112 -43.2626 58.7633 -43.3357L58.5472 -43.4425C58.4107 -43.5127 58.2705 -43.5765 58.1341 -43.6436L57.9068 -43.7469L57.4788 -43.9351L57.2668 -44.023C57.104 -44.0927 56.9375 -44.1561 56.7709 -44.2226L56.6234 -44.28L55.9615 -44.5178L55.867 -44.5477C55.678 -44.6107 55.489 -44.6737 55.2963 -44.7303L55.0847 -44.7961L54.6201 -44.93L54.3784 -44.9952L53.9291 -45.1105L53.7895 -45.1459L53.68 -45.1724L53.2083 -45.281L52.9858 -45.3276C52.7896 -45.3715 52.6085 -45.4094 52.3974 -45.4467L52.288 -45.4701L51.5792 -45.5934L51.3833 -45.6216L50.867 -45.7009L50.5996 -45.7341L50.1438 -45.7925L49.8576 -45.8253L49.4058 -45.8711L49.1234 -45.9009L48.6417 -45.9398L48.3857 -45.9606L47.716 -46.0026L47.5582 -45.9998L46.9187 -46.0297L46.6294 -46.0247L46.1707 -46.0387L45.8438 -46.033L45.4152 -46.0413L45.077 -46.0354L44.6487 -46.028L43.5516 -46.0088L42.8227 -45.9961L42.4958 -45.9904L42.0525 -45.9826L41.6767 -45.9761L41.301 -45.9695L40.9027 -45.9626L40.5273 -45.9402L40.1181 -45.9142L39.7427 -45.8887L39.3223 -45.8592L39.0032 -45.8347L37.9186 -45.7463L37.8435 -45.745L37.3406 -45.6984L37.0705 -45.6747L36.5714 -45.6281L36.305 -45.6014L35.7797 -45.5512L35.5659 -45.5285L34.9919 -45.468L34.898 -45.4664C33.3636 -45.3039 31.8258 -45.1255 30.2917 -44.9504L28.8926 -44.7902L28.5175 -44.749L26.6419 -44.5426L26.4841 -44.5399L24.6833 -44.3569L24.4916 -44.3536C23.8613 -44.2952 23.2308 -44.2401 22.6153 -44.1914L19.4999 -43.9603C18.7492 -43.903 18.025 -43.8367 17.2895 -43.7671L16.7915 -43.6605L15.0282 -43.4814L14.5406 -43.4287C13.0626 -43.2681 11.5848 -43.093 10.1073 -42.9031L9.66485 -42.8449L7.78997 -42.5975L7.41496 -42.5499C3.94662 -42.0822 0.475294 -41.5703 -2.99637 -41.0772L-3.88496 -40.9544L-4.95722 -40.8031L-6.08207 -40.6509L-7.09073 -40.5165L-7.95684 -40.3973L-9.45458 -126.203L9.1402 -114.243L10.953 -113.097C34.9766 -98.0215 63.2758 -88.4151 88.6019 -74.9438C99.2961 -69.2564 108.477 -61.7656 118.855 -55.6845C138.411 -44.2241 153.855 -35.9589 178.444 -33.0991C195.963 -31.0629 214.438 -35.6717 231.519 -31.8602C246.464 -28.5292 257.109 -16.8406 271.597 -12.3274C287.359 -7.41975 304.786 -7.44302 321.08 -3.90505C333.047 -1.31738 344.183 3.61106 356.206 5.99573C411.009 16.8503 485.939 18.1275 538.888 16.209L539.755 16.1749C564.595 15.1479 561.297 9.61557 583.205 3.3907C598.8 -1.04478 615.054 -3.6516 630.74 -7.82984C643.422 -11.2076 655.395 -16.4668 668.271 -19.2514C676.359 -20.9991 684.993 -22.8511 693.738 -24.4462L693.279 -24.2141L693.29 -24.227ZM-4.5321 69.6786C-4.33431 70.0123 -4.11665 70.3371 -3.87995 70.6521C-4.11665 70.3371 -4.33431 70.0123 -4.5321 69.6786Z" fill="#D53A2C"/>
<path d="M1286.26 -502.278C1313.25 -467.397 1288.71 -428.3 1278.9 -393.475C1276.24 -384.019 1276.51 -374.04 1273.17 -364.737C1270.13 -356.272 1263.36 -349.008 1259.94 -340.65L1256.69 -332.728C1251.16 -319.084 1257.67 -311.405 1255.76 -305.983L1255.32 -304.713L1252.84 -300.181C1250.56 -296.003 1247.98 -282.828 1244.73 -276.682L1243.21 -273.815C1224.94 -239.228 1240.35 -211.562 1234.16 -177.984C1226.77 -137.876 1221.81 -191.294 1228.32 -127.958C1231.74 -94.7743 1252.14 -58.185 1275.44 -31.4342C1278.68 -27.7031 1284.28 -21.4881 1289.63 -11.7272C1294.98 -1.96637 1301.91 32.5098 1314.75 53.4146C1318.59 59.6316 1323.6 65.278 1329.6 70.1335C1315.51 64.698 1305.46 69.5039 1294.94 74.5263C1289.69 77.0261 1284.33 79.5848 1278.3 80.9621C1261.81 84.7221 1256.18 74.1675 1249.66 61.9272C1248.53 59.8194 1247.38 57.6616 1246.16 55.5177L1245.39 54.1708C1240.52 45.5694 1236.94 29.0671 1233.13 11.4957C1230.35 -1.34952 1227.44 -14.7639 1223.81 -26.0825L1223.28 -27.7239C1219.99 -37.6123 1210.21 -42.9621 1200.44 -48.2836C1195.86 -50.7856 1191.28 -53.2844 1187.37 -56.2622C1167.68 -71.2836 1158.41 -94.9873 1167.07 -110.125C1170.05 -115.227 1175.41 -117.966 1180.95 -120.442L1185.09 -122.276C1186.49 -122.857 1187.92 -123.374 1189.38 -123.825C1194.05 -125.343 1198.84 -126.9 1198.59 -131.327C1198.31 -136.319 1192.39 -138.425 1186.97 -139.963L1183.84 -140.855C1177.91 -142.585 1171.62 -143.567 1165.36 -144.544C1163.66 -144.811 1161.97 -145.075 1160.27 -145.355L1159.89 -145.418C1158.9 -145.58 1157.87 -145.698 1156.84 -145.825C1152.21 -146.375 1147.53 -146.944 1145.23 -151.14C1142.46 -156.211 1145.33 -160.611 1148.43 -164.74L1149.9 -166.684C1155.17 -173.458 1162.73 -178.502 1171.79 -180.503L1172.5 -180.667C1192.26 -185.327 1196.1 -197.751 1200.27 -211.213C1200.87 -213.143 1201.47 -215.094 1202.13 -217.047L1202.63 -218.508C1210.25 -240.104 1219.46 -261.302 1228.67 -282.482C1240.91 -310.604 1253.14 -338.723 1261.62 -367.818L1262.02 -369.198C1264.59 -377.734 1267.79 -386.151 1270.98 -394.564C1277.6 -411.996 1284.22 -429.421 1285.19 -447.887C1287.04 -482.832 1263.27 -511.368 1217.11 -528.061L1217.23 -528.016L1221.1 -527.493C1239.04 -525.029 1255.47 -522.367 1270.76 -516.997C1276.71 -512.729 1281.91 -507.776 1286.2 -502.283" fill="#E6C6A7"/>
<path d="M1022.25 7.11528C1000.94 15.5707 982.238 30.6375 965.229 47.9253C962.141 51.0629 960.446 53.8543 959.888 56.304C946.795 59.5948 934.08 63.8822 921.9 69.1128C914.741 72.189 907.638 75.6303 899.773 76.9797C888.156 78.9753 876.224 76.2039 865.047 72.987C863.022 72.4068 860.891 71.7528 859.522 70.3816C857.56 68.4304 857.607 65.5541 858.266 63.0491C862.182 48.1678 881.926 40.5004 899.714 37.4628C918.45 34.2634 938.039 33.6059 955.657 27.3328C961.032 25.4146 966.135 22.9993 971.227 20.5904C988.575 12.3746 1005.99 4.1259 1021.82 -6.04553C1034.01 -13.8874 1047.21 -23.3944 1062.43 -21.9744C1062.4 -21.2562 1062.33 -20.5429 1062.23 -19.8341C1053.26 -10.5241 1040.98 -0.303909 1022.25 7.12791" fill="#5F5F6B"/>
<path d="M1022.25 7.11523C1071.25 -12.3279 1076.16 -50.8047 1092.88 -42.6028C1105.7 -36.3718 1069.33 6.41654 1066.33 17.6362C1060.41 39.8343 1093.86 71.1109 1062.6 77.3034C1031.33 83.4959 1025.7 64.517 999.519 68.2819C973.336 72.0468 948.22 65.2034 965.229 47.9252C982.239 30.647 1000.94 15.5707 1022.25 7.11523Z" fill="#D53A2C"/>
<path d="M791.64 -64.3191L790.855 -64.0402L788.838 -63.3201L787.086 -62.6961L785.775 -62.225L783.329 -61.349L782.627 -61.0969L779.598 -60.0056L779.299 -59.8962L775.885 -58.6624L775.814 -58.6359C747.621 -48.3938 719.777 -37.5169 693.287 -24.227C693.444 -24.3023 693.593 -24.3807 693.749 -24.4591C685.009 -22.8641 676.374 -20.9995 668.282 -19.28C655.402 -16.4985 643.433 -11.2299 630.751 -7.85535C615.039 -3.67665 598.803 -1.07014 583.216 3.36521C561.308 9.59009 564.607 15.1225 539.767 16.1495L538.899 16.1835C485.939 18.1022 411.02 16.8375 356.217 5.97024C344.186 3.58569 333.051 -1.34275 321.091 -3.93055C304.797 -7.4559 287.37 -7.42 271.608 -12.3403C257.12 -16.8598 246.475 -28.542 231.53 -31.8731C214.449 -35.6783 195.974 -31.0758 178.455 -33.112C153.87 -35.9718 138.422 -44.237 118.866 -55.6974C108.488 -61.7786 99.3074 -69.2694 88.6132 -74.9567C63.276 -88.4152 34.9768 -98.0217 10.9532 -113.097L9.14045 -114.243L-9.45434 -126.203L-9.77164 -144.381C4.61898 -133.844 15.3013 -126.035 35.0294 -118.479C80.8875 -100.922 130.723 -100.514 177.957 -85.755C237.313 -67.2215 291.057 -37.1449 348.243 -14.8679C379.382 -2.74803 419.165 0.307347 452.32 4.92405C458.853 5.83268 464.832 9.07723 471.449 9.391C566.83 13.9411 597.946 -9.71314 675.812 -34.2433C753.679 -58.7735 804.774 -72.3194 805.078 -71.0621L805.508 -69.2484C800.884 -67.6103 796.26 -65.9716 791.639 -64.3317" fill="#FFD72E"/>
<path d="M550.582 24.726C562.661 22.2868 575.326 13.6445 593.39 7.92225C606.573 3.74666 621.998 1.42576 635.554 -2.53223C647.146 -5.90989 659.298 -12.2959 668.35 -15.6419C678.339 -19.3356 684.874 -20.0147 689.36 -22.2425L689.565 -22.3376L689.074 -22.0891C686.145 -20.6271 683.225 -19.5566 679.938 -18.3535C674.985 -16.6115 670.168 -14.6064 665.517 -12.3508C662.871 -11.0421 659.78 -9.2079 656.507 -7.25062C650.79 -3.83347 644.515 -0.0814739 639.077 1.64846C632.498 3.73603 625.435 4.94196 618.484 6.13015C608.497 7.83531 598.728 9.50196 590.954 13.6968C567.579 26.2979 541.327 34.2715 521.699 34.6141C495.725 35.0675 468.506 36.3001 448.541 37.7849C457.204 34.9789 466.043 32.5924 475.026 30.6374C498.14 25.6982 523.325 30.2362 550.586 24.7291" fill="#4195C4"/>
<path d="M1117.82 -8.74391C1124.08 -20.9264 1132.37 -32.5824 1135.44 -45.5835C1139.93 -64.5686 1132.93 -84.9944 1141.04 -103.127C1141.65 -104.495 1142.46 -105.946 1144.01 -106.617C1148.66 -108.633 1151.79 -102.333 1151.68 -97.9409C1150.94 -61.8357 1154.08 -25.7683 1161.07 9.82128C1162.16 15.348 1163.36 20.9202 1166 26.0602C1170 33.8813 1177.12 40.3286 1180.92 48.21C1183.14 52.8819 1184.14 57.9039 1183.85 62.9393C1183.56 67.9743 1182 72.906 1179.26 77.404C1170.35 82.0953 1158.01 78.6019 1151.13 71.9894C1144.26 65.3768 1141.5 56.5018 1138.96 47.9703C1136.91 41.081 1134.86 34.1929 1132.8 27.3056C1132.43 26.0496 1131.98 24.7001 1130.78 23.8941C1121.74 17.8465 1119.69 35.8926 1110.79 24.0127C1105.09 16.4137 1114.14 -1.62833 1117.79 -8.72761" fill="#40B5AD"/>
<path d="M1012.63 -30.0252C1006.65 -24.536 1001.57 -18.6334 996.108 -12.8092C990.204 -6.50068 981.973 -2.22529 973.81 1.64488C959.645 8.35009 944.436 13.7826 930.237 20.6904C909.296 30.8786 889.724 36.7881 865.499 36.87C845.344 36.9346 827.93 46.3321 813.118 57.1014C806.115 62.1949 797.01 64.2193 788.588 66.8535C777.401 70.3567 766.144 74.2209 754.702 77.1667C741.73 80.5053 721.178 86.0121 707.946 82.0166C705.585 81.3035 704.297 79.8709 705.646 77.8935C706.405 76.8163 707.323 75.8252 708.383 74.945C724.844 70.6049 740.998 65.0392 756.939 59.5087C761.321 57.9897 765.781 56.4252 769.558 54.0551L770.261 53.8503C770.237 53.7813 770.217 53.7122 770.194 53.6432C770.632 53.3515 771.063 53.0472 771.482 52.7306C775.721 49.5002 778.445 45.1474 781.699 41.1893C785.548 36.5289 790.193 32.3698 795.487 28.847C806.042 30.6671 815.98 32.2202 826.437 30.5321C836.428 28.9215 842.264 23.6968 850.02 18.0252C861.209 9.8442 873.928 2.34357 886.486 -4.01796C897.513 -9.60785 911.028 -11.5545 923.608 -14.1351C938.385 -17.1738 952.561 -20.7007 966.657 -25.5046C979.894 -30.0157 991.956 -35.3332 1004.12 -41.6627C1012.43 -45.9867 1029.59 -54.7107 1032.19 -53.1305C1034.78 -51.5502 1017.53 -34.5423 1012.61 -30.0185" fill="#5596DC"/>
<path d="M249.774 61.8086C251.7 61.4751 253.714 61.0517 255.142 59.9095C257.225 58.2381 257.46 55.5606 257.553 53.1475C257.88 44.9667 257.623 35.6188 250.295 30.2767C241.136 23.6188 227.221 27.2075 215.177 28.6108C198.186 30.5771 180.826 27.3166 163.843 29.3553C134.54 32.8654 110.282 51.5138 81.1247 55.8293C72.6414 57.0853 63.5853 57.1802 56.1555 60.8703C53.7485 62.0644 51.3497 64.3789 52.5253 66.4921C53.2162 67.7426 54.8839 68.3289 56.4252 68.7818C84.8534 77.1645 118.177 72.9404 142.557 57.8629C146.707 55.2969 150.618 52.4352 155.056 50.243C168.567 43.565 186.504 44.7165 199.339 51.8373C205.445 55.2217 208.831 60.7747 215.319 63.0255C224.315 66.1385 240.59 63.4051 249.763 61.8088" fill="#5596DC"/>
<path d="M602.289 60.5984L507.651 75.5955C500.53 76.7267 493.199 77.9121 486.974 81.0761C481.327 83.9491 476.866 88.3165 471.045 90.9338C464.672 93.7974 457.232 94.3312 450.028 94.5738C424.577 95.458 399.116 93.6523 374.241 89.1988C368.077 88.0944 360.687 85.6761 360.114 80.4055C359.479 74.6278 367.558 71.1 374.337 69.9306C399.963 65.5157 426.84 70.7375 452.447 66.2819C472.561 62.7745 490.617 53.5457 510.26 48.4745C528.694 43.7149 548.119 42.713 567.356 41.7428L624.26 38.8746C632.991 38.435 641.838 37.9775 650.137 35.6548C660.931 32.6414 670.152 26.6885 679.579 21.3412C700.606 9.43409 723.573 0.164705 747.753 -6.17305C739.938 10.3481 722.105 23.3134 701.528 27.4097C680.416 31.6195 674.799 39.053 657.119 47.2178C640.498 54.8939 620.646 57.6866 602.266 60.5988" fill="#8B7AB0"/>
<path d="M874.665 -22.3806C865.769 -12.8761 850.782 -8.4828 841.929 1.05251C838.867 4.35071 836.622 8.18701 833.146 11.18C826.973 16.4958 817.915 18.4088 809.865 21.4627C798.53 25.7846 788.787 32.6109 781.691 41.2084C778.438 45.1633 775.714 49.5193 771.475 52.7497C767.346 55.8961 762.083 57.7432 756.935 59.5277C724.74 70.6954 691.68 82.0291 656.933 83.0523C640.029 83.5494 623.104 81.5817 606.258 82.8132C572.93 85.2509 542.855 99.8535 512.391 111.597C481.928 123.34 441.423 131.928 415.468 123.544C408.89 117.911 447.22 119.296 457.163 108.42C462.44 102.646 467.007 96.2061 472.22 90.3735C477.476 87.725 481.703 83.7594 486.959 81.0858C493.184 77.9217 500.497 76.7462 507.636 75.6052L602.289 60.5984C620.654 57.6864 640.524 54.8808 657.142 47.2174C674.821 39.0494 680.438 31.6194 701.551 27.4092C722.128 23.3003 739.964 10.3476 747.775 -6.17348C746.732 -5.89959 745.688 -5.61309 744.648 -5.32633C758.013 -11.5567 771.174 -18.0995 784.188 -24.8162C792.1 -28.9061 800.11 -33.124 809.077 -35.1207C814.131 -36.2442 819.397 -36.6356 824.368 -37.9979C838.679 -41.9186 843.112 -38.5868 842.781 -38.199C841.217 -36.2779 842.375 -35.1716 845.303 -35.1628C858.293 -35.1275 870.971 -42.1603 876.057 -52.2264C878.208 -56.4809 879.114 -61.1994 882.071 -65.1018C885.029 -69.0045 891.18 -71.8737 896.021 -69.7172C884.551 -55.6857 887.165 -35.7609 874.639 -22.3801" fill="#FEECA5"/>
<path d="M1446.43 51.4349C1445.31 51.4348 1444.19 51.3382 1443.1 51.1458C1427.49 51.3204 1429.19 72.6152 1419.01 83.0166C1409.67 92.5572 1396.3 97.8218 1374.15 91.5232C1358.86 87.1786 1342.5 80.6212 1329.61 70.105C1323.61 65.2492 1318.59 59.6029 1314.75 53.3861C1301.92 32.4813 1294.99 -2.01072 1289.64 -11.7588C1284.28 -21.5069 1278.69 -27.7442 1275.45 -31.4626C1252.15 -58.2009 1231.74 -94.8027 1228.33 -127.986C1221.82 -191.316 1226.77 -137.905 1234.16 -178.013C1240.34 -211.578 1224.95 -239.256 1243.22 -273.844L1244.73 -276.711C1247.98 -282.847 1250.56 -296.022 1252.84 -300.21L1255.33 -304.742L1255.76 -306.012C1257.67 -311.433 1251.16 -319.112 1256.7 -332.756L1259.94 -340.679C1263.37 -349.037 1270.14 -356.301 1273.18 -364.766C1276.52 -374.069 1276.22 -384.047 1278.91 -393.503C1288.71 -428.329 1313.25 -467.416 1286.26 -502.309C1281.97 -507.802 1276.77 -512.752 1270.82 -517.02C1272 -516.608 1273.16 -516.18 1274.32 -515.733C1278.4 -513.63 1282.44 -511.69 1286.63 -510.191C1300.19 -503.098 1312.87 -492.875 1324.98 -477.478L1325.91 -476.292C1326.22 -475.878 1326.54 -475.476 1326.86 -475.078L1327.1 -474.766L1327 -474.828L1326.84 -474.935L1326.57 -475.101L1326.45 -475.171L1326.24 -475.285L1326.13 -475.346C1326.02 -475.398 1325.91 -475.449 1325.81 -475.495C1326.13 -474.509 1326.46 -473.521 1326.78 -472.532C1326.95 -472.008 1327.12 -471.481 1327.29 -470.963C1327.44 -470.486 1327.6 -470.021 1327.75 -469.532C1327.93 -468.979 1328.1 -468.427 1328.28 -467.871C1328.47 -467.265 1328.67 -466.656 1328.86 -466.051C1328.96 -465.737 1329.06 -465.423 1329.16 -465.125C1329.48 -464.079 1329.81 -463.043 1330.14 -462.023C1331.7 -457.098 1333.26 -452.167 1334.91 -447.271L1334.97 -447.086C1335.78 -444.667 1336.61 -442.254 1337.47 -439.848L1337.52 -439.679C1337.93 -438.543 1338.35 -437.408 1338.77 -436.276C1338.8 -436.191 1338.83 -436.109 1338.86 -436.028C1339.3 -434.839 1339.75 -433.654 1340.21 -432.466C1343.91 -423.039 1353.85 -420.508 1364.24 -419.19L1365.25 -419.065L1367.51 -418.789C1391.48 -416.032 1397.47 -408.511 1392.57 -388.812C1392.52 -388.634 1392.48 -388.457 1392.43 -388.276L1392.05 -386.738L1391.66 -385.198C1389.06 -374.604 1386.92 -363.926 1384.88 -353.225C1384.74 -352.512 1384.6 -351.8 1384.47 -351.084L1384.44 -350.938L1383.29 -344.858C1380.81 -331.924 1372.56 -323.387 1360.71 -318.462C1360.21 -318.254 1359.71 -318.056 1359.21 -317.864C1358.2 -317.477 1357.16 -317.118 1356.11 -316.781C1353.94 -316.096 1351.72 -315.518 1349.48 -315.052C1348.9 -314.932 1348.32 -314.818 1347.74 -314.706L1340.81 -313.395C1334.06 -312.129 1327.25 -310.99 1320.64 -310.834C1308.85 -310.565 1297.69 -313.438 1288.6 -324.371L1288.44 -324.564L1288.24 -324.781C1287.63 -325.402 1287.09 -325.648 1286.63 -325.659C1285.8 -325.676 1285.16 -324.93 1284.68 -324.104L1284.59 -323.951C1284.54 -323.846 1284.48 -323.741 1284.43 -323.632C1284.35 -323.476 1284.27 -323.314 1284.2 -323.174L1283.45 -321.5C1282.84 -320.123 1282.26 -318.749 1281.72 -317.389C1265.03 -275.727 1277.76 -241.734 1342.3 -230.207C1343.96 -224.134 1346.11 -218.112 1347.22 -211.954C1349.98 -196.58 1346.18 -180.893 1346.74 -165.341C1347.15 -153.831 1349.95 -142.498 1352.74 -131.234C1355.47 -120.216 1358.21 -109.175 1362.2 -98.4372C1365.01 -90.8825 1368.57 -83.3061 1374.89 -77.4509C1378.96 -73.6838 1383.97 -70.8263 1389.44 -68.6303C1389.48 -68.1607 1389.52 -67.6849 1389.58 -67.225C1389.58 -67.2186 1389.58 -67.2123 1389.58 -67.2061C1389.63 -66.8502 1389.68 -66.4976 1389.75 -66.1549C1389.75 -66.1265 1389.76 -66.0981 1389.77 -66.0668C1389.81 -65.9096 1389.85 -65.7525 1389.89 -65.6049C1389.89 -65.5945 1389.89 -65.5838 1389.89 -65.5733C1389.94 -65.4133 1390 -65.2596 1390.06 -65.1029C1390.07 -65.0749 1390.08 -65.0476 1390.1 -65.0214C1390.15 -64.8992 1390.2 -64.777 1390.26 -64.6613L1390.32 -64.5519C1390.4 -64.415 1390.49 -64.2817 1390.58 -64.1523C1390.87 -63.7367 1391.16 -63.3206 1391.43 -62.9047C1391.5 -62.808 1391.57 -62.7145 1391.63 -62.6177C1391.9 -62.2017 1392.17 -61.7853 1392.43 -61.3691L1392.52 -61.2161C1392.75 -60.8476 1392.97 -60.4759 1393.19 -60.1041C1393.26 -59.9917 1393.33 -59.8792 1393.39 -59.7699C1393.63 -59.3668 1393.86 -58.9668 1394.08 -58.5635C1394.14 -58.4603 1394.19 -58.3571 1394.25 -58.2508C1394.43 -57.9383 1394.6 -57.5972 1394.77 -57.272C1394.84 -57.1375 1394.91 -57.0062 1394.98 -56.8748C1395.18 -56.4869 1395.37 -56.0988 1395.57 -55.7078C1395.64 -55.5606 1395.71 -55.4104 1395.79 -55.2634C1395.92 -54.9816 1396.06 -54.7031 1396.18 -54.4211C1396.25 -54.2583 1396.33 -54.1081 1396.41 -53.9358C1396.58 -53.5695 1396.74 -53.2031 1396.91 -52.8367C1397 -52.6362 1397.09 -52.4358 1397.17 -52.2384L1397.45 -51.5837C1397.61 -51.2225 1397.76 -50.8622 1397.91 -50.5027L1398.14 -49.9637L1398.47 -49.1551L1398.59 -48.8416C1400.64 -43.7073 1402.37 -38.4694 1404.38 -33.3155C1411.17 -15.7929 1428.33 -8.82974 1447.93 -4.93908L1448.91 51.0129C1448.12 51.301 1447.26 51.445 1446.4 51.4354" fill="#ED746E"/>
<path d="M693.29 -24.227L691.152 -23.1449L689.572 -22.344L689.36 -22.2424C684.889 -20.0149 678.339 -19.3356 668.349 -15.6418C659.297 -12.2959 647.13 -5.90962 635.553 -2.53223C621.998 1.41944 606.573 3.74665 593.39 7.92224C575.326 13.6444 562.66 22.2867 550.582 24.726C523.321 30.2331 498.136 25.6951 475.022 30.6343C466.039 32.5896 457.196 34.9758 448.537 37.7818C422.938 45.9586 402.026 55.7896 388.747 57.5238C369.394 60.0522 357.046 67.2307 347.689 75.528C344.184 75.8196 314.507 110.019 301.301 110.25C275.492 110.7 261.095 100.681 251.964 71.9372C251.745 71.2511 251.523 70.5719 251.301 69.9003C251.523 70.5719 251.75 71.2497 251.968 71.9371C251.75 71.2497 251.523 70.5687 251.297 69.894C251.278 69.8407 251.262 69.7874 251.242 69.734C251.016 69.0594 250.783 68.388 250.549 67.7292L250.549 67.7008C250.43 67.3651 250.308 67.0295 250.185 66.6971C250.063 66.3647 249.941 66.0354 249.819 65.7061L249.818 65.6714C249.633 65.1759 249.444 64.6805 249.251 64.1946C249.445 64.6795 249.634 65.1718 249.818 65.6714C249.589 65.0599 249.357 64.4611 249.121 63.8655C249.047 63.6774 248.968 63.4925 248.894 63.3044C248.725 62.8813 248.552 62.4582 248.376 62.0509L248.54 62.4394L248.376 62.0509L249.792 61.8053C251.718 61.4718 253.733 61.0484 255.16 59.9061C257.246 58.2347 257.478 55.5572 257.571 53.1441C257.898 44.9633 257.641 35.6155 250.313 30.2734C241.154 23.6155 227.239 27.2041 215.195 28.6043C198.204 30.5769 180.844 27.3101 163.861 29.352C155.325 30.3753 147.217 32.6821 139.288 35.5476L137.671 35.7053L137.296 35.7434C136.519 35.8232 135.746 35.903 134.97 35.9891L134.835 35.9915C134.129 36.0701 133.424 36.1487 132.719 36.2336L132.217 36.2929L130.225 36.5391L129.936 36.5757C129.186 36.674 128.41 36.7791 127.649 36.8839L127.304 36.931L125.381 37.2107L124.864 37.2892C124.148 37.3996 123.436 37.5098 122.72 37.6423L122.63 37.6438C121.88 37.7674 121.131 37.8941 120.363 38.0275L119.906 38.108C119.295 38.2165 118.688 38.3281 118.078 38.4556L117.576 38.5496C116.077 38.8345 114.594 39.1372 113.127 39.4573L112.614 39.5705L110.805 39.9808L110.353 40.0865C109.604 40.2596 108.863 40.4399 108.13 40.6272L107.946 40.6746C107.28 40.844 106.614 41.0135 105.948 41.1956L105.41 41.3407C104.794 41.5093 104.176 41.6823 103.558 41.8591L103.207 41.9568C102.474 42.1675 101.744 42.3854 101.016 42.6105L100.642 42.7243C100.036 42.9117 99.4319 43.1043 98.8291 43.302L98.2872 43.4788C97.6295 43.6954 96.9719 43.9152 96.3144 44.1445L96.1239 44.2109C95.3992 44.4635 94.6783 44.7223 93.9614 44.9873L93.4909 45.1628C92.9159 45.3833 92.3436 45.6039 91.7735 45.824L91.2472 46.0289C90.538 46.3096 89.8252 46.5966 89.1162 46.8931L88.3699 47.1965C87.5386 47.5248 86.7019 47.8222 85.8598 48.0894L85.7477 48.1261L85.0262 48.347L84.8392 48.4007L84.1847 48.5858L83.9528 48.6466L83.3429 48.8056L83.081 48.8702L82.4971 49.0098L82.2126 49.0747L81.651 49.1981L81.3439 49.2603L80.8008 49.3676L80.4786 49.4269L79.9429 49.5247L79.6169 49.5809L79.0847 49.6659L78.7511 49.7191L78.2262 49.7945L77.8813 49.8416L77.3638 49.9074L77.0149 49.9482L76.4973 50.0078L76.1447 50.0455L75.6307 50.0986L75.2554 50.1304L74.7413 50.1741L74.366 50.2028L73.8555 50.2401L73.4801 50.2656L73.0033 50.296L72.6276 50.3026L72.1057 50.3306L71.7487 50.3368L71.2302 50.3459L70.8545 50.3524L70.3322 50.3616L68.1718 50.3993L67.6533 50.4083L67.3302 50.414L66.7441 50.4242L66.4473 50.4294L65.8345 50.4211L65.5602 50.4259L64.9136 50.4151L64.6769 50.4192L63.9663 50.4032L63.7934 50.4063L62.9963 50.3855L62.9099 50.387C62.2105 50.3676 61.5111 50.3483 60.8116 50.3226L59.4352 50.2772L57.8557 50.2227L57.5436 50.2123L57.2202 50.2022L57.1075 50.2042L56.6338 50.1967L56.2581 50.2032L55.7959 50.2113L54.9618 50.2258L54.5861 50.2324L54.1465 50.2401L53.7708 50.2466L53.3353 50.2732L52.9899 50.2981L52.5659 50.3339L52.2578 50.3425L51.8414 50.3876L51.5189 50.4248L51.1139 50.4792L50.8027 50.5225L50.4054 50.5863L50.1056 50.6357L49.731 50.7054L49.4426 50.7609L49.0682 50.8432L48.7948 50.9016L48.4206 50.9902L48.1586 51.0579L47.7845 51.156L47.5339 51.2235L47.1599 51.331L46.9207 51.4078L46.5657 51.5213L46.334 51.6011L45.9867 51.7271L45.7664 51.8067L45.4229 51.9421L45.2177 52.0278L44.882 52.1725L44.6806 52.2613L44.3525 52.4122L44.1662 52.5038L43.842 52.6673L43.6632 52.7588L43.3468 52.9316L43.1793 53.0261L42.8668 53.2083L42.7106 53.3057L42.402 53.4973L42.2572 53.5945C42.1531 53.6626 42.0528 53.7275 41.9563 53.7986L41.8152 53.8958C41.7149 53.9638 41.6184 54.0349 41.522 54.1092L41.3921 54.2062L41.0991 54.4291L40.9805 54.5258C40.8842 54.6033 40.7878 54.6807 40.6952 54.7612L40.5841 54.8547L40.2991 55.1027L40.2029 55.1928C40.1067 55.2797 40.0143 55.3665 39.9219 55.4565L39.8331 55.5401C39.7408 55.6333 39.6447 55.7233 39.5561 55.8164L39.4749 55.8999C39.3825 55.993 39.2902 56.0893 39.2017 56.1856L39.1317 56.2626L38.8588 56.5672C38.8592 56.5893 38.8221 56.6152 38.7999 56.6376C38.7078 56.7434 38.6195 56.8491 38.5312 56.958C38.5315 56.9769 38.498 56.9964 38.4834 57.0188C38.3913 57.1277 38.3031 57.2397 38.2149 57.3549L38.1744 57.4061C38.0825 57.5245 37.9944 57.6397 37.9063 57.7611L37.8806 57.7995C37.7888 57.9242 37.7008 58.0488 37.6128 58.1734L37.5945 58.199C37.5065 58.3299 37.4149 58.461 37.327 58.5951C34.8303 62.4074 33.5787 67.1385 32.513 71.9738L31.6962 75.7757L32.5133 71.9927C32.4871 72.4287 30.7153 100.327 -5.47937 101.537L-6.82774 24.2889C-2.78653 24.7739 1.25784 25.2241 5.28116 25.5452C21.0885 26.8128 36.4635 26.1341 49.4151 17.9666C50.0174 17.588 50.6144 17.1913 51.2059 16.7769C52.0945 16.1576 52.97 15.5006 53.8324 14.8057C54.4057 14.3412 54.9746 13.859 55.5398 13.3587C56.105 12.8586 56.6619 12.3407 57.2115 11.8049C65.6887 3.52929 70.773 -6.42315 71.3226 -16.7068C71.3571 -17.3153 71.3739 -17.926 71.3733 -18.5384L71.3678 -18.8539C71.327 -23.2794 70.4398 -27.6664 68.7394 -31.847C68.6254 -32.1354 68.504 -32.4174 68.3826 -32.6962L68.2694 -32.9373C68.1833 -33.1315 68.0973 -33.3225 68.0038 -33.5102C67.9608 -33.6042 67.9141 -33.6981 67.8674 -33.7919C67.7817 -33.965 67.696 -34.1339 67.6105 -34.2988C67.5637 -34.3927 67.5132 -34.4865 67.4628 -34.5771C67.3734 -34.746 67.2841 -34.9086 67.1911 -35.0711L67.0514 -35.3212L66.7262 -35.8647C66.6914 -35.9209 66.6604 -35.9772 66.6256 -36.0302C66.4787 -36.2644 66.3319 -36.4922 66.1814 -36.7169L66.1197 -36.8042C65.9886 -36.9944 65.8576 -37.1815 65.7342 -37.3624L65.5841 -37.5618C65.4764 -37.7051 65.3686 -37.8485 65.261 -37.9855C65.2033 -38.0602 65.1458 -38.1286 65.0919 -38.2003C64.9844 -38.331 64.8769 -38.4617 64.7695 -38.5861L64.5967 -38.7914C64.4817 -38.9219 64.3667 -39.0493 64.248 -39.1767L64.0909 -39.3475C63.9453 -39.506 63.7961 -39.658 63.6431 -39.81L63.5781 -39.8752C63.4022 -40.0489 63.2263 -40.2194 63.0431 -40.3835C63.0048 -40.4207 62.9629 -40.4547 62.9209 -40.4918C62.7834 -40.6157 62.6422 -40.7395 62.5049 -40.857L62.318 -41.0116L61.9368 -41.3205L61.7349 -41.4748L61.3541 -41.7554L61.1562 -41.8972C61.0192 -41.9958 60.8785 -42.088 60.7378 -42.1834L60.5781 -42.2911C60.1978 -42.5464 59.7839 -42.7854 59.3778 -43.0119L59.2034 -43.1035C59.0592 -43.1831 58.9112 -43.2626 58.7633 -43.3357L58.5472 -43.4425C58.4107 -43.5127 58.2705 -43.5765 58.1341 -43.6436L57.9068 -43.7469L57.4788 -43.9351L57.2668 -44.023C57.104 -44.0927 56.9375 -44.1561 56.7709 -44.2226L56.6234 -44.28L55.9615 -44.5178L55.867 -44.5477C55.678 -44.6107 55.489 -44.6737 55.2963 -44.7303L55.0847 -44.7961L54.6201 -44.93L54.3784 -44.9952L53.9291 -45.1105L53.7895 -45.1459L53.68 -45.1724L53.2083 -45.281L52.9858 -45.3276C52.7896 -45.3715 52.6085 -45.4094 52.3974 -45.4467L52.288 -45.4701L51.5792 -45.5934L51.3833 -45.6216L50.867 -45.7009L50.5996 -45.7341L50.1438 -45.7925L49.8576 -45.8253L49.4058 -45.8711L49.1234 -45.9009L48.6417 -45.9398L48.3857 -45.9606L47.716 -46.0026L47.5582 -45.9998L46.9187 -46.0297L46.6294 -46.0247L46.1707 -46.0387L45.8438 -46.033L45.4152 -46.0413L45.077 -46.0354L44.6487 -46.028L43.5516 -46.0088L42.8227 -45.9961L42.4958 -45.9904L42.0525 -45.9826L41.6767 -45.9761L41.301 -45.9695L40.9027 -45.9626L40.5273 -45.9402L40.1181 -45.9142L39.7427 -45.8887L39.3223 -45.8592L39.0032 -45.8347L37.9186 -45.7463L37.8435 -45.745L37.3406 -45.6984L37.0705 -45.6747L36.5714 -45.6281L36.305 -45.6014L35.7797 -45.5512L35.5659 -45.5285L34.9919 -45.468L34.898 -45.4664C33.3636 -45.3039 31.8258 -45.1255 30.2917 -44.9504L28.8926 -44.7902L28.5175 -44.749L26.6419 -44.5426L26.4841 -44.5399L24.6833 -44.3569L24.4916 -44.3536C23.8613 -44.2952 23.2308 -44.2401 22.6153 -44.1914L19.4999 -43.9603C18.7492 -43.903 18.025 -43.8367 17.2895 -43.7671L16.7915 -43.6605L15.0282 -43.4814L14.5406 -43.4287C13.0626 -43.2681 11.5848 -43.093 10.1073 -42.9031L9.66485 -42.8449L7.78997 -42.5975L7.41496 -42.5499C3.94662 -42.0822 0.475294 -41.5703 -2.99637 -41.0772L-3.88496 -40.9544L-4.95722 -40.8031L-6.08207 -40.6509L-7.09073 -40.5165L-7.95684 -40.3973L-9.45458 -126.203L9.1402 -114.243L10.953 -113.097C34.9766 -98.0215 63.2758 -88.4151 88.6019 -74.9438C99.2961 -69.2564 108.477 -61.7656 118.855 -55.6845C138.411 -44.2241 153.855 -35.9589 178.444 -33.0991C195.963 -31.0629 214.438 -35.6717 231.519 -31.8602C246.464 -28.5292 257.109 -16.8406 271.597 -12.3274C287.359 -7.41975 304.786 -7.44302 321.08 -3.90505C333.047 -1.31738 344.183 3.61106 356.206 5.99573C411.009 16.8503 485.939 18.1275 538.888 16.209L539.755 16.1749C564.595 15.1479 561.297 9.61557 583.205 3.3907C598.8 -1.04478 615.054 -3.6516 630.74 -7.82984C643.422 -11.2076 655.395 -16.4668 668.271 -19.2514C676.359 -20.9991 684.993 -22.8511 693.738 -24.4462L693.279 -24.2141L693.29 -24.227ZM-4.5321 69.6786C-4.33431 70.0123 -4.11665 70.3371 -3.87995 70.6521C-4.11665 70.3371 -4.33431 70.0123 -4.5321 69.6786Z" fill="#ED7342"/>
<path d="M1022.25 7.11528C1000.94 15.5707 982.238 30.6375 965.229 47.9253C962.141 51.0629 960.446 53.8543 959.888 56.304C946.795 59.5948 934.08 63.8822 921.9 69.1128C914.741 72.189 907.638 75.6303 899.773 76.9797C888.156 78.9753 876.224 76.2039 865.047 72.987C863.022 72.4068 860.891 71.7528 859.522 70.3816C857.56 68.4304 857.607 65.5541 858.266 63.0491C862.182 48.1678 881.926 40.5004 899.714 37.4628C918.45 34.2634 938.039 33.6059 955.657 27.3328C961.032 25.4146 966.135 22.9993 971.227 20.5904C988.575 12.3746 1005.99 4.1259 1021.82 -6.04553C1034.01 -13.8874 1047.21 -23.3944 1062.43 -21.9744C1062.4 -21.2562 1062.33 -20.5429 1062.23 -19.8341C1053.26 -10.5241 1040.98 -0.303909 1022.25 7.12791" fill="#E6C6A7"/>
<path d="M1022.25 7.11523C1071.25 -12.3279 1076.16 -50.8047 1092.88 -42.6028C1105.7 -36.3718 1069.33 6.41654 1066.33 17.6362C1060.41 39.8343 1093.86 71.1109 1062.6 77.3034C1031.33 83.4959 1025.7 64.517 999.519 68.2819C973.336 72.0468 948.22 65.2034 965.229 47.9252C982.239 30.647 1000.94 15.5707 1022.25 7.11523Z" fill="#ED746E"/>
<path d="M791.639 -64.319L790.854 -64.0402L788.838 -63.32L787.086 -62.6961L785.775 -62.225L783.328 -61.349L782.626 -61.0968L779.597 -60.0055L779.298 -59.8961L775.885 -58.6624L775.814 -58.6359C747.621 -48.3937 719.777 -37.5169 693.287 -24.2269C693.443 -24.3023 693.592 -24.3806 693.748 -24.4591C685.008 -22.8641 676.374 -20.9995 668.282 -19.28C655.402 -16.4985 643.433 -11.2299 630.751 -7.85534C615.039 -3.67663 598.803 -1.07013 583.215 3.36522C561.307 9.59009 564.606 15.1225 539.766 16.1495L538.898 16.1835C485.939 18.1022 411.019 16.8375 356.217 5.97025C344.186 3.5857 333.05 -1.34273 321.091 -3.93054C304.797 -7.45588 287.37 -7.41999 271.608 -12.3403C257.119 -16.8598 246.475 -28.542 231.529 -31.8731C214.449 -35.6783 195.974 -31.0757 178.454 -33.112C153.87 -35.9718 138.421 -44.237 118.866 -55.6974C108.488 -61.7785 99.3069 -69.2693 88.6127 -74.9567C63.2755 -88.4151 34.9764 -98.0216 10.9527 -113.097L9.13996 -114.243L-9.45483 -126.203L-9.77213 -144.381C4.61849 -133.844 15.3008 -126.035 35.0289 -118.479C80.887 -100.922 130.723 -100.514 177.956 -85.7549C237.313 -67.2214 291.057 -37.1449 348.242 -14.8679C379.382 -2.74801 424.151 -24.9487 457.306 -20.332C463.838 -19.4234 488.449 -21.3049 495.066 -20.9911C590.447 -16.4411 597.945 -9.71312 675.812 -34.2433C753.678 -58.7735 804.774 -72.3193 805.078 -71.0621L805.508 -69.2483C800.883 -67.6102 796.259 -65.9715 791.639 -64.3316" fill="#40B5AD"/>
<path d="M731.53 -319.126L730.861 -317.391C701.621 -243.084 643.188 -186.78 572.765 -137.558C530.22 -107.852 482.598 -85.4221 433.597 -64.7415C426.135 -61.5875 413.559 -56.4566 408.868 -62.9242C405.713 -67.3197 410.731 -70.7751 415.852 -74.3018C418.34 -76.0118 420.847 -77.7379 422.457 -79.5967C423.076 -80.2924 423.677 -80.9879 424.277 -81.6833C424.889 -82.3915 425.5 -83.0997 426.119 -83.8113C425.553 -83.7256 424.968 -83.6681 424.39 -83.6138C422.987 -83.4757 421.595 -83.3409 420.435 -82.8282C394.32 -71.7449 367.358 -62.2028 340.389 -52.6606L340.109 -52.561L339.679 -54.3748C339.375 -55.632 288.294 -42.1149 210.428 -17.5847C132.561 6.94548 101.445 30.5996 6.06405 26.0496C-0.552425 25.7358 -6.53242 22.4818 -13.0652 21.5826C-46.2195 16.9691 -86.0178 13.9108 -117.142 1.79072C-174.316 -20.4865 -228.06 -50.544 -287.416 -69.087C-334.65 -83.8456 -384.486 -84.2541 -430.344 -101.811C-450.076 -109.358 -460.762 -117.176 -475.145 -127.713L-477.654 -271.471C-475.184 -271.198 -472.699 -270.955 -470.211 -270.711C-452.482 -268.984 -434.524 -267.23 -421.231 -256.036C-406.385 -243.515 -408.38 -220.433 -423.976 -197.996L-424.511 -197.22C-441.967 -171.689 -437.628 -159.765 -406.63 -145.408C-391.197 -138.244 -374.993 -130.831 -358.409 -130.704L-358.65 -130.7C-304.335 -119.578 -250.657 -107.507 -198.66 -90.4804C-197.068 -89.7097 -195.483 -88.9293 -193.928 -88.1263C-180.226 -81.0869 -167.516 -72.7328 -153.7 -65.8279C-145.931 -61.9423 -136.807 -60.0815 -129.329 -55.8152C-102.019 -40.2417 -122.559 -43.0395 -94.9547 -35.5831L-93.3953 -35.1684C-76.4952 -30.7288 -45.8249 -24.8062 -32.1192 -34.3441C-18.6434 -43.7076 -34.2788 -45.6694 -13.988 -47.2199C-2.72783 -48.0792 8.65962 -46.381 19.8986 -47.3758C21.0694 -47.4783 21.5972 -49.7538 20.5996 -50.2824L18.5105 -52.6164C35.7907 -49.8689 54.3659 -45.2755 59.3366 -56.5643L60.2943 -57.0355C73.4028 -56.0018 86.9355 -55.2122 100.93 -54.4653L105.568 -54.2307C130.723 -52.9211 174.104 -51.5446 203.696 -57.8373L222.658 -61.8771C276.204 -73.3193 239.26 -66.1187 296.433 -87.8887L298.374 -88.6265C362.624 -112.922 370.535 -110.134 418.083 -155.738L421.968 -159.483C433.617 -170.796 456.221 -193.753 455.693 -208.339C455.538 -212.439 448.93 -214.849 448.145 -218.904C447.006 -224.78 453.123 -231.301 450.184 -236.71C448.685 -239.461 443.685 -233.702 441.373 -231.357C434.227 -224.125 430.726 -220.38 428.72 -218.609C386.54 -186.707 339.027 -162.331 285.439 -146.469C284.348 -146.099 283.377 -145.337 282.413 -144.582C281.99 -144.259 281.567 -143.936 281.137 -143.613C281.45 -143.303 281.756 -142.992 282.067 -142.663C282.779 -141.879 283.566 -141.142 284.416 -140.46C296.037 -132.068 287.47 -128.304 280.801 -125.376C279.98 -125.014 279.19 -124.669 278.47 -124.325L276.481 -123.343C258.267 -114.547 238.223 -109.857 218.167 -105.164C210.999 -103.486 203.827 -101.808 196.741 -99.9452C195.325 -99.4795 193.975 -98.8764 192.721 -98.1485C192.103 -97.822 191.485 -97.4956 190.859 -97.1975C191.612 -97.097 192.366 -96.9555 193.12 -96.8171C194.881 -96.488 196.657 -96.1592 198.391 -96.3189C237.495 -99.6465 274.921 -108.674 311.711 -119.959L311.998 -120.046C312.97 -120.35 314.05 -120.713 315.17 -121.124C320.187 -122.891 326.126 -124.98 327.8 -122.127C330.066 -118.269 324.329 -115.328 319.61 -112.91C318.69 -112.439 317.807 -111.985 317.033 -111.552L315.596 -110.75C269.065 -85.0311 216.299 -74.6125 162.397 -67.4221L159.064 -66.9819C79.4221 -56.5267 5.75309 -69.2804 -63.0593 -104.602C-69.1613 -107.737 -75.6051 -110.434 -82.026 -113.109C-100.301 -120.75 -118.372 -128.313 -127.846 -145.713C-134.219 -157.454 -135.757 -170.005 -137.291 -182.553C-138.019 -188.471 -138.742 -194.387 -139.975 -200.22L-140.069 -200.67C-142.884 -213.77 -148.487 -224.729 -166.415 -227.778L-166.683 -227.827C-170.455 -228.594 -170.158 -231.412 -167.114 -233.558C-146.319 -248.03 -126.081 -243.14 -119.445 -222.08C-123.469 -204.555 -122.585 -186.673 -111.73 -171.106C-109.803 -168.369 -106.389 -166.541 -103.161 -164.877C-101.755 -164.148 -100.344 -163.422 -98.9287 -162.7L-97.9314 -162.194L-96.6649 -161.55L-95.3188 -160.869L-94.0866 -160.26L-92.7028 -159.57L-91.4669 -158.961L-90.0643 -158.269L-88.8475 -157.674L-87.3919 -156.971L-86.217 -156.407L-84.6025 -155.64L-83.587 -155.162C-82.7078 -154.751 -81.8287 -154.341 -80.9349 -153.946L-80.3758 -152.927C-58.9062 -114.5 -3.04081 -81.2979 54.1282 -75.0424C80.2172 -72.1227 106.66 -71.9712 132.833 -74.5918C134.487 -74.7943 136.1 -75.3874 137.695 -75.9771C138.412 -76.2421 139.125 -76.5039 139.839 -76.7278L138.288 -77.0985C136.747 -77.504 135.178 -77.8279 133.588 -78.0675C130.83 -78.4676 128.057 -78.839 125.299 -79.2106C108.965 -81.4001 92.6227 -83.5895 78.3714 -91.5252C76.6252 -92.5174 75.4525 -94.2456 74.2798 -95.9737C73.7244 -96.791 73.1689 -97.6083 72.5509 -98.3487C73.4606 -98.7686 74.361 -99.2894 75.2652 -99.807C77.1667 -100.901 79.0793 -102.004 81.1127 -102.21C91.9932 -103.287 102.936 -104.04 113.882 -104.793C144.157 -106.874 174.455 -108.959 203.479 -117.884C204.601 -118.219 205.824 -118.556 207.096 -118.894C212.562 -120.321 218.694 -121.937 218.553 -126.776C218.553 -127.841 218.17 -128.879 217.452 -129.753C226.627 -129.913 235.767 -130.819 244.743 -132.457C246.654 -132.806 248.613 -133.21 250.185 -134.191C251.758 -135.171 252.86 -136.87 252.366 -138.452C245.441 -139.843 238.241 -140.01 231.22 -138.944C227.517 -138.381 223.789 -137.473 220.065 -137.869C218.364 -138.048 216.717 -138.499 215.016 -138.646C210.536 -139.038 206.09 -137.328 201.594 -137.566C197.791 -137.767 194.321 -139.332 190.718 -140.355C189.354 -140.742 187.588 -140.96 186.695 -140.007C186.038 -139.308 186.237 -138.27 186.873 -137.549L186.119 -137.703C163.551 -142.381 140.96 -147.065 120.492 -156.988C80.9961 -176.071 77.0063 -206.981 112.292 -231.399C115.545 -233.646 118.809 -235.932 122.095 -238.236L122.132 -238.262C152.642 -259.649 184.744 -282.153 224.757 -282.283C253.579 -282.372 281.615 -286.1 309.565 -289.814C332.618 -292.877 355.619 -295.933 378.971 -296.941C385.791 -297.249 395.242 -297.288 396.708 -290.827C398.085 -284.933 393.626 -278.116 387.476 -273.915C379.754 -268.635 371.293 -264.188 362.831 -259.742C349.759 -252.885 336.695 -246.003 326.394 -236.064C319.529 -229.521 315.418 -220.195 321.023 -212.799C325.743 -206.594 334.537 -209.418 341.836 -211.758C342.487 -211.965 343.126 -212.172 343.746 -212.366L345.918 -213.035C376.571 -222.572 401.981 -239.138 426.333 -256.968L428.685 -258.694C429.239 -259.061 429.835 -259.38 430.465 -259.647C430.838 -259.821 431.211 -259.998 431.583 -260.194C431.489 -259.965 431.407 -259.727 431.325 -259.485C431.149 -258.804 430.822 -258.154 430.359 -257.575C388.164 -212.068 314.003 -171.42 236.093 -177.799L235.785 -177.825L234.531 -177.914C229.741 -178.238 224.315 -178.607 222.336 -183.73L222.325 -184.361L224.987 -186.011C231.505 -190.048 237.974 -194.053 244.439 -198.155C245.333 -198.805 246.136 -199.539 246.828 -200.343C247.112 -200.664 247.393 -200.95 247.681 -201.236C247.058 -201.162 246.416 -201.128 245.778 -201.098C244.494 -201.032 243.213 -200.968 242.07 -200.573C239.036 -199.535 235.938 -198.31 232.803 -197.072C219.906 -191.976 206.398 -186.64 194.334 -193.064L193.708 -193.391C176.335 -202.339 164.859 -195.983 153.029 -189.436C150.837 -188.22 148.629 -187.001 146.371 -185.866L145.999 -185.674C136.08 -180.548 137.617 -174.06 146.381 -168.74C176.253 -150.623 210.464 -150.529 244.995 -153.777L246.597 -153.931C299.444 -159.115 347.554 -174.663 383.805 -208.406L384.877 -209.394C390.686 -214.697 396.901 -219.704 403.113 -224.683C415.311 -234.485 427.494 -244.271 436.532 -256.363L437.135 -257.16C438.027 -258.33 438.95 -259.511 439.877 -260.701C448.732 -272.064 458.297 -284.333 450.813 -297.983C443.269 -311.828 426.587 -313.26 410.548 -314.64C408.184 -314.845 405.832 -315.047 403.524 -315.288L402.416 -315.404C399.607 -315.712 396.788 -315.966 393.961 -316.204C394.08 -316.266 394.196 -316.331 394.307 -316.399C395.229 -316.971 394.903 -318.25 393.773 -318.372L393.585 -318.369L371.837 -317.866C370.459 -317.987 369.077 -318.118 367.696 -318.258C365.542 -318.447 363.427 -319.897 361.63 -321.258L361.017 -321.73C360.713 -321.917 362.468 -324.716 363.875 -325.684C395.298 -347.696 478.192 -352.299 511.898 -333.949C527.922 -325.224 537.301 -312.213 545.048 -298.122L546.602 -295.246C571.407 -249.813 585.789 -248.189 630.777 -283.458C655.051 -302.504 675.454 -324.097 693.729 -347.274L693.887 -347.466C694.167 -347.822 694.453 -348.199 694.74 -348.583C696.753 -351.244 699.056 -354.299 702.855 -353.289C705.12 -352.697 706.926 -347.817 706.902 -344.922C706.63 -317.4 695.507 -292.776 677.678 -269.921L677.445 -270.104C678.21 -271.509 678.978 -272.914 679.751 -274.317C687.622 -288.658 695.505 -303.015 697.205 -319.095C697.264 -319.566 697.346 -320.063 697.427 -320.57C697.913 -323.523 698.445 -326.846 694.726 -327.801C692.461 -328.393 688.003 -325.417 685.73 -323.225L682.698 -320.35C659.45 -298.326 635.485 -276.887 607.326 -259.063C579.167 -241.24 561.277 -245.35 546.556 -272.042C544.732 -275.344 543.001 -278.7 541.27 -282.05C532.323 -299.381 523.375 -316.752 501.644 -326.659C500.534 -327.186 499.395 -327.627 498.237 -328.058L496.505 -328.709C486.763 -332.381 476.677 -334.218 465.893 -333.023C468.431 -332.512 470.994 -332.058 473.562 -331.604C479.153 -330.613 484.763 -329.619 490.139 -328.03C502.87 -324.272 511.797 -317.752 518.728 -309.79C515.169 -312.335 511.13 -314.43 507.04 -316.426L506.752 -316.566L505.16 -317.343C500.493 -319.613 495.763 -321.913 490.573 -323.149C484.063 -324.714 477.154 -324.565 470.373 -324.402C456.409 -324.067 442.107 -323.672 429.119 -319.301C436.414 -315.894 444.776 -314.42 453.112 -315.074C461.744 -315.768 470.626 -318.729 478.859 -316.448C479.184 -316.359 479.505 -316.261 479.819 -316.149L480.133 -316.038C480.341 -315.966 480.549 -315.894 480.749 -315.815L481.128 -315.667C481.309 -315.595 481.487 -315.522 481.665 -315.443C481.843 -315.364 481.915 -315.327 482.044 -315.27L482.54 -315.035L482.92 -314.84C483.079 -314.757 483.235 -314.675 483.386 -314.589C483.538 -314.503 483.629 -314.448 483.766 -314.375C483.903 -314.302 484.066 -314.2 484.21 -314.108C484.355 -314.016 484.446 -313.954 484.564 -313.877C484.682 -313.801 484.849 -313.69 484.99 -313.595L485.332 -313.348C485.469 -313.249 485.606 -313.151 485.74 -313.039L486.071 -312.78L486.453 -312.471L486.773 -312.196C486.899 -312.088 487.021 -311.976 487.155 -311.865L487.464 -311.58C487.586 -311.465 487.705 -311.35 487.823 -311.233C487.942 -311.115 488.019 -311.037 488.115 -310.922C488.21 -310.807 488.348 -310.68 488.463 -310.559C488.578 -310.438 488.651 -310.357 488.743 -310.248L489.076 -309.862C489.165 -309.76 489.253 -309.66 489.337 -309.551C489.422 -309.442 489.56 -309.281 489.668 -309.144L489.91 -308.832C490.021 -308.689 490.129 -308.543 490.237 -308.396L490.457 -308.084C490.572 -307.925 490.68 -307.772 490.792 -307.601L490.977 -307.336L491.39 -306.712L491.471 -306.584C491.634 -306.325 491.789 -306.062 491.943 -305.8C491.99 -305.718 492.033 -305.64 492.076 -305.559C492.18 -305.375 492.289 -305.187 492.39 -304.999C492.448 -304.896 492.499 -304.79 492.557 -304.687L492.813 -304.192L492.985 -303.845L493.215 -303.369L493.379 -303.006C493.453 -302.85 493.524 -302.693 493.59 -302.536C493.645 -302.411 493.7 -302.286 493.751 -302.16C493.802 -302.035 493.884 -301.847 493.947 -301.697L494.1 -301.311C494.163 -301.158 494.222 -300.998 494.281 -300.85C494.34 -300.703 494.38 -300.59 494.427 -300.458C494.474 -300.327 494.542 -300.145 494.597 -299.994L494.731 -299.605C494.787 -299.448 494.838 -299.291 494.89 -299.138C494.941 -298.984 494.973 -298.877 495.017 -298.748L495.16 -298.277L495.28 -297.885L495.412 -297.42C495.452 -297.288 495.488 -297.156 495.524 -297.027C495.56 -296.899 495.609 -296.713 495.649 -296.556L495.746 -296.173C495.786 -296.013 495.827 -295.859 495.863 -295.692C495.9 -295.525 495.924 -295.444 495.953 -295.318C496.079 -294.771 496.197 -294.224 496.301 -293.683C496.412 -293.094 496.584 -292.517 496.816 -291.952L496.816 -291.915C497.631 -282.043 495.563 -272.007 494.669 -262.059C494.225 -257.127 494.09 -252.141 495.062 -247.272C497.275 -236.336 505.016 -226.736 508.21 -215.975C508.979 -213.511 509.343 -210.97 509.301 -208.419C509.154 -207.997 509 -207.571 508.838 -207.148C508.788 -207.009 508.73 -206.869 508.676 -206.729C508.568 -206.446 508.457 -206.16 508.342 -205.88L508.136 -205.381L507.811 -204.618C507.735 -204.443 507.656 -204.271 507.58 -204.096L507.243 -203.364L506.993 -202.836C506.877 -202.594 506.757 -202.355 506.63 -202.113C506.546 -201.941 506.459 -201.769 506.372 -201.597C506.241 -201.343 506.106 -201.091 505.975 -200.839C505.892 -200.683 505.812 -200.521 505.728 -200.374C505.517 -199.982 505.298 -199.593 505.079 -199.208L505.057 -199.172L504.605 -198.407L504.378 -198.024L504.28 -197.862C504.17 -197.683 504.057 -197.504 503.943 -197.329C503.83 -197.153 503.728 -196.978 503.614 -196.802L503.464 -196.566C503.248 -196.246 503.025 -195.898 502.801 -195.566L502.614 -195.288L502.416 -195.007C502.259 -194.78 502.105 -194.557 501.943 -194.333C501.874 -194.231 501.8 -194.132 501.727 -194.014L501.511 -193.723C501.356 -193.512 501.206 -193.301 501.048 -193.083L500.809 -192.763C500.762 -192.696 500.71 -192.632 500.659 -192.568C500.479 -192.332 500.291 -192.095 500.111 -191.861C500.03 -191.756 499.946 -191.653 499.861 -191.541C499.707 -191.346 499.545 -191.154 499.386 -190.958C499.302 -190.856 499.221 -190.753 499.136 -190.638L498.89 -190.344L498.761 -190.193C498.555 -189.946 498.345 -189.7 498.131 -189.453L497.903 -189.2C497.715 -188.985 497.534 -188.77 497.327 -188.558L497.088 -188.289L496.984 -188.183C496 -187.115 494.98 -186.077 493.923 -185.071L493.834 -184.987C493.579 -184.746 493.317 -184.508 493.058 -184.267L492.651 -183.89C492.632 -183.877 492.617 -183.865 492.603 -183.849C492.384 -183.655 492.162 -183.462 491.944 -183.266L491.433 -182.818C491.307 -182.709 491.177 -182.602 491.063 -182.496L490.767 -182.245C490.578 -182.087 490.396 -181.923 490.2 -181.771L489.636 -181.316L489.533 -181.235L488.921 -180.745L488.528 -180.447L488.261 -180.238L487.612 -179.75L487.437 -179.62L486.955 -179.265L486.272 -178.776L485.975 -178.566L485.603 -178.316L484.89 -177.83L484.853 -177.808L484.24 -177.396L483.497 -176.91L482.854 -176.501L482.062 -176.014C481.854 -175.887 481.645 -175.76 481.433 -175.636C481.151 -175.467 480.864 -175.311 480.581 -175.139L480.429 -175.051L479.99 -174.8C479.666 -174.618 479.342 -174.441 479.014 -174.262C478.85 -174.174 478.687 -174.08 478.519 -173.992C478.024 -173.726 477.525 -173.468 477.029 -173.217C473.304 -171.334 469.34 -169.725 465.903 -167.478C461.935 -164.883 458.787 -161.533 455.384 -158.428C448.762 -152.388 441.098 -147.222 432.646 -143.104C430.104 -141.867 427.342 -140.594 426.031 -138.387C424.72 -136.18 425.922 -132.807 428.838 -132.59C441.525 -140.194 454.838 -147.027 468.677 -153.035C472.135 -154.535 475.728 -156.049 478.27 -158.527C480.222 -160.427 481.425 -162.765 482.822 -164.976C490.291 -176.785 503.357 -185.05 512.083 -196.104C520.58 -206.864 526.532 -219.647 533.234 -231.247C535.361 -234.93 537.487 -238.654 538.699 -242.614C540.236 -247.618 540.272 -252.84 540.31 -257.998C540.341 -263.576 540.367 -269.191 539.132 -274.662C539.104 -274.797 539.068 -274.932 539.035 -275.07C541.402 -270.153 543.837 -265.25 546.592 -260.497C551.357 -252.323 556.231 -246.543 561.659 -243.084L561.45 -243.213C570.241 -232.666 580.398 -228.466 591.917 -230.608C596.566 -231.472 600.747 -235.945 605.267 -235.112C606.022 -234.957 606.4 -234.85 606.718 -234.278C607.515 -232.742 605.433 -229.493 604.176 -227.65L604.07 -227.496C601.655 -223.938 598.452 -220.801 594.632 -218.257C595.429 -221.055 595.122 -224.023 592.61 -224.939C587.337 -226.863 582.1 -218.559 576.482 -219.607C571.15 -220.612 570.555 -227.792 565.777 -229.988C562.413 -231.529 555.101 -232.958 554.25 -229.786C553.039 -225.305 560.632 -222.237 562.522 -217.936C563.399 -215.935 564.2 -212.916 562.258 -211.534C556.205 -207.148 541.442 -203.687 528.89 -194.191C516.337 -184.695 507.254 -173.24 496.845 -156.771C489.181 -151.439 481.806 -146.074 474.891 -140.704C475.262 -140.969 475.633 -141.232 476.031 -141.491C473.962 -139.877 471.953 -138.241 469.971 -136.61L469.356 -136.097L469.89 -136.293C450.643 -129.234 432.903 -119.792 415.159 -110.345C403.243 -103.992 391.282 -97.6341 378.876 -91.9981C296.095 -54.4725 207.129 -33.0218 115.488 -18.2001L111.672 -17.578C77.3554 -11.9288 67.463 5.91964 92.6335 -0.286421C215.381 -30.505 338.054 -60.7128 454.128 -108.926C462.605 -112.448 471.118 -115.905 479.623 -119.355C533.345 -141.153 586.667 -162.793 628.314 -199.995C675.956 -242.576 716.48 -289.25 723.824 -349.952C726.899 -375.759 719.891 -398.934 693.131 -414.902C691.277 -416.025 688.883 -416.469 686.474 -416.916L686.202 -416.968C685.848 -417.035 685.479 -417.028 685.124 -416.956C684.772 -416.88 684.443 -416.742 684.165 -416.541C683.883 -416.344 683.662 -416.097 683.516 -415.817C683.371 -415.536 683.301 -415.232 683.317 -414.926L683.318 -414.898C683.414 -413.069 683.513 -411.253 684.144 -409.581C699.012 -369.919 655.344 -301.657 607.391 -289.612C583.989 -283.705 570.163 -295.275 558.184 -308.241L556.383 -310.213C533.323 -335.327 504.708 -352.027 466.317 -355.845C465.316 -355.954 464.376 -356.398 463.432 -356.846C462.962 -357.068 462.492 -357.29 462.012 -357.471C462.486 -357.647 462.948 -357.86 463.415 -358.07C464.293 -358.531 465.254 -358.866 466.261 -359.067C475.289 -360.578 484.163 -359.442 492.966 -357.879L494.787 -357.548C495.816 -357.379 496.871 -357.268 497.921 -357.176C498.636 -357.107 499.351 -357.037 500.052 -356.948C499.385 -357.252 498.745 -357.557 498.107 -357.899C497.163 -358.416 496.17 -358.872 495.137 -359.255C490.38 -360.933 485.597 -362.586 480.802 -364.244C477.524 -365.374 474.249 -366.51 470.971 -367.649L470.593 -367.778C465.442 -369.604 462.09 -371.733 460.961 -377.613L460.892 -377.927C459.624 -383.157 453.012 -382.379 447.671 -381.749L447.318 -381.708L446.846 -381.653L446.358 -381.6L443.653 -381.329C407.003 -377.58 373.412 -365.659 339.858 -353.748C335.518 -352.198 331.177 -350.664 326.833 -349.146L322.35 -347.584L321.45 -347.275L320.497 -346.943L318.764 -346.344C302.733 -340.822 286.582 -335.256 273.634 -324.986C264.83 -317.968 264.288 -310.276 272.595 -302.874L272.885 -302.61C278.931 -297.101 275.837 -294.553 269.275 -292.595L268.651 -292.414C260.251 -290.058 251.524 -290.714 242.921 -291.368C234.167 -292.033 225.541 -292.691 217.528 -290.136C167.468 -274.086 121.414 -251.873 90.4212 -213.802C74.7759 -194.591 86.1805 -173.181 116.179 -156.452C132.373 -147.465 150.435 -142.102 168.52 -136.729C173.534 -135.239 178.547 -133.748 183.524 -132.187C184.098 -132.011 184.703 -131.842 185.318 -131.669C189.307 -130.555 193.775 -129.292 193.843 -125.379C193.848 -121.238 189.123 -119.997 185.03 -118.913L184.697 -118.825L181.947 -118.082C149.086 -109.387 115.33 -109.483 81.4742 -110.354L78.1954 -110.438C68.7946 -110.716 59.5076 -110.93 50.13 -110.955L49.2358 -110.94C45.0188 -110.945 40.3057 -110.951 38.3403 -107.278C36.7243 -104.257 38.8446 -101.857 40.9265 -99.5012C41.5592 -98.7831 42.188 -98.0681 42.708 -97.3417C43.2556 -96.5496 43.9659 -95.6908 44.6876 -94.8228C46.5226 -92.6169 48.4077 -90.3425 47.7333 -88.9293C46.3889 -86.0651 42.4851 -86.4294 38.8973 -86.7739C38.0466 -86.8538 37.2146 -86.9339 36.4398 -86.9678L35.2322 -87.0319C-4.61744 -89.3696 -48.3466 -116.733 -69.2366 -148.652L-69.1229 -148.603L-66.9163 -147.717L-65.9097 -147.321L-64.9069 -146.928L-64.6679 -146.585C-50.3799 -126.211 -28.6669 -111.31 0.00837927 -101.688C8.00827 -98.9865 14.1566 -99.2264 12.9178 -109.908L12.8639 -110.409C11.519 -124.371 23.1188 -123.214 32.8247 -122.253C34.421 -122.095 35.9646 -121.942 37.3904 -121.862L42.8497 -121.522C46.3603 -121.295 49.8823 -121.06 53.4156 -120.816L53.4795 -120.818C60.5499 -120.335 67.6203 -119.855 74.6888 -119.483L81.0455 -118.764L85.9036 -118.202L87.3573 -118.032L91.3495 -117.561L92.856 -117.379L97.2175 -116.846L98.321 -116.711C100.182 -116.482 102.046 -116.249 103.93 -116.007C106.509 -115.733 109.108 -115.628 111.707 -115.695C119.654 -115.805 129.997 -116.917 135.055 -119.353C136.143 -119.877 136.791 -120.87 137.189 -121.95L139.873 -122.338C144.33 -123.006 148.988 -124.025 149.725 -128.11C150.437 -132.064 146.066 -134.021 142.074 -135.807C141.092 -136.248 140.138 -136.676 139.284 -137.122L137.877 -137.849C135.405 -139.122 132.921 -140.372 130.438 -141.623C119.237 -147.264 108.067 -152.88 98.2174 -160.33C75.0312 -177.81 70.1229 -201.271 89.6283 -221.762C121.032 -254.76 163.514 -276.05 206.875 -296.023L212.599 -298.648C214.836 -299.634 217.591 -300.496 219.921 -300.288C236.703 -298.974 254.22 -312.145 264.407 -327.36C265.674 -329.254 263.042 -331.282 260.894 -330.067C245.561 -321.381 229.833 -306.89 218.078 -304.908C208.26 -303.253 198.363 -301.587 190.51 -296.122L187.91 -294.325C175.953 -286.226 163.262 -278.871 150.567 -271.512L150.544 -271.512C140.26 -265.55 129.968 -259.585 120.071 -253.225C120.302 -255.294 118.617 -257.048 116.649 -258.061L118.534 -259.259L123.854 -262.597C127.077 -264.625 130.296 -266.664 133.519 -268.706C154.283 -281.877 175.185 -295.135 197.793 -305.637C218.241 -315.147 238.191 -325.476 258.152 -335.811C307.69 -361.469 357.229 -387.146 414.617 -400.221C466.471 -412.082 516.115 -413.39 561.907 -385.855C564.486 -384.262 567.073 -382.293 568.837 -380.054C569.221 -379.559 569.64 -379.068 570.047 -378.573C573.264 -374.665 580.811 -367.379 575.092 -365.366L569.936 -367.012C566.651 -368.533 566.514 -370.56 562.356 -373.016C561.426 -373.543 560.437 -373.996 559.445 -374.452C559.043 -374.637 558.638 -374.823 558.24 -375.012C558.172 -375.045 558.092 -375.063 558.013 -375.065C557.934 -375.066 557.856 -375.049 557.785 -375.02C557.714 -374.987 557.655 -374.945 557.611 -374.887C557.566 -374.833 557.537 -374.769 557.531 -374.703C557.498 -374.44 557.461 -374.177 557.425 -373.915C557.224 -372.898 557.182 -371.868 557.302 -370.845C558.15 -365.32 556.922 -362.464 548.786 -363.455L547.181 -363.667C541.211 -364.462 533.744 -365.462 530.532 -360.618C527.695 -356.317 531.713 -353.082 535.475 -350.055C536.554 -349.183 537.613 -348.334 538.481 -347.478C549.474 -336.524 560.471 -325.571 572.119 -315.197C587.512 -301.487 604.839 -301.663 621.817 -313.167C642.576 -327.32 659.155 -344.483 670.203 -365.079C678.188 -379.993 677.522 -394.062 668.805 -406.599C663.515 -419.224 649.703 -430.178 627.427 -439.675C602.814 -450.151 576.636 -454.956 550.143 -458.638C548.669 -459.294 547.339 -460.344 546.017 -461.384C545.586 -461.724 545.159 -462.06 544.725 -462.387C544.508 -462.545 544.377 -462.77 544.35 -463.009C544.327 -463.249 544.417 -463.49 544.601 -463.676C545.004 -464.084 545.395 -464.517 545.789 -464.96C547.032 -466.338 548.274 -467.717 549.867 -468.206C585.306 -479.342 625.652 -488.783 656.424 -471.013C687.268 -453.244 718.57 -430.73 732.941 -398.237C744.708 -371.584 741.324 -344.971 731.424 -318.957L731.53 -319.126ZM221.059 -254.287C250.16 -255.818 294.138 -231.177 309.92 -251.843L311.552 -254.573C322.046 -268.329 300.331 -264.2 285.351 -264.532C274.786 -264.777 263.796 -266.336 252.922 -267.463L254.708 -267.178L255.752 -267.014C250.736 -267.81 245.743 -268.578 241.055 -269.282L227.221 -271.361C226.709 -271.437 226.186 -271.459 225.668 -271.425C195.528 -269.374 174.942 -256.967 155.12 -243.636L150.84 -240.749C150.576 -240.608 150.507 -240.251 150.434 -239.893C150.407 -239.75 150.379 -239.608 150.34 -239.481C150.659 -239.524 150.978 -239.555 151.301 -239.567C151.846 -239.564 152.382 -239.658 152.882 -239.841C163.019 -244.099 173.42 -247.891 184.04 -251.201L182.276 -250.224C182.015 -250.08 181.797 -249.884 181.647 -249.654C181.497 -249.421 181.415 -249.164 181.408 -248.902C181.405 -248.64 181.477 -248.379 181.62 -248.148C181.763 -247.914 181.974 -247.715 182.232 -247.568C193.95 -240.936 208.06 -253.571 221.048 -254.243L221.059 -254.287ZM147.139 -160.629C129.237 -167.794 115.639 -182.439 142.958 -197.542C159.709 -206.808 180.081 -210.38 197.992 -217.968C203.294 -220.217 201.423 -226.216 196.25 -227.578C190.39 -229.145 184.311 -230.074 178.161 -230.346L178.161 -230.377L177.911 -230.455L175.334 -231.272L174.094 -231.663L171.974 -232.346C139.96 -231.282 102.364 -210.416 99.2147 -192.982C97.0296 -180.791 117.779 -161.003 132.552 -161.324C132.938 -161.346 133.32 -161.425 133.675 -161.559L134.049 -161.666L134.3 -161.734C134.21 -161.925 134.12 -162.125 134.034 -162.329C133.789 -162.98 133.437 -163.599 132.983 -164.166C132.523 -164.666 132.079 -165.154 131.646 -165.636L132.6 -164.589C136.141 -163.025 139.783 -162.189 144.687 -161.138L147.211 -160.608L147.139 -160.629Z" fill="#5596DC"/>
</g>
<defs>
<clipPath id="clip0_4889_122810">
<rect width="1440" height="131" fill="white"/>
</clipPath>
</defs>
</svg>
