<svg width="131" height="64" viewBox="0 0 131 64" fill="none" xmlns="http://www.w3.org/2000/svg">
<path fill-rule="evenodd" clip-rule="evenodd" d="M46.7425 9.60826C46.4156 9.68697 45.9402 9.98407 45.686 10.2684C45.4317 10.5526 45.1751 11.0446 45.1156 11.3614C45.0478 11.7222 45.1044 12.1696 45.2667 12.5577C45.4104 12.9016 45.7774 13.3309 46.0904 13.5216C46.4732 13.7548 46.9531 13.8657 47.5821 13.866C48.2626 13.8666 48.6572 13.7655 49.0647 13.4865C49.3701 13.2775 49.701 12.9289 49.7999 12.7119C49.8988 12.495 49.9786 12.0337 49.9773 11.6866C49.9759 11.3396 49.8801 10.8715 49.7641 10.6463C49.6483 10.421 49.3617 10.1011 49.1273 9.93501C48.8928 9.76908 48.3941 9.59549 48.0189 9.54915C47.6438 9.50281 47.0693 9.52939 46.7425 9.60826ZM86.7336 12.3761C86.6973 12.4933 86.5757 13.3287 86.4635 14.2327C86.2611 15.8649 86.2561 15.877 85.7465 15.9788C85.4641 16.0352 84.9742 16.0814 84.6578 16.0814H84.0823V17.6998V19.3182H84.9998H85.9172L85.9965 23.1087C86.067 26.4888 86.1161 27.0036 86.4493 27.8629C86.6908 28.4855 87.0823 29.0653 87.5558 29.5012C87.9589 29.8724 88.5889 30.2793 88.9562 30.4053C89.3235 30.5316 90.2761 30.6362 91.0733 30.6379C91.8704 30.6396 92.8872 30.5365 93.3326 30.4089C93.778 30.2813 94.1394 30.091 94.1355 29.9861C94.1316 29.8811 93.994 29.2203 93.8298 28.5176L93.5309 27.2399L92.5138 27.2968C91.6827 27.3431 91.4131 27.2881 91.0405 26.9952C90.7198 26.7431 90.5292 26.3705 90.3981 25.7397C90.2944 25.2409 90.2327 23.6351 90.2589 22.123L90.306 19.4034L92.0111 19.3182L93.7162 19.233V17.6146V15.9962L92.0111 15.911L90.306 15.8258L90.2576 13.9945L90.2091 12.1631H88.5045C87.2896 12.1631 86.7808 12.2243 86.7336 12.3761ZM11.1772 15.7357C10.7959 15.8165 9.87516 16.1206 9.13104 16.4114C8.38692 16.7023 7.62951 17.0535 7.44791 17.1916C7.12445 17.438 7.12718 17.4623 7.58893 18.4276C7.84811 18.9691 8.19135 19.5863 8.35197 19.799L8.64389 20.1857L9.83082 19.6289C10.7021 19.2202 11.3233 19.0545 12.1667 19.0058C13.2893 18.9409 13.3292 18.953 13.9144 19.5376C14.2921 19.915 14.5133 20.2995 14.5133 20.5789C14.5133 20.8225 14.4466 21.0218 14.3651 21.0218C14.2836 21.0218 13.5592 21.1364 12.7554 21.2765C11.9518 21.4165 10.7879 21.7146 10.1693 21.939C9.55067 22.1632 8.72965 22.5649 8.34481 22.8313C7.95996 23.0978 7.46684 23.5855 7.24927 23.915C7.03152 24.2445 6.76774 24.9145 6.66322 25.4038C6.52305 26.0593 6.5234 26.5354 6.66424 27.2138C6.76944 27.7201 7.07637 28.4821 7.34612 28.9074C7.63906 29.3687 8.16287 29.8711 8.64559 30.1539C9.3169 30.5467 9.65997 30.629 10.6624 30.6372C11.4519 30.6437 12.1546 30.5375 12.6912 30.3307C13.1425 30.1568 13.8454 29.76 14.2529 29.4493C14.6604 29.1384 15.0391 28.9295 15.0945 28.9849C15.15 29.0401 15.1953 29.2873 15.1953 29.5341C15.1953 29.7808 15.2874 30.0747 15.3999 30.1871C15.5297 30.3167 16.1843 30.3915 17.1903 30.3915H18.7761V25.3118C18.7761 21.1722 18.7261 20.0635 18.506 19.323C18.3573 18.8231 18.0596 18.1385 17.8442 17.8015C17.629 17.4644 17.2699 17.0199 17.0466 16.8138C16.8232 16.6075 16.2578 16.2672 15.7901 16.0575C15.1517 15.7715 14.5569 15.6655 13.4049 15.6327C12.5609 15.6086 11.5585 15.655 11.1772 15.7357ZM29.162 15.8039C28.8252 15.9241 28.2777 16.2298 27.9452 16.4833C27.6127 16.7366 27.1208 17.2611 26.8522 17.6485L26.3639 18.3531L26.2264 17.5153C26.1509 17.0546 26.0535 16.5051 26.0101 16.2943C25.9345 15.9277 25.8571 15.911 24.2292 15.911H22.5273V23.1566V30.4021L24.6161 30.3542L26.7049 30.3063L26.7901 25.9622C26.8676 22.0141 26.9064 21.5654 27.2164 21.0398C27.404 20.7218 27.8526 20.2235 28.2132 19.9325C28.8208 19.4424 28.9664 19.4034 30.1919 19.4034H31.5149L31.7954 17.9407C31.9497 17.1361 32.076 16.3209 32.076 16.1291C32.076 15.9115 31.9318 15.7419 31.6924 15.6776C31.4813 15.6212 30.9634 15.5773 30.5414 15.5802C30.1194 15.5829 29.4986 15.6836 29.162 15.8039ZM40.3459 15.9626C39.877 16.187 39.1673 16.7253 38.7686 17.1591C38.37 17.5928 38.044 18.026 38.044 18.1219C38.044 18.2177 37.9751 18.296 37.8907 18.296C37.8064 18.296 37.6837 17.7594 37.6177 17.1035L37.4978 15.911H35.7229H33.9479L33.9924 23.1087L34.0369 30.3063H36.0831H38.1292L38.2145 26.0474L38.2997 21.7884L38.7732 20.9838C39.0742 20.472 39.5283 20.0141 40.02 19.7262C40.7038 19.3259 40.921 19.2834 41.8912 19.3613C42.4948 19.4097 42.9888 19.4283 42.9888 19.4025C42.9888 19.3768 43.1435 18.6049 43.3324 17.687C43.5657 16.5548 43.6202 15.9626 43.5026 15.8451C43.4071 15.7497 42.8495 15.6453 42.2636 15.6132C41.41 15.5664 41.0291 15.6359 40.3459 15.9626ZM60.5516 15.7296C60.3171 15.8011 59.8013 16.025 59.4054 16.227C59.0095 16.4293 58.4122 16.8342 58.0781 17.1272C57.7441 17.4202 57.4428 17.6306 57.4084 17.5947C57.3741 17.5587 57.2784 17.1845 57.1959 16.7628L57.046 15.9962L55.3032 15.9477L53.5606 15.8991V23.1506V30.4021L55.6494 30.3542L57.7381 30.3063L57.8234 25.3745L57.9086 20.4426L58.6251 19.8967C59.0192 19.5966 59.6364 19.3012 59.9969 19.2403C60.3572 19.1795 60.8559 19.2071 61.1052 19.3018C61.3544 19.3964 61.677 19.7032 61.8219 19.9833C62.0402 20.4049 62.0881 21.3104 62.0998 25.2416C62.1077 27.8535 62.1715 30.0833 62.2415 30.1966C62.3326 30.3438 62.95 30.389 64.4017 30.3546L66.4343 30.3063L66.4854 26.0474C66.5134 23.7049 66.4546 21.0741 66.3545 20.2012C66.2341 19.1509 66.033 18.3386 65.7602 17.8008C65.5334 17.3536 65.0765 16.7497 64.7448 16.4587C64.413 16.1678 63.8519 15.8492 63.4975 15.7509C63.1434 15.6526 62.4315 15.5783 61.9157 15.586C61.3999 15.5935 60.786 15.658 60.5516 15.7296ZM73.5105 15.8342C72.9947 15.9739 72.1577 16.3741 71.6504 16.7236C71.0427 17.1424 70.563 17.654 70.2442 18.2235C69.9379 18.7707 69.7211 19.4625 69.6535 20.1092C69.579 20.8204 69.6297 21.4158 69.8201 22.0705C69.9942 22.6686 70.3492 23.3007 70.7963 23.808L71.4988 24.6055L70.9498 25.1561C70.6478 25.459 70.2947 25.9533 70.1652 26.2549C70.0357 26.5564 69.9298 27.0688 69.9298 27.3937C69.9298 27.7186 70.0114 28.2002 70.1112 28.4639C70.2109 28.7276 70.4921 29.1527 70.7363 29.4082L71.18 29.8729L70.4074 30.5523C69.9826 30.9259 69.5381 31.4651 69.4198 31.7505C69.2968 32.0474 69.2394 32.63 69.2857 33.112C69.3406 33.6832 69.5204 34.1558 69.8431 34.5788C70.118 34.9387 70.6931 35.3737 71.2028 35.6067C71.6886 35.829 72.4938 36.088 72.9922 36.1824C73.4904 36.2769 74.559 36.3527 75.3667 36.3512C76.1746 36.3495 77.366 36.2358 78.0141 36.0987C78.6624 35.9614 79.6667 35.6277 80.2459 35.3568C80.8252 35.0861 81.5787 34.5851 81.9204 34.2437C82.2621 33.9023 82.6754 33.375 82.8386 33.0719C83.0399 32.6982 83.1354 32.1374 83.1354 31.3285C83.1354 30.5169 83.0401 29.9588 82.8369 29.5816C82.6725 29.2767 82.2525 28.8392 81.9035 28.6096C81.5544 28.3798 80.8115 28.0735 80.2526 27.9288C79.5746 27.7533 78.4518 27.6658 76.8795 27.6658C75.2071 27.6658 74.351 27.5941 73.9313 27.4189C73.4248 27.2075 73.3403 27.0915 73.3426 26.6097C73.3441 26.3004 73.4016 25.9632 73.4705 25.8601C73.5496 25.7423 74.257 25.6792 75.3862 25.6898C76.7071 25.7022 77.4077 25.6261 78.0583 25.3993C78.543 25.2303 79.2805 24.7923 79.6969 24.4262C80.1515 24.0266 80.6067 23.4058 80.8359 22.8732C81.1478 22.1494 81.204 21.7644 81.1428 20.7799C81.1014 20.1165 81.0088 19.4397 80.9368 19.2756C80.8197 19.0087 80.9235 18.9775 81.9326 18.9775H83.0592V17.4608V15.9441L80.0326 15.8402C78.3681 15.7831 76.4305 15.7013 75.7272 15.6584C74.8959 15.6076 74.1201 15.6693 73.5105 15.8342ZM100.579 15.7553C100.227 15.8381 99.558 16.0986 99.093 16.334C98.6278 16.5695 97.9807 16.9962 97.6547 17.2821C97.3289 17.5679 96.8253 18.1591 96.536 18.5954C96.2466 19.0318 95.8584 19.8794 95.673 20.4789C95.4452 21.2158 95.3375 22.0456 95.3402 23.0414C95.3426 23.8514 95.422 24.8503 95.5168 25.2612C95.6116 25.6721 95.893 26.424 96.1419 26.932C96.3909 27.4402 96.9613 28.2278 97.4092 28.6825C97.8571 29.1372 98.629 29.707 99.1244 29.9488C99.6199 30.1907 100.482 30.4726 101.041 30.5755C101.605 30.6794 102.478 30.7103 103.002 30.645C103.522 30.5803 104.299 30.3937 104.73 30.2304C105.161 30.067 105.863 29.6931 106.29 29.3995C106.718 29.1058 107.352 28.4782 107.699 28.005C108.047 27.5315 108.478 26.7607 108.656 26.2918C108.834 25.823 109.053 24.9259 109.142 24.2983C109.248 23.5525 109.243 22.7135 109.128 21.8765C109.016 21.0589 108.742 20.1557 108.37 19.3785C107.977 18.5558 107.512 17.9136 106.938 17.3979C106.471 16.9782 105.744 16.473 105.323 16.2754C104.902 16.0776 104.229 15.84 103.826 15.7473C103.424 15.6545 102.672 15.5844 102.157 15.5916C101.641 15.5988 100.931 15.6724 100.579 15.7553ZM118.837 15.8287C118.399 15.9691 117.594 16.4214 117.048 16.8337C116.502 17.2461 115.998 17.5477 115.927 17.5039C115.856 17.4599 115.797 17.2562 115.795 17.0509C115.794 16.8456 115.746 16.5025 115.689 16.2885C115.588 15.9117 115.531 15.9011 113.858 15.9478L112.132 15.9962V23.1513V30.3063H114.263H116.394L116.48 25.3302L116.565 20.354L117.146 19.9254C117.467 19.6898 117.994 19.4092 118.319 19.3018C118.752 19.1593 119.076 19.1567 119.528 19.2926C119.868 19.3947 120.261 19.6531 120.401 19.8668C120.609 20.1818 120.673 21.2053 120.742 25.2808L120.828 30.3063H122.874H124.92V24.8549C124.92 20.8421 124.861 19.201 124.695 18.6368C124.571 18.2151 124.261 17.5635 124.005 17.1887C123.75 16.8139 123.206 16.3224 122.797 16.0967C122.255 15.7974 121.726 15.6708 120.844 15.6299C120.088 15.5948 119.335 15.6695 118.837 15.8287ZM45.5465 23.1513V30.4021L47.6353 30.3542L49.7241 30.3063V23.1513V15.9962L47.6353 15.9483L45.5465 15.9005V23.1513ZM76.7339 18.9047C77.0326 19.1558 77.3327 19.63 77.4364 20.0146C77.5358 20.384 77.5689 20.9443 77.5095 21.2598C77.4504 21.5753 77.2589 22.0683 77.0843 22.3554C76.8759 22.6974 76.5346 22.9467 76.0931 23.0789C75.5134 23.2523 75.328 23.2358 74.7634 22.9603C74.39 22.7782 74.0023 22.4199 73.8637 22.1291C73.7296 21.848 73.6145 21.2731 73.6079 20.8514C73.6012 20.4298 73.6943 19.8518 73.8147 19.5671C73.9351 19.2824 74.242 18.9202 74.4968 18.7625C74.7515 18.6046 75.2417 18.4734 75.5862 18.471C76.015 18.4678 76.377 18.6047 76.7339 18.9047ZM103.368 19.361C103.696 19.5782 104.13 20.1141 104.369 20.5961C104.729 21.3197 104.793 21.691 104.796 23.0661C104.799 24.2312 104.713 24.9099 104.489 25.4889C104.318 25.9312 103.948 26.4871 103.666 26.724C103.259 27.0659 102.968 27.1547 102.252 27.1547C101.587 27.1547 101.227 27.0583 100.884 26.7881C100.627 26.5866 100.258 26.069 100.065 25.6382C99.7878 25.0233 99.7094 24.4886 99.6998 23.1513C99.6893 21.6632 99.7415 21.34 100.112 20.5961C100.352 20.1162 100.79 19.5773 101.116 19.361C101.435 19.1501 101.941 18.9775 102.242 18.9775C102.542 18.9775 103.049 19.1501 103.368 19.361ZM14.5133 24.939V26.3007L13.8056 26.813C13.2561 27.2108 12.9176 27.3251 12.29 27.3251C11.7675 27.3251 11.3486 27.2172 11.1049 27.0201C10.8426 26.808 10.7279 26.529 10.7279 26.1038C10.7279 25.7675 10.8148 25.33 10.9211 25.1315C11.0275 24.9332 11.4195 24.6153 11.7926 24.4252C12.1655 24.2351 12.911 23.9729 13.4493 23.8426C13.9876 23.7123 14.4471 23.5991 14.4706 23.5913C14.4942 23.5835 14.5133 24.19 14.5133 24.939ZM78.3258 31.0893C78.7979 31.2123 78.9916 31.3678 79.0721 31.688C79.1318 31.9256 79.1004 32.2965 79.0022 32.5118C78.904 32.7271 78.4862 33.0665 78.0741 33.2658C77.5019 33.5426 77.0047 33.6282 75.9717 33.6273C75.2276 33.6268 74.3426 33.5498 74.005 33.4561C73.6674 33.3624 73.2517 33.1317 73.0813 32.9437C72.911 32.7556 72.7717 32.3721 72.7717 32.0915C72.7717 31.8075 72.9306 31.412 73.1303 31.1994C73.4703 30.8374 73.599 30.8201 75.5886 30.8702C76.7433 30.8994 77.975 30.9978 78.3258 31.0893ZM47.55 36.4669C47.6673 36.5142 47.8592 36.5142 47.9763 36.4669C48.0936 36.4197 47.9976 36.381 47.7632 36.381C47.5287 36.381 47.4329 36.4197 47.55 36.4669ZM46.9674 36.8084C47.03 36.8708 47.1323 36.8708 47.1948 36.8084C47.2572 36.7459 47.2061 36.6948 47.0811 36.6948C46.9561 36.6948 46.905 36.7459 46.9674 36.8084ZM47.6494 36.8084C47.712 36.8708 47.8143 36.8708 47.8769 36.8084C47.9393 36.7459 47.8881 36.6948 47.7632 36.6948C47.6382 36.6948 47.587 36.7459 47.6494 36.8084ZM48.3315 36.8084C48.3941 36.8708 48.4964 36.8708 48.5589 36.8084C48.6213 36.7459 48.5702 36.6948 48.4452 36.6948C48.3202 36.6948 48.2691 36.7459 48.3315 36.8084ZM46.5696 37.256C46.3351 37.3745 46.1433 37.5577 46.1433 37.6629C46.1433 37.7682 45.9341 38.0483 45.6783 38.2851C45.2807 38.6532 45.2559 38.7258 45.5078 38.7861C45.752 38.8447 45.7584 38.873 45.5465 38.9519C45.4058 39.0043 45.1373 39.1047 44.9497 39.175C44.6413 39.2907 44.6375 39.3098 44.911 39.375C45.0774 39.4146 45.6104 39.2495 46.0956 39.0079C46.6156 38.749 47.2612 38.5703 47.6687 38.5725C48.0489 38.5745 48.7052 38.7401 49.1273 38.9405C49.5493 39.1408 50.1248 39.3321 50.4061 39.3657C50.8921 39.4238 50.9011 39.4139 50.5867 39.1682C50.4046 39.0258 50.1795 38.9095 50.0864 38.9095C49.9931 38.9095 49.5815 38.7473 49.1716 38.549C48.5893 38.2672 48.2138 38.2062 47.4552 38.2698C46.9212 38.3144 46.3309 38.4108 46.1433 38.4841C45.818 38.611 45.8159 38.6028 46.0986 38.303C46.3077 38.0813 46.7089 37.9694 47.4627 37.9227C48.3976 37.8648 48.6125 37.9125 49.1902 38.3064C49.553 38.5539 49.975 38.726 50.128 38.6888C50.3614 38.6323 50.3514 38.598 50.0651 38.4756C49.8775 38.3953 49.4555 38.1466 49.1273 37.9227C48.6137 37.5727 48.3767 37.5255 47.4274 37.5842C46.4153 37.6471 46.3662 37.6348 46.8306 37.4369C47.1091 37.3183 47.4903 37.2195 47.6779 37.2173C47.8655 37.2151 48.3451 37.3612 48.7436 37.542C49.1421 37.7227 49.4683 37.8064 49.4683 37.728C49.4683 37.6497 49.2072 37.4618 48.8884 37.3105C48.5693 37.1592 48.0131 37.0367 47.6522 37.0381C47.2912 37.0394 46.804 37.1376 46.5696 37.256ZM49.5535 38.0577C49.6115 38.1514 49.6927 38.228 49.7341 38.228C49.7755 38.228 49.8093 38.1514 49.8093 38.0577C49.8093 37.964 49.728 37.8873 49.6287 37.8873C49.5295 37.8873 49.4956 37.964 49.5535 38.0577ZM46.1859 39.1814C45.8343 39.333 45.5465 39.5255 45.5465 39.6091C45.5465 39.6928 45.3993 39.7613 45.2195 39.7613C45.0396 39.7613 44.771 39.8078 44.6227 39.8647C44.4743 39.9216 44.3529 40.0347 44.3529 40.1159C44.3529 40.1972 44.6024 40.2154 44.9071 40.1565C45.2118 40.0974 45.6393 39.9115 45.8568 39.7435C46.0746 39.5754 46.5934 39.3868 47.01 39.3243C47.4397 39.2599 48.1171 39.2986 48.5753 39.4137C49.0195 39.5251 49.514 39.7347 49.6741 39.879C49.8342 40.0234 50.2946 40.1657 50.6972 40.195C51.3671 40.2439 51.401 40.2277 51.0982 40.0049C50.9161 39.8708 50.6475 39.7524 50.5014 39.7417C50.3551 39.7308 50.1589 39.7117 50.0651 39.6991C49.9713 39.6865 49.6835 39.5331 49.4257 39.3584C49.1334 39.1604 48.5548 39.0151 47.891 38.9732C47.1577 38.9268 46.6258 38.9917 46.1859 39.1814ZM63.6774 39.9062C63.1928 40.0735 62.5237 40.4183 62.1904 40.6722C61.8572 40.9262 61.3965 41.3809 61.1668 41.6827C60.9369 41.9844 60.5751 42.6531 60.3625 43.1684C60.0375 43.9563 59.9761 44.417 59.9764 46.0645C59.9768 47.6898 60.0419 48.1892 60.3587 48.995C60.5686 49.5293 61.0793 50.3429 61.4935 50.8032C61.9494 51.3099 62.602 51.7985 63.147 52.0412C63.8275 52.3445 64.3591 52.4436 65.3259 52.4472C66.3471 52.4511 66.7668 52.3695 67.4091 52.0419C67.8514 51.8162 68.4236 51.4124 68.6806 51.1445L69.1478 50.6572L68.7162 50.2261L68.2848 49.795L67.385 50.4C66.6056 50.924 66.3499 51.0049 65.4738 51.0049C64.9176 51.0049 64.2155 50.9007 63.9137 50.7732C63.6119 50.6458 63.1427 50.3201 62.8711 50.0492C62.5994 49.7785 62.2233 49.2129 62.0352 48.7925C61.8071 48.2821 61.6666 47.5141 61.6125 46.4824C61.5521 45.3291 61.6062 44.6805 61.8256 43.9265C62.0482 43.1613 62.3121 42.7245 62.9128 42.1269C63.5269 41.5158 63.8999 41.2964 64.5646 41.1553C65.0942 41.0429 65.6729 41.0294 66.0757 41.1202C66.4346 41.201 67.0074 41.4672 67.3485 41.7117L67.9689 42.156L68.3525 41.7158C68.5636 41.4735 68.7362 41.2015 68.7362 41.1108C68.7362 41.0204 68.3743 40.717 67.9322 40.4367C67.4899 40.1567 66.857 39.8521 66.5255 39.7601C66.194 39.6681 65.6158 39.5948 65.2407 39.5974C64.8655 39.5999 64.1622 39.7389 63.6774 39.9062ZM46.1317 40.0185C45.8439 40.1447 45.515 40.3606 45.4007 40.4982C45.2865 40.6357 45.0501 40.711 44.8755 40.6653C44.7011 40.6197 44.3969 40.6686 44.1998 40.774C44.0027 40.8795 43.8414 41.0349 43.8414 41.1194C43.8414 41.2038 44.1292 41.2292 44.4808 41.1756C44.8326 41.1219 45.2353 40.986 45.376 40.8735C45.5167 40.7611 45.8851 40.5689 46.1948 40.4464C46.5044 40.3239 47.1757 40.2236 47.6864 40.2236C48.3577 40.2236 48.856 40.3485 49.484 40.674C49.9619 40.9217 50.4116 41.0882 50.4832 41.0441C50.5548 40.9998 50.8544 41.0326 51.1492 41.1171C51.4438 41.2016 51.6849 41.2088 51.6849 41.1332C51.6849 41.0573 51.5886 40.9156 51.4708 40.818C51.3531 40.7204 51.0462 40.5877 50.7887 40.5231C50.4636 40.4415 50.3208 40.4713 50.3208 40.6211C50.3208 40.772 50.2298 40.7539 50.0161 40.5607C49.8487 40.4093 49.4291 40.1674 49.0839 40.0233C48.7387 39.8791 48.0508 39.7676 47.5555 39.7752C47.0601 39.7827 46.4194 39.8923 46.1317 40.0185ZM73.8396 40.1245C73.7325 40.3241 72.7707 43.088 71.7021 46.2664C70.6335 49.4448 69.7593 52.0836 69.7593 52.1307C69.7593 52.1777 70.119 52.1927 70.5588 52.1642L71.3585 52.1123L71.9283 50.2809L72.4984 48.4496H74.7131C76.8488 48.4496 76.9339 48.4633 77.0889 48.8329C77.1774 49.0438 77.4533 49.887 77.7021 50.7068L78.1546 52.1974H78.987C79.4449 52.1974 79.8195 52.169 79.8195 52.1341C79.8195 52.0993 78.9702 49.5545 77.9322 46.479C76.8942 43.4035 75.939 40.6338 75.8095 40.3241C75.5923 39.805 75.5142 39.7613 74.804 39.7613C74.1927 39.7613 73.9939 39.836 73.8396 40.1245ZM81.6525 39.8546C81.5821 39.9282 81.5246 42.7277 81.5246 46.0758V52.1632L82.304 52.225C82.7325 52.2591 83.1162 52.254 83.1566 52.2138C83.1968 52.1736 83.2297 51.0802 83.2297 49.784V47.4274L84.2102 47.426C84.7495 47.4254 85.6894 47.3456 86.2989 47.2489C86.9462 47.1461 87.721 46.8809 88.1613 46.6114C88.638 46.3196 89.0614 45.8734 89.3122 45.3989C89.6077 44.84 89.7092 44.3705 89.7092 43.5621C89.7092 42.9647 89.6035 42.2294 89.4744 41.9279C89.3453 41.6263 89.0181 41.1718 88.7473 40.9178C88.4766 40.6638 87.9108 40.3314 87.4901 40.1791C86.9798 39.9946 85.9023 39.8723 84.2528 39.8117C82.893 39.7618 81.7229 39.781 81.6525 39.8546ZM92.3806 39.8749C92.318 39.9372 92.2669 42.7354 92.2669 46.093V52.1974H93.0342H93.8015V45.9793V39.7613H93.1479C92.7883 39.7613 92.443 39.8124 92.3806 39.8749ZM96.1346 39.872C96.0705 39.936 96.0181 40.2413 96.0181 40.5505V41.1125L97.8512 41.1609L99.6842 41.2093L99.7292 46.7034L99.7742 52.1974H100.539H101.304V46.8519C101.304 42.6613 101.352 41.4667 101.527 41.3219C101.649 41.2204 102.512 41.1151 103.445 41.0882L105.141 41.0389V40.4427V39.8464L100.696 39.8011C98.2512 39.7761 96.1987 39.8081 96.1346 39.872ZM109.244 39.9137C109.192 39.9975 108.256 42.6998 107.165 45.9189C106.073 49.1378 105.144 51.8675 105.099 51.9845C105.042 52.137 105.258 52.1974 105.863 52.1974H106.707L107.272 50.3235L107.837 48.4496H110.08H112.322L112.909 50.2809L113.496 52.1123L114.306 52.1642C114.751 52.1927 115.116 52.1419 115.116 52.0513C115.116 51.9606 114.223 49.254 113.131 46.0368C112.04 42.8195 111.071 40.0914 110.979 39.9742C110.886 39.8572 110.48 39.7613 110.075 39.7613C109.67 39.7613 109.296 39.8299 109.244 39.9137ZM116.942 39.8669C116.875 39.9337 116.821 42.7354 116.821 46.093V52.1974H120.412H124.003L123.95 51.5586L123.897 50.9198L121.214 50.8729L118.531 50.8259L118.486 45.3362L118.441 39.8464L117.752 39.7958C117.374 39.7681 117.009 39.7999 116.942 39.8669ZM7.04721 40.3149C7.1826 40.5258 7.9204 41.8163 8.68668 43.1829C9.45297 44.5495 10.0799 45.7645 10.0799 45.8831C10.0799 46.0017 9.33958 47.4134 8.43484 49.0203C7.5301 50.6272 6.75819 51.9993 6.71965 52.0697C6.68112 52.14 7.03442 52.1974 7.50486 52.1974H8.36032L9.68896 49.6453C10.4198 48.2417 11.0561 47.0926 11.103 47.0918C11.1499 47.0909 11.8021 48.2378 12.5524 49.6402L13.9165 52.1899L14.8176 52.1937C15.6876 52.1973 15.712 52.1847 15.5225 51.831C15.4146 51.6295 14.79 50.537 14.1346 49.4034C13.4791 48.2698 12.7626 47.0279 12.5423 46.6439L12.1418 45.9454L13.8177 42.9812L15.4939 40.0168L14.8135 39.9635C14.4394 39.9342 14.0461 39.9451 13.9397 39.9878C13.8331 40.0306 13.2088 41.1076 12.5524 42.381C11.8959 43.6546 11.3202 44.6977 11.273 44.6991C11.2258 44.7005 10.6119 43.6303 9.90892 42.3206L8.63059 39.9396L7.71579 39.9355C6.80747 39.9316 6.80269 39.9343 7.04721 40.3149ZM17.753 46.0477V52.1974H18.5159H19.2787L19.3258 49.6054L19.3729 47.0133L20.4812 47.018L21.5895 47.0228L23.0518 49.5674L24.5141 52.1123L25.3964 52.1637C25.8817 52.1922 26.2786 52.1782 26.2786 52.1329C26.2786 52.0876 25.6264 50.9218 24.8293 49.5421C24.0321 48.1623 23.3799 46.9763 23.3799 46.9064C23.3799 46.8364 23.5982 46.7034 23.8648 46.6104C24.1315 46.5175 24.6306 46.1952 24.9737 45.8942C25.4153 45.5068 25.6762 45.0768 25.8668 44.4218C26.0418 43.8202 26.096 43.2454 26.0215 42.7788C25.9586 42.3841 25.7221 41.7751 25.4958 41.4257C25.2697 41.0761 24.7587 40.6185 24.3602 40.4086C23.7088 40.0655 23.3388 40.0205 20.6943 39.9624L17.753 39.8979V46.0477ZM28.4953 46.0645V52.1974H29.2626H30.0299V49.8124V47.4274L31.0956 47.426C31.6818 47.4254 32.66 47.3456 33.2696 47.2489C33.9184 47.146 34.6896 46.8816 35.1297 46.6114C35.579 46.3356 36.0217 45.879 36.2297 45.4773C36.421 45.1074 36.6101 44.3574 36.6497 43.8103C36.6986 43.1352 36.6289 42.5734 36.4328 42.0601C36.2739 41.6444 35.9155 41.1122 35.6365 40.8776C35.3574 40.643 34.7352 40.3342 34.2536 40.1914C33.6473 40.0113 32.628 39.9316 30.9367 39.9316H28.4953V46.0645ZM46.4613 40.7653C46.1672 40.841 45.695 41.0676 45.4118 41.2689C45.1287 41.4705 44.7149 41.6352 44.4924 41.6352C44.2699 41.6352 43.9173 41.7546 43.7089 41.9004C43.5004 42.0463 43.3298 42.2407 43.3298 42.3323C43.3298 42.4344 43.4659 42.4263 43.6802 42.3117C43.8729 42.2086 44.2003 42.1466 44.4078 42.1737C44.6153 42.201 45.09 42.0349 45.4628 41.8047C45.9573 41.4993 46.4478 41.3688 47.2772 41.3219C47.9025 41.2866 48.6848 41.3471 49.0157 41.4562C49.3467 41.5654 49.8199 41.8136 50.0671 42.0079C50.3145 42.2023 50.586 42.543 50.6704 42.7648C50.7862 43.0693 50.9534 43.1684 51.3509 43.1684C51.6408 43.1684 52.0328 43.2512 52.2222 43.3526C52.4117 43.4539 52.6176 43.4856 52.6801 43.4231C52.7423 43.3606 52.6204 43.1695 52.4091 42.9982C52.1978 42.8272 51.7184 42.6354 51.3434 42.5722C50.9074 42.4984 50.6619 42.3662 50.6619 42.205C50.6619 42.0447 50.7707 41.9853 50.9603 42.0415C51.1243 42.0902 51.4698 42.1803 51.7276 42.2418C52.0338 42.3148 52.1965 42.2851 52.1965 42.156C52.1965 42.0475 51.9204 41.8432 51.583 41.7025C51.2455 41.5616 50.8426 41.4751 50.6878 41.5103C50.5328 41.5454 50.0927 41.3965 49.7096 41.1791C49.2817 40.9364 48.6242 40.7539 48.0044 40.7061C47.4498 40.6631 46.7553 40.6899 46.4613 40.7653ZM22.5468 41.2936C23.2215 41.4182 23.5896 41.5998 23.9341 41.9778C24.3008 42.3803 24.403 42.6604 24.403 43.2647C24.403 43.6896 24.2865 44.262 24.1443 44.5369C24.0021 44.8117 23.6375 45.1693 23.3344 45.3316C22.9199 45.5535 22.3601 45.6281 21.078 45.6327L19.3729 45.6386L19.3246 43.6042C19.298 42.4853 19.3147 41.4696 19.3618 41.347C19.4199 41.1955 19.7969 41.1241 20.5378 41.1241C21.1375 41.1241 22.0415 41.2004 22.5468 41.2936ZM33.1185 41.2981C33.7627 41.42 34.1897 41.6245 34.5485 41.9827C35.0013 42.435 35.06 42.6088 35.06 43.4999C35.06 44.2538 34.9706 44.627 34.7036 44.9874C34.5077 45.2519 34.1241 45.5822 33.8511 45.7218C33.5457 45.8776 32.7154 45.9984 31.6924 46.0357L30.0299 46.0964V43.7238C30.0299 42.419 30.081 41.3001 30.1436 41.2378C30.206 41.1752 30.6944 41.1241 31.2286 41.1241C31.7628 41.1241 32.6133 41.2023 33.1185 41.2981ZM87.106 41.5257C87.4091 41.6827 87.7737 42.0362 87.9159 42.311C88.0581 42.586 88.1746 43.1482 88.1746 43.5606C88.1746 44.0597 88.0441 44.5042 87.7846 44.8894C87.5701 45.2078 87.1672 45.5792 86.8894 45.7148C86.6069 45.8526 85.6892 45.9928 84.807 46.0332L83.2297 46.1052V43.5919V41.0786L84.8922 41.1592C85.977 41.2119 86.7462 41.3391 87.106 41.5257ZM75.808 44.6165C76.1499 45.7408 76.4686 46.7949 76.5161 46.9589C76.5947 47.2294 76.4362 47.257 74.8008 47.257C73.8098 47.257 72.9986 47.1995 72.9981 47.1293C72.9976 47.0591 73.3494 45.8132 73.7801 44.3609C74.2106 42.9086 74.6037 41.6054 74.6533 41.4648C74.7097 41.3054 74.827 41.4655 74.965 41.8907C75.0867 42.2655 75.466 43.4921 75.808 44.6165ZM111.027 44.2119C111.491 45.7461 111.872 47.0591 111.873 47.1293C111.875 47.1995 111.07 47.257 110.085 47.257C109.101 47.257 108.295 47.2081 108.295 47.1485C108.295 47.0889 108.596 46.073 108.965 44.8913C109.333 43.7095 109.722 42.409 109.829 42.0013C109.935 41.5936 110.059 41.2965 110.104 41.3412C110.148 41.3856 110.564 42.6775 111.027 44.2119ZM46.4393 41.9625C46.1331 42.0405 45.5769 42.3064 45.2031 42.5536C44.8293 42.8006 44.5234 42.9252 44.5234 42.8301C44.5234 42.735 44.3487 42.6574 44.1352 42.6574C43.9215 42.6574 43.5762 42.7768 43.3679 42.9226C43.1593 43.0684 42.9888 43.2582 42.9888 43.3442C42.9888 43.4367 43.1675 43.4328 43.4262 43.3345C43.6668 43.2432 44.0172 43.1684 44.2049 43.1684C44.4803 43.1684 44.5231 43.2419 44.4259 43.5476C44.3188 43.8848 44.3741 43.8667 44.9238 43.3844C45.2638 43.0861 45.8691 42.7536 46.269 42.6456C46.6688 42.5374 47.4585 42.4856 48.0239 42.5306C48.5895 42.5754 49.3709 42.7747 49.7609 42.9734C50.1507 43.172 50.6061 43.5655 50.773 43.8478C50.9715 44.1834 51.213 44.3609 51.4715 44.3609C51.6887 44.3609 52.1325 44.472 52.4577 44.6078C52.9679 44.8207 53.049 44.8212 53.049 44.6117C53.049 44.4781 52.8765 44.2558 52.6654 44.118C52.4543 43.98 51.9555 43.8151 51.5571 43.7516C51.1586 43.688 50.8324 43.5441 50.8324 43.432C50.8324 43.3197 50.6598 43.0701 50.4487 42.8773C50.2376 42.6846 49.8177 42.402 49.5152 42.2492C49.2127 42.0965 48.5221 41.9376 47.9806 41.896C47.439 41.8545 46.7454 41.8844 46.4393 41.9625ZM46.0384 43.2332C45.6995 43.3541 45.1814 43.6243 44.8875 43.8335C44.5935 44.0427 44.3529 44.132 44.3529 44.0318C44.3529 43.9318 44.1573 43.8499 43.9181 43.8499C43.679 43.8499 43.257 43.9669 42.9803 44.1098C42.7037 44.2528 42.4773 44.4855 42.4773 44.6269C42.4773 44.8163 42.5559 44.8439 42.7757 44.7316C42.9399 44.6478 43.3235 44.5322 43.6282 44.4744C44.091 44.3868 44.1824 44.4212 44.1824 44.6834C44.1824 44.9216 44.0158 45.0199 43.4939 45.0897C43.1152 45.1405 42.6164 45.3057 42.3855 45.4569C42.1547 45.608 41.9657 45.8531 41.9657 46.0015C41.9657 46.1914 42.0541 46.2352 42.2641 46.1492C42.4283 46.0819 42.8964 45.9862 43.3044 45.9364C43.9589 45.8567 44.039 45.8831 43.9855 46.1608C43.9445 46.3736 43.7043 46.5196 43.2437 46.6115C42.8691 46.6863 42.384 46.8398 42.1658 46.9529C41.9473 47.0659 41.6919 47.3022 41.5978 47.4778C41.5037 47.6535 41.4641 47.8347 41.5098 47.8804C41.5555 47.9262 41.8266 47.8429 42.1119 47.6955C42.3973 47.548 42.8649 47.4274 43.1508 47.4274C43.5452 47.4274 43.6709 47.5044 43.6709 47.7461C43.6709 47.9991 43.4986 48.0877 42.8371 48.1754C42.3784 48.2363 41.8029 48.4434 41.5582 48.6356C41.3134 48.8279 41.1132 49.0947 41.1132 49.2286C41.1132 49.3623 41.1746 49.4717 41.2496 49.4717C41.3246 49.4717 41.4648 49.393 41.5611 49.2967C41.6573 49.2007 42.133 49.0749 42.6183 49.0175C43.1034 48.9601 43.5004 48.8473 43.5004 48.7671C43.5004 48.6867 43.7737 48.3185 44.1079 47.949C44.5062 47.5087 45.0198 47.1746 45.5999 46.9788C46.1373 46.7974 46.9563 46.6857 47.6873 46.6942C48.5332 46.7039 49.1554 46.8219 49.7834 47.0918C50.2748 47.303 50.9228 47.7608 51.2235 48.1093C51.6676 48.624 51.9298 48.7664 52.6205 48.8683C53.0883 48.9371 53.6888 49.1063 53.9553 49.2439C54.4234 49.4857 54.4379 49.4809 54.3838 49.0996C54.3483 48.8492 54.11 48.5962 53.7311 48.4073C53.4029 48.2434 52.8062 48.1092 52.4054 48.1092C51.8077 48.1088 51.6495 48.0398 51.5265 47.7255C51.4442 47.5146 51.2039 47.1601 50.9928 46.9376C50.7816 46.7151 50.2564 46.3724 49.8255 46.1761C49.2156 45.8983 48.7022 45.819 47.5074 45.819C46.3479 45.819 45.8268 45.8955 45.376 46.132C45.0478 46.3042 44.6068 46.6025 44.3962 46.795C44.1856 46.9874 43.9684 47.1 43.9137 47.0453C43.8589 46.9906 43.9428 46.7495 44.1002 46.5095C44.2576 46.2695 44.8196 45.8615 45.3492 45.6027C46.1407 45.2156 46.5399 45.132 47.5949 45.132C48.6781 45.132 49.0371 45.2114 49.8978 45.6408C50.6189 46.0006 50.9925 46.3083 51.1734 46.6911C51.3954 47.161 51.5417 47.2478 52.2817 47.3499C52.7506 47.4144 53.352 47.5788 53.618 47.715C54.0595 47.9409 54.0967 47.9369 54.0443 47.6705C54.0128 47.5098 53.7816 47.2254 53.5306 47.0383C53.2748 46.8477 52.6935 46.6618 52.2069 46.6151C51.4653 46.5439 51.3245 46.4722 51.2363 46.1211C51.1795 45.8952 50.8927 45.5296 50.5991 45.3086C50.3053 45.0879 49.698 44.7841 49.2492 44.634C48.8004 44.4838 48.0612 44.3609 47.6063 44.3609C47.1514 44.3609 46.3956 44.4846 45.9269 44.6359C45.4582 44.7872 44.8772 45.0938 44.636 45.3173C44.3947 45.5408 44.1556 45.7238 44.1046 45.7238C44.0537 45.7238 44.0119 45.6499 44.0119 45.5594C44.0119 45.469 44.2457 45.1289 44.5314 44.8039C44.854 44.4366 45.3763 44.1047 45.9097 43.9277C46.4876 43.7359 47.1444 43.6638 47.9173 43.7074C48.7063 43.7521 49.3293 43.9061 49.9067 44.1993C50.4341 44.4672 50.8416 44.8197 51.0005 45.1458C51.2092 45.5734 51.4053 45.6957 52.1088 45.8369C52.5791 45.9315 53.0982 46.0678 53.2622 46.14C53.4777 46.2349 53.5606 46.1947 53.5606 45.995C53.5606 45.8431 53.3113 45.5669 53.0064 45.3812C52.7015 45.1955 52.1687 45.0434 51.8222 45.0431C51.3056 45.0425 51.1519 44.9591 50.9696 44.5802C50.8472 44.326 50.4876 43.9436 50.1705 43.7303C49.8531 43.517 49.316 43.2654 48.9769 43.1712C48.6375 43.0769 47.9763 43.0028 47.5074 43.0064C47.0385 43.0102 46.3774 43.112 46.0384 43.2332ZM46.2609 47.6017C45.8568 47.6853 45.2046 47.931 44.8116 48.1473C44.4187 48.3639 43.9116 48.8269 43.6848 49.1766C43.3575 49.6818 43.1648 49.8133 42.747 49.8162C42.458 49.8182 41.9028 49.9646 41.5134 50.1412C41.114 50.3223 40.7539 50.6235 40.6878 50.8317C40.6233 51.0347 40.6045 51.2349 40.646 51.2763C40.6874 51.3179 40.9347 51.2412 41.1954 51.1061C41.4561 50.971 42.0251 50.8116 42.4599 50.7518C43.0928 50.6647 43.3065 50.5456 43.5312 50.1543C43.6857 49.8853 44.1249 49.439 44.5074 49.1622C44.9545 48.8385 45.6014 48.5838 46.3206 48.4482C46.9703 48.3259 47.8073 48.2863 48.3187 48.3541C48.8026 48.4182 49.5668 48.6289 50.0167 48.8223C50.4666 49.0158 51.0644 49.4352 51.3451 49.7547C51.6258 50.0741 51.8555 50.4002 51.8555 50.4794C51.8555 50.5584 52.2966 50.6554 52.8359 50.6945C53.3752 50.7339 54.0706 50.893 54.3814 51.0482C54.9335 51.3238 54.9451 51.3221 54.893 50.9717C54.8635 50.7746 54.6334 50.4601 54.3818 50.2731C54.1038 50.0666 53.522 49.8927 52.9004 49.8301C51.9673 49.7364 51.8415 49.6744 51.4824 49.131C51.2394 48.7634 50.7285 48.3587 50.1503 48.076C49.5414 47.7782 48.8237 47.5877 48.1042 47.5334C47.4946 47.4872 46.6652 47.518 46.2609 47.6017ZM41.3689 51.7726C40.9938 51.9056 40.5527 52.179 40.3885 52.3802C40.2243 52.5816 40.0901 52.8528 40.0901 52.983C40.0901 53.1131 40.1581 53.2196 40.2412 53.2196C40.3242 53.2196 40.6015 53.1111 40.8572 52.9785C41.113 52.846 41.7598 52.6867 42.2945 52.6247C43.2523 52.5136 43.2659 52.5046 43.1938 52.014C43.1305 51.583 43.0488 51.517 42.5859 51.5235C42.2916 51.5276 41.7441 51.6397 41.3689 51.7726ZM52.026 52.0024C52.026 52.4768 52.0536 52.4915 53.1295 52.5918C53.7364 52.6486 54.4616 52.8129 54.7409 52.9572C55.0202 53.1015 55.2909 53.2196 55.3424 53.2196C55.3941 53.2196 55.4362 53.0796 55.4362 52.9085C55.4362 52.7375 55.2637 52.4359 55.0526 52.2385C54.8415 52.0411 54.4529 51.7976 54.1889 51.6978C53.925 51.5978 53.3302 51.516 52.8674 51.516C52.0556 51.516 52.026 51.5332 52.026 52.0024ZM41.2409 53.7905C40.7955 53.916 40.2775 54.1574 40.0899 54.3271C39.9025 54.4966 39.7491 54.8055 39.7491 55.0135V55.3915L40.4052 55.0671C40.766 54.8889 41.4477 54.6971 41.9202 54.6412C42.4609 54.5774 43.2541 54.6452 44.06 54.8242C44.7644 54.9808 45.5438 55.0579 45.792 54.9958C46.0403 54.9334 46.2193 54.8104 46.19 54.7223C46.1605 54.6343 45.6776 54.3729 45.1168 54.1417C44.556 53.9104 43.6368 53.6854 43.0741 53.6417C42.4831 53.5957 41.709 53.6586 41.2409 53.7905ZM51.0882 53.807C50.713 53.9302 50.1082 54.1603 49.7442 54.3184C49.2882 54.5164 49.1373 54.6607 49.2587 54.782C49.3629 54.886 49.8093 54.9179 50.3469 54.8598C50.8484 54.8056 51.8725 54.7131 52.6228 54.6545C53.7538 54.5659 54.1398 54.606 54.882 54.8895C55.7471 55.2196 55.7772 55.2205 55.7772 54.9135C55.7772 54.7387 55.6217 54.4509 55.4314 54.2739C55.2413 54.0969 54.7913 53.8641 54.4312 53.7562C54.0713 53.6486 53.3253 53.5654 52.7735 53.5717C52.2217 53.578 51.4633 53.6838 51.0882 53.807Z" fill="#B2BFCD"/>
</svg>
