<svg width="131" height="64" viewBox="0 0 131 64" fill="none" xmlns="http://www.w3.org/2000/svg">
<g clip-path="url(#clip0_4463_152446)">
<path fill-rule="evenodd" clip-rule="evenodd" d="M83.735 24.0508C83.735 24.3635 84.0477 24.5199 84.6731 24.5199C85.2985 24.5199 85.6112 24.3635 85.6112 24.0508C85.6112 23.7381 85.2985 23.5818 84.6731 23.5818C84.0477 23.5818 83.735 23.7381 83.735 24.0508ZM87.8001 24.0508C87.8001 24.4158 88.217 24.5199 89.6763 24.5199C91.1357 24.5199 91.5525 24.4158 91.5525 24.0508C91.5525 23.6859 91.1357 23.5818 89.6763 23.5818C88.217 23.5818 87.8001 23.6859 87.8001 24.0508ZM93.4287 24.0508C93.4287 24.4595 94.9747 24.5199 105.468 24.5199C115.961 24.5199 117.507 24.4595 117.507 24.0508C117.507 23.6421 115.961 23.5818 105.468 23.5818C94.9747 23.5818 93.4287 23.6421 93.4287 24.0508ZM99.0574 28.1159C99.0574 28.4437 99.3876 28.585 100.152 28.585C100.916 28.585 101.246 28.4437 101.246 28.1159C101.246 27.7882 100.916 27.6469 100.152 27.6469C99.3876 27.6469 99.0574 27.7882 99.0574 28.1159ZM103.122 28.1159C103.122 28.5193 104.13 28.585 110.315 28.585C116.499 28.585 117.507 28.5193 117.507 28.1159C117.507 27.7126 116.499 27.6469 110.315 27.6469C104.13 27.6469 103.122 27.7126 103.122 28.1159ZM27.6806 31.8361C27.0339 32.0722 26.286 32.4475 26.0183 32.6698C23.9376 34.3965 24.2997 38.7622 26.6421 40.1906C27.8379 40.9198 30.544 40.9745 31.8561 40.2959C34.7233 38.8134 34.7561 33.6961 31.908 32.223C30.5246 31.5078 28.9683 31.3652 27.6806 31.8361ZM43.0029 31.8461C40.8303 32.6216 39.9557 33.9037 39.9591 36.3087C39.9629 39.062 41.7606 40.7756 44.6474 40.7772C47.0462 40.7784 49.3798 39.3469 47.903 38.7803C47.6275 38.6746 47.0518 38.8685 46.6099 39.2159C45.3116 40.2375 43.5521 40.0602 42.2709 38.779C41.3635 37.8716 41.2077 37.5007 41.2077 36.2462C41.2077 34.9916 41.3635 34.6207 42.2709 33.7133C43.5521 32.4322 45.3116 32.2549 46.6099 33.2764C47.4114 33.9065 48.523 33.8302 48.3192 33.1589C48.1731 32.6773 45.6021 31.3962 44.8157 31.4131C44.4651 31.4206 43.6493 31.6154 43.0029 31.8461ZM82.0599 31.707C78.4688 32.838 77.8963 38.5855 81.204 40.2959C82.4714 40.9514 85.1212 40.9189 86.2963 40.2331C89.025 38.6411 89.0609 33.8643 86.3561 32.2752C85.2147 31.6047 83.2216 31.3411 82.0599 31.707ZM0.556641 36.2462V40.7803H3.04355C5.9057 40.7803 6.93949 40.4157 7.42917 39.2337C7.83569 38.2524 7.45325 36.931 6.6296 36.4701C6.14554 36.1989 6.15711 36.118 6.76844 35.5066C7.70935 34.5657 7.63993 33.1686 6.61209 32.3602C5.92758 31.8218 5.34534 31.712 3.17238 31.712H0.556641V36.2462ZM13.6901 36.2462V40.7803H16.5044C18.7583 40.7803 19.3187 40.6896 19.3187 40.3257C19.3187 39.9817 18.804 39.8482 17.208 39.7784L15.0972 39.6859L15.0097 35.6989C14.9277 31.9703 14.8824 31.712 14.3061 31.712C13.7217 31.712 13.6901 31.9434 13.6901 36.2462ZM54.3412 36.2462C54.3412 40.5718 54.3699 40.7803 54.9666 40.7803C55.5144 40.7803 55.592 40.5718 55.592 39.0986C55.592 36.4294 56.1064 36.3616 58.2187 38.7522C59.5323 40.2397 60.2209 40.7803 60.7997 40.7803C61.5292 40.7803 61.432 40.6046 59.5289 38.4779C58.3953 37.2115 57.4682 36.0545 57.4682 35.9066C57.4682 35.7587 58.3437 34.7543 59.4135 33.6748C61.3388 31.732 61.3494 31.712 60.4298 31.7239C59.6796 31.7336 59.1399 32.1476 57.6245 33.8759L55.7483 36.016L55.6564 33.864C55.5754 31.9678 55.4919 31.712 54.9528 31.712C54.374 31.712 54.3412 31.9543 54.3412 36.2462ZM66.5365 32.1639C66.5365 32.4813 66.979 32.6442 68.0218 32.7111L69.5071 32.8065L69.5947 36.7934C69.6654 40.0148 69.7686 40.7803 70.1325 40.7803C70.4965 40.7803 70.5997 40.0148 70.6704 36.7934L70.7579 32.8065L72.2433 32.7111C73.2861 32.6442 73.7286 32.4813 73.7286 32.1639C73.7286 31.7961 73.06 31.712 70.1325 31.712C67.205 31.712 66.5365 31.7961 66.5365 32.1639ZM93.4882 32.0754C93.5691 32.3055 94.1817 34.3581 94.849 36.637C95.9135 40.2706 96.1442 40.7803 96.7265 40.7803C97.2972 40.7803 97.5139 40.3535 98.2731 37.7315C99.4836 33.551 99.5242 33.5035 100.115 35.5695C100.393 36.5435 100.842 38.1146 101.112 39.0605C101.515 40.4695 101.727 40.78 102.285 40.7794C102.889 40.7785 103.103 40.31 104.182 36.6361C104.85 34.3578 105.468 32.3055 105.555 32.0754C105.664 31.7836 105.487 31.6889 104.968 31.7627C104.307 31.8568 104.123 32.2408 103.313 35.2299C102.812 37.0789 102.316 38.5914 102.212 38.5914C102.107 38.5914 101.586 37.0789 101.055 35.2299C99.5777 30.0913 99.2059 30.4177 96.8709 38.9041C96.8472 38.9901 96.37 37.4422 95.8106 35.4644C94.9153 32.2996 94.7064 31.8555 94.0673 31.7627C93.5669 31.6898 93.3865 31.7874 93.4882 32.0754ZM111.565 32.1811C111.565 32.5651 112.104 32.6501 114.536 32.6501C116.968 32.6501 117.507 32.5651 117.507 32.1811C117.507 31.7971 116.968 31.712 114.536 31.712C112.104 31.712 111.565 31.7971 111.565 32.1811ZM123.135 36.2462C123.135 40.5718 123.164 40.7803 123.761 40.7803C124.317 40.7803 124.386 40.5718 124.386 38.9041C124.386 37.0439 124.394 37.0279 125.29 37.0279C126.051 37.0279 126.383 37.3225 127.401 38.9013C128.3 40.2978 128.791 40.7756 129.33 40.7775C130.146 40.7806 130.126 40.7244 128.531 38.5132C127.807 37.5085 127.605 37.0279 127.91 37.0279C128.669 37.0279 130.015 35.5473 130.015 34.7124C130.015 33.5426 129.415 32.4493 128.558 32.0591C128.139 31.8684 126.748 31.712 125.466 31.712H123.135V36.2462ZM5.694 33.1414C6.27906 33.7267 6.3294 34.5698 5.81001 35.0892C5.60363 35.2956 4.61862 35.4644 3.6211 35.4644H1.80744V34.0573V32.6501H3.50509C4.63113 32.6501 5.36785 32.8155 5.694 33.1414ZM31.7016 33.7133C32.6091 34.6207 32.7648 34.9916 32.7648 36.2462C32.7648 37.5007 32.6091 37.8716 31.7016 38.779C30.8301 39.6505 30.4017 39.8422 29.3251 39.8422C28.2485 39.8422 27.8201 39.6505 26.9486 38.779C26.0411 37.8716 25.8854 37.5007 25.8854 36.2462C25.8854 34.9916 26.0411 34.6207 26.9486 33.7133C27.8201 32.8418 28.2485 32.6501 29.3251 32.6501C30.4017 32.6501 30.8301 32.8418 31.7016 33.7133ZM85.8892 33.4506C87.5559 34.8531 87.575 37.3012 85.9321 38.9441C85.2823 39.5939 84.7288 39.8422 83.9301 39.8422C81.518 39.8422 80.2953 38.5245 80.2953 35.925C80.2953 34.7427 80.4626 34.3109 81.2093 33.5641C82.4482 32.3252 84.4927 32.2758 85.8892 33.4506ZM128.139 33.2755C129.555 34.692 128.522 36.0898 126.057 36.0898H124.386V34.37V32.6501H125.95C127.096 32.6501 127.68 32.8168 128.139 33.2755ZM110.315 36.2462C110.315 36.6358 110.922 36.7152 113.911 36.7152C116.899 36.7152 117.507 36.6358 117.507 36.2462C117.507 35.8565 116.899 35.7771 113.911 35.7771C110.922 35.7771 110.315 35.8565 110.315 36.2462ZM6.01108 37.4103C6.63773 38.3047 6.62554 38.4638 5.87255 39.2168C5.39881 39.6906 4.83032 39.8422 3.5273 39.8422H1.80744V38.2787V36.7152H3.66582C5.23183 36.7152 5.60113 36.8247 6.01108 37.4103ZM109.272 40.0508C108.679 40.6443 109.426 40.7803 113.285 40.7803C116.829 40.7803 117.507 40.705 117.507 40.3113C117.507 39.9188 116.852 39.8422 113.494 39.8422C111.286 39.8422 109.387 39.936 109.272 40.0508Z" fill="#B2BFCD"/>
</g>
<defs>
<clipPath id="clip0_4463_152446">
<rect width="129.458" height="64" fill="white" transform="translate(0.556641)"/>
</clipPath>
</defs>
</svg>
