<svg width="130" height="64" viewBox="0 0 130 64" fill="none" xmlns="http://www.w3.org/2000/svg">
<g clip-path="url(#clip0_4463_152451)">
<path fill-rule="evenodd" clip-rule="evenodd" d="M15.1754 11.3424C15.1783 11.4264 15.2724 11.8912 15.3844 12.3751C15.6259 13.4156 15.4572 14.0813 13.8415 18.4633L12.7557 21.4075L13.4064 22.0349C14.3438 22.9387 15.2403 22.9074 15.6947 21.9546C16.1217 21.0598 16.266 20.9514 17.6187 20.5123C18.2288 20.3142 19.0972 19.8204 19.5481 19.4151C20.3463 18.6977 20.3653 18.6498 20.2573 17.6093C20.1634 16.7047 20.1949 16.5592 20.4631 16.6614C20.8355 16.8036 21.7614 18.6889 21.7496 19.2815C21.7451 19.5069 21.4911 20.2131 21.1853 20.851C20.7445 21.7698 20.2977 22.2699 19.0346 23.2594C16.774 25.0299 15.6699 26.8914 15.4423 29.3162C15.3733 30.0516 15.278 30.6534 15.2304 30.6534C15.1828 30.6534 14.3255 29.9907 13.3253 29.181C12.0354 28.1368 11.1905 27.243 10.4199 26.1075L9.33317 24.5064H8.37351H7.41405L4.08293 27.9717C2.25074 29.8774 0.751825 31.5599 0.751825 31.7102C0.751825 31.9414 1.75845 35.1634 1.87771 35.3142C1.98729 35.4527 3.88664 34.6678 3.97109 34.4489C4.1334 34.0281 3.07734 31.8828 2.70781 31.8828C2.10615 31.8828 2.58505 31.5224 3.37581 31.38C3.98942 31.2695 4.54536 30.8515 6.04922 29.3695C7.09354 28.3405 7.98441 27.5399 8.02911 27.5903C8.11233 27.685 10.6873 32.4583 10.8105 32.7466C10.8484 32.8349 10.6879 32.9073 10.4543 32.9073C9.50269 32.9073 8.33149 33.5709 8.03426 34.2789C7.77143 34.9044 7.78276 35.0618 8.15085 35.8892C8.37495 36.3936 9.0174 37.4735 9.57808 38.289C10.4014 39.4862 10.6663 40.0949 10.9551 41.453L11.3126 43.1346L12.469 43.3729C13.1051 43.5041 14.6227 44.1085 15.8415 44.7162C18.0173 45.801 18.0746 45.8167 19.0017 45.5844L19.9461 45.3479L19.8161 44.4038C19.5257 42.291 19.5943 42.3878 18.0327 41.8874C16.8193 41.4987 16.4998 41.4655 15.9532 41.6708C15.3352 41.9028 15.2479 41.8655 13.9514 40.8201C12.7273 39.8331 12.522 39.5538 11.8377 37.9443C10.7711 35.4359 10.5324 35.4611 16.0796 37.4964C18.1092 38.2412 19.7832 38.827 19.7994 38.7985C19.8159 38.7703 19.942 38.0554 20.0796 37.2102C20.4355 35.0249 21.1608 33.6713 22.8795 31.9852C24.7112 30.1881 25.577 29.8448 28.6621 29.6932C31.7848 29.5398 33.7639 30.0565 37.9893 32.1289C39.1539 32.7001 40.1645 33.1103 40.2347 33.0407C40.3736 32.9026 38.6577 31.2546 37.2682 30.1913C36.2525 29.4141 36.2012 29.2691 36.9118 29.1814L37.4375 29.1166L36.9193 28.4208C36.4264 27.759 35.5938 24.8168 35.8323 24.5796C35.9233 24.489 36.9942 25.1955 38.6423 26.4333C39.2085 26.8584 38.4034 25.8559 35.0378 21.9452C33.1939 19.8023 31.6346 17.798 31.4847 17.3775C31.3376 16.9657 31.0684 16.4647 30.8863 16.2645C30.4564 15.7922 30.6529 15.8049 31.6571 16.3145C32.9941 16.9932 32.5926 16.644 30.5675 15.3675C29.5194 14.7071 28.3231 13.8621 27.9085 13.49C27.3303 12.9708 26.851 12.7614 25.8487 12.5899C24.3942 12.3411 23.6373 12.0409 24.3366 11.9901C24.5631 11.9737 24.8412 11.9389 24.9545 11.9127C25.0678 11.8864 25.3922 11.8424 25.6754 11.8145C25.9586 11.7869 25.5415 11.6354 24.7485 11.4783C23.7594 11.2822 23.1126 11.2531 22.6887 11.3853C21.6553 11.7074 18.0338 12.2559 17.6723 12.145C17.4859 12.0879 16.8467 11.8494 16.2518 11.6154C15.657 11.3812 15.1727 11.2584 15.1754 11.3424ZM0.443359 10.2661C5.90183 12.4176 8.25981 13.2224 13.0692 15.0728L14.1607 15.4927L14.4596 14.7813C14.6403 14.3511 14.759 14.0567 14.759 13.8518C14.347 13.6469 13.5034 13.3492 10.3682 12.6208C7.70222 12.0014 6.93174 11.7004 0.443359 10.2661ZM35.7685 12.0957C35.7685 12.152 35.9538 12.2967 36.1804 12.4173C36.407 12.538 36.5924 12.5905 36.5924 12.5341C36.5924 12.4778 36.407 12.3331 36.1804 12.2124C35.9538 12.0918 35.7685 12.0393 35.7685 12.0957ZM36.9013 12.7575C37.0146 12.8681 37.7691 13.4373 38.578 14.0223C40.4306 15.3626 43.6101 18.6518 44.8579 20.5189C50.8083 29.4215 50.5189 39.7784 44.1537 45.7348C42.366 47.4076 40.8411 48.3479 38.6851 49.1068C33.3999 50.9673 27.1027 50.2288 21.4528 47.0859L20.217 46.3985L20.8246 47.0318C22.4389 48.715 26.8818 51.1587 29.589 51.8521C31.6946 52.3913 34.9519 52.4913 36.9955 52.0795C41.965 51.0777 46.0458 47.6254 48.0447 42.7318C49.0729 40.2148 49.4361 38.173 49.4459 34.8538C49.4589 30.554 48.7565 27.4557 46.8953 23.6046C44.8295 19.3296 41.105 15.1323 37.5193 13.038C37.0661 12.7733 36.7881 12.647 36.9013 12.7575ZM58.1173 16.4037C58.004 16.4467 57.5639 16.5395 57.1389 16.6102C56.5539 16.7075 56.3665 16.836 56.3665 17.1392C56.3665 17.4773 56.5109 17.5398 57.2934 17.5398H58.2203V21.9335C58.2203 26.2417 58.2115 26.3335 57.7624 26.6462C57.5107 26.8216 57.0936 26.9652 56.8355 26.9652C56.4985 26.9652 56.3665 27.0846 56.3665 27.3891C56.3665 27.8069 56.4318 27.812 60.9664 27.7477L65.5664 27.6823L66.5722 27.0633C70.3954 24.7103 70.1729 19.0579 66.1753 16.9686C65.168 16.4422 64.9678 16.4153 61.722 16.3715C59.8527 16.3461 58.2306 16.3606 58.1173 16.4037ZM79.2303 16.7715C79.2303 17.0093 79.3903 17.13 79.7059 17.13C79.9675 17.13 80.3401 17.2454 80.534 17.3864C80.8514 17.6173 80.8808 18.0994 80.8308 22.2451L80.7752 26.8476L80.0027 27.0291C79.5646 27.1322 79.2303 27.335 79.2303 27.4977C79.2303 27.7311 79.8105 27.7848 82.335 27.7848C85.1708 27.7848 85.434 27.7541 85.3712 27.4293C85.3261 27.1963 85.0334 27.0304 84.5215 26.9476C84.0923 26.8783 83.6494 26.7304 83.5376 26.6191C83.4226 26.5048 83.36 25.5344 83.3936 24.3859L83.4529 22.355L84.4822 22.2904C86.2198 22.1816 86.8137 22.3804 87.1513 23.184C87.3148 23.5733 87.5923 23.8917 87.768 23.8917C88.0353 23.8917 88.0874 23.5573 88.0874 21.8427C88.0874 19.9304 88.0601 19.7937 87.6755 19.7937C87.376 19.7937 87.2635 19.9304 87.2635 20.2943C87.2635 21.0975 86.5525 21.4329 84.8488 21.4329H83.3499V19.4903C83.3499 17.2097 83.2661 17.2786 85.9253 17.3765L87.5725 17.4374L87.9845 18.2051C88.2195 18.643 88.5513 18.9733 88.7569 18.9735C89.0617 18.9741 89.1173 18.7768 89.1173 17.6935V16.4129H84.1738C79.6031 16.4129 79.2303 16.4399 79.2303 16.7715ZM91.3854 16.7159C90.95 17.5253 91.578 18.5643 92.5024 18.5643C92.9515 18.5643 93.6489 17.8252 93.6489 17.3495C93.6489 16.3707 91.8431 15.8652 91.3854 16.7159ZM63.9229 17.348C64.7091 17.6435 65.5827 18.4971 66.1112 19.4864C66.7837 20.7453 66.7508 23.6196 66.0476 25.0186C65.2204 26.6644 63.46 27.3506 61.8172 26.6677C61.3959 26.4927 61.0171 26.1499 60.8968 25.8348C60.6709 25.244 60.6099 17.4849 60.8295 17.2667C61.0476 17.0495 63.2852 17.1083 63.9229 17.348ZM92.0379 20.4086C91.7749 20.6266 91.2418 20.8645 90.8536 20.9368C89.9825 21.0995 89.9318 21.5438 90.7652 21.7095L91.3831 21.8325V24.3769C91.3831 27.0744 91.3473 27.1701 90.3363 27.1701C90.119 27.1701 89.9413 27.3084 89.9413 27.4774C89.9413 27.7329 90.3438 27.7848 92.3271 27.7848C94.0959 27.7848 94.6918 27.7209 94.6304 27.5381C94.5851 27.4024 94.2442 27.2131 93.8732 27.1174L93.1988 26.9437L93.3455 23.9149C93.4263 22.249 93.4287 20.6865 93.3509 20.4424C93.1766 19.8966 92.6711 19.8837 92.0379 20.4086ZM106.039 20.4129C105.773 20.6334 105.194 20.9215 104.752 21.0532C103.85 21.3221 103.724 21.6464 104.405 21.9478C104.984 22.2044 105.138 22.7781 105.163 24.776C105.186 26.5331 104.97 27.1701 104.353 27.1701C104.13 27.1701 103.948 27.3084 103.948 27.4774C103.948 27.7301 104.314 27.7848 106.008 27.7848C107.141 27.7848 108.068 27.7032 108.068 27.6035C108.068 27.5037 107.833 27.2691 107.546 27.0822C107.033 26.7476 107.025 26.7054 107.083 24.4462L107.141 22.1501L108.033 21.7019C108.648 21.3934 109.065 21.3044 109.372 21.4161C110.153 21.6997 110.338 22.3888 110.282 24.8049C110.232 26.9939 110.218 27.0529 109.731 27.1668C109.456 27.2312 109.193 27.3965 109.147 27.5344C109.085 27.7207 109.595 27.7848 111.14 27.7848C112.804 27.7848 113.217 27.7266 113.217 27.4918C113.217 27.3305 113.008 27.1691 112.754 27.1332C112.305 27.0697 112.287 26.9785 112.187 24.3015C112.13 22.7801 112.009 21.4194 111.917 21.2778C111.285 20.307 108.808 20.1431 107.649 20.9955L107.038 21.4452V20.7219C107.038 19.8968 106.764 19.8122 106.039 20.4129ZM73.5333 20.4131C71.9351 20.7588 70.7859 22.3441 70.7896 24.1991C70.794 26.496 72.2189 27.9794 74.4279 27.9864C75.6671 27.9903 76.3857 27.7551 77.3343 27.0355C77.8607 26.6361 77.9629 26.4572 77.7862 26.2454C77.5977 26.0194 77.4078 26.0395 76.6947 26.3616C75.6106 26.8511 75.1797 26.8554 74.2996 26.3859C73.4705 25.9436 72.8449 24.8877 72.8449 23.9304V23.2457L75.4514 23.3932L78.0579 23.5409L77.9207 22.8455C77.5666 21.0485 75.6104 19.964 73.5333 20.4131ZM117.431 20.4256C116.344 20.6801 115.115 21.7032 114.637 22.7502C113.352 25.5641 115.429 28.2147 118.707 27.9444C119.888 27.8471 120.614 27.4445 121.33 26.4908C121.639 26.079 121.684 25.8807 121.509 25.7067C121.334 25.5325 121.116 25.6069 120.646 26.0003C119.407 27.0371 118.165 26.9787 117.157 25.8362C115.469 23.9245 116.484 20.7922 118.724 20.9995C118.865 21.0125 119.217 21.3975 119.507 21.855C119.968 22.5808 120.119 22.6787 120.692 22.6234C121.135 22.5806 121.373 22.4373 121.421 22.1851C121.534 21.5921 121.299 20.9414 120.879 20.6834C120.322 20.3414 118.402 20.1978 117.431 20.4256ZM125.544 20.4168C123.818 20.8924 122.846 22.1232 122.739 23.9673C122.644 25.602 123.246 26.8582 124.443 27.5244C125.952 28.3644 128.494 27.9946 129.584 26.7767C130.201 26.088 129.654 25.8915 128.515 26.3925C127.9 26.6632 127.373 26.7568 126.93 26.6742C125.812 26.4654 124.752 25.0473 124.752 23.7602V23.2457L127.327 23.3915L129.901 23.5374V23.0276C129.901 22.3519 129.124 21.2321 128.356 20.802C127.618 20.3887 126.3 20.2084 125.544 20.4168ZM97.6144 20.8395C96.5526 21.3624 95.7087 22.3127 95.7087 22.9854C95.7087 23.5667 95.8208 23.5858 96.8128 23.1733C97.3302 22.9582 97.5961 22.6943 97.6896 22.3025C97.8942 21.446 98.3708 21.0231 99.1313 21.0231C99.7538 21.0231 99.8318 21.095 100.038 21.8581C100.431 23.3092 100.479 23.2547 97.7063 24.5152C96.5957 25.0201 96.234 25.3008 95.9621 25.8678C95.6541 26.5101 95.6506 26.639 95.9285 27.1326C96.2078 27.6293 96.3674 27.6881 97.5798 27.742C98.7255 27.793 99.0316 27.7276 99.6705 27.2963L100.419 26.791L100.746 27.2879C101.196 27.9708 102.54 27.9954 103.009 27.3293C103.416 26.7513 103.422 26.1456 103.021 26.1456C102.851 26.1456 102.712 26.2378 102.712 26.3505C102.712 26.4632 102.573 26.5554 102.403 26.5554C102.146 26.5554 102.094 26.1554 102.094 24.1855C102.094 20.9094 101.79 20.4256 99.7253 20.4152C98.8736 20.4107 98.2174 20.5426 97.6144 20.8395ZM75.0967 21.1184C75.7585 21.4587 76.1184 22.4172 75.6891 22.6959C75.541 22.792 74.8635 22.8469 74.1838 22.8178C73.001 22.767 72.9502 22.7428 73.0002 22.2525C73.0515 21.7513 73.9026 20.8182 74.3084 20.8182C74.4211 20.8182 74.7758 20.9532 75.0967 21.1184ZM127.481 21.4643C127.93 21.9917 127.946 22.5787 127.516 22.7428C126.994 22.9422 124.994 22.8861 124.859 22.6682C124.693 22.4017 125.28 21.3018 125.73 21.0346C126.218 20.7455 127.042 20.9477 127.481 21.4643ZM100.188 25.2319C100.063 26.3423 99.5595 26.9652 98.7885 26.9652C98.2196 26.9652 97.9745 26.656 97.9745 25.9389C97.9745 25.478 99.3595 24.3015 99.9021 24.3015C100.245 24.3015 100.281 24.4173 100.188 25.2319ZM61.9636 37.9095C59.1938 38.8145 57.5661 41.4063 57.8817 44.4095C58.1023 46.5083 59.2162 48.0215 61.207 48.9271C62.0717 49.3203 62.5838 49.3955 64.3997 49.3953C66.8264 49.3949 68.0452 49.0863 68.2963 48.4083C68.3861 48.1657 68.5204 47.5756 68.5949 47.0965C68.7121 46.3415 68.6802 46.2257 68.3552 46.2257C68.1488 46.2257 67.5045 46.6816 66.9232 47.239C65.6737 48.437 64.6125 48.8124 63.3968 48.4868C62.2542 48.1809 61.6379 47.6197 61.1143 46.4089C60.7224 45.5026 60.6655 45.0592 60.7253 43.3725C60.8074 41.0504 61.3817 39.6421 62.5152 38.9836C63.8496 38.2082 65.9922 38.7115 67.1413 40.0697C67.7024 40.7332 68.5193 40.9137 68.5193 40.3744C68.5193 40.1988 68.4139 39.6386 68.2849 39.1292C67.991 37.9679 67.653 37.8253 64.9147 37.7072C63.4755 37.6452 62.5865 37.706 61.9636 37.9095ZM97.5625 37.7693C96.8047 38.0562 96.7067 39.2751 97.4025 39.7597C98.0075 40.1814 98.3026 40.1621 98.7984 39.669C99.7519 38.7205 98.8225 37.2921 97.5625 37.7693ZM124.657 37.8654C124.435 37.9937 123.884 38.207 123.432 38.3398C122.464 38.624 122.254 38.9885 122.957 39.1641C123.417 39.2788 123.469 39.4182 123.59 40.8418C123.663 41.6958 123.722 43.6538 123.722 45.193C123.722 48.1094 123.6 48.5817 122.812 48.7185C122.595 48.7562 122.379 48.9023 122.332 49.0431C122.266 49.2377 122.794 49.2992 124.529 49.2992C126.374 49.2992 126.812 49.2429 126.812 49.0054C126.812 48.8374 126.569 48.6841 126.245 48.6468L125.679 48.5821L125.624 43.101C125.566 37.3407 125.566 37.3409 124.657 37.8654ZM105.419 41.0983C105.053 41.5514 104.479 42.0628 104.145 42.2349C103.392 42.6224 103.337 43.1522 104.051 43.1522H104.566V45.7803C104.566 48.2622 104.592 48.4329 105.043 48.8538C105.691 49.4599 107.179 49.4674 107.945 48.8685C108.389 48.5208 108.448 48.3809 108.249 48.1426C108.078 47.9379 107.937 47.9129 107.788 48.0612C107.462 48.3854 106.686 48.3163 106.545 47.9506C106.476 47.7723 106.42 46.6197 106.42 45.3893V43.1522H107.347C108.127 43.1522 108.274 43.0893 108.274 42.7541C108.274 42.4324 108.106 42.3441 107.398 42.2931L106.523 42.2302V41.3272C106.523 40.8305 106.424 40.3906 106.303 40.3494C106.183 40.3084 105.784 40.6453 105.419 41.0983ZM85.1071 41.6261C84.884 41.794 84.351 42.0251 83.9227 42.1398C83.0343 42.3777 82.9157 42.7781 83.6364 43.1049C84.1149 43.3217 84.1332 43.4182 84.2708 46.4673C84.3487 48.194 84.3819 50.2981 84.3446 51.1433C84.2778 52.6561 84.2663 52.6846 83.6074 52.9731C82.3799 53.5105 82.8141 53.7033 85.3067 53.7275C87.0806 53.7447 87.6755 53.6861 87.6755 53.4937C87.6755 53.3523 87.4215 53.1732 87.1111 53.0958C86.3168 52.8975 86.2404 52.693 86.2367 50.7608C86.2336 49.0771 86.2419 49.049 86.6971 49.188C86.9521 49.2658 87.5869 49.3793 88.1083 49.44C91.0768 49.7858 93.1747 46.4995 91.7951 43.6645C91.0416 42.1161 88.9499 41.4733 87.1288 42.2302C86.1836 42.623 86.2336 42.6402 86.2336 41.9228C86.2336 41.2258 85.7934 41.11 85.1071 41.6261ZM97.3757 42.0405C96.8764 42.3138 96.297 42.5375 96.0883 42.5375C95.4788 42.5375 95.6451 43.1178 96.2752 43.1899C96.8375 43.2543 96.8424 43.2682 96.9446 45.0988C97.0012 46.113 97.0142 47.293 96.9734 47.7209C96.9098 48.3909 96.8169 48.5153 96.304 48.6173C95.9767 48.6825 95.7087 48.8626 95.7087 49.0175C95.7087 49.2394 96.1893 49.2992 97.9745 49.2992C99.8046 49.2992 100.24 49.2427 100.24 49.0054C100.24 48.8374 99.998 48.6841 99.6738 48.6468L99.1074 48.5821L99.0509 45.0476C98.9873 41.0446 99.0357 41.1317 97.3757 42.0405ZM74.5873 42.3081C73.5799 42.7631 72.6389 43.8218 72.6389 44.4999C72.6389 45.0889 72.798 45.1096 73.7712 44.648C74.2394 44.4259 74.5506 44.1101 74.6297 43.7772C74.8246 42.9582 75.3117 42.5375 76.0656 42.5375C76.8026 42.5375 76.9699 42.8228 77.0362 44.1913C77.0714 44.9174 77.0972 44.8974 74.8693 45.8899C73.3057 46.5866 72.6389 47.266 72.6389 48.162C72.6389 49.3295 75.2028 49.7545 76.5915 48.8171L77.3056 48.3348L77.7376 48.8171C78.5223 49.6936 79.8929 49.3588 80.1683 48.2235C80.2744 47.786 80.2307 47.66 79.9735 47.66C79.7914 47.66 79.6423 47.7522 79.6423 47.8649C79.6423 47.9776 79.5032 48.0698 79.3333 48.0698C79.0777 48.0698 79.0243 47.6862 79.0243 45.8465C79.0243 43.468 78.7957 42.4445 78.1924 42.1234C77.5687 41.7915 75.4955 41.8976 74.5873 42.3081ZM113.938 42.2624C112.86 42.826 111.981 43.7956 111.981 44.4218C111.981 45.0951 111.95 45.0873 112.987 44.6748C113.649 44.4111 113.818 44.2271 113.927 43.6528C114.068 42.9029 114.531 42.5375 115.341 42.5375C116.07 42.5375 116.339 42.9875 116.267 44.0827L116.204 45.0449L114.762 45.6071C112.354 46.546 111.487 47.6867 112.302 48.8437C112.576 49.2332 112.812 49.2992 113.934 49.2992C115.047 49.2992 115.342 49.2183 115.883 48.765L116.522 48.2309L116.944 48.765C117.243 49.1423 117.559 49.2984 118.021 49.2961C118.8 49.2923 119.044 49.1515 119.385 48.5089C119.586 48.1294 119.587 47.9756 119.39 47.7918C119.201 47.6156 119.115 47.6211 119.045 47.8137C118.993 47.9547 118.819 48.0698 118.658 48.0698C118.426 48.0698 118.367 47.6449 118.367 45.9682C118.367 43.6514 118.159 42.6345 117.602 42.2138C117.084 41.8233 114.718 41.8546 113.938 42.2624ZM89.1618 43.6983C90.4673 44.8549 90.4472 47.7717 89.1287 48.4735C88.4481 48.8359 87.1014 48.7282 86.6456 48.2747C86.2857 47.9168 86.2336 47.5918 86.2336 45.7069C86.2336 43.6635 86.2583 43.5385 86.6971 43.353C87.3575 43.074 88.6636 43.2569 89.1618 43.6983ZM77.0335 47.1789C76.7025 48.5712 75.1286 48.9429 74.9397 47.6733C74.8629 47.1574 75.3319 46.5525 76.2436 45.9921C76.8475 45.6209 76.8657 45.6211 77.0403 46.0055C77.1423 46.2296 77.1394 46.7337 77.0335 47.1789ZM116.307 46.6275C116.307 47.8164 115.734 48.538 114.87 48.4374C113.803 48.313 114.091 46.8746 115.33 46.1362C115.81 45.8495 116.227 45.6141 116.255 45.6129C116.284 45.6118 116.307 46.0684 116.307 46.6275Z" fill="#B2BFCD"/>
</g>
<defs>
<clipPath id="clip0_4463_152451">
<rect width="129.458" height="64" fill="white" transform="translate(0.443359)"/>
</clipPath>
</defs>
</svg>
