<svg width="131" height="64" viewBox="0 0 131 64" fill="none" xmlns="http://www.w3.org/2000/svg">
<path fill-rule="evenodd" clip-rule="evenodd" d="M15.2341 18.5763C15.0626 19.3981 14.6669 21.2401 14.3546 22.6694L13.7864 25.2682L11.5716 25.3982C9.11817 25.5421 9.27773 25.4026 8.82301 27.8021L8.63844 28.7766H10.8399H13.0413L12.521 31.2359L12.0008 33.6954L9.75035 33.7697L7.49994 33.8443L7.29246 34.8838C7.17819 35.4555 7.02284 36.1866 6.94701 36.5081C6.81247 37.0788 6.86197 37.0928 9.02338 37.0928H11.2375L10.3388 41.3158C9.84461 43.6387 9.37567 45.7434 9.29695 45.9937C9.16793 46.4025 9.38173 46.4485 11.4094 46.4485C12.65 46.4485 13.6685 46.4194 13.6724 46.3835C13.6766 46.3476 14.1266 44.272 14.6727 41.7706L15.6653 37.2227L18.2272 37.1481C20.777 37.0741 20.7883 37.0767 20.6504 37.6679C19.9592 40.6292 18.931 45.6054 18.931 45.9898C18.931 46.4233 19.139 46.4623 21.0843 46.3939L23.2375 46.3185L24.0653 42.4203C24.5206 40.2763 24.9758 38.2007 25.0767 37.8075C25.2583 37.0998 25.2812 37.0928 27.4479 37.0928H29.6359L29.9443 35.7736C30.4435 33.639 30.5093 33.7143 28.1465 33.7143C25.7241 33.7143 25.841 33.9207 26.5261 30.8557L26.9616 28.9066L29.1836 28.7766L31.4053 28.6467L31.7455 27.3473C32.2739 25.329 32.3363 25.3982 29.9895 25.3982C28.4029 25.3982 27.8832 25.3122 27.8832 25.0494C27.8832 24.8576 28.2386 23.0455 28.673 21.0226C29.1075 18.9997 29.4629 17.2855 29.4629 17.2132C29.4629 17.141 28.4721 17.082 27.2612 17.082H25.0595L24.1888 21.2401L23.3181 25.3982H20.7673H18.2167L18.93 22.0847C19.3225 20.2624 19.7296 18.3913 19.8347 17.9266L20.0261 17.082H17.7857H15.5455L15.2341 18.5763ZM70.8987 25.616C69.1778 26.203 68.37 26.7306 67.5321 27.8145C65.9948 29.8039 65.614 32.726 66.6538 34.5569C67.0579 35.2687 68.0498 36.1629 69.7752 37.3709C72.4455 39.241 73.1151 40.1373 72.7918 41.4091C72.4903 42.595 71.2496 43.5898 70.0719 43.5898C68.6556 43.5898 68.1677 42.9993 68.1677 41.2849V39.9304L65.9955 40.006L63.8233 40.0814L63.5924 41.4242C62.9334 45.2574 64.8868 46.9139 69.7475 46.6442C72.4482 46.4945 74.3905 45.752 75.5801 44.4149C77.2966 42.485 78.0359 39.5554 77.2655 37.7355C76.6944 36.3862 76.0698 35.7609 73.9827 34.4482C70.8605 32.4848 70.2941 31.7211 70.8118 30.1727C71.1873 29.0498 72.2249 28.2569 73.3186 28.2569C74.5675 28.2569 75.0796 28.8746 74.969 30.2473L74.8782 31.3754H77.0214C79.4685 31.3754 79.4793 31.3645 79.4859 28.8507C79.489 27.7046 79.3642 27.3546 78.6781 26.583C78.2228 26.0713 77.4424 25.5544 76.9008 25.406C75.404 24.9956 72.41 25.1003 70.8987 25.616ZM32.6346 35.5985C31.4295 41.2088 30.3879 45.9451 30.32 46.1236C30.2273 46.3679 30.7594 46.4485 32.4627 46.4485C33.7091 46.4485 34.7323 46.4194 34.7363 46.3835C34.7405 46.3476 35.1905 44.272 35.7365 41.7706L36.7292 37.2227L39.2911 37.1481C41.8408 37.0741 41.8522 37.0767 41.7142 37.6679C41.023 40.6292 39.9949 45.6054 39.9949 45.9898C39.9949 46.423 40.2026 46.4623 42.1431 46.3939L44.2914 46.3185L46.4781 36.1832C47.6808 30.6088 48.669 25.8969 48.6742 25.7126C48.6813 25.459 48.1532 25.3956 46.5118 25.4527L44.3395 25.5281L43.4438 29.6212L42.5481 33.7143H39.9993H37.4503L38.156 30.5308C38.5438 28.78 38.944 26.9089 39.0451 26.3727L39.2289 25.3982H37.0272H34.8258L32.6346 35.5985ZM50.6387 35.6796C47.8256 41.3346 45.5241 46.0709 45.5241 46.2047C45.5241 46.3388 46.4812 46.4485 47.651 46.4485H49.778L53.4994 38.9769L57.2211 31.5054L57.5537 37.0928C57.7364 40.1659 57.9584 43.5282 58.0466 44.5643L58.2075 46.4485H60.4073C61.6174 46.4485 62.6538 46.3606 62.7106 46.2536C62.7672 46.1465 62.5445 41.7317 62.2151 36.4431C61.886 31.1545 61.6095 26.506 61.6008 26.1128L61.5853 25.3982H58.6693H55.7535L50.6387 35.6796ZM82.5188 25.9829C82.1794 27.3969 78.1754 46.0784 78.1744 46.2536C78.1736 46.3606 79.1654 46.4485 80.3782 46.4485H82.5833L82.7479 45.6039C82.8382 45.1392 83.285 43.0342 83.7405 40.926L84.5688 37.0928H87.0317C89.002 37.0928 89.4949 37.1679 89.4949 37.4675C89.4949 37.6739 89.0802 39.7272 88.5733 42.0305C88.0665 44.3338 87.6518 46.2702 87.6518 46.3336C87.6518 46.3968 88.6589 46.4485 89.8898 46.4485C91.1208 46.4485 92.1279 46.391 92.1279 46.3206C92.1279 46.1987 96.1898 27.2023 96.4765 25.9829C96.6108 25.4119 96.5613 25.3982 94.3972 25.3982H92.1808L91.7632 27.2823C91.5339 28.3184 91.1366 30.1605 90.8806 31.3754L90.4154 33.5844L87.8414 33.659C85.2784 33.7331 85.2679 33.7307 85.4075 33.1392C85.4846 32.8123 85.8474 31.1415 86.2142 29.4263C86.5807 27.7111 86.9435 26.103 87.0207 25.853C87.1465 25.4444 86.9314 25.3982 84.9098 25.3982C82.7929 25.3982 82.6507 25.433 82.5188 25.9829ZM99.115 25.723C98.941 26.2594 94.7608 45.9162 94.7608 46.198C94.7608 46.3664 96.8269 46.4337 100.601 46.3884L106.44 46.3185L106.615 45.6688C106.712 45.3115 106.874 44.5807 106.975 44.0446L107.16 43.07H103.489H99.8188L100.44 40.2763C100.782 38.7399 101.065 37.3948 101.071 37.2877C101.076 37.1806 102.557 37.0928 104.361 37.0928H107.642L107.898 36.1182C108.038 35.5824 108.191 34.8513 108.237 34.494L108.321 33.8443L105.095 33.7713C103.321 33.7312 101.872 33.6143 101.874 33.5114C101.877 33.3521 102.117 32.2751 102.797 29.3613C102.93 28.7906 103.018 28.7766 106.478 28.7766H110.022L110.183 28.0619C110.453 26.8673 110.552 26.4603 110.708 25.9179C110.854 25.4093 110.732 25.3982 105.039 25.3982C100.616 25.3982 99.195 25.4761 99.115 25.723ZM110.361 35.449C109.166 40.9985 108.188 45.7567 108.189 46.0228C108.189 46.4802 108.442 46.5007 112.863 46.4004C118.2 46.2796 119.16 46.0155 121.053 44.1465C122.855 42.3681 123.802 39.9933 124.798 34.7596C125.76 29.7052 125.262 27.2101 123.065 26.0733C122.131 25.59 121.475 25.5185 117.273 25.4437L112.533 25.3589L110.361 35.449ZM22.0645 31.0373C21.7891 32.2808 21.564 33.3918 21.564 33.5062C21.564 33.6208 20.4384 33.7143 19.0627 33.7143C17.2378 33.7143 16.5611 33.6265 16.56 33.3895C16.5595 33.211 16.7614 32.1 17.0092 30.9206L17.4592 28.7766H20.0121H22.5651L22.0645 31.0373ZM120.151 29.2761C120.893 30.0859 120.933 31.6161 120.297 34.7902C119.428 39.1248 118.655 41.2155 117.548 42.2254C116.697 43.0014 116.481 43.07 114.876 43.07C113.344 43.07 113.145 43.0144 113.249 42.6152C113.315 42.365 114.01 39.1492 114.794 35.4688L116.22 28.7771L117.956 28.7769C119.335 28.7766 119.787 28.8795 120.151 29.2761Z" fill="#B2BFCD"/>
</svg>
