<svg width="131" height="64" viewBox="0 0 131 64" fill="none" xmlns="http://www.w3.org/2000/svg">
<g clip-path="url(#clip0_4463_152490)">
<path fill-rule="evenodd" clip-rule="evenodd" d="M112.578 38.9975V37.408C112.578 37.0318 112.279 36.7273 111.91 36.7283C111.537 36.7299 111.068 36.7314 110.672 36.7314C109.663 36.7314 109.085 36.2169 109.085 34.8844V30.8656H112.578V29.2787C112.578 28.9035 112.28 28.599 111.911 28.599H109.085V25.9603C109.085 25.5851 108.786 25.2807 108.418 25.2807H106.6V35.1888C106.6 37.5882 107.832 38.9975 110.373 38.9975C111.355 38.9975 112.068 38.9692 112.578 38.9975Z" fill="#B2BFCD"/>
<path fill-rule="evenodd" clip-rule="evenodd" d="M86.7046 34.2441V36.9051C86.5094 36.9439 86.294 36.9742 86.0612 36.9959C85.489 37.051 84.9759 37.0611 84.381 37.0055C84.1482 36.9843 83.9327 36.9237 83.7415 36.8268C83.5568 36.7334 83.4052 36.6001 83.2794 36.4188C83.16 36.2476 83.0996 35.9942 83.0996 35.6665C83.0996 35.1555 83.2784 34.7899 83.6459 34.5481C84.0377 34.29 84.6306 34.1593 85.4088 34.1593C85.6188 34.1593 85.8744 34.1714 86.1771 34.1956C86.3747 34.2123 86.5505 34.2279 86.7046 34.2441ZM88.0568 29.3408C87.3074 28.7303 86.2122 28.4213 84.8005 28.4213C84.276 28.4213 83.7242 28.4602 83.161 28.5369C82.7093 28.5985 82.0698 28.6864 81.626 28.7904C81.4462 28.8328 81.413 28.9767 81.413 29.1494V30.5248C81.413 30.7702 81.4155 30.9934 81.6701 30.9298C82.1451 30.8121 83.0669 30.6041 83.317 30.5617C83.7128 30.4955 84.1437 30.4617 84.5979 30.4617C85.3048 30.4617 85.8442 30.591 86.2003 30.8444C86.5352 31.0833 86.7046 31.5382 86.7046 32.1956V32.2754C86.5788 32.2638 86.4406 32.2522 86.29 32.2421C86.0077 32.2229 85.6466 32.2128 85.2062 32.2128C84.6049 32.2128 84.0219 32.282 83.4745 32.4193C82.9193 32.5592 82.42 32.7743 81.99 33.0611C81.5532 33.3529 81.2025 33.7235 80.9484 34.1628C80.6918 34.6061 80.562 35.1247 80.562 35.7043C80.562 36.2931 80.673 36.8051 80.8924 37.2267C81.1133 37.6524 81.4313 38.0068 81.8365 38.281C82.2357 38.5511 82.7256 38.7485 83.2918 38.8692C83.8426 38.9859 84.4662 39.0449 85.1453 39.0449C85.6396 39.0449 89.2015 38.9939 89.2015 37.2656V32.2708C89.2015 30.9454 88.8167 29.9598 88.0568 29.3408Z" fill="#B2BFCD"/>
<path fill-rule="evenodd" clip-rule="evenodd" d="M120.634 34.2441V36.9051C120.439 36.9439 120.223 36.9742 119.99 36.9959C119.418 37.051 118.905 37.0611 118.31 37.0055C118.077 36.9843 117.862 36.9237 117.67 36.8268C117.486 36.7334 117.335 36.6001 117.209 36.4188C117.089 36.2476 117.029 35.9942 117.029 35.6665C117.029 35.1555 117.207 34.7899 117.575 34.5481C117.967 34.29 118.56 34.1593 119.338 34.1593C119.548 34.1593 119.803 34.1714 120.106 34.1956C120.304 34.2123 120.48 34.2279 120.634 34.2441ZM121.986 29.3408C121.237 28.7303 120.141 28.4213 118.729 28.4213C118.205 28.4213 117.653 28.4602 117.09 28.5369C116.638 28.5985 115.999 28.6864 115.555 28.7904C115.375 28.8328 115.342 28.9767 115.342 29.1494V30.5248C115.342 30.7702 115.345 30.9934 115.6 30.9298C116.074 30.8121 116.996 30.6041 117.246 30.5617C117.642 30.4955 118.073 30.4617 118.527 30.4617C119.234 30.4617 119.773 30.591 120.129 30.8444C120.464 31.0833 120.634 31.5382 120.634 32.1956V32.2754C120.508 32.2638 120.37 32.2522 120.219 32.2421C119.937 32.2229 119.576 32.2128 119.135 32.2128C118.534 32.2128 117.951 32.282 117.404 32.4193C116.848 32.5592 116.349 32.7743 115.919 33.0611C115.482 33.3529 115.132 33.7235 114.877 34.1628C114.621 34.6061 114.491 35.1247 114.491 35.7043C114.491 36.2931 114.602 36.8051 114.821 37.2267C115.042 37.6524 115.361 38.0068 115.766 38.281C116.165 38.5511 116.655 38.7485 117.221 38.8692C117.772 38.9859 118.395 39.0449 119.075 39.0449C119.569 39.0449 123.131 38.9939 123.131 37.2656V32.2708C123.131 30.9454 122.746 29.9598 121.986 29.3408Z" fill="#B2BFCD"/>
<mask id="mask0_4463_152490" style="mask-type:alpha" maskUnits="userSpaceOnUse" x="125" y="25" width="6" height="14">
<path d="M125.007 25.14H130.359V38.8569H125.007V25.14Z" fill="white"/>
</mask>
<g mask="url(#mask0_4463_152490)">
<path fill-rule="evenodd" clip-rule="evenodd" d="M130.36 38.8568V37.2673C130.36 36.8911 130.06 36.5861 129.691 36.5876C129.318 36.5892 128.85 36.5907 128.454 36.5907C127.445 36.5907 127.492 36.0761 127.492 34.7431V28.4583V25.8196C127.492 25.4444 127.193 25.1399 126.825 25.1399H125.008V35.0481C125.008 37.4475 125.614 38.8568 128.155 38.8568C129.137 38.8568 129.849 38.8285 130.36 38.8568Z" fill="#B2BFCD"/>
</g>
<path fill-rule="evenodd" clip-rule="evenodd" d="M97.8997 34.2588C97.8997 35.4924 96.9095 36.3134 95.6999 36.3134C94.4899 36.3134 93.4997 35.4924 93.4997 34.2588V32.4987C93.4997 31.2656 94.4899 30.4441 95.6999 30.4441C96.9095 30.4441 97.8997 31.2656 97.8997 32.4987V34.2588ZM95.6999 28.2063C93.1416 28.2063 91.0483 30.3396 91.0483 32.9475V41.1607C91.0483 41.556 91.3629 41.8762 91.7507 41.8762H93.4873V38.0392C94.1461 38.3694 94.9 38.5512 95.6999 38.5512C98.2578 38.5512 100.351 36.4179 100.351 33.8099V32.9475C100.351 30.329 98.2687 28.2063 95.6999 28.2063Z" fill="#B2BFCD"/>
<path fill-rule="evenodd" clip-rule="evenodd" d="M78.8274 28.9651C77.9982 27.8638 76.3393 27.5099 75.2011 27.5099C72.8478 27.5099 71.0923 29.2402 71.0923 31.8558C71.0923 35.0211 72.8091 36.6142 75.2977 36.6142C76.6088 36.6142 78.075 36.083 78.7887 35.3165H78.8853V37.1782C78.8853 37.9674 77.4172 38.954 74.9499 38.954C71.439 38.954 68.4304 36.2799 68.4304 32.2486C68.4304 28.1001 71.1498 25.17 75.1817 25.17C77.3419 25.17 78.924 25.9537 78.924 26.5677V28.9651H78.8274Z" fill="#B2BFCD"/>
<path fill-rule="evenodd" clip-rule="evenodd" d="M102.964 38.8825H104.723V29.8039C104.723 29.4212 104.419 29.1107 104.044 29.1107H102.284V38.1897C102.284 38.5725 102.589 38.8825 102.964 38.8825Z" fill="#B2BFCD"/>
<path fill-rule="evenodd" clip-rule="evenodd" d="M103.504 28.152C104.256 28.152 104.865 27.5309 104.865 26.7644C104.865 25.9985 104.256 25.3769 103.504 25.3769C102.752 25.3769 102.143 25.9985 102.143 26.7644C102.143 27.5309 102.752 28.152 103.504 28.152Z" fill="#B2BFCD"/>
<path fill-rule="evenodd" clip-rule="evenodd" d="M23.8232 25.3956V30.7408H18.6118V26.0889C18.6118 25.7062 18.3072 25.3956 17.9318 25.3956H16.1729V38.19C16.1729 38.5727 16.477 38.8827 16.8529 38.8827H18.6118V32.913H23.8232V38.19C23.8232 38.5727 24.1278 38.8827 24.5033 38.8827H26.2622V26.0889C26.2622 25.7062 25.9576 25.3956 25.5821 25.3956H23.8232Z" fill="#B2BFCD"/>
<path fill-rule="evenodd" clip-rule="evenodd" d="M34.1653 28.7394V35.1505C34.1653 35.7331 33.874 36.285 33.3792 36.5764C31.9982 37.3898 30.5687 36.3739 30.5687 35.0343V29.4327C30.5687 29.0499 30.2646 28.7394 29.8891 28.7394H28.1233H28.1228V35.2625C28.1228 37.3615 29.8074 39.0788 31.8665 39.0788H32.8675C34.9266 39.0788 36.6112 37.3615 36.6112 35.2625V29.4327C36.6112 29.0499 36.3066 28.7394 35.9311 28.7394H34.1653Z" fill="#B2BFCD"/>
<path fill-rule="evenodd" clip-rule="evenodd" d="M60.8449 38.8825H62.6038V29.8039C62.6038 29.4212 62.2997 29.1107 61.9242 29.1107H60.1648V38.1897C60.1648 38.5725 60.4694 38.8825 60.8449 38.8825Z" fill="#B2BFCD"/>
<path fill-rule="evenodd" clip-rule="evenodd" d="M61.3844 28.152C62.1363 28.152 62.7455 27.5309 62.7455 26.7644C62.7455 25.9985 62.1363 25.3769 61.3844 25.3769C60.6324 25.3769 60.0232 25.9985 60.0232 26.7644C60.0232 27.5309 60.6324 28.152 61.3844 28.152Z" fill="#B2BFCD"/>
<path fill-rule="evenodd" clip-rule="evenodd" d="M45.1143 34.7863C45.1143 36.0199 44.1241 36.8409 42.9146 36.8409C41.7045 36.8409 40.7143 36.0199 40.7143 34.7863V33.0262C40.7143 31.7926 41.7045 30.9716 42.9146 30.9716C44.1241 30.9716 45.1143 31.7926 45.1143 33.0262V34.7863ZM42.9146 28.7338C40.3562 28.7338 38.2629 30.599 38.2629 33.2069V34.6172C38.2629 37.2251 40.3562 39.0787 42.9146 39.0787C45.4724 39.0787 47.5657 37.2251 47.5657 34.6172V33.2069C47.5657 30.599 45.4724 28.7338 42.9146 28.7338Z" fill="#B2BFCD"/>
<path fill-rule="evenodd" clip-rule="evenodd" d="M56.0687 34.7863C56.0687 36.0198 55.0785 36.8408 53.8689 36.8408C52.6588 36.8408 51.6692 36.0198 51.6692 34.7863V33.0261C51.6692 31.7931 52.6588 30.9716 53.8689 30.9716C55.0785 30.9716 56.0687 31.7931 56.0687 33.0261V34.7863ZM53.8689 28.7337C53.0694 28.7337 52.3151 28.916 51.6563 29.2457V26.1015C51.6563 25.7188 51.3521 25.4088 50.9767 25.4088H49.2173V34.6171C49.2173 37.2251 51.3105 39.0787 53.8689 39.0787C56.4268 39.0787 58.52 37.2251 58.52 34.6171V33.2069C58.52 30.5989 56.4268 28.7337 53.8689 28.7337Z" fill="#B2BFCD"/>
<mask id="mask1_4463_152490" style="mask-type:alpha" maskUnits="userSpaceOnUse" x="0" y="21" width="9" height="19">
<path d="M0.901611 21.12H8.61696V39.4855H0.901611V21.12Z" fill="white"/>
</mask>
<g mask="url(#mask1_4463_152490)">
<path fill-rule="evenodd" clip-rule="evenodd" d="M8.61696 26.7725C8.61696 24.1353 7.35685 21.8677 6.39839 21.1295C6.39443 21.127 6.32508 21.0871 6.33103 21.1926C6.33103 21.1941 6.32954 21.1946 6.32954 21.1961C6.24979 26.2873 3.69836 27.6673 2.2956 29.5264C-0.941369 33.8158 2.06923 38.5191 5.13481 39.3881C6.85013 39.8744 4.73855 38.5277 4.46662 35.6825C4.13772 32.2439 8.61696 29.6193 8.61696 26.7725Z" fill="#B2BFCD"/>
</g>
<path fill-rule="evenodd" clip-rule="evenodd" d="M10.2987 28.5056C10.2779 28.492 10.2477 28.4829 10.2274 28.5152C10.1709 29.1564 9.48539 30.5268 8.61659 31.7861C5.66988 36.0562 7.34904 38.1143 8.29363 39.2201C8.84196 39.8619 8.29363 39.2201 9.66371 38.5642C9.77169 38.5127 12.338 37.1383 12.6159 34.0062C12.8848 30.9727 10.9778 29.061 10.2987 28.5056Z" fill="#B2BFCD"/>
</g>
<defs>
<clipPath id="clip0_4463_152490">
<rect width="129.458" height="64" fill="white" transform="translate(0.901611)"/>
</clipPath>
</defs>
</svg>
