<svg width="130" height="64" viewBox="0 0 130 64" fill="none" xmlns="http://www.w3.org/2000/svg">
<g clip-path="url(#clip0_4463_152524)">
<path fill-rule="evenodd" clip-rule="evenodd" d="M9.33297 20.6212C8.48296 21.0442 7.29054 21.9596 6.68355 22.6548C5.66617 23.8201 5.57956 24.1343 5.57956 26.6626V29.4058H7.20722H8.83524L8.94305 26.9382C9.0461 24.5911 9.11188 24.4298 10.293 23.6309C11.8724 22.5626 13.5399 22.563 15.1182 23.632L16.36 24.4731L16.4608 30.2675L16.5613 36.0616L18.1053 35.9491L19.6489 35.8367L19.7571 33.5583C19.8532 31.5375 19.991 31.1737 20.9729 30.3429C22.4821 29.0659 24.6185 29.0659 26.2838 30.3432C27.4145 31.2105 27.5065 31.4376 27.5168 33.3749C27.5266 35.281 27.6571 35.6177 28.9676 37.1229L30.4074 38.7765L30.4184 34.3131L30.4293 29.8493L29.0827 28.6605C26.3909 26.2837 23.6084 25.5767 21.099 26.631L19.8316 27.1634V25.5414C19.8316 21.3389 13.6817 18.4567 9.33297 20.6212ZM50.3201 24.9564C46.2579 25.9967 44.0393 31.1656 45.9754 35.0782C47.4653 38.0886 50.6424 39.503 54.345 38.8048L55.6445 38.5593V36.5551C55.6445 35.4527 55.5875 34.5505 55.5181 34.5505C55.4483 34.5505 54.8606 34.8169 54.212 35.1421C52.7795 35.8606 51.0926 35.6015 49.9064 34.4807C48.6833 33.3253 48.7144 30.4616 49.9638 29.2055C51.0301 28.1328 53.537 27.9631 54.8321 28.8755C55.6419 29.4458 55.6445 29.4414 55.6445 27.4273C55.6445 26.316 55.5119 25.3242 55.3496 25.2235C54.7558 24.8546 51.4109 24.6767 50.3201 24.9564ZM61.9341 25.0434C60.063 25.5858 57.9998 27.9642 57.5974 30.0415C56.9042 33.6237 58.0527 36.3574 60.9755 38.0798C62.4183 38.9301 62.9131 39.0242 65.31 38.9022C67.6725 38.7824 68.19 38.6233 69.3893 37.6469C71.4687 35.9546 72.1732 34.793 72.3702 32.7337C72.9081 27.1035 67.803 23.3413 61.9341 25.0434ZM39.2831 31.8863L39.3825 38.7765L41.1184 38.8886L42.8542 39.0007V31.9984V24.996H41.019H39.1837L39.2831 31.8863ZM74.7306 31.8863L74.83 38.7765L76.5541 38.8879L78.2783 38.9996L78.3813 34.7364L78.4844 30.4733L81.7506 34.7339L85.0169 38.9948L86.684 38.8856L88.3512 38.7765L88.4506 31.8863L88.55 24.996H86.7268H84.9036L84.8002 29.0493L84.6968 33.1023L81.5906 29.0644L78.4844 25.0265L76.5578 25.0111L74.6312 24.996L74.7306 31.8863ZM91.4574 31.9781V39.0007L93.1932 38.8886L94.929 38.7765V31.9781V25.1798L93.1932 25.0677L91.4574 24.9556V31.9781ZM97.6698 29.243C97.6698 34.355 98.1091 36.3368 99.5489 37.724C100.492 38.6325 100.961 38.7806 103.26 38.8934C105.544 39.0058 106.061 38.9084 107.171 38.1573C109.334 36.694 109.728 35.4163 109.729 29.8651L109.729 24.996H107.902H106.075V29.7031C106.075 35.0554 105.814 35.7753 103.877 35.7753C101.721 35.7753 101.324 34.8081 101.324 29.5487V24.996H99.497H97.6698V29.243ZM114.312 25.4554C114.067 26.2344 112.287 37.4661 112.287 38.2352C112.287 38.8489 112.538 38.9602 113.925 38.9602C115.791 38.9602 115.683 39.1679 116.305 34.3917C116.513 32.7888 116.743 31.4177 116.815 31.3453C116.887 31.2726 117.642 32.9564 118.494 35.087C120.532 40.1851 120.842 40.1876 122.911 35.1212C123.774 33.0097 124.591 31.3516 124.728 31.4365C124.864 31.521 125.09 33.0122 125.23 34.7493C125.568 38.9371 125.581 38.9602 127.492 38.9602C129.332 38.9602 129.354 38.8941 128.732 35.1017C128.532 33.889 128.196 31.4912 127.984 29.7733C127.363 24.7476 127.472 24.9431 125.355 25.0703L123.529 25.1798L122.216 28.5749C121.494 30.4421 120.778 31.8436 120.625 31.6897C120.39 31.4538 118.134 25.5057 118.134 25.1232C118.134 24.7351 114.438 25.0567 114.312 25.4554ZM0.394365 31.0679L0.508016 35.3038L2.27052 36.705C5.10668 38.9591 7.31137 39.3207 10.4216 38.0419C10.9475 37.8258 11.0611 37.9769 11.0611 38.8926C11.0611 40.2854 12.4264 41.9644 14.6011 43.2458C17.7399 45.0957 21.7831 44.2251 24.3612 41.1442C25.1999 40.1417 25.3132 39.6816 25.3132 37.2783V34.5505H23.6855H22.0575L21.9497 37.0181C21.8466 39.3652 21.7809 39.5265 20.5998 40.3254C19.0204 41.3937 17.3529 41.3933 15.7745 40.3243L14.5328 39.4835L14.4316 34.2609L14.33 29.0383H12.6957H11.0611V31.4082C11.0611 33.6638 11.0023 33.8233 9.8391 34.7155C8.25091 35.9333 6.52787 35.9352 4.75075 34.721C3.44102 33.8258 3.38693 33.7049 3.38693 31.672C3.38693 29.7057 3.28827 29.458 2.00119 28.1942C1.23889 27.4457 0.540175 26.8331 0.448085 26.8327C0.355994 26.8323 0.331875 28.7381 0.394365 31.0679ZM67.0608 28.7326C68.0873 29.2614 68.8923 31.1848 68.6442 32.5154C68.1874 34.9635 65.2873 36.3155 63.0205 35.1366C61.5993 34.3976 61.1261 33.5355 61.1261 31.6849C61.1261 28.7598 64.1724 27.2443 67.0608 28.7326Z" fill="#B2BFCD"/>
</g>
<defs>
<clipPath id="clip0_4463_152524">
<rect width="128.739" height="64" fill="white" transform="translate(0.359619)"/>
</clipPath>
</defs>
</svg>
