<svg width="130" height="64" viewBox="0 0 130 64" fill="none" xmlns="http://www.w3.org/2000/svg">
<g clip-path="url(#clip0_4463_152526)">
<path fill-rule="evenodd" clip-rule="evenodd" d="M18.879 15.6194C18.527 15.7438 15.4073 18.6392 11.9457 22.0532L5.65238 28.2607V24.1277C5.65238 20.5609 5.53547 19.8789 4.79905 19.1463C4.32971 18.6795 3.46571 18.2975 2.87905 18.2975C2.29238 18.2975 1.42838 18.6795 0.959046 19.1463C0.14454 19.9566 0.105713 20.5609 0.105713 32.4913C0.105713 44.9238 0.110409 44.9913 1.0542 45.6483C1.57558 46.0116 2.43958 46.3091 2.9742 46.3091C3.50838 46.3091 4.32971 45.9271 4.79905 45.4602C5.53505 44.7281 5.65238 44.0457 5.65238 40.4912V36.3709L12.1902 42.8255C16.9488 47.5238 19.0045 49.28 19.7448 49.28C20.4769 49.28 22.242 47.8073 26.05 44.0193C30.6559 39.4373 31.2989 38.6297 31.0314 37.7592C30.8628 37.2096 30.4298 36.4257 30.0692 36.0169C29.7087 35.6082 28.8438 35.2742 28.1475 35.2742C27.138 35.2742 26.1537 35.9809 23.2925 38.7591L19.7034 42.2436L9.71041 32.3033L19.7034 22.363L23.2925 25.8475C26.1123 28.5854 27.144 29.3311 28.107 29.326C28.7811 29.3222 29.5436 29.1792 29.8017 29.0077C30.0598 28.8362 30.4921 28.2785 30.7617 27.7684C31.0813 27.1653 31.118 26.4981 30.8671 25.8585C30.655 25.3182 28.2845 22.7276 25.599 20.1013C22.914 17.4754 20.4475 15.3419 20.1181 15.3601C19.7887 15.3784 19.231 15.4951 18.879 15.6194ZM78.3257 18.2712C77.3465 18.7134 76.1983 19.6026 75.7738 20.2473C75.1888 21.1347 74.9682 22.456 74.8633 25.6938C74.7502 29.1821 74.8662 30.2368 75.4952 31.4243C75.9188 32.2248 76.7717 33.2485 77.3904 33.6992C78.0086 34.1499 79.3736 34.6151 80.4231 34.7327C81.742 34.8804 82.827 34.7127 83.9355 34.1894C84.8178 33.7731 85.9003 32.844 86.341 32.125C86.7818 31.4061 87.1432 30.4838 87.144 30.0751C87.1453 29.517 86.7946 29.3324 85.7326 29.3324C84.6574 29.3324 84.0933 29.6367 83.3731 30.6056C82.6913 31.5232 82.0731 31.8789 81.1596 31.8789C80.4539 31.8789 79.5075 31.4961 79.0237 31.0148C78.2506 30.2457 78.1686 29.7025 78.277 26.0724C78.3926 22.2149 78.4605 21.9484 79.5353 21.1513C80.3301 20.5622 81.0073 20.3929 81.7898 20.5881C82.405 20.7417 83.1244 21.3397 83.3889 21.9169C83.7785 22.7679 84.1791 22.9661 85.5077 22.9661C86.8517 22.9661 87.1457 22.8163 87.1457 22.1321C87.1457 21.6733 86.5539 20.6276 85.8307 19.808C85.093 18.9723 83.8284 18.1282 82.9507 17.8858C82.0897 17.6482 81.0977 17.4567 80.7457 17.4606C80.3937 17.4644 79.3049 17.829 78.3257 18.2712ZM94.574 17.8926C93.8486 18.1095 92.7581 18.7453 92.1497 19.3059C91.5417 19.8666 90.818 21.1581 90.5411 22.1763C90.2629 23.2012 90.1217 25.468 90.2245 27.2574C90.3491 29.4143 90.6883 30.9651 91.2464 31.926C91.7055 32.7171 92.747 33.6984 93.5602 34.1062C94.3734 34.5145 95.7111 34.8485 96.5324 34.8485C97.3537 34.8485 98.6841 34.5145 99.4887 34.1062C100.293 33.6984 101.34 32.8368 101.816 32.1921C102.497 31.2677 102.717 30.1816 102.854 27.0562C103 23.7466 102.886 22.7721 102.164 21.1496C101.635 19.9591 100.826 18.9626 100.075 18.5764C99.4009 18.2296 98.184 17.8451 97.3708 17.7224C96.5576 17.5993 95.2989 17.6762 94.574 17.8926ZM40.639 34.9012L43.839 34.6376L44.0524 31.7838C44.2154 29.6019 44.485 28.7119 45.1967 28.0048L46.1273 27.0796L47.33 29.1011C47.9914 30.2126 49.0563 31.9608 49.6963 32.9862C50.7609 34.6906 51.0079 34.8498 52.5874 34.8498H54.3141L53.7031 33.6827C53.3674 33.0405 52.0204 30.7143 50.7101 28.5124C48.6915 25.1213 48.4116 24.4074 48.8797 23.8438C49.1835 23.478 50.4485 21.9849 51.691 20.5257L53.9502 17.8731H49.7744L44.0524 24.7656V17.8731H40.639V34.9012ZM57.7829 24.6307C57.9144 31.1646 57.9545 31.426 58.9857 32.5227C59.5724 33.1466 60.5708 33.9254 61.2044 34.2535C61.8384 34.5816 63.0459 34.8498 63.8881 34.8498C64.7303 34.8498 66.132 34.4861 67.0028 34.0413C67.8732 33.5969 68.9219 32.6602 69.3324 31.9599C69.954 30.9002 70.079 29.6138 70.079 24.2801V17.8731H66.6657V24.0272C66.6657 29.6155 66.5872 30.2593 65.8124 31.03C65.343 31.4969 64.479 31.8789 63.8924 31.8789C63.3057 31.8789 62.4417 31.4969 61.9724 31.03C61.1976 30.2593 61.119 29.6155 61.119 24.0272V17.8731H57.6468L57.7829 24.6307ZM107.626 34.8498H111.039V17.8731H107.626V34.8498ZM116.586 34.8498H119.572V29.7317C119.572 26.917 119.736 24.7143 119.935 24.8369C120.135 24.9596 121.704 27.2629 123.422 29.955C126.383 34.596 126.619 34.8498 127.965 34.8498H129.386V17.8731H125.972L125.954 27.8469L122.719 22.86C119.634 18.104 119.417 17.8731 118.035 17.8731H116.586V34.8498ZM98.4716 21.4615C99.4175 22.4021 99.5191 22.8485 99.5191 26.0728C99.5191 29.0412 99.3701 29.8306 98.6346 30.7605C98.0483 31.502 97.3401 31.8789 96.5324 31.8789C95.7119 31.8789 95.013 31.4982 94.3914 30.7117C93.5726 29.6761 93.4851 29.1227 93.614 25.7936C93.7433 22.4551 93.87 21.9522 94.7664 21.2307C95.3202 20.7846 96.145 20.4196 96.5989 20.4196C97.0529 20.4196 97.8956 20.8886 98.4716 21.4615ZM18.6657 29.8429C18.1964 30.1057 17.6712 30.5284 17.4988 30.7818C17.3264 31.0351 17.1826 31.8521 17.1788 32.5974C17.1745 33.5218 17.474 34.1631 18.1209 34.6134C18.6423 34.9767 19.3842 35.2742 19.7699 35.2742C20.1552 35.2742 20.9765 34.8782 21.5948 34.3944C22.2314 33.8966 22.719 33.0885 22.719 32.5316C22.719 31.9909 22.3833 31.162 21.9724 30.6897C21.5615 30.2173 20.8417 29.7258 20.3724 29.5976C19.903 29.4699 19.135 29.5802 18.6657 29.8429ZM40.639 42.7015V46.7335H43.2345C45.1203 46.7335 45.7821 46.5883 45.6549 46.203C45.5585 45.9114 44.6783 45.6139 43.6991 45.5422L41.919 45.4114V42.0407C41.919 39.327 41.794 38.6696 41.279 38.6696C40.7551 38.6696 40.639 39.4004 40.639 42.7015ZM69.9301 38.9904C69.8051 39.1912 69.1156 40.9567 68.3976 42.9137C67.6799 44.8703 67.0924 46.5306 67.0924 46.6023C67.0924 46.6745 67.3676 46.7335 67.7038 46.7335C68.04 46.7335 68.4368 46.3515 68.5857 45.8847C68.7944 45.2311 69.2313 45.0358 70.4848 45.0358C71.7541 45.0358 72.162 45.223 72.3361 45.8847C72.4586 46.3515 72.8652 46.7335 73.2389 46.7335C73.6131 46.7335 73.9178 46.6855 73.9161 46.6274C73.9144 46.5692 73.2637 44.8096 72.4705 42.7172C71.6773 40.6253 70.8321 38.8487 70.5928 38.7693C70.3534 38.6899 70.0552 38.7892 69.9301 38.9904ZM96.1057 46.7335H98.2087C99.5515 46.7335 100.554 46.4924 100.982 46.0667C101.351 45.6996 101.652 44.9739 101.652 44.4539C101.652 43.9336 101.422 43.2787 101.14 42.9986C100.742 42.6026 100.742 42.376 101.14 41.98C101.422 41.6999 101.652 41.1566 101.652 40.7725C101.652 40.3885 101.301 39.7582 100.872 39.372C100.38 38.9293 99.3548 38.6696 98.0987 38.6696H96.1057V46.7335ZM124.428 39.748C123.874 40.5896 123.818 41.0446 124.173 41.8204C124.472 42.4715 125.191 42.946 126.26 43.1968C127.432 43.471 127.929 43.8288 128.021 44.4641C128.11 45.0757 127.866 45.4237 127.229 45.5893C126.722 45.7213 125.855 45.658 125.302 45.4488C124.703 45.2221 124.199 45.2247 124.055 45.4551C123.924 45.6678 124.192 46.0425 124.652 46.2879C125.113 46.5327 126.048 46.7335 126.731 46.7335C127.415 46.7335 128.291 46.3842 128.68 45.9572C129.068 45.5303 129.386 44.771 129.386 44.2693C129.386 43.7681 128.954 43.0894 128.426 42.7618C127.897 42.4341 126.938 42.0441 126.292 41.8951C125.647 41.7462 125.119 41.365 125.119 41.0476C125.119 40.7305 125.413 40.2289 125.772 39.9322C126.267 39.5235 126.675 39.5069 127.463 39.8643C128.2 40.1987 128.584 40.203 128.785 39.8791C128.941 39.6287 128.804 39.257 128.48 39.0532C128.157 38.8491 127.273 38.6797 126.516 38.6759C125.508 38.6713 124.948 38.9586 124.428 39.748ZM100.159 41.0039C100.159 41.6511 99.8301 41.8841 98.7724 41.9855C97.5261 42.1052 97.3857 42.0059 97.3857 41.0039C97.3857 40.0018 97.5261 39.9025 98.7724 40.0222C99.8301 40.1236 100.159 40.3566 100.159 41.0039ZM71.2477 42.7015C71.7012 44.1713 71.6923 44.187 70.42 44.187C69.3631 44.187 69.189 44.055 69.4416 43.4443C69.611 43.0355 69.8457 42.3675 69.9639 41.9588C70.082 41.5501 70.3158 41.2161 70.484 41.2161C70.6516 41.2161 70.9955 41.8845 71.2477 42.7015ZM100.159 44.3992C100.159 45.0464 99.8301 45.2794 98.7724 45.3809C97.5261 45.5006 97.3857 45.4012 97.3857 44.3992C97.3857 43.3971 97.5261 43.2978 98.7724 43.4175C99.8301 43.519 100.159 43.752 100.159 44.3992Z" fill="#B2BFCD"/>
<path d="M40.639 38.703H41.919V41.2495H40.639V38.703Z" fill="#B2BFCD"/>
<path d="M43.199 46.7669V45.4937H45.759V46.7669H43.199Z" fill="#B2BFCD"/>
</g>
<defs>
<clipPath id="clip0_4463_152526">
<rect width="129.458" height="64" fill="white" transform="translate(0.0986328)"/>
</clipPath>
</defs>
</svg>
