<svg width="130" height="64" viewBox="0 0 130 64" fill="none" xmlns="http://www.w3.org/2000/svg">
<g clip-path="url(#clip0_4463_152533)">
<path fill-rule="evenodd" clip-rule="evenodd" d="M9.15343 50.7328L9.19274 50.8692C9.21443 50.857 9.25719 50.9607 9.34208 51.1987C9.55245 51.7884 9.84548 52.116 10.3831 52.3629C10.7345 52.5244 11.464 52.5694 14.5495 52.6199C18.2404 52.6804 18.2934 52.6849 18.5669 52.9585C18.8093 53.201 18.8439 53.3582 18.8439 54.2164C18.8439 54.7218 18.8779 55.0512 18.737 55.2657C18.4491 55.704 17.4308 55.6625 13.9 55.6625H9.5309V56.3384V57.0143L14.1302 56.9772L18.7294 56.9401L19.3346 56.6326C20.2633 56.1606 20.5114 55.5865 20.4637 54.0198C20.4314 52.9636 20.3878 52.7487 20.1334 52.3921C19.9722 52.1662 19.5887 51.865 19.2812 51.7229C18.7614 51.4826 18.4647 51.4602 15.052 51.4036C12.0711 51.3542 11.2133 51.3558 10.9676 50.9688C10.8587 50.7972 10.87 50.5493 10.87 50.1868C10.87 49.8316 10.8519 49.5859 10.9562 49.415C11.2047 49.0076 12.1488 49.0246 15.6914 48.996L20.0005 48.9611V48.3517V47.7422L15.4048 47.7781L10.8092 47.814L10.2675 48.1182C9.96965 48.2855 9.63048 48.5867 9.51386 48.7874C9.3357 49.094 9.22337 49.5589 9.15343 50.7328Z" fill="#B2BFCD"/>
<path d="M71.1917 11.5042C76.3839 14.7008 79.0997 18.115 79.0701 21.4089C79.0514 23.4932 77.8793 25.3727 75.7492 26.7342C73.7203 28.0309 69.3454 29.9404 65.3663 31.2657C60.5688 32.8638 51.039 35.3013 51.0467 34.9284C51.0483 34.8545 52.0288 32.987 53.2256 30.7785L55.4016 26.763L56.2968 26.6066C69.8617 24.2373 75.3309 21.5684 74.5294 17.7095C74.1894 16.0723 73.2001 14.5477 70.6615 11.749C70.1689 11.2061 69.8155 10.7618 69.8759 10.7618C69.9364 10.7618 70.5285 11.0959 71.1917 11.5042Z" fill="#B2BFCD"/>
<path d="M76.8193 0.534469C77.9957 -1.63719 78.9837 -3.50999 79.0152 -3.62705C79.0237 -3.65879 79.0583 -3.68582 79.1879 -3.70882H78.4353C78.2009 -3.65042 76.9252 -3.35339 75.6004 -3.0487C69.2037 -1.57756 63.7045 0.130485 59.2613 2.02629C55.7746 3.51397 53.8648 4.64452 52.6654 5.93045C49.3762 9.45728 50.9904 14.159 56.9625 18.4478C58.254 19.3752 60.1681 20.5432 60.2547 20.4567C60.2932 20.4181 59.8905 19.9323 59.3598 19.3768C54.9798 14.7924 54.3903 11.9031 57.3728 9.63725C59.77 7.81616 64.7968 6.22809 72.428 4.88083L74.6807 4.48305L76.8193 0.534469Z" fill="#B2BFCD"/>
<path fill-rule="evenodd" clip-rule="evenodd" d="M120.577 48.7912C120.459 48.5884 120.118 48.2855 119.82 48.1182L119.279 47.814L114.683 47.7781L110.087 47.7422V52.3716V57.001H110.94H111.792V54.8691V52.7371L114.3 52.7701L116.808 52.8029L117.901 54.902L118.995 57.001H119.837C120.3 57.001 120.679 56.9753 120.679 56.944C120.679 56.9126 120.213 56.0106 119.644 54.9394C119.075 53.8683 118.609 52.9418 118.609 52.8805C118.609 52.8192 118.813 52.731 119.061 52.6844C119.96 52.5159 120.465 52.1069 120.746 51.3204C120.823 51.105 120.866 51.002 120.889 50.9977L120.934 50.817C120.864 49.5888 120.753 49.093 120.577 48.7912ZM119.218 50.2576C119.218 49.6365 119.17 49.4512 118.962 49.2626C118.725 49.0481 118.449 49.0281 115.249 48.995L111.792 48.9593V50.2423V51.5253H115.184C118.432 51.5253 118.59 51.5146 118.897 51.273C119.183 51.0485 119.218 50.9373 119.218 50.2576Z" fill="#B2BFCD"/>
<path fill-rule="evenodd" clip-rule="evenodd" d="M27.7926 52.315C26.1182 54.8241 24.7483 56.9071 24.7483 56.9443C24.7483 56.9813 25.1426 56.9955 25.6246 56.9759L26.5009 56.9401L28.9118 53.2288C30.2378 51.1876 31.3665 49.5029 31.4201 49.485C31.4738 49.467 32.6034 51.1509 33.9305 53.2268L36.3432 57.001H37.2486C37.9419 57.001 38.1319 56.9653 38.06 56.8489C38.0082 56.7653 36.6344 54.6844 35.0069 52.2249L32.0479 47.7531H31.4424H30.8368L27.7926 52.315ZM43.1309 52.3771V57.001H43.8005H44.47V53.3505C44.47 51.3428 44.5111 49.7003 44.5613 49.7007C44.6116 49.701 46.8987 51.3422 49.6439 53.3476C53.7307 56.3332 54.707 56.9945 55.0309 56.9974L55.4266 57.001V52.3771V47.7531H54.6961H53.9657V51.2211C53.9657 53.1284 53.9394 54.689 53.9074 54.689C53.8752 54.689 51.7544 53.1284 49.1945 51.2211L44.5399 47.7531H43.8354H43.1309V52.3771ZM62.6092 47.8961C61.9605 48.0803 61.4354 48.5435 61.2118 49.1284C61.0401 49.5781 61.016 50.087 61.0488 52.5681C61.0857 55.3558 61.0992 55.499 61.366 55.9276C61.5365 56.2019 61.8666 56.4847 62.2181 56.6577C62.7803 56.9345 62.8776 56.9409 67.0831 56.9776L71.3744 57.0152V56.3388V55.6625H67.3233C63.8536 55.6625 63.2332 55.6353 63.0015 55.473C62.7348 55.2863 62.7309 55.2423 62.7309 52.389C62.7309 49.6015 62.7404 49.4859 62.987 49.2626C63.2264 49.046 63.5092 49.0285 67.3088 48.9958L71.3744 48.9606V48.3569V47.7531L67.2048 47.7641C64.8441 47.7703 62.8505 47.8276 62.6092 47.8961ZM76.3657 48.3615V48.97H78.8005H81.2353V52.9855V57.001H82.0874H82.9396V52.9855V48.97H85.3135H87.6874V48.3615V47.7531H82.0266H76.3657V48.3615ZM94.0179 47.8932C93.3666 48.0827 92.8434 48.545 92.6205 49.1284C92.4488 49.5781 92.4247 50.087 92.4575 52.5681C92.4944 55.3558 92.5079 55.499 92.7747 55.9276C92.9452 56.2019 93.2753 56.4847 93.6268 56.6577C94.1933 56.9366 94.2528 56.9401 98.4005 56.9401H102.6L103.209 56.6359C103.551 56.4651 103.938 56.1504 104.092 55.9182C104.358 55.5166 104.366 55.4165 104.366 52.4078C104.366 48.832 104.334 48.6892 103.406 48.1445L102.844 47.814L98.644 47.7916C96.0816 47.7778 94.2778 47.8175 94.0179 47.8932ZM102.55 49.3181C102.764 49.5821 102.783 49.8301 102.783 52.3906C102.783 55.0135 102.769 55.19 102.54 55.4191C102.306 55.6521 102.134 55.6625 98.4885 55.6625C95.2392 55.6625 94.641 55.6347 94.4102 55.473C94.1435 55.2863 94.1396 55.2423 94.1396 52.389C94.1396 49.3096 94.1442 49.2843 94.7483 49.0537C94.8487 49.0153 96.593 48.9945 98.6244 49.0074L102.318 49.0308L102.55 49.3181ZM24.9812 64.2145C24.875 64.296 24.7243 64.4823 24.6464 64.6285C24.4727 64.9545 24.4573 67.2033 24.6258 67.6461C24.8329 68.1905 25.3731 68.3174 27.4835 68.3174H29.3744V68.0161V67.7148L27.3353 67.6815L25.2961 67.6481L25.2615 66.2662C25.2387 65.3515 25.2746 64.8269 25.3678 64.7147C25.4773 64.5828 25.9377 64.5452 27.4414 64.5452C29.2932 64.5452 29.3744 64.535 29.3744 64.3019C29.3744 64.0678 29.2945 64.0586 27.2744 64.0624C25.8158 64.0651 25.1153 64.1116 24.9812 64.2145ZM39.0526 66.0833C38.3161 67.194 37.6953 68.151 37.673 68.2101C37.6506 68.2691 37.7875 68.3158 37.9773 68.314C38.2867 68.3108 38.4396 68.1288 39.4592 66.5496C40.0846 65.581 40.6355 64.7886 40.6836 64.7886C40.7315 64.7886 41.2794 65.5826 41.901 66.553C42.9451 68.1828 43.0592 68.3174 43.3974 68.3174H43.7635L43.5385 67.9713L43.4762 67.8756C41.2284 64.418 41.0225 64.1012 40.7801 64.0703C40.7556 64.0672 40.7308 64.067 40.7034 64.0667L40.6961 64.0667C40.4365 64.0642 40.1949 64.3607 39.0526 66.0833ZM52.1396 66.188V68.3174H52.4439C52.7397 68.3174 52.7483 68.2931 52.7483 67.4656V66.6138H54.4469C55.4325 66.6138 56.2701 66.5571 56.4422 66.4788C57.1585 66.1524 57.2151 64.7382 56.5328 64.2145C56.3986 64.1116 55.6982 64.0651 54.2396 64.0624L52.1396 64.0585V66.188ZM65.4092 66.188V68.3174H65.7744H66.1396V66.188V64.0585H65.7744H65.4092V66.188ZM74.5396 64.3019C74.5396 64.5282 74.6208 64.5452 75.6961 64.5452H76.8526V66.4313V68.3174H77.2179H77.5831V66.4313V64.5452H78.6787C79.6932 64.5452 79.7744 64.5272 79.7744 64.3019C79.7744 64.0661 79.6932 64.0585 77.157 64.0585C74.6208 64.0585 74.5396 64.0661 74.5396 64.3019ZM88.1324 66.188L86.7128 68.3174H87.082C87.4234 68.3174 87.5385 68.1838 88.6025 66.553C89.2357 65.5826 89.7956 64.7891 89.8467 64.7897C89.8977 64.7903 90.4301 65.5629 91.0295 66.5065C91.629 67.4502 92.1865 68.248 92.2685 68.2794C92.3505 68.3109 92.5267 68.3186 92.66 68.2966C92.8688 68.2621 92.7101 67.9654 91.516 66.1575C90.368 64.4197 90.0798 64.0585 89.8408 64.0585C89.6021 64.0585 89.3062 64.4273 88.1324 66.188ZM101.2 66.188V68.3174H103.392H105.583V68.0132V67.709H103.757H101.931V65.8838V64.0585H101.566H101.2V66.188ZM56.1326 64.6913C56.213 64.7716 56.2787 65.0618 56.2787 65.3362C56.2787 65.6106 56.213 65.9008 56.1326 65.9811C56.0337 66.08 55.4644 66.1271 54.3674 66.1271H52.7483V65.3362V64.5452H54.3674C55.4644 64.5452 56.0337 64.5923 56.1326 64.6913Z" fill="#B2BFCD"/>
</g>
<defs>
<clipPath id="clip0_4463_152533">
<rect width="129.458" height="64" fill="white" transform="translate(0.0839844)"/>
</clipPath>
</defs>
</svg>
