<svg width="130" height="64" viewBox="0 0 130 64" fill="none" xmlns="http://www.w3.org/2000/svg">
<g clip-path="url(#clip0_4463_152541)">
<g clip-path="url(#clip1_4463_152541)">
<path d="M75.0923 39.6434C74.912 40.2483 74.6709 40.8229 74.4005 41.337C74.3104 41.5184 74.2202 41.6697 74.1295 41.8511C73.6484 42.5466 72.8062 43.0305 71.9036 43.0305C71.0919 43.0305 70.3398 42.6676 69.8587 42.093C69.8282 42.0627 69.7984 42.0325 69.7685 42.0023C69.257 41.4277 68.5353 41.0648 67.7229 41.0648C67.5122 41.0648 67.332 41.095 67.1517 41.1253V46.7805C66.55 46.9014 65.8881 46.9619 65.2565 46.9619C59.5417 46.9619 54.9397 42.3047 54.9397 36.589C54.9397 30.8734 59.5116 26.1859 65.2267 26.1859C66.3095 26.1859 67.3618 26.3674 68.3545 26.6698L65.2864 29.7544L67.1517 31.6294L73.7087 38.2221L73.9791 38.4943L75.0923 39.6434Z" fill="#B2BFCD"/>
<path d="M1.28003 39.4922L2.24253 39.0084C2.75387 40.1878 3.92692 40.8229 5.43084 40.8229C7.05507 40.8229 8.28825 39.9761 8.28825 38.5245C8.28825 36.9519 6.8746 36.6495 5.3406 36.3169C3.56598 35.9238 1.55073 35.4096 1.55073 33.0508C1.55073 31.2061 3.2652 29.7847 5.31052 29.7847C6.99491 29.7847 8.52892 30.6012 9.16056 32.1435L8.22814 32.6274C7.68669 31.4782 6.66405 30.8432 5.28045 30.8432C3.89685 30.8432 2.69371 31.7504 2.69371 32.9903C2.69371 34.5629 4.13747 34.8653 5.70154 35.198C7.47617 35.5911 9.46134 36.1052 9.46134 38.4943C9.40117 40.5809 7.65661 41.9116 5.43084 41.9116C3.56598 41.9116 1.94175 41.0648 1.28003 39.4922Z" fill="#B2BFCD"/>
<path d="M11.4165 41.7906V29.9661H12.5294V35.3794H19.5076V29.9661H20.6205V41.7906H19.5076V36.4076H12.5294V41.7603H11.4165V41.7906Z" fill="#B2BFCD"/>
<path d="M24.6207 29.9661V41.7906H23.5078V29.9661H24.6207Z" fill="#B2BFCD"/>
<path d="M26.6362 41.7906L28.3206 31.0548C28.471 30.2081 29.0725 29.7545 29.8245 29.7545C30.4862 29.7545 31.0878 30.0871 31.2983 30.8432L33.825 39.8249C33.8851 40.097 33.9452 40.1878 34.0956 40.1878C34.246 40.1878 34.3062 40.0668 34.3663 39.8249L36.8929 30.8734C37.1035 30.1174 37.7051 29.7545 38.3668 29.7545C39.0887 29.7545 39.6902 30.2081 39.8406 31.0851L41.3746 41.7301H40.2617L38.8179 31.3875C38.7578 30.9944 38.6676 30.7524 38.3367 30.7524C38.0961 30.7524 37.9156 30.9641 37.8253 31.327L35.2085 40.339C35.0582 40.8834 34.607 41.1858 34.0956 41.1858C33.6144 41.1858 33.1331 40.9136 32.9827 40.3693L30.3659 31.2968C30.2456 30.9339 30.1253 30.7524 29.8847 30.7524C29.644 30.7524 29.4335 30.9641 29.3733 31.3875L27.7792 41.7603H26.6362V41.7906Z" fill="#B2BFCD"/>
<path d="M45.5554 31.2061C45.8562 30.2383 46.548 29.7847 47.4504 29.7847C48.3226 29.7847 49.0445 30.2383 49.3453 31.2061L52.6539 41.7906H51.5109L50.5183 38.4943L44.4425 38.5245L43.3898 41.7906H42.2468L45.5554 31.2061ZM44.7132 37.4358H50.1574L48.3527 31.5387C48.2023 31.0548 47.9015 30.8129 47.4504 30.8129C46.9691 30.8129 46.6984 31.0548 46.548 31.5387L44.7132 37.4358Z" fill="#B2BFCD"/>
<path d="M77.3784 35.8633C77.3784 32.4762 80.0251 29.7847 83.2436 29.7847C85.2289 29.7847 86.973 30.7827 87.9054 32.4157L87.0035 32.9601C86.2215 31.6597 84.8074 30.8432 83.2436 30.8432C80.687 30.8432 78.5513 33.0508 78.5513 35.8633C78.5513 38.706 80.6566 40.9136 83.2436 40.9136C84.8074 40.9136 86.2215 40.1273 87.0035 38.8269L87.9054 39.3713C86.973 41.0043 85.2289 42.0023 83.2436 42.0023C80.0251 41.9721 77.3784 39.2806 77.3784 35.8633Z" fill="#B2BFCD"/>
<path d="M91.2742 31.2061C91.575 30.2383 92.2669 29.7847 93.1694 29.7847C94.0719 29.7847 94.7637 30.2383 95.0639 31.2061L98.3726 41.7906H97.2301L96.2374 38.4943L90.1616 38.5245L89.1086 41.7906H87.9656L91.2742 31.2061ZM90.432 37.4358H95.8763L94.0719 31.5387C93.9215 31.0548 93.6206 30.8129 93.1694 30.8129C92.6883 30.8129 92.4173 31.0548 92.2669 31.5387L90.432 37.4358Z" fill="#B2BFCD"/>
<path d="M100.057 41.7906V29.9661H103.456C106.464 29.9661 108.509 31.2968 108.509 34.0487C108.509 36.8914 106.374 38.1616 103.486 38.1616H101.17V41.8208H100.057V41.7906ZM101.17 31.0246V37.0729H103.456C105.622 37.0729 107.336 36.1959 107.336 34.0185C107.336 31.9318 105.742 30.9943 103.456 30.9943H101.17V31.0246Z" fill="#B2BFCD"/>
<path d="M111.186 29.9661V41.7906H110.073V29.9661H111.186Z" fill="#B2BFCD"/>
<path d="M120.931 31.0246H117.172V41.7906H116.059V31.0246H112.329V29.9661H120.931V31.0246Z" fill="#B2BFCD"/>
<path d="M123.489 31.2061C123.789 30.2383 124.481 29.7847 125.383 29.7847C126.286 29.7847 126.977 30.2383 127.278 31.2061L130.587 41.7906H129.414L128.421 38.4942L122.345 38.5245L121.323 41.8208H120.18L123.489 31.2061ZM122.646 37.4358H128.09L126.286 31.5387C126.135 31.0548 125.834 30.8129 125.383 30.8129C124.902 30.8129 124.632 31.0548 124.481 31.5387L122.646 37.4358Z" fill="#B2BFCD"/>
</g>
</g>
<defs>
<clipPath id="clip0_4463_152541">
<rect width="129.458" height="64" fill="white"/>
</clipPath>
<clipPath id="clip1_4463_152541">
<rect width="138.24" height="20.776" fill="white" transform="translate(1.28003 26.1859)"/>
</clipPath>
</defs>
</svg>
