<svg width="101" height="100" viewBox="0 0 101 100" fill="none" xmlns="http://www.w3.org/2000/svg">
<path d="M38.6567 35.5V23.9216C38.6567 22.3081 39.9648 21 41.5784 21C43.1919 21 44.5 19.6919 44.5 18.0784V14C44.5 11.2386 42.2614 9 39.5 9H29H26.5M61.9403 45.6269H72.4627C75.2241 45.6269 77.4627 43.3883 77.4627 40.6269V28.5373C77.4627 25.7759 79.7013 23.5373 82.4627 23.5373H90L61.9403 45.6269ZM61.9403 56.9702H81.4179C84.1793 56.9702 86.4179 59.2087 86.4179 61.9702V76.0746L61.9403 56.9702ZM52.3881 65.3284H60C62.7614 65.3284 65 67.5669 65 70.3284V90L52.3881 65.3284ZM30.2985 45.6269H15C12.2386 45.6269 10 43.3883 10 40.6269V18.1642L30.2985 45.6269ZM30.2985 55.1791H23.9552C21.1938 55.1791 18.9552 57.4177 18.9552 60.1791V78.2388C18.9552 81.0002 16.7166 83.2388 13.9552 83.2388H10L30.2985 55.1791ZM38.6567 65.3284V71.8955C38.6567 74.2036 36.7857 76.0746 34.4776 76.0746C32.1696 76.0746 30.2985 77.9457 30.2985 80.2537V85.0299L38.6567 65.3284ZM55.5 35.5V5.5V35.5Z" stroke="#ABCDED" stroke-width="3.5"/>
<path d="M10 21C12.7614 21 15 18.7614 15 16C15 13.2386 12.7614 11 10 11C7.23858 11 5 13.2386 5 16C5 18.7614 7.23858 21 10 21Z" fill="#60A0DC"/>
<path d="M55.5 12C58.2614 12 60.5 9.76142 60.5 7C60.5 4.23858 58.2614 2 55.5 2C52.7386 2 50.5 4.23858 50.5 7C50.5 9.76142 52.7386 12 55.5 12Z" fill="#60A0DC"/>
<path d="M25 14C27.7614 14 30 11.7614 30 9C30 6.23858 27.7614 4 25 4C22.2386 4 20 6.23858 20 9C20 11.7614 22.2386 14 25 14Z" fill="#60A0DC"/>
<path d="M90 28C92.7614 28 95 25.7614 95 23C95 20.2386 92.7614 18 90 18C87.2386 18 85 20.2386 85 23C85 25.7614 87.2386 28 90 28Z" fill="#60A0DC"/>
<path d="M86.5 81C89.2614 81 91.5 78.7614 91.5 76C91.5 73.2386 89.2614 71 86.5 71C83.7386 71 81.5 73.2386 81.5 76C81.5 78.7614 83.7386 81 86.5 81Z" fill="#60A0DC"/>
<path d="M65 95C67.7614 95 70 92.7614 70 90C70 87.2386 67.7614 85 65 85C62.2386 85 60 87.2386 60 90C60 92.7614 62.2386 95 65 95Z" fill="#60A0DC"/>
<path d="M30.5 93C33.2614 93 35.5 90.7614 35.5 88C35.5 85.2386 33.2614 83 30.5 83C27.7386 83 25.5 85.2386 25.5 88C25.5 90.7614 27.7386 93 30.5 93Z" fill="#60A0DC"/>
<path d="M6 88C8.76142 88 11 85.7614 11 83C11 80.2386 8.76142 78 6 78C3.23858 78 1 80.2386 1 83C1 85.7614 3.23858 88 6 88Z" fill="#60A0DC"/>
<path d="M46.1461 27.0716L29.6756 33.2074C29.2835 33.3493 29 33.7507 29 34.1662V53.5962C29 57.6188 31.4227 60.9443 34.6777 63.8384C37.9328 66.7326 42.0807 69.2829 45.921 71.8277C46.2607 72.0574 46.7392 72.0574 47.079 71.8277C50.9192 69.2831 55.0673 66.7326 58.3223 63.8384C61.5774 60.9423 64 57.6187 64 53.5942V34.1641C64 33.7487 63.7165 33.3472 63.3244 33.2054L46.8539 27.0696C46.5844 26.9518 46.299 27.0057 46.1461 27.0696V27.0716ZM46.5 39.7907C43.6671 39.7907 41.3529 42.0896 41.3529 44.9038V46.9491H40.227C39.7204 46.997 39.2921 47.4664 39.2941 47.9717V56.1528C39.2941 56.6881 39.7847 57.1754 40.3235 57.1754H52.6765C53.2153 57.1754 53.7059 56.6881 53.7059 56.1528V47.9717C53.7059 47.4364 53.2153 46.9491 52.6765 46.9491H51.6471V44.9038C51.6471 42.0896 49.3329 39.7907 46.5 39.7907ZM46.5 41.8359C48.2291 41.8359 49.5882 43.1861 49.5882 44.9038V46.9491H43.4118V44.9038C43.4118 43.1861 44.7709 41.8359 46.5 41.8359ZM41.3529 48.9944H51.6471V55.1302H41.3529V48.9944Z" fill="#60A0DC"/>
<path fill-rule="evenodd" clip-rule="evenodd" d="M41.3529 44.9038C41.3529 42.0896 43.6671 39.7907 46.5 39.7907C49.3329 39.7907 51.6471 42.0896 51.6471 44.9038V46.9491H52.6765C53.2153 46.9491 53.7059 47.4364 53.7059 47.9717V56.1528C53.7059 56.6881 53.2153 57.1754 52.6765 57.1754H40.3235C39.7847 57.1754 39.2941 56.6881 39.2941 56.1528V47.9717C39.2921 47.4664 39.7204 46.997 40.227 46.9491H41.3529V44.9038Z" fill="#60A0DC"/>
<path d="M46.5 41.8359C48.2291 41.8359 49.5882 43.1861 49.5882 44.9038V46.9491H43.4118V44.9038C43.4118 43.1861 44.7709 41.8359 46.5 41.8359Z" fill="#60A0DC"/>
<path d="M41.3529 48.9944H51.6471V55.1302H41.3529V48.9944Z" fill="#60A0DC"/>
<path fill-rule="evenodd" clip-rule="evenodd" d="M41.3529 44.9038C41.3529 42.0896 43.6671 39.7906 46.5 39.7906C49.3329 39.7906 51.6471 42.0896 51.6471 44.9038V46.9491H52.6765C53.2153 46.9491 53.7059 47.4364 53.7059 47.9717V56.1528C53.7059 56.6881 53.2153 57.1754 52.6765 57.1754H40.3235C39.7847 57.1754 39.2941 56.6881 39.2941 56.1528V47.9717C39.2921 47.4664 39.7204 46.997 40.227 46.9491H41.3529V44.9038ZM49.5882 44.9038C49.5882 43.1861 48.2291 41.8359 46.5 41.8359C44.7709 41.8359 43.4118 43.1861 43.4118 44.9038V46.9491H49.5882V44.9038Z" fill="#ABCDED"/>
</svg>
