<svg width="101" height="100" viewBox="0 0 101 100" fill="none" xmlns="http://www.w3.org/2000/svg">
<path fill-rule="evenodd" clip-rule="evenodd" d="M71.6514 65.1549C73.8172 62.8683 76.8705 61.4343 80.2671 61.4343L80.2679 61.4352C86.8311 61.4352 92.1488 66.7618 92.1488 73.3357C92.1488 79.906 86.8311 85.2325 80.2679 85.2325C73.7048 85.2325 68.3871 79.9023 68.3871 73.332C68.3871 71.1077 69.008 69.0298 70.0708 67.2482L64.1029 62.9789L65.9355 61.0648L71.6514 65.1549ZM66.6002 38.4495L73.3386 33.6717C75.1246 35.5887 77.663 36.7959 80.4862 36.7959C85.8989 36.7959 90.2783 32.4096 90.2783 26.9951C90.2783 21.5807 85.8992 17.1943 80.4936 17.1943C75.0919 17.1943 70.709 21.5807 70.709 26.9951C70.709 28.634 71.1144 30.1778 71.8266 31.5351L65.0041 36.3715L66.6002 38.4495ZM49.4786 28.7292L49.4895 22.1296C53.35 21.5077 56.3011 18.1639 56.3011 14.1215C56.3011 9.63636 52.6707 6 48.193 6C43.7152 6 40.0849 9.63636 40.0849 14.1215C40.0849 18.153 43.0249 21.4894 46.8708 22.1259L46.8599 28.7329L49.4786 28.7292ZM32.5359 35.1385L27.7149 31.0924C28.6974 29.545 29.2744 27.7158 29.2744 25.744C29.2744 20.2273 24.8114 15.7569 19.3037 15.7569C13.7961 15.7569 9.33301 20.2273 9.33301 25.744C9.33301 31.2607 13.7961 35.7312 19.3037 35.7312C21.9005 35.7312 24.2563 34.7288 26.0312 33.1008L30.7829 37.0884L32.5359 35.1385ZM31.0532 61.8193L24.2891 67.1568C22.5579 65.4849 20.2094 64.4533 17.6164 64.4533C12.3095 64.4606 8 68.7775 8 74.1005C8 79.4234 12.3097 83.7402 17.6238 83.7402C22.9379 83.7402 27.2477 79.4234 27.2477 74.1005C27.2477 72.3189 26.7583 70.6544 25.9146 69.224L32.9197 63.6927L31.0532 61.8193Z" fill="#60A0DC"/>
<path fill-rule="evenodd" clip-rule="evenodd" d="M70.7783 48.0261C69.8166 37.2842 60.9694 28.6254 50.1992 27.8795C49.1417 27.805 48.109 27.805 47.0479 27.8795C36.2778 28.6212 27.43 37.2842 26.4688 48.0261C25.8478 54.9711 28.41 61.6607 33.4954 66.3803C35.8875 68.5984 37.3876 71.597 37.7243 74.7664C37.7722 75.2175 37.7966 75.6721 37.7966 76.1284V84.7732C37.7966 87.5554 39.8904 89.8622 42.5874 90.1921C43.4213 92.4385 45.7316 94.44 48.6238 94.44C51.5161 94.44 53.8264 92.4385 54.6603 90.1921C57.3574 89.8621 59.4511 87.559 59.4511 84.7732V76.1284C59.4511 75.6722 59.4755 75.2177 59.5235 74.7666C59.8603 71.5989 61.3604 68.5979 63.7522 66.3803C68.8377 61.6604 71.3993 54.9706 70.7783 48.0261ZM55.8164 77.492V78.8618H41.4296V77.492H55.8164ZM41.4297 82.9575V81.5877H55.8165V82.9575H41.4297ZM48.6231 90.8074C47.5798 90.8074 46.6819 90.1153 46.2206 89.3772H51.0221C50.5644 90.1154 49.6664 90.8074 48.6231 90.8074ZM53.9924 86.5985H53.1762C53.0343 86.5985 52.8959 86.6198 52.7646 86.6482H44.4852C44.3539 86.6163 44.2155 86.5985 44.0736 86.5985H43.2538C42.5796 86.5985 41.9976 86.2294 41.6817 85.6829H55.5643C55.2484 86.2294 54.6667 86.5985 53.9924 86.5985ZM53.0981 51.9703C53.4142 51.4727 53.9703 51.1422 54.6028 51.1422C55.2149 51.1422 55.7578 51.4541 56.0788 51.928C55.7578 51.4541 55.2149 51.1422 54.6028 51.1422C53.9703 51.1422 53.4142 51.4727 53.0981 51.9703Z" fill="#ABCDED"/>
<path fill-rule="evenodd" clip-rule="evenodd" d="M55.8875 74.7665L59.5235 74.7667C59.4755 75.2178 59.4511 75.6723 59.4511 76.1285V84.7733C59.4511 87.5591 57.3574 89.8622 54.6603 90.1922C53.8264 92.4387 51.5161 94.4401 48.6238 94.4401C45.7316 94.4401 43.4214 92.4387 42.5874 90.1922C39.8904 89.8623 37.7966 87.5555 37.7966 84.7733V76.1285C37.7966 75.6722 37.7722 75.2176 37.7243 74.7665H41.3588H44.4285L47.1504 74.7667H50.0923L52.8213 74.7665H55.8875Z" fill="#60A0DC"/>
<path fill-rule="evenodd" clip-rule="evenodd" d="M49.8841 11.0913C49.9462 10.1292 49.1024 9.34265 48.1383 9.34265C47.1777 9.34265 46.3341 10.1293 46.3925 11.0913C46.4181 11.5047 46.5386 12.3315 46.6044 12.7412C46.7358 13.5534 47.291 14.2777 48.1383 14.2777C48.9856 14.2777 49.4896 13.6083 49.6723 12.7412C49.7563 12.3315 49.8585 11.5047 49.8841 11.0913ZM43.8833 17.0434L43.6423 18.4262L52.6379 18.4299L52.3969 17.0543C52.1668 15.8508 51.104 14.9398 49.8257 14.9398H46.4509C45.1799 14.9398 44.1134 15.8471 43.8833 17.0434ZM21.3811 21.8545C21.4542 20.7095 20.4535 19.7803 19.3103 19.7803C18.167 19.7803 17.1664 20.7094 17.2357 21.8545C17.2686 22.3447 17.4074 23.3251 17.4878 23.8117C17.6412 24.7775 18.3022 25.6335 19.3066 25.6335C20.3146 25.6335 20.9136 24.8397 21.1291 23.8117C21.2313 23.3288 21.3482 22.3484 21.3811 21.8545ZM14.2555 28.9189L13.9706 30.5579H24.65L24.3614 28.9262C24.0912 27.5031 22.8275 26.4203 21.3118 26.4203H17.3052C15.7931 26.4203 14.5294 27.4995 14.2555 28.9189ZM80.4935 21.1486C81.6878 21.1486 82.7324 22.1217 82.6593 23.3143C82.6265 23.8301 82.5023 24.8544 82.3964 25.3593C82.1699 26.4311 81.5454 27.2653 80.4935 27.2653C79.4453 27.2653 78.755 26.369 78.5943 25.3593C78.5103 24.8508 78.3643 23.8265 78.3314 23.3143C78.2547 22.1217 79.2993 21.1486 80.4935 21.1486ZM75.216 30.6965C75.5009 29.2112 76.8231 28.0881 78.4007 28.0881H82.5827C84.1678 28.0881 85.4863 29.2184 85.7674 30.7074L86.0669 32.4122L74.9163 32.4085L75.216 30.6965ZM82.7358 68.695C82.8235 67.3305 81.6328 66.222 80.2669 66.222C78.9046 66.222 77.7139 67.3305 77.8016 68.695C77.8381 69.284 78.0061 70.451 78.1011 71.0291C78.2837 72.1815 79.069 73.2021 80.2669 73.2021C81.4648 73.2021 82.1807 72.2546 82.4363 71.0291C82.5569 70.451 82.6993 69.2804 82.7358 68.695ZM74.2442 77.113L73.9046 79.0665H86.6255L86.2859 77.124C85.9645 75.4265 84.4597 74.1351 82.6518 74.1351H77.8783C76.0777 74.1351 74.5693 75.4192 74.2442 77.113ZM17.6229 68.1577C18.777 68.1577 19.785 69.0978 19.712 70.2502C19.6792 70.7478 19.5623 71.7391 19.46 72.2258C19.2409 73.2611 18.6346 74.0658 17.623 74.0658C16.6076 74.0658 15.9429 73.1988 15.7859 72.2258C15.7055 71.7355 15.5631 70.7478 15.5302 70.2502C15.4608 69.0978 16.4687 68.1577 17.6229 68.1577ZM12.2394 79.0298L12.5279 77.3763C12.8055 75.9423 14.0765 74.8557 15.6032 74.8557H19.6426C21.1729 74.8557 22.4476 75.9459 22.7179 77.3836L23.0064 79.0298H12.2394Z" fill="#ABCDED"/>
</svg>
