<svg width="24" height="24" viewBox="0 0 24 24" fill="none" xmlns="http://www.w3.org/2000/svg">
<path d="M10.9725 2.3999C9.64698 2.3999 8.57246 3.47442 8.57246 4.7999V14.3999C8.57246 15.7254 9.64698 16.7999 10.9725 16.7999H18.1725C19.4979 16.7999 20.5725 15.7254 20.5725 14.3999V7.69696C20.5725 7.06044 20.3196 6.44999 19.8695 5.9999L16.9725 3.10285C16.5224 2.65276 15.9119 2.3999 15.2754 2.3999H10.9725Z" fill="#60A0DC"/>
<path d="M3.77246 9.5999C3.77246 8.27442 4.84698 7.1999 6.17246 7.1999V19.1999H15.7725C15.7725 20.5254 14.6979 21.5999 13.3725 21.5999H6.17246C4.84698 21.5999 3.77246 20.5254 3.77246 19.1999V9.5999Z" fill="#60A0DC"/>
</svg>
