<svg width="101" height="100" viewBox="0 0 101 100" fill="none" xmlns="http://www.w3.org/2000/svg">
<path fill-rule="evenodd" clip-rule="evenodd" d="M57.25 5.5V35.1303C57.25 35.4626 57.2255 35.7944 57.1766 36.123L55.9865 44.1269L61.9033 43.8769H72.4627C74.2576 43.8769 75.7127 42.4218 75.7127 40.6269V28.5373C75.7127 24.8094 78.7348 21.7873 82.4627 21.7873H90V25.2873H82.4627C80.6678 25.2873 79.2127 26.7424 79.2127 28.5373V40.6269C79.2127 44.3548 76.1906 47.3769 72.4627 47.3769H61.9772L55.4624 47.6521L54.401 54.7906L61.9898 55.2202H81.4179C85.1458 55.2202 88.1679 58.2422 88.1679 61.9702V76.0746H84.6679V61.9702C84.6679 60.1752 83.2128 58.7202 81.4179 58.7202H61.8908L54.1381 58.2813V60.3284C54.1381 62.1233 55.5931 63.5784 57.3881 63.5784H60C63.7279 63.5784 66.75 66.6004 66.75 70.3284V90H63.25V70.3284C63.25 68.5334 61.7949 67.0784 60 67.0784H57.3881C53.6601 67.0784 50.6381 64.0563 50.6381 60.3284V58.0832L41.5098 57.5665L40.4067 65.4502V71.8955C40.4067 75.1701 37.7522 77.8246 34.4776 77.8246C33.1361 77.8246 32.0485 78.9122 32.0485 80.2537V85.0299H28.5485V80.2537C28.5485 76.9792 31.2031 74.3246 34.4776 74.3246C35.8192 74.3246 36.9067 73.2371 36.9067 71.8955V65.2065L38.0035 57.368L30.249 56.9291H23.9552C22.1603 56.9291 20.7052 58.3842 20.7052 60.1791V78.2388C20.7052 81.9667 17.6831 84.9888 13.9552 84.9888H10V81.4888H13.9552C15.7501 81.4888 17.2052 80.0337 17.2052 78.2388V60.1791C17.2052 56.4512 20.2273 53.4291 23.9552 53.4291H30.348L38.1227 53.8692L37.6909 47.3664L30.301 47.3769H15C11.2721 47.3769 8.25 44.3548 8.25 40.6269V18.1642H11.75V40.6269C11.75 42.4218 13.2051 43.8769 15 43.8769H30.2985L37.4585 43.8668L36.9067 35.558V23.9216C36.9067 21.3416 38.9983 19.25 41.5784 19.25C42.2254 19.25 42.75 18.7254 42.75 18.0784V14C42.75 12.2051 41.2949 10.75 39.5 10.75H26.5V7.25H39.5C43.2279 7.25 46.25 10.2721 46.25 14V18.0784C46.25 20.6584 44.1584 22.75 41.5784 22.75C40.9313 22.75 40.4067 23.2746 40.4067 23.9216V35.4419L40.9686 43.903L52.4404 44.1782L53.7147 35.6083C53.7382 35.4501 53.75 35.2903 53.75 35.1303V5.5H57.25ZM51.9217 47.6667L41.2014 47.4096L41.6436 54.0685L50.892 54.592L51.9217 47.6667Z" fill="#96C3ED"/>
<circle cx="10" cy="16" r="5" fill="#5596DC"/>
<circle cx="55.5" cy="7" r="5" fill="#5596DC"/>
<circle cx="25" cy="9" r="5" fill="#5596DC"/>
<circle cx="90" cy="23" r="5" fill="#5596DC"/>
<circle cx="86.5" cy="76" r="5" fill="#5596DC"/>
<circle cx="65" cy="90" r="5" fill="#5596DC"/>
<circle cx="30.5" cy="88" r="5" fill="#5596DC"/>
<circle cx="6" cy="83" r="5" fill="#5596DC"/>
<path d="M46.1461 27.0716L29.6756 33.2074C29.2835 33.3493 29 33.7507 29 34.1662V53.5962C29 57.6188 31.4227 60.9443 34.6777 63.8384C37.9328 66.7326 42.0807 69.2829 45.921 71.8277C46.2607 72.0574 46.7392 72.0574 47.079 71.8277C50.9192 69.2831 55.0673 66.7326 58.3223 63.8384C61.5774 60.9423 64 57.6187 64 53.5942V34.1641C64 33.7487 63.7165 33.3472 63.3244 33.2054L46.8539 27.0696C46.5844 26.9518 46.299 27.0057 46.1461 27.0696V27.0716ZM46.5 39.7907C43.6671 39.7907 41.3529 42.0896 41.3529 44.9038V46.9491H40.227C39.7204 46.997 39.2921 47.4664 39.2941 47.9717V56.1528C39.2941 56.6881 39.7847 57.1754 40.3235 57.1754H52.6765C53.2153 57.1754 53.7059 56.6881 53.7059 56.1528V47.9717C53.7059 47.4364 53.2153 46.9491 52.6765 46.9491H51.6471V44.9038C51.6471 42.0896 49.3329 39.7907 46.5 39.7907ZM46.5 41.8359C48.2291 41.8359 49.5882 43.1861 49.5882 44.9038V46.9491H43.4118V44.9038C43.4118 43.1861 44.7709 41.8359 46.5 41.8359ZM41.3529 48.9944H51.6471V55.1302H41.3529V48.9944Z" fill="#5596DC"/>
<path fill-rule="evenodd" clip-rule="evenodd" d="M41.3529 44.9038C41.3529 42.0896 43.6671 39.7907 46.5 39.7907C49.3329 39.7907 51.6471 42.0896 51.6471 44.9038V46.9491H52.6765C53.2153 46.9491 53.7059 47.4364 53.7059 47.9717V56.1528C53.7059 56.6881 53.2153 57.1754 52.6765 57.1754H40.3235C39.7847 57.1754 39.2941 56.6881 39.2941 56.1528V47.9717C39.2921 47.4664 39.7204 46.997 40.227 46.9491H41.3529V44.9038Z" fill="#5596DC"/>
<path d="M46.5 41.8359C48.2291 41.8359 49.5882 43.1861 49.5882 44.9038V46.9491H43.4118V44.9038C43.4118 43.1861 44.7709 41.8359 46.5 41.8359Z" fill="#5596DC"/>
<path d="M41.3529 48.9944H51.6471V55.1302H41.3529V48.9944Z" fill="#5596DC"/>
<path fill-rule="evenodd" clip-rule="evenodd" d="M41.3529 44.9038C41.3529 42.0896 43.6671 39.7907 46.5 39.7907C49.3329 39.7907 51.6471 42.0896 51.6471 44.9038V46.9491H52.6765C53.2153 46.9491 53.7059 47.4364 53.7059 47.9717V56.1528C53.7059 56.6881 53.2153 57.1754 52.6765 57.1754H40.3235C39.7847 57.1754 39.2941 56.6881 39.2941 56.1528V47.9717C39.2921 47.4664 39.7204 46.997 40.227 46.9491H41.3529V44.9038ZM49.5882 44.9038C49.5882 43.1861 48.2291 41.8359 46.5 41.8359C44.7709 41.8359 43.4118 43.1861 43.4118 44.9038V46.9491H49.5882V44.9038Z" fill="#96C3ED"/>
</svg>
