<svg width="42" height="42" viewBox="0 0 42 42" fill="none" xmlns="http://www.w3.org/2000/svg">
<path d="M3.5 7V31.5C3.5 33.4129 5.08714 35 7 35H18.5288C18.7095 35.5112 19.0441 35.9539 19.4866 36.2672C19.9291 36.5806 20.4578 36.7492 21 36.75C21.5422 36.7492 22.0709 36.5806 22.5134 36.2672C22.9559 35.9539 23.2905 35.5112 23.4712 35H35C36.9129 35 38.5 33.4129 38.5 31.5V7H26.25C24.1309 7 22.2872 8.00843 21 9.51221C19.7128 8.00843 17.8691 7 15.75 7H3.5ZM7 10.5H15.75C17.7042 10.5 19.25 12.0458 19.25 14H22.75C22.75 12.0458 24.2958 10.5 26.25 10.5H35V31.5H7V10.5ZM26.25 15.75V19.25H29.75V15.75H26.25ZM26.25 21V28H29.75V21H26.25Z" fill="#ABCDED"/>
<path fill-rule="evenodd" clip-rule="evenodd" d="M7 10.5H15.75C17.7042 10.5 19.25 12.0458 19.25 14H22.75C22.75 12.0458 24.2958 10.5 26.25 10.5H35V31.5H7V10.5ZM26.25 19.25V15.75H29.75V19.25H26.25ZM26.25 28V21H29.75V28H26.25Z" fill="#ABCDED"/>
<path fill-rule="evenodd" clip-rule="evenodd" d="M26.25 19.25V15.75H29.75V19.25H26.25ZM26.25 28V21H29.75V28H26.25Z" fill="#60A0DC"/>
</svg>
