<svg width="101" height="100" viewBox="0 0 101 100" fill="none" xmlns="http://www.w3.org/2000/svg">
<path d="M88.6257 12.6776C88.7256 13.0288 96.5088 42.6674 64.5797 63.1162C58.8425 66.3169 55.6792 67.9278 50.1247 70.4998C48.8169 71.0332 47.497 71.5606 46.1039 72.0575L44.9882 72.4599L38.0592 65.5309L34.4896 61.9613L27.5606 55.0323L27.963 53.9227C28.4629 52.5266 28.9842 51.2067 29.5177 49.8928C31.8335 44.3242 33.4548 40.9634 36.9009 35.4373C57.3399 3.50477 86.9766 11.2906 87.3332 11.3851L88.3422 11.6686L88.6257 12.6776Z" fill="#ABCDED"/>
<path fill-rule="evenodd" clip-rule="evenodd" d="M64.5797 63.1162L65.6741 73.7642C65.8082 75.1299 64.9459 76.7795 63.7387 77.4379L48.9331 85.5006C47.732 86.159 46.979 85.6012 47.2564 84.2569L50.1247 70.4998C55.6792 67.9278 58.8425 66.317 64.5797 63.1162ZM36.9009 35.4373L26.2438 34.34C24.8842 34.1997 23.2321 35.0716 22.5766 36.2695L14.5169 51.0844C13.8554 52.2885 14.4224 53.0445 15.7637 52.7641L29.5177 49.8928C31.8335 44.3242 33.4548 40.9634 36.9009 35.4373ZM34.4896 61.9613C31.679 65.534 30.2157 68.308 30.9687 69.061C31.7125 69.8048 34.4866 68.3416 38.0592 65.5309L40.9272 63.107C42.1374 62.0309 43.3903 60.8756 44.6615 59.6044C51.0509 53.215 55.282 47.0756 54.1114 45.905C52.9378 44.7314 46.8044 48.9625 40.412 55.3549C39.1408 56.6261 37.9855 57.879 36.9094 59.0892L34.4896 61.9613Z" fill="#60A0DC"/>
<path d="M38.0157 70.6146L37.6986 70.2976C34.1869 72.6997 30.8124 74.0319 28.398 71.6175C25.9745 69.194 27.3066 65.8195 29.7088 62.3077L29.3948 61.9938L19.0181 64.6824C17.6951 65.0238 16.3813 66.4048 16.0917 67.7491L12.3116 85.7713C12.028 87.1095 12.8968 87.9723 14.235 87.6947L32.2572 83.9146C33.5986 83.628 34.9733 82.3142 35.3208 80.9851L38.0157 70.6146Z" fill="#60A0DC"/>
<path d="M61.4769 27.3722C58.4649 30.3842 58.4649 35.2686 61.4769 38.2806C64.4888 41.2926 69.3733 41.2926 72.3853 38.2806C75.3972 35.2686 75.3997 30.3817 72.3877 27.3698C69.3757 24.3578 64.4888 24.3602 61.4769 27.3722Z" fill="#60A0DC"/>
<path d="M48.2547 10.0126C48.2547 10.9791 49.0382 11.7626 50.0047 11.7626C50.9712 11.7626 51.7547 10.9791 51.7547 10.0126H48.2547ZM51.7547 3.01257C51.7547 2.04607 50.9712 1.26257 50.0047 1.26257C49.0382 1.26257 48.2547 2.04607 48.2547 3.01257H51.7547ZM51.7547 10.0126V3.01257H48.2547V10.0126H51.7547Z" fill="#60A0DC"/>
<path d="M53.5 8.25C54.4665 8.25 55.25 7.4665 55.25 6.5C55.25 5.5335 54.4665 4.75 53.5 4.75V8.25ZM46.5 4.75C45.5335 4.75 44.75 5.5335 44.75 6.5C44.75 7.4665 45.5335 8.25 46.5 8.25V4.75ZM53.5 4.75H46.5V8.25H53.5V4.75Z" fill="#60A0DC"/>
<path d="M82.7547 69C82.7547 69.9665 83.5382 70.75 84.5047 70.75C85.4712 70.75 86.2547 69.9665 86.2547 69H82.7547ZM86.2547 62C86.2547 61.0335 85.4712 60.25 84.5047 60.25C83.5382 60.25 82.7547 61.0335 82.7547 62H86.2547ZM86.2547 69V62H82.7547V69H86.2547Z" fill="#60A0DC"/>
<path d="M88 67.2374C88.9665 67.2374 89.75 66.4539 89.75 65.4874C89.75 64.5209 88.9665 63.7374 88 63.7374V67.2374ZM81 63.7374C80.0335 63.7374 79.25 64.5209 79.25 65.4874C79.25 66.4539 80.0335 67.2374 81 67.2374V63.7374ZM88 63.7374H81V67.2374H88V63.7374Z" fill="#60A0DC"/>
<path d="M5.7547 64C5.7547 64.9665 6.5382 65.75 7.5047 65.75C8.4712 65.75 9.2547 64.9665 9.2547 64H5.7547ZM9.2547 57C9.2547 56.0335 8.4712 55.25 7.5047 55.25C6.5382 55.25 5.7547 56.0335 5.7547 57H9.2547ZM9.2547 64V57H5.7547V64H9.2547Z" fill="#60A0DC"/>
<path d="M11 62.2374C11.9665 62.2374 12.75 61.4539 12.75 60.4874C12.75 59.5209 11.9665 58.7374 11 58.7374V62.2374ZM4 58.7374C3.0335 58.7374 2.25 59.5209 2.25 60.4874C2.25 61.4539 3.0335 62.2374 4 62.2374V58.7374ZM11 58.7374H4V62.2374H11V58.7374Z" fill="#60A0DC"/>
</svg>
