<svg width="48" height="48" viewBox="0 0 48 48" fill="none" xmlns="http://www.w3.org/2000/svg">
<rect width="48" height="48" rx="6" fill="#FDD535"/>
<path fill-rule="evenodd" clip-rule="evenodd" d="M30.3903 16.8128C28.5762 14.9984 26.1664 14 23.6028 14C18.3084 14 14.0018 18.3066 14.0018 23.6C14.0018 28.8934 18.3084 33.2 23.6028 33.2C26.1664 33.2 28.5781 32.2016 30.3903 30.3872C32.2045 28.5728 33.2018 26.1632 33.2018 23.6C33.2018 21.0368 32.2045 18.6253 30.3903 16.8128ZM26.7545 23.8269C26.1396 23.2777 25.3344 22.911 24.5541 22.5558L24.5484 22.5539C23.1724 21.9261 21.9829 21.3827 22.0674 20.0982C22.1039 19.6086 22.4595 19.3129 22.7516 19.1536C23.0802 18.9731 23.5164 18.8656 23.92 18.8656C23.968 18.8656 24.0161 18.8675 24.0622 18.8694C25.2364 18.9481 26.1626 19.4454 27.0678 20.4784L27.1216 20.5417L27.185 20.488L27.5386 20.1808L27.602 20.1251L27.5463 20.0617C26.5374 18.9059 25.442 18.3241 24.1025 18.2339C24.0449 18.2281 23.9834 18.2262 23.9161 18.2262C23.8758 18.2262 23.8316 18.2262 23.7855 18.2281H23.7278C22.8496 18.2281 21.8868 18.5161 21.1546 19C20.2802 19.5779 19.7902 20.3728 19.7767 21.2387C19.7422 23.3415 21.4603 24.0511 22.9785 24.6782L22.986 24.6813L22.9899 24.6832L23.0052 24.6889L23.0066 24.6895C24.3512 25.2461 25.5112 25.7262 25.4862 27.0121C25.4747 27.8608 24.2601 28.3293 23.4261 28.3293H23.3915H23.3089V28.3312C22.0655 28.2947 20.9547 27.759 20.0073 26.7433L19.9497 26.6819L19.8882 26.7376L19.5442 27.0563L19.4827 27.1139L19.5403 27.1753C20.6165 28.3331 21.9444 28.9552 23.3819 28.9725H23.4472C24.3754 28.9725 25.3843 28.7229 26.1453 28.3024C27.0985 27.7821 27.6539 27.0237 27.7115 26.1673C27.7769 25.2265 27.4636 24.4605 26.7545 23.8269ZM22.2923 21.9952C22.84 22.4637 23.5817 22.7997 24.2986 23.1241L24.312 23.1299L24.3184 23.1329L24.3184 23.1329C25.0752 23.4812 25.7913 23.8109 26.3106 24.2685C26.8871 24.7753 27.1312 25.3629 27.0793 26.1174C27.0313 26.8643 26.4759 27.3635 25.9705 27.6649C26.0685 27.4653 26.1223 27.2483 26.128 27.0179C26.1396 26.2422 25.8417 25.6221 25.2152 25.119C24.6721 24.683 23.9533 24.3867 23.2555 24.0991L23.2378 24.0918C21.7753 23.4909 20.3936 22.9225 20.4186 21.2445C20.4263 20.5993 20.8145 19.9888 21.512 19.5261C21.5351 19.5107 21.5582 19.4953 21.5831 19.48C21.5005 19.6605 21.4544 19.8486 21.4429 20.0464C21.3871 20.824 21.6658 21.4614 22.2923 21.9952ZM23.5007 31.3857C19.2795 31.3857 15.8386 27.9024 15.8386 23.6145C15.8386 19.3266 19.2795 15.8434 23.5007 15.8434C27.722 15.8434 31.1628 19.3266 31.1628 23.6145C31.1628 27.9024 27.722 31.3857 23.5007 31.3857ZM23.5007 14.9973C25.7706 14.9973 27.9043 15.8935 29.5105 17.5221C31.1168 19.1491 31.9999 21.3137 31.9999 23.6145C31.9999 25.9153 31.1168 28.0782 29.5105 29.7069C27.906 31.3356 25.7706 32.2318 23.5007 32.2318C18.813 32.2318 14.9999 28.3661 14.9999 23.6145C14.9999 18.863 18.813 14.9973 23.5007 14.9973Z" fill="#040506"/>
</svg>
