<svg width="100" height="100" viewBox="0 0 100 100" fill="none" xmlns="http://www.w3.org/2000/svg">
<path fill-rule="evenodd" clip-rule="evenodd" d="M43.6395 15.6918C41.9238 12.2068 42.0706 11.8708 46.232 9.75919C48.1642 8.7788 49.8101 7.97633 49.8893 7.97633C49.9685 7.97633 51.6391 8.75741 53.6014 9.71227C56.8236 11.2804 57.1693 11.5484 57.1693 12.4815C57.1693 16.3227 52.1777 21.9355 49.3199 21.308C47.5573 20.921 44.9397 18.3327 43.6395 15.6918Z" fill="#BDDEBA"/>
<path fill-rule="evenodd" clip-rule="evenodd" d="M29.1991 8.84824C18.0474 12.6005 8.71576 15.8074 8.46166 15.9744C8.13774 16.1876 8 17.6586 8 20.9075C8 25.8901 8.0424 25.9926 10.0951 25.9926C10.9419 25.9926 11.0027 26.1273 11.0027 27.9987C11.0027 29.5282 11.181 30.1663 11.7534 30.6843C12.4613 31.3246 12.5041 31.8403 12.5041 39.6924C12.5041 47.5445 12.4613 48.0602 11.7534 48.7005C11.1994 49.202 11.0027 49.8566 11.0027 51.1984C11.0027 52.94 10.958 53.0169 9.95176 53.0169C8.14639 53.0169 8 53.4835 8 59.2449C8 63.7565 8.09082 64.607 8.59377 64.7999C8.92032 64.9253 12.6362 65.0277 16.8512 65.0277H24.5149V67.7535V70.4788L18.5095 76.4756L12.5041 82.4723V84.447C12.5041 85.9052 12.3641 86.422 11.97 86.422C11.2054 86.422 9.19545 88.2019 8.54949 89.4506C7.82396 90.854 7.85174 93.3155 8.6118 94.9171C9.53101 96.8538 12.0507 98.1968 14.3504 97.9757C20.1246 97.4209 21.9551 89.9134 17.0055 87.0868C15.7181 86.3518 15.512 86.0553 15.5098 84.935C15.5071 83.7575 16.0694 83.0691 21.5122 77.5903L27.5176 71.5447V68.2861V65.0277H32.0217H36.5257V67.7576V70.4878L33.523 73.4729L30.5203 76.4579V81.4402C30.5203 85.4987 30.4212 86.422 29.9862 86.422C29.2216 86.422 27.2117 88.2019 26.5657 89.4506C25.8402 90.854 25.868 93.3155 26.628 94.9171C27.5472 96.8538 30.0669 98.1968 32.3666 97.9757C38.1235 97.4224 39.9563 89.9048 35.0217 87.0868L33.5286 86.2344L33.526 81.9435L33.523 77.653L36.5257 74.5764L39.5284 71.5001V68.2639V65.0277H44.0325H48.5365V75.7249C48.5365 84.727 48.4517 86.422 48.0024 86.422C47.2379 86.422 45.2279 88.2019 44.582 89.4506C42.5232 93.4322 45.9182 98.4047 50.4012 97.9738C56.1578 97.4206 57.9774 89.9074 53.038 87.0868L51.5449 86.2344L51.5423 75.6311L51.5392 65.0277H56.0433H60.5474V68.5083V71.9892L63.5501 74.9742L66.5528 77.9593V82.1908C66.5528 85.6004 66.4492 86.422 66.0187 86.422C65.2541 86.422 63.2442 88.2019 62.5982 89.4506C60.5395 93.4322 63.9344 98.4047 68.4175 97.9738C74.174 97.4206 75.9937 89.9074 71.0542 87.0868L69.5611 86.2344L69.5585 81.403L69.5555 76.5716L66.5528 73.4954L63.5501 70.4187V67.7234V65.0277H68.0541H72.5582V68.5041V71.9801L78.5636 77.9769C83.8675 83.2729 84.569 84.1167 84.569 85.1977C84.569 86.0065 84.3877 86.422 84.0349 86.422C83.2703 86.422 81.2604 88.2019 80.6144 89.4506C79.8585 90.9126 79.9257 93.4911 80.7608 95.0608C82.9682 99.2087 89.3816 98.887 91.3607 94.529C92.2432 92.5855 92.2406 91.5131 91.3484 89.5479C90.8698 88.4935 90.1375 87.6967 89.1076 87.1082C87.6438 86.2723 87.5774 86.1544 87.5747 84.3836L87.5717 82.5324L81.5663 76.4868L75.5609 70.4416V67.7347V65.0277H83.4298C90.8255 65.0277 91.3221 64.9842 91.6873 64.3018C91.9009 63.9025 92.0758 61.4654 92.0758 58.8861C92.0758 53.7894 91.8006 53.0169 89.9847 53.0169C89.1586 53.0169 89.0731 52.863 89.0731 51.3786C89.0731 50.3085 88.8126 49.4092 88.3224 48.7857C87.6231 47.8966 87.5717 47.263 87.5717 39.5047C87.5717 31.7465 87.6231 31.1129 88.3224 30.2238C88.8126 29.6003 89.0731 28.701 89.0731 27.6309C89.0731 26.065 89.1222 25.9926 90.1859 25.9926C90.9021 25.9926 91.4373 25.7336 91.6873 25.2667C92.2529 24.2097 92.188 16.8932 91.6066 16.1643C91.3487 15.8404 84.8036 13.5107 77.0622 10.9866C69.3209 8.46277 61.0447 5.71491 58.6707 4.88015C54.1569 3.2936 49.9827 1.95929 49.6625 2.00095C49.5593 2.01446 40.3508 5.09561 29.1991 8.84824ZM22.2629 29.1829C22.7286 28.7614 23.0135 28.0269 23.0135 27.2481V25.9926H18.5095H14.0054V27.1531C14.0054 27.7916 14.3432 28.7434 14.7561 29.2681C15.461 30.1641 15.5068 30.7909 15.5068 39.5047C15.5068 48.2186 15.461 48.8454 14.7561 49.7414C14.3432 50.2661 14.0054 51.2179 14.0054 51.8564V53.0169H18.5095H23.0135V51.9491C23.0135 51.3579 22.6784 50.578 22.2629 50.2019C21.5486 49.5556 21.5122 49.0458 21.5122 39.6924C21.5122 30.339 21.5486 29.8293 22.2629 29.1829ZM32.7723 30.6843C32.1999 30.1663 32.0217 29.5282 32.0217 27.9987V25.9926H29.0189H26.0162V27.8111C26.0162 29.1529 25.8196 29.8075 25.2656 30.309C24.5573 30.95 24.5149 31.465 24.5149 39.4394C24.5149 46.7578 24.5978 47.9821 25.1327 48.5733C25.4724 48.9486 25.8316 50.102 25.931 51.1365L26.1116 53.0169H29.0666H32.0217V51.1984C32.0217 49.8566 32.2183 49.202 32.7723 48.7005C33.4802 48.0602 33.523 47.5445 33.523 39.6924C33.523 31.8403 33.4802 31.3246 32.7723 30.6843ZM43.2818 29.1829C43.7476 28.7614 44.0325 28.0269 44.0325 27.2481V25.9926H39.5284H35.0244V27.1531C35.0244 27.7916 35.3622 28.7434 35.775 29.2681C36.4799 30.1641 36.5257 30.7909 36.5257 39.5047C36.5257 48.2186 36.4799 48.8454 35.775 49.7414C35.3622 50.2661 35.0244 51.2179 35.0244 51.8564V53.0169H39.5284H44.0325V51.9491C44.0325 51.3579 43.6973 50.578 43.2818 50.2019C42.5675 49.5556 42.5311 49.0458 42.5311 39.6924C42.5311 30.339 42.5675 29.8293 43.2818 29.1829ZM53.7913 30.6843C53.2189 30.1663 53.0406 29.5282 53.0406 27.9987V25.9926H50.0379H47.0352V27.8111C47.0352 29.1529 46.8385 29.8075 46.2845 30.309C45.5762 30.95 45.5338 31.465 45.5338 39.4098C45.5338 47.263 45.5845 47.8958 46.2845 48.7857C46.7747 49.4092 47.0352 50.3085 47.0352 51.3786V53.0169H50.0379H53.0406V51.1984C53.0406 49.8566 53.2373 49.202 53.7913 48.7005C54.4992 48.0602 54.5419 47.5445 54.5419 39.6924C54.5419 31.8403 54.4992 31.3246 53.7913 30.6843ZM64.3007 29.1829C64.7665 28.7614 65.0514 28.0269 65.0514 27.2481V25.9926H60.3924H55.7333L55.9236 27.1978C56.0279 27.8606 56.4355 28.8125 56.8289 29.3128C57.4891 30.1521 57.5447 30.9422 57.5447 39.5047C57.5447 48.2186 57.4989 48.8454 56.794 49.7414C56.3811 50.2661 56.0433 51.2179 56.0433 51.8564V53.0169H60.5474H65.0514V51.9491C65.0514 51.3579 64.7162 50.578 64.3007 50.2019C63.5865 49.5556 63.5501 49.0458 63.5501 39.6924C63.5501 30.339 63.5865 29.8293 64.3007 29.1829ZM74.8102 30.6843C74.2378 30.1663 74.0595 29.5282 74.0595 27.9987V25.9926H71.0568H68.0541V27.6309C68.0541 28.701 67.7936 29.6003 67.3034 30.2238C66.6042 31.1129 66.5528 31.7465 66.5528 39.5047C66.5528 47.263 66.6042 47.8966 67.3034 48.7857C67.7936 49.4092 68.0541 50.3085 68.0541 51.3786V53.0169H71.0568H74.0595V51.1984C74.0595 49.8566 74.2562 49.202 74.8102 48.7005C75.5181 48.0602 75.5609 47.5445 75.5609 39.6924C75.5609 31.8403 75.5181 31.3246 74.8102 30.6843ZM85.3197 29.0977C85.7326 28.5726 86.0704 27.6594 86.0704 27.0679V25.9926H81.5663H77.0622V27.1531C77.0622 27.7916 77.4 28.7434 77.8129 29.2681C78.5178 30.1641 78.5636 30.7909 78.5636 39.5047C78.5636 48.2186 78.5178 48.8454 77.8129 49.7414C77.4 50.2661 77.0622 51.2179 77.0622 51.8564V53.0169H81.5663H86.0704V51.9491C86.0704 51.3579 85.7352 50.578 85.3197 50.2019C84.6058 49.5559 84.569 49.0458 84.569 39.7874C84.569 30.6205 84.6129 29.9963 85.3197 29.0977Z" fill="#BDDEBA"/>
<path d="M23.0135 27.2481C23.0135 28.0269 22.7286 28.7614 22.2629 29.1829C21.5486 29.8293 21.5122 30.339 21.5122 39.6924C21.5122 49.0458 21.5486 49.5556 22.2629 50.2019C22.6784 50.578 23.0135 51.3579 23.0135 51.9491V53.0169H18.5095H14.0054V51.8564C14.0054 51.2179 14.3432 50.2661 14.7561 49.7414C15.461 48.8454 15.5068 48.2186 15.5068 39.5047C15.5068 30.7909 15.461 30.1641 14.7561 29.2681C14.3432 28.7434 14.0054 27.7916 14.0054 27.1531V25.9926H18.5095H23.0135V27.2481Z" fill="#BDDEBA"/>
<path d="M44.0325 27.2481C44.0325 28.0269 43.7476 28.7614 43.2818 29.1829C42.5675 29.8293 42.5311 30.339 42.5311 39.6924C42.5311 49.0458 42.5675 49.5556 43.2818 50.2019C43.6973 50.578 44.0325 51.3579 44.0325 51.9491V53.0169H39.5284H35.0244V51.8564C35.0244 51.2179 35.3622 50.2661 35.775 49.7414C36.4799 48.8454 36.5257 48.2186 36.5257 39.5047C36.5257 30.7909 36.4799 30.1641 35.775 29.2681C35.3622 28.7434 35.0244 27.7916 35.0244 27.1531V25.9926H39.5284H44.0325V27.2481Z" fill="#BDDEBA"/>
<path d="M65.0514 27.2481C65.0514 28.0269 64.7665 28.7614 64.3007 29.1829C63.5865 29.8293 63.5501 30.339 63.5501 39.6924C63.5501 49.0458 63.5865 49.5556 64.3007 50.2019C64.7162 50.578 65.0514 51.3579 65.0514 51.9491V53.0169H60.5474H56.0433V51.8564C56.0433 51.2179 56.3811 50.2661 56.794 49.7414C57.4989 48.8454 57.5447 48.2186 57.5447 39.5047C57.5447 30.9422 57.4891 30.1521 56.8289 29.3128C56.4355 28.8125 56.0279 27.8606 55.9236 27.1978L55.7333 25.9926H60.3924H65.0514V27.2481Z" fill="#BDDEBA"/>
<path d="M86.0704 27.0679C86.0704 27.6594 85.7326 28.5726 85.3197 29.0977C84.6129 29.9963 84.569 30.6205 84.569 39.7874C84.569 49.0458 84.6058 49.5559 85.3197 50.2019C85.7352 50.578 86.0704 51.3579 86.0704 51.9491V53.0169H81.5663H77.0622V51.8564C77.0622 51.2179 77.4 50.2661 77.8129 49.7414C78.5178 48.8454 78.5636 48.2186 78.5636 39.5047C78.5636 30.7909 78.5178 30.1641 77.8129 29.2681C77.4 28.7434 77.0622 27.7916 77.0622 27.1531V25.9926H81.5663H86.0704V27.0679Z" fill="#BDDEBA"/>
<path fill-rule="evenodd" clip-rule="evenodd" d="M8.46166 15.9744C8.71576 15.8074 18.0474 12.6005 29.1991 8.84824C40.3508 5.09561 49.5593 2.01446 49.6625 2.00095C49.9827 1.95929 54.1569 3.2936 58.6707 4.88015C61.0447 5.71491 69.3209 8.46277 77.0622 10.9866C84.8036 13.5107 91.3487 15.8404 91.6066 16.1643C92.188 16.8932 92.2529 24.2097 91.6873 25.2667C91.4373 25.7336 90.9021 25.9926 90.1859 25.9926C89.1222 25.9926 89.0731 26.065 89.0731 27.6309C89.0731 28.701 88.8126 29.6003 88.3224 30.2238C87.6231 31.1129 87.5717 31.7465 87.5717 39.5047C87.5717 47.263 87.6231 47.8966 88.3224 48.7857C88.8126 49.4092 89.0731 50.3085 89.0731 51.3786C89.0731 52.863 89.1586 53.0169 89.9847 53.0169C91.8006 53.0169 92.0758 53.7894 92.0758 58.8861C92.0758 61.4654 91.9009 63.9025 91.6873 64.3018C91.3221 64.9842 90.8255 65.0277 83.4298 65.0277H75.5609H72.5582H68.0541H63.5501H60.5474H56.0433H51.5392H48.5365H44.0325H39.5284H36.5257H32.0217H27.5176H24.5149H16.8512C12.6362 65.0277 8.92032 64.9253 8.59377 64.7999C8.09082 64.607 8 63.7565 8 59.2449C8 53.4835 8.14639 53.0169 9.95176 53.0169C10.958 53.0169 11.0027 52.94 11.0027 51.1984C11.0027 49.8566 11.1994 49.202 11.7534 48.7005C12.4613 48.0602 12.5041 47.5445 12.5041 39.6924C12.5041 31.8403 12.4613 31.3246 11.7534 30.6843C11.181 30.1663 11.0027 29.5282 11.0027 27.9987C11.0027 26.1273 10.9419 25.9926 10.0951 25.9926C8.0424 25.9926 8 25.8901 8 20.9075C8 17.6586 8.13774 16.1876 8.46166 15.9744ZM22.2629 29.1829C22.7286 28.7614 23.0135 28.0269 23.0135 27.2481V25.9926H18.5095H14.0054V27.1531C14.0054 27.7916 14.3432 28.7434 14.7561 29.2681C15.461 30.1641 15.5068 30.7909 15.5068 39.5047C15.5068 48.2186 15.461 48.8454 14.7561 49.7414C14.3432 50.2661 14.0054 51.2179 14.0054 51.8564V53.0169H18.5095H23.0135V51.9491C23.0135 51.3579 22.6784 50.578 22.2629 50.2019C21.5486 49.5556 21.5122 49.0458 21.5122 39.6924C21.5122 30.339 21.5486 29.8293 22.2629 29.1829ZM32.7723 30.6843C32.1999 30.1663 32.0217 29.5282 32.0217 27.9987V25.9926H29.0189H26.0162V27.8111C26.0162 29.1529 25.8196 29.8075 25.2656 30.309C24.5573 30.95 24.5149 31.465 24.5149 39.4394C24.5149 46.7578 24.5978 47.9821 25.1327 48.5733C25.4724 48.9486 25.8316 50.102 25.931 51.1365L26.1116 53.0169H29.0666H32.0217V51.1984C32.0217 49.8566 32.2183 49.202 32.7723 48.7005C33.4802 48.0602 33.523 47.5445 33.523 39.6924C33.523 31.8403 33.4802 31.3246 32.7723 30.6843ZM43.2818 29.1829C43.7476 28.7614 44.0325 28.0269 44.0325 27.2481V25.9926H39.5284H35.0244V27.1531C35.0244 27.7916 35.3622 28.7434 35.775 29.2681C36.4799 30.1641 36.5257 30.7909 36.5257 39.5047C36.5257 48.2186 36.4799 48.8454 35.775 49.7414C35.3622 50.2661 35.0244 51.2179 35.0244 51.8564V53.0169H39.5284H44.0325V51.9491C44.0325 51.3579 43.6973 50.578 43.2818 50.2019C42.5675 49.5556 42.5311 49.0458 42.5311 39.6924C42.5311 30.339 42.5675 29.8293 43.2818 29.1829ZM53.7913 30.6843C53.2189 30.1663 53.0406 29.5282 53.0406 27.9987V25.9926H50.0379H47.0352V27.8111C47.0352 29.1529 46.8385 29.8075 46.2845 30.309C45.5762 30.95 45.5338 31.465 45.5338 39.4098C45.5338 47.263 45.5845 47.8958 46.2845 48.7857C46.7747 49.4092 47.0352 50.3085 47.0352 51.3786V53.0169H50.0379H53.0406V51.1984C53.0406 49.8566 53.2373 49.202 53.7913 48.7005C54.4992 48.0602 54.5419 47.5445 54.5419 39.6924C54.5419 31.8403 54.4992 31.3246 53.7913 30.6843ZM64.3007 29.1829C64.7665 28.7614 65.0514 28.0269 65.0514 27.2481V25.9926H60.3924H55.7333L55.9236 27.1978C56.0279 27.8606 56.4355 28.8125 56.8289 29.3128C57.4891 30.1521 57.5447 30.9422 57.5447 39.5047C57.5447 48.2186 57.4989 48.8454 56.794 49.7414C56.3811 50.2661 56.0433 51.2179 56.0433 51.8564V53.0169H60.5474H65.0514V51.9491C65.0514 51.3579 64.7162 50.578 64.3007 50.2019C63.5865 49.5556 63.5501 49.0458 63.5501 39.6924C63.5501 30.339 63.5865 29.8293 64.3007 29.1829ZM74.8102 30.6843C74.2378 30.1663 74.0595 29.5282 74.0595 27.9987V25.9926H71.0568H68.0541V27.6309C68.0541 28.701 67.7936 29.6003 67.3034 30.2238C66.6042 31.1129 66.5528 31.7465 66.5528 39.5047C66.5528 47.263 66.6042 47.8966 67.3034 48.7857C67.7936 49.4092 68.0541 50.3085 68.0541 51.3786V53.0169H71.0568H74.0595V51.1984C74.0595 49.8566 74.2562 49.202 74.8102 48.7005C75.5181 48.0602 75.5609 47.5445 75.5609 39.6924C75.5609 31.8403 75.5181 31.3246 74.8102 30.6843ZM85.3197 29.0977C85.7326 28.5726 86.0704 27.6594 86.0704 27.0679V25.9926H81.5663H77.0622V27.1531C77.0622 27.7916 77.4 28.7434 77.8129 29.2681C78.5178 30.1641 78.5636 30.7909 78.5636 39.5047C78.5636 48.2186 78.5178 48.8454 77.8129 49.7414C77.4 50.2661 77.0622 51.2179 77.0622 51.8564V53.0169H81.5663H86.0704V51.9491C86.0704 51.3579 85.7352 50.578 85.3197 50.2019C84.6058 49.5559 84.569 49.0458 84.569 39.7874C84.569 30.6205 84.6129 29.9963 85.3197 29.0977ZM43.6395 15.6918C41.9238 12.2068 42.0706 11.8708 46.232 9.75919C48.1642 8.7788 49.8101 7.97633 49.8893 7.97633C49.9685 7.97633 51.6391 8.75741 53.6014 9.71227C56.8236 11.2804 57.1693 11.5484 57.1693 12.4815C57.1693 16.3227 52.1777 21.9355 49.3199 21.308C47.5573 20.921 44.9397 18.3327 43.6395 15.6918Z" fill="#7BBD75"/>
</svg>
