<svg width="77" height="78" viewBox="0 0 77 78" fill="none" xmlns="http://www.w3.org/2000/svg">
<path d="M73.7386 75.2027H2.86365V13.1875H73.7386V75.2027Z" fill="#FBC998"/>
<path d="M73.7386 75.2027H2.86365V13.1875H73.7386V75.2027Z" fill="#FBC998"/>
<path d="M75.0039 0.531281H1.59766C0.898399 0.531281 0.332031 1.09765 0.332031 1.79691V76.4692C0.332031 76.8046 0.46492 77.1273 0.702226 77.3646C0.939531 77.602 1.26227 77.7348 1.59768 77.7348H75.0039C75.3393 77.7348 75.6621 77.602 75.8994 77.3646C76.1367 77.1273 76.2696 76.8046 76.2696 76.4692V1.79691C76.2696 1.46152 76.1367 1.13878 75.8994 0.901451C75.6621 0.664121 75.3393 0.531281 75.0039 0.531281ZM73.7387 75.2028H2.86369V13.1875H73.7387V75.2028Z" fill="#E8504A"/>
<path fill-rule="evenodd" clip-rule="evenodd" d="M7.92638 48.6254C9.53058 48.6191 10.9544 47.6066 11.4891 46.0941H18.1146C18.1937 47.3756 18.3962 48.6475 18.719 49.891H11.7232C11.024 49.891 10.4576 50.4574 10.4576 51.1566V58.9846C8.71426 59.5984 7.66693 61.3829 7.98015 63.2054C8.2934 65.0279 9.87539 66.3599 11.7232 66.3599C13.5711 66.3599 15.1531 65.0279 15.4663 63.2054C15.7796 61.3829 14.7323 59.5984 12.9889 58.9846V52.4223H19.5416C21.4305 57.0481 24.9553 60.8163 29.4422 63.009V68.8752H24.1456C23.5317 67.1318 21.7472 66.0845 19.9247 66.3977C18.1022 66.7109 16.7702 68.2929 16.7702 70.1408C16.7702 71.9886 18.1022 73.5706 19.9247 73.8839C21.7472 74.1971 23.5317 73.1498 24.1456 71.4064H30.7079C31.0433 71.4064 31.366 71.2735 31.6033 71.0362C31.8406 70.7989 31.9735 70.4762 31.9735 70.1408V64.0531C36.0805 65.42 40.5231 65.42 44.6298 64.0531V68.8751C44.6298 69.2105 44.7627 69.5333 45 69.7706C45.2373 70.0079 45.56 70.1408 45.8954 70.1408H52.4577C53.0715 71.8841 54.856 72.9315 56.6785 72.6182C58.501 72.305 59.8331 70.723 59.8331 68.8752C59.8331 67.0273 58.501 65.4453 56.6785 65.1321C54.856 64.8188 53.0715 65.8661 52.4577 67.6095H47.161V63.009C51.6477 60.8163 55.1724 57.0479 57.0617 52.4223H63.6144V58.9846C61.871 59.5984 60.8237 61.3829 61.1369 63.2054C61.4502 65.0279 63.0322 66.3599 64.88 66.3599C66.7279 66.3599 68.3099 65.0279 68.6231 63.2054C68.9364 61.3829 67.8891 59.5984 66.1456 58.9846V51.1566C66.1456 50.8213 66.0128 50.4985 65.7755 50.2612C65.5381 50.0239 65.2154 49.891 64.88 49.891H57.8843C58.207 48.6475 58.4095 47.3755 58.4886 46.0941H61.3173C61.9311 47.8375 63.7156 48.8848 65.5381 48.5716C67.3606 48.2583 68.6927 46.6764 68.6927 44.8285C68.6927 42.9806 67.3606 41.3986 65.5381 41.0854C63.7156 40.7722 61.9311 41.8195 61.3173 43.5629H58.4886C58.4095 42.2815 58.207 41.0095 57.8843 39.766H64.88C65.2154 39.766 65.5381 39.6331 65.7755 39.3958C66.0128 39.1585 66.1456 38.8358 66.1456 38.5003V30.6724C67.889 30.0586 68.9363 28.2741 68.6231 26.4516C68.3099 24.6291 66.7279 23.2971 64.88 23.2971C63.0322 23.2971 61.4502 24.6291 61.1369 26.4516C60.8237 28.2741 61.871 30.0586 63.6144 30.6724V37.2347H57.0617C55.1727 32.6089 51.648 28.8407 47.161 26.648V22.0475H52.4577C53.0715 23.7908 54.856 24.8382 56.6785 24.5249C58.501 24.2117 59.8331 22.6297 59.8331 20.7818C59.8331 18.934 58.501 17.352 56.6785 17.0387C54.856 16.7255 53.0715 17.7728 52.4577 19.5162H45.8954C45.1962 19.5162 44.6298 20.0826 44.6298 20.7818V25.6039C40.5228 24.237 36.0802 24.237 31.9735 25.6039V19.5162C31.9735 19.1808 31.8406 18.8581 31.6033 18.6208C31.366 18.3834 31.0433 18.2506 30.7079 18.2506H24.1456C23.5318 16.5072 21.7473 15.4599 19.9248 15.7731C18.1023 16.0863 16.7702 17.6683 16.7702 19.5162C16.7702 21.364 18.1023 22.9461 19.9248 23.2593C21.7473 23.5725 23.5318 22.5252 24.1456 20.7818H29.4423V26.648C24.9556 28.8407 21.4309 32.6091 19.5416 37.2347H12.9889V30.6724C14.7323 30.0586 15.7796 28.2741 15.4664 26.4516C15.1531 24.6291 13.5711 23.297 11.7233 23.297C9.87541 23.297 8.2934 24.6291 7.98018 26.4516C7.66693 28.2741 8.71424 30.0586 10.4576 30.6724V38.5003C10.4576 38.8357 10.5905 39.1585 10.8278 39.3958C11.0651 39.6331 11.3879 39.766 11.7233 39.766H18.719C18.3963 41.0095 18.1938 42.2814 18.1147 43.5628H11.4891C11.0145 42.2276 9.8343 41.2721 8.43267 41.0791C7.02781 40.8861 5.63566 41.4936 4.81935 42.6516C4.00619 43.8097 3.90178 45.3284 4.55673 46.5846C5.21168 47.8407 6.50888 48.6286 7.92638 48.6254ZM50.8317 32.2992C47.5091 28.977 43.0004 27.1102 38.3018 27.1102C33.6031 27.1166 29.1006 28.9834 25.7783 32.3057C22.456 35.6283 20.5892 40.1304 20.5829 44.8291C20.5829 49.5279 22.4493 54.0368 25.7719 57.359C29.0945 60.6812 33.603 62.548 38.3018 62.548C43.0006 62.548 47.5095 60.6816 50.8317 57.359C54.1539 54.0364 56.0207 49.5279 56.0207 44.8291C56.0207 40.1303 54.1543 35.6214 50.8317 32.2992Z" fill="#E8504A"/>
<path d="M5.3949 6.85938C5.3949 6.16039 5.96154 5.59375 6.66052 5.59375C7.35951 5.59375 7.92615 6.16039 7.92615 6.85938C7.92615 7.55836 7.35951 8.125 6.66052 8.125C5.96154 8.125 5.3949 7.55836 5.3949 6.85938Z" fill="#FBC998"/>
<path d="M9.19141 6.85938C9.19141 6.16039 9.75805 5.59375 10.457 5.59375C11.156 5.59375 11.7227 6.16039 11.7227 6.85938C11.7227 7.55836 11.156 8.125 10.457 8.125C9.75805 8.125 9.19141 7.55836 9.19141 6.85938Z" fill="#FBC998"/>
<path d="M12.9886 6.85938C12.9886 6.16039 13.5553 5.59375 14.2543 5.59375C14.9533 5.59375 15.5199 6.16039 15.5199 6.85938C15.5199 7.55836 14.9533 8.125 14.2543 8.125C13.5553 8.125 12.9886 7.55836 12.9886 6.85938Z" fill="#FBC998"/>
<path fill-rule="evenodd" clip-rule="evenodd" d="M43.6374 53.4357C44.6617 52.7724 45.6948 51.7388 45.7938 50.2493C46.045 46.6768 43.0307 45.3118 39.8373 43.8657L39.8087 43.8527C36.7667 42.4991 33.6257 41.0924 33.8687 37.6243C33.886 37.3359 33.9426 37.0576 34.0354 36.7915C34.1363 36.5025 34.28 36.2278 34.4627 35.9699C34.2107 36.1026 33.9677 36.2353 33.7427 36.3857C33.7029 36.4117 33.6634 36.4379 33.6245 36.4643C32.1775 37.4458 31.3663 38.7317 31.3487 40.1015C31.2947 43.7023 34.2737 44.9144 37.4237 46.1884C40.4027 47.3916 43.4808 48.6391 43.4268 52.1072C43.4176 52.4607 43.351 52.7917 43.2349 53.0988C43.1697 53.2711 43.089 53.4359 42.9942 53.5931C42.9932 53.5948 42.9921 53.5965 42.9911 53.5983C42.9216 53.7129 42.8447 53.8234 42.7607 53.9297C42.8687 53.8766 42.9768 53.8235 43.0848 53.7616C43.2649 53.6649 43.451 53.5564 43.6374 53.4357ZM37.5078 54.5091H37.8914C38.7462 54.5091 39.7901 54.2725 40.6083 53.825C41.4359 53.3724 41.918 52.7759 41.9278 52.0912V52.0887C41.9511 50.8784 41.4345 50.0634 40.5433 49.3854C39.6174 48.6811 38.3267 48.155 36.8486 47.5541L36.8053 47.5366C35.2488 46.9063 33.5028 46.1994 32.1607 45.0961C30.7751 43.957 29.8109 42.3896 29.8498 40.0842C29.8803 38.135 31.0102 36.3954 32.9126 35.1611C34.5242 34.1174 36.6081 33.5058 38.5307 33.5058H38.647C38.8795 33.4969 39.1127 33.4967 39.3508 33.516C42.2788 33.7125 44.6719 34.9709 46.8516 37.425L47.1904 37.8064L45.6826 39.0922L45.3572 38.7263C43.486 36.623 41.6047 35.6449 39.2181 35.4868C38.3533 35.4307 37.3497 35.6427 36.6174 36.0382C36.0157 36.3623 35.4022 36.8988 35.3395 37.7392C35.2591 38.9362 35.7515 39.7761 36.6495 40.5038C37.5803 41.258 38.9005 41.8528 40.4093 42.5295L40.4433 42.5447C42.0295 43.2546 43.807 44.0501 45.1437 45.2231C46.5201 46.431 47.4436 48.051 47.2825 50.3636C47.1502 52.3005 45.8624 53.9613 43.7991 55.0687C42.1185 55.9781 39.9479 56.5 37.9367 56.5H37.7958C34.6502 56.4628 31.7619 55.1224 29.4374 52.663L29.0874 52.2927L30.5556 50.9563L30.8927 51.3121C32.8097 53.3352 35.0282 54.3981 37.5078 54.5091Z" fill="#E8504A"/>
</svg>
