<svg width="49" height="48" viewBox="0 0 49 48" fill="none" xmlns="http://www.w3.org/2000/svg">
<rect x="0.666748" width="48" height="48" rx="6" fill="#EB8045"/>
<g clip-path="url(#clip0_4545_118054)">
<path d="M28.4396 19.2C28.4396 21.1882 26.8278 22.8 24.8396 22.8C22.8513 22.8 21.2396 21.1882 21.2396 19.2C21.2396 17.2118 22.8513 15.6 24.8396 15.6C26.8278 15.6 28.4396 17.2118 28.4396 19.2Z" fill="#040506"/>
<path d="M34.4396 21.6C34.4396 22.9255 33.365 24 32.0396 24C30.7141 24 29.6396 22.9255 29.6396 21.6C29.6396 20.2745 30.7141 19.2 32.0396 19.2C33.365 19.2 34.4396 20.2745 34.4396 21.6Z" fill="#040506"/>
<path d="M29.6396 30C29.6396 27.349 27.4905 25.2 24.8396 25.2C22.1886 25.2 20.0396 27.349 20.0396 30V33.6H29.6396V30Z" fill="#040506"/>
<path d="M20.0396 21.6C20.0396 22.9255 18.965 24 17.6396 24C16.3141 24 15.2396 22.9255 15.2396 21.6C15.2396 20.2745 16.3141 19.2 17.6396 19.2C18.965 19.2 20.0396 20.2745 20.0396 21.6Z" fill="#040506"/>
<path d="M32.0396 33.6V30C32.0396 28.735 31.7133 27.5462 31.1404 26.5132C31.4278 26.4393 31.7291 26.4 32.0396 26.4C34.0278 26.4 35.6396 28.0117 35.6396 30V33.6H32.0396Z" fill="#040506"/>
<path d="M18.5387 26.5132C17.9658 27.5462 17.6396 28.735 17.6396 30V33.6H14.0396V30C14.0396 28.0117 15.6513 26.4 17.6396 26.4C17.95 26.4 18.2513 26.4393 18.5387 26.5132Z" fill="#040506"/>
</g>
<defs>
<clipPath id="clip0_4545_118054">
<rect width="24" height="24" fill="white" transform="translate(12.6667 12)"/>
</clipPath>
</defs>
</svg>
