<svg width="49" height="48" viewBox="0 0 49 48" fill="none" xmlns="http://www.w3.org/2000/svg">
<rect x="0.333252" width="48" height="48" rx="6" fill="#60A0DC"/>
<path d="M26.021 17.2735C25.6001 17.2932 25.241 17.5848 25.136 17.9935L22.016 29.5135C21.8773 30.0273 22.181 30.556 22.6948 30.6948C23.2085 30.8335 23.7373 30.5298 23.876 30.016L26.996 18.496C27.0813 18.197 27.0166 17.8763 26.8235 17.6335C26.6304 17.3907 26.3313 17.2566 26.021 17.2735H26.021ZM20.4261 18.4735C20.2096 18.4773 20.0005 18.5532 19.8336 18.691L14.0736 23.251C13.843 23.4329 13.708 23.7104 13.708 24.0048C13.708 24.2982 13.843 24.5757 14.0736 24.7585L19.8336 29.3185C20.0314 29.4919 20.293 29.5763 20.5546 29.5519C20.8171 29.5276 21.058 29.3963 21.2211 29.1891C21.3833 28.9819 21.4546 28.7176 21.4161 28.456C21.3777 28.1954 21.2342 27.9619 21.0186 27.811L16.2112 24.0084L21.0186 20.1984C21.3486 19.9481 21.4808 19.5141 21.3468 19.1213C21.2118 18.7294 20.8405 18.4678 20.4261 18.4734V18.4735ZM28.5636 18.4735C28.153 18.4773 27.7911 18.7426 27.6617 19.1316C27.5333 19.5216 27.6664 19.9501 27.9936 20.1985L32.801 24.0085L27.9936 27.8111C27.778 27.962 27.6345 28.1955 27.5961 28.4561C27.5577 28.7176 27.6289 28.982 27.7911 29.1892C27.9542 29.3964 28.1952 29.5277 28.4576 29.552C28.7192 29.5764 28.9808 29.492 29.1786 29.3186L34.9386 24.7586C35.1692 24.5758 35.3042 24.2983 35.3042 24.0048C35.3042 23.7104 35.1692 23.433 34.9386 23.2511L29.1786 18.6911C29.0051 18.5486 28.7876 18.4717 28.5636 18.4736V18.4735Z" fill="#040506"/>
</svg>
