<svg width="512" height="512" viewBox="0 0 512 512" fill="none" xmlns="http://www.w3.org/2000/svg">
<path fill-rule="evenodd" clip-rule="evenodd" d="M243.809 48.4778C211.299 53.3598 187.042 66.7448 168.275 90.1558C160.422 99.9528 150.735 118.945 147.864 130.174C134.333 183.09 158.146 236.008 206.309 260.053C222.287 268.03 236.6 271.275 255.809 271.275C276.308 271.275 290.002 267.946 308.038 258.577C366.483 228.22 385.672 152.142 348.675 97.4628C330.76 70.9848 302.462 53.4358 270.309 48.8648C263.581 47.9078 249.018 47.6958 243.809 48.4778ZM276.309 82.3578C303.35 89.6058 325.972 112.361 333.446 139.83C335.907 148.875 335.907 170.785 333.446 179.83C327.362 202.191 311.058 221.891 290.442 231.792C277.814 237.857 271.401 239.236 255.809 239.236C240.233 239.236 233.802 237.856 221.231 231.819C200.413 221.821 184.306 202.373 178.172 179.83C175.703 170.755 175.709 148.843 178.183 139.888C186.81 108.665 212.484 85.5978 244.309 80.4768C250.006 79.5598 270.328 80.7548 276.309 82.3578ZM361.083 255.923C358.759 257.074 356.005 259.436 354.962 261.172C350.082 269.3 351.416 275.349 360.152 284.693C383.864 310.058 397.208 340.558 399.431 374.473C400.286 387.517 399.375 390.135 391.39 397.605C359.576 427.366 263.451 440.478 187.697 425.39C157.858 419.447 132.417 409.008 120.417 397.782C112.296 390.186 111.342 387.542 112.118 374.802C114.151 341.435 127.608 310.393 150.97 285.181C154.372 281.509 157.152 277.418 157.868 275.027C160.91 264.875 153.42 254.83 142.809 254.83C137.193 254.83 134.384 256.516 126.725 264.482C99.2367 293.074 82.2787 333.435 80.1537 375.33C79.1877 394.366 82.6267 404.225 94.7227 417.096C113.925 437.529 151.368 452.592 200.809 459.775C287.553 472.377 382.581 453.608 416.895 417.096C429.035 404.179 432.441 394.36 431.43 375.204C429.2 332.93 412.713 293.891 384.537 264.163C374.451 253.523 369.469 251.772 361.083 255.923Z" fill="white"/>
</svg>
