<svg width="64" height="64" viewBox="0 0 64 64" fill="none" xmlns="http://www.w3.org/2000/svg">
<path fill-rule="evenodd" clip-rule="evenodd" d="M6.26739 7.51491C3.10863 10.423 0.0300705 16.932 0.000999097 20.7664C-0.0541363 28.0183 2.13323 31.4647 16.4113 46.6169C24.1152 54.793 31.1545 61.4824 32.0547 61.4824C34.4897 61.4824 59.8219 34.3037 62.1316 29.2122C64.5836 23.8099 64.6207 19.0392 62.2519 13.8244C57.2265 2.75923 44.0622 -0.56794 35.1102 6.96355L32.0577 9.53286L29.0192 6.97558C22.3741 1.38456 12.6656 1.62548 6.26739 7.51491ZM27.4003 11.218C29.1877 12.9493 31.2828 14.3667 32.0577 14.3667C32.8326 14.3667 34.9278 12.9493 36.7151 11.218C40.9796 7.08385 47.9948 6.22875 52.8097 9.25418C59.5091 13.4635 61.5652 23.439 57.036 29.7545C55.7038 31.6121 49.5386 38.4368 43.3354 44.9218L32.0577 56.7117L20.78 44.9218C6.31751 29.8016 4.82986 27.6965 4.74765 22.2351C4.60831 13.0816 10.7765 6.91544 19.3335 7.65325C23.0476 7.97303 24.8951 8.79004 27.4003 11.218Z" fill="white"/>
</svg>
