<svg width="512" height="512" viewBox="0 0 512 512" fill="none" xmlns="http://www.w3.org/2000/svg">
<path fill-rule="evenodd" clip-rule="evenodd" d="M196.663 49.562C183.299 52.802 171.297 62.32 165.391 74.362C161.118 83.076 159.89 89.279 159.89 102.143V112.007L109.64 112.022C55.3857 112.038 52.1717 112.297 41.9567 117.473C33.9307 121.54 25.3857 130.217 21.3857 138.362C16.1137 149.098 15.6767 153.393 16.1397 189.923C16.5197 219.887 16.7297 223.097 18.7497 229.846C21.1637 237.913 24.6237 245.268 29.0247 251.687L31.8897 255.867V337.801C31.8897 388.095 32.2757 421.814 32.8887 425.121C34.5517 434.09 40.1047 444.065 46.9777 450.428C50.3237 453.526 55.2637 457.176 57.9567 458.541C69.1907 464.234 59.8586 463.976 255.504 463.992C373.895 464.002 437.461 463.657 440.999 462.986C459.398 459.497 475.501 443.406 478.891 425.121C479.504 421.814 479.89 388.095 479.89 337.801V255.867L482.755 251.687C487.156 245.268 490.616 237.913 493.03 229.846C495.05 223.097 495.26 219.887 495.64 189.923C495.906 168.943 495.666 155.246 494.966 151.46C491.479 132.595 475.531 116.441 457.004 113.006C453.877 112.426 430.694 112.007 401.754 112.007H351.89V102.143C351.89 89.307 350.662 83.076 346.43 74.446C340.22 61.783 326.916 51.667 312.999 49.028C304.279 47.374 203.785 47.835 196.663 49.562ZM312.506 82.569C318.494 87.041 319.363 89.267 319.728 101.077L320.067 112.007H255.978H191.89V102.572C191.89 92.438 192.773 88.868 196.207 85.13C200.904 80.015 200.564 80.042 257.067 80.283C308.532 80.502 309.809 80.554 312.506 82.569ZM456.505 146.569C458.024 147.703 460.194 149.874 461.328 151.393C463.309 154.047 463.39 155.398 463.39 185.831C463.39 216.741 463.332 217.664 461.002 224.007C458.004 232.168 453.55 239.113 447.276 245.41C429.921 262.828 402.617 273.869 376.64 273.972L367.89 274.007L367.874 264.257C367.853 252.218 365.857 247.756 358.924 244.257C353.318 241.427 350.462 241.427 344.856 244.257C337.923 247.756 335.927 252.218 335.906 264.257L335.89 274.007H255.89H175.89L175.874 264.257C175.853 252.218 173.857 247.756 166.924 244.257C161.318 241.427 158.462 241.427 152.856 244.257C145.923 247.756 143.927 252.218 143.906 264.257L143.89 274.007L135.64 274.006C119.59 274.003 103.396 269.877 87.5027 261.742C66.2917 250.884 52.5567 235.359 48.9917 218.208C47.5377 211.214 47.5077 158.144 48.9567 154.322C50.3747 150.577 53.7097 147.055 57.3897 145.415C59.8667 144.31 94.6846 144.115 257.067 144.292L453.743 144.507L456.505 146.569ZM78.3897 292.791C94.9357 300.959 110.32 304.798 130.055 305.684L143.721 306.297L144.055 317.082C144.335 326.085 144.731 328.323 146.452 330.625C150.373 335.871 153.568 337.507 159.89 337.507C166.212 337.507 169.407 335.871 173.328 330.625C175.054 328.318 175.445 326.084 175.728 316.937L176.067 306.007H255.89H335.713L336.052 316.937C336.335 326.084 336.726 328.318 338.452 330.625C342.373 335.871 345.568 337.507 351.89 337.507C358.212 337.507 361.407 335.871 365.328 330.625C367.05 328.323 367.445 326.085 367.725 317.076L368.06 306.284L381.225 305.734C403.607 304.799 424.84 298.725 442.66 288.16L447.93 285.035L447.66 353.448C447.394 420.772 447.357 421.905 445.328 424.622C444.194 426.141 442.024 428.311 440.505 429.445L437.743 431.507H255.89H74.0367L71.2747 429.445C69.7557 428.311 67.5856 426.141 66.4516 424.622C64.4226 421.905 64.3857 420.773 64.1197 353.34L63.8487 284.819L67.1197 286.831C68.9177 287.937 73.9897 290.619 78.3897 292.791Z" fill="white"/>
</svg>
