<svg width="100" height="104" viewBox="0 0 100 104" fill="none" xmlns="http://www.w3.org/2000/svg">
<path d="M11.4583 30.1249L51.0416 11.3749M11.4583 30.1249V73.8749M11.4583 30.1249L51.0416 51.9999M51.0416 11.3749L88.5416 30.1249M51.0416 11.3749V51.9999M88.5416 30.1249V73.8749M88.5416 30.1249L51.0416 51.9999M88.5416 73.8749L51.0416 92.6249M88.5416 73.8749L69.7916 62.9374L51.0416 51.9999M51.0416 92.6249L11.4583 73.8749M51.0416 92.6249V51.9999M11.4583 73.8749L51.0416 51.9999" stroke="#ABCDED" stroke-width="3"/>
<path d="M43.75 89.4999L51.0417 85.3333L58.3333 89.4999V95.75L51.0417 99.9166L43.75 95.75V89.4999Z" fill="#4CBEB3" stroke="#4CBEB3" stroke-width="2"/>
<path d="M4.1665 70.7499L11.4582 66.5833L18.7498 70.7499V76.9999L11.4582 81.1666L4.1665 76.9999V70.7499Z" fill="#4CBEB3" stroke="#4CBEB3" stroke-width="2"/>
<path d="M2.08325 26.107L11.4583 20.7499L20.8333 26.107V34.1427L11.4583 39.4999L2.08325 34.1427V26.107Z" fill="#8B7AB0" stroke="#8B7AB0" stroke-width="2"/>
<path d="M41.6665 47.982L51.0415 42.6249L60.4165 47.982V56.0177L51.0415 61.3749L41.6665 56.0177V47.982Z" fill="#4CBEB3" stroke="#4CBEB3" stroke-width="2"/>
<path d="M30.4999 40.5C39.5382 37.8788 43.9037 35.4159 50.9999 30C58.0961 35.4159 62.4617 37.8788 71.5001 40.5C72.0163 58.2479 67.8415 65.8575 50.9999 74.5C34.1582 65.8575 29.9836 58.2479 30.4999 40.5Z" fill="#60A0DC"/>
<path fill-rule="evenodd" clip-rule="evenodd" d="M45.0001 50.8V48.4C45.0001 45.0863 47.6864 42.4 51.0001 42.4C54.3138 42.4 57.0001 45.0863 57.0001 48.4V50.8C58.3256 50.8 59.4001 51.8745 59.4001 53.2V59.2C59.4001 60.5255 58.3256 61.6 57.0001 61.6H45.0001C43.6746 61.6 42.6001 60.5255 42.6001 59.2V53.2C42.6001 51.8745 43.6746 50.8 45.0001 50.8ZM54.6001 48.4V50.8H47.4001V48.4C47.4001 46.4118 49.0119 44.8 51.0001 44.8C52.9883 44.8 54.6001 46.4118 54.6001 48.4Z" fill="#FBFDFE"/>
<path d="M2.08325 69.857L11.4583 64.4999L20.8333 69.857V77.8927L11.4583 83.2499L2.08325 77.8927V69.857Z" fill="#60A0DC" stroke="#60A0DC" stroke-width="2"/>
<path d="M43.75 8.24992L51.0417 4.08325L58.3333 8.24992V14.4999L51.0417 18.6666L43.75 14.4999V8.24992Z" fill="#4CBEB3" stroke="#4CBEB3" stroke-width="2"/>
<path d="M81.25 70.7499L88.5416 66.5833L95.8333 70.7499V76.9999L88.5416 81.1666L81.25 76.9999V70.7499Z" fill="#4CBEB3" stroke="#4CBEB3" stroke-width="2"/>
<path d="M81.25 26.9999L88.5416 22.8333L95.8333 26.9999V33.2499L88.5416 37.4166L81.25 33.2499V26.9999Z" fill="#4CBEB3" stroke="#4CBEB3" stroke-width="2"/>
<path d="M41.6665 88.6071L51.0415 83.25L60.4165 88.6071V96.6429L51.0415 102L41.6665 96.6429V88.6071Z" fill="#4CBEB3" stroke="#4CBEB3" stroke-width="2"/>
<path d="M79.1665 69.8571L88.5415 64.5L97.9165 69.8571V77.8929L88.5415 83.25L79.1665 77.8929V69.8571Z" fill="#8B7AB0" stroke="#8B7AB0" stroke-width="2"/>
<path d="M79.1665 26.1071L88.5415 20.75L97.9165 26.1071V34.1429L88.5415 39.5L79.1665 34.1429V26.1071Z" fill="#4CBEB3" stroke="#4CBEB3" stroke-width="2"/>
<path d="M41.6665 7.35714L51.0415 2L60.4165 7.35714V15.3929L51.0415 20.75L41.6665 15.3929V7.35714Z" fill="#60A0DC" stroke="#60A0DC" stroke-width="2"/>
</svg>
