<svg width="234" height="150" viewBox="0 0 234 150" fill="none" xmlns="http://www.w3.org/2000/svg">
<g clip-path="url(#clip0_6231_203805)">
<g opacity="0.23">
<path d="M202.994 33.1233C202.972 36.2623 202.281 39.3605 200.968 42.2118C199.38 45.7225 197.247 48.9599 194.647 51.8042C191.215 55.6412 187.186 58.7108 182.781 61.3353C179.172 63.4301 175.432 65.2886 171.582 66.8989C167.234 68.7739 162.795 70.48 158.406 72.2706C154.569 73.8412 150.732 75.4502 147.046 77.3636C143.276 79.323 139.705 81.5842 136.525 84.421C133.264 87.3295 130.762 90.7674 129.401 94.9676C128.788 96.8178 128.552 98.7724 128.708 100.715C128.886 102.466 129.321 104.182 130 105.806C130.974 108.215 132.162 110.532 133.548 112.73C134.599 114.436 135.653 116.143 136.579 117.92C137.768 120.2 138.704 122.573 139.096 125.126C139.656 128.789 138.761 132.115 136.576 135.079C134.067 138.489 130.647 140.479 126.511 141.206C123.996 141.648 121.502 141.328 119.049 140.663C116.018 139.84 113.247 138.453 110.585 136.826C107.881 135.174 105.228 133.435 102.453 131.902C99.6773 130.37 96.7587 129.032 93.6226 128.298C91.526 127.82 89.3632 127.704 87.2276 127.955C83.7564 128.334 80.4004 129.234 77.0827 130.257C72.2455 131.774 67.4979 133.557 62.7401 135.307C59.4173 136.569 55.9947 137.55 52.5082 138.241C50.2989 138.67 48.0474 138.842 45.7986 138.753C41.6253 138.564 37.5128 137.68 33.6303 136.138C31.7655 135.399 30.1335 134.279 28.5731 133.041C27.5755 132.248 26.6342 131.403 25.964 130.298C25.4329 129.401 24.9621 128.47 24.5545 127.51C24.0148 126.275 24.0915 124.978 24.2757 123.704C24.621 121.351 25.5087 119.171 26.6674 117.107C28.5817 113.743 30.9191 110.639 33.6226 107.87C36.5643 104.8 39.7464 102.025 42.9592 99.265C45.773 96.8477 48.7965 94.7144 51.8533 92.6143C54.3985 90.8672 56.9258 89.0894 59.4531 87.3167C60.5965 86.5135 61.5762 85.5261 62.5892 84.5668C65.9865 81.3959 69.117 77.9506 71.9488 74.2659C76.6657 68.0576 80.1855 61.256 82.0605 53.6511C82.8035 50.6158 83.3765 47.5415 83.7769 44.4424C84.0788 42.112 84.2604 39.7741 84.3934 37.4258C84.6262 33.3177 84.5904 29.207 84.6083 25.0964C84.6083 23.6434 84.5852 22.1905 84.6364 20.7478C84.7541 17.4761 85.0022 14.2198 85.9691 11.0607C86.8286 8.24694 88.2201 5.75802 90.397 3.75001C92.4854 1.75555 95.1489 0.469445 98.0095 0.0741878C100.567 -0.268582 102.811 0.529508 104.809 2.12057C106.147 3.2031 107.326 4.46898 108.311 5.8808C109.551 7.66304 110.662 9.53173 111.636 11.4725C112.726 13.5778 113.705 15.7418 114.869 17.8112C115.911 19.7384 117.162 21.5443 118.601 23.1958C120.114 24.8448 121.961 26.1528 124.019 27.0327C126.576 28.1552 129.363 28.6566 132.151 28.4959C134.347 28.3523 136.517 27.9355 138.61 27.2553C140.872 26.5396 143.083 25.6739 145.23 24.6641C148.721 23.0602 152.198 21.418 155.695 19.8039C159.995 17.8342 164.392 16.1153 169.024 15.0895C171.116 14.6198 173.239 14.295 175.376 14.1175C177.293 13.9607 179.219 13.9393 181.139 14.0536C185.462 14.3094 189.649 15.1458 193.489 17.2741C196.962 19.2002 199.715 21.8298 201.383 25.4928C202.165 27.2081 202.669 29.0369 202.876 30.9106C202.958 31.655 202.984 32.3892 202.994 33.1233Z" fill="#8A79AF"/>
</g>
<path d="M207.115 44.6905C208.332 43.5444 209.731 42.6097 211.256 41.9254C212.485 41.377 213.773 40.9694 215.093 40.7103C215.514 40.6224 215.942 40.5711 216.372 40.5569C217.823 40.5287 219.263 40.3011 220.721 40.3931C220.984 40.4182 221.246 40.4617 221.504 40.5236C222.904 40.7862 224.268 41.2156 225.566 41.8026C226.195 42.0942 226.845 42.3525 227.441 42.7055C228.594 43.3681 229.59 44.2732 230.359 45.3582C230.966 46.2253 231.664 47.0337 232.168 47.9699C232.843 49.2258 233.099 50.6123 233.421 51.9808C233.524 52.4131 233.421 52.8761 233.659 53.2802V56.3498C233.625 56.3726 233.598 56.403 233.578 56.4385C233.559 56.4741 233.548 56.5139 233.547 56.5545C233.513 57.9332 233.066 59.2199 232.628 60.504C232.315 61.364 231.936 62.1987 231.495 63.0006C231.393 63.195 231.385 63.4354 231.206 63.5915C230.964 63.633 230.734 63.7282 230.533 63.8703C228.047 65.1825 225.366 65.6967 222.588 65.7964C221.569 65.8142 220.551 65.7449 219.544 65.5893C218.357 65.4231 217.19 65.1342 216.063 64.7272C214.001 64.0007 212.282 62.7397 210.74 61.2253C209.991 60.4758 209.318 59.6551 208.729 58.7748C207.885 57.574 207.262 56.2322 206.89 54.8125C206.649 53.866 206.496 52.9093 206.345 51.9424C206.12 50.4326 206.168 48.8946 206.488 47.402C206.652 46.6014 206.913 45.8314 207.151 45.0538C207.164 44.9387 207.302 44.8057 207.115 44.6905Z" fill="#ABCDED"/>
<path d="M160.711 16.719C160.877 16.8955 161.094 16.8264 161.289 16.8315C163.8 16.9444 166.246 17.6726 168.41 18.9521C169.158 19.3678 169.862 19.859 170.51 20.4178C170.595 20.4711 170.687 20.5116 170.784 20.5381C170.991 20.8159 171.231 21.0683 171.498 21.2901C172.39 22.1271 173.173 23.0723 173.83 24.1039C174.143 24.5976 174.48 25.0734 174.808 25.5594C174.726 25.6233 174.754 25.6591 174.838 25.6796C174.832 25.8637 174.876 26.046 174.966 26.2065C175.222 26.8486 175.508 27.4855 175.7 28.1429C176.011 29.2768 176.227 30.4344 176.348 31.6039C176.479 33.1006 176.393 34.6084 176.092 36.0804C175.844 37.3158 175.466 38.5214 174.964 39.6769C174.613 39.815 174.237 39.7664 173.879 39.8329C172.616 40.0388 171.338 40.1432 170.057 40.145C167.551 40.2115 165.039 40.1936 162.532 40.145C161.759 40.1575 160.987 40.0837 160.23 39.925C160.165 39.8788 160.096 39.8378 160.025 39.8022C159.221 39.5012 158.445 39.1314 157.705 38.6972C155.991 37.6571 154.465 36.3358 153.19 34.7886C151.794 33.1306 150.682 31.2534 149.898 29.2326C149.077 27.1199 148.66 24.8716 148.67 22.6049C148.67 22.3491 148.78 22.0703 148.547 21.8503C148.639 21.6764 148.865 21.5638 148.803 21.3157C148.803 21.3081 148.805 21.3005 148.808 21.2935C148.811 21.2865 148.815 21.2802 148.821 21.275C148.826 21.2697 148.833 21.2656 148.84 21.2629C148.847 21.2603 148.854 21.2591 148.862 21.2594C148.987 21.2594 149.105 21.2594 149.172 21.1315C149.203 21.1234 149.231 21.1073 149.254 21.0849C149.277 21.0624 149.293 21.0344 149.302 21.0036C149.404 20.9729 149.399 20.9269 149.32 20.8732C149.481 20.7478 149.637 20.6174 149.803 20.5022C151.034 19.6572 152.316 18.8884 153.64 18.2001C153.812 18.108 154.047 18.085 154.088 17.8317C154.392 17.8277 154.692 17.7697 154.976 17.6603C156.47 17.108 158.051 16.8307 159.644 16.8418C159.802 16.8418 159.974 16.8776 160.097 16.7318L160.711 16.719Z" fill="#FDECA5"/>
<path d="M76.7297 146.823C75.7183 146.259 74.7677 145.592 73.8929 144.833C71.5155 142.89 69.6802 140.365 68.5646 137.504C68.5255 137.39 68.4956 137.273 68.4751 137.154C68.5539 137.168 68.6317 137.188 68.7079 137.213C69.3346 137.469 69.5878 137.382 70.0022 136.832C70.1838 136.576 70.3475 136.335 70.5138 136.064C71.0254 135.228 71.6265 134.465 72.6165 134.123C72.9994 133.98 73.3394 133.741 73.6038 133.429C73.7497 133.271 73.8776 133.064 74.1334 133.048C74.3017 133.226 74.4291 133.438 74.5068 133.67C74.7617 134.203 75.0558 134.716 75.3868 135.205C76.5251 136.763 77.648 138.325 79.124 139.607C79.9835 140.351 80.7611 141.19 81.6666 141.886C81.6692 141.922 81.6743 141.958 81.682 141.994C81.0752 142.187 80.5318 142.541 80.1088 143.017C79.9877 143.142 79.897 143.293 79.8438 143.459C79.7905 143.625 79.7762 143.801 79.8018 143.973C79.8018 144.109 79.8557 144.239 79.9517 144.335C80.0476 144.431 80.1777 144.485 80.3134 144.485C80.6001 144.492 80.884 144.428 81.1397 144.298C81.7386 144.045 82.3605 143.85 82.9968 143.715C83.3422 143.695 83.6763 143.584 83.9662 143.395L84.222 143.495C86.9974 144.981 89.8496 146.209 93.0112 146.687C94.5989 146.955 96.2165 146.993 97.8151 146.803C99.1834 146.614 100.535 146.321 101.859 145.928C102.065 145.836 102.292 145.807 102.514 145.843C101.754 146.584 100.893 147.214 99.9562 147.713C98.1656 148.752 96.1908 149.248 94.147 149.529C92.6685 149.726 91.1797 149.818 89.691 149.893C89.4991 149.893 89.2766 149.821 89.118 150.013H88.1357C87.8492 149.801 87.5116 149.888 87.1995 149.87C85.4832 149.796 83.7783 149.555 82.1091 149.148C80.9683 148.844 79.8249 148.532 78.7838 147.951C79.2613 147.788 79.691 147.51 80.0346 147.14C80.3931 146.693 80.8398 146.325 81.3469 146.058C81.5629 145.944 81.7675 145.809 81.9582 145.657C82.086 145.553 82.1772 145.411 82.2182 145.252C82.2591 145.092 82.2478 144.924 82.1859 144.772C82.0979 144.645 81.9702 144.551 81.8229 144.504C81.6757 144.458 81.5172 144.462 81.3724 144.516C81.2567 144.556 81.1446 144.605 81.0373 144.664C80.7071 144.813 80.3614 144.924 80.0065 144.997C79.4079 145.148 78.7965 145.099 78.1929 145.201C77.1492 145.38 76.7323 145.785 76.7297 146.823Z" fill="#FB9402"/>
<path d="M0.560595 57.3679L0.355957 57.3423V54.8867L0.570827 54.8636C0.604081 55.6975 0.609197 56.534 0.560595 57.3679Z" fill="#BDB3D0"/>
<path d="M5.26733 41.2449C5.63313 40.4417 6.30587 39.8918 6.93514 39.3188C7.70238 38.6464 8.50962 38.0211 9.35243 37.4463C11.4336 35.9138 13.8137 34.8357 16.3383 34.2821C17.254 34.0903 18.1442 33.7859 19.0676 33.6119C19.4493 33.5455 19.8365 33.5155 20.2238 33.5224C21.3084 33.5224 22.3956 33.4968 23.475 33.5531C24.3268 33.5966 25.1735 33.7603 26.033 33.837C27.6036 33.9803 29.0514 34.5175 30.4711 35.1518C31.396 35.5865 32.2688 36.1246 33.0726 36.7557C33.3754 36.9978 33.7019 37.2086 34.0472 37.385C35.0125 37.8769 35.9044 38.5011 36.6972 39.2395C37.0197 39.5515 37.3189 39.8866 37.5925 40.2422C38.4802 41.2833 39.4189 42.2886 40.1966 43.409C41.5529 45.3827 42.5017 47.6073 42.9873 49.9523C43.4259 52.072 43.5816 54.2404 43.4503 56.401C43.4153 57.4996 43.2981 58.5941 43.0999 59.6752C42.8419 60.7891 42.4743 61.8747 42.0025 62.9162C41.3874 64.4089 40.6703 65.8576 39.8563 67.2519C38.7888 68.9619 37.3829 70.4356 35.7252 71.5826C35.4157 71.8077 35.1471 72.0942 34.7557 72.2067C33.2363 71.9509 31.768 71.4675 30.2537 71.1836C29.4326 71.025 28.6626 70.672 27.8594 70.4494C27.1399 70.2349 26.4364 69.9699 25.7542 69.6564C24.7157 69.1934 23.6541 68.7765 22.6437 68.2495C21.566 67.7235 20.5251 67.1253 19.5281 66.459C18.6353 65.8246 17.7196 65.2235 16.8166 64.6019C16.4329 64.3461 16.0492 64.0673 15.686 63.7756C14.7901 63.01 13.9688 62.1612 13.2329 61.2407C12.0076 59.7681 10.9193 58.1866 9.98169 56.5161C9.45731 55.6054 8.93548 54.6871 8.48272 53.7407C7.70932 52.1485 7.07017 50.4946 6.5719 48.7961C6.22658 47.6041 5.92729 46.4018 5.69452 45.1817C5.41434 43.8881 5.27115 42.5685 5.26733 41.2449V41.2449Z" fill="#BDB3D0"/>
<path d="M81.6536 141.894C80.7481 141.198 79.9704 140.359 79.111 139.615C77.635 138.336 76.5121 136.77 75.3738 135.212C75.0428 134.723 74.7487 134.21 74.4938 133.677C74.4161 133.446 74.2887 133.233 74.1204 133.056C74.1204 133.015 74.1204 132.977 74.1357 132.936C74.4238 132.709 74.735 132.514 75.0642 132.352C75.4619 132.191 75.8341 131.973 76.1693 131.705C76.811 131.203 77.5131 130.783 78.2592 130.454C78.8808 130.165 79.5049 129.976 80.2032 130.211C80.4593 130.27 80.7272 130.249 80.9706 130.15C81.9938 129.823 82.6921 129.091 83.2856 128.247C83.526 127.907 83.5567 127.423 83.3547 127.283C83.2165 127.194 83.0567 127.146 82.8929 127.143C82.7291 127.14 82.5675 127.182 82.4261 127.265C82.0737 127.423 81.7319 127.604 81.4029 127.807C80.9144 128.145 80.3434 128.345 79.7505 128.385C79.1138 128.41 78.4955 128.605 77.9599 128.95C76.7691 129.698 75.5037 130.319 74.1843 130.805C73.8764 130.965 73.5383 131.059 73.1918 131.081C72.739 129.802 72.2121 128.549 71.8796 127.244C71.6007 126.124 71.2094 125.029 71.1429 123.865C71.5157 123.968 71.9026 124.01 72.2888 123.99C73.2481 123.99 74.2073 123.99 75.1666 123.99C75.5965 123.995 76.0255 123.952 76.4456 123.86C76.5588 123.849 76.6669 123.807 76.7577 123.738C76.8486 123.67 76.9187 123.578 76.9603 123.472C77.0018 123.366 77.0133 123.25 76.9933 123.138C76.9734 123.026 76.9228 122.922 76.8472 122.837C76.2204 122.069 75.4479 121.558 74.4043 121.519C73.5064 121.486 72.7416 121.824 71.9896 122.256C71.6621 122.443 71.3859 122.752 70.9664 122.745C70.9756 122.477 70.8843 122.216 70.7106 122.013C70.71 121.972 70.7235 121.931 70.7489 121.898C70.7602 121.895 70.7706 121.889 70.7794 121.881C70.7882 121.874 70.7953 121.864 70.8002 121.853C70.805 121.843 70.8075 121.831 70.8075 121.819C70.8075 121.808 70.805 121.796 70.8001 121.785C70.7487 121.669 70.7388 121.538 70.7719 121.415C70.8115 121.406 70.8482 121.387 70.8787 121.36C70.9091 121.333 70.9322 121.299 70.9459 121.261C71.2443 120.439 71.4168 119.577 71.4575 118.703C71.4728 117.728 71.4575 117.728 70.5213 117.695C70.5213 117.48 70.4931 117.263 70.4778 117.045C70.9254 116.332 71.5393 115.767 72.0586 115.101C73.6215 113.119 75.6628 111.745 77.8729 110.594C79.3562 109.859 80.9465 109.364 82.5847 109.126C83.9343 108.921 85.2935 108.785 86.657 108.719C87.7595 108.65 88.862 108.62 89.9619 108.65C92.4546 108.678 94.9233 109.141 97.2573 110.016C99.2944 110.826 101.193 111.948 102.885 113.342C104.314 114.47 105.559 115.814 106.576 117.324C107.438 118.639 107.947 120.107 108.385 121.596C108.819 123.125 109.155 124.68 109.39 126.252C109.389 126.313 109.382 126.374 109.369 126.433C109.316 126.408 109.231 126.392 109.213 126.351C108.991 125.84 108.548 125.546 108.09 125.262C107.527 124.896 106.933 124.58 106.315 124.318C103.975 123.379 101.56 123.279 99.1093 123.668C98.2242 123.809 97.4543 123.699 96.7815 123.075C96.46 122.789 96.0708 122.59 95.6509 122.497C94.5279 122.218 93.4229 122.387 92.3408 122.694C91.8185 122.864 91.2829 122.991 90.7395 123.072C89.9568 123.159 89.1485 123.236 88.4374 122.724C88.3044 122.627 88.153 122.558 87.9926 122.521C87.8321 122.484 87.6658 122.48 87.5037 122.509C87.166 122.571 86.831 122.658 86.4959 122.747C85.9843 122.883 85.4727 123.054 84.9611 123.169C84.3804 123.297 83.8407 123.295 83.4928 122.658C83.4451 122.578 83.3799 122.511 83.3022 122.461C83.2246 122.411 83.1364 122.379 83.0446 122.368C82.9527 122.357 82.8596 122.368 82.7724 122.398C82.6852 122.429 82.6061 122.479 82.5412 122.545C82.3319 122.71 82.1527 122.91 82.0117 123.136C81.518 124.001 81.825 124.609 82.7791 124.847C83.567 125.039 84.3139 124.881 85.0813 124.773C85.7045 124.668 86.3408 124.668 86.964 124.773C87.7164 124.96 88.4968 125.007 89.2662 124.911C90.3597 124.682 91.4741 124.566 92.5915 124.566C93.2841 124.572 93.9709 124.692 94.6251 124.919C95.0063 125.06 95.3925 125.198 95.7788 125.313C97.2112 125.745 98.7077 125.73 100.176 125.927C100.943 126.029 101.711 126.093 102.478 126.224C104.204 126.529 105.867 127.116 107.402 127.96C108.111 128.339 108.814 128.472 109.5 127.912C109.671 128.05 109.625 128.247 109.625 128.423C109.625 129.505 109.669 130.593 109.625 131.672C109.556 132.914 109.339 134.144 108.978 135.335C108.491 137.022 107.858 138.663 107.088 140.241C106.365 141.688 105.437 143.022 104.333 144.204C104.015 144.544 103.604 144.782 103.269 145.112C103.074 145.304 103.043 145.659 102.701 145.703C102.619 145.726 102.527 145.728 102.504 145.836H102.516C102.295 145.799 102.067 145.829 101.862 145.92C100.539 146.311 99.1889 146.6 97.8226 146.787C96.224 146.978 94.6063 146.939 93.0187 146.672C89.8698 146.194 87.0049 144.966 84.2295 143.48C84.319 143.344 84.4853 143.336 84.6106 143.308C85.4829 143.114 86.3577 142.94 87.2326 142.758C88.0925 142.573 88.979 142.543 89.8494 142.671C91.8676 142.975 93.8187 143.623 95.6176 144.587C96.3722 144.997 97.1217 145.416 97.8942 145.779C98.6818 146.188 99.5912 146.295 100.452 146.081C100.632 146.042 100.797 145.954 100.93 145.827C101.063 145.7 101.159 145.54 101.207 145.362C101.317 145.009 101.125 144.746 100.892 144.5C100.585 144.175 100.158 144.063 99.7948 143.843C99.6643 143.766 99.452 143.756 99.4085 143.495C99.9861 143.59 100.544 143.778 101.061 144.053C101.395 144.231 101.762 144.34 102.139 144.372C102.516 144.404 102.896 144.359 103.256 144.239C103.88 144.048 104.279 143.523 104.197 143.063C104.107 142.463 103.828 141.907 103.4 141.477C102.972 141.047 102.418 140.766 101.818 140.674C100.978 140.516 100.157 140.272 99.3676 139.945C98.4826 139.573 97.6094 139.178 96.7482 138.76C96.2858 138.548 95.7914 138.414 95.2851 138.364C94.9181 138.343 94.5518 138.414 94.2184 138.568C93.9905 138.666 93.8028 138.838 93.6863 139.057C93.3717 139.602 93.5584 140.236 94.1596 140.392C95.1273 140.654 96.0139 141.154 96.738 141.848C96.9401 142.037 97.2164 142.18 97.2496 142.51C96.9513 142.442 96.662 142.339 96.3876 142.203C95.5629 141.797 94.6919 141.493 93.7938 141.298C92.4585 141.042 91.1258 140.835 89.7419 141.009C88.7517 141.113 87.7708 141.292 86.8079 141.546C86.0682 141.777 85.2986 141.899 84.5237 141.907C84.1118 141.907 83.7179 141.802 83.3112 141.771C82.7562 141.765 82.2016 141.806 81.6536 141.894V141.894ZM100.792 133.555C100.894 133.554 100.996 133.567 101.094 133.593C102.136 134.008 103.091 134.616 103.908 135.384C104.119 135.636 104.398 135.823 104.711 135.923C105.287 136.076 105.796 136.416 106.157 136.89C106.477 137.207 106.876 137.433 107.313 137.545C107.417 137.587 107.532 137.595 107.642 137.568C107.751 137.542 107.85 137.482 107.924 137.397C108.436 136.885 108.691 135.709 107.814 135.151C107.458 134.911 107.151 134.607 106.909 134.253C106.588 133.792 106.166 133.411 105.675 133.138C105.184 132.866 104.638 132.709 104.077 132.68C103.255 132.631 102.461 132.366 101.775 131.912C101.3 131.555 100.746 131.317 100.161 131.219C99.3329 131.104 98.4968 131.058 97.6614 131.084C97.4168 131.09 97.1722 131.069 96.9324 131.02C95.6713 130.795 94.4665 130.334 93.1901 130.155C92.7678 130.09 92.3361 130.128 91.9316 130.265C91.6595 130.362 91.4228 130.539 91.2518 130.772C91.0809 131.005 90.9835 131.284 90.9723 131.572C90.9549 131.667 90.9646 131.765 91.0005 131.855C91.0363 131.944 91.0968 132.022 91.1749 132.079C91.253 132.135 91.3456 132.169 91.4419 132.175C91.5382 132.182 91.6344 132.161 91.7193 132.115C91.8325 132.068 91.9365 132.001 92.0262 131.918C92.1968 131.755 92.4102 131.645 92.6413 131.6C92.8723 131.554 93.1115 131.576 93.3308 131.662C93.8018 131.795 94.2612 131.966 94.7044 132.173C95.6227 132.583 96.5641 132.89 97.5949 132.823C97.9607 132.8 98.3316 132.823 98.7 132.823C98.9225 132.823 98.9225 132.823 99.1809 133.061C98.5822 133.058 97.9839 133.096 97.3903 133.174C96.9675 133.257 96.5315 133.244 96.1139 133.138C95.6963 133.032 95.3075 132.834 94.9756 132.56C94.9135 132.507 94.8467 132.46 94.776 132.419C94.2311 132.09 93.6005 131.932 92.965 131.964C92.6401 131.992 92.3025 132.109 92.2334 132.424C92.2059 132.572 92.14 132.711 92.0421 132.826C91.9442 132.941 91.8179 133.028 91.6758 133.079C91.4455 133.179 91.42 133.386 91.4507 133.591C91.4602 133.694 91.5026 133.791 91.5718 133.868C91.6409 133.945 91.733 133.997 91.8344 134.018C91.9953 134.048 92.1598 134.056 92.3229 134.041C92.8765 134.011 93.4282 134.126 93.9242 134.373C94.7249 134.77 95.5665 134.721 96.385 134.601C97.0073 134.497 97.6462 134.562 98.2344 134.79C98.3985 134.869 98.5699 134.931 98.746 134.977C99.1476 135.049 99.5543 135.12 99.8843 134.757C100.027 134.64 100.195 134.559 100.375 134.519C101.025 134.284 101.069 134.164 100.769 133.55L100.792 133.555ZM90.7216 115.025C89.9489 115.035 89.1786 115.113 88.4195 115.257C86.0226 115.61 83.9583 116.767 81.8838 117.91C81.7278 117.997 81.628 118.099 81.6587 118.294C81.6894 118.488 81.8659 118.57 82.068 118.585C82.4362 118.608 82.8044 118.54 83.1398 118.386C83.5695 118.202 83.9993 118.01 84.4367 117.841C85.598 117.388 86.8131 117.329 88.0434 117.35C89.5143 117.375 90.9542 117.777 92.2257 118.516C92.4453 118.668 92.6966 118.767 92.9604 118.806C93.2242 118.846 93.4935 118.825 93.7477 118.744C93.9995 118.66 94.2557 118.59 94.5151 118.534C95.0497 118.411 95.5639 118.215 96.1267 118.209C97.1683 118.194 98.2003 118.41 99.1476 118.844C99.6592 119.071 100.171 119.355 100.772 119.322C101.312 119.284 101.506 118.954 101.284 118.445C101.141 118.151 100.955 117.881 100.731 117.644C100.368 117.209 100.012 116.731 99.452 116.513C98.7604 116.205 98.0012 116.079 97.247 116.148C96.6582 116.186 96.0791 116.316 95.5306 116.534C94.9756 116.79 94.4691 116.733 94.0572 116.224C93.841 115.979 93.5808 115.776 93.2899 115.626C92.4355 115.132 91.4788 115.099 90.7216 115.025V115.025ZM79.2107 118.652C79.4358 118.565 79.5637 118.506 79.6967 118.465C79.7554 118.453 79.808 118.421 79.8454 118.374C79.8828 118.328 79.9026 118.269 79.9014 118.209C79.9059 118.137 79.8855 118.065 79.8436 118.006C79.8017 117.947 79.7409 117.904 79.6712 117.885C79.5929 117.863 79.5119 117.852 79.4307 117.854C78.5508 117.854 77.6708 117.833 76.7909 117.854C76.5855 117.854 76.3824 117.896 76.1935 117.976C76.0045 118.057 75.8337 118.174 75.6909 118.322C75.6149 118.385 75.5561 118.466 75.5202 118.557C75.4843 118.649 75.4724 118.749 75.4857 118.846C75.499 118.944 75.5371 119.037 75.5963 119.115C75.6555 119.194 75.7339 119.257 75.824 119.297C76.097 119.441 76.4122 119.484 76.7141 119.419C76.8472 119.401 76.9699 119.266 77.1132 119.371C77.1285 119.468 77.0595 119.519 77.0058 119.578C76.952 119.637 76.8881 119.693 76.8369 119.757C76.356 120.376 76.4276 121.036 77.0313 121.522C77.1106 121.586 77.2053 121.629 77.2871 121.686C78.3538 122.376 80.4309 121.941 81.2213 121.238C82.0936 120.471 81.7892 119.465 80.9655 119.094C80.3994 118.888 79.8141 118.739 79.2184 118.649L79.2107 118.652ZM103.225 116.861C103.143 116.861 103.061 116.861 102.969 116.861C102.522 116.887 102.156 117.117 102.074 117.473C101.992 117.828 102.273 118.058 102.514 118.271C102.579 118.32 102.649 118.362 102.724 118.396C103.445 118.772 104.109 119.25 104.693 119.816C104.912 120.049 105.197 120.21 105.509 120.277C105.822 120.345 106.148 120.315 106.443 120.192C106.547 120.158 106.638 120.092 106.702 120.004C106.766 119.915 106.8 119.808 106.799 119.698C106.845 119.33 106.619 119.084 106.471 118.803C105.801 117.496 104.588 117.058 103.233 116.859L103.225 116.861ZM79.3233 124.1C79.4827 124.104 79.6402 124.064 79.7786 123.985C80.1722 123.813 80.5412 123.589 80.876 123.32C81.8154 122.505 82.8159 121.764 83.8688 121.102C84.2743 120.856 84.5706 120.465 84.6976 120.008C84.7539 119.826 84.9201 119.629 84.7334 119.437C84.6447 119.366 84.5387 119.32 84.4262 119.304C84.3138 119.288 84.199 119.302 84.0939 119.345C83.9397 119.397 83.7941 119.471 83.6616 119.565C83.1117 119.89 82.687 120.371 82.2189 120.788C81.3709 121.583 80.4375 122.282 79.4358 122.873C79.2239 122.997 79.0409 123.166 78.8987 123.366C78.8373 123.449 78.8025 123.549 78.7989 123.652C78.7952 123.755 78.8229 123.857 78.8782 123.944C78.9728 124.113 79.1519 124.103 79.331 124.103L79.3233 124.1ZM81.7585 114.656C81.7503 114.439 81.6943 114.225 81.5944 114.032C81.4944 113.838 81.3531 113.669 81.1804 113.536C81.1333 113.497 81.0789 113.468 81.0205 113.451C80.9621 113.433 80.9008 113.427 80.8402 113.434C80.2365 113.472 79.6098 114.186 79.6788 114.789C79.6676 114.94 79.6979 115.091 79.7666 115.225C79.8353 115.36 79.9396 115.473 80.0682 115.552C80.1968 115.631 80.3447 115.674 80.4957 115.674C80.6468 115.675 80.7951 115.635 80.9246 115.557C81.3262 115.324 81.6792 115.068 81.7662 114.659L81.7585 114.656ZM75.2459 115.472C75.2459 115.171 75.1001 114.976 74.8673 115.05C74.6184 115.112 74.3866 115.229 74.1891 115.392C73.9916 115.555 73.8335 115.761 73.7264 115.994C73.6997 116.07 73.6932 116.151 73.7077 116.23C73.7221 116.308 73.757 116.382 73.8087 116.443C73.8605 116.504 73.9274 116.551 74.0027 116.578C74.078 116.605 74.1592 116.612 74.238 116.598C74.6882 116.521 75.2407 115.897 75.2535 115.475L75.2459 115.472ZM77.5711 114.636C77.571 114.505 77.5294 114.377 77.4522 114.271C77.375 114.164 77.2662 114.086 77.1413 114.045C76.9277 114.057 76.7237 114.138 76.5607 114.277C76.3976 114.415 76.2844 114.603 76.2384 114.812C76.2238 114.924 76.2468 115.038 76.3037 115.136C76.3606 115.233 76.4483 115.31 76.553 115.352C76.9137 115.511 77.5864 115.04 77.5787 114.638L77.5711 114.636Z" fill="#FBC998"/>
<path d="M154.073 17.865C154.032 18.1208 153.796 18.1413 153.625 18.2334C152.3 18.9217 151.019 19.6905 149.788 20.5355C149.622 20.6532 149.466 20.7913 149.305 20.9065C149.305 20.9499 149.305 20.9934 149.287 21.0369C149.192 21.0369 149.141 21.0625 149.156 21.1648C149.013 21.1085 148.931 21.2083 148.847 21.2927C148.839 21.2924 148.832 21.2936 148.824 21.2962C148.817 21.2989 148.811 21.303 148.805 21.3083C148.8 21.3135 148.795 21.3198 148.792 21.3268C148.789 21.3338 148.788 21.3414 148.788 21.349C148.514 21.529 148.262 21.7411 148.038 21.9808C147.468 22.507 146.939 23.0756 146.455 23.6819C146.384 23.7933 146.291 23.8894 146.182 23.9645C146.073 24.0396 145.95 24.0922 145.821 24.1193C144.92 24.2954 144.038 24.5522 143.183 24.8867C141.178 25.6183 139.472 26.7361 138.298 28.5855C137.315 30.1331 137.507 31.8725 138.507 33.2871C139.088 34.0811 139.819 34.7537 140.659 35.267C141.889 36.0497 143.24 36.5766 144.593 37.0959C145.442 37.4411 146.312 37.7349 147.197 37.9759C148.806 38.4312 150.461 38.6614 152.103 38.9428C153.346 39.1551 154.592 39.3469 155.845 39.4774C156.574 39.5541 157.301 39.6513 158.027 39.7332C158.749 39.8576 159.479 39.926 160.212 39.9378C160.969 40.0965 161.741 40.1703 162.514 40.1578C165.021 40.2039 167.533 40.2218 170.04 40.1578C171.32 40.156 172.598 40.0517 173.861 39.8457C174.219 39.7792 174.595 39.8278 174.946 39.6897C177.204 39.4723 179.448 39.1781 181.568 38.2956C182.193 38.0387 182.786 37.7108 183.336 37.3185C184.034 36.8384 184.543 36.1306 184.777 35.3162C185.01 34.5018 184.953 33.6316 184.615 32.8548C183.848 30.967 182.517 29.5627 180.798 28.5062C179.158 27.5032 177.415 26.6799 175.598 26.0506C175.319 25.9836 175.057 25.858 174.831 25.6822L174.8 25.562C174.473 25.076 174.135 24.6002 173.823 24.1065C173.166 23.0749 172.382 22.1297 171.49 21.2927C171.223 21.0709 170.984 20.8185 170.776 20.5407C171.124 20.3002 171.477 20.3974 171.833 20.5125C173.312 20.9927 174.762 21.5607 176.174 22.2136C177.87 22.981 179.568 23.733 181.226 24.5772C183.323 25.6489 185.37 26.8 187.219 28.2683C188.403 29.1817 189.439 30.2733 190.289 31.5042C191.381 33.1259 191.652 34.9523 191.475 36.8376C191.307 38.6588 190.616 40.2806 189.214 41.5315C188.445 42.2063 187.596 42.7844 186.687 43.253C184.515 44.3938 182.187 45.0768 179.796 45.5552C177.768 45.9455 175.718 46.2019 173.657 46.3225C172.122 46.4223 170.587 46.4249 169.052 46.4632C167.42 46.4632 165.787 46.4564 164.154 46.4428C163.685 46.4603 163.215 46.4509 162.747 46.4146C161.394 46.2484 160.03 46.2509 158.674 46.0898C157.626 45.9644 156.567 45.9286 155.513 45.8493C154.032 45.7393 152.563 45.5424 151.093 45.3505C150.65 45.2917 150.215 45.1433 149.76 45.2175C149.749 45.1852 149.728 45.1573 149.7 45.1379C149.672 45.1186 149.638 45.1088 149.604 45.1101C145.27 44.3621 141.055 43.0418 137.07 41.1836C134.301 39.8934 131.826 38.0495 129.797 35.7658C128.718 34.5274 127.95 33.0486 127.559 31.453C127.083 29.5934 127.559 27.9204 128.697 26.4445C130.722 23.8562 133.347 21.8008 136.346 20.4562C138.051 19.6257 139.838 18.9775 141.679 18.5224C143.644 18.0497 145.651 17.7696 147.67 17.686C148.24 17.6706 148.808 17.6015 149.381 17.5964C150.949 17.5866 152.516 17.6764 154.073 17.865V17.865Z" fill="#EE7F7B"/>
<path d="M5.26723 41.2449C5.27105 42.5685 5.41424 43.888 5.69441 45.1816C5.92719 46.4018 6.22647 47.604 6.5718 48.796C7.07006 50.4945 7.70922 52.1485 8.48261 53.7406C8.93538 54.6871 9.45721 55.6054 9.98159 56.516C10.92 58.1813 12.0083 59.7575 13.2328 61.2253C13.9687 62.1458 14.79 62.9945 15.6859 63.7602C16.0491 64.0518 16.4328 64.3204 16.8165 64.5864C17.7195 65.208 18.6352 65.8092 19.528 66.4435C20.525 67.1099 21.5659 67.7081 22.6436 68.2341C23.654 68.7611 24.7156 69.178 25.7541 69.641C26.4363 69.9545 27.1398 70.2195 27.8593 70.434C28.6625 70.6617 29.4325 71.0095 30.2536 71.1681C31.7679 71.4623 33.2362 71.9355 34.7556 72.1913C33.9882 72.8538 33.0827 73.3475 32.2386 73.918C30.7038 74.9412 28.9593 75.3376 27.207 75.7469C24.7821 76.3097 22.3187 76.2585 19.8861 76.0564C16.9025 75.8185 14.0076 74.9278 11.4064 73.4473C11.2327 73.3381 11.0505 73.2432 10.8615 73.1634C8.79213 72.396 7.30594 70.8868 5.84022 69.3392C4.58241 67.9941 3.51906 66.4796 2.68111 64.8397C1.68606 62.9314 0.890527 60.9413 0.70891 58.7645C0.665425 58.2989 0.611706 57.8334 0.560547 57.3653C0.609149 56.5314 0.604033 55.6949 0.560547 54.861C0.629612 53.4285 0.980056 52.0319 1.12842 50.6148C1.43538 47.6731 2.83715 45.1867 4.2645 42.7029C4.52747 42.1716 4.86514 41.6806 5.26723 41.2449V41.2449Z" fill="#8B7BB0"/>
<path d="M111.518 81.7403C110.947 81.1564 110.344 80.6048 109.712 80.0878C108.578 79.117 107.503 78.0782 106.494 76.9773C104.844 75.1637 103.054 73.4729 101.263 71.8025C97.2319 68.0602 93.2747 64.2411 89.453 60.2916C88.3736 59.1738 87.2762 58.0738 86.1814 56.9662C83.5006 54.2624 80.9964 51.4026 78.5714 48.4737C77.2924 46.9389 76.1925 45.2507 74.9902 43.6468C74.1205 42.4881 73.3122 41.2807 72.4808 40.0912C72.2985 39.8711 72.1479 39.6266 72.0332 39.3648C72.4839 38.5658 73.0043 37.8082 73.5885 37.101C74.1435 37.8683 74.6296 38.5897 75.1642 39.2752C76.9343 41.5501 78.7146 43.8156 80.5052 46.0718C80.6996 46.3276 80.8864 46.6115 81.2394 46.6831C81.1857 46.9389 81.3877 47.0848 81.5233 47.2587C82.8151 48.8728 84.2706 50.3411 85.657 51.8631C87.7725 54.1959 89.9416 56.4674 92.1031 58.7696C94.3209 61.123 96.7075 63.2998 99.0404 65.5431C100.232 66.6917 101.419 67.8453 102.675 68.9299C106.034 71.8307 109.372 74.7544 112.557 77.8496C114.13 79.4359 115.793 80.9305 117.537 82.3261C122.024 85.7819 126.528 89.2198 131.192 92.4377C133.177 93.8088 135.149 95.2004 137.126 96.5817C138.712 97.6688 140.096 98.999 141.544 100.252C144.332 102.67 147.136 105.072 150.146 107.215C150.824 107.696 151.484 108.238 152.305 108.466C152.321 108.753 152.535 108.88 152.748 109.003C153.666 109.533 154.577 110.072 155.503 110.584C156.283 111.014 156.291 110.998 156.917 110.39C156.949 110.365 156.985 110.344 157.022 110.328C157.555 110.668 158.108 110.977 158.677 111.252C158.677 111.507 158.46 111.633 158.324 111.804C158.189 111.976 157.971 112.196 157.813 112.405C157.779 112.438 157.753 112.477 157.737 112.521C157.721 112.564 157.715 112.611 157.72 112.658C157.724 112.704 157.74 112.749 157.764 112.788C157.789 112.828 157.822 112.861 157.861 112.886C158.429 113.301 158.774 113.909 159.237 114.421C159.237 114.534 159.253 114.641 159.414 114.605H159.429C159.396 114.657 159.383 114.718 159.391 114.779C159.4 114.839 159.429 114.895 159.475 114.935C159.677 115.191 159.874 115.447 160.084 115.677C160.217 115.83 160.371 115.963 160.34 116.189C158.13 114.994 156.094 113.518 153.945 112.216C151.013 110.441 148.146 108.566 145.158 106.883C143.623 106.023 142.183 105.028 140.733 104.041C140.257 103.688 139.756 103.371 139.234 103.092C139.221 103.06 139.197 103.035 139.166 103.02C139.136 103.005 139.101 103.001 139.068 103.01C139.041 103.002 139.016 102.99 138.993 102.974C138.926 102.846 138.823 102.74 138.697 102.67C138.247 102.355 137.784 102.053 137.338 101.731C136.031 100.787 134.694 99.884 133.427 98.8813C132.1 97.83 130.775 96.7838 129.35 95.8578C127.028 94.3788 124.795 92.7645 122.663 91.0232C121.694 90.2123 120.701 89.4244 119.732 88.6136C118.658 87.7157 117.634 86.8051 116.563 85.9072C115.491 85.0094 114.442 84.1166 113.362 83.2444C112.746 82.7481 112.188 82.1751 111.518 81.7403Z" fill="#EB5D02"/>
<path d="M92.8499 35.7146C93.5866 36.129 94.1877 36.7173 94.8477 37.2289C96.7355 38.6972 98.6053 40.1911 100.498 41.6542C101.191 42.1914 101.928 42.6774 102.652 43.1762C104.269 44.2992 105.709 45.6396 107.195 46.9211C108.604 48.1362 110.07 49.2821 111.485 50.5023C114.51 53.0715 117.379 55.8185 120.077 58.7288C121.573 60.3556 123.147 61.8981 124.761 63.4175C125.428 64.0493 126.075 64.6965 126.733 65.3488C126.891 65.5369 127.079 65.6984 127.288 65.8271C127.56 66.1594 127.861 66.4675 128.186 66.748C129.416 67.9426 130.588 69.196 131.874 70.3292C132.551 70.8883 133.191 71.4916 133.788 72.1351C134.883 73.3988 135.991 74.6539 137.113 75.9005C137.686 76.5374 138.351 77.0848 138.978 77.668C141.382 79.9165 143.6 82.3491 145.897 84.7025L145.982 84.792C147.394 86.3754 148.795 87.9716 150.307 89.4629C150.64 89.7929 150.857 90.2303 151.269 90.4861C152.482 91.916 153.571 93.4508 154.83 94.8346C156.388 96.5562 158.053 98.183 159.373 100.117C160.442 101.685 161.57 103.209 162.698 104.721C163.394 105.652 164.051 106.612 164.729 107.555C164.854 107.732 165.041 107.888 165.011 108.144C164.523 107.761 164.011 107.413 163.476 107.1C163.324 107.003 163.149 106.949 162.969 106.943C162.789 106.936 162.611 106.978 162.453 107.064C162.053 106.601 161.652 106.141 161.253 105.675C159.964 104.173 158.674 102.671 157.385 101.168C155.85 99.3776 154.285 97.6382 152.65 95.9525C151.016 94.2668 149.248 92.5913 147.614 90.8365C146.135 89.2531 144.544 87.7669 143.081 86.1784C141.858 84.8841 140.572 83.6051 139.313 82.3261C136.64 79.5968 133.957 76.8751 131.128 74.3043C129.191 72.547 127.291 70.7359 125.375 68.9709C124.478 68.1541 123.581 67.3457 122.686 66.5459C121.242 65.255 119.792 63.9658 118.338 62.6783L115.913 60.5168C114.103 58.9001 112.29 57.2852 110.472 55.672C109.74 55.0197 109.016 54.3572 108.262 53.733C106.622 52.385 104.936 51.0855 103.322 49.7144C100.844 47.6143 98.2523 45.66 95.7071 43.6495C93.5457 41.9382 91.3356 40.2883 89.1152 38.6563C90.3149 37.6152 91.5837 36.6662 92.8499 35.7146Z" fill="#FFDC43"/>
<path d="M147.089 127.329C146.696 126.615 146.289 125.909 145.913 125.185C145.613 124.612 145.657 124.517 146.089 124.062C147.233 122.87 148.391 121.693 149.353 120.34C149.598 120.04 149.864 119.757 150.149 119.494C150.233 119.403 150.345 119.341 150.467 119.318C150.589 119.295 150.715 119.312 150.827 119.366C151.739 119.66 152.626 120.029 153.477 120.471C154.201 120.885 154.976 121.215 155.633 121.75C156.06 122.098 156.498 122.43 156.889 122.819C157.997 123.934 159.15 125.003 160.166 126.208C160.585 126.72 160.974 127.231 161.376 127.743L161.453 127.922V127.907L161.586 128.042C161.736 128.554 162.082 128.973 162.304 129.454C162.969 130.902 163.657 132.34 164.323 133.788C164.87 134.974 165.471 136.138 165.801 137.412C165.873 137.691 165.962 137.962 166.008 138.244C166.077 138.684 165.937 138.84 165.497 138.873C165.272 138.872 165.049 138.833 164.837 138.758C162.79 138.208 160.79 137.479 158.756 136.865C157.429 136.452 156.162 135.867 154.986 135.125C153.83 134.433 152.727 133.655 151.686 132.798C151.637 132.734 151.583 132.675 151.525 132.619C150.37 131.62 149.34 130.486 148.455 129.242C148.218 128.917 148.051 128.536 147.711 128.29L147.673 128.163C147.651 128.063 147.609 127.97 147.551 127.887C147.493 127.804 147.418 127.733 147.332 127.679V127.679L147.215 127.551C147.189 127.459 147.184 127.372 147.089 127.329Z" fill="#ABCDED"/>
<path d="M207.115 44.6906C207.302 44.8057 207.174 44.9463 207.135 45.064C206.898 45.8314 206.637 46.6116 206.473 47.4122C206.153 48.9048 206.104 50.4429 206.33 51.9527C206.481 52.9196 206.634 53.8763 206.875 54.8227C207.246 56.2451 207.869 57.5896 208.714 58.7927C209.303 59.673 209.976 60.4938 210.724 61.2432C212.259 62.7576 213.986 64.0187 216.047 64.7451C217.175 65.1521 218.342 65.441 219.529 65.6072C220.536 65.7628 221.554 65.8322 222.573 65.8144C225.351 65.7146 228.032 65.2004 230.518 63.8882C230.719 63.7462 230.948 63.6509 231.191 63.6094C230.339 65.0265 229.477 66.4385 228.275 67.5998C227.159 68.6767 225.793 69.3137 224.371 69.8457C222.886 70.4155 221.341 70.817 219.767 71.0429C218.449 71.2219 217.114 71.3805 215.804 71.0429C214.178 70.6475 212.595 70.0932 211.077 69.3879C208.913 68.3391 207.24 66.702 205.652 64.9625C204.335 63.5275 203.741 61.7497 203.094 59.995C202.772 59.1339 202.534 58.2439 202.383 57.3372C202.26 56.4852 202.253 55.6203 202.362 54.7664C202.535 53.1217 202.928 51.5077 203.531 49.9677C204.298 47.9534 205.526 46.1463 207.115 44.6906V44.6906Z" fill="#5697DB"/>
<path d="M162.448 107.077C162.606 106.991 162.784 106.949 162.964 106.955C163.144 106.962 163.319 107.016 163.471 107.113C164.006 107.425 164.518 107.774 165.006 108.157V108.157L165.174 108.292C166.528 109.461 167.876 110.63 169.236 111.792C169.346 111.884 169.426 111.999 169.533 112.088C169.543 112.121 169.562 112.151 169.589 112.173C169.615 112.195 169.647 112.209 169.682 112.214V112.214C169.847 112.47 170.056 112.696 170.298 112.881C171.583 114.078 172.786 115.36 173.9 116.718C175.634 118.836 177.188 121.095 178.548 123.471C178.972 124.217 179.305 125.011 179.537 125.837C179.668 126.331 179.463 126.574 178.952 126.561C178.87 126.559 178.789 126.549 178.709 126.531C177.706 126.338 176.717 126.081 175.747 125.763C174.03 125.162 172.37 124.425 170.687 123.745C170.347 123.606 170.022 123.435 169.715 123.233C168.845 122.663 167.975 122.09 167.09 121.537C165.518 120.542 164.099 119.322 162.877 117.918C161.821 116.728 160.67 115.624 159.437 114.618H159.421C159.415 114.573 159.395 114.53 159.363 114.497C159.331 114.464 159.29 114.442 159.245 114.434C158.782 113.922 158.437 113.314 157.869 112.899C157.829 112.874 157.796 112.841 157.772 112.801C157.747 112.761 157.732 112.717 157.727 112.671C157.723 112.624 157.729 112.577 157.745 112.534C157.761 112.49 157.787 112.45 157.82 112.418C157.981 112.208 158.171 112.022 158.332 111.817C158.493 111.612 158.675 111.518 158.685 111.265C159.149 110.977 159.546 110.592 159.849 110.136C160.375 109.418 160.957 108.742 161.591 108.116C161.927 107.814 162.215 107.464 162.448 107.077V107.077Z" fill="#ABCDED"/>
<path d="M179.55 109.251C178.425 108.517 177.207 107.932 176.066 107.223C174.925 106.514 173.792 105.76 172.93 104.701C172.196 103.8 171.513 102.859 170.799 101.941C170.362 101.349 169.985 100.716 169.674 100.05C169.588 99.9017 169.554 99.729 169.576 99.559C169.598 99.3889 169.676 99.2308 169.797 99.109C170.375 98.3621 171.104 97.7584 171.682 97.0166C172.013 96.6551 172.383 96.3309 172.784 96.0497C173.199 95.7175 173.587 95.3541 173.946 94.9626C174.273 94.5968 174.618 94.5865 175.048 94.7528C175.931 95.093 176.711 95.6225 177.529 96.0778C178.825 96.817 180.031 97.7037 181.123 98.7202C182.361 99.8211 183.428 101.099 184.29 102.514C184.82 103.409 185.408 104.271 185.781 105.251L185.879 105.333C185.909 105.422 185.858 105.558 186.014 105.588C185.979 105.748 186.001 105.916 186.076 106.062C186.301 106.719 186.528 107.374 186.812 108.011C187.312 109.085 187.663 110.223 187.856 111.392C187.938 111.935 187.802 112.109 187.275 111.983C185.996 111.679 184.674 111.446 183.456 110.891C182.359 110.395 181.22 109.991 180.131 109.448C179.963 109.322 179.76 109.253 179.55 109.251V109.251Z" fill="#ABCDED"/>
<path d="M81.2419 46.6806C80.8889 46.609 80.7021 46.3148 80.5077 46.0692C78.7171 43.808 76.9385 41.5425 75.1718 39.2727C74.6371 38.5871 74.1486 37.8658 73.596 37.0984C73.0119 37.8057 72.4915 38.5632 72.0408 39.3622C71.2274 38.2341 70.506 37.06 69.8 35.8501C67.9097 32.5989 65.963 29.381 64.3669 25.9661C64.0047 25.2562 63.7233 24.508 63.5278 23.7355C63.4358 23.316 63.4511 22.9195 63.8041 22.6074C63.9653 23.2213 64.2244 23.8052 64.5715 24.3366C65.3389 25.5389 66.1242 26.7411 66.9197 27.9178C68.6668 30.5397 70.5367 33.0721 72.4731 35.5559C72.7877 35.9575 73.0972 36.3642 73.3965 36.7786C73.5423 36.9833 73.6523 37.0012 73.8135 36.7786C73.8953 36.661 73.9976 36.5587 74.0846 36.4461C75.145 35.145 76.3001 33.9241 77.5405 32.7933C77.9956 32.3194 78.496 31.8911 79.0343 31.5143C79.2755 31.5641 79.4969 31.6832 79.6712 31.8571C82.2292 33.6732 84.7872 35.4869 87.3196 37.326C87.9183 37.7096 88.4839 38.1426 89.0104 38.6204C88.9592 38.6814 88.9045 38.7395 88.8467 38.7943C86.939 40.4531 85.134 42.2265 83.4417 44.1047C82.682 44.9795 81.9965 45.8544 81.2419 46.6806Z" fill="#E8504A"/>
<path d="M163.658 95.8245C162.541 95.1628 161.45 94.4594 160.386 93.7142C158.247 92.2203 156.227 90.5755 154.201 88.9359C153.505 88.3731 152.873 87.7311 152.129 87.2297C152.078 86.9432 151.791 86.892 151.617 86.7309C150.287 85.4672 148.962 84.1959 147.614 82.9527C146.189 81.6379 144.841 80.2387 143.444 78.8932C140.536 76.0794 137.709 73.1966 134.85 70.3393C133.709 69.1985 132.569 68.0551 131.43 66.9091C131.286 66.7658 131.148 66.6124 131.018 66.4589C130.371 65.697 129.664 64.9879 128.905 64.3383C128.255 63.4967 127.434 62.8035 126.756 61.9927C124.623 59.4116 122.472 56.846 120.709 53.9862C120.231 53.2188 119.729 52.4258 119.525 51.5126C119.384 50.8936 119.476 50.3385 120.036 49.9343C120.314 50.2754 120.594 50.6165 120.875 50.9575C121.52 51.9807 122.359 52.8504 123.101 53.7943C124.477 55.544 125.915 57.2476 127.268 59.0049C129.179 61.4759 131.069 63.9597 133.197 66.2517C134.732 67.8965 136.18 69.6129 137.904 71.0684C139.324 72.2706 140.562 73.6673 141.974 74.8823C142.823 75.6139 143.639 76.389 144.491 77.118C145.992 78.397 147.527 79.6606 149.018 80.955C150.911 82.6049 152.919 84.1115 154.858 85.7026C155.979 86.6234 157.122 87.5136 158.245 88.4268C159.56 89.4961 160.872 90.5679 162.253 91.5527C163.299 92.297 164.41 92.9544 165.389 93.7935C165.402 93.933 165.379 94.0735 165.324 94.2024C165.269 94.3313 165.184 94.4447 165.075 94.5327C164.627 95.0008 164.036 95.295 163.658 95.8245Z" fill="#EB8248"/>
<path d="M139.694 121.895C139.398 121.683 139.103 121.463 138.802 121.256C136.645 119.765 134.686 118.025 132.662 116.36C131.829 115.672 131.033 114.93 130.194 114.247C127.035 111.689 124.188 108.77 121.131 106.087C119.213 104.401 117.271 102.739 115.342 101.063C115.11 100.861 114.877 100.662 114.659 100.447C112.101 97.9374 109.518 95.4664 107.029 92.8982C104.983 90.7879 102.906 88.6903 101.015 86.4316C99.6115 84.7537 98.2933 83.0061 97.0656 81.1954C96.1588 79.8779 95.5296 78.3897 95.2162 76.8213C95.1678 76.6338 95.1598 76.4381 95.1927 76.2472C95.2256 76.0564 95.2986 75.8747 95.4069 75.7141C95.5152 75.5536 95.6564 75.4179 95.8211 75.3159C95.9858 75.214 96.1702 75.1482 96.3622 75.1228C96.3622 75.2814 96.3622 75.44 96.3622 75.5986C96.3529 75.8029 96.3797 76.0073 96.4415 76.2023C96.9046 77.5986 97.5506 78.9275 98.3625 80.1544C99.4343 81.8708 100.665 83.4669 101.903 85.0682C103.949 87.6661 106.151 90.1382 108.495 92.471C110.585 94.5993 112.682 96.7224 114.943 98.6716C115.683 99.3136 116.414 99.9659 117.176 100.577C118.734 101.833 120.246 103.135 121.781 104.414C122.888 105.345 124.006 106.264 125.127 107.185C126.117 108.001 127.117 108.811 128.109 109.625C129.165 110.493 130.22 111.361 131.276 112.229C132.473 113.216 133.729 114.127 134.977 115.043C136.817 116.398 138.63 117.792 140.605 118.972C140.915 119.158 141.257 119.325 141.424 119.685C141.33 120.124 141.111 120.526 140.792 120.842C140.457 121.224 140.09 121.576 139.694 121.895Z" fill="#EB8248"/>
<path d="M120.867 50.9576L120.031 49.9344C120.584 49.4791 121.22 49.5661 121.842 49.6786C122.623 49.851 123.368 50.1593 124.042 50.5893C128.03 52.9258 131.86 55.5208 135.509 58.3578C138.049 60.3607 140.497 62.4634 142.897 64.63C144.079 65.6993 145.358 66.6585 146.532 67.7405C148.066 69.1551 149.629 70.5338 151.167 71.9433C153.865 74.4177 156.584 76.8682 159.324 79.2949C160.823 80.6276 162.197 82.0882 163.614 83.5054C165.161 85.0538 166.702 86.6073 168.239 88.166C168.712 88.6443 169.298 89.005 169.676 89.578L168.581 90.6319H168.346C168.174 90.3047 167.919 90.0285 167.607 89.8312C166.786 89.1892 166.008 88.496 165.254 87.7849C163.934 86.5366 162.627 85.278 161.273 84.063C160.336 83.2434 159.445 82.3732 158.603 81.4564C157.664 80.4051 156.615 79.4535 155.636 78.438C154.612 77.379 153.507 76.4095 152.438 75.4017C151.174 74.2148 149.88 73.0688 148.601 71.8972C147.923 71.2782 147.276 70.6183 146.578 70.0274C146.128 69.6437 145.711 69.2216 145.263 68.8353C143.818 67.5768 142.355 66.3387 140.914 65.0649C139.647 63.9428 138.368 62.8343 137.077 61.7395C134.655 59.6931 132.033 57.9307 129.447 56.1119C127.145 54.4927 124.666 53.1344 122.318 51.5792C121.89 51.2609 121.393 51.048 120.867 50.9576V50.9576Z" fill="#FDD538"/>
<path d="M96.3699 75.5986C96.3699 75.44 96.3699 75.2814 96.3699 75.1228V75.1356L96.4952 75.064C97.1066 74.9438 97.6668 75.1817 98.2295 75.3428C99.331 75.658 100.376 76.144 101.327 76.7829C102.975 77.8854 104.653 78.9521 106.187 80.1902C107.431 81.1852 108.617 82.2545 109.83 83.2879C109.922 83.3672 110.024 83.4337 110.122 83.5053C110.943 84.3287 111.811 85.1034 112.723 85.8254C114.156 87.0072 115.608 88.1634 117.028 89.3605C118.665 90.7444 120.318 92.1053 122.021 93.4073C123.776 94.7476 125.413 96.221 127.073 97.6689C127.905 98.3928 128.71 99.1448 129.549 99.861C130.698 100.841 131.852 101.8 132.982 102.816C133.691 103.46 134.433 104.069 135.159 104.693C137.848 107.095 140.551 109.482 143.104 112.032C144.012 112.937 144.854 113.909 145.721 114.846C145.779 114.924 145.827 115.01 145.862 115.102L145.038 115.669C144.782 115.594 144.549 115.454 144.363 115.263C143.681 114.688 143.004 114.099 142.334 113.495C141.127 112.395 139.953 111.259 138.727 110.183C138.065 109.599 137.448 108.967 136.809 108.377C135.602 107.279 134.366 106.21 133.189 105.079C132.32 104.245 131.439 103.424 130.547 102.616C129.838 101.971 129.13 101.337 128.375 100.733C127.367 99.9378 126.38 99.1141 125.393 98.293C124.5 97.5486 123.628 96.7838 122.735 96.0394C121.64 95.1237 120.53 94.2284 119.435 93.3101C118.248 92.315 117.077 91.2995 115.895 90.2993C114.401 89.0357 112.905 87.7746 111.406 86.5161C110.326 85.6131 109.249 84.7101 108.149 83.8327C106.794 82.7507 105.384 81.7403 104.057 80.6225C102.341 79.1751 100.517 77.8616 98.6004 76.6934C97.897 76.279 97.2012 75.7981 96.3699 75.5986Z" fill="#FDD538"/>
<path d="M135.162 104.693C134.435 104.069 133.693 103.46 132.985 102.816C131.867 101.792 130.7 100.841 129.552 99.8611C128.713 99.1449 127.907 98.3928 127.076 97.6689C125.416 96.2185 123.779 94.7477 122.024 93.4073C120.32 92.1053 118.668 90.7445 117.031 89.3606C115.611 88.1634 114.158 87.0072 112.725 85.8255C111.814 85.1035 110.945 84.3288 110.124 83.5054C110.443 83.3828 110.736 83.2024 110.989 82.9733C111.156 82.8148 111.29 82.6236 111.381 82.4116C111.472 82.1996 111.519 81.9711 111.518 81.7404C112.188 82.1752 112.746 82.7482 113.362 83.247C114.442 84.1167 115.501 85.0146 116.562 85.9099C117.624 86.8052 118.668 87.7158 119.732 88.6085C120.701 89.4194 121.694 90.2073 122.663 91.0182C124.796 92.7639 127.029 94.3825 129.352 95.8655C130.777 96.7915 132.102 97.8377 133.43 98.8891C134.709 99.8918 136.034 100.795 137.341 101.739C137.786 102.061 138.249 102.363 138.699 102.677C138.826 102.748 138.929 102.854 138.996 102.982C138.443 102.943 137.952 102.672 137.418 102.565C137.025 102.462 136.623 102.397 136.218 102.37C135.279 102.37 134.839 102.862 134.977 103.8C135.029 104.1 135.1 104.396 135.162 104.693Z" fill="#EE7F7B"/>
<path d="M79.0317 31.5527C78.4934 31.9295 77.9931 32.3578 77.5379 32.8317C76.2975 33.9625 75.1424 35.1834 74.082 36.4845C73.9951 36.5971 73.8928 36.6994 73.8109 36.8171C73.66 37.0268 73.5397 37.0089 73.3939 36.8171C73.0947 36.4027 72.7851 35.996 72.4705 35.5943C70.5341 33.1105 68.6642 30.5781 66.9171 27.9562C66.1216 26.7668 65.344 25.5645 64.5689 24.375C64.2218 23.8436 63.9627 23.2598 63.8015 22.6459L63.9371 22.5205C64.7268 22.73 65.4898 23.0295 66.2111 23.4132C68.6182 24.5874 70.836 26.0863 73.0742 27.5444C75.0745 28.8464 77.057 30.1765 79.0445 31.4965C79.0369 31.4888 79.0343 31.522 79.0317 31.5527Z" fill="#ABCDED"/>
<path d="M128.905 64.3384C129.664 64.9879 130.371 65.697 131.018 66.4589C131.148 66.6124 131.274 66.7659 131.43 66.9092C132.569 68.0551 133.709 69.1985 134.85 70.3394C137.709 73.1967 140.536 76.0872 143.444 78.8933C144.841 80.2388 146.189 81.638 147.614 82.9528C148.962 84.196 150.287 85.4673 151.617 86.7309C151.791 86.8921 152.078 86.9433 152.129 87.2298C151.361 87.3449 151.106 87.6134 151.021 88.4294C150.973 88.9586 151.019 89.4921 151.157 90.0052C151.195 90.1612 151.228 90.3198 151.262 90.4784C150.85 90.2226 150.632 89.7903 150.3 89.4552C148.788 87.9639 147.386 86.3677 145.974 84.7843L145.89 84.6948C143.588 82.3415 141.375 79.9088 138.97 77.6603C138.344 77.0771 137.691 76.5297 137.106 75.8928C135.985 74.6496 134.877 73.3945 133.78 72.1274C133.183 71.4839 132.544 70.8806 131.867 70.3215C130.588 69.1806 129.409 67.9272 128.178 66.7403C127.853 66.4598 127.553 66.1517 127.281 65.8195L127.792 65.6685C128.462 65.4639 128.905 65.0828 128.905 64.3384Z" fill="#EE7F7B"/>
<path d="M151.655 132.782C152.696 133.639 153.799 134.417 154.955 135.11C156.131 135.852 157.398 136.436 158.726 136.849C160.772 137.463 162.754 138.192 164.806 138.742C165.019 138.818 165.243 138.857 165.468 138.857C165.919 138.824 166.059 138.668 165.98 138.228C165.934 137.947 165.844 137.676 165.773 137.397C165.443 136.118 164.842 134.959 164.294 133.772C163.629 132.324 162.941 130.887 162.276 129.439C162.054 128.958 161.708 128.541 161.557 128.027C161.767 128.042 161.859 128.221 161.987 128.344C164.064 130.362 165.924 132.555 167.328 135.105C168.049 136.415 168.958 137.604 169.817 138.822C170.316 139.495 170.763 140.207 171.152 140.95C171.395 141.423 171.577 141.925 171.692 142.444C171.752 142.703 171.758 142.972 171.71 143.234C171.585 143.884 171.234 144.122 170.569 144.03C169.962 143.933 169.363 143.79 168.778 143.6C165.74 142.682 162.813 141.531 160.122 139.783C157.099 137.831 154.261 135.605 151.645 133.133C151.54 133.036 151.451 132.926 151.354 132.821L151.655 132.782Z" fill="#EB8248"/>
<path d="M159.427 114.608C160.66 115.614 161.81 116.717 162.867 117.908C164.088 119.312 165.508 120.531 167.08 121.527C167.965 122.08 168.835 122.653 169.705 123.223C170.011 123.424 170.337 123.596 170.677 123.735C172.36 124.415 174.02 125.152 175.736 125.753C176.707 126.071 177.696 126.327 178.698 126.52C178.778 126.538 178.86 126.549 178.941 126.551C179.453 126.551 179.658 126.321 179.527 125.827C179.295 125.001 178.962 124.206 178.537 123.461C177.178 121.085 175.623 118.826 173.889 116.708C172.776 115.35 171.573 114.068 170.288 112.871C170.045 112.686 169.837 112.46 169.671 112.203C169.927 112.144 170.076 112.359 170.252 112.48C173.749 114.915 176.819 117.913 179.338 121.351C181.095 123.761 182.617 126.333 183.886 129.032C184.042 129.343 184.164 129.668 184.252 130.004C184.403 130.649 184.091 130.961 183.451 130.818C183.049 130.737 182.657 130.614 182.282 130.449C180.346 129.526 178.299 128.856 176.399 127.866C173.593 126.441 170.861 124.876 168.213 123.177C166.679 122.179 165.361 120.923 163.962 119.76C162.867 118.869 161.869 117.864 160.987 116.762C160.789 116.558 160.576 116.369 160.35 116.196C160.381 115.966 160.227 115.833 160.094 115.685C159.885 115.444 159.688 115.191 159.485 114.943C159.436 114.904 159.403 114.848 159.392 114.786C159.381 114.725 159.394 114.661 159.427 114.608V114.608Z" fill="#EB8248"/>
<path d="M109.5 127.912C108.814 128.464 108.111 128.339 107.402 127.96C105.861 127.12 104.193 126.54 102.463 126.241C101.696 126.111 100.928 126.047 100.161 125.945C98.6925 125.748 97.196 125.763 95.7636 125.331C95.3748 125.216 94.9962 125.075 94.6099 124.937C93.9557 124.71 93.2689 124.59 92.5763 124.584C91.4589 124.584 90.3445 124.7 89.251 124.929C88.4816 125.025 87.7012 124.978 86.9488 124.791C86.3256 124.686 85.6893 124.686 85.0661 124.791C84.2987 124.899 83.5569 125.047 82.7639 124.865C81.7996 124.627 81.4849 124.019 81.9965 123.154C82.1375 122.928 82.3167 122.728 82.526 122.563C82.5909 122.497 82.67 122.447 82.7572 122.416C82.8444 122.386 82.9375 122.375 83.0294 122.386C83.1212 122.397 83.2094 122.429 83.287 122.479C83.3647 122.529 83.4299 122.596 83.4776 122.676C83.8255 123.318 84.3652 123.32 84.9459 123.187C85.4575 123.072 85.9691 122.901 86.4807 122.765C86.8158 122.676 87.1508 122.589 87.4885 122.527C87.6506 122.498 87.8169 122.502 87.9774 122.539C88.1378 122.576 88.2892 122.645 88.4222 122.742C89.1358 123.254 89.957 123.177 90.7243 123.09C91.2677 123.009 91.8033 122.882 92.3256 122.711C93.4077 122.404 94.5127 122.236 95.6357 122.514C96.0556 122.608 96.4448 122.807 96.7663 123.093C97.4391 123.717 98.209 123.827 99.0941 123.686C101.545 123.297 103.954 123.397 106.3 124.336C106.918 124.598 107.512 124.914 108.075 125.28C108.533 125.564 108.976 125.845 109.198 126.369C109.216 126.41 109.3 126.426 109.354 126.451C109.416 126.932 109.561 127.41 109.5 127.912Z" fill="#FCB671"/>
<path d="M79.0317 31.5527C79.0317 31.522 79.0317 31.4888 79.0317 31.4581C79.7454 30.8979 80.4617 30.3428 81.1677 29.7775C81.4951 29.5217 81.889 29.3375 82.1269 28.9743C82.2699 28.967 82.4115 29.0055 82.5311 29.0843C84.7181 30.3479 86.9768 31.4913 89.0667 32.9212C90.2766 33.7475 91.4456 34.6402 92.63 35.5048C92.7056 35.5706 92.7757 35.6425 92.8397 35.7197C91.5735 36.6712 90.3048 37.6202 89.1051 38.6613C89.0694 38.6651 89.0333 38.6651 88.9976 38.6613C88.4711 38.1835 87.9055 37.7506 87.3068 37.367C84.7693 35.5278 82.2139 33.7142 79.6584 31.898C79.4872 31.7249 79.2695 31.605 79.0317 31.5527V31.5527Z" fill="#EB5D02"/>
<path d="M71.1608 123.857C71.2273 125.021 71.6187 126.116 71.8975 127.237C72.23 128.554 72.757 129.795 73.2097 131.074C73.2097 131.117 73.197 131.158 73.1918 131.201L72.0408 131.89C70.9741 132.537 69.91 133.168 68.5798 133.069C68.1194 133.033 67.9071 133.276 67.7331 133.711C67.6647 133.987 67.6286 134.27 67.6257 134.555C67.178 133.473 66.999 132.322 66.802 131.181C65.9323 126.16 67.2292 121.647 70.0711 117.509C70.1702 117.329 70.3042 117.172 70.465 117.046C70.4804 117.263 70.4957 117.48 70.5085 117.695C70.4932 117.744 70.4753 117.79 70.4574 117.839C69.0658 118.956 68.5619 120.555 68.168 122.187C68.1328 122.347 68.1388 122.514 68.1856 122.671C68.2324 122.829 68.3183 122.972 68.4354 123.087C68.5525 123.202 68.6969 123.285 68.855 123.329C69.0131 123.373 69.1799 123.376 69.3395 123.338C69.5363 123.283 69.7164 123.18 69.8639 123.039C70.1893 122.737 70.4731 122.393 70.708 122.016C70.8818 122.219 70.9731 122.48 70.9638 122.747C71.0943 123.108 71.015 123.51 71.1608 123.857Z" fill="#FB9402"/>
<path d="M82.1372 28.9743C81.8993 29.3375 81.5054 29.5166 81.1779 29.7775C80.4719 30.3428 79.7557 30.8979 79.042 31.4581C77.0545 30.1382 75.072 28.808 73.0717 27.506C70.8232 26.0505 68.6157 24.549 66.2189 23.3749C65.4976 22.9912 64.7345 22.6916 63.9448 22.4821C64.2185 21.8733 64.7864 21.7455 65.3517 21.6559C65.6769 21.625 66.0048 21.6388 66.3263 21.6968C68.1868 21.9622 69.9973 22.5036 71.6981 23.3033C72.8543 23.8149 74.0361 24.2702 75.2051 24.7562C76.1217 25.1602 76.9957 25.6547 77.8142 26.2321C79.0559 27.0925 80.3427 27.8857 81.6691 28.6085C81.8456 28.6955 82.0451 28.7697 82.1372 28.9743Z" fill="#FCB671"/>
<path d="M179.55 109.251C179.757 109.248 179.959 109.309 180.128 109.428C181.208 109.97 182.346 110.374 183.454 110.871C184.671 111.426 185.984 111.658 187.273 111.963C187.8 112.088 187.935 111.914 187.854 111.372C187.661 110.202 187.31 109.065 186.81 107.99C186.526 107.353 186.298 106.699 186.073 106.041C185.998 105.895 185.977 105.728 186.012 105.568C186.462 105.931 186.748 106.432 187.101 106.878C188.823 109.009 190.408 111.247 191.847 113.579C192.806 115.151 193.637 116.797 194.333 118.501C194.364 118.575 194.394 118.652 194.43 118.726C194.478 118.793 194.502 118.874 194.498 118.956C194.495 119.038 194.463 119.117 194.41 119.179C194.248 119.35 194.069 119.266 193.898 119.179C193.477 118.969 193.075 118.722 192.698 118.44C191.931 117.867 191.112 117.355 190.289 116.861C189.219 116.219 188.158 115.562 187.089 114.922C184.399 113.279 181.875 111.38 179.55 109.251V109.251Z" fill="#EB8248"/>
<path d="M149.775 45.1944C150.231 45.1202 150.666 45.2686 151.108 45.3274C152.579 45.5193 154.047 45.7162 155.528 45.8262C156.582 45.9055 157.641 45.9413 158.69 46.0667C160.046 46.2278 161.409 46.2253 162.762 46.3915C163.23 46.4278 163.7 46.4372 164.169 46.4197C165.803 46.4299 167.436 46.4367 169.068 46.4401C168.055 47.1662 166.941 47.7378 165.76 48.1361C163.649 48.9298 161.39 49.2554 159.14 49.0902C155.833 48.8722 152.676 47.6335 150.103 45.5448C149.977 45.4476 149.827 45.3658 149.775 45.1944Z" fill="#FDD538"/>
<path d="M139.694 121.896C140.089 121.579 140.457 121.229 140.792 120.849C141.11 120.534 141.33 120.132 141.424 119.693C142.087 119.119 142.709 118.5 143.286 117.839C143.854 117.225 144.347 116.542 144.987 115.994C145.097 116.163 145.199 116.34 145.322 116.506C146.192 117.649 147.069 118.79 147.941 119.931C147.685 120.374 147.271 120.698 146.944 121.08C146.278 121.878 145.57 122.641 144.823 123.364C144.723 123.478 144.589 123.558 144.44 123.591C144.292 123.625 144.137 123.611 143.997 123.551C142.718 123.105 141.454 122.678 140.185 122.238C140.084 122.219 139.988 122.178 139.903 122.119C139.819 122.06 139.748 121.984 139.694 121.896V121.896Z" fill="#ABCDED"/>
<path d="M168.346 90.6498H168.582C168.533 90.9414 168.753 91.0846 168.922 91.2509C169.628 91.9467 170.255 92.7115 170.909 93.4508C171.165 93.7398 171.278 94.1951 171.743 94.277C171.526 94.717 171.076 94.919 170.751 95.2516C169.965 96.0497 169.162 96.8324 168.364 97.6177C167.957 98.0219 167.957 98.0116 167.428 97.7635C166.469 97.3184 165.502 96.8887 164.543 96.441C164.218 96.2876 163.862 96.1673 163.657 95.8348C164.036 95.3053 164.627 95.0111 165.069 94.5558C165.179 94.4678 165.264 94.3544 165.319 94.2255C165.374 94.0966 165.396 93.9561 165.384 93.8166C166.333 92.975 167.211 92.0592 168.08 91.1384C168.223 91.0117 168.318 90.8388 168.346 90.6498V90.6498Z" fill="#ABCDED"/>
<path d="M67.6257 134.568C67.6287 134.283 67.6648 134 67.7332 133.724C67.9071 133.289 68.1194 133.046 68.5799 133.082C69.91 133.179 70.9741 132.55 72.0408 131.902L73.1919 131.214C73.3036 131.301 73.3807 131.424 73.4093 131.562C73.5744 132.058 73.8199 132.524 74.1358 132.941C74.1358 132.982 74.123 133.02 74.1204 133.061C73.8647 133.076 73.7368 133.284 73.5909 133.442C73.3265 133.754 72.9865 133.993 72.6036 134.135C71.6136 134.478 71.0227 135.24 70.5009 136.077C70.3397 136.333 70.176 136.589 69.9893 136.844C69.5749 137.394 69.3217 137.474 68.695 137.225C68.6188 137.201 68.541 137.181 68.4622 137.167V137.167C68.4688 137.134 68.4644 137.1 68.4495 137.071C68.4347 137.041 68.4103 137.017 68.3803 137.003C67.8943 136.283 67.6317 135.436 67.6257 134.568V134.568Z" fill="#EB5D02"/>
<path d="M76.7295 146.823C76.7295 145.785 77.149 145.38 78.1927 145.199C78.7963 145.096 79.4077 145.145 80.0063 144.994C80.3641 144.92 80.7124 144.806 81.0448 144.654C81.1521 144.595 81.2642 144.545 81.3799 144.506C81.5247 144.452 81.6831 144.448 81.8304 144.494C81.9777 144.541 82.1053 144.634 82.1933 144.761C82.2553 144.914 82.2666 145.082 82.2256 145.241C82.1846 145.401 82.0935 145.543 81.9657 145.646C81.775 145.799 81.5703 145.934 81.3543 146.048C80.8473 146.315 80.4006 146.683 80.0421 147.13C79.6985 147.499 79.2687 147.778 78.7912 147.941L78.405 147.805C78.3932 147.8 78.3806 147.798 78.3679 147.798C78.3551 147.798 78.3425 147.8 78.3308 147.805C78.0917 147.815 77.8535 147.769 77.6355 147.67C77.4174 147.572 77.2254 147.423 77.0748 147.237C76.9623 147.099 76.8446 146.959 76.7295 146.823Z" fill="#EB5D02"/>
<path d="M171.743 94.2668C171.278 94.1849 171.165 93.7296 170.909 93.4406C170.254 92.7013 169.63 91.9365 168.922 91.2407C168.753 91.0744 168.533 90.9312 168.582 90.6396L169.676 89.5857C170.009 89.8978 170.162 90.3275 170.403 90.701C170.914 91.4863 171.406 92.2792 171.897 93.0748C172.268 93.6708 172.247 93.7808 171.743 94.2668Z" fill="#5697DB"/>
<path d="M147.941 119.928C147.069 118.788 146.192 117.647 145.322 116.503C145.199 116.342 145.097 116.166 144.987 115.992L145.041 115.685L145.864 115.117C146.493 115.628 146.783 116.396 147.246 117.043C147.634 117.59 147.972 118.174 148.335 118.739C148.698 119.304 148.673 119.309 148.187 119.749C148.109 119.814 148.027 119.874 147.941 119.928V119.928Z" fill="#5697DB"/>
<path d="M151.655 132.782L151.364 132.816C150.001 131.602 148.813 130.206 147.834 128.667C147.743 128.556 147.692 128.418 147.688 128.275C148.028 128.531 148.2 128.902 148.432 129.227C149.317 130.471 150.347 131.605 151.502 132.603C151.557 132.659 151.608 132.719 151.655 132.782Z" fill="#EE7F7B"/>
<path d="M147.307 127.671C147.393 127.725 147.467 127.796 147.525 127.879C147.584 127.962 147.625 128.056 147.647 128.155C147.62 128.159 147.592 128.159 147.565 128.155C147.481 128.107 147.412 128.036 147.366 127.951C147.32 127.865 147.3 127.768 147.307 127.671Z" fill="#FBC998"/>
<path d="M186.009 105.578C185.853 105.555 185.904 105.42 185.874 105.322C185.914 105.352 185.947 105.391 185.97 105.435C185.994 105.479 186.007 105.528 186.009 105.578V105.578Z" fill="#EB8248"/>
<path d="M147.089 127.329C147.184 127.372 147.189 127.459 147.202 127.541C147.169 127.516 147.142 127.484 147.122 127.447C147.103 127.411 147.091 127.37 147.089 127.329V127.329Z" fill="#FBC998"/>
<path d="M161.452 127.917L161.376 127.738L161.452 127.917Z" fill="#EB8248"/>
<path d="M161.575 128.037L161.442 127.902C161.477 127.903 161.511 127.918 161.536 127.943C161.56 127.968 161.575 128.002 161.575 128.037V128.037Z" fill="#EB8248"/>
<path d="M147.575 128.157C147.603 128.161 147.63 128.161 147.657 128.157L147.696 128.285C147.664 128.281 147.635 128.266 147.613 128.242C147.591 128.219 147.578 128.189 147.575 128.157Z" fill="#EE7F7B"/>
<path d="M147.202 127.543L147.32 127.671L147.202 127.543Z" fill="#FBC998"/>
<path d="M96.4874 75.064L96.3621 75.1356C96.3641 75.1219 96.3693 75.1088 96.3772 75.0974C96.385 75.0859 96.3954 75.0764 96.4074 75.0695C96.4195 75.0626 96.4329 75.0585 96.4468 75.0576C96.4606 75.0566 96.4745 75.0588 96.4874 75.064V75.064Z" fill="#EB8248"/>
<path d="M149.627 45.0922C149.661 45.0909 149.695 45.1007 149.723 45.12C149.751 45.1394 149.772 45.1673 149.783 45.1996C149.75 45.1978 149.717 45.1868 149.69 45.1678C149.662 45.1489 149.641 45.1227 149.627 45.0922V45.0922Z" fill="#FDD538"/>
<path d="M139.07 103.018C139.103 103.009 139.138 103.012 139.169 103.027C139.199 103.042 139.223 103.068 139.236 103.099C139.203 103.109 139.168 103.107 139.137 103.091C139.106 103.076 139.082 103.05 139.07 103.018V103.018Z" fill="#EE7F7B"/>
<path d="M68.3906 136.982C68.4206 136.997 68.445 137.02 68.4598 137.05C68.4746 137.08 68.4791 137.114 68.4725 137.146C68.3957 137.118 68.3829 137.067 68.3906 136.982Z" fill="#FB9402"/>
<path d="M169.679 112.203C169.645 112.199 169.612 112.185 169.586 112.163C169.56 112.141 169.54 112.111 169.531 112.078C169.623 112.07 169.689 112.093 169.679 112.203Z" fill="#EB8248"/>
<path d="M165.172 108.282L165.003 108.146C165.09 108.162 165.126 108.223 165.172 108.282Z" fill="#FFDC43"/>
<path d="M185.879 105.333L185.781 105.251L185.879 105.333Z" fill="#EB8248"/>
<path d="M102.509 145.836C102.532 145.728 102.624 145.726 102.706 145.703C102.686 145.739 102.658 145.77 102.624 145.793C102.59 145.817 102.55 145.831 102.509 145.836Z" fill="#FB9402"/>
<path d="M78.3308 147.795C78.3425 147.79 78.3552 147.787 78.3679 147.787C78.3806 147.787 78.3933 147.79 78.405 147.795L78.3666 147.818L78.3308 147.795Z" fill="#FB9402"/>
<path d="M160.225 39.9174C159.492 39.9055 158.762 39.8371 158.04 39.7127C157.314 39.6258 156.587 39.5286 155.858 39.4569C154.605 39.3265 153.359 39.1346 152.116 38.9223C150.474 38.6409 148.819 38.4107 147.21 37.9554C146.325 37.7145 145.455 37.4206 144.606 37.0755C144.585 36.9552 144.572 36.835 144.544 36.7148C143.977 34.3226 143.965 31.8324 144.508 29.4348C145.131 26.5852 146.528 23.9626 148.545 21.8555C148.778 22.0755 148.668 22.3671 148.668 22.6101C148.658 24.8768 149.074 27.1251 149.895 29.2378C150.681 31.2569 151.794 33.1324 153.19 34.7886C154.465 36.3328 155.99 37.6516 157.702 38.6895C158.443 39.1238 159.219 39.4935 160.023 39.7946C160.093 39.8303 160.161 39.8713 160.225 39.9174V39.9174Z" fill="#FDD538"/>
<path d="M148.86 21.2594C148.944 21.175 149.026 21.0753 149.169 21.1315C149.098 21.2645 148.985 21.2697 148.86 21.2594Z" fill="white"/>
<path d="M174.808 25.5593L174.838 25.6796C174.754 25.6591 174.726 25.6233 174.808 25.5593Z" fill="white"/>
<path d="M149.161 21.1366C149.146 21.0343 149.197 21.0011 149.292 21.0087C149.283 21.0396 149.266 21.0676 149.244 21.09C149.221 21.1124 149.192 21.1285 149.161 21.1366V21.1366Z" fill="white"/>
<path d="M149.284 21.0139C149.284 20.9704 149.284 20.9269 149.302 20.8834C149.381 20.9346 149.386 20.9832 149.284 21.0139Z" fill="white"/>
<path d="M97.2345 142.513C97.2089 142.183 96.9326 142.04 96.7229 141.85C96.0012 141.157 95.1173 140.656 94.1521 140.392C93.551 140.236 93.3642 139.602 93.6789 139.057C93.7953 138.838 93.9831 138.666 94.2109 138.568C94.5443 138.414 94.9106 138.343 95.2776 138.364C95.7839 138.414 96.2783 138.548 96.7408 138.76C97.6037 139.178 98.4768 139.573 99.3601 139.945C100.149 140.272 100.971 140.517 101.811 140.674C102.41 140.766 102.965 141.047 103.393 141.477C103.821 141.907 104.1 142.463 104.19 143.063C104.277 143.523 103.872 144.048 103.248 144.239C102.889 144.359 102.509 144.404 102.132 144.372C101.754 144.34 101.387 144.231 101.054 144.053C100.537 143.778 99.9786 143.59 99.4011 143.495C99.4446 143.751 99.6569 143.766 99.7873 143.843C100.151 144.063 100.578 144.176 100.885 144.5C101.117 144.756 101.309 145.012 101.199 145.362C101.151 145.54 101.055 145.701 100.922 145.827C100.789 145.954 100.624 146.042 100.445 146.081C99.5837 146.295 98.6743 146.188 97.8867 145.779C97.1193 145.416 96.3647 144.997 95.6101 144.587C93.8112 143.623 91.8601 142.975 89.8419 142.671C88.9715 142.543 88.0851 142.573 87.2251 142.758C86.3502 142.94 85.4754 143.114 84.6031 143.308C84.4727 143.337 84.3115 143.344 84.222 143.48L83.9662 143.377C83.231 142.866 82.4618 142.406 81.664 141.999C81.6564 141.963 81.6513 141.927 81.6487 141.891C82.191 141.806 82.7395 141.767 83.2883 141.774C83.6951 141.804 84.089 141.907 84.5008 141.909C85.2758 141.901 86.0454 141.78 86.7851 141.548C87.748 141.295 88.7289 141.115 89.7191 141.011C91.103 140.837 92.4357 141.055 93.7709 141.3C94.6691 141.496 95.5401 141.8 96.3647 142.206C96.6392 142.341 96.9285 142.444 97.2268 142.513C97.2703 142.564 97.301 142.669 97.3905 142.556L97.2345 142.513ZM99.1043 143.449C99.1043 143.398 99.0864 143.388 99.0404 143.421C99.0404 143.421 99.0404 143.462 99.0532 143.462C99.0701 143.464 99.0874 143.464 99.1043 143.462V143.449Z" fill="#FCB671"/>
<path d="M81.6689 142.001C82.4667 142.408 83.2359 142.869 83.9711 143.38C83.6819 143.571 83.3475 143.682 83.0016 143.702C82.3654 143.837 81.7435 144.032 81.1446 144.285C80.8889 144.415 80.6049 144.479 80.3183 144.472C80.1826 144.472 80.0525 144.418 79.9566 144.322C79.8606 144.226 79.8067 144.096 79.8067 143.961C79.779 143.789 79.7911 143.613 79.8421 143.447C79.8932 143.28 79.9817 143.128 80.1009 143.001C80.5253 142.535 81.0666 142.189 81.6689 142.001V142.001Z" fill="#EB5D02"/>
<path d="M100.793 133.555C101.092 134.169 101.048 134.289 100.399 134.524C100.219 134.564 100.05 134.645 99.9075 134.762C99.5775 135.125 99.1708 135.054 98.7692 134.982C98.593 134.937 98.4217 134.874 98.2576 134.795C97.6694 134.567 97.0305 134.502 96.4082 134.606C95.5896 134.726 94.7481 134.775 93.9474 134.378C93.4513 134.131 92.8996 134.017 92.3461 134.046C92.183 134.061 92.0185 134.054 91.8575 134.023C91.7561 134.002 91.6641 133.95 91.5949 133.873C91.5258 133.796 91.4834 133.699 91.4738 133.596C91.4483 133.383 91.4738 133.176 91.6989 133.084C91.8411 133.033 91.9674 132.946 92.0653 132.831C92.1631 132.716 92.2291 132.578 92.2566 132.429C92.3256 132.115 92.6633 131.997 92.9882 131.969C93.6237 131.937 94.2543 132.096 94.7992 132.424C94.8699 132.465 94.9367 132.512 94.9987 132.565C95.3306 132.84 95.7194 133.037 96.137 133.143C96.5546 133.25 96.9906 133.262 97.4135 133.179C98.0071 133.101 98.6053 133.063 99.2041 133.066C98.9483 132.839 98.9483 132.831 98.7232 132.828C98.3548 132.828 97.9839 132.805 97.6181 132.828C96.5949 132.895 95.6459 132.588 94.7276 132.179C94.2843 131.971 93.8249 131.8 93.354 131.667C93.1347 131.581 92.8955 131.56 92.6644 131.605C92.4334 131.65 92.22 131.76 92.0494 131.923C91.9597 132.006 91.8557 132.073 91.7424 132.12C91.6576 132.166 91.5614 132.187 91.4651 132.18C91.3688 132.174 91.2762 132.141 91.1981 132.084C91.12 132.027 91.0595 131.95 91.0237 131.86C90.9878 131.77 90.978 131.672 90.9955 131.577C91.0067 131.289 91.104 131.01 91.275 130.777C91.4459 130.544 91.6827 130.368 91.9547 130.27C92.3593 130.133 92.791 130.095 93.2133 130.16C94.4923 130.339 95.6945 130.8 96.9556 131.025C97.1954 131.074 97.44 131.095 97.6846 131.089C98.52 131.064 99.356 131.109 100.184 131.224C100.762 131.328 101.308 131.569 101.775 131.925C102.461 132.379 103.256 132.644 104.077 132.693C104.637 132.72 105.184 132.874 105.676 133.145C106.168 133.415 106.591 133.794 106.914 134.253C107.156 134.607 107.464 134.911 107.819 135.151C108.702 135.709 108.436 136.898 107.929 137.397C107.855 137.482 107.757 137.542 107.647 137.568C107.538 137.595 107.423 137.587 107.318 137.545C106.882 137.433 106.483 137.207 106.162 136.89C105.801 136.416 105.292 136.076 104.717 135.923C104.403 135.823 104.124 135.636 103.913 135.384C103.096 134.616 102.141 134.008 101.1 133.593C101.001 133.567 100.9 133.554 100.798 133.555C100.754 133.501 100.726 133.396 100.637 133.509L100.793 133.555ZM99.841 133.13C99.8103 133.11 99.7822 133.079 99.7515 133.079C99.7208 133.079 99.6875 133.105 99.6543 133.122C99.685 133.14 99.7157 133.171 99.7464 133.174C99.777 133.176 99.8103 133.145 99.841 133.13Z" fill="#FCB671"/>
<path d="M90.7218 115.025C91.4892 115.099 92.4356 115.132 93.3028 115.626C93.5937 115.776 93.854 115.979 94.0702 116.224C94.482 116.736 94.9885 116.792 95.5436 116.534C96.092 116.316 96.6712 116.186 97.26 116.148C98.0141 116.079 98.7733 116.205 99.4649 116.514C100.015 116.731 100.37 117.209 100.744 117.644C100.968 117.881 101.154 118.151 101.296 118.445C101.509 118.956 101.314 119.284 100.785 119.322C100.181 119.363 99.6721 119.066 99.1605 118.844C98.2132 118.41 97.1812 118.194 96.1396 118.209C95.5768 118.209 95.0627 118.412 94.528 118.534C94.2686 118.59 94.0124 118.66 93.7606 118.744C93.5064 118.825 93.2371 118.846 92.9733 118.807C92.7095 118.767 92.4582 118.668 92.2386 118.516C90.9671 117.777 89.5272 117.375 88.0563 117.35C86.826 117.324 85.6109 117.388 84.4496 117.841C84.0122 118.01 83.5824 118.202 83.1527 118.386C82.8173 118.54 82.4491 118.608 82.0809 118.585C81.8788 118.57 81.7177 118.516 81.6716 118.294C81.6256 118.071 81.7407 117.997 81.8967 117.91C83.9713 116.767 86.0355 115.608 88.4324 115.258C89.1873 115.114 89.9533 115.036 90.7218 115.025V115.025Z" fill="#FCB671"/>
<path d="M79.2185 118.649C79.8142 118.739 80.3994 118.888 80.9656 119.094C81.7995 119.465 82.1039 120.471 81.2214 121.238C80.4309 121.934 78.3539 122.376 77.2872 121.686C77.2028 121.629 77.1081 121.586 77.0314 121.522C76.4277 121.031 76.3561 120.376 76.837 119.757C76.8881 119.693 76.9495 119.639 77.0058 119.578C77.0621 119.517 77.1286 119.468 77.1132 119.371C76.9649 119.266 76.8574 119.401 76.7142 119.419C76.4123 119.484 76.097 119.441 75.824 119.297C75.7339 119.257 75.6556 119.194 75.5964 119.115C75.5372 119.037 75.4991 118.944 75.4858 118.846C75.4725 118.749 75.4843 118.649 75.5202 118.557C75.5561 118.466 75.6149 118.385 75.691 118.322C75.8337 118.174 76.0046 118.057 76.1935 117.976C76.3825 117.896 76.5856 117.854 76.7909 117.854C77.6709 117.823 78.5508 117.854 79.4308 117.854C79.512 117.852 79.593 117.863 79.6712 117.885C79.7409 117.904 79.8018 117.947 79.8437 118.006C79.8855 118.065 79.9059 118.137 79.9014 118.209C79.9026 118.269 79.8828 118.328 79.8454 118.374C79.808 118.421 79.7555 118.453 79.6968 118.465C79.5715 118.506 79.4436 118.565 79.2185 118.649Z" fill="#FCB671"/>
<path d="M74.1485 132.941C73.8325 132.524 73.5871 132.058 73.422 131.562C73.3934 131.424 73.3163 131.301 73.2046 131.214C73.2046 131.171 73.2174 131.13 73.2225 131.086C73.569 131.065 73.9071 130.971 74.215 130.81C75.5327 130.324 76.7963 129.703 77.9855 128.956C78.521 128.61 79.1394 128.415 79.776 128.39C80.369 128.35 80.94 128.151 81.4285 127.812C81.7575 127.609 82.0993 127.428 82.4517 127.27C82.5931 127.187 82.7546 127.145 82.9185 127.148C83.0823 127.151 83.2421 127.2 83.3802 127.288C83.5823 127.428 83.5516 127.912 83.3112 128.252C82.7177 129.096 82.0322 129.828 80.9962 130.155C80.7528 130.254 80.4848 130.275 80.2288 130.217C79.5305 129.981 78.9063 130.171 78.2847 130.46C77.5387 130.788 76.8366 131.208 76.1949 131.71C75.8597 131.978 75.4875 132.196 75.0898 132.358C74.7562 132.518 74.4406 132.714 74.1485 132.941V132.941Z" fill="#FCB671"/>
<path d="M71.161 123.857C71.0152 123.502 71.0945 123.108 70.9717 122.747C71.3937 122.747 71.67 122.445 71.9949 122.259C72.7469 121.826 73.5118 121.491 74.4096 121.522C75.4533 121.558 76.2258 122.075 76.8525 122.839C76.9281 122.924 76.9787 123.029 76.9986 123.141C77.0186 123.253 77.0072 123.368 76.9656 123.474C76.924 123.58 76.8539 123.672 76.7631 123.741C76.6722 123.81 76.5642 123.852 76.4509 123.863C76.0309 123.954 75.6018 123.998 75.1719 123.993C74.2126 123.978 73.2534 123.993 72.2942 123.993C71.9116 124.008 71.5291 123.962 71.161 123.857Z" fill="#FCB671"/>
<path d="M103.233 116.859C104.588 117.053 105.791 117.491 106.489 118.803C106.637 119.084 106.862 119.33 106.816 119.698C106.818 119.808 106.784 119.915 106.72 120.004C106.656 120.093 106.565 120.159 106.461 120.192C106.166 120.315 105.84 120.345 105.527 120.278C105.215 120.21 104.93 120.049 104.711 119.816C104.127 119.25 103.463 118.772 102.742 118.396C102.667 118.362 102.597 118.32 102.532 118.271C102.291 118.059 102.002 117.857 102.092 117.473C102.181 117.089 102.54 116.887 102.987 116.861C103.069 116.859 103.151 116.859 103.233 116.859Z" fill="#FCB671"/>
<path d="M70.7082 122.016C70.4732 122.393 70.1894 122.737 69.864 123.039C69.7165 123.18 69.5364 123.283 69.3396 123.338C69.18 123.376 69.0133 123.373 68.8551 123.329C68.697 123.285 68.5526 123.202 68.4355 123.087C68.3184 122.972 68.2325 122.829 68.1857 122.671C68.1389 122.514 68.1329 122.347 68.1681 122.187C68.562 120.558 69.0659 118.959 70.4575 117.839C70.5035 118.504 70.5649 119.169 70.5879 119.836C70.5996 120.363 70.6605 120.888 70.7696 121.404C70.7364 121.528 70.7463 121.658 70.7977 121.775C70.7798 121.811 70.7644 121.849 70.7465 121.888C70.7182 121.924 70.7045 121.97 70.7082 122.016Z" fill="#EB5D02"/>
<path d="M79.3311 124.103C79.1521 124.103 78.973 124.103 78.8809 123.944C78.8256 123.857 78.7979 123.755 78.8016 123.652C78.8052 123.549 78.84 123.449 78.9014 123.366C79.0436 123.166 79.2266 122.997 79.4385 122.873C80.4402 122.282 81.3736 121.583 82.2216 120.788C82.6897 120.371 83.1144 119.89 83.6643 119.565C83.7968 119.471 83.9425 119.397 84.0966 119.345C84.2018 119.302 84.3165 119.288 84.4289 119.304C84.5414 119.32 84.6474 119.366 84.7361 119.437C84.9229 119.629 84.7566 119.826 84.7003 120.008C84.5734 120.465 84.277 120.856 83.8715 121.103C82.8203 121.765 81.8215 122.507 80.8838 123.323C80.549 123.592 80.18 123.816 79.7864 123.988C79.648 124.067 79.4905 124.107 79.3311 124.103V124.103Z" fill="#FCB671"/>
<path d="M81.7663 114.659C81.6793 115.063 81.3263 115.334 80.9324 115.547C80.8029 115.624 80.6546 115.665 80.5035 115.664C80.3525 115.664 80.2046 115.621 80.076 115.542C79.9474 115.463 79.8431 115.35 79.7744 115.215C79.7057 115.081 79.6754 114.93 79.6866 114.779C79.6176 114.176 80.2443 113.462 80.848 113.424C80.9086 113.417 80.9699 113.423 81.0283 113.441C81.0867 113.458 81.1411 113.487 81.1882 113.526C81.3625 113.66 81.5048 113.831 81.6048 114.027C81.7048 114.223 81.76 114.439 81.7663 114.659V114.659Z" fill="#FCB671"/>
<path d="M70.7696 121.417C70.6605 120.901 70.5997 120.376 70.588 119.849C70.5649 119.181 70.5036 118.516 70.4575 117.851C70.4754 117.803 70.4933 117.757 70.5087 117.708C71.45 117.741 71.4602 117.741 71.4449 118.716C71.4042 119.589 71.2317 120.452 70.9333 121.274C70.9192 121.309 70.897 121.34 70.8686 121.365C70.8401 121.39 70.8062 121.408 70.7696 121.417V121.417Z" fill="#FCB671"/>
<path d="M75.2537 115.475C75.2409 115.897 74.6884 116.521 74.2561 116.601C74.1773 116.614 74.0961 116.608 74.0208 116.58C73.9455 116.553 73.8786 116.507 73.8268 116.446C73.7751 116.385 73.7402 116.311 73.7258 116.232C73.7113 116.153 73.7178 116.072 73.7445 115.997C73.8516 115.764 74.0097 115.558 74.2072 115.395C74.4047 115.231 74.6365 115.114 74.8854 115.053C75.1079 114.979 75.2614 115.173 75.2537 115.475Z" fill="#FCB671"/>
<path d="M77.5789 114.638C77.5789 115.04 76.9138 115.511 76.5557 115.347C76.451 115.304 76.3634 115.228 76.3064 115.131C76.2495 115.033 76.2265 114.919 76.2411 114.807C76.2871 114.598 76.4003 114.41 76.5634 114.272C76.7264 114.133 76.9304 114.052 77.144 114.04C77.2711 114.08 77.3819 114.16 77.4602 114.267C77.5385 114.375 77.5801 114.505 77.5789 114.638V114.638Z" fill="#FCB671"/>
<path d="M70.7466 121.901C70.7645 121.862 70.7798 121.824 70.7977 121.788C70.8026 121.799 70.8052 121.81 70.8052 121.822C70.8052 121.834 70.8027 121.845 70.7978 121.856C70.793 121.867 70.7859 121.876 70.7771 121.884C70.7682 121.892 70.7578 121.897 70.7466 121.901Z" fill="#FCB671"/>
<path d="M89.0078 38.6588C89.0435 38.6626 89.0795 38.6626 89.1152 38.6588C91.3356 40.2908 93.5457 41.9407 95.7072 43.652C98.2651 45.6626 100.844 47.6169 103.322 49.717C104.941 51.088 106.622 52.3875 108.262 53.7356C109.016 54.3597 109.74 55.0145 110.472 55.6745C112.291 57.286 114.107 58.901 115.918 60.5193L118.343 62.6808C119.791 63.97 121.24 65.2593 122.691 66.5485C123.592 67.3517 124.486 68.16 125.375 68.9734C127.303 70.7384 129.191 72.5546 131.128 74.3068C133.962 76.8776 136.645 79.5993 139.313 82.3287C140.572 83.6077 141.871 84.8739 143.076 86.1989C144.544 87.7951 146.13 89.2685 147.609 90.857C149.243 92.6066 150.977 94.2514 152.645 95.9729C154.313 97.6945 155.85 99.4057 157.38 101.189C158.671 102.691 159.96 104.193 161.248 105.696C161.647 106.161 162.048 106.622 162.447 107.085C162.212 107.467 161.92 107.812 161.583 108.108C160.95 108.734 160.367 109.41 159.841 110.129C159.539 110.584 159.142 110.969 158.677 111.257C158.108 110.982 157.555 110.674 157.022 110.333C157.105 110.195 157.196 110.062 157.296 109.934C157.738 109.423 158.206 108.955 158.634 108.441C159.007 107.995 159.457 107.609 159.739 107.087C160.265 106.645 160.335 106.517 160.107 106.151C159.391 105.013 158.657 103.885 157.933 102.754C157.851 102.626 157.764 102.519 157.59 102.593C157.512 102.404 157.418 102.221 157.308 102.048C156.358 100.692 155.259 99.4458 154.032 98.3339C153.63 97.9861 153.234 97.6331 152.832 97.2826C151.093 95.7606 149.438 94.1491 147.767 92.5529C145.721 90.5884 143.651 88.6341 141.487 86.7898C139.745 85.3036 138.037 83.7816 136.313 82.2749C133.527 79.8372 130.56 77.6245 127.615 75.3684C124.671 73.1123 121.676 70.9533 118.918 68.4977C116.86 66.6581 114.651 64.993 112.316 63.5198C111.587 63.0645 110.856 62.599 109.996 62.4404C109.42 62.3329 108.822 62.2153 108.29 62.622C108.178 62.6771 108.084 62.7619 108.018 62.867C107.952 62.9722 107.916 63.0937 107.914 63.218C107.84 63.7674 107.922 64.3265 108.149 64.8321C108.42 65.3808 108.725 65.9122 109.062 66.4231C110.188 68.0961 111.408 69.6948 112.667 71.2705C113.876 72.7823 115.204 74.1892 116.478 75.6421C117.644 76.9722 118.78 78.3433 119.98 79.6351C121.18 80.9269 122.315 82.1931 123.533 83.4312C125.858 85.7819 128.137 88.1839 130.647 90.3377C131.248 90.8493 131.834 91.3993 132.419 91.9339C132.872 92.3457 133.299 92.7857 133.772 93.1719C134.865 94.0647 135.77 95.1544 136.865 96.042C136.953 96.0964 137.023 96.1745 137.069 96.2673C137.114 96.3601 137.132 96.4638 137.121 96.5664C135.144 95.1851 133.171 93.7935 131.186 92.4225C126.523 89.2045 122.019 85.7717 117.532 82.3108C115.789 80.9193 114.127 79.4289 112.554 77.8471C109.369 74.7519 106.031 71.8281 102.673 68.9274C101.417 67.8428 100.23 66.6892 99.0376 65.5406C96.7099 63.2973 94.3182 61.1204 92.1004 58.7671C89.9389 56.4649 87.7697 54.1934 85.6543 51.8606C84.2679 50.3258 82.8124 48.8626 81.5206 47.2562C81.385 47.0822 81.1829 46.9467 81.2367 46.6806C81.9913 45.8544 82.6768 44.9668 83.434 44.1431C85.1281 42.2674 86.9348 40.4966 88.8441 38.8404C88.9021 38.7831 88.9568 38.7225 89.0078 38.6588V38.6588ZM104.1 59.4501C104.086 59.4513 104.072 59.4555 104.059 59.4623C104.046 59.4691 104.035 59.4784 104.027 59.4897C104.018 59.501 104.011 59.5139 104.008 59.5278C104.004 59.5417 104.003 59.5561 104.005 59.5703C103.995 59.5989 103.99 59.6294 103.992 59.6598C103.819 59.7848 103.682 59.9546 103.598 60.151C103.513 60.3474 103.483 60.5631 103.512 60.7751C103.53 61.1256 103.637 61.4656 103.823 61.763C104.009 62.0605 104.268 62.3054 104.576 62.4748C104.883 62.6441 105.229 62.7321 105.58 62.7306C105.931 62.729 106.275 62.6379 106.581 62.4659C106.923 62.2774 107.185 61.9711 107.317 61.6041C107.45 61.237 107.445 60.8342 107.302 60.4707C107.199 60.1607 107.024 59.8794 106.791 59.6498C106.559 59.4202 106.275 59.2487 105.964 59.1493C105.653 59.0498 105.322 59.0252 105 59.0775C104.677 59.1298 104.372 59.2574 104.108 59.4501H104.1ZM88.7009 45.307C88.1611 45.9235 88.3581 46.5451 88.7009 47.1615C89.1229 47.9289 90.2894 48.5787 91.2153 47.7831C91.4211 47.5842 91.5799 47.3419 91.6803 47.0738C91.7807 46.8058 91.82 46.5187 91.7955 46.2336C91.771 45.9484 91.6833 45.6723 91.5387 45.4253C91.3941 45.1783 91.1962 44.9666 90.9595 44.8056C90.5932 44.5787 90.1526 44.504 89.7319 44.5977C89.3112 44.6914 88.9439 44.946 88.7085 45.307H88.7009ZM96.1113 52.9093C96.3423 52.7581 96.5392 52.5603 96.6894 52.3286C96.8396 52.0969 96.9398 51.8364 96.9836 51.5638C97.0885 50.6404 96.5692 49.9446 95.5255 49.5993C95.2273 49.5061 94.9065 49.5149 94.6138 49.6242C94.3211 49.7335 94.0731 49.9371 93.9089 50.203C93.3973 50.6685 93.2029 51.5689 93.5457 52.1496C94.0035 52.9298 94.8886 53.6767 96.1113 52.9093ZM99.053 54.6283C99.007 54.6692 98.9456 54.6974 98.92 54.7485C98.7159 55.1417 98.6535 55.5932 98.7434 56.027C98.8334 56.4608 99.0701 56.8504 99.4137 57.13C100.058 57.7081 100.846 57.7414 101.654 57.2246C101.878 57.0791 102.055 56.8734 102.166 56.6312C102.342 56.2376 102.37 55.7938 102.245 55.3812C102.12 54.9687 101.85 54.615 101.486 54.3853C100.746 53.8737 99.6951 53.8967 99.1221 54.4595C99.0786 54.5055 99.0735 54.5797 99.053 54.636V54.6283Z" fill="#FFDAB6"/>
<path d="M137.126 96.574C137.137 96.4714 137.119 96.3677 137.074 96.2749C137.029 96.1821 136.958 96.104 136.87 96.0497C135.776 95.162 134.87 94.0723 133.778 93.1796C133.305 92.7933 132.877 92.3534 132.425 91.9415C131.839 91.4069 131.253 90.8621 130.652 90.3454C128.14 88.1839 125.863 85.7819 123.538 83.4388C122.321 82.2084 121.169 80.909 119.985 79.6428C118.801 78.3766 117.65 76.9799 116.483 75.6498C115.204 74.1968 113.882 72.7899 112.672 71.2782C111.413 69.7025 110.193 68.1037 109.068 66.4308C108.731 65.9198 108.426 65.3885 108.154 64.8397C107.927 64.3342 107.846 63.7751 107.919 63.2256C107.919 63.1022 107.953 62.9811 108.017 62.8756C108.081 62.7701 108.173 62.6841 108.282 62.6271C108.907 62.795 109.5 63.06 110.042 63.4124C111.71 64.5558 113.299 65.8041 114.933 66.9936C116.739 68.3007 118.514 69.6411 120.049 71.2551C120.091 71.3001 120.137 71.342 120.185 71.3805C121.246 72.2758 122.367 73.0918 123.482 73.918C124.433 74.6189 125.449 75.2482 126.296 76.0693C127.142 76.8904 128.071 77.5759 128.982 78.2922C130.312 79.3384 131.685 80.3232 132.967 81.4385C134.415 82.697 135.87 83.9478 137.262 85.2754C138.073 86.0428 138.917 86.7923 139.776 87.5137C140.915 88.4755 142.078 89.4117 143.153 90.44C143.664 90.9311 144.176 91.4274 144.741 91.8802C146.222 93.1029 147.655 94.3767 149.026 95.7171C150.706 97.3619 152.364 99.0297 154.032 100.687C154.178 100.833 154.318 100.981 154.477 101.112C155.033 101.561 155.539 102.068 155.989 102.624C156.196 102.879 156.398 103.197 156.774 103.271C156.772 103.309 156.766 103.347 156.754 103.383C156.35 103.696 155.985 104.054 155.664 104.45C154.52 105.778 153.461 107.172 152.285 108.474C151.464 108.233 150.804 107.706 150.126 107.223C147.115 105.079 144.312 102.677 141.523 100.26C140.096 98.9913 138.712 97.674 137.126 96.574Z" fill="#FBC998"/>
<path d="M152.305 108.458C153.482 107.156 154.541 105.762 155.684 104.435C156.005 104.038 156.371 103.68 156.774 103.368C156.971 103.88 157.411 104.202 157.741 104.609C158.406 105.432 159.13 106.205 159.739 107.075C159.457 107.586 159.007 107.983 158.634 108.428C158.206 108.939 157.738 109.42 157.296 109.922C157.196 110.049 157.105 110.182 157.022 110.321C156.985 110.336 156.949 110.357 156.917 110.382C156.291 110.991 156.283 111.006 155.503 110.576C154.577 110.065 153.666 109.525 152.748 108.996C152.535 108.873 152.321 108.745 152.305 108.458Z" fill="#ABCDED"/>
<path d="M159.235 114.413C159.28 114.422 159.321 114.444 159.353 114.477C159.384 114.51 159.405 114.552 159.411 114.597C159.25 114.633 159.24 114.526 159.235 114.413Z" fill="#EB8248"/>
<path d="M168.346 90.6497C168.317 90.8318 168.227 90.9987 168.09 91.123C167.221 92.0438 166.343 92.9596 165.394 93.8012C164.415 92.9621 163.304 92.3047 162.258 91.5604C160.877 90.5755 159.565 89.514 158.25 88.4345C157.127 87.5213 155.984 86.6311 154.863 85.7103C152.924 84.1192 150.916 82.6126 149.023 80.9627C147.532 79.6606 145.997 78.4047 144.496 77.1257C143.644 76.3967 142.828 75.6216 141.979 74.89C140.567 73.675 139.329 72.2783 137.909 71.0761C136.185 69.6206 134.732 67.9042 133.202 66.2594C131.074 63.9572 129.184 61.4836 127.273 59.0126C125.912 57.2553 124.482 55.5517 123.106 53.802C122.364 52.8581 121.525 51.9884 120.88 50.9652C121.403 51.0645 121.896 51.2853 122.318 51.6098C124.666 53.1651 127.142 54.5234 129.447 56.1426C132.033 57.9613 134.655 59.7237 137.078 61.7701C138.372 62.8598 139.651 63.9683 140.914 65.0955C142.35 66.3745 143.813 67.6074 145.263 68.866C145.711 69.2522 146.128 69.6743 146.578 70.058C147.276 70.654 147.923 71.3088 148.601 71.9279C149.88 73.0994 151.185 74.2454 152.438 75.4323C153.507 76.4401 154.615 77.4096 155.636 78.4686C156.615 79.4918 157.664 80.4357 158.603 81.487C159.445 82.4038 160.337 83.274 161.273 84.0936C162.627 85.3087 163.934 86.5672 165.254 87.8155C166.021 88.5292 166.788 89.2224 167.607 89.8619C167.918 90.0556 168.173 90.3272 168.346 90.6497Z" fill="#FBC998"/>
<path d="M145.041 115.687L144.987 115.994C144.347 116.542 143.854 117.225 143.286 117.839C142.709 118.5 142.087 119.119 141.424 119.693C141.257 119.332 140.912 119.166 140.605 118.979C138.64 117.8 136.827 116.406 134.977 115.05C133.729 114.132 132.473 113.221 131.276 112.237C130.222 111.367 129.167 110.499 128.109 109.633C127.117 108.819 126.117 108.008 125.127 107.192C124.006 106.271 122.888 105.353 121.781 104.422C120.246 103.143 118.732 101.836 117.176 100.585C116.409 99.9736 115.683 99.3214 114.943 98.6793C112.682 96.7301 110.595 94.607 108.495 92.4788C106.151 90.1459 103.949 87.6738 101.903 85.076C100.67 83.4747 99.4343 81.8785 98.3625 80.1621C97.5506 78.9353 96.9046 77.6064 96.4415 76.21C96.3797 76.015 96.3528 75.8107 96.3622 75.6063C97.1935 75.8058 97.8969 76.2867 98.6004 76.719C100.524 77.8839 102.355 79.1949 104.077 80.6404C105.4 81.7583 106.809 82.7687 108.17 83.8507C109.27 84.7281 110.347 85.6413 111.426 86.534C112.925 87.7908 114.422 89.0519 115.915 90.3173C117.097 91.3174 118.269 92.333 119.456 93.328C120.55 94.2463 121.661 95.1416 122.755 96.0574C123.648 96.8017 124.52 97.5666 125.413 98.311C126.401 99.1321 127.388 99.9557 128.396 100.751C129.163 101.345 129.859 101.989 130.567 102.634C131.458 103.444 132.338 104.265 133.21 105.097C134.387 106.228 135.622 107.297 136.829 108.395C137.479 108.985 138.085 109.617 138.748 110.2C139.973 111.277 141.147 112.413 142.355 113.513C143.016 114.117 143.692 114.706 144.383 115.281C144.565 115.469 144.791 115.609 145.041 115.687V115.687Z" fill="#FBC998"/>
<path d="M97.2345 142.513L97.3956 142.559C97.3061 142.671 97.2754 142.559 97.2319 142.515L97.2345 142.513Z" fill="#FBC998"/>
<path d="M99.1043 143.462C99.0873 143.464 99.0701 143.464 99.0531 143.462C99.0531 143.462 99.0378 143.423 99.0403 143.421C99.0864 143.388 99.1094 143.398 99.1043 143.462Z" fill="#FBC998"/>
<path d="M99.841 133.13C99.8103 133.146 99.7771 133.174 99.7464 133.174C99.7157 133.174 99.685 133.14 99.6543 133.123C99.6876 133.105 99.7182 133.076 99.7515 133.079C99.7848 133.082 99.8103 133.11 99.841 133.13Z" fill="#FBC998"/>
<path d="M100.793 133.555L100.631 133.509C100.721 133.396 100.749 133.509 100.793 133.555Z" fill="#FBC998"/>
<path d="M156.794 103.256C156.418 103.181 156.216 102.869 156.009 102.608C155.56 102.053 155.053 101.546 154.497 101.097C154.339 100.966 154.198 100.818 154.052 100.672C152.384 99.0144 150.727 97.3466 149.046 95.7018C147.675 94.3589 146.232 93.085 144.762 91.8648C144.209 91.4121 143.692 90.9158 143.173 90.4247C142.094 89.4015 140.935 88.4602 139.797 87.4984C138.937 86.777 138.093 86.0326 137.282 85.2601C135.891 83.9377 134.435 82.6868 132.987 81.4232C131.708 80.3079 130.332 79.3231 129.002 78.2768C128.091 77.5606 127.158 76.8623 126.316 76.054C125.474 75.2456 124.446 74.6036 123.502 73.9027C122.387 73.0765 121.267 72.2605 120.205 71.3652C120.157 71.3267 120.112 71.2848 120.069 71.2398C118.522 69.6258 116.744 68.2854 114.953 66.9782C113.319 65.7939 111.73 64.5456 110.063 63.3971C109.521 63.0447 108.927 62.7797 108.303 62.6118C108.835 62.2051 109.433 62.3227 110.009 62.4302C110.868 62.5888 111.6 63.0543 112.329 63.5096C114.658 64.9861 116.86 66.6537 118.913 68.4951C121.684 70.9508 124.684 73.12 127.61 75.3659C130.537 77.6118 133.514 79.8244 136.308 82.2724C138.032 83.7791 139.74 85.3011 141.482 86.7872C143.646 88.6316 145.708 90.5858 147.762 92.5504C149.433 94.1466 151.088 95.7581 152.827 97.2801C153.229 97.6305 153.625 97.9835 154.027 98.3314C155.254 99.4433 156.353 100.689 157.303 102.046C157.412 102.218 157.506 102.4 157.585 102.588L156.794 103.256Z" fill="#EB8248"/>
<path d="M106.589 62.4659C106.283 62.6379 105.938 62.729 105.587 62.7306C105.237 62.7321 104.891 62.6441 104.584 62.4748C104.276 62.3054 104.017 62.0605 103.831 61.763C103.645 61.4656 103.537 61.1256 103.519 60.7751C103.491 60.5631 103.521 60.3474 103.606 60.151C103.69 59.9546 103.827 59.7848 104 59.6598C104.404 59.6177 104.812 59.6847 105.182 59.8539C105.551 60.023 105.868 60.2882 106.1 60.6216C106.515 61.1742 106.776 61.7574 106.589 62.4659Z" fill="#ABCDED"/>
<path d="M101.655 57.2323C100.846 57.7439 100.058 57.7157 99.4137 57.1376C99.0701 56.858 98.8334 56.4685 98.7435 56.0347C98.6535 55.6009 98.7159 55.1493 98.92 54.7562C98.9456 54.705 99.007 54.6769 99.053 54.6359C100.156 54.0834 101.634 55.3854 101.734 56.5928C101.752 56.8102 101.537 57.0021 101.655 57.2323Z" fill="#ABCDED"/>
<path d="M96.1115 52.9093C94.8887 53.6767 94.0037 52.9221 93.5535 52.1419C93.2107 51.5613 93.4077 50.6609 93.9167 50.1953H94.0395C95.4003 50.2081 96.2496 51.2185 96.027 52.5819C95.9989 52.7149 95.9861 52.8377 96.1115 52.9093Z" fill="#ABCDED"/>
<path d="M91.2153 47.7934C90.2894 48.5889 89.1229 47.9469 88.7009 47.1718C88.3658 46.5553 88.1688 45.9337 88.7009 45.3173C89.0075 45.322 89.3125 45.3641 89.6089 45.4426C90.0408 45.5326 90.427 45.7721 90.6998 46.1187C90.9725 46.4654 91.1143 46.8972 91.1002 47.3381C91.1105 47.4864 91.0619 47.6578 91.2153 47.7934Z" fill="#ABCDED"/>
<path d="M156.794 103.256L157.59 102.578C157.764 102.506 157.846 102.613 157.933 102.741C158.657 103.872 159.391 105 160.107 106.138C160.335 106.504 160.266 106.632 159.739 107.075C159.13 106.205 158.406 105.432 157.741 104.609C157.411 104.202 156.973 103.88 156.774 103.368C156.786 103.332 156.793 103.294 156.794 103.256Z" fill="#5697DB"/>
<path d="M106.589 62.466C106.776 61.7574 106.515 61.1742 106.1 60.6217C105.868 60.2882 105.551 60.0231 105.182 59.8539C104.812 59.6847 104.404 59.6177 104 59.6599C103.998 59.6295 104.002 59.5989 104.013 59.5703L104.108 59.4501C104.372 59.2559 104.679 59.127 105.002 59.074C105.326 59.0211 105.657 59.0455 105.97 59.1453C106.282 59.2451 106.567 59.4175 106.8 59.6483C107.033 59.8791 107.208 60.1618 107.31 60.4733C107.452 60.8365 107.457 61.2387 107.324 61.6052C107.191 61.9717 106.93 62.2775 106.589 62.466V62.466Z" fill="#5697DB"/>
<path d="M96.1114 52.9093C95.986 52.83 95.9988 52.7072 96.0193 52.587C96.2418 51.2338 95.3926 50.2132 94.0317 50.2004H93.9089C94.0731 49.9346 94.3211 49.7309 94.6138 49.6216C94.9066 49.5123 95.2273 49.5036 95.5256 49.5967C96.5692 49.9421 97.0885 50.6378 96.9836 51.5613C96.9401 51.8343 96.8401 52.0953 96.6899 52.3274C96.5397 52.5596 96.3426 52.7578 96.1114 52.9093Z" fill="#5697DB"/>
<path d="M91.2156 47.7933C91.0621 47.668 91.1107 47.4966 91.1081 47.338C91.1222 46.8971 90.9804 46.4654 90.7077 46.1187C90.4349 45.772 90.0487 45.5326 89.6168 45.4426C89.3203 45.364 89.0154 45.3219 88.7087 45.3172C88.9425 44.9545 89.3091 44.6978 89.7299 44.6022C90.1507 44.5066 90.5922 44.5796 90.9598 44.8056C91.1982 44.9664 91.3976 45.1785 91.5434 45.4264C91.6891 45.6744 91.7775 45.9518 91.802 46.2383C91.8266 46.5249 91.7866 46.8132 91.6851 47.0823C91.5836 47.3514 91.4232 47.5944 91.2156 47.7933Z" fill="#5697DB"/>
<path d="M101.654 57.2323C101.537 57.0021 101.752 56.8102 101.734 56.5928C101.634 55.3854 100.155 54.0834 99.053 54.6359C99.0734 54.5797 99.0786 54.5055 99.1169 54.4671C99.6797 53.9044 100.741 53.8737 101.481 54.3929C101.845 54.6227 102.115 54.9763 102.24 55.3889C102.365 55.8015 102.337 56.2453 102.161 56.6388C102.051 56.8804 101.876 57.0861 101.654 57.2323V57.2323Z" fill="#5697DB"/>
<path d="M104.108 59.4501L104.013 59.5703C104.011 59.5561 104.012 59.5417 104.015 59.5278C104.019 59.5139 104.025 59.501 104.034 59.4897C104.043 59.4784 104.054 59.4691 104.067 59.4623C104.079 59.4555 104.093 59.4513 104.108 59.4501V59.4501Z" fill="#ABCDED"/>
</g>
<defs>
<clipPath id="clip0_6231_203805">
<rect width="233.288" height="150" fill="white" transform="translate(0.355957)"/>
</clipPath>
</defs>
</svg>
