<svg width="100" height="100" viewBox="0 0 100 100" fill="none" xmlns="http://www.w3.org/2000/svg">
<path d="M50.23 91.0006C49.0816 91.0006 48.0933 90.2389 47.5855 89.4264H52.8707C52.3668 90.2389 51.3784 91.0006 50.23 91.0006Z" fill="#FEECA5"/>
<path d="M50.23 91.0006C49.0816 91.0006 48.0933 90.2389 47.5855 89.4264H52.8707C52.3668 90.2389 51.3784 91.0006 50.23 91.0006Z" fill="#FEECA5"/>
<path d="M74.6169 43.91C73.5583 32.086 63.8199 22.555 51.9649 21.734C50.8008 21.652 49.6641 21.652 48.4961 21.734C36.6411 22.5504 26.9021 32.086 25.8441 43.91C25.1605 51.5545 27.9808 58.918 33.5785 64.113C36.2115 66.5546 37.8627 69.8552 38.2334 73.3438L62.2284 73.344C62.5991 69.8573 64.2503 66.554 66.8831 64.113C72.4808 58.9177 75.3005 51.554 74.6169 43.91Z" fill="#FEECA5"/>
<path fill-rule="evenodd" clip-rule="evenodd" d="M58.2261 73.3441L62.2284 73.3443C62.1756 73.8409 62.1487 74.3412 62.1487 74.8433V84.3588C62.1487 87.4252 59.8441 89.9604 56.8753 90.3237C55.9574 92.7964 53.4144 94.9995 50.2308 94.9995C47.0472 94.9995 44.5043 92.7964 43.5863 90.3237C40.6176 89.9605 38.3129 87.4213 38.3129 84.3588V74.8433C38.3129 74.341 38.2861 73.8406 38.2334 73.3441H42.2339H45.6128L48.6089 73.3443H51.8472L54.8511 73.3441H58.2261Z" fill="#C3C4D1"/>
<path fill-rule="evenodd" clip-rule="evenodd" d="M83.43 19.4505C83.6272 19.7121 84.028 20.6087 83.3423 22.9133C82.681 25.1356 81.1812 28.0027 78.7828 31.3451C74.0113 37.9942 66.161 45.8663 56.3284 53.2757C46.4959 60.6851 36.7648 66.0615 29.0581 68.8153C25.1842 70.1996 22.0147 70.851 19.6962 70.8741C17.2919 70.898 16.5405 70.2656 16.3433 70.004C16.1462 69.7423 15.7453 68.8457 16.4311 66.5411C17.0924 64.3188 18.5921 61.4517 20.9906 58.1094C22.4827 56.0301 24.2758 53.8313 26.3365 51.5644C26.0545 50.4366 25.927 48.9506 25.8273 47.7876C25.8048 47.5252 25.7837 47.2792 25.7626 47.0575C15.4051 57.8052 10.2252 67.7007 13.5481 72.1103C18.2691 78.3753 38.3655 71.1942 58.4348 56.0709C78.504 40.9477 90.9463 23.6091 86.2253 17.3441C82.8022 12.8016 71.2957 15.328 57.5772 22.8255C59.2199 23.4104 60.1325 23.8094 61.7527 24.5757C64.9407 22.9458 67.9576 21.6245 70.7153 20.6391C74.5892 19.2548 77.7587 18.6035 80.0772 18.5804C82.4815 18.5564 83.2329 19.1888 83.43 19.4505Z" fill="#60A0DC"/>
<path d="M20.5 66.5C21.7687 63.2744 22.7781 61.6572 25 59" stroke="#4CBEB3" stroke-width="3.5" stroke-linecap="round"/>
<path d="M70 24.5001C73.5243 23.1191 75.6011 22.6047 79.5 22.0001" stroke="#4CBEB3" stroke-width="3.5" stroke-linecap="round"/>
<path fill-rule="evenodd" clip-rule="evenodd" d="M16.3434 19.4505C16.1462 19.7121 15.7454 20.6087 16.4312 22.9133C17.0924 25.1356 18.5922 28.0027 20.9907 31.3451C22.6286 33.6275 24.6293 36.0541 26.9484 38.5566L26.9478 38.5588C26.4892 40.1824 26.2832 40.9116 26.0001 42.6426C15.4845 31.8002 10.2 21.7873 13.5482 17.3441C16.9911 12.7752 28.6117 15.3576 42.4356 22.9567L42.5001 22.9922C47.6125 25.8069 53.0247 29.3066 58.4349 33.3835C78.5041 48.5068 90.9463 65.8454 86.2253 72.1103C83.2813 76.0172 74.3577 74.695 63.1902 69.4785C63.7324 68.2056 64.094 67.553 64.8751 66.4023C66.9198 67.3508 68.8753 68.1578 70.7153 68.8153C74.5893 70.1996 77.7588 70.851 80.0773 70.8741C82.4815 70.898 83.233 70.2656 83.4301 70.004C83.6273 69.7423 84.0281 68.8457 83.3423 66.5411C82.6811 64.3188 81.1813 61.4517 78.7828 58.1094C74.0114 51.4603 66.1611 43.5881 56.3285 36.1787C50.1418 31.5167 43.9953 27.6596 38.368 24.7541C35.0517 23.0419 31.9158 21.6602 29.0582 20.6391C25.1842 19.2548 22.0147 18.6035 19.6963 18.5804C17.292 18.5564 16.5406 19.1888 16.3434 19.4505Z" fill="#60A0DC"/>
<path d="M67.5 81.5C67.5 82.4665 68.2835 83.25 69.25 83.25C70.2165 83.25 71 82.4665 71 81.5H67.5ZM71 75C71 74.0335 70.2165 73.25 69.25 73.25C68.2835 73.25 67.5 74.0335 67.5 75H71ZM71 81.5V75H67.5V81.5H71Z" fill="#8B7AB0"/>
<path d="M72.5 80C73.4665 80 74.25 79.2165 74.25 78.25C74.25 77.2835 73.4665 76.5 72.5 76.5V80ZM66 76.5C65.0335 76.5 64.25 77.2835 64.25 78.25C64.25 79.2165 65.0335 80 66 80V76.5ZM72.5 76.5H66V80H72.5V76.5Z" fill="#8B7AB0"/>
<circle cx="28" cy="82" r="3.25" stroke="#E8504A" stroke-width="3.5"/>
<path d="M13.5 48.5C13.5 49.4665 14.2835 50.25 15.25 50.25C16.2165 50.25 17 49.4665 17 48.5H13.5ZM17 42C17 41.0335 16.2165 40.25 15.25 40.25C14.2835 40.25 13.5 41.0335 13.5 42H17ZM17 48.5V42H13.5V48.5H17Z" fill="#8B7AB0"/>
<path d="M18.5 47C19.4665 47 20.25 46.2165 20.25 45.25C20.25 44.2835 19.4665 43.5 18.5 43.5V47ZM12 43.5C11.0335 43.5 10.25 44.2835 10.25 45.25C10.25 46.2165 11.0335 47 12 47V43.5ZM18.5 43.5H12V47H18.5V43.5Z" fill="#8B7AB0"/>
<circle cx="86" cy="45" r="3.25" stroke="#EB8045" stroke-width="3.5"/>
<path d="M47.25 17.5C47.25 18.4665 48.0335 19.25 49 19.25C49.9665 19.25 50.75 18.4665 50.75 17.5H47.25ZM50.75 11C50.75 10.0335 49.9665 9.25 49 9.25C48.0335 9.25 47.25 10.0335 47.25 11H50.75ZM50.75 17.5V11H47.25V17.5H50.75Z" fill="#E8504A"/>
<path d="M52.25 16C53.2165 16 54 15.2165 54 14.25C54 13.2835 53.2165 12.5 52.25 12.5V16ZM45.75 12.5C44.7835 12.5 44 13.2835 44 14.25C44 15.2165 44.7835 16 45.75 16V12.5ZM52.25 12.5H45.75V16H52.25V12.5Z" fill="#E8504A"/>
</svg>
