<svg width="92" height="133" viewBox="0 0 92 133" fill="none" xmlns="http://www.w3.org/2000/svg">
<path d="M91.4138 92.4142V93.8599C91.3806 93.9821 91.3591 94.1071 91.3495 94.2334C91.2772 96.7191 91.1768 99.2049 91.1568 101.691C91.1126 106.216 91.1126 110.742 91.3053 115.264C91.4057 117.673 91.3053 120.047 91.3375 122.44C91.3534 122.617 91.3104 122.794 91.2153 122.943C91.1201 123.093 90.9781 123.207 90.8114 123.267C89.9199 123.625 89.0284 123.99 88.1369 124.355C85.868 125.291 83.5951 126.235 81.1736 126.717C79.5432 127.046 77.8847 127.243 76.2503 127.56C73.7003 128.058 71.1624 128.616 68.5843 128.937C65.7733 129.287 62.9622 129.716 60.1512 130.142C58.3963 130.419 56.6374 130.672 54.8705 130.869C53.2642 131.05 51.6579 131.17 50.0516 131.271C48.0438 131.395 46.06 131.6 44.0642 131.716C42.1406 131.825 40.2131 131.821 38.2895 131.841C37.0848 131.841 35.8801 131.965 34.6754 132.054C33.2538 132.158 31.8362 132.319 30.4106 132.391C28.6357 132.487 26.8567 132.56 25.0777 132.564C21.5117 132.564 17.9578 132.76 14.3999 132.889C14.2082 132.861 14.0125 132.89 13.8377 132.973H12.1029C10.6725 132.69 9.21569 132.562 7.75783 132.592C7.48089 132.587 7.20649 132.645 6.95468 132.76C6.80593 132.697 6.68043 132.59 6.59553 132.452C6.51064 132.315 6.47055 132.155 6.48083 131.993C6.48083 131.752 6.48083 131.512 6.48083 131.271C6.56917 126.954 6.69769 122.641 6.74186 118.324C6.79406 113.256 6.91052 108.184 6.94265 103.116C6.97879 96.9038 6.98681 90.6955 7.23579 84.4872C7.36028 81.3629 7.11933 78.2347 7.16351 75.1024C7.24783 72.8408 7.1794 70.5762 6.9587 68.3238C6.85831 67.4885 6.78202 66.6492 6.69367 65.81C7.89839 65.81 9.01476 66.2115 10.1914 66.3601C11.5246 66.5207 12.8297 66.8741 14.167 67.0468C16.978 67.4163 19.7609 67.9584 22.5759 68.2877C24.1822 68.4684 25.7323 68.8017 27.3466 68.8218C28.6292 68.8467 29.9088 68.954 31.1776 69.143C32.9964 69.4474 34.8396 69.5818 36.6832 69.5446C37.3057 69.5205 37.9241 69.4723 38.5546 69.5084C39.9771 69.6228 41.4048 69.659 42.8313 69.6169C45.3384 69.4234 47.834 69.103 50.3086 68.6571C55.1757 67.9102 59.9745 66.8179 64.7653 65.7055C67.9498 64.9666 71.078 63.9908 74.2424 63.1636C76.3025 62.6255 78.4068 62.24 80.3865 61.4167C82.6514 60.477 84.9002 59.4892 87.1772 58.5776C88.1851 58.176 89.0364 57.4933 90.0524 57.1239C90.707 57.3448 90.8556 57.7303 90.5223 58.3286C90.4519 58.4733 90.4214 58.6341 90.4339 58.7944C90.4058 59.8988 90.3777 61.0071 90.3657 62.1114C90.3175 66.3762 90.3657 70.6369 90.5825 74.9016C90.7271 77.4918 90.8355 80.0859 90.9841 82.6761C91.1327 85.0574 91.1768 87.4468 91.2853 89.8321C91.266 90.6948 91.3089 91.5577 91.4138 92.4142ZM65.97 75.3433C65.9981 75.1385 65.8254 75.0983 65.701 75.006C65.1006 74.6365 64.4813 74.2988 63.8457 73.994C63.6469 73.8604 63.4389 73.7409 63.2233 73.6366C62.4201 73.3154 61.617 72.9941 60.8138 72.7291C60.4805 72.6206 60.1713 72.452 59.834 72.3717C59.0308 72.195 58.2277 72.0866 57.4607 71.8898C56.1698 71.6007 54.8473 71.4779 53.5252 71.5243C52.0125 71.5102 50.502 71.6447 49.0156 71.9259C47.7345 72.1869 46.4776 72.4962 45.2287 72.8696C43.7822 73.3326 42.3901 73.9506 41.0765 74.7128C39.6487 75.4678 38.2925 76.3508 37.0246 77.3512C35.1606 78.8015 33.4898 80.4844 32.0531 82.3588C31.2218 83.4953 30.4749 84.6719 29.7521 85.8726C28.8228 87.5266 28.0768 89.2771 27.5273 91.093C27.2875 91.705 27.0955 92.3347 26.9531 92.9764C26.6919 94.3216 26.5136 95.6814 26.419 97.0484C26.2874 99.1679 26.3735 101.295 26.676 103.397C26.7752 104.177 26.9405 104.947 27.1699 105.698C27.6348 107.209 28.2203 108.679 28.9208 110.096C29.3649 110.997 29.8596 111.872 30.4026 112.718C31.6697 114.525 33.1653 116.161 34.8521 117.585C35.1934 117.882 35.5106 118.264 36.0126 118.332C35.9443 118.513 36.0809 118.509 36.1893 118.533C37.1571 119.139 38.0405 119.866 39.0565 120.408C40.0082 120.98 40.9924 121.496 42.0041 121.954C43.4658 122.532 44.9195 123.159 46.5138 123.315C47.4575 123.416 48.3891 123.621 49.3248 123.717C50.3855 123.811 51.4525 123.811 52.5133 123.717C53.2883 123.673 54.0674 123.58 54.8424 123.524C55.7058 123.468 56.4929 123.062 57.3362 122.966C58.4491 122.772 59.5301 122.426 60.5488 121.938C61.0307 121.741 61.5407 121.609 62.0145 121.368C62.4884 121.127 62.8538 120.862 63.2835 120.641C64.2694 120.194 65.2027 119.639 66.0664 118.986C66.9418 118.252 67.9458 117.681 68.765 116.854C69.5842 116.027 70.5158 115.175 71.323 114.276C72.4842 112.949 73.5105 111.509 74.387 109.979C74.9904 108.897 75.5269 107.778 75.9933 106.63C76.5274 105.397 76.8286 104.092 77.2462 102.823C77.4183 102.358 77.5342 101.874 77.5916 101.381C77.6759 100.273 77.8406 99.1727 77.9932 98.0684C78.0642 96.958 78.0508 95.8437 77.953 94.7353C77.9717 94.2063 77.9422 93.6767 77.8647 93.1531C77.5795 91.8962 77.3547 90.6313 77.0093 89.3824C76.5909 87.9401 76.0439 86.5384 75.3749 85.1939C74.9524 84.3409 74.4664 83.5207 73.9212 82.7403C72.892 81.2614 71.7205 79.8869 70.4235 78.6362C69.6309 77.8563 68.751 77.1704 67.8012 76.5922C67.3109 76.0225 66.6794 75.5918 65.97 75.3433Z" fill="#BCB2CF"/>
<path d="M53.2563 -8.65711e-06C53.2442 0.0309786 53.2442 0.0653779 53.2563 0.0963652H49.2124V-0.00402832L53.2563 -8.65711e-06Z" fill="#F1C2A8"/>
<path d="M83.3663 52.5982H84.1333C84.2462 52.5893 84.3596 52.6085 84.4633 52.654C84.567 52.6996 84.6578 52.7701 84.7276 52.8592C85.1413 53.429 85.6851 53.8916 86.3139 54.2085C87.5186 54.9635 88.4663 56.0758 89.7152 56.7786C89.8678 56.8629 90.0365 56.9392 90.0686 57.14C89.0526 57.5094 88.2013 58.1881 87.1933 58.5937C84.9164 59.5053 82.6676 60.4931 80.4027 61.4328C78.4229 62.236 76.3187 62.6376 74.2586 63.1797C71.0942 64.0069 67.9659 64.9827 64.7815 65.7216C59.9907 66.834 55.1919 67.9263 50.3248 68.6732C47.8501 69.1191 45.3545 69.4395 42.8475 69.633C41.421 69.6751 39.9932 69.6389 38.5707 69.5245C37.9402 69.4884 37.3218 69.5245 36.6994 69.5607C34.8557 69.5979 33.0125 69.4635 31.1938 69.1591C29.925 68.97 28.6453 68.8627 27.3628 68.8378C25.7565 68.8378 24.1823 68.4845 22.5921 68.3037C19.7811 67.9745 16.97 67.4323 14.1831 67.0629C12.8459 66.8902 11.5408 66.5368 10.2075 66.3762C9.03093 66.2356 7.9025 65.8341 6.70982 65.826L6.56926 65.7256C6.12351 65.3241 5.68179 64.9225 5.22801 64.5571C4.01962 63.5288 2.93236 62.3661 1.9873 61.0915C2.05156 61.0513 2.1158 60.971 2.18005 60.975C3.83855 61.0152 5.39265 60.3687 6.97485 60.1197C7.68564 60.0072 8.40044 59.9229 9.11525 59.8265C9.11525 60.6899 9.11525 61.5533 9.11525 62.4167C9.11525 62.7098 9.15943 62.9668 9.47667 63.0753L10.5167 63.4166C11.0843 63.6708 11.689 63.8322 12.3078 63.8945C13.0467 64.0671 13.8056 64.0631 14.5486 64.1756C14.752 64.2597 14.971 64.2994 15.1911 64.292C15.8828 64.4854 16.6046 64.5481 17.3194 64.4768H17.721C18.6044 64.5448 19.4924 64.4328 20.3312 64.1475L21.8773 63.7057C22.3351 63.6575 22.5118 63.4046 22.4395 62.9508C22.4114 62.762 22.4395 62.5492 22.4194 62.3765C22.1985 60.1357 22.074 57.8869 21.9375 55.6381V54.2647C21.9375 50.4819 22.1102 46.7071 22.3391 42.9283C22.4997 40.0249 22.6563 37.1336 23.343 34.3025C23.8972 32.0135 24.3831 29.7044 25.2626 27.5038C25.6641 26.536 26.1942 25.6445 26.6118 24.6928C26.6524 24.6591 26.6836 24.6156 26.7026 24.5663C26.7216 24.5171 26.7277 24.4639 26.7203 24.4117L26.8287 24.3153C27.1692 23.747 27.5419 23.1986 27.9451 22.6729L28.0655 22.4801L28.1579 22.3757L28.2583 22.2753L28.3587 22.1709L28.455 22.0665C28.4886 22.0472 28.5161 22.019 28.5346 21.9849C28.553 21.9509 28.5616 21.9124 28.5595 21.8738C28.8486 21.8336 28.9851 21.5926 29.1498 21.4079C30.1464 20.342 31.2498 19.3812 32.4427 18.5407C34.4182 17.0618 36.5782 15.8468 38.8679 14.9265C41.3237 13.8437 43.9306 13.1422 46.5982 12.8464C49.1715 12.6253 51.7636 12.8343 54.2682 13.4648C56.2167 14.011 58.0872 14.8045 59.8341 15.826C62.2993 17.1015 64.3893 18.9977 65.8978 21.3276C67.5041 23.9097 68.3314 26.793 68.749 29.7928C68.8976 30.869 68.99 31.9492 69.1104 33.0295C69.1546 33.8085 69.2028 34.5916 69.247 35.3707C69.1466 36.8444 69.2992 38.3142 69.2791 39.788C69.243 42.2416 69.1385 44.6912 69.1907 47.1488C69.255 50.261 69.3152 53.3772 69.3273 56.4894C69.3273 58.0957 69.3273 58.0957 70.8573 58.7061C71.4576 59.0319 72.1199 59.2276 72.8009 59.2804C73.0462 59.3628 73.3015 59.4114 73.5599 59.4249L75.4151 59.6338C75.8017 59.684 76.1931 59.684 76.5797 59.6338L76.9532 59.5816C78.2093 59.5745 79.4549 59.3518 80.6356 58.923L80.9047 58.8387C81.1038 58.7982 81.2915 58.7146 81.4548 58.5937C81.828 58.4819 82.1674 58.279 82.4427 58.0034C82.6876 57.8668 82.9567 57.6942 82.9487 57.4131C82.9487 56.9111 83.1053 56.4413 83.1334 55.9473C83.2057 54.8269 83.294 53.7146 83.3663 52.5982ZM24.4634 48.8395C24.4634 50.767 24.4634 52.6946 24.4634 54.6221C24.4634 55.6863 24.62 56.7344 24.6762 57.7905C24.6762 58.0114 24.7164 58.1921 25.0457 58.1319C27.5997 57.7745 30.1577 57.4291 32.7358 57.2444C34.3823 57.1239 36.0127 56.8228 37.6591 56.6541C40.4702 56.365 43.3133 56.1401 46.1324 55.8509C49.0397 55.5417 51.9552 55.369 54.8706 55.2084C57.3845 55.0719 59.8863 54.7667 62.3961 54.5699C64.0024 54.4454 65.5886 54.2647 67.1869 54.1684C68.243 54.092 68.2872 54.072 68.1426 53.0158C67.9263 51.5394 67.7842 50.053 67.717 48.5624C67.6286 45.9039 67.6688 43.2415 67.5724 40.5791C67.472 37.768 67.1949 34.957 67.215 32.1179C67.2311 31.2346 67.1476 30.3522 66.966 29.4876C66.3519 26.7288 65.265 24.0972 63.7534 21.7091C62.5092 19.7277 60.7205 18.1467 58.6012 17.1553C56.8836 16.3234 55.093 15.6513 53.2523 15.1474C52.0218 14.7758 50.7572 14.5283 49.4775 14.4085C47.651 14.2709 45.8146 14.4558 44.0522 14.9546C42.2813 15.4727 40.4943 15.9425 38.8317 16.7818C35.6424 18.4236 32.7348 20.5627 30.218 23.1186C29.1477 24.1173 28.2722 25.3061 27.6358 26.6244C26.9647 28.0294 26.4165 29.4899 25.9974 30.9895C25.0425 34.8908 24.5346 38.8881 24.4835 42.9042C24.4273 44.8679 24.4634 46.8597 24.4634 48.8395Z" fill="#8B7AAF"/>
<path d="M1.99536 61.0874C2.94042 62.362 4.02767 63.5247 5.23606 64.553C5.68984 64.9546 6.13156 65.3321 6.57731 65.7216L6.71787 65.822C6.80622 66.6613 6.88251 67.5006 6.9829 68.3358C7.2036 70.5882 7.27203 72.8529 7.18771 75.1144C7.14353 78.2467 7.38448 81.375 7.25999 84.4992C7.01101 90.7075 7.00299 96.9159 6.96685 103.128C6.93472 108.196 6.81826 113.268 6.76606 118.336C6.72189 122.653 6.59337 126.966 6.50503 131.283C6.50503 131.524 6.50503 131.764 6.50503 132.005C6.49475 132.167 6.53484 132.327 6.61973 132.464C6.70463 132.602 6.83013 132.709 6.97888 132.772C6.65762 133.001 6.44077 132.805 6.22794 132.592C5.15975 131.499 4.15583 130.355 3.17599 129.182C2.58969 128.481 1.99536 127.785 1.39299 127.094C1.1641 126.833 1.02355 126.6 1.24441 126.243C1.34563 125.97 1.36104 125.673 1.28858 125.392C0.927165 120.532 0.999445 115.665 0.959288 110.802C0.932516 107.483 0.932516 104.159 0.959288 100.831C1.00346 95.663 1.03157 90.4907 1.15606 85.3224C1.26046 81.0979 1.03158 76.8894 1.11993 72.6568C1.16008 70.7132 1.33678 68.7776 1.4452 66.842C1.54559 65.1032 1.68213 63.3443 1.19221 61.6215C1.15705 61.5229 1.15124 61.4161 1.17547 61.3142C1.1997 61.2123 1.25292 61.1196 1.32873 61.0473C1.55763 60.8264 1.77047 61.0794 1.99536 61.0874Z" fill="#544772"/>
<path d="M67.8014 76.6243C68.7512 77.2025 69.6311 77.8884 70.4237 78.6683C71.7207 79.919 72.8922 81.2935 73.9214 82.7724C74.4667 83.5528 74.9526 84.373 75.3751 85.226C76.0433 86.5653 76.5902 87.9616 77.0095 89.3984C77.3549 90.6473 77.5798 91.9123 77.8649 93.1692C77.9424 93.6928 77.972 94.2224 77.9532 94.7514C78.051 95.8598 78.0644 96.974 77.9934 98.0844C77.8609 99.1888 77.6962 100.289 77.5918 101.397C77.5345 101.89 77.4185 102.374 77.2464 102.839C76.8449 104.108 76.5276 105.413 75.9935 106.646C75.5271 107.794 74.9907 108.913 74.3872 109.995C73.5108 111.525 72.4844 112.965 71.3232 114.292C70.5201 115.191 69.6165 116.011 68.7652 116.87C67.9138 117.729 66.9421 118.268 66.0666 119.002C65.2029 119.655 64.2696 120.21 63.2837 120.657C62.854 120.878 62.4565 121.163 62.0147 121.384C61.573 121.605 61.0309 121.757 60.549 121.954C59.5303 122.442 58.4493 122.788 57.3364 122.982C56.4931 123.078 55.706 123.484 54.8426 123.54C54.0676 123.596 53.2885 123.689 52.5135 123.733C51.4528 123.827 50.3857 123.827 49.325 123.733C48.3773 123.621 47.4456 123.416 46.514 123.331C44.9077 123.163 43.466 122.528 42.0043 121.97C40.9926 121.512 40.0084 120.996 39.0567 120.424C38.0408 119.882 37.1573 119.155 36.1895 118.549C36.186 118.5 36.1669 118.455 36.135 118.418C36.1031 118.382 36.0602 118.357 36.0128 118.348C35.669 117.94 35.2973 117.556 34.9005 117.199C33.856 116.109 32.8986 114.938 32.0372 113.698C30.9584 112.14 30.0926 110.445 29.4631 108.658C29.0883 107.657 28.7758 106.634 28.5275 105.594C28.0428 103.375 27.843 101.104 27.9331 98.8354C27.9813 97.7913 28.162 96.7512 28.2986 95.7071C28.4351 94.663 28.8849 93.623 29.0575 92.5467C29.2674 91.534 29.6174 90.5554 30.0976 89.6393C30.696 88.3583 31.2019 87.0171 32.0573 85.8645C32.308 85.5966 32.514 85.2902 32.6677 84.957C32.9244 84.3569 33.2938 83.8116 33.756 83.3507C34.0371 83.0053 34.3623 82.6961 34.6314 82.3427C35.337 81.4984 36.0891 80.694 36.8842 79.9333C37.342 79.4554 37.9444 79.1663 38.3941 78.7005C39.0878 78.041 39.8639 77.4741 40.7032 77.0138C42.1556 76.1188 43.6678 75.3245 45.2289 74.6365C47.0951 73.8679 49.0476 73.3286 51.0437 73.0302C52.5677 72.7881 54.1122 72.7006 55.6538 72.7692C57.1713 72.8205 58.6809 73.0114 60.1635 73.3394C61.4824 73.6309 62.7686 74.0547 64.0025 74.6044C64.641 74.8975 65.2073 75.3754 65.9743 75.4075C66.0827 75.8091 66.5204 75.8533 66.7774 76.042C67.077 76.3017 67.425 76.4996 67.8014 76.6243ZM68.2953 80.0819C68.2953 80.0136 68.2592 79.9775 68.1909 79.9775C68.1187 79.7405 67.8938 79.6923 67.705 79.604C66.7274 78.8503 65.6891 78.1788 64.6009 77.5961C63.5859 77.0595 62.5257 76.6133 61.4325 76.2629C60.5905 75.9728 59.7253 75.7551 58.8463 75.6123C57.8103 75.4879 56.7943 75.2108 55.7301 75.2349C54.8266 75.2349 53.907 75.1184 53.0195 75.2831C51.6943 75.528 50.341 75.4919 49.0358 75.9818C47.7307 76.4717 46.4015 76.6524 45.1848 77.3592C43.8395 78.1383 42.3737 78.7005 41.169 79.7164C40.145 80.5678 39.0246 81.2906 38.0689 82.2263C36.3783 83.9475 34.9142 85.8772 33.7118 87.9688C32.9836 89.2934 32.3684 90.677 31.8726 92.105C31.5809 93.0142 31.3475 93.941 31.1738 94.8799C30.869 96.1984 30.6915 97.5432 30.6438 98.8956C30.5609 100.526 30.6755 102.16 30.9851 103.763C31.3598 105.993 32.0806 108.152 33.1215 110.16C33.967 111.767 35.026 113.253 36.2698 114.577C37.0767 115.5 37.9892 116.325 38.9885 117.035C39.5346 117.384 40.0647 117.766 40.5948 118.131C40.8466 118.375 41.1405 118.57 41.4622 118.709C42.0645 118.93 42.6669 119.167 43.2452 119.444C45.2605 120.403 47.4423 120.964 49.6703 121.095C51.0799 121.183 52.4814 121.344 53.9069 121.038C54.3848 120.934 54.8908 120.958 55.3767 120.882C56.5326 120.678 57.6701 120.382 58.778 119.994C59.4888 119.761 60.2679 119.629 60.8783 119.239C61.9344 118.569 63.107 118.139 64.1471 117.424C65.3018 116.656 66.4082 115.818 67.4601 114.914C68.8797 113.618 70.1499 112.168 71.2469 110.589C71.8172 109.786 72.283 108.927 72.805 108.1C73.4082 107.019 73.9136 105.886 74.3149 104.714C74.7409 103.475 75.0711 102.205 75.3028 100.916C75.6002 99.5522 75.735 98.1584 75.7044 96.7633C75.7423 95.1459 75.5982 93.5295 75.2747 91.9444C74.8586 90.0944 74.2349 88.2974 73.4154 86.5874C73.2508 86.242 73.0139 85.9368 72.8532 85.5834C72.4993 84.893 72.084 84.2358 71.6124 83.6197C71.1645 82.9484 70.6388 82.3323 70.0462 81.7845C69.5643 81.3308 69.2431 80.7123 68.5765 80.4513C68.5283 80.2826 68.5403 80.0497 68.2793 80.0497L68.2953 80.0819Z" fill="#FBD336"/>
<path d="M65.9741 75.3634C65.2192 75.3634 64.6409 74.8695 64.0024 74.5603C62.7685 74.0106 61.4823 73.5868 60.1633 73.2953C58.6808 72.9673 57.1712 72.7764 55.6537 72.7251C54.1121 72.6565 52.5676 72.7439 51.0436 72.9861C49.0475 73.2845 47.095 73.8238 45.2288 74.5924C43.6676 75.2804 42.1555 76.0747 40.7031 76.9697C39.8638 77.4299 39.0877 77.9969 38.394 78.6563C37.9442 79.1222 37.3419 79.4113 36.8841 79.8892C36.089 80.6498 35.3369 81.4542 34.6313 82.2986C34.3622 82.652 34.0369 82.9612 33.7558 83.3066C33.2937 83.7675 32.9243 84.3128 32.6676 84.9129C32.5139 85.2461 32.3078 85.5525 32.0572 85.8204C31.2018 86.9729 30.6958 88.3142 30.0975 89.5952C29.6173 90.5113 29.2672 91.4898 29.0574 92.5026C28.8847 93.5788 28.435 94.5828 28.2984 95.663C28.1619 96.7432 27.9812 97.7472 27.933 98.7913C27.8429 101.06 28.0427 103.331 28.5273 105.55C28.7757 106.589 29.0881 107.613 29.463 108.614C30.0925 110.401 30.9582 112.096 32.0371 113.654C32.8985 114.894 33.8558 116.065 34.9003 117.155C35.2972 117.512 35.6689 117.896 36.0127 118.304C35.5107 118.235 35.2095 117.854 34.8521 117.557C33.1654 116.133 31.6698 114.497 30.4027 112.69C29.8597 111.844 29.365 110.969 28.9209 110.067C28.2204 108.651 27.6349 107.181 27.17 105.67C26.9405 104.919 26.7753 104.149 26.6761 103.369C26.3736 101.267 26.2875 99.1398 26.4191 97.0203C26.5176 95.6639 26.6987 94.3148 26.9612 92.9805C27.1036 92.3388 27.2956 91.7091 27.5354 91.0971C28.0849 89.2812 28.8309 87.5307 29.7602 85.8766C30.483 84.6719 31.2299 83.4993 32.0612 82.3629C33.4952 80.4875 35.1632 78.8033 37.0246 77.3512C38.2916 76.3539 39.6465 75.4735 41.0725 74.7209C42.3862 73.9587 43.7783 73.3407 45.2248 72.8777C46.4737 72.5042 47.7306 72.195 49.0116 71.934C50.4981 71.6528 52.0086 71.5183 53.5213 71.5324C54.8433 71.4859 56.1659 71.6087 57.4567 71.8978C58.2358 72.0946 59.0429 72.203 59.83 72.3797C60.1674 72.46 60.4766 72.6287 60.8099 72.7371C61.613 73.0022 62.4162 73.3234 63.2193 73.6447C63.435 73.749 63.643 73.8684 63.8418 74.0021C64.4774 74.3068 65.0967 74.6446 65.697 75.014C65.8296 75.1185 66.0022 75.1586 65.9741 75.3634Z" fill="#564771"/>
<path d="M67.8012 76.6243C67.4252 76.4838 67.0811 76.2694 66.7892 75.9939C66.5162 75.8051 66.0784 75.769 65.9861 75.3594C66.6914 75.6149 67.3173 76.0511 67.8012 76.6243Z" fill="#564771"/>
<path d="M36.0086 118.332C36.0559 118.341 36.0988 118.366 36.1308 118.402C36.1627 118.439 36.1818 118.484 36.1852 118.533C36.0768 118.508 35.9403 118.512 36.0086 118.332Z" fill="#564771"/>
<path d="M83.3663 52.5982C83.294 53.7146 83.2057 54.827 83.1494 55.9393C83.1213 56.4333 82.9527 56.9031 82.9647 57.4051C82.9647 57.6862 82.7037 57.8588 82.4587 57.9954C82.515 55.7385 82.6033 53.4817 82.6154 51.2248C82.6154 47.948 82.6957 44.6752 82.5511 41.4023C82.4507 39.1254 82.2218 36.8525 82.2057 34.5756C82.1355 31.2184 81.5948 27.8877 80.5994 24.6808C80.0446 22.6685 79.2843 20.7187 78.3305 18.862C76.415 15.2478 73.7928 12.2239 70.789 9.49726C69.0939 7.99392 67.2255 6.69838 65.2232 5.63814C64.9381 5.48554 64.5806 5.30483 64.3758 5.67428C64.171 6.04373 64.5485 6.22443 64.8216 6.38506C65.4681 6.78663 66.1307 7.14002 66.7612 7.54962C69.8647 9.62577 72.6007 12.2044 74.8569 15.1795C78.7361 20.1229 80.479 25.9297 81.1496 32.0456C81.503 35.2101 81.5512 38.4146 81.6516 41.6031C81.7961 46.2011 81.6516 50.8032 81.5793 55.4012C81.5793 56.4574 81.511 57.5175 81.4749 58.5736C81.3116 58.6945 81.1238 58.7781 80.9247 58.8186C80.8986 57.8415 80.9348 56.8637 81.0332 55.8911C81.1175 53.7708 81.3223 51.6505 81.3785 49.5262C81.4227 47.7994 81.3785 46.0686 81.3303 44.3378C81.2701 42.4665 81.005 40.6112 80.985 38.7359C81.0246 38.2436 80.9673 37.7484 80.8163 37.2782V37.0051V36.6878C80.7279 35.2823 80.6517 33.8768 80.5553 32.4673C80.4465 30.7857 80.1775 29.1183 79.7521 27.4878C79.2902 25.5771 78.6405 23.7168 77.8125 21.934L77.7282 21.7975L77.6278 21.6007C77.6306 21.5604 77.622 21.5201 77.6028 21.4846C77.5836 21.449 77.5546 21.4196 77.5194 21.3999L77.431 21.2232C77.5113 20.9983 77.3788 20.8618 77.2262 20.7373C77.243 20.6423 77.2402 20.5449 77.2181 20.451C77.196 20.3571 77.1551 20.2687 77.0977 20.1912C76.8527 19.6852 76.5917 19.1872 76.3548 18.6813C75.3405 16.5315 74.0024 14.5501 72.3873 12.8062C71.2132 11.5766 69.922 10.4643 68.5322 9.48521C67.5865 8.71373 66.559 8.04848 65.4681 7.50144C63.894 6.81876 62.3278 6.12806 60.7416 5.47349C57.2666 4.08293 53.5577 3.37003 49.8148 3.37325C49.112 3.37325 48.4092 3.43349 47.7065 3.45758C46.7588 3.49774 45.8111 3.48971 44.8714 3.57806C44.265 3.6383 43.6667 3.57805 43.0523 3.67041C39.5116 4.18915 36.0465 5.13297 32.7318 6.48143C31.2781 7.04765 29.8003 7.65805 28.5594 8.69411C28.0494 9.1238 27.3788 9.35269 26.8407 9.74623C24.572 11.3471 22.4729 13.1758 20.5761 15.2036C20.0969 15.7001 19.6912 16.2627 19.3714 16.8742L19.3513 16.8541L19.251 16.9625L18.9538 17.2517L18.8655 17.328L18.7651 17.4243C18.65 17.5115 18.5437 17.6097 18.4478 17.7175C17.2118 19.3175 16.0989 21.009 15.1188 22.7773C13.5928 25.6365 12.7093 28.7206 11.8419 31.8127C10.6693 36.0734 10.3159 40.4627 10.1995 44.8639C10.1071 48.3456 10.1995 51.8312 10.2436 55.3048C10.2798 58.0034 10.4203 60.6939 10.5167 63.3845L9.47263 63.0432C9.15539 62.9347 9.10719 62.6777 9.11121 62.3846C9.11121 61.5212 9.11121 60.6578 9.11121 59.7944C9.15538 57.6741 9.20358 55.5498 9.04295 53.4415C8.6703 48.6402 8.57243 43.8215 8.74981 39.0089C8.94658 33.8527 10.1111 28.8652 11.7214 23.958C13.1847 19.6275 15.6156 15.6874 18.8293 12.4368C20.463 10.7353 22.1969 9.1328 24.0217 7.63797C24.6929 7.08868 25.415 6.6046 26.1781 6.1923C27.3186 5.56986 28.455 4.94742 29.5634 4.26475C30.2592 3.86702 31.0084 3.57088 31.7881 3.3853L39.0606 1.37743C41.4701 0.710815 43.8996 0.610418 46.3412 0.45782C47.309 0.4016 48.2366 0.112473 49.2004 0.0883789H53.2442C54.8907 0.341371 56.5331 0.646562 58.1595 1.01199C59.6755 1.37035 61.1455 1.90122 62.5406 2.5942C64.8908 3.66829 67.1781 4.87496 69.3915 6.20837C73.094 8.52946 75.7645 11.7461 77.9611 15.4767C80.1007 19.1763 81.6251 23.1989 82.4748 27.3874C82.9005 29.3712 82.9687 31.4031 83.1213 33.411C83.2739 35.4189 83.4305 37.5392 83.5711 39.6033C83.7237 41.8039 83.4948 44.0005 83.4546 46.1971C83.4265 48.3295 83.3984 50.4659 83.3663 52.5982Z" fill="#E7514B"/>
<path d="M20.3192 64.1314C19.4802 64.416 18.5926 64.5293 17.709 64.4646C17.7743 64.183 17.8039 63.8943 17.7973 63.6053C17.8174 61.6818 17.46 59.7783 17.4921 57.8507C17.47 57.5496 17.4203 57.2512 17.3435 56.9592L17.3114 55.7826V54.6301C17.3114 52.1604 17.2391 49.6867 17.4198 47.2251C17.5764 45.1007 17.7973 42.9804 17.974 40.8601C18.1507 38.7398 18.4438 36.6918 18.7771 34.6237C19.2694 32.119 20.0651 29.6835 21.1464 27.3712C22.4957 24.3072 23.9936 21.3476 26.1862 18.7695C26.6417 18.3059 27.0457 17.7943 27.3909 17.2435L27.4913 17.1432L27.5917 17.0428L27.6921 16.9424L27.7925 16.842L27.8808 16.7135L29.2462 15.4003C29.2839 15.3985 29.3203 15.3862 29.3515 15.365C29.3827 15.3437 29.4074 15.3143 29.4229 15.2798L29.5233 15.1875L29.6277 15.0911C29.7053 15.0791 29.7801 15.0533 29.8486 15.0148C30.7484 14.2911 31.6985 13.6322 32.6917 13.0431C34.4988 11.9387 36.3059 10.8505 38.4222 10.4007C41.0404 9.85056 43.6426 9.19599 46.301 8.92694C47.9073 8.75426 49.5136 8.87475 51.1199 8.8386C52.3869 8.81824 53.6509 8.96678 54.8787 9.28033C61.1105 10.7241 66.6385 14.3081 70.4999 19.408C71.6831 20.8769 72.5881 22.5494 73.1704 24.3434C73.5129 25.2939 73.7473 26.2799 73.8691 27.2829C73.4956 26.54 73.1423 25.785 72.7487 25.0542C71.6432 23.1185 70.3216 21.3147 68.8093 19.6771C67.8633 18.5207 66.7635 17.4992 65.5405 16.6412C63.9876 15.6214 62.3683 14.7064 60.6935 13.9024C60.541 13.8119 60.3641 13.7712 60.1875 13.786C60.1708 13.7486 60.1417 13.7181 60.1051 13.6998C60.0684 13.6815 60.0266 13.6765 59.9867 13.6856C59.9623 13.6477 59.927 13.6182 59.8853 13.6009C59.8437 13.5837 59.7978 13.5796 59.7538 13.5892C59.7224 13.5836 59.6915 13.5755 59.6614 13.5651C58.1917 12.9828 56.7621 12.2761 55.1758 12.0432C54.8548 11.8984 54.5135 11.8036 54.1639 11.7621C52.931 11.5492 51.6902 11.4328 50.4453 11.3364C48.6125 11.1663 46.7668 11.1933 44.9397 11.4167C43.3283 11.681 41.734 12.0404 40.165 12.4929C37.7234 13.1354 35.5388 14.292 33.4025 15.5569C31.4307 16.7215 29.7883 18.3157 28.0816 19.8136C25.4995 22.0785 23.7526 24.9096 22.4114 28.0178C21.491 30.277 20.8178 32.6292 20.4035 35.0333C19.7281 38.7185 19.3694 42.4547 19.3313 46.2011C19.3313 46.8757 19.4197 47.5503 19.4116 48.2089C19.3835 50.281 19.5201 52.3451 19.5442 54.4173C19.5442 55.4855 19.6687 56.5577 19.7409 57.6299C19.9016 59.8024 20.2831 61.9508 20.3192 64.1314Z" fill="#BFDEBE"/>
<path d="M19.3714 16.8942C19.6912 16.2827 20.0969 15.7202 20.5762 15.2237C22.4729 13.1958 24.572 11.3672 26.8407 9.7663C27.3788 9.36473 28.0454 9.14385 28.5595 8.71417C29.8003 7.67811 31.2781 7.06772 32.7318 6.5015C36.0465 5.15305 39.5116 4.20923 43.0523 3.69048C43.6506 3.61419 44.257 3.65835 44.8714 3.59812C45.8111 3.50977 46.7588 3.51781 47.7065 3.47765C48.4093 3.45356 49.112 3.38126 49.8148 3.39331C53.5507 3.38447 57.254 4.08914 60.7256 5.46946C62.3118 6.12402 63.8779 6.81472 65.4521 7.4974C66.543 8.04445 67.5705 8.7097 68.5161 9.48118C69.906 10.4603 71.1971 11.5726 72.3712 12.8022C73.9931 14.5487 75.3367 16.5343 76.3548 18.6893C76.5917 19.1953 76.8528 19.6932 77.0977 20.1992C77.1551 20.2767 77.196 20.3652 77.2181 20.4591C77.2402 20.5529 77.243 20.6504 77.2262 20.7453C77.0616 20.669 77.0174 20.5044 76.9411 20.3679C75.7928 18.4337 74.3713 16.6754 72.7206 15.1474C71.6644 14.1635 70.4878 13.3283 69.3393 12.4528C66.6742 10.4237 63.5789 9.03333 60.2919 8.3889L58.8462 8.0315C58.786 7.903 58.6735 7.89898 58.557 7.90701C58.4487 7.80135 58.3064 7.73735 58.1555 7.7263C54.9151 6.8803 51.5915 6.39281 48.2446 6.2726C46.9463 6.2628 45.6492 6.35545 44.3654 6.54969C41.7873 6.84284 39.3136 7.59378 36.8439 8.33268C35.2939 8.79449 33.8964 9.6659 32.4668 10.4369C30.1102 11.7152 27.9141 13.2695 25.9251 15.0671C23.6356 17.0894 21.6942 19.4745 20.1786 22.1268C18.5583 24.9049 17.2864 27.8722 16.3918 30.9614C15.6332 33.6651 15.2588 36.462 15.2794 39.27C15.2794 40.3462 15.1067 41.4063 15.0746 42.4826C15.0505 43.4062 14.8377 44.3258 14.8256 45.2454C14.8136 46.165 14.7573 47.0404 14.6811 47.9319C14.6369 48.4339 14.7774 48.9198 14.6811 49.4057C14.5124 50.3815 14.681 51.3573 14.7292 52.3251C14.8055 54.0318 14.8015 55.7465 14.9541 57.4532C15.0947 58.9712 14.8055 60.4972 14.9019 62.0232C14.9501 62.7861 15.0786 63.5411 15.171 64.3001C14.951 64.3074 14.7319 64.2677 14.5284 64.1836L14.4562 62.4488C14.3999 61.2441 14.1269 60.0394 14.1269 58.8106C14.1269 57.5817 13.9984 56.2847 13.9703 55.0197C13.9502 54.1362 13.7133 53.2608 13.8498 52.3814C14.167 50.3534 14.1309 48.3014 14.3116 46.2654C14.4321 44.9241 14.404 43.5708 14.5405 42.2496C14.9421 38.4066 15.3999 34.5675 16.1468 30.7726C16.9245 26.6658 18.7411 22.8265 21.4235 19.6209C21.8203 19.2008 22.1629 18.7327 22.4435 18.2275C22.8049 17.4564 22.7607 16.8782 22.0941 16.8019C21.2066 16.6694 20.279 16.5368 19.3714 16.8942Z" fill="#EA8045"/>
<path d="M15.187 64.288C15.0947 63.529 14.9662 62.7741 14.918 62.0111C14.8216 60.4851 15.1108 58.9591 14.9702 57.4412C14.8176 55.7345 14.8216 54.0198 14.7453 52.3131C14.7052 51.3453 14.5285 50.3695 14.6971 49.3936C14.7815 48.9077 14.6409 48.4218 14.6971 47.9199C14.7734 47.0284 14.8297 46.1329 14.8417 45.2333C14.8537 44.3338 15.0666 43.3941 15.0907 42.4705C15.1228 41.3983 15.3115 40.3381 15.2955 39.2579C15.2749 36.4499 15.6493 33.653 16.4078 30.9493C17.3025 27.8601 18.5743 24.8929 20.1947 22.1147C21.7103 19.4624 23.6517 17.0774 25.9412 15.055C27.9302 13.2574 30.1262 11.7031 32.4828 10.4249C33.9125 9.65385 35.2939 8.78244 36.86 8.32063C39.3297 7.58173 41.8034 6.83079 44.3815 6.53764C45.6603 6.34827 46.952 6.25965 48.2446 6.2726C51.5945 6.39484 54.9208 6.88504 58.1635 7.73434C58.3145 7.74539 58.4567 7.80938 58.5651 7.91504C57.3149 7.7196 56.0593 7.56567 54.7983 7.45323C52.9792 7.24927 51.1442 7.22774 49.3209 7.38898C46.3591 7.74214 43.4303 8.33166 40.5625 9.15189C37.2662 10.0421 34.1559 11.515 31.3785 13.5009C30.6976 13.9195 30.1032 14.4648 29.6277 15.1072L29.5232 15.2036L29.4229 15.296C29.3853 15.2983 29.349 15.3107 29.3179 15.3319C29.2868 15.3531 29.262 15.3823 29.2462 15.4164L27.8808 16.7296C27.8491 16.7708 27.8196 16.8137 27.7925 16.8581C27.7658 16.8581 27.7403 16.8687 27.7215 16.8875C27.7027 16.9063 27.6921 16.9319 27.6921 16.9585C27.6278 16.9585 27.5917 16.9906 27.5917 17.0589C27.578 17.0568 27.5641 17.058 27.551 17.0624C27.5379 17.0667 27.5259 17.074 27.5162 17.0838C27.5064 17.0936 27.4991 17.1055 27.4948 17.1186C27.4904 17.1317 27.4893 17.1456 27.4913 17.1593C27.4776 17.1572 27.4637 17.1584 27.4506 17.1628C27.4375 17.1671 27.4256 17.1744 27.4158 17.1842C27.406 17.1939 27.3987 17.2059 27.3944 17.219C27.39 17.2321 27.3889 17.246 27.3909 17.2597C27.1861 17.2597 27.0777 17.4083 26.9532 17.5207C22.329 21.7518 19.2247 27.3862 18.1185 33.5556C17.8296 35.2463 17.6326 36.9515 17.5282 38.6636C17.3234 41.073 17.1026 43.5186 17.0584 45.9562C17.0343 47.189 17.1146 48.4299 17.0343 49.6587C16.9713 51.1497 16.9887 52.6431 17.0865 54.1322C17.0805 54.6923 17.1371 55.2512 17.2552 55.7988C17.2552 56.2003 17.2551 56.6019 17.2873 56.9754C17.2873 58.3809 17.3114 59.7864 17.2471 61.1919C17.1608 62.2892 17.1608 63.3915 17.2471 64.4888C16.5539 64.5465 15.856 64.4785 15.187 64.288Z" fill="#FBD336"/>
<path d="M60.2917 8.38892C63.5749 9.03629 66.666 10.4279 69.3272 12.4569C70.4757 13.3323 71.6523 14.1676 72.7084 15.1514C74.3591 16.6794 75.7806 18.4377 76.929 20.3719C77.0053 20.5084 77.0494 20.6731 77.2141 20.7494C77.2114 20.8403 77.2283 20.9308 77.2636 21.0146C77.299 21.0984 77.3519 21.1737 77.4189 21.2353C77.447 21.2955 77.4791 21.3558 77.5072 21.412L77.6157 21.6128L77.7161 21.8095L77.8004 21.9461C78.6249 23.7398 79.2692 25.6109 79.7239 27.532C80.1493 29.1625 80.4183 30.8299 80.5271 32.5115C80.6235 33.917 80.6997 35.3225 80.7881 36.732C80.7556 36.7785 80.7382 36.8339 80.7382 36.8906C80.7382 36.9474 80.7556 37.0028 80.7881 37.0493V37.3223C80.7612 37.3962 80.7437 37.4731 80.7359 37.5512C80.7801 39.3824 80.8564 41.2096 80.8684 43.0367C80.8684 44.0126 80.7519 44.9884 80.7158 45.9682C80.6006 47.4685 80.5617 48.9737 80.5994 50.4779C80.6797 51.787 80.499 53.1002 80.5753 54.4174C80.6636 55.9233 80.6154 57.4372 80.6275 58.9471C79.4468 59.3759 78.2012 59.5987 76.945 59.6057C76.8727 58.9632 77.0575 58.3287 77.0294 57.6862C77.0239 56.4858 77.099 55.2864 77.2542 54.0961C77.4349 52.036 77.5112 49.9719 77.5795 47.9159C77.6826 45.5753 77.6651 43.2311 77.5273 40.8923C77.4349 39.6314 77.5675 38.3624 77.4269 37.0975C77.2944 35.8927 77.2623 34.7081 77.0253 33.5234C76.5274 30.8168 76.2222 28.0741 75.3789 25.4357C74.5757 22.9219 73.6963 20.4402 72.1663 18.2636C71.4228 17.1814 70.6184 16.1423 69.7569 15.1514C68.3373 13.4943 66.6468 12.0903 64.7573 10.9991C63.2835 10.1237 61.7896 9.24828 60.2917 8.38892Z" fill="#F1C2A8"/>
<path d="M19.3714 16.8942C20.279 16.5368 21.2066 16.6693 22.1302 16.7737C22.7969 16.85 22.8411 17.4283 22.4796 18.1993C22.1991 18.7045 21.8564 19.1727 21.4596 19.5928C18.7772 22.7984 16.9606 26.6376 16.1829 30.7445C15.4159 34.5394 14.9541 38.3744 14.5766 42.2215C14.4401 43.5587 14.4682 44.912 14.3478 46.2372C14.1671 48.2732 14.2032 50.3253 13.8859 52.3532C13.7494 53.2327 13.9863 54.1081 14.0064 54.9916C14.0345 56.2565 14.163 57.5175 14.163 58.7824C14.163 60.0474 14.4361 61.1919 14.4923 62.4207L14.5646 64.1555C13.8217 64.043 13.0627 64.047 12.3238 63.8744C12.2917 61.6978 12.202 59.5226 12.0548 57.3488C11.9544 55.8991 11.8018 54.4454 11.7696 52.9957C11.7215 50.8192 11.6452 48.6467 11.4845 46.4701C11.3199 44.1731 11.6692 41.8721 11.8178 39.5751C11.9119 37.6744 12.109 35.7802 12.4082 33.9009C13.0239 30.1636 14.071 26.5103 15.5284 23.0142C16.2834 21.2433 17.4881 19.7133 18.4759 18.0668C18.6004 17.862 18.7892 17.6933 18.7852 17.4283L18.8855 17.3319L18.9739 17.2556L19.271 16.9625C19.3065 16.9297 19.34 16.8948 19.3714 16.8581V16.8942Z" fill="#F1C2A8"/>
<path d="M20.3193 64.1314C20.2832 61.9509 19.9177 59.8025 19.749 57.634C19.6768 56.5658 19.5603 55.4936 19.5523 54.4214C19.5282 52.3493 19.3916 50.2852 19.4197 48.213C19.4197 47.5464 19.3234 46.8718 19.3395 46.2052C19.3868 42.458 19.7549 38.7218 20.4398 35.0374C20.854 32.6333 21.5273 30.2811 22.4476 28.0219C23.7889 24.9137 25.5357 22.0826 28.1179 19.8177C29.8286 18.3199 31.467 16.7256 33.4387 15.561C35.5751 14.2961 37.7596 13.1516 40.2012 12.497C41.7702 12.0445 43.3645 11.6851 44.9759 11.4208C46.803 11.1974 48.6487 11.1704 50.4815 11.3405C51.7264 11.4369 52.9673 11.5533 54.2001 11.7662C54.5498 11.8077 54.891 11.9025 55.2121 12.0473C54.0435 11.9951 52.8709 11.987 51.7023 11.9509C49.7378 11.9051 47.7735 12.045 45.8353 12.3685C44.5583 12.5693 43.3737 13.0873 42.1328 13.4126C39.8147 14.0071 37.5825 14.8965 35.4908 16.059C33.1464 17.3325 31.0229 18.976 29.2021 20.9261C28.9062 21.1966 28.6626 21.5192 28.4833 21.8778C28.4472 21.894 28.4174 21.9217 28.3985 21.9565C28.3797 21.9914 28.3728 22.0314 28.3789 22.0706L28.2825 22.175L28.1821 22.2794L28.0817 22.3798L27.9894 22.4842L27.8689 22.6769C27.4658 23.2027 27.093 23.7511 26.7525 24.3194L26.6441 24.4157C26.6023 24.4484 26.5701 24.4918 26.551 24.5413C26.5319 24.5908 26.5266 24.6446 26.5357 24.6969C26.367 24.7169 26.2987 24.8535 26.2224 24.9699C25.2639 26.4565 24.5229 28.0724 24.0218 29.7687C23.6019 31.3789 23.2681 33.0102 23.0219 34.6559C22.7287 36.2943 22.4517 37.9287 22.2549 39.5872C21.9933 41.6187 21.8458 43.6632 21.8131 45.7112C21.8131 48.3777 21.8131 51.0401 21.8131 53.7066C21.7841 53.8977 21.8063 54.0931 21.8774 54.2728V55.6462C21.805 55.8578 21.7857 56.0839 21.8212 56.3048C21.9537 58.7727 21.9537 61.2459 21.8212 63.7138L20.3193 64.1314Z" fill="#AECCEB"/>
<path d="M60.2918 8.38886C61.7937 9.24823 63.2875 10.1237 64.7974 10.967C66.6846 12.0549 68.3737 13.4548 69.793 15.1072C70.6545 16.098 71.459 17.1371 72.2024 18.2194C73.7365 20.3959 74.6119 22.8777 75.415 25.3915C76.2664 28.0299 76.5636 30.7726 77.0615 33.4792C77.2824 34.6839 77.3145 35.8605 77.4631 37.0532C77.6036 38.3182 77.4631 39.5872 77.5635 40.8481C77.7013 43.1868 77.7187 45.5311 77.6157 47.8716C77.5474 49.9277 77.4711 51.9918 77.2904 54.0519C77.1352 55.2422 77.06 56.4416 77.0655 57.6419C77.0936 58.2844 76.9089 58.9189 76.9812 59.5615L76.6077 59.6137C76.7804 58.7061 76.5555 57.7945 76.6077 56.883C76.676 55.4574 76.7282 54.0318 76.7764 52.6062C76.8246 51.1806 76.8045 49.6506 76.9209 48.1889C77.0271 46.9404 76.9961 45.684 76.8286 44.4422C76.3869 41.3942 76.0897 38.3343 75.7243 35.2783C75.5583 33.3603 75.2318 31.4595 74.7484 29.596C74.6446 29.0785 74.4384 28.587 74.1421 28.1503L73.877 27.295C73.7552 26.292 73.5209 25.3059 73.1783 24.3555C72.5934 22.5655 71.6871 20.8971 70.5038 19.4321C66.6424 14.3322 61.1144 10.7482 54.8826 9.30445C53.6548 8.99091 52.3908 8.84236 51.1238 8.86273C49.5175 8.89887 47.9112 8.7784 46.3049 8.95107C43.6385 9.23218 41.0443 9.87469 38.4261 10.4248C36.2937 10.8746 34.5027 11.9629 32.6956 13.0672C31.7024 13.6563 30.7523 14.3152 29.8525 15.0389C29.784 15.0774 29.7092 15.1032 29.6316 15.1152C30.1072 14.4728 30.7015 13.9275 31.3824 13.5089C34.1534 11.5237 37.2568 10.0495 40.5464 9.15587C43.4141 8.33563 46.3429 7.74612 49.3047 7.39296C51.1281 7.23173 52.9631 7.25326 54.7822 7.45722C56.0431 7.56966 57.2987 7.72359 58.5489 7.91903C58.6172 8.02343 58.7377 8.01139 58.8381 8.04351L60.2918 8.38886Z" fill="#F8E8A1"/>
<path d="M73.8692 27.295L74.1342 28.1504C74.335 29.3029 74.58 30.4474 74.7285 31.6079C75.057 34.4427 75.2433 37.2921 75.2867 40.1454C75.3871 43.7194 75.5478 47.2934 75.4554 50.8755C75.3831 53.7949 75.4554 56.7144 75.4313 59.6378L73.576 59.429C73.576 59.2684 73.576 59.1077 73.576 58.9471C73.4074 56.63 73.4114 54.3089 73.323 51.9878C73.2508 50.0643 73.2548 48.1408 73.2026 46.2172C73.1223 43.4062 73.0138 40.6193 72.7648 37.8203C72.6261 35.5182 72.3498 33.2265 71.9376 30.9574C71.757 29.8656 71.4103 28.8079 70.9096 27.8211L70.7811 27.4476C70.7853 27.4126 70.7796 27.3772 70.7647 27.3452C70.7498 27.3133 70.7263 27.2862 70.6967 27.2669C70.7099 27.1334 70.7099 26.9989 70.6967 26.8654C70.251 24.8575 69.7048 22.9299 68.5001 21.2112C66.9204 18.9229 64.9492 16.9313 62.6773 15.3281C61.8799 14.7619 61.0543 14.2365 60.2036 13.754C60.3783 13.752 60.5493 13.8039 60.6935 13.9025C62.3676 14.7131 63.9855 15.6348 65.5365 16.6614C66.7596 17.5194 67.8594 18.5408 68.8053 19.6973C70.3157 21.3325 71.636 23.1337 72.7407 25.0663C73.1423 25.7972 73.4957 26.5521 73.8692 27.295Z" fill="#7BBC75"/>
<path d="M70.7809 27.4476L70.9094 27.8211C70.9153 27.9327 70.9274 28.044 70.9456 28.1544C71.3054 29.8291 71.5735 31.5223 71.7487 33.2262C71.9254 35.1859 72.1061 37.1456 72.2667 39.1053C72.4635 41.4344 72.592 43.7676 72.7085 46.0967C72.8088 48.1046 72.7085 50.1124 72.7968 52.1203C72.8852 54.5298 72.8209 56.903 72.8209 59.2964C72.141 59.2444 71.4799 59.0487 70.8813 58.7222C70.8821 57.7302 70.8083 56.7395 70.6604 55.7586C70.5239 54.2767 70.4155 52.7909 70.3392 51.3091C70.2629 49.759 70.0862 48.217 70.0099 46.6669C69.9135 44.7354 69.7569 42.8078 69.6404 40.8762C69.5601 39.4868 69.536 38.0933 69.4236 36.7079C69.436 36.2609 69.3832 35.8145 69.267 35.3827C69.2228 34.6036 69.1746 33.8206 69.1304 33.0415C69.1626 31.6842 68.9979 30.3349 68.9056 28.9816C68.8433 28.4251 68.8433 27.8635 68.9056 27.307C69.014 26.5882 69.5922 26.3714 70.1745 26.8131C70.3633 26.9577 70.5319 27.1263 70.7126 27.287L70.7809 27.4476Z" fill="#AECCEB"/>
<path d="M70.7006 27.2748C70.5198 27.1142 70.3512 26.9456 70.1625 26.801C69.5802 26.3593 69.0019 26.5761 68.8935 27.2949C68.8312 27.8514 68.8312 28.413 68.8935 28.9695C68.9858 30.3228 69.1505 31.6721 69.1184 33.0294C68.9979 31.9492 68.9055 30.8689 68.757 29.7927C68.3554 26.793 67.5201 23.9097 65.9058 21.3275C64.3972 18.9977 62.3072 17.1015 59.842 15.826C58.0927 14.8038 56.2194 14.0102 54.2681 13.4647C51.7424 12.8298 49.1279 12.6234 46.5338 12.8543C43.8662 13.1502 41.2594 13.8516 38.8035 14.9345C36.5138 15.8548 34.3539 17.0698 32.3783 18.5487C31.1855 19.3892 30.0821 20.35 29.0854 21.4159C28.9208 21.6006 28.7843 21.8416 28.4951 21.8817C28.6744 21.5231 28.918 21.2005 29.2139 20.93C31.0347 18.9799 33.1582 17.3365 35.5026 16.0629C37.5943 14.9004 39.8266 14.011 42.1446 13.4165C43.3855 13.0913 44.5541 12.5732 45.8471 12.3724C47.7759 12.0493 49.7308 11.9081 51.686 11.9508C52.8546 11.9869 54.0272 11.995 55.1958 12.0472C56.8021 12.2801 58.2116 12.9869 59.6814 13.5691C59.7115 13.5795 59.7424 13.5876 59.7737 13.5932L60.0066 13.6896C60.0278 13.7231 60.0576 13.7501 60.093 13.7678C60.1284 13.7855 60.168 13.7932 60.2074 13.79C61.0581 14.2725 61.8837 14.7979 62.6811 15.3642C64.9531 16.9674 66.9242 18.9589 68.504 21.2472C69.7087 22.966 70.2548 24.9056 70.7006 26.9014C70.7119 27.0256 70.7119 27.1506 70.7006 27.2748Z" fill="#5796D9"/>
<path d="M81.4708 58.5857C81.5069 57.5296 81.5551 56.4694 81.5752 55.4133C81.6635 50.8152 81.792 46.2132 81.6475 41.6152C81.5511 38.4267 81.4989 35.2221 81.1455 32.0577C80.4548 25.9297 78.7361 20.1229 74.8528 15.1916C72.5966 12.2164 69.8606 9.63782 66.7571 7.56168C66.1266 7.1601 65.464 6.78664 64.8175 6.39711C64.5444 6.23648 64.1549 6.08389 64.3717 5.68633C64.5886 5.28877 64.934 5.49759 65.2191 5.65019C67.2201 6.7029 69.0885 7.99032 70.7849 9.48522C73.7887 12.2119 76.4069 15.2438 78.3264 18.8499C79.2802 20.7066 80.0405 22.6565 80.5953 24.6687C81.5907 27.8757 82.1314 31.2064 82.2016 34.5635C82.2016 36.8405 82.4466 39.1134 82.547 41.3903C82.6916 44.6631 82.6313 47.936 82.6113 51.2128C82.6113 53.4696 82.5109 55.7265 82.4546 57.9833C82.1818 58.2628 81.8437 58.4698 81.4708 58.5857Z" fill="#EFAAA8"/>
<path d="M18.765 17.4443C18.765 17.7094 18.5803 17.878 18.4558 18.0828C17.4679 19.7293 16.2632 21.2593 15.5082 23.0302C14.0508 26.5263 13.0038 30.1796 12.388 33.9169C12.0884 35.8002 11.8913 37.6985 11.7977 39.6032C11.6491 41.9002 11.2997 44.2012 11.4644 46.4982C11.625 48.6748 11.7013 50.8473 11.7495 53.0238C11.7816 54.4735 11.9342 55.9272 12.0346 57.3769C12.1819 59.5507 12.2716 61.7259 12.3037 63.9025C11.6849 63.8402 11.0802 63.6788 10.5127 63.4246C10.4203 60.734 10.2797 58.0435 10.2436 55.3449C10.1914 51.8633 10.1071 48.3776 10.1994 44.904C10.3159 40.4867 10.6693 36.1135 11.8419 31.8528C12.6892 28.7607 13.5927 25.6766 15.1187 22.8174C16.0989 21.049 17.2117 19.3576 18.4478 17.7576C18.5427 17.6427 18.649 17.5378 18.765 17.4443Z" fill="#EFAAA8"/>
<path d="M75.4313 59.6378C75.4313 56.7144 75.3831 53.7949 75.4554 50.8755C75.5478 47.2934 75.3871 43.7194 75.2867 40.1454C75.2499 37.2924 75.0703 34.443 74.7486 31.6079C74.6 30.4474 74.3471 29.3029 74.1543 28.1504C74.4507 28.5871 74.6568 29.0786 74.7607 29.596C75.2389 31.4613 75.5599 33.3634 75.7204 35.2823C76.0859 38.3383 76.383 41.3983 76.8248 44.4463C76.9923 45.688 77.0233 46.9444 76.9171 48.193C76.8007 49.6627 76.8207 51.1445 76.7725 52.6103C76.7244 54.076 76.6722 55.4614 76.6039 56.887C76.5637 57.7986 76.7886 58.7102 76.6039 59.6177C76.2156 59.6753 75.8214 59.6821 75.4313 59.6378Z" fill="#FBD336"/>
<path d="M69.263 35.3706C69.3792 35.8024 69.4319 36.2488 69.4195 36.6958C69.532 38.0812 69.5561 39.4747 69.6364 40.8641C69.7529 42.7957 69.9095 44.7233 70.0059 46.6548C70.0822 48.2049 70.2588 49.747 70.3351 51.297C70.4114 52.7788 70.5199 54.2647 70.6564 55.7465C70.8042 56.7274 70.8781 57.7181 70.8773 58.7101C69.3433 58.1158 69.3473 58.1158 69.3432 56.4934C69.3432 53.3812 69.271 50.265 69.2067 47.1528C69.1545 44.6952 69.2589 42.2456 69.2951 39.7919C69.3151 38.3141 69.1626 36.8444 69.263 35.3706Z" fill="#BCB2CF"/>
<path d="M72.817 59.2803C72.817 56.8709 72.8813 54.4936 72.7929 52.1042C72.7166 50.0963 72.7929 48.0884 72.7046 46.0806C72.5881 43.7514 72.4596 41.4183 72.2628 39.0892C72.1022 37.1295 71.9215 35.1698 71.7448 33.2101C71.5696 31.5061 71.3015 29.813 70.9417 28.1382C70.9235 28.0279 70.9114 27.9166 70.9055 27.8049C71.4062 28.7918 71.7529 29.8495 71.9335 30.9412C72.3458 33.2103 72.622 35.5021 72.7608 37.8041C73.0098 40.6151 73.1182 43.3981 73.1985 46.201C73.2507 48.1246 73.2467 50.0481 73.319 51.9717C73.4073 54.2928 73.4033 56.6139 73.572 58.9309C73.572 59.0916 73.572 59.2522 73.572 59.4128C73.3155 59.4029 73.0616 59.3583 72.817 59.2803Z" fill="#BFDEBE"/>
<path d="M80.6518 58.9149C80.6518 57.405 80.6879 55.8911 80.5996 54.3852C80.5233 53.068 80.704 51.7549 80.6237 50.4457C80.586 48.9415 80.6249 47.4363 80.7401 45.9361C80.7762 44.9562 80.8967 43.9804 80.8927 43.0046C80.8927 41.1774 80.8044 39.3502 80.7602 37.5191C80.768 37.4409 80.7855 37.364 80.8124 37.2902C80.9634 37.7604 81.0207 38.2556 80.9811 38.7479C81.0011 40.6232 81.2662 42.4785 81.3264 44.3498C81.3866 46.0806 81.4188 47.8114 81.3746 49.5382C81.3184 51.6625 81.1136 53.7828 81.0293 55.9031C80.9309 56.8757 80.8947 57.8535 80.9208 58.8306L80.6518 58.9149Z" fill="#EA8045"/>
<path d="M21.9133 54.2487C21.8422 54.0689 21.82 53.8735 21.8491 53.6824C21.8491 51.016 21.8491 48.3536 21.8491 45.6871C21.8818 43.6391 22.0292 41.5946 22.2908 39.5631C22.4876 37.9046 22.7647 36.2702 23.0578 34.6318C23.3041 32.9861 23.6379 31.3547 24.0577 29.7446C24.5588 28.0483 25.2999 26.4323 26.2584 24.9458C26.3347 24.8293 26.4029 24.6928 26.5716 24.6727C26.17 25.6285 25.6118 26.52 25.2223 27.4837C24.3428 29.6844 23.857 31.9934 23.3028 34.2824C22.6161 37.1135 22.4595 40.0048 22.2988 42.9082C22.086 46.691 21.9173 50.4658 21.9133 54.2487Z" fill="#BCB2CF"/>
<path d="M17.3235 64.4727C17.2372 63.3754 17.2372 62.273 17.3235 61.1758C17.3878 59.7702 17.3557 58.3647 17.3637 56.9592C17.4405 57.2512 17.4902 57.5496 17.5123 57.8507C17.4801 59.7783 17.8376 61.6818 17.8175 63.6053C17.8241 63.8943 17.7944 64.183 17.7291 64.4647L17.3235 64.4727Z" fill="#F8E8A1"/>
<path d="M21.8652 63.6976C21.9977 61.2297 21.9977 58.7565 21.8652 56.2886C21.8297 56.0678 21.849 55.8416 21.9214 55.63C22.058 57.8788 22.1824 60.1276 22.4033 62.3684C22.4234 62.5612 22.4033 62.77 22.4234 62.9427C22.4997 63.3884 22.323 63.6414 21.8652 63.6976Z" fill="#5796D9"/>
<path d="M26.5597 24.6727C26.5507 24.6204 26.556 24.5667 26.5751 24.5172C26.5942 24.4676 26.6263 24.4243 26.6682 24.3916C26.6756 24.4438 26.6695 24.497 26.6505 24.5462C26.6315 24.5954 26.6003 24.639 26.5597 24.6727Z" fill="#BCB2CF"/>
<path d="M27.897 22.6488L28.0174 22.4561L27.897 22.6488Z" fill="#5796D9"/>
<path d="M28.3908 22.0665C28.3847 22.0274 28.3916 21.9873 28.4105 21.9525C28.4293 21.9177 28.4591 21.89 28.4953 21.8738C28.4974 21.9124 28.4888 21.9509 28.4704 21.985C28.4519 22.019 28.4244 22.0472 28.3908 22.0665Z" fill="#5796D9"/>
<path d="M26.6721 24.3876L26.7805 24.2913L26.6721 24.3876Z" fill="#BCB2CF"/>
<path d="M6.71796 65.822L6.57739 65.7216L6.71796 65.822Z" fill="#BCB2CF"/>
<path d="M28.0173 22.46L28.1097 22.3556L28.0173 22.46Z" fill="#5796D9"/>
<path d="M28.1057 22.3597L28.2061 22.2593L28.1057 22.3597Z" fill="#5796D9"/>
<path d="M28.2021 22.2632L28.3025 22.1588L28.2021 22.2632Z" fill="#5796D9"/>
<path d="M28.2983 22.1669L28.3947 22.0625L28.2983 22.1669Z" fill="#5796D9"/>
<path d="M40.5867 118.147C40.0526 117.782 39.5225 117.4 38.9804 117.051C37.9811 116.341 37.0687 115.516 36.2618 114.593C35.0179 113.269 33.9589 111.783 33.1134 110.176C32.071 108.163 31.3501 105.999 30.977 103.763C30.6675 102.16 30.5529 100.526 30.6357 98.8956C30.6834 97.5432 30.8609 96.1984 31.1658 94.8799C31.3394 93.941 31.5728 93.0142 31.8645 92.105C32.3603 90.677 32.9756 89.2934 33.7037 87.9688C34.9061 85.8772 36.3703 83.9475 38.0608 82.2263C39.0166 81.2906 40.1369 80.5678 41.161 79.7164C42.3657 78.7005 43.8475 78.1383 45.1767 77.3592C46.3814 76.6524 47.7548 76.4597 49.0278 75.9818C50.3008 75.5039 51.6862 75.528 53.0114 75.283C53.8989 75.1184 54.8185 75.2549 55.722 75.2349C56.7862 75.2108 57.8022 75.4879 58.8383 75.6123C59.7173 75.7551 60.5825 75.9728 61.4244 76.2629C62.5177 76.6133 63.5779 77.0595 64.5928 77.5961C65.6811 78.1787 66.7193 78.8503 67.697 79.604C67.7813 79.8289 67.8857 80.0337 68.1829 79.9775C68.1588 80.0698 68.1829 80.106 68.2873 80.0819C68.223 80.3349 68.46 80.367 68.5845 80.4834C68.5845 80.6641 68.717 80.7605 68.8214 80.885C69.285 81.3458 69.7145 81.8397 70.1064 82.3628C71.0938 83.8053 71.9397 85.3398 72.6323 86.9448C73.7889 89.7317 74.1382 92.6431 74.2627 95.6067C74.2627 95.8758 74.1704 96.1529 74.1945 96.4099C74.2788 97.4018 73.9937 98.3575 73.9214 99.3333C73.8284 100.268 73.6081 101.185 73.2668 102.06C73.1371 102.367 73.0376 102.686 72.9697 103.012C72.7563 103.893 72.4339 104.744 72.0099 105.546C71.5868 106.495 71.0914 107.411 70.5281 108.284C69.8781 109.328 69.1646 110.332 68.3917 111.288C67.1864 112.703 65.8484 113.999 64.396 115.159C63.3078 116.079 62.0187 116.689 60.8341 117.452C59.8623 118.079 58.7138 118.432 57.6215 118.858C56.4168 119.328 55.1157 119.508 53.8668 119.854C53.23 119.994 52.5792 120.062 51.9272 120.055C50.6783 120.107 49.4254 120.291 48.1684 120.111C47.2408 119.982 46.3172 119.842 45.3976 119.649C44.0763 119.4 42.7853 119.011 41.5465 118.488C41.2493 118.332 40.9722 118.055 40.5867 118.147ZM60.9666 97.2411C60.9454 97.2075 60.9156 97.1802 60.8803 97.1618C60.845 97.1435 60.8055 97.1348 60.7658 97.1367C60.7016 96.948 60.5369 96.8837 60.3642 96.8155C59.907 96.6046 59.4667 96.3589 59.0471 96.0806C58.1699 95.4888 57.1952 95.0565 56.1678 94.8036C55.4293 94.6263 54.7013 94.4077 53.9872 94.149C52.9472 93.8197 51.9432 93.378 50.9232 92.9844L50.8349 92.8961C50.0729 92.2267 49.5486 91.3282 49.3408 90.3355C49.133 89.3427 49.2528 88.3093 49.6824 87.3905C49.7452 87.2632 49.8523 87.1633 49.9836 87.1094C50.4586 86.844 50.9494 86.608 51.4533 86.4026C52.2162 86.0803 53.0346 85.9098 53.8628 85.9007C54.4037 85.9082 54.9423 85.9742 55.4691 86.0975C56.3003 86.3143 57.1717 86.3665 57.9146 86.9006C58.3037 87.152 58.7217 87.3556 59.1595 87.507C60.1713 87.8486 61.1079 88.3817 61.9183 89.0771C62.1392 89.2819 62.3199 89.2217 62.4364 89.049C62.7175 88.6796 63.095 88.4065 63.364 88.021C63.6853 87.5632 63.6893 87.3584 63.2114 87.0331C62.7335 86.7078 62.344 86.4629 61.9103 86.1778L61.826 86.0733C61.5432 85.6838 61.1299 85.4087 60.6614 85.2983C60.6614 85.1417 60.5449 85.0815 60.4325 85.0252C59.9141 84.6971 59.3779 84.3981 58.8262 84.1297C57.7299 83.7282 56.7902 83.0013 55.6136 82.7604C54.437 82.5194 53.2885 82.1419 52.0677 82.3106C51.3288 82.411 50.5498 82.3106 49.847 82.6198C48.4417 83.1628 47.096 83.8491 45.8313 84.6678C45.6464 84.7666 45.4783 84.894 45.3333 85.0453C44.6346 85.9689 43.727 86.6797 43.0564 87.6636C42.3416 88.7398 41.6148 89.7317 41.4501 91.089C41.3018 92.1325 41.3248 93.1933 41.5184 94.2293C41.7003 95.0436 42.0064 95.8251 42.4259 96.5464C42.8599 97.3596 43.5482 98.0084 44.3856 98.3937C44.4058 98.5031 44.4649 98.6016 44.552 98.6709C44.6391 98.7403 44.7483 98.7759 44.8595 98.7711C45.4308 99.2254 46.0363 99.6349 46.6706 99.9959C48.0399 100.614 49.4816 101 50.8991 101.51C52.4251 102.064 54.0354 102.389 55.4891 103.14C56.2356 104.098 56.5734 105.312 56.4288 106.517C56.4328 106.733 56.3875 106.947 56.2963 107.143C56.2051 107.338 56.0705 107.51 55.9028 107.646C55.0465 108.242 54.1395 108.762 53.1921 109.2C52.3785 109.542 51.5262 109.783 50.6542 109.919C49.7066 110.158 48.7145 110.158 47.7669 109.919C47.2689 109.782 46.8151 109.481 46.281 109.477C45.9796 109.198 45.6529 108.948 45.3052 108.73C44.9639 108.562 44.8394 108.06 44.3575 108.14C43.9118 107.811 43.458 107.489 43.0203 107.152C42.8677 107.036 42.7552 107.036 42.6628 107.184C42.3014 107.754 41.7874 108.192 41.3939 108.738C41.2011 109.007 41.2614 109.14 41.4702 109.268C41.7541 109.443 42.0078 109.663 42.2211 109.919C42.681 110.466 43.2554 110.906 43.9037 111.208L44.0523 111.288C44.6734 111.813 45.3461 112.273 46.0602 112.662C46.7413 112.967 47.4464 113.215 48.1684 113.405C49.0786 113.753 50.0588 113.88 51.0276 113.774C52.1882 113.617 53.3447 113.417 54.5133 113.292C54.8185 113.26 55.1036 113.392 55.4048 113.292C56.1862 112.985 56.9922 112.744 57.8143 112.573C59.0872 112.28 60.3482 111.854 61.312 111.007C62.2757 110.16 63.3479 109.14 63.9624 107.843C64.2595 107.212 64.5647 106.582 64.886 105.963C65.2266 105.173 65.3204 104.298 65.155 103.453C65.0807 102.446 64.7914 101.465 64.3065 100.579C63.8216 99.6922 63.1524 98.9197 62.344 98.3133C61.9504 98.0538 61.5748 97.768 61.2196 97.458C61.1553 97.3656 61.1112 97.2492 60.9706 97.2572L60.9666 97.2411Z" fill="#BCB2CF"/>
<path d="M40.5867 118.147C40.9882 118.055 41.2493 118.332 41.5505 118.468C42.7893 118.991 44.0803 119.38 45.4015 119.629C46.3211 119.822 47.2448 119.962 48.1724 120.091C49.4293 120.271 50.6822 120.091 51.9311 120.034C52.5832 120.042 53.2339 119.974 53.8708 119.834C55.1196 119.488 56.4288 119.308 57.6255 118.838C58.7057 118.412 59.8542 118.059 60.8381 117.432C62.0227 116.669 63.3117 116.059 64.4 115.139C65.8523 113.979 67.1903 112.683 68.3957 111.268C69.1686 110.312 69.882 109.308 70.5321 108.264C71.0953 107.391 71.5907 106.475 72.0139 105.526C72.4378 104.724 72.7602 103.873 72.9736 102.992C73.0416 102.666 73.1411 102.347 73.2708 102.04C73.6121 101.165 73.8323 100.248 73.9254 99.3133C73.9977 98.3374 74.2828 97.3817 74.1984 96.3898C74.1743 96.1248 74.2787 95.8477 74.2667 95.5867C74.1422 92.623 73.7928 89.7116 72.6363 86.9247C71.9437 85.3197 71.0978 83.7853 70.1104 82.3427C69.7184 81.8197 69.2889 81.3258 68.8254 80.865C68.721 80.7445 68.5844 80.6481 68.5884 80.4634C69.239 80.7244 69.5763 81.3428 70.0582 81.7966C70.6508 82.3444 71.1765 82.9604 71.6243 83.6318C72.096 84.2479 72.5113 84.9051 72.8652 85.5955C73.0098 85.9489 73.2668 86.2541 73.4274 86.5994C74.2455 88.3162 74.8666 90.12 75.2787 91.9765C75.6022 93.5616 75.7463 95.1781 75.7084 96.7954C75.7389 98.1905 75.6041 99.5843 75.3068 100.948C75.0751 102.237 74.7448 103.507 74.3189 104.747C73.9175 105.918 73.4122 107.051 72.809 108.132C72.2869 108.959 71.8211 109.818 71.2509 110.622C70.1538 112.2 68.8837 113.651 67.464 114.947C66.4122 115.85 65.3057 116.688 64.151 117.456C63.111 118.171 61.9384 118.601 60.8822 119.272C60.2718 119.673 59.4928 119.794 58.782 120.026C57.674 120.414 56.5366 120.71 55.3807 120.914C54.8948 120.99 54.3888 120.966 53.9109 121.071C52.5014 121.376 51.0999 121.215 49.6743 121.127C47.4462 120.996 45.2645 120.435 43.2491 119.476C42.6708 119.199 42.0685 118.962 41.4661 118.741C41.1389 118.599 40.8408 118.398 40.5867 118.147Z" fill="#564771"/>
<path d="M68.1949 79.9815C67.8977 80.0377 67.7933 79.8329 67.709 79.608C67.8977 79.6964 68.1226 79.7606 68.1949 79.9815Z" fill="#564771"/>
<path d="M68.5844 80.4674C68.4599 80.3589 68.223 80.3268 68.2872 80.0658C68.5482 80.0859 68.5362 80.2987 68.5844 80.4674Z" fill="#564771"/>
<path d="M68.2952 80.082C68.1988 80.106 68.1667 80.0819 68.1908 79.9775C68.259 79.9775 68.2912 80.0137 68.2952 80.082Z" fill="#564771"/>
<path d="M77.4351 21.2151C77.3681 21.1536 77.3151 21.0783 77.2798 20.9945C77.2445 20.9106 77.2276 20.8202 77.2303 20.7292C77.3829 20.8537 77.5154 20.9903 77.4351 21.2151Z" fill="#EA8045"/>
<path d="M80.8043 37.0171C80.7718 36.9706 80.7544 36.9152 80.7544 36.8585C80.7544 36.8017 80.7718 36.7463 80.8043 36.6998C80.8003 36.7922 80.8043 36.9127 80.8043 37.0171Z" fill="#EA8045"/>
<path d="M77.6319 21.5926L77.5234 21.3918C77.5587 21.4116 77.5876 21.4409 77.6068 21.4765C77.626 21.512 77.6347 21.5523 77.6319 21.5926Z" fill="#EA8045"/>
<path d="M77.7322 21.7814L77.6318 21.5846L77.7322 21.7814Z" fill="#EA8045"/>
<path d="M19.3514 16.8741C19.32 16.9109 19.2865 16.9458 19.251 16.9786C19.2865 16.9458 19.32 16.9109 19.3514 16.8741Z" fill="#EA8045"/>
<path d="M18.9538 17.2717L18.8655 17.348L18.9538 17.2717Z" fill="#EFAAA8"/>
<path d="M77.8126 21.934L77.7283 21.7975L77.8126 21.934Z" fill="#EA8045"/>
<path d="M17.3235 55.7827C17.2055 55.2352 17.1489 54.6762 17.1549 54.1162C17.0571 52.627 17.0397 51.1337 17.1027 49.6426C17.183 48.4138 17.1027 47.173 17.1268 45.9401C17.1709 43.5026 17.3918 41.0731 17.5966 38.6475C17.7009 36.9355 17.898 35.2303 18.1869 33.5395C19.2931 27.3701 22.3974 21.7357 27.0216 17.5047C27.146 17.3922 27.2544 17.2276 27.4593 17.2436C27.114 17.7944 26.7101 18.306 26.2545 18.7696C24.0619 21.3397 22.5641 24.3073 21.2148 27.3713C20.1334 29.6836 19.3378 32.119 18.8455 34.6238C18.4921 36.6919 18.1949 38.768 18.0423 40.8602C17.8897 42.9524 17.6408 45.1008 17.4882 47.2252C17.3075 49.6868 17.3757 52.1605 17.3798 54.6302L17.3235 55.7827Z" fill="#7BBC75"/>
<path d="M29.2664 15.4244C29.2822 15.3903 29.307 15.3611 29.3381 15.3399C29.3692 15.3187 29.4055 15.3062 29.4431 15.304C29.4276 15.3384 29.4029 15.3678 29.3717 15.3891C29.3405 15.4104 29.304 15.4226 29.2664 15.4244Z" fill="#F8E8A1"/>
<path d="M60.1996 13.782C60.1601 13.7851 60.1205 13.7775 60.0852 13.7598C60.0498 13.7421 60.0199 13.715 59.9988 13.6816C60.0387 13.6724 60.0805 13.6775 60.1172 13.6958C60.1538 13.7141 60.1829 13.7446 60.1996 13.782Z" fill="#7BBC75"/>
<path d="M60.0027 13.6857L59.7698 13.5893C59.8138 13.5797 59.8597 13.5838 59.9013 13.601C59.943 13.6182 59.9783 13.6478 60.0027 13.6857Z" fill="#7BBC75"/>
<path d="M27.7161 16.9584C27.7161 16.9318 27.7266 16.9063 27.7455 16.8874C27.7643 16.8686 27.7898 16.858 27.8165 16.858L27.7161 16.9584Z" fill="#7BBC75"/>
<path d="M27.6199 17.0549C27.6199 16.9866 27.656 16.9585 27.7203 16.9545L27.6199 17.0549Z" fill="#7BBC75"/>
<path d="M27.427 17.2476C27.425 17.2339 27.4262 17.22 27.4305 17.2069C27.4348 17.1938 27.4422 17.1819 27.4519 17.1721C27.4617 17.1624 27.4736 17.155 27.4867 17.1507C27.4998 17.1464 27.5137 17.1452 27.5274 17.1472L27.427 17.2476Z" fill="#7BBC75"/>
<path d="M27.8125 16.8661C27.8396 16.8217 27.8691 16.7788 27.9009 16.7375C27.8691 16.7788 27.8396 16.8217 27.8125 16.8661Z" fill="#7BBC75"/>
<path d="M29.4429 15.3079L29.5433 15.2156L29.4429 15.3079Z" fill="#F8E8A1"/>
<path d="M29.5393 15.2156L29.6437 15.1193L29.5393 15.2156Z" fill="#F8E8A1"/>
<path d="M27.5234 17.1512C27.5214 17.1375 27.5226 17.1236 27.5269 17.1105C27.5312 17.0974 27.5386 17.0854 27.5483 17.0757C27.5581 17.0659 27.57 17.0586 27.5831 17.0543C27.5962 17.0499 27.6102 17.0487 27.6238 17.0508L27.5234 17.1512Z" fill="#7BBC75"/>
<path d="M58.8421 8.03142C58.7417 7.99929 58.6212 8.01134 58.553 7.90693C58.6855 7.8989 58.7819 7.90291 58.8421 8.03142Z" fill="#FBD336"/>
<path d="M70.7809 27.4476L70.6965 27.2668C70.7261 27.2861 70.7496 27.3132 70.7645 27.3452C70.7794 27.3771 70.7851 27.4126 70.7809 27.4476Z" fill="#5796D9"/>
<path d="M55.497 103.128C54.0433 102.377 52.433 102.052 50.907 101.498C49.5015 100.988 48.0478 100.602 46.6784 99.9839C46.0441 99.6229 45.4387 99.2134 44.8674 98.7591C44.7549 98.5744 44.7107 98.3094 44.3935 98.3817C44.4899 98.1688 44.2971 98.0604 44.2048 97.9399C43.253 96.6951 42.9318 95.2293 42.8595 93.7234C42.7872 92.2175 43.3735 90.7638 44.1044 89.4386C44.6444 88.5798 45.2832 87.7873 46.0078 87.0773C47.3089 85.6357 49.0156 84.7081 50.8267 84.0093C51.0636 83.917 51.3247 83.8889 51.5616 83.7965C52.4109 83.5247 53.3008 83.4025 54.1919 83.4351C55.0301 83.4624 55.8631 83.5768 56.6777 83.7764C57.4089 83.9415 58.1189 84.1894 58.794 84.5153C59.4244 84.7723 59.9987 85.2181 60.6934 85.2743C60.6804 85.2934 60.6723 85.3155 60.6698 85.3386C60.6674 85.3616 60.6707 85.3849 60.6794 85.4064C60.6882 85.4279 60.7021 85.4468 60.7199 85.4616C60.7378 85.4764 60.759 85.4866 60.7817 85.4911C61.1833 85.6196 61.4484 85.961 61.858 86.0493C61.858 86.1136 61.8941 86.1336 61.9423 86.1537C62.376 86.4388 62.8137 86.7199 63.2434 87.0091C63.6731 87.2982 63.7172 87.5392 63.396 87.997C63.1269 88.3985 62.7494 88.6555 62.4683 89.025C62.3398 89.1977 62.1712 89.2579 61.9503 89.0531C61.1399 88.3577 60.2033 87.8246 59.1915 87.4829C58.7537 87.3315 58.3357 87.128 57.9466 86.8766C57.2037 86.3625 56.3403 86.3103 55.501 86.0734C54.9743 85.9501 54.4357 85.8842 53.8947 85.8766C53.0666 85.8858 52.2482 86.0563 51.4853 86.3786C50.9814 86.584 50.4906 86.82 50.0155 87.0854C49.8842 87.1393 49.7771 87.2392 49.7143 87.3665C49.2832 88.2893 49.1645 89.3274 49.3761 90.3237C49.5876 91.32 50.118 92.2202 50.887 92.8881C50.887 92.9363 50.887 92.9965 50.9753 92.9765C51.2925 93.5748 51.9069 93.8318 52.4491 94.0728C53.2964 94.4462 54.1718 94.7675 55.0352 95.1209C55.469 95.312 55.923 95.4534 56.3885 95.5425C57.2812 95.7424 58.1526 96.0275 58.9907 96.3939C59.6051 96.6188 60.1151 97.1047 60.8098 97.1288C60.842 97.2332 60.8902 97.3055 61.0106 97.2332C61.0106 97.4259 61.1311 97.4179 61.2596 97.434C61.6148 97.744 61.9905 98.0298 62.384 98.2893C63.1925 98.8957 63.8616 99.6681 64.3465 100.555C64.8314 101.441 65.1207 102.422 65.1951 103.429C65.3604 104.274 65.2666 105.149 64.926 105.939C64.6047 106.558 64.2995 107.188 64.0024 107.819C63.388 109.116 62.376 110.084 61.352 110.983C60.328 111.883 59.1273 112.256 57.8543 112.549C57.0322 112.72 56.2262 112.961 55.4448 113.268C55.1436 113.388 54.8585 113.268 54.5533 113.268C53.3848 113.393 52.2282 113.593 51.0677 113.75C50.0988 113.856 49.1186 113.729 48.2084 113.38C47.4864 113.191 46.7813 112.943 46.1002 112.638C45.3861 112.249 44.7134 111.789 44.0923 111.264C44.0441 111.236 43.9959 111.208 43.9437 111.184C43.7711 110.738 43.3173 110.581 42.996 110.296C42.8314 110.148 42.7952 110.116 42.9358 109.895C43.3735 109.264 44.1124 108.871 44.3774 108.104C44.8593 108.023 44.9838 108.525 45.3251 108.694C45.6729 108.912 45.9995 109.162 46.301 109.441C46.353 109.572 46.4459 109.684 46.566 109.758C47.5888 110.502 48.7927 110.957 50.0517 111.075C51.045 111.131 52.0412 111.056 53.0153 110.855C53.4912 110.735 53.9509 110.558 54.3847 110.328C55.3404 109.867 56.3925 109.654 57.1957 108.811C57.7659 108.2 58.1273 107.67 58.043 106.803C58.0057 106.013 57.7472 105.25 57.297 104.6C56.8469 103.951 56.2231 103.441 55.497 103.128ZM49.0116 94.8197C49.0116 94.7474 48.9915 94.6992 48.9072 94.7113C48.9072 94.6791 48.9072 94.635 48.9072 94.6229C48.0449 93.8635 47.4085 92.8812 47.068 91.7838C46.9019 91.1446 46.8369 90.4834 46.8752 89.8241C46.2889 90.3221 46.1805 91.0007 45.8311 91.5348C45.6929 91.6697 45.6063 91.8487 45.5862 92.0408C45.373 92.8799 45.3579 93.757 45.542 94.6029C45.6645 95.4165 46.0646 96.1628 46.6745 96.7151C47.3069 97.3765 48.1059 97.8552 48.9875 98.1006C49.5371 98.2274 50.0746 98.402 50.5938 98.6226C51.156 98.8796 51.7423 99.0242 52.3166 99.2531C53.1197 99.5462 53.967 99.7309 54.7742 100.056C55.3967 100.368 56.0493 100.615 56.7218 100.795C57.3362 101.285 58.0631 101.598 58.6333 102.169C59.5569 103.068 59.9625 104.217 60.2878 105.409C60.3882 106.385 60.6492 107.369 60.1954 108.329C60.179 108.366 60.1777 108.408 60.192 108.447C60.2062 108.485 60.2348 108.516 60.2717 108.533C60.348 108.582 60.3922 108.533 60.4364 108.485C60.5496 108.399 60.6521 108.299 60.7416 108.188C61.115 107.674 61.5166 107.184 61.866 106.65C62.8418 105.152 63.1309 103.61 62.2676 101.968C61.8633 101.166 61.1935 100.528 60.3721 100.165C59.5364 99.4594 58.5724 98.9222 57.533 98.5825C56.1958 98.1568 54.8384 97.7793 53.5173 97.2974C52.5836 96.9945 51.6746 96.6199 50.7986 96.177C50.1902 95.8129 49.6187 95.3906 49.0919 94.9161L49.0116 94.8197Z" fill="#FBD336"/>
<path d="M60.6934 85.2903C59.9826 85.2341 59.4245 84.7884 58.794 84.5314C58.1196 84.1999 57.4096 83.9466 56.6777 83.7764C55.8741 83.5749 55.0519 83.4565 54.2241 83.423C53.333 83.3904 52.443 83.5127 51.5938 83.7844C51.3568 83.8768 51.0958 83.9049 50.8589 83.9973C49.0438 84.696 47.3371 85.6036 46.04 87.0653C45.3154 87.7753 44.6766 88.5678 44.1365 89.4265C43.4057 90.7517 42.8153 92.1613 42.8916 93.7113C42.9679 95.2614 43.2932 96.683 44.2369 97.9279C44.3293 98.0483 44.522 98.1568 44.4257 98.3696C43.5882 97.9844 42.9 97.3356 42.466 96.5224C42.0465 95.8011 41.7404 95.0196 41.5584 94.2053C41.3649 93.1692 41.3418 92.1085 41.4902 91.065C41.6508 89.7076 42.3776 88.7158 43.0964 87.6395C43.747 86.6557 44.6746 85.9449 45.3734 85.0213C45.5184 84.8699 45.6865 84.7425 45.8713 84.6438C47.136 83.825 48.4817 83.1387 49.8871 82.5958C50.5898 82.2986 51.3689 82.3869 52.1078 82.2865C53.3125 82.1179 54.4731 82.4954 55.6537 82.7363C56.8343 82.9772 57.786 83.6961 58.8663 84.1057C59.4179 84.3741 59.9542 84.673 60.4726 85.0012C60.5569 85.0735 60.6934 85.1337 60.6934 85.2903Z" fill="#564771"/>
<path d="M55.4971 103.128C56.22 103.448 56.8386 103.964 57.2824 104.618C57.7261 105.272 57.9772 106.037 58.0069 106.827C58.0912 107.71 57.7298 108.24 57.1596 108.835C56.3565 109.678 55.3083 109.891 54.3486 110.353C53.9149 110.582 53.4551 110.759 52.9792 110.879C52.0051 111.08 51.0089 111.155 50.0156 111.1C48.7566 110.981 47.5527 110.526 46.5299 109.782C46.4098 109.708 46.3169 109.597 46.2649 109.465C46.799 109.465 47.2528 109.77 47.7507 109.907C48.6983 110.146 49.6904 110.146 50.638 109.907C51.5174 109.769 52.3765 109.523 53.1961 109.176C54.1434 108.738 55.0505 108.218 55.9067 107.622C56.0745 107.486 56.2091 107.314 56.3002 107.119C56.3914 106.923 56.4367 106.709 56.4328 106.493C56.5752 105.292 56.2391 104.083 55.4971 103.128Z" fill="#564771"/>
<path d="M44.3454 108.144C44.0804 108.911 43.3415 109.305 42.9038 109.935C42.7633 110.14 42.7994 110.172 42.964 110.337C43.2853 110.622 43.7391 110.778 43.9118 111.224C43.259 110.919 42.6816 110.473 42.2211 109.919C42.0014 109.662 41.7409 109.444 41.4501 109.272C41.2413 109.144 41.1811 109.011 41.3738 108.742C41.7754 108.196 42.2814 107.758 42.6428 107.188C42.7351 107.04 42.8476 107.04 43.0002 107.156C43.4459 107.493 43.8997 107.815 44.3454 108.144Z" fill="#564771"/>
<path d="M60.7738 97.1448C60.079 97.1207 59.569 96.6348 58.9546 96.41C58.1165 96.0436 57.2451 95.7585 56.3524 95.5586C55.8869 95.4695 55.4329 95.328 54.9991 95.1369C54.1357 94.7836 53.2603 94.4623 52.413 94.0888C51.8709 93.8479 51.2565 93.5909 50.9392 92.9926C51.9592 93.3941 52.9471 93.8278 54.0032 94.1571C54.7173 94.4158 55.4453 94.6344 56.1838 94.8117C57.2112 95.0646 58.1859 95.4969 59.063 96.0887C59.4826 96.367 59.923 96.6127 60.3802 96.8236C60.5448 96.8918 60.6934 96.9561 60.7738 97.1448Z" fill="#564771"/>
<path d="M61.834 86.0614C61.4324 85.9731 61.1513 85.6317 60.7577 85.5032C60.735 85.4986 60.7138 85.4885 60.6959 85.4737C60.6781 85.4589 60.6642 85.44 60.6554 85.4185C60.6467 85.397 60.6434 85.3737 60.6458 85.3507C60.6482 85.3276 60.6563 85.3055 60.6694 85.2864C61.1379 85.3968 61.5512 85.6718 61.834 86.0614Z" fill="#564771"/>
<path d="M44.3936 98.3817C44.7108 98.3094 44.755 98.5745 44.8674 98.7592C44.7562 98.7639 44.647 98.7284 44.56 98.659C44.4729 98.5896 44.4138 98.4912 44.3936 98.3817Z" fill="#564771"/>
<path d="M61.2075 97.4299C61.079 97.4299 60.9384 97.4299 60.9585 97.2291C61.095 97.2251 61.1432 97.3415 61.2075 97.4299Z" fill="#564771"/>
<path d="M60.9664 97.2411C60.8459 97.3134 60.7978 97.2411 60.7656 97.1367C60.8053 97.1348 60.8448 97.1435 60.8801 97.1618C60.9154 97.1802 60.9452 97.2075 60.9664 97.2411Z" fill="#564771"/>
<path d="M43.9036 111.204C43.9558 111.228 44.004 111.256 44.0521 111.284C44.004 111.256 43.9558 111.228 43.9036 111.204Z" fill="#564771"/>
<path d="M61.8982 86.1578C61.85 86.1578 61.8018 86.1176 61.8139 86.0533L61.8982 86.1578Z" fill="#564771"/>
<path d="M50.9433 93.0127C50.867 93.0127 50.871 92.9725 50.855 92.9243L50.9433 93.0127Z" fill="#564771"/>
<path d="M49.1322 94.9201C49.6589 95.3946 50.2305 95.8169 50.8389 96.181C51.7149 96.6239 52.6238 96.9985 53.5575 97.3014C54.8667 97.8034 56.224 98.1608 57.5733 98.5864C58.6127 98.9262 59.5767 99.4634 60.4124 100.169C60.5398 100.577 60.7066 100.973 60.9103 101.349C61.6693 102.907 61.2798 104.124 60.32 105.413C59.9948 104.208 59.5892 103.072 58.6656 102.172C58.0953 101.618 57.3685 101.289 56.7541 100.799C56.3629 100.399 55.9015 100.073 55.3927 99.8393C54.4265 99.3339 53.4104 98.9302 52.3608 98.6346C51.593 98.4349 50.8402 98.1813 50.108 97.8756C49.4856 97.5986 48.8109 97.5424 48.1925 97.2853C47.6986 97.0846 47.1926 96.9079 46.6906 96.7191C46.0807 96.1668 45.6806 95.4205 45.5582 94.6068C45.374 93.7609 45.3891 92.8838 45.6023 92.0448C45.6224 91.8527 45.7091 91.6737 45.8473 91.5388C46.3854 92.2576 46.7428 93.109 47.4536 93.7153C47.9034 94.1169 48.313 94.5827 48.9475 94.7153L49.0519 94.8237L49.1322 94.9201Z" fill="#BCB2CF"/>
<path d="M60.2918 105.413C61.2515 104.124 61.641 102.907 60.8821 101.349C60.6783 100.973 60.5116 100.577 60.3841 100.169C61.2055 100.532 61.8753 101.17 62.2796 101.972C63.1349 103.614 62.8458 105.156 61.878 106.654C61.5286 107.188 61.127 107.678 60.7536 108.192C60.6641 108.303 60.5616 108.403 60.4484 108.489C60.4042 108.529 60.36 108.586 60.2837 108.537C60.2468 108.52 60.2182 108.489 60.2039 108.451C60.1897 108.412 60.1909 108.37 60.2074 108.333C60.6692 107.373 60.4082 106.389 60.2918 105.413Z" fill="#564771"/>
<path d="M46.6904 96.7312C47.1924 96.9199 47.6984 97.0966 48.1923 97.2974C48.8107 97.5544 49.4854 97.6107 50.1078 97.8877C50.84 98.1934 51.5928 98.447 52.3607 98.6467C53.4103 98.9423 54.4263 99.346 55.3925 99.8514C55.897 100.087 56.3542 100.412 56.7418 100.811C56.0693 100.631 55.4167 100.384 54.7942 100.072C53.991 99.7591 53.1437 99.5743 52.3366 99.2692C51.7623 99.0603 51.176 98.8957 50.6138 98.6387C50.0946 98.4181 49.5572 98.2434 49.0075 98.1166C48.1245 97.8719 47.3239 97.3932 46.6904 96.7312Z" fill="#564771"/>
<path d="M48.9273 94.7274C48.2928 94.5949 47.8832 94.125 47.4334 93.7275C46.7427 93.1211 46.3853 92.2697 45.8271 91.5509C46.1765 91.0168 46.285 90.3462 46.8713 89.8402C46.8329 90.4995 46.8979 91.1607 47.064 91.7999C47.4046 92.8973 48.0409 93.8796 48.9032 94.639C48.9032 94.639 48.9273 94.6953 48.9273 94.7274Z" fill="#564771"/>
<path d="M49.0236 94.8277L48.9192 94.7193C49.0035 94.7072 49.0236 94.7554 49.0236 94.8277Z" fill="#564771"/>
<path d="M49.1322 94.9201L49.0117 94.8197L49.1322 94.9201Z" fill="#564771"/>
</svg>
