<svg width="100" height="100" viewBox="0 0 100 100" fill="none" xmlns="http://www.w3.org/2000/svg">
<path fill-rule="evenodd" clip-rule="evenodd" d="M31.0369 6.50531C29.9162 5.83156 28.517 5.83156 27.4031 6.50531L9.71746 17.0738C8.64982 17.708 8 18.8573 8 20.0926V41.2296C8 42.4648 8.64986 43.6142 9.71746 44.2483L27.4031 54.8169C28.5237 55.4906 29.923 55.4906 31.0369 54.8169L48.7225 44.2483C49.7902 43.6142 50.44 42.4649 50.44 41.2296V20.0926C50.44 18.8574 49.7901 17.708 48.7225 17.0738L31.0369 6.50531Z" fill="#FFAA88"/>
<circle cx="28.9883" cy="22.7905" r="5.24704" fill="#EA7534"/>
<path d="M28.9882 30.1364C23.8724 30.1364 19.6117 33.797 18.6823 38.6417C18.4742 39.7265 19.3896 40.6304 20.4941 40.6304H37.4823C38.5869 40.6304 39.5022 39.7265 39.2941 38.6417C38.3648 33.797 34.104 30.1364 28.9882 30.1364Z" fill="#EA7534"/>
<rect x="58.6921" y="7" width="42" height="42" rx="10" transform="rotate(18.5 58.6921 7)" fill="#B1D8A3"/>
<path d="M83.507 42.4234L84.9083 33.6177C85.1676 32.016 84.8471 30.3738 84.0053 28.987C83.164 27.5991 81.856 26.5565 80.3158 26.0455L70.0737 22.6186C68.5359 22.0997 66.8639 22.1451 65.3568 22.7473C63.85 23.3482 62.6057 24.4669 61.8489 25.9021L57.6686 33.778C56.6912 35.6195 57.161 37.8952 58.7886 39.1993C60.4148 40.5031 62.7393 40.4653 64.3235 39.1106L66.7917 36.9983L74.2818 39.5044L74.9819 42.6768C75.4317 44.7121 77.2663 46.1386 79.3493 46.0774C81.4314 46.0144 83.1774 44.4802 83.5059 42.4231L83.507 42.4234Z" fill="#5AA361"/>
<path d="M70.237 29.8964L69.3089 29.5859L69.6194 28.6578C69.7795 28.1496 69.5016 27.6051 68.9963 27.436C68.491 27.2669 67.9414 27.5345 67.7633 28.0368L67.4528 28.9648L66.5247 28.6543C66.2777 28.5659 66.0043 28.5819 65.7682 28.6964C65.5317 28.8122 65.3514 29.017 65.2681 29.2658C65.1849 29.5146 65.2052 29.788 65.3249 30.0215C65.4441 30.2563 65.6532 30.4323 65.9037 30.5104L66.8318 30.8209L66.5212 31.749C66.4328 31.996 66.4489 32.2694 66.5634 32.5055C66.6779 32.7416 66.884 32.9224 67.1327 33.0056C67.3815 33.0888 67.6549 33.0685 67.8884 32.9489C68.1219 32.8292 68.2993 32.6205 68.3773 32.37L68.6879 31.442L69.6159 31.7525C70.1242 31.9125 70.6682 31.6359 70.8377 31.1294C71.0068 30.6241 70.7388 30.0758 70.237 29.8964L70.237 29.8964Z" fill="#B1D8A3"/>
<path d="M78.9001 31.7632C78.486 33.0006 76.6299 32.3796 77.044 31.1422C77.458 29.9048 79.3141 30.5258 78.9001 31.7632Z" fill="#B1D8A3"/>
<path d="M77.6579 35.4755C77.2439 36.7129 75.3878 36.0919 75.8018 34.8544C76.2158 33.617 78.0719 34.2381 77.6579 35.4755Z" fill="#B1D8A3"/>
<path d="M80.1352 34.2404C79.7212 35.4778 77.865 34.8567 78.2791 33.6193C78.6931 32.3819 80.5492 33.003 80.1352 34.2404Z" fill="#B1D8A3"/>
<path d="M76.4228 32.9983C76.0088 34.2357 74.1526 33.6147 74.5667 32.3773C74.9807 31.1399 76.8368 31.7609 76.4228 32.9983Z" fill="#B1D8A3"/>
<rect x="3" y="54.7732" width="40.9024" height="43" rx="4" transform="rotate(-13 3 54.7732)" fill="#EE7E7A"/>
<path fill-rule="evenodd" clip-rule="evenodd" d="M20.6795 88.8536L41.9036 83.9537C42.7486 83.7586 43.4793 83.2318 43.9366 82.4893C44.3939 81.7468 44.5403 80.8497 44.3427 79.9937L38.8827 56.344C38.6851 55.4881 38.1603 54.7459 37.4237 54.279C36.6872 53.8121 35.7996 53.659 34.9546 53.8541L13.7305 58.754C12.8855 58.9491 12.1548 59.4759 11.6975 60.2184C11.2402 60.9609 11.0938 61.858 11.2914 62.714L16.7514 86.3637C16.949 87.2196 17.4738 87.9618 18.2104 88.4287C18.9469 88.8955 19.8345 89.0487 20.6795 88.8536ZM40.346 82.0487L39.8497 79.8987L41.9721 79.4087L42.2203 80.4837C42.286 80.7686 42.2379 81.0684 42.0855 81.3159C41.933 81.5634 41.6885 81.7388 41.4073 81.8037L40.346 82.0487ZM38.2236 82.5387L37.7273 80.3887L35.6049 80.8787L36.1012 83.0287L38.2236 82.5387ZM31.8564 84.0087L31.3601 81.8587L33.4825 81.3687L33.9788 83.5187L31.8564 84.0087ZM27.6116 84.9887L29.734 84.4987L29.2376 82.3487L27.1152 82.8387L27.6116 84.9887ZM23.3668 85.9687L22.8704 83.8187L24.9928 83.3287L25.4892 85.4787L23.3668 85.9687ZM18.6256 84.7987L20.7281 84.3133L21.2245 86.4633L20.1832 86.7037C19.902 86.7686 19.6053 86.7182 19.3598 86.5626C19.1143 86.4069 18.9396 86.1585 18.8738 85.8737L18.6256 84.7987ZM41.4757 77.2587L18.1292 82.6487L14.1584 65.4489L37.5049 60.059L41.4757 77.2587ZM31.8787 72.2376C32.3395 71.7037 32.5174 70.9734 32.3517 70.2799C32.1887 69.5858 31.7045 69.014 31.051 68.7431L25.7388 66.5344C24.9815 66.2195 24.1178 66.3581 23.4997 66.8942C22.8813 67.4291 22.6115 68.2698 22.8016 69.0751L24.3531 75.6382C24.5429 76.4421 25.1626 77.0747 25.955 77.2753C26.7475 77.4759 27.5822 77.2124 28.1194 76.5916L31.8782 72.2364L31.8787 72.2376ZM26.4732 75.1372L24.9215 68.5732L30.2337 70.7818L26.4732 75.1372ZM25.9001 58.2089L28.0225 57.7189L28.5189 59.8688L26.3965 60.3588L25.9001 58.2089ZM30.1449 57.2289L30.6413 59.3788L32.7637 58.8888L32.2674 56.7389L30.1449 57.2289ZM17.4105 60.1688L19.5329 59.6788L20.0293 61.8288L17.9069 62.3188L17.4105 60.1688ZM21.6553 59.1888L22.1517 61.3388L24.2741 60.8488L23.7777 58.6989L21.6553 59.1888ZM15.2681 60.6635L15.7644 62.8134L13.6619 63.2988L13.4137 62.2239C13.348 61.939 13.3961 61.6391 13.5485 61.3917C13.701 61.1442 13.9455 60.9688 14.2267 60.9039L15.2681 60.6635ZM34.3898 56.2489L35.451 56.0039C35.7322 55.9389 36.0289 55.9893 36.2743 56.145C36.5199 56.3006 36.6946 56.549 36.7603 56.8338L37.0085 57.9088L34.8861 58.3988L34.3898 56.2489Z" fill="#D53A2C"/>
<path d="M26.4732 75.1372L24.9215 68.5732L30.2337 70.7818L26.4732 75.1372Z" fill="#D53A2C"/>
<path d="M67.8682 50.531C72.4816 50.2825 77.1645 51.5327 81.0215 54.0734C83.5768 55.7367 85.7738 57.9447 87.4409 60.4964C89.2943 63.3295 90.4751 66.6013 90.8552 69.9644C91.2793 73.6493 90.7711 77.4438 89.3491 80.8726C88.1537 83.7971 86.3039 86.4474 83.9935 88.6043C81.7453 90.6953 79.0584 92.3185 76.1521 93.309C72.767 94.4752 69.0894 94.7932 65.5546 94.2266C62.3267 93.7258 59.2194 92.4828 56.5325 90.6258C53.0121 88.2094 50.2228 84.7475 48.618 80.7881C47.3751 77.743 46.8378 74.4127 47.0424 71.1377C47.2289 67.961 48.1245 64.828 49.6416 62.0314C51.0453 59.4396 52.9755 57.1328 55.2785 55.2941C58.8355 52.4427 63.3097 50.7467 67.8682 50.531Z" fill="#ABCDED"/>
<path d="M78.4292 58.789C73.6079 59.3498 64.7673 60.3704 61.9597 60.6944C61.455 60.7526 61.0796 61.1735 61.0798 61.6815C61.0803 64.438 61.0813 72.9587 61.0722 77.6159C59.4966 77.0347 57.6761 77.0712 56.17 77.8353C55.2707 78.2922 54.481 79.049 54.1411 80.014C53.8011 80.9462 53.9436 82.0319 54.4993 82.8507C55.0074 83.644 55.8153 84.2106 56.689 84.547C57.6906 84.9381 58.7983 85.0112 59.8584 84.8577C61.1379 84.653 62.3918 84.0169 63.1485 82.9421C63.6018 82.2987 63.8029 81.4944 63.7553 80.7158C63.7464 76.7534 63.7472 69.5566 63.7478 67.0531C63.7479 66.5459 64.1269 66.1218 64.6305 66.0623C65.534 65.9555 66.9228 65.7902 67.7729 65.6837C70.7469 65.3424 73.721 64.9982 76.6979 64.6563C77.2914 64.5881 77.8117 65.0522 77.8117 65.6496V75.5396C76.6749 75.1521 75.4392 75.0205 74.2584 75.2911C73.0631 75.5506 71.9006 76.1977 71.2279 77.2431C70.7344 77.9889 70.5698 78.9394 70.7965 79.8058C71.0122 80.6283 71.5532 81.3484 72.2442 81.842C73.2824 82.5987 74.5947 82.924 75.8706 82.8656C77.2488 82.8071 78.6526 82.288 79.5921 81.2461C80.2391 80.5406 80.5645 79.5645 80.4913 78.6141C80.4877 73.9678 80.4913 69.325 80.4877 64.6784C80.5147 63.311 80.5038 61.0254 80.4937 59.6714C80.4893 59.0805 79.9749 58.6255 79.3873 58.6883C79.0438 58.7251 78.6874 58.7628 78.4292 58.789Z" fill="#60A0DC"/>
</svg>
