<svg width="20" height="20" viewBox="0 0 20 20" fill="none" xmlns="http://www.w3.org/2000/svg">
<path fill-rule="evenodd" clip-rule="evenodd" d="M10 0.0507812C4.477 0.0507812 0 4.53478 0 10.0678C0 14.4928 2.865 18.2478 6.839 19.5718C7.339 19.6638 7.521 19.3548 7.521 19.0888C7.521 18.8518 7.513 18.2208 7.508 17.3858C4.726 17.9908 4.139 16.0428 4.139 16.0428C3.685 14.8848 3.029 14.5768 3.029 14.5768C2.121 13.9568 3.098 13.9688 3.098 13.9688C4.101 14.0388 4.629 15.0008 4.629 15.0008C5.521 16.5308 6.97 16.0888 7.539 15.8328C7.631 15.1858 7.889 14.7448 8.175 14.4948C5.955 14.2418 3.62 13.3818 3.62 9.54378C3.62 8.45078 4.01 7.55578 4.649 6.85578C4.546 6.60278 4.203 5.58378 4.747 4.20578C4.747 4.20578 5.587 3.93578 7.497 5.23178C8.31277 5.0093 9.15444 4.89597 10 4.89478C10.85 4.89878 11.705 5.00978 12.504 5.23178C14.413 3.93578 15.251 4.20478 15.251 4.20478C15.797 5.58378 15.453 6.60278 15.351 6.85578C15.991 7.55578 16.379 8.45078 16.379 9.54378C16.379 13.3918 14.04 14.2388 11.813 14.4868C12.172 14.7958 12.491 15.4068 12.491 16.3418C12.491 17.6798 12.479 18.7608 12.479 19.0888C12.479 19.3568 12.659 19.6688 13.167 19.5708C15.1583 18.9029 16.8893 17.6261 18.1155 15.9208C19.3416 14.2156 20.0009 12.1681 20 10.0678C20 4.53478 15.522 0.0507812 10 0.0507812Z" fill="#9CA3AF"/>
</svg>
