<svg width="20" height="21" viewBox="0 0 20 21" fill="none" xmlns="http://www.w3.org/2000/svg">
<path fill-rule="evenodd" clip-rule="evenodd" d="M10.315 0.0507812C12.745 0.0507812 13.099 0.0637812 14.123 0.110781C15.187 0.159781 15.914 0.328781 16.55 0.575781C17.2175 0.826655 17.8222 1.22014 18.322 1.72878C18.8306 2.22855 19.2241 2.83328 19.475 3.50078C19.722 4.13678 19.891 4.86378 19.94 5.92778C19.988 6.99478 20 7.33478 20 10.0508V10.1308C20 12.7738 19.988 13.1178 19.94 14.1738C19.891 15.2378 19.722 15.9648 19.475 16.6008C19.2241 17.2683 18.8306 17.873 18.322 18.3728C17.8222 18.8814 17.2175 19.2749 16.55 19.5258C15.914 19.7728 15.187 19.9418 14.123 19.9908C13.056 20.0388 12.716 20.0508 10 20.0508H9.92C7.277 20.0508 6.933 20.0388 5.877 19.9908C4.813 19.9418 4.086 19.7728 3.45 19.5258C2.7825 19.2749 2.17777 18.8814 1.678 18.3728C1.16936 17.873 0.775874 17.2683 0.525 16.6008C0.278 15.9648 0.109 15.2378 0.0599999 14.1738C0.0129999 13.1498 0 12.7948 0 10.3658V9.73578C0 7.30578 0.0129999 6.95178 0.0599999 5.92778C0.109 4.86378 0.278 4.13678 0.525 3.50078C0.775874 2.83328 1.16936 2.22855 1.678 1.72878C2.17777 1.22014 2.7825 0.826655 3.45 0.575781C4.086 0.328781 4.813 0.159781 5.877 0.110781C6.901 0.0637812 7.256 0.0507812 9.685 0.0507812H10.315ZM10.234 1.85278H9.766C7.31 1.85278 6.982 1.86378 5.959 1.91078C4.984 1.95578 4.455 2.11778 4.102 2.25478C3.635 2.43678 3.302 2.65278 2.952 3.00278C2.602 3.35278 2.386 3.68578 2.204 4.15278C2.067 4.50578 1.904 5.03478 1.86 6.00978C1.813 7.03278 1.802 7.36078 1.802 9.81678V10.2848C1.802 12.7408 1.813 13.0688 1.86 14.0918C1.905 15.0668 2.067 15.5958 2.204 15.9488C2.386 16.4148 2.603 16.7488 2.952 17.0988C3.302 17.4488 3.635 17.6648 4.102 17.8468C4.455 17.9838 4.984 18.1468 5.959 18.1908C7.013 18.2388 7.329 18.2488 10 18.2488H10.08C12.677 18.2488 12.997 18.2388 14.04 18.1908C15.016 18.1458 15.545 17.9838 15.898 17.8468C16.364 17.6648 16.698 17.4488 17.048 17.0988C17.398 16.7488 17.614 16.4158 17.796 15.9488C17.933 15.5958 18.096 15.0668 18.14 14.0918C18.188 13.0368 18.198 12.7218 18.198 10.0508V9.97078C18.198 7.37378 18.188 7.05378 18.14 6.01078C18.095 5.03478 17.933 4.50578 17.796 4.15278C17.6358 3.71835 17.3802 3.32538 17.048 3.00278C16.7254 2.67064 16.3324 2.41504 15.898 2.25478C15.545 2.11778 15.016 1.95478 14.041 1.91078C13.018 1.86378 12.69 1.85278 10.234 1.85278ZM10 4.91578C10.6743 4.91578 11.3421 5.0486 11.9651 5.30666C12.5881 5.56472 13.1542 5.94296 13.631 6.41979C14.1078 6.89662 14.4861 7.4627 14.7441 8.0857C15.0022 8.70871 15.135 9.37644 15.135 10.0508C15.135 10.7251 15.0022 11.3929 14.7441 12.0159C14.4861 12.6389 14.1078 13.2049 13.631 13.6818C13.1542 14.1586 12.5881 14.5368 11.9651 14.7949C11.3421 15.053 10.6743 15.1858 10 15.1858C8.63811 15.1858 7.33201 14.6448 6.36901 13.6818C5.40601 12.7188 4.865 11.4127 4.865 10.0508C4.865 8.68889 5.40601 7.38279 6.36901 6.41979C7.33201 5.45679 8.63811 4.91578 10 4.91578ZM10 6.71778C9.11603 6.71778 8.26827 7.06894 7.64321 7.69399C7.01815 8.31905 6.667 9.16681 6.667 10.0508C6.667 10.9347 7.01815 11.7825 7.64321 12.4076C8.26827 13.0326 9.11603 13.3838 10 13.3838C10.884 13.3838 11.7317 13.0326 12.3568 12.4076C12.9818 11.7825 13.333 10.9347 13.333 10.0508C13.333 9.16681 12.9818 8.31905 12.3568 7.69399C11.7317 7.06894 10.884 6.71778 10 6.71778ZM15.338 3.51278C15.6563 3.51278 15.9615 3.63921 16.1865 3.86425C16.4116 4.0893 16.538 4.39452 16.538 4.71278C16.538 5.03104 16.4116 5.33627 16.1865 5.56131C15.9615 5.78635 15.6563 5.91278 15.338 5.91278C15.0197 5.91278 14.7145 5.78635 14.4895 5.56131C14.2644 5.33627 14.138 5.03104 14.138 4.71278C14.138 4.39452 14.2644 4.0893 14.4895 3.86425C14.7145 3.63921 15.0197 3.51278 15.338 3.51278Z" fill="#9CA3AF"/>
</svg>
