<svg width="20" height="17" viewBox="0 0 20 17" fill="none" xmlns="http://www.w3.org/2000/svg">
<path d="M6.29 16.3042C13.837 16.3042 17.965 10.0512 17.965 4.62918C17.965 4.45118 17.965 4.27418 17.953 4.09918C18.7562 3.51771 19.4493 2.79779 20 1.97318C19.2511 2.30518 18.4566 2.52294 17.643 2.61918C18.4996 2.10624 19.1408 1.29953 19.447 0.349179C18.6417 0.827066 17.7607 1.16391 16.842 1.34518C16.2234 0.686945 15.405 0.251014 14.5136 0.104884C13.6222 -0.0412452 12.7075 0.110579 11.9111 0.536848C11.1147 0.963118 10.4811 1.64005 10.1083 2.46284C9.7355 3.28563 9.64437 4.20836 9.849 5.08818C8.21759 5.00642 6.6216 4.5825 5.16465 3.84395C3.70769 3.10539 2.42233 2.0687 1.392 0.80118C0.867318 1.70438 0.706589 2.7736 0.942536 3.79114C1.17848 4.80869 1.79337 5.69806 2.662 6.27818C2.00926 6.25928 1.37063 6.08368 0.8 5.76618V5.81818C0.800389 6.76548 1.1284 7.68348 1.7284 8.41654C2.3284 9.14959 3.16347 9.65257 4.092 9.84018C3.48781 10.0049 2.85389 10.0288 2.239 9.91018C2.50116 10.7257 3.01168 11.4388 3.69913 11.9498C4.38658 12.4608 5.21657 12.7442 6.073 12.7602C5.22212 13.4287 4.24779 13.923 3.20573 14.2147C2.16367 14.5064 1.07432 14.5898 0 14.4602C1.8766 15.6645 4.06019 16.3033 6.29 16.3002" fill="#9CA3AF"/>
</svg>
