<svg width="75" height="80" viewBox="0 0 75 80" fill="none" xmlns="http://www.w3.org/2000/svg">
<path d="M70.5731 0H38.9649C38.2549 0 37.6221 0.552528 37.6221 1.34272V11.8532H31.6184L26.7198 6.9546C26.4821 6.71692 26.1673 6.5595 25.7722 6.5595H18.3001V9.16781H25.2968L30.1954 14.0665C30.4331 14.3041 30.7479 14.4616 31.143 14.4616H37.7023V24.9721H32.9611L30.7479 22.7589C30.5102 22.5212 30.1954 22.3638 29.8003 22.3638H12.2993V24.9721H29.2479L31.4611 27.1853C31.6988 27.423 32.0137 27.5804 32.4088 27.5804H37.7025V40.776H26.4018L22.8459 37.2201C22.6082 36.9824 22.2934 36.825 21.8983 36.825H7.29932V39.5104H21.3459L24.9018 43.0664C25.1395 43.304 25.4544 43.4615 25.8495 43.4615H37.7025V51.3635H32.4088C32.0939 51.3635 31.6988 51.5209 31.4611 51.7586L29.2479 53.9718H12.494V56.5801H29.8003C30.1151 56.5801 30.5102 56.4227 30.7479 56.185L32.9611 53.9718H37.7023V64.4824H31.143C30.8282 64.4824 30.4331 64.6398 30.1954 64.8775L25.2968 69.7761H18.2993V72.3844H25.8493C26.1641 72.3844 26.5592 72.227 26.7969 71.9893L31.6184 67.1678H37.6252V77.755C37.6252 78.4649 38.1778 79.0977 38.9679 79.0977H70.5761C72.7894 79.0977 74.5271 77.3599 74.5271 75.1467L74.5241 3.95071C74.5241 1.7375 72.7863 0 70.5731 0ZM66.6221 48.2025L59.6676 41.2481C59.1151 40.6956 58.3249 40.6956 57.7724 41.2481L52.1637 46.8598L45.2093 39.9054C44.6568 39.3529 43.8666 39.3529 43.3141 39.9054L40.3107 42.9088V7.9019H66.6253L66.6221 48.2025ZM71.9188 75.0695C71.9188 75.7795 71.3663 76.4123 70.5761 76.4123H40.3105V73.8039H49.5551V71.1185H40.3105V46.6221L44.2615 42.6711L53.9012 52.3108L55.7965 50.4156L54.0587 48.6778L58.7999 43.9365L66.7019 51.8386V71.118H57.4573V73.7263H67.9679C68.6778 73.7263 69.3106 73.1738 69.3106 72.3836V6.55871C69.3106 5.84875 68.758 5.21599 67.9679 5.21599H40.3107V2.60768H70.5763C71.3634 2.60768 71.919 3.24046 71.919 3.9504L71.9188 75.0695Z" fill="#BDB3D0"/>
<path d="M71.9188 75.0695C71.9188 75.7795 71.3663 76.4123 70.5761 76.4123H40.3105V73.8039H49.5551V71.1185H40.3105V46.6221L44.2615 42.6711L53.9012 52.3108L55.7965 50.4156L54.0587 48.6778L58.7999 43.9365L66.7019 51.8386V71.118H57.4573V73.7263H67.9679C68.6778 73.7263 69.3106 73.1738 69.3106 72.3836V6.55871C69.3106 5.84875 68.758 5.21599 67.9679 5.21599H40.3107V2.60768H70.5763C71.3634 2.60768 71.919 3.24046 71.919 3.9504L71.9188 75.0695Z" fill="#BDB3D0"/>
<path d="M66.6221 48.2025L59.6676 41.2481C59.1151 40.6956 58.3249 40.6956 57.7724 41.2481L52.1637 46.8598L45.2093 39.9054C44.6568 39.3529 43.8666 39.3529 43.3141 39.9054L40.3107 42.9088V7.9019H66.6253L66.6221 48.2025Z" fill="#BDB3D0"/>
<path fill-rule="evenodd" clip-rule="evenodd" d="M38.9656 0H70.5738C72.787 0 74.5248 1.7375 74.5248 3.95071L74.5279 75.1467C74.5279 77.3599 72.7901 79.0977 70.5769 79.0977H38.9687C38.1785 79.0977 37.626 78.4649 37.626 77.755V67.1678L37.7031 64.4824V53.9718L37.7032 51.3635V43.4615V40.776V27.5804L37.7031 24.9721V14.4616L37.6229 11.8532V1.34272C37.6229 0.552528 38.2556 0 38.9656 0ZM59.6683 41.2481L66.6228 48.2025L66.626 7.9019H40.3114V42.9088L43.3148 39.9054C43.8673 39.3529 44.6575 39.3529 45.21 39.9054L52.1645 46.8598L57.7731 41.2481C58.3256 40.6956 59.1158 40.6956 59.6683 41.2481ZM70.5769 76.4123C71.3671 76.4123 71.9196 75.7795 71.9196 75.0695L71.9197 3.9504C71.9197 3.24046 71.3641 2.60768 70.577 2.60768H40.3114V5.21599H67.9686C68.7588 5.21599 69.3113 5.84875 69.3113 6.55871V72.3836C69.3113 73.1738 68.6785 73.7263 67.9686 73.7263H57.4581V71.118H66.7027V51.8386L58.8006 43.9365L54.0594 48.6778L55.7972 50.4156L53.902 52.3108L44.2623 42.6711L40.3112 46.6221V71.1185H49.5558V73.8039H40.3112V76.4123H70.5769Z" fill="#8B7AB0"/>
<path d="M49.5558 71.1185V73.8039L57.4581 73.7263V71.118L49.5558 71.1185Z" fill="#8B7AB0"/>
<path d="M40.3112 71.1185H49.5558L57.4581 71.118H66.7027V51.8386L58.8006 43.9365L54.0594 48.6778L55.7972 50.4156L53.902 52.3108L44.2623 42.6711L40.3112 46.6221V71.1185Z" fill="#8B7AB0"/>
<path d="M52.1631 71.1182H54.7714V73.7265H52.1631V71.1182Z" fill="#8B7AB0"/>
<path d="M53.5063 34.2168C57.8524 34.2168 61.4084 30.6608 61.4084 26.3147C61.4084 21.9686 57.8524 18.4127 53.5063 18.4127C49.1602 18.4127 45.6042 21.9686 45.6042 26.3147C45.6042 30.6608 49.1602 34.2168 53.5063 34.2168ZM53.5063 21.0978C56.4294 21.0978 58.8 23.4684 58.8 26.3915C58.8 29.3147 56.4294 31.6853 53.5063 31.6853C50.5832 31.6081 48.2126 29.2374 48.2126 26.3143C48.2126 23.3912 50.5832 21.0978 53.5063 21.0978Z" fill="#8B7AB0"/>
<path d="M53.5063 21.0978C56.4294 21.0978 58.8 23.4684 58.8 26.3915C58.8 29.3147 56.4294 31.6853 53.5063 31.6853C50.5832 31.6081 48.2126 29.2374 48.2126 26.3143C48.2126 23.3912 50.5832 21.0978 53.5063 21.0978Z" fill="#8B7AB0"/>
<path d="M15.2586 11.8532C17.4719 11.8532 19.2097 10.1153 19.2097 7.90214C19.2097 5.68893 17.4719 3.95111 15.2586 3.95111C13.0454 3.95111 11.3076 5.68893 11.3076 7.90214C11.3076 10.1153 13.1257 11.8532 15.2586 11.8532ZM15.2586 6.55942C15.9686 6.55942 16.6014 7.11195 16.6014 7.90214C16.6014 8.69233 16.0488 9.24486 15.2586 9.24486C14.5487 9.24486 13.9159 8.69233 13.9159 7.90214C13.9159 7.11195 14.5487 6.55942 15.2586 6.55942Z" fill="#BDB3D0"/>
<path d="M15.2586 6.55942C15.9686 6.55942 16.6014 7.11195 16.6014 7.90214C16.6014 8.69233 16.0488 9.24486 15.2586 9.24486C14.5487 9.24486 13.9159 8.69233 13.9159 7.90214C13.9159 7.11195 14.5487 6.55942 15.2586 6.55942Z" fill="#BDB3D0"/>
<path d="M10.0443 27.6573C12.2575 27.6573 13.9953 25.9195 13.9953 23.7063C13.9953 21.4931 12.2575 19.7552 10.0443 19.7552C7.83108 19.7552 6.09326 21.4931 6.09326 23.7063C6.09326 25.9195 7.83108 27.6573 10.0443 27.6573ZM10.0443 22.3636C10.7542 22.3636 11.387 22.9161 11.387 23.7063C11.387 24.4965 10.8345 25.049 10.0443 25.049C9.33434 25.049 8.70157 24.4965 8.70157 23.7063C8.70157 22.9161 9.2541 22.3636 10.0443 22.3636Z" fill="#BDB3D0"/>
<path d="M10.0443 22.3636C10.7542 22.3636 11.387 22.9161 11.387 23.7063C11.387 24.4965 10.8345 25.049 10.0443 25.049C9.33434 25.049 8.70157 24.4965 8.70157 23.7063C8.70157 22.9161 9.2541 22.3636 10.0443 22.3636Z" fill="#BDB3D0"/>
<path d="M8.7021 38.1678C8.7021 35.9546 6.96428 34.2168 4.75108 34.2168C2.53787 34.2168 0.800049 35.9546 0.800049 38.1678C0.800049 40.381 2.53787 42.1188 4.75108 42.1188C6.9612 42.1188 8.7021 40.381 8.7021 38.1678ZM4.75108 39.5105C4.04112 39.5105 3.40836 38.958 3.40836 38.1678C3.40836 37.4578 3.96089 36.8251 4.75108 36.8251C5.54127 36.8251 6.09379 37.3776 6.09379 38.1678C6.09379 38.958 5.46101 39.5105 4.75108 39.5105Z" fill="#BDB3D0"/>
<path d="M4.75108 39.5105C4.04112 39.5105 3.40836 38.958 3.40836 38.1678C3.40836 37.4578 3.96089 36.8251 4.75108 36.8251C5.54127 36.8251 6.09379 37.3776 6.09379 38.1678C6.09379 38.958 5.46101 39.5105 4.75108 39.5105Z" fill="#BDB3D0"/>
<path d="M15.2586 67.1676C13.0454 67.1676 11.3076 68.9054 11.3076 71.1186C11.3076 73.3318 13.0454 75.0696 15.2586 75.0696C17.4719 75.0696 19.2097 73.3318 19.2097 71.1186C19.2097 68.9054 17.4719 67.1676 15.2586 67.1676ZM15.2586 72.4613C14.5487 72.4613 13.9159 71.9088 13.9159 71.1186C13.9159 70.3284 14.4685 69.7759 15.2586 69.7759C15.9686 69.7759 16.6014 70.3284 16.6014 71.1186C16.6044 71.9088 16.0488 72.4613 15.2586 72.4613Z" fill="#BDB3D0"/>
<path d="M15.2586 72.4613C14.5487 72.4613 13.9159 71.9088 13.9159 71.1186C13.9159 70.3284 14.4685 69.7759 15.2586 69.7759C15.9686 69.7759 16.6014 70.3284 16.6014 71.1186C16.6044 71.9088 16.0488 72.4613 15.2586 72.4613Z" fill="#BDB3D0"/>
<path d="M13.9953 55.3145C13.9953 53.1013 12.2575 51.3635 10.0443 51.3635C7.83108 51.3635 6.09326 53.1013 6.09326 55.3145C6.09326 57.5277 7.83108 59.2655 10.0443 59.2655C12.2575 59.2655 13.9953 57.5277 13.9953 55.3145ZM10.0443 56.6572C9.33434 56.6572 8.70157 56.1047 8.70157 55.3145C8.70157 54.5243 9.2541 53.9718 10.0443 53.9718C10.7542 53.9718 11.387 54.5243 11.387 55.3145C11.387 56.1047 10.7542 56.6572 10.0443 56.6572Z" fill="#BDB3D0"/>
<path d="M10.0443 56.6572C9.33434 56.6572 8.70157 56.1047 8.70157 55.3145C8.70157 54.5243 9.2541 53.9718 10.0443 53.9718C10.7542 53.9718 11.387 54.5243 11.387 55.3145C11.387 56.1047 10.7542 56.6572 10.0443 56.6572Z" fill="#BDB3D0"/>
</svg>
