<svg width="97" height="100" viewBox="0 0 97 100" fill="none" xmlns="http://www.w3.org/2000/svg">
<path d="M11.2002 28.9999L49.2002 10.9999M11.2002 28.9999V70.9999M11.2002 28.9999L49.2002 49.9999M11.2002 28.9999L49.2002 88.9999M11.2002 28.9999H85.2002M49.2002 10.9999L85.2002 28.9999M49.2002 10.9999V49.9999M49.2002 10.9999L85.2002 70.9999M49.2002 10.9999L11.2002 70.9999M85.2002 28.9999V70.9999M85.2002 28.9999L49.2002 49.9999M85.2002 28.9999L49.2002 88.9999M85.2002 70.9999L49.2002 88.9999M85.2002 70.9999L49.2002 49.9999M85.2002 70.9999H11.2002M49.2002 88.9999L11.2002 70.9999M49.2002 88.9999V49.9999M11.2002 70.9999L49.2002 49.9999" stroke="#ABCDED" stroke-width="3"/>
<path d="M42.2002 85.9999L49.2002 81.9998L56.2002 85.9999V91.9999L49.2002 95.9999L42.2002 91.9999V85.9999Z" fill="#60A0DC" stroke="#60A0DC" stroke-width="2"/>
<path d="M4.2002 67.9999L11.2002 63.9999L18.2002 67.9999V73.9999L11.2002 77.9999L4.2002 73.9999V67.9999Z" fill="#60A0DC" stroke="#60A0DC" stroke-width="2"/>
<path d="M2.2002 25.1427L11.2002 19.9999L20.2002 25.1427V32.857L11.2002 37.9999L2.2002 32.857V25.1427Z" fill="#60A0DC" stroke="#60A0DC" stroke-width="2"/>
<path d="M40.2002 46.1427L49.2002 40.9999L58.2002 46.1427V53.857L49.2002 58.9999L40.2002 53.857V46.1427Z" fill="#60A0DC" stroke="#60A0DC" stroke-width="2"/>
<path d="M2.2002 67.1427L11.2002 61.9999L20.2002 67.1427V74.857L11.2002 79.9999L2.2002 74.857V67.1427Z" fill="#60A0DC" stroke="#60A0DC" stroke-width="2"/>
<path d="M42.2002 7.99988L49.2002 3.99988L56.2002 7.99988V13.9999L49.2002 17.9999L42.2002 13.9999V7.99988Z" fill="#60A0DC" stroke="#60A0DC" stroke-width="2"/>
<path d="M78.2002 67.9999L85.2002 63.9999L92.2002 67.9999V73.9999L85.2002 77.9999L78.2002 73.9999V67.9999Z" fill="#60A0DC" stroke="#60A0DC" stroke-width="2"/>
<path d="M78.2002 25.9999L85.2002 21.9999L92.2002 25.9999V31.9999L85.2002 35.9999L78.2002 31.9999V25.9999Z" fill="#60A0DC" stroke="#60A0DC" stroke-width="2"/>
<path d="M40.2002 85.1429L49.2002 80L58.2002 85.1429V92.8571L49.2002 98L40.2002 92.8571V85.1429Z" fill="#60A0DC" stroke="#60A0DC" stroke-width="2"/>
<path d="M76.2002 67.1429L85.2002 62L94.2002 67.1429V74.8571L85.2002 80L76.2002 74.8571V67.1429Z" fill="#60A0DC" stroke="#60A0DC" stroke-width="2"/>
<path d="M76.2002 25.1429L85.2002 20L94.2002 25.1429V32.8571L85.2002 38L76.2002 32.8571V25.1429Z" fill="#60A0DC" stroke="#60A0DC" stroke-width="2"/>
<path d="M40.2002 7.14286L49.2002 2L58.2002 7.14286V14.8571L49.2002 20L40.2002 14.8571V7.14286Z" fill="#60A0DC" stroke="#60A0DC" stroke-width="2"/>
</svg>
