<svg width="602" height="119" viewBox="0 0 602 119" fill="none" xmlns="http://www.w3.org/2000/svg">
<g clip-path="url(#clip0)">
<g opacity="0.2">
<path d="M497.345 56.9555C492.533 60.0099 488.201 63.5251 483.642 66.9158C478.714 70.5912 472.741 72.3598 466.89 73.8393C456.741 76.3988 446.194 77.8353 435.983 80.5394C420.924 84.5279 407.567 85.5737 392.471 81.4993C379.913 78.1067 367.206 82.1102 355.846 87.5763C350.475 90.1619 344.405 90.1104 338.64 90.6283C330.979 91.3191 323.205 92.2661 315.497 92.4997C306.759 92.7637 292.872 93.3433 285.43 88.1187C284.102 87.1862 283.585 85.9028 284.817 84.6652C285.503 83.995 286.272 83.4164 287.107 82.9437C298.215 82.5318 309.377 81.1577 320.398 79.7733C323.428 79.3938 326.515 78.9937 329.337 77.8791L329.815 77.8471C329.814 77.7918 329.815 77.7371 329.814 77.6818C330.145 77.54 330.473 77.3875 330.797 77.2242C334.078 75.5499 336.639 72.7836 339.45 70.4007C342.772 67.5982 346.491 65.3038 350.485 63.5923C356.694 66.7452 362.571 69.5946 369.416 70.1263C375.955 70.6364 380.626 67.7541 386.581 64.8678C395.171 60.7047 404.578 57.3079 413.659 54.7292C421.634 52.462 430.434 53.324 438.777 53.5557C448.579 53.8225 458.103 53.6241 467.832 52.4643C476.969 51.3752 485.533 49.4867 494.365 46.8653C500.394 45.0732 512.811 41.5268 514.112 43.1428C515.413 44.7587 501.295 54.4395 497.332 56.9572" fill="#EA7534"/>
<path d="M223.917 54.1826L162.029 49.1607C157.371 48.7848 152.573 48.4133 148.069 49.6995C143.983 50.8682 140.339 53.3489 136.195 54.2981C131.659 55.336 126.922 54.4623 122.39 53.4125C106.372 49.7247 90.8813 44.0377 76.2823 36.4854C72.6647 34.6132 68.5452 31.5567 69.2358 27.5463C69.9888 23.1489 75.7187 21.9092 80.1705 22.1982C96.9993 23.2954 112.692 31.7597 129.517 32.8234C142.734 33.6531 155.807 29.8844 169.041 29.4731C181.462 29.0866 193.752 31.6587 205.92 34.2223L241.911 41.8069C247.432 42.9709 253.03 44.1415 258.658 43.8339C265.975 43.4395 272.898 40.5945 279.828 38.2341C295.282 32.9844 311.42 30.024 327.731 29.4468C319.584 40.3771 305.908 46.9575 292.285 46.4858C278.307 46.007 273.333 50.5663 260.706 53.6094C248.835 56.4704 235.923 55.1548 223.903 54.1791" fill="#FFD72E"/>
<path d="M409.95 39.079C402.524 44.616 392.322 45.319 384.917 50.8861C382.355 52.8118 380.196 55.2765 377.437 56.9048C372.539 59.7972 366.52 59.6711 360.903 60.564C352.988 61.837 345.569 65.2417 339.442 70.4125C336.631 72.7931 334.07 75.5617 330.789 77.2361C327.595 78.867 323.951 79.3395 320.392 79.7857C298.133 82.58 275.302 85.3502 253.47 80.1783C242.849 77.6617 232.705 73.3119 221.974 71.3505C200.744 67.4709 179.122 73.1768 157.826 76.6941C136.53 80.2113 109.611 79.6726 95.121 69.0177C92.1458 63.7133 115.729 71.2849 124.08 64.9079C128.512 61.5228 132.634 57.5219 137.038 54.082C140.836 53.0134 144.255 50.7911 148.058 49.7036C152.562 48.4174 157.347 48.793 162.018 49.1648L223.917 54.182C235.928 55.1554 248.854 56.4645 260.72 53.6124C273.348 50.5669 278.321 46.01 292.299 46.4888C305.924 46.9511 319.6 40.3806 327.745 29.4497C327.041 29.4749 326.335 29.5094 325.63 29.5446C335.188 27.201 344.679 24.5907 354.115 21.8263C359.852 20.1407 365.677 18.3771 371.655 18.4255C375.024 18.4542 378.38 19.0623 381.745 18.8999C391.432 18.4324 393.53 21.6622 393.246 21.8934C391.891 23.0526 392.392 24.0718 394.213 24.5782C402.292 26.8217 411.581 23.7652 416.747 17.161C418.931 14.3698 420.432 11.0216 423.049 8.62951C425.665 6.23744 430.064 5.15755 432.649 7.58478C422.721 16.0429 420.389 31.28 409.934 39.0748" fill="#E5C7A3"/>
</g>
<path d="M554.604 67.2758C549.792 70.3302 545.459 73.8454 540.901 77.2362C535.973 80.9115 529.999 82.6801 524.149 84.1596C514 86.7192 503.453 88.1556 493.242 90.8597C478.183 94.8482 464.826 95.8941 449.73 91.8196C437.171 88.427 424.465 92.4305 413.105 97.8966C407.734 100.482 401.664 100.431 395.898 100.949C388.238 101.639 380.464 102.586 372.756 102.82C364.018 103.084 350.131 103.664 342.689 98.439C341.36 97.5065 340.843 96.2232 342.076 94.9855C342.761 94.3153 343.531 93.7367 344.365 93.264C355.474 92.8521 366.636 91.478 377.657 90.0936C380.686 89.7141 383.774 89.314 386.596 88.1994L387.074 88.1674C387.073 88.1121 387.074 88.0574 387.073 88.0021C387.404 87.8604 387.732 87.7078 388.056 87.5445C391.337 85.8702 393.897 83.1039 396.709 80.721C400.031 77.9185 403.749 75.6241 407.744 73.9126C413.953 77.0655 419.83 79.9149 426.674 80.4467C433.214 80.9567 437.885 78.0744 443.839 75.1881C452.43 71.025 461.837 67.6282 470.918 65.0496C478.893 62.7823 487.692 63.6443 496.035 63.876C505.838 64.1428 515.362 63.9444 525.091 62.7846C534.227 61.6955 542.792 59.807 551.624 57.1856C557.653 55.3935 570.07 51.8471 571.371 53.4631C572.672 55.079 558.554 64.7598 554.591 67.2775" fill="#D53A2C"/>
<path d="M281.176 64.5029L219.288 59.481C214.63 59.1051 209.832 58.7337 205.328 60.0198C201.242 61.1885 197.598 63.6692 193.454 64.6184C188.918 65.6563 184.181 64.7826 179.648 63.7329C163.631 60.045 148.14 54.358 133.541 46.8057C129.923 44.9336 125.804 41.877 126.495 37.8666C127.248 33.4692 132.978 32.2295 137.429 32.5185C154.258 33.6157 169.951 42.0801 186.776 43.1437C199.993 43.9734 213.065 40.2047 226.3 39.7934C238.721 39.4069 251.011 41.979 263.178 44.5426L299.169 52.1272C304.691 53.2912 310.289 54.4618 315.916 54.1542C323.234 53.7599 330.156 50.9148 337.087 48.5544C352.54 43.3047 368.679 40.3443 384.99 39.7671C376.843 50.6974 363.166 57.2779 349.544 56.8062C335.566 56.3273 330.592 60.8867 317.965 63.9297C306.094 66.7907 293.182 65.4751 281.162 64.4994" fill="#4195C4"/>
<path d="M467.209 49.3993C459.783 54.9363 449.581 55.6393 442.176 61.2064C439.614 63.1321 437.455 65.5968 434.696 67.2251C429.798 70.1175 423.779 69.9914 418.162 70.8843C410.246 72.1574 402.827 75.562 396.701 80.7329C393.89 83.1134 391.329 85.882 388.048 87.5564C384.853 89.1873 381.21 89.6599 377.651 90.106C355.392 92.9003 332.561 95.6705 310.729 90.4986C300.108 87.982 289.964 83.6323 279.233 81.6708C258.003 77.7912 236.381 83.4972 215.085 87.0144C193.789 90.5316 166.87 89.993 152.38 79.338C149.405 74.0336 172.988 81.6053 181.338 75.2282C185.771 71.8432 189.893 67.8422 194.296 64.4024C198.095 63.3337 201.514 61.1114 205.317 60.0239C209.82 58.7377 214.606 59.1133 219.277 59.4851L281.176 64.5023C293.187 65.4757 306.113 66.7849 317.979 63.9327C330.607 60.8873 335.58 56.3303 349.558 56.8091C363.183 57.2714 376.859 50.7009 385.004 39.7701C384.3 39.7952 383.593 39.8297 382.889 39.8649C392.446 37.5213 401.938 34.911 411.374 32.1466C417.111 30.461 422.936 28.6974 428.914 28.7458C432.283 28.7745 435.639 29.3826 439.004 29.2202C448.691 28.7527 450.788 31.9825 450.505 32.2137C449.15 33.3729 449.651 34.3921 451.472 34.8985C459.55 37.142 468.84 34.0855 474.006 27.4813C476.19 24.6902 477.691 21.3419 480.307 18.9498C482.924 16.5578 487.323 15.4779 489.908 17.9051C479.98 26.3632 477.648 41.6004 467.192 49.3951" fill="#FFD72E"/>
</g>
<defs>
<clipPath id="clip0">
<rect width="115.33" height="600" fill="white" transform="matrix(-0.00483058 0.999988 0.999988 0.00483058 1.28223 0.226562)"/>
</clipPath>
</defs>
</svg>
