<svg width="602" height="119" viewBox="0 0 602 119" fill="none" xmlns="http://www.w3.org/2000/svg">
<g clip-path="url(#clip0)">
<g opacity="0.2">
<path d="M104.655 61.4976C109.467 58.4433 113.799 54.928 118.358 51.5373C123.286 47.862 129.259 46.0933 135.11 44.6138C145.259 42.0543 155.806 40.6178 166.017 37.9137C181.076 33.9252 194.433 32.8794 209.529 36.9538C222.087 40.3464 234.794 36.3429 246.154 30.8768C251.525 28.2912 257.595 28.3427 263.36 27.8248C271.021 27.134 278.795 26.187 286.503 25.9534C295.241 25.6894 309.128 25.1098 316.57 30.3345C317.898 31.267 318.415 32.5503 317.183 33.7879C316.497 34.4581 315.728 35.0368 314.893 35.5094C303.785 35.9213 292.623 37.2954 281.602 38.6798C278.572 39.0594 275.485 39.4594 272.663 40.574L272.185 40.6061C272.186 40.6614 272.185 40.7161 272.186 40.7714C271.855 40.9131 271.527 41.0656 271.203 41.2289C267.922 42.9032 265.361 45.6695 262.55 48.0524C259.228 50.8549 255.509 53.1493 251.515 54.8608C245.306 51.7079 239.429 48.8586 232.584 48.3268C226.045 47.8167 221.374 50.699 215.419 53.5853C206.829 57.7484 197.422 61.1453 188.341 63.7239C180.366 65.9911 171.566 65.1291 163.223 64.8974C153.421 64.6306 143.897 64.829 134.168 65.9888C125.031 67.078 116.467 68.9664 107.635 71.5879C101.606 73.3799 89.1892 76.9263 87.8881 75.3104C86.5871 73.6944 100.705 64.0136 104.668 61.4959" fill="#EA7534"/>
<path d="M378.083 64.2705L439.971 69.2925C444.629 69.6683 449.427 70.0398 453.931 68.7536C458.017 67.5849 461.661 65.1042 465.805 64.155C470.341 63.1172 475.078 63.9908 479.61 65.0406C495.628 68.7285 511.119 74.4154 525.718 81.9678C529.335 83.8399 533.455 86.8965 532.764 90.9069C532.011 95.3042 526.281 96.5439 521.83 96.2549C505.001 95.1577 489.308 86.6934 472.483 85.6297C459.266 84.8 446.193 88.5687 432.959 88.9801C420.538 89.3665 408.248 86.7944 396.08 84.2308L360.089 76.6462C354.568 75.4823 348.97 74.3117 343.342 74.6192C336.025 75.0136 329.102 77.8587 322.172 80.219C306.718 85.4687 290.58 88.4292 274.269 89.0063C282.416 78.076 296.092 71.4956 309.715 71.9673C323.693 72.4461 328.667 67.8868 341.294 64.8437C353.165 61.9827 366.077 63.2984 378.097 64.2741" fill="#FFD72E"/>
<path d="M192.05 79.3742C199.476 73.8371 209.678 73.1341 217.083 67.5671C219.645 65.6414 221.804 63.1766 224.563 61.5484C229.461 58.6559 235.48 58.782 241.097 57.8892C249.012 56.6161 256.431 53.2114 262.558 48.0406C265.369 45.6601 267.93 42.8914 271.211 41.2171C274.405 39.5861 278.049 39.1136 281.608 38.6674C303.867 35.8732 326.698 33.103 348.53 38.2749C359.151 40.7914 369.295 45.1412 380.026 47.1027C401.256 50.9823 422.878 45.2763 444.174 41.759C465.47 38.2418 492.389 38.7805 506.879 49.4354C509.854 54.7398 486.271 47.1682 477.92 53.5452C473.488 56.9303 469.366 60.9312 464.962 64.3711C461.164 65.4398 457.745 67.6621 453.942 68.7495C449.438 70.0357 444.653 69.6602 439.982 69.2884L378.083 64.2711C366.072 63.2978 353.146 61.9886 341.28 64.8407C328.652 67.8862 323.679 72.4432 309.701 71.9643C296.076 71.502 282.4 78.0725 274.255 89.0034C274.959 88.9782 275.665 88.9437 276.37 88.9086C266.812 91.2522 257.321 93.8624 247.885 96.6268C242.148 98.3124 236.323 100.076 230.345 100.028C226.976 99.9989 223.62 99.3908 220.255 99.5532C210.568 100.021 208.47 96.7909 208.754 96.5597C210.109 95.4005 209.608 94.3813 207.787 93.875C199.708 91.6314 190.419 94.6879 185.253 101.292C183.069 104.083 181.568 107.432 178.951 109.824C176.335 112.216 171.936 113.296 169.351 110.868C179.279 102.41 181.611 87.1731 192.066 79.3783" fill="#E5C7A3"/>
</g>
<path d="M47.3965 51.1773C52.2081 48.123 56.5405 44.6077 61.0993 41.217C66.0273 37.5416 72.0006 35.773 77.851 34.2935C88.0004 31.734 98.5471 30.2975 108.758 27.5934C123.817 23.6049 137.174 22.5591 152.27 26.6335C164.829 30.0261 177.535 26.0226 188.895 20.5565C194.266 17.9709 200.336 18.0224 206.102 17.5045C213.762 16.8137 221.536 15.8667 229.244 15.6331C237.982 15.3691 251.869 14.7895 259.311 20.0141C260.64 20.9466 261.157 22.23 259.924 23.4676C259.239 24.1378 258.469 24.7165 257.635 25.1891C246.526 25.601 235.364 26.9751 224.343 28.3595C221.314 28.7391 218.226 29.1391 215.404 30.2537L214.926 30.2858C214.927 30.341 214.926 30.3957 214.927 30.451C214.596 30.5928 214.268 30.7453 213.944 30.9086C210.663 32.5829 208.103 35.3492 205.291 37.7321C201.969 40.5346 198.251 42.829 194.256 44.5405C188.047 41.3876 182.17 38.5383 175.326 38.0065C168.786 37.4964 164.115 40.3787 158.161 43.265C149.57 47.4281 140.163 50.8249 131.082 53.4036C123.107 55.6708 114.308 54.8088 105.965 54.5771C96.1622 54.3103 86.6378 54.5087 76.9087 55.6685C67.7727 56.7576 59.208 58.6461 50.3761 61.2675C44.3469 63.0596 31.9303 66.606 30.6293 64.9901C29.3282 63.3741 43.4459 53.6933 47.4094 51.1756" fill="#D53A2C"/>
<path d="M320.824 53.9502L382.712 58.9721C387.37 59.348 392.168 59.7195 396.672 58.4333C400.758 57.2646 404.402 54.7839 408.546 53.8347C413.082 52.7968 417.819 53.6705 422.352 54.7203C438.369 58.4082 453.86 64.0951 468.459 71.6474C472.077 73.5196 476.196 76.5762 475.505 80.5866C474.752 84.9839 469.022 86.2236 464.571 85.9346C447.742 84.8374 432.049 76.3731 415.224 75.3094C402.007 74.4797 388.935 78.2484 375.7 78.6598C363.279 79.0462 350.989 76.4741 338.822 73.9105L302.831 66.3259C297.309 65.1619 291.711 63.9913 286.084 64.2989C278.766 64.6933 271.844 67.5383 264.913 69.8987C249.46 75.1484 233.321 78.1088 217.01 78.686C225.157 67.7557 238.834 61.1753 252.456 61.647C266.434 62.1258 271.408 57.5665 284.035 54.5234C295.906 51.6624 308.818 52.978 320.838 53.9537" fill="#4195C4"/>
<path d="M134.791 69.0538C142.217 63.5168 152.419 62.8138 159.824 57.2467C162.386 55.321 164.545 52.8563 167.304 51.2281C172.202 48.3356 178.221 48.4617 183.838 47.5689C191.754 46.2958 199.173 42.8911 205.299 37.7203C208.11 35.3397 210.671 32.5711 213.952 30.8968C217.147 29.2658 220.79 28.7933 224.349 28.3471C246.608 25.5529 269.439 22.7826 291.271 27.9545C301.892 30.4711 312.036 34.8209 322.767 36.7824C343.997 40.662 365.619 34.956 386.915 31.4387C408.211 27.9215 435.13 28.4602 449.62 39.1151C452.595 44.4195 429.012 36.8479 420.662 43.2249C416.229 46.61 412.107 50.6109 407.704 54.0508C403.905 55.1194 400.486 57.3418 396.683 58.4292C392.18 59.7154 387.394 59.3399 382.723 58.9681L320.824 53.9508C308.813 52.9775 295.887 51.6683 284.021 54.5204C271.393 57.5659 266.42 62.1228 252.442 61.644C238.817 61.1817 225.141 67.7522 216.996 78.6831C217.7 78.6579 218.407 78.6234 219.111 78.5882C209.554 80.9319 200.062 83.5421 190.626 86.3065C184.889 87.9921 179.064 89.7557 173.086 89.7073C169.717 89.6786 166.361 89.0705 162.996 89.2329C153.309 89.7004 151.212 86.4706 151.495 86.2394C152.85 85.0802 152.349 84.061 150.528 83.5546C142.45 81.3111 133.16 84.3676 127.994 90.9718C125.81 93.763 124.309 97.1112 121.693 99.5033C119.076 101.895 114.677 102.975 112.092 100.548C122.02 92.0899 124.352 76.8528 134.808 69.058" fill="#FFD72E"/>
</g>
<defs>
<clipPath id="clip0">
<rect width="115.33" height="600" fill="white" transform="matrix(0.00483058 -0.999988 -0.999988 -0.00483058 600.718 118.227)"/>
</clipPath>
</defs>
</svg>
