<svg width="48" height="48" viewBox="0 0 48 48" fill="none" xmlns="http://www.w3.org/2000/svg">
<path d="M15.6945 34.2092H15.6807C15.0647 34.2092 14.4468 33.977 13.977 33.5092L3.80905 23.4149L15.6945 34.2092ZM15.6945 34.2092L15.6953 34.2091M15.6945 34.2092L15.6953 34.2091M15.6953 34.2091C16.307 34.2055 16.9188 33.9713 17.3845 33.5095L17.3846 33.5094L18.9083 31.9964L18.9086 31.9962C19.3707 31.536 19.6255 30.9243 19.6255 30.2719C19.6255 29.6198 19.3709 29.0059 18.9082 28.5473C18.9082 28.5473 18.9082 28.5472 18.9082 28.5472L8.74149 18.4546C8.74146 18.4545 8.74144 18.4545 8.74141 18.4545C7.8012 17.5204 6.27286 17.5204 5.33266 18.4545C5.33264 18.4545 5.33262 18.4545 5.3326 18.4546L3.80904 19.9674C3.809 19.9674 3.80897 19.9674 3.80893 19.9675C3.80892 19.9675 3.80892 19.9675 3.80891 19.9675C3.34649 20.426 3.0918 21.038 3.0918 21.6902C3.0918 22.3423 3.34632 22.9561 3.80893 23.4148L15.6953 34.2091ZM6.69636 19.8301L6.69699 19.8294C6.78932 19.7371 6.91137 19.6906 7.03592 19.6906C7.15894 19.6906 7.28202 19.7379 7.37576 19.8304C7.37583 19.8304 7.3759 19.8305 7.37598 19.8306L17.5424 29.9229L17.5429 29.9234C17.6368 30.0161 17.6878 30.1387 17.6878 30.272C17.6878 30.4053 17.6368 30.5279 17.5429 30.6206L17.5424 30.6211L16.0191 32.1336C16.019 32.1337 16.0189 32.1338 16.0188 32.1339C15.8301 32.3198 15.5256 32.3189 15.3396 32.1341L15.3395 32.134L5.17259 22.0412L5.1721 22.0407C5.07825 21.948 5.02725 21.8254 5.02725 21.6921C5.02725 21.5603 5.07901 21.4368 5.17298 21.3427C5.17306 21.3426 5.17315 21.3425 5.17324 21.3424L6.69636 19.8301Z" fill="#D53A2C" stroke="#D53A2C" stroke-width="0.5"/>
<path d="M31.7207 18.2852C31.1048 18.2851 30.4873 18.0528 30.016 17.5856L30.0159 17.5855L19.8491 7.49089L31.7207 18.2852ZM31.7207 18.2852L31.7207 18.2852C32.3373 18.2852 32.9546 18.0509 33.4255 17.586L33.426 17.5855L34.9496 16.0726C35.4121 15.6141 35.6669 15.0021 35.6669 14.3498C35.6669 13.6977 35.4123 13.0838 34.9496 12.6251L24.7815 2.52879C24.7815 2.52877 24.7815 2.52875 24.7815 2.52873C23.8413 1.59459 22.3129 1.59459 21.3727 2.52873C21.3727 2.52875 21.3727 2.52877 21.3726 2.52879L19.849 4.04171L19.8487 4.04196M31.7207 18.2852L19.8487 4.04196M19.8487 4.04196C19.3866 4.50208 19.1318 5.11378 19.1318 5.76623C19.1318 6.41829 19.3864 7.03209 19.849 7.49076L19.8487 4.04196ZM32.2371 16.3871L33.7608 14.8741L32.0611 16.2095C31.8724 16.3954 31.5679 16.3945 31.3819 16.2097L31.3818 16.2096L21.2149 6.11677L21.2144 6.11629C21.1205 6.02362 21.0695 5.90104 21.0695 5.76772C21.0695 5.63595 21.1213 5.51245 21.2152 5.41836C21.2153 5.41825 21.2154 5.41814 21.2155 5.41803L22.7385 3.90757L22.7386 3.90757L22.7393 3.90684C22.8311 3.81504 22.9523 3.76857 23.0761 3.76803H23.0782C23.2017 3.76803 23.3232 3.81387 23.4187 3.90657C23.4189 3.9068 23.4192 3.90703 23.4194 3.90727L33.5847 13.9985L33.5852 13.999C33.6791 14.0917 33.7301 14.2143 33.7301 14.3476C33.7301 14.4809 33.6791 14.6035 33.5852 14.6962L33.5847 14.6967L32.0614 16.2092L32.2371 16.3871ZM32.2371 16.3871C31.9514 16.6692 31.4896 16.6692 31.2057 16.3871H32.2371Z" fill="#D53A2C" stroke="#D53A2C" stroke-width="0.5"/>
<path d="M32.3674 32.3484L32.3674 32.3484L23.5755 23.5564C23.1972 23.1781 23.198 22.5656 23.5749 22.1864L23.5754 22.1858L23.5755 22.1858C23.9537 21.8076 24.5662 21.8083 24.9455 22.1853L24.946 22.1858L24.946 22.1858L33.738 30.9778C34.1162 31.356 34.1155 31.9685 33.7385 32.3478L33.7369 32.3495C33.547 32.537 33.3001 32.6318 33.0527 32.6318L32.3674 32.3484ZM32.3674 32.3484C32.5567 32.5376 32.8063 32.6318 33.0527 32.6318L32.3674 32.3484Z" fill="#D53A2C" stroke="#D53A2C" stroke-width="0.5"/>
<path d="M3.875 46.1736H22.8104C23.3456 46.1736 23.7792 45.74 23.7792 45.2048V40.6875C23.7792 40.1523 23.3456 39.7188 22.8104 39.7188H3.875C3.33982 39.7188 2.90625 40.1523 2.90625 40.6875V45.2048C2.90625 45.74 3.33982 46.1736 3.875 46.1736ZM21.8415 41.6562V44.2361H4.84352V41.6562H21.8415Z" fill="#D53A2C" stroke="#D53A2C" stroke-width="0.5"/>
<path d="M18.8611 40.6853C18.8611 41.2205 19.2946 41.6541 19.8298 41.6541C20.365 41.6541 20.7986 41.2205 20.7986 40.6853V39.043C20.7986 36.9229 19.0749 35.1992 16.9548 35.1992H9.73145C7.61142 35.1992 5.8877 36.9229 5.8877 39.043V40.6853C5.8877 41.2205 6.32127 41.6541 6.85645 41.6541C7.39163 41.6541 7.8252 41.2205 7.8252 40.6853V39.043C7.8252 37.9915 8.68 37.1367 9.73145 37.1367H16.9548C18.0063 37.1367 18.8611 37.9915 18.8611 39.043V40.6853Z" fill="#D53A2C" stroke="#D53A2C" stroke-width="0.5"/>
<path d="M39.6793 43.4272L39.6793 43.4272C39.8613 43.6091 40.1082 43.7107 40.3646 43.7107C40.621 43.7107 40.868 43.6091 41.0499 43.4272L41.0502 43.427L44.8108 39.6574C45.1888 39.2795 45.1888 38.6665 44.8108 38.2886L35.62 29.096L35.62 29.0959C35.4381 28.914 35.1911 28.8125 34.9347 28.8125C34.6783 28.8125 34.4313 28.914 34.2494 29.096L34.2492 29.0962L30.4885 32.8658C30.4885 32.8658 30.4885 32.8659 30.4884 32.8659C30.1106 33.2438 30.1106 33.8567 30.4885 34.2346L39.6793 43.4272ZM42.7556 38.972L40.363 41.3708L32.5424 33.5488L34.9349 31.15L42.7556 38.972Z" fill="#D53A2C" stroke="#D53A2C" stroke-width="0.5"/>
<path d="M19.3549 28.718V28.7181C19.3145 28.7181 19.2742 28.7157 19.234 28.711L19.2311 28.7106L19.2311 28.7106L16.2052 28.3189L15.9572 28.2868L15.9894 28.0388L16.1745 26.6138L16.2066 26.3661L16.4544 26.3981L19.0085 26.7274L27.8891 17.8978L27.8735 15.0593L27.8721 14.8092L28.1223 14.808L29.5598 14.8008L29.8096 14.7995L29.811 15.0494L29.829 18.2936C29.829 18.2937 29.829 18.2939 29.829 18.294L29.829 18.2946L29.579 18.2959C29.5808 18.4882 29.5035 18.6733 29.3669 18.8099L19.3549 28.718ZM19.3549 28.718C19.6096 28.718 19.8564 28.6163 20.038 28.4349C20.0381 28.4348 20.0382 28.4347 20.0383 28.4346L19.3549 28.718Z" fill="#D53A2C" stroke="#D53A2C" stroke-width="0.5"/>
<path d="M8.8447 21.1478L8.84097 20.8978L8.79606 17.8889C8.79606 17.8887 8.79606 17.8886 8.79605 17.8884L8.79605 17.888L9.04602 17.8843C9.04242 17.6902 9.11969 17.5015 9.25805 17.3632L8.8447 21.1478ZM8.8447 21.1478L9.0947 21.144L10.5305 21.1224L10.7804 21.1187L10.7767 20.8688L10.7387 18.2706L19.5179 9.54112L8.8447 21.1478Z" fill="#D53A2C" stroke="#D53A2C" stroke-width="0.5"/>
</svg>
