<svg width="48" height="50" viewBox="0 0 48 50" fill="none" xmlns="http://www.w3.org/2000/svg">
<path d="M21 43L24.5 41L28 43V46L24.5 48L21 46V43Z" fill="#4195C4" stroke="#4195C4" stroke-width="2"/>
<path d="M2 34L5.5 32L9 34V37L5.5 39L2 37V34Z" fill="#4195C4" stroke="#4195C4" stroke-width="2"/>
<path d="M2 13L5.5 11L9 13V16L5.5 18L2 16V13Z" fill="#4195C4" stroke="#4195C4" stroke-width="2"/>
<path d="M21 4L24.5 2L28 4V7L24.5 9L21 7V4Z" fill="#4195C4" stroke="#4195C4" stroke-width="2"/>
<path d="M39 34L42.5 32L46 34V37L42.5 39L39 37V34Z" fill="#4195C4" stroke="#4195C4" stroke-width="2"/>
<path d="M39 13L42.5 11L46 13V16L42.5 18L39 16V13Z" fill="#4195C4" stroke="#4195C4" stroke-width="2"/>
<path d="M24.5 5.5L5.5 14.5V35.5L24.5 44.5L42.5 35.5V14.5L24.5 5.5Z" stroke="#4195C4" stroke-width="3"/>
<mask id="path-8-outside-1" maskUnits="userSpaceOnUse" x="17.4004" y="16" width="13" height="18" fill="black">
<rect fill="white" x="17.4004" y="16" width="13" height="18"/>
<path fill-rule="evenodd" clip-rule="evenodd" d="M19.6004 21.4C19.6004 18.9695 21.57 17 24.0004 17C26.4309 17 28.4004 18.9696 28.4004 21.4V24.2H28.8004C29.2433 24.2 29.6004 24.557 29.6004 25V32.2C29.6004 32.643 29.2433 33 28.8004 33H19.2004C18.7574 33 18.4004 32.643 18.4004 32.2V25C18.4004 24.557 18.7574 24.2 19.2004 24.2H19.6004V21.4ZM27.6004 21.4C27.6004 19.3984 26.002 17.8 24.0004 17.8C21.9988 17.8 20.4004 19.3984 20.4004 21.4V24.2H27.6004V21.4ZM21 25C20.4477 25 20 25.4477 20 26V31C20 31.5523 20.4477 32 21 32H27C27.5523 32 28 31.5523 28 31V26C28 25.4477 27.5523 25 27 25H21Z"/>
</mask>
<path fill-rule="evenodd" clip-rule="evenodd" d="M19.6004 21.4C19.6004 18.9695 21.57 17 24.0004 17C26.4309 17 28.4004 18.9696 28.4004 21.4V24.2H28.8004C29.2433 24.2 29.6004 24.557 29.6004 25V32.2C29.6004 32.643 29.2433 33 28.8004 33H19.2004C18.7574 33 18.4004 32.643 18.4004 32.2V25C18.4004 24.557 18.7574 24.2 19.2004 24.2H19.6004V21.4ZM27.6004 21.4C27.6004 19.3984 26.002 17.8 24.0004 17.8C21.9988 17.8 20.4004 19.3984 20.4004 21.4V24.2H27.6004V21.4ZM21 25C20.4477 25 20 25.4477 20 26V31C20 31.5523 20.4477 32 21 32H27C27.5523 32 28 31.5523 28 31V26C28 25.4477 27.5523 25 27 25H21Z" fill="#4195C4"/>
<path d="M28.4004 24.2H27.9004V24.7H28.4004V24.2ZM19.6004 24.2V24.7H20.1004V24.2H19.6004ZM20.4004 24.2H19.9004V24.7H20.4004V24.2ZM27.6004 24.2V24.7H28.1004V24.2H27.6004ZM24.0004 16.5C21.2939 16.5 19.1004 18.6934 19.1004 21.4H20.1004C20.1004 19.2457 21.8461 17.5 24.0004 17.5V16.5ZM28.9004 21.4C28.9004 18.6935 26.707 16.5 24.0004 16.5V17.5C26.1547 17.5 27.9004 19.2457 27.9004 21.4H28.9004ZM28.9004 24.2V21.4H27.9004V24.2H28.9004ZM28.8004 23.7H28.4004V24.7H28.8004V23.7ZM30.1004 25C30.1004 24.2809 29.5195 23.7 28.8004 23.7V24.7C28.9672 24.7 29.1004 24.8332 29.1004 25H30.1004ZM30.1004 32.2V25H29.1004V32.2H30.1004ZM28.8004 33.5C29.5195 33.5 30.1004 32.9191 30.1004 32.2H29.1004C29.1004 32.3668 28.9672 32.5 28.8004 32.5V33.5ZM19.2004 33.5H28.8004V32.5H19.2004V33.5ZM17.9004 32.2C17.9004 32.9191 18.4813 33.5 19.2004 33.5V32.5C19.0336 32.5 18.9004 32.3668 18.9004 32.2H17.9004ZM17.9004 25V32.2H18.9004V25H17.9004ZM19.2004 23.7C18.4813 23.7 17.9004 24.2809 17.9004 25H18.9004C18.9004 24.8332 19.0336 24.7 19.2004 24.7V23.7ZM19.6004 23.7H19.2004V24.7H19.6004V23.7ZM19.1004 21.4V24.2H20.1004V21.4H19.1004ZM24.0004 18.3C25.7258 18.3 27.1004 19.6746 27.1004 21.4H28.1004C28.1004 19.1223 26.2781 17.3 24.0004 17.3V18.3ZM20.9004 21.4C20.9004 19.6745 22.275 18.3 24.0004 18.3V17.3C21.7227 17.3 19.9004 19.1223 19.9004 21.4H20.9004ZM20.9004 24.2V21.4H19.9004V24.2H20.9004ZM27.6004 23.7H20.4004V24.7H27.6004V23.7ZM27.1004 21.4V24.2H28.1004V21.4H27.1004ZM20.5 26C20.5 25.7239 20.7239 25.5 21 25.5V24.5C20.1716 24.5 19.5 25.1716 19.5 26H20.5ZM20.5 31V26H19.5V31H20.5ZM21 31.5C20.7239 31.5 20.5 31.2761 20.5 31H19.5C19.5 31.8284 20.1716 32.5 21 32.5V31.5ZM27 31.5H21V32.5H27V31.5ZM27.5 31C27.5 31.2761 27.2761 31.5 27 31.5V32.5C27.8284 32.5 28.5 31.8284 28.5 31H27.5ZM27.5 26V31H28.5V26H27.5ZM27 25.5C27.2761 25.5 27.5 25.7239 27.5 26H28.5C28.5 25.1716 27.8284 24.5 27 24.5V25.5ZM21 25.5H27V24.5H21V25.5Z" fill="#4195C4" mask="url(#path-8-outside-1)"/>
</svg>
