<svg width="24" height="24" viewBox="0 0 24 24" fill="none" xmlns="http://www.w3.org/2000/svg">
<path fill-rule="evenodd" clip-rule="evenodd" d="M3 4.5C3 3.67157 3.67157 3 4.5 3H19.5C20.3284 3 21 3.67157 21 4.5V19.5C21 20.3284 20.3284 21 19.5 21H4.5C3.67157 21 3 20.3284 3 19.5V4.5ZM16.6675 9.23215C16.9535 9.53177 16.9425 10.0065 16.6429 10.2925L11.1428 15.5425C10.853 15.8192 10.3969 15.8192 10.1071 15.5425L7.35714 12.9175C7.05752 12.6315 7.04648 12.1568 7.33249 11.8571C7.61849 11.5575 8.09324 11.5465 8.39286 11.8325L10.625 13.9632L15.6071 9.20748C15.9068 8.92148 16.3815 8.93252 16.6675 9.23215Z" fill="#4195C4"/>
</svg>
