<svg width="48" height="48" viewBox="0 0 48 48" fill="none" xmlns="http://www.w3.org/2000/svg">
<path d="M29.6621 25.0029L25.9505 26.6804C25.6727 24.9761 24.3769 23.691 22.7764 23.6426C22.7675 23.6426 17.3373 23.5817 17.3373 23.5817C14.8569 22.6479 12.5914 22.6551 10.6002 23.6032C9.1826 24.2771 8.14488 25.3309 7.41368 26.3417C6.98175 25.9295 6.25414 25.8345 5.73078 26.1231L0.741273 28.8777C0.110416 29.2254 -0.163812 29.9889 0.0996799 30.6591L4.97632 43.0377C5.28817 43.8317 6.25235 44.1811 7.00332 43.7671L11.9928 41.0125C12.4606 40.7544 12.7312 40.2687 12.733 39.7615H20.212C21.4217 39.7615 22.6154 39.4425 23.6638 38.8385C23.6638 38.8385 37.6647 30.7737 37.7418 30.7039C39.6845 28.9296 39.7455 25.4905 36.9568 24.4761C34.5624 23.6015 31.9081 23.795 29.6627 25.003L29.6621 25.0029ZM7.04622 40.4642L3.23061 30.7775L5.68774 29.4208L9.50335 39.1094L7.04622 40.4642ZM35.9097 28.4871L22.235 36.3515C21.6203 36.7045 20.9213 36.8927 20.2134 36.8927H11.7149L8.84203 29.5986C9.19868 28.7706 10.1342 26.991 11.8512 26.1827C13.1559 25.568 14.7294 25.6217 16.5305 26.3422C16.6954 26.4085 16.8692 26.4426 17.0467 26.4444L22.6973 26.5089C22.8568 26.5214 23.14 26.8512 23.14 27.3692C23.1704 27.7939 23.0181 28.0807 22.6866 28.2294H17.1359V31.0969H22.6866C23.355 31.0969 24.0038 30.8711 24.5469 30.4607C24.5469 30.4607 30.9559 27.5645 30.988 27.5466C32.5204 26.7096 34.3395 26.5716 35.9775 27.1666C36.655 27.4157 36.1836 28.2097 35.9094 28.4875L35.9097 28.4871Z" fill="#EA7534"/>
<circle cx="27.4697" cy="12.5" r="6" stroke="#EA7534" stroke-width="3"/>
</svg>
