<svg width="121" height="121" viewBox="0 0 121 121" fill="none" xmlns="http://www.w3.org/2000/svg">
<path d="M60.1552 120.996C93.2922 120.996 120.155 94.1332 120.155 60.9961C120.155 27.859 93.2922 0.996094 60.1552 0.996094C27.0181 0.996094 0.155151 27.859 0.155151 60.9961C0.155151 94.1332 27.0181 120.996 60.1552 120.996Z" fill="#627EEA"/>
<path d="M62.0239 15.999V49.2615L90.1377 61.824L62.0239 15.999Z" fill="white" fill-opacity="0.602"/>
<path d="M62.0214 15.999L33.9039 61.824L62.0214 49.2615V15.999Z" fill="white"/>
<path d="M62.0239 83.3827V105.984L90.1564 67.0627L62.0239 83.3827Z" fill="white" fill-opacity="0.602"/>
<path d="M62.0214 105.984V83.379L33.9039 67.0627L62.0214 105.984Z" fill="white"/>
<path d="M62.0239 78.1507L90.1377 61.827L62.0239 49.272V78.1507Z" fill="white" fill-opacity="0.2"/>
<path d="M33.9039 61.827L62.0214 78.1507V49.272L33.9039 61.827Z" fill="white" fill-opacity="0.602"/>
</svg>
