<svg width="121" height="120" viewBox="0 0 121 120" fill="none" xmlns="http://www.w3.org/2000/svg">
<path d="M60.5485 118.212C92.6982 118.212 118.761 92.1497 118.761 59.9999C118.761 27.8501 92.6982 1.7876 60.5485 1.7876C28.3987 1.7876 2.33618 27.8501 2.33618 59.9999C2.33618 92.1497 28.3987 118.212 60.5485 118.212Z" fill="#1B1B1B"/>
<path d="M102.972 17.576C91.6295 6.23303 76.5803 0 60.5485 0C27.4742 0 0.548584 26.9255 0.548584 59.9999C0.548584 93.0743 27.4742 120 60.5485 120C76.5803 120 91.6295 113.767 102.972 102.424C114.316 91.081 120.549 76.0318 120.549 59.9999C120.549 43.9681 114.316 28.919 102.972 17.576ZM60.5485 116.911C29.1587 116.911 3.63702 91.3898 3.63702 59.9999C3.63702 28.6102 29.1587 3.08844 60.5485 3.08844C91.9384 3.08844 117.46 28.6102 117.46 59.9999C117.46 91.3898 91.9384 116.911 60.5485 116.911Z" fill="white"/>
<path d="M66.4897 53.6101C57.1961 49.3706 49.1662 45.7205 49.7558 36.8483C50.0086 33.3669 52.5074 31.2892 54.557 30.166C57.112 28.7623 60.5374 28.0323 63.5135 28.2287C71.431 28.7623 77.6641 32.1033 83.7286 39.0383L86.0591 37.0168C79.4891 29.4923 72.3857 25.7299 63.7099 25.1403C63.0362 25.0841 62.3622 25.0841 61.6604 25.1122C61.52 25.1122 61.3796 25.1122 61.2673 25.1122C55.5677 25.1122 49.3628 26.9654 44.5897 30.1098C38.9744 33.8159 35.8297 38.8979 35.7456 44.429C35.5209 57.9621 46.7236 62.5667 56.6065 66.6377C65.7035 70.4 73.5931 73.6288 73.4246 82.5292C73.3402 88.5375 65.0857 91.7664 59.2738 91.7664C59.1897 91.7664 59.1334 91.7664 59.0493 91.7664V91.7944H59.0212C50.4297 91.6821 42.7927 88.0883 36.3071 81.1252L34.033 83.231C41.0239 90.7555 49.6435 94.7986 58.9931 94.9109C59.1334 94.9109 59.2738 94.9109 59.4142 94.9109C65.4508 94.9109 71.9646 93.3106 76.9622 90.5591C83.083 87.2179 86.6487 82.3607 87.0136 76.9138C87.9402 63.3808 76.5411 58.1866 66.4897 53.6101ZM83.9252 76.661C83.5602 82.2484 79.1241 85.8142 75.4741 87.8075C75.1372 88.0041 74.8002 88.1726 74.4634 88.3411C75.7268 86.7126 76.4849 84.7753 76.5411 82.5573C76.7096 71.5511 67.1072 67.5924 57.8139 63.7738C47.987 59.7309 38.6936 55.8844 38.8621 44.4572C38.9183 39.9929 41.5856 35.8095 46.3306 32.6648C47.0324 32.1875 47.7905 31.7664 48.5766 31.3453C47.4817 32.9176 46.8358 34.6865 46.7236 36.5957C45.9655 47.6018 55.7643 52.0658 65.2542 56.3616C75.2494 60.9662 84.7114 65.29 83.9252 76.661Z" fill="white"/>
</svg>
