<svg width="121" height="120" viewBox="0 0 121 120" fill="none" xmlns="http://www.w3.org/2000/svg">
<path d="M60.25 120C93.3871 120 120.25 93.1371 120.25 60C120.25 26.8629 93.3871 0 60.25 0C27.1129 0 0.25 26.8629 0.25 60C0.25 93.1371 27.1129 120 60.25 120Z" fill="#2E3148"/>
<path d="M60.2508 94.8139C79.4785 94.8139 95.0657 79.2268 95.0657 59.9991C95.0657 40.7714 79.4785 25.1843 60.2508 25.1843C41.0232 25.1843 25.436 40.7714 25.436 59.9991C25.436 79.2268 41.0232 94.8139 60.2508 94.8139Z" fill="#1B1E36"/>
<path d="M60.3737 7.65308C53.8971 7.65308 48.6453 31.1444 48.6453 60.1222C48.6453 89.1 53.8971 112.591 60.3737 112.591C66.8502 112.591 72.1021 89.1 72.1021 60.1222C72.1021 31.1444 66.8502 7.65308 60.3737 7.65308ZM61.1835 109.628C60.4428 110.616 59.7021 109.875 59.7021 109.875C56.7193 106.419 55.228 99.9988 55.228 99.9988C50.0107 83.2086 51.2527 47.1593 51.2527 47.1593C53.7045 18.5395 58.1663 11.779 59.6823 10.2778C59.8376 10.1249 60.0418 10.0316 60.259 10.0145C60.4763 9.99732 60.6926 10.0573 60.87 10.1839C63.0724 11.7444 64.9193 18.2704 64.9193 18.2704C70.3737 38.5173 69.8798 57.5296 69.8798 57.5296C70.3737 74.0728 67.1465 92.5914 67.1465 92.5914C64.6625 106.665 61.1835 109.628 61.1835 109.628Z" fill="#6F7390"/>
<path d="M105.884 34.0137C102.66 28.394 79.6721 35.5298 54.5264 49.952C29.3808 64.3742 11.64 80.6187 14.8622 86.236C18.0845 91.8532 41.0746 84.7199 66.2203 70.2977C91.3659 55.8755 109.107 39.631 105.884 34.0137ZM17.8351 85.4631C16.6005 85.3076 16.8795 84.2927 16.8795 84.2927C18.3931 79.9866 23.2129 75.4977 23.2129 75.4977C35.1857 62.6162 67.0746 45.7545 67.0746 45.7545C93.1166 33.6384 101.205 34.1495 103.257 34.7125C103.468 34.7709 103.652 34.9021 103.775 35.0829C103.899 35.2637 103.954 35.4824 103.931 35.7001C103.684 38.3866 98.9314 43.236 98.9314 43.236C84.0919 58.0508 67.3536 67.0853 67.3536 67.0853C53.2499 75.7495 35.5808 82.1619 35.5808 82.1619C22.1363 87.0063 17.8351 85.4631 17.8351 85.4631Z" fill="#6F7390"/>
<path d="M105.772 86.4184C109.021 80.8135 91.3271 64.4925 66.2654 49.9641C41.2036 35.4357 18.2234 28.211 14.9765 33.8258C11.7296 39.4406 29.4209 55.7518 54.495 70.2801C79.5691 84.8085 102.525 92.0332 105.772 86.4184ZM17.1296 35.9913C16.6481 34.853 17.6629 34.5789 17.6629 34.5789C22.1493 33.732 28.4506 35.6604 28.4506 35.6604C45.5938 39.5641 76.1617 58.7122 76.1617 58.7122C99.6975 75.1814 103.307 82.4357 103.848 84.495C103.903 84.7062 103.882 84.93 103.788 85.1269C103.694 85.3239 103.533 85.4814 103.335 85.5715C100.88 86.695 94.3073 85.0209 94.3073 85.0209C74.0481 79.5888 57.8456 69.6357 57.8456 69.6357C43.2876 61.7838 28.8925 49.7024 28.8925 49.7024C17.9543 40.4925 17.1345 36.0011 17.1345 36.0011L17.1296 35.9913Z" fill="#6F7390"/>
<path d="M60.251 66.1738C63.6601 66.1738 66.4238 63.4101 66.4238 60.001C66.4238 56.5918 63.6601 53.8281 60.251 53.8281C56.8418 53.8281 54.0781 56.5918 54.0781 60.001C54.0781 63.4101 56.8418 66.1738 60.251 66.1738Z" fill="#B7B9C8"/>
<path d="M85.5583 39.998C87.5356 39.998 89.1385 38.3398 89.1385 36.2943C89.1385 34.2488 87.5356 32.5906 85.5583 32.5906C83.581 32.5906 81.978 34.2488 81.978 36.2943C81.978 38.3398 83.581 39.998 85.5583 39.998Z" fill="#B7B9C8"/>
<path d="M26.7926 52.5917C28.77 52.5917 30.3729 50.9335 30.3729 48.888C30.3729 46.8425 28.77 45.1843 26.7926 45.1843C24.8153 45.1843 23.2124 46.8425 23.2124 48.888C23.2124 50.9335 24.8153 52.5917 26.7926 52.5917Z" fill="#B7B9C8"/>
<path d="M52.9662 98.0231C54.9435 98.0231 56.5465 96.3649 56.5465 94.3194C56.5465 92.2739 54.9435 90.6157 52.9662 90.6157C50.9889 90.6157 49.386 92.2739 49.386 94.3194C49.386 96.3649 50.9889 98.0231 52.9662 98.0231Z" fill="#B7B9C8"/>
</svg>
