<svg width="121" height="120" viewBox="0 0 121 120" fill="none" xmlns="http://www.w3.org/2000/svg">
<rect x="0.949707" width="120.004" height="120" rx="59.9999" fill="white"/>
<path d="M60.9505 0C27.8183 0 0.949707 26.8681 0.949707 60.0013C0.949707 66.6235 2.02318 72.9935 4.00511 78.9534H21.9503V28.4694L60.9514 67.4705L99.9516 28.4694V78.9529H117.897C119.88 72.993 120.954 66.623 120.954 60.0008C120.953 26.8667 94.0841 0 60.9505 0Z" fill="#FF6600"/>
<path d="M51.9833 76.4358L34.9625 59.4145V91.1803H9.68018C20.2133 108.46 39.2362 120 60.9502 120C82.6643 120 101.689 108.46 112.221 91.1803H86.939V59.4141L69.9182 76.4349L60.9507 85.4018L51.9842 76.4353H51.9833V76.4358Z" fill="#4C4C4C"/>
</svg>
