<svg width="110" height="605" viewBox="0 0 110 605" fill="none" xmlns="http://www.w3.org/2000/svg">
<path d="M22.781 552.344C33.3959 556.479 43.6035 562.093 54.8508 563.897C71.2751 566.535 88.6805 560.823 104.453 566.102C105.643 566.502 106.908 567.038 107.52 568.137C109.357 571.435 104.011 573.893 100.232 573.953C69.1719 574.571 38.2311 577.995 7.78714 584.182C3.05953 585.145 -1.70467 586.189 -6.06508 588.255C-12.7002 591.394 -18.0842 596.745 -24.7754 599.745C-28.7428 601.495 -33.0385 602.375 -37.3742 602.329C-41.7099 602.282 -45.9855 601.308 -49.9142 599.474C-54.1473 593.189 -51.42 584.164 -45.8885 578.986C-40.3569 573.807 -32.7877 571.536 -25.5091 569.427C-19.6316 567.725 -13.755 566.022 -7.87934 564.318C-6.80781 564.007 -5.65746 563.642 -4.99137 562.749C0.00591082 556.024 -15.5562 555.12 -5.54106 548.311C0.865123 543.955 16.5805 549.914 22.7663 552.324" fill="#5F5F6B"/>
<path d="M38.7232 475.683C33.8697 471.54 28.6808 468.062 23.5507 464.301C17.9944 460.238 14.134 454.429 10.6235 448.656C4.54104 438.639 -0.470506 427.826 -6.72793 417.79C-15.9569 402.99 -21.4763 389.041 -22.0893 371.546C-22.5962 356.989 -31.0663 344.711 -40.6576 334.356C-45.194 329.46 -47.1384 322.948 -49.592 316.949C-52.8546 308.98 -56.4292 300.972 -59.2183 292.802C-62.3794 283.538 -67.5745 268.869 -64.4355 259.184C-63.8752 257.455 -62.6723 256.479 -60.942 257.39C-59.9989 257.903 -59.1261 258.536 -58.3455 259.273C-54.2451 271.025 -49.0978 282.515 -43.9857 293.853C-42.5815 296.97 -41.1364 300.142 -39.014 302.794L-38.8221 303.295C-38.7633 303.276 -38.7044 303.259 -38.6456 303.24C-38.3849 303.547 -38.1137 303.848 -37.832 304.141C-34.9596 307.101 -31.1559 308.929 -27.6799 311.153C-23.5867 313.784 -19.9064 317.007 -16.759 320.718C-18.0875 328.401 -19.2003 335.629 -17.5147 343.128C-15.9061 350.293 -11.2832 354.342 -6.23288 359.763C1.0518 367.584 7.7858 376.531 13.5368 385.4C18.59 393.186 20.5665 402.886 23.067 411.89C26.0107 422.467 29.3606 432.594 33.8068 442.623C37.982 452.04 42.8242 460.583 48.5389 469.17C52.4428 475.031 60.3281 487.15 59.0275 489.074C57.7269 490.999 42.717 479.081 38.7171 475.669" fill="#EA7534"/>
<path d="M-48.3864 182.181L-63.4006 114.301C-64.5327 109.194 -65.716 103.936 -68.5759 99.541C-71.1727 95.5533 -75.0277 92.4712 -77.4084 88.35C-80.0133 83.838 -80.639 78.4811 -81.0089 73.285C-82.3393 54.9299 -81.3569 36.4803 -78.0848 18.3703C-77.2732 13.8825 -75.3595 8.46741 -70.8406 7.88518C-65.887 7.24235 -62.6728 12.9654 -61.5155 17.8243C-57.1456 36.194 -61.0335 55.7746 -56.629 74.1289C-53.1628 88.5455 -44.8233 101.293 -40.0232 115.32C-35.5179 128.483 -34.2214 142.482 -32.9564 156.347L-29.2158 197.358C-28.6423 203.651 -28.0509 210.026 -25.8679 215.947C-23.0352 223.647 -17.7103 230.118 -12.9015 236.756C-2.19295 251.563 6.29155 267.857 12.2825 285.121C-2.09768 280.004 -13.6447 267.537 -17.6277 252.804C-21.7202 237.689 -28.2374 233.869 -35.6536 221.359C-42.6258 209.599 -45.4716 195.348 -48.3872 182.165" fill="#FFD72E"/>
<path d="M29.0602 376.275C20.6889 370.153 16.5758 359.468 8.17895 353.377C5.27454 351.271 1.92577 349.772 -0.725494 347.356C-5.4343 343.067 -7.28205 336.586 -10.0881 330.869C-14.0579 322.818 -20.1453 316.001 -27.6967 311.148C-31.17 308.925 -34.9764 307.096 -37.8489 304.137C-40.6466 301.256 -42.3524 297.513 -44.0024 293.852C-54.3253 270.953 -64.8108 247.435 -66.4688 222.369C-67.2747 210.175 -65.9619 197.887 -67.3981 185.758C-70.2405 161.762 -83.4694 140.504 -94.2486 118.875C-105.028 97.2455 -113.32 68.2624 -106.691 49.2467C-101.995 44.3156 -102.329 72.0461 -92.7538 78.8807C-87.6714 82.5084 -82.032 85.6014 -76.9005 89.1804C-74.5056 92.8929 -71.0013 95.8193 -68.5847 99.5307C-65.7248 103.926 -64.5503 109.17 -63.4093 114.291L-48.3864 182.181C-45.4714 195.354 -42.614 209.617 -35.6528 221.376C-28.2339 233.885 -21.7194 237.705 -17.6269 252.821C-13.6331 267.553 -2.09674 280.023 12.2833 285.137C12.0244 284.392 11.7547 283.648 11.4851 282.906C17.1414 292.361 23.0615 301.658 29.1281 310.844C32.8218 316.428 36.6278 322.079 38.5454 328.492C39.6246 332.107 40.0794 335.899 41.3617 339.446C45.0533 349.658 42.2881 352.966 41.9473 352.739C40.2605 351.671 39.335 352.543 39.3929 354.658C39.6535 364.042 45.9843 372.975 54.7532 376.327C58.4594 377.745 62.537 378.249 65.9586 380.261C69.3802 382.272 71.9849 386.624 70.2391 390.189C57.9178 382.352 40.8447 384.877 29.0592 376.256" fill="#E5C7A3"/>
<path d="M7.00467 483.822C-0.742684 468.7 -14.1163 455.67 -29.3614 443.935C-32.1284 441.806 -34.5664 440.67 -36.6852 440.345C-39.8078 430.992 -43.779 421.944 -48.5492 413.315C-51.3544 408.242 -54.4724 403.221 -55.8088 397.583C-57.7848 389.256 -55.6692 380.548 -53.1535 372.372C-52.7 370.891 -52.1854 369.331 -51.0371 368.298C-49.4034 366.818 -46.9293 366.761 -44.7607 367.157C-31.8779 369.51 -24.8431 383.527 -21.8329 396.279C-18.6625 409.71 -17.6584 423.838 -11.8701 436.364C-10.1004 440.186 -7.9094 443.794 -5.72422 447.396C1.72842 459.664 9.21085 471.983 18.3107 483.087C25.3265 491.647 33.7963 500.877 32.9161 511.911C32.2981 511.914 31.6832 511.889 31.0714 511.835C22.8657 505.656 13.8031 497.109 6.99382 483.823" fill="#4195C4"/>
<path d="M7.005 483.823C24.8197 518.591 58.0125 520.908 51.3352 533.254C46.2647 542.713 8.66016 517.808 -1.05393 515.997C-20.2728 512.428 -46.4157 537.588 -52.4402 515.204C-58.4648 492.82 -42.2726 488.147 -46.0961 469.354C-49.9196 450.562 -44.5981 432.202 -29.3611 443.936C-14.1241 455.671 -0.742351 468.701 7.005 483.823Z" fill="#D53A2C"/>
</svg>
