<svg width="161" height="271" viewBox="0 0 161 271" fill="none" xmlns="http://www.w3.org/2000/svg">
<path d="M86.5491 82.168C86.0554 76.6116 91.7423 66.9518 100.079 56.1975C100.294 53.7011 100.545 51.2093 100.932 48.7454C101.942 42.2248 123.018 7.00905 107.555 4.75945C96.1529 3.09671 84.0806 10.3159 80.1497 21.1448C78.445 25.8396 78.1655 30.9256 76.717 35.7183C71.794 51.9871 55.1153 61.0414 41.8506 71.6699C19.5432 89.6928 4.70262 115.34 0.193368 143.662C-0.0907428 145.487 -0.239734 147.611 1.05972 148.925C1.86082 149.73 3.02982 150.024 4.15229 150.238C17.9526 152.87 32.3538 148.259 44.1234 140.578C55.8931 132.898 65.4504 122.344 74.7842 111.841C81.3466 104.454 88.0069 96.7741 92.6784 88.1576C89.1201 87.5941 86.8705 85.8009 86.5491 82.1774" fill="#5F5F6B"/>
<path d="M161 0.0590007C159.463 -0.229768 157.274 0.548021 154.41 2.24803C140.777 10.3335 85.054 65.2554 86.5491 82.167C88.2071 100.918 141.359 70.7932 161 74.0955V0.0590007Z" fill="#FFD72E"/>
<path d="M161 142.119C140.041 156.371 113.666 166.73 101.794 187.363C92.3992 208.727 92.865 231.586 107.303 247.85C121.742 264.114 134.662 270.444 160.996 270.542L161 142.119Z" fill="#EA7534"/>
</svg>
