<svg width="20" height="21" viewBox="0 0 20 21" fill="none" xmlns="http://www.w3.org/2000/svg">
<path fill-rule="evenodd" clip-rule="evenodd" d="M10 0.501953C15.523 0.501953 20 4.97896 20 10.502C20 16.0249 15.523 20.502 10 20.502C4.47701 20.502 0 16.0249 0 10.502C0 4.97896 4.47701 0.501953 10 0.501953ZM5.04933 10.6318C4.68027 10.2235 4.7121 9.59313 5.11955 9.22488C5.52781 8.85582 6.15818 8.88766 6.52643 9.2951L9.01765 12.0476L14.4002 6.48783C14.7847 6.09264 15.4159 6.08365 15.8111 6.46823C16.2063 6.85282 16.2153 7.48399 15.8307 7.87919L9.70928 14.2023L9.70765 14.2007C9.69295 14.2154 9.67743 14.2309 9.66192 14.2448C9.25448 14.6139 8.62413 14.5829 8.25504 14.1746L5.04852 10.6326L5.04933 10.6318Z" fill="#8AD1F9"/>
</svg>
