<svg width="28" height="28" viewBox="0 0 28 28" fill="none" xmlns="http://www.w3.org/2000/svg">
<path fill-rule="evenodd" clip-rule="evenodd" d="M14 25.2C20.1856 25.2 25.2 20.1856 25.2 14C25.2 7.81446 20.1856 2.80005 14 2.80005C7.81446 2.80005 2.80005 7.81446 2.80005 14C2.80005 20.1856 7.81446 25.2 14 25.2ZM19.19 12.19C19.7367 11.6433 19.7367 10.7568 19.19 10.2101C18.6433 9.66336 17.7568 9.66336 17.2101 10.2101L12.6 14.8201L10.79 13.0101C10.2433 12.4634 9.35683 12.4634 8.8101 13.0101C8.26336 13.5568 8.26336 14.4433 8.8101 14.99L11.6101 17.79C12.1568 18.3367 13.0433 18.3367 13.59 17.79L19.19 12.19Z" fill="#01A3FE"/>
<path d="M19.19 12.19C19.7367 11.6433 19.7367 10.7568 19.19 10.2101C18.6433 9.66336 17.7568 9.66336 17.2101 10.2101L12.6 14.8201L10.79 13.0101C10.2433 12.4634 9.35683 12.4634 8.8101 13.0101C8.26336 13.5568 8.26336 14.4433 8.8101 14.99L11.6101 17.79C12.1568 18.3367 13.0433 18.3367 13.59 17.79L19.19 12.19Z" fill="white"/>
</svg>
