<svg width="2160" height="959" viewBox="0 0 2160 959" fill="none" xmlns="http://www.w3.org/2000/svg">
<path d="M678.66 193.601C603.501 118.443 503.786 77.1426 397.559 77.1426C178.409 77.1426 0 255.551 0 474.702C0 693.853 178.409 872.261 397.559 872.261C503.786 872.261 603.501 830.961 678.66 755.803C753.819 680.644 795.119 580.929 795.119 474.702C795.119 368.475 753.819 268.76 678.66 193.601ZM397.559 851.797C189.571 851.797 20.464 682.69 20.464 474.702C20.464 266.713 189.571 97.6066 397.559 97.6066C605.548 97.6066 774.655 266.713 774.655 474.702C774.655 682.69 605.548 851.797 397.559 851.797Z" fill="#151A20"/>
<path d="M437.925 432.845C376.347 404.754 323.141 380.569 327.047 321.782C328.722 298.713 345.279 284.947 358.86 277.505C375.789 268.203 398.485 263.366 418.205 264.669C470.667 268.203 511.967 290.342 552.151 336.293L567.592 322.898C524.06 273.04 476.993 248.111 419.507 244.205C415.043 243.833 410.578 243.833 405.927 244.019C404.997 244.019 404.066 244.019 403.322 244.019C365.557 244.019 324.443 256.297 292.817 277.133C255.61 301.69 234.773 335.362 234.215 372.012C232.727 461.681 306.956 492.191 372.44 519.166C432.716 544.095 484.992 565.489 483.876 624.463C483.318 664.275 428.623 685.669 390.114 685.669C389.556 685.669 389.183 685.669 388.625 685.669V685.855H388.439C331.512 685.111 280.91 661.298 237.936 615.161L222.867 629.114C269.19 678.971 326.303 705.761 388.253 706.505C389.184 706.505 390.114 706.505 391.044 706.505C431.042 706.505 474.202 695.901 507.316 677.669C547.872 655.531 571.499 623.347 573.917 587.256C580.057 497.586 504.526 463.169 437.925 432.845ZM553.453 585.581C551.035 622.602 521.641 646.229 497.457 659.438C495.224 660.74 492.992 661.856 490.759 662.972C499.131 652.182 504.154 639.346 504.526 624.649C505.642 551.723 442.018 525.491 380.44 500.191C315.327 473.401 253.749 447.914 254.865 372.198C255.237 342.618 272.911 314.898 304.351 294.062C309.002 290.9 314.025 288.109 319.234 285.319C311.979 295.737 307.7 307.457 306.956 320.108C301.933 393.034 366.859 422.613 429.739 451.077C495.968 481.587 558.662 510.237 553.453 585.581Z" fill="#151A20"/>
<path d="M1035.41 448.838C1021.83 448.838 1008.43 446.605 995.411 442.327C982.389 438.048 971.227 431.723 961.925 423.723L977.366 397.678C987.226 404.747 996.9 409.956 1006.39 413.677C1015.69 417.212 1025.18 419.072 1034.48 419.072C1042.66 419.072 1049.18 417.584 1054.01 414.421C1058.85 411.259 1061.08 406.98 1061.08 401.027C1061.08 395.259 1058.29 390.981 1052.71 388.376C1047.13 385.772 1038.01 382.609 1025.55 379.074C1014.95 376.098 1006.02 373.307 998.574 370.703C991.133 368.098 985.179 364.936 980.528 361.587C976.064 358.238 972.715 354.331 970.669 349.867C968.622 345.402 967.506 340.193 967.506 333.867C967.506 325.682 969.18 318.24 972.343 311.543C975.505 305.032 979.97 299.265 985.737 294.614C991.505 289.963 998.202 286.428 1006.02 284.01C1013.83 281.591 1022.2 280.289 1031.32 280.289C1043.41 280.289 1054.94 281.963 1065.55 285.498C1076.15 289.033 1086.01 294.614 1094.75 302.613L1078.01 327.728C1069.83 321.589 1061.83 316.938 1054.01 314.148C1046.2 311.171 1038.57 309.869 1030.94 309.869C1023.87 309.869 1018.11 311.357 1013.27 314.148C1008.43 317.124 1006.2 321.775 1006.2 328.1C1006.2 331.077 1006.76 333.309 1007.88 335.17C1008.99 337.03 1010.85 338.704 1013.27 340.193C1015.69 341.681 1019.04 342.983 1022.94 344.286C1027.04 345.588 1032.06 347.076 1038.01 348.378C1049.18 351.355 1058.66 354.145 1066.66 357.122C1074.66 360.099 1081.17 363.261 1086.2 366.982C1091.22 370.703 1094.94 374.981 1097.36 379.818C1099.78 384.655 1100.89 390.423 1100.89 397.306C1100.89 413.119 1094.94 425.769 1083.22 434.885C1071.69 444.373 1055.69 448.838 1035.41 448.838Z" fill="#151A20"/>
<path d="M1301.44 375.543H1171.77C1174 387.636 1179.96 397.31 1189.63 404.565C1199.3 411.635 1211.21 415.169 1225.35 415.169C1243.58 415.169 1258.46 409.216 1270.18 397.124L1290.83 420.936C1283.39 429.866 1274.09 436.563 1262.74 441.028C1251.39 445.493 1238.56 447.912 1224.42 447.912C1206.19 447.912 1190.19 444.377 1176.42 437.121C1162.65 429.866 1151.86 419.82 1144.42 406.984C1136.79 394.147 1133.07 379.45 1133.07 363.265C1133.07 347.08 1136.79 332.755 1144.05 319.733C1151.31 306.896 1161.54 296.85 1174.56 289.595C1187.58 282.339 1202.28 278.805 1218.46 278.805C1234.65 278.805 1248.97 282.339 1261.63 289.409C1274.28 296.478 1284.14 306.524 1291.39 319.361C1298.46 332.197 1302 347.266 1302 364.009C1302 366.8 1301.81 370.52 1301.44 375.543ZM1187.02 320.663C1178.47 327.918 1173.26 337.778 1171.4 349.871H1265.16C1263.49 337.964 1258.46 328.29 1249.9 320.849C1241.35 313.407 1230.93 309.687 1218.28 309.687C1206 309.501 1195.58 313.221 1187.02 320.663Z" fill="#151A20"/>
<path d="M1381.06 437.121C1367.48 429.866 1356.88 419.82 1349.25 406.984C1341.62 394.147 1337.72 379.45 1337.72 363.265C1337.72 346.894 1341.62 332.383 1349.25 319.547C1356.88 306.71 1367.48 296.664 1381.06 289.595C1394.64 282.339 1410.08 278.805 1427.39 278.805C1443.76 278.805 1457.9 282.153 1470.17 288.665C1482.45 295.362 1491.75 304.85 1497.89 317.128L1468.13 334.43C1463.29 326.802 1457.52 321.035 1450.27 317.314C1443.2 313.407 1435.38 311.547 1426.83 311.547C1412.32 311.547 1400.41 316.198 1390.92 325.686C1381.43 334.988 1376.6 347.638 1376.6 363.265C1376.6 378.892 1381.25 391.543 1390.74 400.844C1400.04 410.332 1412.13 414.983 1426.83 414.983C1435.2 414.983 1443.01 413.123 1450.27 409.216C1457.34 405.309 1463.29 399.728 1468.13 392.101L1497.89 409.402C1491.57 421.867 1482.08 431.354 1469.8 438.052C1457.52 444.749 1443.38 448.098 1427.2 448.098C1409.9 447.912 1394.64 444.377 1381.06 437.121Z" fill="#151A20"/>
<path d="M1638.91 278.619V315.454C1635.56 314.896 1632.59 314.524 1629.98 314.524C1614.91 314.524 1603.19 318.989 1594.64 327.733C1586.08 336.476 1581.99 349.127 1581.99 365.684V445.866H1543.29V280.48H1580.13V304.664C1591.29 287.363 1610.82 278.619 1638.91 278.619Z" fill="#151A20"/>
<path d="M1834.62 375.543H1704.95C1707.19 387.636 1713.14 397.31 1722.81 404.565C1732.49 411.635 1744.39 415.169 1758.53 415.169C1776.76 415.169 1791.65 409.216 1803.37 397.124L1824.02 420.936C1816.58 429.866 1807.27 436.563 1795.93 441.028C1784.58 445.493 1771.74 447.912 1757.6 447.912C1739.37 447.912 1723.37 444.377 1709.61 437.121C1695.84 429.866 1685.05 419.82 1677.61 406.984C1669.98 394.147 1666.26 379.45 1666.26 363.265C1666.26 347.08 1669.98 332.755 1677.23 319.733C1684.49 306.896 1694.72 296.85 1707.74 289.595C1720.77 282.339 1735.46 278.805 1751.65 278.805C1767.83 278.805 1782.16 282.339 1794.81 289.409C1807.46 296.478 1817.32 306.524 1824.58 319.361C1831.65 332.197 1835.18 347.266 1835.18 364.009C1835.37 366.8 1835.18 370.52 1834.62 375.543ZM1720.4 320.663C1711.84 327.918 1706.63 337.778 1704.77 349.871H1798.53C1796.86 337.964 1791.83 328.29 1783.28 320.849C1774.72 313.407 1764.3 309.687 1751.65 309.687C1739.37 309.501 1728.95 313.221 1720.4 320.663Z" fill="#151A20"/>
<path d="M1984.01 436.749C1979.54 440.47 1973.96 443.26 1967.45 445.121C1960.94 446.981 1954.05 447.911 1946.8 447.911C1928.57 447.911 1914.61 443.074 1904.75 433.587C1894.89 424.099 1889.87 410.332 1889.87 392.1V312.477H1862.71V281.781H1889.87V244.016H1928.57V281.781H1972.84V312.663H1928.57V391.356C1928.57 399.356 1930.61 405.495 1934.52 409.774C1938.43 414.053 1944.19 416.099 1951.64 416.099C1960.38 416.099 1967.45 413.867 1973.22 409.216L1984.01 436.749Z" fill="#151A20"/>
<path d="M1098.48 556.932C1110.57 568.838 1116.52 586.139 1116.52 608.836V703.342H1094.57V611.068C1094.57 594.139 1090.29 581.303 1081.92 572.373C1073.36 563.443 1061.46 558.978 1045.64 558.978C1028.16 558.978 1014.2 564.187 1003.97 574.605C993.74 585.023 988.717 599.348 988.717 617.766V703.156H966.765V540.375H987.787V570.326C993.74 560.466 1002.11 552.653 1012.72 547.258C1023.32 541.863 1035.6 539.072 1049.74 539.072C1070.2 539.072 1086.39 545.025 1098.48 556.932Z" fill="#151A20"/>
<path d="M1316.33 628.556H1180.15C1181.45 645.485 1187.96 659.066 1199.68 669.484C1211.41 679.902 1226.29 685.111 1244.33 685.111C1254.38 685.111 1263.68 683.25 1272.24 679.716C1280.61 676.181 1288.05 670.786 1294.19 663.716L1306.66 678.041C1299.4 686.785 1290.47 693.296 1279.49 697.947C1268.7 702.412 1256.8 704.83 1243.78 704.83C1227.03 704.83 1212.34 701.296 1199.31 694.226C1186.48 687.157 1176.43 677.297 1169.17 664.647C1161.92 651.996 1158.38 637.857 1158.38 621.858C1158.38 606.045 1161.92 591.72 1168.8 579.07C1175.69 566.42 1185.17 556.746 1197.27 549.676C1209.36 542.607 1222.94 539.072 1238.01 539.072C1253.08 539.072 1266.66 542.607 1278.56 549.676C1290.47 556.746 1299.96 566.42 1306.66 578.884C1313.54 591.348 1316.89 605.673 1316.89 621.672L1316.33 628.556ZM1198.2 573.117C1187.59 583.163 1181.45 596.185 1180.15 612.371H1295.68C1294.19 596.185 1288.24 583.163 1277.63 573.117C1267.03 563.071 1253.82 558.048 1237.82 558.048C1222.01 558.048 1208.8 563.071 1198.2 573.117Z" fill="#151A20"/>
<path d="M1440.04 693.3C1435.94 697.021 1430.74 699.812 1424.78 701.858C1418.64 703.904 1412.32 704.835 1405.81 704.835C1390.55 704.835 1378.83 700.742 1370.46 692.37C1362.27 684.185 1358 672.464 1358 657.395V558.982H1328.97V540.379H1358V504.846H1379.95V540.379H1429.43V558.982H1379.95V656.279C1379.95 665.953 1382.37 673.394 1387.2 678.417C1392.04 683.44 1399.11 686.045 1408.04 686.045C1412.5 686.045 1416.97 685.301 1421.25 683.812C1425.53 682.324 1429.06 680.278 1432.22 677.673L1440.04 693.3Z" fill="#151A20"/>
<path d="M1668.87 541.676H1695.1L1626.45 703.341H1603.94L1571.39 624.462L1539.2 703.341H1516.69L1448.04 541.676H1474.09L1529.9 676.366L1557.06 609.207L1529.16 542.048H1551.67L1571.57 593.766L1591.48 542.048H1613.99L1586.27 609.207L1613.43 676.366L1668.87 541.676Z" fill="#151A20"/>
<path d="M1783.28 706.32C1771.56 706.32 1760.77 704.088 1751.09 699.623C1741.42 695.158 1733.05 689.205 1725.79 681.577C1718.72 673.95 1713.14 665.02 1709.23 654.974C1705.33 644.928 1703.28 634.324 1703.28 623.162C1703.28 611.814 1705.33 601.024 1709.23 590.978C1713.33 580.932 1718.91 572.002 1725.98 564.375C1733.05 556.747 1741.42 550.608 1751.28 546.143C1760.95 541.678 1771.56 539.26 1783.09 539.26C1794.62 539.26 1805.41 541.492 1815.09 546.143C1824.95 550.608 1833.32 556.747 1840.39 564.375C1847.46 572.002 1853.04 580.932 1857.13 590.978C1861.22 601.024 1863.09 611.814 1863.09 623.162C1863.09 634.324 1861.04 644.928 1857.13 654.974C1853.23 665.02 1847.64 673.95 1840.57 681.577C1833.51 689.205 1824.95 695.344 1815.27 699.623C1805.79 704.088 1795 706.32 1783.28 706.32ZM1724.67 623.348C1724.67 632.464 1726.16 640.836 1729.33 648.649C1732.49 656.463 1736.58 663.16 1741.79 669.113C1747 675.066 1753.32 679.531 1760.39 682.88C1767.46 686.228 1775.09 687.903 1783.09 687.903C1791.09 687.903 1798.72 686.228 1805.79 682.88C1812.86 679.531 1819.18 674.88 1824.58 668.927C1829.97 662.974 1834.25 656.277 1837.23 648.277C1840.39 640.463 1841.88 631.906 1841.88 622.976C1841.88 614.046 1840.39 605.675 1837.23 597.675C1834.06 589.676 1829.97 582.792 1824.58 576.839C1819.18 570.886 1813.04 566.235 1805.79 562.886C1798.72 559.538 1791.09 557.863 1783.09 557.863C1775.09 557.863 1767.46 559.538 1760.58 562.886C1753.51 566.235 1747.37 571.072 1741.98 577.025C1736.58 582.978 1732.3 590.048 1729.33 597.861C1726.35 605.861 1724.67 614.232 1724.67 623.348Z" fill="#151A20"/>
<path d="M1979.17 560.465C1964.85 560.837 1952.57 564.744 1941.97 572.186C1931.36 579.627 1923.92 589.859 1919.64 602.882V703.155H1898.62V541.862H1918.53V580.557C1924.48 568.093 1932.48 558.419 1942.71 551.536C1952.76 544.466 1963.73 540.932 1975.27 540.932C1976.94 540.932 1978.24 541.118 1979.36 541.304V560.465H1979.17Z" fill="#151A20"/>
<path d="M2137.12 703.156L2077.59 620.556L2042.98 652.741V703.156H2021.96V477.309H2042.98V630.788L2133.58 542.235H2157.4L2091.54 608.092L2160 703.156H2137.12Z" fill="#151A20"/>
</svg>
