<svg width="792" height="1310" viewBox="0 0 792 1310" fill="none" xmlns="http://www.w3.org/2000/svg">
<g clip-path="url(#clip0)">
<g clip-path="url(#clip1)">
<path d="M675.995 116.01C601.132 41.141 501.808 0 395.998 0C177.708 0 0 177.722 0 396.028C0 614.335 177.708 792.057 395.998 792.057C501.808 792.057 601.132 750.916 675.995 676.046C750.858 601.177 791.996 501.846 791.996 396.028C791.996 290.211 750.858 190.879 675.995 116.01ZM395.998 771.672C188.826 771.672 20.3836 603.216 20.3836 396.028C20.3836 188.841 188.826 20.3852 395.998 20.3852C603.17 20.3852 771.613 188.841 771.613 396.028C771.613 603.216 603.17 771.672 395.998 771.672Z" fill="white"/>
<path d="M436.21 354.331C374.874 326.347 321.877 302.256 325.768 243.695C327.436 220.715 343.928 207.001 357.456 199.589C374.318 190.323 396.926 185.504 416.568 186.802C468.824 190.323 509.962 212.376 549.988 258.15L565.369 244.807C522.007 195.141 475.125 170.308 417.865 166.416C413.418 166.046 408.971 166.046 404.338 166.231C403.411 166.231 402.485 166.231 401.744 166.231C364.127 166.231 323.174 178.462 291.672 199.218C254.611 223.68 233.857 257.223 233.301 293.731C231.818 383.055 305.755 413.448 370.983 440.319C431.022 465.152 483.093 486.464 481.981 545.21C481.425 584.869 426.945 606.18 388.587 606.18C388.031 606.18 387.66 606.18 387.104 606.18V606.366H386.919C330.216 605.624 279.812 581.903 237.007 535.944L221.997 549.843C268.138 599.509 325.027 626.195 386.734 626.936C387.66 626.936 388.587 626.936 389.513 626.936C429.354 626.936 472.345 616.373 505.33 598.212C545.726 576.159 569.26 544.098 571.669 508.146C577.784 418.822 502.55 384.538 436.21 354.331ZM551.285 506.478C548.876 543.357 519.598 566.893 495.508 580.05C493.285 581.347 491.061 582.459 488.837 583.571C497.176 572.823 502.179 560.036 502.55 545.395C503.662 472.75 440.287 446.62 378.951 421.416C314.094 394.73 252.758 369.342 253.87 293.916C254.24 264.451 271.844 236.838 303.161 216.082C307.794 212.932 312.797 210.152 317.985 207.372C310.759 217.75 306.496 229.425 305.755 242.027C300.752 314.672 365.424 344.138 428.057 372.492C494.026 402.884 556.474 431.424 551.285 506.478Z" fill="white"/>
</g>
<g clip-path="url(#clip2)">
<path d="M105.624 1138.97C96.5441 1138.97 87.8347 1137.49 79.1254 1134.71C70.416 1131.75 63.1891 1127.67 56.8887 1122.3L67.0805 1105.06C73.5662 1109.69 80.0519 1113.21 86.3523 1115.62C92.6527 1118.03 98.7678 1119.15 104.883 1119.15C110.442 1119.15 114.704 1118.03 117.854 1115.99C121.004 1113.96 122.487 1110.99 122.487 1107.1C122.487 1103.21 120.634 1100.43 116.928 1098.76C113.222 1096.91 107.292 1094.87 98.7678 1092.64C91.7261 1090.79 85.7964 1088.94 80.9784 1087.08C75.9752 1085.23 72.0837 1083.19 69.1188 1080.97C66.154 1078.75 63.9303 1076.15 62.6331 1073.19C61.336 1070.22 60.5948 1066.7 60.5948 1062.62C60.5948 1057.06 61.7066 1052.24 63.745 1047.8C65.7833 1043.35 68.9335 1039.64 72.6397 1036.68C76.5311 1033.53 80.9784 1031.3 86.167 1029.64C91.3555 1027.97 96.9147 1027.23 102.844 1027.23C110.998 1027.23 118.41 1028.34 125.637 1030.75C132.679 1033.16 139.164 1036.86 145.094 1042.05L133.976 1058.73C128.417 1054.65 123.228 1051.69 118.04 1049.65C112.851 1047.8 107.848 1046.69 102.659 1046.69C98.0265 1046.69 94.1351 1047.61 90.9849 1049.65C87.8347 1051.5 86.3523 1054.65 86.3523 1058.92C86.3523 1060.77 86.7229 1062.44 87.4641 1063.55C88.2053 1064.85 89.5025 1065.96 90.9849 1066.89C92.6527 1067.81 94.8763 1068.74 97.4706 1069.66C100.065 1070.59 103.4 1071.52 107.477 1072.44C114.889 1074.3 121.19 1076.34 126.564 1078.19C131.752 1080.04 136.2 1082.27 139.535 1084.68C142.871 1087.08 145.279 1090.05 146.947 1093.2C148.43 1096.35 149.356 1100.24 149.356 1104.88C149.356 1115.44 145.465 1123.78 137.682 1129.89C129.529 1136.01 118.966 1138.97 105.624 1138.97Z" fill="white"/>
<path d="M282.035 1090.42H195.868C197.351 1098.58 201.242 1104.88 207.728 1109.69C214.028 1114.51 221.996 1116.74 231.447 1116.74C243.492 1116.74 253.498 1112.84 261.281 1104.88L274.994 1120.63C269.99 1126.56 263.875 1131.01 256.278 1133.97C248.68 1136.94 240.341 1138.42 230.891 1138.42C218.846 1138.42 208.284 1136.01 199.018 1131.19C189.753 1126.37 182.711 1119.7 177.708 1111.18C172.705 1102.65 170.296 1093.02 170.296 1082.08C170.296 1071.33 172.705 1061.7 177.523 1053.17C182.341 1044.65 189.197 1037.98 197.721 1033.16C206.43 1028.34 216.066 1025.93 226.814 1025.93C237.562 1025.93 247.012 1028.34 255.536 1032.97C263.875 1037.79 270.546 1044.28 275.179 1052.99C279.812 1061.51 282.221 1071.52 282.221 1082.64C282.406 1084.49 282.406 1087.09 282.035 1090.42ZM206.06 1053.91C200.315 1058.73 196.98 1065.22 195.683 1073.37H257.945C256.834 1065.4 253.498 1058.92 247.939 1054.1C242.38 1049.09 235.338 1046.69 226.999 1046.69C218.846 1046.5 211.804 1049.09 206.06 1053.91Z" fill="white"/>
<path d="M334.847 1131.19C325.767 1126.37 318.726 1119.7 313.723 1111.18C308.719 1102.65 306.125 1093.02 306.125 1082.08C306.125 1071.33 308.719 1061.7 313.723 1053.17C318.726 1044.65 325.767 1037.98 334.847 1033.16C343.742 1028.34 354.119 1025.93 365.608 1025.93C376.356 1025.93 385.992 1028.15 394.145 1032.42C402.299 1036.86 408.414 1043.16 412.49 1051.32L392.848 1062.81C389.698 1057.8 385.806 1053.91 380.988 1051.32C376.356 1048.72 371.167 1047.43 365.423 1047.43C355.787 1047.43 347.819 1050.58 341.518 1056.69C335.218 1062.99 332.068 1071.33 332.068 1081.71C332.068 1092.09 335.218 1100.43 341.333 1106.73C347.633 1113.03 355.602 1116 365.238 1116C370.797 1116 375.985 1114.7 380.803 1112.1C385.621 1109.51 389.513 1105.8 392.663 1100.61L412.305 1112.1C408.043 1120.26 401.928 1126.74 393.775 1131.19C385.621 1135.64 376.171 1137.86 365.608 1137.86C354.119 1138.42 343.927 1136.01 334.847 1131.19Z" fill="white"/>
<path d="M506.07 1026.11V1050.58C503.846 1050.2 501.808 1050.02 500.14 1050.02C490.134 1050.02 482.351 1052.98 476.792 1058.73C471.232 1064.47 468.453 1073 468.453 1083.93V1137.12H442.695V1027.41H466.97V1043.35C474.383 1031.86 487.354 1026.11 506.07 1026.11Z" fill="white"/>
<path d="M635.968 1090.42H549.801C551.283 1098.58 555.175 1104.88 561.66 1109.69C567.961 1114.51 575.929 1116.74 585.379 1116.74C597.424 1116.74 607.431 1112.84 615.214 1104.88L628.926 1120.63C623.923 1126.56 617.808 1131.01 610.21 1133.97C602.613 1136.94 594.274 1138.42 584.824 1138.42C572.779 1138.42 562.216 1136.01 552.951 1131.19C543.686 1126.37 536.644 1119.7 531.641 1111.18C526.637 1102.65 524.229 1093.02 524.229 1082.08C524.229 1071.33 526.637 1061.7 531.455 1053.17C536.273 1044.65 543.13 1037.98 551.654 1033.16C560.363 1028.34 569.999 1025.93 580.747 1025.93C591.495 1025.93 600.945 1028.34 609.469 1032.97C617.808 1037.79 624.479 1044.28 629.112 1052.99C633.744 1061.51 636.153 1071.52 636.153 1082.64C636.338 1084.49 636.339 1087.09 635.968 1090.42ZM559.993 1053.91C554.248 1058.73 550.913 1065.22 549.615 1073.37H611.878C610.766 1065.4 607.431 1058.92 601.872 1054.1C596.312 1049.09 589.271 1046.69 580.932 1046.69C572.779 1046.5 565.737 1049.09 559.993 1053.91Z" fill="white"/>
<path d="M735.107 1131.01C732.142 1133.41 728.436 1135.27 724.174 1136.56C719.912 1137.86 715.279 1138.42 710.461 1138.42C698.416 1138.42 689.151 1135.27 682.48 1128.97C675.994 1122.67 672.659 1113.4 672.659 1101.35V1048.54H654.499V1027.97H672.659V1002.95H698.416V1027.97H727.88V1048.54H698.416V1100.8C698.416 1106.17 699.714 1110.25 702.308 1113.03C704.902 1115.81 708.608 1117.29 713.612 1117.29C719.356 1117.29 724.174 1115.81 728.065 1112.84L735.107 1131.01Z" fill="white"/>
<path d="M87.4643 1210.69C95.4324 1218.66 99.5091 1229.97 99.5091 1245.16V1307.8H84.87V1246.65C84.87 1235.34 82.0904 1226.82 76.5312 1220.89C70.9721 1214.96 62.8186 1211.99 52.4415 1211.99C40.7672 1211.99 31.502 1215.51 24.831 1222.37C17.9746 1229.23 14.6391 1238.86 14.6391 1251.09V1307.8H0V1199.76H13.8979V1219.78C17.7893 1213.29 23.3485 1208.1 30.3901 1204.39C37.4317 1200.69 45.5852 1199.02 54.8505 1199.02C68.5631 1199.02 79.4961 1202.91 87.4643 1210.69Z" fill="white"/>
<path d="M232.002 1258.32H141.573C142.314 1269.63 146.762 1278.71 154.544 1285.56C162.327 1292.42 172.148 1295.94 184.193 1295.94C190.864 1295.94 196.979 1294.83 202.724 1292.42C208.283 1290.01 213.286 1286.49 217.363 1281.86L225.516 1291.31C220.699 1297.05 214.769 1301.5 207.542 1304.47C200.315 1307.43 192.532 1308.91 183.823 1308.91C172.704 1308.91 162.883 1306.5 154.359 1301.87C145.835 1297.05 139.164 1290.57 134.346 1282.23C129.528 1273.89 127.119 1264.44 127.119 1253.87C127.119 1243.31 129.343 1233.86 133.975 1225.52C138.608 1217.18 144.908 1210.69 152.877 1206.06C160.845 1201.43 169.925 1199.02 179.931 1199.02C189.938 1199.02 198.832 1201.43 206.801 1206.06C214.769 1210.69 221.069 1217.18 225.516 1225.52C229.964 1233.86 232.373 1243.31 232.373 1254.06L232.002 1258.32ZM153.618 1221.44C146.576 1228.11 142.5 1236.82 141.573 1247.39H218.29C217.363 1236.64 213.286 1228.11 206.245 1221.44C199.203 1214.77 190.308 1211.44 179.931 1211.44C169.369 1211.44 160.659 1214.77 153.618 1221.44Z" fill="white"/>
<path d="M314.094 1301.32C311.314 1303.73 307.979 1305.58 303.902 1306.88C299.825 1308.17 295.563 1308.92 291.301 1308.92C281.109 1308.92 273.326 1306.14 267.953 1300.76C262.393 1295.2 259.799 1287.6 259.799 1277.6V1212.18H240.527V1199.76H259.799V1176.23H274.438V1199.76H307.237V1212.18H274.253V1276.67C274.253 1283.16 275.921 1287.97 279.071 1291.31C282.221 1294.65 286.854 1296.31 292.969 1296.31C295.934 1296.31 298.899 1295.76 301.678 1294.83C304.458 1293.9 306.867 1292.42 308.905 1290.75L314.094 1301.32Z" fill="white"/>
<path d="M466.044 1200.5H483.463L437.878 1307.8H422.868L401.373 1255.36L379.877 1307.8H364.867L319.282 1200.5H336.516L373.577 1289.83L391.737 1245.16L373.206 1200.5H388.216L401.373 1234.79L414.529 1200.5H429.539L411.194 1245.16L429.354 1289.83L466.044 1200.5Z" fill="white"/>
<path d="M541.834 1309.84C534.051 1309.84 526.824 1308.36 520.523 1305.39C514.038 1302.43 508.479 1298.35 503.846 1293.35C499.213 1288.34 495.507 1282.41 492.913 1275.74C490.319 1269.07 489.021 1262.03 489.021 1254.62C489.021 1247.02 490.319 1239.98 493.098 1233.3C495.693 1226.63 499.399 1220.7 504.217 1215.7C508.849 1210.69 514.594 1206.62 520.894 1203.65C527.38 1200.69 534.421 1199.21 542.019 1199.21C549.616 1199.21 556.843 1200.69 563.329 1203.65C569.815 1206.62 575.374 1210.69 580.192 1215.7C585.01 1220.7 588.531 1226.63 591.31 1233.3C593.904 1239.98 595.387 1247.2 595.387 1254.62C595.387 1262.03 594.09 1269.07 591.496 1275.74C588.901 1282.41 585.195 1288.34 580.562 1293.35C575.93 1298.35 570.185 1302.43 563.7 1305.39C556.843 1308.36 549.616 1309.84 541.834 1309.84ZM503.105 1254.8C503.105 1260.92 504.217 1266.48 506.255 1271.48C508.293 1276.67 511.073 1281.12 514.594 1285.01C518.115 1288.9 522.191 1292.05 527.009 1294.09C531.827 1296.31 536.83 1297.42 542.019 1297.42C547.207 1297.42 552.396 1296.31 557.029 1294.09C561.661 1291.86 565.923 1288.71 569.444 1284.82C572.965 1280.93 575.745 1276.3 577.783 1271.11C579.821 1265.92 580.933 1260.36 580.933 1254.25C580.933 1248.31 579.821 1242.76 577.783 1237.57C575.745 1232.38 572.965 1227.74 569.444 1223.85C565.923 1219.96 561.661 1216.81 557.029 1214.59C552.211 1212.36 547.207 1211.25 542.019 1211.25C536.83 1211.25 531.642 1212.36 527.009 1214.59C522.376 1216.81 518.3 1219.96 514.594 1223.85C511.073 1227.74 508.293 1232.38 506.255 1237.75C504.031 1243.13 503.105 1248.87 503.105 1254.8Z" fill="white"/>
<path d="M671.919 1213.1C662.468 1213.29 654.315 1216.07 647.273 1220.89C640.232 1225.89 635.414 1232.56 632.449 1241.27V1307.8H618.551V1200.87H631.708V1226.63C635.599 1218.48 640.973 1211.99 647.644 1207.36C654.315 1202.73 661.542 1200.32 669.139 1200.32C670.251 1200.32 671.178 1200.32 671.734 1200.5V1213.1H671.919Z" fill="white"/>
<path d="M776.616 1307.8L737.146 1252.95L714.168 1274.26V1307.8H700.271V1157.88H714.168V1259.8L774.393 1201.06H790.144L746.412 1244.79L791.812 1307.8H776.616Z" fill="white"/>
</g>
</g>
<defs>
<clipPath id="clip0">
<rect width="791.996" height="1309.84" fill="white"/>
</clipPath>
<clipPath id="clip1">
<rect width="791.996" height="792.057" fill="white"/>
</clipPath>
<clipPath id="clip2">
<rect width="791.811" height="306.889" fill="white" transform="translate(0 1002.95)"/>
</clipPath>
</defs>
</svg>
