<svg width="101" height="100" viewBox="0 0 101 100" fill="none" xmlns="http://www.w3.org/2000/svg">
<path d="M96.3319 45.832C95.5623 36.8711 92.1405 28.34 86.4999 21.332C78.203 10.961 65.8119 4.69897 52.5429 4.16797H48.3749C36.9259 4.73438 26.0939 9.54687 17.9999 17.668C16.828 18.8321 15.7265 20.0742 14.7069 21.375C8.19906 29.5039 4.65186 39.605 4.65186 50.02C4.65186 60.434 8.19876 70.54 14.7069 78.668C22.9569 88.984 35.2619 95.242 48.4569 95.832H52.6249C65.8089 95.2226 78.0979 88.9843 86.3749 78.707C92.0663 71.7031 95.5351 63.156 96.3319 54.168V45.832ZM87.9999 45.832H71.3319C71.0858 42.1211 70.5858 38.4336 69.8319 34.793C74.1171 33.5938 78.2342 31.8594 82.0819 29.625C85.2381 34.5 87.1796 40.055 87.7499 45.832H87.9999ZM74.5429 79.164L74.3319 79.3749C73.3632 80.1562 72.3475 80.8827 71.2928 81.5429L70.3358 82.1249C70.3032 82.1448 70.2705 82.1647 70.2379 82.1846C69.5205 82.6219 68.8032 83.0592 68.0858 83.4179L66.8358 84.0429L64.6288 85L63.3358 85.5L61.7108 86H61.7069C64.121 82.0586 66.1053 77.8672 67.6249 73.5C70.8358 74.3906 73.9374 75.6328 76.8749 77.207L74.5429 79.164ZM37.9999 85.2929L36.6249 84.7929L34.4999 83.8358L33.1679 83.3319C32.4061 82.9569 31.6718 82.539 30.957 82.0819L29.914 81.4569H29.9179C28.871 80.7577 27.8671 79.9921 26.9179 79.1678L26.6249 78.9178C25.8319 78.2499 25.1249 77.5858 24.3749 76.8748C27.3788 75.285 30.5507 74.0428 33.8319 73.1678C35.3631 77.5272 37.3436 81.7186 39.7499 85.6678C38.9999 85.6249 38.4569 85.4999 37.9999 85.2929ZM26.7069 20.8319C27.6795 20.0506 28.6952 19.328 29.7499 18.6678L30.7069 18.0857C31.4569 17.6287 32.2069 17.1678 32.9569 16.7927L34.2069 16.1677L36.4139 15.2107L37.9998 14.7068L39.6248 14.2068C37.2459 18.1951 35.3045 22.4295 33.8318 26.8318C30.6209 25.9412 27.5193 24.699 24.5818 23.1248C25.1248 22.3748 25.9178 21.6679 26.7069 20.8319ZM64.4569 15.0389L66.5819 15.9959L67.8319 16.6209V16.6248C68.5936 16.9998 69.328 17.4178 70.0428 17.8748L71.0858 18.4998H71.0818C72.1248 19.16 73.1287 19.8826 74.0818 20.6678L74.3748 20.9178C75.1669 21.585 75.8732 22.2482 76.6222 22.9583L76.6248 22.9608V22.9569L76.6222 22.9583C73.6855 24.5318 70.5848 25.7775 67.3748 26.6678C65.8475 22.3045 63.8631 18.1131 61.4568 14.1678C61.9998 14.1678 62.5388 14.4608 63.0818 14.6678L64.4569 15.0389ZM59.1678 28.4999C53.4139 29.2928 47.5858 29.2928 41.8318 28.4999C43.8513 22.8515 46.7771 17.5739 50.4998 12.8749C54.2225 17.5741 57.1482 22.8515 59.1678 28.4999ZM50.4998 87.1249C46.7771 82.4257 43.8514 77.1483 41.8318 71.4999C47.5857 70.7069 53.4138 70.7069 59.1678 71.4999C57.1483 77.1483 54.2225 82.4259 50.4998 87.1249ZM61.5428 63.4569C54.2225 62.3319 46.7768 62.3319 39.4568 63.4569C38.738 60.4022 38.2537 57.2967 37.9998 54.1678H62.9998C62.7458 57.2967 62.2615 60.4022 61.5428 63.4569ZM37.9998 45.8319C38.2146 42.7069 38.6599 39.6014 39.3318 36.5428C43.0232 37.1639 46.7576 37.4842 50.4998 37.4998C54.199 37.4764 57.8943 37.1561 61.5428 36.5428C62.2615 39.5975 62.7459 42.703 62.9998 45.8319H37.9998ZM19.0428 29.6249C22.8905 31.8593 27.0076 33.5937 31.2928 34.7929C30.4959 38.4296 29.953 42.121 29.6678 45.8319H12.9998C13.6794 40.0233 15.7537 34.4649 19.0428 29.6249ZM13.2498 54.1679H29.6678C29.9138 57.8788 30.4138 61.5663 31.1678 65.2069C26.8826 66.4061 22.7655 68.1405 18.9178 70.3749C15.7616 65.4999 13.8201 59.9449 13.2498 54.1679ZM81.9568 70.3749C78.1091 68.1405 73.992 66.4061 69.7068 65.2069C70.5036 61.5702 71.0466 57.8788 71.3318 54.1679H87.9998C87.3201 59.9765 85.2459 65.5349 81.9568 70.3749Z" fill="#8FD2EA"/>
<path d="M19.0428 29.6249C22.8905 31.8593 27.0076 33.5937 31.2928 34.7929C30.4959 38.4296 29.953 42.121 29.6678 45.8319H12.9998C13.6794 40.0233 15.7537 34.4649 19.0428 29.6249Z" fill="#8FD2EA"/>
<path d="M13.2498 54.1679H29.6678C29.9138 57.8788 30.4138 61.5663 31.1678 65.2069C26.8826 66.4061 22.7655 68.1405 18.9178 70.3749C15.7616 65.4999 13.8201 59.9449 13.2498 54.1679Z" fill="#8FD2EA"/>
<path d="M37.9999 85.2929L36.6249 84.7929L34.4999 83.8358L33.1679 83.3319C32.4061 82.9569 31.6718 82.539 30.957 82.0819L29.914 81.4569H29.9179C28.871 80.7577 27.8671 79.9921 26.9179 79.1678L26.6249 78.9178C25.8319 78.2499 25.1249 77.5858 24.3749 76.8748C27.3788 75.285 30.5507 74.0428 33.8319 73.1678C35.3631 77.5272 37.3436 81.7186 39.7499 85.6678C38.9999 85.6249 38.4569 85.4999 37.9999 85.2929Z" fill="#8FD2EA"/>
<path d="M50.4998 87.1249C46.7771 82.4257 43.8514 77.1483 41.8318 71.4999C47.5857 70.7069 53.4138 70.7069 59.1678 71.4999C57.1483 77.1483 54.2225 82.4259 50.4998 87.1249Z" fill="#8FD2EA"/>
<path d="M74.5429 79.164L74.3319 79.3749C73.3632 80.1562 72.3475 80.8827 71.2928 81.5429L70.3358 82.1249L70.2379 82.1846C69.5205 82.6219 68.8032 83.0592 68.0858 83.4179L66.8358 84.0429L64.6288 85L63.3358 85.5L61.7108 86H61.7069C64.121 82.0586 66.1053 77.8672 67.6249 73.5C70.8358 74.3906 73.9374 75.6328 76.8749 77.207L74.5429 79.164Z" fill="#8FD2EA"/>
<path d="M81.9568 70.3749C78.1091 68.1405 73.992 66.4061 69.7068 65.2069C70.5036 61.5702 71.0466 57.8788 71.3318 54.1679H87.9998C87.3201 59.9765 85.2459 65.5349 81.9568 70.3749Z" fill="#8FD2EA"/>
<path d="M87.7499 45.832H71.3319C71.0858 42.1211 70.5858 38.4336 69.8319 34.793C74.1171 33.5938 78.2342 31.8594 82.0819 29.625C85.2381 34.5 87.1796 40.055 87.7499 45.832Z" fill="#8FD2EA"/>
<path d="M37.9998 45.8319C38.2146 42.7069 38.6599 39.6014 39.3318 36.5428C43.0232 37.1639 46.7576 37.4842 50.4998 37.4998C54.199 37.4764 57.8943 37.1561 61.5428 36.5428C62.2615 39.5975 62.7459 42.703 62.9998 45.8319H37.9998Z" fill="#8FD2EA"/>
<path d="M59.1678 28.4999C53.4139 29.2928 47.5858 29.2928 41.8318 28.4999C43.8513 22.8515 46.7771 17.5739 50.4998 12.8749C54.2225 17.5741 57.1482 22.8515 59.1678 28.4999Z" fill="#8FD2EA"/>
<path d="M66.5819 15.9959L64.4569 15.0389L63.0818 14.6678C62.5388 14.4608 61.9998 14.1678 61.4568 14.1678C63.8631 18.1131 65.8475 22.3045 67.3748 26.6678C70.5848 25.7775 73.6855 24.5318 76.6222 22.9583C75.8732 22.2482 75.1669 21.585 74.3748 20.9178L74.0818 20.6678C73.1287 19.8826 72.1248 19.16 71.0818 18.4998H71.0858L70.0428 17.8748C69.328 17.4178 68.5936 16.9998 67.8319 16.6248V16.6209L66.5819 15.9959Z" fill="#8FD2EA"/>
<path d="M26.7069 20.8319C27.6795 20.0506 28.6952 19.328 29.7499 18.6678L30.7069 18.0857C31.4569 17.6287 32.2069 17.1678 32.9569 16.7927L34.2069 16.1677L36.4139 15.2107L37.9998 14.7068L39.6248 14.2068C37.2459 18.1951 35.3045 22.4295 33.8318 26.8318C30.6209 25.9412 27.5193 24.699 24.5818 23.1248C25.1248 22.3748 25.9178 21.6679 26.7069 20.8319Z" fill="#8FD2EA"/>
<path d="M61.5428 63.4569C54.2225 62.3319 46.7768 62.3319 39.4568 63.4569C38.738 60.4022 38.2537 57.2967 37.9998 54.1678H62.9998C62.7458 57.2967 62.2615 60.4022 61.5428 63.4569Z" fill="#8FD2EA"/>
<path d="M96.3319 45.832C95.5623 36.8711 92.1405 28.34 86.4999 21.332C78.203 10.961 65.8119 4.69897 52.5429 4.16797H48.3749C36.9259 4.73438 26.0939 9.54687 17.9999 17.668C16.828 18.8321 15.7265 20.0742 14.7069 21.375C8.19906 29.5039 4.65186 39.605 4.65186 50.02C4.65186 60.434 8.19876 70.54 14.7069 78.668C22.9569 88.984 35.2619 95.242 48.4569 95.832H52.6249C65.8089 95.2226 78.0979 88.9843 86.3749 78.707C92.0663 71.7031 95.5351 63.156 96.3319 54.168V45.832ZM87.9999 45.832H71.3319C71.0858 42.1211 70.5858 38.4336 69.8319 34.793C74.1171 33.5938 78.2342 31.8594 82.0819 29.625C85.2381 34.5 87.1796 40.055 87.7499 45.832H87.9999ZM74.5429 79.164L74.3319 79.3749C73.3632 80.1562 72.3475 80.8827 71.2928 81.5429L70.3358 82.1249C69.5858 82.582 68.8358 83.0429 68.0858 83.4179L66.8358 84.0429L64.6288 85L63.3358 85.5L61.7108 86H61.7069C64.121 82.0586 66.1053 77.8672 67.6249 73.5C70.8358 74.3906 73.9374 75.6328 76.8749 77.207L74.5429 79.164ZM37.9999 85.2929L36.6249 84.7929L34.4999 83.8358L33.1679 83.3319C32.4061 82.9569 31.6718 82.539 30.957 82.0819L29.914 81.4569H29.9179C28.871 80.7577 27.8671 79.9921 26.9179 79.1678L26.6249 78.9178C25.8319 78.2499 25.1249 77.5858 24.3749 76.8748C27.3788 75.285 30.5507 74.0428 33.8319 73.1678C35.3631 77.5272 37.3436 81.7186 39.7499 85.6678C38.9999 85.6249 38.4569 85.4999 37.9999 85.2929ZM26.7069 20.8319C27.6795 20.0506 28.6952 19.328 29.7499 18.6678L30.7069 18.0857C31.4569 17.6287 32.2069 17.1678 32.9569 16.7927L34.2069 16.1677L36.4139 15.2107L37.9998 14.7068L39.6248 14.2068C37.2459 18.1951 35.3045 22.4295 33.8318 26.8318C30.6209 25.9412 27.5193 24.699 24.5818 23.1248C25.1248 22.3748 25.9178 21.6679 26.7069 20.8319ZM64.4569 15.0389L66.5819 15.9959L67.8319 16.6209V16.6248C68.5936 16.9998 69.328 17.4178 70.0428 17.8748L71.0858 18.4998H71.0818C72.1248 19.16 73.1287 19.8826 74.0818 20.6678L74.3748 20.9178C75.1678 21.5858 75.8748 22.2498 76.6248 22.9608V22.9569C73.6873 24.5311 70.5857 25.7772 67.3748 26.6678C65.8475 22.3045 63.8631 18.1131 61.4568 14.1678C61.9998 14.1678 62.5388 14.4608 63.0818 14.6678L64.4569 15.0389ZM59.1678 28.4999C53.4139 29.2928 47.5858 29.2928 41.8318 28.4999C43.8513 22.8515 46.7771 17.5739 50.4998 12.8749C54.2225 17.5741 57.1482 22.8515 59.1678 28.4999ZM50.4998 87.1249C46.7771 82.4257 43.8514 77.1483 41.8318 71.4999C47.5857 70.7069 53.4138 70.7069 59.1678 71.4999C57.1483 77.1483 54.2225 82.4259 50.4998 87.1249ZM61.5428 63.4569C54.2225 62.3319 46.7768 62.3319 39.4568 63.4569C38.738 60.4022 38.2537 57.2967 37.9998 54.1678H62.9998C62.7458 57.2967 62.2615 60.4022 61.5428 63.4569ZM37.9998 45.8319C38.2146 42.7069 38.6599 39.6014 39.3318 36.5428C43.0232 37.1639 46.7576 37.4842 50.4998 37.4998C54.199 37.4764 57.8943 37.1561 61.5428 36.5428C62.2615 39.5975 62.7459 42.703 62.9998 45.8319H37.9998ZM19.0428 29.6249C22.8905 31.8593 27.0076 33.5937 31.2928 34.7929C30.4959 38.4296 29.953 42.121 29.6678 45.8319H12.9998C13.6794 40.0233 15.7537 34.4649 19.0428 29.6249ZM13.2498 54.1679H29.6678C29.9138 57.8788 30.4138 61.5663 31.1678 65.2069C26.8826 66.4061 22.7655 68.1405 18.9178 70.3749C15.7616 65.4999 13.8201 59.9449 13.2498 54.1679ZM81.9568 70.3749C78.1091 68.1405 73.992 66.4061 69.7068 65.2069C70.5036 61.5702 71.0466 57.8788 71.3318 54.1679H87.9998C87.3201 59.9765 85.2459 65.5349 81.9568 70.3749Z" fill="#4195C4"/>
<path d="M61.5428 63.4569C54.2225 62.3319 46.7768 62.3319 39.4568 63.4569C38.738 60.4022 38.2537 57.2967 37.9998 54.1678H62.9998C62.7458 57.2967 62.2615 60.4022 61.5428 63.4569Z" fill="#4195C4"/>
<path d="M37.9998 45.8319C38.2146 42.7069 38.6599 39.6014 39.3318 36.5428C43.0232 37.1639 46.7576 37.4842 50.4998 37.4998C54.199 37.4764 57.8943 37.1561 61.5428 36.5428C62.2615 39.5975 62.7459 42.703 62.9998 45.8319H37.9998Z" fill="#4195C4"/>
<path d="M43.549 37C38.5617 37 35.5 41.4538 35.5 45.1056C35.5 53.0029 44.2926 60.3345 50.5 65C56.7074 60.3328 65.5 53.0029 65.5 45.1056C65.5 41.4534 62.4397 37 57.451 37C54.6653 37 52.2846 39.2678 50.5 41.4209C48.7137 39.2676 46.3348 37 43.549 37Z" fill="#8FD2EA"/>
</svg>
