<svg width="101" height="104" viewBox="0 0 101 104" fill="none" xmlns="http://www.w3.org/2000/svg">
<path d="M11.9584 73.8749L51.5417 51.9999M11.9584 30.1249L51.5417 11.3749L11.9584 30.1249ZM11.9584 30.1249V73.8749V30.1249ZM11.9584 30.1249L51.5417 51.9999L11.9584 30.1249ZM11.9584 30.1249L51.5417 92.6249L11.9584 30.1249ZM11.9584 30.1249H89.0417H11.9584ZM51.5417 11.3749L89.0417 30.1249L51.5417 11.3749ZM51.5417 11.3749V51.9999V11.3749ZM51.5417 11.3749L89.0417 73.8749L51.5417 11.3749ZM51.5417 11.3749L11.9584 73.8749L51.5417 11.3749ZM89.0417 30.1249V73.8749V30.1249ZM89.0417 30.1249L51.5417 51.9999L89.0417 30.1249ZM89.0417 30.1249L51.5417 92.6249L89.0417 30.1249ZM89.0417 73.8749L51.5417 92.6249L89.0417 73.8749ZM89.0417 73.8749L51.5417 51.9999L89.0417 73.8749ZM89.0417 73.8749H11.9584H89.0417ZM51.5417 92.6249L11.9584 73.8749L51.5417 92.6249ZM51.5417 92.6249V51.9999V92.6249Z" stroke="#ABCDED" stroke-width="3"/>
<path d="M44.25 89.4999L51.5417 85.3333L58.8333 89.4999V95.75L51.5417 99.9166L44.25 95.75V89.4999Z" fill="#60A0DC" stroke="#60A0DC" stroke-width="2"/>
<path d="M4.66672 70.7499L11.9584 66.5833L19.2501 70.7499V76.9999L11.9584 81.1666L4.66672 76.9999V70.7499Z" fill="#60A0DC" stroke="#60A0DC" stroke-width="2"/>
<path d="M2.58337 26.107L11.9584 20.7499L21.3334 26.107V34.1427L11.9584 39.4999L2.58337 34.1427V26.107Z" fill="#60A0DC" stroke="#60A0DC" stroke-width="2"/>
<path d="M42.1667 47.982L51.5417 42.6249L60.9167 47.982V56.0177L51.5417 61.3749L42.1667 56.0177V47.982Z" fill="#60A0DC" stroke="#60A0DC" stroke-width="2"/>
<path d="M2.58337 69.857L11.9584 64.4999L21.3334 69.857V77.8927L11.9584 83.2499L2.58337 77.8927V69.857Z" fill="#60A0DC" stroke="#60A0DC" stroke-width="2"/>
<path d="M44.25 8.24992L51.5417 4.08325L58.8333 8.24992V14.4999L51.5417 18.6666L44.25 14.4999V8.24992Z" fill="#60A0DC" stroke="#60A0DC" stroke-width="2"/>
<path d="M81.75 70.7499L89.0416 66.5833L96.3333 70.7499V76.9999L89.0416 81.1666L81.75 76.9999V70.7499Z" fill="#60A0DC" stroke="#60A0DC" stroke-width="2"/>
<path d="M81.75 26.9999L89.0416 22.8333L96.3333 26.9999V33.2499L89.0416 37.4166L81.75 33.2499V26.9999Z" fill="#60A0DC" stroke="#60A0DC" stroke-width="2"/>
<path d="M42.1667 88.6071L51.5417 83.25L60.9167 88.6071V96.6429L51.5417 102L42.1667 96.6429V88.6071Z" fill="#60A0DC" stroke="#60A0DC" stroke-width="2"/>
<path d="M79.6667 69.8571L89.0417 64.5L98.4167 69.8571V77.8929L89.0417 83.25L79.6667 77.8929V69.8571Z" fill="#60A0DC" stroke="#60A0DC" stroke-width="2"/>
<path d="M79.6667 26.1071L89.0417 20.75L98.4167 26.1071V34.1429L89.0417 39.5L79.6667 34.1429V26.1071Z" fill="#60A0DC" stroke="#60A0DC" stroke-width="2"/>
<path d="M42.1667 7.35714L51.5417 2L60.9167 7.35714V15.3929L51.5417 20.75L42.1667 15.3929V7.35714Z" fill="#60A0DC" stroke="#60A0DC" stroke-width="2"/>
</svg>
