<svg width="24" height="24" viewBox="0 0 24 24" fill="none" xmlns="http://www.w3.org/2000/svg">
<path d="M20.28 6.59979H16.32C16.1212 6.59979 15.96 6.43853 15.96 6.23979V2.27979L20.28 6.59979Z" fill="#4195C4"/>
<path d="M12.7198 17.0398C12.7198 17.3033 12.5717 17.5245 12.3598 17.6492V18.4798H11.6398V17.6492C11.4279 17.5245 11.2798 17.3033 11.2798 17.0398C11.2798 16.6423 11.6023 16.3198 11.9998 16.3198C12.3973 16.3198 12.7198 16.6423 12.7198 17.0398Z" fill="#4195C4"/>
<path d="M12.7198 14.1599V15.5999H11.2798V14.1599C11.2798 13.7634 11.6023 13.4399 11.9998 13.4399C12.3973 13.4399 12.7198 13.7634 12.7198 14.1599Z" fill="#4195C4"/>
<path d="M15.5999 7.67992C15.2024 7.67992 14.8799 7.35741 14.8799 6.95992V1.91992H4.07986C3.68238 1.91992 3.35986 2.24243 3.35986 2.63992V21.3599C3.35986 21.7574 3.68238 22.0799 4.07986 22.0799H19.9199C20.3174 22.0799 20.6399 21.7574 20.6399 21.3599V7.67992H15.5999ZM6.23986 6.59992C6.23986 6.40117 6.40111 6.23992 6.59986 6.23992H12.3599C12.5586 6.23992 12.7199 6.40117 12.7199 6.59992V7.31992C12.7199 7.51867 12.5586 7.67992 12.3599 7.67992H6.59986C6.40111 7.67992 6.23986 7.51867 6.23986 7.31992V6.59992ZM14.8799 19.5599C14.8799 19.7587 14.7186 19.9199 14.5199 19.9199H9.47986C9.28111 19.9199 9.11986 19.7587 9.11986 19.5599V15.9599C9.11986 15.7612 9.28111 15.5999 9.47986 15.5999H9.83986V14.1599C9.83986 12.9684 10.8083 11.9999 11.9999 11.9999C13.1914 11.9999 14.1599 12.9684 14.1599 14.1599V15.5999H14.5199C14.7186 15.5999 14.8799 15.7612 14.8799 15.9599V19.5599ZM17.7599 10.1999C17.7599 10.3987 17.5986 10.5599 17.3999 10.5599H6.59986C6.40111 10.5599 6.23986 10.3987 6.23986 10.1999V9.47992C6.23986 9.28117 6.40111 9.11992 6.59986 9.11992H17.3999C17.5986 9.11992 17.7599 9.28117 17.7599 9.47992V10.1999Z" fill="#4195C4"/>
</svg>
