<svg width="101" height="100" viewBox="0 0 101 100" fill="none" xmlns="http://www.w3.org/2000/svg">
<g clip-path="url(#clip0_2922_18062)">
<path d="M65.6743 73.7641L64.5799 63.1162C96.509 42.6674 88.7258 13.0288 88.6259 12.6776L88.3424 11.6686L87.3334 11.3851C86.9767 11.2906 57.3401 3.50476 36.9011 35.4373L26.244 34.3399C24.8844 34.1997 23.2322 35.0716 22.5768 36.2695L14.5171 51.0844C13.8556 52.2885 14.4225 53.0445 15.7638 52.7641L29.5179 49.8928C28.9844 51.2067 28.4631 52.5266 27.9632 53.9227L27.5608 55.0323L34.4898 61.9613C31.6792 65.5339 30.2159 68.308 30.9689 69.061C31.7127 69.8048 34.4867 68.3416 38.0594 65.5309L44.9884 72.4599L46.1041 72.0575C47.4971 71.5606 48.8171 71.0332 50.1248 70.4997L47.2566 84.2568C46.9792 85.6012 47.7321 86.159 48.9332 85.5006L63.7389 77.4379C64.9461 76.7794 65.8084 75.1299 65.6743 73.7641ZM45.939 68.1307L40.9274 63.107C42.1376 62.0309 43.3905 60.8756 44.6617 59.6044C51.0511 53.215 55.2822 47.0756 54.1116 45.905C52.938 44.7314 46.8046 48.9625 40.4122 55.3549C39.141 56.6261 37.9856 57.879 36.9096 59.0891L31.8859 54.0776C48.4323 9.61363 79.0958 13.4584 85.2688 14.7415C86.5461 20.9084 90.3968 51.5781 45.939 68.1307Z" fill="#8FD2EA"/>
<path d="M40.9274 63.107L45.939 68.1307C90.3968 51.5781 86.5461 20.9084 85.2688 14.7415C79.0958 13.4584 48.4323 9.61363 31.8859 54.0776L36.9096 59.0891C37.9856 57.879 39.141 56.6261 40.4122 55.3549C46.8046 48.9625 52.938 44.7314 54.1116 45.905C55.2822 47.0756 51.0511 53.215 44.6617 59.6044C43.3905 60.8756 42.1376 62.0309 40.9274 63.107Z" fill="#8FD2EA"/>
<path fill-rule="evenodd" clip-rule="evenodd" d="M64.5799 63.1162L65.6743 73.7641C65.8084 75.1299 64.9461 76.7794 63.7389 77.4379L48.9332 85.5006C47.7321 86.159 46.9792 85.6012 47.2566 84.2568L50.1248 70.4997C55.6794 67.9278 58.8427 66.3169 64.5799 63.1162ZM36.9011 35.4373L26.244 34.3399C24.8844 34.1997 23.2322 35.0716 22.5768 36.2695L14.5171 51.0844C13.8556 52.2885 14.4225 53.0445 15.7638 52.7641L29.5179 49.8928C31.8336 44.3242 33.4549 40.9634 36.9011 35.4373ZM34.4898 61.9613C31.6792 65.5339 30.2159 68.308 30.9689 69.061C31.7127 69.8048 34.4867 68.3416 38.0594 65.5309L40.9274 63.107C42.1376 62.0309 43.3905 60.8756 44.6617 59.6044C51.0511 53.215 55.2822 47.0756 54.1116 45.905C52.938 44.7314 46.8046 48.9625 40.4122 55.3549C39.141 56.6261 37.9856 57.879 36.9096 59.0891L34.4898 61.9613Z" fill="#4195C4"/>
<path d="M38.0157 70.6143L37.6987 70.2973C34.1869 72.6995 30.8124 74.0316 28.3981 71.6173C25.9746 69.1938 27.3067 65.8192 29.7089 62.3075L29.3949 61.9935L19.0182 64.6822C17.6952 65.0236 16.3813 66.4045 16.0918 67.7488L12.3116 85.771C12.0281 87.1093 12.8969 87.972 14.2351 87.6945L32.2573 83.9143C33.5986 83.6277 34.9734 82.3139 35.3209 80.9849L38.0157 70.6143Z" fill="#4195C4"/>
<path d="M61.4773 27.3724C58.4653 30.3844 58.4653 35.2689 61.4773 38.2809C64.4892 41.2928 69.3737 41.2928 72.3857 38.2809C75.3976 35.2689 75.4 30.382 72.3881 27.37C69.3761 24.3581 64.4892 24.3605 61.4773 27.3724Z" fill="#4195C4"/>
<path d="M50.0049 10.0127V3.0127" stroke="#4195C4" stroke-width="3.5" stroke-linecap="round"/>
<path d="M53.5 6.5H46.5" stroke="#4195C4" stroke-width="3.5" stroke-linecap="round"/>
<path d="M84.5049 69V62" stroke="#4195C4" stroke-width="3.5" stroke-linecap="round"/>
<path d="M88 65.4873H81" stroke="#4195C4" stroke-width="3.5" stroke-linecap="round"/>
<path d="M7.50488 64V57" stroke="#4195C4" stroke-width="3.5" stroke-linecap="round"/>
<path d="M11 60.4873H4" stroke="#4195C4" stroke-width="3.5" stroke-linecap="round"/>
</g>
<defs>
<clipPath id="clip0_2922_18062">
<rect width="100" height="100" fill="white" transform="translate(0.5)"/>
</clipPath>
</defs>
</svg>
