<svg width="16" height="17" viewBox="0 0 16 17" fill="none" xmlns="http://www.w3.org/2000/svg">
<path d="M6.09098 3.0791C6.08098 3.0791 6.07103 3.07974 6.06103 3.0804C5.97637 3.08707 3.9688 3.25991 2.68213 4.29525C2.01013 4.91658 0.666504 8.54848 0.666504 11.6885C0.666504 11.7438 0.680837 11.7974 0.708171 11.846C1.6355 13.4747 4.16472 13.9016 4.74072 13.9202H4.75114C4.85314 13.9202 4.94895 13.8714 5.00895 13.7887L5.59228 12.988C4.01962 12.5813 3.21641 11.8906 3.17041 11.8499C3.03841 11.7333 3.0251 11.5327 3.14176 11.4007C3.20443 11.3294 3.29205 11.2926 3.38005 11.2926C3.45471 11.2926 3.53032 11.3187 3.59098 11.3721C3.61032 11.3894 5.0892 12.6442 7.99853 12.6442C10.9132 12.6442 12.3927 11.3834 12.4074 11.3708C12.4681 11.3181 12.5437 11.2926 12.6183 11.2926C12.7063 11.2926 12.7933 11.3287 12.8566 11.4007C12.9726 11.5327 12.9606 11.7339 12.8293 11.8499C12.7826 11.8913 11.9788 12.58 10.4061 12.9867L10.9894 13.7887C11.0494 13.8714 11.1452 13.9202 11.2472 13.9202H11.2576C11.8343 13.9022 14.3642 13.4754 15.2915 11.846C15.3188 11.798 15.3332 11.7438 15.3332 11.6885C15.3332 8.54848 13.9893 4.91626 13.3006 4.28092C12.0313 3.26026 10.024 3.08774 9.93864 3.0804C9.92997 3.07974 9.91996 3.0791 9.9113 3.0791C9.7873 3.0791 9.67357 3.1526 9.62223 3.2666C9.61823 3.2746 9.57454 3.37556 9.52588 3.53223C10.3652 3.67356 11.3959 3.9594 12.3293 4.53874C12.4786 4.6314 12.5248 4.82754 12.4321 4.97754C12.3721 5.07487 12.268 5.12858 12.1613 5.12858C12.104 5.12858 12.046 5.11307 11.9933 5.0804C10.3893 4.0864 8.38517 4.03613 7.99984 4.03613C7.6145 4.03613 5.61032 4.08704 4.00765 5.08171C3.95498 5.11371 3.89701 5.12858 3.83968 5.12858C3.73301 5.12858 3.62821 5.07617 3.56755 4.97884C3.47421 4.82884 3.52108 4.63207 3.67041 4.53874C4.60374 3.96007 5.6351 3.67486 6.4751 3.53353C6.42576 3.3762 6.38077 3.2759 6.37744 3.2679C6.32611 3.1539 6.21432 3.0791 6.09098 3.0791ZM7.99984 5.36947C8.19717 5.36947 9.9669 5.39322 11.2889 6.21322C11.5509 6.37588 11.8513 6.46322 12.16 6.46322C12.422 6.46322 12.6736 6.40334 12.8983 6.29134C13.3096 7.32667 13.7937 8.95715 13.9491 10.6325C13.9224 10.5952 13.8938 10.5591 13.8631 10.5244C13.5498 10.1651 13.0963 9.96061 12.6196 9.96061C12.2216 9.96061 11.8359 10.1033 11.5532 10.3486C11.5046 10.388 10.3365 11.3122 7.99984 11.3122C5.66384 11.3122 4.49652 10.3895 4.47119 10.3695C4.16919 10.1048 3.78268 9.95931 3.38135 9.95931C2.90735 9.95931 2.45573 10.1626 2.14307 10.5166C2.1104 10.5533 2.07995 10.5919 2.05062 10.6312C2.20595 8.95719 2.68946 7.3234 3.0988 6.28874C3.32413 6.4014 3.57701 6.46191 3.83968 6.46191C4.14768 6.46191 4.44814 6.37588 4.70947 6.21322C6.03281 5.39255 7.8025 5.36947 7.99984 5.36947ZM5.92692 7.19629C5.31092 7.19629 4.81103 7.76703 4.81103 8.47103C4.81103 9.17503 5.31025 9.74577 5.92692 9.74577C6.54359 9.74577 7.04281 9.17503 7.04281 8.47103C7.04281 7.76636 6.54359 7.19629 5.92692 7.19629ZM10.0728 7.19629C9.45675 7.19629 8.95687 7.76703 8.95687 8.47103C8.95687 9.17503 9.45609 9.74577 10.0728 9.74577C10.6894 9.74577 11.1886 9.17503 11.1886 8.47103C11.1886 7.76636 10.6888 7.19629 10.0728 7.19629Z" fill="white"/>
</svg>
