<svg width="101" height="100" viewBox="0 0 101 100" fill="none" xmlns="http://www.w3.org/2000/svg">
<path d="M61.9403 45.6269H72.4627C75.2241 45.6269 77.4627 43.3883 77.4627 40.6269V28.5373C77.4627 25.7759 79.7013 23.5373 82.4627 23.5373H90M61.9403 56.9702H81.4179C84.1793 56.9702 86.4179 59.2087 86.4179 61.9702V76.0746M52.3881 65.3284H60C62.7614 65.3284 65 67.5669 65 70.3284V90M30.2985 45.6269H15C12.2386 45.6269 10 43.3883 10 40.6269V18.1642M30.2985 55.1791H23.9552C21.1938 55.1791 18.9552 57.4177 18.9552 60.1791V78.2388C18.9552 81.0002 16.7166 83.2388 13.9552 83.2388H10M38.6567 65.3284V71.8955C38.6567 74.2036 36.7857 76.0746 34.4776 76.0746V76.0746C32.1696 76.0746 30.2985 77.9457 30.2985 80.2537V85.0299M55.5 35.5V5.5M38.6567 35.5V23.9216C38.6567 22.3081 39.9648 21 41.5784 21V21C43.1919 21 44.5 19.6919 44.5 18.0784V14C44.5 11.2386 42.2614 9 39.5 9H29H26.5" stroke="#8FD2EA" stroke-width="3.5"/>
<circle cx="10" cy="16" r="5" fill="#4195C4"/>
<circle cx="55.5" cy="7" r="5" fill="#4195C4"/>
<circle cx="25" cy="9" r="5" fill="#4195C4"/>
<circle cx="90" cy="23" r="5" fill="#4195C4"/>
<circle cx="86.5" cy="76" r="5" fill="#4195C4"/>
<circle cx="65" cy="90" r="5" fill="#4195C4"/>
<circle cx="30.5" cy="88" r="5" fill="#4195C4"/>
<circle cx="6" cy="83" r="5" fill="#4195C4"/>
<path d="M46.1461 27.0716L29.6756 33.2074C29.2835 33.3493 29 33.7507 29 34.1662V53.5962C29 57.6188 31.4227 60.9443 34.6777 63.8384C37.9328 66.7326 42.0807 69.2829 45.921 71.8277C46.2607 72.0574 46.7392 72.0574 47.079 71.8277C50.9192 69.2831 55.0673 66.7326 58.3223 63.8384C61.5774 60.9423 64 57.6187 64 53.5942V34.1641C64 33.7487 63.7165 33.3472 63.3244 33.2054L46.8539 27.0696C46.5844 26.9518 46.299 27.0057 46.1461 27.0696V27.0716ZM46.5 29.1169L61.9412 34.8692V53.5962C61.9412 56.7999 59.9889 59.6062 56.9389 62.3203C54.0396 64.8989 50.2034 67.2957 46.5001 69.7344C42.7966 67.2957 38.9607 64.8989 36.0614 62.3203C33.0113 59.6059 31.059 56.7976 31.059 53.5942V34.8672L46.5 29.1169ZM46.5 39.7907C43.6671 39.7907 41.3529 42.0896 41.3529 44.9038V46.9491H40.227C39.7204 46.997 39.2921 47.4664 39.2941 47.9717V56.1528C39.2941 56.6881 39.7847 57.1754 40.3235 57.1754H52.6765C53.2153 57.1754 53.7059 56.6881 53.7059 56.1528V47.9717C53.7059 47.4364 53.2153 46.9491 52.6765 46.9491H51.6471V44.9038C51.6471 42.0896 49.3329 39.7907 46.5 39.7907ZM46.5 41.8359C48.2291 41.8359 49.5882 43.1861 49.5882 44.9038V46.9491H43.4118V44.9038C43.4118 43.1861 44.7709 41.8359 46.5 41.8359ZM41.3529 48.9944H51.6471V55.1302H41.3529V48.9944Z" fill="#4195C4"/>
<path fill-rule="evenodd" clip-rule="evenodd" d="M46.5 29.1169L61.9412 34.8692V53.5962C61.9412 56.7999 59.9889 59.6062 56.9389 62.3203C54.0396 64.8989 50.2034 67.2957 46.5001 69.7344C42.7966 67.2957 38.9607 64.8989 36.0614 62.3203C33.0113 59.6059 31.059 56.7976 31.059 53.5942V34.8672L46.5 29.1169ZM41.3529 44.9038C41.3529 42.0896 43.6671 39.7907 46.5 39.7907C49.3329 39.7907 51.6471 42.0896 51.6471 44.9038V46.9491H52.6765C53.2153 46.9491 53.7059 47.4364 53.7059 47.9717V56.1528C53.7059 56.6881 53.2153 57.1754 52.6765 57.1754H40.3235C39.7847 57.1754 39.2941 56.6881 39.2941 56.1528V47.9717C39.2921 47.4664 39.7204 46.997 40.227 46.9491H41.3529V44.9038Z" fill="#4195C4"/>
<path d="M46.5 41.8359C48.2291 41.8359 49.5882 43.1861 49.5882 44.9038V46.9491H43.4118V44.9038C43.4118 43.1861 44.7709 41.8359 46.5 41.8359Z" fill="#4195C4"/>
<path d="M41.3529 48.9944H51.6471V55.1302H41.3529V48.9944Z" fill="#4195C4"/>
<path fill-rule="evenodd" clip-rule="evenodd" d="M41.3529 44.9038C41.3529 42.0896 43.6671 39.7907 46.5 39.7907C49.3329 39.7907 51.6471 42.0896 51.6471 44.9038V46.9491H52.6765C53.2153 46.9491 53.7059 47.4364 53.7059 47.9717V56.1528C53.7059 56.6881 53.2153 57.1754 52.6765 57.1754H40.3235C39.7847 57.1754 39.2941 56.6881 39.2941 56.1528V47.9717C39.2921 47.4664 39.7204 46.997 40.227 46.9491H41.3529V44.9038ZM49.5882 44.9038C49.5882 43.1861 48.2291 41.8359 46.5 41.8359C44.7709 41.8359 43.4118 43.1861 43.4118 44.9038V46.9491H49.5882V44.9038ZM51.6471 55.1302V48.9944H41.3529V55.1302H51.6471Z" fill="#8FD2EA"/>
<path d="M41.3529 48.9944H51.6471V55.1302H41.3529V48.9944Z" fill="#8FD2EA"/>
</svg>
