<svg width="101" height="100" viewBox="0 0 101 100" fill="none" xmlns="http://www.w3.org/2000/svg">
<path d="M88.1562 23.75L71.7502 7.5C70.8127 6.71875 69.719 6.25 68.469 6.25H30.188C27.688 6.25 25.5005 8.4375 25.5005 10.9375V52.3435C19.4067 52.656 14.7195 57.4997 14.5625 63.5935V68.906C12.6875 69.531 11.4375 71.2498 11.4375 73.281V89.375C11.4375 91.7188 13.3125 93.75 15.6563 93.75H36.9063C38.7813 93.75 40.3438 92.5 40.9688 90.625H84.8748C87.3748 90.625 89.5623 88.4375 89.5623 85.9375V27.1875C89.5623 25.9375 89.0936 24.6875 88.1562 23.75ZM70.8122 11.094L84.8742 25H72.3742C71.4367 25 70.8117 24.375 70.8117 23.4375L70.8122 11.094ZM34.8742 68.75H28.6242V55.781C32.218 56.7185 34.718 59.8435 34.8742 63.5935V68.75ZM25.4992 55.469V68.75H17.6867V63.5938C17.843 59.2188 21.1242 55.7815 25.4992 55.469ZM36.9052 90.625H15.6552C15.0302 90.4688 14.5614 90 14.5614 89.2188V73.2808C14.5614 72.6558 15.0301 72.0308 15.6552 71.8746H36.9052C37.5302 72.0309 37.999 72.4996 37.999 73.2808V89.3748C37.999 89.9998 37.5302 90.4688 36.9052 90.625ZM84.8742 87.5H41.1242V73.281C41.1242 71.2498 39.8742 69.531 37.9992 68.906V63.5935C37.843 58.1247 33.9367 53.5935 28.6242 52.6555V10.9365C28.6242 10.1552 29.2492 9.374 30.1867 9.374H67.6867V23.436C67.6867 26.0922 69.7179 28.1235 72.3742 28.1235H86.4362V85.9355C86.4362 86.7168 85.8112 87.498 84.8737 87.498L84.8742 87.5Z" fill="#4195C4"/>
<path d="M41.1242 87.5H84.8742L84.8737 87.498C85.8112 87.498 86.4362 86.7168 86.4362 85.9355V28.1235H72.3742C69.7179 28.1235 67.6867 26.0922 67.6867 23.436V9.374H30.1867C29.2492 9.374 28.6242 10.1552 28.6242 10.9365V52.6555C33.9367 53.5935 37.843 58.1247 37.9992 63.5935V68.906C39.8742 69.531 41.1242 71.2498 41.1242 73.281V87.5Z" fill="#4195C4"/>
<path d="M28.6242 68.75H34.8742V63.5935C34.718 59.8435 32.218 56.7185 28.6242 55.781V68.75Z" fill="#4195C4"/>
<path fill-rule="evenodd" clip-rule="evenodd" d="M71.7502 7.5L88.1562 23.75C89.0936 24.6875 89.5623 25.9375 89.5623 27.1875V28.1235H86.4362H72.3742C69.7179 28.1235 67.6867 26.0922 67.6867 23.436V9.374V6.25H68.469C69.719 6.25 70.8127 6.71875 71.7502 7.5ZM41.1294 88.0362C41.1406 88.9865 41.1486 89.6577 40.9688 90.625C40.3438 92.5 38.7813 93.75 36.9063 93.75H15.6563C13.3125 93.75 11.4375 91.7188 11.4375 89.375V73.281C11.4375 71.2498 12.6875 69.531 14.5625 68.906V63.5935C14.7195 57.4997 19.4067 52.656 25.5005 52.3435C26.7447 52.3066 27.4309 52.3735 28.6242 52.6555C33.9367 53.5935 37.843 58.1247 37.9992 63.5935V68.906C39.8742 69.531 41.1242 71.2498 41.1242 73.281V87.5C41.1254 87.6897 41.1275 87.8674 41.1294 88.0362ZM84.8742 25L70.8122 11.094L70.8117 23.4375C70.8117 24.375 71.4367 25 72.3742 25H84.8742ZM28.6242 68.75H34.8742V63.5935C34.718 59.8435 32.218 56.7185 28.6242 55.781C27.3081 55.4511 26.6211 55.429 25.4992 55.469C21.1242 55.7815 17.843 59.2188 17.6867 63.5938V68.75H25.4992H28.6242ZM15.6552 90.625H36.9052C37.5302 90.4688 37.999 89.9998 37.999 89.3748V73.2808C37.999 72.4996 37.5302 72.0309 36.9052 71.8746H15.6552C15.0301 72.0308 14.5614 72.6558 14.5614 73.2808V89.2188C14.5614 90 15.0302 90.4688 15.6552 90.625Z" fill="#8FD2EA"/>
<path d="M70.8122 11.094L84.8742 25H72.3742C71.4367 25 70.8117 24.375 70.8117 23.4375L70.8122 11.094Z" fill="#8FD2EA"/>
<path fill-rule="evenodd" clip-rule="evenodd" d="M41.1294 88.0362C41.1406 88.9865 41.1486 89.6577 40.9688 90.625C40.3438 92.5 38.7813 93.75 36.9063 93.75H15.6563C13.3125 93.75 11.4375 91.7188 11.4375 89.375V73.281C11.4375 71.2498 12.6875 69.531 14.5625 68.906V63.5935C14.7195 57.4997 19.4067 52.656 25.5005 52.3435C26.7447 52.3066 27.4309 52.3735 28.6242 52.6555C33.9367 53.5935 37.843 58.1247 37.9992 63.5935V68.906C39.8742 69.531 41.1242 71.2498 41.1242 73.281V87.5C41.1254 87.6897 41.1275 87.8674 41.1294 88.0362ZM34.8742 68.75H28.6242H25.4992H17.6867V63.5938C17.843 59.2188 21.1242 55.7815 25.4992 55.469C26.6211 55.429 27.3081 55.4511 28.6242 55.781C32.218 56.7185 34.718 59.8435 34.8742 63.5935V68.75ZM36.9052 90.625H15.6552C15.0302 90.4688 14.5614 90 14.5614 89.2188V73.2808C14.5614 72.6558 15.0301 72.0308 15.6552 71.8746H36.9052C37.5302 72.0309 37.999 72.4996 37.999 73.2808V89.3748C37.999 89.9998 37.5302 90.4688 36.9052 90.625Z" fill="#8FD2EA"/>
<path d="M36.9052 90.625H15.6552C15.0302 90.4688 14.5614 90 14.5614 89.2188V73.2808C14.5614 72.6558 15.0301 72.0308 15.6552 71.8746H36.9052C37.5302 72.0309 37.999 72.4996 37.999 73.2808V89.3748C37.999 89.9998 37.5302 90.4688 36.9052 90.625Z" fill="#8FD2EA"/>
<path d="M23.6254 87.5001C23.1566 87.5001 22.5316 87.3439 22.2192 86.8751L18.938 83.4376C18.313 82.8126 18.313 81.8751 18.938 81.2501C19.563 80.6251 20.5005 80.6251 21.1255 81.2501L21.2817 81.4064L23.7817 84.0626L31.5942 75.7814C32.2192 75.1564 33.1567 75.1564 33.7817 75.6251C34.4067 76.2501 34.4067 77.1876 33.938 77.8126L25.3442 87.0315C24.7192 87.344 24.0942 87.5002 23.6254 87.5002V87.5001Z" fill="#4195C4"/>
<path d="M61.6694 34.096C62.5455 34.3964 63.0475 35.3249 62.8619 36.2346L62.8071 36.445L55.6071 58.7302C55.2935 59.7023 54.274 60.2289 53.3304 59.904C52.4543 59.6036 51.9523 58.6751 52.1379 57.7654L52.1928 57.555L59.3927 35.2698C59.7063 34.2977 60.7258 33.7711 61.6694 34.096ZM49.94 40.3144C50.4912 41.0717 50.3956 42.1221 49.7515 42.7634L49.58 42.9143L44.301 46.9999L49.58 51.0856C50.314 51.6543 50.5081 52.6888 50.0637 53.4911L49.94 53.6855C49.3888 54.4429 48.3861 54.6431 47.6084 54.1846L47.42 54.057L40.22 48.4857C39.3242 47.7921 39.2638 46.4515 40.0414 45.6724L40.22 45.5143L47.42 39.943C48.2159 39.3279 49.3437 39.4932 49.94 40.3144L49.94 40.3144ZM67.3916 39.8152L67.58 39.9429L74.78 45.5142C75.6758 46.2077 75.7362 47.5483 74.9586 48.3274L74.78 48.4856L67.58 54.0569C66.7841 54.672 65.6563 54.5066 65.06 53.6855C64.5088 52.9281 64.6044 51.8777 65.2485 51.2364L65.42 51.0855L70.699 46.9999L65.42 42.9143C64.686 42.3455 64.4919 41.3111 64.9363 40.5087L65.06 40.3143C65.6112 39.5569 66.6139 39.3567 67.3916 39.8152L67.3916 39.8152Z" fill="#8FD2EA"/>
</svg>
