<svg width="42" height="42" viewBox="0 0 42 42" fill="none" xmlns="http://www.w3.org/2000/svg">
<path d="M19.0749 3.67484C11.0249 4.54984 4.54989 11.0248 3.67489 18.8998C2.79989 27.1248 7.52489 34.4748 14.6999 37.2748C15.2249 37.4498 15.7499 37.0998 15.7499 36.3998V33.5998C15.7499 33.5998 15.0499 33.7748 14.1749 33.7748C11.7249 33.7748 10.6749 31.6748 10.4999 30.4498C10.3249 29.7498 9.97489 29.2248 9.44989 28.6998C8.92489 28.5248 8.74989 28.5248 8.74989 28.3498C8.74989 27.9998 9.27489 27.9998 9.44989 27.9998C10.4999 27.9998 11.3749 29.2248 11.7249 29.7498C12.5999 31.1498 13.6499 31.4998 14.1749 31.4998C14.8749 31.4998 15.3999 31.3248 15.7499 31.1498C15.9249 29.9248 16.4499 28.6998 17.4999 27.9998C13.4749 27.1248 10.4999 24.8498 10.4999 20.9998C10.4999 19.0748 11.3749 17.1498 12.5999 15.7498C12.4249 15.3998 12.2499 14.5248 12.2499 13.2998C12.2499 12.5998 12.2499 11.5498 12.7749 10.4998C12.7749 10.4998 15.2249 10.4998 17.6749 12.7748C18.5499 12.4248 19.7749 12.2498 20.9999 12.2498C22.2249 12.2498 23.4499 12.4248 24.4999 12.7748C26.7749 10.4998 29.3999 10.4998 29.3999 10.4998C29.7499 11.5498 29.7499 12.5998 29.7499 13.2998C29.7499 14.6998 29.5749 15.3998 29.3999 15.7498C30.6249 17.1498 31.4999 18.8998 31.4999 20.9998C31.4999 24.8498 28.5249 27.1248 24.4999 27.9998C25.5499 28.8748 26.2499 30.4498 26.2499 32.0248V36.5748C26.2499 37.0998 26.7749 37.6248 27.4749 37.4498C33.9499 34.8248 38.4999 28.5248 38.4999 21.1748C38.4999 10.6748 29.5749 2.44984 19.0749 3.67484Z" fill="#8FD2EA"/>
<path d="M15.7499 36.3998C15.7499 37.0116 15.349 37.356 14.8975 37.3163C19.6973 38.3157 22.476 38.2258 27.2676 37.4822C26.6738 37.5183 26.2499 37.0466 26.2499 36.5748V32.0248C26.2499 30.4498 25.5499 28.8748 24.4999 27.9998C28.5249 27.1248 31.4999 24.8498 31.4999 20.9998C31.4999 18.8998 30.6249 17.1498 29.3999 15.7498C29.5749 15.3998 29.7499 14.6998 29.7499 13.2998C29.7499 12.5998 29.7499 11.5498 29.3999 10.4998C29.3999 10.4998 26.7749 10.4998 24.4999 12.7748C23.4499 12.4248 22.2249 12.2498 20.9999 12.2498C19.7749 12.2498 18.5499 12.4248 17.6749 12.7748C15.2249 10.4998 12.7749 10.4998 12.7749 10.4998C12.2499 11.5498 12.2499 12.5998 12.2499 13.2998C12.2499 14.5248 12.4249 15.3998 12.5999 15.7498C11.3749 17.1498 10.4999 19.0748 10.4999 20.9998C10.4999 24.8498 13.4749 27.1248 17.4999 27.9998C16.4499 28.6998 15.9249 29.9248 15.7499 31.1498C15.3999 31.3248 14.8749 31.4998 14.1749 31.4998C13.6499 31.4998 12.5999 31.1498 11.7249 29.7498C11.3749 29.2248 10.4999 27.9998 9.44989 27.9998C9.27489 27.9998 8.74989 27.9998 8.74989 28.3498C8.74989 28.5248 8.92489 28.5248 9.44989 28.6998C9.97489 29.2248 10.3249 29.7498 10.4999 30.4498C10.6749 31.6748 11.7249 33.7748 14.1749 33.7748C15.0499 33.7748 15.7499 33.5998 15.7499 33.5998V36.3998Z" fill="#4195C4"/>
<path fill-rule="evenodd" clip-rule="evenodd" d="M27.2676 37.4822L27.4749 37.4498C27.4039 37.4676 27.3346 37.4781 27.2676 37.4822ZM14.6999 37.2748C14.7661 37.2889 14.832 37.3027 14.8975 37.3163C14.8323 37.3106 14.7661 37.2969 14.6999 37.2748Z" fill="#4195C4"/>
</svg>
