<svg width="25" height="24" viewBox="0 0 25 24" fill="none" xmlns="http://www.w3.org/2000/svg">
<path d="M11.4729 2.3999C10.1475 2.3999 9.07295 3.47442 9.07295 4.7999V14.3999C9.07295 15.7254 10.1475 16.7999 11.4729 16.7999H18.6729C19.9984 16.7999 21.073 15.7254 21.073 14.3999V7.69696C21.073 7.06044 20.8201 6.44999 20.37 5.9999L17.4729 3.10285C17.0229 2.65276 16.4124 2.3999 15.7759 2.3999H11.4729Z" fill="#4195C4"/>
<path d="M4.27295 9.5999C4.27295 8.27442 5.34747 7.1999 6.67295 7.1999V19.1999H16.2729C16.2729 20.5254 15.1984 21.5999 13.8729 21.5999H6.67295C5.34747 21.5999 4.27295 20.5254 4.27295 19.1999V9.5999Z" fill="#4195C4"/>
</svg>
