<svg width="43" height="42" viewBox="0 0 43 42" fill="none" xmlns="http://www.w3.org/2000/svg">
<path d="M19.5754 3.67484C11.5254 4.54984 5.05038 11.0248 4.17538 18.8998C3.30038 27.1248 8.02538 34.4748 15.2004 37.2748C15.7254 37.4498 16.2504 37.0998 16.2504 36.3998V33.5998C16.2504 33.5998 15.5504 33.7748 14.6754 33.7748C12.2254 33.7748 11.1754 31.6748 11.0004 30.4498C10.8254 29.7498 10.4754 29.2248 9.95038 28.6998C9.42538 28.5248 9.25038 28.5248 9.25038 28.3498C9.25038 27.9998 9.77538 27.9998 9.95038 27.9998C11.0004 27.9998 11.8754 29.2248 12.2254 29.7498C13.1004 31.1498 14.1504 31.4998 14.6754 31.4998C15.3754 31.4998 15.9004 31.3248 16.2504 31.1498C16.4254 29.9248 16.9504 28.6998 18.0004 27.9998C13.9754 27.1248 11.0004 24.8498 11.0004 20.9998C11.0004 19.0748 11.8754 17.1498 13.1004 15.7498C12.9254 15.3998 12.7504 14.5248 12.7504 13.2998C12.7504 12.5998 12.7504 11.5498 13.2754 10.4998C13.2754 10.4998 15.7254 10.4998 18.1754 12.7748C19.0504 12.4248 20.2754 12.2498 21.5004 12.2498C22.7254 12.2498 23.9504 12.4248 25.0004 12.7748C27.2754 10.4998 29.9004 10.4998 29.9004 10.4998C30.2504 11.5498 30.2504 12.5998 30.2504 13.2998C30.2504 14.6998 30.0754 15.3998 29.9004 15.7498C31.1254 17.1498 32.0004 18.8998 32.0004 20.9998C32.0004 24.8498 29.0254 27.1248 25.0004 27.9998C26.0504 28.8748 26.7504 30.4498 26.7504 32.0248V36.5748C26.7504 37.0998 27.2754 37.6248 27.9754 37.4498C34.4504 34.8248 39.0004 28.5248 39.0004 21.1748C39.0004 10.6748 30.0754 2.44984 19.5754 3.67484Z" fill="#ABCDED"/>
<path d="M16.2504 36.3998C16.2504 37.0116 15.8495 37.356 15.398 37.3163C20.1977 38.3157 22.9765 38.2258 27.7681 37.4822C27.1742 37.5183 26.7504 37.0466 26.7504 36.5748V32.0248C26.7504 30.4498 26.0504 28.8748 25.0004 27.9998C29.0254 27.1248 32.0004 24.8498 32.0004 20.9998C32.0004 18.8998 31.1254 17.1498 29.9004 15.7498C30.0754 15.3998 30.2504 14.6998 30.2504 13.2998C30.2504 12.5998 30.2504 11.5498 29.9004 10.4998C29.9004 10.4998 27.2754 10.4998 25.0004 12.7748C23.9504 12.4248 22.7254 12.2498 21.5004 12.2498C20.2754 12.2498 19.0504 12.4248 18.1754 12.7748C15.7254 10.4998 13.2754 10.4998 13.2754 10.4998C12.7504 11.5498 12.7504 12.5998 12.7504 13.2998C12.7504 14.5248 12.9254 15.3998 13.1004 15.7498C11.8754 17.1498 11.0004 19.0748 11.0004 20.9998C11.0004 24.8498 13.9754 27.1248 18.0004 27.9998C16.9504 28.6998 16.4254 29.9248 16.2504 31.1498C15.9004 31.3248 15.3754 31.4998 14.6754 31.4998C14.1504 31.4998 13.1004 31.1498 12.2254 29.7498C11.8754 29.2248 11.0004 27.9998 9.95038 27.9998C9.77538 27.9998 9.25038 27.9998 9.25038 28.3498C9.25038 28.5248 9.42538 28.5248 9.95038 28.6998C10.4754 29.2248 10.8254 29.7498 11.0004 30.4498C11.1754 31.6748 12.2254 33.7748 14.6754 33.7748C15.5504 33.7748 16.2504 33.5998 16.2504 33.5998V36.3998Z" fill="#60A0DC"/>
<path fill-rule="evenodd" clip-rule="evenodd" d="M27.7681 37.4822L27.9754 37.4498C27.9044 37.4676 27.8351 37.4781 27.7681 37.4822ZM15.2004 37.2748C15.2666 37.2889 15.3325 37.3027 15.398 37.3163C15.3328 37.3106 15.2666 37.2969 15.2004 37.2748Z" fill="#60A0DC"/>
</svg>
