<svg width="101" height="104" viewBox="0 0 101 104" fill="none" xmlns="http://www.w3.org/2000/svg">
<path d="M11.958 30.1245L51.5414 11.3745M11.958 30.1245V73.8745M11.958 30.1245L51.5414 51.9995M11.958 30.1245L51.5414 92.6245M11.958 30.1245H89.0414M51.5414 11.3745L89.0414 30.1245M51.5414 11.3745V51.9995M51.5414 11.3745L89.0414 73.8745M51.5414 11.3745L11.958 73.8745M89.0414 30.1245V73.8745M89.0414 30.1245L51.5414 51.9995M89.0414 30.1245L51.5414 92.6245M89.0414 73.8745L51.5414 92.6245M89.0414 73.8745L51.5414 51.9995M89.0414 73.8745H11.958M51.5414 92.6245L11.958 73.8745M51.5414 92.6245V51.9995M11.958 73.8745L51.5414 51.9995" stroke="#ABCDED" stroke-width="3"/>
<path d="M44.25 89.4997L51.5417 85.333L58.8333 89.4997V95.7497L51.5417 99.9164L44.25 95.7497V89.4997Z" fill="#60A0DC" stroke="#60A0DC" stroke-width="2"/>
<path d="M4.66602 70.7497L11.9577 66.583L19.2493 70.7497V76.9997L11.9577 81.1663L4.66602 76.9997V70.7497Z" fill="#60A0DC" stroke="#60A0DC" stroke-width="2"/>
<path d="M2.58301 26.1067L11.958 20.7495L21.333 26.1067V34.1424L11.958 39.4995L2.58301 34.1424V26.1067Z" fill="#60A0DC" stroke="#60A0DC" stroke-width="2"/>
<path d="M42.166 47.9817L51.541 42.6245L60.916 47.9817V56.0174L51.541 61.3745L42.166 56.0174V47.9817Z" fill="#60A0DC" stroke="#60A0DC" stroke-width="2"/>
<path d="M2.58301 69.8567L11.958 64.4995L21.333 69.8567V77.8924L11.958 83.2495L2.58301 77.8924V69.8567Z" fill="#60A0DC" stroke="#60A0DC" stroke-width="2"/>
<path d="M44.25 8.24967L51.5417 4.08301L58.8333 8.24967V14.4997L51.5417 18.6663L44.25 14.4997V8.24967Z" fill="#60A0DC" stroke="#60A0DC" stroke-width="2"/>
<path d="M81.75 70.7497L89.0416 66.583L96.3333 70.7497V76.9997L89.0416 81.1663L81.75 76.9997V70.7497Z" fill="#60A0DC" stroke="#60A0DC" stroke-width="2"/>
<path d="M81.75 26.9997L89.0416 22.833L96.3333 26.9997V33.2497L89.0416 37.4163L81.75 33.2497V26.9997Z" fill="#60A0DC" stroke="#60A0DC" stroke-width="2"/>
<path d="M42.166 88.6071L51.541 83.25L60.916 88.6071V96.6429L51.541 102L42.166 96.6429V88.6071Z" fill="#60A0DC" stroke="#60A0DC" stroke-width="2"/>
<path d="M79.666 69.8571L89.041 64.5L98.416 69.8571V77.8929L89.041 83.25L79.666 77.8929V69.8571Z" fill="#60A0DC" stroke="#60A0DC" stroke-width="2"/>
<path d="M79.666 26.1071L89.041 20.75L98.416 26.1071V34.1429L89.041 39.5L79.666 34.1429V26.1071Z" fill="#60A0DC" stroke="#60A0DC" stroke-width="2"/>
<path d="M42.166 7.35714L51.541 2L60.916 7.35714V15.3929L51.541 20.75L42.166 15.3929V7.35714Z" fill="#60A0DC" stroke="#60A0DC" stroke-width="2"/>
</svg>
