<svg width="42" height="42" viewBox="0 0 42 42" fill="none" xmlns="http://www.w3.org/2000/svg">
<path d="M10.5 3.5C8.56625 3.5 7 5.06625 7 7V35C7 36.9338 8.56625 38.5 10.5 38.5H31.5C33.4338 38.5 35 36.9338 35 35V7C35 5.06625 33.4338 3.5 31.5 3.5H24.5H14H10.5ZM10.5 7H14V21L19.25 18.375L24.5 21V7H31.5V35H10.5V7ZM17.5 7H21V15.3364L20.8154 15.2441L19.25 14.4614L17.6846 15.2441L17.5 15.3364V7Z" fill="#ABCDED"/>
<path d="M10.5 7H14V21L19.25 18.375L24.5 21V7H31.5V35H10.5V7Z" fill="#ABCDED"/>
<path d="M17.5 7H21V15.3364L20.8154 15.2441L19.25 14.4614L17.6846 15.2441L17.5 15.3364V7Z" fill="#60A0DC"/>
<path fill-rule="evenodd" clip-rule="evenodd" d="M24.5 3.5H14V7V21L19.25 18.375L24.5 21V7V3.5ZM21 7H17.5V15.3364L17.6846 15.2441L19.25 14.4614L20.8154 15.2441L21 15.3364V7Z" fill="#60A0DC"/>
</svg>
