<svg width="101" height="100" viewBox="0 0 101 100" fill="none" xmlns="http://www.w3.org/2000/svg">
<path d="M75.1172 43.9099C74.0586 32.0859 64.3202 22.5549 52.4652 21.7339C51.3011 21.6519 50.1644 21.6519 48.9964 21.7339C37.1414 22.5503 27.4024 32.0859 26.3444 43.9099C25.6608 51.5544 28.4811 58.9179 34.0788 64.1129C36.7118 66.5545 38.363 69.8551 38.7336 73.3437C38.7864 73.8403 38.8132 74.3406 38.8132 74.8429V84.3585C38.8132 87.421 41.1179 89.9601 44.0866 90.3233C45.0045 92.796 47.5475 94.9991 50.7311 94.9991C53.9147 94.9991 56.4577 92.796 57.3756 90.3233C60.3444 89.96 62.649 87.4249 62.649 84.3585V74.8429C62.649 74.3408 62.6758 73.8405 62.7286 73.3439C63.0994 69.8571 64.7505 66.5538 67.3834 64.1129C72.9811 58.9176 75.8008 51.5539 75.1172 43.9099ZM58.6482 76.3439V77.8517H42.8122V76.3439H58.6482ZM46.1092 51.2619H44.1483C43.0702 51.2619 42.1874 50.383 42.1874 49.301C42.1874 48.2229 43.0663 47.3401 44.1483 47.3401C45.2303 47.3401 46.1092 48.219 46.1092 49.301V51.2619ZM49.1092 54.2619H52.3475V73.3439H49.1092V54.2619ZM42.8123 82.3599V80.8521H58.6483V82.3599H42.8123ZM50.7303 91.0005C49.5819 91.0005 48.5936 90.2388 48.0858 89.4263H53.371C52.8671 90.2388 51.8787 91.0005 50.7303 91.0005ZM56.6405 86.3677H55.742C55.5858 86.3677 55.4334 86.3911 55.2889 86.4224H46.1756C46.0311 86.3872 45.8787 86.3677 45.7225 86.3677H44.8201C44.0779 86.3677 43.4373 85.9614 43.0896 85.3599H58.3706C58.023 85.9614 57.3827 86.3677 56.6405 86.3677ZM64.66 61.1797C61.2108 64.3789 59.1092 68.7461 58.7264 73.3437H55.3514V54.2617H57.3123C60.0467 54.2617 62.2732 52.0351 62.2732 49.3008C62.2732 46.5665 60.0466 44.3399 57.3123 44.3399C54.578 44.3399 52.3514 46.5665 52.3514 49.3008V51.2617H49.1131V49.3008C49.1131 46.5664 46.8865 44.3399 44.1522 44.3399C41.4179 44.3399 39.1913 46.5665 39.1913 49.3008C39.1913 52.0351 41.4179 54.2617 44.1522 54.2617H46.1131V73.3437H42.7342C42.3514 68.746 40.2498 64.3789 36.8006 61.1797C32.1131 56.832 29.7537 50.6677 30.3279 44.2657C31.2146 34.379 39.3552 26.4107 49.2689 25.7267C49.761 25.6915 50.2454 25.6837 50.7298 25.6837C51.2141 25.6837 51.6985 25.6954 52.1907 25.7267C62.1048 26.4103 70.2497 34.3829 71.1317 44.2697C71.702 50.6681 69.3475 56.8357 64.66 61.1797ZM55.3514 51.2617V49.3008C55.3514 48.2188 56.2303 47.3399 57.3123 47.3399C58.3904 47.3399 59.2732 48.2188 59.2732 49.3008C59.2732 50.3789 58.3942 51.2617 57.3123 51.2617H55.3514Z" fill="#8FD2EA"/>
<path d="M58.7264 73.3437C59.1092 68.7461 61.2108 64.3789 64.66 61.1797C69.3475 56.8357 71.702 50.6681 71.1317 44.2697C70.2497 34.3829 62.1048 26.4103 52.1907 25.7267C51.6985 25.6954 51.2141 25.6837 50.7298 25.6837C50.2454 25.6837 49.761 25.6915 49.2689 25.7267C39.3552 26.4107 31.2146 34.379 30.3279 44.2657C29.7537 50.6677 32.1131 56.832 36.8006 61.1797C40.2498 64.3789 42.3514 68.746 42.7342 73.3437H46.1131V54.2617H44.1522C41.4179 54.2617 39.1913 52.0351 39.1913 49.3008C39.1913 46.5665 41.4179 44.3399 44.1522 44.3399C46.8865 44.3399 49.1131 46.5664 49.1131 49.3008V51.2617H52.3514V49.3008C52.3514 46.5665 54.578 44.3399 57.3123 44.3399C60.0466 44.3399 62.2732 46.5665 62.2732 49.3008C62.2732 52.0351 60.0467 54.2617 57.3123 54.2617H55.3514V73.3437H58.7264Z" fill="#8FD2EA"/>
<path d="M46.1092 51.2619H44.1483C43.0702 51.2619 42.1874 50.383 42.1874 49.301C42.1874 48.2229 43.0663 47.3401 44.1483 47.3401C45.2303 47.3401 46.1092 48.219 46.1092 49.301V51.2619Z" fill="#8FD2EA"/>
<path d="M52.3475 54.2619H49.1092V73.3439H52.3475V54.2619Z" fill="#8FD2EA"/>
<path d="M55.3514 51.2617V49.3008C55.3514 48.2188 56.2303 47.3399 57.3123 47.3399C58.3904 47.3399 59.2732 48.2188 59.2732 49.3008C59.2732 50.3789 58.3942 51.2617 57.3123 51.2617H55.3514Z" fill="#8FD2EA"/>
<path d="M58.6482 76.3439V77.8517H42.8122V76.3439H58.6482Z" fill="#8FD2EA"/>
<path d="M42.8123 82.3599V80.8521H58.6483V82.3599H42.8123Z" fill="#8FD2EA"/>
<path d="M56.6405 86.3677H55.742C55.5858 86.3677 55.4334 86.3911 55.2889 86.4224H46.1756C46.0311 86.3872 45.8787 86.3677 45.7225 86.3677H44.8201C44.0779 86.3677 43.4373 85.9614 43.0896 85.3599H58.3706C58.023 85.9614 57.3827 86.3677 56.6405 86.3677Z" fill="#8FD2EA"/>
<path d="M50.7303 91.0005C49.5819 91.0005 48.5936 90.2388 48.0858 89.4263H53.371C52.8671 90.2388 51.8787 91.0005 50.7303 91.0005Z" fill="#8FD2EA"/>
<path fill-rule="evenodd" clip-rule="evenodd" d="M58.7264 73.3442L62.7286 73.3444C62.6758 73.841 62.649 74.3413 62.649 74.8434V84.359C62.649 87.4254 60.3444 89.9605 57.3756 90.3238C56.4577 92.7965 53.9147 94.9996 50.7311 94.9996C47.5475 94.9996 45.0045 92.7965 44.0866 90.3238C41.1179 89.9606 38.8132 87.4215 38.8132 84.359V74.8434C38.8132 74.3411 38.7864 73.8407 38.7336 73.3442H42.7342H46.1131L49.1092 73.3444H52.3475L55.3514 73.3442H58.7264ZM58.6482 76.3444V77.8522H42.8122V76.3444H58.6482ZM42.8123 82.3604V80.8526H58.6483V82.3604H42.8123ZM50.7303 91.001C49.5819 91.001 48.5936 90.2393 48.0858 89.4268H53.371C52.8671 90.2393 51.8787 91.001 50.7303 91.001ZM56.6405 86.3682H55.742C55.5858 86.3682 55.4334 86.3916 55.2889 86.4229H46.1756C46.0311 86.3877 45.8787 86.3682 45.7225 86.3682H44.8201C44.0779 86.3682 43.4373 85.9619 43.0896 85.3604H58.3706C58.023 85.9619 57.3827 86.3682 56.6405 86.3682Z" fill="#4195C4"/>
<path d="M42.8123 82.3604V80.8526H58.6483V82.3604H42.8123Z" fill="#4195C4"/>
<path d="M56.6405 86.3682H55.742C55.5858 86.3682 55.4334 86.3916 55.2889 86.4229H46.1756C46.0311 86.3877 45.8787 86.3682 45.7225 86.3682H44.8201C44.0779 86.3682 43.4373 85.9619 43.0896 85.3604H58.3706C58.023 85.9619 57.3827 86.3682 56.6405 86.3682Z" fill="#4195C4"/>
<path d="M50.7303 91.001C49.5819 91.001 48.5936 90.2393 48.0858 89.4268H53.371C52.8671 90.2393 51.8787 91.001 50.7303 91.001Z" fill="#4195C4"/>
<path d="M58.6482 76.3444V77.8522H42.8122V76.3444H58.6482Z" fill="#4195C4"/>
<path fill-rule="evenodd" clip-rule="evenodd" d="M83.93 19.4505C84.1272 19.7121 84.528 20.6087 83.8423 22.9133C83.181 25.1356 81.6812 28.0027 79.2828 31.3451C74.5113 37.9942 66.661 45.8663 56.8284 53.2757C46.9959 60.6851 37.2648 66.0615 29.5581 68.8153C25.6842 70.1996 22.5147 70.851 20.1962 70.8741C17.7919 70.898 17.0405 70.2656 16.8433 70.004C16.6462 69.7423 16.2453 68.8457 16.9311 66.5411C17.5924 64.3188 19.0921 61.4517 21.4906 58.1094C22.9827 56.0301 24.7758 53.8313 26.8365 51.5644C26.5545 50.4366 26.427 48.9506 26.3273 47.7876C26.3048 47.5252 26.2837 47.2792 26.2626 47.0575C15.9051 57.8052 10.7252 67.7007 14.0481 72.1103C18.7691 78.3753 38.8655 71.1942 58.9348 56.0709C79.004 40.9477 91.4463 23.6091 86.7253 17.3441C83.3022 12.8016 71.7957 15.328 58.0772 22.8255C59.7199 23.4104 60.6325 23.8094 62.2527 24.5757C65.4407 22.9458 68.4576 21.6245 71.2153 20.6391C75.0892 19.2548 78.2587 18.6035 80.5772 18.5804C82.9815 18.5564 83.7329 19.1888 83.93 19.4505Z" fill="#4195C4"/>
<path d="M21 66.5C22.2687 63.2744 23.2781 61.6572 25.5 59" stroke="#4195C4" stroke-width="3.5" stroke-linecap="round"/>
<path d="M70.5 24.5001C74.0243 23.1191 76.1011 22.6047 80 22.0001" stroke="#4195C4" stroke-width="3.5" stroke-linecap="round"/>
<path fill-rule="evenodd" clip-rule="evenodd" d="M16.8434 19.4505C16.6462 19.7121 16.2454 20.6087 16.9312 22.9133C17.5924 25.1356 19.0922 28.0027 21.4907 31.3451C23.1286 33.6275 25.1293 36.0541 27.4484 38.5566L27.4478 38.5588C26.9892 40.1824 26.7832 40.9116 26.5001 42.6426C15.9845 31.8002 10.7 21.7873 14.0482 17.3441C17.4911 12.7752 29.1117 15.3576 42.9356 22.9567L43.0001 22.9922C48.1125 25.8069 53.5247 29.3066 58.9349 33.3835C79.0041 48.5068 91.4463 65.8454 86.7253 72.1103C83.7813 76.0172 74.8577 74.695 63.6902 69.4785C64.2324 68.2056 64.594 67.553 65.3751 66.4023C67.4198 67.3508 69.3753 68.1578 71.2153 68.8153C75.0893 70.1996 78.2588 70.851 80.5773 70.8741C82.9815 70.898 83.733 70.2656 83.9301 70.004C84.1273 69.7423 84.5281 68.8457 83.8423 66.5411C83.1811 64.3188 81.6813 61.4517 79.2828 58.1094C74.5114 51.4603 66.6611 43.5881 56.8285 36.1787C50.6418 31.5167 44.4953 27.6596 38.868 24.7541C35.5517 23.0419 32.4158 21.6602 29.5582 20.6391C25.6842 19.2548 22.5147 18.6035 20.1963 18.5804C17.792 18.5564 17.0406 19.1888 16.8434 19.4505Z" fill="#4195C4"/>
<path d="M49.5 17.5V11" stroke="#4195C4" stroke-width="3.5" stroke-linecap="round"/>
<path d="M15.75 48.5V42" stroke="#4195C4" stroke-width="3.5" stroke-linecap="round"/>
<path d="M69.75 81.5V75" stroke="#4195C4" stroke-width="3.5" stroke-linecap="round"/>
<path d="M52.75 14.25H46.25" stroke="#4195C4" stroke-width="3.5" stroke-linecap="round"/>
<path d="M19 45.25H12.5" stroke="#4195C4" stroke-width="3.5" stroke-linecap="round"/>
<path d="M73 78.25H66.5" stroke="#4195C4" stroke-width="3.5" stroke-linecap="round"/>
<circle cx="28.5" cy="82" r="3.25" stroke="#4195C4" stroke-width="3.5"/>
<circle cx="86.5" cy="45" r="3.25" stroke="#4195C4" stroke-width="3.5"/>
</svg>
