<svg width="101" height="100" viewBox="0 0 101 100" fill="none" xmlns="http://www.w3.org/2000/svg">
<path fill-rule="evenodd" clip-rule="evenodd" d="M71.6514 65.1549C73.8172 62.8683 76.8705 61.4343 80.2671 61.4343L80.2679 61.4352C86.8311 61.4352 92.1488 66.7618 92.1488 73.3357C92.1488 79.906 86.8311 85.2325 80.2679 85.2325C73.7048 85.2325 68.3871 79.9023 68.3871 73.332C68.3871 71.1077 69.008 69.0298 70.0708 67.2482L64.1029 62.9789L65.9355 61.0648L71.6514 65.1549ZM66.6002 38.4495L73.3386 33.6717C75.1246 35.5887 77.663 36.7959 80.4862 36.7959C85.8989 36.7959 90.2783 32.4096 90.2783 26.9951C90.2783 21.5807 85.8992 17.1943 80.4936 17.1943C75.0919 17.1943 70.709 21.5807 70.709 26.9951C70.709 28.634 71.1144 30.1778 71.8266 31.5351L65.0041 36.3715L66.6002 38.4495ZM49.4786 28.7292L49.4895 22.1296C53.35 21.5077 56.3011 18.1639 56.3011 14.1215C56.3011 9.63636 52.6707 6 48.193 6C43.7152 6 40.0849 9.63636 40.0849 14.1215C40.0849 18.153 43.0249 21.4894 46.8708 22.1259L46.8599 28.7329L49.4786 28.7292ZM32.5359 35.1385L27.7149 31.0924C28.6974 29.545 29.2744 27.7158 29.2744 25.744C29.2744 20.2273 24.8114 15.7569 19.3037 15.7569C13.7961 15.7569 9.33301 20.2273 9.33301 25.744C9.33301 31.2607 13.7961 35.7312 19.3037 35.7312C21.9005 35.7312 24.2563 34.7288 26.0312 33.1008L30.7829 37.0884L32.5359 35.1385ZM31.0532 61.8193L24.2891 67.1568C22.5579 65.4849 20.2094 64.4533 17.6164 64.4533C12.3095 64.4606 8 68.7775 8 74.1005C8 79.4234 12.3097 83.7402 17.6238 83.7402C22.9379 83.7402 27.2477 79.4234 27.2477 74.1005C27.2477 72.3189 26.7583 70.6544 25.9146 69.224L32.9197 63.6927L31.0532 61.8193ZM82.6593 23.3143C82.7324 22.1217 81.6878 21.1486 80.4935 21.1486C79.2993 21.1486 78.2547 22.1217 78.3314 23.3143C78.3642 23.8265 78.5103 24.8508 78.5943 25.3593C78.755 26.369 79.4453 27.2653 80.4935 27.2653C81.5454 27.2653 82.1699 26.4311 82.3964 25.3593C82.5023 24.8544 82.6265 23.8301 82.6593 23.3143ZM78.4007 28.0881C76.8231 28.0881 75.5009 29.2112 75.216 30.6965L74.9162 32.4085L86.0669 32.4122L85.7674 30.7074C85.4863 29.2184 84.1678 28.0881 82.5827 28.0881H78.4007ZM21.3811 21.8545C21.4542 20.7095 20.4535 19.7803 19.3103 19.7803C18.167 19.7803 17.1664 20.7094 17.2357 21.8545C17.2686 22.3447 17.4074 23.3251 17.4878 23.8117C17.6412 24.7775 18.3022 25.6335 19.3066 25.6335C20.3146 25.6335 20.9136 24.8397 21.1291 23.8117C21.2313 23.3288 21.3482 22.3484 21.3811 21.8545ZM14.2555 28.9189L13.9706 30.5579H24.65L24.3614 28.9262C24.0912 27.5031 22.8275 26.4203 21.3118 26.4203H17.3052C15.7931 26.4203 14.5294 27.4995 14.2555 28.9189ZM19.712 70.2502C19.785 69.0978 18.777 68.1577 17.6229 68.1577C16.4687 68.1577 15.4608 69.0978 15.5302 70.2502C15.5631 70.7478 15.7055 71.7355 15.7859 72.2258C15.9429 73.1988 16.6076 74.0658 17.623 74.0658C18.6346 74.0658 19.2409 73.2611 19.46 72.2258C19.5623 71.7391 19.6792 70.7478 19.712 70.2502ZM12.5279 77.3763L12.2394 79.0298H23.0064L22.7179 77.3836C22.4476 75.9459 21.1729 74.8557 19.6426 74.8557H15.6032C14.0765 74.8557 12.8055 75.9423 12.5279 77.3763ZM49.8841 11.0913C49.9462 10.1292 49.1024 9.34266 48.1383 9.34266C47.1777 9.34266 46.3341 10.1293 46.3925 11.0913C46.4181 11.5047 46.5386 12.3315 46.6044 12.7412C46.7358 13.5534 47.291 14.2777 48.1383 14.2777C48.9856 14.2777 49.4896 13.6083 49.6723 12.7412C49.7563 12.3315 49.8585 11.5047 49.8841 11.0913ZM43.8833 17.0434L43.6423 18.4263L52.6379 18.4299L52.3969 17.0543C52.1668 15.8508 51.104 14.9398 49.8257 14.9398H46.4509C45.1799 14.9398 44.1134 15.8471 43.8833 17.0434ZM82.7358 68.695C82.8235 67.3305 81.6328 66.222 80.2669 66.222C78.9046 66.222 77.7139 67.3305 77.8016 68.695C77.8381 69.284 78.0061 70.451 78.1011 71.0291C78.2837 72.1815 79.069 73.2021 80.2669 73.2021C81.4648 73.2021 82.1807 72.2546 82.4363 71.0291C82.5569 70.451 82.6993 69.2804 82.7358 68.695ZM74.2442 77.113L73.9046 79.0665H86.6255L86.2859 77.124C85.9645 75.4265 84.4597 74.1352 82.6518 74.1352H77.8783C76.0777 74.1352 74.5693 75.4192 74.2442 77.113Z" fill="#4195C4"/>
<path d="M13.9706 30.5579L14.2555 28.9189C14.5294 27.4995 15.7931 26.4203 17.3052 26.4203H21.3118C22.8275 26.4203 24.0912 27.5031 24.3614 28.9262L24.65 30.5579H13.9706Z" fill="#8FD2EA"/>
<path d="M19.3103 19.7803C20.4535 19.7803 21.4542 20.7095 21.3811 21.8545C21.3482 22.3484 21.2313 23.3288 21.1291 23.8117C20.9136 24.8397 20.3146 25.6335 19.3066 25.6335C18.3022 25.6335 17.6412 24.7775 17.4878 23.8117C17.4074 23.3251 17.2686 22.3447 17.2357 21.8545C17.1664 20.7094 18.167 19.7803 19.3103 19.7803Z" fill="#8FD2EA"/>
<path d="M43.6423 18.4262L43.8833 17.0434C44.1134 15.8471 45.1799 14.9398 46.4509 14.9398H49.8257C51.104 14.9398 52.1668 15.8508 52.3969 17.0543L52.6379 18.4299L43.6423 18.4262Z" fill="#8FD2EA"/>
<path d="M48.1383 9.34266C49.1024 9.34266 49.9462 10.1292 49.8841 11.0913C49.8585 11.5047 49.7563 12.3315 49.6723 12.7412C49.4896 13.6083 48.9856 14.2777 48.1383 14.2777C47.291 14.2777 46.7358 13.5534 46.6044 12.7412C46.5386 12.3315 46.4181 11.5047 46.3925 11.0913C46.3341 10.1293 47.1777 9.34266 48.1383 9.34266Z" fill="#8FD2EA"/>
<path d="M75.216 30.6965C75.5009 29.2112 76.8231 28.0881 78.4007 28.0881H82.5827C84.1678 28.0881 85.4863 29.2184 85.7674 30.7074L86.0669 32.4122L74.9163 32.4085L75.216 30.6965Z" fill="#8FD2EA"/>
<path d="M80.4935 21.1486C81.6878 21.1486 82.7324 22.1217 82.6593 23.3143C82.6265 23.8301 82.5023 24.8544 82.3964 25.3593C82.1699 26.4311 81.5454 27.2653 80.4935 27.2653C79.4453 27.2653 78.755 26.369 78.5943 25.3593C78.5103 24.8508 78.3643 23.8265 78.3314 23.3143C78.2547 22.1217 79.2993 21.1486 80.4935 21.1486Z" fill="#8FD2EA"/>
<path d="M73.9046 79.0665L74.2442 77.113C74.5693 75.4192 76.0777 74.1351 77.8783 74.1351H82.6518C84.4597 74.1351 85.9645 75.4265 86.2859 77.124L86.6255 79.0665H73.9046Z" fill="#8FD2EA"/>
<path d="M80.2669 66.222C81.6328 66.222 82.8235 67.3305 82.7358 68.695C82.6993 69.2804 82.5569 70.451 82.4363 71.0291C82.1807 72.2546 81.4648 73.2021 80.2669 73.2021C79.069 73.2021 78.2837 72.1815 78.1011 71.0291C78.0061 70.451 77.8381 69.284 77.8016 68.695C77.7139 67.3305 78.9046 66.222 80.2669 66.222Z" fill="#8FD2EA"/>
<path d="M17.6229 68.1577C18.777 68.1577 19.785 69.0978 19.712 70.2502C19.6792 70.7478 19.5623 71.7391 19.46 72.2258C19.2409 73.2611 18.6346 74.0658 17.623 74.0658C16.6076 74.0658 15.9429 73.1988 15.7859 72.2258C15.7055 71.7355 15.5631 70.7478 15.5302 70.2502C15.4608 69.0978 16.4687 68.1577 17.6229 68.1577Z" fill="#8FD2EA"/>
<path d="M12.2394 79.0298L12.5279 77.3763C12.8055 75.9423 14.0765 74.8557 15.6032 74.8557H19.6426C21.1729 74.8557 22.4476 75.9459 22.7179 77.3836L23.0064 79.0298H12.2394Z" fill="#8FD2EA"/>
<path d="M70.7784 48.0262C69.8167 37.2843 60.9695 28.6255 50.1994 27.8796C49.1418 27.8051 48.1091 27.8051 47.048 27.8796C36.2779 28.6213 27.4301 37.2843 26.4689 48.0262C25.8479 54.9712 28.4101 61.6608 33.4955 66.3804C35.8876 68.5986 37.3877 71.5971 37.7244 74.7665C37.7723 75.2176 37.7967 75.6722 37.7967 76.1285V84.7733C37.7967 87.5555 39.8905 89.8623 42.5875 90.1922C43.4215 92.4387 45.7317 94.4402 48.624 94.4402C51.5162 94.4402 53.8265 92.4387 54.6604 90.1922C57.3575 89.8622 59.4512 87.5591 59.4512 84.7733V76.1285C59.4512 75.6724 59.4756 75.2178 59.5236 74.7667C59.8604 71.599 61.3605 68.598 63.7524 66.3804C68.8378 61.6606 71.3995 54.9707 70.7784 48.0262ZM55.8165 77.4921V78.8619H41.4297V77.4921H55.8165ZM44.425 54.7055H42.6436C41.6641 54.7055 40.8621 53.907 40.8621 52.924C40.8621 51.9446 41.6606 51.1425 42.6436 51.1425C43.6265 51.1425 44.425 51.941 44.425 52.924V54.7055ZM47.1505 57.4309H50.0924V74.7667H47.1505V57.4309ZM41.4298 82.9576V81.5878H55.8166V82.9576H41.4298ZM48.6232 90.8075C47.5799 90.8075 46.6821 90.1155 46.2207 89.3773H51.0223C50.5645 90.1155 49.6665 90.8075 48.6232 90.8075ZM53.9926 86.5986H53.1763C53.0344 86.5986 52.896 86.6199 52.7647 86.6483H44.4854C44.3541 86.6164 44.2157 86.5986 44.0737 86.5986H43.2539C42.5797 86.5986 41.9977 86.2296 41.6818 85.6831H55.5644C55.2486 86.2296 54.6669 86.5986 53.9926 86.5986ZM61.2782 63.7156C58.1446 66.6221 56.2354 70.5896 55.8876 74.7665H52.8214V57.4307H54.6029C57.0871 57.4307 59.1098 55.4079 59.1098 52.9238C59.1098 50.4397 57.087 48.4169 54.6029 48.4169C52.1188 48.4169 50.096 50.4397 50.096 52.9238V54.7053H47.154V52.9238C47.154 50.4396 45.1312 48.4169 42.6471 48.4169C40.163 48.4169 38.1402 50.4397 38.1402 52.9238C38.1402 55.4079 40.163 57.4307 42.6471 57.4307H44.4286V74.7665H41.3589C41.0111 70.5895 39.1018 66.6221 35.9683 63.7156C31.7097 59.7658 29.5662 54.1656 30.0879 48.3495C30.8935 39.3675 38.2891 32.1284 47.2956 31.507C47.7427 31.4751 48.1828 31.468 48.6228 31.468C49.0628 31.468 49.5029 31.4786 49.95 31.507C58.9568 32.1281 66.3564 39.3711 67.1576 48.3531C67.6758 54.166 65.5367 59.7692 61.2782 63.7156ZM52.8214 54.7053V52.9238C52.8214 51.9408 53.6199 51.1424 54.6029 51.1424C55.5823 51.1424 56.3843 51.9408 56.3843 52.9238C56.3843 53.9033 55.5859 54.7053 54.6029 54.7053H52.8214Z" fill="#8FD2EA"/>
<path d="M55.8876 74.7665C56.2354 70.5896 58.1446 66.6221 61.2782 63.7156C65.5367 59.7692 67.6758 54.166 67.1576 48.3531C66.3564 39.3711 58.9568 32.1281 49.95 31.507C49.5029 31.4786 49.0628 31.468 48.6228 31.468C48.1828 31.468 47.7427 31.4751 47.2956 31.507C38.2891 32.1284 30.8935 39.3675 30.0879 48.3495C29.5662 54.1656 31.7097 59.7658 35.9683 63.7156C39.1018 66.6221 41.0111 70.5895 41.3589 74.7665H44.4286V57.4307H42.6471C40.163 57.4307 38.1402 55.4079 38.1402 52.9238C38.1402 50.4397 40.163 48.4169 42.6471 48.4169C45.1312 48.4169 47.154 50.4396 47.154 52.9238V54.7053H50.096V52.9238C50.096 50.4397 52.1188 48.4169 54.6029 48.4169C57.087 48.4169 59.1098 50.4397 59.1098 52.9238C59.1098 55.4079 57.0871 57.4307 54.6029 57.4307H52.8214V74.7665H55.8876Z" fill="#8FD2EA"/>
<path d="M44.425 54.7055H42.6436C41.6641 54.7055 40.8621 53.907 40.8621 52.924C40.8621 51.9446 41.6606 51.1425 42.6436 51.1425C43.6265 51.1425 44.425 51.941 44.425 52.924V54.7055Z" fill="#8FD2EA"/>
<path d="M50.0924 57.4309H47.1505V74.7667H50.0924V57.4309Z" fill="#8FD2EA"/>
<path d="M52.8214 54.7053V52.9238C52.8214 51.9408 53.6199 51.1424 54.6029 51.1424C55.5823 51.1424 56.3843 51.9408 56.3843 52.9238C56.3843 53.9033 55.5859 54.7053 54.6029 54.7053H52.8214Z" fill="#8FD2EA"/>
<path d="M55.8165 77.4921V78.8619H41.4297V77.4921H55.8165Z" fill="#8FD2EA"/>
<path d="M41.4298 82.9576V81.5878H55.8166V82.9576H41.4298Z" fill="#8FD2EA"/>
<path d="M53.9926 86.5986H53.1763C53.0344 86.5986 52.896 86.6199 52.7647 86.6483H44.4854C44.3541 86.6164 44.2157 86.5986 44.0737 86.5986H43.2539C42.5797 86.5986 41.9977 86.2296 41.6818 85.6831H55.5644C55.2486 86.2296 54.6669 86.5986 53.9926 86.5986Z" fill="#8FD2EA"/>
<path d="M48.6232 90.8075C47.5799 90.8075 46.6821 90.1155 46.2207 89.3773H51.0223C50.5645 90.1155 49.6665 90.8075 48.6232 90.8075Z" fill="#8FD2EA"/>
<path fill-rule="evenodd" clip-rule="evenodd" d="M55.8876 74.7665L59.5236 74.7667C59.4756 75.2178 59.4512 75.6724 59.4512 76.1285V84.7733C59.4512 87.5591 57.3575 89.8622 54.6604 90.1922C53.8265 92.4387 51.5162 94.4402 48.624 94.4402C45.7317 94.4402 43.4215 92.4387 42.5875 90.1922C39.8905 89.8623 37.7967 87.5555 37.7967 84.7733V76.1285C37.7967 75.6722 37.7723 75.2176 37.7244 74.7665H41.3589H44.4286L47.1505 74.7667H50.0924L52.8214 74.7665H55.8876ZM55.8165 77.4921V78.8619H41.4297V77.4921H55.8165ZM41.4298 82.9576V81.5878H55.8166V82.9576H41.4298ZM48.6232 90.8075C47.5799 90.8075 46.6821 90.1155 46.2207 89.3773H51.0223C50.5645 90.1155 49.6665 90.8075 48.6232 90.8075ZM53.9926 86.5986H53.1763C53.0344 86.5986 52.896 86.6199 52.7647 86.6483H44.4854C44.3541 86.6164 44.2157 86.5986 44.0737 86.5986H43.2539C42.5797 86.5986 41.9977 86.2296 41.6818 85.6831H55.5644C55.2486 86.2296 54.6669 86.5986 53.9926 86.5986Z" fill="#4195C4"/>
<path d="M41.4298 82.9576V81.5878H55.8166V82.9576H41.4298Z" fill="#4195C4"/>
<path d="M53.9926 86.5986H53.1763C53.0344 86.5986 52.896 86.6199 52.7647 86.6483H44.4854C44.3541 86.6164 44.2157 86.5986 44.0737 86.5986H43.2539C42.5797 86.5986 41.9977 86.2296 41.6818 85.6831H55.5644C55.2486 86.2296 54.6669 86.5986 53.9926 86.5986Z" fill="#4195C4"/>
<path d="M48.6232 90.8075C47.5799 90.8075 46.6821 90.1155 46.2207 89.3773H51.0223C50.5645 90.1155 49.6665 90.8075 48.6232 90.8075Z" fill="#4195C4"/>
<path d="M55.8165 77.4921V78.8619H41.4297V77.4921H55.8165Z" fill="#4195C4"/>
</svg>
