<svg width="131" height="64" viewBox="0 0 131 64" fill="none" xmlns="http://www.w3.org/2000/svg">
<mask id="path-1-outside-1_4463_152414" maskUnits="userSpaceOnUse" x="-0.0146484" y="48.6064" width="131" height="9" fill="black">
<rect fill="white" x="-0.0146484" y="48.6064" width="131" height="9"/>
<path fill-rule="evenodd" clip-rule="evenodd" d="M84.5075 49.7327C84.2832 49.7977 83.9188 50.0568 83.698 50.3085C83.3774 50.6736 83.2962 50.8825 83.2962 51.3423C83.2962 52.3816 83.9203 52.7924 86.0355 53.1458C86.8058 53.2746 87.182 53.6568 87.182 54.3109C87.182 55.3211 86.3609 55.9102 85.1442 55.7731C84.4324 55.6928 83.9552 55.3622 83.6418 54.7315C83.3537 54.1523 82.9644 54.0663 83.0938 54.6104C83.2129 55.1122 83.5738 55.5711 84.087 55.8733C84.7356 56.2554 86.1713 56.2372 86.812 55.8388C88.0486 55.0698 87.928 53.2576 86.6125 52.8383C86.3914 52.7679 85.8174 52.6437 85.337 52.5623C83.9584 52.3289 83.4794 51.7586 83.8722 50.8181C84.3655 49.6379 86.4968 49.7242 86.9373 50.9424C87.1184 51.4431 87.441 51.5691 87.441 51.1391C87.441 50.0309 85.9485 49.3153 84.5075 49.7327ZM118.333 49.7843C117.658 50.021 116.925 50.8496 116.701 51.6279C116.283 53.0887 116.709 55.0297 117.585 55.6538C118.453 56.2719 119.826 56.3389 120.702 55.8059C121.153 55.532 121.634 54.8477 121.635 54.4809C121.636 54.0735 121.317 54.2425 121.053 54.7896C120.351 56.2409 118.145 56.1162 117.365 54.5815C116.893 53.6533 116.895 52.1279 117.369 51.2068C118.167 49.6553 120.344 49.5322 121.053 50.9987C121.307 51.5255 121.535 51.6318 121.608 51.2579C121.674 50.919 121.066 50.1815 120.474 49.8827C119.817 49.551 119.093 49.5177 118.333 49.7843ZM3.33819 49.8117C3.30231 49.8699 2.79509 51.1701 2.21119 52.7011C1.62729 54.232 1.09896 55.6158 1.03705 55.7761C0.945341 56.0137 0.968656 56.0675 1.16359 56.0675C1.34519 56.0675 1.49556 55.8112 1.79023 54.999L2.17803 53.9304L3.59258 53.894L5.00712 53.8577L5.39117 54.9143C5.74063 55.8756 5.98737 56.2225 6.18257 56.0273C6.22246 55.9875 5.72949 54.5669 5.0873 52.8702C4.14254 50.3746 3.87028 49.7779 3.66162 49.7458C3.51966 49.7239 3.3742 49.7536 3.33819 49.8117ZM10.015 52.8618L10.0497 56.0028L11.9602 56.0387C13.6026 56.0695 13.8707 56.0467 13.8707 55.8768C13.8707 55.7095 13.6103 55.679 12.1868 55.679H10.503V52.6999C10.503 49.7984 10.4961 49.7208 10.2416 49.7208C9.98582 49.7208 9.98103 49.7865 10.015 52.8618ZM18.2964 52.8492C17.6413 54.5698 17.1326 56.005 17.1662 56.0385C17.3572 56.2297 17.6342 55.8378 17.9642 54.9089L18.3376 53.8577L19.7445 53.8941L21.1514 53.9304L21.555 54.999C21.8639 55.8169 22.0159 56.0675 22.2028 56.0675C22.3831 56.0675 22.4236 56.0082 22.3577 55.8409C22.3085 55.7161 21.7668 54.2881 21.1539 52.6675C20.1811 50.0953 20.0045 49.7208 19.7636 49.7208C19.5224 49.7208 19.3372 50.1156 18.2964 52.8492ZM26.1756 52.8942C26.1756 55.6286 26.2024 56.0675 26.3699 56.0675C26.5363 56.0675 26.5641 55.6853 26.5641 53.4046C26.5641 51.9401 26.6114 50.771 26.6693 50.8067C26.7271 50.8425 27.2953 52.0423 27.9321 53.4729C28.7421 55.2932 29.1462 56.0633 29.2784 56.0378C29.3851 56.0172 29.9761 54.8646 30.6385 53.3855L31.8099 50.7694L31.8449 53.4274C31.8771 55.8665 31.8985 56.0819 32.1039 56.0424C32.3078 56.0033 32.3311 55.7165 32.3627 52.8601L32.3974 49.7208H32.1026C31.8429 49.7208 31.6625 50.0529 30.5847 52.5141C29.912 54.0504 29.3295 55.3261 29.2904 55.3492C29.2514 55.3721 28.6657 54.1162 27.9889 52.5583C26.911 50.0769 26.7223 49.7252 26.467 49.7231L26.1756 49.7208V52.8942ZM36.7966 52.8974V56.0742L38.826 56.0384C40.3083 56.0124 40.87 55.9591 40.9092 55.8409C40.9505 55.7165 40.5406 55.679 39.1389 55.679H37.3147V54.319V52.9589H38.9338C40.2866 52.9589 40.5529 52.9269 40.5529 52.7646C40.5529 52.6024 40.2866 52.5704 38.9338 52.5704H37.3147V51.3399V50.1094H39.0633C40.5312 50.1094 40.8119 50.0782 40.8119 49.9151C40.8119 49.7507 40.5025 49.7208 38.8043 49.7208H36.7966V52.8974ZM44.9567 52.8942V56.0675L46.1549 56.0668C48.1278 56.0656 48.9262 55.6994 49.5225 54.5223C50.1362 53.3109 49.9876 51.5737 49.1927 50.6684C48.5329 49.9169 47.9612 49.7269 46.3491 49.7236L44.9567 49.7208V52.8942ZM55.14 50.9115C53.8231 54.3354 53.2464 55.8751 53.2464 55.9664C53.2464 56.022 53.3304 56.0675 53.4333 56.0675C53.5487 56.0675 53.7801 55.6463 54.0384 54.9666L54.4566 53.8656H55.8419H57.2272L57.6428 54.9666C57.8964 55.6386 58.1302 56.0675 58.2428 56.0675C58.3443 56.0675 58.4261 55.9948 58.4245 55.9056C58.423 55.8167 57.9126 54.4031 57.2905 52.7646C55.9041 49.1131 55.8497 49.0662 55.14 50.9115ZM66.976 52.8942C66.976 55.6286 67.0029 56.0675 67.1703 56.0675C67.3307 56.0675 67.3646 55.8301 67.3646 54.7075V53.3475H68.3691H69.3736L70.0853 54.7056C70.5733 55.637 70.8683 56.0643 71.0237 56.0656C71.1483 56.0666 71.2504 56.0287 71.2504 55.9812C71.2504 55.9336 70.9589 55.3493 70.6027 54.6828C70.2465 54.0161 69.9555 53.4283 69.9559 53.3767C69.9564 53.325 70.13 53.1842 70.3418 53.0636C71.1966 52.5772 71.504 51.3689 70.988 50.5226C70.6007 49.8872 70.0646 49.7208 68.405 49.7208H66.976V52.8942ZM75.3952 52.8942V56.0675H77.4028C79.0839 56.0675 79.4105 56.0366 79.4105 55.8769C79.4105 55.72 79.0947 55.6799 77.6295 55.6502L75.8485 55.6142V54.319V53.0237L77.5094 52.9874C78.7456 52.9604 79.157 52.9106 79.1179 52.7931C79.0812 52.6825 78.573 52.6242 77.4246 52.5989L75.7838 52.5626V51.336V50.1094H77.5971C79.1227 50.1094 79.4105 50.0786 79.4105 49.9151C79.4105 49.7507 79.101 49.7208 77.4028 49.7208H75.3952V52.8942ZM91.7154 52.8974V56.0742L93.7448 56.0384C95.2271 56.0124 95.7887 55.9591 95.8279 55.8409C95.8692 55.7165 95.4593 55.679 94.0576 55.679H92.2335V54.319V52.9589H93.8525C95.2053 52.9589 95.4716 52.9269 95.4716 52.7646C95.4716 52.6024 95.2053 52.5704 93.8525 52.5704H92.2335V51.3399V50.1094H93.9821C95.45 50.1094 95.7306 50.0782 95.7306 49.9151C95.7306 49.7507 95.4212 49.7208 93.723 49.7208H91.7154V52.8974ZM100.816 52.2162C100.3 53.5865 99.7608 55.0136 99.6181 55.3875C99.3742 56.0264 99.3722 56.0675 99.5874 56.0675C99.7559 56.0675 99.9217 55.7847 100.214 54.999L100.612 53.9304L102.025 53.8941L103.439 53.8577L103.813 54.9089C104.146 55.8462 104.419 56.2297 104.616 56.0336C104.665 55.9837 103.178 51.9005 102.399 49.9475C102.349 49.8227 102.184 49.7217 102.031 49.7229C101.79 49.7248 101.631 50.0517 100.816 52.2162ZM108.454 52.8601C108.486 55.7309 108.508 56.003 108.716 56.0429C108.92 56.0822 108.942 55.9516 108.942 54.717V53.3475L109.946 53.3491L110.95 53.3507L111.649 54.7091C112.156 55.695 112.413 56.0675 112.588 56.0675C112.72 56.0675 112.828 56.0416 112.828 56.0099C112.828 55.9783 112.506 55.3447 112.113 54.6018L111.398 53.2514L111.793 53.0881C112.636 52.739 113.042 51.57 112.625 50.6924C112.268 49.9405 111.663 49.7271 109.879 49.7236L108.419 49.7208L108.454 52.8601ZM125.781 52.8942C125.781 55.5981 125.809 56.0675 125.971 56.0675C126.125 56.0675 126.168 55.7809 126.197 54.5456L126.234 53.0237L128.08 52.9878L129.925 52.9518V54.5097C129.925 55.9812 129.94 56.0675 130.184 56.0675C130.436 56.0675 130.443 55.9812 130.443 52.8942C130.443 49.8072 130.436 49.7208 130.184 49.7208C129.941 49.7208 129.925 49.8072 129.925 51.1456V52.5704H128.047H126.169V51.1456C126.169 49.9655 126.136 49.7208 125.975 49.7208C125.807 49.7208 125.781 50.1598 125.781 52.8942ZM48.2037 50.4096C49.0291 50.846 49.4217 51.6595 49.4107 52.9102C49.4044 53.6418 49.3324 53.9885 49.0886 54.4623C48.6312 55.351 48.0647 55.6103 46.5758 55.6125L45.4101 55.6142L45.3751 52.8618L45.3401 50.1094H46.4881C47.4388 50.1094 47.7335 50.1609 48.2037 50.4096ZM70.0872 50.305C70.5688 50.554 70.7323 50.8645 70.7323 51.5301C70.7323 52.617 70.185 52.9589 68.4463 52.9589H67.3646V51.5342V50.1094H68.5368C69.329 50.1094 69.8316 50.1728 70.0872 50.305ZM111.665 50.305C112.145 50.5534 112.31 50.8644 112.31 51.5235C112.31 51.92 112.218 52.1515 111.932 52.4711C111.56 52.8885 111.537 52.8948 110.248 52.9387L108.942 52.9832V51.5463V50.1094H110.114C110.907 50.1094 111.409 50.1728 111.665 50.305ZM4.26585 51.8949C4.56182 52.6989 4.8039 53.3838 4.8039 53.4168C4.8039 53.45 4.27932 53.477 3.63817 53.477C2.86789 53.477 2.47244 53.4281 2.47244 53.3327C2.47244 53.0525 3.57445 50.2576 3.65061 50.3447C3.69309 50.3934 3.97002 51.0909 4.26585 51.8949ZM20.3357 51.7137C20.6268 52.4891 20.865 53.2031 20.865 53.3004C20.865 53.4366 20.5955 53.477 19.6854 53.477C18.7961 53.477 18.5206 53.4371 18.566 53.3151C19.0917 51.8976 19.7474 50.2438 19.7731 50.27C19.7914 50.2885 20.0445 50.9382 20.3357 51.7137ZM57.0026 53.3725C57.0026 53.43 56.478 53.477 55.8369 53.477C55.1957 53.477 54.6711 53.43 54.6711 53.3725C54.6711 53.3151 54.8947 52.6885 55.168 51.9801C55.4413 51.2719 55.7079 50.5757 55.7604 50.4332C55.8332 50.2355 55.9918 50.5406 56.4293 51.7211C56.7446 52.5718 57.0026 53.3149 57.0026 53.3725ZM102.655 51.7932C102.927 52.5412 103.177 53.2261 103.21 53.3151C103.256 53.4373 102.981 53.477 102.091 53.477C101.262 53.477 100.912 53.4311 100.912 53.3221C100.912 53.0391 102.011 50.2532 102.087 50.3439C102.128 50.393 102.384 51.0452 102.655 51.7932Z"/>
</mask>
<path fill-rule="evenodd" clip-rule="evenodd" d="M84.5075 49.7327C84.2832 49.7977 83.9188 50.0568 83.698 50.3085C83.3774 50.6736 83.2962 50.8825 83.2962 51.3423C83.2962 52.3816 83.9203 52.7924 86.0355 53.1458C86.8058 53.2746 87.182 53.6568 87.182 54.3109C87.182 55.3211 86.3609 55.9102 85.1442 55.7731C84.4324 55.6928 83.9552 55.3622 83.6418 54.7315C83.3537 54.1523 82.9644 54.0663 83.0938 54.6104C83.2129 55.1122 83.5738 55.5711 84.087 55.8733C84.7356 56.2554 86.1713 56.2372 86.812 55.8388C88.0486 55.0698 87.928 53.2576 86.6125 52.8383C86.3914 52.7679 85.8174 52.6437 85.337 52.5623C83.9584 52.3289 83.4794 51.7586 83.8722 50.8181C84.3655 49.6379 86.4968 49.7242 86.9373 50.9424C87.1184 51.4431 87.441 51.5691 87.441 51.1391C87.441 50.0309 85.9485 49.3153 84.5075 49.7327ZM118.333 49.7843C117.658 50.021 116.925 50.8496 116.701 51.6279C116.283 53.0887 116.709 55.0297 117.585 55.6538C118.453 56.2719 119.826 56.3389 120.702 55.8059C121.153 55.532 121.634 54.8477 121.635 54.4809C121.636 54.0735 121.317 54.2425 121.053 54.7896C120.351 56.2409 118.145 56.1162 117.365 54.5815C116.893 53.6533 116.895 52.1279 117.369 51.2068C118.167 49.6553 120.344 49.5322 121.053 50.9987C121.307 51.5255 121.535 51.6318 121.608 51.2579C121.674 50.919 121.066 50.1815 120.474 49.8827C119.817 49.551 119.093 49.5177 118.333 49.7843ZM3.33819 49.8117C3.30231 49.8699 2.79509 51.1701 2.21119 52.7011C1.62729 54.232 1.09896 55.6158 1.03705 55.7761C0.945341 56.0137 0.968656 56.0675 1.16359 56.0675C1.34519 56.0675 1.49556 55.8112 1.79023 54.999L2.17803 53.9304L3.59258 53.894L5.00712 53.8577L5.39117 54.9143C5.74063 55.8756 5.98737 56.2225 6.18257 56.0273C6.22246 55.9875 5.72949 54.5669 5.0873 52.8702C4.14254 50.3746 3.87028 49.7779 3.66162 49.7458C3.51966 49.7239 3.3742 49.7536 3.33819 49.8117ZM10.015 52.8618L10.0497 56.0028L11.9602 56.0387C13.6026 56.0695 13.8707 56.0467 13.8707 55.8768C13.8707 55.7095 13.6103 55.679 12.1868 55.679H10.503V52.6999C10.503 49.7984 10.4961 49.7208 10.2416 49.7208C9.98582 49.7208 9.98103 49.7865 10.015 52.8618ZM18.2964 52.8492C17.6413 54.5698 17.1326 56.005 17.1662 56.0385C17.3572 56.2297 17.6342 55.8378 17.9642 54.9089L18.3376 53.8577L19.7445 53.8941L21.1514 53.9304L21.555 54.999C21.8639 55.8169 22.0159 56.0675 22.2028 56.0675C22.3831 56.0675 22.4236 56.0082 22.3577 55.8409C22.3085 55.7161 21.7668 54.2881 21.1539 52.6675C20.1811 50.0953 20.0045 49.7208 19.7636 49.7208C19.5224 49.7208 19.3372 50.1156 18.2964 52.8492ZM26.1756 52.8942C26.1756 55.6286 26.2024 56.0675 26.3699 56.0675C26.5363 56.0675 26.5641 55.6853 26.5641 53.4046C26.5641 51.9401 26.6114 50.771 26.6693 50.8067C26.7271 50.8425 27.2953 52.0423 27.9321 53.4729C28.7421 55.2932 29.1462 56.0633 29.2784 56.0378C29.3851 56.0172 29.9761 54.8646 30.6385 53.3855L31.8099 50.7694L31.8449 53.4274C31.8771 55.8665 31.8985 56.0819 32.1039 56.0424C32.3078 56.0033 32.3311 55.7165 32.3627 52.8601L32.3974 49.7208H32.1026C31.8429 49.7208 31.6625 50.0529 30.5847 52.5141C29.912 54.0504 29.3295 55.3261 29.2904 55.3492C29.2514 55.3721 28.6657 54.1162 27.9889 52.5583C26.911 50.0769 26.7223 49.7252 26.467 49.7231L26.1756 49.7208V52.8942ZM36.7966 52.8974V56.0742L38.826 56.0384C40.3083 56.0124 40.87 55.9591 40.9092 55.8409C40.9505 55.7165 40.5406 55.679 39.1389 55.679H37.3147V54.319V52.9589H38.9338C40.2866 52.9589 40.5529 52.9269 40.5529 52.7646C40.5529 52.6024 40.2866 52.5704 38.9338 52.5704H37.3147V51.3399V50.1094H39.0633C40.5312 50.1094 40.8119 50.0782 40.8119 49.9151C40.8119 49.7507 40.5025 49.7208 38.8043 49.7208H36.7966V52.8974ZM44.9567 52.8942V56.0675L46.1549 56.0668C48.1278 56.0656 48.9262 55.6994 49.5225 54.5223C50.1362 53.3109 49.9876 51.5737 49.1927 50.6684C48.5329 49.9169 47.9612 49.7269 46.3491 49.7236L44.9567 49.7208V52.8942ZM55.14 50.9115C53.8231 54.3354 53.2464 55.8751 53.2464 55.9664C53.2464 56.022 53.3304 56.0675 53.4333 56.0675C53.5487 56.0675 53.7801 55.6463 54.0384 54.9666L54.4566 53.8656H55.8419H57.2272L57.6428 54.9666C57.8964 55.6386 58.1302 56.0675 58.2428 56.0675C58.3443 56.0675 58.4261 55.9948 58.4245 55.9056C58.423 55.8167 57.9126 54.4031 57.2905 52.7646C55.9041 49.1131 55.8497 49.0662 55.14 50.9115ZM66.976 52.8942C66.976 55.6286 67.0029 56.0675 67.1703 56.0675C67.3307 56.0675 67.3646 55.8301 67.3646 54.7075V53.3475H68.3691H69.3736L70.0853 54.7056C70.5733 55.637 70.8683 56.0643 71.0237 56.0656C71.1483 56.0666 71.2504 56.0287 71.2504 55.9812C71.2504 55.9336 70.9589 55.3493 70.6027 54.6828C70.2465 54.0161 69.9555 53.4283 69.9559 53.3767C69.9564 53.325 70.13 53.1842 70.3418 53.0636C71.1966 52.5772 71.504 51.3689 70.988 50.5226C70.6007 49.8872 70.0646 49.7208 68.405 49.7208H66.976V52.8942ZM75.3952 52.8942V56.0675H77.4028C79.0839 56.0675 79.4105 56.0366 79.4105 55.8769C79.4105 55.72 79.0947 55.6799 77.6295 55.6502L75.8485 55.6142V54.319V53.0237L77.5094 52.9874C78.7456 52.9604 79.157 52.9106 79.1179 52.7931C79.0812 52.6825 78.573 52.6242 77.4246 52.5989L75.7838 52.5626V51.336V50.1094H77.5971C79.1227 50.1094 79.4105 50.0786 79.4105 49.9151C79.4105 49.7507 79.101 49.7208 77.4028 49.7208H75.3952V52.8942ZM91.7154 52.8974V56.0742L93.7448 56.0384C95.2271 56.0124 95.7887 55.9591 95.8279 55.8409C95.8692 55.7165 95.4593 55.679 94.0576 55.679H92.2335V54.319V52.9589H93.8525C95.2053 52.9589 95.4716 52.9269 95.4716 52.7646C95.4716 52.6024 95.2053 52.5704 93.8525 52.5704H92.2335V51.3399V50.1094H93.9821C95.45 50.1094 95.7306 50.0782 95.7306 49.9151C95.7306 49.7507 95.4212 49.7208 93.723 49.7208H91.7154V52.8974ZM100.816 52.2162C100.3 53.5865 99.7608 55.0136 99.6181 55.3875C99.3742 56.0264 99.3722 56.0675 99.5874 56.0675C99.7559 56.0675 99.9217 55.7847 100.214 54.999L100.612 53.9304L102.025 53.8941L103.439 53.8577L103.813 54.9089C104.146 55.8462 104.419 56.2297 104.616 56.0336C104.665 55.9837 103.178 51.9005 102.399 49.9475C102.349 49.8227 102.184 49.7217 102.031 49.7229C101.79 49.7248 101.631 50.0517 100.816 52.2162ZM108.454 52.8601C108.486 55.7309 108.508 56.003 108.716 56.0429C108.92 56.0822 108.942 55.9516 108.942 54.717V53.3475L109.946 53.3491L110.95 53.3507L111.649 54.7091C112.156 55.695 112.413 56.0675 112.588 56.0675C112.72 56.0675 112.828 56.0416 112.828 56.0099C112.828 55.9783 112.506 55.3447 112.113 54.6018L111.398 53.2514L111.793 53.0881C112.636 52.739 113.042 51.57 112.625 50.6924C112.268 49.9405 111.663 49.7271 109.879 49.7236L108.419 49.7208L108.454 52.8601ZM125.781 52.8942C125.781 55.5981 125.809 56.0675 125.971 56.0675C126.125 56.0675 126.168 55.7809 126.197 54.5456L126.234 53.0237L128.08 52.9878L129.925 52.9518V54.5097C129.925 55.9812 129.94 56.0675 130.184 56.0675C130.436 56.0675 130.443 55.9812 130.443 52.8942C130.443 49.8072 130.436 49.7208 130.184 49.7208C129.941 49.7208 129.925 49.8072 129.925 51.1456V52.5704H128.047H126.169V51.1456C126.169 49.9655 126.136 49.7208 125.975 49.7208C125.807 49.7208 125.781 50.1598 125.781 52.8942ZM48.2037 50.4096C49.0291 50.846 49.4217 51.6595 49.4107 52.9102C49.4044 53.6418 49.3324 53.9885 49.0886 54.4623C48.6312 55.351 48.0647 55.6103 46.5758 55.6125L45.4101 55.6142L45.3751 52.8618L45.3401 50.1094H46.4881C47.4388 50.1094 47.7335 50.1609 48.2037 50.4096ZM70.0872 50.305C70.5688 50.554 70.7323 50.8645 70.7323 51.5301C70.7323 52.617 70.185 52.9589 68.4463 52.9589H67.3646V51.5342V50.1094H68.5368C69.329 50.1094 69.8316 50.1728 70.0872 50.305ZM111.665 50.305C112.145 50.5534 112.31 50.8644 112.31 51.5235C112.31 51.92 112.218 52.1515 111.932 52.4711C111.56 52.8885 111.537 52.8948 110.248 52.9387L108.942 52.9832V51.5463V50.1094H110.114C110.907 50.1094 111.409 50.1728 111.665 50.305ZM4.26585 51.8949C4.56182 52.6989 4.8039 53.3838 4.8039 53.4168C4.8039 53.45 4.27932 53.477 3.63817 53.477C2.86789 53.477 2.47244 53.4281 2.47244 53.3327C2.47244 53.0525 3.57445 50.2576 3.65061 50.3447C3.69309 50.3934 3.97002 51.0909 4.26585 51.8949ZM20.3357 51.7137C20.6268 52.4891 20.865 53.2031 20.865 53.3004C20.865 53.4366 20.5955 53.477 19.6854 53.477C18.7961 53.477 18.5206 53.4371 18.566 53.3151C19.0917 51.8976 19.7474 50.2438 19.7731 50.27C19.7914 50.2885 20.0445 50.9382 20.3357 51.7137ZM57.0026 53.3725C57.0026 53.43 56.478 53.477 55.8369 53.477C55.1957 53.477 54.6711 53.43 54.6711 53.3725C54.6711 53.3151 54.8947 52.6885 55.168 51.9801C55.4413 51.2719 55.7079 50.5757 55.7604 50.4332C55.8332 50.2355 55.9918 50.5406 56.4293 51.7211C56.7446 52.5718 57.0026 53.3149 57.0026 53.3725ZM102.655 51.7932C102.927 52.5412 103.177 53.2261 103.21 53.3151C103.256 53.4373 102.981 53.477 102.091 53.477C101.262 53.477 100.912 53.4311 100.912 53.3221C100.912 53.0391 102.011 50.2532 102.087 50.3439C102.128 50.393 102.384 51.0452 102.655 51.7932Z" fill="#B2BFCD"/>
<path fill-rule="evenodd" clip-rule="evenodd" d="M84.5075 49.7327C84.2832 49.7977 83.9188 50.0568 83.698 50.3085C83.3774 50.6736 83.2962 50.8825 83.2962 51.3423C83.2962 52.3816 83.9203 52.7924 86.0355 53.1458C86.8058 53.2746 87.182 53.6568 87.182 54.3109C87.182 55.3211 86.3609 55.9102 85.1442 55.7731C84.4324 55.6928 83.9552 55.3622 83.6418 54.7315C83.3537 54.1523 82.9644 54.0663 83.0938 54.6104C83.2129 55.1122 83.5738 55.5711 84.087 55.8733C84.7356 56.2554 86.1713 56.2372 86.812 55.8388C88.0486 55.0698 87.928 53.2576 86.6125 52.8383C86.3914 52.7679 85.8174 52.6437 85.337 52.5623C83.9584 52.3289 83.4794 51.7586 83.8722 50.8181C84.3655 49.6379 86.4968 49.7242 86.9373 50.9424C87.1184 51.4431 87.441 51.5691 87.441 51.1391C87.441 50.0309 85.9485 49.3153 84.5075 49.7327ZM118.333 49.7843C117.658 50.021 116.925 50.8496 116.701 51.6279C116.283 53.0887 116.709 55.0297 117.585 55.6538C118.453 56.2719 119.826 56.3389 120.702 55.8059C121.153 55.532 121.634 54.8477 121.635 54.4809C121.636 54.0735 121.317 54.2425 121.053 54.7896C120.351 56.2409 118.145 56.1162 117.365 54.5815C116.893 53.6533 116.895 52.1279 117.369 51.2068C118.167 49.6553 120.344 49.5322 121.053 50.9987C121.307 51.5255 121.535 51.6318 121.608 51.2579C121.674 50.919 121.066 50.1815 120.474 49.8827C119.817 49.551 119.093 49.5177 118.333 49.7843ZM3.33819 49.8117C3.30231 49.8699 2.79509 51.1701 2.21119 52.7011C1.62729 54.232 1.09896 55.6158 1.03705 55.7761C0.945341 56.0137 0.968656 56.0675 1.16359 56.0675C1.34519 56.0675 1.49556 55.8112 1.79023 54.999L2.17803 53.9304L3.59258 53.894L5.00712 53.8577L5.39117 54.9143C5.74063 55.8756 5.98737 56.2225 6.18257 56.0273C6.22246 55.9875 5.72949 54.5669 5.0873 52.8702C4.14254 50.3746 3.87028 49.7779 3.66162 49.7458C3.51966 49.7239 3.3742 49.7536 3.33819 49.8117ZM10.015 52.8618L10.0497 56.0028L11.9602 56.0387C13.6026 56.0695 13.8707 56.0467 13.8707 55.8768C13.8707 55.7095 13.6103 55.679 12.1868 55.679H10.503V52.6999C10.503 49.7984 10.4961 49.7208 10.2416 49.7208C9.98582 49.7208 9.98103 49.7865 10.015 52.8618ZM18.2964 52.8492C17.6413 54.5698 17.1326 56.005 17.1662 56.0385C17.3572 56.2297 17.6342 55.8378 17.9642 54.9089L18.3376 53.8577L19.7445 53.8941L21.1514 53.9304L21.555 54.999C21.8639 55.8169 22.0159 56.0675 22.2028 56.0675C22.3831 56.0675 22.4236 56.0082 22.3577 55.8409C22.3085 55.7161 21.7668 54.2881 21.1539 52.6675C20.1811 50.0953 20.0045 49.7208 19.7636 49.7208C19.5224 49.7208 19.3372 50.1156 18.2964 52.8492ZM26.1756 52.8942C26.1756 55.6286 26.2024 56.0675 26.3699 56.0675C26.5363 56.0675 26.5641 55.6853 26.5641 53.4046C26.5641 51.9401 26.6114 50.771 26.6693 50.8067C26.7271 50.8425 27.2953 52.0423 27.9321 53.4729C28.7421 55.2932 29.1462 56.0633 29.2784 56.0378C29.3851 56.0172 29.9761 54.8646 30.6385 53.3855L31.8099 50.7694L31.8449 53.4274C31.8771 55.8665 31.8985 56.0819 32.1039 56.0424C32.3078 56.0033 32.3311 55.7165 32.3627 52.8601L32.3974 49.7208H32.1026C31.8429 49.7208 31.6625 50.0529 30.5847 52.5141C29.912 54.0504 29.3295 55.3261 29.2904 55.3492C29.2514 55.3721 28.6657 54.1162 27.9889 52.5583C26.911 50.0769 26.7223 49.7252 26.467 49.7231L26.1756 49.7208V52.8942ZM36.7966 52.8974V56.0742L38.826 56.0384C40.3083 56.0124 40.87 55.9591 40.9092 55.8409C40.9505 55.7165 40.5406 55.679 39.1389 55.679H37.3147V54.319V52.9589H38.9338C40.2866 52.9589 40.5529 52.9269 40.5529 52.7646C40.5529 52.6024 40.2866 52.5704 38.9338 52.5704H37.3147V51.3399V50.1094H39.0633C40.5312 50.1094 40.8119 50.0782 40.8119 49.9151C40.8119 49.7507 40.5025 49.7208 38.8043 49.7208H36.7966V52.8974ZM44.9567 52.8942V56.0675L46.1549 56.0668C48.1278 56.0656 48.9262 55.6994 49.5225 54.5223C50.1362 53.3109 49.9876 51.5737 49.1927 50.6684C48.5329 49.9169 47.9612 49.7269 46.3491 49.7236L44.9567 49.7208V52.8942ZM55.14 50.9115C53.8231 54.3354 53.2464 55.8751 53.2464 55.9664C53.2464 56.022 53.3304 56.0675 53.4333 56.0675C53.5487 56.0675 53.7801 55.6463 54.0384 54.9666L54.4566 53.8656H55.8419H57.2272L57.6428 54.9666C57.8964 55.6386 58.1302 56.0675 58.2428 56.0675C58.3443 56.0675 58.4261 55.9948 58.4245 55.9056C58.423 55.8167 57.9126 54.4031 57.2905 52.7646C55.9041 49.1131 55.8497 49.0662 55.14 50.9115ZM66.976 52.8942C66.976 55.6286 67.0029 56.0675 67.1703 56.0675C67.3307 56.0675 67.3646 55.8301 67.3646 54.7075V53.3475H68.3691H69.3736L70.0853 54.7056C70.5733 55.637 70.8683 56.0643 71.0237 56.0656C71.1483 56.0666 71.2504 56.0287 71.2504 55.9812C71.2504 55.9336 70.9589 55.3493 70.6027 54.6828C70.2465 54.0161 69.9555 53.4283 69.9559 53.3767C69.9564 53.325 70.13 53.1842 70.3418 53.0636C71.1966 52.5772 71.504 51.3689 70.988 50.5226C70.6007 49.8872 70.0646 49.7208 68.405 49.7208H66.976V52.8942ZM75.3952 52.8942V56.0675H77.4028C79.0839 56.0675 79.4105 56.0366 79.4105 55.8769C79.4105 55.72 79.0947 55.6799 77.6295 55.6502L75.8485 55.6142V54.319V53.0237L77.5094 52.9874C78.7456 52.9604 79.157 52.9106 79.1179 52.7931C79.0812 52.6825 78.573 52.6242 77.4246 52.5989L75.7838 52.5626V51.336V50.1094H77.5971C79.1227 50.1094 79.4105 50.0786 79.4105 49.9151C79.4105 49.7507 79.101 49.7208 77.4028 49.7208H75.3952V52.8942ZM91.7154 52.8974V56.0742L93.7448 56.0384C95.2271 56.0124 95.7887 55.9591 95.8279 55.8409C95.8692 55.7165 95.4593 55.679 94.0576 55.679H92.2335V54.319V52.9589H93.8525C95.2053 52.9589 95.4716 52.9269 95.4716 52.7646C95.4716 52.6024 95.2053 52.5704 93.8525 52.5704H92.2335V51.3399V50.1094H93.9821C95.45 50.1094 95.7306 50.0782 95.7306 49.9151C95.7306 49.7507 95.4212 49.7208 93.723 49.7208H91.7154V52.8974ZM100.816 52.2162C100.3 53.5865 99.7608 55.0136 99.6181 55.3875C99.3742 56.0264 99.3722 56.0675 99.5874 56.0675C99.7559 56.0675 99.9217 55.7847 100.214 54.999L100.612 53.9304L102.025 53.8941L103.439 53.8577L103.813 54.9089C104.146 55.8462 104.419 56.2297 104.616 56.0336C104.665 55.9837 103.178 51.9005 102.399 49.9475C102.349 49.8227 102.184 49.7217 102.031 49.7229C101.79 49.7248 101.631 50.0517 100.816 52.2162ZM108.454 52.8601C108.486 55.7309 108.508 56.003 108.716 56.0429C108.92 56.0822 108.942 55.9516 108.942 54.717V53.3475L109.946 53.3491L110.95 53.3507L111.649 54.7091C112.156 55.695 112.413 56.0675 112.588 56.0675C112.72 56.0675 112.828 56.0416 112.828 56.0099C112.828 55.9783 112.506 55.3447 112.113 54.6018L111.398 53.2514L111.793 53.0881C112.636 52.739 113.042 51.57 112.625 50.6924C112.268 49.9405 111.663 49.7271 109.879 49.7236L108.419 49.7208L108.454 52.8601ZM125.781 52.8942C125.781 55.5981 125.809 56.0675 125.971 56.0675C126.125 56.0675 126.168 55.7809 126.197 54.5456L126.234 53.0237L128.08 52.9878L129.925 52.9518V54.5097C129.925 55.9812 129.94 56.0675 130.184 56.0675C130.436 56.0675 130.443 55.9812 130.443 52.8942C130.443 49.8072 130.436 49.7208 130.184 49.7208C129.941 49.7208 129.925 49.8072 129.925 51.1456V52.5704H128.047H126.169V51.1456C126.169 49.9655 126.136 49.7208 125.975 49.7208C125.807 49.7208 125.781 50.1598 125.781 52.8942ZM48.2037 50.4096C49.0291 50.846 49.4217 51.6595 49.4107 52.9102C49.4044 53.6418 49.3324 53.9885 49.0886 54.4623C48.6312 55.351 48.0647 55.6103 46.5758 55.6125L45.4101 55.6142L45.3751 52.8618L45.3401 50.1094H46.4881C47.4388 50.1094 47.7335 50.1609 48.2037 50.4096ZM70.0872 50.305C70.5688 50.554 70.7323 50.8645 70.7323 51.5301C70.7323 52.617 70.185 52.9589 68.4463 52.9589H67.3646V51.5342V50.1094H68.5368C69.329 50.1094 69.8316 50.1728 70.0872 50.305ZM111.665 50.305C112.145 50.5534 112.31 50.8644 112.31 51.5235C112.31 51.92 112.218 52.1515 111.932 52.4711C111.56 52.8885 111.537 52.8948 110.248 52.9387L108.942 52.9832V51.5463V50.1094H110.114C110.907 50.1094 111.409 50.1728 111.665 50.305ZM4.26585 51.8949C4.56182 52.6989 4.8039 53.3838 4.8039 53.4168C4.8039 53.45 4.27932 53.477 3.63817 53.477C2.86789 53.477 2.47244 53.4281 2.47244 53.3327C2.47244 53.0525 3.57445 50.2576 3.65061 50.3447C3.69309 50.3934 3.97002 51.0909 4.26585 51.8949ZM20.3357 51.7137C20.6268 52.4891 20.865 53.2031 20.865 53.3004C20.865 53.4366 20.5955 53.477 19.6854 53.477C18.7961 53.477 18.5206 53.4371 18.566 53.3151C19.0917 51.8976 19.7474 50.2438 19.7731 50.27C19.7914 50.2885 20.0445 50.9382 20.3357 51.7137ZM57.0026 53.3725C57.0026 53.43 56.478 53.477 55.8369 53.477C55.1957 53.477 54.6711 53.43 54.6711 53.3725C54.6711 53.3151 54.8947 52.6885 55.168 51.9801C55.4413 51.2719 55.7079 50.5757 55.7604 50.4332C55.8332 50.2355 55.9918 50.5406 56.4293 51.7211C56.7446 52.5718 57.0026 53.3149 57.0026 53.3725ZM102.655 51.7932C102.927 52.5412 103.177 53.2261 103.21 53.3151C103.256 53.4373 102.981 53.477 102.091 53.477C101.262 53.477 100.912 53.4311 100.912 53.3221C100.912 53.0391 102.011 50.2532 102.087 50.3439C102.128 50.393 102.384 51.0452 102.655 51.7932Z" stroke="#B2BFCD" mask="url(#path-1-outside-1_4463_152414)"/>
<path d="M55.374 9.45806L55.2642 9.23717C57.4566 8.14706 59.0729 7.66928 61.9148 7.26535M55.374 9.45806L61.9148 7.26535M55.374 9.45806L55.2641 9.23717C53.0697 10.3283 51.8431 11.2107 50.1081 12.9466C48.4959 14.5596 47.5526 15.8362 46.5758 17.7305C44.9656 20.853 44.2598 24.0221 44.3982 27.5093L44.648 27.4994L44.3982 27.5093C44.6299 33.3446 47.4891 38.7943 52.1505 42.2834C54.9724 44.3957 57.7548 45.5443 61.2869 46.0557C62.0521 46.1665 63.1845 46.2066 64.3009 46.186C65.4171 46.1655 66.5386 46.084 67.2814 45.9453C71.8082 45.0998 75.9045 42.7467 78.7383 39.3579C81.1663 36.4543 82.632 33.22 83.1978 29.5145C83.3261 28.6745 83.3691 27.4419 83.3401 26.2236C83.3111 25.0054 83.2096 23.7796 83.0416 22.9535C81.868 17.1839 78.1095 12.1119 73.0407 9.468L73.0407 9.46799C72.3847 9.12585 71.7937 8.84821 71.3633 8.67465C71.1502 8.58871 70.9669 8.52433 70.8314 8.49202C70.7681 8.47692 70.6922 8.46295 70.6221 8.46769C70.6145 8.4682 70.6053 8.46902 70.595 8.47047M55.374 9.45806L70.595 8.47047M61.9148 7.26535C62.3226 7.20737 63.4187 7.21526 64.5052 7.2562C65.596 7.29731 66.7304 7.37389 67.2224 7.46396M61.9148 7.26535L67.2224 7.46396M67.2224 7.46396C67.2224 7.46396 67.2224 7.46397 67.2224 7.46397L67.1774 7.70987L67.2224 7.46396ZM67.2224 7.46396C67.9422 7.59571 68.7331 7.79008 69.3649 7.97834C69.6804 8.07237 69.9605 8.1661 70.174 8.25111C70.2803 8.29344 70.3749 8.33546 70.4508 8.37618C70.493 8.39881 70.547 8.42986 70.595 8.47047M67.2224 7.46396L70.595 8.47047M56.8266 31.0505C56.839 31.0378 56.8474 31.0265 56.8494 31.0236L56.8496 31.0234C56.8529 31.0189 56.8555 31.0151 56.8569 31.013C56.8598 31.0086 56.8621 31.0049 56.8633 31.0028L56.8708 30.9901L56.8878 30.9599C56.9012 30.9356 56.9203 30.9008 56.9445 30.8562C56.9931 30.767 57.0633 30.6368 57.1528 30.4705C57.3318 30.1376 57.5885 29.6588 57.9036 29.0695C58.534 27.8908 59.3988 26.2699 60.3459 24.4913C61.2927 22.7132 62.1639 21.0935 62.8047 19.9164C63.1251 19.3278 63.3876 18.8505 63.573 18.5196C63.6103 18.4532 63.6443 18.3928 63.6749 18.3388C63.7021 18.3829 63.7318 18.4315 63.764 18.4843C63.9528 18.7952 64.2206 19.248 64.548 19.8097C65.2024 20.9326 66.0926 22.4865 67.0603 24.2L70.3715 30.063L65.4483 30.0883C62.8058 30.1019 61.4611 30.1093 60.764 30.1409C60.4224 30.1564 60.2087 30.1783 60.0702 30.2198C59.9948 30.2424 59.925 30.2753 59.8659 30.329C59.8092 30.3806 59.7786 30.4377 59.7631 30.4668L59.7624 30.4682L59.7623 30.4682C59.7238 30.5404 59.6916 30.6159 59.6718 30.6829C59.6622 30.7152 59.6527 30.7552 59.6498 30.7966C59.6484 30.8172 59.6479 30.8473 59.6543 30.8813C59.6603 30.9128 59.6769 30.9717 59.7285 31.0235L59.7292 31.0243C59.7532 31.0453 59.7946 31.0712 59.8103 31.0784C59.82 31.0821 59.8364 31.0875 59.8431 31.0894C59.8559 31.0927 59.8664 31.0944 59.8708 31.0951C59.8807 31.0966 59.8894 31.0974 59.894 31.0977C59.9045 31.0986 59.9165 31.0993 59.928 31.0998C59.9519 31.1009 59.985 31.1019 60.0256 31.1029C60.1075 31.1048 60.2259 31.1069 60.3752 31.1089C60.6742 31.1129 61.1002 31.1171 61.6131 31.1211C62.6389 31.1292 64.0134 31.1369 65.4164 31.143C68.2188 31.1551 71.1446 31.1603 71.6214 31.1475L71.6214 31.1475C71.6971 31.1455 71.7724 31.1108 71.8229 31.0448C71.8646 30.9903 71.8745 30.9341 71.8775 30.906C71.8835 30.8501 71.8728 30.7984 71.8661 30.7703C71.8506 30.7045 71.8207 30.6245 71.7856 30.5421C71.7135 30.3724 71.5993 30.1458 71.4611 29.9016C71.1906 29.4238 69.464 26.3569 67.6242 23.0858L64.2794 17.139L64.2146 17.0237L64.0828 17.0124L63.7141 16.9809L63.714 16.9809L63.3453 16.9495L63.1809 16.9355L63.1034 17.0812L59.4748 23.9025C57.7148 27.2113 56.8068 28.9221 56.3728 29.8089C56.1606 30.2427 56.0473 30.5069 56.0128 30.67C55.9972 30.7437 55.9785 30.8768 56.0626 30.9912C56.1453 31.1038 56.2722 31.1193 56.3061 31.1234C56.3073 31.1235 56.3084 31.1237 56.3093 31.1238L56.3093 31.1238C56.3929 31.1343 56.4757 31.14 56.5438 31.14C56.577 31.14 56.6129 31.1387 56.6461 31.1343C56.6623 31.1321 56.6846 31.1284 56.7084 31.1211C56.7236 31.1165 56.7786 31.0996 56.8266 31.0505ZM56.8266 31.0505L56.6478 30.8758M56.8266 31.0505C56.8268 31.0503 56.827 31.0501 56.8271 31.05L56.6478 30.8758M56.6478 30.8758C56.6294 30.8948 56.4912 30.8948 56.3406 30.8758L63.5234 18.1002C63.0904 18.8512 61.714 21.39 60.1252 24.3738C58.2311 27.9309 56.6664 30.8568 56.6478 30.8758ZM70.6877 8.57126C70.6877 8.57129 70.6873 8.5709 70.6863 8.56998C70.6872 8.57077 70.6877 8.57123 70.6877 8.57126ZM66.8471 45.0446L66.8895 45.291L66.847 45.0446C66.1662 45.1619 65.0424 45.2218 63.9015 45.2207C62.7608 45.2197 61.6287 45.1577 60.9315 45.0389C57.9504 44.531 55.1758 43.3613 52.8739 41.6449C43.7342 34.8302 42.7489 21.6675 50.7731 13.6064C53.819 10.5465 57.8383 8.63759 62.0978 8.22671L62.0738 7.97787L62.0978 8.22671C63.2809 8.11258 65.6241 8.19353 66.8634 8.39203L66.9029 8.14547L66.8634 8.39203C73.6521 9.47926 79.3427 14.3415 81.4929 20.8929C82.1977 23.0403 82.3731 24.1805 82.3756 26.6509C82.3779 29.0694 82.2452 30.0361 81.6379 32.054C79.5983 38.8318 73.9127 43.8274 66.8471 45.0446ZM55.8147 35.8806V36.1306H56.0647H63.9117H71.7586H72.0086V35.8806V35.6154V35.3502V35.1002H71.7586H63.9117H56.0647H55.8147V35.3502V35.6154V35.8806Z" fill="#B2BFCD" stroke="#B2BFCD" stroke-width="0.5"/>
</svg>
