<svg width="131" height="64" viewBox="0 0 131 64" fill="none" xmlns="http://www.w3.org/2000/svg">
<path fill-rule="evenodd" clip-rule="evenodd" d="M122.485 25.8048C122.485 28.248 122.42 30.247 122.341 30.247C122.261 30.247 122.064 30.1004 121.902 29.921C121.741 29.7418 121.211 29.4162 120.726 29.1973C119.984 28.8628 119.558 28.799 118.054 28.797C116.41 28.7949 116.184 28.8354 115.276 29.2969C114.092 29.8976 113.304 30.7311 112.604 32.1203C110.876 35.5535 111.383 39.3772 113.869 41.6552C115.207 42.8813 116.36 43.3074 118.31 43.2967C120.015 43.2873 120.604 43.0952 121.85 42.1415C122.276 41.8158 122.669 41.5949 122.725 41.6505C122.78 41.7058 122.825 42.0075 122.825 42.3209V42.8904H124.785H126.745V32.1264V21.3625H124.615H122.485V25.8048ZM13.6811 22.4915C11.7882 22.8831 9.78463 23.9561 8.47915 25.2772C5.9086 27.8786 4.80744 32.0478 5.76682 35.547C6.64747 38.7592 8.56044 41.252 11.0398 42.4186C15.4514 44.4944 20.2957 43.6782 23.1938 40.3711C23.5007 40.0208 23.4899 40.0053 22.3465 39.1373L21.1885 38.2585L20.8814 38.6812C20.4445 39.2824 18.9507 40.2276 17.8809 40.5794C16.4244 41.0583 14.1783 40.8954 12.7059 40.2042C10.4966 39.1671 9.18514 37.4462 8.55533 34.7576C7.71779 31.1833 9.69601 26.9762 12.9143 25.4868C13.7237 25.1121 14.0955 25.0518 15.6408 25.0445L17.43 25.0359L19.1734 25.9329C20.1323 26.4263 21.0008 26.8299 21.1032 26.8299C21.3069 26.8299 23.1447 25.4367 23.1289 25.2944C23.1234 25.2462 22.7328 24.8868 22.2606 24.4958C19.8666 22.5131 16.9121 21.823 13.6811 22.4915ZM42.0724 23.1668C41.422 23.7155 41.2402 24.5413 41.6115 25.2611C41.9925 26.0001 42.5247 26.3173 43.3825 26.3173C44.4535 26.3173 45.1208 25.6288 45.1208 24.5234C45.1208 23.8724 45.0305 23.6376 44.6227 23.2288C43.9475 22.5518 42.8334 22.5249 42.0724 23.1668ZM64.2061 32.8099V42.8904H66.4214H68.6366V38.9607V35.031H72.8115H76.9865V32.9807V30.9304H72.8063H68.6261L68.674 28.8375L68.7218 26.7445L73.195 26.6989L77.6681 26.6534V24.6913V22.7294H70.9371H64.2061V32.8099ZM102.702 28.9666C102.272 29.104 101.571 29.5241 101.145 29.9004L100.37 30.5843L100.255 29.8177L100.141 29.051H98.1915H96.2422V35.9707V42.8904H98.3723H100.502V38.673C100.502 34.7742 100.529 34.4009 100.851 33.734C101.627 32.1263 104.09 32.0026 104.815 33.535C105.028 33.9835 105.111 35.0363 105.206 38.4973L105.326 42.8904H107.453H109.581L109.488 37.8074C109.387 32.2501 109.286 31.5824 108.358 30.2976C107.629 29.2884 106.534 28.8079 104.848 28.7575C104.011 28.7326 103.182 28.8134 102.702 28.9666ZM30.3808 29.2918C27.1484 30.0948 25.013 32.8548 25.013 36.2297C25.013 39.8006 27.421 42.6559 30.9433 43.2616C34.0956 43.8036 37.3002 42.1676 38.6994 39.3024C39.2134 38.2501 39.2418 38.0886 39.2418 36.227C39.2418 34.3653 39.2134 34.2039 38.6994 33.1516C37.1912 30.0628 33.7338 28.4587 30.3808 29.2918ZM53.5084 29.2921C52.698 29.5569 51.7107 30.2281 51.1284 30.9098L50.7458 31.3576L50.745 30.4606L50.7441 29.5636H49.4661H48.1881V36.227V42.8904H49.4661H50.7441V39.4193C50.7441 34.6346 51.0604 33.1921 52.3188 32.2375C53.9926 30.9679 56.2964 31.3989 57.1769 33.1465C57.5455 33.8781 57.5603 34.0803 57.5603 38.3989V42.8904H58.8474H60.1343L60.0828 37.5511C60.0372 32.8288 59.9964 32.148 59.7297 31.6588C59.2473 30.7736 58.4141 29.9135 57.6617 29.524C56.7766 29.0659 54.5767 28.9431 53.5084 29.2921ZM79.8315 29.1599C79.6664 29.3256 79.6947 35.3469 79.8729 37.9583C80.044 40.4673 80.3341 41.2959 81.3674 42.229C82.2803 43.0535 83.0997 43.3154 84.7399 43.3074C86.287 43.2999 87.2438 42.9592 88.2802 42.0468L88.9063 41.4957L89.0176 42.1929L89.1288 42.8904H91.0667H93.0045V35.9707V29.051H90.9791H88.9535L88.8584 29.7772C88.8061 30.1765 88.7601 31.991 88.756 33.809C88.7464 38.0609 88.5629 38.7751 87.3133 39.423C86.7498 39.7152 85.6592 39.612 85.0441 39.2082C84.2803 38.7071 84.2329 38.4156 84.1435 33.6641L84.0583 29.1365L82.0042 29.0888C80.8744 29.0625 79.8968 29.0946 79.8315 29.1599ZM42.0535 36.1416V42.8904H43.2463H44.4392V36.1416V29.3927H43.2463H42.0535V36.1416ZM34.1718 31.9872C36.8723 33.2565 37.4618 37.4361 35.2514 39.6427C34.3766 40.5161 33.543 40.8401 32.17 40.8401C30.7971 40.8401 29.9634 40.5161 29.0886 39.6427C27.8104 38.3668 27.4173 36.5227 28.0024 34.547C28.7549 32.0062 31.6533 30.8035 34.1718 31.9872ZM120.664 32.7157C121.983 33.1871 122.693 34.3187 122.708 35.9729C122.729 38.1753 121.441 39.5399 119.348 39.5349C118.203 39.5322 117.544 39.2629 116.829 38.506C116.194 37.8327 115.977 37.173 115.981 35.922C115.988 33.3525 118.203 31.8358 120.664 32.7157Z" fill="#B2BFCD"/>
</svg>
