<svg width="131" height="64" viewBox="0 0 131 64" fill="none" xmlns="http://www.w3.org/2000/svg">
<g clip-path="url(#clip0_4463_152453)">
<path fill-rule="evenodd" clip-rule="evenodd" d="M112.27 14.0541C111.842 14.5099 111.207 15.3578 110.859 15.9381C110.511 16.5184 110.226 17.2894 110.225 17.6515C110.224 18.1443 110.017 18.3336 109.398 18.4051C108.899 18.4623 108.531 18.7098 108.471 19.0278C108.393 19.4375 108.578 19.5553 109.298 19.5553H110.224V23.3022C110.224 26.9177 110.201 27.0527 109.569 27.1455C109.209 27.1986 108.859 27.4117 108.791 27.6188C108.698 27.9006 109.319 27.9956 111.254 27.9956C113.353 27.9956 113.841 27.9103 113.841 27.5434C113.841 27.242 113.54 27.0913 112.937 27.0913H112.033V23.3233V19.5553H114.143H116.253V23.3233C116.253 26.8902 116.221 27.0913 115.65 27.0913C115.315 27.0913 115.047 27.2923 115.047 27.5434C115.047 27.9052 115.499 27.9956 117.308 27.9956C119.116 27.9956 119.569 27.9052 119.569 27.5434C119.569 27.2622 119.284 27.0913 118.815 27.0913H118.061V20.1582V13.2251H115.556C113.212 13.2251 112.999 13.2788 112.27 14.0541ZM44.5105 13.9516C44.5105 14.2832 44.7894 14.4309 45.4149 14.4309H46.3192V20.7611V27.0913H45.4149C44.7885 27.0913 44.5105 27.239 44.5105 27.5718C44.5105 27.9941 45.0302 28.0387 48.806 27.9416C52.4995 27.8467 53.2745 27.7397 54.3359 27.1775C55.0147 26.8182 55.9923 26.0429 56.5087 25.4551C57.0247 24.8673 57.6035 23.808 57.7946 23.1012C57.9857 22.3943 58.0798 20.8368 58.0038 19.6394C57.8956 17.9387 57.6906 17.1984 57.0657 16.2543C56.6259 15.5896 55.6897 14.7402 54.9852 14.3667C53.8521 13.7659 53.1739 13.6749 49.1075 13.5799C45.0619 13.4853 44.5105 13.5299 44.5105 13.9516ZM0.912364 14.3555C0.995561 14.6455 1.44259 16.7474 1.90621 19.026C2.58625 22.3675 2.83795 23.1409 3.20751 23.0237C3.45951 22.9438 6.98905 21.4646 11.0509 19.7368L18.4362 16.5952L18.5151 27.7213L18.5941 38.8474H19.6455H20.6969V27.8449C20.6969 21.7935 20.8024 16.8424 20.9315 16.8424C21.0602 16.8424 24.5451 18.2634 28.6754 20.0003C32.8057 21.7374 36.2403 23.103 36.3081 23.0354C36.3756 22.9676 36.823 21.0378 37.3019 18.7469C37.7809 16.456 38.1746 14.4122 38.1767 14.2048C38.1794 13.9073 34.2393 13.828 19.471 13.828C1.79588 13.828 0.769784 13.8573 0.912364 14.3555ZM52.9225 15.1697C53.396 15.4148 54.1285 16.0252 54.5505 16.5265C54.9722 17.0281 55.4847 18.1859 55.6894 19.0996C55.9784 20.3915 55.9821 21.1144 55.7056 22.3491C55.5103 23.2223 55.078 24.3847 54.7456 24.9318C54.3793 25.5338 53.6106 26.1608 52.7986 26.5201C51.7592 26.9798 51.115 27.0684 49.9427 26.9128L48.4292 26.7121V20.5287V14.345L50.2454 14.5349C51.2444 14.6392 52.4489 14.925 52.9225 15.1697ZM116.253 16.541V18.3496H114.143H112.033V17.4594C112.033 16.9699 112.187 16.2302 112.376 15.8157C112.665 15.1815 112.963 15.0452 114.26 14.953C115.107 14.893 115.902 14.8188 116.027 14.7881C116.151 14.7574 116.253 15.5462 116.253 16.541ZM10.4481 17.9071C7.54671 19.146 4.94771 20.2324 4.6722 20.3216C4.26466 20.4533 4.08259 20.0919 3.69253 18.3773C3.42907 17.2189 3.21354 16.1286 3.21354 15.9541C3.21354 15.7418 5.28532 15.6397 9.46838 15.6457L15.7232 15.6544L10.4481 17.9071ZM35.5105 18.0481C35.2576 19.3745 34.9649 20.4597 34.8597 20.4597C34.7545 20.4597 32.1012 19.3775 28.9639 18.0548L23.2592 15.6496L29.6147 15.6433L35.9702 15.6366L35.5105 18.0481ZM63.7341 19.3597L62.6107 20.6104L62.6037 19.48C62.5983 18.5835 62.4814 18.3496 62.0389 18.3496C61.732 18.3496 61.0538 18.4985 60.5317 18.6806C60.0096 18.8626 59.5824 19.2162 59.5824 19.4667C59.5824 19.8019 59.7814 19.8722 60.336 19.7329L61.0896 19.5439V23.3176V27.0913H60.336C59.8586 27.0913 59.5824 27.2613 59.5824 27.5552C59.5824 27.9492 59.9689 27.9947 62.1447 27.8566C63.5539 27.7674 64.7409 27.5923 64.7822 27.4681C64.8235 27.3439 64.4166 27.1995 63.8779 27.1477L62.8983 27.053V24.3862C62.8983 21.7778 62.9187 21.7019 63.8258 20.9386C64.3605 20.4886 65.1262 20.1582 65.6344 20.1582C66.4404 20.1582 66.5155 20.0684 66.5155 19.1032C66.5155 18.1458 66.4386 18.0509 65.6866 18.0786C65.1183 18.0994 64.504 18.5024 63.7341 19.3597ZM69.1531 18.8509C67.7571 19.4878 67.4198 19.7802 67.4198 20.3523C67.4198 20.9347 67.5769 21.0625 68.2916 21.0625C68.9698 21.0625 69.2049 20.8955 69.3523 20.3089C69.4563 19.8945 69.7312 19.5553 69.9631 19.5553C70.1952 19.5553 70.5888 19.477 70.8384 19.3814C71.0877 19.2856 71.5736 19.489 71.9182 19.8336C72.266 20.1814 72.5443 20.8506 72.5443 21.3392C72.5443 22.1709 72.4128 22.2626 70.1294 23.0231C68.6979 23.4997 67.5934 24.054 67.4165 24.3844C67.2525 24.6909 67.1226 25.3237 67.128 25.7903C67.1331 26.2572 67.3029 26.8544 67.5048 27.1175C67.7068 27.3804 68.1683 27.7535 68.5303 27.9465C68.8926 28.1391 69.4428 28.297 69.753 28.297C70.0631 28.297 70.7766 27.9579 71.3385 27.5434C71.9004 27.129 72.4692 26.7899 72.6027 26.7899C72.7363 26.7899 72.8457 26.9852 72.8457 27.2242C72.8457 27.4633 72.9901 27.7478 73.1667 27.8569C73.3434 27.9661 73.9538 27.9679 74.5232 27.8612C75.1393 27.7454 75.5586 27.4892 75.5586 27.2284C75.5586 26.9873 75.3069 26.7899 74.9995 26.7899C74.4934 26.7899 74.4249 26.4293 74.2751 22.9577C74.1247 19.4764 74.0487 19.0764 73.4444 18.5868C73.0784 18.2905 72.3532 18.0509 71.8326 18.0539C71.3123 18.0572 70.1062 18.4156 69.1531 18.8509ZM78.8178 18.6619C78.2065 18.9847 77.4945 19.5517 77.2352 19.9213C76.9763 20.2911 76.7644 21.1195 76.7644 21.7622C76.7644 22.6743 76.9649 23.1177 77.6772 23.7833L78.5896 24.6358L77.6772 25.175C77.1156 25.5066 76.7644 25.9612 76.7644 26.3561C76.7644 26.7091 77.0414 27.2483 77.3796 27.5546L77.9952 28.1117L77.0782 28.8291C76.4235 29.3415 76.1615 29.8024 76.1615 30.4427C76.1615 30.9841 76.4449 31.6222 76.8771 32.0545C77.313 32.4903 78.1296 32.8509 78.9646 32.976C79.7737 33.0974 80.769 33.039 81.3903 32.834C81.9699 32.6426 82.9924 32.0888 83.6628 31.6032C84.3332 31.1176 85.097 30.304 85.3602 29.7952C85.6234 29.2861 85.7548 28.606 85.6526 28.2838C85.5504 27.9615 85.2622 27.4934 85.0126 27.2438C84.6789 26.9101 83.866 26.7886 81.9428 26.7853C80.5037 26.7826 79.1268 26.6542 78.8823 26.4996C78.5076 26.2626 78.5513 26.0981 79.1611 25.4494C79.5584 25.0261 80.1369 24.6798 80.4462 24.6798C80.7554 24.6798 81.5368 24.4103 82.1824 24.0808C82.8281 23.7517 83.5687 23.1789 83.8283 22.8082C84.0878 22.4374 84.3003 21.6184 84.3003 20.9878C84.3003 19.9556 84.3902 19.8236 85.2047 19.6608C85.9049 19.5207 86.109 19.3184 86.109 18.7641C86.109 18.2173 85.9447 18.0481 85.4129 18.0481C85.0301 18.0481 84.4562 18.239 84.1376 18.472C83.6396 18.8361 83.4424 18.8361 82.7383 18.472C82.2876 18.239 81.471 18.0542 80.9242 18.0614C80.3771 18.0689 79.4294 18.339 78.8178 18.6619ZM89.1957 18.6842C88.4894 19.0339 87.6125 19.7401 87.2466 20.2538C86.7827 20.9055 86.5503 21.7381 86.4779 23.0089C86.3999 24.3802 86.5165 25.0912 86.9503 25.8855C87.2674 26.4658 87.974 27.2459 88.5202 27.6188C89.1616 28.0565 89.9625 28.297 90.7785 28.297C91.5098 28.297 92.6031 28.0056 93.3715 27.6055C94.3153 27.1142 94.8962 26.5288 95.3782 25.5823C95.7571 24.8383 96.0564 23.701 96.0564 23.0053C96.0564 22.2912 95.764 21.2075 95.3707 20.4636C94.9661 19.6988 94.2571 18.9374 93.6422 18.6073C93.0686 18.2998 92.1224 18.0481 91.5397 18.0485C90.9567 18.0485 89.902 18.3345 89.1957 18.6842ZM101.784 18.9537L100.427 19.8568L100.332 19.1032C100.261 18.547 100.056 18.3496 99.548 18.3496C99.1691 18.3496 98.4321 18.4985 97.91 18.6806C97.3879 18.8626 96.9607 19.2174 96.9607 19.4691C96.9607 19.795 97.1781 19.8854 97.7143 19.7829L98.4679 19.6388V23.3441C98.4679 26.9165 98.4444 27.0527 97.8132 27.1455C97.4533 27.1986 97.1027 27.4117 97.0346 27.6188C96.9426 27.8979 97.5024 27.9956 99.1965 27.9956C101.027 27.9956 101.482 27.9055 101.482 27.5434C101.482 27.2896 101.213 27.0913 100.869 27.0913C100.286 27.0913 100.26 26.936 100.341 24.0103L100.427 20.9296L101.633 20.2474C102.296 19.8722 102.999 19.5629 103.194 19.5602C103.389 19.5574 103.762 19.7685 104.023 20.0289C104.395 20.4012 104.497 21.2009 104.497 23.7619C104.497 26.8194 104.457 27.0313 103.863 27.1865C103.515 27.2779 103.32 27.4967 103.429 27.674C103.539 27.8518 104.563 27.9956 105.72 27.9956C107.379 27.9956 107.812 27.9019 107.812 27.5434C107.812 27.2622 107.528 27.0913 107.059 27.0913H106.305V23.3097C106.305 19.6964 106.272 19.4951 105.565 18.7882C105.132 18.3541 104.477 18.0488 103.983 18.0494C103.519 18.0503 102.53 18.4572 101.784 18.9537ZM81.6106 19.8336C82.1773 20.4003 82.4917 21.0252 82.4917 21.5846C82.4917 22.063 82.3075 22.7066 82.0824 23.0146C81.8361 23.351 81.301 23.5744 80.7419 23.5744C80.2297 23.5744 79.6036 23.4026 79.3507 23.1925C79.0975 22.9824 78.806 22.3611 78.7029 21.8119C78.6002 21.263 78.6083 20.5217 78.7216 20.1648C78.835 19.8082 79.2208 19.398 79.5792 19.2536C79.9376 19.1089 80.3431 18.982 80.4802 18.9715C80.6174 18.9612 81.1259 19.3489 81.6106 19.8336ZM119.569 19.3332C119.569 19.5424 119.868 19.8477 120.234 20.0114C120.724 20.2309 121.275 21.2977 122.333 24.0769C123.122 26.1493 123.901 28.0679 124.062 28.3407C124.282 28.7106 124.134 29.1887 123.477 30.2247C122.811 31.2749 122.411 31.6129 121.836 31.6129C121.168 31.6129 121.076 31.741 121.076 32.6679C121.076 33.6904 121.112 33.7229 122.232 33.7229H123.388L124.906 30.181C125.741 28.2328 126.942 25.2827 127.576 23.6248C128.21 21.9668 128.854 20.441 129.008 20.2336C129.162 20.0265 129.554 19.8568 129.88 19.8568C130.218 19.8568 130.417 19.6961 130.345 19.48C130.264 19.2358 129.6 19.1032 128.461 19.1032C127.322 19.1032 126.658 19.2358 126.577 19.48C126.508 19.6874 126.675 19.8568 126.949 19.8568C127.287 19.8568 127.392 20.0265 127.277 20.3843C127.184 20.6743 126.654 22.1812 126.098 23.7324L125.089 26.5529L123.987 23.4837C123.381 21.7956 122.884 20.289 122.884 20.1356C122.884 19.9822 123.156 19.8568 123.487 19.8568C123.822 19.8568 124.09 19.6557 124.09 19.4046C124.09 19.0429 123.638 18.9525 121.829 18.9525C120.209 18.9525 119.569 19.0604 119.569 19.3332ZM92.8841 19.9728C93.2796 20.3683 93.7537 21.2518 93.9382 21.9367C94.1227 22.6213 94.1878 23.6383 94.0829 24.1966C93.9783 24.7548 93.6353 25.6344 93.3212 26.1514C92.8428 26.9379 92.5631 27.0913 91.6063 27.0913C90.9775 27.0913 90.173 26.8881 89.8185 26.6397C89.4637 26.3913 88.9425 25.5829 88.6603 24.8438C88.2971 23.893 88.2061 23.1045 88.349 22.1513C88.4602 21.4101 88.8252 20.4548 89.1604 20.0286C89.6325 19.4287 90.0403 19.2539 90.9676 19.2539C91.8276 19.2539 92.3677 19.4565 92.8841 19.9728ZM72.5443 24.5086C72.5443 25.3065 72.3441 25.6857 71.6689 26.1665C71.1872 26.5092 70.5255 26.7899 70.1985 26.7899C69.8714 26.7899 69.4364 26.5882 69.2318 26.3416C69.0271 26.095 68.9379 25.5823 69.0331 25.2022C69.1498 24.7371 69.6297 24.3485 70.4987 24.0145C71.2092 23.7417 71.9604 23.5084 72.1675 23.4963C72.3999 23.4825 72.5443 23.8701 72.5443 24.5086ZM83.2206 28.48C83.4828 28.5807 83.6975 28.9286 83.6975 29.2535C83.6975 29.5781 83.5657 30.09 83.4048 30.3905C83.2438 30.6914 82.5598 31.1583 81.8849 31.4284C81.1527 31.7214 80.3289 31.8413 79.8415 31.7256C79.3926 31.6192 78.7876 31.3256 78.4977 31.0736C78.2077 30.8213 77.9701 30.395 77.9701 30.1262C77.9701 29.857 78.1815 29.3355 78.4395 28.9671C78.8407 28.3941 79.1864 28.297 80.8263 28.297C81.881 28.297 82.9583 28.3793 83.2206 28.48ZM10.1466 38.3952V47.8905H19.6419H29.1372V38.3952V28.8999H26.7257H24.3142V29.9549C24.3142 31.0043 24.3214 31.01 25.6707 31.01H27.0271V38.3952V45.7804H19.4912H11.9552V38.3952V31.01H13.4624H14.9696V29.9549V28.8999H12.5581H10.1466V38.3952ZM49.9271 32.3613C49.1762 32.6016 47.9707 33.3039 47.2488 33.9219C46.5266 34.5401 45.6858 35.5958 45.3805 36.2683C45.0103 37.0834 44.8252 38.1945 44.8252 39.601C44.8252 41.0036 45.01 42.1153 45.376 42.9168C45.6789 43.5799 46.3776 44.5611 46.9287 45.0971C47.4797 45.6333 48.5185 46.2962 49.2368 46.5708C50.1525 46.9205 51.0656 47.0221 52.2904 46.9111C53.2513 46.824 54.7263 46.4563 55.5682 46.0942C56.9301 45.5085 57.1194 45.3132 57.2825 44.3269C57.3831 43.7171 57.4672 43.0488 57.4691 42.8414C57.4709 42.6343 57.2216 42.4646 56.9153 42.4646C56.5554 42.4646 56.1623 42.8987 55.8051 43.6912C55.4808 44.4101 54.88 45.11 54.3528 45.3825C53.7599 45.6894 52.9623 45.8003 52.0094 45.7087C51.0469 45.6162 50.1963 45.2888 49.4604 44.7278C48.8027 44.2262 48.0509 43.2185 47.6012 42.2361C46.9594 40.8341 46.8681 40.2786 46.9929 38.5357C47.0824 37.2814 47.367 36.0949 47.7254 35.4815C48.0476 34.9299 48.7647 34.173 49.3191 33.7992C50.038 33.3148 50.7681 33.12 51.865 33.1207C52.7277 33.1207 53.8633 33.3525 54.4514 33.6482C55.1724 34.0105 55.586 34.481 55.7762 35.1548C55.9875 35.9044 56.219 36.1344 56.7625 36.1344C57.4006 36.1344 57.4724 36.0003 57.4724 34.8048C57.4724 33.5173 57.4272 33.4534 56.0448 32.7842C55.22 32.3848 53.9157 32.0575 52.955 32.0089C52.0411 31.9625 50.6783 32.1211 49.9271 32.3613ZM101.784 32.308C101.203 32.506 100.759 32.8035 100.795 32.9693C100.831 33.1351 101.204 33.3136 101.624 33.366L102.387 33.4616V39.6209V45.7804H101.633C101.164 45.7804 100.879 45.9514 100.879 46.2326C100.879 46.5967 101.348 46.6848 103.291 46.6848C105.233 46.6848 105.702 46.5967 105.702 46.2326C105.702 45.9514 105.418 45.7804 104.949 45.7804H104.195V38.8474V31.9143L103.517 31.9312C103.144 31.9405 102.364 32.1102 101.784 32.308ZM80.9092 33.9276C80.5369 34.0271 80.3817 34.3725 80.3817 35.1014C80.3817 36.0844 80.4338 36.1344 81.4548 36.1344C82.5104 36.1344 82.5267 36.1157 82.4344 35.0064C82.3738 34.2733 82.1827 33.8625 81.8888 33.8326C81.6402 33.8073 81.1992 33.8501 80.9092 33.9276ZM86.7643 35.0233C86.4038 35.4071 86.109 36.0175 86.109 36.3798C86.109 36.8663 85.9275 37.0387 85.4157 37.0387C85.0343 37.0387 84.5596 37.2015 84.3606 37.4005C84.1617 37.5994 83.9989 37.8707 83.9989 38.0033C83.9989 38.136 84.4737 38.2445 85.0539 38.2445H86.109V42.1418C86.109 45.2825 86.2009 46.1307 86.5825 46.5126C86.8433 46.7731 87.4458 46.9862 87.9218 46.9862C88.3981 46.9862 89.2698 46.7016 89.8598 46.3535C90.4494 46.0056 90.932 45.6213 90.932 45.4995C90.932 45.3777 90.8527 45.1987 90.7556 45.1016C90.6586 45.0048 90.1811 45.0642 89.6943 45.2339C89.0468 45.4597 88.6896 45.4431 88.3634 45.1724C88.0201 44.8873 87.9176 44.0496 87.9176 41.5235V38.2445H89.4248C90.5636 38.2445 90.932 38.1339 90.932 37.7923C90.932 37.4508 90.5636 37.3402 89.4248 37.3402H87.9176V35.833C87.9176 35.004 87.8055 34.3258 87.6686 34.3258C87.5318 34.3258 87.1248 34.6399 86.7643 35.0233ZM60.8635 37.4912C59.5547 38.0859 59.281 38.3437 59.281 38.9809C59.281 39.604 59.4266 39.7517 60.0421 39.7517C60.5648 39.7517 60.888 39.5286 61.0739 39.0394C61.2229 38.6475 61.6605 38.2424 62.0461 38.139C62.4319 38.0359 62.8395 37.9494 62.9522 37.9473C63.0646 37.9449 63.3697 38.1562 63.6304 38.4166C63.8909 38.6774 64.104 39.3444 64.104 39.8991C64.104 40.8914 64.0648 40.921 61.7187 41.7023C60.4066 42.1394 59.2536 42.704 59.1565 42.9575C59.0591 43.211 58.9796 43.9399 58.9796 44.5774C58.9796 45.4709 59.1616 45.8799 59.7738 46.3613C60.2106 46.705 60.8979 46.9862 61.3012 46.9862C61.7043 46.9862 62.5227 46.6136 63.1198 46.1581C63.7167 45.703 64.2523 45.4654 64.3102 45.6306C64.3681 45.7961 64.532 46.1153 64.6746 46.3408C64.8627 46.6383 65.2736 46.6929 66.1767 46.5404C66.9116 46.4162 67.4198 46.1648 67.4198 45.9257C67.4198 45.703 67.1148 45.4775 66.7416 45.4247C66.0905 45.3322 66.0573 45.1818 65.9126 41.6658C65.7875 38.6231 65.6648 37.8963 65.1877 37.3703C64.7991 36.942 64.2632 36.743 63.5298 36.7548C62.9338 36.7641 61.7338 37.0957 60.8635 37.4912ZM72.1608 37.6636L71.0371 38.5899V37.8143C71.0371 37.2012 70.8888 37.0387 70.3284 37.0387C69.9386 37.0387 69.1926 37.1877 68.6705 37.3697C68.1484 37.5518 67.7213 37.9054 67.7213 38.1559C67.7213 38.4911 67.9202 38.5613 68.4749 38.422L69.2284 38.233V44.4182V50.6034H68.4498C67.9612 50.6034 67.7176 50.7439 67.7957 50.9802C67.8798 51.2338 68.7763 51.3857 70.534 51.4442C72.723 51.5171 73.1471 51.4559 73.1471 51.0674C73.1471 50.7382 72.8409 50.6034 72.0921 50.6034H71.0371V48.7174V46.8313L72.3182 46.9247C73.2065 46.9895 74.0147 46.8053 74.9534 46.3239C75.6979 45.942 76.6251 45.155 77.0134 44.5747C77.634 43.6475 77.7067 43.2339 77.6154 41.1573C77.5144 38.8688 77.4761 38.7627 76.3885 37.7661C75.5873 37.0318 74.9826 36.7373 74.2754 36.7373C73.6141 36.7373 72.9108 37.0454 72.1608 37.6636ZM93.4188 37.5717C92.2016 38.1851 91.8363 38.5287 91.8363 39.0605C91.8363 39.6218 92 39.7517 92.708 39.7517C93.3863 39.7517 93.6214 39.5847 93.7688 38.9981C93.8728 38.5836 94.1477 38.2445 94.3795 38.2445C94.6116 38.2445 95.0053 38.1661 95.2549 38.0706C95.5042 37.9747 95.9901 38.1782 96.3346 38.5227C96.6825 38.8706 96.9607 39.5398 96.9607 40.0284C96.9607 40.8601 96.8293 40.9517 94.5459 41.7122C93.1144 42.1888 92.0099 42.7432 91.833 43.0735C91.669 43.3801 91.5391 44.0128 91.5445 44.4794C91.5496 44.9464 91.7193 45.5435 91.9213 45.8067C92.1233 46.0695 92.5848 46.4427 92.9468 46.6356C93.3091 46.8282 93.8592 46.9862 94.1694 46.9862C94.4796 46.9862 95.1931 46.6471 95.755 46.2326C96.3169 45.8181 96.8857 45.479 97.0192 45.479C97.1527 45.479 97.2622 45.6743 97.2622 45.9134C97.2622 46.1524 97.4066 46.437 97.5832 46.5461C97.7598 46.6552 98.3703 46.657 98.9397 46.5503C99.5558 46.4346 99.9751 46.1783 99.9751 45.9176C99.9751 45.6764 99.7222 45.479 99.4129 45.479C98.9017 45.479 98.8375 45.1333 98.7037 41.6592C98.5683 38.1507 98.5011 37.7944 97.8759 37.2883C97.4807 36.9682 96.7356 36.7451 96.0983 36.7557C95.4951 36.7656 94.2891 37.1328 93.4188 37.5717ZM79.6883 37.3941C79.2241 37.5635 78.9001 37.858 78.9679 38.0486C79.036 38.2394 79.3818 38.363 79.7366 38.3235C80.3651 38.2535 80.3817 38.3488 80.3817 41.995C80.3817 45.5302 80.3476 45.744 79.7667 45.8347C79.4288 45.8878 79.1575 46.0668 79.1638 46.2326C79.1708 46.4062 80.1553 46.534 81.487 46.534C83.0678 46.534 83.8376 46.415 83.9235 46.1572C84.0058 45.9101 83.7294 45.7804 83.1196 45.7804H82.1903V41.4096V37.0387L81.3613 37.0626C80.9055 37.0755 80.1526 37.2247 79.6883 37.3941ZM74.6426 38.5396C74.9458 38.7018 75.3437 39.2646 75.527 39.7903C75.7103 40.316 75.8601 41.3158 75.8601 42.0125C75.8601 42.7091 75.7103 43.709 75.527 44.2347C75.3437 44.7604 74.9458 45.3232 74.6426 45.4853C74.3393 45.6475 73.6903 45.7804 73.2005 45.7804C72.7104 45.7804 72.0171 45.5432 71.6595 45.2529C71.0714 44.7757 71.0178 44.4818 71.0986 42.174C71.1869 39.6471 71.1977 39.616 72.2121 38.9336C72.7755 38.5547 73.4287 38.2445 73.6638 38.2445C73.8986 38.2445 74.3393 38.3774 74.6426 38.5396ZM63.3368 44.8134C62.8283 45.2511 62.2285 45.4778 61.7317 45.4202C61.0815 45.3449 60.922 45.1525 60.8446 44.351C60.7559 43.4319 60.8455 43.3319 62.3517 42.6696L63.9533 41.9651L64.0513 43.0401C64.1296 43.9025 63.9883 44.2531 63.3368 44.8134ZM96.9607 43.2227C96.9607 44.0945 96.7871 44.3878 95.9811 44.8794C95.4421 45.208 94.7807 45.4772 94.5107 45.4778C94.2409 45.4784 93.8529 45.2773 93.6482 45.0308C93.4436 44.7842 93.3546 44.2757 93.4508 43.9004C93.5569 43.4862 94.0733 43.0223 94.7657 42.7196C95.3926 42.4453 96.1432 42.2081 96.4332 42.1921C96.8411 42.1698 96.9607 42.4034 96.9607 43.2227Z" fill="#B2BFCD"/>
</g>
<defs>
<clipPath id="clip0_4463_152453">
<rect width="129.458" height="64" fill="white" transform="translate(0.901611)"/>
</clipPath>
</defs>
</svg>
