<svg width="130" height="64" viewBox="0 0 130 64" fill="none" xmlns="http://www.w3.org/2000/svg">
<path d="M15.3236 27.7764V33.8387H25.347V37.5703H15.3236V46.6622H11.3057V24.0416H26.5585V27.7732H15.3236V27.7764Z" fill="#B2BFCD" stroke="#B2BFCD" stroke-width="0.25" stroke-miterlimit="10"/>
<path d="M29.5171 46.6624V30.0728H33.471V46.6624H29.5171Z" fill="#B2BFCD" stroke="#B2BFCD" stroke-width="0.25" stroke-miterlimit="10"/>
<path d="M51.9868 48.8651C51.9868 49.9509 51.7494 50.8526 51.2715 51.5764C50.7936 52.3003 50.1818 52.8682 49.436 53.2831C48.6903 53.6981 47.8472 53.9914 46.9157 54.1599C45.9812 54.3315 45.0681 54.4158 44.1763 54.4158C43.1809 54.4158 42.1886 54.3409 41.2055 54.1911C40.2192 54.0413 39.303 53.6607 38.4507 53.0429C37.8298 52.5967 37.3458 52.0757 37.0049 51.4797C36.664 50.8838 36.4905 50.1943 36.4905 49.4048C36.4905 48.681 36.658 48.0164 36.9897 47.4112C37.3215 46.8058 37.7994 46.344 38.4203 46.0227C37.9029 45.7263 37.501 45.3144 37.2211 44.7934C36.941 44.2723 36.801 43.7357 36.801 43.1803C36.801 41.7544 37.4433 40.6405 38.7308 39.8293C38.2316 39.3176 37.8389 38.7248 37.5498 38.0415C37.2575 37.3613 37.1145 36.5969 37.1145 35.7451C37.1145 34.7654 37.291 33.8949 37.6442 33.1274C37.9972 32.3598 38.4751 31.7233 39.0778 31.2117C39.6805 30.6999 40.3805 30.313 41.178 30.0478C41.9756 29.7826 42.8309 29.6484 43.744 29.6484C44.4075 29.6484 45.0529 29.739 45.6738 29.9199C46.2947 30.1009 46.8761 30.3505 47.418 30.6687C47.771 29.9448 48.2367 29.4207 48.8181 29.09C49.3995 28.7592 50.0327 28.597 50.7175 28.597C50.8423 28.597 51.0188 28.597 51.2472 28.597C51.4754 28.597 51.652 28.6188 51.7768 28.6594V31.7545L51.4663 31.7233C51.0097 31.7233 50.5988 31.7982 50.2366 31.948C49.8744 32.0977 49.6278 32.3754 49.5061 32.7779C50.0661 33.7139 50.3462 34.7124 50.3462 35.7763C50.3462 36.7342 50.1635 37.5859 49.8013 38.3286C49.4391 39.0742 48.9551 39.7014 48.3555 40.21C47.7528 40.7217 47.0527 41.1148 46.2552 41.3894C45.4546 41.6671 44.6206 41.8043 43.7501 41.8043C42.8369 41.8043 41.9664 41.6546 41.1354 41.3581C40.9498 41.4642 40.7671 41.6203 40.5906 41.82C40.4141 42.0227 40.3257 42.263 40.3257 42.5375C40.3257 43.0274 40.5176 43.3519 40.901 43.511C41.2846 43.6702 41.6834 43.7513 42.1004 43.7513H44.7759C45.1686 43.7513 45.5947 43.7575 46.0513 43.7669C46.5078 43.7793 46.9705 43.8199 47.4363 43.8948C47.902 43.9697 48.3585 44.082 48.8059 44.2286C49.2534 44.3784 49.6613 44.5906 50.0357 44.8652C50.7418 45.355 51.2441 45.9416 51.5454 46.6187C51.8376 47.3113 51.9868 48.057 51.9868 48.8651ZM48.3159 48.9618C48.3159 48.4501 48.1819 48.057 47.911 47.7824C47.6402 47.5047 47.3145 47.305 46.9309 47.1771C46.5475 47.0492 46.1304 46.9743 45.686 46.9556C45.2386 46.9338 44.8307 46.9244 44.4563 46.9244H41.4064C40.9894 47.0523 40.6423 47.2926 40.3623 47.642C40.0823 47.9945 39.9423 48.4345 39.9423 48.9649C39.9423 49.4954 40.0823 49.9103 40.3623 50.2099C40.6423 50.5063 40.9894 50.7372 41.4064 50.8963C41.8203 51.0554 42.2677 51.1553 42.7456 51.1989C43.2235 51.2426 43.6497 51.2613 44.021 51.2613C44.4136 51.2613 44.8611 51.2457 45.3603 51.2145C45.8595 51.1833 46.3252 51.0928 46.7605 50.943C47.1958 50.7933 47.5641 50.5655 47.8654 50.2567C48.1638 49.9447 48.3159 49.5141 48.3159 48.9618ZM46.6022 35.7513C46.6022 34.859 46.3465 34.1196 45.8382 33.5329C45.3299 32.9464 44.6298 32.6562 43.7379 32.6562C42.8461 32.6562 42.146 32.9495 41.6376 33.5329C41.1293 34.1164 40.8737 34.8558 40.8737 35.7513C40.8737 36.6437 41.1263 37.3801 41.6376 37.9541C42.146 38.5282 42.8461 38.8153 43.7379 38.8153C44.6298 38.8153 45.3299 38.5282 45.8382 37.9541C46.3495 37.3801 46.6022 36.6468 46.6022 35.7513Z" fill="#B2BFCD" stroke="#B2BFCD" stroke-width="0.25" stroke-miterlimit="10"/>
<path d="M73.3394 46.6623V36.3567C73.3394 35.3363 73.169 34.5439 72.825 33.9791C72.4841 33.4175 71.8235 33.1336 70.8495 33.1336C70.2895 33.1336 69.8116 33.2677 69.4189 33.5329C69.0263 33.7981 68.6975 34.1507 68.4388 34.5845C68.1801 35.0212 67.9883 35.5048 67.8635 36.0353C67.7388 36.5688 67.6779 37.0867 67.6779 37.5984V46.6592H63.8182V36.3567C63.8182 35.3363 63.6478 34.5439 63.3038 33.9791C62.9629 33.4175 62.3023 33.1336 61.3283 33.1336C60.7683 33.1336 60.2904 33.2677 59.8977 33.5329C59.5051 33.7981 59.1702 34.1507 58.9023 34.5845C58.6315 35.0212 58.4366 35.5048 58.3119 36.0353C58.1871 36.5688 58.1262 37.0867 58.1262 37.5984V46.6592H54.2666V30.0727H57.5022L57.8126 32.2755C58.2693 31.5111 58.8811 30.884 59.6481 30.3942C60.4152 29.9042 61.3405 29.6609 62.418 29.6609C63.5594 29.6609 64.5152 29.9012 65.2823 30.3786C66.0494 30.8559 66.6429 31.5237 67.0569 32.3722C67.5347 31.5018 68.1923 30.8309 69.0324 30.363C69.8725 29.8949 70.8434 29.6609 71.9423 29.6609C73.6864 29.6609 74.9984 30.1976 75.8811 31.274C76.7638 32.3505 77.2052 33.7451 77.2052 35.4705V46.6685H73.3394V46.6623Z" fill="#B2BFCD" stroke="#B2BFCD" stroke-width="0.25" stroke-miterlimit="10"/>
<path d="M94.878 38.497C94.8567 38.6468 94.8475 38.784 94.8475 38.912V39.6139H84.0175C84.0175 40.2536 84.1148 40.8589 84.3128 41.4329C84.5106 42.0071 84.8089 42.4845 85.1985 42.8683C85.4907 43.1459 85.8286 43.383 86.2121 43.5858C86.5956 43.7886 87.0552 43.8885 87.5971 43.8885C88.1571 43.8885 88.6198 43.8292 88.982 43.7137C89.3442 43.5983 89.673 43.3893 89.9622 43.0929C90.3334 42.7091 90.5953 42.241 90.7414 41.6888H94.4762C94.4336 42.1787 94.2722 42.7153 93.9923 43.3019C93.7122 43.8885 93.417 44.369 93.1065 44.7528C92.4216 45.5827 91.6028 46.1787 90.647 46.5406C89.6913 46.9025 88.6959 47.0835 87.661 47.0835C86.5378 47.0835 85.5699 46.8962 84.751 46.525C83.9292 46.1537 83.1987 45.6576 82.5564 45.0429C81.7468 44.2348 81.1288 43.2675 80.7027 42.1413C80.2766 41.0149 80.0635 39.77 80.0635 38.4096C80.0635 37.0711 80.2552 35.8293 80.6388 34.6935C81.0223 33.5547 81.6098 32.5844 82.3951 31.7732C82.9978 31.1366 83.7283 30.6249 84.5897 30.2412C85.4512 29.8575 86.4404 29.6671 87.5635 29.6671C88.7689 29.6671 89.886 29.9167 90.927 30.4159C91.9619 30.9152 92.8142 31.6858 93.4808 32.7279C94.0805 33.6421 94.4641 34.575 94.6314 35.5204C94.7927 36.4596 94.878 37.4549 94.878 38.497ZM90.9879 36.7092C90.9635 35.4986 90.6318 34.5282 89.9895 33.8075C89.7217 33.5111 89.3838 33.277 88.9789 33.1054C88.5741 32.937 88.0932 32.8496 87.5301 32.8496C86.9304 32.8496 86.4009 32.9682 85.9412 33.2022C85.4877 33.4361 85.1102 33.7451 84.8211 34.1289C84.5288 34.4908 84.3218 34.8746 84.1971 35.277C84.0753 35.6795 83.9992 36.16 83.981 36.7123H90.9879V36.7092Z" fill="#B2BFCD" stroke="#B2BFCD" stroke-width="0.25" stroke-miterlimit="10"/>
<path d="M107.796 46.6623V36.4846C107.796 35.508 107.607 34.7405 107.236 34.1882C106.862 33.6359 106.159 33.3583 105.121 33.3583C104.436 33.3583 103.863 33.5548 103.407 33.9479C102.95 34.3411 102.588 34.8465 102.317 35.4643C102.047 36.0821 101.891 36.7997 101.851 37.6172C101.809 38.4378 101.788 39.1959 101.788 39.898V46.6623H97.8975V30.0728H101.166L101.447 32.2101C101.925 31.3396 102.604 30.6937 103.486 30.2787C104.368 29.8637 105.276 29.6547 106.208 29.6547C107.081 29.6547 107.854 29.8045 108.527 30.1009C109.199 30.4004 109.772 30.8091 110.24 31.3302C110.706 31.8512 111.066 32.4784 111.315 33.2116C111.564 33.9449 111.689 34.7374 111.689 35.5891V46.6592H107.796V46.6623Z" fill="#B2BFCD" stroke="#B2BFCD" stroke-width="0.25" stroke-miterlimit="10"/>
<path d="M124.821 46.4407C123.7 46.7371 122.589 46.8869 121.49 46.8869C119.85 46.8869 118.626 46.4345 117.816 45.5297C117.007 44.6249 116.602 43.3768 116.602 41.7825V33.3583H113.644V30.0727H116.602V25.8607L120.492 24.8716V30.0727H124.571V33.3583H120.492V41.4299C120.492 42.0695 120.635 42.5313 120.928 42.8183C121.219 43.1054 121.676 43.2489 122.297 43.2489C122.711 43.2489 123.1 43.2396 123.463 43.2177C123.825 43.1958 124.275 43.1553 124.817 43.0898V46.4407H124.821Z" fill="#B2BFCD" stroke="#B2BFCD" stroke-width="0.25" stroke-miterlimit="10"/>
<path fill-rule="evenodd" clip-rule="evenodd" d="M33.7937 26.3942C33.7937 25.1524 32.8136 24.0604 31.4865 24.0604C30.132 24.0604 29.1792 25.1524 29.1792 26.3942C29.1792 27.6953 30.132 28.6688 31.4865 28.6688C32.8136 28.6688 33.7937 27.6953 33.7937 26.3942Z" fill="#B2BFCD"/>
</svg>
