<svg width="131" height="64" viewBox="0 0 131 64" fill="none" xmlns="http://www.w3.org/2000/svg">
<path fill-rule="evenodd" clip-rule="evenodd" d="M31.1983 11.8335C27.0105 12.259 23.686 14.3829 22.7428 17.2352C22.4439 18.1391 22.3613 18.785 22.4115 19.8262C22.4615 20.8635 22.6214 21.5149 23.0387 22.3806C24.2505 24.8946 27.4676 26.7046 31.3543 27.0591C31.9071 27.1095 35.0313 27.1412 39.502 27.1417C44.0694 27.1422 46.935 27.1719 47.2447 27.2217C48.247 27.3831 49.0671 27.785 49.3628 28.2596C49.5967 28.6353 49.5803 29.275 49.328 29.6143C49.0546 29.982 48.5663 30.2825 47.8446 30.5274L47.2208 30.7389L37.3589 30.7776L27.497 30.8163L24.9489 34.0656C23.5473 35.8528 22.3978 37.342 22.3943 37.375C22.3908 37.408 28.1683 37.4235 35.2332 37.4095L48.0785 37.3841L48.9691 37.2132C51.3763 36.7516 53.3331 35.7913 54.8735 34.3157C56.4754 32.781 57.1262 31.2391 57.1176 28.9982C57.1129 27.7438 56.9626 26.9587 56.538 25.9686C55.5639 23.6971 53.1143 21.7978 50.1232 20.995C48.3692 20.5241 48.7721 20.5443 40.1257 20.4948C32.7603 20.4526 32.1545 20.4393 31.9243 20.3143C31.5752 20.1249 31.4322 19.8883 31.4322 19.4998C31.4322 19.0291 31.6007 18.7513 31.9766 18.6021C32.2633 18.4882 33.3166 18.4764 43.1973 18.4764H54.1016L60.1678 26.7352C63.5042 31.2776 66.4403 35.2461 66.6923 35.5542C68.5443 37.8182 70.6234 38.3934 72.6335 37.1981C73.6651 36.5846 74.0674 36.1086 78.2896 30.5068C82.9012 24.3883 83.259 23.9009 84.3381 22.2681C85.6982 20.21 86.8962 19.303 89.0118 18.7293L89.7915 18.5179L97.1335 18.4778C101.172 18.4558 104.49 18.4203 104.507 18.3991C104.532 18.3693 109.225 12.3021 109.582 11.8391C109.645 11.7575 107.801 11.7442 99.5302 11.7665C90.4129 11.7911 89.3121 11.8073 88.505 11.9278C85.0935 12.4374 82.6237 13.4132 80.4166 15.1233C79.2793 16.0045 78.1644 17.2002 77.5733 18.1728C77.4321 18.4051 75.83 20.6253 74.0132 23.1066L70.7098 27.6181L70.4656 27.2799C70.3313 27.0938 67.7336 23.5225 64.6929 19.3436L59.1645 11.7456L45.5128 11.7559C38.0043 11.7616 31.5628 11.7964 31.1983 11.8335ZM81.7607 29.5783C80.4743 31.2923 79.4112 32.7459 79.3985 32.8086C79.3652 32.9731 80.5914 34.0102 81.672 34.7317C83.1908 35.7455 84.7308 36.4124 86.6344 36.8806C88.7335 37.3968 88.4057 37.3798 96.8211 37.4103L104.474 37.4381L107.056 34.1271L109.637 30.8163L99.7531 30.7743C88.827 30.7278 89.5667 30.7624 88.0751 30.2269C86.5271 29.671 85.1512 28.5135 84.4969 27.2165C84.2943 26.8151 84.1221 26.4811 84.1142 26.4743C84.1063 26.4675 83.0472 27.8643 81.7607 29.5783ZM10.5758 44.2389C9.78048 44.3488 9.23236 44.5999 8.73593 45.0816C8.37206 45.4348 8.26407 45.6007 8.15648 45.9716C7.89481 46.8739 8.15687 47.7492 8.84267 48.2638C9.24912 48.5688 9.61347 48.7203 10.6927 49.0331C11.9559 49.3992 12.33 49.6253 12.33 50.0226C12.33 51.0663 10.3036 50.935 8.68518 49.7865C8.50297 49.6572 8.3404 49.566 8.32379 49.5838C8.25542 49.6573 7.57397 51.05 7.57397 51.1162C7.57397 51.1559 7.7933 51.3252 8.06128 51.4925C10.0498 52.7342 12.6508 52.7425 13.8959 51.5113C14.3149 51.097 14.5131 50.6001 14.5131 49.9643C14.5131 48.6979 13.827 48.0468 11.9012 47.4855C10.908 47.1961 10.5177 47.018 10.347 46.7761C10.1775 46.536 10.194 46.3723 10.4131 46.1197C10.5865 45.9197 10.6433 45.903 11.1343 45.9087C11.749 45.9156 12.3642 46.0787 13.1734 46.4487L13.744 46.7096L14.1196 45.9193C14.5478 45.0184 14.5582 45.0609 13.8285 44.7333C12.9054 44.319 11.5202 44.1084 10.5758 44.2389ZM46.7119 44.2405C45.1026 44.4875 44.1945 45.3525 44.1971 46.6358C44.1985 47.245 44.3568 47.6527 44.7491 48.0561C45.137 48.4551 45.5786 48.6668 46.7247 49.003C48.1864 49.4318 48.4293 49.5893 48.4293 50.1084C48.4293 51.0485 46.3811 50.8967 44.9091 49.8473C44.7009 49.6988 44.5134 49.5774 44.4925 49.5774C44.4715 49.5774 44.2795 49.9232 44.0658 50.3458L43.6772 51.1142L43.9114 51.3098C44.2434 51.5871 45.1763 52.028 45.8174 52.2107C46.4966 52.4041 47.6286 52.4837 48.1954 52.3778C49.019 52.2238 49.5294 51.9797 49.9928 51.5183C50.4963 51.017 50.6585 50.5934 50.6393 49.8297C50.6244 49.239 50.4108 48.7659 49.9877 48.3865C49.5659 48.0085 49.2608 47.8695 47.9547 47.4604C46.6639 47.0561 46.4021 46.8857 46.4021 46.4496C46.4021 46.127 46.6187 45.9496 47.0887 45.887C47.4919 45.8334 48.5509 46.104 49.2789 46.4466C49.596 46.5959 49.8629 46.7086 49.8719 46.6971C49.8809 46.6857 50.0513 46.3318 50.2507 45.9108C50.508 45.3673 50.5901 45.118 50.5337 45.0505C50.4064 44.8984 49.5814 44.5576 48.9618 44.4013C48.2537 44.2227 47.2812 44.1532 46.7119 44.2405ZM58.0974 44.3611C57.0355 44.6379 55.9621 45.3981 55.4795 46.2151C54.5185 47.8423 54.8183 50.0002 56.1805 51.2603C56.7764 51.8115 57.2863 52.0893 58.065 52.2869C59.1973 52.5743 60.5935 52.4277 61.5533 51.9208C62.116 51.6236 63.0033 50.7221 63.264 50.1828C64.4477 47.7345 63.1554 45.0316 60.4785 44.3564C59.8967 44.2097 58.6694 44.2121 58.0974 44.3611ZM80.981 44.3504C80.2761 44.5139 79.8897 44.6693 79.4217 44.9776C77.2447 46.4114 76.9612 49.3826 78.8278 51.2021C79.6589 52.0123 80.632 52.397 81.8387 52.3928C82.7923 52.3895 83.5702 52.1097 84.4643 51.4487L84.8289 51.1791L84.551 50.8492L84.273 50.5193L83.8239 50.8235C83.1034 51.3115 82.6031 51.4502 81.6828 51.4169C80.9996 51.3921 80.8396 51.3582 80.3905 51.1432C79.7978 50.8594 79.1877 50.2655 78.8899 49.6822C77.8774 47.6995 79.3025 45.3294 81.5925 45.1876C82.5334 45.1293 83.1922 45.3395 83.9909 45.9527L84.2719 46.1684L84.5253 45.8183C84.7683 45.4825 84.773 45.4621 84.6424 45.3188C83.9487 44.5583 82.1435 44.0808 80.981 44.3504ZM15.6047 48.3396V52.3626H16.6573H17.7098V51.3732V50.3837L18.2233 49.8254C18.5058 49.5183 18.7705 49.2877 18.8117 49.313C18.8529 49.3382 19.3415 50.0347 19.8975 50.8607L20.9085 52.3626H22.1596C23.0914 52.3626 23.3964 52.3396 23.3547 52.2725C23.3238 52.223 22.5992 51.1572 21.7444 49.9042L20.1902 47.626L20.4571 47.3445C20.6039 47.1897 21.1929 46.5408 21.7659 45.9026C22.3389 45.2643 22.8953 44.6463 23.0022 44.5293L23.1968 44.3166H21.984H20.7712L19.26 46.0151L17.7488 47.7137L17.7279 46.0151L17.7069 44.3166H16.6558H15.6047V48.3396ZM24.9274 47.0941L26.4423 49.8759V51.1193V52.3626H27.4559H28.4695V51.082V49.8013L29.8779 47.1943C30.6526 45.7605 31.3125 44.5609 31.3445 44.5286C31.3764 44.4962 32.0983 46.2457 32.9485 48.4162L34.4944 52.3626H35.5691H36.6437L37.465 50.2931C37.9169 49.1549 38.6352 47.3444 39.0614 46.2701L39.8362 44.3166H38.7606H37.685L37.5966 44.568C37.548 44.7063 37.1008 45.9857 36.6027 47.4112C36.1047 48.8367 35.6759 50.0276 35.6497 50.0578C35.6236 50.088 35.1463 48.8083 34.5893 47.2141L33.5764 44.3156L31.4437 44.3354L29.311 44.3553L28.403 46.0353C27.9035 46.9594 27.4768 47.7166 27.4545 47.718C27.4324 47.7195 26.9921 46.9634 26.4761 46.038L25.538 44.3553L24.4752 44.3337L23.4125 44.3122L24.9274 47.0941ZM40.6325 48.3396V52.3626H41.6851H42.7376V48.3396V44.3166H41.6851H40.6325V48.3396ZM51.782 48.3396V52.3626H52.8345H53.8871V48.3396V44.3166H52.8345H51.782V48.3396ZM64.7247 48.3396V52.3626H65.7383H66.7519V49.9093V47.456L68.5909 49.9093L70.4299 52.3626H71.3588H72.2876V48.3396V44.3166H71.3141H70.3406L70.32 46.7561L70.2994 49.1957L68.4715 46.7561L66.6436 44.3166H65.6842H64.7247V48.3396ZM87.3355 47.7016C86.4993 49.5608 85.6846 51.3716 85.5252 51.7257L85.2353 52.3696L85.7539 52.3467L86.2724 52.3239L86.7065 51.3391L87.1405 50.3543L89.3626 50.3541L91.5847 50.354L92.0153 51.3389L92.4459 52.3239L92.9782 52.347C93.2709 52.3597 93.4981 52.339 93.4832 52.3011C93.4682 52.2631 92.6519 50.4511 91.6692 48.2744L89.8823 44.3166L89.3691 44.3189L88.8558 44.3212L87.3355 47.7016ZM94.7424 48.3339V52.3626H95.2103H95.6781V51.0861V49.8095H97.0651C98.5228 49.8095 99.0442 49.7316 99.6548 49.4226C100.096 49.199 100.501 48.7666 100.736 48.2689C100.915 47.8896 100.94 47.7373 100.94 47.0244C100.941 46.2901 100.92 46.1696 100.722 45.77C100.455 45.2293 99.9435 44.7676 99.354 44.5342C98.9432 44.3715 98.7741 44.358 96.8281 44.3326L94.7424 44.3054V48.3339ZM102.461 48.3396V52.3626H102.968H103.475V48.3396V44.3166H102.968H102.461V48.3396ZM104.8 44.7808V45.245H106.126H107.451V48.8038V52.3626H107.919H108.387V48.8056V45.2487L109.693 45.2275L110.999 45.2063L111.022 44.7614L111.046 44.3166H107.923H104.8V44.7808ZM112.253 48.282C111.27 50.4625 110.451 52.2743 110.433 52.3083C110.415 52.3422 110.636 52.3596 110.925 52.347L111.449 52.3239L111.881 51.3363L112.312 50.3488L114.535 50.3693L116.757 50.3898L117.192 51.3746L117.626 52.3594L118.155 52.3611C118.633 52.3624 118.678 52.3495 118.616 52.2272C118.579 52.1528 117.762 50.3425 116.801 48.2044L115.053 44.317L114.546 44.3173L114.04 44.3175L112.253 48.282ZM119.926 48.3396V52.3626H122.191H124.456L124.433 51.9178L124.409 51.4729L122.636 51.4521L120.862 51.4313V47.8739V44.3166H120.394H119.926V48.3396ZM99.1494 45.4813C99.7276 45.7768 99.9927 46.1964 100.032 46.8771C100.07 47.5584 99.9137 47.9969 99.4986 48.369C99.0273 48.7915 98.5947 48.8811 97.0283 48.8811H95.6781V47.0586V45.2359L97.2204 45.2598C98.6978 45.2826 98.7792 45.292 99.1494 45.4813ZM115.427 47.4138L116.316 49.384L114.562 49.4048C113.597 49.4163 112.796 49.4136 112.781 49.3987C112.766 49.3839 113.148 48.4806 113.63 47.3913C114.111 46.3021 114.513 45.4182 114.522 45.4272C114.531 45.4362 114.939 46.3302 115.427 47.4138ZM90.2695 47.4323L91.1373 49.384L90.25 49.4058C89.7619 49.4178 88.9616 49.4178 88.4714 49.4058L87.58 49.384L88.4444 47.4305C88.9199 46.3562 89.3297 45.4778 89.3552 45.4788C89.3807 45.4798 89.7922 46.3589 90.2695 47.4323ZM60.2475 46.168C61.0247 46.5091 61.528 47.3584 61.528 48.3287C61.528 49.0203 61.3559 49.4925 60.9343 49.9578C60.4651 50.4756 59.9941 50.6929 59.3456 50.6907C58.0628 50.6864 57.084 49.6832 57.0839 48.3727C57.0838 48.0718 57.1391 47.6646 57.2066 47.468C57.4298 46.8179 58.1267 46.195 58.8381 46.0096C59.1743 45.9221 59.8636 45.9995 60.2475 46.168Z" fill="#B2BFCD"/>
</svg>
