<svg width="77" height="78" viewBox="0 0 77 78" fill="none" xmlns="http://www.w3.org/2000/svg">
<path d="M75.0039 0.53125H1.59766C0.898399 0.53125 0.332031 1.09762 0.332031 1.79688V76.4692C0.332031 76.8046 0.46492 77.1273 0.702226 77.3646C0.939531 77.602 1.26227 77.7348 1.59768 77.7348H75.0039C75.3393 77.7348 75.6621 77.6019 75.8994 77.3646C76.1367 77.1273 76.2696 76.8046 76.2696 76.4692V1.79688C76.2696 1.46149 76.1367 1.13875 75.8994 0.90142C75.6621 0.66409 75.3393 0.53125 75.0039 0.53125ZM2.86369 3.0625H73.7387V10.6563H2.86369V3.0625ZM73.7387 75.2027H2.86369V13.1875H73.7387V75.2027Z" fill="#FBC998"/>
<path d="M73.7387 75.2027H2.86369V13.1875H73.7387V75.2027Z" fill="#FBC998"/>
<path d="M2.86369 3.0625H73.7387V10.6563H2.86369V3.0625Z" fill="#FBC998"/>
<path d="M75.0039 0.531274H1.59766C0.898399 0.531274 0.332031 1.09764 0.332031 1.7969V76.4692C0.332031 76.8046 0.46492 77.1273 0.702226 77.3646C0.939531 77.602 1.26227 77.7348 1.59768 77.7348H75.0039C75.3393 77.7348 75.6621 77.602 75.8994 77.3646C76.1367 77.1273 76.2696 76.8046 76.2696 76.4692V1.7969C76.2696 1.46151 76.1367 1.13877 75.8994 0.901444C75.6621 0.664114 75.3393 0.531274 75.0039 0.531274ZM2.86369 3.06252H73.7387V10.6563H2.86369V3.06252ZM73.7387 75.2028H2.86369V13.1875H73.7387V75.2028Z" fill="#E8504A"/>
<path d="M2.86369 3.06252H73.7387V10.6563H2.86369V3.06252Z" fill="#E8504A"/>
<path d="M7.92638 48.6254C9.53058 48.6191 10.9544 47.6066 11.4891 46.0941H18.1146C18.1937 47.3756 18.3962 48.6475 18.719 49.891H11.7232C11.024 49.891 10.4576 50.4574 10.4576 51.1566V58.9846C8.71426 59.5984 7.66693 61.3829 7.98015 63.2054C8.2934 65.0279 9.87539 66.3599 11.7232 66.3599C13.5711 66.3599 15.1531 65.0279 15.4663 63.2054C15.7796 61.3829 14.7323 59.5984 12.9889 58.9846V52.4223H19.5416C21.4305 57.0481 24.9553 60.8163 29.4422 63.009V68.8752H24.1456C23.5317 67.1318 21.7472 66.0845 19.9247 66.3977C18.1022 66.7109 16.7702 68.2929 16.7702 70.1408C16.7702 71.9886 18.1022 73.5706 19.9247 73.8839C21.7472 74.1971 23.5317 73.1498 24.1456 71.4064H30.7079C31.0433 71.4064 31.366 71.2735 31.6033 71.0362C31.8406 70.7989 31.9735 70.4762 31.9735 70.1408V64.0531C36.0805 65.42 40.5231 65.42 44.6298 64.0531V68.8751C44.6298 69.2105 44.7627 69.5333 45 69.7706C45.2373 70.0079 45.56 70.1408 45.8954 70.1408H52.4577C53.0715 71.8841 54.856 72.9315 56.6785 72.6182C58.501 72.305 59.8331 70.723 59.8331 68.8752C59.8331 67.0273 58.501 65.4453 56.6785 65.1321C54.856 64.8188 53.0715 65.8661 52.4577 67.6095H47.161V63.009C51.6477 60.8163 55.1724 57.0479 57.0617 52.4223H63.6144V58.9846C61.871 59.5984 60.8237 61.3829 61.1369 63.2054C61.4502 65.0279 63.0322 66.3599 64.88 66.3599C66.7279 66.3599 68.3099 65.0279 68.6231 63.2054C68.9364 61.3829 67.8891 59.5984 66.1456 58.9846V51.1566C66.1456 50.8213 66.0128 50.4985 65.7755 50.2612C65.5381 50.0239 65.2154 49.891 64.88 49.891H57.8843C58.207 48.6475 58.4095 47.3755 58.4886 46.0941H61.3173C61.9311 47.8375 63.7156 48.8848 65.5381 48.5716C67.3606 48.2583 68.6927 46.6764 68.6927 44.8285C68.6927 42.9806 67.3606 41.3986 65.5381 41.0854C63.7156 40.7722 61.9311 41.8195 61.3173 43.5629H58.4886C58.4095 42.2815 58.207 41.0095 57.8843 39.766H64.88C65.2154 39.766 65.5381 39.6331 65.7755 39.3958C66.0128 39.1585 66.1456 38.8358 66.1456 38.5003V30.6724C67.889 30.0586 68.9363 28.2741 68.6231 26.4516C68.3099 24.6291 66.7279 23.2971 64.88 23.2971C63.0322 23.2971 61.4502 24.6291 61.1369 26.4516C60.8237 28.2741 61.871 30.0586 63.6144 30.6724V37.2347H57.0617C55.1727 32.6089 51.648 28.8407 47.161 26.648V22.0475H52.4577C53.0715 23.7908 54.856 24.8382 56.6785 24.5249C58.501 24.2117 59.8331 22.6297 59.8331 20.7818C59.8331 18.934 58.501 17.352 56.6785 17.0387C54.856 16.7255 53.0715 17.7728 52.4577 19.5162H45.8954C45.1962 19.5162 44.6298 20.0826 44.6298 20.7818V25.6039C40.5228 24.237 36.0802 24.237 31.9735 25.6039V19.5162C31.9735 19.1808 31.8406 18.8581 31.6033 18.6208C31.366 18.3834 31.0433 18.2506 30.7079 18.2506H24.1456C23.5318 16.5072 21.7473 15.4599 19.9248 15.7731C18.1023 16.0863 16.7702 17.6683 16.7702 19.5162C16.7702 21.364 18.1023 22.9461 19.9248 23.2593C21.7473 23.5725 23.5318 22.5252 24.1456 20.7818H29.4423V26.648C24.9556 28.8407 21.4309 32.6091 19.5416 37.2347H12.9889V30.6724C14.7323 30.0586 15.7796 28.2741 15.4664 26.4516C15.1531 24.6291 13.5711 23.297 11.7233 23.297C9.87541 23.297 8.2934 24.6291 7.98018 26.4516C7.66693 28.2741 8.71424 30.0586 10.4576 30.6724V38.5003C10.4576 38.8357 10.5905 39.1585 10.8278 39.3958C11.0651 39.6331 11.3879 39.766 11.7233 39.766H18.719C18.3963 41.0095 18.1938 42.2814 18.1147 43.5628H11.4891C11.0145 42.2276 9.8343 41.2721 8.43267 41.0791C7.02781 40.8861 5.63566 41.4936 4.81935 42.6516C4.00619 43.8097 3.90178 45.3284 4.55673 46.5846C5.21168 47.8407 6.50888 48.6286 7.92638 48.6254ZM11.7233 63.8129C11.2107 63.8129 10.7487 63.506 10.5526 63.0314C10.3596 62.5599 10.4671 62.0157 10.8278 61.6519C11.1917 61.2912 11.7359 61.1836 12.2073 61.3766C12.682 61.5728 12.9889 62.0347 12.9889 62.5473C12.9889 62.8827 12.856 63.2054 12.6187 63.4427C12.3814 63.6801 12.0587 63.8129 11.7233 63.8129ZM20.583 71.4067C20.0705 71.4067 19.6085 71.0997 19.4123 70.6251C19.2193 70.1537 19.3269 69.6095 19.6876 69.2456C20.0515 68.8849 20.5957 68.7773 21.0671 68.9703C21.5417 69.1665 21.8486 69.6285 21.8486 70.141C21.8486 70.4764 21.7158 70.7992 21.4784 71.0365C21.2411 71.2738 20.9184 71.4067 20.583 71.4067ZM56.0205 67.6098C56.5331 67.6098 56.995 67.9167 57.1912 68.3913C57.3842 68.8627 57.2767 69.407 56.916 69.7708C56.5521 70.1315 56.0079 70.2391 55.5364 70.0461C55.0618 69.8499 54.7549 69.3879 54.7549 68.8754C54.7549 68.1761 55.3213 67.6098 56.0205 67.6098ZM64.8803 63.8129C64.3677 63.8129 63.9058 63.506 63.7096 63.0314C63.5166 62.5599 63.6242 62.0157 63.9849 61.6519C64.3488 61.2912 64.893 61.1836 65.3644 61.3766C65.839 61.5728 66.1459 62.0347 66.1459 62.5473C66.1459 62.8827 66.013 63.2054 65.7757 63.4427C65.5384 63.6801 65.2157 63.8129 64.8803 63.8129ZM64.8803 25.8441C65.3929 25.8441 65.8548 26.1511 66.051 26.6257C66.244 27.0971 66.1364 27.6413 65.7757 28.0052C65.4119 28.3659 64.8676 28.4735 64.3962 28.2804C63.9216 28.0843 63.6147 27.6223 63.6147 27.1098C63.6147 26.4105 64.1811 25.8441 64.8803 25.8441ZM56.0205 19.516C56.5331 19.516 56.995 19.8229 57.1912 20.2975C57.3842 20.769 57.2767 21.3132 56.916 21.6771C56.5521 22.0378 56.0079 22.1453 55.5364 21.9523C55.0618 21.7561 54.7549 21.2942 54.7549 20.7816C54.7549 20.0824 55.3213 19.516 56.0205 19.516ZM20.583 20.7816C20.0705 20.7816 19.6085 20.4747 19.4123 20.0001C19.2193 19.5287 19.3269 18.9845 19.6876 18.6206C20.0515 18.2599 20.5957 18.1523 21.0671 18.3453C21.5417 18.5415 21.8486 19.0035 21.8486 19.516C21.8486 19.8514 21.7158 20.1742 21.4784 20.4115C21.2411 20.6488 20.9184 20.7816 20.583 20.7816ZM11.7233 25.8441C12.2358 25.8441 12.6978 26.1511 12.8939 26.6257C13.087 27.0971 12.9794 27.6413 12.6187 28.0052C12.2548 28.3659 11.7106 28.4735 11.2392 28.2804C10.7646 28.0843 10.4576 27.6223 10.4576 27.1098C10.4576 26.4105 11.024 25.8441 11.7233 25.8441ZM64.8795 43.5629C65.3921 43.5629 65.854 43.8698 66.0502 44.3444C66.2432 44.8159 66.1356 45.3601 65.7749 45.7239C65.4111 46.0846 64.8668 46.1922 64.3954 45.9992C63.9208 45.803 63.6139 45.3411 63.6139 44.8285C63.6139 44.1292 64.1802 43.5629 64.8795 43.5629ZM38.3018 27.1102C43.0004 27.1102 47.5091 28.977 50.8317 32.2992C54.1543 35.6214 56.0207 40.1303 56.0207 44.8291C56.0207 49.5279 54.1539 54.0364 50.8317 57.359C47.5095 60.6816 43.0006 62.548 38.3018 62.548C33.603 62.548 29.0945 60.6812 25.7719 57.359C22.4493 54.0368 20.5829 49.5279 20.5829 44.8291C20.5892 40.1304 22.456 35.6283 25.7783 32.3057C29.1006 28.9834 33.6031 27.1166 38.3018 27.1102ZM7.92678 43.5629C8.43936 43.5629 8.90129 43.8698 9.09747 44.3444C9.29048 44.8159 9.18291 45.3601 8.8222 45.7239C8.45834 46.0846 7.91411 46.1922 7.44269 45.9992C6.96808 45.803 6.66117 45.3411 6.66117 44.8285C6.66117 44.1292 7.22752 43.5629 7.92678 43.5629Z" fill="#E8504A"/>
<path d="M11.7233 25.8441C12.2358 25.8441 12.6978 26.1511 12.8939 26.6257C13.087 27.0971 12.9794 27.6413 12.6187 28.0052C12.2548 28.3659 11.7106 28.4735 11.2392 28.2804C10.7646 28.0843 10.4576 27.6223 10.4576 27.1098C10.4576 26.4105 11.024 25.8441 11.7233 25.8441Z" fill="#E8504A"/>
<path d="M20.583 20.7816C20.0705 20.7816 19.6085 20.4747 19.4123 20.0001C19.2193 19.5287 19.3269 18.9845 19.6876 18.6206C20.0515 18.2599 20.5957 18.1523 21.0671 18.3453C21.5417 18.5415 21.8486 19.0035 21.8486 19.516C21.8486 19.8514 21.7158 20.1742 21.4784 20.4115C21.2411 20.6488 20.9184 20.7816 20.583 20.7816Z" fill="#E8504A"/>
<path d="M56.0205 19.516C56.5331 19.516 56.995 19.8229 57.1912 20.2975C57.3842 20.769 57.2767 21.3132 56.916 21.6771C56.5521 22.0378 56.0079 22.1453 55.5364 21.9523C55.0618 21.7561 54.7549 21.2942 54.7549 20.7816C54.7549 20.0824 55.3213 19.516 56.0205 19.516Z" fill="#E8504A"/>
<path d="M64.8803 25.8441C65.3929 25.8441 65.8548 26.1511 66.051 26.6257C66.244 27.0971 66.1364 27.6413 65.7757 28.0052C65.4119 28.3659 64.8676 28.4735 64.3962 28.2804C63.9216 28.0843 63.6147 27.6223 63.6147 27.1098C63.6147 26.4105 64.1811 25.8441 64.8803 25.8441Z" fill="#E8504A"/>
<path d="M64.8795 43.5629C65.3921 43.5629 65.854 43.8698 66.0502 44.3444C66.2432 44.8159 66.1356 45.3601 65.7749 45.7239C65.4111 46.0846 64.8668 46.1922 64.3954 45.9992C63.9208 45.803 63.6139 45.3411 63.6139 44.8285C63.6139 44.1292 64.1802 43.5629 64.8795 43.5629Z" fill="#E8504A"/>
<path d="M64.8803 63.8129C64.3677 63.8129 63.9058 63.506 63.7096 63.0314C63.5166 62.5599 63.6242 62.0157 63.9849 61.6519C64.3488 61.2912 64.893 61.1836 65.3644 61.3766C65.839 61.5728 66.1459 62.0347 66.1459 62.5473C66.1459 62.8827 66.013 63.2054 65.7757 63.4427C65.5384 63.6801 65.2157 63.8129 64.8803 63.8129Z" fill="#E8504A"/>
<path d="M56.0205 67.6098C56.5331 67.6098 56.995 67.9167 57.1912 68.3913C57.3842 68.8627 57.2767 69.407 56.916 69.7708C56.5521 70.1315 56.0079 70.2391 55.5364 70.0461C55.0618 69.8499 54.7549 69.3879 54.7549 68.8754C54.7549 68.1761 55.3213 67.6098 56.0205 67.6098Z" fill="#E8504A"/>
<path d="M20.583 71.4067C20.0705 71.4067 19.6085 71.0997 19.4123 70.6251C19.2193 70.1537 19.3269 69.6095 19.6876 69.2456C20.0515 68.8849 20.5957 68.7773 21.0671 68.9703C21.5417 69.1665 21.8486 69.6285 21.8486 70.141C21.8486 70.4764 21.7158 70.7992 21.4784 71.0365C21.2411 71.2738 20.9184 71.4067 20.583 71.4067Z" fill="#E8504A"/>
<path d="M11.7233 63.8129C11.2107 63.8129 10.7487 63.506 10.5526 63.0314C10.3596 62.5599 10.4671 62.0157 10.8278 61.6519C11.1917 61.2912 11.7359 61.1836 12.2073 61.3766C12.682 61.5728 12.9889 62.0347 12.9889 62.5473C12.9889 62.8827 12.856 63.2054 12.6187 63.4427C12.3814 63.6801 12.0587 63.8129 11.7233 63.8129Z" fill="#E8504A"/>
<path d="M7.92678 43.5629C8.43936 43.5629 8.90129 43.8698 9.09747 44.3444C9.29048 44.8159 9.18291 45.3601 8.8222 45.7239C8.45834 46.0846 7.91411 46.1922 7.44269 45.9992C6.96808 45.803 6.66117 45.3411 6.66117 44.8285C6.66117 44.1292 7.22752 43.5629 7.92678 43.5629Z" fill="#E8504A"/>
<path d="M5.3949 6.85938C5.3949 6.16039 5.96154 5.59375 6.66052 5.59375V5.59375C7.35951 5.59375 7.92615 6.16039 7.92615 6.85938V6.85938C7.92615 7.55836 7.35951 8.125 6.66052 8.125V8.125C5.96154 8.125 5.3949 7.55836 5.3949 6.85938V6.85938Z" fill="#FBC998"/>
<path d="M9.19141 6.85938C9.19141 6.16039 9.75805 5.59375 10.457 5.59375V5.59375C11.156 5.59375 11.7227 6.16039 11.7227 6.85938V6.85938C11.7227 7.55836 11.156 8.125 10.457 8.125V8.125C9.75805 8.125 9.19141 7.55836 9.19141 6.85938V6.85938Z" fill="#FBC998"/>
<path d="M12.9886 6.85938C12.9886 6.16039 13.5553 5.59375 14.2543 5.59375V5.59375C14.9533 5.59375 15.5199 6.16039 15.5199 6.85938V6.85938C15.5199 7.55836 14.9533 8.125 14.2543 8.125V8.125C13.5553 8.125 12.9886 7.55836 12.9886 6.85938V6.85938Z" fill="#FBC998"/>
<path d="M37.5698 54.7619V54.7591H37.8198H37.8199H37.8201H37.8203H37.8204H37.8206H37.8207H37.8209H37.821H37.8212H37.8214H37.8215H37.8217H37.8218H37.822H37.8221H37.8223H37.8224H37.8226H37.8228H37.8229H37.8231H37.8232H37.8234H37.8235H37.8237H37.8238H37.824H37.8241H37.8243H37.8244H37.8246H37.8247H37.8249H37.8251H37.8252H37.8254H37.8255H37.8257H37.8258H37.826H37.8261H37.8263H37.8264H37.8266H37.8267H37.8269H37.827H37.8272H37.8273H37.8275H37.8276H37.8278H37.8279H37.8281H37.8282H37.8283H37.8285H37.8286H37.8288H37.8289H37.8291H37.8292H37.8294H37.8295H37.8297H37.8298H37.83H37.8301H37.8303H37.8304H37.8305H37.8307H37.8308H37.831H37.8311H37.8313H37.8314H37.8316H37.8317H37.8319H37.832H37.8321H37.8323H37.8324H37.8326H37.8327H37.8329H37.833H37.8331H37.8333H37.8334H37.8336H37.8337H37.8339H37.834H37.8341H37.8343H37.8344H37.8346H37.8347H37.8349H37.835H37.8351H37.8353H37.8354H37.8356H37.8357H37.8358H37.836H37.8361H37.8363H37.8364H37.8365H37.8367H37.8368H37.837H37.8371H37.8372H37.8374H37.8375H37.8377H37.8378H37.8379H37.8381H37.8382H37.8384H37.8385H37.8386H37.8388H37.8389H37.839H37.8392H37.8393H37.8395H37.8396H37.8397H37.8399H37.84H37.8401H37.8403H37.8404H37.8406H37.8407H37.8408H37.841H37.8411H37.8412H37.8414H37.8415H37.8417H37.8418H37.8419H37.8421H37.8422H37.8423H37.8425H37.8426H37.8427H37.8429H37.843H37.8431H37.8433H37.8434H37.8436H37.8437H37.8438H37.844H37.8441H37.8442H37.8444H37.8445H37.8446H37.8448H37.8449H37.845H37.8452H37.8453H37.8454H37.8456H37.8457H37.8458H37.846H37.8461H37.8462H37.8464H37.8465H37.8466H37.8468H37.8469H37.847H37.8472H37.8473H37.8474H37.8476H37.8477H37.8478H37.848H37.8481H37.8482H37.8484H37.8485H37.8486H37.8488H37.8489H37.849H37.8492H37.8493H37.8494H37.8496H37.8497H37.8498H37.85H37.8501H37.8502H37.8504H37.8505H37.8506H37.8508H37.8509H37.851H37.8512H37.8513H37.8514H37.8516H37.8517H37.8518H37.852H37.8521H37.8522H37.8524H37.8525H37.8526H37.8528H37.8529H37.853H37.8531H37.8533H37.8534H37.8535H37.8537H37.8538H37.8539H37.8541H37.8542H37.8543H37.8545H37.8546H37.8547H37.8549H37.855H37.8551H37.8553H37.8554H37.8555H37.8557H37.8558H37.8559H37.8561H37.8562H37.8563H37.8564H37.8566H37.8567H37.8568H37.857H37.8571H37.8572H37.8574H37.8575H37.8576H37.8578H37.8579H37.858H37.8582H37.8583H37.8584H37.8586H37.8587H37.8588H37.859H37.8591H37.8592H37.8594H37.8595H37.8596H37.8597H37.8599H37.86H37.8601H37.8603H37.8604H37.8605H37.8607H37.8608H37.8609H37.8611H37.8612H37.8613H37.8615H37.8616H37.8617H37.8619H37.862H37.8621H37.8623H37.8624H37.8625H37.8627H37.8628H37.8629H37.8631H37.8632H37.8633H37.8635H37.8636H37.8637H37.8639H37.864H37.8641H37.8643H37.8644H37.8645H37.8647H37.8648H37.8649H37.8651H37.8652H37.8653H37.8655H37.8656H37.8657H37.8659H37.866H37.8661H37.8663H37.8664H37.8665H37.8667H37.8668H37.8669H37.8671H37.8672H37.8673H37.8675H37.8676H37.8678H37.8679H37.868H37.8682H37.8683H37.8684H37.8686H37.8687H37.8688H37.869H37.8691H37.8692H37.8694H37.8695H37.8696H37.8698H37.8699H37.8701H37.8702H37.8703H37.8705H37.8706H37.8707H37.8709H37.871H37.8712H37.8713H37.8714H37.8716H37.8717H37.8718H37.872H37.8721H37.8723H37.8724H37.8725H37.8727H37.8728H37.8729H37.8731H37.8732H37.8734H37.8735H37.8736H37.8738H37.8739H37.8741H37.8742H37.8743H37.8745H37.8746H37.8748H37.8749H37.875H37.8752H37.8753H37.8755H37.8756H37.8757H37.8759H37.876H37.8762H37.8763H37.8764H37.8766H37.8767H37.8769H37.877H37.8771H37.8773H37.8774H37.8776H37.8777H37.8779H37.878H37.8781H37.8783H37.8784H37.8786H37.8787H37.8789H37.879H37.8791H37.8793H37.8794H37.8796H37.8797H37.8799H37.88H37.8802H37.8803H37.8804H37.8806H37.8807H37.8809H37.881H37.8812H37.8813H37.8815H37.8816H37.8818H37.8819H37.882H37.8822H37.8823H37.8825H37.8826H37.8828H37.8829H37.8831H37.8832H37.8834H37.8835H37.8837H37.8838H37.884H37.8841H37.8843H37.8844H37.8846H37.8847H37.8849H37.885H37.8852H37.8853H37.8855H37.8856H37.8858H37.8859H37.8861H37.8862H37.8864H37.8865H37.8867H37.8868H37.887H37.8871H37.8873H37.8874H37.8876H37.8877H37.8879H37.888H37.8882H37.8884H37.8885H37.8887H37.8888H37.889H37.8891H37.8893H37.8894H37.8896H37.8897H37.8899H37.8901H37.8902H37.8904H37.8905H37.8907H37.8908H37.891H37.8912H37.8913H37.8915H37.8916H37.8918C38.7849 54.7591 39.8704 54.5137 40.7283 54.0444C41.591 53.5726 42.1662 52.9105 42.1778 52.0948L42.1778 52.0936C42.203 50.7873 41.6353 49.902 40.6947 49.1864C39.7387 48.4592 38.4161 47.9215 36.9516 47.3261L36.943 47.3226L36.9426 47.3224L36.9168 47.312C35.3481 46.6768 33.632 45.9819 32.3195 44.903C30.9843 43.8054 30.0624 42.3072 30.0998 40.0885M37.5698 54.7619L37.8918 55.0091C39.7548 55.0091 42.4008 53.9917 42.4278 52.0984C42.4816 49.3044 39.9719 48.2841 37.0698 47.1043L37.0368 47.0909L37.0297 47.088C33.8635 45.8059 30.2778 44.3539 30.3498 40.0927C30.3768 38.3498 31.3848 36.7484 33.1848 35.5806C34.7148 34.5897 36.7038 34.0058 38.5308 34.0058H38.6568M37.5698 54.7619C34.9895 54.6656 32.6868 53.569 30.7113 51.4841L30.5427 51.3062L30.3615 51.4711L29.6325 52.1347L29.4441 52.3061L29.6191 52.4913C31.9019 54.9065 34.7275 56.2137 37.7988 56.25V56.25H37.8018H37.8021H37.8023H37.8026H37.8028H37.8031H37.8034H37.8036H37.8039H37.8042H37.8044H37.8047H37.805H37.8052H37.8055H37.8057H37.806H37.8063H37.8065H37.8068H37.8071H37.8073H37.8076H37.8079H37.8081H37.8084H37.8086H37.8089H37.8092H37.8094H37.8097H37.81H37.8102H37.8105H37.8108H37.811H37.8113H37.8115H37.8118H37.8121H37.8123H37.8126H37.8129H37.8131H37.8134H37.8137H37.8139H37.8142H37.8144H37.8147H37.815H37.8152H37.8155H37.8158H37.816H37.8163H37.8166H37.8168H37.8171H37.8173H37.8176H37.8179H37.8181H37.8184H37.8187H37.8189H37.8192H37.8195H37.8197H37.82H37.8202H37.8205H37.8208H37.821H37.8213H37.8216H37.8218H37.8221H37.8224H37.8226H37.8229H37.8231H37.8234H37.8237H37.8239H37.8242H37.8245H37.8247H37.825H37.8253H37.8255H37.8258H37.826H37.8263H37.8266H37.8268H37.8271H37.8274H37.8276H37.8279H37.8282H37.8284H37.8287H37.8289H37.8292H37.8295H37.8297H37.83H37.8303H37.8305H37.8308H37.8311H37.8313H37.8316H37.8318H37.8321H37.8324H37.8326H37.8329H37.8332H37.8334H37.8337H37.834H37.8342H37.8345H37.8347H37.835H37.8353H37.8355H37.8358H37.8361H37.8363H37.8366H37.8369H37.8371H37.8374H37.8376H37.8379H37.8382H37.8384H37.8387H37.839H37.8392H37.8395H37.8398H37.84H37.8403H37.8405H37.8408H37.8411H37.8413H37.8416H37.8419H37.8421H37.8424H37.8427H37.8429H37.8432H37.8434H37.8437H37.844H37.8442H37.8445H37.8448H37.845H37.8453H37.8456H37.8458H37.8461H37.8463H37.8466H37.8469H37.8471H37.8474H37.8477H37.8479H37.8482H37.8485H37.8487H37.849H37.8492H37.8495H37.8498H37.85H37.8503H37.8506H37.8508H37.8511H37.8514H37.8516H37.8519H37.8521H37.8524H37.8527H37.8529H37.8532H37.8535H37.8537H37.854H37.8543H37.8545H37.8548H37.855H37.8553H37.8556H37.8558H37.8561H37.8564H37.8566H37.8569H37.8572H37.8574H37.8577H37.858H37.8582H37.8585H37.8587H37.859H37.8593H37.8595H37.8598H37.8601H37.8603H37.8606H37.8609H37.8611H37.8614H37.8616H37.8619H37.8622H37.8624H37.8627H37.863H37.8632H37.8635H37.8638H37.864H37.8643H37.8645H37.8648H37.8651H37.8653H37.8656H37.8659H37.8661H37.8664H37.8667H37.8669H37.8672H37.8674H37.8677H37.868H37.8682H37.8685H37.8688H37.869H37.8693H37.8696H37.8698H37.8701H37.8703H37.8706H37.8709H37.8711H37.8714H37.8717H37.8719H37.8722H37.8725H37.8727H37.873H37.8732H37.8735H37.8738H37.874H37.8743H37.8746H37.8748H37.8751H37.8754H37.8756H37.8759H37.8761H37.8764H37.8767H37.8769H37.8772H37.8775H37.8777H37.878H37.8783H37.8785H37.8788H37.879H37.8793H37.8796H37.8798H37.8801H37.8804H37.8806H37.8809H37.8812H37.8814H37.8817H37.8819H37.8822H37.8825H37.8827H37.883H37.8833H37.8835H37.8838H37.8841H37.8843H37.8846H37.8848H37.8851H37.8854H37.8856H37.8859H37.8862H37.8864H37.8867H37.887H37.8872H37.8875H37.8877H37.888H37.8883H37.8885H37.8888H37.8891H37.8893H37.8896H37.8899H37.8901H37.8904H37.8906H37.8909H37.8912H37.8914H37.8917H37.892H37.8922H37.8925H37.8928H37.893H37.8933H37.8935H37.8938H37.8941H37.8943H37.8946H37.8949H37.8951H37.8954H37.8957H37.8959H37.8962H37.8964H37.8967H37.897H37.8972H37.8975H37.8978H37.898H37.8983H37.8986H37.8988H37.8991H37.8993H37.8996H37.8999H37.9001H37.9004H37.9007H37.9009H37.9012H37.9015H37.9017H37.902H37.9022H37.9025H37.9028H37.903H37.9033H37.9036H37.9038H37.9041H37.9044H37.9046H37.9049H37.9051H37.9054H37.9057H37.9059H37.9062H37.9065H37.9067H37.907H37.9073H37.9075H37.9078H37.908H37.9083H37.9086H37.9088H37.9091H37.9094H37.9096H37.9099H37.9102H37.9104H37.9107H37.9109H37.9112H37.9115H37.9117H37.912H37.9123H37.9125H37.9128H37.9131H37.9133H37.9136H37.9138H37.9141H37.9144H37.9146H37.9149H37.9152H37.9154H37.9157H37.916H37.9162H37.9165H37.9167H37.917H37.9173H37.9175H37.9178H37.9181H37.9183H37.9186H37.9189H37.9191H37.9194H37.9196H37.9199H37.9202H37.9204H37.9207H37.921H37.9212H37.9215H37.9218H37.922H37.9223H37.9225H37.9228H37.9231H37.9233H37.9236H37.9239H37.9241H37.9244H37.9247H37.9249H37.9252H37.9255H37.9257H37.926H37.9262H37.9265H37.9268H37.927H37.9273H37.9276H37.9278H37.9281H37.9284H37.9286H37.9289H37.9291H37.9294H37.9297H37.9299H37.9302H37.9305H37.9307H37.931H37.9313H37.9315H37.9318H37.932H37.9323H37.9326H37.9328H37.9331H37.9334H37.9336H37.9339H37.9342H37.9344H37.9347H37.9349H37.9352H37.9355H37.9357H37.936H37.9363H37.9365H37.9368C39.9097 56.25 42.0387 55.737 43.68 54.849C45.6929 53.7688 46.9085 52.1731 47.0332 50.3463C47.188 48.1239 46.3066 46.5763 44.9788 45.4111C43.6706 44.263 41.9218 43.4803 40.3234 42.7649L40.3071 42.7576C38.8079 42.0853 37.4537 41.4771 36.4922 40.698C35.5471 39.9322 35.0027 39.0191 35.0902 37.7216C35.162 36.7529 35.869 36.1574 36.4983 35.8184L36.4986 35.8183C37.2742 35.3993 38.3251 35.1783 39.2344 35.2373C41.6967 35.4004 43.6364 36.4159 45.544 38.5602L45.7067 38.7431L45.893 38.5843L46.64 37.9473L46.8341 37.7817L46.6647 37.591C44.5219 35.1785 42.1868 33.9565 39.3323 33.7653M37.5698 54.7619L39.3138 34.0147M30.0998 40.0885L30.3496 40.0927L30.0998 40.0888C30.0998 40.0887 30.0998 40.0886 30.0998 40.0885ZM30.0998 40.0885C30.1285 38.2424 31.1975 36.5719 33.0487 35.3709L33.0489 35.3708C34.6197 34.3535 36.656 33.7558 38.5308 33.7558H38.531H38.5312H38.5314H38.5316H38.5318H38.5321H38.5323H38.5325H38.5327H38.5329H38.5331H38.5333H38.5335H38.5338H38.534H38.5342H38.5344H38.5346H38.5348H38.535H38.5353H38.5355H38.5357H38.5359H38.5361H38.5363H38.5366H38.5368H38.537H38.5372H38.5374H38.5376H38.5379H38.5381H38.5383H38.5385H38.5387H38.5389H38.5392H38.5394H38.5396H38.5398H38.54H38.5403H38.5405H38.5407H38.5409H38.5411H38.5414H38.5416H38.5418H38.542H38.5422H38.5425H38.5427H38.5429H38.5431H38.5434H38.5436H38.5438H38.544H38.5442H38.5445H38.5447H38.5449H38.5451H38.5454H38.5456H38.5458H38.546H38.5463H38.5465H38.5467H38.5469H38.5472H38.5474H38.5476H38.5478H38.5481H38.5483H38.5485H38.5487H38.549H38.5492H38.5494H38.5496H38.5499H38.5501H38.5503H38.5506H38.5508H38.551H38.5512H38.5515H38.5517H38.5519H38.5522H38.5524H38.5526H38.5528H38.5531H38.5533H38.5535H38.5538H38.554H38.5542H38.5545H38.5547H38.5549H38.5551H38.5554H38.5556H38.5558H38.5561H38.5563H38.5565H38.5568H38.557H38.5572H38.5575H38.5577H38.5579H38.5582H38.5584H38.5586H38.5589H38.5591H38.5593H38.5596H38.5598H38.56H38.5603H38.5605H38.5607H38.561H38.5612H38.5614H38.5617H38.5619H38.5622H38.5624H38.5626H38.5629H38.5631H38.5633H38.5636H38.5638H38.564H38.5643H38.5645H38.5648H38.565H38.5652H38.5655H38.5657H38.5659H38.5662H38.5664H38.5667H38.5669H38.5671H38.5674H38.5676H38.5679H38.5681H38.5683H38.5686H38.5688H38.5691H38.5693H38.5695H38.5698H38.57H38.5703H38.5705H38.5707H38.571H38.5712H38.5715H38.5717H38.5719H38.5722H38.5724H38.5727H38.5729H38.5732H38.5734H38.5736H38.5739H38.5741H38.5744H38.5746H38.5749H38.5751H38.5753H38.5756H38.5758H38.5761H38.5763H38.5766H38.5768H38.577H38.5773H38.5775H38.5778H38.578H38.5783H38.5785H38.5788H38.579H38.5793H38.5795H38.5797H38.58H38.5802H38.5805H38.5807H38.581H38.5812H38.5815H38.5817H38.582H38.5822H38.5825H38.5827H38.5829H38.5832H38.5834H38.5837H38.5839H38.5842H38.5844H38.5847H38.5849H38.5852H38.5854H38.5857H38.5859H38.5862H38.5864H38.5867H38.5869H38.5872H38.5874H38.5877H38.5879H38.5882H38.5884H38.5887H38.5889H38.5892H38.5894H38.5897H38.5899H38.5902H38.5904H38.5907H38.5909H38.5912H38.5914H38.5917H38.5919H38.5922H38.5924H38.5927H38.5929H38.5932H38.5934H38.5937H38.5939H38.5942H38.5944H38.5947H38.5949H38.5952H38.5954H38.5957H38.5959H38.5962H38.5965H38.5967H38.597H38.5972H38.5975H38.5977H38.598H38.5982H38.5985H38.5987H38.599H38.5992H38.5995H38.5997H38.6H38.6003H38.6005H38.6008H38.601H38.6013H38.6015H38.6018H38.602H38.6023H38.6025H38.6028H38.6031H38.6033H38.6036H38.6038H38.6041H38.6043H38.6046H38.6048H38.6051H38.6054H38.6056H38.6059H38.6061H38.6064H38.6066H38.6069H38.6072H38.6074H38.6077H38.6079H38.6082H38.6084H38.6087H38.6089H38.6092H38.6095H38.6097H38.61H38.6102H38.6105H38.6107H38.611H38.6113H38.6115H38.6118H38.612H38.6123H38.6126H38.6128H38.6131H38.6133H38.6136H38.6138H38.6141H38.6144H38.6146H38.6149H38.6151H38.6154H38.6157H38.6159H38.6162H38.6164H38.6167H38.6169H38.6172H38.6175H38.6177H38.618H38.6182H38.6185H38.6188H38.619H38.6193H38.6195H38.6198H38.6201H38.6203H38.6206H38.6208H38.6211H38.6214H38.6216H38.6219H38.6221H38.6224H38.6227H38.6229H38.6232H38.6234H38.6237H38.624H38.6242H38.6245H38.6247H38.625H38.6253H38.6255H38.6258H38.626H38.6263H38.6266H38.6268H38.6271H38.6274H38.6276H38.6279H38.6281H38.6284H38.6287H38.6289H38.6292H38.6294H38.6297H38.63H38.6302H38.6305H38.6307H38.631H38.6313H38.6315H38.6318H38.6321H38.6323H38.6326H38.6328H38.6331H38.6334H38.6336H38.6339H38.6342H38.6344H38.6347H38.6349H38.6352H38.6355H38.6357H38.636H38.6363H38.6365H38.6368H38.637H38.6373H38.6376H38.6378H38.6381H38.6384H38.6386H38.6389H38.6391H38.6394H38.6397H38.6399H38.6402H38.6405H38.6407H38.641H38.6412H38.6415H38.6418H38.642H38.6423H38.6426H38.6428H38.6431H38.6433H38.6436H38.6439H38.6441H38.6444H38.6447H38.6449H38.6452H38.6455H38.6457H38.646H38.6462H38.6465H38.6468H38.647H38.6473H38.6476H38.6478H38.6481H38.6484H38.6486H38.6489H38.6491H38.6494H38.6497H38.6499H38.6502H38.6505H38.6507H38.651H38.6513H38.6515H38.6518H38.6519M38.6519 33.7558C38.6503 33.7559 38.6486 33.7559 38.647 33.756L38.6568 34.0058M38.6519 33.7558H38.652H38.6523H38.6526H38.6528H38.6531H38.6534H38.6536H38.6539H38.6542H38.6544H38.6547H38.6549H38.6552H38.6555H38.6557H38.656H38.6563H38.6565H38.6568V34.0058M38.6519 33.7558C38.8806 33.7469 39.1052 33.7468 39.3323 33.7653M38.6568 34.0058C38.8818 33.997 39.0978 33.997 39.3138 34.0147M39.3138 34.0147L39.3305 33.7652C39.3311 33.7653 39.3317 33.7653 39.3323 33.7653M39.3138 34.0147L39.3342 33.7655C39.3336 33.7654 39.3329 33.7654 39.3323 33.7653M45.5444 50.2318L45.5443 50.2327C45.4509 51.6384 44.4522 52.6255 43.4373 53.2671C43.5823 52.9125 43.6661 52.5272 43.6767 52.1137L43.6768 52.1111C43.7052 50.2849 42.9016 49.0367 41.7175 48.1022C40.5516 47.1821 39.0054 46.5576 37.5275 45.9607L37.5175 45.9567C37.5175 45.9567 37.5175 45.9566 37.5174 45.9566C35.9331 45.3159 34.4389 44.7074 33.3417 43.8229C32.2621 42.9526 31.573 41.8193 31.5988 40.1053L31.5988 40.1047C31.6152 38.821 32.3865 37.5846 33.8288 36.6283C33.7113 36.9392 33.6399 37.2669 33.6193 37.6081C33.4915 39.438 34.264 40.729 35.446 41.7228C36.6134 42.7043 38.1945 43.4081 39.7072 44.0812L39.711 44.0829C41.3207 44.8119 42.841 45.5003 43.9342 46.441C45.0114 47.3678 45.664 48.5311 45.5444 50.2318Z" fill="#E8504A" stroke="#E8504A" stroke-width="0.5"/>
</svg>
