<svg width="75" height="80" viewBox="0 0 75 80" fill="none" xmlns="http://www.w3.org/2000/svg">
<path fill-rule="evenodd" clip-rule="evenodd" d="M38.9649 0H70.5731C72.7863 0 74.5241 1.7375 74.5241 3.95071L74.5271 75.1467C74.5271 77.3599 72.7894 79.0977 70.5761 79.0977H38.9679C38.1777 79.0977 37.6252 78.4649 37.6252 77.755V67.1678H31.6184L26.7969 71.9893C26.5592 72.227 26.1641 72.3844 25.8493 72.3844H19.0095C18.4923 73.9598 17.0272 75.0696 15.2586 75.0696C13.0454 75.0696 11.3075 73.3318 11.3075 71.1186C11.3075 68.9054 13.0454 67.1675 15.2586 67.1675C16.9984 67.1675 18.4445 68.2415 18.9835 69.7761H25.2968L30.1954 64.8775C30.4331 64.6398 30.8282 64.4824 31.143 64.4824H37.7023V53.9718H32.9611L30.7479 56.185C30.5102 56.4227 30.1151 56.5801 29.8003 56.5801H13.7952C13.2781 58.1556 11.813 59.2655 10.0443 59.2655C7.83105 59.2655 6.09323 57.5277 6.09323 55.3145C6.09323 53.1013 7.83105 51.3634 10.0443 51.3634C11.7841 51.3634 13.2301 52.4373 13.7691 53.9718H29.2479L31.4611 51.7586C31.6988 51.5209 32.0939 51.3635 32.4088 51.3635H37.7025V43.4615H25.8495C25.4544 43.4615 25.1395 43.304 24.9018 43.0664L21.3459 39.5104H8.47557C7.93584 41.0449 6.48843 42.1188 4.75108 42.1188C2.53787 42.1188 0.800049 40.381 0.800049 38.1678C0.800049 35.9546 2.53787 34.2167 4.75108 34.2167C6.49082 34.2167 7.93682 35.2906 8.47587 36.825H21.8983C22.2934 36.825 22.6082 36.9824 22.8459 37.2201L26.4018 40.776H37.7025V27.5804H32.4088C32.0137 27.5804 31.6988 27.423 31.4611 27.1853L29.2479 24.9721H13.7952C13.278 26.5474 11.8129 27.6573 10.0443 27.6573C7.83105 27.6573 6.09323 25.9195 6.09323 23.7062C6.09323 21.493 7.83105 19.7552 10.0443 19.7552C11.7841 19.7552 13.2302 20.8292 13.7692 22.3638H29.8003C30.1954 22.3638 30.5102 22.5212 30.7479 22.7589L32.9611 24.9721H37.7023V14.4616H31.143C30.7479 14.4616 30.4331 14.3041 30.1954 14.0665L25.2968 9.16781H19.0096C18.4924 10.7433 17.0273 11.8532 15.2586 11.8532C13.1256 11.8532 11.3075 10.1153 11.3075 7.90214C11.3075 5.68893 13.0454 3.95111 15.2586 3.95111C16.9984 3.95111 18.4444 5.02499 18.9834 6.5595H25.7722C26.1673 6.5595 26.4821 6.71692 26.7198 6.9546L31.6184 11.8532H37.6221V1.34272C37.6221 0.552528 38.2549 0 38.9649 0Z" fill="#BDB3D0"/>
<path fill-rule="evenodd" clip-rule="evenodd" d="M70.5737 0H38.9655C38.2556 0 37.6228 0.552528 37.6228 1.34272V11.8532L37.703 14.4616V24.9721L37.7032 27.5804V40.776V43.4615V51.3635L37.703 53.9718V64.4824L37.6259 67.1678V77.755C37.6259 78.4649 38.1784 79.0977 38.9686 79.0977H70.5768C72.79 79.0977 74.5278 77.3599 74.5278 75.1467L74.5247 3.95071C74.5247 1.7375 72.7869 0 70.5737 0ZM66.6227 48.2025L59.6683 41.2481C59.1157 40.6956 58.3256 40.6956 57.773 41.2481L52.1644 46.8598L45.21 39.9054C44.6574 39.3529 43.8672 39.3529 43.3147 39.9054L40.3113 42.9088V7.9019H66.626L66.6227 48.2025ZM71.9195 75.0695C71.9195 75.7795 71.367 76.4123 70.5768 76.4123H40.3112V73.8039H49.5558L57.458 73.7263H67.9685C68.6785 73.7263 69.3112 73.1738 69.3112 72.3836V6.55871C69.3112 5.84875 68.7587 5.21599 67.9685 5.21599H40.3113V2.60768H70.577C71.3641 2.60768 71.9197 3.24046 71.9197 3.9504L71.9195 75.0695Z" fill="#8B7AB0"/>
<path d="M52.1631 71.1182H54.7714V73.7265H52.1631V71.1182Z" fill="#8B7AB0"/>
<path d="M53.5063 34.2168C57.8524 34.2168 61.4084 30.6608 61.4084 26.3147C61.4084 21.9686 57.8524 18.4127 53.5063 18.4127C49.1602 18.4127 45.6042 21.9686 45.6042 26.3147C45.6042 30.6608 49.1602 34.2168 53.5063 34.2168Z" fill="#8B7AB0"/>
</svg>
