<svg width="81" height="80" viewBox="0 0 81 80" fill="none" xmlns="http://www.w3.org/2000/svg">
<path d="M43.2664 27.0034L36.2289 33.8847L38.4843 36.1468C40.2348 37.8942 41.9948 39.6573 43.7577 41.4234L43.7656 41.4312L46.0447 43.6978L52.3666 36.7165C52.4478 36.6259 52.5259 36.5322 52.6041 36.4353L52.6322 36.3978L56 32.9694L53.7467 30.6878L48.8312 25.8441L46.5311 23.6201L43.2664 27.0034Z" fill="#FBC998"/>
<path d="M28.3389 41.6006L14.2637 55.363C12.7731 56.8192 11.2793 58.2755 9.7981 59.7411C7.7481 61.7693 7.62626 65.0599 9.52623 67.0787C10.9981 68.6411 12.3512 70.0224 13.6637 71.3068C14.6544 72.2755 15.9513 72.8037 17.3293 72.8037C17.3856 72.8037 17.4387 72.8037 17.495 72.8006C18.9387 72.7568 20.27 72.1412 21.2418 71.0693L38.6042 51.9037L36.3343 49.6352L36.1535 49.4537C34.3245 47.6187 32.4693 45.7573 30.5906 43.8696L28.3389 41.6006Z" fill="#FBC998"/>
<path fill-rule="evenodd" clip-rule="evenodd" d="M78.2783 27.9504C77.8283 27.4036 77.3345 26.866 76.772 26.3067C75.5158 25.0598 73.6002 24.7879 72.0189 25.6035C70.9627 25.3973 70.3345 24.7691 70.1533 23.7254C70.0408 23.0785 69.9877 22.4004 69.9346 21.6847L69.9169 21.4563C69.8921 21.1333 69.8675 20.8116 69.8346 20.4879C69.7596 19.7629 69.5596 18.6972 68.6814 17.8254C67.8016 16.953 66.9257 16.0766 66.049 15.1994L65.3908 14.541C64.4471 13.5972 63.5033 12.6535 62.5595 11.7128C59.172 8.34098 54.9751 6.26282 50.0843 5.53154C45.5937 4.86279 40.8843 5.20654 35.2659 6.61594C34.4472 6.82219 33.8128 7.63466 33.8191 8.47218C33.8251 8.9689 33.8488 9.46559 33.873 9.97373L33.8753 10.0222L33.9003 10.5253C33.9347 11.3347 34.5691 11.9878 35.3753 12.0503L35.5347 12.0628C35.666 12.0753 35.7878 12.0846 35.9097 12.0878C37.691 12.1628 39.466 12.469 41.3441 13.0284C44.6566 14.0128 47.3192 15.5222 49.4849 17.6409C49.938 18.0846 50.2193 18.6722 50.2224 19.1753C50.2224 19.5753 50.0474 19.944 49.6818 20.3034C49.1974 20.7816 48.7318 21.2847 48.2631 21.7972C48.0631 22.016 47.86 22.2347 47.6537 22.4566L46.53 23.6211L48.8309 25.8441L53.7465 30.6879L56.003 32.9662L57.1507 31.7978L57.7413 31.2103C58.2007 30.7541 58.6538 30.3009 59.1007 29.8447C59.3663 29.576 59.7444 29.3166 60.5913 29.4478C62.1569 29.6885 63.3726 30.5697 64.4163 32.2166L64.4182 32.22C64.4365 32.2527 64.4966 32.3601 64.5538 32.5978C64.56 32.6259 64.5663 32.6541 64.5725 32.6759C64.1913 33.1197 63.8225 33.8166 63.8975 34.8166C63.9725 35.8228 64.3631 36.7603 65.0382 37.5228C65.51 38.0603 65.9975 38.5822 66.485 39.0759C67.3601 39.9603 68.51 40.4072 69.6475 40.4072C70.7069 40.4072 71.7569 40.0197 72.5569 39.2354C74.3444 37.4823 76.1475 35.651 78.0631 33.6385C79.5537 32.0603 79.6502 29.6161 78.2783 27.9504ZM46.0445 43.6978C47.5842 45.2417 49.1267 46.791 50.6728 48.344L50.6742 48.3455C51.4716 49.1464 52.27 49.9483 53.0695 50.751C53.107 50.7885 53.1382 50.8197 53.1632 50.8385C53.2101 50.8291 53.282 50.8103 53.3882 50.7791C57.9009 49.426 62.0666 50.3541 65.4322 53.4604C68.6697 56.4444 69.9072 60.4354 69.0135 64.9948C68.9501 65.3144 68.8432 65.5817 68.7402 65.8387L68.7291 65.8666L68.7129 65.9064C68.6762 65.9963 68.6355 66.0962 68.5947 66.2104C68.4103 66.7166 67.9853 67.0947 67.4603 67.2197C66.9385 67.3447 66.3854 67.1947 65.9947 66.826L64.4447 65.3604L64.0769 65.0127C63.1843 64.169 62.3126 63.3451 61.4385 62.526C59.8322 61.0229 58.2791 61.0073 56.8291 62.4791C54.9541 64.3791 56.1666 66.1697 57.0541 67.0697L58.6479 68.6822C58.978 69.0174 59.3087 69.3521 59.6393 69.6867C60.1316 70.185 60.6237 70.683 61.1135 71.1822C61.4479 71.5197 61.5447 71.8916 61.5916 72.0729L61.6197 72.1729C61.7572 72.5822 61.7166 73.0322 61.5166 73.4166C61.3135 73.801 60.9635 74.0854 60.5479 74.2072C59.2072 74.601 57.9104 74.7947 56.6666 74.7947C53.8009 74.7979 51.1978 73.7635 48.8916 71.7072C45.1259 68.3472 43.8541 63.9162 45.2134 58.8912C45.254 58.7318 45.2728 58.6381 45.279 58.5881C45.2603 58.5662 45.2353 58.5381 45.1947 58.4975C43.0227 56.3287 40.829 54.1319 38.604 51.9037L36.3341 49.6352L36.1532 49.4537C34.3242 47.6187 32.469 45.7574 30.5904 43.8696L28.3387 41.6006C24.9136 38.1565 21.4011 34.619 17.7667 30.9534C17.7354 30.9221 17.7073 30.894 17.6854 30.8753C17.6573 30.8815 17.6261 30.8909 17.5886 30.9034C13.3698 32.2472 8.89479 31.294 5.61975 28.3472C2.34788 25.4032 0.922876 21.0567 1.81975 16.7192C1.876 16.4536 1.95413 16.1942 2.06663 15.8473L2.09733 15.7538C2.13725 15.6325 2.18221 15.496 2.22912 15.3379C2.39472 14.7973 2.82912 14.3817 3.37912 14.2473C3.92904 14.1129 4.51033 14.2785 4.90408 14.6817C5.22333 15.0071 5.53854 15.3257 5.84974 15.6403L5.85056 15.6411C6.01431 15.8067 6.17695 15.9711 6.33848 16.1348L6.44454 16.242C7.5835 17.3929 8.6619 18.4827 9.71976 19.6254L9.72265 19.6286C9.90428 19.8256 9.91826 19.8408 10.226 19.7848C10.826 19.6754 11.4322 19.5973 12.0416 19.5223C12.6635 19.4442 13.2573 19.3692 13.8291 19.2598C14.0823 17.9692 14.2541 16.688 14.3385 15.4442C14.3323 15.4192 14.2666 15.2692 14.2166 15.213C13.1523 14.1134 12.0439 13.0441 10.8785 11.9199L10.6479 11.6974L9.24791 10.3474C8.85416 9.96609 8.68542 9.40671 8.79791 8.86921C8.91039 8.33174 9.29165 7.89112 9.80727 7.70049C12.6071 6.6661 15.3102 6.6661 18.0665 7.70674C24.1727 10.0131 27.3727 16.5069 25.5071 22.8131C25.454 22.9881 25.4415 23.0788 25.4384 23.1194C25.4444 23.1224 25.4568 23.1362 25.4775 23.159C25.4999 23.1838 25.532 23.2192 25.5759 23.2631C29.0787 26.7472 32.6411 30.3003 36.2287 33.8847L38.4841 36.1468C40.2341 37.8938 41.9936 39.6564 43.7562 41.4221L43.7575 41.4234L43.7653 41.4312L46.0445 43.6978Z" fill="#EB8045"/>
</svg>
