<svg width="81" height="80" viewBox="0 0 81 80" fill="none" xmlns="http://www.w3.org/2000/svg">
<path d="M78.2785 27.9504C77.8285 27.4036 77.3348 26.866 76.7723 26.3067C75.5161 25.0598 73.6005 24.7879 72.0192 25.6035C70.9629 25.3973 70.3348 24.7691 70.1536 23.7254C70.0411 23.0785 69.9879 22.4004 69.9348 21.6847C69.9036 21.2847 69.8754 20.8879 69.8348 20.4879C69.7598 19.7629 69.5598 18.6972 68.6817 17.8254C67.5817 16.7347 66.4879 15.6379 65.3911 14.541C64.4473 13.5972 63.5035 12.6535 62.5598 11.7128C59.1723 8.34098 54.9754 6.26282 50.0846 5.53154C45.5939 4.86279 40.8846 5.20654 35.2662 6.61594C34.4475 6.82219 33.8131 7.63466 33.8193 8.47218C33.8256 8.98467 33.8505 9.49714 33.8755 10.0222L33.9006 10.5253C33.9349 11.3347 34.5693 11.9878 35.3756 12.0503L35.535 12.0628C35.6662 12.0753 35.7881 12.0846 35.91 12.0878C37.6912 12.1628 39.4662 12.469 41.3444 13.0284C44.6568 14.0128 47.3194 15.5222 49.4852 17.6409C49.9383 18.0846 50.2195 18.6722 50.2227 19.1753C50.2227 19.5753 50.0477 19.944 49.682 20.3034C49.1977 20.7816 48.732 21.2847 48.2633 21.7972C48.0633 22.016 47.8602 22.2347 47.6539 22.4566L43.2664 27.0035L36.2289 33.8847C32.6414 30.3003 29.0789 26.7472 25.5761 23.2631C25.4917 23.1788 25.4511 23.1256 25.4386 23.1194C25.4417 23.0788 25.4542 22.9881 25.5074 22.8131C27.373 16.5069 24.173 10.0131 18.0667 7.70674C15.3105 6.6661 12.6074 6.6661 9.80752 7.70049C9.29189 7.89112 8.91064 8.33174 8.79816 8.86921C8.68566 9.40671 8.85441 9.96609 9.24816 10.3474L10.6482 11.6974C11.8982 12.9036 13.0826 14.0411 14.2169 15.213C14.2669 15.2692 14.3325 15.4192 14.3387 15.4442C14.2544 16.688 14.0825 17.9692 13.8294 19.2598C13.2575 19.3692 12.6638 19.4442 12.0419 19.5223C11.4325 19.5973 10.8263 19.6754 10.2263 19.7848C9.91688 19.8411 9.90438 19.8254 9.72001 19.6254C8.62937 18.4473 7.51689 17.3254 6.33873 16.1348C5.86997 15.6598 5.39185 15.1786 4.90433 14.6817C4.51057 14.2785 3.92929 14.1129 3.37937 14.2473C2.82937 14.3817 2.39497 14.7973 2.22937 15.3379C2.16999 15.5379 2.11374 15.7036 2.06687 15.8473C1.95437 16.1942 1.87625 16.4536 1.82 16.7192C0.923118 21.0567 2.34813 25.4032 5.62 28.3472C8.89504 31.294 13.37 32.2472 17.5888 30.9034C17.6263 30.8909 17.6575 30.8815 17.6857 30.8753C17.7075 30.894 17.7357 30.9221 17.7669 30.9534C21.4013 34.619 24.9138 38.1565 28.3389 41.6006L14.2637 55.363C12.7731 56.8192 11.2793 58.2755 9.79812 59.7412C7.74812 61.7693 7.62628 65.0599 9.52625 67.0787C10.9981 68.6412 12.3512 70.0224 13.6638 71.3068C14.6544 72.2756 15.9513 72.8037 17.3294 72.8037C17.3856 72.8037 17.4387 72.8037 17.495 72.8006C18.9387 72.7568 20.27 72.1412 21.2419 71.0693L38.6043 51.9037C40.8292 54.1319 43.023 56.3287 45.1949 58.4975C45.2355 58.5381 45.2605 58.5662 45.2793 58.5881C45.273 58.6381 45.2543 58.7318 45.2137 58.8912C43.8543 63.9162 45.1262 68.3472 48.8918 71.7072C51.1981 73.7635 53.8012 74.7979 56.6669 74.7947C57.9106 74.7947 59.2075 74.601 60.5481 74.2072C60.9638 74.0854 61.3138 73.801 61.5169 73.4166C61.7169 73.0322 61.7575 72.5822 61.62 72.1729L61.5919 72.0729C61.545 71.8916 61.4481 71.5197 61.1137 71.1822C60.295 70.3478 59.47 69.5166 58.6481 68.6822L57.0544 67.0697C56.1669 66.1697 54.9544 64.3791 56.8294 62.4791C58.2794 61.0073 59.8325 61.0229 61.4387 62.526C62.4325 63.4572 63.4231 64.3947 64.445 65.3604L65.995 66.826C66.3856 67.1947 66.9387 67.3447 67.4606 67.2197C67.9856 67.0947 68.4106 66.7166 68.595 66.2104C68.6418 66.0791 68.6887 65.9666 68.7293 65.8666C68.8356 65.601 68.9481 65.326 69.0137 64.9948C69.9075 60.4354 68.67 56.4444 65.4324 53.4604C62.0668 50.3541 57.9012 49.426 53.3884 50.7791C53.2822 50.8103 53.2103 50.8291 53.1634 50.8385C53.1384 50.8197 53.1072 50.7885 53.0697 50.751C50.7197 48.3916 48.3791 46.0385 46.0447 43.6978L52.3666 36.7166C52.4478 36.6259 52.5259 36.5322 52.6041 36.4353L52.6322 36.3978L57.1509 31.7978L57.7415 31.2103C58.2009 30.7541 58.654 30.3009 59.1009 29.8447C59.3665 29.576 59.7447 29.3166 60.5915 29.4478C62.1571 29.6885 63.3728 30.5697 64.4165 32.2166C64.4321 32.2447 64.4946 32.3509 64.554 32.5978C64.5603 32.6259 64.5665 32.6541 64.5728 32.6759C64.1915 33.1197 63.8228 33.8166 63.8978 34.8166C63.9728 35.8228 64.3634 36.7603 65.0384 37.5228C65.5103 38.0603 65.9978 38.5822 66.4853 39.0759C67.3603 39.9603 68.5102 40.4072 69.6478 40.4072C70.7071 40.4072 71.7571 40.0197 72.5571 39.2354C74.3446 37.4823 76.1478 35.651 78.0634 33.6385C79.554 32.0603 79.6504 29.6161 78.2785 27.9504ZM18.8657 68.9224C18.4845 69.3443 17.9595 69.5849 17.3939 69.6037C16.8376 69.6287 16.3001 69.413 15.897 69.0193C14.6157 67.7693 13.2939 66.4162 11.8533 64.888C11.1345 64.1224 11.2189 62.838 12.0439 62.0224C13.522 60.5631 15.0095 59.1099 16.497 57.6568L30.5906 43.8696C32.4693 45.7574 34.3245 47.6187 36.1535 49.4537C36.2138 49.5143 36.2741 49.5748 36.3344 49.6352L18.8657 68.9224ZM50.7905 53.0096C52.0749 54.2971 53.3405 54.1346 54.2968 53.8471C57.7155 52.8222 60.7281 53.4878 63.2528 55.8159C65.2497 57.6565 66.1841 59.8659 66.0872 62.519C65.2528 61.7315 64.4372 60.9596 63.6185 60.1908C60.7216 57.4815 57.2466 57.4971 54.5433 60.2315C51.9277 62.8815 52.0183 66.5315 54.7683 69.3155L56.3651 70.9311C56.5808 71.1498 56.7964 71.3654 57.012 71.5842C54.7933 71.6654 52.8058 70.9154 51.0182 69.3186C48.137 66.7499 47.2495 63.6123 48.2995 59.7282C48.5777 58.6969 48.6964 57.4751 47.4558 56.2344C45.2495 54.0282 43.0182 51.7969 40.7558 49.5282C40.0058 48.7782 39.2495 48.0188 38.4933 47.2595C36.6495 45.4095 34.7777 43.5345 32.8839 41.6282C32.1339 40.8751 31.387 40.1251 30.6308 39.3626C27.2026 35.9157 23.6839 32.3719 20.0468 28.7002C19.3531 28.0002 18.6155 27.6595 17.7812 27.6595C17.4156 27.6595 17.0312 27.7252 16.625 27.8533C13.5 28.8502 10.1874 28.1439 7.76897 25.9658C5.78457 24.1814 4.72209 21.7002 4.76585 19.0971C5.66897 20.0095 6.53145 20.8971 7.37209 21.8033C8.30649 22.8127 9.42833 23.1877 10.797 22.9377C11.3408 22.8377 11.8908 22.7721 12.4408 22.7033C13.1877 22.6096 13.9564 22.5127 14.7377 22.3471C15.7377 22.1314 16.7127 21.1533 16.9158 20.1658C17.2283 18.6502 17.4346 17.1345 17.5346 15.6658C17.594 14.7564 17.1877 13.6814 16.519 12.9907C15.5815 12.0251 14.6284 11.0907 13.6346 10.1314C14.7377 10.0876 15.819 10.2751 16.9408 10.7001C21.4627 12.4064 23.8284 17.222 22.444 21.9033C22.1502 22.894 21.9877 24.2002 23.3252 25.5315C26.8159 29.0033 30.369 32.5471 33.9468 36.1219C34.7 36.875 35.45 37.6219 36.2093 38.3813C38.0062 40.1781 39.8156 41.9875 41.628 43.8031C42.3843 44.5593 43.1343 45.3093 43.8905 46.0687C46.1749 48.3749 48.4812 50.6877 50.7905 53.0096ZM43.7656 41.4312C43.763 41.4286 43.7604 41.426 43.7578 41.4234C41.9948 39.6573 40.2348 37.8942 38.4843 36.1468L44.3687 30.3906L49.2374 35.3906L43.7656 41.4312ZM51.4281 33.0472L46.6312 28.1254L48.8312 25.8441L53.7468 30.6879L51.4281 33.0472ZM75.7345 31.4316C73.8438 33.4191 72.0657 35.2223 70.3063 36.9503C69.9063 37.3441 69.2063 37.2879 68.7501 36.8253C68.3063 36.3753 67.8594 35.8972 67.4282 35.4066C67.2345 35.1879 67.1282 34.9566 67.0876 34.6566C67.7438 33.9379 67.9345 32.991 67.6563 31.8441C67.5313 31.3191 67.3501 30.8785 67.1095 30.4973C65.5751 28.0785 63.5439 26.6597 61.0688 26.2817C58.9375 25.9535 57.5751 26.8192 56.8032 27.6035C56.5376 27.8754 56.272 28.1441 56.0032 28.4129L51.0314 23.516C51.3251 23.1972 51.622 22.8847 51.9251 22.5847C52.9033 21.6191 53.4189 20.4378 53.4158 19.1691C53.4127 17.7973 52.7939 16.4066 51.7158 15.3535C49.1689 12.8629 46.072 11.1004 42.2502 9.96287C41.0283 9.60037 39.8095 9.32536 38.6095 9.14415C42.6939 8.33479 46.2408 8.19727 49.6159 8.70039C53.8159 9.32539 57.4097 11.1035 60.3031 13.9848C61.2469 14.9254 62.1875 15.8661 63.1281 16.8066C64.225 17.9035 65.3219 19.0035 66.425 20.0973C66.5125 20.1848 66.6 20.3317 66.65 20.8129C66.6875 21.1817 66.7156 21.5535 66.7437 21.9254C66.8 22.6848 66.8594 23.4723 67 24.2754C67.4344 26.7691 69.2281 28.466 71.8 28.8129C72.3656 28.8879 72.9531 28.7723 73.4156 28.491C73.7937 28.2598 74.2281 28.2942 74.5156 28.5785C75.0031 29.0629 75.4249 29.5223 75.8093 29.9879C76.1593 30.4098 76.1282 31.0191 75.7345 31.4316Z" fill="#FBC998"/>
<path d="M18.8657 68.9224C18.4845 69.3443 17.9595 69.5849 17.3939 69.6037C16.8376 69.6287 16.3001 69.413 15.897 69.0193C14.6157 67.7693 13.2939 66.4162 11.8533 64.888C11.1345 64.1224 11.2189 62.838 12.0439 62.0224C13.522 60.5631 15.0095 59.1099 16.497 57.6568L30.5906 43.8696C32.4693 45.7574 34.3245 47.6187 36.1535 49.4537L36.3344 49.6352L18.8657 68.9224Z" fill="#FBC998"/>
<path d="M43.7656 41.4312L43.7578 41.4234C41.9948 39.6573 40.2348 37.8942 38.4843 36.1468L44.3687 30.3906L49.2374 35.3906L43.7656 41.4312Z" fill="#FBC998"/>
<path d="M51.4281 33.0472L46.6312 28.1254L48.8312 25.8441L53.7468 30.6879L51.4281 33.0472Z" fill="#FBC998"/>
<path d="M50.7903 53.0096C52.0747 54.2971 53.3403 54.1346 54.2965 53.8471C57.7152 52.8222 60.7278 53.4878 63.2525 55.8159C65.2494 57.6565 66.1838 59.8659 66.0869 62.519L65.4395 61.9077C64.8282 61.3303 64.2241 60.7597 63.6182 60.1908C60.7213 57.4815 57.2464 57.4971 54.543 60.2315C51.9274 62.8815 52.0181 66.5315 54.768 69.3155L56.3649 70.9311C56.4717 71.0394 56.5784 71.1469 56.6852 71.2545L56.6883 71.2576L56.8889 71.4599L57.0118 71.5842C54.793 71.6654 52.8055 70.9154 51.018 69.3186C48.1367 66.7499 47.2493 63.6123 48.2993 59.7282C48.5774 58.6969 48.6961 57.4751 47.4555 56.2344C45.2493 54.0282 43.018 51.7969 40.7555 49.5282C40.0055 48.7782 39.2493 48.0188 38.493 47.2595L37.0812 45.8433L37.077 45.8391L37.0637 45.8258L37.0536 45.8156C37.0503 45.8123 37.0469 45.8089 37.0436 45.8055C37.0402 45.8022 37.0369 45.7989 37.0336 45.7955C37.0303 45.7922 37.027 45.7889 37.0237 45.7856C35.6572 44.415 34.2764 43.0301 32.8837 41.6282C32.1337 40.8751 31.3868 40.1251 30.6306 39.3626C27.2024 35.9157 23.6837 32.3719 20.0466 28.7002C19.3528 28.0002 18.6153 27.6595 17.781 27.6595C17.4153 27.6595 17.031 27.7252 16.6247 27.8533C13.4998 28.8502 10.1872 28.1439 7.76872 25.9658C5.78432 24.1814 4.72184 21.7002 4.7656 19.0971C5.66872 20.0095 6.5312 20.8971 7.37184 21.8033C8.30624 22.8127 9.42808 23.1877 10.7968 22.9377C11.2961 22.8459 11.8007 22.783 12.3057 22.7201L12.4406 22.7033C13.1874 22.6096 13.9562 22.5127 14.7374 22.3471C15.7374 22.1314 16.7125 21.1533 16.9156 20.1658C17.2281 18.6502 17.4344 17.1345 17.5344 15.6658C17.5937 14.7564 17.1875 13.6814 16.5188 12.9907C15.5812 12.0251 14.6281 11.0907 13.6344 10.1314C14.7375 10.0876 15.8188 10.2751 16.9406 10.7001C21.4624 12.4064 23.8281 17.222 22.4437 21.9033C22.15 22.894 21.9875 24.2002 23.325 25.5315C26.8156 29.0033 30.3688 32.5471 33.9466 36.1219C34.3216 36.4969 34.6959 36.8704 35.0709 37.2446L35.0732 37.2469C35.4505 37.6235 35.8286 38.0008 36.2091 38.3813C38.006 40.1781 39.8153 41.9875 41.6278 43.8031C42.384 44.5593 43.134 45.3093 43.8903 46.0687C45.5327 47.7268 47.1863 49.3883 48.8444 51.0541C49.4925 51.7052 50.1413 52.3571 50.7903 53.0096Z" fill="#EB8045"/>
<path d="M75.7342 31.4316C73.8436 33.4191 72.0655 35.2223 70.306 36.9503C69.906 37.3441 69.206 37.2879 68.7498 36.8253C68.3061 36.3753 67.8592 35.8972 67.428 35.4066C67.2342 35.1879 67.128 34.9566 67.0873 34.6566C67.7436 33.9379 67.9342 32.991 67.6561 31.8441C67.5311 31.3191 67.3498 30.8785 67.1092 30.4973C65.5748 28.0785 63.5436 26.6597 61.0686 26.2817C58.9373 25.9535 57.5748 26.8192 56.803 27.6035C56.5374 27.8754 56.2717 28.1441 56.003 28.4129L51.0311 23.516C51.3249 23.1972 51.6218 22.8847 51.9249 22.5847C52.9031 21.6191 53.4187 20.4378 53.4155 19.1691C53.4124 17.7973 52.7937 16.4066 51.7155 15.3535C49.1687 12.8629 46.0718 11.1004 42.2499 9.96287C41.0281 9.60037 39.8093 9.32536 38.6093 9.14415C42.6937 8.33479 46.2406 8.19727 49.6157 8.70039C53.8157 9.32539 57.4095 11.1035 60.3029 13.9848C61.2467 14.9254 62.1873 15.8661 63.1279 16.8066L63.7861 17.4651C64.6637 18.3433 65.5422 19.2223 66.4247 20.0973C66.5122 20.1848 66.5997 20.3317 66.6497 20.8129C66.6872 21.1813 66.7153 21.5528 66.7434 21.9244L66.7435 21.9254C66.7997 22.6848 66.8591 23.4723 66.9997 24.2754C67.4341 26.7691 69.2279 28.466 71.7997 28.8129C72.3654 28.8879 72.9529 28.7723 73.4153 28.491C73.7935 28.2598 74.2278 28.2942 74.5153 28.5785C75.0028 29.0629 75.4247 29.5223 75.8091 29.9879C76.1591 30.4098 76.128 31.0191 75.7342 31.4316Z" fill="#EB8045"/>
<path fill-rule="evenodd" clip-rule="evenodd" d="M78.2783 27.9504C77.8283 27.4036 77.3345 26.866 76.772 26.3067C75.5158 25.0598 73.6002 24.7879 72.0189 25.6035C70.9627 25.3973 70.3345 24.7691 70.1533 23.7254C70.0408 23.0785 69.9877 22.4004 69.9346 21.6847L69.9169 21.4563C69.8921 21.1333 69.8675 20.8116 69.8346 20.4879C69.7596 19.7629 69.5596 18.6972 68.6814 17.8254C67.8016 16.953 66.9257 16.0766 66.049 15.1994L65.3908 14.541C64.4471 13.5972 63.5033 12.6535 62.5595 11.7128C59.172 8.34098 54.9751 6.26282 50.0843 5.53154C45.5937 4.86279 40.8843 5.20654 35.2659 6.61594C34.4472 6.82219 33.8128 7.63466 33.8191 8.47218C33.8251 8.9689 33.8488 9.46559 33.873 9.97373L33.8753 10.0222L33.9003 10.5253C33.9347 11.3347 34.5691 11.9878 35.3753 12.0503L35.5347 12.0628C35.666 12.0753 35.7878 12.0846 35.9097 12.0878C37.691 12.1628 39.466 12.469 41.3441 13.0284C44.6566 14.0128 47.3192 15.5222 49.4849 17.6409C49.938 18.0846 50.2193 18.6722 50.2224 19.1753C50.2224 19.5753 50.0474 19.944 49.6818 20.3034C49.1974 20.7816 48.7318 21.2847 48.2631 21.7972C48.0631 22.016 47.86 22.2347 47.6537 22.4566L46.53 23.6211L48.8309 25.8441L53.7465 30.6879L56.003 32.9662L57.1507 31.7978L57.7413 31.2103C58.2007 30.7541 58.6538 30.3009 59.1007 29.8447C59.3663 29.576 59.7444 29.3166 60.5913 29.4478C62.1569 29.6885 63.3726 30.5697 64.4163 32.2166L64.4182 32.22C64.4365 32.2527 64.4966 32.3601 64.5538 32.5978C64.56 32.6259 64.5663 32.6541 64.5725 32.6759C64.1913 33.1197 63.8225 33.8166 63.8975 34.8166C63.9725 35.8228 64.3631 36.7603 65.0382 37.5228C65.51 38.0603 65.9975 38.5822 66.485 39.0759C67.3601 39.9603 68.51 40.4072 69.6475 40.4072C70.7069 40.4072 71.7569 40.0197 72.5569 39.2354C74.3444 37.4823 76.1475 35.651 78.0631 33.6385C79.5537 32.0603 79.6502 29.6161 78.2783 27.9504ZM46.0445 43.6978C47.5842 45.2417 49.1267 46.791 50.6728 48.344L50.6742 48.3455C51.4716 49.1464 52.27 49.9483 53.0695 50.751C53.107 50.7885 53.1382 50.8197 53.1632 50.8385C53.2101 50.8291 53.282 50.8103 53.3882 50.7791C57.9009 49.426 62.0666 50.3541 65.4322 53.4604C68.6697 56.4444 69.9072 60.4354 69.0135 64.9948C68.9501 65.3144 68.8432 65.5817 68.7402 65.8387L68.7291 65.8666L68.7129 65.9064C68.6762 65.9963 68.6355 66.0962 68.5947 66.2104C68.4103 66.7166 67.9853 67.0947 67.4603 67.2197C66.9385 67.3447 66.3854 67.1947 65.9947 66.826L64.4447 65.3604L64.0769 65.0127C63.1843 64.169 62.3126 63.3451 61.4385 62.526C59.8322 61.0229 58.2791 61.0073 56.8291 62.4791C54.9541 64.3791 56.1666 66.1697 57.0541 67.0697L58.6479 68.6822C58.978 69.0174 59.3087 69.3521 59.6393 69.6867C60.1316 70.185 60.6237 70.683 61.1135 71.1822C61.4479 71.5197 61.5447 71.8916 61.5916 72.0729L61.6197 72.1729C61.7572 72.5822 61.7166 73.0322 61.5166 73.4166C61.3135 73.801 60.9635 74.0854 60.5479 74.2072C59.2072 74.601 57.9104 74.7947 56.6666 74.7947C53.8009 74.7979 51.1978 73.7635 48.8916 71.7072C45.1259 68.3472 43.8541 63.9162 45.2134 58.8912C45.254 58.7318 45.2728 58.6381 45.279 58.5881C45.2603 58.5662 45.2353 58.5381 45.1947 58.4975C43.0227 56.3287 40.829 54.1319 38.604 51.9037L36.3341 49.6352L36.1532 49.4537C34.3242 47.6187 32.469 45.7574 30.5904 43.8696L28.3387 41.6006C24.9136 38.1565 21.4011 34.619 17.7667 30.9534C17.7354 30.9221 17.7073 30.894 17.6854 30.8753C17.6573 30.8815 17.6261 30.8909 17.5886 30.9034C13.3698 32.2472 8.89479 31.294 5.61975 28.3472C2.34788 25.4032 0.922874 21.0567 1.81975 16.7192C1.876 16.4536 1.95413 16.1942 2.06663 15.8473L2.09733 15.7538C2.13725 15.6325 2.18221 15.496 2.22912 15.3379C2.39472 14.7973 2.82912 14.3817 3.37912 14.2473C3.92904 14.1129 4.51033 14.2785 4.90408 14.6817C5.22333 15.0071 5.53854 15.3257 5.84974 15.6403L5.85056 15.6411C6.01431 15.8067 6.17695 15.9711 6.33848 16.1348L6.44454 16.242C7.5835 17.3929 8.6619 18.4827 9.71976 19.6254L9.72265 19.6286C9.90428 19.8256 9.91826 19.8408 10.226 19.7848C10.826 19.6754 11.4322 19.5973 12.0416 19.5223C12.6635 19.4442 13.2573 19.3692 13.8291 19.2598C14.0823 17.9692 14.2541 16.688 14.3385 15.4442C14.3323 15.4192 14.2666 15.2692 14.2166 15.213C13.1523 14.1134 12.0439 13.0441 10.8785 11.9199L10.6479 11.6974L9.24791 10.3474C8.85416 9.96609 8.68542 9.40671 8.79791 8.86921C8.91039 8.33174 9.29165 7.89112 9.80727 7.70049C12.6071 6.6661 15.3102 6.6661 18.0665 7.70674C24.1727 10.0131 27.3727 16.5069 25.5071 22.8131C25.454 22.9881 25.4415 23.0788 25.4384 23.1194C25.4444 23.1224 25.4568 23.1362 25.4775 23.159C25.4999 23.1838 25.532 23.2192 25.5759 23.2631C29.0787 26.7472 32.6411 30.3003 36.2287 33.8847L38.4841 36.1468C40.2341 37.8938 41.9936 39.6564 43.7562 41.4221L43.7575 41.4234L43.7653 41.4312L46.0445 43.6978ZM50.7903 53.0096C52.0747 54.2971 53.3403 54.1346 54.2965 53.8471C57.7152 52.8222 60.7278 53.4878 63.2525 55.8159C65.2494 57.6565 66.1838 59.8659 66.0869 62.519L65.4395 61.9077C64.8282 61.3303 64.2241 60.7597 63.6182 60.1908C60.7213 57.4815 57.2464 57.4971 54.543 60.2315C51.9274 62.8815 52.0181 66.5315 54.768 69.3155L56.3649 70.9311C56.4717 71.0394 56.5784 71.1469 56.6852 71.2545L56.6883 71.2576L56.8889 71.4599L57.0118 71.5842C54.793 71.6654 52.8055 70.9154 51.018 69.3186C48.1367 66.7499 47.2493 63.6123 48.2993 59.7282C48.5774 58.6969 48.6961 57.4751 47.4555 56.2344C45.2493 54.0282 43.018 51.7969 40.7555 49.5282C40.0055 48.7782 39.2493 48.0188 38.493 47.2595L37.0812 45.8433L37.077 45.8391L37.0637 45.8258L37.0536 45.8156L37.0436 45.8055L37.0336 45.7955L37.0237 45.7856C35.6572 44.415 34.2764 43.0301 32.8837 41.6282C32.1337 40.8751 31.3868 40.1251 30.6306 39.3626C27.2024 35.9157 23.6837 32.3719 20.0466 28.7002C19.3528 28.0002 18.6153 27.6595 17.781 27.6595C17.4153 27.6595 17.031 27.7252 16.6247 27.8533C13.4998 28.8502 10.1872 28.1439 7.76872 25.9658C5.78432 24.1814 4.72184 21.7002 4.7656 19.0971C5.66872 20.0095 6.5312 20.8971 7.37184 21.8033C8.30624 22.8127 9.42808 23.1877 10.7968 22.9377C11.2961 22.8459 11.8007 22.783 12.3057 22.7201L12.4406 22.7033C13.1874 22.6096 13.9562 22.5127 14.7374 22.3471C15.7374 22.1314 16.7125 21.1533 16.9156 20.1658C17.2281 18.6502 17.4344 17.1345 17.5344 15.6658C17.5937 14.7564 17.1875 13.6814 16.5188 12.9907C15.5812 12.0251 14.6281 11.0907 13.6344 10.1314C14.7375 10.0876 15.8188 10.2751 16.9406 10.7001C21.4624 12.4064 23.8281 17.222 22.4437 21.9033C22.15 22.894 21.9875 24.2002 23.325 25.5315C26.8156 29.0033 30.3688 32.5471 33.9466 36.1219C34.3216 36.4969 34.6959 36.8704 35.0709 37.2446L35.0732 37.2469C35.4505 37.6235 35.8286 38.0008 36.2091 38.3813C38.006 40.1781 39.8153 41.9875 41.6278 43.8031C42.384 44.5593 43.134 45.3093 43.8903 46.0687C45.5327 47.7268 47.1863 49.3883 48.8444 51.0541C49.4925 51.7052 50.1413 52.3571 50.7903 53.0096ZM75.7342 31.4316C73.8436 33.4191 72.0655 35.2223 70.306 36.9503C69.906 37.3441 69.206 37.2879 68.7498 36.8253C68.3061 36.3753 67.8592 35.8972 67.428 35.4066C67.2342 35.1879 67.128 34.9566 67.0873 34.6566C67.7436 33.9379 67.9342 32.991 67.6561 31.8441C67.5311 31.3191 67.3498 30.8785 67.1092 30.4973C65.5748 28.0785 63.5436 26.6597 61.0686 26.2817C58.9373 25.9535 57.5748 26.8192 56.803 27.6035C56.5374 27.8754 56.2717 28.1441 56.003 28.4129L51.0311 23.516C51.3249 23.1972 51.6218 22.8847 51.9249 22.5847C52.9031 21.6191 53.4187 20.4378 53.4155 19.1691C53.4124 17.7973 52.7937 16.4066 51.7155 15.3535C49.1687 12.8629 46.0718 11.1004 42.2499 9.96287C41.0281 9.60037 39.8093 9.32536 38.6093 9.14415C42.6937 8.33479 46.2406 8.19727 49.6157 8.70039C53.8157 9.32539 57.4095 11.1035 60.3029 13.9848C61.2467 14.9254 62.1873 15.8661 63.1279 16.8066L63.7861 17.4651C64.6637 18.3433 65.5422 19.2223 66.4247 20.0973C66.5122 20.1848 66.5997 20.3317 66.6497 20.8129C66.6872 21.1813 66.7153 21.5528 66.7434 21.9244L66.7435 21.9254C66.7997 22.6848 66.8591 23.4723 66.9997 24.2754C67.4341 26.7691 69.2279 28.466 71.7997 28.8129C72.3654 28.8879 72.9529 28.7723 73.4153 28.491C73.7935 28.2598 74.2278 28.2942 74.5153 28.5785C75.0028 29.0629 75.4247 29.5223 75.8091 29.9879C76.1591 30.4098 76.128 31.0191 75.7342 31.4316Z" fill="#EB8045"/>
</svg>
