<svg width="24" height="24" viewBox="0 0 24 24" fill="none" xmlns="http://www.w3.org/2000/svg">
<path fill-rule="evenodd" clip-rule="evenodd" d="M21 12C21 11.5858 20.6642 11.25 20.25 11.25H3.75C3.33579 11.25 3 11.5858 3 12C3 12.4142 3.33579 12.75 3.75 12.75H20.25C20.6642 12.75 21 12.4142 21 12Z" fill="white"/>
<path fill-rule="evenodd" clip-rule="evenodd" d="M11.0303 4.71967C10.7374 4.42678 10.2626 4.42678 9.96967 4.71967L3.21967 11.4697C2.92678 11.7626 2.92678 12.2374 3.21967 12.5303L9.96967 19.2803C10.2626 19.5732 10.7374 19.5732 11.0303 19.2803C11.3232 18.9874 11.3232 18.5126 11.0303 18.2197L4.81066 12L11.0303 5.78033C11.3232 5.48744 11.3232 5.01256 11.0303 4.71967Z" fill="white"/>
</svg>
