<svg width="16" height="16" viewBox="0 0 16 16" fill="none" xmlns="http://www.w3.org/2000/svg">
<path fill-rule="evenodd" clip-rule="evenodd" d="M2 8C2 7.72386 2.22386 7.5 2.5 7.5H13.5C13.7761 7.5 14 7.72386 14 8C14 8.27614 13.7761 8.5 13.5 8.5H2.5C2.22386 8.5 2 8.27614 2 8Z" fill="#B2BFCD"/>
<path fill-rule="evenodd" clip-rule="evenodd" d="M8.64645 3.14645C8.84171 2.95118 9.15829 2.95118 9.35355 3.14645L13.8536 7.64645C14.0488 7.84171 14.0488 8.15829 13.8536 8.35355L9.35355 12.8536C9.15829 13.0488 8.84171 13.0488 8.64645 12.8536C8.45118 12.6583 8.45118 12.3417 8.64645 12.1464L12.7929 8L8.64645 3.85355C8.45118 3.65829 8.45118 3.34171 8.64645 3.14645Z" fill="#B2BFCD"/>
</svg>
