<svg width="24" height="24" viewBox="0 0 24 24" fill="none" xmlns="http://www.w3.org/2000/svg">
<path fill-rule="evenodd" clip-rule="evenodd" d="M11.6027 2C14.1663 2 16.5761 2.9984 18.3902 4.8128C20.2043 6.62528 21.2017 9.0368 21.2017 11.6C21.2017 14.1632 20.2043 16.5728 18.3902 18.3872C16.578 20.2016 14.1663 21.2 11.6027 21.2C6.3083 21.2 2.00171 16.8934 2.00171 11.6C2.00171 6.30656 6.3083 2 11.6027 2ZM15.951 14.184C16.0216 13.1685 15.6784 12.3305 14.9145 11.648C14.2719 11.0742 13.4383 10.6946 12.6699 10.3448L12.642 10.3322L12.6364 10.3303C11.9443 10.0145 11.3395 9.73567 10.9121 9.38652C10.4975 9.04777 10.2713 8.66068 10.3069 8.11505C10.3348 7.74716 10.6025 7.50827 10.8671 7.3639C11.1576 7.20437 11.5535 7.10558 11.9198 7.10558C11.9613 7.10558 12.0036 7.1072 12.049 7.10909C13.1468 7.18342 14.0159 7.64295 14.8857 8.63507L15.0937 8.88002L15.3403 8.671L15.6961 8.36189L15.9409 8.14695L15.7269 7.90363C14.6836 6.70859 13.5329 6.09068 12.1223 5.9947C12.0548 5.98815 11.9859 5.98622 11.916 5.98622H11.9143C11.8762 5.98622 11.8297 5.98622 11.7805 5.98814H11.7277C10.8025 5.98814 9.79361 6.28987 9.02192 6.79982C8.09743 7.41085 7.55139 8.27236 7.53639 9.23487C7.51781 10.3683 7.97821 11.1381 8.64347 11.698C9.28676 12.2393 10.1234 12.5848 10.8693 12.8928L10.8862 12.8998L10.8936 12.9035L10.9169 12.9122C11.5972 13.1938 12.1889 13.4408 12.6128 13.7671C13.0214 14.0816 13.2566 14.4561 13.2459 15.0075L13.2458 15.0089C13.2418 15.3056 13.0271 15.5723 12.6493 15.7783C12.2774 15.9811 11.8052 16.0893 11.4259 16.0893H11.2593C10.1108 16.0406 9.07726 15.5385 8.18243 14.5792L7.96324 14.3456L7.72672 14.5597L7.3807 14.8803L7.14301 15.103L7.36464 15.3392C8.48044 16.5393 9.86873 17.1943 11.3789 17.2125H11.4471C12.4126 17.2125 13.4617 16.9541 14.2609 16.5127C15.2642 15.9649 15.8862 15.1434 15.951 14.184ZM11.4471 16.9725C11.5631 16.9725 11.6804 16.9686 11.7983 16.9609L11.3818 16.9725L11.4471 16.9725L11.4471 16.9725ZM13.4861 15.0121C13.4807 15.4099 13.2109 15.7242 12.8399 15.9459C13.2109 15.7242 13.4806 15.4099 13.486 15.0121C13.511 13.7262 12.3511 13.2461 11.0064 12.6895L11.0065 12.6895C12.3511 13.2461 13.511 13.7262 13.4861 15.0121ZM7.7766 9.2387C7.74207 11.3415 9.46014 12.0511 10.9784 12.6782L10.9784 12.6782C9.46012 12.0511 7.74204 11.3415 7.77658 9.2387C7.79003 8.37278 8.28007 7.5779 9.15446 6.99998C9.38634 6.84675 9.64134 6.71317 9.90947 6.60215C9.64135 6.71317 9.38635 6.84676 9.15448 6.99998C8.28009 7.5779 7.79005 8.37278 7.7766 9.2387ZM10.9784 12.6782L10.9859 12.6813L10.9897 12.6832L10.9859 12.6813L10.9784 12.6782ZM11.9603 6.86599C11.9469 6.86573 11.9333 6.86558 11.9198 6.86558L12.062 6.86942C12.1354 6.87434 12.2078 6.8809 12.2793 6.88911C12.2078 6.8809 12.1354 6.87434 12.0621 6.86942C12.0289 6.86804 11.9948 6.86666 11.9603 6.86599ZM11.5006 19.3857C7.27938 19.3857 3.83849 15.9024 3.83849 11.6145C3.83849 7.32664 7.27938 3.84336 11.5006 3.84336C15.7218 3.84336 19.1627 7.32664 19.1627 11.6145C19.1627 15.9024 15.7218 19.3857 11.5006 19.3857ZM11.5006 2.99727C13.7704 2.99727 15.9042 3.89346 17.5104 5.52212C19.1167 7.14906 19.9998 9.31371 19.9998 11.6145C19.9998 13.9153 19.1167 16.0782 17.5104 17.7069C15.9059 19.3356 13.7704 20.2318 11.5006 20.2318C6.81289 20.2318 2.99976 16.3661 2.99976 11.6145C2.99976 6.86297 6.81289 2.99727 11.5006 2.99727Z" fill="#040506"/>
</svg>
