<svg width="600" height="450" viewBox="0 0 600 450" fill="none" xmlns="http://www.w3.org/2000/svg">
<path d="M397.464 418.173H387.036V418.475H397.464V418.173Z" fill="#303C4A"/>
<path d="M498.936 403.679H475.908V403.981H498.936V403.679Z" fill="#303C4A"/>
<path d="M133.068 405.708H125.472V406.01H133.068V405.708Z" fill="#303C4A"/>
<path d="M393.204 179.754C384.012 166.878 368.46 162.3 358.464 169.523C348.468 176.746 347.82 193.052 357.012 205.928C366.204 218.804 381.756 223.454 391.752 216.207C401.748 208.96 402.396 192.642 393.204 179.754Z" fill="#303C4A"/>
<path d="M474.516 121.631L442.8 75.9985C442.8 75.9985 428.928 117.718 404.208 135.594L420.324 158.157L422.856 161.72L438.984 184.319C463.704 166.443 507.384 166.515 507.384 166.515L474.516 121.631Z" fill="#303C4A"/>
<path d="M394.632 208.44C394.632 208.44 416.748 233.974 435.6 242.055C436.246 242.304 436.958 242.32 437.615 242.1C438.271 241.88 438.832 241.437 439.2 240.847L452.184 220.229C452.432 219.84 452.587 219.398 452.638 218.939C452.689 218.479 452.634 218.014 452.478 217.579C452.321 217.145 452.067 216.752 451.735 216.432C451.403 216.113 451.002 215.874 450.564 215.736C442.704 213.32 424.32 206.713 412.908 195.903C398.184 181.855 394.632 208.44 394.632 208.44Z" fill="#303C4A"/>
<path d="M507.264 167.892C501.6 171.987 482.256 154.606 464.064 129.168C445.872 103.731 435.72 79.6463 441.384 75.5999C447.048 71.5536 466.392 88.8864 484.584 114.336C502.776 139.786 512.928 163.846 507.264 167.892Z" fill="#1A2128"/>
<path d="M503.892 160.198C499.656 163.266 484.56 149.605 469.464 129.217C468.6 128.069 467.736 126.861 466.872 125.654C465.828 124.192 464.82 122.779 463.86 121.366C449.784 100.675 441.936 82.3156 446.136 79.2838C450.66 76.0105 467.268 91.4832 483.216 113.829C499.164 136.174 508.404 156.925 503.892 160.198Z" fill="#303C4A"/>
<path d="M503.892 160.198C499.656 163.266 484.56 149.605 469.464 129.217C468.6 128.069 467.736 126.861 466.872 125.654C465.828 124.192 464.82 122.779 463.86 121.366C449.784 100.675 441.936 82.3156 446.136 79.2838C450.66 76.0105 467.268 91.4832 483.216 113.829C499.164 136.174 508.404 156.925 503.892 160.198Z" fill="white" fill-opacity="0.2"/>
<path d="M389.868 221.497C389.868 221.497 382.848 217.596 368.688 197.751C353.364 176.347 352.992 169.825 352.992 169.825L408.192 129.966C408.192 129.966 409.836 138.215 424.212 158.35C438.588 178.485 445.068 181.65 445.068 181.65L389.868 221.497Z" fill="#1A2128"/>
<path d="M469.464 129.241C468.6 128.093 467.736 126.886 466.872 125.678C465.828 124.216 464.82 122.803 463.86 121.39L469.74 118.757C470.373 118.503 471.075 118.485 471.72 118.707C472.364 118.928 472.909 119.374 473.256 119.965L473.844 120.786C474.286 121.303 474.53 121.963 474.53 122.646C474.53 123.329 474.286 123.989 473.844 124.506L469.464 129.241Z" fill="#151A20"/>
<path d="M469.464 129.241C468.6 128.093 467.736 126.886 466.872 125.678C465.828 124.216 464.82 122.803 463.86 121.39L469.74 118.757C470.373 118.503 471.075 118.485 471.72 118.707C472.364 118.928 472.909 119.374 473.256 119.965L473.844 120.786C474.286 121.303 474.53 121.963 474.53 122.646C474.53 123.329 474.286 123.989 473.844 124.506L469.464 129.241Z" fill="#303C4A"/>
<path d="M230.016 276.974H250.764V213.356H230.016V276.974Z" fill="#303C4A"/>
<path d="M191.568 276.986H212.316V195.093H191.568V276.986Z" fill="#1A2128"/>
<path d="M153.108 276.974H173.856V163.061H153.108V276.974Z" fill="#1A2128"/>
<path d="M114.66 276.974H135.408L135.408 124.965H114.66L114.66 276.974Z" fill="#1A2128"/>
<path d="M207.276 179.585C165.886 151.525 131.273 114.481 105.984 71.1791L116.4 65.0674C140.68 106.669 173.889 142.283 213.6 169.306C243.42 189.525 266.4 197.533 266.832 197.69L262.992 209.129C262.008 208.791 238.488 200.674 207.276 179.585ZM266.832 197.702L264.912 203.416L266.832 197.702Z" fill="#1A2128"/>
<path d="M105.948 57.6995L129.972 69.4399L102.972 84.4294L105.948 57.6995Z" fill="#1A2128"/>
<path d="M191.114 91C199.398 91 206.114 84.2843 206.114 76C206.114 67.7157 199.398 61 191.114 61C182.83 61 176.114 67.7157 176.114 76C176.114 84.2843 182.83 91 191.114 91Z" fill="#1A2128"/>
<path d="M284.004 114.843V115.858H283.104V114.867C282.304 114.84 281.527 114.589 280.86 114.143L281.352 113.031C281.87 113.396 282.474 113.617 283.104 113.672V112.162C282.096 111.92 280.98 111.582 280.98 110.277C280.98 109.323 281.676 108.49 283.104 108.333V107.318H284.004V108.309C284.646 108.35 285.271 108.54 285.828 108.864L285.384 109.988C284.959 109.738 284.491 109.574 284.004 109.504V111.051C285 111.292 286.104 111.63 286.104 112.911C286.104 113.853 285.42 114.662 284.004 114.843ZM283.104 110.821V109.541C282.624 109.649 282.432 109.903 282.432 110.205C282.432 110.507 282.708 110.7 283.104 110.821ZM284.652 113.019C284.652 112.693 284.388 112.524 284.004 112.391V113.599C284.4 113.539 284.652 113.309 284.652 113.019Z" fill="#F0F0F0"/>
<path d="M175.254 323.519C176.312 316.961 171.887 310.781 165.372 309.717C158.856 308.652 152.717 313.106 151.659 319.664C150.602 326.222 155.026 332.402 161.542 333.466C168.057 334.531 174.197 330.077 175.254 323.519Z" fill="#E0E0E0"/>
<path d="M164.28 326.714V328.332H162.852V326.762C161.569 326.729 160.321 326.331 159.252 325.615L160.044 323.851C160.863 324.432 161.818 324.786 162.816 324.878V322.462C161.232 322.076 159.456 321.544 159.456 319.491C159.456 317.969 160.56 316.652 162.816 316.399V314.804H164.244V316.362C165.263 316.424 166.254 316.726 167.136 317.244L166.428 319.02C165.757 318.625 165.015 318.37 164.244 318.271V320.687C165.828 321.061 167.568 321.592 167.568 323.622C167.604 325.156 166.524 326.448 164.28 326.714ZM162.852 320.36V318.319C162.096 318.488 161.796 318.911 161.796 319.382C161.796 319.853 162.216 320.167 162.852 320.36ZM165.252 323.827C165.252 323.32 164.832 323.054 164.22 322.837V324.817C164.988 324.66 165.312 324.286 165.312 323.827H165.252Z" fill="#F0F0F0"/>
<path d="M472.8 314.442V305.757L468.36 305.347C467.77 302.487 466.646 299.765 465.048 297.327L467.904 293.86L461.808 287.724L458.4 290.599C455.977 288.991 453.273 287.859 450.432 287.265L450.012 282.796H441.396L440.976 287.265C438.138 287.857 435.437 288.989 433.02 290.599L429.576 287.724L423.468 293.86L426.324 297.327C424.731 299.768 423.608 302.488 423.012 305.347L418.572 305.757V314.442L423.012 314.865C423.61 317.719 424.733 320.435 426.324 322.873L423.468 326.339L429.576 332.475L433.02 329.613C435.441 331.214 438.14 332.341 440.976 332.934L441.396 337.403H450L450.42 332.934C453.259 332.339 455.962 331.212 458.388 329.613L461.832 332.475L467.928 326.339L465.072 322.873C466.668 320.437 467.791 317.72 468.384 314.865L472.8 314.442ZM445.668 321.846C443.358 321.846 441.1 321.157 439.18 319.865C437.26 318.573 435.763 316.737 434.88 314.588C433.996 312.44 433.766 310.076 434.217 307.796C434.669 305.516 435.782 303.422 437.416 301.779C439.05 300.136 441.132 299.018 443.397 298.565C445.663 298.113 448.011 298.348 450.145 299.239C452.278 300.131 454.101 301.639 455.382 303.573C456.664 305.507 457.346 307.781 457.344 310.106C457.344 311.65 457.042 313.178 456.454 314.604C455.866 316.03 455.005 317.325 453.919 318.416C452.834 319.506 451.545 320.371 450.127 320.959C448.709 321.548 447.19 321.849 445.656 321.846H445.668Z" fill="#1A2128"/>
<path d="M467.22 251.126C464.995 251.593 462.878 252.478 460.98 253.735L458.28 251.488L453.48 256.32L455.712 259.038C454.463 260.948 453.584 263.079 453.12 265.318L449.64 265.645V272.445L453.12 272.783C453.584 275.018 454.463 277.145 455.712 279.052L453.48 281.769L458.28 286.601L460.98 284.354C462.876 285.616 464.994 286.502 467.22 286.963L467.544 290.466H474.3L474.624 286.963C476.85 286.502 478.968 285.616 480.864 284.354L483.564 286.601L488.364 281.769L486.108 279.016C487.357 277.109 488.236 274.982 488.7 272.747L492.18 272.409V265.608L488.7 265.282C488.236 263.043 487.357 260.912 486.108 259.001L488.34 256.284L483.54 251.452L480.84 253.699C478.941 252.442 476.824 251.557 474.6 251.09L474.276 247.587H467.52L467.22 251.126ZM480.072 269.027C480.074 270.85 479.539 272.634 478.534 274.151C477.529 275.669 476.099 276.852 474.425 277.551C472.752 278.25 470.91 278.433 469.133 278.078C467.355 277.723 465.723 276.845 464.442 275.555C463.16 274.266 462.288 272.622 461.935 270.834C461.582 269.045 461.765 267.191 462.459 265.506C463.154 263.822 464.329 262.383 465.837 261.371C467.344 260.359 469.116 259.82 470.928 259.823C473.353 259.823 475.679 260.792 477.394 262.518C479.108 264.244 480.072 266.586 480.072 269.027Z" fill="#1A2128"/>
<path d="M482.292 287.929L480 286.033L475.98 290.079L477.864 292.362C476.814 293.964 476.073 295.751 475.68 297.629L472.764 297.906V303.62L475.68 303.897C476.071 305.78 476.812 307.571 477.864 309.176L475.98 311.459L480 315.493L482.268 313.609C483.86 314.662 485.635 315.403 487.5 315.795L487.776 318.742H493.452L493.728 315.795C495.597 315.405 497.377 314.664 498.972 313.609L501.24 315.493L505.248 311.459L503.4 309.212C504.448 307.606 505.185 305.815 505.572 303.934L508.5 303.656V297.943L505.572 297.665C505.183 295.788 504.446 294.001 503.4 292.399L505.272 290.116L501.264 286.069L498.996 287.966C497.401 286.907 495.622 286.161 493.752 285.767L493.476 282.832H487.8L487.524 285.767C485.661 286.152 483.886 286.885 482.292 287.929ZM498.324 300.757C498.324 302.286 497.873 303.78 497.03 305.052C496.186 306.323 494.986 307.314 493.583 307.899C492.18 308.484 490.635 308.637 489.146 308.339C487.656 308.04 486.287 307.304 485.213 306.223C484.139 305.142 483.408 303.765 483.111 302.265C482.815 300.765 482.967 299.211 483.549 297.799C484.13 296.386 485.114 295.179 486.377 294.329C487.64 293.48 489.125 293.027 490.644 293.027C492.68 293.03 494.631 293.845 496.071 295.294C497.511 296.743 498.321 298.708 498.324 300.757Z" fill="#1A2128"/>
<path d="M363.6 43.7607L361.332 41.8644L357.3 45.8986L359.172 48.1694C358.126 49.7763 357.389 51.5669 357 53.4478L354.072 53.7256V59.4387L357 59.7166C357.389 61.5975 358.126 63.388 359.172 64.9949L357.3 67.2777L361.308 71.312L363.576 69.4277C365.174 70.4781 366.952 71.2195 368.82 71.614L369.096 74.5611H374.772L375.048 71.614C376.912 71.2194 378.686 70.4779 380.28 69.4277L382.548 71.312L386.568 67.2777L384.684 64.9949C385.734 63.3886 386.475 61.5981 386.868 59.7166L389.784 59.4387V53.7376L386.868 53.4598C386.475 51.5783 385.734 49.7878 384.684 48.1815L386.568 45.8986L382.548 41.8523L380.28 43.7487C378.69 42.6899 376.914 41.9439 375.048 41.5504L374.772 38.6515H369.096L368.82 41.5866C366.96 41.9753 365.189 42.7129 363.6 43.7607ZM379.632 56.6003C379.63 58.1287 379.177 59.622 378.332 60.8917C377.487 62.1614 376.286 63.1503 374.883 63.7335C373.479 64.3168 371.935 64.4681 370.446 64.1685C368.957 63.8688 367.59 63.1317 366.517 62.0501C365.444 60.9685 364.714 59.5911 364.419 58.0919C364.123 56.5927 364.276 55.039 364.858 53.6272C365.439 52.2153 366.424 51.0087 367.686 50.1599C368.949 49.311 370.434 48.8579 371.952 48.8579C373.987 48.8643 375.936 49.6832 377.371 51.1349C378.807 52.5865 379.611 54.5522 379.608 56.6003H379.632Z" fill="#1A2128"/>
<path d="M496.548 66.4323L495.348 65.4056L493.2 67.6401L494.22 68.848C493.643 69.7169 493.236 70.6884 493.02 71.7106L491.436 71.8555V74.9597L493.02 75.1047C493.233 76.1313 493.641 77.1072 494.22 77.9794L493.2 79.1872L495.384 81.3855L496.584 80.3589C497.447 80.9394 498.412 81.3493 499.428 81.5667L499.584 83.1611H502.668L502.812 81.5667C503.827 81.3493 504.792 80.9394 505.656 80.3589L506.856 81.3855L509.028 79.1872L508.008 77.9794C508.587 77.1072 508.994 76.1313 509.208 75.1047L510.792 74.9597V71.8555L509.208 71.7106C508.992 70.6884 508.585 69.7169 508.008 68.848L509.028 67.6401L506.856 65.4418L505.656 66.4685C504.79 65.8925 503.826 65.483 502.812 65.2606L502.668 63.6663H499.584L499.428 65.2606C498.404 65.4676 497.427 65.8649 496.548 66.4323ZM505.26 73.4137C505.26 74.245 505.015 75.0577 504.556 75.7489C504.097 76.4402 503.445 76.9789 502.682 77.2971C501.919 77.6152 501.079 77.6984 500.269 77.5363C499.459 77.3741 498.715 76.9737 498.131 76.3859C497.547 75.798 497.149 75.0491 496.988 74.2337C496.827 73.4183 496.91 72.5732 497.226 71.8051C497.542 71.0371 498.077 70.3806 498.764 69.9187C499.45 69.4569 500.258 69.2103 501.084 69.2103C501.632 69.2087 502.174 69.316 502.681 69.5259C503.188 69.7358 503.648 70.0443 504.036 70.4336C504.424 70.823 504.732 71.2856 504.942 71.7949C505.152 72.3042 505.26 72.8502 505.26 73.4016V73.4137Z" fill="#1A2128"/>
<path d="M322.452 234.615L321.252 233.588L319.068 235.786L320.088 236.994C319.515 237.869 319.108 238.844 318.888 239.869L317.304 240.014V243.118L318.888 243.263C319.108 244.288 319.515 245.263 320.088 246.138L319.068 247.345L321.252 249.544L322.452 248.517C323.318 249.1 324.288 249.51 325.308 249.725L325.452 251.331H328.536L328.68 249.725C329.696 249.508 330.661 249.098 331.524 248.517L332.724 249.544L334.908 247.345L333.888 246.138C334.459 245.261 334.865 244.287 335.088 243.263L336.672 243.118V240.014L335.088 239.869C334.865 238.845 334.459 237.871 333.888 236.994L334.908 235.786L332.724 233.588L331.524 234.615C330.661 234.034 329.696 233.624 328.68 233.407L328.536 231.8H325.452L325.308 233.407C324.288 233.621 323.318 234.031 322.452 234.615ZM331.2 241.572C331.203 242.404 330.96 243.218 330.502 243.91C330.045 244.603 329.393 245.144 328.631 245.464C327.868 245.784 327.028 245.869 326.217 245.708C325.406 245.547 324.661 245.148 324.076 244.56C323.49 243.973 323.091 243.224 322.929 242.408C322.767 241.593 322.849 240.747 323.165 239.978C323.481 239.209 324.016 238.552 324.703 238.09C325.39 237.627 326.198 237.381 327.024 237.381C328.13 237.381 329.19 237.822 329.973 238.607C330.756 239.393 331.197 240.459 331.2 241.572Z" fill="#1A2128"/>
<path d="M300 450C428.499 450 532.668 443.878 532.668 436.327C532.668 428.776 428.499 422.654 300 422.654C171.501 422.654 67.3318 428.776 67.3318 436.327C67.3318 443.878 171.501 450 300 450Z" fill="#1A2128"/>
<path d="M485.676 399.934H484.476C484.476 398.304 485.82 360.015 492.444 353.528C499.284 346.837 507.312 353.432 507.396 353.528L506.628 354.458C506.328 354.205 499.344 348.492 493.284 354.458C486.996 360.51 485.688 399.548 485.676 399.934Z" fill="#7BBD75"/>
<path d="M485.124 407.628L483.924 407.507C483.924 407.049 488.196 361.065 471.648 341.957L472.56 341.172C489.456 360.667 485.316 405.72 485.124 407.628Z" fill="#7BBD75"/>
<path d="M485.544 402.712C485.4 400.538 482.208 349.385 494.952 337.585L495.768 338.466C483.444 349.881 486.708 402.096 486.744 402.628L485.544 402.712Z" fill="#7BBD75"/>
<path d="M483.936 402.676C483.936 402.326 483.54 367.999 474.516 362.817C473.755 362.308 472.882 361.992 471.974 361.895C471.065 361.798 470.146 361.924 469.296 362.261C464.016 364.459 461.196 374.63 461.172 374.738L459.972 374.412C460.092 373.977 462.972 363.542 468.804 361.126C469.823 360.717 470.924 360.56 472.016 360.667C473.108 360.774 474.158 361.143 475.08 361.742C484.68 367.286 485.088 401.215 485.1 402.652L483.936 402.676Z" fill="#7BBD75"/>
<path d="M487.656 402.7C487.596 401.601 486.192 375.536 493.536 365.873C495.504 363.3 497.688 362.056 500.052 362.249C505.296 362.624 509.352 369.762 509.52 370.064L508.476 370.656C508.476 370.583 504.564 363.783 499.968 363.409C498.024 363.288 496.188 364.339 494.496 366.573C487.416 375.874 488.832 402.326 488.856 402.592L487.656 402.7Z" fill="#7BBD75"/>
<path d="M486.312 406.312L485.112 406.215C485.112 405.587 489.732 343.551 482.136 333.224L483.096 332.512C490.956 343.201 486.504 403.739 486.312 406.312Z" fill="#7BBD75"/>
<path d="M466.8 367.37C466.8 367.37 471.492 369.11 470.1 373.229C468.708 377.347 453.84 384.099 453.84 384.099C453.84 384.099 447.624 378.362 453.336 369.025C459.048 359.688 466.62 364.423 466.8 367.37Z" fill="#7BBD75"/>
<path opacity="0.5" d="M466.8 367.37C466.8 367.37 471.492 369.11 470.1 373.229C468.708 377.347 453.84 384.099 453.84 384.099C453.84 384.099 447.624 378.362 453.336 369.025C459.048 359.688 466.62 364.423 466.8 367.37Z" fill="white"/>
<path d="M487.2 359.531C487.2 359.531 482.196 359.326 481.908 363.662C481.62 367.998 492.708 380.005 492.708 380.005C492.708 380.005 500.652 377.118 498.936 366.295C497.22 355.473 488.4 356.862 487.2 359.531Z" fill="#7BBD75"/>
<path opacity="0.5" d="M487.2 359.531C487.2 359.531 482.196 359.326 481.908 363.662C481.62 367.998 492.708 380.005 492.708 380.005C492.708 380.005 500.652 377.118 498.936 366.295C497.22 355.473 488.4 356.862 487.2 359.531Z" fill="white"/>
<path d="M491.4 338.756C491.4 338.756 488.076 338.394 488.34 336.34C488.604 334.287 501.3 329.033 508.8 337.548C508.8 337.548 504 345.834 497.064 345.943C490.128 346.052 491.4 338.756 491.4 338.756Z" fill="#7BBD75"/>
<path opacity="0.5" d="M491.4 338.756C491.4 338.756 488.076 338.394 488.34 336.34C488.604 334.287 501.3 329.033 508.8 337.548C508.8 337.548 504 345.834 497.064 345.943C490.128 346.052 491.4 338.756 491.4 338.756Z" fill="white"/>
<path d="M485.196 333.792C485.196 333.792 488.208 335.266 489.06 333.381C489.912 331.497 481.86 320.276 471.06 323.513C471.06 323.513 470.772 333.103 476.604 336.896C482.436 340.689 485.196 333.792 485.196 333.792Z" fill="#7BBD75"/>
<path opacity="0.5" d="M485.196 333.792C485.196 333.792 488.208 335.266 489.06 333.381C489.912 331.497 481.86 320.276 471.06 323.513C471.06 323.513 470.772 333.103 476.604 336.896C482.436 340.689 485.196 333.792 485.196 333.792Z" fill="white"/>
<path d="M500.988 365.716C500.988 365.716 498.684 363.843 501.168 362.925C503.652 362.008 515.832 362.273 515.964 374.424C515.964 374.424 501.768 376.84 500.016 372.178C498.264 367.515 500.988 365.716 500.988 365.716Z" fill="#7BBD75"/>
<path opacity="0.5" d="M500.988 365.716C500.988 365.716 498.684 363.843 501.168 362.925C503.652 362.008 515.832 362.273 515.964 374.424C515.964 374.424 501.768 376.84 500.016 372.178C498.264 367.515 500.988 365.716 500.988 365.716Z" fill="white"/>
<path d="M472.032 338.454C472.032 338.454 474.336 336.582 471.852 335.676C469.368 334.77 457.176 335.012 457.056 347.175C457.056 347.175 471.252 349.591 473.004 344.916C474.756 340.242 472.032 338.454 472.032 338.454Z" fill="#7BBD75"/>
<path opacity="0.5" d="M472.032 338.454C472.032 338.454 474.336 336.582 471.852 335.676C469.368 334.77 457.176 335.012 457.056 347.175C457.056 347.175 471.252 349.591 473.004 344.916C474.756 340.242 472.032 338.454 472.032 338.454Z" fill="white"/>
<path d="M479.544 348.25C479.544 348.25 479.736 345.967 477.912 346.861C476.088 347.755 469.74 354.652 476.328 361.198C476.328 361.198 485.196 354.591 483.588 351.149C481.98 347.706 479.544 348.25 479.544 348.25Z" fill="#7BBD75"/>
<path opacity="0.5" d="M479.544 348.25C479.544 348.25 479.736 345.967 477.912 346.861C476.088 347.755 469.74 354.652 476.328 361.198C476.328 361.198 485.196 354.591 483.588 351.149C481.98 347.706 479.544 348.25 479.544 348.25Z" fill="white"/>
<path d="M503.04 351.487C503.04 351.487 501.66 349.675 503.676 349.446C505.692 349.216 514.728 351.644 512.628 360.727C512.628 360.727 501.624 359.894 501.144 356.125C500.664 352.357 503.04 351.487 503.04 351.487Z" fill="#7BBD75"/>
<path opacity="0.5" d="M503.04 351.487C503.04 351.487 501.66 349.675 503.676 349.446C505.692 349.216 514.728 351.644 512.628 360.727C512.628 360.727 501.624 359.894 501.144 356.125C500.664 352.357 503.04 351.487 503.04 351.487Z" fill="white"/>
<path d="M465.864 436.351H503.616L507.696 394.753H461.796L465.864 436.351Z" fill="#1A2128"/>
<path opacity="0.2" d="M465.864 436.351H503.616L507.696 394.753H461.796L465.864 436.351Z" fill="white"/>
<path d="M459.78 399.343H509.712V390.163H459.78V399.343Z" fill="#1A2128"/>
<path opacity="0.4" d="M459.78 399.343H509.712V390.163H459.78V399.343Z" fill="white"/>
<path d="M125.328 346.656C125.076 348.431 129.852 349.591 133.728 350.279C133.416 353.504 131.328 356.753 128.34 359.797C124.644 357.695 119.352 354.966 118.38 355.606C117.408 356.246 122.724 359.869 126.108 361.935C123.691 364.062 121.129 366.016 118.44 367.781C116.784 366.223 114.84 364.858 113.64 365.595C112.44 366.332 112.764 368.771 113.352 370.933C109.332 373.349 106.308 374.738 106.308 374.738C105.136 370.972 104.238 367.125 103.62 363.227C103.824 362.817 104.028 362.406 104.208 362.019C104.856 360.51 104.208 359.857 103.152 359.604C102.864 356.845 102.864 354.064 103.152 351.306C107.712 350.352 113.256 348.564 111.18 345.81C109.98 344.155 107.58 343.962 105.18 344.385C105.508 343.835 105.885 343.318 106.308 342.839C114.612 333.635 120.396 342.839 120.396 342.839C125.196 338.792 131.988 339.891 133.452 346.209C130.8 345.448 125.64 344.433 125.328 346.656Z" fill="#7BBD75"/>
<path opacity="0.3" d="M125.328 346.656C125.076 348.431 129.852 349.591 133.728 350.279C133.416 353.504 131.328 356.753 128.34 359.797C124.644 357.695 119.352 354.966 118.38 355.606C117.408 356.246 122.724 359.869 126.108 361.935C123.691 364.062 121.129 366.016 118.44 367.781C116.784 366.223 114.84 364.858 113.64 365.595C112.44 366.332 112.764 368.771 113.352 370.933C109.332 373.349 106.308 374.738 106.308 374.738C105.136 370.972 104.238 367.125 103.62 363.227C103.824 362.817 104.028 362.406 104.208 362.019C104.856 360.51 104.208 359.857 103.152 359.604C102.864 356.845 102.864 354.064 103.152 351.306C107.712 350.352 113.256 348.564 111.18 345.81C109.98 344.155 107.58 343.962 105.18 344.385C105.508 343.835 105.885 343.318 106.308 342.839C114.612 333.635 120.396 342.839 120.396 342.839C125.196 338.792 131.988 339.891 133.452 346.209C130.8 345.448 125.64 344.433 125.328 346.656Z" fill="white"/>
<path d="M114.972 414.296L116.172 414.199C116.172 413.583 111.252 351.97 124.992 346.16C125.646 345.85 126.362 345.697 127.085 345.714C127.808 345.731 128.517 345.917 129.156 346.257C134.124 348.866 136.5 359.652 136.524 359.761L137.724 359.495C137.616 359.036 135.204 348.057 129.732 345.194C128.937 344.771 128.056 344.538 127.157 344.512C126.258 344.487 125.365 344.671 124.548 345.049C109.992 351.137 114.768 411.675 114.972 414.296Z" fill="#7BBD75"/>
<path d="M113.244 412.919C113.484 410.141 119.088 344.952 108.612 338.031C106.092 336.377 103.812 336.014 101.952 336.993C96.9958 339.505 96.3478 350.17 96.3118 350.617L97.5118 350.69C97.5118 350.581 98.1478 340.266 102.492 338.068C103.98 337.307 105.816 337.633 107.952 339.046C117.84 345.568 112.104 412.134 112.044 412.81L113.244 412.919Z" fill="#7BBD75"/>
<path d="M111.66 418.185C111.744 416.059 113.472 366.163 103.92 361.79C103.031 361.372 102.063 361.156 101.082 361.156C100.101 361.156 99.1324 361.372 98.2438 361.79C91.6918 364.689 87.6478 376.973 87.4438 377.492L88.5838 377.867C88.5838 377.746 92.6278 365.571 98.6878 362.889C99.4226 362.537 100.226 362.354 101.04 362.354C101.854 362.354 102.657 362.537 103.392 362.889C110.712 366.247 110.952 403.956 110.424 418.137L111.66 418.185Z" fill="#7BBD75"/>
<path d="M114.096 415.902L115.296 415.769C113.616 400.912 110.4 361.343 115.656 356.584C115.909 356.273 116.248 356.043 116.629 355.923C117.011 355.803 117.419 355.798 117.804 355.908C121.32 357.273 123.468 370.148 123.996 374.992L125.196 374.859C124.992 372.999 123.072 356.657 118.236 354.784C117.646 354.589 117.013 354.569 116.412 354.728C115.812 354.886 115.27 355.216 114.852 355.678C108 361.814 113.844 413.704 114.096 415.902Z" fill="#7BBD75"/>
<path d="M134.124 387.747H91.0078L94.6078 436.351H130.524L134.124 387.747Z" fill="#1A2128"/>
<path opacity="0.2" d="M121.02 387.747L119.82 436.351H94.6078L91.0078 387.747H121.02Z" fill="white"/>
<path d="M128.244 369.907C128.7 371.115 132.048 370.16 134.676 369.218C135.576 371.32 135.372 374.05 134.592 376.961C131.592 376.961 127.392 377.045 127.02 377.806C126.648 378.567 131.148 378.929 133.944 379.014C133.18 381.162 132.265 383.253 131.208 385.271C129.648 384.884 127.992 384.703 127.524 385.561C127.056 386.418 128.076 387.831 129.168 388.955C127.488 391.793 126.12 393.726 126.12 393.726C124.115 391.806 122.25 389.743 120.54 387.554C120.54 387.24 120.54 386.913 120.54 386.587C120.432 385.379 119.82 385.247 119.088 385.488C117.945 383.922 116.964 382.242 116.16 380.476C118.644 378.301 121.452 375.294 119.232 374.315C117.9 373.724 116.424 374.4 115.092 375.523C115.111 375.072 115.167 374.624 115.26 374.183C117.24 365.643 123.948 369.351 123.948 369.351C125.544 365.184 130.092 363.529 133.152 366.935C131.244 367.298 127.692 368.397 128.244 369.907Z" fill="#7BBD75"/>
<path opacity="0.3" d="M128.244 369.907C128.7 371.115 132.048 370.16 134.676 369.218C135.576 371.32 135.372 374.05 134.592 376.961C131.592 376.961 127.392 377.045 127.02 377.806C126.648 378.567 131.148 378.929 133.944 379.014C133.18 381.162 132.265 383.253 131.208 385.271C129.648 384.884 127.992 384.703 127.524 385.561C127.056 386.418 128.076 387.831 129.168 388.955C127.488 391.793 126.12 393.726 126.12 393.726C124.115 391.806 122.25 389.743 120.54 387.554C120.54 387.24 120.54 386.913 120.54 386.587C120.432 385.379 119.82 385.247 119.088 385.488C117.945 383.922 116.964 382.242 116.16 380.476C118.644 378.301 121.452 375.294 119.232 374.315C117.9 373.724 116.424 374.4 115.092 375.523C115.111 375.072 115.167 374.624 115.26 374.183C117.24 365.643 123.948 369.351 123.948 369.351C125.544 365.184 130.092 363.529 133.152 366.935C131.244 367.298 127.692 368.397 128.244 369.907Z" fill="white"/>
<path d="M96.2398 375.644C97.5811 375.756 98.9033 376.036 100.176 376.478C100.523 375.562 100.718 374.595 100.752 373.615C101.028 364.858 94.7518 368.542 91.5118 365.981C90.7697 365.317 89.8962 364.819 88.9489 364.519C88.0016 364.219 87.002 364.125 86.0158 364.242C86.2949 364.725 86.5433 365.225 86.7598 365.74C86.8362 365.932 86.8687 366.139 86.8548 366.345C86.8409 366.551 86.781 366.752 86.6796 366.932C86.5781 367.112 86.4377 367.266 86.2688 367.384C86.0999 367.502 85.9068 367.58 85.7038 367.612C84.8934 367.77 84.054 367.669 83.3038 367.322C83.078 367.194 82.865 367.044 82.6678 366.875C82.1413 367.796 81.7378 368.783 81.4678 369.81C81.1352 371.032 80.9459 372.289 80.9038 373.555C81.3956 373.662 81.8805 373.799 82.3558 373.965C82.546 374.046 82.7152 374.169 82.8503 374.326C82.9854 374.483 83.0829 374.669 83.1351 374.87C83.1873 375.071 83.1929 375.281 83.1514 375.484C83.1099 375.688 83.0224 375.879 82.8958 376.043C82.3801 376.57 81.7745 377 81.1078 377.311C81.3297 378.714 81.6956 380.091 82.1998 381.418L82.6438 381.478C82.9599 381.542 83.2724 381.622 83.5798 381.72C83.7599 381.767 83.9363 381.828 84.1078 381.901C84.3204 381.995 84.5058 382.142 84.6465 382.328C84.7871 382.514 84.8784 382.733 84.9118 382.964C84.9484 383.201 84.921 383.444 84.8323 383.667C84.7436 383.89 84.597 384.085 84.4078 384.232C84.2017 384.381 83.9852 384.514 83.7598 384.631C84.5877 386.078 85.7743 387.285 87.2038 388.133C88.4396 387.55 89.6415 386.897 90.8038 386.177C90.5398 385.826 90.2878 385.476 90.0478 385.114C89.7611 384.72 89.6286 384.234 89.6758 383.749C89.7462 383.269 90.0003 382.835 90.3838 382.541C90.7743 382.246 91.2639 382.116 91.7482 382.179C92.2324 382.243 92.6729 382.494 92.9758 382.879C93.2638 383.314 93.5758 383.725 93.8878 384.087C95.579 382.881 97.0972 381.446 98.3998 379.823H98.2678C97.4823 379.611 96.6788 379.474 95.8678 379.413C95.3809 379.349 94.9392 379.092 94.6399 378.701C94.3406 378.309 94.2082 377.813 94.2718 377.323C94.3355 376.833 94.5899 376.388 94.9793 376.087C95.3686 375.786 95.8609 375.653 96.3478 375.717L96.2398 375.644Z" fill="#7BBD75"/>
<path opacity="0.5" d="M96.2398 375.644C97.5811 375.756 98.9033 376.036 100.176 376.478C100.523 375.562 100.718 374.595 100.752 373.615C101.028 364.858 94.7518 368.542 91.5118 365.981C90.7697 365.317 89.8962 364.819 88.9489 364.519C88.0016 364.219 87.002 364.125 86.0158 364.242C86.2949 364.725 86.5433 365.225 86.7598 365.74C86.8362 365.932 86.8687 366.139 86.8548 366.345C86.8409 366.551 86.781 366.752 86.6796 366.932C86.5781 367.112 86.4377 367.266 86.2688 367.384C86.0999 367.502 85.9068 367.58 85.7038 367.612C84.8934 367.77 84.054 367.669 83.3038 367.322C83.078 367.194 82.865 367.044 82.6678 366.875C82.1413 367.796 81.7378 368.783 81.4678 369.81C81.1352 371.032 80.9459 372.289 80.9038 373.555C81.3956 373.662 81.8805 373.799 82.3558 373.965C82.546 374.046 82.7152 374.169 82.8503 374.326C82.9854 374.483 83.0829 374.669 83.1351 374.87C83.1873 375.071 83.1929 375.281 83.1514 375.484C83.1099 375.688 83.0224 375.879 82.8958 376.043C82.3801 376.57 81.7745 377 81.1078 377.311C81.3297 378.714 81.6956 380.091 82.1998 381.418L82.6438 381.478C82.9599 381.542 83.2724 381.622 83.5798 381.72C83.7599 381.767 83.9363 381.828 84.1078 381.901C84.3204 381.995 84.5058 382.142 84.6465 382.328C84.7871 382.514 84.8784 382.733 84.9118 382.964C84.9484 383.201 84.921 383.444 84.8323 383.667C84.7436 383.89 84.597 384.085 84.4078 384.232C84.2017 384.381 83.9852 384.514 83.7598 384.631C84.5877 386.078 85.7743 387.285 87.2038 388.133C88.4396 387.55 89.6415 386.897 90.8038 386.177C90.5398 385.826 90.2878 385.476 90.0478 385.114C89.7611 384.72 89.6286 384.234 89.6758 383.749C89.7462 383.269 90.0003 382.835 90.3838 382.541C90.7743 382.246 91.2639 382.116 91.7482 382.179C92.2324 382.243 92.6729 382.494 92.9758 382.879C93.2638 383.314 93.5758 383.725 93.8878 384.087C95.579 382.881 97.0972 381.446 98.3998 379.823H98.2678C97.4823 379.611 96.6788 379.474 95.8678 379.413C95.3809 379.349 94.9392 379.092 94.6399 378.701C94.3406 378.309 94.2082 377.813 94.2718 377.323C94.3355 376.833 94.5899 376.388 94.9793 376.087C95.3686 375.786 95.8609 375.653 96.3478 375.717L96.2398 375.644Z" fill="white"/>
<path d="M93.7439 345.508C92.9978 344.979 92.1922 344.542 91.3439 344.204C91.5661 343.569 91.886 342.974 92.2919 342.44C95.9639 337.717 97.6319 342.44 100.476 342.513C101.148 342.498 101.816 342.626 102.437 342.888C103.057 343.151 103.615 343.541 104.076 344.034C103.718 344.165 103.37 344.318 103.032 344.493C102.908 344.56 102.8 344.654 102.718 344.769C102.635 344.883 102.578 345.015 102.553 345.154C102.528 345.293 102.534 345.437 102.571 345.573C102.608 345.71 102.675 345.836 102.768 345.943C103.135 346.388 103.629 346.709 104.184 346.861C104.355 346.879 104.528 346.879 104.7 346.861C104.578 347.576 104.36 348.27 104.052 348.926C103.692 349.711 103.245 350.453 102.72 351.137C102.412 350.978 102.095 350.837 101.772 350.714C101.636 350.671 101.492 350.66 101.351 350.683C101.21 350.705 101.077 350.76 100.96 350.843C100.844 350.926 100.749 351.035 100.681 351.161C100.614 351.288 100.576 351.428 100.572 351.571C100.609 352.078 100.739 352.574 100.956 353.033C100.213 353.667 99.4086 354.225 98.5559 354.7L98.2919 354.543C98.0999 354.434 97.8959 354.337 97.7039 354.253C97.5903 354.193 97.4692 354.148 97.3439 354.12C97.1882 354.066 97.021 354.056 96.8597 354.089C96.6985 354.122 96.5489 354.198 96.4266 354.309C96.3042 354.42 96.2135 354.561 96.1638 354.719C96.1141 354.877 96.1072 355.046 96.1439 355.207C96.1872 355.376 96.2434 355.542 96.3119 355.702C95.2452 356.094 94.0962 356.202 92.9759 356.016C92.5677 355.157 92.211 354.274 91.9079 353.371L92.7719 353.154C93.093 353.104 93.3862 352.941 93.5999 352.695C93.774 352.405 93.834 352.06 93.7679 351.729C93.6934 351.399 93.4927 351.113 93.2095 350.932C92.9263 350.751 92.5836 350.69 92.2559 350.762C91.9199 350.859 91.5719 350.943 91.2239 351.016C90.8864 349.638 90.741 348.219 90.7919 346.8H90.8759C91.39 347.043 91.8802 347.334 92.3399 347.67C92.6265 347.844 92.969 347.9 93.2956 347.826C93.6222 347.752 93.9076 347.553 94.0919 347.272C94.2727 346.99 94.3374 346.648 94.2725 346.319C94.2075 345.99 94.018 345.699 93.7439 345.508Z" fill="#7BBD75"/>
<path opacity="0.3" d="M93.7439 345.508C92.9978 344.979 92.1922 344.542 91.3439 344.204C91.5661 343.569 91.886 342.974 92.2919 342.44C95.9639 337.717 97.6319 342.44 100.476 342.513C101.148 342.498 101.816 342.626 102.437 342.888C103.057 343.151 103.615 343.541 104.076 344.034C103.718 344.165 103.37 344.318 103.032 344.493C102.908 344.56 102.8 344.654 102.718 344.769C102.635 344.883 102.578 345.015 102.553 345.154C102.528 345.293 102.534 345.437 102.571 345.573C102.608 345.71 102.675 345.836 102.768 345.943C103.135 346.388 103.629 346.709 104.184 346.861C104.355 346.879 104.528 346.879 104.7 346.861C104.578 347.576 104.36 348.27 104.052 348.926C103.692 349.711 103.245 350.453 102.72 351.137C102.412 350.978 102.095 350.837 101.772 350.714C101.636 350.671 101.492 350.66 101.351 350.683C101.21 350.705 101.077 350.76 100.96 350.843C100.844 350.926 100.749 351.035 100.681 351.161C100.614 351.288 100.576 351.428 100.572 351.571C100.609 352.078 100.739 352.574 100.956 353.033C100.213 353.667 99.4086 354.225 98.5559 354.7L98.2919 354.543C98.0999 354.434 97.8959 354.337 97.7039 354.253C97.5903 354.193 97.4692 354.148 97.3439 354.12C97.1882 354.066 97.021 354.056 96.8597 354.089C96.6985 354.122 96.5489 354.198 96.4266 354.309C96.3042 354.42 96.2135 354.561 96.1638 354.719C96.1141 354.877 96.1072 355.046 96.1439 355.207C96.1872 355.376 96.2434 355.542 96.3119 355.702C95.2452 356.094 94.0962 356.202 92.9759 356.016C92.5677 355.157 92.211 354.274 91.9079 353.371L92.7719 353.154C93.093 353.104 93.3862 352.941 93.5999 352.695C93.774 352.405 93.834 352.06 93.7679 351.729C93.6934 351.399 93.4927 351.113 93.2095 350.932C92.9263 350.751 92.5836 350.69 92.2559 350.762C91.9199 350.859 91.5719 350.943 91.2239 351.016C90.8864 349.638 90.741 348.219 90.7919 346.8H90.8759C91.39 347.043 91.8802 347.334 92.3399 347.67C92.6265 347.844 92.969 347.9 93.2956 347.826C93.6222 347.752 93.9076 347.553 94.0919 347.272C94.2727 346.99 94.3374 346.648 94.2725 346.319C94.2075 345.99 94.018 345.699 93.7439 345.508Z" fill="white"/>
<path d="M128.88 354.265C129.132 356.041 124.344 357.212 120.48 357.889C120.792 361.114 122.88 364.375 125.868 367.419C129.576 365.317 134.856 362.587 135.828 363.215C136.8 363.843 131.484 367.479 128.1 369.557C130.519 371.681 133.081 373.634 135.768 375.403C137.424 373.832 139.368 372.468 140.568 373.204C141.768 373.941 141.444 376.393 140.856 378.543C144.888 380.959 147.9 382.348 147.9 382.348C149.071 378.581 149.97 374.734 150.588 370.837C150.384 370.438 150.18 370.028 150 369.629C149.352 368.119 150 367.479 151.056 367.213C151.343 364.459 151.343 361.682 151.056 358.927C146.508 357.961 140.964 356.186 143.04 353.432C144.24 351.765 146.58 351.584 148.968 351.994C148.64 351.445 148.262 350.928 147.84 350.448C139.548 341.256 133.752 350.448 133.752 350.448C128.952 346.414 122.16 347.501 120.696 353.818C123.384 353.118 128.568 352.079 128.88 354.265Z" fill="#7BBD75"/>
<path opacity="0.5" d="M128.88 354.265C129.132 356.041 124.344 357.212 120.48 357.889C120.792 361.114 122.88 364.375 125.868 367.419C129.576 365.317 134.856 362.587 135.828 363.215C136.8 363.843 131.484 367.479 128.1 369.557C130.519 371.681 133.081 373.634 135.768 375.403C137.424 373.832 139.368 372.468 140.568 373.204C141.768 373.941 141.444 376.393 140.856 378.543C144.888 380.959 147.9 382.348 147.9 382.348C149.071 378.581 149.97 374.734 150.588 370.837C150.384 370.438 150.18 370.028 150 369.629C149.352 368.119 150 367.479 151.056 367.213C151.343 364.459 151.343 361.682 151.056 358.927C146.508 357.961 140.964 356.186 143.04 353.432C144.24 351.765 146.58 351.584 148.968 351.994C148.64 351.445 148.262 350.928 147.84 350.448C139.548 341.256 133.752 350.448 133.752 350.448C128.952 346.414 122.16 347.501 120.696 353.818C123.384 353.118 128.568 352.079 128.88 354.265Z" fill="white"/>
<path d="M348.552 159.921C348.24 161.732 347.916 163.242 347.52 164.873C347.124 166.503 346.704 168.049 346.236 169.62C345.323 172.794 344.225 175.912 342.948 178.956C340.332 185.068 337.104 191.204 331.704 196.458C330.31 197.807 328.778 199.001 327.132 200.022C326.712 200.263 326.244 200.553 325.86 200.758L324.756 201.326C324.012 201.7 323.292 202.051 322.548 202.377C319.608 203.718 316.704 204.925 313.752 206C307.902 208.216 301.937 210.111 295.884 211.677L293.628 205.904C298.968 202.884 304.428 199.973 309.708 197.062C312.348 195.589 315 194.151 317.52 192.629C318.144 192.255 318.72 191.893 319.38 191.506L320.292 190.938C320.568 190.757 320.748 190.612 320.976 190.455C321.907 189.781 322.764 189.007 323.532 188.148C326.832 184.585 329.412 179.512 331.452 174.222C332.508 171.576 333.384 168.81 334.224 166.032C334.632 164.631 335.016 163.23 335.424 161.817C335.832 160.404 336.12 158.93 336.372 157.71L348.552 159.921Z" fill="#CE7A63"/>
<path d="M323.496 176.456L336.456 186.191C336.456 186.191 336.96 185.636 337.776 184.682C338.376 183.981 339.156 183.051 340.044 181.964C345.084 175.78 352.452 164.51 352.512 159.015C352.596 150.777 344.112 149.569 334.584 157.988C330.468 161.612 328.32 167.651 326.184 171.383C325.488 172.591 324.912 173.702 324.456 174.536C323.856 175.731 323.496 176.456 323.496 176.456Z" fill="#5596DC"/>
<path opacity="0.3" d="M352.596 159.933C349.668 157.988 347.532 163.037 341.736 167.301C339.156 169.197 333.504 181.59 333.96 184.319L336.468 186.191C336.468 186.191 352.656 168.146 352.596 159.933Z" fill="black"/>
<path d="M295.932 205.252L285.216 202.401L285.972 213.091C285.972 213.091 296.436 214.153 297.408 210.989L295.932 205.252Z" fill="#CE7A63"/>
<path d="M276.972 207.933L279.408 215.228L285.972 213.091L285.216 202.401L276.972 207.933Z" fill="#CE7A63"/>
<path d="M339.684 224.251H383.568C383.868 220.314 382.968 207.474 383.64 191.144C384.061 179.03 385.518 166.975 387.996 155.113L388.608 152.456C388.608 152.456 386.388 151.997 383.196 151.526C380.556 151.139 377.196 150.741 373.98 150.584C367.769 150.227 361.543 150.227 355.332 150.584C352.464 150.85 349.668 151.333 347.436 151.792C344.58 152.371 342.888 152.867 342.888 152.867C342.888 152.867 332.088 177.821 339.684 224.251Z" fill="#5596DC"/>
<path opacity="0.3" d="M383.639 191.144C384.061 179.034 385.518 166.983 387.995 155.125C385.067 154.86 380.051 155.125 379.223 159.957C378.323 165.042 379.451 177.096 383.639 191.144Z" fill="black"/>
<path d="M373.584 131.657L368.592 135.824L361.8 141.501C361.994 142.414 362.138 143.337 362.232 144.267C362.592 147.975 361.644 149.255 356.232 150.548C356.232 150.548 349.8 154.835 359.34 155.621C359.376 156.663 359.537 157.697 359.82 158.701C360.659 157.529 361.699 156.519 362.892 155.717C373.332 155.536 374.712 150.668 374.712 150.668C370.632 146.598 372.204 137.696 373.584 131.657Z" fill="#CE7A63"/>
<path opacity="0.2" d="M361.8 141.465C361.993 142.378 362.138 143.301 362.232 144.231C364.764 143.723 368.148 141.006 368.508 138.397C368.627 137.532 368.655 136.658 368.592 135.788L361.8 141.465Z" fill="black"/>
<path d="M343.584 427.824L334.356 428.802L333.888 423.415L332.628 408.764L341.856 407.773L343.26 423.971L343.584 427.824Z" fill="#9F5B53"/>
<path d="M389.652 426.652H380.712L380.628 424.611L380.616 424.357L380.16 411.3L380.148 411.034L379.968 406.022H388.932L389.652 426.652Z" fill="#9F5B53"/>
<path opacity="0.2" d="M341.856 407.773L343.26 423.971L333.888 423.415L332.628 408.764L341.856 407.773Z" fill="black"/>
<path opacity="0.2" d="M389.604 425.505H389.592L380.628 424.357H380.616L380.148 411.759H380.16L389.136 412.472L389.592 425.106L389.604 425.505Z" fill="black"/>
<path d="M379.476 426.109H390.276C390.455 426.107 390.628 426.167 390.768 426.28C390.908 426.392 391.005 426.549 391.044 426.725L392.808 434.745C392.879 435.089 392.811 435.448 392.62 435.742C392.429 436.036 392.13 436.242 391.788 436.315H391.5C387.984 436.255 385.416 436.037 381 436.037C378.288 436.037 370.08 436.315 366.324 436.315C362.568 436.315 362.076 432.583 363.612 432.244C370.512 430.735 375.696 428.621 377.904 426.64C378.337 426.261 378.903 426.069 379.476 426.109Z" fill="#263238"/>
<path d="M333.372 425.819H344.244C344.422 425.817 344.596 425.878 344.736 425.99C344.876 426.102 344.973 426.259 345.012 426.435L346.776 434.455C346.847 434.799 346.779 435.158 346.588 435.452C346.397 435.746 346.097 435.952 345.756 436.025H345.468C341.952 436.025 339.384 435.747 334.968 435.747C332.244 435.747 324.048 436.037 320.292 436.037C316.536 436.037 316.044 432.305 317.58 431.955C324.48 430.445 329.664 428.331 331.872 426.35C332.286 425.987 332.823 425.797 333.372 425.819Z" fill="#263238"/>
<path d="M390.792 423.21H377.844C377.844 423.21 367.404 367.008 363.276 338.37C362.64 333.925 361.944 328.091 361.248 321.303C360.156 310.311 359.028 297.145 358.02 284.463C354.924 292.845 352.56 304.815 350.736 318.404C344.244 367.08 344.904 422.062 344.904 422.062H331.776C321.648 344.167 335.172 248.312 339.684 224.251H383.556C383.628 229.976 386.04 311.217 387.732 341.812C389.256 369.955 390.792 423.21 390.792 423.21Z" fill="#263238"/>
<path d="M330.3 418.342L330.948 422.062H346.452V418.632L330.3 418.342Z" fill="#5596DC"/>
<path d="M376.344 419.767L377.832 423.21H390.84L391.692 419.767H376.344Z" fill="#5596DC"/>
<path d="M373.836 132.381C373.836 132.381 376.5 133.71 377.304 132.176C378.108 130.642 377.304 128.275 378.612 127.828C379.92 127.381 382.752 127.32 382.572 125.714C382.392 124.108 380.592 122.815 381.828 121.776C383.064 120.738 385.596 119.264 384.468 118.008C383.34 116.752 382.296 114.686 383.268 113.937C384.24 113.189 382.968 108.901 380.448 109.19C377.928 109.48 378.348 107.403 378.408 105.567C378.468 103.731 374.712 102.197 373.824 104.021C372.936 105.845 371.004 103.526 370.476 101.907C369.948 100.289 368.868 99.7329 366.6 100.868C364.332 102.004 363.996 105.833 362.832 103.622C361.668 101.412 359.088 99.9987 357.828 101.207C356.568 102.414 357.324 104.009 355.344 103.924C353.364 103.84 350.616 107.451 351.588 108.007C352.56 108.562 352.416 109.553 351.084 110.64C349.752 111.727 348.204 113.49 349.944 114.264C351.684 115.037 351.576 116.317 351.06 116.836C350.544 117.356 352.104 119.88 354.444 119.735C356.784 119.59 373.836 132.381 373.836 132.381Z" fill="#263238"/>
<path d="M353.256 109.577C353.256 109.577 348.792 120.242 353.568 126.004C358.344 131.765 363.528 111.111 363.528 111.111L353.256 109.577Z" fill="#263238"/>
<path d="M368.399 139.133C366.717 140.648 364.586 141.565 362.336 141.742C360.085 141.918 357.839 141.346 355.943 140.112C353.454 138.571 351.646 136.129 350.891 133.287C350.783 132.901 350.699 132.502 350.627 132.079C349.427 124.567 351.503 112.476 359.747 109.843C361.563 109.255 363.498 109.144 365.369 109.52C367.24 109.896 368.984 110.747 370.436 111.992C371.888 113.237 373 114.835 373.666 116.634C374.333 118.433 374.531 120.374 374.243 122.272C373.067 130.449 372.791 135.28 368.399 139.133Z" fill="#CE7A63"/>
<path d="M356.496 123.528C355.553 125.507 354.342 127.345 352.896 128.987C353.326 129.351 353.831 129.616 354.374 129.762C354.918 129.908 355.486 129.932 356.04 129.833L356.496 123.528Z" fill="#BA4D3C"/>
<path d="M369 111.594L368.1 113.044C370.668 114.251 369.744 117.331 369.024 118.672C367.488 121.547 368.604 126.463 370.68 128.625C370.68 128.625 370.908 127.32 371.976 127.767C373.044 128.214 371.976 133.807 371.976 133.807C371.976 133.807 372.9 135.413 375.636 128.48C378.156 122.066 379.068 116.583 378.036 113.841L369 111.594Z" fill="#263238"/>
<path d="M377.208 129.241C376.696 130.132 376.014 130.911 375.2 131.533C374.386 132.155 373.457 132.608 372.468 132.865C369.816 133.541 368.568 131.137 369.36 128.661C370.08 126.463 372.324 123.395 374.952 123.83C375.523 123.932 376.06 124.176 376.513 124.54C376.966 124.905 377.321 125.378 377.545 125.916C377.77 126.455 377.856 127.041 377.797 127.622C377.739 128.203 377.536 128.759 377.208 129.241Z" fill="#CE7A63"/>
<path d="M363.096 106.726C363.096 106.726 358.692 106.726 356.448 108.574C354.204 110.423 352.692 113.285 353.496 113.551C354.3 113.817 356.604 112.488 357.204 112.778C357.804 113.068 357.804 116.583 360.024 115.387C362.244 114.191 360.996 114.179 362.796 113.744C364.596 113.309 365.616 115.556 366.396 115.399C366.962 115.253 367.496 114.998 367.968 114.65C367.968 114.65 365.568 113.853 365.436 113.08C365.304 112.307 363.036 111.872 363.036 111.872C363.036 111.872 365.904 110.894 366.792 111.703C367.68 112.512 367.164 114.3 369.504 114.251C371.844 114.203 375.504 116.269 375.84 113.273C376.176 110.278 368.4 104.746 363.096 106.726Z" fill="#263238"/>
<path d="M374.7 146.537L363.528 151.369L359.808 158.664L363.528 156.2L368.1 160.621L377.772 150.862L374.7 146.537Z" fill="#5596DC"/>
<path d="M359.808 158.664L358.608 152.202C358.608 152.202 358.716 150.306 361.248 148.458L357.264 146.537C357.264 146.537 351.096 154.002 350.724 158.616L356.124 154.992L359.808 158.664Z" fill="#5596DC"/>
<path opacity="0.2" d="M374.7 146.537L363.528 151.369L359.808 158.664L363.528 156.2L368.1 160.621L377.772 150.862L374.7 146.537Z" fill="white"/>
<path opacity="0.2" d="M359.808 158.664L358.608 152.202C358.608 152.202 358.716 150.306 361.248 148.458L357.264 146.537C357.264 146.537 351.096 154.002 350.724 158.616L356.124 154.992L359.808 158.664Z" fill="white"/>
<path d="M327.516 426.507C327.435 426.338 327.401 426.15 327.418 425.962C327.435 425.775 327.502 425.596 327.612 425.444C327.666 425.332 327.749 425.237 327.853 425.169C327.956 425.101 328.076 425.063 328.2 425.058C329.268 424.997 330.996 427.232 331.188 427.473C331.208 427.506 331.219 427.544 331.219 427.582C331.219 427.621 331.208 427.658 331.188 427.691C331.168 427.721 331.141 427.745 331.11 427.762C331.078 427.779 331.043 427.788 331.008 427.788C330.272 427.733 329.544 427.6 328.836 427.389C328.302 427.271 327.831 426.956 327.516 426.507ZM328.224 425.444C328.162 425.444 328.102 425.463 328.051 425.497C327.999 425.531 327.96 425.58 327.936 425.638C327.864 425.735 327.818 425.85 327.803 425.971C327.788 426.091 327.805 426.214 327.852 426.326C328.104 426.809 329.112 427.196 330.6 427.365C329.88 426.495 328.8 425.408 328.224 425.444Z" fill="#5596DC"/>
<path d="M330.888 427.739C330.264 427.014 329.628 424.997 330.084 424.2C330.163 424.054 330.29 423.94 330.443 423.878C330.597 423.817 330.767 423.811 330.924 423.862C331.07 423.886 331.207 423.945 331.326 424.033C331.445 424.121 331.542 424.236 331.608 424.369C332.148 425.384 331.248 427.582 331.212 427.679C331.199 427.709 331.18 427.736 331.154 427.757C331.129 427.778 331.1 427.792 331.068 427.8H330.972L330.888 427.739ZM330.888 424.236C330.612 424.176 330.504 424.236 330.456 424.393C330.279 425.37 330.481 426.377 331.02 427.208C331.398 426.376 331.499 425.444 331.308 424.55C331.274 424.482 331.227 424.421 331.169 424.371C331.112 424.321 331.044 424.284 330.972 424.261L330.888 424.236Z" fill="#5596DC"/>
<path d="M373.608 426.507C373.527 426.338 373.493 426.15 373.51 425.962C373.527 425.775 373.594 425.596 373.704 425.444C373.758 425.332 373.841 425.237 373.945 425.169C374.048 425.101 374.168 425.063 374.292 425.058C375.372 424.997 377.088 427.232 377.28 427.473C377.3 427.506 377.311 427.544 377.311 427.582C377.311 427.621 377.3 427.658 377.28 427.691C377.26 427.721 377.233 427.745 377.202 427.762C377.17 427.779 377.135 427.788 377.1 427.788C376.364 427.732 375.636 427.599 374.928 427.389C374.395 427.267 373.926 426.954 373.608 426.507ZM374.316 425.444C374.254 425.444 374.194 425.463 374.143 425.497C374.091 425.531 374.051 425.58 374.028 425.638C373.955 425.735 373.91 425.85 373.895 425.971C373.88 426.091 373.897 426.214 373.944 426.326C374.196 426.809 375.204 427.196 376.692 427.365C375.972 426.495 374.892 425.408 374.316 425.444Z" fill="#5596DC"/>
<path d="M376.98 427.739C376.356 427.014 375.78 424.997 376.176 424.2C376.254 424.054 376.382 423.94 376.535 423.878C376.688 423.817 376.858 423.811 377.016 423.862C377.161 423.886 377.299 423.945 377.418 424.033C377.537 424.121 377.633 424.236 377.7 424.369C378.24 425.384 377.34 427.582 377.304 427.679C377.291 427.709 377.271 427.736 377.246 427.757C377.221 427.778 377.191 427.792 377.16 427.8H377.064L376.98 427.739ZM376.98 424.236C376.704 424.176 376.596 424.236 376.548 424.393C376.371 425.37 376.573 426.377 377.112 427.208C377.49 426.376 377.591 425.444 377.4 424.55C377.367 424.481 377.32 424.419 377.262 424.369C377.205 424.319 377.137 424.282 377.064 424.261L376.98 424.236Z" fill="#5596DC"/>
<path opacity="0.3" d="M358.02 284.463C354.924 292.845 352.56 304.815 350.736 318.404C346.332 300.286 356.88 266.623 356.88 266.623L358.02 284.463Z" fill="black"/>
<path d="M418.86 220.301C422.556 221.666 423.66 227.875 421.38 234.18C419.1 240.485 414.18 244.459 410.58 243.094C406.98 241.729 405.78 235.508 408.06 229.215C410.34 222.922 415.2 218.924 418.86 220.301Z" fill="#263238"/>
<path d="M408.396 210.832C408.046 209.993 407.389 209.322 406.56 208.96C402.96 207.619 397.152 214.298 393.648 223.877C390.144 233.455 390.252 242.309 393.876 243.649C394.729 243.921 395.655 243.847 396.456 243.444C396.748 243.764 397.109 244.012 397.512 244.169C397.932 244.302 398.374 244.35 398.812 244.31C399.251 244.271 399.678 244.145 400.068 243.939C400.365 244.269 400.735 244.526 401.148 244.688C401.569 244.815 402.011 244.855 402.447 244.808C402.884 244.76 403.307 244.625 403.692 244.41C403.978 244.762 404.35 245.032 404.772 245.195C405.195 245.327 405.641 245.368 406.081 245.316C406.522 245.264 406.946 245.12 407.328 244.893C407.607 245.26 407.981 245.544 408.408 245.715C411.42 246.838 416.232 241.282 419.208 233.322C422.184 225.362 422.028 217.994 419.016 216.871C418.58 216.716 418.109 216.691 417.66 216.799C417.515 216.379 417.286 215.994 416.986 215.668C416.687 215.341 416.324 215.081 415.92 214.902C415.492 214.751 415.033 214.713 414.588 214.794C414.428 214.381 414.187 214.004 413.88 213.687C413.573 213.37 413.205 213.117 412.8 212.946C412.382 212.792 411.932 212.746 411.492 212.813C411.329 212.402 411.087 212.027 410.78 211.71C410.473 211.393 410.108 211.139 409.704 210.965C409.284 210.817 408.836 210.772 408.396 210.832Z" fill="#263238"/>
<path opacity="0.2" d="M408.396 210.832C408.046 209.993 407.389 209.322 406.56 208.96C402.96 207.619 397.152 214.298 393.648 223.877C390.144 233.455 390.252 242.309 393.876 243.649C394.729 243.921 395.655 243.847 396.456 243.444C396.748 243.764 397.109 244.012 397.512 244.169C397.932 244.302 398.374 244.35 398.812 244.31C399.251 244.271 399.678 244.145 400.068 243.939C400.365 244.269 400.735 244.526 401.148 244.688C401.569 244.815 402.011 244.855 402.447 244.808C402.884 244.76 403.307 244.625 403.692 244.41C403.978 244.762 404.35 245.032 404.772 245.195C405.195 245.327 405.641 245.368 406.081 245.316C406.522 245.264 406.946 245.12 407.328 244.893C407.607 245.26 407.981 245.544 408.408 245.715C411.42 246.838 416.232 241.282 419.208 233.322C422.184 225.362 422.028 217.994 419.016 216.871C418.58 216.716 418.109 216.691 417.66 216.799C417.515 216.379 417.286 215.994 416.986 215.668C416.687 215.341 416.324 215.081 415.92 214.902C415.492 214.751 415.033 214.713 414.588 214.794C414.428 214.381 414.187 214.004 413.88 213.687C413.573 213.37 413.205 213.117 412.8 212.946C412.382 212.792 411.932 212.746 411.492 212.813C411.329 212.402 411.087 212.027 410.78 211.71C410.473 211.393 410.108 211.139 409.704 210.965C409.284 210.817 408.836 210.772 408.396 210.832Z" fill="white"/>
<path d="M381.456 184.525C376.314 182.617 370.777 182.05 365.358 182.875C359.94 183.7 354.817 185.89 350.466 189.243C346.115 192.596 342.677 197.001 340.471 202.051C338.265 207.1 337.364 212.628 337.851 218.122C338.338 223.616 340.197 228.897 343.256 233.473C346.315 238.05 350.474 241.773 355.346 244.298C360.218 246.822 365.645 248.065 371.123 247.912C376.6 247.758 381.951 246.213 386.676 243.42C387.426 242.966 388.276 242.704 389.151 242.658C390.025 242.612 390.898 242.782 391.692 243.154C391.768 243.198 391.848 243.234 391.932 243.263C395.616 244.628 401.532 237.852 405.048 228.116C408.564 218.381 408.504 209.394 404.82 208.03L404.568 207.957C403.717 207.717 402.938 207.272 402.298 206.659C401.658 206.046 401.176 205.285 400.896 204.442C399.322 199.881 396.762 195.728 393.4 192.283C390.039 188.839 385.959 186.189 381.456 184.525Z" fill="#FEECA5"/>
<path opacity="0.7" d="M381.456 184.525C376.314 182.617 370.777 182.05 365.358 182.875C359.94 183.7 354.817 185.89 350.466 189.243C346.115 192.596 342.677 197.001 340.471 202.051C338.265 207.1 337.364 212.628 337.851 218.122C338.338 223.616 340.197 228.897 343.256 233.473C346.315 238.05 350.474 241.773 355.346 244.298C360.218 246.822 365.645 248.065 371.123 247.912C376.6 247.758 381.951 246.213 386.676 243.42C387.426 242.966 388.276 242.704 389.151 242.658C390.025 242.612 390.898 242.782 391.692 243.154C391.768 243.198 391.848 243.234 391.932 243.263C395.616 244.628 401.532 237.852 405.048 228.116C408.564 218.381 408.504 209.394 404.82 208.03L404.568 207.957C403.717 207.717 402.938 207.272 402.298 206.659C401.658 206.046 401.176 205.285 400.896 204.442C399.322 199.881 396.762 195.728 393.4 192.283C390.039 188.839 385.959 186.189 381.456 184.525Z" fill="white"/>
<path d="M374.64 234.566C374.591 234.567 374.542 234.557 374.497 234.538C374.452 234.52 374.41 234.492 374.376 234.458C374.316 234.407 374.273 234.34 374.254 234.264C374.235 234.188 374.239 234.108 374.268 234.035L376.296 228.503L372.84 225.23C372.787 225.179 372.749 225.116 372.73 225.045C372.711 224.975 372.712 224.901 372.732 224.831C372.755 224.759 372.798 224.695 372.855 224.646C372.912 224.597 372.981 224.565 373.056 224.553L380.712 223.43L375.6 217.584C375.553 217.527 375.523 217.459 375.512 217.387C375.502 217.314 375.511 217.241 375.54 217.173C375.566 217.107 375.61 217.049 375.668 217.006C375.725 216.963 375.793 216.938 375.864 216.932L384.36 216.122L378.36 209.962C378.306 209.91 378.27 209.843 378.255 209.77C378.24 209.697 378.247 209.621 378.276 209.552C378.304 209.481 378.352 209.42 378.414 209.375C378.475 209.33 378.548 209.303 378.624 209.298L383.352 209.068L385.38 203.536C385.406 203.454 385.46 203.383 385.532 203.334C385.604 203.286 385.69 203.264 385.776 203.271C385.861 203.28 385.941 203.316 386.004 203.375C386.066 203.434 386.108 203.512 386.124 203.597C387.744 212.74 401.64 220.374 401.784 220.446C401.874 220.496 401.942 220.58 401.971 220.68C402 220.779 401.989 220.887 401.94 220.978C401.89 221.069 401.807 221.137 401.708 221.166C401.609 221.196 401.502 221.185 401.412 221.135C400.86 220.833 388.272 213.888 385.656 205.022L384 209.576C383.974 209.649 383.927 209.714 383.865 209.761C383.803 209.808 383.729 209.836 383.652 209.841L379.524 210.047L385.44 216.171C385.49 216.222 385.525 216.287 385.54 216.357C385.555 216.428 385.549 216.502 385.524 216.569C385.498 216.639 385.455 216.7 385.398 216.747C385.341 216.794 385.272 216.824 385.2 216.835L376.644 217.632L381.72 223.454C381.768 223.506 381.801 223.572 381.814 223.643C381.827 223.713 381.819 223.786 381.792 223.853C381.768 223.917 381.728 223.975 381.675 224.019C381.622 224.064 381.559 224.094 381.492 224.106L373.92 225.217L376.968 228.104C377.022 228.158 377.061 228.226 377.078 228.301C377.095 228.376 377.09 228.455 377.064 228.527L375.276 233.431C378.192 232.223 388.044 228.599 397.476 232.078C397.57 232.118 397.646 232.193 397.688 232.287C397.73 232.381 397.736 232.487 397.704 232.585C397.686 232.634 397.659 232.679 397.624 232.718C397.589 232.756 397.547 232.787 397.5 232.808C397.453 232.829 397.402 232.841 397.351 232.842C397.299 232.843 397.248 232.834 397.2 232.815C386.4 228.793 374.88 234.458 374.76 234.518C374.722 234.54 374.682 234.556 374.64 234.566Z" fill="#263238"/>
<path d="M389.64 156.08C391.032 157.13 392.148 158.036 393.336 159.075C394.524 160.114 395.652 161.116 396.768 162.167C399.024 164.3 401.159 166.558 403.164 168.931C405.234 171.362 407.119 173.946 408.804 176.662C410.611 179.524 412.054 182.604 413.1 185.829C413.34 186.687 413.604 187.532 413.784 188.438C414.021 189.461 414.161 190.505 414.204 191.554C414.258 193.377 414.109 195.2 413.76 196.99C413.175 200.097 412.34 203.151 411.264 206.121C409.245 211.789 406.748 217.273 403.8 222.512L398.124 220.096C399.54 214.6 400.968 208.972 402.048 203.536C402.589 200.941 402.974 198.315 403.2 195.673C403.286 194.587 403.266 193.494 403.14 192.412C403.084 191.999 402.984 191.594 402.84 191.204C402.687 190.672 402.506 190.148 402.3 189.634C400.224 185.025 397.383 180.806 393.9 177.157C392.124 175.164 390.192 173.267 388.224 171.395C387.24 170.453 386.232 169.547 385.212 168.653C384.192 167.76 383.1 166.842 382.2 166.117L389.64 156.08Z" fill="#CE7A63"/>
<path d="M379.428 169.583C382.875 174.582 386.609 179.373 390.612 183.933C391.488 184.959 392.292 185.877 392.94 186.614C394.14 187.907 394.8 188.68 394.8 188.68L408.48 175.393C408.48 175.393 408.096 174.765 407.424 173.726C406.92 172.941 406.224 171.902 405.468 170.731C400.8 163.786 391.656 151.574 386.088 152.19C377.772 153.205 373.608 160.79 379.428 169.583Z" fill="#5596DC"/>
<path d="M403.872 222.246L399.684 230.375L394.224 220.362C394.224 220.362 399.216 213.851 402.348 216.738L403.872 222.246Z" fill="#CE7A63"/>
<path d="M391.488 232.525L387.372 224.046L394.224 220.362L399.684 230.363L391.488 232.525Z" fill="#CE7A63"/>
<path d="M248.112 273.29L301.788 281.322L302.22 325.047L288.84 337.681L230.928 326.883L233.52 280.259L248.112 273.29Z" fill="#5596DC"/>
<path opacity="0.4" d="M302.22 325.047L297.012 329.975L295.848 331.062L288.84 337.681L230.916 326.883L233.52 280.259L239.748 277.288L241.668 276.37L248.112 273.29L301.788 281.322L302.22 325.047Z" fill="black"/>
<path opacity="0.2" d="M233.52 280.26L286.428 288.847L301.788 281.322L248.112 273.29L233.52 280.26Z" fill="white"/>
<path opacity="0.1" d="M286.428 288.847L288.84 337.681L302.22 325.047L301.788 281.322L286.428 288.847Z" fill="white"/>
<path d="M297.012 329.975L295.848 331.062L293.772 285.369L239.748 277.288L241.668 276.37L294.96 284.765L297.012 329.975Z" fill="#263238"/>
<path d="M258.144 279.148L261.492 277.602L275.076 279.45L271.992 281.322L258.144 279.148Z" fill="#263238"/>
<path d="M252.888 278.496C252.888 278.496 256.656 264.763 257.328 264.002C258 263.241 276.972 266.152 278.4 266.333C279.828 266.514 281.544 281.624 281.544 281.624L280.008 282.832L276.408 282.18C276.408 282.18 275.76 269.389 275.4 268.978C275.04 268.567 260.388 266.405 259.908 266.562C259.428 266.719 257.592 277.554 257.592 277.554L255.876 278.87L252.888 278.496Z" fill="#263238"/>
<path d="M250.428 177.857C257.316 182.447 257.952 213.03 258.576 221.63C259.2 230.23 264.576 254.121 264.576 254.121L258.876 256.199C258.876 256.199 252.588 233.37 250.404 220.362C249.6 215.337 250.428 177.857 250.428 177.857Z" fill="#263238"/>
<path opacity="0.2" d="M264.588 254.133L258.9 256.199C258.9 256.199 252.612 233.382 250.428 220.362C250.354 219.869 250.306 219.374 250.284 218.876C250.032 215.253 250.02 207.184 250.092 199.176C250.188 188.486 250.428 177.857 250.428 177.857C254.436 180.527 256.332 192.001 257.328 202.812C257.7 206.846 257.952 210.796 258.144 214.153C258.324 217.282 258.456 219.903 258.576 221.63C259.2 230.242 264.588 254.133 264.588 254.133Z" fill="white"/>
<path opacity="0.2" d="M258.144 214.153C255.67 215.962 253.039 217.542 250.284 218.876C250.032 215.253 250.02 207.184 250.092 199.176L251.964 203.476L257.328 202.812C257.7 206.846 258 210.796 258.144 214.153Z" fill="black"/>
<path d="M268.512 206.097L276.792 201.507L278.364 210.506C278.364 210.506 269.964 213.561 268.464 211.146L268.512 206.097Z" fill="#FFB573"/>
<path d="M284.76 204.37L284.232 210.916L278.364 210.506L276.792 201.507L284.76 204.37Z" fill="#FFB573"/>
<path d="M212.4 133.952C212.4 133.952 214.956 125.436 228.312 126.62C241.668 127.804 245.112 139.906 241.512 149.497C239.331 155.093 239.448 161.332 241.836 166.842C241.097 166.502 240.443 166.001 239.921 165.374C239.4 164.747 239.025 164.01 238.824 163.218C238.629 164.871 238.903 166.547 239.616 168.049C239.616 168.049 222.072 171.552 213.216 168.931C214.583 166.924 215.183 164.488 214.908 162.071C214.908 162.071 214.464 166.02 212.88 167.349C212.88 167.349 214.548 162.711 213.672 159.449C212.796 156.188 207.504 155.826 206.556 147.19C205.608 138.553 208.8 133.07 212.4 133.952Z" fill="#263238"/>
<path d="M249.168 232.38C249.168 232.38 255.42 281.298 254.88 312.364C257.04 341.486 258.852 402.64 262.152 409.247C262.032 410.732 257.808 411.397 256.416 410.455C256.416 410.455 233.844 359.616 236.76 312.316C216.876 262.975 218.064 232.332 218.064 232.332L249.168 232.38Z" fill="#FFB573"/>
<path d="M240.708 232.38C240.708 232.38 226.5 287.591 220.872 314.708C214.956 343.177 208.872 377.516 208.812 409.947C207.228 410.889 206.688 412.556 203.484 411.566C203.484 411.566 188.424 346.438 201.18 315.964C195.576 248.517 213.3 232.38 213.3 232.38H240.708Z" fill="#FFB573"/>
<path d="M198.744 305.117C199.687 306.164 200.804 307.039 202.044 307.702C202.212 301.445 204 298.534 204 298.534C203.697 302.099 204.022 305.689 204.96 309.139C214.44 313.174 232.716 315.843 255.564 310.202C255.564 283.219 250.26 237.803 249.9 233.37C249.9 233.37 222.792 234.095 211.788 234.095C199.74 248.553 196.512 294.947 198.744 305.117Z" fill="#263238"/>
<path d="M203.484 411.566C203.484 411.566 200.112 412.484 199.74 417.509C199.368 422.533 200.784 436.351 200.784 436.351H202.044C202.044 436.351 201.684 423.826 202.176 421.567C202.572 428.114 207.228 436.351 213.384 436.351C215.58 436.351 210.816 426.35 210.036 420.263C209.256 414.175 209.028 412.049 209.028 412.049L203.484 411.566Z" fill="#263238"/>
<path d="M208.896 407.616L203.484 411.566C203.772 418.342 206.16 427.014 209.316 429.829C209.523 429.984 209.773 430.073 210.032 430.084C210.29 430.094 210.546 430.026 210.765 429.887C210.984 429.749 211.157 429.547 211.26 429.308C211.364 429.069 211.393 428.804 211.344 428.548C209.817 421.674 208.996 414.66 208.896 407.616Z" fill="#FFB573"/>
<path d="M257.484 411.566C257.484 411.566 254.112 412.484 253.752 417.509C253.392 422.533 254.796 436.351 254.796 436.351H255.996C255.996 436.351 255.624 423.826 256.128 421.567C256.512 428.114 261.168 436.351 267.336 436.351C269.52 436.351 264.756 426.35 263.988 420.263C263.673 417.335 263.176 414.431 262.5 411.566H257.484Z" fill="#263238"/>
<path d="M261.456 407.049C260.868 405.466 256.128 410.104 256.128 410.104C256.416 416.893 260.16 427.014 263.328 429.877C263.536 430.033 263.785 430.122 264.044 430.132C264.302 430.142 264.558 430.074 264.777 429.936C264.997 429.797 265.169 429.595 265.272 429.356C265.376 429.117 265.405 428.853 265.356 428.597C262.92 418.559 263.172 411.566 261.456 407.049Z" fill="#FFB573"/>
<path opacity="0.2" d="M198.744 305.117C199.687 306.164 200.804 307.039 202.044 307.702C202.212 301.445 204 298.534 204 298.534C203.697 302.099 204.022 305.689 204.96 309.139C214.44 313.174 232.716 315.843 255.564 310.202C255.564 283.219 250.26 237.803 249.9 233.37C249.9 233.37 222.792 234.095 211.788 234.095C199.74 248.553 196.512 294.947 198.744 305.117Z" fill="white"/>
<path d="M210.708 202.679H252.312C252.63 197.652 252.694 192.613 252.504 187.58C252.3 181.396 247.128 175.997 240.588 175.14C238.776 174.898 236.88 174.681 235.044 174.524C229.45 174.145 223.838 174.145 218.244 174.524C216.648 174.596 215.088 174.717 213.624 174.85C208.116 175.381 204.324 180.454 206.22 185.503C208.318 191.051 209.823 196.809 210.708 202.679Z" fill="#5596DC"/>
<path opacity="0.7" d="M210.708 202.679H252.312C252.63 197.652 252.694 192.613 252.504 187.58C252.3 181.396 247.128 175.997 240.588 175.14C238.776 174.898 236.88 174.681 235.044 174.524C229.45 174.145 223.838 174.145 218.244 174.524C216.648 174.596 215.088 174.717 213.624 174.85C208.116 175.381 204.324 180.454 206.22 185.503C208.318 191.051 209.823 196.809 210.708 202.679Z" fill="white"/>
<path d="M218.052 173.847L235.824 195.673C235.824 195.673 239.28 184.428 237.456 174.765C237.456 174.765 245.28 174.681 250.428 177.857C250.428 177.857 257.94 190.262 250.428 225.302L252.612 242.019L240 245.848L235.86 233.709L230.856 246.476L206.628 239.615L213.432 226.727C213.432 226.727 211.224 197.111 204.576 183.57C204.624 183.595 205.68 173.714 218.052 173.847Z" fill="#263238"/>
<path d="M245.76 191.748L236.844 197.787L238.416 203.476C232.164 193.608 220.092 191.748 220.092 191.748L223.872 186.59H214.524C214.32 180.031 218.952 173.134 218.952 173.134L220.596 172.845C221.64 175.031 226.836 183.619 235.704 194.405C235.704 194.405 239.304 179.826 233.904 173.714C236.666 174.626 239.213 176.097 241.388 178.038C243.563 179.978 245.321 182.346 246.552 184.996L240.876 186.759L245.76 191.748Z" fill="#263238"/>
<path opacity="0.2" d="M245.76 191.748L236.844 197.787L238.416 203.476C232.164 193.608 220.092 191.748 220.092 191.748L223.872 186.59H214.524C214.32 180.031 218.952 173.134 218.952 173.134L220.596 172.845C221.64 175.031 226.836 183.619 235.704 194.405C235.704 194.405 239.304 179.826 233.904 173.714C236.666 174.626 239.213 176.097 241.388 178.038C243.563 179.978 245.321 182.346 246.552 184.996L240.876 186.759L245.76 191.748Z" fill="white"/>
<path d="M219.384 155.451C220.848 160.911 222.648 170.9 219.12 174.536C219.12 174.536 216.6 179.367 230.904 178.896C232.104 181.891 234.564 187.351 234.564 187.351C234.564 187.351 234.744 180.889 233.748 178.703C242.952 177.906 235.968 174.499 235.968 174.499C229.824 173.05 229.644 168.533 230.376 164.305L219.384 155.451Z" fill="#FFB573"/>
<path opacity="0.2" d="M223.86 159.075L230.376 164.329C230.188 165.321 230.087 166.327 230.076 167.337C227.748 167.011 224.388 164.45 223.956 162.022C223.75 161.053 223.718 160.055 223.86 159.075Z" fill="black"/>
<path d="M214.8 144.496C216.444 153.313 216.96 157.058 222 161.285C229.512 167.639 239.832 164.281 240.816 155.246C241.704 147.165 238.86 134.121 229.848 131.21C227.925 130.504 225.849 130.332 223.838 130.712C221.826 131.091 219.953 132.008 218.414 133.367C216.876 134.725 215.728 136.475 215.093 138.433C214.457 140.391 214.356 142.485 214.8 144.496Z" fill="#FFB573"/>
<path d="M222.276 138.143C217.476 144.412 227.364 151.623 217.476 151.2C207.588 150.777 211.584 136.705 217.476 133.48C223.368 130.255 222.276 138.143 222.276 138.143Z" fill="#263238"/>
<path d="M217.476 133.589C218.676 139.628 219.684 141.162 224.988 139.532C224.196 138.324 223.845 136.877 223.992 135.437C224.528 136.882 225.593 138.067 226.968 138.747C228.389 138.127 229.874 137.669 231.396 137.382C231.111 136.548 231.021 135.66 231.132 134.785C231.559 135.765 232.254 136.603 233.136 137.201C234.771 137.218 236.392 137.503 237.936 138.046C237.9 131.753 227.244 124.929 217.476 133.589Z" fill="#263238"/>
<path d="M235.2 146.839C236.089 148.496 237.186 150.03 238.464 151.405C238.126 151.705 237.725 151.925 237.29 152.046C236.856 152.167 236.399 152.188 235.956 152.106L235.2 146.839Z" fill="#ED893E"/>
<path d="M213.9 152.999C214.262 153.774 214.779 154.465 215.42 155.028C216.06 155.592 216.809 156.015 217.62 156.273C219.66 156.816 220.548 154.473 219.864 152.118C219.252 150.004 217.464 147.178 215.472 147.697C213.48 148.216 212.88 150.982 213.9 152.999Z" fill="#FFB573"/>
<path d="M266.808 269.075L268.284 266.719C268.557 266.282 268.722 265.785 268.766 265.271C268.809 264.756 268.731 264.238 268.536 263.76L266.688 259.231C266.328 258.332 265.759 257.533 265.028 256.903C264.297 256.272 263.426 255.828 262.488 255.607L261.288 255.341C258.576 259.086 258.396 265.137 258.396 265.137L258.156 266.852C258.096 267.204 258.105 267.564 258.184 267.911C258.262 268.259 258.408 268.588 258.614 268.879C258.819 269.169 259.079 269.416 259.38 269.606C259.68 269.795 260.014 269.922 260.364 269.981L263.748 270.5C264.34 270.587 264.945 270.499 265.489 270.246C266.032 269.993 266.49 269.586 266.808 269.075Z" fill="#FFB573"/>
<path d="M249.696 235.049C237.012 236.427 224.215 236.402 211.536 234.977C211.404 234.959 211.278 234.91 211.168 234.834C211.059 234.759 210.968 234.658 210.904 234.54C210.84 234.423 210.804 234.292 210.799 234.158C210.794 234.024 210.821 233.891 210.876 233.769C211.188 233.057 211.488 232.332 211.8 231.619C211.864 231.458 211.978 231.321 212.125 231.23C212.272 231.138 212.444 231.097 212.616 231.112C224.813 232.441 237.116 232.441 249.312 231.112C249.53 231.095 249.745 231.166 249.912 231.308C250.078 231.451 250.182 231.654 250.2 231.873C250.272 232.61 250.344 233.358 250.428 234.107C250.442 234.218 250.433 234.329 250.404 234.436C250.374 234.543 250.324 234.644 250.256 234.731C250.188 234.819 250.104 234.892 250.008 234.946C249.911 235.001 249.806 235.036 249.696 235.049Z" fill="#263238"/>
<path d="M231.6 172.337C231.6 172.337 234.312 175.26 233.748 178.739L240 180.068C239.68 178.01 238.674 176.124 237.147 174.719C235.621 173.314 233.664 172.474 231.6 172.337Z" fill="#5596DC"/>
<path d="M230.904 178.896C230.904 178.896 222.504 174.065 220.68 171.419L216.96 174.234C216.96 174.234 215.76 178.63 220.836 182.568L230.904 178.896Z" fill="#5596DC"/>
<path opacity="0.6" d="M231.6 172.337C231.6 172.337 234.312 175.26 233.748 178.739L240 180.068C239.68 178.01 238.674 176.124 237.147 174.719C235.621 173.314 233.664 172.474 231.6 172.337Z" fill="white"/>
<path opacity="0.6" d="M230.904 178.896C230.904 178.896 222.504 174.065 220.68 171.419L216.96 174.234C216.96 174.234 215.76 178.63 220.836 182.568L230.904 178.896Z" fill="white"/>
<path d="M269.052 213.103C263.312 214.448 257.498 215.448 251.64 216.098C248.544 216.448 245.424 216.666 242.232 216.738C238.89 216.851 235.545 216.625 232.248 216.062C230.23 215.715 228.28 215.042 226.476 214.069L225.696 213.574L225.18 213.223L224.148 212.523C223.452 212.052 222.756 211.581 222.108 211.061C219.459 209.051 216.99 206.812 214.728 204.37C212.48 201.929 210.415 199.325 208.548 196.579C207.636 195.19 206.76 193.777 205.956 192.303C205.536 191.579 205.164 190.818 204.756 190.069L204.216 188.861C204.024 188.438 203.868 188.1 203.652 187.52C202.452 184.633 203.352 179.862 206.22 178.703C209.088 177.543 212.616 180.321 213.888 182.966L214.056 183.317L214.404 184.078L214.86 184.959C215.16 185.551 215.472 186.167 215.808 186.747C216.456 187.955 217.2 189.163 217.944 190.286C219.424 192.627 221.072 194.855 222.876 196.953C224.66 199.064 226.598 201.038 228.672 202.86C229.164 203.331 229.692 203.754 230.232 204.189L231.6 205.336C232.452 205.841 233.374 206.215 234.336 206.447C236.993 207.082 239.699 207.487 242.424 207.655C245.28 207.86 248.232 207.909 251.172 207.945C256.92 207.945 268.644 206.23 268.644 206.23L269.052 213.103Z" fill="#263238"/>
<path opacity="0.2" d="M269.052 213.103C263.312 214.448 257.498 215.448 251.64 216.098C248.544 216.448 245.424 216.666 242.232 216.738C238.89 216.851 235.545 216.625 232.248 216.062C230.23 215.715 228.28 215.042 226.476 214.069L225.696 213.574L225.18 213.223L224.148 212.523C223.452 212.052 222.756 211.581 222.108 211.061C219.459 209.051 216.99 206.812 214.728 204.37C212.48 201.929 210.415 199.325 208.548 196.579C207.636 195.19 206.76 193.777 205.956 192.303C205.536 191.579 205.164 190.818 204.756 190.069L204.216 188.861C204.024 188.438 203.868 188.1 203.652 187.52C202.452 184.633 203.352 179.862 206.22 178.703C209.088 177.543 212.616 180.321 213.888 182.966L214.056 183.317L214.404 184.078L214.86 184.959C215.16 185.551 215.472 186.167 215.808 186.747C216.456 187.955 217.2 189.163 217.944 190.286C219.424 192.627 221.072 194.855 222.876 196.953C224.66 199.064 226.598 201.038 228.672 202.86C229.164 203.331 229.692 203.754 230.232 204.189L231.6 205.336C232.452 205.841 233.374 206.215 234.336 206.447C236.993 207.082 239.699 207.487 242.424 207.655C245.28 207.86 248.232 207.909 251.172 207.945C256.92 207.945 268.644 206.23 268.644 206.23L269.052 213.103Z" fill="white"/>
<path d="M265.428 205.288L266.088 214.081L269.712 213.392L269.172 205.167L265.428 205.288Z" fill="#5596DC"/>
<path opacity="0.7" d="M265.428 205.288L266.088 214.081L269.712 213.392L269.172 205.167L265.428 205.288Z" fill="white"/>
<path d="M265.884 253.493L257.328 255.39L258.516 258.905L266.532 257.202L265.884 253.493Z" fill="#5596DC"/>
<path opacity="0.7" d="M265.884 253.493L257.328 255.39L258.516 258.905L266.532 257.202L265.884 253.493Z" fill="white"/>
<path d="M71.1198 246.895C75.4799 246.895 79.0145 243.36 79.0145 239C79.0145 234.64 75.4799 231.105 71.1198 231.105C66.7597 231.105 63.2251 234.64 63.2251 239C63.2251 243.36 66.7597 246.895 71.1198 246.895Z" fill="#1A2128"/>
<path d="M75.9577 234.162C74.6642 232.869 72.9481 232.158 71.1199 232.158C67.3483 232.158 64.2778 235.228 64.2778 239C64.2778 242.772 67.3483 245.842 71.1199 245.842C72.9481 245.842 74.6642 245.131 75.9577 243.838C77.2512 242.544 77.962 240.828 77.962 239C77.962 237.172 77.2512 235.456 75.9577 234.162ZM71.1199 245.49C67.5404 245.49 64.63 242.579 64.63 239C64.63 235.42 67.5404 232.51 71.1199 232.51C74.6994 232.51 77.6098 235.42 77.6098 239C77.6098 242.579 74.6994 245.49 71.1199 245.49Z" fill="#303C4A"/>
<path d="M71.8145 238.28C70.7547 237.796 69.839 237.38 69.9062 236.368C69.9351 235.971 70.22 235.734 70.4537 235.606C70.7451 235.446 71.1357 235.363 71.4751 235.385C72.378 235.446 73.0888 235.827 73.7803 236.618L74.0461 236.387C73.2969 235.529 72.4868 235.1 71.4975 235.033C71.4207 235.027 71.3438 235.027 71.2638 235.03C71.2478 235.03 71.2318 235.03 71.2189 235.03C70.569 235.03 69.8614 235.241 69.3171 235.6C68.6768 236.022 68.3182 236.602 68.3086 237.233C68.283 238.776 69.5605 239.301 70.6875 239.765C71.7248 240.194 72.6245 240.562 72.6053 241.577C72.5957 242.263 71.6544 242.631 70.9916 242.631C70.982 242.631 70.9756 242.631 70.966 242.631V242.634H70.9628C69.9831 242.621 69.1122 242.211 68.3726 241.417L68.1133 241.657C68.9105 242.515 69.8934 242.977 70.9596 242.989C70.9756 242.989 70.9916 242.989 71.0076 242.989C71.696 242.989 72.4388 242.807 73.0087 242.493C73.7067 242.112 74.1133 241.558 74.1549 240.937C74.2606 239.394 72.9607 238.801 71.8145 238.28ZM73.8027 240.908C73.7611 241.545 73.2552 241.952 72.839 242.179C72.8006 242.202 72.7622 242.221 72.7238 242.24C72.8678 242.054 72.9543 241.833 72.9607 241.581C72.9799 240.325 71.8849 239.874 70.8251 239.439C69.7045 238.978 68.6448 238.539 68.664 237.236C68.6704 236.727 68.9745 236.25 69.5156 235.891C69.5957 235.837 69.6821 235.789 69.7718 235.741C69.6469 235.92 69.5733 236.122 69.5605 236.339C69.474 237.594 70.5914 238.103 71.6736 238.593C72.8134 239.118 73.8924 239.611 73.8027 240.908Z" fill="#B2BFCD"/>
<path d="M163.698 335.526C170.892 335.526 176.724 329.694 176.724 322.5C176.724 315.306 170.892 309.474 163.698 309.474C156.503 309.474 150.671 315.306 150.671 322.5C150.671 329.694 156.503 335.526 163.698 335.526Z" fill="#1A2128"/>
<path d="M171.68 314.518C169.546 312.383 166.714 311.21 163.698 311.21C157.474 311.21 152.408 316.277 152.408 322.5C152.408 328.723 157.474 333.789 163.698 333.789C166.714 333.789 169.546 332.617 171.68 330.482C173.814 328.348 174.987 325.516 174.987 322.5C174.987 319.483 173.814 316.652 171.68 314.518ZM163.698 333.208C157.791 333.208 152.989 328.406 152.989 322.5C152.989 316.594 157.791 311.792 163.698 311.792C169.604 311.792 174.406 316.594 174.406 322.5C174.406 328.406 169.604 333.208 163.698 333.208Z" fill="#B2BFCD"/>
<path d="M164.844 321.311C163.095 320.514 161.584 319.827 161.695 318.158C161.743 317.502 162.213 317.112 162.599 316.9C163.079 316.636 163.724 316.499 164.284 316.536C165.774 316.636 166.946 317.265 168.087 318.57L168.526 318.189C167.29 316.773 165.953 316.065 164.321 315.955C164.194 315.944 164.067 315.944 163.935 315.949C163.909 315.949 163.882 315.949 163.861 315.949C162.789 315.949 161.621 316.298 160.723 316.89C159.667 317.587 159.075 318.543 159.059 319.584C159.017 322.13 161.125 322.997 162.984 323.763C164.696 324.471 166.18 325.078 166.149 326.753C166.133 327.883 164.58 328.491 163.486 328.491C163.47 328.491 163.46 328.491 163.444 328.491V328.496H163.439C161.822 328.475 160.385 327.799 159.165 326.489L158.737 326.885C160.052 328.301 161.674 329.061 163.433 329.082C163.46 329.082 163.486 329.082 163.513 329.082C164.648 329.082 165.874 328.781 166.814 328.264C167.966 327.635 168.637 326.721 168.706 325.696C168.88 323.15 166.735 322.172 164.844 321.311ZM168.124 325.649C168.056 326.7 167.221 327.371 166.534 327.746C166.471 327.783 166.407 327.815 166.344 327.846C166.582 327.54 166.724 327.175 166.735 326.758C166.767 324.687 164.96 323.942 163.211 323.224C161.362 322.463 159.614 321.739 159.645 319.589C159.656 318.749 160.158 317.962 161.051 317.37C161.183 317.281 161.325 317.201 161.473 317.122C161.267 317.418 161.146 317.751 161.125 318.11C160.982 320.181 162.826 321.021 164.611 321.829C166.492 322.695 168.272 323.509 168.124 325.649Z" fill="#B2BFCD"/>
<path d="M283.614 119C287.756 119 291.114 115.642 291.114 111.5C291.114 107.358 287.756 104 283.614 104C279.472 104 276.114 107.358 276.114 111.5C276.114 115.642 279.472 119 283.614 119Z" fill="#1A2128"/>
<path d="M288.21 106.904C286.981 105.675 285.351 105 283.614 105C280.031 105 277.114 107.917 277.114 111.5C277.114 115.083 280.031 118 283.614 118C285.351 118 286.981 117.325 288.21 116.096C289.438 114.867 290.114 113.237 290.114 111.5C290.114 109.763 289.438 108.133 288.21 106.904ZM283.614 117.665C280.213 117.665 277.448 114.901 277.448 111.5C277.448 108.099 280.213 105.335 283.614 105.335C287.014 105.335 289.779 108.099 289.779 111.5C289.779 114.901 287.014 117.665 283.614 117.665Z" fill="#303C4A"/>
<path d="M284.274 110.816C283.267 110.356 282.397 109.961 282.461 109C282.488 108.623 282.759 108.398 282.981 108.276C283.258 108.124 283.629 108.045 283.951 108.066C284.809 108.124 285.484 108.486 286.141 109.237L286.394 109.018C285.682 108.203 284.912 107.795 283.973 107.731C283.9 107.725 283.827 107.725 283.751 107.728C283.735 107.728 283.72 107.728 283.708 107.728C283.091 107.728 282.418 107.929 281.901 108.27C281.293 108.671 280.952 109.222 280.943 109.821C280.919 111.287 282.132 111.786 283.203 112.227C284.189 112.635 285.043 112.984 285.025 113.949C285.016 114.6 284.122 114.949 283.492 114.949C283.483 114.949 283.477 114.949 283.468 114.949V114.952H283.465C282.534 114.94 281.707 114.551 281.004 113.797L280.758 114.025C281.515 114.84 282.449 115.278 283.462 115.29C283.477 115.29 283.492 115.29 283.507 115.29C284.161 115.29 284.867 115.117 285.408 114.819C286.071 114.457 286.458 113.93 286.497 113.34C286.598 111.874 285.363 111.311 284.274 110.816ZM286.163 113.313C286.123 113.918 285.642 114.304 285.247 114.52C285.211 114.542 285.174 114.56 285.138 114.578C285.274 114.402 285.357 114.192 285.363 113.952C285.381 112.759 284.341 112.33 283.334 111.917C282.269 111.479 281.262 111.062 281.281 109.824C281.287 109.341 281.576 108.887 282.09 108.547C282.166 108.495 282.248 108.449 282.333 108.404C282.215 108.574 282.145 108.766 282.132 108.972C282.05 110.165 283.112 110.648 284.14 111.114C285.223 111.613 286.248 112.081 286.163 113.313Z" fill="#B2BFCD"/>
<path d="M200.51 66.8081C198.052 64.3505 194.791 63 191.318 63C184.152 63 178.318 68.8339 178.318 76C178.318 83.1661 184.152 89 191.318 89C194.791 89 198.052 87.6495 200.51 85.1919C202.967 82.7342 204.318 79.4736 204.318 76C204.318 72.5264 202.967 69.2658 200.51 66.8081ZM191.318 88.3308C184.517 88.3308 178.987 82.8011 178.987 76C178.987 69.1989 184.517 63.6692 191.318 63.6692C198.119 63.6692 203.649 69.1989 203.649 76C203.649 82.8011 198.119 88.3308 191.318 88.3308Z" fill="#303C4A"/>
<path d="M192.638 74.6313C190.624 73.7127 188.884 72.9219 189.012 70.9996C189.067 70.2452 189.608 69.7951 190.052 69.5517C190.606 69.2476 191.348 69.0894 191.993 69.132C193.708 69.2476 195.059 69.9715 196.373 71.4741L196.878 71.0361C195.454 69.4057 193.915 68.5906 192.036 68.4628C191.89 68.4507 191.744 68.4507 191.591 68.4568C191.561 68.4568 191.531 68.4568 191.506 68.4568C190.271 68.4568 188.927 68.8583 187.893 69.5396C186.676 70.3426 185.995 71.4437 185.977 72.6421C185.928 75.5742 188.355 76.5719 190.496 77.4539C192.467 78.2691 194.177 78.9687 194.14 80.8971C194.122 82.1989 192.334 82.8985 191.074 82.8985C191.056 82.8985 191.044 82.8985 191.026 82.8985V82.9046H191.02C189.158 82.8802 187.503 82.1016 186.098 80.5929L185.605 81.0492C187.12 82.6795 188.988 83.5555 191.014 83.5798C191.044 83.5798 191.074 83.5798 191.105 83.5798C192.413 83.5798 193.824 83.2331 194.907 82.6369C196.233 81.913 197.006 80.8606 197.085 79.6804C197.285 76.7483 194.816 75.6229 192.638 74.6313ZM196.415 79.6257C196.336 80.8363 195.375 81.6088 194.584 82.0408C194.511 82.0833 194.438 82.1198 194.365 82.1563C194.639 81.8035 194.803 81.3838 194.816 80.9032C194.852 78.5185 192.772 77.6608 190.758 76.8335C188.629 75.9575 186.615 75.124 186.652 72.6481C186.664 71.6809 187.242 70.7745 188.27 70.0932C188.422 69.9897 188.586 69.8985 188.757 69.8072C188.519 70.1479 188.379 70.5312 188.355 70.9448C188.191 73.3295 190.314 74.2967 192.37 75.2275C194.536 76.2251 196.586 77.1619 196.415 79.6257Z" fill="#B2BFCD"/>
</svg>
