<svg width="1658" height="230" viewBox="0 0 1658 230" fill="none" xmlns="http://www.w3.org/2000/svg">
<g clip-path="url(#clip0_5802_146512)">
<g opacity="0.2">
<path d="M204.062 41.5974C232.11 44.3748 263.749 44.6521 289.532 41.2385C287.635 41.8341 285.771 42.5266 283.945 43.3133V43.3133C274.443 47.1781 221.782 75.0185 191.131 71.9835C145.949 70.3791 133.069 52.9361 110.562 43.1484C89.0964 33.8167 109.497 21.0761 116.177 16.774C118.32 15.3982 120.601 13.9293 122.208 12.1429C122.787 16.6113 123.303 19.8384 123.303 19.8384C133.707 31.7661 175.991 38.8087 204.04 41.586" fill="#4195C4"/>
<path d="M540.897 183.531C556.75 178.173 569.831 171.975 581.023 164.785C608.642 147.039 624.746 123.254 642.641 91.1309C669.514 42.9489 714.212 12.2028 763.913 -15.1367C775.208 -21.3545 786.773 -27.3969 798.44 -33.4294L807.811 -38.2683C808.701 -38.728 809.554 -39.1776 810.396 -39.6189L810.622 -39.7404L811.504 -40.2057L812.435 -40.7031C812.778 -40.8874 813.111 -41.0633 813.446 -41.2485C813.78 -41.4336 814.132 -41.6124 814.461 -41.7934L815.28 -42.2415L816.39 -42.8513L816.994 -43.1816L818.227 -43.8674L818.522 -44.0331C822.412 -46.2203 825.704 -48.1927 828.549 -50.0051L828.677 -50.0853L829.739 -50.7695L829.927 -50.8948L830.919 -51.5302L831.143 -51.6844L832.039 -52.2876L832.283 -52.4584L833.12 -53.0348L833.38 -53.2181C833.644 -53.4009 833.881 -53.591 834.159 -53.7724L834.429 -53.9639C834.679 -54.1435 834.928 -54.3185 835.164 -54.4994L835.434 -54.6955L836.131 -55.2162L836.402 -55.4169L837.065 -55.9223L837.337 -56.1323L837.965 -56.6225L838.237 -56.837L838.843 -57.3204L839.105 -57.5358C839.302 -57.6928 839.498 -57.8497 839.691 -58.0117L839.958 -58.2267L840.52 -58.6958L840.784 -58.9204L841.331 -59.3816C841.417 -59.452 841.503 -59.5271 841.585 -59.6026L842.128 -60.0642L842.377 -60.2856L842.887 -60.7505L843.147 -60.9801L843.656 -61.4358L843.911 -61.6659L844.421 -62.1216L844.686 -62.36L845.195 -62.8157C845.272 -62.887 845.349 -62.963 845.43 -63.0338L845.943 -63.5217L846.061 -63.6354L847.471 -64.9305C855.505 -72.307 865.288 -81.3072 893.194 -98.9415L895.947 -100.675C910.137 -109.545 925.073 -116.47 940.362 -122.515C930.472 -117.35 920.58 -112.177 910.688 -106.997L903.063 -103.002L910.49 -106.868C920.507 -112.095 930.524 -117.333 940.541 -122.581C945.859 -124.674 951.215 -126.677 956.612 -128.591C964.179 -131.301 971.795 -133.894 979.421 -136.487C1008.89 -146.5 1038.49 -156.556 1065.62 -173.784C1085.75 -186.561 1099.38 -205.962 1113.1 -225.466C1124 -240.972 1134.94 -256.548 1149.23 -268.909C1150.41 -269.93 1151.79 -270.977 1153.34 -272.082C1164.14 -279.71 1182.99 -288.763 1199.17 -296.531C1207.95 -300.769 1215.97 -304.619 1221.46 -307.623C1222.24 -308.055 1222.98 -308.472 1223.65 -308.872C1222.01 -307.039 1220.52 -305.027 1219.03 -303.011C1219.03 -302.995 1219.03 -302.98 1219.03 -302.965C1218.77 -302.616 1218.61 -302.201 1218.58 -301.767C1218.54 -301.334 1218.62 -300.898 1218.82 -300.511C1219.02 -300.123 1219.32 -299.799 1219.69 -299.574C1220.07 -299.349 1220.49 -299.233 1220.93 -299.238L1221.5 -299.247C1225.43 -299.29 1229.38 -299.335 1232.61 -300.9C1271.35 -319.574 1294.25 -353.338 1313.24 -389.713L1314.3 -391.757C1331.74 -425.197 1348 -459.679 1335.32 -499.51C1335.23 -499.696 1335.37 -500.002 1335.57 -500.312C1335.67 -500.484 1335.76 -500.665 1335.83 -500.853C1336.07 -500.458 1336.33 -500.075 1336.59 -499.687C1337.13 -498.941 1337.6 -498.142 1337.98 -497.302C1351.99 -462.85 1348.59 -427.532 1334.92 -395.255L1333.11 -391.01C1331.68 -387.604 1330.25 -384.197 1328.81 -380.788C1301.05 -314.558 1272.84 -247.295 1214.3 -201.38C1174.08 -169.787 1127.01 -149.737 1079.99 -129.733C1065.93 -123.747 1051.87 -117.765 1038.01 -111.481L1034.98 -110.11C1032.12 -108.815 1029.25 -107.526 1026.37 -106.245C986.18 -88.2251 945.876 -70.1562 915.466 -36.0962C896.024 -14.4711 906.105 5.03025 916.209 24.5848C916.992 26.0553 917.744 27.5506 918.498 29.0368L920.149 32.3344C922.934 37.6943 926.228 42.7738 929.986 47.5027C939.521 59.674 946.773 66.8089 953.565 68.9209C943.454 72.0985 934.512 72.7454 927.831 76.5367C916.073 83.2055 917.741 100.694 908.766 110.722C906.207 111.29 902.799 111.988 900.667 112.799C890.779 116.574 883.757 126.345 875.98 133.756C849.243 159.232 803.494 172.406 791.183 181.895C778.501 191.666 758.577 191.806 743.344 189.262C734.898 187.85 727.426 183.6 719.441 180.818C711.281 177.976 702.929 178.765 694.541 180.149C685.218 181.687 675.353 183.5 666.558 180.043C666.063 179.907 665.632 179.6 665.344 179.176C665.165 178.707 665.15 178.191 665.302 177.713C666.911 169.91 669.073 165.704 675.327 160.412C679.042 157.27 683.708 155.484 688.32 153.972C728.816 140.719 774.776 139.721 814.344 123.882C821.114 121.159 829.935 114.789 828.359 108.949C822.922 94.8761 814.249 101.957 805.704 110.365C795.61 120.3 778.806 127.997 748.209 128.779C707.208 129.827 693.568 141.347 657.389 155.827C611.584 174.168 555.995 196.397 487.97 198.019C484.964 198.09 481.932 198.12 478.875 198.108C503.509 194.093 523.811 189.292 540.89 183.517" fill="#A4DFD9"/>
<path d="M1454.04 24.6013C1466 34.8305 1476.6 46.9305 1484.12 60.8113C1499.24 88.7003 1517.61 123.56 1475.44 142.27C1454.23 151.685 1431.23 121.874 1412.19 117.95C1403.97 116.254 1396.6 115.158 1388.51 118.507C1386.49 119.314 1384.52 120.246 1382.61 121.299C1382.12 121.547 1381.66 121.813 1381.2 122.088C1379.35 123.178 1377.58 124.375 1375.87 125.674C1375.02 126.314 1374.18 126.974 1373.35 127.64L1372.12 128.646C1363.47 135.835 1354.17 143.723 1348.98 153.958C1331.96 145.591 1323.29 135.525 1329.62 123.471C1338.03 107.441 1361.94 103.331 1383.95 99.5437C1421.35 93.1152 1453.23 87.6314 1394.15 26.2158C1389.58 21.4737 1387.15 15.2104 1385.54 8.22581C1391.52 3.66878 1397.81 -0.147882 1404.99 -1.58657C1420.15 -4.61736 1442.53 14.7561 1454.04 24.6064" fill="#4CBEB3"/>
<path d="M1632.54 -109.732C1636.06 -126.1 1632.62 -152.335 1615.41 -160.015C1605.78 -164.307 1592.64 -163.616 1584.37 -170.704C1575.3 -178.473 1579.28 -194.813 1578.52 -205.47C1577.6 -218.385 1579.27 -231.133 1581.23 -243.94C1583.88 -261.544 1585.06 -279.34 1584.76 -297.14L1586.09 -299.093L1586.12 -299.137L1588.99 -303.352C1598.76 -317.637 1608.68 -333.101 1612.21 -350.326C1616.12 -369.472 1609.54 -386.203 1597.95 -401.285C1597.7 -401.524 1597.8 -402.15 1597.89 -402.722C1597.9 -402.906 1597.92 -403.08 1597.94 -403.241C1598.24 -403.184 1598.55 -403.139 1598.85 -403.1C1599.75 -403.033 1600.63 -402.806 1601.46 -402.429C1619.77 -391.979 1627.36 -372.547 1627.63 -352.556C1627.91 -332.748 1622.46 -313.754 1616.58 -294.681C1614.78 -288.823 1613 -282.964 1611.36 -277.118C1608 -265.118 1604.14 -248.957 1610.84 -237.316C1616.78 -226.977 1629.88 -223.234 1640.68 -220.721C1659.74 -216.289 1673.46 -200.146 1674.95 -180.534C1676.12 -165.133 1678.98 -147.239 1692.53 -137.632C1705.01 -128.79 1722.51 -128.859 1737.1 -128.845C1757.52 -128.828 1773.62 -116.291 1778.18 -97.4287C1782.82 -78.2197 1768.12 -52.1596 1761.3 -33.8396C1754.72 -16.1511 1749.35 1.95965 1744.08 20.0758C1740.26 33.2229 1736.5 50.1648 1727.95 60.0392C1720.37 68.7932 1714.26 82.0996 1708.89 93.0367C1699.45 112.206 1690.36 131.56 1682.55 151.463C1672.49 177.113 1663.65 228.683 1628.54 226.994C1618.78 226.524 1611.46 224.007 1609.69 213.46C1608.81 208.288 1609.93 202.748 1611.2 197.757C1613.14 190.144 1615.82 181.527 1611.63 174.148C1607.45 166.769 1598.91 159.237 1598.45 150.481C1597.76 137.347 1606.41 122.481 1611.74 111.099C1613.34 107.683 1614.15 104.151 1614.89 100.556C1615.22 98.9171 1615.55 97.2726 1615.92 95.6332C1621.32 71.7826 1625.81 46.8007 1622.97 22.9135C1621.89 13.8784 1618.34 4.61567 1619.44 -4.16186C1623.61 -37.2267 1625.23 -75.9484 1632.49 -109.728" fill="#4CBEB3"/>
<path d="M364.715 109.597C434.953 108.849 514.816 108 556.765 77.5384C637.769 18.6976 670.428 -3.28109 733.189 -33.3763C840.892 -85.051 945.807 -141.817 1047.93 -203.674C1048.77 -204.186 1049.61 -204.696 1050.46 -205.207C1058.46 -210.042 1066.84 -215.113 1070.25 -224.995C1104.58 -240.002 1139.42 -283.504 1202.34 -310.5C1202.9 -310.733 1203.45 -310.985 1204 -311.264C1204.2 -311.356 1204.4 -311.461 1204.61 -311.557L1205.64 -312.068L1206.56 -312.553L1207.19 -312.89C1224.5 -322.346 1243.4 -342.819 1257.39 -361.947C1250.83 -349.632 1243.76 -337.564 1236.58 -325.59L1230.17 -314.951L1226.27 -311.455C1225.36 -310.649 1224.5 -309.79 1223.7 -308.882C1223.02 -308.479 1222.29 -308.062 1221.5 -307.632C1216.01 -304.606 1208.01 -300.764 1199.21 -296.541C1183.04 -288.773 1164.18 -279.72 1153.38 -272.092C1151.84 -271.001 1150.46 -269.939 1149.27 -268.919C1134.98 -256.558 1124.04 -240.982 1113.14 -225.476C1099.43 -205.971 1085.79 -186.571 1065.67 -173.794C1038.53 -156.566 1008.93 -146.51 979.464 -136.497C971.838 -133.904 964.222 -131.311 956.655 -128.601C951.273 -126.673 945.913 -124.692 940.599 -122.599L949.501 -127.252L940.414 -122.52C925.111 -116.476 910.171 -109.551 895.999 -100.679L893.245 -98.9459C865.341 -81.3254 855.554 -72.3256 847.523 -64.9349L846.113 -63.6397L845.995 -63.5261L845.482 -63.0382C845.401 -62.9673 845.324 -62.8914 845.247 -62.8201L844.738 -62.3644L844.472 -62.126L843.963 -61.6703L843.708 -61.4402L843.199 -60.9845L842.939 -60.7549L842.429 -60.29L842.179 -60.0686L841.637 -59.607C841.55 -59.5319 841.469 -59.4564 841.383 -59.386L840.836 -58.9248L840.572 -58.7002L840.01 -58.2311L839.743 -58.0161C839.55 -57.8541 839.354 -57.6971 839.157 -57.5402L838.894 -57.3248L838.289 -56.8414L838.017 -56.6269L837.388 -56.1367L837.117 -55.9267L836.454 -55.4212L836.183 -55.2205C835.953 -55.0483 835.722 -54.8716 835.482 -54.7003L835.216 -54.5037C834.975 -54.3232 834.717 -54.1492 834.481 -53.9683L834.211 -53.7768C833.956 -53.5931 833.71 -53.4039 833.432 -53.2225L833.172 -53.0392L832.335 -52.4628L832.09 -52.292L831.195 -51.6888L830.971 -51.5346L829.979 -50.8991L829.79 -50.7739L828.729 -50.0897L828.6 -50.0095C825.755 -48.1879 822.462 -46.2156 818.574 -44.0375L818.279 -43.8717L817.046 -43.1859L816.442 -42.8557L815.332 -42.2459L814.512 -41.7978C814.183 -41.6168 813.84 -41.4325 813.497 -41.2529C813.154 -41.0732 812.83 -40.8918 812.487 -40.7075L811.555 -40.2101L810.448 -39.6233L807.858 -38.2731L796.603 -32.46C794.599 -31.4202 792.585 -30.3815 790.56 -29.3438C781.993 -24.936 773.171 -20.3863 763.964 -15.1365C714.263 12.203 669.565 42.9445 642.692 91.1311C624.779 123.253 608.675 147.038 581.074 164.786C570.099 171.95 555.998 178.363 540.949 183.532C523.87 189.307 503.569 194.108 478.934 198.123C481.991 198.138 485.022 198.108 488.029 198.034C485.934 198.265 483.828 198.387 481.72 198.399C365.431 198.26 210.555 185.682 232.006 135.222C242.345 110.899 299.387 110.293 364.767 109.597L364.715 109.597ZM962.506 -134.048L962.996 -134.311L963.354 -134.498L963.962 -134.833C964.298 -134.939 964.631 -135.064 964.969 -135.197C965.307 -135.331 965.645 -135.455 965.98 -135.562C966.172 -135.683 966.354 -135.82 966.522 -135.972L966.991 -136.39C967.326 -136.496 967.664 -136.625 967.997 -136.755C968.331 -136.884 968.673 -137.008 969.008 -137.119L969.018 -137.211C968.682 -137.105 968.344 -136.976 968.006 -136.847C967.669 -136.718 967.336 -136.593 967 -136.482L966.871 -136.402C966.812 -136.361 966.751 -136.316 966.691 -136.267C966.61 -136.205 966.534 -136.138 966.463 -136.076L965.99 -135.658C965.802 -135.588 965.603 -135.506 965.395 -135.42L964.913 -135.24C964.628 -135.124 964.338 -135.018 964.046 -134.927C963.315 -134.581 962.58 -134.185 961.847 -133.775L961.508 -133.585L962.506 -134.048Z" fill="#4CBEB3"/>
<path d="M139.815 -196.714C140.337 -199.829 141.693 -202.736 144.063 -204.828C145.07 -205.728 146.258 -206.402 147.547 -206.805C153.523 -208.641 155.902 -203.075 158 -199.32C158.914 -197.596 159.942 -195.935 161.079 -194.349L161.107 -194.309L161.346 -194.007L161.371 -193.976C161.371 -193.976 161.371 -193.976 161.369 -193.953L161.394 -193.923C161.518 -193.767 161.647 -193.619 161.776 -193.472L161.877 -193.36L162.065 -193.151L162.111 -193.104L162.346 -192.617C162.669 -191.986 162.992 -191.355 163.309 -190.711L164.243 -188.844C176.481 -164.672 190.272 -147.942 205.648 -135.638C210.136 -132.049 214.85 -128.754 219.762 -125.772C221.101 -124.952 222.453 -124.157 223.816 -123.388C241.601 -113.324 261.2 -107.047 282.715 -100.84L287.347 -99.5084C288.133 -99.0498 288.933 -98.5945 289.738 -98.1433L290.138 -97.9134C292.936 -96.3455 295.806 -94.8231 298.749 -93.3462C327.805 -78.6738 358.69 -67.9485 390.586 -61.4546C422.354 -54.9798 454.93 -52.6735 487.314 -53.5855C519.855 -54.5003 552.402 -58.5116 584.367 -64.5771C592.081 -66.0421 599.785 -67.6054 607.436 -69.3691C620.564 -72.2775 633.533 -75.8692 646.287 -80.1295C658.418 -84.2401 670.393 -89.1184 681.602 -95.3541L682.157 -95.6612L682.255 -95.7119C682.969 -96.1147 683.682 -96.5241 684.391 -96.9398C686.165 -97.9668 687.982 -100.382 688.164 -102.217C688.174 -102.352 688.158 -102.488 688.115 -102.616L688.118 -102.644C688.097 -102.71 688.071 -102.775 688.04 -102.837L688.043 -102.87C688.008 -102.938 687.968 -103.002 687.928 -103.071C686.799 -104.794 684.73 -106.318 682.559 -107.647C681.904 -108.05 681.341 -108.584 680.904 -109.216C680.467 -109.848 680.165 -110.564 680.02 -111.318C679.874 -112.073 679.887 -112.849 680.057 -113.599C680.227 -114.348 680.551 -115.054 681.009 -115.671C681.011 -115.694 681.041 -115.714 681.056 -115.727C683.774 -119.075 688.373 -121.159 692.037 -123.461C701.455 -129.385 710.999 -135.114 720.669 -140.648C727.846 -144.761 732.095 -148.803 735.181 -156.52C735.385 -157.03 728.388 -160.128 727.588 -160.393C724.697 -161.347 721.785 -161.246 718.778 -161.265C717.628 -161.281 716.458 -161.286 715.339 -161.331C714.636 -161.355 713.946 -161.335 713.22 -161.318L712.789 -161.324C751.024 -180.016 813.309 -191.469 843.089 -197.087C871.378 -202.978 913.506 -223.281 912.352 -221.338C890.507 -184.118 828.374 -156.328 806.202 -143.429L804.812 -142.605C804.818 -142.674 804.825 -142.739 804.804 -142.81L804.793 -142.983C804.8 -143.048 804.773 -143.111 804.766 -143.176C804.759 -143.242 804.743 -143.276 804.734 -143.328L804.739 -143.369C804.728 -143.424 804.715 -143.478 804.699 -143.531C804.679 -143.606 804.653 -143.68 804.623 -143.752C804.622 -143.762 804.623 -143.771 804.626 -143.78C804.626 -143.78 804.63 -143.821 804.6 -143.843C804.569 -143.864 804.554 -143.945 804.531 -143.994C804.508 -144.042 804.478 -144.115 804.447 -144.174L804.363 -144.317L804.222 -144.53L804.202 -144.56C800.406 -149.886 788.002 -150.942 783.193 -147.105C777.544 -142.58 773.836 -136.358 769.301 -130.836C769.231 -130.746 769.162 -130.655 769.088 -130.569C751.832 -109.68 725.479 -99.8918 701.018 -90.2277C698.437 -89.2064 695.864 -88.1657 693.284 -87.1443C654.13 -71.5524 613.583 -60.6441 572.133 -52.9083C571.872 -52.846 571.613 -52.7694 571.354 -52.6837L571.234 -52.6444C570.883 -52.5259 570.531 -52.3937 570.179 -52.2614L569.557 -52.0212L569.077 -51.8645L568.765 -51.7607L569.183 -51.7193C569.469 -51.6678 569.758 -51.6392 570.048 -51.6337L570.103 -51.6282C570.244 -51.6309 570.384 -51.6481 570.521 -51.6796L571.981 -51.9298C553.551 -47.751 538.103 -44.605 529.368 -43.6126L525.612 -43.1906C469.86 -37.0335 409.565 -36.4337 350.971 -37.9174C347.623 -38.0012 344.282 -38.0938 340.946 -38.195L333.077 -38.4403L331.465 -38.8134C301.962 -45.6583 273.514 -55.6953 246.999 -70.4952C220.485 -85.295 196.879 -104.478 177.502 -127.816C169.687 -137.316 162.566 -147.366 156.191 -157.887C152.95 -163.185 149.726 -168.556 146.888 -174.08C144.316 -179.098 141.138 -183.963 140.001 -189.587C139.52 -191.93 139.469 -194.341 139.851 -196.702" fill="#E5C7A3"/>
<path d="M210.874 -27.1992C211.441 -27.013 212.007 -26.8224 212.567 -26.6229L212.742 -26.5591C221.535 -23.4505 229.866 -18.7252 238.179 -14.0065C241.599 -12.0613 245.015 -10.1259 248.456 -8.30394L248.654 -8.196L249.647 -7.67518L250.027 -7.47964L250.986 -6.98547L251.256 -6.85195C251.849 -6.55183 252.443 -6.2701 253.026 -5.9663L253.526 -5.71717L254.35 -5.32433L254.936 -5.04814L255.748 -4.67059L256.362 -4.39166C256.806 -4.1898 257.251 -3.99253 257.695 -3.79526L258.399 -3.48882L259.161 -3.17185L259.835 -2.89162L260.598 -2.58385L261.296 -2.31503L262.043 -2.02749C262.491 -1.86701 262.903 -1.71018 263.334 -1.56072L264.061 -1.30768L264.793 -1.05869L265.549 -0.812128L266.279 -0.586591L267.022 -0.359698L267.957 -0.0953772L269.047 0.198337L269.84 0.397569L270.602 0.579814L271.352 0.746873L272.115 0.910697L272.94 1.06664C273.328 1.14212 273.716 1.2085 274.104 1.27479C274.403 1.30439 274.702 1.37576 275.018 1.42097L275.788 1.52507L276.558 1.62458L277.349 1.70289C277.616 1.7293 277.882 1.75571 278.149 1.78211C278.416 1.80852 278.655 1.83219 278.908 1.85723C279.367 1.90276 279.83 1.91605 280.292 1.93859L281.079 1.96547L281.876 1.97935L282.693 1.98595L283.488 1.97188L284.303 1.9549L285.385 1.89966C285.768 1.87721 286.156 1.85067 286.54 1.81903L287.369 1.74784L288.224 1.65132L289.018 1.55359L289.884 1.43048L290.734 1.29173C290.975 1.25058 291.206 1.21764 291.452 1.17235C294.116 0.683938 296.781 0.209616 299.449 -0.250596L300.232 -0.381913C302.537 -0.772807 304.845 -1.16339 307.155 -1.55368L309.132 -1.86864C311.048 -2.18038 312.966 -2.48424 314.887 -2.78005L317.306 -3.14875C319.097 -3.41715 320.886 -3.68269 322.673 -3.94527L325.24 -4.31793L330.552 -5.06422L333.07 -5.40909C334.931 -5.66132 336.791 -5.90743 338.65 -6.1474L340.852 -6.43555C343.122 -6.73078 345.395 -7.01807 347.67 -7.29736L348.609 -7.40859C351.254 -7.73177 353.899 -8.04713 356.545 -8.35468L357.64 -8.4831C359.869 -8.74212 362.1 -8.99489 364.331 -9.24135C365.083 -9.32943 365.834 -9.40833 366.588 -9.48217C368.466 -9.68935 370.335 -9.89439 372.193 -10.0973L374.624 -10.3533L380.184 -10.9358L382.432 -11.1776C384.443 -11.387 386.458 -11.5914 388.478 -11.7907L390.072 -11.9532C400.758 -13.0186 411.451 -14.0477 422.151 -15.0405C443.444 -17.0506 464.742 -19.0648 485.987 -21.5208L486.456 -21.5718C488.554 -21.816 490.656 -22.063 492.76 -22.3127L494.17 -22.4842L499.572 -23.152L501.372 -23.3776C503.065 -23.5907 504.757 -23.8101 506.447 -24.0358L508.376 -24.2859C510.108 -24.52 511.834 -24.7562 513.554 -24.9945L515.257 -25.225C517.543 -25.5466 519.824 -25.8733 522.101 -26.205C522.262 -26.2324 522.422 -26.2725 522.577 -26.3251L522.712 -26.3721L523.06 -26.5141L523.181 -26.567L523.563 -26.7614C523.739 -26.8508 523.92 -26.9443 524.109 -27.0277C523.672 -27.0709 523.226 -27.1151 522.79 -27.1583C521.433 -27.3779 520.06 -27.4751 518.686 -27.4486C475.233 -24.7075 431.769 -23.9224 388.619 -29.0262C376.303 -30.4965 364.125 -32.292 352.132 -34.4964L351.716 -34.5699L349.838 -34.9231L348.275 -35.2218L346.453 -35.5786L344.86 -35.8943L343.039 -36.2603L341.383 -36.6055C340.805 -36.7231 340.222 -36.8411 339.645 -36.9679C338.589 -37.1884 337.54 -37.4178 336.49 -37.6471L334.868 -38.0073L333.101 -38.4051L333.041 -38.4111L340.91 -38.1659C344.244 -38.068 347.584 -37.9755 350.931 -37.8887C409.552 -36.4022 469.848 -37.002 525.6 -43.1591L529.356 -43.5811C538.095 -44.573 553.545 -47.7374 571.968 -51.8983L576.744 -52.7255L577.269 -52.8175L577.68 -52.8882C579.475 -53.198 581.266 -53.5174 583.053 -53.8327L584.022 -54.0061C642.023 -64.3143 699.183 -77.1854 752.292 -102.785L752.375 -102.828C753.373 -103.308 754.37 -103.794 755.366 -104.287L755.526 -104.364L758.457 -105.824L758.638 -105.918C759.615 -106.406 760.593 -106.904 761.571 -107.401L761.737 -107.487C762.717 -108.009 763.698 -108.531 764.678 -109.053L764.766 -109.1C769.894 -111.805 774.973 -114.645 780.004 -117.62C782.412 -119.048 784.713 -120.648 786.89 -122.408L786.951 -122.458C787.369 -122.792 787.779 -123.133 788.189 -123.477L788.301 -123.568C788.696 -123.901 789.086 -124.234 789.473 -124.571L789.615 -124.697C789.992 -125.031 790.363 -125.361 790.736 -125.7L790.899 -125.851C791.262 -126.182 791.625 -126.517 791.983 -126.853L792.157 -127.022C792.511 -127.358 792.865 -127.695 793.214 -128.036C793.275 -128.091 793.337 -128.149 793.394 -128.209C793.744 -128.55 794.093 -128.892 794.425 -129.24L794.59 -129.409C794.941 -129.76 795.291 -130.115 795.624 -130.472L795.769 -130.62C796.13 -130.988 796.487 -131.362 796.84 -131.731L796.933 -131.833C797.311 -132.227 797.69 -132.626 798.064 -133.026C798.58 -133.555 799.051 -134.089 799.536 -134.621L800.082 -135.217L800.369 -135.537L800.552 -135.737L801.203 -136.457L802.278 -137.651C803.503 -139.053 804.276 -140.324 804.597 -141.466C804.639 -141.615 804.672 -141.767 804.697 -141.92C804.697 -141.92 804.697 -141.92 804.701 -141.957C804.724 -142.095 804.738 -142.235 804.742 -142.375L804.756 -142.513C804.76 -142.554 804.764 -142.596 804.768 -142.633L806.159 -143.456C828.33 -156.356 890.459 -184.145 912.309 -221.365C923.01 -230.59 938.617 -241.108 965.202 -253.798C993.702 -267.399 1025.74 -272.371 1054.54 -285.301L1055.06 -285.529C1071.73 -292.852 1129.1 -310.621 1150.31 -321.753C1236.27 -366.87 1258.55 -395.941 1272.73 -419.364L1274.46 -422.266L1274.56 -420.459C1274.62 -419.413 1274.7 -418.361 1274.77 -417.3C1275.1 -412.429 1275.44 -407.482 1274.93 -402.704C1274.66 -399.858 1273.97 -397.067 1272.9 -394.417C1268.28 -383.336 1263.02 -372.542 1257.37 -361.939C1242.06 -341.005 1220.88 -318.456 1202.32 -310.497C1139.39 -283.502 1104.55 -240 1070.23 -224.993C1068.76 -224.498 1067.29 -224.024 1065.81 -223.573L1065.44 -223.456L1063.46 -222.84L1063.28 -222.788L1061.37 -222.193L1059.5 -221.616L1058.22 -221.223L1057.44 -220.979L1055.35 -220.319L1054.39 -220.024L1053.23 -219.646L1051.64 -219.117L1050.5 -218.732L1049.31 -218.312L1048.35 -217.971C1047.79 -217.771 1047.23 -217.561 1046.67 -217.352L1045.78 -217.004C1045.3 -216.825 1044.84 -216.639 1044.37 -216.447L1043.53 -216.103C1043.02 -215.889 1042.5 -215.671 1041.99 -215.443L1041.54 -215.256C1029.43 -209.875 1017.51 -204.169 1005.71 -198.202C932.238 -161.166 863.67 -114.857 788.323 -81.3598C773.801 -74.9074 759.216 -68.6485 744.569 -62.5832C741.907 -49.7715 726.772 -42.9868 713.829 -38.8405C643.142 -16.2023 576.769 13.2334 504.379 31.9279C497.818 33.623 491.209 35.3228 484.452 35.8098C475.159 36.4777 465.87 34.8241 456.558 34.6079C435.536 34.1143 415.122 40.8918 394.439 44.6755C361.291 50.6563 327.216 48.9925 294.809 39.811L289.489 41.2529C263.689 44.6462 232.044 44.3869 204.019 41.6118C175.993 38.8368 133.686 31.7921 123.282 19.8644C123.282 19.8644 122.757 16.6364 122.187 12.1689C121.48 6.74068 120.694 -0.515462 120.686 -6.06482C120.003 -38.4629 178.056 -37.7478 210.84 -27.1885" fill="#A4DFD9"/>
<path d="M1186.14 119.702C1191.17 115.004 1197.02 111.256 1202.1 106.615C1209.75 99.6278 1225.16 89.6704 1242.46 74.3388C1253.17 69.693 1262.92 62.4717 1271.01 53.9913C1284.32 40.0475 1293.71 22.8684 1302.11 5.53214C1315.34 -21.7646 1326.91 -50.1641 1335.64 -79.2339C1339.9 -93.3873 1338.93 -99.3054 1335.42 -100.15C1338.36 -105.552 1341.5 -110.812 1344.85 -115.932C1369.34 -153.215 1410.12 -173.971 1437.14 -208.321C1453.61 -229.266 1477.66 -239.769 1485.43 -243.907C1524.21 -264.555 1565.51 -311.244 1563.02 -339.888C1561.73 -354.739 1581.6 -350.929 1583.81 -317.585C1588.39 -248.877 1576.15 -240.135 1578.53 -205.45C1579.38 -193.188 1575.91 -179.309 1582.62 -169.014C1587.94 -160.849 1597 -155.658 1602.27 -147.456C1612.41 -131.677 1610.49 -93.0268 1609.42 -87.9237C1603.31 -59.0215 1603.2 -17.9635 1598.36 11.3292C1593.05 43.4311 1576.39 70.4999 1555.28 94.7036C1553.62 96.5595 1552.8 97.4862 1551.2 99.3332C1544.45 107.232 1537.9 115.27 1531.72 123.625C1529.66 126.401 1528.67 127.775 1526.75 130.487C1526.33 131.244 1526.13 131.619 1525.72 132.372C1518.47 145.528 1511.13 158.662 1502.16 170.774C1499.6 174.162 1496.78 177.346 1493.72 180.297C1492.12 181.875 1480.8 196.435 1465.33 202.982C1462.33 204.244 1459.04 204.641 1455.83 204.126C1411.55 197.118 1379.64 169.056 1348.97 153.976C1354.17 143.741 1363.46 135.853 1372.12 128.664L1373.35 127.658C1374.18 126.992 1375.02 126.332 1375.86 125.692C1377.57 124.393 1379.35 123.196 1381.19 122.106C1381.66 121.836 1382.13 121.571 1382.6 121.317C1384.51 120.264 1386.48 119.331 1388.5 118.525C1396.6 115.176 1403.96 116.272 1412.19 117.968C1431.23 121.892 1454.22 151.703 1475.43 142.288C1517.61 123.551 1499.24 88.7002 1484.14 60.8039C1476.62 46.9231 1466.02 34.8231 1454.06 24.5939C1442.55 14.7436 1420.16 -4.62985 1405 -1.59906C1397.82 -0.160374 1391.54 3.65628 1385.55 8.21286C1381.36 11.4059 1377.34 15.2934 1375.48 20.2161C1373.61 25.1388 1370.51 32.8277 1367.02 36.791C1361.83 42.7174 1340.16 57.616 1334.06 61.2191C1312.63 73.8812 1229.9 126.254 1206.99 135.998C1198.59 139.568 1189.7 142.788 1180.59 142.207C1179.21 142.121 1177.71 141.87 1176.84 140.8C1176.06 139.84 1176.03 138.495 1176.15 137.267C1176.83 130.421 1181.14 124.426 1186.15 119.722" fill="#A4DFD9"/>
<path d="M1304.63 -68.0773C1298.22 -51.4584 1295.62 -33.324 1286.97 -17.7434C1284.29 -12.9013 1280.98 -8.29856 1276.44 -5.13556C1272.14 -2.13048 1266.98 -0.60736 1262.41 1.97177C1255.16 6.04635 1249.66 12.5592 1244.33 18.9354C1232.32 33.2917 1220.31 47.6462 1208.29 61.9989C1206.47 64.1859 1204.56 66.551 1204.27 69.3876C1203.55 76.7445 1213.32 80.2196 1220.7 79.743C1239.94 78.4908 1257.68 67.9389 1271 53.9905C1284.31 40.0421 1293.7 22.8676 1302.11 5.53135C1315.33 -21.7654 1326.9 -50.1649 1335.63 -79.2347C1348.71 -122.728 1312.5 -88.4898 1304.62 -68.0644" fill="#4CBEB3"/>
<path d="M1013.33 197.786C1004.61 199.193 997.232 190.861 993.045 184.944C987.937 177.725 984.39 168.718 980.421 160.269C977.289 153.593 973.517 143.618 966.594 140.903C959.398 138.078 947.607 143.49 939.694 145.283C933.334 146.729 926.862 148.271 920.414 148.816C918.911 148.946 917.367 149.062 915.845 149.19C909.406 149.741 894.719 152.842 889.894 146.713C882.676 137.548 902.328 118.205 906.968 112.8C907.576 112.099 908.182 111.411 908.773 110.746C917.752 100.719 916.08 83.2294 927.838 76.5605C934.519 72.7693 943.46 72.127 953.572 68.9447C964.456 65.5232 977.762 57.4662 985.655 46.8302C986.678 45.4503 987.671 43.956 988.653 42.4838C989.634 41.0116 990.603 39.5335 991.525 38.0508C1004.42 17.2867 1013.15 -4.21533 1014.84 -28.6471C1016.51 -52.7285 1034.7 -68.4692 1054.2 -80.0692L1056.39 -81.3614C1059.31 -83.069 1062.25 -84.7372 1065.15 -86.3855L1068.23 -88.1241L1068.94 -88.5184L1069.52 -88.8463C1069.82 -89.0208 1070.12 -89.1903 1070.42 -89.3653L1072.84 -90.7548C1073.93 -91.3852 1074.48 -91.698 1075.57 -92.3418C1076.16 -92.6743 1076.74 -92.9967 1077.33 -93.3242C1078.93 -94.2278 1080.53 -95.1248 1082.13 -96.0153C1082.96 -96.4722 1083.79 -96.9189 1084.62 -97.3758C1085.96 -98.1094 1087.31 -98.8396 1088.66 -99.5664C1089.6 -100.073 1090.54 -100.569 1091.47 -101.071C1092.72 -101.734 1093.97 -102.384 1095.21 -103.022L1098.22 -104.582C1099.41 -105.197 1100.6 -105.813 1101.8 -106.419L1104.93 -108.012C1106.09 -108.594 1107.25 -109.174 1108.41 -109.752C1109.49 -110.287 1110.57 -110.825 1111.64 -111.355L1115.06 -113.018C1116.17 -113.553 1117.27 -114.094 1118.38 -114.625C1119.48 -115.157 1120.59 -115.692 1121.71 -116.218C1122.82 -116.744 1123.97 -117.304 1125.12 -117.835L1128.34 -119.373L1131.84 -121.014C1132.6 -121.366 1133.36 -121.709 1134.11 -122.061C1136.75 -123.276 1139.39 -124.485 1142.04 -125.687L1144.99 -127.029L1148.64 -128.66L1151.83 -130.09L1155.27 -131.607L1158.76 -133.155L1161.87 -134.519L1165.89 -136.289L1168.36 -137.363L1173.7 -139.69L1174.53 -140.045L1179.86 -142.363L1187.69 -145.767L1195.99 -149.355C1203.96 -152.801 1211.91 -156.271 1219.84 -159.763C1220.02 -159.838 1220.2 -159.918 1220.37 -159.998C1222.17 -160.789 1223.96 -161.584 1225.75 -162.382L1227.75 -163.279L1231.69 -165.049L1234.2 -166.193L1237.67 -167.771L1240.36 -169.004L1243.66 -170.536L1246.44 -171.829L1249.65 -173.331L1252.44 -174.652L1255.66 -176.191L1258.4 -177.457L1261.65 -179.038C1262.55 -179.475 1263.45 -179.913 1264.34 -180.351L1267.69 -182.002L1270.26 -183.284C1271.44 -183.873 1272.61 -184.472 1273.78 -185.066C1274.57 -185.452 1275.37 -185.866 1276.17 -186.275C1277.47 -186.939 1278.77 -187.618 1280.08 -188.292L1282.04 -189.315C1284 -190.337 1285.95 -191.372 1287.89 -192.417C1289.41 -193.224 1290.17 -193.627 1291.68 -194.438C1298.05 -197.74 1304.42 -201.599 1310.91 -204.142C1319.74 -207.6 1332.34 -206.352 1346.98 -213.186C1371.43 -224.602 1386.74 -226.954 1408.87 -242.694C1420.03 -250.629 1431.45 -259.096 1441.02 -268.925C1453.68 -281.93 1463.81 -297.471 1474.37 -312.134C1478.01 -317.193 1481.68 -322.246 1485.39 -327.294C1488.18 -331.085 1491.02 -334.845 1493.9 -338.574C1496.17 -341.506 1497.3 -342.932 1499.46 -345.605C1501.6 -348.179 1503.79 -350.693 1506.23 -352.532C1507.33 -353.352 1508.42 -354.209 1509.47 -355.02C1509.83 -355.291 1510.2 -355.551 1510.52 -355.812C1516.49 -360.612 1522.57 -359.783 1527.79 -356.126C1533.02 -352.47 1534.21 -348.712 1529.1 -343.256C1528.53 -342.612 1528 -341.94 1527.5 -341.241C1526.75 -340.238 1526.35 -339.707 1525.54 -338.594C1506.97 -313.14 1489.91 -285.419 1468.05 -262.566C1456.22 -250.208 1441.31 -238.688 1427.63 -228.402C1399.53 -207.285 1369.48 -188.917 1338.81 -171.825C1336.61 -170.595 1334.4 -169.372 1332.19 -168.158C1325.54 -164.514 1318.87 -160.906 1312.16 -157.335L1307.75 -154.986C1300.95 -151.413 1294.12 -147.879 1287.27 -144.384C1247.29 -123.911 1205.43 -102.23 1179.43 -66.5405C1167.5 -50.1479 1167.35 -30.0808 1167.91 -9.73026C1165.79 11.6647 1166.29 34.7398 1160.98 55.5677C1155.66 76.3957 1146.3 96.6459 1131.08 111.832C1123.44 119.461 1114.38 125.774 1108.01 134.5C1095.09 152.229 1094.21 178.543 1076.39 191.316C1069.03 196.578 1059.85 198.58 1050.87 199.617C1038.85 201.009 1025.35 199.38 1013.38 197.762" fill="#4CBEB3"/>
<path d="M12.5623 -88.3319C31.8605 -72.2129 56.8869 -59.4083 66.5905 -37.8782C73.7764 -15.8684 71.082 6.65346 55.238 21.2986C39.394 35.9437 26.0202 40.9297 0.012994 38.452L12.5623 -88.3319Z" fill="#A4DFD9"/>
<path d="M344.09 -376.153L345.194 -378.579C393.198 -482.383 473.864 -555.721 567.994 -617C624.857 -653.976 686.713 -679.624 749.965 -702.525C759.597 -706.019 775.801 -711.639 780.457 -701.544C783.58 -694.688 776.883 -690.396 770.046 -686.017C766.725 -683.894 763.379 -681.751 761.105 -679.283C760.234 -678.362 759.386 -677.438 758.537 -676.514C757.673 -675.574 756.809 -674.633 755.936 -673.689C756.641 -673.731 757.365 -673.728 758.08 -673.723C759.816 -673.718 761.538 -673.71 763.039 -674.286C796.758 -686.58 831.256 -696.509 865.763 -706.437L866.121 -706.541L866.346 -703.839C866.509 -701.966 931.112 -714.142 1030.24 -738.411C1129.37 -762.681 1171.28 -792.529 1286.98 -771.93C1295 -770.504 1301.77 -764.894 1309.59 -762.629C1349.31 -751.058 1397.39 -740.776 1433.38 -718.584C1499.5 -677.799 1560.14 -626.198 1629.53 -590.525C1684.76 -562.133 1745.54 -554.235 1798.62 -521.974C1821.46 -508.104 1833.21 -495.166 1849.02 -477.729L1828.28 -268.244C1825.31 -269.003 1822.32 -269.722 1819.32 -270.441C1797.96 -275.551 1776.33 -280.735 1761.95 -298.966C1745.9 -319.356 1752.16 -352.641 1774.91 -382.992L1775.7 -384.043C1801.23 -418.622 1797.91 -436.605 1762.44 -462.032C1744.79 -474.715 1726.23 -487.873 1706.01 -490.488L1706.3 -490.459C1641.83 -514.599 1578.29 -540.025 1517.63 -572.414C1515.81 -573.769 1514.01 -575.136 1512.24 -576.532C1496.68 -588.78 1482.54 -602.795 1466.82 -614.864C1457.98 -621.655 1447.15 -625.699 1438.72 -633.002C1407.96 -659.658 1432.57 -652.578 1400.1 -667.47L1398.27 -668.302C1378.37 -677.237 1341.91 -690.348 1323.59 -678.482C1305.59 -666.837 1324.35 -661.692 1299.32 -662.41C1285.43 -662.81 1271.81 -666.95 1257.93 -667.15C1256.48 -667.173 1255.46 -663.94 1256.59 -663.025L1258.75 -659.323C1238.11 -665.853 1216.19 -675.257 1208.25 -659.564L1207.01 -659.019C1191.17 -662.444 1174.78 -665.576 1157.82 -668.714L1152.2 -669.735C1121.7 -675.327 1068.97 -683.688 1031.79 -678.871L1007.97 -675.774C940.706 -666.978 987.003 -672.038 913.596 -648.75L911.103 -647.961C828.636 -622.036 819.439 -627.251 753.836 -567.884L748.473 -563.006C732.377 -548.255 700.977 -518.175 699.208 -496.88C698.717 -490.893 706.385 -486.419 706.672 -480.405C707.091 -471.69 698.542 -463.102 701.235 -454.803C702.609 -450.58 709.667 -458.225 712.878 -461.297C722.801 -470.771 727.696 -475.705 730.438 -477.987C787.219 -518.211 849.264 -546.706 917.317 -561.925C918.71 -562.302 920.022 -563.268 921.324 -564.226C921.894 -564.634 922.464 -565.042 923.043 -565.449C922.711 -565.946 922.389 -566.442 922.065 -566.966C921.322 -568.212 920.485 -569.399 919.561 -570.516C906.762 -584.426 917.845 -588.645 926.473 -591.928C927.534 -592.334 928.557 -592.72 929.492 -593.115L932.084 -594.251C955.778 -604.377 981.027 -608.261 1006.29 -612.148C1015.32 -613.539 1024.35 -614.929 1033.31 -616.6C1035.12 -617.069 1036.87 -617.749 1038.52 -618.624C1039.33 -619.009 1040.14 -619.393 1040.95 -619.735C1040.05 -619.991 1039.15 -620.308 1038.25 -620.619C1036.16 -621.356 1034.04 -622.095 1031.9 -622.117C983.606 -623.008 936.417 -615.362 889.632 -604.338L889.266 -604.253C888.029 -603.953 886.651 -603.584 885.215 -603.15C878.797 -601.315 871.2 -599.147 869.629 -603.542C867.502 -609.487 874.992 -612.924 881.155 -615.75C882.356 -616.299 883.509 -616.83 884.526 -617.347L886.413 -618.303C947.482 -648.895 1013.63 -656.317 1080.63 -658.876L1084.77 -659.027C1183.74 -662.563 1271.57 -633.213 1349.73 -571.747C1356.66 -566.293 1364.09 -561.425 1371.48 -556.593C1392.53 -542.799 1413.34 -529.149 1422.02 -502.45C1427.86 -484.437 1427.66 -465.953 1427.46 -447.475C1427.36 -438.76 1427.27 -430.049 1427.81 -421.383L1427.85 -420.715C1429.11 -401.246 1434.14 -384.483 1455.52 -377.421L1455.84 -377.31C1460.32 -375.641 1459.49 -371.586 1455.42 -368.911C1427.63 -350.907 1403.74 -360.986 1399.12 -392.594C1406.94 -417.497 1408.82 -443.637 1398.14 -467.873C1396.24 -472.138 1392.38 -475.297 1388.71 -478.191C1387.12 -479.457 1385.51 -480.719 1383.91 -481.977L1382.77 -482.86L1381.33 -483.983L1379.8 -485.17L1378.4 -486.237L1376.82 -487.443L1375.41 -488.511L1373.82 -489.723L1372.43 -490.766L1370.77 -492.003L1369.43 -492.994L1367.58 -494.347L1366.42 -495.191C1365.42 -495.917 1364.41 -496.644 1363.39 -497.349L1362.87 -498.914C1343.02 -557.958 1280.32 -614.443 1211.55 -631.922C1180.19 -639.993 1147.93 -644.089 1115.54 -644.113C1113.48 -644.061 1111.42 -643.435 1109.37 -642.811C1108.45 -642.53 1107.54 -642.254 1106.63 -642.033L1108.46 -641.266C1110.28 -640.45 1112.14 -639.749 1114.04 -639.168C1117.34 -638.182 1120.67 -637.235 1123.97 -636.29C1143.55 -630.711 1163.14 -625.131 1179.23 -611.499C1181.19 -609.799 1182.34 -607.114 1183.48 -604.428C1184.03 -603.158 1184.57 -601.887 1185.2 -600.72C1184.02 -600.242 1182.84 -599.617 1181.65 -598.996C1179.14 -597.684 1176.63 -596.359 1174.11 -596.358C1160.65 -596.386 1147.16 -596.895 1133.67 -597.404C1096.37 -598.814 1059.03 -600.221 1022.12 -591.493C1020.69 -591.17 1019.14 -590.859 1017.53 -590.554C1010.62 -589.279 1002.87 -587.827 1002.24 -580.767C1002.06 -579.218 1002.36 -577.652 1003.09 -576.276C991.863 -577.387 980.554 -577.409 969.323 -576.342C966.932 -576.114 964.474 -575.814 962.392 -574.618C960.309 -573.422 958.683 -571.113 959.023 -568.739C967.246 -565.701 976.009 -564.402 984.759 -564.923C989.374 -565.2 994.075 -565.974 998.556 -564.853C1000.6 -564.343 1002.54 -563.446 1004.59 -562.983C1010 -561.756 1015.71 -563.591 1021.16 -562.587C1025.77 -561.736 1029.74 -558.951 1033.97 -556.935C1035.58 -556.172 1037.7 -555.596 1038.94 -556.851C1039.86 -557.772 1039.79 -559.312 1039.13 -560.454L1040.03 -560.119C1066.81 -550.006 1093.61 -539.881 1116.96 -522.446C1162.02 -488.9 1161.77 -443.351 1114.65 -413.003C1110.3 -410.211 1105.94 -407.365 1101.55 -404.494L1101.5 -404.462C1060.71 -377.823 1017.79 -349.794 968.913 -355.469C933.71 -359.563 898.863 -358.25 864.123 -356.944C835.47 -355.867 806.883 -354.793 778.205 -356.751C769.828 -357.301 758.282 -358.63 757.562 -368.243C756.857 -377.019 763.429 -386.282 771.634 -391.491C781.936 -398.04 793.003 -403.268 804.07 -408.496C821.165 -416.554 838.255 -424.65 852.478 -437.598C861.943 -446.11 868.506 -459.074 862.888 -470.653C858.153 -480.371 846.948 -477.552 837.649 -475.218C836.821 -475.012 836.006 -474.805 835.216 -474.614L832.454 -473.959C793.451 -464.579 759.683 -444.205 727 -421.839L723.842 -419.672C723.104 -419.221 722.323 -418.844 721.511 -418.547C721.027 -418.349 720.543 -418.146 720.056 -417.915C720.208 -418.235 720.348 -418.569 720.488 -418.908C720.814 -419.875 721.322 -420.77 721.984 -421.546C781.035 -481.558 878.311 -529.817 972.375 -509.117L972.748 -509.034L974.263 -508.722C980.057 -507.549 986.621 -506.216 988.19 -498.474L988.099 -497.554L984.575 -495.545C975.949 -490.627 967.387 -485.75 958.815 -480.73C957.615 -479.917 956.514 -478.966 955.535 -477.897V-477.897C955.136 -477.472 954.746 -477.098 954.346 -476.724C955.119 -476.741 955.908 -476.695 956.693 -476.645C958.272 -476.554 959.846 -476.458 961.307 -476.866C965.182 -477.931 969.168 -479.259 973.201 -480.601C989.79 -486.123 1007.17 -491.905 1020.83 -480.792L1021.54 -480.225C1041.27 -464.663 1056.33 -472.225 1071.86 -480.016C1074.74 -481.463 1077.64 -482.912 1080.58 -484.232L1081.07 -484.458C1094.03 -490.46 1093.22 -500.123 1083.41 -509.146C1049.93 -539.878 1008.18 -545.03 965.485 -545.366L963.503 -545.377C898.124 -545.582 836.811 -530.016 786.965 -486.245L785.491 -484.966C777.522 -478.103 769.104 -471.73 760.696 -465.398C744.18 -452.928 727.685 -440.478 714.648 -424.213L713.78 -423.143C712.496 -421.571 711.174 -419.988 709.846 -418.392C697.152 -403.161 683.443 -386.717 690.32 -365.764C697.238 -344.519 717.368 -339.99 736.721 -335.632C739.573 -334.987 742.412 -334.349 745.19 -333.66L746.522 -333.329C749.901 -332.469 753.301 -331.687 756.713 -330.927C756.557 -330.852 756.406 -330.774 756.258 -330.693C755.038 -329.997 755.225 -328.088 756.584 -327.745L756.814 -327.722L783.45 -325.266C785.112 -324.888 786.776 -324.495 788.441 -324.089C791.038 -323.498 793.38 -321.079 795.35 -318.836L796.02 -318.059C796.36 -317.742 793.754 -313.928 791.875 -312.726C749.866 -285.312 647.898 -290.766 609.785 -322.399C591.666 -337.44 582.37 -357.741 575.244 -379.373L573.824 -383.786C551.063 -453.51 533.773 -457.98 473.006 -413.27C440.216 -389.122 411.729 -360.703 385.58 -329.667L385.355 -329.41C384.955 -328.935 384.542 -328.428 384.129 -327.911C381.23 -324.335 377.913 -320.229 373.442 -322.255C370.774 -323.448 369.377 -330.811 369.886 -335.019C374.775 -375.014 392.434 -409.204 417.986 -439.835L418.24 -439.536C417.073 -437.602 415.903 -435.672 414.727 -433.746C402.742 -414.038 390.741 -394.309 386.002 -371.167C385.852 -370.49 385.67 -369.779 385.487 -369.055C384.404 -364.83 383.204 -360.073 387.586 -358.14C390.254 -356.947 396.19 -360.622 399.328 -363.477L403.506 -367.215C435.537 -395.844 468.346 -423.519 505.677 -445.318C543.008 -467.118 564.17 -458.517 577.723 -417.532C579.403 -412.462 580.961 -407.326 582.519 -402.199C590.572 -375.678 598.62 -349.097 623.511 -331.501C624.779 -330.572 626.097 -329.763 627.439 -328.967L629.446 -327.765C640.732 -320.997 652.742 -316.845 666.106 -317.003C663.092 -318.119 660.037 -319.155 656.978 -320.191C650.316 -322.453 643.632 -324.721 637.331 -327.82C622.41 -335.152 612.59 -345.945 605.447 -358.544C609.37 -354.32 613.955 -350.681 618.618 -347.178L618.947 -346.931L620.762 -345.568C626.083 -341.582 631.478 -337.542 637.609 -334.985C645.298 -331.753 653.758 -330.957 662.064 -330.2C679.169 -328.641 696.694 -327.119 713.275 -331.574C704.935 -337.6 694.97 -340.969 684.683 -341.24C674.029 -341.496 662.695 -338.49 653.021 -343.014C652.639 -343.191 652.263 -343.382 651.898 -343.59L651.533 -343.798C651.291 -343.933 651.049 -344.068 650.818 -344.212L650.38 -344.483C650.17 -344.615 649.965 -344.747 649.761 -344.888C649.557 -345.029 649.475 -345.093 649.327 -345.195L648.76 -345.609L648.329 -345.949C648.148 -346.092 647.972 -346.235 647.801 -346.382C647.63 -346.529 647.527 -346.623 647.373 -346.749C647.218 -346.876 647.036 -347.048 646.875 -347.203C646.713 -347.358 646.612 -347.461 646.481 -347.59C646.35 -347.719 646.164 -347.905 646.008 -348.064L645.631 -348.473C645.48 -348.636 645.329 -348.8 645.184 -348.981L644.822 -349.407L644.408 -349.912L644.062 -350.36C643.926 -350.536 643.796 -350.716 643.651 -350.897L643.321 -351.357C643.19 -351.542 643.065 -351.726 642.939 -351.915C642.814 -352.104 642.734 -352.228 642.635 -352.41C642.537 -352.591 642.391 -352.796 642.27 -352.989C642.15 -353.182 642.075 -353.31 641.98 -353.482L641.637 -354.092C641.546 -354.254 641.455 -354.412 641.369 -354.583C641.284 -354.754 641.142 -355.009 641.034 -355.224L640.79 -355.713C640.677 -355.937 640.57 -356.166 640.462 -356.395L640.246 -356.881C640.131 -357.129 640.025 -357.367 639.916 -357.633L639.734 -358.046L639.333 -359.014L639.256 -359.212C639.1 -359.613 638.955 -360.017 638.809 -360.422C638.766 -360.547 638.726 -360.667 638.688 -360.791C638.59 -361.075 638.489 -361.364 638.397 -361.651C638.343 -361.81 638.298 -361.972 638.244 -362.131L638.013 -362.887L637.861 -363.418L637.659 -364.143L637.519 -364.696C637.456 -364.934 637.396 -365.173 637.339 -365.41C637.293 -365.601 637.246 -365.791 637.205 -365.981C637.163 -366.171 637.094 -366.456 637.042 -366.684L636.919 -367.267C636.868 -367.5 636.822 -367.741 636.774 -367.964C636.727 -368.187 636.697 -368.357 636.661 -368.556C636.625 -368.754 636.573 -369.029 636.531 -369.256L636.431 -369.842C636.389 -370.078 636.352 -370.314 636.315 -370.545C636.277 -370.776 636.256 -370.936 636.224 -371.13L636.127 -371.836L636.046 -372.424L635.962 -373.12C635.935 -373.317 635.912 -373.515 635.89 -373.707C635.867 -373.9 635.839 -374.177 635.815 -374.411L635.761 -374.983C635.738 -375.222 635.714 -375.452 635.697 -375.7C635.68 -375.947 635.664 -376.07 635.65 -376.257C635.587 -377.071 635.533 -377.884 635.496 -378.687C635.457 -379.559 635.343 -380.426 635.154 -381.279L635.159 -381.334C635.799 -395.813 639.986 -410.108 642.725 -424.449C644.084 -431.558 645.074 -438.791 644.693 -446.017C643.803 -462.249 635.942 -477.347 633.824 -493.469C633.295 -497.166 633.268 -500.917 633.744 -504.621C633.991 -505.215 634.25 -505.809 634.519 -506.401C634.603 -506.597 634.697 -506.792 634.786 -506.988C634.964 -507.383 635.148 -507.783 635.335 -508.173L635.669 -508.869L636.192 -509.931C636.314 -510.175 636.439 -510.413 636.561 -510.656L637.093 -511.672L637.486 -512.403C637.668 -512.738 637.854 -513.068 638.049 -513.402C638.18 -513.64 638.314 -513.877 638.449 -514.114C638.651 -514.466 638.858 -514.812 639.059 -515.159C639.187 -515.374 639.311 -515.598 639.438 -515.799C639.761 -516.338 640.092 -516.872 640.423 -517.401L640.456 -517.449L641.135 -518.496L641.475 -519.02L641.622 -519.242C641.786 -519.486 641.954 -519.729 642.121 -519.968C642.289 -520.207 642.443 -520.447 642.61 -520.686L642.833 -521.007C643.149 -521.44 643.48 -521.914 643.807 -522.364L644.081 -522.741L644.37 -523.121C644.6 -523.428 644.825 -523.731 645.059 -524.032C645.161 -524.171 645.267 -524.304 645.376 -524.465L645.689 -524.857C645.912 -525.141 646.13 -525.426 646.359 -525.719L646.703 -526.149C646.773 -526.24 646.846 -526.326 646.92 -526.411C647.179 -526.729 647.447 -527.046 647.705 -527.359C647.822 -527.501 647.942 -527.638 648.064 -527.788C648.285 -528.05 648.514 -528.306 648.74 -528.566C648.86 -528.703 648.976 -528.84 649.098 -528.995L649.448 -529.388L649.63 -529.588C649.923 -529.915 650.22 -530.243 650.522 -530.572L650.843 -530.907C651.108 -531.192 651.363 -531.478 651.651 -531.756L651.988 -532.113L652.132 -532.252C653.51 -533.663 654.927 -535.022 656.385 -536.33L656.507 -536.438C656.858 -536.752 657.219 -537.06 657.575 -537.373L658.134 -537.861C658.158 -537.876 658.18 -537.894 658.199 -537.914C658.498 -538.163 658.801 -538.412 659.1 -538.666L659.798 -539.242C659.97 -539.383 660.146 -539.519 660.303 -539.656L660.707 -539.978C660.964 -540.18 661.212 -540.393 661.477 -540.585L662.24 -541.164L662.38 -541.266L663.208 -541.89L663.738 -542.265L664.098 -542.531L664.972 -543.145L665.206 -543.308L665.854 -543.754L666.769 -544.365L667.166 -544.627L667.661 -544.936L668.612 -545.538L668.661 -545.566L669.478 -546.075L670.466 -546.673L671.319 -547.174L672.366 -547.767C672.641 -547.921 672.917 -548.074 673.196 -548.223C673.569 -548.428 673.945 -548.613 674.319 -548.822L674.52 -548.928L675.097 -549.228C675.523 -549.446 675.947 -549.655 676.377 -549.868C676.592 -549.972 676.807 -550.085 677.026 -550.189C677.676 -550.502 678.326 -550.804 678.973 -551.096C683.834 -553.29 688.939 -555.05 693.508 -557.815C698.783 -561.007 703.18 -565.419 707.85 -569.438C716.933 -577.252 727.148 -583.644 738.148 -588.395C741.456 -589.823 745.04 -591.27 747.006 -594.288C748.972 -597.306 748.063 -602.388 744.538 -603.131C727.791 -593.929 710.405 -585.941 692.513 -579.231C688.043 -577.556 683.406 -575.879 679.891 -572.647C677.194 -570.17 675.338 -566.946 673.266 -563.933C662.192 -547.85 644.871 -537.744 632.387 -522.942C620.23 -508.536 610.846 -490.813 600.743 -474.922C597.536 -469.876 594.324 -464.771 592.188 -459.188C589.484 -452.133 588.574 -444.544 587.674 -437.046C586.713 -428.937 585.751 -420.772 586.352 -412.633C586.365 -412.432 586.387 -412.23 586.403 -412.024C584.328 -419.524 582.167 -427.014 579.591 -434.331C575.126 -446.92 570.132 -456.042 564.079 -461.869L564.313 -461.651C555.326 -478.281 543.623 -485.882 529.202 -484.453C523.383 -483.877 517.539 -477.983 512.157 -479.858C511.262 -480.193 510.818 -480.404 510.524 -481.283C509.805 -483.634 512.885 -488.055 514.725 -490.552L514.88 -490.76C518.416 -495.58 522.847 -499.674 527.933 -502.817C526.497 -498.864 526.38 -494.501 529.295 -492.801C535.414 -489.228 543.183 -500.54 549.869 -498.193C556.212 -495.949 555.75 -485.418 561.219 -481.524C565.072 -478.788 573.763 -475.638 575.326 -480.127C577.547 -486.468 568.785 -492.044 567.189 -498.577C566.45 -501.617 565.972 -506.126 568.572 -507.851C576.689 -513.344 595.285 -516.215 612.184 -528.188C629.082 -540.162 642.068 -555.493 657.504 -577.924C667.744 -584.557 677.636 -591.281 686.969 -598.078C686.472 -597.747 685.975 -597.42 685.446 -597.101C688.24 -599.146 690.963 -601.23 693.653 -603.313L694.489 -603.969L693.804 -603.763C718.473 -611.21 741.695 -622.343 764.923 -633.485C780.524 -640.981 796.18 -648.475 812.259 -654.856C919.542 -697.309 1031.71 -715.472 1146.05 -723.601L1150.81 -723.947C1193.65 -727.134 1208.68 -751.648 1176.92 -746.309C1022.05 -720.343 867.281 -694.381 717.581 -641.261C706.647 -637.38 695.682 -633.6 684.726 -629.828C615.528 -605.993 546.843 -582.33 489.834 -534.318C424.616 -479.361 367.411 -417.406 348.392 -330.182C340.365 -293.093 345.083 -258.355 375.11 -231.205C377.188 -229.3 380.037 -228.302 382.905 -227.299L383.228 -227.183C383.65 -227.036 384.101 -226.989 384.545 -227.044C384.989 -227.1 385.414 -227.257 385.787 -227.503C386.161 -227.75 386.472 -228.079 386.698 -228.465C386.923 -228.851 387.057 -229.284 387.088 -229.731L387.092 -229.772C387.278 -232.447 387.457 -235.103 386.964 -237.627C375.379 -297.501 439.998 -390.397 500.54 -400.89C530.089 -406.053 545.054 -387.196 557.531 -366.58L559.403 -363.446C583.399 -323.535 615.569 -295.049 661.809 -283.868C663.013 -283.562 664.087 -282.778 665.165 -281.989C665.702 -281.597 666.239 -281.205 666.796 -280.871C666.188 -280.685 665.588 -280.443 664.984 -280.205C663.835 -279.666 662.605 -279.317 661.344 -279.173C650.072 -278.297 639.425 -281.25 628.936 -284.815L626.767 -285.564C625.539 -285.959 624.27 -286.275 623.003 -286.563C622.141 -286.769 621.279 -286.975 620.439 -287.207C621.202 -286.667 621.934 -286.13 622.656 -285.539C623.723 -284.647 624.861 -283.841 626.057 -283.131C631.588 -279.993 637.154 -276.888 642.733 -273.772C646.547 -271.649 650.36 -269.518 654.172 -267.379L654.612 -267.136C660.599 -263.724 664.339 -260.136 664.743 -251.418L664.776 -250.951C665.457 -243.157 673.659 -243.32 680.284 -243.453L680.722 -243.461L681.308 -243.473L681.912 -243.478L685.26 -243.476C730.627 -243.557 773.612 -255.975 816.551 -268.383C822.106 -269.999 827.661 -271.594 833.215 -273.168L838.947 -274.783L840.098 -275.101L841.316 -275.444L843.531 -276.061C864.018 -281.745 884.658 -287.474 902.167 -300.514C914.078 -309.434 916.014 -320.544 907.097 -332.528L906.786 -332.954C900.318 -341.855 904.517 -345.107 912.852 -346.993L913.645 -347.165C924.291 -349.362 934.837 -347.129 945.232 -344.915C955.81 -342.665 966.232 -340.445 976.439 -342.986C1040.21 -358.995 1100.12 -384.558 1144.26 -435.395C1166.55 -461.047 1156.17 -493.862 1122.31 -522.594C1104.03 -538.041 1082.87 -548.49 1061.68 -558.955C1055.8 -561.859 1049.93 -564.762 1044.11 -567.762C1043.44 -568.102 1042.73 -568.437 1042.01 -568.778C1037.32 -570.983 1032.07 -573.476 1032.64 -579.178C1033.32 -585.202 1039.29 -586.315 1044.47 -587.292L1044.89 -587.372L1048.37 -588.048C1089.93 -595.88 1131.13 -590.793 1172.32 -584.565L1176.31 -583.961C1187.74 -582.179 1199.04 -580.507 1210.49 -579.095L1211.58 -578.987C1216.73 -578.361 1222.48 -577.661 1225.49 -582.717C1227.96 -586.874 1225.77 -590.676 1223.62 -594.408C1222.97 -595.545 1222.32 -596.678 1221.8 -597.81C1221.27 -599.043 1220.54 -600.396 1219.8 -601.765C1217.93 -605.242 1216 -608.827 1217.06 -610.784C1219.18 -614.753 1223.88 -613.651 1228.21 -612.624C1229.23 -612.384 1230.23 -612.145 1231.18 -611.982L1232.64 -611.712C1280.9 -602.471 1329.76 -556.257 1349.98 -506.765L1349.85 -506.852L1347.3 -508.465L1346.14 -509.188L1344.98 -509.907L1344.75 -510.441C1330.67 -542.172 1306.63 -567.031 1273.22 -585.23C1263.9 -590.332 1256.35 -590.884 1256.09 -575.164L1256.08 -574.428C1255.41 -553.92 1241.44 -557.305 1229.75 -560.125C1227.82 -560.589 1225.96 -561.038 1224.24 -561.362L1217.63 -562.657C1213.38 -563.502 1209.12 -564.361 1204.84 -565.232L1204.77 -565.24C1196.21 -566.979 1187.66 -568.712 1179.09 -570.29L1171.45 -572.268L1165.61 -573.797L1163.87 -574.258L1159.07 -575.527L1157.26 -576.013L1152.02 -577.427L1150.7 -577.786C1148.46 -578.393 1146.23 -579.004 1143.97 -579.632C1140.87 -580.409 1137.71 -580.942 1134.52 -581.226C1124.8 -582.231 1111.99 -582.13 1105.41 -579.326C1104 -578.724 1103.04 -577.374 1102.38 -575.862L1099.04 -575.691C1093.48 -575.372 1087.63 -574.573 1086.05 -568.74C1084.53 -563.091 1089.54 -559.605 1094.12 -556.421C1095.24 -555.636 1096.34 -554.873 1097.31 -554.1L1098.9 -552.836C1101.71 -550.622 1104.54 -548.439 1107.36 -546.255C1120.1 -536.408 1132.81 -526.602 1143.6 -514.32C1169.01 -485.495 1171.12 -450.649 1143.91 -423.701C1100.11 -380.302 1044.72 -355.559 988.469 -332.861L981.047 -329.882C978.152 -328.775 974.645 -327.925 971.835 -328.57C951.564 -332.94 927.996 -316.348 913.04 -295.709C911.179 -293.14 914.057 -289.805 916.88 -291.257C937.038 -301.644 958.64 -320.418 973.321 -321.579C985.582 -322.547 997.94 -323.519 1008.43 -330.318L1011.91 -332.551C1027.84 -342.581 1044.56 -351.42 1061.28 -360.262L1061.3 -360.26C1074.85 -367.425 1088.4 -374.594 1101.54 -382.394C1100.91 -379.419 1102.68 -376.621 1104.91 -374.858L1102.41 -373.392L1095.37 -369.317C1091.1 -366.836 1086.83 -364.346 1082.55 -361.847C1055.02 -345.731 1027.31 -329.508 997.966 -317.546C971.426 -306.708 945.358 -294.608 919.277 -282.499C854.546 -252.437 789.812 -222.347 717.582 -211.739C652.308 -202.085 591.481 -207.458 540.133 -254.225C537.247 -256.92 534.416 -260.163 532.633 -263.678C532.245 -264.454 531.816 -265.231 531.401 -266.01C528.12 -272.167 520.113 -283.871 527.429 -285.96L533.45 -282.81C537.209 -280.117 537.04 -277.148 541.711 -272.966C542.759 -272.064 543.891 -271.26 545.027 -270.451C545.487 -270.122 545.951 -269.793 546.406 -269.46C546.484 -269.402 546.576 -269.364 546.672 -269.351C546.769 -269.337 546.867 -269.348 546.958 -269.383C547.05 -269.417 547.131 -269.474 547.194 -269.548C547.258 -269.622 547.302 -269.71 547.322 -269.806C547.406 -270.183 547.494 -270.559 547.583 -270.936C547.994 -272.384 548.215 -273.879 548.241 -275.384C548.121 -283.545 550.093 -287.519 559.861 -284.885L561.786 -284.341C568.944 -282.309 577.894 -279.761 582.618 -286.337C586.794 -292.178 582.425 -297.472 578.332 -302.427C577.16 -303.853 576.007 -305.244 575.088 -306.616C563.481 -324.161 551.869 -341.705 539.366 -358.503C522.843 -380.703 501.66 -382.987 479.025 -368.74C451.337 -351.196 428.253 -328.659 411.355 -300.319C399.135 -279.794 397.619 -259.231 406.185 -239.717C410.554 -220.577 425.602 -202.618 451.227 -185.538C479.541 -166.692 510.707 -155.866 542.443 -146.627C544.133 -145.457 545.583 -143.734 547.025 -142.027C547.495 -141.47 547.96 -140.917 548.436 -140.378C548.674 -140.117 548.801 -139.773 548.789 -139.419C548.778 -139.066 548.629 -138.731 548.374 -138.485C547.815 -137.951 547.266 -137.378 546.711 -136.793C544.966 -134.969 543.221 -133.145 541.195 -132.668C496.084 -121.663 445.261 -113.844 410.634 -144.203C375.919 -174.571 341.431 -211.909 329.266 -261.282C319.313 -301.776 327.852 -339.993 344.247 -376.384L344.09 -376.153ZM978.064 -395.651C942.281 -397.689 892.668 -439.98 869.978 -412.231L867.533 -408.499C852.443 -390.027 879.639 -392.851 897.873 -390.172C910.731 -388.267 923.891 -384.387 936.981 -381.155L934.847 -381.831L933.599 -382.224C939.592 -380.33 945.561 -378.481 951.168 -376.769L967.713 -371.718C968.325 -371.532 968.959 -371.424 969.599 -371.397C1006.74 -369.962 1033.92 -384.993 1060.33 -401.48L1066.04 -405.053C1066.38 -405.218 1066.53 -405.729 1066.67 -406.239C1066.73 -406.442 1066.79 -406.645 1066.86 -406.824C1066.46 -406.807 1066.06 -406.812 1065.67 -406.839C1065.01 -406.923 1064.33 -406.866 1063.69 -406.673C1050.61 -401.964 1037.29 -397.972 1023.77 -394.714L1026.09 -395.877C1026.43 -396.049 1026.73 -396.302 1026.95 -396.616C1027.17 -396.929 1027.32 -397.292 1027.36 -397.674C1027.41 -398.055 1027.37 -398.442 1027.23 -398.802C1027.09 -399.161 1026.87 -399.481 1026.58 -399.734C1013.37 -411.099 994.053 -394.787 978.084 -395.714L978.064 -395.651ZM1083.82 -521.056C1104.49 -508.01 1118.67 -484.714 1082.82 -466.747C1060.83 -455.724 1035.37 -453.514 1012.24 -445.101C1005.4 -442.608 1006.69 -433.607 1012.78 -430.868C1019.67 -427.728 1026.94 -425.484 1034.4 -424.19L1034.4 -424.144L1034.69 -423.994L1037.7 -422.429L1039.15 -421.677L1041.63 -420.373C1080.89 -417.228 1130.24 -442.072 1136.98 -466.97C1141.66 -484.382 1119.61 -516.209 1101.52 -517.907C1101.04 -517.931 1100.56 -517.872 1100.11 -517.731L1099.63 -517.629L1099.32 -517.568C1099.39 -517.277 1099.47 -516.972 1099.54 -516.663C1099.73 -515.679 1100.06 -514.727 1100.52 -513.836C1101 -513.041 1101.46 -512.266 1101.91 -511.502L1100.92 -513.165C1096.85 -515.959 1092.55 -517.709 1086.73 -519.956L1083.74 -521.097L1083.82 -521.056Z" fill="#4195C4"/>
</g>
<path d="M1144.73 -12.1359C1129.83 -15.3981 1114.08 -27.7258 1091.74 -35.6408C1075.45 -41.4166 1056.43 -44.42 1039.68 -49.8676C1025.36 -54.5159 1010.28 -63.5538 999.083 -68.2206C986.722 -73.3725 978.673 -74.1996 973.11 -77.3462L972.856 -77.4802L973.466 -77.1291C977.098 -75.0637 980.711 -73.5712 984.777 -71.8939C990.903 -69.4705 996.868 -66.6585 1002.64 -63.4752C1005.92 -61.627 1009.76 -59.021 1013.82 -56.2394C1020.92 -51.3832 1028.72 -46.051 1035.44 -43.6576C1043.57 -40.7697 1052.28 -39.1848 1060.86 -37.6231C1073.17 -35.3821 1085.21 -33.1919 1094.86 -27.2499C1123.87 -9.40055 1156.32 1.60106 1180.45 1.60106C1212.4 1.60106 1245.89 2.71 1270.46 4.37341C1259.76 0.486982 1248.83 -2.78054 1237.75 -5.41298C1209.23 -12.0528 1178.36 -4.7661 1144.73 -12.1313" fill="#4195C4"/>
<path d="M228.974 -764.811C196.547 -713.06 227.551 -656.453 240.355 -605.724C243.834 -591.95 243.709 -577.335 248.016 -563.801C251.934 -551.488 260.413 -541.027 264.807 -528.879L268.966 -517.365C276.063 -497.533 268.222 -486.125 270.684 -478.237L271.248 -476.389L274.404 -469.819C277.296 -463.761 280.753 -444.539 284.879 -435.626L286.801 -431.468C310.005 -381.302 291.657 -340.41 299.988 -291.413C309.936 -232.889 314.88 -311.212 308.236 -218.33C304.752 -169.666 280.448 -115.582 252.378 -75.8261C248.473 -70.2814 241.723 -61.0402 235.355 -46.6147C228.988 -32.1893 221.207 18.4569 205.876 49.3871C201.294 58.586 195.248 66.9799 187.976 74.2413C205.183 65.9242 217.645 72.7026 230.689 79.786C237.185 83.3115 243.83 86.9201 251.273 88.7822C271.632 93.8649 278.327 78.2704 286.085 60.1854C287.42 57.0712 288.788 53.883 290.243 50.7132L291.167 48.7218C296.966 36.0059 301.009 11.7571 305.316 -14.0627C308.462 -32.9378 311.752 -52.6492 315.966 -69.311L316.59 -71.7276C320.42 -86.2871 332.332 -94.3685 344.23 -102.408C349.807 -106.188 355.384 -109.963 360.12 -114.422C384.013 -136.915 394.895 -171.851 383.921 -193.79C380.155 -201.183 373.502 -205.055 366.645 -208.538L361.507 -211.117C359.778 -211.932 358.005 -212.653 356.198 -213.275C350.426 -215.377 344.512 -217.535 344.72 -224.022C344.951 -231.336 352.187 -234.571 358.813 -236.96L362.648 -238.346C369.902 -241.03 377.614 -242.629 385.289 -244.219C387.373 -244.653 389.447 -245.083 391.527 -245.536L391.989 -245.637C393.213 -245.901 394.474 -246.099 395.736 -246.312C401.419 -247.236 407.163 -248.188 409.898 -254.389C413.192 -261.883 409.565 -268.25 405.665 -274.215L403.817 -277.025C397.196 -286.807 387.788 -293.996 376.616 -296.695L375.733 -296.916C351.341 -303.233 346.351 -321.322 340.936 -340.923C340.159 -343.732 339.379 -346.574 338.524 -349.416L337.877 -351.541C328.049 -382.961 316.266 -413.757 304.489 -444.526C288.843 -485.381 273.207 -526.231 262.159 -568.607L261.628 -570.617C258.292 -583.046 254.18 -595.286 250.077 -607.521C241.561 -632.87 233.045 -658.209 231.456 -685.216C228.434 -736.325 257.049 -778.705 313.439 -804.321L313.286 -804.252L308.545 -803.388C286.542 -799.322 266.401 -795.006 247.711 -786.754C240.49 -780.355 234.206 -772.971 229.044 -764.82" fill="#A4DFD9"/>
<path d="M446.65 -46.6378C438.689 -64.3115 428.251 -81.1628 424.194 -100.116C418.266 -127.794 426.44 -157.874 416.08 -184.211C415.295 -186.198 414.274 -188.3 412.351 -189.243C406.585 -192.075 402.879 -182.774 403.11 -176.347C404.795 -123.512 401.702 -70.6332 393.869 -18.3552C392.649 -10.2368 391.295 -2.04914 388.167 5.54248C383.417 17.0939 374.8 26.714 370.29 38.3486C367.667 45.2445 366.549 52.6216 367.01 59.9851C367.471 67.3486 369.502 74.5284 372.966 81.0428C384.018 87.6826 399.113 82.2534 407.426 72.3977C415.738 62.542 418.931 49.4796 421.874 36.9255C424.249 26.7879 426.626 16.6519 429.004 6.51742C429.438 4.66919 429.956 2.68234 431.416 1.47175C442.404 -7.61232 445.31 18.7527 455.997 1.13444C462.836 -10.1352 451.326 -36.3154 446.687 -46.6147" fill="#4CBEB3"/>
<path d="M575.518 -80.479C582.985 -72.5963 589.352 -64.0851 596.195 -55.6988C603.588 -46.6147 613.8 -40.5664 623.919 -35.1095C641.477 -25.6557 660.292 -18.0919 677.896 -8.34242C703.86 6.03684 728.048 14.1876 757.833 13.6885C782.613 13.2681 804.223 26.58 822.664 41.9665C831.383 49.2439 842.62 51.9747 853.03 55.6157C866.86 60.4581 880.782 65.8272 894.911 69.8471C910.931 74.403 936.316 81.9392 952.498 75.7522C955.386 74.6479 956.938 72.5178 955.238 69.6577C954.283 68.1003 953.131 66.673 951.809 65.4114C931.479 59.4785 911.499 51.7437 891.783 44.055C886.363 41.9434 880.846 39.7671 876.152 36.3941L875.283 36.1122C875.311 36.0106 875.334 35.9089 875.362 35.8073C874.816 35.3914 874.282 34.9571 873.758 34.5043C868.477 29.8837 865.035 23.5812 860.95 17.8702C856.119 11.1464 850.317 5.17641 843.734 0.154841C830.796 3.08891 818.612 5.61637 805.72 3.41235C793.402 1.30998 786.115 -6.18922 776.458 -14.2937C762.527 -25.9838 746.729 -36.6389 731.153 -45.6305C717.476 -53.5317 700.819 -56.0361 685.299 -59.4923C667.066 -63.563 649.563 -68.3638 632.13 -75.0359C615.759 -81.3014 600.816 -88.7775 585.72 -97.7322C575.417 -103.85 554.129 -116.182 550.974 -113.803C547.818 -111.423 569.391 -86.9663 575.541 -80.4697" fill="#A4DFD9"/>
<path d="M1515.34 34.4627C1512.97 34.0238 1510.48 33.4554 1508.71 31.8197C1506.11 29.4263 1505.76 25.5126 1505.6 21.9825C1505.02 10.0152 1505.13 -3.6756 1514.03 -11.6831C1525.15 -21.6635 1542.33 -16.7657 1557.17 -15.0191C1578.1 -12.5748 1599.37 -17.7915 1620.29 -15.2409C1656.39 -10.8514 1686.62 15.8279 1722.55 21.4003C1733.01 23.0221 1744.15 22.9297 1753.36 28.1418C1756.35 29.8283 1759.34 33.1551 1757.94 36.2786C1757.12 38.1268 1755.08 39.0278 1753.2 39.7302C1718.43 52.7279 1677.37 47.3957 1647.07 25.947C1641.92 22.2967 1637.05 18.2075 1631.54 15.1117C1614.79 5.68108 1592.76 7.82503 1577.14 18.5771C1569.7 23.6875 1565.66 31.9029 1557.73 35.3637C1546.74 40.1506 1526.67 36.5651 1515.36 34.4627" fill="#A4DFD9"/>
<path d="M1081.93 41.6985L1198.6 61.2343C1207.38 62.7083 1216.42 64.2562 1224.14 68.7289C1231.15 72.7904 1236.72 79.0698 1243.94 82.7524C1251.83 86.7815 1260.99 87.373 1269.85 87.5439C1301.16 88.1883 1332.43 84.8942 1362.91 77.7391C1370.47 75.9647 1379.5 72.2359 1380.09 64.5057C1380.75 56.0315 1370.74 51.0737 1362.38 49.535C1330.78 43.7269 1297.85 52.0578 1266.27 46.1897C1241.47 41.5691 1219.07 28.5206 1194.82 21.599C1172.05 15.1024 1148.15 14.1321 1124.48 13.2033L1054.46 10.4587C1043.71 10.0382 1032.83 9.59467 1022.57 6.40647C1009.24 2.27105 997.775 -6.20772 986.071 -13.7947C959.966 -30.6876 931.53 -43.6703 901.667 -52.3304C911.629 -28.3449 933.831 -9.82102 959.216 -4.35025C985.262 1.273 992.327 12.0112 1014.24 23.5119C1034.84 34.324 1059.3 37.905 1081.96 41.6985" fill="#A4DFD9"/>
<path d="M745.292 -72.8134C756.433 -59.1273 774.952 -53.0789 786.041 -39.3465C789.876 -34.5966 792.718 -29.038 797.057 -24.7455C804.759 -17.1215 815.936 -14.5525 825.898 -10.2877C839.928 -4.25075 852.049 5.49309 860.959 17.8979C865.044 23.6043 868.486 29.9114 873.768 34.532C878.91 39.0324 885.421 41.6015 891.788 44.0827C931.608 59.6079 972.496 75.3548 1015.24 75.9648C1036.03 76.2605 1056.79 72.9475 1077.53 74.3198C1118.56 77.0367 1155.85 97.6445 1193.55 114.057C1231.25 130.469 1281.23 142.007 1312.96 129.069C1320.93 120.655 1273.84 123.663 1261.38 107.995C1254.77 99.6776 1249.01 90.3671 1242.48 81.9623C1235.96 78.2196 1230.68 72.5224 1224.16 68.7428C1216.44 64.2701 1207.42 62.736 1198.62 61.2482L1081.93 41.6985C1059.29 37.905 1034.8 34.3056 1014.21 23.5119C992.3 12.0066 985.235 1.27301 959.188 -4.35024C933.803 -9.83949 911.596 -28.3449 901.639 -52.3304C902.928 -51.9561 904.217 -51.5634 905.502 -51.1706C888.937 -59.9497 872.617 -69.1909 856.473 -78.6908C846.659 -84.4758 836.72 -90.4456 825.654 -93.1394C819.416 -94.6549 812.933 -95.0939 806.792 -96.9606C789.114 -102.334 783.736 -97.3441 784.152 -96.785C786.115 -94.0127 784.715 -92.3631 781.116 -92.2753C765.147 -91.8918 749.409 -101.863 742.941 -116.469C740.205 -122.642 738.99 -129.526 735.27 -135.164C731.551 -140.801 723.927 -144.844 718.022 -141.563C732.424 -121.316 729.638 -92.0813 745.325 -72.8134" fill="#4CBEB3"/>
<path d="M968.236 -80.1509L970.888 -78.6215L972.847 -77.4895L973.11 -77.3462C978.655 -74.1996 986.722 -73.3725 999.083 -68.2206C1010.28 -63.5538 1025.38 -54.5159 1039.68 -49.8676C1056.43 -44.4292 1075.45 -41.4166 1091.74 -35.6408C1114.08 -27.7258 1129.83 -15.3981 1144.73 -12.1359C1178.37 -4.77071 1209.23 -12.0574 1237.75 -5.41759C1248.84 -2.78515 1259.76 0.482375 1270.47 4.36881C1302.11 15.6846 1328.04 29.5418 1344.4 31.7412C1368.24 34.9478 1383.58 45.1408 1395.26 57.0481C1399.58 57.3854 1436.8 106.692 1453.04 106.692C1484.78 106.692 1502.26 91.6563 1512.87 49.3456C1513.12 48.3352 1513.38 47.3356 1513.64 46.3468C1513.38 47.3356 1513.12 48.3337 1512.86 49.3456C1513.12 48.3337 1513.38 47.331 1513.64 46.3376C1513.67 46.259 1513.69 46.1805 1513.71 46.1019C1513.97 45.1085 1514.25 44.1197 1514.52 43.1494V43.1078C1514.66 42.6134 1514.8 42.119 1514.94 41.6292C1515.09 41.1394 1515.23 40.6543 1515.37 40.1691V40.1183C1515.59 39.3882 1515.81 38.6582 1516.04 37.942C1515.81 38.6566 1515.59 39.3821 1515.37 40.1183C1515.64 39.2173 1515.91 38.3347 1516.19 37.4568C1516.28 37.1796 1516.37 36.907 1516.46 36.6297C1516.66 36.006 1516.86 35.3822 1517.07 34.7815L1516.87 35.3544L1517.07 34.7815L1515.32 34.4581C1512.95 34.0191 1510.46 33.4508 1508.68 31.8151C1506.08 29.4216 1505.74 25.508 1505.57 21.9779C1504.99 10.0105 1505.11 -3.68025 1514.01 -11.6877C1525.12 -21.6682 1542.31 -16.7704 1557.14 -15.0284C1578.07 -12.5749 1599.35 -17.8007 1620.27 -15.2456C1630.79 -13.9657 1640.8 -10.7959 1650.61 -6.80376L1652.6 -6.61432L1653.07 -6.56811C1654.02 -6.47108 1654.97 -6.37405 1655.93 -6.26777H1656.1C1656.97 -6.17074 1657.83 -6.07371 1658.7 -5.96744L1659.32 -5.89351L1661.78 -5.58394L1662.13 -5.53773C1663.06 -5.41297 1664.01 -5.27897 1664.95 -5.14497L1665.38 -5.0849L1667.75 -4.7245L1668.38 -4.62285C1669.27 -4.47961 1670.14 -4.33637 1671.03 -4.16079H1671.14C1672.06 -3.99907 1672.99 -3.83273 1673.93 -3.65715L1674.5 -3.55087C1675.25 -3.40763 1676 -3.25977 1676.75 -3.08881L1677.37 -2.96406C1679.22 -2.58517 1681.05 -2.1801 1682.86 -1.74884L1683.49 -1.59637L1685.72 -1.04189L1686.28 -0.898657C1687.21 -0.664547 1688.12 -0.419658 1689.03 -0.163985L1689.25 -0.0992905C1690.08 0.131739 1690.9 0.362758 1691.72 0.612269L1692.39 0.810965C1693.15 1.04199 1693.91 1.27917 1694.67 1.52252L1695.11 1.65653C1696.01 1.94608 1696.92 2.24643 1697.82 2.55755L1698.28 2.71464C1699.03 2.9734 1699.77 3.23984 1700.52 3.514L1701.19 3.75889C1702 4.05922 1702.82 4.36418 1703.63 4.683L1703.86 4.77542C1704.76 5.12658 1705.65 5.48699 1706.54 5.85664L1707.12 6.10153C1707.83 6.40956 1708.54 6.7176 1709.25 7.02564L1709.9 7.31212C1710.78 7.70487 1711.66 8.10685 1712.54 8.52271L1713.46 8.94781C1714.49 9.40679 1715.53 9.8211 1716.57 10.1907L1716.71 10.2416L1717.6 10.5465L1717.83 10.6205L1718.64 10.8746L1718.92 10.9578L1719.68 11.1749L1720 11.2627L1720.72 11.4522L1721.07 11.54L1721.77 11.7063L1722.14 11.7895L1722.81 11.9327L1723.21 12.0113L1723.87 12.1406L1724.27 12.2146L1724.93 12.3255L1725.34 12.3948L1725.99 12.4918L1726.41 12.5519L1727.05 12.635L1727.48 12.6859L1728.12 12.7598L1728.55 12.806L1729.19 12.8707L1729.65 12.9077L1730.28 12.9585L1730.74 12.9908L1731.37 13.0324L1731.83 13.0601L1732.42 13.0925H1732.88L1733.52 13.1202H1733.96H1734.6H1735.06H1735.71H1738.36H1739H1739.4H1740.12H1740.48L1741.24 13.0925H1741.57L1742.37 13.0601H1742.66L1743.53 13.0185H1743.75L1744.72 12.9677H1744.83C1745.69 12.9215 1746.55 12.8753 1747.41 12.8199L1749.1 12.7182L1751.04 12.5981L1751.42 12.575L1751.82 12.5519H1751.96L1752.54 12.5288H1753H1753.57H1754.6H1755.06H1755.6H1756.06L1756.6 12.5565L1757.02 12.5842L1757.55 12.6258L1757.93 12.6304L1758.44 12.6859L1758.84 12.7321L1759.34 12.8014L1759.72 12.8568L1760.21 12.94L1760.58 13.0047L1761.04 13.0971L1761.4 13.171L1761.86 13.2819L1762.2 13.3605L1762.66 13.4806L1762.98 13.573L1763.44 13.707L1763.75 13.7994L1764.21 13.9473L1764.51 14.0535L1764.95 14.2107L1765.24 14.3215L1765.67 14.4971L1765.94 14.608L1766.36 14.7975L1766.62 14.9176L1767.03 15.1209L1767.28 15.2457L1767.69 15.4582L1767.92 15.5876L1768.32 15.8186L1768.54 15.948L1768.94 16.1929L1769.14 16.3269L1769.53 16.5856L1769.73 16.7243L1770.11 16.9969L1770.29 17.1355C1770.42 17.2325 1770.54 17.3249 1770.66 17.4266L1770.84 17.5652C1770.97 17.6622 1771.09 17.7639 1771.21 17.8702L1771.37 18.0088L1771.73 18.3276L1771.88 18.4662C1772 18.5771 1772.12 18.688 1772.24 18.8035L1772.37 18.9375L1772.73 19.2933L1772.85 19.4227C1772.97 19.5474 1773.09 19.6722 1773.2 19.8016L1773.31 19.9217C1773.43 20.0557 1773.55 20.1851 1773.66 20.3191L1773.76 20.4392C1773.88 20.5732 1773.99 20.7118 1774.1 20.8504L1774.19 20.9613L1774.53 21.4003C1774.53 21.4326 1774.58 21.4696 1774.61 21.5019C1774.72 21.6544 1774.83 21.8069 1774.94 21.964C1774.94 21.9917 1774.98 22.0194 1775 22.0518C1775.12 22.2089 1775.23 22.3706 1775.34 22.5369L1775.39 22.6109C1775.51 22.7818 1775.62 22.9482 1775.73 23.1238L1775.76 23.1792C1775.88 23.3594 1775.99 23.5396 1776.1 23.7198L1776.12 23.7568C1776.23 23.9462 1776.35 24.1357 1776.46 24.3297C1779.61 29.8467 1781.25 36.7406 1782.66 43.7916L1783.75 49.3363L1782.66 43.8194C1782.71 44.457 1785.48 85.2521 1830.01 86.0977V-27.0188C1825.05 -26.2056 1820.09 -25.4432 1815.15 -24.8703C1795.74 -22.6108 1776.82 -23.2115 1760.73 -34.8369C1759.98 -35.3759 1759.23 -35.9412 1758.5 -36.5326C1757.39 -37.4167 1756.3 -38.3562 1755.23 -39.3512C1754.51 -40.0165 1753.8 -40.7081 1753.1 -41.4258C1752.39 -42.1435 1751.7 -42.8874 1751.01 -43.6575C1740.41 -55.5556 1733.94 -69.9949 1733.05 -85.0349C1732.99 -85.9251 1732.96 -86.8184 1732.95 -87.7148V-88.1769C1732.9 -94.6565 1733.9 -101.101 1735.9 -107.264C1736.03 -107.69 1736.18 -108.105 1736.32 -108.517L1736.45 -108.872C1736.56 -109.159 1736.66 -109.441 1736.77 -109.718C1736.82 -109.857 1736.87 -109.995 1736.93 -110.134C1737.03 -110.39 1737.13 -110.639 1737.23 -110.882C1737.29 -111.021 1737.35 -111.16 1737.41 -111.294C1737.52 -111.543 1737.62 -111.783 1737.73 -112.024L1737.9 -112.393L1738.29 -113.197C1738.33 -113.281 1738.37 -113.364 1738.41 -113.442C1738.58 -113.789 1738.76 -114.126 1738.94 -114.459L1739.01 -114.588C1739.17 -114.87 1739.33 -115.147 1739.48 -115.415L1739.66 -115.711C1739.79 -115.923 1739.91 -116.136 1740.04 -116.339C1740.11 -116.45 1740.18 -116.552 1740.25 -116.658C1740.38 -116.852 1740.51 -117.046 1740.64 -117.231L1740.84 -117.536C1740.98 -117.73 1741.12 -117.92 1741.26 -118.109L1741.45 -118.363C1741.63 -118.599 1741.81 -118.825 1741.99 -119.052L1742.07 -119.149C1742.29 -119.407 1742.5 -119.662 1742.72 -119.906C1742.77 -119.962 1742.82 -120.013 1742.87 -120.068C1743.03 -120.253 1743.2 -120.438 1743.37 -120.613L1743.6 -120.844L1744.06 -121.306L1744.3 -121.537L1744.77 -121.958L1745.01 -122.171C1745.17 -122.318 1745.34 -122.457 1745.51 -122.6L1745.71 -122.762C1746.17 -123.145 1746.67 -123.506 1747.17 -123.848L1747.38 -123.986C1747.56 -124.107 1747.74 -124.227 1747.92 -124.338L1748.18 -124.499C1748.35 -124.606 1748.52 -124.703 1748.68 -124.804L1748.96 -124.961L1749.48 -125.248L1749.74 -125.382C1749.94 -125.488 1750.14 -125.585 1750.35 -125.687L1750.53 -125.775L1751.34 -126.14L1751.45 -126.186C1751.68 -126.283 1751.91 -126.38 1752.15 -126.468L1752.41 -126.569L1752.98 -126.777L1753.27 -126.879L1753.82 -127.059L1753.99 -127.115L1754.13 -127.156L1754.71 -127.327L1754.98 -127.401C1755.22 -127.47 1755.44 -127.53 1755.7 -127.59L1755.83 -127.627L1756.7 -127.826L1756.94 -127.872L1757.57 -128.002L1757.9 -128.057L1758.46 -128.154L1758.81 -128.21L1759.37 -128.288L1759.71 -128.339L1760.31 -128.408L1760.62 -128.445L1761.44 -128.524H1761.64L1762.42 -128.584H1762.78L1763.34 -128.616H1763.74L1764.27 -128.639H1764.69H1765.21H1766.56H1767.46H1767.86H1768.41H1768.87H1769.33H1769.82L1770.28 -128.616L1770.78 -128.589L1771.25 -128.561L1771.76 -128.528L1772.16 -128.501L1773.49 -128.399H1773.58L1774.2 -128.344L1774.54 -128.316L1775.15 -128.26L1775.48 -128.228L1776.13 -128.168L1776.39 -128.14L1777.1 -128.066H1777.21C1779.1 -127.868 1781 -127.646 1782.89 -127.429L1784.61 -127.23L1785.07 -127.179L1787.38 -126.925H1787.58L1789.79 -126.703H1790.03C1790.81 -126.634 1791.58 -126.569 1792.34 -126.514L1796.17 -126.255C1797.1 -126.19 1797.99 -126.112 1798.9 -126.029L1799.51 -125.885L1801.68 -125.668L1802.28 -125.604C1804.1 -125.406 1805.92 -125.188 1807.74 -124.947L1808.29 -124.874L1810.6 -124.559L1811.06 -124.499C1815.34 -123.903 1819.62 -123.242 1823.89 -122.609L1824.99 -122.452L1826.31 -122.258L1827.7 -122.064L1828.94 -121.893L1830.01 -121.741V-247.388L1807.4 -229.405L1805.2 -227.682C1775.99 -204.999 1741.4 -190.213 1710.56 -169.846C1697.53 -161.247 1686.4 -150.046 1673.78 -140.879C1649.98 -123.603 1631.17 -111.109 1601 -106.294C1579.51 -102.866 1556.69 -109.14 1535.78 -103.124C1517.48 -97.8662 1504.64 -80.4836 1486.92 -73.5065C1467.65 -65.9195 1446.23 -65.5083 1426.27 -59.9128C1411.61 -55.8189 1398.03 -48.3197 1383.3 -44.5216C1316.16 -27.2314 1224.06 -23.4471 1158.93 -24.9026L1157.86 -24.9303C1127.3 -25.799 1131.24 -33.982 1104.17 -42.5347C1084.9 -48.6293 1064.86 -52.03 1045.49 -57.7457C1029.82 -62.3663 1014.99 -69.7592 999.101 -73.5065C989.121 -75.8584 978.465 -78.3489 967.681 -80.4605L968.249 -80.1324L968.236 -80.1509ZM1828.16 39.4852C1827.92 39.9785 1827.66 40.4597 1827.38 40.9269C1827.66 40.4597 1827.92 39.9785 1828.16 39.4852" fill="#4CBEB3"/>
<path d="M564.48 -25.8637C590.859 -14.0304 614.179 7.54772 635.461 32.4203C639.324 36.9346 641.468 40.9776 642.207 44.5494C658.375 49.032 674.1 54.9835 689.185 62.3294C698.051 66.6496 706.858 71.5058 716.557 73.2801C730.881 75.9046 745.491 71.5428 759.163 66.548C761.64 65.6469 764.246 64.635 765.9 62.5927C768.27 59.6864 768.15 55.477 767.286 51.8268C762.153 30.1424 737.715 19.4226 715.781 15.4304C692.678 11.2257 668.581 10.7636 646.786 2.03074C640.137 -0.639961 633.811 -4.04533 627.5 -7.44146C605.996 -19.0253 584.404 -30.6553 564.734 -45.1408C549.569 -56.3088 533.138 -69.8887 514.466 -67.4213C514.516 -66.3709 514.613 -65.3281 514.757 -64.2931C525.981 -50.8934 541.303 -36.2462 564.48 -25.8452" fill="#4CBEB3"/>
<path d="M564.48 -25.8637C503.83 -53.0744 496.968 -109.275 476.578 -96.8405C460.951 -87.3914 506.584 -25.6835 510.516 -9.33591C518.274 23.0082 477.821 69.6484 516.389 77.9146C554.957 86.1808 561.472 58.254 593.742 63.0964C626.012 67.9388 656.743 57.2791 635.461 32.4203C614.179 7.56158 590.859 -14.0304 564.48 -25.8637" fill="#A4DFD9"/>
<path d="M43.943 49.8538C45.3199 49.8252 46.6902 49.6549 48.0322 49.3455C67.2261 49.2023 65.5904 80.419 78.334 95.385C90.0241 109.113 106.566 116.478 133.665 106.692C152.37 99.9409 172.344 89.9235 187.967 74.1997C195.24 66.9378 201.287 58.544 205.871 49.3455C221.202 18.4153 228.974 -32.254 235.351 -46.661C241.727 -61.0679 248.468 -70.3415 252.373 -75.8677C280.443 -115.605 304.747 -169.707 308.231 -218.371C314.876 -311.245 309.932 -232.931 299.983 -291.455C291.666 -340.433 310.001 -381.344 286.796 -431.509L284.874 -435.668C280.748 -444.567 277.292 -463.789 274.399 -469.86L271.243 -476.431L270.68 -478.279C268.217 -486.166 276.058 -497.575 268.961 -517.406L264.802 -528.921C260.408 -541.068 251.929 -551.529 248.011 -563.843C243.705 -577.377 243.853 -591.992 240.35 -605.766C227.547 -656.495 196.542 -713.088 228.97 -764.857C234.133 -773.005 240.417 -780.387 247.637 -786.786C246.204 -786.155 244.781 -785.497 243.367 -784.813C238.4 -781.63 233.475 -778.686 228.35 -776.385C211.837 -765.656 196.468 -750.367 181.904 -727.518L180.791 -725.758C180.412 -725.143 180.028 -724.547 179.645 -723.955L179.363 -723.493L179.474 -723.586L179.668 -723.747L180.001 -723.997L180.149 -724.103L180.398 -724.274L180.541 -724.367C180.671 -724.445 180.8 -724.524 180.929 -724.593C180.551 -723.142 180.173 -721.688 179.797 -720.231C179.599 -719.46 179.405 -718.683 179.206 -717.921C179.026 -717.219 178.846 -716.535 178.67 -715.814C178.462 -715.001 178.259 -714.188 178.051 -713.37C177.829 -712.476 177.604 -711.583 177.376 -710.69C177.265 -710.228 177.15 -709.766 177.034 -709.327C176.655 -707.786 176.275 -706.265 175.893 -704.762C174.082 -697.512 172.266 -690.253 170.348 -683.045L170.279 -682.772C169.333 -679.208 168.361 -675.655 167.363 -672.112L167.294 -671.863C166.817 -670.19 166.332 -668.519 165.839 -666.85C165.806 -666.725 165.769 -666.605 165.732 -666.485C165.215 -664.735 164.687 -662.985 164.147 -661.236C159.8 -647.342 147.638 -643.382 134.895 -641.187L133.656 -640.979L130.884 -640.517C101.474 -635.869 94.2704 -624.705 100.716 -595.993C100.776 -595.734 100.832 -595.475 100.892 -595.212L101.4 -592.971L101.904 -590.726C105.327 -575.284 108.188 -559.707 110.932 -544.095C111.117 -543.056 111.3 -542.015 111.482 -540.971L111.524 -540.759L113.067 -531.887C116.389 -513.016 126.712 -500.73 141.396 -493.823C142.006 -493.531 142.625 -493.254 143.244 -492.986C144.496 -492.446 145.781 -491.947 147.088 -491.48C149.768 -490.532 152.502 -489.743 155.276 -489.119C155.988 -488.957 156.699 -488.805 157.42 -488.657L165.968 -486.915C174.285 -485.233 182.685 -483.74 190.817 -483.68C205.312 -483.588 218.98 -488.079 229.917 -504.316L230.111 -504.602L230.356 -504.926C231.081 -505.85 231.742 -506.224 232.306 -506.252C233.331 -506.298 234.131 -505.222 234.741 -504.025L234.852 -503.803C234.926 -503.651 234.995 -503.498 235.064 -503.341C235.166 -503.115 235.258 -502.879 235.346 -502.676L236.307 -500.245C237.088 -498.245 237.827 -496.248 238.525 -494.271C259.932 -433.709 245.022 -383.622 165.917 -365.098C164.004 -356.166 161.491 -347.295 160.266 -338.252C157.198 -315.676 162.211 -292.809 161.856 -270.029C161.597 -253.169 158.395 -236.507 155.202 -219.947C152.083 -203.747 148.955 -187.515 144.279 -171.694C140.989 -160.563 136.78 -149.381 129.133 -140.648C124.207 -135.03 118.113 -130.719 111.431 -127.364C111.39 -126.676 111.348 -125.978 111.288 -125.303C111.29 -125.294 111.29 -125.285 111.288 -125.276C111.242 -124.753 111.182 -124.236 111.099 -123.732C111.099 -123.691 111.099 -123.649 111.076 -123.603C111.039 -123.372 110.992 -123.141 110.941 -122.924C110.939 -122.908 110.939 -122.893 110.941 -122.878C110.881 -122.642 110.817 -122.415 110.743 -122.184C110.732 -122.143 110.718 -122.103 110.701 -122.064C110.641 -121.884 110.576 -121.704 110.503 -121.533L110.433 -121.371C110.342 -121.169 110.24 -120.972 110.128 -120.78C109.777 -120.164 109.435 -119.548 109.103 -118.932C109.024 -118.788 108.945 -118.65 108.871 -118.506C108.542 -117.89 108.223 -117.274 107.915 -116.658L107.804 -116.432C107.531 -115.887 107.263 -115.337 107 -114.787C106.922 -114.621 106.838 -114.454 106.764 -114.292C106.483 -113.696 106.21 -113.105 105.942 -112.509C105.877 -112.356 105.813 -112.204 105.743 -112.047C105.531 -111.585 105.327 -111.081 105.12 -110.601C105.036 -110.402 104.953 -110.208 104.875 -110.014C104.634 -109.441 104.413 -108.868 104.172 -108.29C104.089 -108.073 104.001 -107.851 103.914 -107.634C103.757 -107.218 103.595 -106.807 103.452 -106.391C103.364 -106.151 103.271 -105.929 103.184 -105.675C102.98 -105.134 102.786 -104.594 102.592 -104.053C102.486 -103.758 102.38 -103.462 102.278 -103.171L101.945 -102.205C101.76 -101.672 101.58 -101.141 101.405 -100.611L101.141 -99.8162L100.753 -98.6241L100.61 -98.162C98.1979 -90.5935 96.1879 -82.8817 93.8176 -75.2855C85.8563 -49.461 64.8973 -38.8291 40.8888 -32.6329L2 -6L2 25.5C22 59 42.9219 49.8899 43.9799 49.8538" fill="#4CBEB3"/>
</g>
<defs>
<clipPath id="clip0_5802_146512">
<rect width="1658" height="230" fill="white" transform="translate(1658 230) rotate(-180)"/>
</clipPath>
</defs>
</svg>
