<svg width="24" height="24" viewBox="0 0 24 24" fill="none" xmlns="http://www.w3.org/2000/svg">
<path d="M15.4611 10.4999C15.4635 11.4136 15.25 12.315 14.8381 13.1306C14.3496 14.1079 13.5987 14.93 12.6695 15.5046C11.7402 16.0793 10.6693 16.3839 9.57671 16.3844C8.66299 16.3867 7.76162 16.1733 6.94603 15.7613L3 17.0766L4.31534 13.1306C3.90338 12.315 3.6899 11.4136 3.69229 10.4999C3.69271 9.40733 3.99731 8.33643 4.57199 7.40717C5.14666 6.47792 5.9687 5.72701 6.94603 5.23856C7.76162 4.8266 8.66299 4.61312 9.57671 4.6155H9.92285C11.3658 4.69511 12.7287 5.30416 13.7506 6.32604C14.7725 7.34792 15.3815 8.71082 15.4611 10.1538V10.4999Z" stroke="white" stroke-width="2" stroke-linecap="round" stroke-linejoin="round"/>
<path d="M9.53886 12.5768C9.53648 13.4906 9.74996 14.3919 10.1619 15.2075C10.6504 16.1848 11.4013 17.0069 12.3305 17.5816C13.2598 18.1562 14.3307 18.4608 15.4233 18.4613C16.337 18.4636 17.2384 18.2502 18.054 17.8382L22 19.1535L20.6847 15.2075C21.0966 14.3919 21.3101 13.4906 21.3077 12.5768C21.3073 11.4842 21.0027 10.4133 20.428 9.48408C19.8533 8.55482 19.0313 7.80391 18.054 7.31546C17.2384 6.9035 16.337 6.69002 15.4233 6.6924H15.0771C13.6342 6.77201 12.2713 7.38106 11.2494 8.40294C10.2275 9.42482 9.61847 10.7877 9.53886 12.2307V12.5768Z" fill="#1B1B1B" stroke="white" stroke-width="2" stroke-linecap="round" stroke-linejoin="round"/>
</svg>
