<svg width="42" height="42" viewBox="0 0 42 42" fill="none" xmlns="http://www.w3.org/2000/svg">
<path d="M34.6088 1H16.1889V25.721H40.9099V7.43188C40.9199 3.95927 38.0814 1 34.6088 1ZM10.5321 1H7.44194C3.96933 1 1 3.82842 1 7.44194V10.5321H10.5321V1ZM1 16.3197H10.5321V25.8518H1V16.3197ZM31.3879 41.0407H34.478C37.9506 41.0407 40.9199 38.2123 40.9199 34.5988V31.5187H31.3879V41.0407ZM16.1889 31.5187H25.721V41.0508H16.1889V31.5187ZM1 31.5187V34.6088C1 38.0814 3.82842 41.0508 7.44194 41.0508H10.5321V31.5187H1Z" fill="white"/>
</svg>
