<svg width="24" height="25" viewBox="0 0 24 25" fill="none" xmlns="http://www.w3.org/2000/svg">
<path d="M8 3.00391C5.243 3.00391 3 5.24691 3 8.00391V16.0039C3 18.7609 5.243 21.0039 8 21.0039H16C18.757 21.0039 21 18.7609 21 16.0039V8.00391C21 5.24691 18.757 3.00391 16 3.00391H8ZM8 5.00391H16C17.654 5.00391 19 6.34991 19 8.00391V16.0039C19 17.6579 17.654 19.0039 16 19.0039H8C6.346 19.0039 5 17.6579 5 16.0039V8.00391C5 6.34991 6.346 5.00391 8 5.00391ZM17 6.00391C16.7348 6.00391 16.4804 6.10926 16.2929 6.2968C16.1054 6.48434 16 6.73869 16 7.00391C16 7.26912 16.1054 7.52348 16.2929 7.71101C16.4804 7.89855 16.7348 8.00391 17 8.00391C17.2652 8.00391 17.5196 7.89855 17.7071 7.71101C17.8946 7.52348 18 7.26912 18 7.00391C18 6.73869 17.8946 6.48434 17.7071 6.2968C17.5196 6.10926 17.2652 6.00391 17 6.00391ZM12 7.00391C9.243 7.00391 7 9.24691 7 12.0039C7 14.7609 9.243 17.0039 12 17.0039C14.757 17.0039 17 14.7609 17 12.0039C17 9.24691 14.757 7.00391 12 7.00391ZM12 9.00391C13.654 9.00391 15 10.3499 15 12.0039C15 13.6579 13.654 15.0039 12 15.0039C10.346 15.0039 9 13.6579 9 12.0039C9 10.3499 10.346 9.00391 12 9.00391Z" fill="white"/>
</svg>
