<svg width="24" height="24" viewBox="0 0 24 24" fill="none" xmlns="http://www.w3.org/2000/svg">
<rect x="2" y="2" width="20" height="20" rx="1.66667" fill="url(#paint0_linear)"/>
<path d="M9.22908 10.8379C9.22908 9.35109 9.17515 8.22557 9.0968 8.07922C9.01091 7.91869 8.82928 7.83203 8.57903 7.83203C7.95785 7.83203 7.84742 8.2882 7.83963 10.8842C7.83592 12.1057 7.80831 13.1298 7.7784 13.1598C7.74837 13.1897 7.27342 12.7798 6.72305 12.2486C5.91157 11.4656 5.64674 11.283 5.32273 11.283C4.83321 11.283 4.5 11.623 4.5 12.1223C4.5 12.4306 4.82132 12.816 6.38358 14.3809C7.7715 15.771 8.34858 16.2677 8.57608 16.2677C8.79605 16.2677 9.29312 15.8703 10.3032 14.8873C12.7185 12.5367 14.4858 10.8995 14.608 10.8995C14.6748 10.8995 14.725 11.96 14.725 13.3697C14.725 15.8133 14.7284 15.8428 15.0326 16.1285C15.2897 16.3702 15.3847 16.3935 15.6139 16.2709C16.0608 16.0316 16.131 15.6033 16.131 13.1117V10.7393L17.0808 11.6415C18.2942 12.7941 18.6012 12.9939 19.0042 12.8927C19.4208 12.7881 19.7597 12.2662 19.6625 11.8791C19.621 11.7138 18.908 10.9226 18.078 10.1207C16.096 8.20614 15.7905 7.95984 15.3979 7.95984C15.0448 7.95984 15.1332 7.88354 11.5512 11.283C10.4032 12.3726 9.41096 13.2833 9.34642 13.3066C9.27765 13.3317 9.22908 12.3087 9.22908 10.8379Z" fill="white"/>
<defs>
<linearGradient id="paint0_linear" x1="2" y1="2" x2="21.6569" y2="22.3149" gradientUnits="userSpaceOnUse">
<stop stop-color="#0097FF"/>
<stop offset="1" stop-color="#005CEB"/>
</linearGradient>
</defs>
</svg>
