<svg width="43" height="42" viewBox="0 0 43 42" fill="none" xmlns="http://www.w3.org/2000/svg">
<path d="M25.0833 4C22.0389 4 19.7083 6.53353 19.7083 9.375V13.0143C15.9151 13.2733 12.4997 14.3651 9.7422 16.0378C8.74138 15.2539 7.55861 14.806 6.38282 14.806C5.08107 14.806 3.8143 15.3029 2.91147 16.3177C1.19679 18.4593 1.35076 21.9587 3.75131 23.7643C3.63933 24.3312 3.58334 24.9051 3.58334 25.5C3.58334 29.1813 5.80893 32.3867 9.07032 34.5703C12.3317 36.7539 16.6989 38.0417 21.5 38.0417C26.3011 38.0417 30.6683 36.7539 33.9297 34.5703C37.1911 32.3867 39.4167 29.1813 39.4167 25.5C39.4167 24.9051 39.3047 24.3312 39.1927 23.7643C41.6353 21.8187 41.8872 18.3403 40.0886 16.3177C39.1857 15.3029 37.919 14.806 36.6172 14.806C35.4414 14.806 34.2586 15.2539 33.2578 16.0378C30.5003 14.3651 27.085 13.2733 23.2917 13.0143V9.375C23.2917 8.27621 23.8306 7.58333 25.0833 7.58333C25.6572 7.58333 26.4691 7.89128 27.8268 8.36719C29.0306 8.78711 30.6263 9.22103 32.6979 9.31901C33.3068 10.4248 34.4896 11.1667 35.8333 11.1667C37.807 11.1667 39.4167 9.55697 39.4167 7.58333C39.4167 5.6097 37.807 4 35.8333 4C34.5316 4 33.3838 4.68587 32.7539 5.73568C31.1652 5.65869 30.0454 5.37174 29.0026 5.00781C27.8058 4.58789 26.658 4 25.0833 4ZM35.8333 5.79167C36.9111 5.79167 37.625 6.50553 37.625 7.58333C37.625 8.66113 36.9111 9.375 35.8333 9.375C34.7555 9.375 34.0417 8.66113 34.0417 7.58333C34.0417 6.50553 34.7555 5.79167 35.8333 5.79167ZM21.5 16.5417C25.6572 16.5417 29.3526 17.6825 31.9141 19.3971C34.4756 21.1118 35.8333 23.2674 35.8333 25.5C35.8333 27.7326 34.4756 29.8882 31.9141 31.6029C29.3526 33.3175 25.6572 34.4583 21.5 34.4583C17.3428 34.4583 13.6475 33.3175 11.0859 31.6029C8.52443 29.8882 7.16668 27.7326 7.16668 25.5C7.16668 23.2674 8.52443 21.1118 11.0859 19.3971C13.6475 17.6825 17.3428 16.5417 21.5 16.5417ZM6.43881 16.5977C7.0337 16.5977 7.66359 16.7236 8.23048 17.0456C6.5018 18.3753 5.15805 20.013 4.3672 21.8607C3.32439 20.6289 3.34539 18.6763 4.25522 17.4935C4.78712 16.8916 5.59197 16.5977 6.43881 16.5977ZM36.5612 16.5977C37.4081 16.5977 38.2129 16.8916 38.7448 17.4935C39.6266 18.4873 39.6966 20.4399 38.6328 21.8047C37.842 19.971 36.4842 18.3683 34.7695 17.0456C35.3364 16.7236 35.9663 16.5977 36.5612 16.5977ZM16.125 20.125C14.6413 20.125 13.4375 21.3288 13.4375 22.8125C13.4375 24.2962 14.6413 25.5 16.125 25.5C17.6087 25.5 18.8125 24.2962 18.8125 22.8125C18.8125 21.3288 17.6087 20.125 16.125 20.125ZM26.875 20.125C25.3913 20.125 24.1875 21.3288 24.1875 22.8125C24.1875 24.2962 25.3913 25.5 26.875 25.5C28.3587 25.5 29.5625 24.2962 29.5625 22.8125C29.5625 21.3288 28.3587 20.125 26.875 20.125ZM28.8346 28.0195C27.2249 29.4543 24.5444 30.3151 21.5 30.3151C18.4556 30.3151 15.7751 29.4403 14.1654 28.1875C15.0612 30.5181 17.9167 32.6667 21.5 32.6667C25.0833 32.6667 27.9388 30.5251 28.8346 28.0195Z" fill="white"/>
</svg>
