<svg width="24" height="24" viewBox="0 0 24 24" fill="none" xmlns="http://www.w3.org/2000/svg">
<path d="M2 6.61537C2 4.06638 4.06637 2 6.61538 2H17.3846C19.9336 2 22 4.06638 22 6.61537V17.3846C22 19.9336 19.9336 22 17.3846 22H6.61538C4.06637 22 2 19.9336 2 17.3846V6.61537Z" fill="#28282E"/>
<path d="M8.15234 8.70703L10.9495 10.3232V13.0583L8.15234 11.4421V8.70703Z" fill="#EAEAEA"/>
<path d="M13.063 5.84375L15.798 7.39775L10.9495 10.3193L8.15234 8.7031L13.063 5.84375Z" fill="white"/>
<path d="M15.7991 15.2965L13.002 13.6803V10.9453L15.7991 12.5615V15.2965Z" fill="#EAEAEA"/>
<path d="M10.8874 18.1552L8.15234 16.6012L13.0009 13.6797L15.798 15.2958L10.8874 18.1552Z" fill="white"/>
</svg>
