<svg width="24" height="24" viewBox="0 0 24 24" fill="none" xmlns="http://www.w3.org/2000/svg">
<path d="M6.12965 4.05469L21.6669 14.6634L17.8243 20.3437L2.28711 9.65143L6.12965 4.05469Z" fill="url(#paint0_linear)"/>
<path d="M21.6631 14.6647C20.3265 16.586 15.8157 15.8342 11.5555 12.827C7.21177 9.90328 4.87283 5.97721 6.12583 4.05594C7.46237 2.13467 11.9732 2.88647 16.2334 5.89367C20.5771 8.73381 22.9161 12.7434 21.6631 14.6647Z" fill="url(#paint1_linear)"/>
<path d="M17.8217 20.2599C16.4852 22.1812 11.9744 21.4294 7.71416 18.4222C3.45395 15.415 1.03148 11.5725 2.36802 9.56765C3.70455 7.64638 8.21536 8.39819 12.4756 11.4054C16.7358 14.4126 19.0747 18.3387 17.8217 20.2599Z" fill="url(#paint2_linear)"/>
<path d="M21.664 14.6659L17.8215 20.3462C16.485 22.2675 11.9741 21.4321 7.71394 18.5085C6.8786 17.9237 6.1268 17.339 5.375 16.6707C5.95973 16.5872 6.71154 16.2531 7.46334 15.4177C8.79987 13.9977 9.46814 13.6635 10.0529 13.7471C10.6376 13.7471 11.3059 14.3318 12.3918 15.7519C13.4778 17.1719 14.9814 17.5896 15.9002 16.8378C15.9838 16.7543 16.0673 16.7543 16.1508 16.6707C16.9026 16.086 17.1532 15.8354 18.5733 13.1623C18.9074 12.4941 20.0769 11.4081 21.664 11.9093C22.0817 12.9953 22.0817 13.9141 21.664 14.6659Z" fill="#0E0F23"/>
<path fill-rule="evenodd" clip-rule="evenodd" d="M21.0794 14.3325C19.9099 16.0032 15.8168 15.1678 11.8907 12.4112C7.88111 9.65463 5.54217 6.14622 6.71164 4.47555C7.88111 2.80488 11.9743 3.64022 15.9003 6.39682C19.8264 9.15343 22.1653 12.6618 21.0794 14.3325ZM17.4039 11.8265C16.8192 12.6618 14.8144 12.2442 12.8096 10.9076C10.8883 9.5711 9.71885 7.81689 10.3036 6.98156C10.8883 6.14622 12.8931 6.56389 14.8979 7.90043C16.8192 9.23696 17.9887 10.9912 17.4039 11.8265Z" fill="white"/>
<path d="M5.79312 5.97751C5.79312 5.89398 5.70958 5.81044 5.62605 5.89398C5.54252 5.97751 5.45898 5.97751 5.45898 6.06104C5.54252 6.31164 5.62605 6.47871 5.62605 6.64578C5.62605 6.72931 5.70958 6.81284 5.79312 6.72931C5.87665 6.72931 5.96018 6.64578 5.87665 6.56224C5.87665 6.39518 5.87665 6.22811 5.79312 5.97751Z" fill="white"/>
<path d="M6.21154 7.30954C6.21154 7.22601 6.128 7.14247 6.04447 7.22601C5.96094 7.30954 5.96094 7.30954 5.96094 7.39307C6.87981 9.48141 8.80108 11.7368 11.3071 13.4075C11.3906 13.491 11.4741 13.4075 11.5577 13.4075C11.6412 13.3239 11.5577 13.2404 11.5577 13.1569C8.96814 11.4862 7.13041 9.31434 6.21154 7.30954Z" fill="white"/>
<path d="M16.3175 15.5C16.2339 15.5 16.1504 15.5 16.1504 15.5835C16.1504 15.6671 16.1504 15.7506 16.2339 15.7506C16.4845 15.8341 16.8187 15.9177 17.0693 16.0012C17.1528 16.0012 17.2363 16.0012 17.2363 15.9177C17.2363 15.8341 17.2363 15.7506 17.1528 15.7506C16.9022 15.6671 16.5681 15.5835 16.3175 15.5Z" fill="white"/>
<path d="M17.8214 15.832C17.7378 15.832 17.6543 15.9156 17.6543 15.9991C17.6543 16.0826 17.7378 16.1662 17.8214 16.1662C18.4896 16.2497 19.2414 16.3332 19.8262 16.2497C19.9097 16.2497 19.9932 16.1662 19.9932 16.0826C19.9932 15.9991 19.9097 15.9156 19.8262 15.9156C19.1579 15.9991 18.4896 15.9156 17.8214 15.832Z" fill="white"/>
<defs>
<linearGradient id="paint0_linear" x1="9.17378" y1="2.54632" x2="12.255" y2="13.1268" gradientUnits="userSpaceOnUse">
<stop stop-color="#03B8FF"/>
<stop offset="1" stop-color="#FA52A0"/>
</linearGradient>
<linearGradient id="paint1_linear" x1="11.7074" y1="1.80855" x2="14.7887" y2="12.3892" gradientUnits="userSpaceOnUse">
<stop stop-color="#03B8FF"/>
<stop offset="1" stop-color="#FA52A0"/>
</linearGradient>
<linearGradient id="paint2_linear" x1="6.64159" y1="3.28268" x2="9.72289" y2="13.8633" gradientUnits="userSpaceOnUse">
<stop stop-color="#03B8FF"/>
<stop offset="1" stop-color="#FA52A0"/>
</linearGradient>
</defs>
</svg>
