<svg width="42" height="42" viewBox="0 0 42 42" fill="none" xmlns="http://www.w3.org/2000/svg">
<path fill-rule="evenodd" clip-rule="evenodd" d="M15.1108 3.96289C15.5241 3.36022 16.2079 3 16.9387 3H31.3442C32.1227 3 32.8441 3.40845 33.2447 4.07599L41.0015 17.0041L37.2007 19.2846L30.0895 7.43249H18.1062L10.7246 18.1972L18.0762 29.893L14.3236 32.2518L6.19731 19.3238C5.72708 18.5757 5.74616 17.6197 6.24587 16.891L15.1108 3.96289Z" fill="#9C6CFF"/>
<path fill-rule="evenodd" clip-rule="evenodd" d="M26.8907 38.9765C26.4774 39.5792 25.7936 39.9394 25.0628 39.9394H10.6573C9.87881 39.9394 9.15741 39.531 8.75686 38.8634L1 25.9353L4.80083 23.6548L11.9121 35.5069H23.8954L31.2769 24.7422L23.9253 13.0464L27.678 10.6875L35.8042 23.6156C36.2744 24.3637 36.2554 25.3197 35.7557 26.0484L26.8907 38.9765Z" fill="#05D2DD"/>
</svg>
