<svg width="48" height="48" viewBox="0 0 48 48" fill="none" xmlns="http://www.w3.org/2000/svg">
<rect width="48" height="48" rx="6" fill="#FDD535"/>
<g clip-path="url(#clip0_4648_123542)">
<path d="M27.7729 19.2001C27.7729 21.1883 26.1611 22.8001 24.1729 22.8001C22.1846 22.8001 20.5729 21.1883 20.5729 19.2001C20.5729 17.2119 22.1846 15.6001 24.1729 15.6001C26.1611 15.6001 27.7729 17.2119 27.7729 19.2001Z" fill="#040506"/>
<path d="M33.7729 21.6001C33.7729 22.9256 32.6983 24.0001 31.3729 24.0001C30.0474 24.0001 28.9729 22.9256 28.9729 21.6001C28.9729 20.2746 30.0474 19.2001 31.3729 19.2001C32.6983 19.2001 33.7729 20.2746 33.7729 21.6001Z" fill="#040506"/>
<path d="M28.9729 30.0001C28.9729 27.3491 26.8238 25.2001 24.1729 25.2001C21.5219 25.2001 19.3729 27.3491 19.3729 30.0001V33.6001H28.9729V30.0001Z" fill="#040506"/>
<path d="M19.3729 21.6001C19.3729 22.9256 18.2983 24.0001 16.9729 24.0001C15.6474 24.0001 14.5729 22.9256 14.5729 21.6001C14.5729 20.2746 15.6474 19.2001 16.9729 19.2001C18.2983 19.2001 19.3729 20.2746 19.3729 21.6001Z" fill="#040506"/>
<path d="M31.3729 33.6001V30.0001C31.3729 28.7351 31.0466 27.5463 30.4737 26.5133C30.7611 26.4394 31.0624 26.4001 31.3729 26.4001C33.3611 26.4001 34.9729 28.0119 34.9729 30.0001V33.6001H31.3729Z" fill="#040506"/>
<path d="M17.872 26.5133C17.2991 27.5463 16.9729 28.7351 16.9729 30.0001V33.6001H13.3729V30.0001C13.3729 28.0119 14.9846 26.4001 16.9729 26.4001C17.2833 26.4001 17.5846 26.4394 17.872 26.5133Z" fill="#040506"/>
</g>
<defs>
<clipPath id="clip0_4648_123542">
<rect width="24" height="24" fill="white" transform="translate(12 12)"/>
</clipPath>
</defs>
</svg>
