<svg width="24" height="24" viewBox="0 0 24 24" fill="none" xmlns="http://www.w3.org/2000/svg">
<mask id="mask0" style="mask-type:alpha" maskUnits="userSpaceOnUse" x="4" y="1" width="17" height="12">
<path d="M4 9.74886L15.055 9.8381C15.055 9.8381 17.4949 10.1481 19.5791 11.9786C19.6977 12.082 20.1615 11.9786 20.1615 11.9786L20.1051 1L4 1.01879V9.74886Z" fill="white"/>
</mask>
<g mask="url(#mask0)">
<path fill-rule="evenodd" clip-rule="evenodd" d="M17.814 3.46882C16.4989 2.38622 14.6895 1.84375 12.3857 1.84375C9.30584 1.84375 7.94026 1.84375 6.64631 1.84375V2.64572C6.64631 2.64572 9.76142 2.64572 12.2801 2.64572C14.2386 2.64572 16.0116 3.04964 17.0942 3.98429C18.1768 4.92012 18.9976 6.3127 18.9976 8.03171C18.9976 9.69084 18.2872 10.9202 17.1611 11.8502C16.0351 12.7801 14.0272 13.1899 12.017 13.1899C9.61817 13.1899 5.54492 13.1899 5.54492 13.1899V13.9919C5.54492 13.9919 11.0554 13.9907 12.0617 13.9907C14.4863 13.9907 16.3803 13.4635 17.7435 12.4114C19.1068 11.3582 19.7878 9.87753 19.7878 7.96713C19.7878 6.05203 19.1303 4.5526 17.814 3.46882Z" fill="#55A49F"/>
<path fill-rule="evenodd" clip-rule="evenodd" d="M17.3268 4.63697C16.5084 4.01583 15.5679 3.51562 12.9072 3.51562C10.0374 3.5168 9.68636 3.51562 8.48047 3.51562V4.29763C8.48047 4.29763 10.4613 4.2718 12.8085 4.29763C15.077 4.32112 15.9095 4.57709 16.6728 5.14187C17.6497 5.864 18.2556 6.7552 18.2556 8.00219C18.2556 9.20456 17.6403 10.0558 16.6587 10.778C15.6547 11.5177 14.1201 11.5259 13.4954 11.54C13.2594 11.5459 10.2089 11.54 10.2089 11.54V12.322C10.2089 12.322 11.7271 12.3432 12.6653 12.3208C14.8187 12.2727 16.0962 12.1447 17.2857 11.2606C18.4023 10.4328 18.993 9.33959 18.993 7.95522C18.993 6.12936 18.0794 5.2088 17.3268 4.63697Z" fill="#4A8C89"/>
<path fill-rule="evenodd" clip-rule="evenodd" d="M16.9318 5.66807C16.3177 5.28293 15.7787 5.02344 13.2366 5.02344C10.6534 5.02344 11.1407 5.02344 10.0546 5.02344V5.53773C10.0546 5.53773 11.0362 5.53773 13.1486 5.53773C15.4007 5.53773 16.2543 5.93813 16.5126 6.09664C17.0187 6.40663 17.6856 6.91153 17.6856 7.94012C17.6856 8.59766 17.297 9.42311 16.7228 9.74719C16.1991 10.0419 15.2421 10.3061 13.556 10.3061C13.3435 10.3061 3.16211 10.3061 3.16211 10.3061V10.8204C3.16211 10.8204 12.7493 10.8204 13.5948 10.8204C15.6273 10.8204 16.3247 10.595 17.041 10.1993C17.7596 9.80355 18.2387 8.98984 18.2387 7.94481C18.2387 6.77767 17.587 6.07786 16.9318 5.66807Z" fill="#5AABA5"/>
</g>
<path fill-rule="evenodd" clip-rule="evenodd" d="M18.9546 11.3372C17.6395 10.2534 15.8289 9.71211 13.5264 9.71211C10.4453 9.71211 10.9819 9.71094 9.68677 9.71094V10.5129C9.68677 10.5129 10.9009 10.5129 13.4195 10.5129C15.378 10.5129 17.1522 10.9168 18.2348 11.8515C19.3174 12.7873 20.137 14.1799 20.137 15.9001C20.137 17.558 19.4278 18.7874 18.3018 19.7174C17.1757 20.6473 15.1667 21.0571 13.1565 21.0571C10.7588 21.0571 6.68555 21.0571 6.68555 21.0571V21.8591C6.68555 21.8591 12.1948 21.8579 13.2023 21.8579C15.627 21.8579 17.5198 21.3319 18.883 20.2786C20.2462 19.2265 20.9284 17.7447 20.9284 15.8355C20.9284 13.9192 20.2709 12.4198 18.9546 11.3372Z" fill="#55A49F"/>
<path fill-rule="evenodd" clip-rule="evenodd" d="M18.4686 12.5003C17.6502 11.8803 16.7097 11.3789 14.049 11.3789C11.1781 11.3801 9.23714 11.3789 8.03125 11.3789V12.1609C8.03125 12.1609 11.602 12.1351 13.9503 12.1609C16.2189 12.1844 17.0502 12.4404 17.8134 13.0052C18.7915 13.7285 19.3974 14.6185 19.3974 15.8655C19.3974 17.0678 18.7821 17.9191 17.8005 18.6424C16.7965 19.381 15.2619 19.3904 14.636 19.4045C14.4 19.4092 11.3495 19.4045 11.3495 19.4045V20.1853C11.3495 20.1853 12.8677 20.2064 13.8071 20.1853C15.9594 20.136 17.238 20.008 18.4275 19.125C19.543 18.296 20.1336 17.2029 20.1336 15.8185C20.1336 13.9938 19.2212 13.0721 18.4686 12.5003Z" fill="#4A8C89"/>
<path fill-rule="evenodd" clip-rule="evenodd" d="M9.31836 15.1555H14.958V14.7188H9.31836V15.1555Z" fill="#428989"/>
<path fill-rule="evenodd" clip-rule="evenodd" d="M11.6445 16.6804H14.9252V16.3047H11.6445V16.6804Z" fill="#7CC6C7"/>
<path fill-rule="evenodd" clip-rule="evenodd" d="M6.68555 15.1555H8.35641V14.7188H6.68555V15.1555Z" fill="#5AB5B4"/>
<path fill-rule="evenodd" clip-rule="evenodd" d="M5.64258 16.7102H10.7174V16.2734H5.64258V16.7102Z" fill="#4B8F8E"/>
<path fill-rule="evenodd" clip-rule="evenodd" d="M6.89453 5.5011H8.87186V5.14062H6.89453V5.5011Z" fill="#306563"/>
<path fill-rule="evenodd" clip-rule="evenodd" d="M5.51758 8.427H10.0464V8.00781H5.51758V8.427Z" fill="#7FD6D5"/>
<path fill-rule="evenodd" clip-rule="evenodd" d="M5.64258 20.1292H10.418V19.6055H5.64258V20.1292Z" fill="#5AABA6"/>
<path fill-rule="evenodd" clip-rule="evenodd" d="M4.45312 21.8288H5.64727V21.0703H4.45312V21.8288Z" fill="#4A8C8A"/>
<path fill-rule="evenodd" clip-rule="evenodd" d="M7.4375 7.14184H14.9359V6.72266H7.4375V7.14184Z" fill="#64B9B9"/>
<path fill-rule="evenodd" clip-rule="evenodd" d="M11.1875 8.427H14.7946V8.00781H11.1875V8.427Z" fill="#549391"/>
<path fill-rule="evenodd" clip-rule="evenodd" d="M18.0724 13.6106C17.4571 13.2384 16.9182 12.9883 14.3773 12.9883C11.794 12.9883 11.4077 12.9883 10.3228 12.9883V13.485C10.3228 13.485 12.1757 13.485 14.288 13.485C16.5401 13.485 17.3949 13.8713 17.6532 14.0251C18.1581 14.3245 18.8262 14.8106 18.8262 15.804C18.8262 16.4392 18.4376 17.2353 17.8622 17.5476C17.3385 17.833 16.3816 18.0878 14.6955 18.0878C14.4829 18.0878 4.30273 18.0878 4.30273 18.0878V18.5845C4.30273 18.5845 13.89 18.5833 14.7342 18.5833C16.7679 18.5833 17.4654 18.3661 18.1816 17.9844C18.899 17.6017 19.3781 16.8161 19.3781 15.8075C19.3781 14.6815 18.7276 14.0063 18.0724 13.6106Z" fill="#5AABA5"/>
</svg>
