<svg width="24" height="24" viewBox="0 0 24 24" fill="none" xmlns="http://www.w3.org/2000/svg">
<path d="M9.62387 6.00568C9.34943 5.97164 9.33637 5.96029 9.46705 5.94894C9.71535 5.91489 10.2904 5.96029 10.6955 6.03973C11.6364 6.23266 12.4859 6.73202 13.3876 7.6059L13.6229 7.84423L13.9626 7.79883C15.4133 7.59455 16.9031 7.75344 18.1446 8.2528C18.4844 8.38899 19.0202 8.66136 19.0855 8.72946C19.1117 8.75215 19.1509 8.89969 19.177 9.04723C19.2685 9.58064 19.2293 9.97785 19.0333 10.2843C18.9287 10.4545 18.9287 10.4999 18.9941 10.6474C19.0463 10.7609 19.2032 10.8404 19.3469 10.8404C19.6606 10.8404 19.9873 10.4091 20.1441 9.80762L20.2094 9.56929L20.3271 9.68278C20.9936 10.3297 21.5163 11.2262 21.5947 11.8618L21.6208 12.032L21.5032 11.8845C21.3072 11.6235 21.1242 11.4532 20.8759 11.3057C20.4316 11.0447 19.9611 10.9652 18.7196 10.9085C17.5957 10.8517 16.9554 10.7723 16.3281 10.5907C15.2564 10.2843 14.7076 9.88706 13.4399 8.42303C12.878 7.77614 12.5251 7.42432 12.1723 7.12924C11.4012 6.48234 10.6302 6.14187 9.62387 6.00568Z" fill="#FF007A"/>
<path d="M19.3607 7.4463C19.3869 7.01503 19.4522 6.73131 19.596 6.47028C19.6482 6.36814 19.7005 6.27734 19.7136 6.27734C19.7266 6.27734 19.7005 6.35679 19.6613 6.44758C19.5568 6.69726 19.5437 7.04908 19.609 7.4463C19.7005 7.957 19.7397 8.0251 20.367 8.5812C20.6545 8.84223 20.9943 9.17135 21.125 9.30754L21.3472 9.55722L21.125 9.37564C20.8505 9.14866 20.2233 8.71739 20.0795 8.66065C19.988 8.61525 19.975 8.61525 19.9096 8.672C19.8573 8.71739 19.8443 8.78549 19.8443 9.11461C19.8312 9.62532 19.7528 9.94309 19.5568 10.2722C19.4522 10.4424 19.4391 10.4084 19.5306 10.2155C19.596 10.0679 19.609 9.99984 19.609 9.51183C19.609 8.52446 19.4783 8.28613 18.6812 7.88891C18.4851 7.78677 18.1453 7.63923 17.9493 7.55979C17.7402 7.48034 17.5834 7.41225 17.5965 7.41225C17.6226 7.38955 18.3936 7.58249 18.6942 7.69598C19.1516 7.85486 19.23 7.86621 19.2823 7.85486C19.3215 7.82082 19.3477 7.73002 19.3607 7.4463Z" fill="#FF007A"/>
<path d="M10.1604 9.1315C9.61149 8.47326 9.25864 7.45184 9.33705 6.69146L9.36319 6.45312L9.49387 6.47582C9.72911 6.50987 10.1342 6.64606 10.3303 6.7482C10.853 7.02058 11.0882 7.3951 11.3104 8.32572C11.3758 8.5981 11.4672 8.91587 11.5064 9.01801C11.5718 9.18825 11.8201 9.58546 12.0292 9.83514C12.1729 10.0167 12.0815 10.1075 11.7547 10.0848C11.2581 10.0394 10.5916 9.64221 10.1604 9.1315Z" fill="#FF007A"/>
<path d="M18.6938 14.0699C16.1062 13.162 15.1914 12.3789 15.1914 11.051C15.1914 10.8581 15.2045 10.6992 15.2045 10.6992C15.2175 10.6992 15.309 10.7673 15.4266 10.8468C15.9494 11.2099 16.5375 11.3688 18.171 11.5731C19.1251 11.6979 19.6739 11.7887 20.1705 11.9363C21.7518 12.3902 22.732 13.3209 22.9672 14.5806C23.0326 14.9438 22.9934 15.6361 22.8888 15.9992C22.7973 16.283 22.536 16.805 22.4706 16.8164C22.4576 16.8164 22.4314 16.7596 22.4314 16.6688C22.4053 16.1922 22.1308 15.7382 21.6734 15.3864C21.1246 14.9778 20.4189 14.6714 18.6938 14.0699Z" fill="#FF007A"/>
<path d="M16.8659 14.4477C16.8398 14.2774 16.7744 14.0618 16.7352 13.971L16.6699 13.8008L16.7875 13.9256C16.9574 14.0959 17.0881 14.3001 17.2057 14.5839C17.2972 14.7995 17.2972 14.8676 17.2972 15.2194C17.2972 15.5599 17.2841 15.6393 17.2057 15.8323C17.075 16.1387 16.9182 16.3543 16.6568 16.5926C16.1863 17.0126 15.5721 17.2395 14.6965 17.3417C14.5397 17.353 14.0954 17.3871 13.7033 17.4098C12.7232 17.4552 12.0697 17.546 11.4816 17.7276C11.4032 17.7502 11.3248 17.7729 11.3117 17.7616C11.2856 17.7389 11.6907 17.5346 12.0175 17.3984C12.4749 17.2055 12.9453 17.1034 13.9777 16.9445C14.4874 16.8764 15.0102 16.7856 15.1409 16.7402C16.4346 16.3884 17.075 15.5145 16.8659 14.4477Z" fill="#FF007A"/>
<path d="M18.0539 16.2763C17.7142 15.6294 17.6357 15.0165 17.8187 14.4377C17.8448 14.381 17.871 14.3242 17.8971 14.3242C17.9233 14.3242 18.0017 14.3583 18.0801 14.4037C18.2369 14.4945 18.5636 14.6533 19.4 15.0506C20.4586 15.5499 21.0597 15.9358 21.4779 16.3784C21.8438 16.7643 22.066 17.2069 22.1706 17.7516C22.2359 18.0581 22.1967 18.7957 22.1052 19.1022C21.8177 20.0668 21.1643 20.8386 20.2103 21.2812C20.0665 21.3493 19.9489 21.3947 19.9358 21.3947C19.9228 21.3947 19.975 21.2812 20.0534 21.145C20.3671 20.5662 20.4063 20.0101 20.1711 19.3859C20.0273 19 19.7267 18.5347 19.1256 17.7516C18.4068 16.8437 18.2369 16.6054 18.0539 16.2763Z" fill="#FF007A"/>
<path d="M8.31936 19.7485C9.28644 19.0448 10.4757 18.5455 11.5734 18.3866C12.0439 18.3185 12.828 18.3412 13.2593 18.4433C13.9519 18.6022 14.5792 18.9427 14.9059 19.3626C15.2196 19.7712 15.3633 20.123 15.5071 20.9061C15.5594 21.2125 15.6247 21.5303 15.6378 21.5984C15.7423 22.0069 15.9514 22.3247 16.2128 22.4949C16.6179 22.756 17.3236 22.7673 18.0163 22.5403C18.1339 22.5063 18.2384 22.4722 18.2384 22.4836C18.2646 22.5063 17.9117 22.7106 17.6765 22.8127C17.3498 22.9602 17.0884 23.0056 16.7355 23.0056C16.1083 23.0056 15.5724 22.7219 15.1412 22.1545C15.0497 22.041 14.8667 21.7118 14.7099 21.4054C14.2525 20.4862 14.0173 20.2138 13.4815 19.9074C13.011 19.6463 12.4098 19.5896 11.9524 19.7825C11.3513 20.0322 11.1945 20.7018 11.6127 21.1103C11.7825 21.2806 12.0962 21.4168 12.3576 21.4508C12.8411 21.5076 13.2593 21.1784 13.2593 20.7585C13.2593 20.4862 13.1417 20.3273 12.828 20.2024C12.4098 20.0435 11.9524 20.2251 11.9655 20.5769C11.9655 20.7245 12.0439 20.8153 12.2138 20.8834C12.3184 20.9288 12.3184 20.9288 12.2399 20.9174C11.861 20.8493 11.7695 20.4408 12.0701 20.1797C12.436 19.862 13.207 19.9981 13.4684 20.4408C13.5729 20.6223 13.586 20.9855 13.4945 21.2125C13.2724 21.7118 12.6451 21.9729 12.0047 21.8253C11.5734 21.7232 11.3905 21.6211 10.8677 21.1557C9.95294 20.3386 9.60009 20.1797 8.29323 20.0095L8.04492 19.9754L8.31936 19.7485Z" fill="#FF007A"/>
<path fill-rule="evenodd" clip-rule="evenodd" d="M1.44491 1.48801C4.4899 4.69979 9.18153 9.69337 9.41677 9.96575C9.6128 10.1927 9.53438 10.4084 9.20767 10.5673C9.02471 10.658 8.64572 10.7488 8.46276 10.7488C8.25366 10.7488 8.00536 10.658 7.83546 10.5105C7.71785 10.4084 7.20817 9.76147 6.05813 8.20665C5.18254 7.015 4.43763 6.02763 4.42456 6.01628C4.37228 5.99358 4.37228 5.99358 5.96665 8.46768C6.97294 10.0225 7.29965 10.5786 7.29965 10.6467C7.29965 10.7942 7.24738 10.8737 7.03828 11.078C6.68543 11.4184 6.5286 11.8043 6.41099 12.6101C6.2803 13.5067 5.92745 14.1422 4.92116 15.2204C4.33308 15.8559 4.2416 15.9694 4.09784 16.2304C3.91488 16.5482 3.86261 16.7298 3.83647 17.1384C3.81033 17.5696 3.86261 17.842 4.00636 18.2506C4.13705 18.6137 4.2808 18.8521 4.63365 19.3174C4.93423 19.7259 5.11719 20.0324 5.11719 20.1459C5.11719 20.2366 5.14333 20.2366 5.6138 20.1459C6.7377 19.9189 7.66557 19.533 8.17525 19.0563C8.4889 18.7613 8.56731 18.6024 8.56731 18.1938C8.56731 17.9328 8.55424 17.876 8.47583 17.7172C8.34514 17.4675 8.09684 17.2632 7.56102 16.9454C6.85532 16.5255 6.55474 16.185 6.47633 15.7311C6.41099 15.3452 6.4894 15.0842 6.88146 14.3692C7.28658 13.6315 7.39113 13.3251 7.45648 12.576C7.49568 12.0994 7.56102 11.9064 7.71785 11.7589C7.88774 11.6 8.03149 11.5433 8.43662 11.4979C9.10312 11.4184 9.53438 11.2709 9.87417 10.9872C10.1747 10.7488 10.3054 10.5105 10.3185 10.1587L10.3316 9.89766L10.1617 9.73877C9.54745 9.12592 1.03979 1 1.00058 1C0.987513 1 1.19661 1.21563 1.44491 1.48801ZM5.45698 17.6264C5.60073 17.4107 5.52232 17.1384 5.28709 17.0022C5.06492 16.8773 4.72514 16.9341 4.72514 17.1043C4.72514 17.1497 4.75127 17.1951 4.82968 17.2178C4.9473 17.2745 4.96037 17.3313 4.86889 17.4561C4.77741 17.581 4.77741 17.6945 4.89503 17.7739C5.07799 17.8987 5.32629 17.8306 5.45698 17.6264Z" fill="#FF007A"/>
<path fill-rule="evenodd" clip-rule="evenodd" d="M10.7499 11.6566C10.4363 11.7361 10.1357 12.0312 10.0442 12.3262C9.99195 12.5078 10.0181 12.837 10.1096 12.9391C10.2533 13.098 10.384 13.1434 10.7499 13.1434C11.4687 13.1434 12.0829 12.871 12.1483 12.5419C12.2136 12.2695 11.9392 11.895 11.5602 11.7247C11.3642 11.634 10.959 11.5999 10.7499 11.6566ZM11.5863 12.2241C11.6909 12.0879 11.6517 11.9404 11.4556 11.8382C11.1028 11.6453 10.567 11.8042 10.567 12.0993C10.567 12.2468 10.8414 12.4057 11.1028 12.4057C11.2727 12.4057 11.5079 12.3149 11.5863 12.2241Z" fill="#FF007A"/>
</svg>
