<svg width="44" height="44" viewBox="0 0 44 44" fill="none" xmlns="http://www.w3.org/2000/svg">
<rect width="44" height="44" rx="22" fill="#303C4A"/>
<path fill-rule="evenodd" clip-rule="evenodd" d="M13 22C13 21.5858 13.3358 21.25 13.75 21.25H30.25C30.6642 21.25 31 21.5858 31 22C31 22.4142 30.6642 22.75 30.25 22.75H13.75C13.3358 22.75 13 22.4142 13 22Z" fill="white"/>
<path fill-rule="evenodd" clip-rule="evenodd" d="M22.9697 14.7197C23.2626 14.4268 23.7374 14.4268 24.0303 14.7197L30.7803 21.4697C31.0732 21.7626 31.0732 22.2374 30.7803 22.5303L24.0303 29.2803C23.7374 29.5732 23.2626 29.5732 22.9697 29.2803C22.6768 28.9874 22.6768 28.5126 22.9697 28.2197L29.1893 22L22.9697 15.7803C22.6768 15.4874 22.6768 15.0126 22.9697 14.7197Z" fill="white"/>
</svg>
