<svg width="24" height="24" viewBox="0 0 24 24" fill="none" xmlns="http://www.w3.org/2000/svg">
<path fill-rule="evenodd" clip-rule="evenodd" d="M5.5 12C5.5 11.6548 5.77982 11.375 6.125 11.375H19.875C20.2202 11.375 20.5 11.6548 20.5 12C20.5 12.3452 20.2202 12.625 19.875 12.625H6.125C5.77982 12.625 5.5 12.3452 5.5 12Z" fill="white"/>
<path fill-rule="evenodd" clip-rule="evenodd" d="M12.1919 5.93306C12.436 6.17714 12.436 6.57286 12.1919 6.81694L7.00888 12L12.1919 17.1831C12.436 17.4271 12.436 17.8229 12.1919 18.0669C11.9479 18.311 11.5521 18.311 11.3081 18.0669L5.68306 12.4419C5.43898 12.1979 5.43898 11.8021 5.68306 11.5581L11.3081 5.93306C11.5521 5.68898 11.9479 5.68898 12.1919 5.93306Z" fill="white"/>
<path d="M20.1454 3.8546C17.9675 1.67674 15.0781 0.48 12 0.48C5.64971 0.48 0.48 5.64971 0.48 12C0.48 18.3503 5.64971 23.52 12 23.52C15.0781 23.52 17.9675 22.3233 20.1454 20.1454C22.3233 17.9675 23.52 15.0781 23.52 12C23.52 8.92189 22.3233 6.03246 20.1454 3.8546ZM12 22.927C5.97316 22.927 1.07298 18.0268 1.07298 12C1.07298 5.97316 5.97316 1.07298 12 1.07298C18.0268 1.07298 22.927 5.97316 22.927 12C22.927 18.0268 18.0268 22.927 12 22.927Z" fill="white"/>
<path fill-rule="evenodd" clip-rule="evenodd" d="M0 12C0 5.38462 5.38462 0 12 0C15.2054 0 18.217 1.24734 20.4848 3.51519C22.7527 5.78304 24 8.79456 24 12C24 15.2054 22.7527 18.217 20.4848 20.4848C18.217 22.7527 15.2054 24 12 24C5.38462 24 0 18.6154 0 12ZM12 1.55298C6.23825 1.55298 1.55298 6.23825 1.55298 12C1.55298 17.7617 6.23825 22.447 12 22.447C17.7617 22.447 22.447 17.7617 22.447 12C22.447 6.23825 17.7617 1.55298 12 1.55298Z" fill="white"/>
</svg>
