<svg width="24" height="24" viewBox="0 0 24 24" fill="none" xmlns="http://www.w3.org/2000/svg">
<path d="M21.7728 10.3085C21.5344 8.74352 20.759 7.11085 19.7012 5.93753C18.4344 4.53631 16.8865 3.88251 15.3386 4.09343C11.5765 4.60255 10.7819 7.86583 10.0772 10.7381L10.0748 10.7456L10.0686 10.7751C9.44201 13.3188 8.90122 15.515 6.60297 15.8224C5.08692 16.0321 3.92267 13.996 3.69694 12.5145L3.66515 12.3058L3.66167 12.3063C3.42195 10.3358 3.90641 8.44717 5.09948 6.67828L4.97445 8.96415L5.98577 8.57161L6.28209 4L2 6.00109L2.03624 7.00977L4.18602 5.98475C2.7906 8.03711 2.2192 10.3127 2.54403 12.6083L2.56205 12.7265C2.81373 14.3785 3.53231 16.1052 4.48669 17.3477C5.67036 18.9039 7.17371 19.6855 8.71636 19.5572C10.4102 19.4166 11.6887 18.6524 12.6266 17.2177C13.437 15.9733 13.8725 14.4409 14.2941 12.9568L14.296 12.9458C15.0428 10.3268 15.687 8.0615 17.9981 7.86239C18.8812 7.79547 19.5027 8.34843 19.8669 8.82318C20.2758 9.35872 20.5893 10.1081 20.6984 10.8245C20.7117 10.9115 20.7209 10.9954 20.7301 11.0795C20.8829 12.8995 19.8006 15.2991 18.6514 16.9119L18.7794 14.5758L17.7681 14.9683L17.4717 19.5399L21.7533 17.5353L21.7171 16.5267L19.6069 17.5314C21.1037 15.4135 22.1732 12.9363 21.7728 10.3085ZM17.9161 6.73974C16.5165 6.84977 15.4551 7.52035 14.6757 8.78142C13.9894 9.88235 13.5926 11.2951 13.2097 12.6594L13.2029 12.6853C12.786 14.1296 12.3933 15.499 11.7174 16.552C10.9695 17.7158 9.98893 18.31 8.63218 18.4206C7.28691 18.5366 6.2496 17.684 5.5733 16.8654C5.95453 16.9852 6.35889 17.0233 6.77087 16.9712C8.15472 16.7817 9.17962 16.0811 9.90735 14.8315C10.5415 13.7385 10.8765 12.3636 11.2005 11.0332C11.8752 8.26861 12.5122 5.65211 15.51 5.24164C16.6598 5.08069 17.8538 5.60693 18.8672 6.72294C18.9014 6.76043 18.9356 6.79792 18.9697 6.83542C18.6165 6.73621 18.27 6.70361 17.9161 6.73974Z" fill="#FAC63C"/>
</svg>
