<svg width="24" height="24" viewBox="0 0 24 24" fill="none" xmlns="http://www.w3.org/2000/svg">
<path d="M9.83582 11.8432L9.66261 11.6689C9.53146 11.5379 9.30618 11.6307 9.30618 11.8164V14.3065C9.30618 14.4215 9.40054 14.515 9.51582 14.515H12.0065C12.1922 14.515 12.2857 14.2901 12.1537 14.1593C12.0722 14.0779 12.0722 13.946 12.1537 13.8648L14.8028 11.2075C14.8844 11.1266 14.8844 10.9947 14.8028 10.913L14.5614 10.6725C14.4303 10.5415 14.5238 10.3165 14.7089 10.3165H17.1981C17.3132 10.3165 17.4074 10.41 17.4074 10.5251V13.015C17.4074 13.2007 17.1817 13.2937 17.0503 13.1625L16.8825 12.9948C16.8005 12.911 16.6687 12.911 16.5885 12.9948L12.1221 17.459C12.041 17.5403 11.9094 17.5403 11.8272 17.459L6.36292 11.9947C6.28077 11.9125 6.28077 11.7805 6.36292 11.6989L13.9274 4.13472C14.0086 4.05329 14.0086 3.92043 13.9274 3.83936L12.1487 2.0608C12.0672 1.97973 11.9354 1.97973 11.8536 2.0608L2.0608 11.8539C1.97973 11.9354 1.97973 12.0682 2.0608 12.1493L11.8526 21.941C11.934 22.0219 12.0669 22.0219 12.148 21.941L21.9393 12.1493C22.0202 12.0679 22.0202 11.9357 21.9393 11.8546L16.1787 6.09392C16.0981 6.01285 15.9656 6.01285 15.884 6.09392L10.1322 11.8433C10.0501 11.9254 9.91796 11.9254 9.83582 11.8433V11.8432Z" fill="#DE5959"/>
</svg>
