<svg width="24" height="24" viewBox="0 0 24 24" fill="none" xmlns="http://www.w3.org/2000/svg">
<path fill-rule="evenodd" clip-rule="evenodd" d="M8.92902 5.06674C7.24274 6.75344 5.86306 8.13799 5.86306 8.14349C5.86306 8.149 6.36793 8.65849 6.98502 9.2757C7.60209 9.89291 8.11146 10.3979 8.11694 10.3979C8.12242 10.3979 8.99835 9.52625 10.0635 8.4609L12 6.52389L13.9415 8.4659L15.8831 10.4079L17.015 9.27568L18.1469 8.14345L15.076 5.07172C13.3869 3.38228 12.0027 2 12 2C11.9972 2 10.6153 3.38004 8.92902 5.06674ZM10.8506 10.8528L9.70616 11.9975L10.8531 13.1447L12 14.2919L13.1469 13.1447L14.2938 11.9975L13.1494 10.8528C12.52 10.2232 12.0028 9.70808 12 9.70808C11.9972 9.70808 11.48 10.2232 10.8506 10.8528ZM3.12941 10.8678L2 11.9975L3.13193 13.1297L4.26385 14.2619L5.39578 13.1297L6.5277 11.9975L5.3983 10.8678C4.77712 10.2464 4.26662 9.73807 4.26385 9.73807C4.26108 9.73807 3.75059 10.2464 3.12941 10.8678ZM18.6017 10.8678L17.4723 11.9975L18.6042 13.1297L19.7361 14.2619L20.8681 13.1297L22 11.9975L20.8706 10.8678C20.2494 10.2464 19.7389 9.73807 19.7361 9.73807C19.7334 9.73807 19.2229 10.2464 18.6017 10.8678ZM13.9415 15.5291L12 17.4711L10.0635 15.5341C8.99835 14.4688 8.12241 13.5971 8.1169 13.5971C8.11141 13.5971 7.59979 14.1044 6.97999 14.7243L5.85307 15.8516L8.92654 18.9258L12 22L15.0735 18.9258L18.1469 15.8515L17.015 14.7193L15.883 13.5871L13.9415 15.5291Z" fill="#FFD72E"/>
</svg>
