<svg width="48" height="48" viewBox="0 0 48 48" fill="none" xmlns="http://www.w3.org/2000/svg">
<path d="M21.1367 41.1357L24.4776 39.2266L27.8185 41.1357V43.9993L24.4776 45.9084L21.1367 43.9993V41.1357Z" fill="#4195C4" stroke="#4195C4" stroke-width="1.90909"/>
<path d="M3 32.5458L6.34091 30.6367L9.68182 32.5458V35.4094L6.34091 37.3185L3 35.4094V32.5458Z" fill="#4195C4" stroke="#4195C4" stroke-width="1.90909"/>
<path d="M3 12.4989L6.34091 10.5898L9.68182 12.4989V15.3626L6.34091 17.2717L3 15.3626V12.4989Z" fill="#4195C4" stroke="#4195C4" stroke-width="1.90909"/>
<path d="M21.1367 3.90909L24.4776 2L27.8185 3.90909V6.77273L24.4776 8.68182L21.1367 6.77273V3.90909Z" fill="#4195C4" stroke="#4195C4" stroke-width="1.90909"/>
<path d="M38.3184 32.5458L41.6593 30.6367L45.0002 32.5458V35.4094L41.6593 37.3185L38.3184 35.4094V32.5458Z" fill="#4195C4" stroke="#4195C4" stroke-width="1.90909"/>
<path d="M38.3184 12.4989L41.6593 10.5898L45.0002 12.4989V15.3626L41.6593 17.2717L38.3184 15.3626V12.4989Z" fill="#4195C4" stroke="#4195C4" stroke-width="1.90909"/>
<path d="M24.4772 5.34375L6.34082 13.9347V33.9801L24.4772 42.571L41.659 33.9801V13.9347L24.4772 5.34375Z" stroke="#4195C4" stroke-width="2.86364"/>
</svg>
