<svg width="43" height="42" viewBox="0 0 43 42" fill="none" xmlns="http://www.w3.org/2000/svg">
<path d="M14.3333 5C9.39371 5 5.375 9.01871 5.375 13.9583V28.2917C5.375 33.2313 9.39371 37.25 14.3333 37.25H28.6667C33.6063 37.25 37.625 33.2313 37.625 28.2917V13.9583C37.625 9.01871 33.6063 5 28.6667 5H14.3333ZM14.3333 8.58333H28.6667C31.6301 8.58333 34.0417 10.9949 34.0417 13.9583V28.2917C34.0417 31.2551 31.6301 33.6667 28.6667 33.6667H14.3333C11.3699 33.6667 8.95833 31.2551 8.95833 28.2917V13.9583C8.95833 10.9949 11.3699 8.58333 14.3333 8.58333ZM30.4583 10.375C29.9832 10.375 29.5274 10.5638 29.1914 10.8998C28.8554 11.2358 28.6667 11.6915 28.6667 12.1667C28.6667 12.6418 28.8554 13.0976 29.1914 13.4336C29.5274 13.7696 29.9832 13.9583 30.4583 13.9583C30.9335 13.9583 31.3892 13.7696 31.7252 13.4336C32.0612 13.0976 32.25 12.6418 32.25 12.1667C32.25 11.6915 32.0612 11.2358 31.7252 10.8998C31.3892 10.5638 30.9335 10.375 30.4583 10.375ZM21.5 12.1667C16.5604 12.1667 12.5417 16.1854 12.5417 21.125C12.5417 26.0646 16.5604 30.0833 21.5 30.0833C26.4396 30.0833 30.4583 26.0646 30.4583 21.125C30.4583 16.1854 26.4396 12.1667 21.5 12.1667ZM21.5 15.75C24.4634 15.75 26.875 18.1616 26.875 21.125C26.875 24.0884 24.4634 26.5 21.5 26.5C18.5366 26.5 16.125 24.0884 16.125 21.125C16.125 18.1616 18.5366 15.75 21.5 15.75Z" fill="white"/>
</svg>
