<svg width="24" height="25" viewBox="0 0 24 25" fill="none" xmlns="http://www.w3.org/2000/svg">
<path d="M10.9005 2.88562C6.3005 3.38562 2.6005 7.08562 2.1005 11.5856C1.6005 16.2856 4.3005 20.4856 8.4005 22.0856C8.7005 22.1856 9.0005 21.9856 9.0005 21.5856V19.9856C9.0005 19.9856 8.6005 20.0856 8.1005 20.0856C6.7005 20.0856 6.1005 18.8856 6.0005 18.1856C5.9005 17.7856 5.7005 17.4856 5.4005 17.1856C5.1005 17.0856 5.0005 17.0856 5.0005 16.9856C5.0005 16.7856 5.3005 16.7856 5.4005 16.7856C6.0005 16.7856 6.5005 17.4856 6.7005 17.7856C7.2005 18.5856 7.8005 18.7856 8.1005 18.7856C8.5005 18.7856 8.8005 18.6856 9.0005 18.5856C9.1005 17.8856 9.4005 17.1856 10.0005 16.7856C7.7005 16.2856 6.0005 14.9856 6.0005 12.7856C6.0005 11.6856 6.5005 10.5856 7.2005 9.78562C7.1005 9.58562 7.0005 9.08562 7.0005 8.38562C7.0005 7.98562 7.0005 7.38562 7.3005 6.78562C7.3005 6.78562 8.7005 6.78562 10.1005 8.08562C10.6005 7.88562 11.3005 7.78562 12.0005 7.78562C12.7005 7.78562 13.4005 7.88562 14.0005 8.08562C15.3005 6.78562 16.8005 6.78562 16.8005 6.78562C17.0005 7.38562 17.0005 7.98562 17.0005 8.38562C17.0005 9.18562 16.9005 9.58562 16.8005 9.78562C17.5005 10.5856 18.0005 11.5856 18.0005 12.7856C18.0005 14.9856 16.3005 16.2856 14.0005 16.7856C14.6005 17.2856 15.0005 18.1856 15.0005 19.0856V21.6856C15.0005 21.9856 15.3005 22.2856 15.7005 22.1856C19.4005 20.6856 22.0005 17.0856 22.0005 12.8856C22.0005 6.88562 16.9005 2.18562 10.9005 2.88562Z" fill="white"/>
</svg>
