<svg width="24" height="24" viewBox="0 0 24 24" fill="none" xmlns="http://www.w3.org/2000/svg">
<path d="M10.268 4C11.0378 2.66667 12.9623 2.66667 13.7321 4L20.6603 16C21.4301 17.3333 20.4678 19 18.9282 19H5.07183C3.53223 19 2.56998 17.3333 3.33978 16L10.268 4Z" fill="#FFD72E"/>
<path d="M12 9V11M12 15H12.01M5.07183 19H18.9282C20.4678 19 21.4301 17.3333 20.6603 16L13.7321 4C12.9623 2.66667 11.0378 2.66667 10.268 4L3.33978 16C2.56998 17.3333 3.53223 19 5.07183 19Z" stroke="#FFD72E" stroke-width="2" stroke-linecap="round" stroke-linejoin="round"/>
<path d="M12 9V11M12 15H12.01" stroke="#151A20" stroke-width="2" stroke-linecap="round" stroke-linejoin="round"/>
</svg>
