<svg width="24" height="24" viewBox="0 0 24 24" fill="none" xmlns="http://www.w3.org/2000/svg">
<path d="M15.2773 9.40257C14.5321 8.67368 13.5311 8.26554 12.4888 8.26554C11.4464 8.26554 10.4454 8.67368 9.70022 9.40257C9.335 9.76742 9.04554 10.2009 8.84851 10.6781C8.65147 11.1553 8.55076 11.6667 8.55216 12.1829C8.55357 12.6992 8.65705 13.21 8.85668 13.6861C9.0563 14.1622 9.34811 14.5941 9.71531 14.957C10.4583 15.6947 11.462 16.1102 12.509 16.1135C13.5561 16.1168 14.5623 15.7076 15.31 14.9746C15.3376 14.9469 15.4458 14.8288 15.6369 14.6176L13.7762 12.7694C13.5851 12.9907 13.4845 13.1064 13.4719 13.1164C13.2194 13.3676 12.8776 13.5086 12.5214 13.5086C12.1652 13.5086 11.8235 13.3676 11.571 13.1164C11.3203 12.8703 11.1777 12.5347 11.1744 12.1834C11.1711 11.8322 11.3074 11.494 11.5534 11.2431C11.8072 10.9985 12.1468 10.8631 12.4994 10.8659C12.8519 10.8687 13.1893 11.0096 13.4392 11.2582L18.4128 16.1941C17.7258 17.1769 16.8125 17.98 15.7499 18.5358C14.6874 19.0916 13.5068 19.3837 12.3077 19.3875C11.0481 19.3879 9.80927 19.0659 8.70928 18.4521C7.60928 17.8383 6.68471 16.9531 6.02357 15.8809C5.36244 14.8087 4.98676 13.5851 4.93229 12.3267C4.87782 11.0682 5.14638 9.8167 5.71241 8.69138C6.27843 7.56606 7.12308 6.60435 8.16592 5.89781C9.20877 5.19127 10.4151 4.76343 11.6701 4.655C12.9251 4.54657 14.1869 4.76118 15.3355 5.27839C16.4841 5.7956 17.4811 6.59819 18.2318 7.60976C18.0139 7.86456 17.4531 8.49904 16.5496 9.5132L18.3927 11.3261L21.4302 7.91904C20.6958 6.27626 19.5318 4.86207 18.0609 3.82557C16.5899 2.78908 14.8666 2.16869 13.0725 2.02983C11.2784 1.89096 9.48014 2.23876 7.86722 3.03655C6.2543 3.83434 4.88654 5.05256 3.90814 6.56277C2.92974 8.07297 2.37697 9.8192 2.30811 11.6173C2.23925 13.4154 2.65684 15.1988 3.51687 16.7794C4.3769 18.36 5.64749 19.6793 7.19467 20.5981C8.74184 21.5169 10.5083 22.0012 12.3077 22C14.8222 22 16.9016 21.218 18.9358 19.4855C20.1055 18.4552 21.0357 17.1817 21.6615 15.7541L15.2773 9.40257Z" fill="url(#paint0_linear)"/>
<defs>
<linearGradient id="paint0_linear" x1="21.368" y1="12.5797" x2="2.01896" y2="12.5797" gradientUnits="userSpaceOnUse">
<stop stop-color="#22E6B8"/>
<stop offset="1" stop-color="#00C1CE"/>
</linearGradient>
</defs>
</svg>
