<svg width="42" height="42" viewBox="0 0 42 42" fill="none" xmlns="http://www.w3.org/2000/svg">
<path d="M23.8667 39.4V41C20.1733 41 16.72 38.88 14.1467 35.0267C11.64 31.2667 10.2667 26.28 10.2667 21C10.2667 15.72 11.64 10.7333 14.1467 6.97334C16.72 3.12 20.1733 1 23.8667 1V2.6C17.2533 2.6 11.8666 10.8533 11.8666 21C11.8666 31.1467 17.2533 39.4 23.8667 39.4ZM12.36 6.33334H10.3333C10.1733 6.54667 10.0266 6.76 9.88004 6.97334C7.37334 10.7333 6 15.72 6 21C6 26.28 7.37334 31.2667 9.88004 35.0267C10.0266 35.2534 10.1733 35.4667 10.3333 35.6667H12.36C9.46667 32.3067 7.6 26.9867 7.6 21C7.6 15.0133 9.46667 9.6933 12.36 6.33334ZM34.8667 27.6667H32.2667H31.3333H30.6C29.9734 29.6266 29.08 31.36 28 32.7334H29.96C30.6534 31.68 31.2533 30.5201 31.7333 29.2667H34.28C32.52 33.44 29.4667 36.2 26 36.2C20.56 36.2 16.1333 29.3867 16.1333 21C16.1333 12.6134 20.56 5.8 26 5.8C29.8933 5.8 33.2534 9.28001 34.8667 14.3334H36.5334C35.9867 12.4667 35.2 10.7333 34.2134 9.24003C32.04 5.98667 29.12 4.2 26 4.2C22.88 4.2 19.96 5.98667 17.7866 9.24003C15.6933 12.4 14.5333 16.5734 14.5333 21C14.5333 25.4267 15.6933 29.6001 17.7866 32.7601C19.96 36.0134 22.8667 37.8 26 37.8C29.1333 37.8 32.04 36.0134 34.2134 32.7601C35.2 31.2667 35.9867 29.5333 36.5334 27.6667H35.6H34.8667ZM30.6 14.3334H31.0667H32.2667C31.72 12.4667 30.9466 10.76 29.96 9.26671H28C28.7734 10.2534 29.4534 11.4267 30.0133 12.7334H27.4667C26.9867 11.48 26.3867 10.2933 25.68 9.24003C25.4934 8.97334 25.3067 8.72 25.12 8.46667H23.04C24.44 9.94669 25.5733 11.9734 26.3333 14.3334H26.8H28H30.6ZM23.04 33.5334H25.12C25.3067 33.2801 25.4934 33.0267 25.68 32.7601C26.6667 31.2667 27.4534 29.5333 28 27.6667H26.3333C25.5733 30.0267 24.44 32.0534 23.04 33.5334Z" fill="#706FD3"/>
</svg>
