<svg width="24" height="24" viewBox="0 0 24 24" fill="none" xmlns="http://www.w3.org/2000/svg">
<path fill-rule="evenodd" clip-rule="evenodd" d="M18.5 12C18.5 11.6548 18.2202 11.375 17.875 11.375H4.125C3.77982 11.375 3.5 11.6548 3.5 12C3.5 12.3452 3.77982 12.625 4.125 12.625H17.875C18.2202 12.625 18.5 12.3452 18.5 12Z" fill="white"/>
<path fill-rule="evenodd" clip-rule="evenodd" d="M11.8081 5.93306C11.564 6.17714 11.564 6.57286 11.8081 6.81694L16.9911 12L11.8081 17.1831C11.564 17.4271 11.564 17.8229 11.8081 18.0669C12.0521 18.311 12.4479 18.311 12.6919 18.0669L18.3169 12.4419C18.561 12.1979 18.561 11.8021 18.3169 11.5581L12.6919 5.93306C12.4479 5.68898 12.0521 5.68898 11.8081 5.93306Z" fill="white"/>
<path d="M3.8546 3.8546C6.03246 1.67674 8.92189 0.48 12 0.48C18.3503 0.48 23.52 5.64971 23.52 12C23.52 18.3503 18.3503 23.52 12 23.52C8.92189 23.52 6.03246 22.3233 3.8546 20.1454C1.67674 17.9675 0.480001 15.0781 0.480001 12C0.480001 8.92189 1.67674 6.03246 3.8546 3.8546ZM12 22.927C18.0268 22.927 22.927 18.0268 22.927 12C22.927 5.97316 18.0268 1.07298 12 1.07298C5.97316 1.07298 1.07298 5.97316 1.07298 12C1.07298 18.0268 5.97316 22.927 12 22.927Z" fill="white"/>
<path fill-rule="evenodd" clip-rule="evenodd" d="M24 12C24 5.38462 18.6154 0 12 0C8.79456 0 5.78304 1.24734 3.51519 3.51519C1.24734 5.78304 5.36442e-07 8.79456 5.36442e-07 12C5.36442e-07 15.2054 1.24734 18.217 3.51519 20.4848C5.78304 22.7527 8.79456 24 12 24C18.6154 24 24 18.6154 24 12ZM12 1.55298C17.7617 1.55298 22.447 6.23825 22.447 12C22.447 17.7617 17.7617 22.447 12 22.447C6.23826 22.447 1.55298 17.7617 1.55298 12C1.55298 6.23825 6.23826 1.55298 12 1.55298Z" fill="white"/>
</svg>
