<svg width="24" height="24" viewBox="0 0 24 24" fill="none" xmlns="http://www.w3.org/2000/svg">
<path d="M10.9005 2.09998C6.3005 2.59998 2.6005 6.29998 2.1005 10.8C1.6005 15.5 4.3005 19.7 8.4005 21.3C8.7005 21.4 9.0005 21.2 9.0005 20.8V19.2C9.0005 19.2 8.6005 19.3 8.1005 19.3C6.7005 19.3 6.1005 18.1 6.0005 17.4C5.9005 17 5.7005 16.7 5.4005 16.4C5.1005 16.3 5.0005 16.3 5.0005 16.2C5.0005 16 5.3005 16 5.4005 16C6.0005 16 6.5005 16.7 6.7005 17C7.2005 17.8 7.8005 18 8.1005 18C8.5005 18 8.8005 17.9 9.0005 17.8C9.1005 17.1 9.4005 16.4 10.0005 16C7.7005 15.5 6.0005 14.2 6.0005 12C6.0005 10.9 6.5005 9.79998 7.2005 8.99998C7.1005 8.79998 7.0005 8.29998 7.0005 7.59998C7.0005 7.19998 7.0005 6.59998 7.3005 5.99998C7.3005 5.99998 8.7005 5.99998 10.1005 7.29998C10.6005 7.09998 11.3005 6.99998 12.0005 6.99998C12.7005 6.99998 13.4005 7.09998 14.0005 7.29998C15.3005 5.99998 16.8005 5.99998 16.8005 5.99998C17.0005 6.59998 17.0005 7.19998 17.0005 7.59998C17.0005 8.39998 16.9005 8.79998 16.8005 8.99998C17.5005 9.79998 18.0005 10.8 18.0005 12C18.0005 14.2 16.3005 15.5 14.0005 16C14.6005 16.5 15.0005 17.4 15.0005 18.3V20.9C15.0005 21.2 15.3005 21.5 15.7005 21.4C19.4005 19.9 22.0005 16.3 22.0005 12.1C22.0005 6.09998 16.9005 1.39998 10.9005 2.09998Z" fill="white"/>
</svg>
