<svg width="200" height="200" viewBox="0 0 200 200" fill="none" xmlns="http://www.w3.org/2000/svg">
<g opacity="0.6" clip-path="url(#clip0_5901_179625)">
<circle cx="100" cy="100" r="100" fill="#1A2128"/>
<path d="M66.7357 131.136C88.4956 131.136 106.135 113.496 106.135 91.7363C106.135 69.9763 88.4956 52.3364 66.7357 52.3364C44.9758 52.3364 27.3359 69.9763 27.3359 91.7363C27.3359 113.496 44.9758 131.136 66.7357 131.136Z" stroke="#0E1216" stroke-width="8" stroke-linecap="round" stroke-linejoin="round"/>
<path d="M120.878 145.878L94.738 119.738" stroke="#0E1216" stroke-width="8" stroke-linecap="round" stroke-linejoin="round"/>
<path d="M125.283 139.943C128.869 142.642 129.238 147.89 126.064 151.065C122.89 154.239 117.641 153.87 114.942 150.284L100.64 131.282C99.4323 129.678 99.5901 127.43 101.01 126.01C102.429 124.591 104.677 124.433 106.281 125.64L125.283 139.943Z" fill="#0E1216"/>
<path d="M68.7357 126.136C90.4956 126.136 108.135 108.496 108.135 86.7363C108.135 64.9763 90.4956 47.3364 68.7357 47.3364C46.9758 47.3364 29.3359 64.9763 29.3359 86.7363C29.3359 108.496 46.9758 126.136 68.7357 126.136Z" stroke="#303C4A" stroke-width="8" stroke-linecap="round" stroke-linejoin="round"/>
<path d="M122.878 140.878L96.738 114.738" stroke="#303C4A" stroke-width="8" stroke-linecap="round" stroke-linejoin="round"/>
<path d="M127.283 134.943C130.869 137.642 131.238 142.89 128.064 146.065C124.89 149.239 119.641 148.87 116.942 145.284L102.64 126.282C101.432 124.678 101.59 122.43 103.01 121.01C104.429 119.591 106.677 119.433 108.281 120.64L127.283 134.943Z" fill="#303C4A"/>
<rect x="125" y="67" width="45" height="20" rx="10" fill="#11151A"/>
<rect x="128" y="63" width="45" height="20" rx="10" fill="#303C4A"/>
<rect x="125" y="97" width="45" height="20" rx="10" fill="#11151A"/>
<rect x="128" y="93" width="45" height="20" rx="10" fill="#303C4A"/>
</g>
<defs>
<clipPath id="clip0_5901_179625">
<rect width="200" height="200" fill="white"/>
</clipPath>
</defs>
</svg>
