<svg width="190" height="216" viewBox="0 0 190 216" fill="none" xmlns="http://www.w3.org/2000/svg">
<path d="M93.5803 213.548C41.8975 212.193 0.636042 186.8 1.42023 156.83C2.20442 126.86 44.7373 103.662 96.4201 105.016C148.103 106.371 189.364 131.764 188.58 161.734C187.796 191.704 145.263 214.902 93.5803 213.548Z" fill="#384350"/>
<mask id="mask0" style="mask-type:alpha" maskUnits="userSpaceOnUse" x="1" y="104" width="188" height="110">
<path d="M93.5803 213.548C41.8975 212.193 0.636042 186.8 1.42023 156.83C2.20442 126.86 44.7373 103.662 96.4201 105.016C148.103 106.371 189.364 131.764 188.58 161.734C187.796 191.704 145.263 214.902 93.5803 213.548Z" fill="#384350"/>
</mask>
<g mask="url(#mask0)">
<path d="M227.979 82.6287C233.407 85.3547 238.47 88.7556 243.047 92.7508C248.799 97.6125 253.23 103.85 255.929 110.884C257.485 115.134 258.186 119.65 257.991 124.172C257.945 125.204 257.838 126.247 257.703 127.281C256.978 132.407 255.277 137.347 252.692 141.832C251.749 143.504 250.713 145.122 249.589 146.678C248.406 148.345 247.134 149.947 245.778 151.477C243.953 153.548 242.014 155.516 239.972 157.372C237.702 159.43 235.325 161.368 232.853 163.177C230.946 164.551 229.04 165.926 226.954 167.214C196.966 186.212 151.643 194.296 112.596 187.652C109.917 187.21 107.29 186.691 104.718 186.095C101.048 185.271 97.4273 184.291 93.8561 183.154C90.9612 182.241 88.1889 181.219 85.5492 180.15C83.2495 179.218 81.069 178.235 78.9766 177.206C76.8843 176.177 74.911 175.097 73.026 173.972C67.8054 170.943 63.0335 167.198 58.8488 162.847C58.0345 161.971 57.2512 161.09 56.5166 160.195C53.447 156.518 51.0564 152.323 49.4567 147.807C47.1503 141.277 46.8677 134.203 48.6458 127.511C49.9774 122.506 52.1763 117.775 55.1423 113.531C58.1279 109.198 61.6171 105.235 65.5367 101.726C68.0468 99.4595 70.6832 97.3374 73.4332 95.3697C77.1262 92.7152 80.9836 90.2975 84.982 88.131C112.564 73.078 150.423 66.3259 184.728 70.2937C189.826 70.9191 194.829 71.7507 199.738 72.7885C203.873 73.6951 207.815 74.7471 211.697 75.987C217.301 77.7417 222.747 79.9634 227.979 82.6287Z" fill="#283039"/>
</g>
<path d="M43.0554 25.7169L38.6058 16.4094L59.8011 4.16661C62.1031 2.81909 64.5728 1.78154 67.1461 1.08083C68.036 0.842499 68.9511 0.641803 69.8661 0.478733C74.4193 -0.267923 79.0729 -0.140217 83.5785 0.855043C85.2528 1.20313 86.9059 1.64708 88.5294 2.1847C90.2675 2.75074 91.9745 3.40811 93.6434 4.15408C95.8938 5.1424 98.0828 6.265 100.199 7.51583C102.556 8.89357 104.84 10.3925 107.042 12.0065C108.714 13.2525 110.385 14.5696 112.056 15.9578C136.247 36.3917 155.274 72.8441 160.1 107.892C160.434 110.275 160.697 112.65 160.889 115.016C161.178 118.403 161.315 121.765 161.303 125.052C161.303 127.774 161.19 130.408 160.977 132.942C160.802 135.137 160.551 137.269 160.238 139.326C159.924 141.384 159.536 143.34 159.097 145.247C157.922 150.505 156.015 155.572 153.431 160.3C152.918 161.241 152.366 162.144 151.802 163.009C149.497 166.602 146.578 169.762 143.178 172.342C142.159 173.094 141.096 173.785 139.995 174.412L119.865 186.027L115.791 177.51C114.701 177.272 113.61 176.996 112.507 176.657C108.026 175.272 103.722 173.365 99.6849 170.975C97.0872 169.443 94.5765 167.767 92.1644 165.957C88.9202 163.522 85.8308 160.887 82.9141 158.067C62.7216 138.624 46.8282 108.205 41.0124 77.9244C40.1437 73.482 39.5036 68.998 39.0947 64.4899C38.7688 60.7268 38.5933 57.0891 38.6058 53.4514C38.5917 48.2075 39.0109 42.9714 39.8592 37.7966C40.5551 33.6811 41.6249 29.6378 43.0554 25.7169Z" fill="#263238"/>
<path opacity="0.25" d="M155.661 87.1581L114.424 110.991L109.209 95.9387L150.497 72.1055C152.452 77.0227 154.195 82.0653 155.661 87.1581Z" fill="white"/>
<path opacity="0.25" d="M59.7988 4.16662C62.1008 2.81909 64.5704 1.78154 67.1438 1.08083C68.0337 0.842499 68.9487 0.641803 69.8637 0.478734C74.417 -0.267923 79.0706 -0.140217 83.5761 0.855043C84.1778 0.980481 84.8295 1.13101 85.3936 1.29408L43.0155 25.7796C43.0198 25.7463 43.0198 25.7126 43.0155 25.6793L38.5659 16.3718L59.7988 4.16662Z" fill="white"/>
<path opacity="0.25" d="M62.332 62.9337L57.1178 56.6618L118.109 21.5391C119.989 23.4123 121.832 25.3733 123.637 27.4221L62.332 62.9337Z" fill="white"/>
<path opacity="0.25" d="M136.222 44.2063L83.1645 74.8634L77.5116 60.0743L127.034 31.4492C130.326 35.5315 133.393 39.7901 136.222 44.2063Z" fill="white"/>
<path opacity="0.4" d="M59.7994 4.16661C62.1014 2.81909 64.5711 1.78154 67.1444 1.08083C68.0344 0.842499 68.9494 0.641803 69.8644 0.478733C74.4176 -0.267923 79.0713 -0.140217 83.5768 0.855043C85.2512 1.20313 86.9042 1.64708 88.5278 2.1847C90.2658 2.75074 91.9729 3.40811 93.6417 4.15408C95.8921 5.1424 98.0812 6.265 100.197 7.51583C102.554 8.89357 104.838 10.3925 107.041 12.0065C108.712 13.2525 110.383 14.5696 112.054 15.9578C134.616 34.9868 152.628 67.8893 158.907 100.604L74.7276 149.286C58.4332 130.107 46.0118 103.978 41.0107 77.9369C40.142 73.4946 39.5019 69.0105 39.093 64.5025C38.7671 60.7393 38.5916 57.1016 38.6041 53.4639C38.59 48.22 39.0092 42.9839 39.8575 37.8092C40.5404 33.6906 41.5977 29.6431 43.0161 25.7169L38.5665 16.4094L59.7994 4.16661Z" fill="white"/>
<path opacity="0.1" d="M119.864 186.027L115.79 177.509C114.7 177.271 113.609 176.995 112.506 176.656C108.024 175.271 103.721 173.364 99.6837 170.974C97.086 169.442 94.5753 167.767 92.1632 165.956C88.919 163.521 85.8296 160.886 82.913 158.066C80.0365 155.281 77.3046 152.351 74.7282 149.286L158.908 100.641C159.376 103.049 159.793 105.457 160.161 107.866C160.529 110.274 160.792 112.649 160.951 114.991C161.239 118.378 161.377 121.739 161.364 125.026C161.364 127.748 161.252 130.382 161.039 132.916C160.863 135.111 160.612 137.244 160.299 139.301C159.986 141.358 159.597 143.315 159.158 145.221C157.983 150.48 156.076 155.547 153.493 160.274C152.979 161.215 152.428 162.118 151.864 162.983C149.559 166.577 146.64 169.736 143.24 172.316C142.221 173.068 141.157 173.759 140.056 174.386L119.864 186.027Z" fill="white"/>
<path opacity="0.1" d="M153.431 160.274C152.917 161.214 152.366 162.117 151.802 162.983C149.497 166.576 146.578 169.735 143.178 172.316C142.159 173.068 141.096 173.759 139.995 174.385L119.865 186.001L115.791 177.484H115.628L115.327 173.997L157.956 149.285C156.851 153.102 155.334 156.786 153.431 160.274Z" fill="black"/>
<path d="M19.0634 49.8395C19.9247 44.4874 21.4576 39.2655 23.6259 34.2976C26.2156 28.097 30.3288 22.6518 35.5835 18.4673C38.7785 16.0028 42.4292 14.1953 46.3253 13.1487C47.2152 12.9104 48.1302 12.7222 49.0452 12.5592C53.5972 11.8019 58.2521 11.9254 62.7576 12.9229C64.4318 13.277 66.0847 13.7251 67.7086 14.2651C69.4431 14.8248 71.1461 15.478 72.81 16.222C75.0598 17.2201 77.2524 18.3424 79.3779 19.5837C81.7361 20.9643 84.0204 22.4674 86.2216 24.087C87.9011 25.3413 89.5807 26.5957 91.2352 28.0257C115.426 48.4596 134.453 84.8744 139.279 119.897C139.621 122.297 139.885 124.672 140.068 127.022C140.353 130.367 140.49 133.712 140.482 137.057C140.482 139.766 140.357 142.4 140.156 144.934C139.981 147.142 139.73 149.262 139.417 151.319C139.103 153.376 138.715 155.346 138.264 157.252C137.089 162.509 135.187 167.576 132.611 172.305C132.084 173.233 131.545 174.136 130.981 175.002C128.679 178.601 125.755 181.761 122.345 184.334C117.414 188.049 111.477 190.187 105.311 190.468C100.7 190.677 96.0889 190.074 91.6865 188.687C87.2026 187.308 82.8983 185.4 78.864 183.005C76.2645 181.476 73.7536 179.801 71.3435 177.987C68.0968 175.555 65.0072 172.92 62.0933 170.097C41.9007 150.654 26.0073 120.235 20.179 89.9672C19.3433 85.4598 18.7083 80.9774 18.2738 76.5202C17.9353 72.757 17.7724 69.1193 17.785 65.4816C17.7736 60.241 18.2013 55.0086 19.0634 49.8395Z" fill="white"/>
<path opacity="0.05" d="M138.063 112.633C138.527 115.054 138.941 117.475 139.317 119.896C139.693 122.317 139.919 124.662 140.107 127.021C140.391 130.366 140.529 133.711 140.52 137.056C140.52 139.765 140.395 142.399 140.194 144.933C140.019 147.141 139.768 149.261 139.455 151.318C139.141 153.375 138.753 155.345 138.302 157.251C137.127 162.508 135.225 167.574 132.649 172.304C132.122 173.232 131.583 174.135 131.019 175.001C128.717 178.6 125.793 181.76 122.383 184.333C117.441 188.055 111.49 190.193 105.312 190.467C100.701 190.676 96.0894 190.073 91.687 188.686C87.2031 187.307 82.8988 185.399 78.8645 183.004C76.5958 181.674 74.3773 180.194 72.1712 178.588L138.063 112.633Z" fill="black"/>
<path opacity="0.05" d="M137.11 161.531C135.998 165.279 134.485 168.896 132.598 172.319C132.072 173.247 131.533 174.15 130.969 175.016C128.666 178.615 125.742 181.775 122.333 184.349C118.287 187.389 113.549 189.372 108.545 190.119L137.11 161.531Z" fill="black"/>
<path opacity="0.25" d="M129.679 84.1328C131.646 89.0751 133.364 94.1679 134.83 99.1854L63.0593 171.011L62.0817 170.096C58.9864 167.084 56.0574 163.906 53.3078 160.575L129.679 84.1328Z" fill="#9DA3A6"/>
<path opacity="0.25" d="M106.214 43.4922C109.484 47.5715 112.531 51.826 115.339 56.2367L36.3735 135.263C33.8667 130.471 31.4726 125.454 29.3669 120.436L106.214 43.4922Z" fill="#9DA3A6"/>
<path opacity="0.25" d="M97.2522 33.5586C99.1449 35.4402 101.012 37.4221 102.817 39.4793L27.2864 115.068C26.2335 112.246 25.2433 109.399 24.3408 106.514L97.2522 33.5586Z" fill="#9DA3A6"/>
<path opacity="0.25" d="M17.9482 60.0376C18.0234 58.57 18.1487 57.14 18.2866 55.735C18.2866 55.2709 18.3743 54.7943 18.4245 54.3427C18.4746 53.8911 18.5373 53.3893 18.6 52.9127C18.7378 51.8715 18.8882 50.843 19.0637 49.8394C19.925 44.4873 21.4579 39.2655 23.6262 34.2976C26.2159 28.097 30.329 22.6518 35.5838 18.4673C38.7788 16.0028 42.4295 14.1953 46.3256 13.1487C47.2155 12.9104 48.1179 12.7222 49.0455 12.5592C53.5975 11.8019 58.2524 11.9254 62.7579 12.9229C63.3595 13.0484 64.0113 13.2114 64.5879 13.362L17.9482 60.0376Z" fill="#9DA3A6"/>
<path d="M33.4023 74.8865C33.4023 107.199 52.2036 144.517 76.0185 160.385C77.0213 161.05 78.0491 161.702 79.0894 162.292C104.333 176.88 124.789 161.401 124.789 127.709C124.789 94.0158 104.333 54.8791 79.0894 40.2906C78.0491 39.701 77.0213 39.1617 76.0185 38.6599C52.2287 27.0067 33.4023 42.5736 33.4023 74.8865Z" fill="#263238"/>
<path opacity="0.4" d="M33.4023 74.8865C33.4023 107.199 52.2036 144.517 76.0185 160.385C77.0213 161.05 78.0491 161.702 79.0894 162.292C104.333 176.88 124.789 161.401 124.789 127.709C124.789 94.0158 104.333 54.8791 79.0894 40.2906C78.0491 39.701 77.0213 39.1617 76.0185 38.6599C52.2287 27.0067 33.4023 42.5736 33.4023 74.8865Z" fill="black"/>
<path d="M35.4336 76.069C35.4336 77.0976 35.4336 78.1513 35.5088 79.2049C36.6619 109.31 54.1973 143.103 76.1947 157.754L76.7839 158.143C77.561 158.645 78.3381 159.134 79.1277 159.586C83.3296 162.134 87.9871 163.838 92.8401 164.603C103.093 166.008 111.641 161.505 116.981 152.31C120.089 146.904 122.082 139.879 122.634 131.463C122.747 129.882 122.797 128.251 122.797 126.57C122.797 124.89 122.797 123.472 122.659 121.904C122.475 118.575 122.107 115.258 121.556 111.969C117.695 88.7006 105.262 64.9552 89.5186 50.7054C87.3229 48.7139 84.9946 46.8741 82.5496 45.1986C81.4215 44.4334 80.2809 43.7059 79.1277 43.0411C77.9746 42.3763 77.1473 41.9498 76.1947 41.4731L75.3675 41.0968C68.8246 38.0486 62.708 37.1706 57.3058 38.2117C48.1182 39.9804 41.0113 47.3185 37.6396 59.0345C36.1126 64.5816 35.3701 70.3156 35.4336 76.069Z" fill="#263238"/>
<path opacity="0.7" d="M35.4336 76.069C35.4336 77.0976 35.4336 78.1513 35.5088 79.2049C36.6619 109.31 54.1973 143.103 76.1947 157.754L76.7839 158.143C77.561 158.645 78.3381 159.134 79.1277 159.586C83.3296 162.134 87.9871 163.838 92.8401 164.603C103.093 166.008 111.641 161.505 116.981 152.31C120.089 146.904 122.082 139.879 122.634 131.463C122.747 129.882 122.797 128.251 122.797 126.57C122.797 124.89 122.797 123.472 122.659 121.904C122.475 118.575 122.107 115.258 121.556 111.969C117.695 88.7006 105.262 64.9552 89.5186 50.7054C87.3229 48.7139 84.9946 46.8741 82.5496 45.1986C81.4215 44.4334 80.2809 43.7059 79.1277 43.0411C77.9746 42.3763 77.1473 41.9498 76.1947 41.4731L75.3675 41.0968C68.8246 38.0486 62.708 37.1706 57.3058 38.2117C48.1182 39.9804 41.0113 47.3185 37.6396 59.0345C36.1126 64.5816 35.3701 70.3156 35.4336 76.069Z" fill="black"/>
<path d="M42.7542 74.988C42.7542 73.9343 42.7542 72.8806 42.7542 71.8395C42.684 66.0823 43.4223 60.3439 44.9477 54.7924C46.9281 47.956 50.1745 42.6249 54.3483 38.9997C55.335 38.6576 56.3444 38.3852 57.3691 38.1843C62.7713 37.1432 68.888 38.0213 75.4308 41.0694L76.2581 41.4458C77.2107 41.9224 78.2009 42.4493 79.1911 43.0137C80.1813 43.5782 81.4849 44.4061 82.6129 45.1713C85.0579 46.8467 87.3863 48.6865 89.582 50.678C105.312 64.9278 117.696 88.6733 121.607 111.942C122.158 115.231 122.526 118.547 122.71 121.877C122.81 123.445 122.848 124.988 122.848 126.543C122.848 128.099 122.848 129.855 122.685 131.435C122.133 139.852 120.178 146.877 117.032 152.283C115.521 154.946 113.577 157.337 111.279 159.358C107.7 160.568 103.885 160.912 100.148 160.361C95.2928 159.59 90.6322 157.886 86.4233 155.344C85.6337 154.892 84.8566 154.403 84.092 153.901L83.4903 153.512C61.4427 138.874 43.8948 105.106 42.7542 74.988Z" fill="#263238"/>
<path opacity="0.6" d="M42.7542 74.988C42.7542 73.9343 42.7542 72.8806 42.7542 71.8395C42.684 66.0823 43.4223 60.3439 44.9477 54.7924C46.9281 47.956 50.1745 42.6249 54.3483 38.9997C55.335 38.6576 56.3444 38.3852 57.3691 38.1843C62.7713 37.1432 68.888 38.0213 75.4308 41.0694L76.2581 41.4458C77.2107 41.9224 78.2009 42.4493 79.1911 43.0137C80.1813 43.5782 81.4849 44.4061 82.6129 45.1713C85.0579 46.8467 87.3863 48.6865 89.582 50.678C105.312 64.9278 117.696 88.6733 121.607 111.942C122.158 115.231 122.526 118.547 122.71 121.877C122.81 123.445 122.848 124.988 122.848 126.543C122.848 128.099 122.848 129.855 122.685 131.435C122.133 139.852 120.178 146.877 117.032 152.283C115.521 154.946 113.577 157.337 111.279 159.358C107.7 160.568 103.885 160.912 100.148 160.361C95.2928 159.59 90.6322 157.886 86.4233 155.344C85.6337 154.892 84.8566 154.403 84.092 153.901L83.4903 153.512C61.4427 138.874 43.8948 105.106 42.7542 74.988Z" fill="black"/>
<path d="M49.0462 12.5585C52.9544 11.9498 56.937 12.0007 60.8284 12.709C62.7572 13.0908 64.6649 13.5723 66.544 14.1516C67.0192 14.2736 67.4877 14.4201 67.9478 14.5906L69.314 15.13L72.0715 16.2213C75.6744 17.7982 79.1306 19.6914 82.3997 21.8786C84.0417 22.995 85.646 24.0738 87.1627 25.3407C88.6793 26.6076 90.3213 27.7742 91.7251 29.1038C93.129 30.4335 94.6957 31.7255 96.0745 33.1179C97.4533 34.5102 98.8571 35.8901 100.173 37.3577L104.059 41.7606L107.819 46.4269L111.304 51.1935C112.444 52.7992 113.497 54.4675 114.6 56.0982C116.706 59.4223 118.761 62.784 120.604 66.2587L122.02 68.8553L123.274 71.502C124.151 73.2707 125.054 75.0143 125.78 76.8332C127.422 80.4081 128.889 84.0709 130.33 87.7337L132.298 93.3032C132.925 95.1722 133.464 97.0664 134.053 98.9479C134.642 100.829 135.081 102.711 135.607 104.643C136.134 106.575 136.535 108.406 136.948 110.388L137.563 113.286L138.051 116.196C138.365 118.153 138.728 120.047 138.904 122.029C139.079 124.011 139.368 125.967 139.543 127.912C139.719 129.856 139.831 131.838 139.894 133.795C139.894 134.786 139.894 135.764 139.957 136.755C140.019 137.746 139.894 138.712 139.869 139.69C139.781 141.66 139.769 143.679 139.618 145.586L138.966 151.456L137.876 157.277V157.352V157.277C136.737 162.479 134.903 167.504 132.424 172.216C131.759 173.345 131.108 174.537 130.381 175.641C129.654 176.745 128.851 177.824 128.012 178.852C126.325 180.921 124.402 182.786 122.283 184.409C124.443 182.829 126.412 181.002 128.149 178.965C129.014 177.949 129.842 176.895 130.656 175.791C131.471 174.688 132.073 173.534 132.8 172.392C135.416 167.702 137.365 162.669 138.59 157.44V157.352V157.415L139.756 151.594L140.496 145.686C140.684 143.654 140.709 141.722 140.822 139.74C140.822 138.737 140.922 137.784 140.947 136.755C140.972 135.726 140.947 134.761 140.947 133.77C140.947 131.788 140.809 129.806 140.671 127.824C140.533 125.842 140.257 123.885 140.057 121.903C139.856 119.921 139.53 117.952 139.217 116.008L138.741 113.072L138.139 110.162C137.738 108.218 137.337 106.274 136.811 104.354C136.284 102.435 135.883 100.491 135.269 98.6093C134.655 96.7277 134.153 94.8461 133.527 92.9143L131.559 87.2947L129.378 81.7629C128.676 79.9064 127.786 78.1252 126.996 76.3063C126.207 74.4875 125.292 72.7188 124.414 70.9501L123.086 68.2782L121.607 65.619C119.726 62.1192 117.646 58.7324 115.502 55.3957C114.399 53.7525 113.322 52.0842 112.168 50.466L108.634 45.6742L104.873 41.0581C103.62 39.5529 102.229 38.0978 100.9 36.6302C99.5715 35.1625 98.0925 33.8078 96.7012 32.3903C95.3099 30.9729 93.7556 29.7436 92.2892 28.4139C90.8227 27.0843 89.1932 25.9052 87.639 24.7135C86.0793 23.4794 84.4559 22.3279 82.7757 21.264C79.4501 19.0814 75.9196 17.2286 72.2345 15.7321L69.4644 14.691L68.0731 14.1767C67.6002 14.0171 67.119 13.8831 66.6317 13.7753C64.7274 13.2256 62.7941 12.7818 60.8409 12.4456C56.9308 11.8209 52.9436 11.8591 49.0462 12.5585Z" fill="#F5F5F5"/>
<path d="M77.4798 83.9484C98.7437 109.914 108.498 125.143 103.621 134.709C101.67 137.247 97.8572 139.891 95.0374 141.347L93.4767 141.737C74.6982 140.486 68.3726 132.633 55.6309 110.11L60.5079 105.034C70.1866 119.972 74.7212 128.02 89.38 134.709C88.4046 110.11 50.9489 90.3914 60.5079 64.6199C76.8948 54.4687 89.38 63.6445 104.401 92.1481L96.2079 95.0761L94.842 92.1481C82.552 67.5484 69.7519 71.1453 77.4798 83.9484Z" fill="#7D8488"/>
<path d="M82.5513 100.349C70.6625 87.3147 68.147 80.3347 66.7497 68.1358C55.8258 66.9644 53.6801 81.6069 73.9677 104.839C87.4474 117.961 89.7656 125.56 87.6234 139.395H95.8169C99.0796 127.564 98.7286 120.048 82.5513 100.349Z" fill="#646A6D"/>
<path d="M82.3476 99.3001C74.809 89.9388 68.2953 81.8633 68.7736 73.4527C68.9786 70.1642 71.0056 69.5118 72.6682 69.5491C74.7407 69.5917 77.5193 70.7838 79.9334 72.6379C86.356 77.5809 91.4121 84.3497 96.3316 94.5645L98.2219 93.8734C92.8925 82.7958 87.1304 75.1266 80.0929 69.7053C79.5463 69.274 78.9997 68.898 78.4303 68.5341C78.3164 68.4558 78.2025 68.3774 78.1114 68.3148C73.4881 65.1348 68.4548 63.4982 64.583 63.9327C60.028 64.4504 57.4771 67.7018 57.4088 73.1032C57.2266 86.3085 66.3139 97.0945 74.3308 106.619C81.7099 115.4 88.1097 122.983 87.9731 131.656C87.9048 137.527 81.2089 136.103 76.4944 132.86C76.4261 132.813 76.3805 132.782 76.3122 132.735L76.3122 132.762L76.2894 132.747C69.3202 127.842 63.1254 120.041 57.8643 109.564L56.0195 110.369C61.6905 121.682 68.6825 130.474 76.2666 135.801C76.3805 135.879 76.4944 135.957 76.6083 136.036C81.5049 139.404 86.7888 141.462 90.8428 141.54C95.8077 141.663 98.7002 138.868 98.9963 133.706C99.7478 120.893 90.5011 109.416 82.3476 99.3001ZM96.491 131.734C96.1949 137.034 92.5964 138.072 89.6357 137.999C89.3624 138.005 89.0891 137.983 88.8158 137.96C89.8406 137.061 90.4556 135.576 90.5011 133.422C90.6378 122.675 82.8487 113.418 75.3101 104.471C67.3388 95.0061 59.8002 86.032 59.9369 74.8697C59.9824 70.5036 62.146 67.8709 65.9951 67.4207C66.5644 67.3421 67.1794 67.3502 67.8171 67.374C66.9288 68.3119 66.405 69.6939 66.3139 71.5119C65.699 81.9305 73.6475 91.795 81.3455 101.321C89.4535 111.434 97.1287 120.972 96.491 131.734Z" fill="white" stroke="white" stroke-width="2.25"/>
<mask id="mask1" style="mask-type:alpha" maskUnits="userSpaceOnUse" x="54" y="62" width="46" height="81">
<path d="M82.3476 99.3001C74.809 89.9388 68.2953 81.8633 68.7736 73.4527C68.9786 70.1642 71.0056 69.5118 72.6682 69.5491C74.7407 69.5917 77.5193 70.7838 79.9334 72.6379C86.356 77.5809 91.4121 84.3497 96.3316 94.5645L98.2219 93.8734C92.8925 82.7958 87.1304 75.1266 80.0929 69.7053C79.5463 69.274 78.9997 68.898 78.4303 68.5341C78.3164 68.4558 78.2025 68.3774 78.1114 68.3148C73.4881 65.1348 68.4548 63.4982 64.583 63.9327C60.028 64.4504 57.4771 67.7018 57.4088 73.1032C57.2266 86.3085 66.3139 97.0945 74.3308 106.619C81.7099 115.4 88.1097 122.983 87.9731 131.656C87.9048 137.527 81.2089 136.102 76.4944 132.86C76.4261 132.813 76.3805 132.782 76.3122 132.735L76.3122 132.762L76.2894 132.747C69.3202 127.842 63.1254 120.041 57.8643 109.564L56.0195 110.369C61.6905 121.682 68.6825 130.474 76.2666 135.801C76.3805 135.879 76.4944 135.957 76.6083 136.036C81.5049 139.404 86.7888 141.462 90.8428 141.54C95.8077 141.663 98.7002 138.868 98.9963 133.706C99.7478 120.893 90.5011 109.416 82.3476 99.3001ZM96.491 131.734C96.1949 137.034 92.5964 138.072 89.6357 137.999C89.3624 138.005 89.0891 137.983 88.8158 137.96C89.8406 137.061 90.4556 135.576 90.5011 133.422C90.6378 122.675 82.8487 113.418 75.3101 104.471C67.3388 95.0061 59.8002 86.032 59.9369 74.8697C59.9824 70.5036 62.146 67.8709 65.9951 67.4207C66.5644 67.3421 67.1794 67.3502 67.8171 67.374C66.9288 68.3119 66.405 69.6939 66.3139 71.5119C65.699 81.9305 73.6475 91.795 81.3455 101.321C89.4535 111.434 97.1287 120.972 96.491 131.734Z" fill="white" stroke="white" stroke-width="2.25"/>
</mask>
<g mask="url(#mask1)">
<path opacity="0.25" d="M130.248 83.4766C132.216 88.4188 133.933 93.5116 135.399 98.5292L63.6287 170.355L62.651 169.439C59.5557 166.428 56.6268 163.249 53.8771 159.919L130.248 83.4766Z" fill="#9DA3A6"/>
<path opacity="0.25" d="M106.784 42.832C110.055 46.9114 113.101 51.1659 115.909 55.5766L36.9438 134.603C34.437 129.811 32.043 124.793 29.9372 119.776L106.784 42.832Z" fill="#9DA3A6"/>
<path opacity="0.25" d="M97.8215 32.8984C99.7142 34.78 101.582 36.7619 103.387 38.8191L27.8557 114.408C26.8028 111.586 25.8126 108.738 24.9102 105.853L97.8215 32.8984Z" fill="#9DA3A6"/>
</g>
</svg>
