<svg width="20" height="20" viewBox="0 0 20 20" fill="none" xmlns="http://www.w3.org/2000/svg">
<path fill-rule="evenodd" clip-rule="evenodd" d="M16.3905 2.8128C14.5763 0.9984 12.1665 0 9.60291 0C4.30855 0 0.00195312 4.30656 0.00195312 9.6C0.00195312 14.8934 4.30855 19.2 9.60291 19.2C12.1665 19.2 14.5783 18.2016 16.3905 16.3872C18.2046 14.5728 19.202 12.1632 19.202 9.6C19.202 7.0368 18.2046 4.62528 16.3905 2.8128ZM12.9148 9.64797C13.6787 10.3305 14.0218 11.1685 13.9513 12.184C13.8865 13.1434 13.2644 13.9649 12.2611 14.5127C11.462 14.9541 10.4129 15.2125 9.44733 15.2125H9.3791C7.86898 15.1943 6.48068 14.5393 5.36489 13.3392L5.14326 13.103L5.38095 12.8803L5.72696 12.5597L5.96349 12.3456L6.18268 12.5792C7.0775 13.5385 8.11104 14.0406 9.25954 14.0893H9.42619C9.80543 14.0893 10.2776 13.9811 10.6496 13.7783C11.0274 13.5723 11.2421 13.3056 11.2461 13.0089L11.2461 13.0075C11.2568 12.4561 11.0216 12.0816 10.613 11.7671C10.1891 11.4408 9.59744 11.1938 8.91715 10.9122L8.89381 10.9035L8.8864 10.8998L8.86955 10.8928C8.12368 10.5848 7.287 10.2393 6.64372 9.69795C5.97845 9.13815 5.51805 8.36828 5.53664 7.23487C5.55163 6.27236 6.09768 5.41085 7.02217 4.79982C7.79385 4.28987 8.80278 3.98814 9.7279 3.98814H9.78071C9.82995 3.98622 9.87642 3.98622 9.91459 3.98622H9.91623C9.98614 3.98622 10.0551 3.98815 10.1225 3.9947C11.5331 4.09068 12.6839 4.7086 13.7271 5.90363L13.9411 6.14695L13.6963 6.36189L13.3405 6.671L13.0939 6.88002L12.8859 6.63507C12.0161 5.64295 11.147 5.18342 10.0492 5.10909C10.0039 5.1072 9.9615 5.10558 9.92007 5.10558C9.55379 5.10558 9.15786 5.20436 8.86738 5.3639C8.60275 5.50827 8.33504 5.74716 8.30715 6.11505C8.27156 6.66068 8.49779 7.04777 8.91238 7.38652C9.3397 7.73567 9.94454 8.01446 10.6366 8.33027L10.6423 8.33215L10.6701 8.34484C11.4385 8.69464 12.2722 9.07417 12.9148 9.64797ZM9.79854 14.9609C9.68064 14.9686 9.56337 14.9725 9.44735 14.9725L9.44733 14.9725L9.38201 14.9725C9.382 14.9725 9.382 14.9725 9.38199 14.9725M10.4415 14.1363C11.002 13.9244 11.4791 13.5426 11.4863 13.0121C11.5113 11.7262 10.3513 11.2461 9.00672 10.6895L9.00669 10.6895C10.3513 11.2461 11.5113 11.7262 11.4863 13.0121C11.4791 13.5425 11.0019 13.9244 10.4415 14.1363ZM8.98996 10.6832L8.98613 10.6813L8.97864 10.6782C7.46039 10.0511 5.74231 9.34148 5.77684 7.2387C5.7903 6.37278 6.28034 5.5779 7.15473 4.99998C7.50374 4.76934 7.90515 4.5832 8.32483 4.45154C7.90515 4.5832 7.50372 4.76934 7.1547 4.99998C6.28032 5.5779 5.79027 6.37278 5.77682 7.2387C5.74229 9.34148 7.46036 10.0511 8.97862 10.6782L8.97864 10.6782L8.98611 10.6813L8.98996 10.6832ZM9.92007 4.86558C9.96812 4.86558 10.0162 4.8675 10.0623 4.86942C10.1357 4.87434 10.2081 4.8809 10.2796 4.88911C10.2081 4.8809 10.1357 4.87434 10.0623 4.86942C10.0162 4.8675 9.96814 4.86558 9.92009 4.86558C9.92009 4.86558 9.92008 4.86558 9.92007 4.86558ZM11.1004 5.07045C11.8151 5.31255 12.4465 5.76923 13.0679 6.47838L13.1217 6.54174H13.1217L13.0679 6.47838C12.4465 5.76922 11.8151 5.31255 11.1004 5.07045ZM9.91623 4.22622C9.87587 4.22622 9.83167 4.22622 9.78555 4.22814H9.78557C9.83169 4.22622 9.87588 4.22622 9.91623 4.22622ZM10.2987 9.12414C9.58187 8.79966 8.84008 8.46366 8.29239 7.99518C7.66591 7.46142 7.38725 6.82398 7.44298 6.04638C7.45451 5.84862 7.50064 5.66046 7.58327 5.47998C7.55829 5.49534 7.53523 5.5107 7.51217 5.52606C6.81458 5.98878 6.42639 6.59934 6.4187 7.24446C6.39372 8.92254 7.77544 9.49086 9.23788 10.0918L9.25559 10.0991C9.95341 10.3867 10.6722 10.683 11.2153 11.119C11.8418 11.6221 12.1397 12.2422 12.1282 13.0179C12.1224 13.2483 12.0686 13.4653 11.9706 13.6649C12.476 13.3635 13.0314 12.8643 13.0794 12.1174C13.1313 11.3629 12.8872 10.7753 12.3107 10.2685C11.7914 9.81088 11.0753 9.48121 10.3185 9.13286L10.3121 9.1299L10.2987 9.12414Z" fill="#B2BFCD"/>
</svg>
