<svg width="20" height="20" viewBox="0 0 20 20" fill="none" xmlns="http://www.w3.org/2000/svg">
<path fill-rule="evenodd" clip-rule="evenodd" d="M16.3902 2.8128C14.5761 0.9984 12.1663 0 9.60267 0C4.3083 0 0.00170898 4.30656 0.00170898 9.6C0.00170898 14.8934 4.3083 19.2 9.60267 19.2C12.1663 19.2 14.578 18.2016 16.3902 16.3872C18.2043 14.5728 19.2017 12.1632 19.2017 9.6C19.2017 7.0368 18.2043 4.62528 16.3902 2.8128ZM12.9145 9.64797C13.6784 10.3305 14.0216 11.1685 13.951 12.184C13.8862 13.1434 13.2642 13.9649 12.2609 14.5127C11.4617 14.9541 10.4126 15.2125 9.44708 15.2125H9.37885C7.86873 15.1943 6.48044 14.5393 5.36464 13.3392L5.14301 13.103L5.3807 12.8803L5.72672 12.5597L5.96324 12.3456L6.18243 12.5792C7.07726 13.5385 8.1108 14.0406 9.2593 14.0893H9.42594C9.80518 14.0893 10.2774 13.9811 10.6493 13.7783C11.0271 13.5723 11.2418 13.3056 11.2458 13.0089L11.2459 13.0075C11.2566 12.4561 11.0214 12.0816 10.6128 11.7671C10.1889 11.4408 9.5972 11.1938 8.91691 10.9122L8.89357 10.9035L8.88616 10.8998L8.86931 10.8928C8.12344 10.5848 7.28676 10.2393 6.64347 9.69795C5.97821 9.13815 5.51781 8.36828 5.53639 7.23487C5.55139 6.27236 6.09743 5.41085 7.02192 4.79982C7.79361 4.28987 8.80254 3.98814 9.72766 3.98814H9.78047C9.8297 3.98622 9.87617 3.98622 9.91434 3.98622H9.91599C9.9859 3.98622 10.0548 3.98815 10.1223 3.9947C11.5329 4.09068 12.6836 4.70859 13.7269 5.90363L13.9409 6.14695L13.6961 6.36189L13.3403 6.671L13.0937 6.88002L12.8857 6.63507C12.0159 5.64295 11.1468 5.18342 10.049 5.10909C10.0036 5.1072 9.96126 5.10558 9.91983 5.10558C9.55355 5.10558 9.15761 5.20437 8.86713 5.3639C8.60251 5.50827 8.3348 5.74716 8.30691 6.11505C8.27132 6.66068 8.49755 7.04777 8.91214 7.38652C9.33946 7.73567 9.94429 8.01446 10.6364 8.33027L10.642 8.33215L10.6699 8.34484C11.4383 8.69464 12.2719 9.07417 12.9145 9.64797ZM9.7983 14.9609C9.6804 14.9686 9.56312 14.9725 9.44711 14.9725L9.44708 14.9725L9.38177 14.9725C9.38176 14.9725 9.38175 14.9725 9.38174 14.9725M10.4412 14.1363C11.0017 13.9244 11.4789 13.5426 11.4861 13.0121C11.511 11.7262 10.3511 11.2461 9.00647 10.6895L9.00645 10.6895C10.3511 11.2461 11.511 11.7262 11.486 13.0121C11.4788 13.5425 11.0017 13.9244 10.4412 14.1363ZM8.98971 10.6832L8.98589 10.6813L8.9784 10.6782C7.46014 10.0511 5.74207 9.34148 5.7766 7.2387C5.79005 6.37278 6.28009 5.5779 7.15448 4.99998C7.50913 4.76562 7.91788 4.57721 8.34492 4.44521C7.91787 4.57721 7.50911 4.76562 7.15446 4.99998C6.28007 5.5779 5.79003 6.37278 5.77658 7.2387C5.74204 9.34148 7.46012 10.0511 8.97838 10.6782L8.9784 10.6782L8.98587 10.6813L8.98971 10.6832ZM9.91983 4.86558C9.93334 4.86558 9.94686 4.86573 9.96033 4.86599C9.99476 4.86666 10.0289 4.86804 10.0621 4.86942C10.1354 4.87434 10.2078 4.8809 10.2793 4.88911C10.2078 4.8809 10.1354 4.87434 10.062 4.86942" fill="#040506"/>
</svg>
