<svg width="112" height="378" viewBox="0 0 112 378" fill="none" xmlns="http://www.w3.org/2000/svg">
<g clip-path="url(#clip0)">
<g opacity="0.2">
<path d="M25.5588 325.212C36.1737 329.347 46.3813 334.96 57.6287 336.765C74.0529 339.402 91.4584 333.69 107.231 338.969C108.421 339.369 109.686 339.905 110.298 341.004C112.135 344.302 106.789 346.76 103.01 346.82C71.9497 347.438 41.0089 350.862 10.565 357.049C5.83737 358.012 1.07316 359.056 -3.28725 361.123C-9.92238 364.262 -15.3063 369.612 -21.9976 372.612C-25.965 374.362 -30.2606 375.243 -34.5963 375.196C-38.9321 375.149 -43.2077 374.176 -47.1364 372.341C-51.3694 366.056 -48.6422 357.031 -43.1106 351.853C-37.5791 346.675 -30.0098 344.403 -22.7313 342.294C-16.8537 340.592 -10.9771 338.889 -5.10151 337.185C-4.02998 336.874 -2.87963 336.51 -2.21354 335.616C2.78374 328.891 -12.7784 327.987 -2.76323 321.179C3.64295 316.822 19.3583 322.781 25.5441 325.191" fill="#5F5F6B"/>
<path d="M41.501 248.55C36.6475 244.407 31.4586 240.929 26.3285 237.168C20.7722 233.105 16.9118 227.296 13.4013 221.523C7.31888 211.506 2.30733 200.693 -3.9501 190.658C-13.179 175.857 -18.6984 161.909 -19.3115 144.413C-19.8184 129.856 -28.2885 117.578 -37.8798 107.223C-42.4161 102.327 -44.3606 95.815 -46.8142 89.816C-50.0768 81.8468 -53.6514 73.8393 -56.4405 65.6688C-59.6016 56.4054 -64.7967 41.7357 -61.6577 32.0507C-61.0974 30.3222 -59.8945 29.3462 -58.1641 30.2572C-57.221 30.7703 -56.3483 31.4032 -55.5677 32.1402C-51.4673 43.8919 -46.32 55.3826 -41.2078 66.7202C-39.8037 69.837 -38.3586 73.0087 -36.2362 75.6614L-36.0443 76.1626C-35.9855 76.1432 -35.9265 76.1266 -35.8677 76.1072C-35.6071 76.4146 -35.3359 76.715 -35.0542 77.0086C-32.1817 79.9677 -28.3781 81.7963 -24.902 84.0199C-20.8089 86.651 -17.1286 89.8746 -13.9812 93.5854C-15.3097 101.268 -16.4225 108.496 -14.7368 115.995C-13.1283 123.161 -8.50534 127.209 -3.45505 132.63C3.82963 140.451 10.5636 149.399 16.3146 158.267C21.3679 166.054 23.3443 175.754 25.8448 184.757C28.7885 195.335 32.1385 205.461 36.5846 215.49C40.7598 224.907 45.6021 233.45 51.3167 242.037C55.2206 247.899 63.106 260.017 61.8054 261.942C60.5047 263.866 45.4948 251.948 41.4949 248.537" fill="#EA7534"/>
<path d="M-45.6085 -44.9517L-60.6228 -112.831C-61.7549 -117.939 -62.9382 -123.196 -65.7981 -127.592C-68.3949 -131.579 -72.2499 -134.662 -74.6306 -138.783C-77.2355 -143.295 -77.8612 -148.652 -78.2311 -153.848C-79.5615 -172.203 -78.5791 -190.652 -75.3069 -208.763C-74.4954 -213.25 -72.5817 -218.665 -68.0627 -219.248C-63.1092 -219.89 -59.895 -214.167 -58.7377 -209.308C-54.3678 -190.939 -58.2556 -171.358 -53.8512 -153.004C-50.3849 -138.587 -42.0455 -125.84 -37.2454 -111.813C-32.7401 -98.6496 -31.4436 -84.6508 -30.1785 -70.7862L-26.438 -29.7745C-25.8645 -23.4823 -25.2731 -17.1067 -23.09 -11.1861C-20.2573 -3.48546 -14.9324 2.98472 -10.1236 9.62305C0.584886 24.4303 9.06938 40.7245 15.0603 57.9882C0.680155 52.871 -10.8669 40.404 -14.8498 25.6715C-18.9423 10.5559 -25.4595 6.73613 -32.8757 -5.77362C-39.848 -17.5341 -42.6938 -31.7845 -45.6094 -44.9679" fill="#FFD72E"/>
<path d="M31.838 149.142C23.4667 143.02 19.3537 132.335 10.9568 126.244C8.05237 124.138 4.7036 122.639 2.05234 120.223C-2.65647 115.935 -4.50422 109.453 -7.31024 103.736C-11.2801 95.6854 -17.3674 88.8681 -24.9189 84.0157C-28.3922 81.792 -32.1986 79.9635 -35.0711 77.0044C-37.8688 74.123 -39.5746 70.3802 -41.2245 66.7187C-51.5475 43.8203 -62.033 20.3021 -63.6909 -4.76384C-64.4969 -16.9581 -63.1841 -29.2459 -64.6202 -41.3749C-67.4626 -65.3707 -80.6916 -86.6285 -91.4708 -108.258C-102.25 -129.887 -110.542 -158.87 -103.914 -177.886C-99.2176 -182.817 -99.5507 -155.087 -89.976 -148.252C-84.8935 -144.624 -79.2542 -141.531 -74.1226 -137.952C-71.7278 -134.24 -68.2234 -131.314 -65.8068 -127.602C-62.947 -123.207 -61.7724 -117.963 -60.6315 -112.842L-45.6086 -44.9515C-42.6935 -31.7788 -39.8362 -17.5156 -32.8749 -5.75719C-25.456 6.75241 -18.9415 10.5724 -14.849 25.688C-10.8552 40.4199 0.681094 52.8901 15.0611 58.0046C14.8022 57.2594 14.5325 56.5147 14.263 55.7728C19.9193 65.2277 25.8393 74.5249 31.9059 83.7111C35.5996 89.2951 39.4056 94.9467 41.3232 101.36C42.4024 104.974 42.8572 108.766 44.1396 112.313C47.8311 122.525 45.0659 125.834 44.7252 125.606C43.0383 124.538 42.1128 125.41 42.1707 127.525C42.4314 136.909 48.7622 145.842 57.531 149.195C61.2373 150.612 65.3149 151.116 68.7364 153.128C72.158 155.139 74.7628 159.491 73.017 163.056C60.6956 155.219 43.6226 157.744 31.8371 149.123" fill="#E5C7A3"/>
<path d="M9.7825 256.689C2.03515 241.567 -11.3384 228.537 -26.5836 216.803C-29.3505 214.673 -31.7886 213.538 -33.9073 213.212C-37.03 203.859 -41.0012 194.812 -45.7713 186.182C-48.5766 181.109 -51.6946 176.088 -53.0309 170.45C-55.0069 162.123 -52.8913 153.416 -50.3757 145.239C-49.9222 143.758 -49.4076 142.198 -48.2593 141.165C-46.6256 139.686 -44.1515 139.628 -41.9828 140.024C-29.1 142.377 -22.0653 156.394 -19.0551 169.146C-15.8846 182.577 -14.8806 196.705 -9.09226 209.232C-7.32258 213.053 -5.13157 216.662 -2.94639 220.263C4.50625 232.531 11.9887 244.85 21.0886 255.954C28.1043 264.514 36.5742 273.745 35.694 284.778C35.076 284.781 34.461 284.756 33.8492 284.703C25.6435 278.523 16.5809 269.976 9.77165 256.69" fill="#4195C4"/>
<path d="M9.78283 256.69C27.5975 291.458 60.7904 293.776 54.113 306.121C49.0426 315.58 11.438 290.675 1.7239 288.864C-17.4949 285.295 -43.6379 310.456 -49.6624 288.071C-55.687 265.687 -39.4947 261.014 -43.3183 242.222C-47.1418 223.429 -41.8203 205.069 -26.5833 216.803C-11.3462 228.538 2.03548 241.568 9.78283 256.69Z" fill="#D53A2C"/>
</g>
<path d="M22.781 298.344C33.3959 302.479 43.6035 308.093 54.8508 309.897C71.2751 312.535 88.6805 306.823 104.453 312.102C105.643 312.502 106.908 313.038 107.52 314.137C109.357 317.435 104.011 319.893 100.232 319.953C69.1719 320.571 38.2311 323.995 7.78714 330.182C3.05953 331.145 -1.70467 332.189 -6.06508 334.255C-12.7002 337.394 -18.0842 342.745 -24.7754 345.745C-28.7428 347.495 -33.0385 348.375 -37.3742 348.329C-41.7099 348.282 -45.9855 347.308 -49.9142 345.474C-54.1473 339.189 -51.42 330.164 -45.8885 324.986C-40.3569 319.807 -32.7877 317.536 -25.5091 315.427C-19.6316 313.725 -13.755 312.022 -7.87934 310.318C-6.80781 310.007 -5.65746 309.642 -4.99137 308.749C0.00591082 302.024 -15.5562 301.12 -5.54106 294.311C0.865123 289.955 16.5805 295.914 22.7663 298.324" fill="#5F5F6B"/>
<path d="M38.7232 221.683C33.8697 217.54 28.6808 214.062 23.5507 210.301C17.9944 206.238 14.134 200.429 10.6235 194.656C4.54104 184.639 -0.470506 173.826 -6.72793 163.79C-15.9569 148.99 -21.4763 135.041 -22.0893 117.546C-22.5962 102.989 -31.0663 90.7109 -40.6576 80.356C-45.194 75.46 -47.1384 68.9479 -49.592 62.9488C-52.8546 54.9796 -56.4292 46.9721 -59.2183 38.8016C-62.3794 29.5382 -67.5745 14.8686 -64.4355 5.18351C-63.8752 3.45502 -62.6723 2.47904 -60.942 3.39001C-59.9989 3.90306 -59.1261 4.53601 -58.3455 5.27305C-54.2451 17.0247 -49.0978 28.5155 -43.9857 39.853C-42.5815 42.9698 -41.1364 46.1416 -39.014 48.7942L-38.8221 49.2954C-38.7633 49.2761 -38.7044 49.2594 -38.6456 49.2401C-38.3849 49.5474 -38.1137 49.8479 -37.832 50.1414C-34.9596 53.1005 -31.1559 54.9291 -27.6799 57.1527C-23.5867 59.7838 -19.9064 63.0074 -16.759 66.7182C-18.0875 74.4006 -19.2003 81.6286 -17.5147 89.1276C-15.9061 96.2934 -11.2832 100.342 -6.23288 105.763C1.0518 113.584 7.7858 122.531 13.5368 131.4C18.59 139.186 20.5665 148.886 23.067 157.89C26.0107 168.467 29.3606 178.594 33.8068 188.623C37.982 198.04 42.8242 206.583 48.5389 215.17C52.4428 221.031 60.3281 233.15 59.0275 235.074C57.7269 236.999 42.717 225.081 38.7171 221.669" fill="#EA7534"/>
<path d="M-48.3864 -71.8188L-63.4006 -139.699C-64.5327 -144.806 -65.716 -150.064 -68.5759 -154.459C-71.1727 -158.447 -75.0277 -161.529 -77.4084 -165.65C-80.0133 -170.162 -80.639 -175.519 -81.0089 -180.715C-82.3393 -199.07 -81.3569 -217.52 -78.0848 -235.63C-77.2732 -240.118 -75.3595 -245.533 -70.8406 -246.115C-65.887 -246.758 -62.6728 -241.035 -61.5155 -236.176C-57.1456 -217.806 -61.0335 -198.225 -56.629 -179.871C-53.1628 -165.454 -44.8233 -152.707 -40.0232 -138.68C-35.5179 -125.517 -34.2214 -111.518 -32.9564 -97.6534L-29.2158 -56.6417C-28.6423 -50.3495 -28.0509 -43.9739 -25.8679 -38.0533C-23.0352 -30.3526 -17.7103 -23.8825 -12.9015 -17.2441C-2.19295 -2.43693 6.29155 13.8573 12.2825 31.121C-2.09768 26.0038 -13.6447 13.5368 -17.6277 -1.19566C-21.7202 -16.3113 -28.2374 -20.1311 -35.6536 -32.6408C-42.6258 -44.4013 -45.4716 -58.6516 -48.3872 -71.8351" fill="#FFD72E"/>
<path d="M29.0602 122.275C20.6889 116.153 16.5758 105.468 8.17895 99.3771C5.27454 97.2708 1.92577 95.7721 -0.725494 93.3562C-5.4343 89.0675 -7.28205 82.5857 -10.0881 76.8687C-14.0579 68.8182 -20.1453 62.0009 -27.6967 57.1485C-31.17 54.9248 -34.9764 53.0963 -37.8489 50.1372C-40.6466 47.2558 -42.3524 43.513 -44.0024 39.8515C-54.3253 16.9531 -64.8108 -6.56506 -66.4688 -31.631C-67.2747 -43.8253 -65.9619 -56.1131 -67.3981 -68.2421C-70.2405 -92.2379 -83.4694 -113.496 -94.2486 -135.125C-105.028 -156.755 -113.32 -185.738 -106.691 -204.753C-101.995 -209.684 -102.329 -181.954 -92.7538 -175.119C-87.6714 -171.492 -82.032 -168.399 -76.9005 -164.82C-74.5056 -161.107 -71.0013 -158.181 -68.5847 -154.469C-65.7248 -150.074 -64.5503 -144.83 -63.4093 -139.709L-48.3864 -71.8187C-45.4714 -58.646 -42.614 -44.3828 -35.6528 -32.6244C-28.2339 -20.1148 -21.7194 -16.2948 -17.6269 -1.1792C-13.6331 13.5527 -2.09674 26.0229 12.2833 31.1374C12.0244 30.3922 11.7547 29.6476 11.4851 28.9056C17.1414 38.3605 23.0615 47.6577 29.1281 56.8439C32.8218 62.4279 36.6278 68.0795 38.5454 74.4924C39.6246 78.1073 40.0794 81.8987 41.3617 85.4459C45.0533 95.658 42.2881 98.9663 41.9473 98.7393C40.2605 97.6711 39.335 98.543 39.3929 100.658C39.6535 110.042 45.9843 118.975 54.7532 122.327C58.4594 123.745 62.537 124.249 65.9586 126.261C69.3802 128.272 71.9849 132.624 70.2391 136.189C57.9178 128.352 40.8447 130.877 29.0592 122.256" fill="#E5C7A3"/>
<path d="M7.00467 229.822C-0.742684 214.7 -14.1163 201.67 -29.3614 189.935C-32.1284 187.806 -34.5664 186.67 -36.6852 186.345C-39.8078 176.992 -43.779 167.944 -48.5492 159.315C-51.3544 154.242 -54.4724 149.221 -55.8088 143.583C-57.7848 135.256 -55.6692 126.548 -53.1535 118.372C-52.7 116.891 -52.1854 115.331 -51.0371 114.298C-49.4034 112.818 -46.9293 112.761 -44.7607 113.157C-31.8779 115.51 -24.8431 129.527 -21.8329 142.279C-18.6625 155.71 -17.6584 169.838 -11.8701 182.364C-10.1004 186.186 -7.9094 189.794 -5.72422 193.396C1.72842 205.664 9.21085 217.983 18.3107 229.087C25.3265 237.647 33.7963 246.877 32.9161 257.911C32.2981 257.914 31.6832 257.889 31.0714 257.835C22.8657 251.656 13.8031 243.109 6.99382 229.823" fill="#4195C4"/>
<path d="M7.005 229.823C24.8197 264.591 58.0125 266.908 51.3352 279.254C46.2647 288.713 8.66016 263.808 -1.05393 261.997C-20.2728 258.428 -46.4157 283.588 -52.4402 261.204C-58.4648 238.82 -42.2726 234.147 -46.0961 215.354C-49.9196 196.562 -44.5981 178.202 -29.3611 189.936C-14.1241 201.671 -0.742351 214.701 7.005 229.823Z" fill="#D53A2C"/>
</g>
<defs>
<clipPath id="clip0">
<rect width="112" height="378" fill="white"/>
</clipPath>
</defs>
</svg>
