<svg width="1440" height="139" viewBox="0 0 1440 139" fill="none" xmlns="http://www.w3.org/2000/svg">
<g clip-path="url(#clip0)">
<path d="M551.283 120.227C563.377 122.874 576.165 132.879 594.288 139.303C607.515 143.991 622.946 146.428 636.54 150.849C648.165 154.622 660.401 161.957 669.491 165.744C679.522 169.926 686.055 170.597 690.57 173.151L690.776 173.259L690.281 172.974C687.333 171.298 684.401 170.087 681.101 168.726C676.129 166.759 671.288 164.477 666.607 161.893C663.945 160.393 660.828 158.278 657.528 156.021C651.765 152.079 645.438 147.752 639.982 145.809C633.382 143.466 626.313 142.179 619.357 140.912C609.363 139.093 599.587 137.316 591.757 132.493C568.215 118.007 541.882 109.078 522.292 109.078C496.368 109.078 469.188 108.178 449.242 106.828C457.933 109.982 466.797 112.634 475.792 114.771C498.941 120.159 523.991 114.246 551.287 120.223" fill="#5F5F6B"/>
<path d="M1294.5 731.085C1320.82 689.085 1295.65 643.144 1285.26 601.973C1282.44 590.794 1282.54 578.933 1279.05 567.949C1275.87 557.955 1268.98 549.465 1265.42 539.607L1262.04 530.262C1256.28 514.167 1262.65 504.908 1260.65 498.507L1260.19 497.007L1257.63 491.674C1255.28 486.758 1252.48 471.158 1249.13 463.924L1247.57 460.549C1228.74 419.835 1243.63 386.648 1236.87 346.883C1228.79 299.385 1224.78 362.952 1230.17 287.569C1233 248.074 1252.72 204.18 1275.51 171.915C1278.67 167.415 1284.15 159.915 1289.32 148.208C1294.49 136.5 1300.8 95.3966 1313.25 70.2941C1316.96 62.8284 1321.87 56.0161 1327.77 50.1229C1313.81 56.8729 1303.69 51.3716 1293.11 45.6229C1287.84 42.7616 1282.44 39.8329 1276.4 38.3216C1259.88 34.1966 1254.45 46.8529 1248.15 61.5304C1247.07 64.0579 1245.96 66.6454 1244.77 69.2179L1244.02 70.8341C1239.32 81.1541 1236.04 100.834 1232.54 121.789C1229.99 137.108 1227.32 153.105 1223.9 166.628L1223.39 168.589C1220.28 180.405 1210.62 186.964 1200.96 193.489C1196.43 196.557 1191.91 199.62 1188.06 203.239C1168.67 221.494 1159.84 249.848 1168.75 267.653C1171.8 273.653 1177.2 276.795 1182.77 279.623L1186.94 281.715C1188.34 282.377 1189.78 282.962 1191.25 283.467C1195.93 285.173 1200.73 286.924 1200.56 292.189C1200.37 298.125 1194.5 300.75 1189.12 302.689L1186.01 303.814C1180.12 305.993 1173.87 307.29 1167.64 308.58C1165.95 308.933 1164.26 309.282 1162.57 309.649L1162.2 309.732C1161.21 309.945 1160.18 310.107 1159.16 310.279C1154.55 311.029 1149.88 311.802 1147.66 316.834C1144.99 322.917 1147.93 328.084 1151.1 332.925L1152.6 335.205C1157.97 343.144 1165.61 348.979 1174.68 351.169L1175.39 351.349C1195.19 356.475 1199.24 371.157 1203.63 387.064C1204.26 389.344 1204.9 391.65 1205.59 393.957L1206.12 395.682C1214.09 421.182 1223.65 446.175 1233.21 471.147C1245.91 504.304 1258.6 537.458 1267.57 571.849L1268 573.48C1270.71 583.568 1274.04 593.502 1277.37 603.432C1284.28 624.004 1291.2 644.569 1292.49 666.488C1294.94 707.967 1271.71 742.362 1225.95 763.152L1226.07 763.095L1229.92 762.394C1247.78 759.094 1264.12 755.592 1279.29 748.894C1285.15 743.701 1290.25 737.708 1294.44 731.093" fill="#5F5F6B"/>
<path d="M1117.84 148.227C1124.3 162.571 1132.77 176.247 1136.06 191.63C1140.87 214.092 1134.24 238.505 1142.65 259.88C1143.28 261.492 1144.11 263.199 1145.67 263.964C1150.35 266.262 1153.36 258.714 1153.17 253.497C1151.81 210.617 1154.32 167.702 1160.67 125.274C1161.66 118.685 1162.76 112.04 1165.3 105.879C1169.16 96.5036 1176.15 88.6961 1179.81 79.2536C1181.94 73.657 1182.85 67.6699 1182.47 61.6938C1182.1 55.7176 1180.45 49.8907 1177.64 44.6036C1168.67 39.2149 1156.42 43.6211 1149.67 51.6199C1142.92 59.6186 1140.33 70.2199 1137.94 80.4086C1136.02 88.6361 1134.09 96.8624 1132.16 105.087C1131.81 106.587 1131.39 108.2 1130.2 109.182C1121.28 116.555 1118.92 95.1574 1110.25 109.456C1104.7 118.602 1114.04 139.85 1117.81 148.209" fill="#4195C4"/>
<path d="M1013.25 175.693C1007.19 169.296 1002.02 162.388 996.469 155.582C990.469 148.21 982.182 143.301 973.969 138.872C959.719 131.2 944.449 125.061 930.162 117.148C909.091 105.478 889.459 98.8633 865.287 99.2683C845.176 99.6095 827.637 88.8058 812.671 76.3183C805.594 70.412 796.474 68.1958 788.026 65.2408C776.802 61.3108 765.503 56.9533 754.036 53.6908C741.034 49.9933 720.432 43.877 707.299 48.8983C704.956 49.7945 703.696 51.5233 705.076 53.8445C705.851 55.1085 706.786 56.2669 707.858 57.2908C724.358 62.1058 740.573 68.3833 756.574 74.6233C760.973 76.337 765.451 78.1033 769.261 80.8408L769.966 81.0695C769.943 81.152 769.924 81.2345 769.902 81.317C770.344 81.6545 770.778 82.007 771.203 82.3745C775.489 86.1245 778.283 91.2395 781.598 95.8745C785.519 101.331 790.228 106.177 795.571 110.252C806.071 107.871 815.959 105.82 826.422 107.608C836.419 109.315 842.333 115.401 850.171 121.978C861.477 131.466 874.298 140.113 886.939 147.411C898.039 153.823 911.558 155.856 924.154 158.661C938.952 161.965 953.157 165.861 967.306 171.276C980.592 176.361 992.719 182.428 1004.97 189.696C1013.33 194.661 1030.61 204.67 1033.17 202.738C1035.73 200.807 1018.22 180.958 1013.23 175.686" fill="#EA7534"/>
<path d="M250.5 82.4053C252.428 82.7616 254.445 83.2228 255.889 84.5503C257.996 86.4928 258.277 89.6691 258.412 92.5341C258.881 102.247 258.787 113.358 251.569 119.857C242.546 127.957 228.6 123.982 216.559 122.564C199.571 120.58 182.306 124.814 165.326 122.744C136.027 119.182 111.499 97.5291 82.3312 93.0066C73.845 91.6903 64.8075 91.7653 57.33 87.5353C54.9075 86.1666 52.4737 83.4666 53.61 80.9316C54.2775 79.4316 55.9312 78.7003 57.4612 78.1303C85.68 67.5816 119.002 71.9091 143.591 89.3166C147.776 92.2791 151.729 95.5978 156.195 98.1103C169.792 105.764 187.669 104.024 200.351 95.2978C206.385 91.1503 209.666 84.4828 216.101 81.6741C225.023 77.7891 241.309 80.6991 250.489 82.4053" fill="#5F5F6B"/>
<path d="M602.25 76.5334L507.562 60.6784C500.437 59.4822 493.102 58.2259 486.836 54.5959C481.151 51.2997 476.625 46.2034 470.771 43.2147C464.363 39.9447 456.93 39.4647 449.738 39.3259C424.329 38.8029 398.955 41.4764 374.213 47.2834C368.081 48.7234 360.75 51.7497 360.27 58.0234C359.737 64.9009 367.86 68.9247 374.644 70.1734C400.29 74.8872 427.016 68.1259 452.644 72.8884C472.774 76.6384 490.95 87.2284 510.637 92.8459C529.114 98.1184 548.513 98.9059 567.724 99.6597L624.551 101.887C633.27 102.228 642.105 102.588 650.426 105.176C661.249 108.532 670.552 115.413 680.051 121.571C701.238 135.281 724.316 145.818 748.552 152.846C740.467 133.38 722.449 118.346 701.846 113.906C680.707 109.342 674.974 100.627 657.191 91.2934C640.474 82.5184 620.617 79.6122 602.227 76.5334" fill="#EDC92B"/>
<path d="M875.464 169.471C866.423 158.363 851.393 153.454 842.393 142.309C839.28 138.454 836.974 133.943 833.453 130.459C827.202 124.272 818.13 122.187 810.045 118.726C798.659 113.826 788.822 105.918 781.59 95.8507C778.275 91.2194 775.482 86.1007 771.195 82.3507C767.022 78.6982 761.738 76.6132 756.57 74.5994C724.253 61.9994 691.069 49.2194 656.382 48.7244C639.507 48.4844 622.654 51.1732 605.824 50.0594C572.528 47.8544 542.265 31.1294 511.665 17.8094C481.065 4.48942 440.502 -4.87433 414.75 5.62567C408.285 12.4544 446.505 10.0132 456.615 22.7294C461.982 29.4794 466.65 37.0357 471.953 43.8569C477.244 46.8944 481.53 51.5182 486.822 54.5857C493.088 58.2157 500.404 59.4607 507.548 60.6682L602.25 76.5344C620.625 79.6132 640.5 82.5344 657.214 91.2944C674.997 100.632 680.73 109.343 701.869 113.907C722.472 118.362 740.494 133.381 748.575 152.847C747.529 152.543 746.483 152.224 745.44 151.906C758.884 159.031 772.129 166.531 785.232 174.241C793.197 178.936 801.263 183.781 810.244 185.967C815.307 187.197 820.568 187.553 825.552 189.068C839.899 193.429 844.264 189.379 843.927 188.926C842.333 186.676 843.469 185.337 846.39 185.266C859.35 184.954 872.123 193.047 877.373 204.901C879.593 209.911 880.579 215.498 883.598 220.073C886.617 224.648 892.804 227.929 897.597 225.267C885.908 208.834 888.169 185.108 875.438 169.471" fill="#E5C7A3"/>
<path d="M694.526 175.424L692.374 174.183L690.784 173.264L690.57 173.148C686.07 170.594 679.523 169.923 669.491 165.741C660.401 161.954 648.15 154.619 636.54 150.846C622.946 146.433 607.515 143.988 594.289 139.3C576.165 132.876 563.377 122.871 551.284 120.224C523.987 114.246 498.938 120.16 475.789 114.771C466.794 112.635 457.929 109.983 449.239 106.829C423.555 97.6452 402.517 86.3989 389.239 84.6139C369.885 82.0114 357.439 73.7389 347.959 64.0752C344.456 63.8014 314.25 23.7852 301.069 23.7852C275.31 23.7852 261.12 35.9877 252.51 70.3264C252.302 71.1464 252.094 71.9577 251.884 72.7602C252.094 71.9577 252.307 71.1477 252.514 70.3264C252.307 71.1477 252.094 71.9614 251.88 72.7677C251.861 72.8314 251.846 72.8952 251.827 72.9589C251.614 73.7652 251.392 74.5677 251.171 75.3552V75.3889C251.059 75.7902 250.942 76.1914 250.826 76.5889C250.71 76.9864 250.594 77.3802 250.478 77.7739V77.8152C250.301 78.4077 250.121 79.0002 249.938 79.5814C250.123 79.0014 250.303 78.4127 250.478 77.8152C250.26 78.5464 250.039 79.2627 249.814 79.9752C249.742 80.2002 249.668 80.4214 249.596 80.6464C249.435 81.1527 249.27 81.6589 249.101 82.1464L249.259 81.6814L249.101 82.1464L250.519 82.4089C252.446 82.7652 254.464 83.2264 255.907 84.5539C258.019 86.4964 258.296 89.6727 258.431 92.5377C258.9 102.25 258.806 113.361 251.588 119.86C242.565 127.96 228.619 123.985 216.577 122.571C199.59 120.58 182.325 124.821 165.345 122.748C156.81 121.709 148.68 119.136 140.719 115.896L139.103 115.743L138.728 115.705C137.951 115.626 137.179 115.548 136.402 115.461H136.268C135.563 115.383 134.857 115.304 134.152 115.218L133.65 115.158L131.659 114.906L131.37 114.869C130.62 114.768 129.844 114.659 129.083 114.55L128.737 114.501L126.814 114.209L126.296 114.126C125.58 114.01 124.868 113.894 124.151 113.751H124.061C123.311 113.62 122.561 113.485 121.792 113.343L121.335 113.256C120.724 113.14 120.116 113.02 119.505 112.881L119.002 112.78C117.502 112.473 116.017 112.144 114.547 111.794L114.034 111.67L112.223 111.22L111.769 111.104C111.019 110.914 110.276 110.715 109.541 110.508L109.357 110.455C108.69 110.268 108.022 110.08 107.355 109.878L106.815 109.716C106.197 109.529 105.579 109.336 104.959 109.139L104.606 109.03C103.871 108.795 103.139 108.551 102.409 108.299L102.034 108.171C101.426 107.961 100.82 107.745 100.215 107.523L99.6713 107.324C99.0113 107.08 98.3513 106.833 97.6913 106.574L97.5 106.499C96.7725 106.214 96.0487 105.921 95.3287 105.621L94.8563 105.423C94.2788 105.173 93.7038 104.923 93.1313 104.673L92.6025 104.44C91.89 104.121 91.1737 103.795 90.4612 103.458L89.7112 103.113C88.8762 102.74 88.0362 102.404 87.1912 102.104L87.0788 102.063L86.355 101.815L86.1675 101.755L85.5112 101.549L85.2788 101.481L84.6675 101.305L84.405 101.234L83.82 101.08L83.535 101.009L82.9725 100.874L82.665 100.806L82.1213 100.69L81.7988 100.626L81.2625 100.521L80.9363 100.461L80.4038 100.371L80.07 100.315L79.545 100.236L79.2 100.188L78.6825 100.12L78.3337 100.079L77.8162 100.019L77.4638 99.9814L76.95 99.9289L76.575 99.8989L76.0613 99.8577L75.6863 99.8314L75.1763 99.7977L74.8013 99.7752L74.325 99.7489H73.95L73.4287 99.7264H73.0725H72.555H72.18H71.6587H69.5025H68.985H68.6625H68.0775H67.7812L67.17 99.7489H66.8962L66.2512 99.7752H66.015L65.3062 99.8089H65.1338L64.3388 99.8502H64.2525C63.555 99.8877 62.8575 99.9252 62.16 99.9702L60.7875 100.053L59.2125 100.15L58.9013 100.169L58.5788 100.188H58.4663L57.9937 100.206H57.6187H57.1575H56.325H55.95H55.5112H55.1362L54.7012 100.184L54.3562 100.161L53.9325 100.128L53.625 100.124L53.2087 100.079L52.8862 100.041L52.4812 99.9852L52.17 99.9402L51.7725 99.8727L51.4725 99.8202L51.0975 99.7452L50.8088 99.6852L50.4338 99.5952L50.16 99.5314L49.785 99.4339L49.5225 99.3589L49.1475 99.2502L48.8962 99.1752L48.5212 99.0552L48.2812 98.9689L47.925 98.8414L47.6925 98.7514L47.3438 98.6089L47.1225 98.5189L46.7775 98.3652L46.5713 98.2677L46.2337 98.1027L46.0312 98.0014L45.7012 97.8289L45.5137 97.7239L45.1875 97.5364L45.0075 97.4314L44.6887 97.2327L44.52 97.1239L44.205 96.9139L44.0475 96.8014L43.7363 96.5802L43.59 96.4677C43.485 96.3889 43.3837 96.3139 43.2862 96.2314L43.1438 96.1189C43.0425 96.0402 42.945 95.9577 42.8475 95.8714L42.7163 95.7589L42.42 95.5002L42.3 95.3877C42.2025 95.2977 42.105 95.2077 42.0112 95.1139L41.8988 95.0052L41.61 94.7164L41.5125 94.6114C41.415 94.5102 41.3213 94.4089 41.2275 94.3039L41.1375 94.2064C41.0437 94.0977 40.9462 93.9927 40.8562 93.8839L40.7738 93.7864C40.68 93.6777 40.5862 93.5652 40.4962 93.4527L40.425 93.3627L40.1475 93.0064C40.1475 92.9802 40.11 92.9502 40.0875 92.9239C39.9938 92.8002 39.9037 92.6764 39.8137 92.5489C39.8137 92.5264 39.78 92.5039 39.765 92.4777C39.6713 92.3502 39.5812 92.2189 39.4912 92.0839L39.45 92.0239C39.3562 91.8852 39.2663 91.7502 39.1763 91.6077L39.15 91.5627C39.0563 91.4164 38.9662 91.2702 38.8762 91.1239L38.8575 91.0939C38.7675 90.9402 38.6737 90.7864 38.5837 90.6289C36.0262 86.1514 34.695 80.5564 33.5475 74.8339L32.6663 70.3339L33.5475 74.8114C33.5137 74.2939 31.26 41.1852 -4.875 40.4989V132.303C-0.85125 131.643 3.17625 131.024 7.185 130.559C22.935 128.725 38.2875 129.213 51.3525 138.648C51.96 139.085 52.5625 139.544 53.16 140.024C54.0575 140.741 54.9425 141.504 55.815 142.311C56.395 142.851 56.9712 143.413 57.5437 143.995C58.1162 144.578 58.6813 145.181 59.2388 145.806C67.8413 155.463 73.0875 167.181 73.815 179.388C73.86 180.11 73.8875 180.835 73.8975 181.563V181.938C73.934 187.196 73.1249 192.427 71.5012 197.429C71.3925 197.774 71.2762 198.111 71.16 198.445L71.0513 198.734C70.9688 198.966 70.8862 199.195 70.7962 199.42C70.755 199.533 70.71 199.645 70.665 199.758C70.5825 199.965 70.5 200.168 70.4175 200.365C70.3725 200.478 70.3237 200.59 70.275 200.699C70.1887 200.901 70.1025 201.096 70.0125 201.291L69.8775 201.591L69.5625 202.244C69.5287 202.311 69.4988 202.379 69.465 202.443C69.3225 202.724 69.18 202.998 69.0337 203.268L68.9737 203.373C68.8462 203.601 68.7187 203.826 68.5987 204.044L68.4525 204.284C68.3475 204.456 68.2425 204.629 68.1375 204.794C68.0812 204.884 68.025 204.966 67.9725 205.053C67.8675 205.21 67.7625 205.368 67.6575 205.518L67.4888 205.765C67.3763 205.923 67.2637 206.076 67.1475 206.23L66.9937 206.436C66.8512 206.628 66.705 206.811 66.555 206.995L66.4912 207.074C66.3187 207.284 66.1463 207.49 65.9663 207.689C65.9288 207.734 65.8875 207.775 65.8462 207.82C65.7112 207.97 65.5725 208.12 65.4375 208.263L65.2537 208.45L64.8787 208.825L64.68 209.013L64.305 209.354L64.11 209.526C63.975 209.646 63.8363 209.759 63.6975 209.875L63.54 210.006C63.165 210.318 62.7562 210.61 62.355 210.888L62.1825 211C62.04 211.098 61.8938 211.195 61.7475 211.285L61.5337 211.416C61.3987 211.503 61.26 211.581 61.125 211.664L60.9 211.791L60.4763 212.024L60.2663 212.133C60.105 212.219 59.94 212.298 59.775 212.38L59.6287 212.451L58.9725 212.748L58.8787 212.785C58.6912 212.864 58.5037 212.943 58.3125 213.014L58.1025 213.096L57.6413 213.265L57.4013 213.348L56.955 213.494L56.8162 213.539L56.7075 213.573L56.2388 213.711L56.0175 213.771C55.8225 213.828 55.6425 213.876 55.4325 213.925L55.3237 213.955L54.6187 214.116L54.4238 214.154L53.91 214.259L53.6438 214.304L53.19 214.383L52.905 214.428L52.455 214.491L52.1738 214.533L51.6938 214.589L51.4387 214.619L50.7712 214.683H50.6138L49.9763 214.731H49.6875L49.23 214.758H48.9038L48.4763 214.776H48.1387H47.7112H46.6162H45.8887H45.5625H45.12H44.745H44.37H43.9725L43.5975 214.758L43.1887 214.735L42.8137 214.713L42.3938 214.686L42.075 214.664L40.9912 214.581H40.9163L40.4137 214.536L40.1438 214.514L39.645 214.469L39.3788 214.443L38.8538 214.394L38.64 214.371L38.0663 214.311H37.9725C36.4388 214.15 34.9013 213.97 33.3675 213.794L31.9688 213.633L31.5938 213.591L29.7188 213.385H29.5613L27.7612 213.205H27.57C26.94 213.149 26.31 213.096 25.695 213.051L22.5825 212.841C21.8325 212.789 21.1088 212.725 20.3738 212.658L19.875 212.541L18.1125 212.365L17.625 212.313C16.1475 212.153 14.67 211.975 13.1925 211.78L12.75 211.72L10.875 211.465L10.5 211.416C7.03125 210.933 3.55875 210.396 0.0862498 209.883L-0.8025 209.755L-1.875 209.598L-3 209.44L-4.00875 209.301L-4.875 209.178V311.151L13.47 296.556L15.2587 295.158C38.9662 276.749 67.035 264.749 92.07 248.219C102.641 241.24 111.671 232.15 121.92 224.71C141.232 210.689 156.499 200.549 180.982 196.641C198.427 193.859 216.941 198.951 233.918 194.069C248.771 189.801 259.189 175.694 273.566 170.031C289.208 163.874 306.596 163.54 322.793 158.999C334.688 155.676 345.713 149.59 357.668 146.508C412.159 132.475 486.9 129.404 539.764 130.585L540.63 130.608C565.433 131.313 562.238 137.954 584.205 144.895C599.843 149.841 616.106 152.601 631.83 157.24C644.543 160.99 656.58 166.99 669.476 170.031C677.576 171.94 686.224 173.961 694.976 175.675L694.515 175.409L694.526 175.424ZM-3.375 78.3289C-3.18346 77.9286 -2.97194 77.5381 -2.74125 77.1589C-2.97194 77.5381 -3.18346 77.9286 -3.375 78.3289" fill="#D53A2C"/>
<path d="M793.354 221.019L792.566 220.704L790.541 219.89L788.782 219.185L787.466 218.653L785.01 217.663L784.305 217.378L781.264 216.144L780.964 216.02L777.536 214.625L777.465 214.595C749.156 203.012 721.185 190.667 694.523 175.427C694.68 175.513 694.83 175.603 694.988 175.693C686.239 173.979 677.591 171.943 669.488 170.068C656.588 167.03 644.554 161.019 631.841 157.273C616.091 152.634 599.846 149.874 584.216 144.928C562.249 137.987 565.444 131.345 540.641 130.64L539.775 130.618C486.9 129.437 412.17 132.493 357.679 146.54C345.716 149.623 334.691 155.709 322.804 159.032C306.607 163.558 289.219 163.877 273.577 170.049C259.2 175.719 248.782 189.819 233.929 194.087C216.952 198.962 198.439 193.877 180.994 196.659C156.514 200.567 141.244 210.707 121.931 224.728C111.682 232.168 102.652 241.258 92.0812 248.237C67.035 264.752 38.9662 276.752 15.2587 295.16L13.47 296.559L-4.875 311.154V332.758C9.3 319.94 19.8225 310.442 39.375 301.055C84.825 279.245 134.542 277.727 181.414 259.213C240.315 235.963 293.415 199.115 350.085 171.463C380.944 156.418 420.585 151.963 453.585 145.79C460.088 144.575 465.997 140.597 472.594 140.087C567.683 132.703 599.141 160.16 677.261 187.689C755.381 215.218 806.599 230.252 806.88 228.752L807.277 226.588C802.635 224.738 797.994 222.887 793.354 221.034" fill="#EDC92B"/>
<path d="M1022.21 131.365C1000.8 121.761 981.873 104.249 964.601 84.0626C961.466 80.3988 959.726 77.1176 959.126 74.2188C946.004 70.5808 933.242 65.7507 921 59.7888C913.803 56.2826 906.656 52.3413 898.785 50.9013C887.16 48.7713 875.302 52.3113 864.206 56.3651C862.196 57.0963 860.081 57.9176 858.738 59.5751C856.815 61.9338 856.912 65.3501 857.613 68.3126C861.78 85.9113 881.613 94.6113 899.415 97.8513C918.165 101.264 937.721 101.639 955.41 108.726C960.806 110.894 965.94 113.658 971.062 116.414C988.515 125.815 1006.04 135.254 1022 147.01C1034.31 156.074 1047.64 167.095 1062.8 165.093C1062.76 164.24 1062.68 163.394 1062.56 162.554C1053.45 151.679 1041.02 139.791 1022.21 131.35" fill="#5F5F6B"/>
<path d="M1022.21 131.366C1071.43 153.45 1077 199.061 1093.55 188.97C1106.23 181.301 1069.2 131.22 1066 117.952C1059.71 91.702 1092.54 53.8495 1061.24 47.1408C1029.94 40.432 1024.65 63.097 998.46 59.167C972.27 55.237 947.328 63.8883 964.601 84.0633C981.873 104.238 1000.8 121.762 1022.21 131.366" fill="#D53A2C"/>
<path d="M1444.67 69.913C1443.55 69.9362 1442.44 70.0744 1441.35 70.3255C1425.77 70.4418 1427.1 45.1068 1416.76 32.9605C1407.27 21.8193 1393.84 15.8418 1371.85 23.7843C1356.67 29.263 1340.46 37.393 1327.78 50.1543C1321.88 56.0479 1316.97 62.8601 1313.25 70.3255C1300.81 95.428 1294.5 136.551 1289.32 148.243C1284.15 159.936 1278.68 167.462 1275.51 171.947C1252.73 204.197 1233 248.106 1230.18 287.601C1224.78 362.975 1228.8 299.417 1236.87 346.914C1243.62 386.664 1228.74 419.867 1247.57 460.58L1249.13 463.955C1252.48 471.178 1255.29 486.778 1257.63 491.705L1260.19 497.038L1260.65 498.538C1262.65 504.939 1256.29 514.198 1262.05 530.293L1265.42 539.638C1268.99 549.497 1275.87 557.987 1279.05 567.98C1282.54 578.964 1282.42 590.825 1285.27 602.004C1295.66 643.175 1320.82 689.105 1294.5 731.12C1290.31 737.734 1285.21 743.725 1279.35 748.918C1280.52 748.405 1281.67 747.872 1282.82 747.317C1286.85 744.733 1290.85 742.344 1295.01 740.477C1308.41 731.769 1320.88 719.36 1332.7 700.817L1333.6 699.388C1333.91 698.889 1334.22 698.405 1334.53 697.925L1334.76 697.55L1334.67 697.625L1334.52 697.757L1334.25 697.959L1334.13 698.045L1333.92 698.184L1333.81 698.259C1333.7 698.323 1333.6 698.387 1333.49 698.443C1333.8 697.265 1334.11 696.085 1334.41 694.903C1334.57 694.277 1334.73 693.647 1334.89 693.028C1335.04 692.458 1335.18 691.903 1335.33 691.318C1335.49 690.658 1335.66 689.998 1335.83 689.334C1336.01 688.609 1336.19 687.884 1336.38 687.159C1336.47 686.784 1336.56 686.409 1336.65 686.053C1336.96 684.803 1337.27 683.568 1337.58 682.348C1339.05 676.464 1340.52 670.573 1342.08 664.723L1342.14 664.502C1342.9 661.609 1343.69 658.725 1344.5 655.85L1344.56 655.648C1344.95 654.29 1345.34 652.934 1345.74 651.579C1345.77 651.478 1345.8 651.38 1345.83 651.283C1346.25 649.863 1346.67 648.443 1347.11 647.023C1350.64 635.747 1360.51 632.533 1370.85 630.752L1371.86 630.583L1374.11 630.208C1397.98 626.435 1403.82 617.375 1398.59 594.073C1398.54 593.863 1398.5 593.653 1398.45 593.439L1398.04 591.62L1397.63 589.798C1394.85 577.265 1392.53 564.624 1390.3 551.953C1390.15 551.11 1390 550.265 1389.85 549.418L1389.82 549.245L1388.57 542.045C1385.87 526.73 1377.49 516.759 1365.58 511.153C1365.08 510.917 1364.58 510.692 1364.08 510.474C1363.06 510.035 1362.02 509.63 1360.96 509.252C1358.78 508.482 1356.56 507.842 1354.31 507.335C1353.73 507.204 1353.16 507.08 1352.57 506.96L1345.63 505.547C1338.88 504.182 1332.07 502.97 1325.47 502.922C1313.7 502.847 1302.61 506.492 1293.73 519.669L1293.58 519.902L1293.38 520.164C1292.79 520.914 1292.25 521.218 1291.8 521.24C1290.96 521.278 1290.31 520.404 1289.82 519.433L1289.73 519.253C1289.67 519.129 1289.61 519.005 1289.56 518.878C1289.47 518.694 1289.4 518.503 1289.33 518.338L1288.55 516.365C1287.91 514.742 1287.31 513.122 1286.75 511.517C1269.37 462.365 1281.48 421.715 1345.68 406.682C1347.23 399.433 1349.27 392.233 1350.26 384.894C1352.75 366.572 1348.68 348.013 1348.97 329.525C1349.18 315.842 1351.78 302.319 1354.37 288.879C1356.9 275.732 1359.44 262.558 1363.24 249.718C1365.91 240.684 1369.32 231.609 1375.53 224.522C1379.53 219.962 1384.47 216.463 1389.9 213.741C1389.93 213.182 1389.96 212.616 1390.01 212.068C1390.01 212.061 1390.01 212.053 1390.01 212.046C1390.05 211.622 1390.1 211.202 1390.17 210.793C1390.17 210.759 1390.17 210.726 1390.18 210.688C1390.21 210.501 1390.25 210.313 1390.29 210.137C1390.3 210.124 1390.3 210.112 1390.29 210.099C1390.34 209.908 1390.39 209.724 1390.45 209.537C1390.46 209.504 1390.48 209.471 1390.49 209.439C1390.54 209.293 1390.59 209.147 1390.65 209.008L1390.71 208.877C1390.78 208.713 1390.86 208.552 1390.95 208.397V208.397C1391.24 207.897 1391.52 207.397 1391.79 206.897C1391.85 206.78 1391.91 206.668 1391.97 206.552C1392.24 206.052 1392.5 205.552 1392.75 205.052L1392.84 204.868C1393.06 204.426 1393.28 203.979 1393.49 203.533C1393.56 203.398 1393.62 203.263 1393.68 203.132C1393.91 202.648 1394.13 202.168 1394.35 201.684C1394.4 201.561 1394.46 201.437 1394.51 201.309C1394.68 200.934 1394.85 200.526 1395.02 200.136C1395.09 199.974 1395.15 199.817 1395.22 199.659C1395.41 199.194 1395.59 198.729 1395.79 198.261C1395.85 198.084 1395.93 197.904 1396 197.728C1396.12 197.391 1396.26 197.057 1396.37 196.719C1396.44 196.524 1396.52 196.344 1396.59 196.138C1396.75 195.699 1396.91 195.261 1397.07 194.822C1397.16 194.582 1397.24 194.342 1397.32 194.105L1397.59 193.322C1397.74 192.889 1397.89 192.458 1398.03 192.028L1398.25 191.383L1398.56 190.415L1398.68 190.04C1400.64 183.898 1402.27 177.639 1404.19 171.474C1410.65 150.515 1427.66 141.887 1447.15 136.858V70.363C1446.35 70.0371 1445.5 69.8837 1444.64 69.913" fill="#EA7534"/>
<path d="M1202.44 535.145L1201.74 533.098C1171.27 445.423 1111.99 379.741 1040.87 322.723C997.901 288.313 949.995 262.651 900.742 239.098C893.242 235.505 880.605 229.67 876.038 237.451C872.966 242.739 878.032 246.74 883.204 250.824C885.716 252.804 888.248 254.803 889.886 256.978C890.516 257.791 891.127 258.605 891.739 259.419C892.361 260.248 892.984 261.076 893.614 261.909C893.047 261.819 892.463 261.763 891.885 261.71C890.483 261.575 889.091 261.444 887.925 260.859C861.675 248.233 834.607 237.455 807.532 226.678L807.251 226.565L806.854 228.729C806.573 230.229 755.37 215.229 677.25 187.7C599.13 160.171 567.671 132.714 472.582 140.098C465.986 140.608 460.076 144.598 453.574 145.801C420.574 151.97 380.918 156.429 350.074 171.474C293.415 199.126 240.315 235.951 181.414 259.213C134.542 277.726 84.825 279.245 39.375 301.055C19.8187 310.43 9.2925 319.94 -4.875 332.758V503.604C-2.415 503.229 0.0600001 502.888 2.53875 502.546C20.1975 500.128 38.085 497.671 51.1538 484.096C65.7488 468.913 63.3563 441.53 47.4038 415.198L46.8562 414.286C28.995 384.316 33.1162 370.059 63.795 352.359C79.0687 343.528 95.1075 334.385 111.652 333.89H111.413C165.413 319.55 218.76 304.096 270.345 282.789C271.92 281.84 273.488 280.88 275.025 279.894C288.574 271.246 301.11 261.058 314.775 252.568C322.459 247.79 331.53 245.39 338.918 240.166C365.895 221.098 345.45 224.848 372.862 215.416L374.411 214.891C391.196 209.266 421.695 201.594 435.536 212.641C449.145 223.486 433.579 226.141 453.851 227.563C465.101 228.35 476.434 226.096 487.665 227.045C488.835 227.143 489.401 229.835 488.415 230.484L486.371 233.3C503.565 229.678 522.019 223.835 527.175 237.144L528.139 237.684C541.2 236.184 554.689 234.965 568.639 233.788L573.262 233.413C598.339 231.335 641.599 228.8 671.235 235.663L690.225 240.069C743.85 252.553 706.864 244.764 764.288 269.443L766.238 270.279C830.768 297.811 838.612 294.335 886.849 347.529L890.79 351.898C902.61 365.098 925.564 391.903 925.29 409.243C925.207 414.118 918.656 417.118 917.944 421.951C916.909 428.956 923.126 436.576 920.288 443.064C918.84 446.364 913.751 439.625 911.404 436.888C904.147 428.443 900.589 424.066 898.556 422.004C855.915 384.976 808.084 357.001 754.339 339.268C753.244 338.851 752.261 337.966 751.286 337.089C750.859 336.714 750.431 336.339 749.996 335.964C750.304 335.589 750.604 335.214 750.908 334.816C751.607 333.87 752.378 332.978 753.214 332.15C764.662 321.939 756.049 317.645 749.344 314.304C748.519 313.891 747.724 313.498 747 313.104L744.998 311.979C726.671 301.906 706.59 296.75 686.498 291.59C679.316 289.745 672.131 287.9 665.029 285.834C663.606 285.31 662.249 284.622 660.986 283.783C660.364 283.408 659.741 283.033 659.111 282.691C659.861 282.556 660.611 282.373 661.361 282.193C663.113 281.765 664.879 281.338 666.611 281.491C705.686 284.634 743.186 294.583 780.09 307.228L780.379 307.325C781.354 307.666 782.438 308.075 783.562 308.54C788.599 310.535 794.561 312.894 796.181 309.47C798.375 304.839 792.6 301.464 787.849 298.689C786.922 298.149 786.034 297.628 785.254 297.129L783.806 296.206C736.931 266.615 684.101 255.331 630.195 247.906L626.861 247.453C547.215 236.683 473.932 253.363 405.889 296.754C399.855 300.605 393.473 303.943 387.113 307.254C369.011 316.711 351.113 326.071 341.963 346.94C335.809 361.021 334.492 375.965 333.18 390.905C332.557 397.951 331.939 404.994 330.81 411.95L330.724 412.486C328.144 428.109 322.744 441.245 304.909 445.239L304.643 445.303C300.893 446.293 301.238 449.634 304.312 452.12C325.312 468.883 345.42 462.654 351.675 437.495C347.355 416.758 347.925 395.495 358.485 376.775C360.36 373.483 363.735 371.24 366.926 369.196C368.316 368.301 369.711 367.41 371.111 366.523L372.098 365.9L373.35 365.109L374.681 364.273L375.9 363.523L377.269 362.675L378.491 361.925L379.879 361.074L381.082 360.343L382.523 359.476L383.685 358.783L385.283 357.838L386.287 357.249C387.157 356.743 388.027 356.236 388.912 355.749L389.453 354.526C410.205 308.428 465.368 267.823 522.3 259.205C548.28 255.195 574.66 254.467 600.821 257.038C602.475 257.244 604.095 257.915 605.696 258.583C606.416 258.883 607.133 259.179 607.849 259.43L606.307 259.903C604.778 260.417 603.217 260.834 601.635 261.151C598.89 261.684 596.13 262.183 593.385 262.681C577.125 265.621 560.857 268.561 546.776 278.285C545.051 279.5 543.911 281.578 542.771 283.655C542.231 284.638 541.691 285.62 541.088 286.513C542.003 286.993 542.91 287.593 543.821 288.189C545.737 289.449 547.665 290.72 549.697 290.923C560.572 291.976 571.504 292.644 582.439 293.311C612.683 295.156 642.949 297.005 672.064 307.006C673.189 307.381 674.415 307.756 675.69 308.131C681.169 309.714 687.315 311.506 687.259 317.259C687.279 318.524 686.914 319.765 686.213 320.818C695.369 320.819 704.504 321.705 713.49 323.465C715.403 323.84 717.364 324.279 718.95 325.411C720.536 326.544 721.665 328.539 721.2 330.429C714.316 332.225 707.135 332.574 700.11 331.453C696.405 330.86 692.67 329.859 688.961 330.406C687.266 330.654 685.631 331.224 683.936 331.434C679.474 331.993 675.007 330.054 670.526 330.429C666.735 330.748 663.3 332.679 659.723 333.969C658.369 334.456 656.61 334.753 655.703 333.639C655.035 332.821 655.215 331.584 655.838 330.714L655.088 330.913C632.651 336.939 610.193 342.973 589.943 355.186C550.868 378.676 547.425 415.483 583.057 443.761C586.342 446.364 589.639 449.011 592.957 451.681L592.995 451.711C623.809 476.488 656.231 502.558 696.158 501.883C724.916 501.391 752.955 505.239 780.907 509.071C803.962 512.233 826.965 515.386 850.282 516.099C857.092 516.324 866.524 516.174 867.874 508.468C869.145 501.436 864.577 493.43 858.367 488.566C850.571 482.454 842.051 477.346 833.531 472.239C820.369 464.364 807.214 456.459 796.762 444.864C789.799 437.233 785.535 426.238 790.999 417.335C795.6 409.865 804.424 413.038 811.747 415.666C812.4 415.899 813.041 416.131 813.664 416.349L815.843 417.099C846.593 427.794 872.235 446.949 896.843 467.626L899.22 469.629C899.78 470.052 900.38 470.419 901.012 470.724C901.387 470.923 901.762 471.125 902.137 471.35C902.04 471.08 901.954 470.799 901.867 470.514C901.681 469.707 901.343 468.943 900.87 468.264C857.978 415.074 783.274 368.319 705.649 377.514L705.341 377.551L704.092 377.683C699.319 378.166 693.911 378.718 692.025 384.845V385.595L694.71 387.5C701.284 392.161 707.809 396.785 714.33 401.525C715.234 402.277 716.047 403.133 716.752 404.075V404.075C717.041 404.45 717.326 404.784 717.619 405.118C716.996 405.043 716.355 405.016 715.717 404.994C714.435 404.941 713.156 404.893 712.009 404.446C708.964 403.276 705.851 401.885 702.701 400.479C689.745 394.693 676.174 388.633 664.249 396.515L663.63 396.916C646.451 407.908 634.89 400.595 622.973 393.061C620.764 391.663 618.54 390.26 616.268 388.959L615.893 388.738C605.906 382.854 607.327 375.114 615.979 368.611C645.469 346.468 679.601 345.646 714.113 348.789L715.714 348.939C768.532 354.001 816.806 371.476 853.564 410.814L854.651 411.965C860.539 418.145 866.828 423.965 873.113 429.751C885.454 441.144 897.78 452.518 907.009 466.696L907.624 467.63C908.535 469.003 909.476 470.386 910.421 471.781C919.455 485.098 929.213 499.475 921.983 515.848C914.696 532.453 898.076 534.5 882.098 536.473C879.743 536.765 877.399 537.054 875.1 537.388L873.997 537.549C871.2 537.973 868.391 538.333 865.575 538.674C865.695 538.746 865.811 538.821 865.924 538.899C866.854 539.559 866.55 541.085 865.425 541.254H865.238L843.529 541.108C842.156 541.28 840.781 541.464 839.404 541.659C837.259 541.929 835.174 543.695 833.404 545.349L832.8 545.923C832.5 546.151 834.3 549.44 835.721 550.561C867.458 576.061 950.246 579.811 983.558 557.311C999.394 546.613 1008.53 530.96 1016.01 514.059L1017.51 510.609C1041.47 456.118 1055.79 453.89 1101.29 494.859C1125.84 516.984 1146.58 542.214 1165.21 569.371L1165.38 569.596C1165.66 570.013 1165.95 570.455 1166.25 570.905C1168.3 574.025 1170.65 577.606 1174.43 576.328C1176.68 575.578 1178.39 569.743 1178.32 566.304C1177.57 533.611 1166.04 504.586 1147.85 477.804L1147.62 478.025C1148.41 479.68 1149.2 481.333 1150 482.983C1158.1 499.858 1166.22 516.751 1168.19 535.82C1168.26 536.379 1168.35 536.968 1168.44 537.568C1168.98 541.066 1169.56 545.004 1165.87 546.215C1163.62 546.965 1159.12 543.523 1156.82 540.965L1153.74 537.613C1130.16 511.929 1105.88 486.954 1077.47 466.363C1049.06 445.771 1031.28 451.025 1017.06 483.043C1015.3 487.003 1013.63 491.026 1011.96 495.043C1003.34 515.818 994.71 536.641 973.2 548.863C972.101 549.511 970.972 550.059 969.825 550.595L968.108 551.405C958.451 555.969 948.42 558.361 937.639 557.165C940.163 556.505 942.712 555.913 945.266 555.32C950.827 554.026 956.407 552.729 961.744 550.73C974.381 546.001 983.175 538.07 989.951 528.466C986.445 531.564 982.451 534.136 978.405 536.593L978.12 536.765L976.545 537.721C971.929 540.515 967.249 543.346 962.093 544.921C955.624 546.916 948.727 546.883 941.959 546.83C928.02 546.721 913.744 546.549 900.709 541.625C907.927 537.425 916.244 535.501 924.574 536.105C933.199 536.75 942.113 540.084 950.288 537.204C950.61 537.091 950.929 536.968 951.24 536.829L951.551 536.69C951.757 536.6 951.964 536.51 952.163 536.413L952.538 536.229C952.718 536.139 952.894 536.049 953.07 535.951C953.246 535.854 953.318 535.809 953.445 535.738L953.936 535.449L954.311 535.209C954.469 535.108 954.623 535.006 954.773 534.901C954.923 534.796 955.013 534.729 955.148 534.639C955.283 534.549 955.444 534.425 955.586 534.313C955.729 534.2 955.819 534.125 955.935 534.031C956.051 533.938 956.216 533.803 956.355 533.686L956.692 533.386C956.827 533.266 956.963 533.146 957.094 533.011L957.42 532.696L957.795 532.321L958.11 531.988C958.234 531.856 958.354 531.721 958.485 531.586L958.789 531.241C958.909 531.103 959.025 530.964 959.141 530.821C959.257 530.679 959.332 530.585 959.426 530.446C959.52 530.308 959.655 530.154 959.767 530.008C959.88 529.861 959.951 529.764 960.041 529.633L960.367 529.168C960.454 529.044 960.54 528.924 960.622 528.793C960.705 528.661 960.84 528.466 960.945 528.301L961.181 527.926C961.29 527.754 961.395 527.578 961.5 527.401L961.714 527.026C961.826 526.835 961.931 526.651 962.04 526.445L962.22 526.126L962.621 525.376L962.7 525.223C962.857 524.911 963.007 524.596 963.157 524.281C963.202 524.184 963.244 524.09 963.285 523.993C963.386 523.771 963.491 523.546 963.589 523.321C963.645 523.198 963.694 523.07 963.75 522.946L963.997 522.354L964.163 521.938L964.384 521.368L964.541 520.933C964.611 520.745 964.679 520.558 964.744 520.37C964.796 520.22 964.849 520.07 964.898 519.92C964.946 519.77 965.025 519.545 965.085 519.365L965.231 518.904C965.291 518.72 965.347 518.529 965.404 518.353C965.46 518.176 965.498 518.041 965.543 517.884C965.588 517.726 965.651 517.509 965.704 517.329L965.831 516.864C965.884 516.676 965.932 516.489 965.981 516.305C966.03 516.121 966.06 515.994 966.101 515.84L966.236 515.278L966.349 514.809L966.473 514.254C966.51 514.096 966.544 513.939 966.578 513.785C966.611 513.631 966.656 513.41 966.694 513.223L966.784 512.765C966.821 512.574 966.859 512.39 966.892 512.191C966.926 511.993 966.949 511.895 966.975 511.745C967.091 511.093 967.2 510.44 967.294 509.795C967.395 509.094 967.557 508.402 967.777 507.729V507.684C968.419 495.939 966.18 484.059 965.115 472.258C964.586 466.408 964.365 460.486 965.25 454.681C967.268 441.643 974.824 430.078 977.824 417.226C978.546 414.283 978.868 411.256 978.78 408.226C978.628 407.726 978.466 407.226 978.296 406.726C978.244 406.561 978.184 406.396 978.128 406.231C978.015 405.898 977.899 405.56 977.779 405.23L977.565 404.641L977.227 403.741C977.149 403.535 977.066 403.333 976.988 403.126L976.639 402.264L976.38 401.641C976.26 401.356 976.136 401.075 976.005 400.79C975.919 400.588 975.829 400.385 975.739 400.183C975.604 399.883 975.465 399.586 975.33 399.29C975.244 399.106 975.161 398.915 975.075 398.743C974.857 398.281 974.632 397.824 974.407 397.37L974.385 397.329L973.92 396.429L973.688 395.979L973.586 395.788C973.474 395.578 973.358 395.368 973.241 395.161C973.125 394.955 973.02 394.749 972.904 394.543L972.75 394.265C972.529 393.89 972.3 393.481 972.071 393.091L971.88 392.765L971.677 392.435C971.516 392.169 971.359 391.906 971.194 391.644C971.123 391.524 971.048 391.408 970.973 391.269L970.751 390.928C970.594 390.68 970.44 390.433 970.279 390.178L970.035 389.803C969.986 389.724 969.934 389.649 969.881 389.574C969.698 389.296 969.506 389.019 969.323 388.745C969.24 388.621 969.154 388.501 969.067 388.37C968.91 388.141 968.745 387.916 968.584 387.688C968.497 387.568 968.415 387.448 968.329 387.313L968.078 386.968L967.946 386.791C967.736 386.504 967.522 386.215 967.305 385.925L967.073 385.629C966.881 385.378 966.698 385.126 966.488 384.879L966.244 384.564L966.139 384.44C965.139 383.19 964.103 381.979 963.03 380.806L962.94 380.709C962.681 380.428 962.415 380.15 962.152 379.869L961.74 379.43C961.722 379.416 961.706 379.399 961.691 379.381C961.47 379.156 961.245 378.931 961.024 378.703L960.506 378.181C960.379 378.054 960.248 377.93 960.131 377.806L959.831 377.514C959.64 377.33 959.456 377.139 959.258 376.963L958.688 376.434L958.582 376.34L957.964 375.77L957.566 375.425L957.296 375.181L956.64 374.615L956.464 374.465L955.976 374.053L955.286 373.486L954.986 373.243L954.611 372.954L953.891 372.391L953.854 372.365L953.235 371.889L952.485 371.326L951.836 370.854L951.038 370.291C950.828 370.145 950.617 369.999 950.404 369.856C950.119 369.661 949.83 369.481 949.545 369.283L949.391 369.181L948.949 368.893C948.623 368.683 948.296 368.48 947.966 368.274C947.801 368.173 947.636 368.064 947.468 367.963C946.968 367.658 946.468 367.361 945.968 367.074C942.218 364.914 938.235 363.084 934.766 360.485C930.761 357.485 927.563 353.57 924.113 349.951C917.402 342.914 909.663 336.934 901.159 332.218C898.601 330.8 895.823 329.345 894.476 326.75C893.13 324.155 894.27 320.124 897.176 319.805C909.966 328.577 923.369 336.418 937.282 343.269C940.759 344.979 944.37 346.704 946.95 349.595C948.93 351.811 950.171 354.564 951.604 357.163C959.261 371.038 972.442 380.585 981.341 393.538C990.007 406.145 996.169 421.209 1003.06 434.851C1005.24 439.183 1007.43 443.563 1008.71 448.243C1010.33 454.156 1010.46 460.359 1010.58 466.486C1010.71 473.113 1010.84 479.784 1009.7 486.309C1009.67 486.47 1009.64 486.631 1009.61 486.796C1011.89 480.905 1014.23 475.029 1016.89 469.325C1021.51 459.515 1026.27 452.548 1031.62 448.325L1031.42 448.483C1040.01 435.77 1050.07 430.568 1061.6 432.875C1066.25 433.805 1070.5 439.033 1075 437.949C1075.75 437.75 1076.12 437.615 1076.43 436.929C1077.2 435.088 1075.06 431.27 1073.78 429.106L1073.67 428.926C1071.2 424.75 1067.95 421.09 1064.09 418.145C1064.94 421.453 1064.68 424.985 1062.19 426.125C1056.96 428.521 1051.59 418.764 1046.01 420.125C1040.7 421.43 1040.24 429.973 1035.51 432.68C1032.18 434.581 1024.9 436.43 1024 432.68C1022.71 427.381 1030.24 423.579 1032.05 418.43C1032.89 416.034 1033.63 412.43 1031.67 410.829C1025.56 405.744 1010.77 401.938 998.078 390.916C985.388 379.895 976.125 366.474 965.453 347.124C957.713 340.948 950.261 334.726 943.267 328.49C943.642 328.798 944.017 329.101 944.419 329.401C942.326 327.526 940.294 325.625 938.288 323.728L937.665 323.131L938.201 323.353C918.874 315.365 901.009 304.516 883.14 293.66C871.14 286.359 859.095 279.054 846.619 272.615C763.369 229.749 674.228 206.109 582.533 190.4L578.715 189.74C544.376 183.74 534.195 162.74 559.418 169.591C682.418 202.948 805.342 236.293 921.997 291.166C930.517 295.175 939.071 299.105 947.617 303.028C1001.6 327.811 1055.18 352.415 1097.38 395.75C1145.66 445.351 1186.9 499.963 1195.29 571.929C1198.81 602.525 1192.22 630.204 1165.8 649.73C1163.97 651.103 1161.58 651.68 1159.19 652.261L1158.92 652.329C1158.57 652.414 1158.2 652.416 1157.84 652.336C1157.49 652.255 1157.16 652.095 1156.88 651.866C1156.6 651.637 1156.37 651.346 1156.22 651.016C1156.07 650.686 1155.99 650.325 1156 649.963V649.929C1156.07 647.754 1156.14 645.594 1156.74 643.595C1170.88 596.165 1126.12 515.971 1078.07 502.655C1054.61 496.123 1041.02 510.155 1029.29 525.808L1027.53 528.189C1004.96 558.504 976.699 578.938 938.46 584.27C937.463 584.42 936.532 584.968 935.599 585.519C935.134 585.793 934.669 586.066 934.192 586.291C934.669 586.49 935.134 586.734 935.602 586.974C936.488 587.501 937.453 587.881 938.46 588.099C947.494 589.708 956.329 588.174 965.085 586.134L966.896 585.703C967.92 585.481 968.97 585.328 970.016 585.196C970.729 585.099 971.441 585.001 972.139 584.881C971.479 585.256 970.845 585.631 970.215 586.051C969.281 586.687 968.298 587.246 967.275 587.724C962.557 589.816 957.814 591.879 953.059 593.949C949.809 595.359 946.559 596.775 943.309 598.198L942.934 598.359C937.826 600.635 934.519 603.234 933.495 610.243L933.431 610.618C932.257 616.858 925.646 616.07 920.306 615.433L919.954 615.391L919.481 615.335L918.994 615.283L916.29 615.016C879.656 611.323 845.932 597.856 812.246 584.401C807.889 582.651 803.53 580.919 799.17 579.204L794.67 577.441L793.766 577.093L792.81 576.718L791.07 576.043C774.979 569.814 758.767 563.536 745.669 551.604C736.762 543.448 736.088 534.32 744.248 525.354L744.533 525.035C750.469 518.364 747.337 515.401 740.756 513.211L740.13 513.009C731.708 510.384 723.011 511.344 714.439 512.3C705.716 513.271 697.121 514.231 689.081 511.363C638.854 493.333 592.515 467.896 560.929 423.309C544.984 400.809 555.99 375.136 585.63 354.639C601.631 343.625 619.56 336.879 637.511 330.121C642.488 328.246 647.464 326.371 652.402 324.414C652.972 324.193 653.572 323.979 654.184 323.761C658.144 322.355 662.58 320.761 662.58 316.111C662.513 311.191 657.776 309.815 653.674 308.611L653.34 308.514L650.584 307.689C617.644 298.04 583.965 298.854 550.2 300.59L546.93 300.759C537.555 301.284 528.292 301.73 518.936 301.955H518.044C513.836 302.049 509.134 302.154 507.109 297.83C505.444 294.275 507.518 291.38 509.554 288.538C510.173 287.671 510.787 286.809 511.294 285.935C511.826 284.983 512.52 283.948 513.225 282.901C515.017 280.243 516.859 277.501 516.161 275.836C514.77 272.461 510.881 272.975 507.307 273.459C506.46 273.571 505.631 273.684 504.859 273.74L503.655 273.841C463.935 277.445 420.78 310.861 400.492 349.216L400.605 349.156L402.791 348.058L403.789 347.566L404.783 347.079L405.015 346.666C418.916 322.164 440.321 304.01 468.765 291.984C476.7 288.609 482.839 288.766 481.789 301.483L481.744 302.079C480.645 318.695 492.199 317.079 501.866 315.736C503.456 315.515 504.994 315.301 506.415 315.178L511.856 314.66C515.356 314.318 518.866 313.965 522.386 313.603H522.45C529.496 312.883 536.542 312.166 543.589 311.578L549.919 310.591L554.756 309.823L556.204 309.59L560.179 308.949L561.679 308.701L566.021 307.978L567.12 307.794C568.972 307.483 570.829 307.168 572.704 306.841C575.271 306.462 577.864 306.284 580.459 306.309C588.39 306.275 598.729 307.381 603.818 310.171C604.913 310.771 605.576 311.938 605.992 313.213L608.678 313.618C613.136 314.319 617.801 315.433 618.607 320.27C619.387 324.954 615.06 327.369 611.107 329.574C610.136 330.118 609.191 330.646 608.348 331.194L606.956 332.086C604.511 333.65 602.055 335.188 599.599 336.725C588.521 343.659 577.474 350.563 567.776 359.619C544.946 380.866 540.457 408.841 560.276 432.781C592.185 471.335 634.942 495.748 678.555 518.578L684.311 521.578C686.561 522.703 689.325 523.67 691.646 523.374C708.368 521.465 726.075 536.75 736.504 554.615C737.801 556.839 735.21 559.303 733.046 557.904C717.596 547.903 701.651 531.013 689.887 528.901C680.062 527.139 670.159 525.365 662.227 519.035L659.602 516.954C647.531 507.579 634.74 499.104 621.945 490.625H621.922C611.557 483.755 601.185 476.881 591.199 469.531C591.465 471.984 589.815 474.103 587.869 475.348L589.77 476.731L595.136 480.586C598.386 482.931 601.636 485.284 604.886 487.644C625.834 502.861 646.92 518.18 669.66 530.188C690.229 541.063 710.314 552.92 730.41 564.785C780.285 594.241 830.16 623.72 887.648 638.064C939.593 651.08 989.149 651.605 1034.36 617.941C1036.91 615.995 1039.45 613.603 1041.17 610.906C1041.55 610.31 1041.96 609.718 1042.35 609.121C1045.5 604.411 1052.9 595.599 1047.16 593.326L1042.04 595.389C1038.79 597.264 1038.69 599.675 1034.58 602.679C1033.66 603.324 1032.69 603.883 1031.7 604.445C1031.31 604.674 1030.91 604.903 1030.51 605.135C1030.44 605.176 1030.37 605.199 1030.29 605.202C1030.21 605.205 1030.13 605.188 1030.06 605.153C1029.99 605.118 1029.93 605.066 1029.88 605.001C1029.84 604.936 1029.81 604.861 1029.8 604.783C1029.76 604.471 1029.72 604.16 1029.68 603.849C1029.46 602.647 1029.4 601.421 1029.5 600.204C1030.25 593.623 1028.98 590.255 1020.88 591.601L1019.28 591.886C1013.34 592.955 1005.9 594.298 1002.61 588.609C999.709 583.558 1003.66 579.631 1007.36 575.956C1008.42 574.899 1009.47 573.868 1010.32 572.833C1021.09 559.591 1031.88 546.35 1043.32 533.784C1058.44 517.175 1075.73 517.025 1092.87 530.341C1113.83 546.725 1130.67 566.773 1142.05 591.013C1150.28 608.566 1149.86 625.295 1141.38 640.37C1136.32 655.479 1122.73 668.78 1100.67 680.525C1076.3 693.481 1050.26 699.733 1023.89 704.656C1022.43 705.466 1021.12 706.741 1019.82 708.005C1019.4 708.418 1018.98 708.826 1018.55 709.224C1018.34 709.416 1018.21 709.684 1018.19 709.97C1018.17 710.257 1018.26 710.539 1018.45 710.758C1018.86 711.234 1019.25 711.74 1019.66 712.258C1020.92 713.87 1022.18 715.483 1023.78 716.03C1059.33 728.525 1099.75 738.905 1130.15 717.155C1160.61 695.405 1191.45 668.008 1205.23 629.105C1216.5 597.196 1212.66 565.648 1202.33 534.946L1202.44 535.145ZM691.98 468.699C721.043 469.914 764.494 439.726 780.6 463.951L782.276 467.161C792.986 483.286 771.247 478.831 756.307 479.536C745.77 480.046 734.831 482.128 724.001 483.691L725.779 483.316L726.818 483.099C721.826 484.149 716.858 485.165 712.193 486.099L698.426 488.855C697.917 488.957 697.396 488.993 696.877 488.964C666.769 487.153 646.012 472.839 626.002 457.411L621.682 454.07C621.416 453.909 621.341 453.485 621.262 453.061C621.232 452.893 621.203 452.724 621.161 452.574C621.479 452.62 621.8 452.647 622.121 452.656C622.663 452.642 623.203 452.742 623.704 452.949C633.891 457.798 644.335 462.088 654.99 465.8L653.213 464.675C652.948 464.509 652.729 464.281 652.574 464.01C652.419 463.739 652.334 463.434 652.325 463.122C652.316 462.81 652.384 462.501 652.523 462.222C652.662 461.943 652.868 461.702 653.123 461.521C664.699 453.399 678.997 468.118 691.969 468.646L691.98 468.699ZM616.594 358.959C598.856 367.843 585.544 385.524 613.065 402.901C629.94 413.563 650.329 417.384 668.332 426.028C673.661 428.589 671.899 435.755 666.761 437.48C660.942 439.464 654.893 440.695 648.761 441.144V441.181L648.514 441.279L645.956 442.303L644.726 442.794L642.623 443.649C610.661 443.049 572.786 419.038 569.34 398.39C566.947 383.953 587.306 360.013 602.051 360.088C602.438 360.106 602.819 360.192 603.176 360.343L603.551 360.463L603.803 360.538C603.716 360.766 603.63 361.006 603.547 361.25C603.315 362.029 602.973 362.772 602.531 363.455C602.081 364.059 601.646 364.648 601.223 365.229L602.156 363.965C605.663 362.034 609.281 360.965 614.156 359.615L616.665 358.933L616.594 358.959Z" fill="#5F5F6B"/>
<path d="M551.283 120.227C563.377 122.874 576.165 132.879 594.288 139.303C607.515 143.991 622.946 146.428 636.54 150.849C648.165 154.622 660.401 161.957 669.491 165.744C679.522 169.926 686.055 170.597 690.57 173.151L690.776 173.259L690.281 172.974C687.333 171.298 684.401 170.087 681.101 168.726C676.129 166.759 671.288 164.477 666.607 161.893C663.945 160.393 660.828 158.278 657.528 156.021C651.765 152.079 645.438 147.752 639.982 145.809C633.382 143.466 626.313 142.179 619.357 140.912C609.363 139.093 599.587 137.316 591.757 132.493C568.215 118.007 541.882 109.078 522.292 109.078C496.368 109.078 469.188 108.178 449.242 106.828C457.933 109.982 466.797 112.634 475.792 114.771C498.941 120.159 523.991 114.246 551.287 120.223" fill="#4195C4"/>
<path d="M1294.5 731.085C1320.82 689.085 1295.65 643.144 1285.26 601.973C1282.44 590.794 1282.54 578.933 1279.05 567.949C1275.87 557.955 1268.98 549.465 1265.42 539.607L1262.04 530.262C1256.28 514.167 1262.65 504.908 1260.65 498.507L1260.19 497.007L1257.63 491.674C1255.28 486.758 1252.48 471.158 1249.13 463.924L1247.57 460.549C1228.74 419.835 1243.63 386.648 1236.87 346.883C1228.79 299.385 1224.78 362.952 1230.17 287.569C1233 248.074 1252.72 204.18 1275.51 171.915C1278.67 167.415 1284.15 159.915 1289.32 148.208C1294.49 136.5 1300.8 95.3966 1313.25 70.2941C1316.96 62.8284 1321.87 56.0161 1327.77 50.1229C1313.81 56.8729 1303.69 51.3716 1293.11 45.6229C1287.84 42.7616 1282.44 39.8329 1276.4 38.3216C1259.88 34.1966 1254.45 46.8529 1248.15 61.5304C1247.07 64.0579 1245.96 66.6454 1244.77 69.2179L1244.02 70.8341C1239.32 81.1541 1236.04 100.834 1232.54 121.789C1229.99 137.108 1227.32 153.105 1223.9 166.628L1223.39 168.589C1220.28 180.405 1210.62 186.964 1200.96 193.489C1196.43 196.557 1191.91 199.62 1188.06 203.239C1168.67 221.494 1159.84 249.848 1168.75 267.653C1171.8 273.653 1177.2 276.795 1182.77 279.623L1186.94 281.715C1188.34 282.377 1189.78 282.962 1191.25 283.467C1195.93 285.173 1200.73 286.924 1200.56 292.189C1200.37 298.125 1194.5 300.75 1189.12 302.689L1186.01 303.814C1180.12 305.993 1173.87 307.29 1167.64 308.58C1165.95 308.933 1164.26 309.282 1162.57 309.649L1162.2 309.732C1161.21 309.945 1160.18 310.107 1159.16 310.279C1154.55 311.029 1149.88 311.802 1147.66 316.834C1144.99 322.917 1147.93 328.084 1151.1 332.925L1152.6 335.205C1157.97 343.144 1165.61 348.979 1174.68 351.169L1175.39 351.349C1195.19 356.475 1199.24 371.157 1203.63 387.064C1204.26 389.344 1204.9 391.65 1205.59 393.957L1206.12 395.682C1214.09 421.182 1223.65 446.175 1233.21 471.147C1245.91 504.304 1258.6 537.458 1267.57 571.849L1268 573.48C1270.71 583.568 1274.04 593.502 1277.37 603.432C1284.28 624.004 1291.2 644.569 1292.49 666.488C1294.94 707.967 1271.71 742.362 1225.95 763.152L1226.07 763.095L1229.92 762.394C1247.78 759.094 1264.12 755.592 1279.29 748.894C1285.15 743.701 1290.25 737.708 1294.44 731.093" fill="#4195C4"/>
<path d="M1117.84 148.227C1124.3 162.571 1132.77 176.247 1136.06 191.63C1140.87 214.092 1134.24 238.505 1142.65 259.88C1143.28 261.492 1144.11 263.199 1145.67 263.964C1150.35 266.262 1153.36 258.714 1153.17 253.497C1151.81 210.617 1154.32 167.702 1160.67 125.274C1161.66 118.685 1162.76 112.04 1165.3 105.879C1169.16 96.5036 1176.15 88.6961 1179.81 79.2536C1181.94 73.657 1182.85 67.6699 1182.47 61.6938C1182.1 55.7176 1180.45 49.8907 1177.64 44.6036C1168.67 39.2149 1156.42 43.6211 1149.67 51.6199C1142.92 59.6186 1140.33 70.2199 1137.94 80.4086C1136.02 88.6361 1134.09 96.8624 1132.16 105.087C1131.81 106.587 1131.39 108.2 1130.2 109.182C1121.28 116.555 1118.92 95.1574 1110.25 109.456C1104.7 118.602 1114.04 139.85 1117.81 148.209" fill="#5F5F6B"/>
<path d="M1013.25 175.693C1007.19 169.296 1002.02 162.388 996.469 155.582C990.469 148.21 982.182 143.301 973.969 138.872C959.719 131.2 944.449 125.061 930.162 117.148C909.091 105.478 889.459 98.8633 865.287 99.2683C845.176 99.6095 827.637 88.8058 812.671 76.3183C805.594 70.412 796.474 68.1958 788.026 65.2408C776.802 61.3108 765.503 56.9533 754.036 53.6908C741.034 49.9933 720.432 43.877 707.299 48.8983C704.956 49.7945 703.696 51.5233 705.076 53.8445C705.851 55.1085 706.786 56.2669 707.858 57.2908C724.358 62.1058 740.573 68.3833 756.574 74.6233C760.973 76.337 765.451 78.1033 769.261 80.8408L769.966 81.0695C769.943 81.152 769.924 81.2345 769.902 81.317C770.344 81.6545 770.778 82.007 771.203 82.3745C775.489 86.1245 778.283 91.2395 781.598 95.8745C785.519 101.331 790.228 106.177 795.571 110.252C806.071 107.871 815.959 105.82 826.422 107.608C836.419 109.315 842.333 115.401 850.171 121.978C861.477 131.466 874.298 140.113 886.939 147.411C898.039 153.823 911.558 155.856 924.154 158.661C938.952 161.965 953.157 165.861 967.306 171.276C980.592 176.361 992.719 182.428 1004.97 189.696C1013.33 194.661 1030.61 204.67 1033.17 202.738C1035.73 200.807 1018.22 180.958 1013.23 175.686" fill="#EA7534"/>
<path d="M250.5 82.4053C252.428 82.7616 254.445 83.2228 255.889 84.5503C257.996 86.4928 258.277 89.6691 258.412 92.5341C258.881 102.247 258.787 113.358 251.569 119.857C242.546 127.957 228.6 123.982 216.559 122.564C199.571 120.58 182.306 124.814 165.326 122.744C136.027 119.182 111.499 97.5291 82.3312 93.0066C73.845 91.6903 64.8075 91.7653 57.33 87.5353C54.9075 86.1666 52.4737 83.4666 53.61 80.9316C54.2775 79.4316 55.9312 78.7003 57.4612 78.1303C85.68 67.5816 119.002 71.9091 143.591 89.3166C147.776 92.2791 151.729 95.5978 156.195 98.1103C169.792 105.764 187.669 104.024 200.351 95.2978C206.385 91.1503 209.666 84.4828 216.101 81.6741C225.023 77.7891 241.309 80.6991 250.489 82.4053" fill="#4195C4"/>
<path d="M602.25 76.5334L507.562 60.6784C500.437 59.4822 493.102 58.2259 486.836 54.5959C481.151 51.2997 476.625 46.2034 470.771 43.2147C464.363 39.9447 456.93 39.4647 449.738 39.3259C424.329 38.8029 398.955 41.4764 374.213 47.2834C368.081 48.7234 360.75 51.7497 360.27 58.0234C359.737 64.9009 367.86 68.9247 374.644 70.1734C400.29 74.8872 427.016 68.1259 452.644 72.8884C472.774 76.6384 490.95 87.2284 510.637 92.8459C529.114 98.1184 548.513 98.9059 567.724 99.6597L624.551 101.887C633.27 102.228 642.105 102.588 650.426 105.176C661.249 108.532 670.552 115.413 680.051 121.571C701.238 135.281 724.316 145.818 748.552 152.846C740.467 133.38 722.449 118.346 701.846 113.906C680.707 109.342 674.974 100.627 657.191 91.2934C640.474 82.5184 620.617 79.6122 602.227 76.5334" fill="#EDC92B"/>
<path d="M875.464 169.471C866.423 158.363 851.393 153.454 842.393 142.309C839.28 138.454 836.974 133.943 833.453 130.459C827.202 124.272 818.13 122.187 810.045 118.726C798.659 113.826 788.822 105.918 781.59 95.8507C778.275 91.2194 775.482 86.1007 771.195 82.3507C767.022 78.6982 761.738 76.6132 756.57 74.5994C724.253 61.9994 691.069 49.2194 656.382 48.7244C639.507 48.4844 622.654 51.1732 605.824 50.0594C572.528 47.8544 542.265 31.1294 511.665 17.8094C481.065 4.48942 440.502 -4.87433 414.75 5.62567C408.285 12.4544 446.505 10.0132 456.615 22.7294C461.982 29.4794 466.65 37.0357 471.953 43.8569C477.244 46.8944 481.53 51.5182 486.822 54.5857C493.088 58.2157 500.404 59.4607 507.548 60.6682L602.25 76.5344C620.625 79.6132 640.5 82.5344 657.214 91.2944C674.997 100.632 680.73 109.343 701.869 113.907C722.472 118.362 740.494 133.381 748.575 152.847C747.529 152.543 746.483 152.224 745.44 151.906C758.884 159.031 772.129 166.531 785.232 174.241C793.197 178.936 801.263 183.781 810.244 185.967C815.307 187.197 820.568 187.553 825.552 189.068C839.899 193.429 844.264 189.379 843.927 188.926C842.333 186.676 843.469 185.337 846.39 185.266C859.35 184.954 872.123 193.047 877.373 204.901C879.593 209.911 880.579 215.498 883.598 220.073C886.617 224.648 892.804 227.929 897.597 225.267C885.908 208.834 888.169 185.108 875.438 169.471" fill="#E5C7A3"/>
<path d="M694.526 175.424L692.374 174.183L690.784 173.264L690.57 173.148C686.07 170.594 679.523 169.923 669.491 165.741C660.401 161.954 648.15 154.619 636.54 150.846C622.946 146.433 607.515 143.988 594.289 139.3C576.165 132.876 563.377 122.871 551.284 120.224C523.987 114.246 498.938 120.16 475.789 114.771C466.794 112.635 457.929 109.983 449.239 106.829C423.555 97.6452 402.517 86.3989 389.239 84.6139C369.885 82.0114 357.439 73.7389 347.959 64.0752C344.456 63.8014 314.25 23.7852 301.069 23.7852C275.31 23.7852 261.12 35.9877 252.51 70.3264C252.302 71.1464 252.094 71.9577 251.884 72.7602C252.094 71.9577 252.307 71.1477 252.514 70.3264C252.307 71.1477 252.094 71.9614 251.88 72.7677C251.861 72.8314 251.846 72.8952 251.827 72.9589C251.614 73.7652 251.392 74.5677 251.171 75.3552V75.3889C251.059 75.7902 250.942 76.1914 250.826 76.5889C250.71 76.9864 250.594 77.3802 250.478 77.7739V77.8152C250.301 78.4077 250.121 79.0002 249.938 79.5814C250.123 79.0014 250.303 78.4127 250.478 77.8152C250.26 78.5464 250.039 79.2627 249.814 79.9752C249.742 80.2002 249.668 80.4214 249.596 80.6464C249.435 81.1527 249.27 81.6589 249.101 82.1464L249.259 81.6814L249.101 82.1464L250.519 82.4089C252.446 82.7652 254.464 83.2264 255.907 84.5539C258.019 86.4964 258.296 89.6727 258.431 92.5377C258.9 102.25 258.806 113.361 251.588 119.86C242.565 127.96 228.619 123.985 216.577 122.571C199.59 120.58 182.325 124.821 165.345 122.748C156.81 121.709 148.68 119.136 140.719 115.896L139.103 115.743L138.728 115.705C137.951 115.626 137.179 115.548 136.402 115.461H136.268C135.563 115.383 134.857 115.304 134.152 115.218L133.65 115.158L131.659 114.906L131.37 114.869C130.62 114.768 129.844 114.659 129.083 114.55L128.737 114.501L126.814 114.209L126.296 114.126C125.58 114.01 124.868 113.894 124.151 113.751H124.061C123.311 113.62 122.561 113.485 121.792 113.343L121.335 113.256C120.724 113.14 120.116 113.02 119.505 112.881L119.002 112.78C117.502 112.473 116.017 112.144 114.547 111.794L114.034 111.67L112.223 111.22L111.769 111.104C111.019 110.914 110.276 110.715 109.541 110.508L109.357 110.455C108.69 110.268 108.022 110.08 107.355 109.878L106.815 109.716C106.197 109.529 105.579 109.336 104.959 109.139L104.606 109.03C103.871 108.795 103.139 108.551 102.409 108.299L102.034 108.171C101.426 107.961 100.82 107.745 100.215 107.523L99.6713 107.324C99.0113 107.08 98.3513 106.833 97.6913 106.574L97.5 106.499C96.7725 106.214 96.0487 105.921 95.3287 105.621L94.8563 105.423C94.2788 105.173 93.7038 104.923 93.1313 104.673L92.6025 104.44C91.89 104.121 91.1737 103.795 90.4612 103.458L89.7112 103.113C88.8762 102.74 88.0362 102.404 87.1912 102.104L87.0788 102.063L86.355 101.815L86.1675 101.755L85.5112 101.549L85.2788 101.481L84.6675 101.305L84.405 101.234L83.82 101.08L83.535 101.009L82.9725 100.874L82.665 100.806L82.1213 100.69L81.7988 100.626L81.2625 100.521L80.9363 100.461L80.4038 100.371L80.07 100.315L79.545 100.236L79.2 100.188L78.6825 100.12L78.3337 100.079L77.8162 100.019L77.4638 99.9814L76.95 99.9289L76.575 99.8989L76.0613 99.8577L75.6863 99.8314L75.1763 99.7977L74.8013 99.7752L74.325 99.7489H73.95L73.4287 99.7264H73.0725H72.555H72.18H71.6587H69.5025H68.985H68.6625H68.0775H67.7812L67.17 99.7489H66.8962L66.2512 99.7752H66.015L65.3062 99.8089H65.1338L64.3388 99.8502H64.2525C63.555 99.8877 62.8575 99.9252 62.16 99.9702L60.7875 100.053L59.2125 100.15L58.9013 100.169L58.5788 100.188H58.4663L57.9937 100.206H57.6187H57.1575H56.325H55.95H55.5112H55.1362L54.7012 100.184L54.3562 100.161L53.9325 100.128L53.625 100.124L53.2087 100.079L52.8862 100.041L52.4812 99.9852L52.17 99.9402L51.7725 99.8727L51.4725 99.8202L51.0975 99.7452L50.8088 99.6852L50.4338 99.5952L50.16 99.5314L49.785 99.4339L49.5225 99.3589L49.1475 99.2502L48.8962 99.1752L48.5212 99.0552L48.2812 98.9689L47.925 98.8414L47.6925 98.7514L47.3438 98.6089L47.1225 98.5189L46.7775 98.3652L46.5713 98.2677L46.2337 98.1027L46.0312 98.0014L45.7012 97.8289L45.5137 97.7239L45.1875 97.5364L45.0075 97.4314L44.6887 97.2327L44.52 97.1239L44.205 96.9139L44.0475 96.8014L43.7363 96.5802L43.59 96.4677C43.485 96.3889 43.3837 96.3139 43.2862 96.2314L43.1438 96.1189C43.0425 96.0402 42.945 95.9577 42.8475 95.8714L42.7163 95.7589L42.42 95.5002L42.3 95.3877C42.2025 95.2977 42.105 95.2077 42.0112 95.1139L41.8988 95.0052L41.61 94.7164L41.5125 94.6114C41.415 94.5102 41.3213 94.4089 41.2275 94.3039L41.1375 94.2064C41.0437 94.0977 40.9462 93.9927 40.8562 93.8839L40.7738 93.7864C40.68 93.6777 40.5862 93.5652 40.4962 93.4527L40.425 93.3627L40.1475 93.0064C40.1475 92.9802 40.11 92.9502 40.0875 92.9239C39.9938 92.8002 39.9037 92.6764 39.8137 92.5489C39.8137 92.5264 39.78 92.5039 39.765 92.4777C39.6713 92.3502 39.5812 92.2189 39.4912 92.0839L39.45 92.0239C39.3562 91.8852 39.2663 91.7502 39.1763 91.6077L39.15 91.5627C39.0563 91.4164 38.9662 91.2702 38.8762 91.1239L38.8575 91.0939C38.7675 90.9402 38.6737 90.7864 38.5837 90.6289C36.0262 86.1514 34.695 80.5564 33.5475 74.8339L32.6663 70.3339L33.5475 74.8114C33.5137 74.2939 31.26 41.1852 -4.875 40.4989V132.303C-0.85125 131.643 3.17625 131.024 7.185 130.559C22.935 128.725 38.2875 129.213 51.3525 138.648C51.96 139.085 52.5625 139.544 53.16 140.024C54.0575 140.741 54.9425 141.504 55.815 142.311C56.395 142.851 56.9712 143.413 57.5437 143.995C58.1162 144.578 58.6813 145.181 59.2388 145.806C67.8413 155.463 73.0875 167.181 73.815 179.388C73.86 180.11 73.8875 180.835 73.8975 181.563V181.938C73.934 187.196 73.1249 192.427 71.5012 197.429C71.3925 197.774 71.2762 198.111 71.16 198.445L71.0513 198.734C70.9688 198.966 70.8862 199.195 70.7962 199.42C70.755 199.533 70.71 199.645 70.665 199.758C70.5825 199.965 70.5 200.168 70.4175 200.365C70.3725 200.478 70.3237 200.59 70.275 200.699C70.1887 200.901 70.1025 201.096 70.0125 201.291L69.8775 201.591L69.5625 202.244C69.5287 202.311 69.4988 202.379 69.465 202.443C69.3225 202.724 69.18 202.998 69.0337 203.268L68.9737 203.373C68.8462 203.601 68.7187 203.826 68.5987 204.044L68.4525 204.284C68.3475 204.456 68.2425 204.629 68.1375 204.794C68.0812 204.884 68.025 204.966 67.9725 205.053C67.8675 205.21 67.7625 205.368 67.6575 205.518L67.4888 205.765C67.3763 205.923 67.2637 206.076 67.1475 206.23L66.9937 206.436C66.8512 206.628 66.705 206.811 66.555 206.995L66.4912 207.074C66.3187 207.284 66.1463 207.49 65.9663 207.689C65.9288 207.734 65.8875 207.775 65.8462 207.82C65.7112 207.97 65.5725 208.12 65.4375 208.263L65.2537 208.45L64.8787 208.825L64.68 209.013L64.305 209.354L64.11 209.526C63.975 209.646 63.8363 209.759 63.6975 209.875L63.54 210.006C63.165 210.318 62.7562 210.61 62.355 210.888L62.1825 211C62.04 211.098 61.8938 211.195 61.7475 211.285L61.5337 211.416C61.3987 211.503 61.26 211.581 61.125 211.664L60.9 211.791L60.4763 212.024L60.2663 212.133C60.105 212.219 59.94 212.298 59.775 212.38L59.6287 212.451L58.9725 212.748L58.8787 212.785C58.6912 212.864 58.5037 212.943 58.3125 213.014L58.1025 213.096L57.6413 213.265L57.4013 213.348L56.955 213.494L56.8162 213.539L56.7075 213.573L56.2388 213.711L56.0175 213.771C55.8225 213.828 55.6425 213.876 55.4325 213.925L55.3237 213.955L54.6187 214.116L54.4238 214.154L53.91 214.259L53.6438 214.304L53.19 214.383L52.905 214.428L52.455 214.491L52.1738 214.533L51.6938 214.589L51.4387 214.619L50.7712 214.683H50.6138L49.9763 214.731H49.6875L49.23 214.758H48.9038L48.4763 214.776H48.1387H47.7112H46.6162H45.8887H45.5625H45.12H44.745H44.37H43.9725L43.5975 214.758L43.1887 214.735L42.8137 214.713L42.3938 214.686L42.075 214.664L40.9912 214.581H40.9163L40.4137 214.536L40.1438 214.514L39.645 214.469L39.3788 214.443L38.8538 214.394L38.64 214.371L38.0663 214.311H37.9725C36.4388 214.15 34.9013 213.97 33.3675 213.794L31.9688 213.633L31.5938 213.591L29.7188 213.385H29.5613L27.7612 213.205H27.57C26.94 213.149 26.31 213.096 25.695 213.051L22.5825 212.841C21.8325 212.789 21.1088 212.725 20.3738 212.658L19.875 212.541L18.1125 212.365L17.625 212.313C16.1475 212.153 14.67 211.975 13.1925 211.78L12.75 211.72L10.875 211.465L10.5 211.416C7.03125 210.933 3.55875 210.396 0.0862498 209.883L-0.8025 209.755L-1.875 209.598L-3 209.44L-4.00875 209.301L-4.875 209.178V311.151L13.47 296.556L15.2587 295.158C38.9662 276.749 67.035 264.749 92.07 248.219C102.641 241.24 111.671 232.15 121.92 224.71C141.232 210.689 156.499 200.549 180.982 196.641C198.427 193.859 216.941 198.951 233.918 194.069C248.771 189.801 259.189 175.694 273.566 170.031C289.208 163.874 306.596 163.54 322.793 158.999C334.688 155.676 345.713 149.59 357.668 146.508C412.159 132.475 486.9 129.404 539.764 130.585L540.63 130.608C565.433 131.313 562.238 137.954 584.205 144.895C599.843 149.841 616.106 152.601 631.83 157.24C644.543 160.99 656.58 166.99 669.476 170.031C677.576 171.94 686.224 173.961 694.976 175.675L694.515 175.409L694.526 175.424ZM-3.375 78.3289C-3.18346 77.9286 -2.97194 77.5381 -2.74125 77.1589C-2.97194 77.5381 -3.18346 77.9286 -3.375 78.3289" fill="#D53A2C"/>
<path d="M793.354 221.019L792.566 220.704L790.541 219.89L788.782 219.185L787.466 218.653L785.01 217.663L784.305 217.378L781.264 216.144L780.964 216.02L777.536 214.625L777.465 214.595C749.156 203.012 721.185 190.667 694.523 175.427C694.68 175.513 694.83 175.603 694.988 175.693C686.239 173.979 677.591 171.943 669.488 170.068C656.588 167.03 644.554 161.019 631.841 157.273C616.091 152.634 599.846 149.874 584.216 144.928C562.249 137.987 565.444 131.345 540.641 130.64L539.775 130.618C486.9 129.437 412.17 132.493 357.679 146.54C345.716 149.623 334.691 155.709 322.804 159.032C306.607 163.558 289.219 163.877 273.577 170.049C259.2 175.719 248.782 189.819 233.929 194.087C216.952 198.962 198.439 193.877 180.994 196.659C156.514 200.567 141.244 210.707 121.931 224.728C111.682 232.168 102.652 241.258 92.0812 248.237C67.035 264.752 38.9662 276.752 15.2587 295.16L13.47 296.559L-4.875 311.154V332.758C9.3 319.94 19.8225 310.442 39.375 301.055C84.825 279.245 134.542 277.727 181.414 259.213C240.315 235.963 293.415 199.115 350.085 171.463C380.944 156.418 420.585 151.963 453.585 145.79C460.088 144.575 465.997 140.597 472.594 140.087C567.683 132.703 599.141 160.16 677.261 187.689C755.381 215.218 806.599 230.252 806.88 228.752L807.277 226.588C802.635 224.738 797.994 222.887 793.354 221.034" fill="#EDC92B"/>
<path d="M1022.21 131.365C1000.8 121.761 981.873 104.249 964.601 84.0626C961.466 80.3988 959.726 77.1176 959.126 74.2188C946.004 70.5808 933.242 65.7507 921 59.7888C913.803 56.2826 906.656 52.3413 898.785 50.9013C887.16 48.7713 875.302 52.3113 864.206 56.3651C862.196 57.0963 860.081 57.9176 858.738 59.5751C856.815 61.9338 856.912 65.3501 857.613 68.3126C861.78 85.9113 881.613 94.6113 899.415 97.8513C918.165 101.264 937.721 101.639 955.41 108.726C960.806 110.894 965.94 113.658 971.062 116.414C988.515 125.815 1006.04 135.254 1022 147.01C1034.31 156.074 1047.64 167.095 1062.8 165.093C1062.76 164.24 1062.68 163.394 1062.56 162.554C1053.45 151.679 1041.02 139.791 1022.21 131.35" fill="#4195C4"/>
<path d="M1022.21 131.366C1071.43 153.45 1077 199.061 1093.55 188.97C1106.23 181.301 1069.2 131.22 1066 117.952C1059.71 91.702 1092.54 53.8495 1061.24 47.1408C1029.94 40.432 1024.65 63.097 998.46 59.167C972.27 55.237 947.328 63.8883 964.601 84.0633C981.873 104.238 1000.8 121.762 1022.21 131.366" fill="#D53A2C"/>
<path d="M1444.67 69.913C1443.55 69.9362 1442.44 70.0744 1441.35 70.3255C1425.77 70.4418 1427.1 45.1068 1416.76 32.9605C1407.27 21.8193 1393.84 15.8418 1371.85 23.7843C1356.67 29.263 1340.46 37.393 1327.78 50.1543C1321.88 56.0479 1316.97 62.8601 1313.25 70.3255C1300.81 95.428 1294.5 136.551 1289.32 148.243C1284.15 159.936 1278.68 167.462 1275.51 171.947C1252.73 204.197 1233 248.106 1230.18 287.601C1224.78 362.975 1228.8 299.417 1236.87 346.914C1243.62 386.664 1228.74 419.867 1247.57 460.58L1249.13 463.955C1252.48 471.178 1255.29 486.778 1257.63 491.705L1260.19 497.038L1260.65 498.538C1262.65 504.939 1256.29 514.198 1262.05 530.293L1265.42 539.638C1268.99 549.497 1275.87 557.987 1279.05 567.98C1282.54 578.964 1282.42 590.825 1285.27 602.004C1295.66 643.175 1320.82 689.105 1294.5 731.12C1290.31 737.734 1285.21 743.725 1279.35 748.918C1280.52 748.405 1281.67 747.872 1282.82 747.317C1286.85 744.733 1290.85 742.344 1295.01 740.477C1308.41 731.769 1320.88 719.36 1332.7 700.817L1333.6 699.388C1333.91 698.889 1334.22 698.405 1334.53 697.925L1334.76 697.55L1334.67 697.625L1334.52 697.757L1334.25 697.959L1334.13 698.045L1333.92 698.184L1333.81 698.259C1333.7 698.323 1333.6 698.387 1333.49 698.443C1333.8 697.265 1334.11 696.085 1334.41 694.903C1334.57 694.277 1334.73 693.647 1334.89 693.028C1335.04 692.458 1335.18 691.903 1335.33 691.318C1335.49 690.658 1335.66 689.998 1335.83 689.334C1336.01 688.609 1336.19 687.884 1336.38 687.159C1336.47 686.784 1336.56 686.409 1336.65 686.053C1336.96 684.803 1337.27 683.568 1337.58 682.348C1339.05 676.464 1340.52 670.573 1342.08 664.723L1342.14 664.502C1342.9 661.609 1343.69 658.725 1344.5 655.85L1344.56 655.648C1344.95 654.29 1345.34 652.934 1345.74 651.579C1345.77 651.478 1345.8 651.38 1345.83 651.283C1346.25 649.863 1346.67 648.443 1347.11 647.023C1350.64 635.747 1360.51 632.533 1370.85 630.752L1371.86 630.583L1374.11 630.208C1397.98 626.435 1403.82 617.375 1398.59 594.073C1398.54 593.863 1398.5 593.653 1398.45 593.439L1398.04 591.62L1397.63 589.798C1394.85 577.265 1392.53 564.624 1390.3 551.953C1390.15 551.11 1390 550.265 1389.85 549.418L1389.82 549.245L1388.57 542.045C1385.87 526.73 1377.49 516.759 1365.58 511.153C1365.08 510.917 1364.58 510.692 1364.08 510.474C1363.06 510.035 1362.02 509.63 1360.96 509.252C1358.78 508.482 1356.56 507.842 1354.31 507.335C1353.73 507.204 1353.16 507.08 1352.57 506.96L1345.63 505.547C1338.88 504.182 1332.07 502.97 1325.47 502.922C1313.7 502.847 1302.61 506.492 1293.73 519.669L1293.58 519.902L1293.38 520.164C1292.79 520.914 1292.25 521.218 1291.8 521.24C1290.96 521.278 1290.31 520.404 1289.82 519.433L1289.73 519.253C1289.67 519.129 1289.61 519.005 1289.56 518.878C1289.47 518.694 1289.4 518.503 1289.33 518.338L1288.55 516.365C1287.91 514.742 1287.31 513.122 1286.75 511.517C1269.37 462.365 1281.48 421.715 1345.68 406.682C1347.23 399.433 1349.27 392.233 1350.26 384.894C1352.75 366.572 1348.68 348.013 1348.97 329.525C1349.18 315.842 1351.78 302.319 1354.37 288.879C1356.9 275.732 1359.44 262.558 1363.24 249.718C1365.91 240.684 1369.32 231.609 1375.53 224.522C1379.53 219.962 1384.47 216.463 1389.9 213.741C1389.93 213.182 1389.96 212.616 1390.01 212.068C1390.01 212.061 1390.01 212.053 1390.01 212.046C1390.05 211.622 1390.1 211.202 1390.17 210.793C1390.17 210.759 1390.17 210.726 1390.18 210.688C1390.21 210.501 1390.25 210.313 1390.29 210.137C1390.3 210.124 1390.3 210.112 1390.29 210.099C1390.34 209.908 1390.39 209.724 1390.45 209.537C1390.46 209.504 1390.48 209.471 1390.49 209.439C1390.54 209.293 1390.59 209.147 1390.65 209.008L1390.71 208.877C1390.78 208.713 1390.86 208.552 1390.95 208.397V208.397C1391.24 207.897 1391.52 207.397 1391.79 206.897C1391.85 206.78 1391.91 206.668 1391.97 206.552C1392.24 206.052 1392.5 205.552 1392.75 205.052L1392.84 204.868C1393.06 204.426 1393.28 203.979 1393.49 203.533C1393.56 203.398 1393.62 203.263 1393.68 203.132C1393.91 202.648 1394.13 202.168 1394.35 201.684C1394.4 201.561 1394.46 201.437 1394.51 201.309C1394.68 200.934 1394.85 200.526 1395.02 200.136C1395.09 199.974 1395.15 199.817 1395.22 199.659C1395.41 199.194 1395.59 198.729 1395.79 198.261C1395.85 198.084 1395.93 197.904 1396 197.728C1396.12 197.391 1396.26 197.057 1396.37 196.719C1396.44 196.524 1396.52 196.344 1396.59 196.138C1396.75 195.699 1396.91 195.261 1397.07 194.822C1397.16 194.582 1397.24 194.342 1397.32 194.105L1397.59 193.322C1397.74 192.889 1397.89 192.458 1398.03 192.028L1398.25 191.383L1398.56 190.415L1398.68 190.04C1400.64 183.898 1402.27 177.639 1404.19 171.474C1410.65 150.515 1427.66 141.887 1447.15 136.858V70.363C1446.35 70.0371 1445.5 69.8837 1444.64 69.913" fill="#EA7534"/>
<path d="M1202.44 535.145L1201.74 533.098C1171.27 445.423 1111.99 379.741 1040.87 322.723C997.901 288.313 949.995 262.651 900.742 239.098C893.242 235.505 880.605 229.67 876.038 237.451C872.966 242.739 878.032 246.74 883.204 250.824C885.716 252.804 888.248 254.803 889.886 256.978C890.516 257.791 891.127 258.605 891.739 259.419C892.361 260.248 892.984 261.076 893.614 261.909C893.047 261.819 892.463 261.763 891.885 261.71C890.483 261.575 889.091 261.444 887.925 260.859C861.675 248.233 834.607 237.455 807.532 226.678L807.251 226.565L806.854 228.729C806.573 230.229 755.37 215.229 677.25 187.7C599.13 160.171 567.671 132.714 472.582 140.098C465.986 140.608 460.076 144.598 453.574 145.801C420.574 151.97 380.918 156.429 350.074 171.474C293.415 199.126 240.315 235.951 181.414 259.213C134.542 277.726 84.825 279.245 39.375 301.055C19.8187 310.43 9.2925 319.94 -4.875 332.758V503.604C-2.415 503.229 0.0600001 502.888 2.53875 502.546C20.1975 500.128 38.085 497.671 51.1538 484.096C65.7488 468.913 63.3563 441.53 47.4038 415.198L46.8562 414.286C28.995 384.316 33.1162 370.059 63.795 352.359C79.0687 343.528 95.1075 334.385 111.652 333.89H111.413C165.413 319.55 218.76 304.096 270.345 282.789C271.92 281.84 273.488 280.88 275.025 279.894C288.574 271.246 301.11 261.058 314.775 252.568C322.459 247.79 331.53 245.39 338.918 240.166C365.895 221.098 345.45 224.848 372.862 215.416L374.411 214.891C391.196 209.266 421.695 201.594 435.536 212.641C449.145 223.486 433.579 226.141 453.851 227.563C465.101 228.35 476.434 226.096 487.665 227.045C488.835 227.143 489.401 229.835 488.415 230.484L486.371 233.3C503.565 229.678 522.019 223.835 527.175 237.144L528.139 237.684C541.2 236.184 554.689 234.965 568.639 233.788L573.262 233.413C598.339 231.335 641.599 228.8 671.235 235.663L690.225 240.069C743.85 252.553 706.864 244.764 764.288 269.443L766.238 270.279C830.768 297.811 838.612 294.335 886.849 347.529L890.79 351.898C902.61 365.098 925.564 391.903 925.29 409.243C925.207 414.118 918.656 417.118 917.944 421.951C916.909 428.956 923.126 436.576 920.288 443.064C918.84 446.364 913.751 439.625 911.404 436.888C904.147 428.443 900.589 424.066 898.556 422.004C855.915 384.976 808.084 357.001 754.339 339.268C753.244 338.851 752.261 337.966 751.286 337.089C750.859 336.714 750.431 336.339 749.996 335.964C750.304 335.589 750.604 335.214 750.908 334.816C751.607 333.87 752.378 332.978 753.214 332.15C764.662 321.939 756.049 317.645 749.344 314.304C748.519 313.891 747.724 313.498 747 313.104L744.998 311.979C726.671 301.906 706.59 296.75 686.498 291.59C679.316 289.745 672.131 287.9 665.029 285.834C663.606 285.31 662.249 284.622 660.986 283.783C660.364 283.408 659.741 283.033 659.111 282.691C659.861 282.556 660.611 282.373 661.361 282.193C663.113 281.765 664.879 281.338 666.611 281.491C705.686 284.634 743.186 294.583 780.09 307.228L780.379 307.325C781.354 307.666 782.438 308.075 783.562 308.54C788.599 310.535 794.561 312.894 796.181 309.47C798.375 304.839 792.6 301.464 787.849 298.689C786.922 298.149 786.034 297.628 785.254 297.129L783.806 296.206C736.931 266.615 684.101 255.331 630.195 247.906L626.861 247.453C547.215 236.683 473.932 253.363 405.889 296.754C399.855 300.605 393.473 303.943 387.113 307.254C369.011 316.711 351.113 326.071 341.963 346.94C335.809 361.021 334.492 375.965 333.18 390.905C332.557 397.951 331.939 404.994 330.81 411.95L330.724 412.486C328.144 428.109 322.744 441.245 304.909 445.239L304.643 445.303C300.893 446.293 301.238 449.634 304.312 452.12C325.312 468.883 345.42 462.654 351.675 437.495C347.355 416.758 347.925 395.495 358.485 376.775C360.36 373.483 363.735 371.24 366.926 369.196C368.316 368.301 369.711 367.41 371.111 366.523L372.098 365.9L373.35 365.109L374.681 364.273L375.9 363.523L377.269 362.675L378.491 361.925L379.879 361.074L381.082 360.343L382.523 359.476L383.685 358.783L385.283 357.838L386.287 357.249C387.157 356.743 388.027 356.236 388.912 355.749L389.453 354.526C410.205 308.428 465.368 267.823 522.3 259.205C548.28 255.195 574.66 254.467 600.821 257.038C602.475 257.244 604.095 257.915 605.696 258.583C606.416 258.883 607.133 259.179 607.849 259.43L606.307 259.903C604.778 260.417 603.217 260.834 601.635 261.151C598.89 261.684 596.13 262.183 593.385 262.681C577.125 265.621 560.857 268.561 546.776 278.285C545.051 279.5 543.911 281.578 542.771 283.655C542.231 284.638 541.691 285.62 541.088 286.513C542.003 286.993 542.91 287.593 543.821 288.189C545.737 289.449 547.665 290.72 549.697 290.923C560.572 291.976 571.504 292.644 582.439 293.311C612.683 295.156 642.949 297.005 672.064 307.006C673.189 307.381 674.415 307.756 675.69 308.131C681.169 309.714 687.315 311.506 687.259 317.259C687.279 318.524 686.914 319.765 686.213 320.818C695.369 320.819 704.504 321.705 713.49 323.465C715.403 323.84 717.364 324.279 718.95 325.411C720.536 326.544 721.665 328.539 721.2 330.429C714.316 332.225 707.135 332.574 700.11 331.453C696.405 330.86 692.67 329.859 688.961 330.406C687.266 330.654 685.631 331.224 683.936 331.434C679.474 331.993 675.007 330.054 670.526 330.429C666.735 330.748 663.3 332.679 659.723 333.969C658.369 334.456 656.61 334.753 655.703 333.639C655.035 332.821 655.215 331.584 655.838 330.714L655.088 330.913C632.651 336.939 610.193 342.973 589.943 355.186C550.868 378.676 547.425 415.483 583.057 443.761C586.342 446.364 589.639 449.011 592.957 451.681L592.995 451.711C623.809 476.488 656.231 502.558 696.158 501.883C724.916 501.391 752.955 505.239 780.907 509.071C803.962 512.233 826.965 515.386 850.282 516.099C857.092 516.324 866.524 516.174 867.874 508.468C869.145 501.436 864.577 493.43 858.367 488.566C850.571 482.454 842.051 477.346 833.531 472.239C820.369 464.364 807.214 456.459 796.762 444.864C789.799 437.233 785.535 426.238 790.999 417.335C795.6 409.865 804.424 413.038 811.747 415.666C812.4 415.899 813.041 416.131 813.664 416.349L815.843 417.099C846.593 427.794 872.235 446.949 896.843 467.626L899.22 469.629C899.78 470.052 900.38 470.419 901.012 470.724C901.387 470.923 901.762 471.125 902.137 471.35C902.04 471.08 901.954 470.799 901.867 470.514C901.681 469.707 901.343 468.943 900.87 468.264C857.978 415.074 783.274 368.319 705.649 377.514L705.341 377.551L704.092 377.683C699.319 378.166 693.911 378.718 692.025 384.845V385.595L694.71 387.5C701.284 392.161 707.809 396.785 714.33 401.525C715.234 402.277 716.047 403.133 716.752 404.075V404.075C717.041 404.45 717.326 404.784 717.619 405.118C716.996 405.043 716.355 405.016 715.717 404.994C714.435 404.941 713.156 404.893 712.009 404.446C708.964 403.276 705.851 401.885 702.701 400.479C689.745 394.693 676.174 388.633 664.249 396.515L663.63 396.916C646.451 407.908 634.89 400.595 622.973 393.061C620.764 391.663 618.54 390.26 616.268 388.959L615.893 388.738C605.906 382.854 607.327 375.114 615.979 368.611C645.469 346.468 679.601 345.646 714.113 348.789L715.714 348.939C768.532 354.001 816.806 371.476 853.564 410.814L854.651 411.965C860.539 418.145 866.828 423.965 873.113 429.751C885.454 441.144 897.78 452.518 907.009 466.696L907.624 467.63C908.535 469.003 909.476 470.386 910.421 471.781C919.455 485.098 929.213 499.475 921.983 515.848C914.696 532.453 898.076 534.5 882.098 536.473C879.743 536.765 877.399 537.054 875.1 537.388L873.997 537.549C871.2 537.973 868.391 538.333 865.575 538.674C865.695 538.746 865.811 538.821 865.924 538.899C866.854 539.559 866.55 541.085 865.425 541.254H865.238L843.529 541.108C842.156 541.28 840.781 541.464 839.404 541.659C837.259 541.929 835.174 543.695 833.404 545.349L832.8 545.923C832.5 546.151 834.3 549.44 835.721 550.561C867.458 576.061 950.246 579.811 983.558 557.311C999.394 546.613 1008.53 530.96 1016.01 514.059L1017.51 510.609C1041.47 456.118 1055.79 453.89 1101.29 494.859C1125.84 516.984 1146.58 542.214 1165.21 569.371L1165.38 569.596C1165.66 570.013 1165.95 570.455 1166.25 570.905C1168.3 574.025 1170.65 577.606 1174.43 576.328C1176.68 575.578 1178.39 569.743 1178.32 566.304C1177.57 533.611 1166.04 504.586 1147.85 477.804L1147.62 478.025C1148.41 479.68 1149.2 481.333 1150 482.983C1158.1 499.858 1166.22 516.751 1168.19 535.82C1168.26 536.379 1168.35 536.968 1168.44 537.568C1168.98 541.066 1169.56 545.004 1165.87 546.215C1163.62 546.965 1159.12 543.523 1156.82 540.965L1153.74 537.613C1130.16 511.929 1105.88 486.954 1077.47 466.363C1049.06 445.771 1031.28 451.025 1017.06 483.043C1015.3 487.003 1013.63 491.026 1011.96 495.043C1003.34 515.818 994.71 536.641 973.2 548.863C972.101 549.511 970.972 550.059 969.825 550.595L968.108 551.405C958.451 555.969 948.42 558.361 937.639 557.165C940.163 556.505 942.712 555.913 945.266 555.32C950.827 554.026 956.407 552.729 961.744 550.73C974.381 546.001 983.175 538.07 989.951 528.466C986.445 531.564 982.451 534.136 978.405 536.593L978.12 536.765L976.545 537.721C971.929 540.515 967.249 543.346 962.093 544.921C955.624 546.916 948.727 546.883 941.959 546.83C928.02 546.721 913.744 546.549 900.709 541.625C907.927 537.425 916.244 535.501 924.574 536.105C933.199 536.75 942.113 540.084 950.288 537.204C950.61 537.091 950.929 536.968 951.24 536.829L951.551 536.69C951.757 536.6 951.964 536.51 952.163 536.413L952.538 536.229C952.718 536.139 952.894 536.049 953.07 535.951C953.246 535.854 953.318 535.809 953.445 535.738L953.936 535.449L954.311 535.209C954.469 535.108 954.623 535.006 954.773 534.901C954.923 534.796 955.013 534.729 955.148 534.639C955.283 534.549 955.444 534.425 955.586 534.313C955.729 534.2 955.819 534.125 955.935 534.031C956.051 533.938 956.216 533.803 956.355 533.686L956.692 533.386C956.827 533.266 956.963 533.146 957.094 533.011L957.42 532.696L957.795 532.321L958.11 531.988C958.234 531.856 958.354 531.721 958.485 531.586L958.789 531.241C958.909 531.103 959.025 530.964 959.141 530.821C959.257 530.679 959.332 530.585 959.426 530.446C959.52 530.308 959.655 530.154 959.767 530.008C959.88 529.861 959.951 529.764 960.041 529.633L960.367 529.168C960.454 529.044 960.54 528.924 960.622 528.793C960.705 528.661 960.84 528.466 960.945 528.301L961.181 527.926C961.29 527.754 961.395 527.578 961.5 527.401L961.714 527.026C961.826 526.835 961.931 526.651 962.04 526.445L962.22 526.126L962.621 525.376L962.7 525.223C962.857 524.911 963.007 524.596 963.157 524.281C963.202 524.184 963.244 524.09 963.285 523.993C963.386 523.771 963.491 523.546 963.589 523.321C963.645 523.198 963.694 523.07 963.75 522.946L963.997 522.354L964.163 521.938L964.384 521.368L964.541 520.933C964.611 520.745 964.679 520.558 964.744 520.37C964.796 520.22 964.849 520.07 964.898 519.92C964.946 519.77 965.025 519.545 965.085 519.365L965.231 518.904C965.291 518.72 965.347 518.529 965.404 518.353C965.46 518.176 965.498 518.041 965.543 517.884C965.588 517.726 965.651 517.509 965.704 517.329L965.831 516.864C965.884 516.676 965.932 516.489 965.981 516.305C966.03 516.121 966.06 515.994 966.101 515.84L966.236 515.278L966.349 514.809L966.473 514.254C966.51 514.096 966.544 513.939 966.578 513.785C966.611 513.631 966.656 513.41 966.694 513.223L966.784 512.765C966.821 512.574 966.859 512.39 966.892 512.191C966.926 511.993 966.949 511.895 966.975 511.745C967.091 511.093 967.2 510.44 967.294 509.795C967.395 509.094 967.557 508.402 967.777 507.729V507.684C968.419 495.939 966.18 484.059 965.115 472.258C964.586 466.408 964.365 460.486 965.25 454.681C967.268 441.643 974.824 430.078 977.824 417.226C978.546 414.283 978.868 411.256 978.78 408.226C978.628 407.726 978.466 407.226 978.296 406.726C978.244 406.561 978.184 406.396 978.128 406.231C978.015 405.898 977.899 405.56 977.779 405.23L977.565 404.641L977.227 403.741C977.149 403.535 977.066 403.333 976.988 403.126L976.639 402.264L976.38 401.641C976.26 401.356 976.136 401.075 976.005 400.79C975.919 400.588 975.829 400.385 975.739 400.183C975.604 399.883 975.465 399.586 975.33 399.29C975.244 399.106 975.161 398.915 975.075 398.743C974.857 398.281 974.632 397.824 974.407 397.37L974.385 397.329L973.92 396.429L973.688 395.979L973.586 395.788C973.474 395.578 973.358 395.368 973.241 395.161C973.125 394.955 973.02 394.749 972.904 394.543L972.75 394.265C972.529 393.89 972.3 393.481 972.071 393.091L971.88 392.765L971.677 392.435C971.516 392.169 971.359 391.906 971.194 391.644C971.123 391.524 971.048 391.408 970.973 391.269L970.751 390.928C970.594 390.68 970.44 390.433 970.279 390.178L970.035 389.803C969.986 389.724 969.934 389.649 969.881 389.574C969.698 389.296 969.506 389.019 969.323 388.745C969.24 388.621 969.154 388.501 969.067 388.37C968.91 388.141 968.745 387.916 968.584 387.688C968.497 387.568 968.415 387.448 968.329 387.313L968.078 386.968L967.946 386.791C967.736 386.504 967.522 386.215 967.305 385.925L967.073 385.629C966.881 385.378 966.698 385.126 966.488 384.879L966.244 384.564L966.139 384.44C965.139 383.19 964.103 381.979 963.03 380.806L962.94 380.709C962.681 380.428 962.415 380.15 962.152 379.869L961.74 379.43C961.722 379.416 961.706 379.399 961.691 379.381C961.47 379.156 961.245 378.931 961.024 378.703L960.506 378.181C960.379 378.054 960.248 377.93 960.131 377.806L959.831 377.514C959.64 377.33 959.456 377.139 959.258 376.963L958.688 376.434L958.582 376.34L957.964 375.77L957.566 375.425L957.296 375.181L956.64 374.615L956.464 374.465L955.976 374.053L955.286 373.486L954.986 373.243L954.611 372.954L953.891 372.391L953.854 372.365L953.235 371.889L952.485 371.326L951.836 370.854L951.038 370.291C950.828 370.145 950.617 369.999 950.404 369.856C950.119 369.661 949.83 369.481 949.545 369.283L949.391 369.181L948.949 368.893C948.623 368.683 948.296 368.48 947.966 368.274C947.801 368.173 947.636 368.064 947.468 367.963C946.968 367.658 946.468 367.361 945.968 367.074C942.218 364.914 938.235 363.084 934.766 360.485C930.761 357.485 927.563 353.57 924.113 349.951C917.402 342.914 909.663 336.934 901.159 332.218C898.601 330.8 895.823 329.345 894.476 326.75C893.13 324.155 894.27 320.124 897.176 319.805C909.966 328.577 923.369 336.418 937.282 343.269C940.759 344.979 944.37 346.704 946.95 349.595C948.93 351.811 950.171 354.564 951.604 357.163C959.261 371.038 972.442 380.585 981.341 393.538C990.007 406.145 996.169 421.209 1003.06 434.851C1005.24 439.183 1007.43 443.563 1008.71 448.243C1010.33 454.156 1010.46 460.359 1010.58 466.486C1010.71 473.113 1010.84 479.784 1009.7 486.309C1009.67 486.47 1009.64 486.631 1009.61 486.796C1011.89 480.905 1014.23 475.029 1016.89 469.325C1021.51 459.515 1026.27 452.548 1031.62 448.325L1031.42 448.483C1040.01 435.77 1050.07 430.568 1061.6 432.875C1066.25 433.805 1070.5 439.033 1075 437.949C1075.75 437.75 1076.12 437.615 1076.43 436.929C1077.2 435.088 1075.06 431.27 1073.78 429.106L1073.67 428.926C1071.2 424.75 1067.95 421.09 1064.09 418.145C1064.94 421.453 1064.68 424.985 1062.19 426.125C1056.96 428.521 1051.59 418.764 1046.01 420.125C1040.7 421.43 1040.24 429.973 1035.51 432.68C1032.18 434.581 1024.9 436.43 1024 432.68C1022.71 427.381 1030.24 423.579 1032.05 418.43C1032.89 416.034 1033.63 412.43 1031.67 410.829C1025.56 405.744 1010.77 401.938 998.078 390.916C985.388 379.895 976.125 366.474 965.453 347.124C957.713 340.948 950.261 334.726 943.267 328.49C943.642 328.798 944.017 329.101 944.419 329.401C942.326 327.526 940.294 325.625 938.288 323.728L937.665 323.131L938.201 323.353C918.874 315.365 901.009 304.516 883.14 293.66C871.14 286.359 859.095 279.054 846.619 272.615C763.369 229.749 674.228 206.109 582.533 190.4L578.715 189.74C544.376 183.74 534.195 162.74 559.418 169.591C682.418 202.948 805.342 236.293 921.997 291.166C930.517 295.175 939.071 299.105 947.617 303.028C1001.6 327.811 1055.18 352.415 1097.38 395.75C1145.66 445.351 1186.9 499.963 1195.29 571.929C1198.81 602.525 1192.22 630.204 1165.8 649.73C1163.97 651.103 1161.58 651.68 1159.19 652.261L1158.92 652.329C1158.57 652.414 1158.2 652.416 1157.84 652.336C1157.49 652.255 1157.16 652.095 1156.88 651.866C1156.6 651.637 1156.37 651.346 1156.22 651.016C1156.07 650.686 1155.99 650.325 1156 649.963V649.929C1156.07 647.754 1156.14 645.594 1156.74 643.595C1170.88 596.165 1126.12 515.971 1078.07 502.655C1054.61 496.123 1041.02 510.155 1029.29 525.808L1027.53 528.189C1004.96 558.504 976.699 578.938 938.46 584.27C937.463 584.42 936.532 584.968 935.599 585.519C935.134 585.793 934.669 586.066 934.192 586.291C934.669 586.49 935.134 586.734 935.602 586.974C936.488 587.501 937.453 587.881 938.46 588.099C947.494 589.708 956.329 588.174 965.085 586.134L966.896 585.703C967.92 585.481 968.97 585.328 970.016 585.196C970.729 585.099 971.441 585.001 972.139 584.881C971.479 585.256 970.845 585.631 970.215 586.051C969.281 586.687 968.298 587.246 967.275 587.724C962.557 589.816 957.814 591.879 953.059 593.949C949.809 595.359 946.559 596.775 943.309 598.198L942.934 598.359C937.826 600.635 934.519 603.234 933.495 610.243L933.431 610.618C932.257 616.858 925.646 616.07 920.306 615.433L919.954 615.391L919.481 615.335L918.994 615.283L916.29 615.016C879.656 611.323 845.932 597.856 812.246 584.401C807.889 582.651 803.53 580.919 799.17 579.204L794.67 577.441L793.766 577.093L792.81 576.718L791.07 576.043C774.979 569.814 758.767 563.536 745.669 551.604C736.762 543.448 736.088 534.32 744.248 525.354L744.533 525.035C750.469 518.364 747.337 515.401 740.756 513.211L740.13 513.009C731.708 510.384 723.011 511.344 714.439 512.3C705.716 513.271 697.121 514.231 689.081 511.363C638.854 493.333 592.515 467.896 560.929 423.309C544.984 400.809 555.99 375.136 585.63 354.639C601.631 343.625 619.56 336.879 637.511 330.121C642.488 328.246 647.464 326.371 652.402 324.414C652.972 324.193 653.572 323.979 654.184 323.761C658.144 322.355 662.58 320.761 662.58 316.111C662.513 311.191 657.776 309.815 653.674 308.611L653.34 308.514L650.584 307.689C617.644 298.04 583.965 298.854 550.2 300.59L546.93 300.759C537.555 301.284 528.292 301.73 518.936 301.955H518.044C513.836 302.049 509.134 302.154 507.109 297.83C505.444 294.275 507.518 291.38 509.554 288.538C510.173 287.671 510.787 286.809 511.294 285.935C511.826 284.983 512.52 283.948 513.225 282.901C515.017 280.243 516.859 277.501 516.161 275.836C514.77 272.461 510.881 272.975 507.307 273.459C506.46 273.571 505.631 273.684 504.859 273.74L503.655 273.841C463.935 277.445 420.78 310.861 400.492 349.216L400.605 349.156L402.791 348.058L403.789 347.566L404.783 347.079L405.015 346.666C418.916 322.164 440.321 304.01 468.765 291.984C476.7 288.609 482.839 288.766 481.789 301.483L481.744 302.079C480.645 318.695 492.199 317.079 501.866 315.736C503.456 315.515 504.994 315.301 506.415 315.178L511.856 314.66C515.356 314.318 518.866 313.965 522.386 313.603H522.45C529.496 312.883 536.542 312.166 543.589 311.578L549.919 310.591L554.756 309.823L556.204 309.59L560.179 308.949L561.679 308.701L566.021 307.978L567.12 307.794C568.972 307.483 570.829 307.168 572.704 306.841C575.271 306.462 577.864 306.284 580.459 306.309C588.39 306.275 598.729 307.381 603.818 310.171C604.913 310.771 605.576 311.938 605.992 313.213L608.678 313.618C613.136 314.319 617.801 315.433 618.607 320.27C619.387 324.954 615.06 327.369 611.107 329.574C610.136 330.118 609.191 330.646 608.348 331.194L606.956 332.086C604.511 333.65 602.055 335.188 599.599 336.725C588.521 343.659 577.474 350.563 567.776 359.619C544.946 380.866 540.457 408.841 560.276 432.781C592.185 471.335 634.942 495.748 678.555 518.578L684.311 521.578C686.561 522.703 689.325 523.67 691.646 523.374C708.368 521.465 726.075 536.75 736.504 554.615C737.801 556.839 735.21 559.303 733.046 557.904C717.596 547.903 701.651 531.013 689.887 528.901C680.062 527.139 670.159 525.365 662.227 519.035L659.602 516.954C647.531 507.579 634.74 499.104 621.945 490.625H621.922C611.557 483.755 601.185 476.881 591.199 469.531C591.465 471.984 589.815 474.103 587.869 475.348L589.77 476.731L595.136 480.586C598.386 482.931 601.636 485.284 604.886 487.644C625.834 502.861 646.92 518.18 669.66 530.188C690.229 541.063 710.314 552.92 730.41 564.785C780.285 594.241 830.16 623.72 887.648 638.064C939.593 651.08 989.149 651.605 1034.36 617.941C1036.91 615.995 1039.45 613.603 1041.17 610.906C1041.55 610.31 1041.96 609.718 1042.35 609.121C1045.5 604.411 1052.9 595.599 1047.16 593.326L1042.04 595.389C1038.79 597.264 1038.69 599.675 1034.58 602.679C1033.66 603.324 1032.69 603.883 1031.7 604.445C1031.31 604.674 1030.91 604.903 1030.51 605.135C1030.44 605.176 1030.37 605.199 1030.29 605.202C1030.21 605.205 1030.13 605.188 1030.06 605.153C1029.99 605.118 1029.93 605.066 1029.88 605.001C1029.84 604.936 1029.81 604.861 1029.8 604.783C1029.76 604.471 1029.72 604.16 1029.68 603.849C1029.46 602.647 1029.4 601.421 1029.5 600.204C1030.25 593.623 1028.98 590.255 1020.88 591.601L1019.28 591.886C1013.34 592.955 1005.9 594.298 1002.61 588.609C999.709 583.558 1003.66 579.631 1007.36 575.956C1008.42 574.899 1009.47 573.868 1010.32 572.833C1021.09 559.591 1031.88 546.35 1043.32 533.784C1058.44 517.175 1075.73 517.025 1092.87 530.341C1113.83 546.725 1130.67 566.773 1142.05 591.013C1150.28 608.566 1149.86 625.295 1141.38 640.37C1136.32 655.479 1122.73 668.78 1100.67 680.525C1076.3 693.481 1050.26 699.733 1023.89 704.656C1022.43 705.466 1021.12 706.741 1019.82 708.005C1019.4 708.418 1018.98 708.826 1018.55 709.224C1018.34 709.416 1018.21 709.684 1018.19 709.97C1018.17 710.257 1018.26 710.539 1018.45 710.758C1018.86 711.234 1019.25 711.74 1019.66 712.258C1020.92 713.87 1022.18 715.483 1023.78 716.03C1059.33 728.525 1099.75 738.905 1130.15 717.155C1160.61 695.405 1191.45 668.008 1205.23 629.105C1216.5 597.196 1212.66 565.648 1202.33 534.946L1202.44 535.145ZM691.98 468.699C721.043 469.914 764.494 439.726 780.6 463.951L782.276 467.161C792.986 483.286 771.247 478.831 756.307 479.536C745.77 480.046 734.831 482.128 724.001 483.691L725.779 483.316L726.818 483.099C721.826 484.149 716.858 485.165 712.193 486.099L698.426 488.855C697.917 488.957 697.396 488.993 696.877 488.964C666.769 487.153 646.012 472.839 626.002 457.411L621.682 454.07C621.416 453.909 621.341 453.485 621.262 453.061C621.232 452.893 621.203 452.724 621.161 452.574C621.479 452.62 621.8 452.647 622.121 452.656C622.663 452.642 623.203 452.742 623.704 452.949C633.891 457.798 644.335 462.088 654.99 465.8L653.213 464.675C652.948 464.509 652.729 464.281 652.574 464.01C652.419 463.739 652.334 463.434 652.325 463.122C652.316 462.81 652.384 462.501 652.523 462.222C652.662 461.943 652.868 461.702 653.123 461.521C664.699 453.399 678.997 468.118 691.969 468.646L691.98 468.699ZM616.594 358.959C598.856 367.843 585.544 385.524 613.065 402.901C629.94 413.563 650.329 417.384 668.332 426.028C673.661 428.589 671.899 435.755 666.761 437.48C660.942 439.464 654.893 440.695 648.761 441.144V441.181L648.514 441.279L645.956 442.303L644.726 442.794L642.623 443.649C610.661 443.049 572.786 419.038 569.34 398.39C566.947 383.953 587.306 360.013 602.051 360.088C602.438 360.106 602.819 360.192 603.176 360.343L603.551 360.463L603.803 360.538C603.716 360.766 603.63 361.006 603.547 361.25C603.315 362.029 602.973 362.772 602.531 363.455C602.081 364.059 601.646 364.648 601.223 365.229L602.156 363.965C605.663 362.034 609.281 360.965 614.156 359.615L616.665 358.933L616.594 358.959Z" fill="#4195C4"/>
</g>
<defs>
<clipPath id="clip0">
<rect width="1440" height="139" fill="white"/>
</clipPath>
</defs>
</svg>
