<svg width="1440" height="264" viewBox="0 0 1440 264" fill="none" xmlns="http://www.w3.org/2000/svg">
<g clip-path="url(#clip0_2_2)">
<path d="M1286.26 -430.217C1313.25 -395.336 1288.71 -356.239 1278.9 -321.414C1276.24 -311.958 1276.51 -301.979 1273.17 -292.676C1270.13 -284.211 1263.36 -276.947 1259.94 -268.589L1256.69 -260.667C1251.16 -247.023 1257.67 -239.344 1255.76 -233.922L1255.32 -232.652L1252.84 -228.12C1250.56 -223.942 1247.98 -210.767 1244.73 -204.621L1243.21 -201.754C1224.94 -167.167 1240.35 -139.501 1234.16 -105.923C1226.77 -65.815 1221.81 -119.233 1228.32 -55.897C1231.74 -22.7133 1252.14 13.876 1275.44 40.6268C1278.68 44.3579 1284.28 50.5729 1289.63 60.3338C1294.98 70.0946 1301.91 104.571 1314.75 125.476C1318.59 131.693 1323.6 137.339 1329.6 142.194C1315.51 136.759 1305.46 141.565 1294.94 146.587C1289.69 149.087 1284.33 151.646 1278.3 153.023C1261.81 156.783 1256.18 146.228 1249.66 133.988C1248.53 131.88 1247.38 129.723 1246.16 127.579L1245.39 126.232C1240.52 117.63 1236.94 101.128 1233.13 83.5567C1230.35 70.7115 1227.44 57.2971 1223.81 45.9785L1223.28 44.3371C1219.99 34.4487 1210.21 29.0989 1200.44 23.7774C1195.86 21.2754 1191.28 18.7766 1187.37 15.7988C1167.68 0.777374 1158.41 -22.9263 1167.07 -38.064C1170.05 -43.166 1175.41 -45.905 1180.95 -48.381L1185.09 -50.215C1186.49 -50.796 1187.92 -51.313 1189.38 -51.764C1194.05 -53.282 1198.84 -54.839 1198.59 -59.266C1198.31 -64.258 1192.39 -66.364 1186.97 -67.902L1183.84 -68.794C1177.91 -70.524 1171.62 -71.506 1165.36 -72.483C1163.66 -72.75 1161.97 -73.014 1160.27 -73.294L1159.89 -73.357C1158.9 -73.519 1157.87 -73.637 1156.84 -73.764C1152.21 -74.314 1147.53 -74.883 1145.23 -79.079C1142.46 -84.1501 1145.33 -88.55 1148.43 -92.679L1149.9 -94.623C1155.17 -101.397 1162.73 -106.441 1171.79 -108.442L1172.5 -108.606C1192.26 -113.266 1196.1 -125.69 1200.27 -139.152C1200.87 -141.082 1201.47 -143.033 1202.13 -144.986L1202.63 -146.447C1210.25 -168.043 1219.46 -189.241 1228.67 -210.421C1240.91 -238.543 1253.14 -266.662 1261.62 -295.757L1262.02 -297.137C1264.59 -305.673 1267.79 -314.09 1270.98 -322.503C1277.6 -339.935 1284.22 -357.36 1285.19 -375.826C1287.04 -410.771 1263.27 -439.307 1217.11 -456L1217.23 -455.955L1221.1 -455.432C1239.04 -452.968 1255.47 -450.306 1270.76 -444.936C1276.71 -440.668 1281.91 -435.715 1286.2 -430.222" fill="#5F5F6B"/>
<path d="M550.582 96.787C562.661 94.3478 575.326 85.7055 593.39 79.9832C606.573 75.8076 621.998 73.4867 635.554 69.5288C647.146 66.1511 659.298 59.7651 668.35 56.4191C678.339 52.7254 684.874 52.0463 689.36 49.8185L689.565 49.7234L689.074 49.9719C686.145 51.4339 683.225 52.5044 679.938 53.7075C674.985 55.4495 670.168 57.4546 665.517 59.7102C662.871 61.0189 659.78 62.8531 656.507 64.8104C650.79 68.2275 644.515 71.9795 639.077 73.7094C632.498 75.797 625.435 77.0029 618.484 78.1911C608.497 79.8963 598.728 81.563 590.954 85.7578C567.579 98.3589 541.327 106.332 521.699 106.675C495.725 107.128 468.506 108.361 448.541 109.846C457.204 107.04 466.043 104.653 475.026 102.698C498.14 97.7592 523.325 102.297 550.586 96.7901" fill="#5F5F6B"/>
<path d="M1117.82 63.3171C1124.08 51.1346 1132.37 39.4786 1135.44 26.4775C1139.93 7.49238 1132.93 -12.9334 1141.04 -31.066C1141.65 -32.434 1142.46 -33.885 1144.01 -34.556C1148.66 -36.572 1151.79 -30.272 1151.68 -25.8799C1150.94 10.2253 1154.08 46.2927 1161.07 81.8823C1162.16 87.409 1163.36 92.9812 1166 98.1212C1170 105.942 1177.12 112.39 1180.92 120.271C1183.14 124.943 1184.14 129.965 1183.85 135C1183.56 140.035 1182 144.967 1179.26 149.465C1170.35 154.156 1158.01 150.663 1151.13 144.05C1144.26 137.438 1141.5 128.563 1138.96 120.031C1136.91 113.142 1134.86 106.254 1132.8 99.3666C1132.43 98.1106 1131.98 96.7611 1130.78 95.9551C1121.74 89.9075 1119.69 107.954 1110.79 96.0737C1105.09 88.4747 1114.14 70.4326 1117.79 63.3334" fill="#4195C4"/>
<path d="M1012.63 42.0357C1006.65 47.5249 1001.57 53.4275 996.108 59.2517C990.204 65.5603 981.973 69.8357 973.81 73.7058C959.645 80.411 944.436 85.8435 930.237 92.7513C909.296 102.94 889.724 108.849 865.499 108.931C845.344 108.996 827.93 118.393 813.118 129.162C806.115 134.256 797.01 136.28 788.588 138.914C777.401 142.418 766.144 146.282 754.702 149.228C741.73 152.566 721.178 158.073 707.946 154.078C705.585 153.364 704.297 151.932 705.646 149.954C706.405 148.877 707.323 147.886 708.383 147.006C724.844 142.666 740.998 137.1 756.939 131.57C761.321 130.051 765.781 128.486 769.558 126.116L770.261 125.911C770.237 125.842 770.217 125.773 770.194 125.704C770.632 125.412 771.063 125.108 771.482 124.792C775.721 121.561 778.445 117.208 781.699 113.25C785.548 108.59 790.193 104.431 795.487 100.908C806.042 102.728 815.98 104.281 826.437 102.593C836.428 100.982 842.264 95.7577 850.02 90.0861C861.209 81.9051 873.928 74.4045 886.486 68.043C897.513 62.4531 911.028 60.5064 923.608 57.9258C938.385 54.8871 952.561 51.3602 966.657 46.5563C979.894 42.0452 991.956 36.7277 1004.12 30.3982C1012.43 26.0742 1029.59 17.3502 1032.19 18.9304C1034.78 20.5107 1017.53 37.5186 1012.61 42.0424" fill="#EA7534"/>
<path d="M249.774 133.87C251.7 133.536 253.714 133.113 255.142 131.97C257.225 130.299 257.46 127.622 257.553 125.208C257.88 117.028 257.623 107.68 250.295 102.338C241.136 95.6798 227.221 99.2685 215.177 100.672C198.186 102.638 180.826 99.3776 163.843 101.416C134.54 104.926 110.282 123.575 81.1246 127.89C72.6413 129.146 63.5852 129.241 56.1554 132.931C53.7484 134.125 51.3496 136.44 52.5252 138.553C53.2161 139.804 54.8838 140.39 56.4251 140.843C84.8533 149.225 118.177 145.001 142.557 129.924C146.707 127.358 150.618 124.496 155.056 122.304C168.567 115.626 186.504 116.777 199.339 123.898C205.445 127.283 208.831 132.836 215.319 135.086C224.315 138.199 240.59 135.466 249.763 133.87" fill="#5F5F6B"/>
<path d="M602.289 132.659L507.651 147.656C500.53 148.788 493.199 149.973 486.974 153.137C481.327 156.01 476.866 160.377 471.045 162.995C464.672 165.858 457.232 166.392 450.028 166.635C424.577 167.519 399.116 165.713 374.241 161.26C368.077 160.155 360.687 157.737 360.114 152.466C359.479 146.689 367.558 143.161 374.337 141.992C399.963 137.577 426.84 142.798 452.447 138.343C472.561 134.835 490.617 125.607 510.26 120.535C528.694 115.776 548.119 114.774 567.356 113.804L624.26 110.936C632.991 110.496 641.838 110.038 650.137 107.716C660.931 104.702 670.152 98.7495 679.579 93.4022C700.606 81.4951 723.573 72.2257 747.753 65.8879C739.938 82.4091 722.105 95.3744 701.528 99.4707C680.416 103.68 674.799 111.114 657.119 119.279C640.498 126.955 620.646 129.748 602.266 132.66" fill="#FFD72E"/>
<path d="M874.665 49.6804C865.769 59.1849 850.782 63.5782 841.929 73.1135C838.867 76.4117 836.622 80.248 833.146 83.241C826.973 88.5568 817.915 90.4698 809.865 93.5237C798.53 97.8456 788.787 104.672 781.691 113.269C778.438 117.224 775.714 121.58 771.475 124.811C767.346 127.957 762.083 129.804 756.935 131.589C724.74 142.756 691.68 154.09 656.933 155.113C640.029 155.61 623.104 153.643 606.258 154.874C572.93 157.312 542.855 171.915 512.391 183.658C481.928 195.401 441.423 203.989 415.468 195.605C408.89 189.972 447.22 191.357 457.163 180.481C462.44 174.707 467.007 168.267 472.22 162.434C477.476 159.786 481.703 155.82 486.959 153.147C493.184 149.983 500.497 148.807 507.636 147.666L602.289 132.659C620.654 129.747 640.524 126.942 657.142 119.278C674.821 111.11 680.438 103.68 701.551 99.4702C722.128 95.3613 739.964 82.4086 747.775 65.8875C746.732 66.1614 745.688 66.4479 744.648 66.7347C758.013 60.5043 771.174 53.9615 784.188 47.2448C792.1 43.1549 800.11 38.937 809.077 36.9403C814.131 35.8168 819.397 35.4254 824.368 34.0631C838.679 30.1424 843.112 33.4742 842.781 33.862C841.217 35.7831 842.375 36.8894 845.303 36.8982C858.293 36.9335 870.971 29.9007 876.057 19.8346C878.208 15.5801 879.114 10.8616 882.071 6.9592C885.029 3.0565 891.18 0.187298 896.021 2.3438C884.551 16.3753 887.165 36.3001 874.639 49.6809" fill="#E5C7A3"/>
<path d="M1446.43 123.496C1445.31 123.496 1444.19 123.399 1443.1 123.207C1427.49 123.381 1429.19 144.676 1419.01 155.078C1409.67 164.618 1396.3 169.883 1374.15 163.584C1358.86 159.24 1342.5 152.682 1329.61 142.166C1323.61 137.31 1318.59 131.664 1314.75 125.447C1301.92 104.542 1294.99 70.0504 1289.64 60.3022C1284.28 50.5541 1278.69 44.3169 1275.45 40.5984C1252.15 13.8601 1231.74 -22.7417 1228.33 -55.925C1221.82 -119.255 1226.77 -65.844 1234.16 -105.952C1240.34 -139.517 1224.95 -167.195 1243.22 -201.783L1244.73 -204.65C1247.98 -210.786 1250.56 -223.961 1252.84 -228.149L1255.33 -232.681L1255.76 -233.951C1257.67 -239.372 1251.16 -247.051 1256.7 -260.695L1259.94 -268.618C1263.37 -276.976 1270.14 -284.24 1273.18 -292.705C1276.52 -302.008 1276.22 -311.986 1278.91 -321.442C1288.71 -356.268 1313.25 -395.355 1286.26 -430.248C1281.97 -435.741 1276.77 -440.691 1270.82 -444.959C1272 -444.547 1273.16 -444.119 1274.32 -443.672C1278.4 -441.569 1282.44 -439.629 1286.63 -438.13C1300.19 -431.037 1312.87 -420.814 1324.98 -405.417L1325.91 -404.231C1326.22 -403.817 1326.54 -403.415 1326.86 -403.017L1327.1 -402.705L1327 -402.767L1326.84 -402.874L1326.57 -403.04L1326.45 -403.11L1326.24 -403.224L1326.13 -403.285C1326.02 -403.337 1325.91 -403.388 1325.81 -403.434C1326.13 -402.448 1326.46 -401.46 1326.78 -400.471C1326.95 -399.947 1327.12 -399.42 1327.29 -398.902C1327.44 -398.425 1327.6 -397.96 1327.75 -397.471C1327.93 -396.918 1328.1 -396.366 1328.28 -395.81C1328.47 -395.204 1328.67 -394.595 1328.86 -393.99C1328.96 -393.676 1329.06 -393.362 1329.16 -393.064C1329.48 -392.018 1329.81 -390.982 1330.14 -389.962C1331.7 -385.037 1333.26 -380.106 1334.91 -375.21L1334.97 -375.025C1335.78 -372.606 1336.61 -370.193 1337.47 -367.787L1337.52 -367.618C1337.93 -366.482 1338.35 -365.347 1338.77 -364.215C1338.8 -364.13 1338.83 -364.048 1338.86 -363.967C1339.3 -362.778 1339.75 -361.593 1340.21 -360.405C1343.91 -350.978 1353.85 -348.447 1364.24 -347.129L1365.25 -347.004L1367.51 -346.728C1391.48 -343.971 1397.47 -336.45 1392.57 -316.751C1392.52 -316.573 1392.48 -316.396 1392.43 -316.215L1392.05 -314.677L1391.66 -313.137C1389.06 -302.543 1386.92 -291.865 1384.88 -281.164C1384.74 -280.451 1384.6 -279.739 1384.47 -279.023L1384.44 -278.877L1383.29 -272.797C1380.81 -259.863 1372.56 -251.326 1360.71 -246.401C1360.21 -246.193 1359.71 -245.995 1359.21 -245.803C1358.2 -245.416 1357.16 -245.057 1356.11 -244.72C1353.94 -244.035 1351.72 -243.457 1349.48 -242.991C1348.9 -242.871 1348.32 -242.757 1347.74 -242.645L1340.81 -241.334C1334.06 -240.068 1327.25 -238.929 1320.64 -238.773C1308.85 -238.504 1297.69 -241.377 1288.6 -252.31L1288.44 -252.503L1288.24 -252.72C1287.63 -253.341 1287.09 -253.587 1286.63 -253.598C1285.8 -253.615 1285.16 -252.869 1284.68 -252.043L1284.59 -251.89C1284.54 -251.785 1284.48 -251.68 1284.43 -251.571C1284.35 -251.415 1284.27 -251.253 1284.2 -251.113L1283.45 -249.439C1282.84 -248.062 1282.26 -246.688 1281.72 -245.328C1265.03 -203.666 1277.76 -169.673 1342.3 -158.146C1343.96 -152.073 1346.11 -146.051 1347.22 -139.893C1349.98 -124.519 1346.18 -108.832 1346.74 -93.28C1347.15 -81.77 1349.95 -70.437 1352.74 -59.173C1355.47 -48.155 1358.21 -37.114 1362.2 -26.3762C1365.01 -18.8215 1368.57 -11.2451 1374.89 -5.38986C1378.96 -1.62277 1383.97 1.23471 1389.44 3.43073C1389.48 3.90033 1389.52 4.37613 1389.58 4.83603C1389.58 4.84244 1389.58 4.84872 1389.58 4.85492C1389.63 5.21082 1389.68 5.56342 1389.75 5.90613C1389.75 5.93454 1389.76 5.96292 1389.77 5.99423C1389.81 6.15143 1389.85 6.30853 1389.89 6.45615C1389.89 6.46655 1389.89 6.47723 1389.89 6.48773C1389.94 6.64774 1390 6.80142 1390.06 6.95813C1390.07 6.98615 1390.08 7.01343 1390.1 7.03964C1390.15 7.16183 1390.2 7.28403 1390.26 7.39972L1390.32 7.50912C1390.4 7.64603 1390.49 7.77936 1390.58 7.90875C1390.87 8.32434 1391.16 8.74045 1391.43 9.15634C1391.5 9.25305 1391.57 9.34653 1391.63 9.44333C1391.9 9.85931 1392.17 10.2757 1392.43 10.6919L1392.52 10.8449C1392.75 11.2134 1392.97 11.5851 1393.19 11.9569C1393.26 12.0693 1393.33 12.1818 1393.39 12.2911C1393.63 12.6942 1393.86 13.0942 1394.08 13.4975C1394.14 13.6007 1394.19 13.7039 1394.25 13.8102C1394.43 14.1227 1394.6 14.4638 1394.77 14.789C1394.84 14.9235 1394.91 15.0548 1394.98 15.1862C1395.18 15.5741 1395.37 15.9622 1395.57 16.3532C1395.64 16.5004 1395.71 16.6506 1395.79 16.7976C1395.92 17.0794 1396.06 17.3579 1396.18 17.6399C1396.25 17.8027 1396.33 17.9529 1396.41 18.1252C1396.58 18.4915 1396.74 18.8579 1396.91 19.2243C1397 19.4248 1397.09 19.6252 1397.17 19.8226L1397.45 20.4773C1397.61 20.8385 1397.76 21.1989 1397.91 21.5583L1398.14 22.0974L1398.47 22.9059L1398.59 23.2194C1400.64 28.3537 1402.37 33.5916 1404.38 38.7455C1411.17 56.2682 1428.33 63.2313 1447.93 67.1219L1448.91 123.074C1448.12 123.362 1447.26 123.506 1446.4 123.496" fill="#EA7534"/>
<path d="M693.29 47.834L691.152 48.9161L689.572 49.717L689.36 49.8186C684.889 52.0461 678.339 52.7254 668.349 56.4192C659.297 59.7651 647.13 66.1514 635.553 69.5287C621.998 73.4804 606.573 75.8076 593.39 79.9832C575.326 85.7054 562.66 94.3477 550.582 96.787C523.321 102.294 498.136 97.7561 475.022 102.695C466.039 104.651 457.196 107.037 448.537 109.843C422.938 118.02 402.026 127.851 388.747 129.585C369.394 132.113 357.046 139.292 347.689 147.589C344.184 147.881 314.507 182.08 301.301 182.311C275.492 182.761 261.095 172.742 251.964 143.998C251.745 143.312 251.523 142.633 251.301 141.961C251.523 142.633 251.75 143.311 251.968 143.998C251.75 143.311 251.523 142.63 251.297 141.955C251.278 141.902 251.262 141.848 251.242 141.795C251.016 141.12 250.783 140.449 250.549 139.79V139.762C250.43 139.426 250.308 139.09 250.185 138.758C250.063 138.426 249.941 138.096 249.819 137.767L249.818 137.732C249.633 137.237 249.444 136.741 249.251 136.256C249.445 136.74 249.634 137.233 249.818 137.732C249.589 137.121 249.357 136.522 249.121 135.926C249.047 135.738 248.968 135.553 248.894 135.365C248.725 134.942 248.552 134.519 248.376 134.112L248.54 134.5L248.376 134.112L249.792 133.866C251.718 133.533 253.733 133.109 255.16 131.967C257.246 130.296 257.478 127.618 257.571 125.205C257.898 117.024 257.641 107.676 250.313 102.334C241.154 95.6765 227.239 99.2651 215.195 100.665C198.204 102.638 180.844 99.3711 163.861 101.413C155.325 102.436 147.217 104.743 139.288 107.609L137.671 107.766L137.296 107.804C136.519 107.884 135.746 107.964 134.97 108.05L134.835 108.052C134.129 108.131 133.424 108.21 132.719 108.295L132.217 108.354L130.225 108.6L129.936 108.637C129.186 108.735 128.41 108.84 127.649 108.945L127.304 108.992L125.381 109.272L124.864 109.35C124.148 109.461 123.436 109.571 122.72 109.703L122.63 109.705C121.88 109.828 121.131 109.955 120.363 110.088L119.906 110.169C119.295 110.277 118.688 110.389 118.078 110.517L117.576 110.611C116.077 110.895 114.594 111.198 113.127 111.518L112.614 111.631L110.805 112.042L110.353 112.147C109.604 112.321 108.863 112.501 108.13 112.688L107.946 112.736C107.28 112.905 106.614 113.074 105.948 113.257L105.41 113.402C104.794 113.57 104.176 113.743 103.558 113.92L103.207 114.018C102.474 114.228 101.744 114.446 101.016 114.671L100.642 114.785C100.036 114.973 99.4319 115.165 98.8291 115.363L98.2872 115.54C97.6295 115.756 96.9719 115.976 96.3144 116.205L96.1239 116.272C95.3992 116.524 94.6783 116.783 93.9614 117.048L93.4909 117.224C92.9159 117.444 92.3436 117.665 91.7735 117.885L91.2472 118.09C90.538 118.371 89.8252 118.658 89.1162 118.954L88.3699 119.257C87.5386 119.586 86.7019 119.883 85.8598 120.15L85.7477 120.187L85.0262 120.408L84.8392 120.462L84.1847 120.647L83.9528 120.708L83.3429 120.867L83.081 120.931L82.4971 121.071L82.2126 121.136L81.651 121.259L81.3439 121.321L80.8008 121.429L80.4786 121.488L79.9429 121.586L79.6169 121.642L79.0847 121.727L78.7511 121.78L78.2262 121.855L77.8813 121.903L77.3638 121.968L77.0149 122.009L76.4973 122.069L76.1447 122.106L75.6307 122.16L75.2554 122.191L74.7413 122.235L74.366 122.264L73.8555 122.301L73.4801 122.327L73.0033 122.357L72.6276 122.364L72.1057 122.392L71.7487 122.398L71.2302 122.407L70.8545 122.413L70.3322 122.423L68.1718 122.46L67.6533 122.469L67.3302 122.475L66.7441 122.485L66.4473 122.49L65.8345 122.482L65.5602 122.487L64.9136 122.476L64.6769 122.48L63.9663 122.464L63.7934 122.467L62.9963 122.446L62.9099 122.448C62.2105 122.429 61.5111 122.409 60.8116 122.384L59.4352 122.338L57.8557 122.284L57.5436 122.273L57.2202 122.263L57.1075 122.265L56.6338 122.258L56.2581 122.264L55.7959 122.272L54.9618 122.287L54.5861 122.293L54.1465 122.301L53.7708 122.308L53.3353 122.334L52.9899 122.359L52.5659 122.395L52.2578 122.403L51.8414 122.449L51.5189 122.486L51.1139 122.54L50.8027 122.583L50.4054 122.647L50.1056 122.697L49.731 122.766L49.4426 122.822L49.0682 122.904L48.7948 122.963L48.4206 123.051L48.1586 123.119L47.7845 123.217L47.5339 123.284L47.1599 123.392L46.9207 123.469L46.5657 123.582L46.334 123.662L45.9867 123.788L45.7664 123.868L45.4229 124.003L45.2177 124.089L44.882 124.233L44.6806 124.322L44.3525 124.473L44.1662 124.565L43.842 124.728L43.6632 124.82L43.3468 124.993L43.1793 125.087L42.8668 125.269L42.7106 125.367L42.402 125.558L42.2572 125.655C42.1531 125.724 42.0528 125.788 41.9563 125.86L41.8152 125.957C41.7149 126.025 41.6184 126.096 41.522 126.17L41.3921 126.267L41.0991 126.49L40.9805 126.587C40.8842 126.664 40.7878 126.742 40.6952 126.822L40.5841 126.916L40.2991 127.164L40.2029 127.254C40.1067 127.341 40.0143 127.427 39.9219 127.517L39.8331 127.601C39.7408 127.694 39.6447 127.784 39.5561 127.877L39.4749 127.961C39.3825 128.054 39.2902 128.15 39.2017 128.247L39.1317 128.324L38.8588 128.628C38.8592 128.65 38.8221 128.676 38.7999 128.699C38.7078 128.804 38.6195 128.91 38.5312 129.019C38.5315 129.038 38.498 129.057 38.4834 129.08C38.3913 129.189 38.3031 129.301 38.2149 129.416L38.1744 129.467C38.0825 129.585 37.9944 129.701 37.9063 129.822L37.8806 129.86C37.7888 129.985 37.7008 130.11 37.6128 130.234L37.5945 130.26C37.5065 130.391 37.4149 130.522 37.327 130.656C34.8303 134.468 33.5787 139.199 32.513 144.035L31.6962 147.837L32.5133 144.054C32.4871 144.49 30.7153 172.388 -5.47938 173.598L-6.82775 96.3499C-2.78654 96.8349 1.25783 97.2851 5.28115 97.6062C21.0885 98.8738 36.4635 98.1951 49.4151 90.0276C50.0174 89.649 50.6144 89.2523 51.2059 88.8379C52.0945 88.2186 52.97 87.5616 53.8324 86.8667C54.4057 86.4022 54.9746 85.92 55.5398 85.4197C56.105 84.9196 56.6619 84.4017 57.2115 83.8659C65.6887 75.5903 70.773 65.6378 71.3226 55.3542C71.3571 54.7457 71.3739 54.135 71.3733 53.5226L71.3678 53.2071C71.327 48.7816 70.4398 44.3946 68.7394 40.214C68.6254 39.9256 68.504 39.6436 68.3826 39.3648L68.2694 39.1237C68.1833 38.9295 68.0973 38.7385 68.0038 38.5508C67.9608 38.4568 67.9141 38.3629 67.8674 38.2691C67.7817 38.096 67.696 37.9271 67.6105 37.7622C67.5637 37.6683 67.5132 37.5745 67.4628 37.4839C67.3734 37.315 67.2841 37.1524 67.1911 36.9899L67.0514 36.7398L66.7262 36.1963C66.6914 36.1401 66.6604 36.0838 66.6256 36.0308C66.4787 35.7966 66.3319 35.5688 66.1814 35.3441L66.1197 35.2568C65.9886 35.0666 65.8576 34.8795 65.7342 34.6986L65.5841 34.4992C65.4764 34.3559 65.3686 34.2125 65.261 34.0755C65.2033 34.0008 65.1458 33.9324 65.0919 33.8607C64.9844 33.73 64.8769 33.5993 64.7695 33.4749L64.5967 33.2696C64.4817 33.1391 64.3667 33.0117 64.248 32.8843L64.0909 32.7135C63.9453 32.555 63.7961 32.403 63.6431 32.251L63.5781 32.1858C63.4022 32.0121 63.2263 31.8416 63.0431 31.6775C63.0048 31.6403 62.9629 31.6063 62.9209 31.5692C62.7834 31.4453 62.6422 31.3215 62.5049 31.204L62.318 31.0494L61.9368 30.7405L61.7349 30.5862L61.3541 30.3056L61.1562 30.1638C61.0192 30.0652 60.8785 29.973 60.7378 29.8776L60.5781 29.7699C60.1978 29.5146 59.7839 29.2756 59.3778 29.0491L59.2034 28.9575C59.0592 28.8779 58.9112 28.7984 58.7633 28.7253L58.5472 28.6185C58.4107 28.5483 58.2705 28.4845 58.1341 28.4174L57.9068 28.3141L57.4788 28.1259L57.2668 28.038C57.104 27.9683 56.9375 27.9049 56.7709 27.8384L56.6234 27.781L55.9615 27.5432L55.867 27.5133C55.678 27.4503 55.489 27.3873 55.2963 27.3307L55.0847 27.2649L54.6201 27.131L54.3784 27.0658L53.9291 26.9505L53.7895 26.9151L53.68 26.8886L53.2083 26.78L52.9858 26.7334C52.7896 26.6895 52.6085 26.6516 52.3974 26.6143L52.288 26.5909L51.5792 26.4676L51.3833 26.4394L50.867 26.3601L50.5996 26.3269L50.1438 26.2685L49.8576 26.2357L49.4058 26.1899L49.1234 26.1601L48.6417 26.1212L48.3857 26.1004L47.716 26.0584L47.5582 26.0612L46.9187 26.0313L46.6294 26.0363L46.1707 26.0223L45.8438 26.028L45.4152 26.0197L45.077 26.0256L44.6487 26.033L43.5516 26.0522L42.8227 26.0649L42.4958 26.0706L42.0525 26.0784L41.6767 26.0849L41.301 26.0915L40.9027 26.0984L40.5273 26.1208L40.1181 26.1468L39.7427 26.1723L39.3223 26.2018L39.0032 26.2263L37.9186 26.3147L37.8435 26.316L37.3406 26.3626L37.0705 26.3863L36.5714 26.4329L36.305 26.4596L35.7797 26.5098L35.5659 26.5325L34.9919 26.593L34.898 26.5946C33.3636 26.7571 31.8258 26.9355 30.2917 27.1106L28.8926 27.2708L28.5175 27.312L26.6419 27.5184L26.4841 27.5211L24.6833 27.7041L24.4916 27.7074C23.8613 27.7658 23.2308 27.8209 22.6153 27.8696L19.4999 28.1007C18.7492 28.158 18.025 28.2243 17.2895 28.2939L16.7915 28.4005L15.0282 28.5796L14.5406 28.6323C13.0626 28.7929 11.5848 28.968 10.1073 29.1579L9.66484 29.2161L7.78996 29.4635L7.41495 29.5111C3.94661 29.9788 0.475285 30.4907 -2.99638 30.9838L-3.88497 31.1066L-4.95723 31.2579L-6.08208 31.4101L-7.09074 31.5445L-7.95685 31.6637L-9.45459 -54.142L9.14019 -42.182L10.953 -41.036C34.9766 -25.9605 63.2758 -16.3541 88.6019 -2.88283C99.2961 2.80457 108.477 10.2954 118.855 16.3765C138.411 27.8369 153.855 36.1021 178.444 38.9619C195.963 40.9981 214.438 36.3893 231.519 40.2008C246.464 43.5318 257.109 55.2204 271.597 59.7336C287.359 64.6412 304.786 64.618 321.08 68.1559C333.047 70.7436 344.183 75.672 356.206 78.0567C411.009 88.9113 485.939 90.1885 538.888 88.27L539.755 88.2359C564.595 87.2089 561.297 81.6765 583.205 75.4517C598.8 71.0162 615.054 68.4094 630.74 64.2311C643.422 60.8534 655.395 55.5942 668.271 52.8096C676.359 51.0619 684.993 49.2099 693.738 47.6148L693.279 47.8469L693.29 47.834ZM-4.53211 141.74C-4.33432 142.073 -4.11666 142.398 -3.87996 142.713C-4.11666 142.398 -4.33432 142.073 -4.53211 141.74Z" fill="#D53A2C"/>
<path d="M1286.26 -430.217C1313.25 -395.336 1288.71 -356.239 1278.9 -321.414C1276.24 -311.958 1276.51 -301.979 1273.17 -292.676C1270.13 -284.211 1263.36 -276.947 1259.94 -268.589L1256.69 -260.667C1251.16 -247.023 1257.67 -239.344 1255.76 -233.922L1255.32 -232.652L1252.84 -228.12C1250.56 -223.942 1247.98 -210.767 1244.73 -204.621L1243.21 -201.754C1224.94 -167.167 1240.35 -139.501 1234.16 -105.923C1226.77 -65.815 1221.81 -119.233 1228.32 -55.897C1231.74 -22.7133 1252.14 13.876 1275.44 40.6268C1278.68 44.3579 1284.28 50.5729 1289.63 60.3338C1294.98 70.0946 1301.91 104.571 1314.75 125.476C1318.59 131.693 1323.6 137.339 1329.6 142.194C1315.51 136.759 1305.46 141.565 1294.94 146.587C1289.69 149.087 1284.33 151.646 1278.3 153.023C1261.81 156.783 1256.18 146.228 1249.66 133.988C1248.53 131.88 1247.38 129.723 1246.16 127.579L1245.39 126.232C1240.52 117.63 1236.94 101.128 1233.13 83.5567C1230.35 70.7115 1227.44 57.2971 1223.81 45.9785L1223.28 44.3371C1219.99 34.4487 1210.21 29.0989 1200.44 23.7774C1195.86 21.2754 1191.28 18.7766 1187.37 15.7988C1167.68 0.777374 1158.41 -22.9263 1167.07 -38.064C1170.05 -43.166 1175.41 -45.905 1180.95 -48.381L1185.09 -50.215C1186.49 -50.796 1187.92 -51.313 1189.38 -51.764C1194.05 -53.282 1198.84 -54.839 1198.59 -59.266C1198.31 -64.258 1192.39 -66.364 1186.97 -67.902L1183.84 -68.794C1177.91 -70.524 1171.62 -71.506 1165.36 -72.483C1163.66 -72.75 1161.97 -73.014 1160.27 -73.294L1159.89 -73.357C1158.9 -73.519 1157.87 -73.637 1156.84 -73.764C1152.21 -74.314 1147.53 -74.883 1145.23 -79.079C1142.46 -84.1501 1145.33 -88.55 1148.43 -92.679L1149.9 -94.623C1155.17 -101.397 1162.73 -106.441 1171.79 -108.442L1172.5 -108.606C1192.26 -113.266 1196.1 -125.69 1200.27 -139.152C1200.87 -141.082 1201.47 -143.033 1202.13 -144.986L1202.63 -146.447C1210.25 -168.043 1219.46 -189.241 1228.67 -210.421C1240.91 -238.543 1253.14 -266.662 1261.62 -295.757L1262.02 -297.137C1264.59 -305.673 1267.79 -314.09 1270.98 -322.503C1277.6 -339.935 1284.22 -357.36 1285.19 -375.826C1287.04 -410.771 1263.27 -439.307 1217.11 -456L1217.23 -455.955L1221.1 -455.432C1239.04 -452.968 1255.47 -450.306 1270.76 -444.936C1276.71 -440.668 1281.91 -435.715 1286.2 -430.222" fill="#E6C6A7"/>
<path d="M1022.25 79.1763C1000.94 87.6317 982.238 102.698 965.229 119.986C962.141 123.124 960.446 125.915 959.888 128.365C946.795 131.656 934.08 135.943 921.9 141.174C914.741 144.25 907.638 147.691 899.773 149.041C888.156 151.036 876.224 148.265 865.047 145.048C863.022 144.468 860.891 143.814 859.522 142.443C857.56 140.491 857.607 137.615 858.266 135.11C862.182 120.229 881.926 112.561 899.714 109.524C918.45 106.324 938.039 105.667 955.657 99.3938C961.032 97.4756 966.135 95.0603 971.227 92.6514C988.575 84.4356 1005.99 76.1869 1021.82 66.0155C1034.01 58.1736 1047.21 48.6666 1062.43 50.0866C1062.4 50.8048 1062.33 51.5181 1062.23 52.2269C1053.26 61.5369 1040.98 71.7571 1022.25 79.1889" fill="#5F5F6B"/>
<path d="M1022.25 79.1762C1071.25 59.7331 1076.16 21.2563 1092.88 29.4582C1105.7 35.6892 1069.33 78.4775 1066.33 89.6972C1060.41 111.895 1093.86 143.172 1062.6 149.364C1031.33 155.557 1025.7 136.578 999.519 140.343C973.336 144.108 948.22 137.264 965.229 119.986C982.239 102.708 1000.94 87.6317 1022.25 79.1762Z" fill="#D53A2C"/>
<path d="M791.64 7.74189L790.855 8.02079L788.838 8.74089L787.086 9.36489L785.775 9.83599L783.329 10.712L782.627 10.9641L779.598 12.0554L779.299 12.1648L775.885 13.3986L775.814 13.4251C747.621 23.6672 719.777 34.5441 693.287 47.834C693.444 47.7587 693.593 47.6803 693.749 47.6019C685.009 49.1969 676.374 51.0615 668.282 52.781C655.402 55.5625 643.433 60.8311 630.751 64.2056C615.039 68.3843 598.803 70.9908 583.216 75.4262C561.308 81.6511 564.607 87.1835 539.767 88.2105L538.899 88.2445C485.939 90.1632 411.02 88.8985 356.217 78.0312C344.186 75.6467 333.051 70.7182 321.091 68.1304C304.797 64.6051 287.37 64.641 271.608 59.7207C257.12 55.2012 246.475 43.519 231.53 40.1879C214.449 36.3827 195.974 40.9852 178.455 38.949C153.87 36.0892 138.422 27.824 118.866 16.3636C108.488 10.2824 99.3073 2.79159 88.6131 -2.89571C63.2759 -16.3542 34.9767 -25.9607 10.9531 -41.036L9.14036 -42.182L-9.45443 -54.142L-9.77173 -72.32C4.61889 -61.783 15.3012 -53.974 35.0293 -46.418C80.8874 -28.861 130.723 -28.453 177.957 -13.694C237.313 4.83949 291.057 34.9161 348.243 57.1931C379.382 69.313 419.165 72.3683 452.32 76.985C458.853 77.8937 464.832 81.1382 471.449 81.452C566.83 86.0021 597.946 62.3479 675.812 37.8177C753.679 13.2875 804.774 -0.258415 805.078 0.998886L805.508 2.81259C800.884 4.45069 796.26 6.08939 791.639 7.72929" fill="#FFD72E"/>
<path d="M550.582 96.787C562.661 94.3478 575.326 85.7055 593.39 79.9832C606.573 75.8076 621.998 73.4867 635.554 69.5288C647.146 66.1511 659.298 59.7651 668.35 56.4191C678.339 52.7254 684.874 52.0463 689.36 49.8185L689.565 49.7234L689.074 49.9719C686.145 51.4339 683.225 52.5044 679.938 53.7075C674.985 55.4495 670.168 57.4546 665.517 59.7102C662.871 61.0189 659.78 62.8531 656.507 64.8104C650.79 68.2275 644.515 71.9795 639.077 73.7094C632.498 75.797 625.435 77.0029 618.484 78.1911C608.497 79.8963 598.728 81.563 590.954 85.7578C567.579 98.3589 541.327 106.332 521.699 106.675C495.725 107.128 468.506 108.361 448.541 109.846C457.204 107.04 466.043 104.653 475.026 102.698C498.14 97.7592 523.325 102.297 550.586 96.7901" fill="#4195C4"/>
<path d="M1117.82 63.3171C1124.08 51.1346 1132.37 39.4786 1135.44 26.4775C1139.93 7.49238 1132.93 -12.9334 1141.04 -31.066C1141.65 -32.434 1142.46 -33.885 1144.01 -34.556C1148.66 -36.572 1151.79 -30.272 1151.68 -25.8799C1150.94 10.2253 1154.08 46.2927 1161.07 81.8823C1162.16 87.409 1163.36 92.9812 1166 98.1212C1170 105.942 1177.12 112.39 1180.92 120.271C1183.14 124.943 1184.14 129.965 1183.85 135C1183.56 140.035 1182 144.967 1179.26 149.465C1170.35 154.156 1158.01 150.663 1151.13 144.05C1144.26 137.438 1141.5 128.563 1138.96 120.031C1136.91 113.142 1134.86 106.254 1132.8 99.3666C1132.43 98.1106 1131.98 96.7611 1130.78 95.9551C1121.74 89.9075 1119.69 107.954 1110.79 96.0737C1105.09 88.4747 1114.14 70.4326 1117.79 63.3334" fill="#40B5AD"/>
<path d="M1012.63 42.0357C1006.65 47.5249 1001.57 53.4275 996.108 59.2517C990.204 65.5603 981.973 69.8357 973.81 73.7058C959.645 80.411 944.436 85.8435 930.237 92.7513C909.296 102.94 889.724 108.849 865.499 108.931C845.344 108.996 827.93 118.393 813.118 129.162C806.115 134.256 797.01 136.28 788.588 138.914C777.401 142.418 766.144 146.282 754.702 149.228C741.73 152.566 721.178 158.073 707.946 154.078C705.585 153.364 704.297 151.932 705.646 149.954C706.405 148.877 707.323 147.886 708.383 147.006C724.844 142.666 740.998 137.1 756.939 131.57C761.321 130.051 765.781 128.486 769.558 126.116L770.261 125.911C770.237 125.842 770.217 125.773 770.194 125.704C770.632 125.412 771.063 125.108 771.482 124.792C775.721 121.561 778.445 117.208 781.699 113.25C785.548 108.59 790.193 104.431 795.487 100.908C806.042 102.728 815.98 104.281 826.437 102.593C836.428 100.982 842.264 95.7577 850.02 90.0861C861.209 81.9051 873.928 74.4045 886.486 68.043C897.513 62.4531 911.028 60.5064 923.608 57.9258C938.385 54.8871 952.561 51.3602 966.657 46.5563C979.894 42.0452 991.956 36.7277 1004.12 30.3982C1012.43 26.0742 1029.59 17.3502 1032.19 18.9304C1034.78 20.5107 1017.53 37.5186 1012.61 42.0424" fill="#5596DC"/>
<path d="M249.774 133.87C251.7 133.536 253.714 133.113 255.142 131.97C257.225 130.299 257.46 127.622 257.553 125.208C257.88 117.028 257.623 107.68 250.295 102.338C241.136 95.6798 227.221 99.2685 215.177 100.672C198.186 102.638 180.826 99.3776 163.843 101.416C134.54 104.926 110.282 123.575 81.1246 127.89C72.6413 129.146 63.5852 129.241 56.1554 132.931C53.7484 134.125 51.3496 136.44 52.5252 138.553C53.2161 139.804 54.8838 140.39 56.4251 140.843C84.8533 149.225 118.177 145.001 142.557 129.924C146.707 127.358 150.618 124.496 155.056 122.304C168.567 115.626 186.504 116.777 199.339 123.898C205.445 127.283 208.831 132.836 215.319 135.086C224.315 138.199 240.59 135.466 249.763 133.87" fill="#5596DC"/>
<path d="M602.289 132.659L507.651 147.656C500.53 148.788 493.199 149.973 486.974 153.137C481.327 156.01 476.866 160.377 471.045 162.995C464.672 165.858 457.232 166.392 450.028 166.635C424.577 167.519 399.116 165.713 374.241 161.26C368.077 160.155 360.687 157.737 360.114 152.466C359.479 146.689 367.558 143.161 374.337 141.992C399.963 137.577 426.84 142.798 452.447 138.343C472.561 134.835 490.617 125.607 510.26 120.535C528.694 115.776 548.119 114.774 567.356 113.804L624.26 110.936C632.991 110.496 641.838 110.038 650.137 107.716C660.931 104.702 670.152 98.7495 679.579 93.4022C700.606 81.4951 723.573 72.2257 747.753 65.8879C739.938 82.4091 722.105 95.3744 701.528 99.4707C680.416 103.68 674.799 111.114 657.119 119.279C640.498 126.955 620.646 129.748 602.266 132.66" fill="#8B7AB0"/>
<path d="M874.665 49.6804C865.769 59.1849 850.782 63.5782 841.929 73.1135C838.867 76.4117 836.622 80.248 833.146 83.241C826.973 88.5568 817.915 90.4698 809.865 93.5237C798.53 97.8456 788.787 104.672 781.691 113.269C778.438 117.224 775.714 121.58 771.475 124.811C767.346 127.957 762.083 129.804 756.935 131.589C724.74 142.756 691.68 154.09 656.933 155.113C640.029 155.61 623.104 153.643 606.258 154.874C572.93 157.312 542.855 171.915 512.391 183.658C481.928 195.401 441.423 203.989 415.468 195.605C408.89 189.972 447.22 191.357 457.163 180.481C462.44 174.707 467.007 168.267 472.22 162.434C477.476 159.786 481.703 155.82 486.959 153.147C493.184 149.983 500.497 148.807 507.636 147.666L602.289 132.659C620.654 129.747 640.524 126.942 657.142 119.278C674.821 111.11 680.438 103.68 701.551 99.4702C722.128 95.3613 739.964 82.4086 747.775 65.8875C746.732 66.1614 745.688 66.4479 744.648 66.7347C758.013 60.5043 771.174 53.9615 784.188 47.2448C792.1 43.1549 800.11 38.937 809.077 36.9403C814.131 35.8168 819.397 35.4254 824.368 34.0631C838.679 30.1424 843.112 33.4742 842.781 33.862C841.217 35.7831 842.375 36.8894 845.303 36.8982C858.293 36.9335 870.971 29.9007 876.057 19.8346C878.208 15.5801 879.114 10.8616 882.071 6.9592C885.029 3.0565 891.18 0.187298 896.021 2.3438C884.551 16.3753 887.165 36.3001 874.639 49.6809" fill="#FEECA5"/>
<path d="M1446.43 123.496C1445.31 123.496 1444.19 123.399 1443.1 123.207C1427.49 123.381 1429.19 144.676 1419.01 155.078C1409.67 164.618 1396.3 169.883 1374.15 163.584C1358.86 159.24 1342.5 152.682 1329.61 142.166C1323.61 137.31 1318.59 131.664 1314.75 125.447C1301.92 104.542 1294.99 70.0504 1289.64 60.3022C1284.28 50.5541 1278.69 44.3169 1275.45 40.5984C1252.15 13.8601 1231.74 -22.7417 1228.33 -55.925C1221.82 -119.255 1226.77 -65.844 1234.16 -105.952C1240.34 -139.517 1224.95 -167.195 1243.22 -201.783L1244.73 -204.65C1247.98 -210.786 1250.56 -223.961 1252.84 -228.149L1255.33 -232.681L1255.76 -233.951C1257.67 -239.372 1251.16 -247.051 1256.7 -260.695L1259.94 -268.618C1263.37 -276.976 1270.14 -284.24 1273.18 -292.705C1276.52 -302.008 1276.22 -311.986 1278.91 -321.442C1288.71 -356.268 1313.25 -395.355 1286.26 -430.248C1281.97 -435.741 1276.77 -440.691 1270.82 -444.959C1272 -444.547 1273.16 -444.119 1274.32 -443.672C1278.4 -441.569 1282.44 -439.629 1286.63 -438.13C1300.19 -431.037 1312.87 -420.814 1324.98 -405.417L1325.91 -404.231C1326.22 -403.817 1326.54 -403.415 1326.86 -403.017L1327.1 -402.705L1327 -402.767L1326.84 -402.874L1326.57 -403.04L1326.45 -403.11L1326.24 -403.224L1326.13 -403.285C1326.02 -403.337 1325.91 -403.388 1325.81 -403.434C1326.13 -402.448 1326.46 -401.46 1326.78 -400.471C1326.95 -399.947 1327.12 -399.42 1327.29 -398.902C1327.44 -398.425 1327.6 -397.96 1327.75 -397.471C1327.93 -396.918 1328.1 -396.366 1328.28 -395.81C1328.47 -395.204 1328.67 -394.595 1328.86 -393.99C1328.96 -393.676 1329.06 -393.362 1329.16 -393.064C1329.48 -392.018 1329.81 -390.982 1330.14 -389.962C1331.7 -385.037 1333.26 -380.106 1334.91 -375.21L1334.97 -375.025C1335.78 -372.606 1336.61 -370.193 1337.47 -367.787L1337.52 -367.618C1337.93 -366.482 1338.35 -365.347 1338.77 -364.215C1338.8 -364.13 1338.83 -364.048 1338.86 -363.967C1339.3 -362.778 1339.75 -361.593 1340.21 -360.405C1343.91 -350.978 1353.85 -348.447 1364.24 -347.129L1365.25 -347.004L1367.51 -346.728C1391.48 -343.971 1397.47 -336.45 1392.57 -316.751C1392.52 -316.573 1392.48 -316.396 1392.43 -316.215L1392.05 -314.677L1391.66 -313.137C1389.06 -302.543 1386.92 -291.865 1384.88 -281.164C1384.74 -280.451 1384.6 -279.739 1384.47 -279.023L1384.44 -278.877L1383.29 -272.797C1380.81 -259.863 1372.56 -251.326 1360.71 -246.401C1360.21 -246.193 1359.71 -245.995 1359.21 -245.803C1358.2 -245.416 1357.16 -245.057 1356.11 -244.72C1353.94 -244.035 1351.72 -243.457 1349.48 -242.991C1348.9 -242.871 1348.32 -242.757 1347.74 -242.645L1340.81 -241.334C1334.06 -240.068 1327.25 -238.929 1320.64 -238.773C1308.85 -238.504 1297.69 -241.377 1288.6 -252.31L1288.44 -252.503L1288.24 -252.72C1287.63 -253.341 1287.09 -253.587 1286.63 -253.598C1285.8 -253.615 1285.16 -252.869 1284.68 -252.043L1284.59 -251.89C1284.54 -251.785 1284.48 -251.68 1284.43 -251.571C1284.35 -251.415 1284.27 -251.253 1284.2 -251.113L1283.45 -249.439C1282.84 -248.062 1282.26 -246.688 1281.72 -245.328C1265.03 -203.666 1277.76 -169.673 1342.3 -158.146C1343.96 -152.073 1346.11 -146.051 1347.22 -139.893C1349.98 -124.519 1346.18 -108.832 1346.74 -93.28C1347.15 -81.77 1349.95 -70.437 1352.74 -59.173C1355.47 -48.155 1358.21 -37.114 1362.2 -26.3762C1365.01 -18.8215 1368.57 -11.2451 1374.89 -5.38986C1378.96 -1.62277 1383.97 1.23471 1389.44 3.43073C1389.48 3.90033 1389.52 4.37613 1389.58 4.83603C1389.58 4.84244 1389.58 4.84872 1389.58 4.85492C1389.63 5.21082 1389.68 5.56342 1389.75 5.90613C1389.75 5.93454 1389.76 5.96292 1389.77 5.99423C1389.81 6.15143 1389.85 6.30853 1389.89 6.45615C1389.89 6.46655 1389.89 6.47723 1389.89 6.48773C1389.94 6.64774 1390 6.80142 1390.06 6.95813C1390.07 6.98615 1390.08 7.01343 1390.1 7.03964C1390.15 7.16183 1390.2 7.28403 1390.26 7.39972L1390.32 7.50912C1390.4 7.64603 1390.49 7.77936 1390.58 7.90875C1390.87 8.32434 1391.16 8.74045 1391.43 9.15634C1391.5 9.25305 1391.57 9.34653 1391.63 9.44333C1391.9 9.85931 1392.17 10.2757 1392.43 10.6919L1392.52 10.8449C1392.75 11.2134 1392.97 11.5851 1393.19 11.9569C1393.26 12.0693 1393.33 12.1818 1393.39 12.2911C1393.63 12.6942 1393.86 13.0942 1394.08 13.4975C1394.14 13.6007 1394.19 13.7039 1394.25 13.8102C1394.43 14.1227 1394.6 14.4638 1394.77 14.789C1394.84 14.9235 1394.91 15.0548 1394.98 15.1862C1395.18 15.5741 1395.37 15.9622 1395.57 16.3532C1395.64 16.5004 1395.71 16.6506 1395.79 16.7976C1395.92 17.0794 1396.06 17.3579 1396.18 17.6399C1396.25 17.8027 1396.33 17.9529 1396.41 18.1252C1396.58 18.4915 1396.74 18.8579 1396.91 19.2243C1397 19.4248 1397.09 19.6252 1397.17 19.8226L1397.45 20.4773C1397.61 20.8385 1397.76 21.1989 1397.91 21.5583L1398.14 22.0974L1398.47 22.9059L1398.59 23.2194C1400.64 28.3537 1402.37 33.5916 1404.38 38.7455C1411.17 56.2682 1428.33 63.2313 1447.93 67.1219L1448.91 123.074C1448.12 123.362 1447.26 123.506 1446.4 123.496" fill="#ED746E"/>
<path d="M693.29 47.834L691.152 48.9161L689.572 49.717L689.36 49.8186C684.889 52.0461 678.339 52.7254 668.349 56.4192C659.297 59.7651 647.13 66.1514 635.553 69.5287C621.998 73.4804 606.573 75.8076 593.39 79.9832C575.326 85.7054 562.66 94.3477 550.582 96.787C523.321 102.294 498.136 97.7561 475.022 102.695C466.039 104.651 457.196 107.037 448.537 109.843C422.938 118.02 402.026 127.851 388.747 129.585C369.394 132.113 357.046 139.292 347.689 147.589C344.184 147.881 314.507 182.08 301.301 182.311C275.492 182.761 261.095 172.742 251.964 143.998C251.745 143.312 251.523 142.633 251.301 141.961C251.523 142.633 251.75 143.311 251.968 143.998C251.75 143.311 251.523 142.63 251.297 141.955C251.278 141.902 251.262 141.848 251.242 141.795C251.016 141.12 250.783 140.449 250.549 139.79V139.762C250.43 139.426 250.308 139.09 250.185 138.758C250.063 138.426 249.941 138.096 249.819 137.767L249.818 137.732C249.633 137.237 249.444 136.741 249.251 136.256C249.445 136.74 249.634 137.233 249.818 137.732C249.589 137.121 249.357 136.522 249.121 135.926C249.047 135.738 248.968 135.553 248.894 135.365C248.725 134.942 248.552 134.519 248.376 134.112L248.54 134.5L248.376 134.112L249.792 133.866C251.718 133.533 253.733 133.109 255.16 131.967C257.246 130.296 257.478 127.618 257.571 125.205C257.898 117.024 257.641 107.676 250.313 102.334C241.154 95.6765 227.239 99.2651 215.195 100.665C198.204 102.638 180.844 99.3711 163.861 101.413C155.325 102.436 147.217 104.743 139.288 107.609L137.671 107.766L137.296 107.804C136.519 107.884 135.746 107.964 134.97 108.05L134.835 108.052C134.129 108.131 133.424 108.21 132.719 108.295L132.217 108.354L130.225 108.6L129.936 108.637C129.186 108.735 128.41 108.84 127.649 108.945L127.304 108.992L125.381 109.272L124.864 109.35C124.148 109.461 123.436 109.571 122.72 109.703L122.63 109.705C121.88 109.828 121.131 109.955 120.363 110.088L119.906 110.169C119.295 110.277 118.688 110.389 118.078 110.517L117.576 110.611C116.077 110.895 114.594 111.198 113.127 111.518L112.614 111.631L110.805 112.042L110.353 112.147C109.604 112.321 108.863 112.501 108.13 112.688L107.946 112.736C107.28 112.905 106.614 113.074 105.948 113.257L105.41 113.402C104.794 113.57 104.176 113.743 103.558 113.92L103.207 114.018C102.474 114.228 101.744 114.446 101.016 114.671L100.642 114.785C100.036 114.973 99.4319 115.165 98.8291 115.363L98.2872 115.54C97.6295 115.756 96.9719 115.976 96.3144 116.205L96.1239 116.272C95.3992 116.524 94.6783 116.783 93.9614 117.048L93.4909 117.224C92.9159 117.444 92.3436 117.665 91.7735 117.885L91.2472 118.09C90.538 118.371 89.8252 118.658 89.1162 118.954L88.3699 119.257C87.5386 119.586 86.7019 119.883 85.8598 120.15L85.7477 120.187L85.0262 120.408L84.8392 120.462L84.1847 120.647L83.9528 120.708L83.3429 120.867L83.081 120.931L82.4971 121.071L82.2126 121.136L81.651 121.259L81.3439 121.321L80.8008 121.429L80.4786 121.488L79.9429 121.586L79.6169 121.642L79.0847 121.727L78.7511 121.78L78.2262 121.855L77.8813 121.903L77.3638 121.968L77.0149 122.009L76.4973 122.069L76.1447 122.106L75.6307 122.16L75.2554 122.191L74.7413 122.235L74.366 122.264L73.8555 122.301L73.4801 122.327L73.0033 122.357L72.6276 122.364L72.1057 122.392L71.7487 122.398L71.2302 122.407L70.8545 122.413L70.3322 122.423L68.1718 122.46L67.6533 122.469L67.3302 122.475L66.7441 122.485L66.4473 122.49L65.8345 122.482L65.5602 122.487L64.9136 122.476L64.6769 122.48L63.9663 122.464L63.7934 122.467L62.9963 122.446L62.9099 122.448C62.2105 122.429 61.5111 122.409 60.8116 122.384L59.4352 122.338L57.8557 122.284L57.5436 122.273L57.2202 122.263L57.1075 122.265L56.6338 122.258L56.2581 122.264L55.7959 122.272L54.9618 122.287L54.5861 122.293L54.1465 122.301L53.7708 122.308L53.3353 122.334L52.9899 122.359L52.5659 122.395L52.2578 122.403L51.8414 122.449L51.5189 122.486L51.1139 122.54L50.8027 122.583L50.4054 122.647L50.1056 122.697L49.731 122.766L49.4426 122.822L49.0682 122.904L48.7948 122.963L48.4206 123.051L48.1586 123.119L47.7845 123.217L47.5339 123.284L47.1599 123.392L46.9207 123.469L46.5657 123.582L46.334 123.662L45.9867 123.788L45.7664 123.868L45.4229 124.003L45.2177 124.089L44.882 124.233L44.6806 124.322L44.3525 124.473L44.1662 124.565L43.842 124.728L43.6632 124.82L43.3468 124.993L43.1793 125.087L42.8668 125.269L42.7106 125.367L42.402 125.558L42.2572 125.655C42.1531 125.724 42.0528 125.788 41.9563 125.86L41.8152 125.957C41.7149 126.025 41.6184 126.096 41.522 126.17L41.3921 126.267L41.0991 126.49L40.9805 126.587C40.8842 126.664 40.7878 126.742 40.6952 126.822L40.5841 126.916L40.2991 127.164L40.2029 127.254C40.1067 127.341 40.0143 127.427 39.9219 127.517L39.8331 127.601C39.7408 127.694 39.6447 127.784 39.5561 127.877L39.4749 127.961C39.3825 128.054 39.2902 128.15 39.2017 128.247L39.1317 128.324L38.8588 128.628C38.8592 128.65 38.8221 128.676 38.7999 128.699C38.7078 128.804 38.6195 128.91 38.5312 129.019C38.5315 129.038 38.498 129.057 38.4834 129.08C38.3913 129.189 38.3031 129.301 38.2149 129.416L38.1744 129.467C38.0825 129.585 37.9944 129.701 37.9063 129.822L37.8806 129.86C37.7888 129.985 37.7008 130.11 37.6128 130.234L37.5945 130.26C37.5065 130.391 37.4149 130.522 37.327 130.656C34.8303 134.468 33.5787 139.199 32.513 144.035L31.6962 147.837L32.5133 144.054C32.4871 144.49 30.7153 172.388 -5.47938 173.598L-6.82775 96.3499C-2.78654 96.8349 1.25783 97.2851 5.28115 97.6062C21.0885 98.8738 36.4635 98.1951 49.4151 90.0276C50.0174 89.649 50.6144 89.2523 51.2059 88.8379C52.0945 88.2186 52.97 87.5616 53.8324 86.8667C54.4057 86.4022 54.9746 85.92 55.5398 85.4197C56.105 84.9196 56.6619 84.4017 57.2115 83.8659C65.6887 75.5903 70.773 65.6378 71.3226 55.3542C71.3571 54.7457 71.3739 54.135 71.3733 53.5226L71.3678 53.2071C71.327 48.7816 70.4398 44.3946 68.7394 40.214C68.6254 39.9256 68.504 39.6436 68.3826 39.3648L68.2694 39.1237C68.1833 38.9295 68.0973 38.7385 68.0038 38.5508C67.9608 38.4568 67.9141 38.3629 67.8674 38.2691C67.7817 38.096 67.696 37.9271 67.6105 37.7622C67.5637 37.6683 67.5132 37.5745 67.4628 37.4839C67.3734 37.315 67.2841 37.1524 67.1911 36.9899L67.0514 36.7398L66.7262 36.1963C66.6914 36.1401 66.6604 36.0838 66.6256 36.0308C66.4787 35.7966 66.3319 35.5688 66.1814 35.3441L66.1197 35.2568C65.9886 35.0666 65.8576 34.8795 65.7342 34.6986L65.5841 34.4992C65.4764 34.3559 65.3686 34.2125 65.261 34.0755C65.2033 34.0008 65.1458 33.9324 65.0919 33.8607C64.9844 33.73 64.8769 33.5993 64.7695 33.4749L64.5967 33.2696C64.4817 33.1391 64.3667 33.0117 64.248 32.8843L64.0909 32.7135C63.9453 32.555 63.7961 32.403 63.6431 32.251L63.5781 32.1858C63.4022 32.0121 63.2263 31.8416 63.0431 31.6775C63.0048 31.6403 62.9629 31.6063 62.9209 31.5692C62.7834 31.4453 62.6422 31.3215 62.5049 31.204L62.318 31.0494L61.9368 30.7405L61.7349 30.5862L61.3541 30.3056L61.1562 30.1638C61.0192 30.0652 60.8785 29.973 60.7378 29.8776L60.5781 29.7699C60.1978 29.5146 59.7839 29.2756 59.3778 29.0491L59.2034 28.9575C59.0592 28.8779 58.9112 28.7984 58.7633 28.7253L58.5472 28.6185C58.4107 28.5483 58.2705 28.4845 58.1341 28.4174L57.9068 28.3141L57.4788 28.1259L57.2668 28.038C57.104 27.9683 56.9375 27.9049 56.7709 27.8384L56.6234 27.781L55.9615 27.5432L55.867 27.5133C55.678 27.4503 55.489 27.3873 55.2963 27.3307L55.0847 27.2649L54.6201 27.131L54.3784 27.0658L53.9291 26.9505L53.7895 26.9151L53.68 26.8886L53.2083 26.78L52.9858 26.7334C52.7896 26.6895 52.6085 26.6516 52.3974 26.6143L52.288 26.5909L51.5792 26.4676L51.3833 26.4394L50.867 26.3601L50.5996 26.3269L50.1438 26.2685L49.8576 26.2357L49.4058 26.1899L49.1234 26.1601L48.6417 26.1212L48.3857 26.1004L47.716 26.0584L47.5582 26.0612L46.9187 26.0313L46.6294 26.0363L46.1707 26.0223L45.8438 26.028L45.4152 26.0197L45.077 26.0256L44.6487 26.033L43.5516 26.0522L42.8227 26.0649L42.4958 26.0706L42.0525 26.0784L41.6767 26.0849L41.301 26.0915L40.9027 26.0984L40.5273 26.1208L40.1181 26.1468L39.7427 26.1723L39.3223 26.2018L39.0032 26.2263L37.9186 26.3147L37.8435 26.316L37.3406 26.3626L37.0705 26.3863L36.5714 26.4329L36.305 26.4596L35.7797 26.5098L35.5659 26.5325L34.9919 26.593L34.898 26.5946C33.3636 26.7571 31.8258 26.9355 30.2917 27.1106L28.8926 27.2708L28.5175 27.312L26.6419 27.5184L26.4841 27.5211L24.6833 27.7041L24.4916 27.7074C23.8613 27.7658 23.2308 27.8209 22.6153 27.8696L19.4999 28.1007C18.7492 28.158 18.025 28.2243 17.2895 28.2939L16.7915 28.4005L15.0282 28.5796L14.5406 28.6323C13.0626 28.7929 11.5848 28.968 10.1073 29.1579L9.66484 29.2161L7.78996 29.4635L7.41495 29.5111C3.94661 29.9788 0.475285 30.4907 -2.99638 30.9838L-3.88497 31.1066L-4.95723 31.2579L-6.08208 31.4101L-7.09074 31.5445L-7.95685 31.6637L-9.45459 -54.142L9.14019 -42.182L10.953 -41.036C34.9766 -25.9605 63.2758 -16.3541 88.6019 -2.88283C99.2961 2.80457 108.477 10.2954 118.855 16.3765C138.411 27.8369 153.855 36.1021 178.444 38.9619C195.963 40.9981 214.438 36.3893 231.519 40.2008C246.464 43.5318 257.109 55.2204 271.597 59.7336C287.359 64.6412 304.786 64.618 321.08 68.1559C333.047 70.7436 344.183 75.672 356.206 78.0567C411.009 88.9113 485.939 90.1885 538.888 88.27L539.755 88.2359C564.595 87.2089 561.297 81.6765 583.205 75.4517C598.8 71.0162 615.054 68.4094 630.74 64.2311C643.422 60.8534 655.395 55.5942 668.271 52.8096C676.359 51.0619 684.993 49.2099 693.738 47.6148L693.279 47.8469L693.29 47.834ZM-4.53211 141.74C-4.33432 142.073 -4.11666 142.398 -3.87996 142.713C-4.11666 142.398 -4.33432 142.073 -4.53211 141.74Z" fill="#ED7342"/>
<path d="M1022.25 79.1763C1000.94 87.6317 982.238 102.698 965.229 119.986C962.141 123.124 960.446 125.915 959.888 128.365C946.795 131.656 934.08 135.943 921.9 141.174C914.741 144.25 907.638 147.691 899.773 149.041C888.156 151.036 876.224 148.265 865.047 145.048C863.022 144.468 860.891 143.814 859.522 142.443C857.56 140.491 857.607 137.615 858.266 135.11C862.182 120.229 881.926 112.561 899.714 109.524C918.45 106.324 938.039 105.667 955.657 99.3938C961.032 97.4756 966.135 95.0603 971.227 92.6514C988.575 84.4356 1005.99 76.1869 1021.82 66.0155C1034.01 58.1736 1047.21 48.6666 1062.43 50.0866C1062.4 50.8048 1062.33 51.5181 1062.23 52.2269C1053.26 61.5369 1040.98 71.7571 1022.25 79.1889" fill="#E6C6A7"/>
<path d="M1022.25 79.1762C1071.25 59.7331 1076.16 21.2563 1092.88 29.4582C1105.7 35.6892 1069.33 78.4775 1066.33 89.6972C1060.41 111.895 1093.86 143.172 1062.6 149.364C1031.33 155.557 1025.7 136.578 999.519 140.343C973.336 144.108 948.22 137.264 965.229 119.986C982.239 102.708 1000.94 87.6317 1022.25 79.1762Z" fill="#ED746E"/>
<path d="M791.639 7.74199L790.854 8.02079L788.838 8.74099L787.086 9.36489L785.775 9.83599L783.328 10.712L782.626 10.9642L779.597 12.0555L779.298 12.1649L775.885 13.3986L775.814 13.4251C747.621 23.6673 719.777 34.5441 693.287 47.8341C693.443 47.7587 693.592 47.6804 693.748 47.6019C685.008 49.1969 676.374 51.0615 668.282 52.781C655.402 55.5625 643.433 60.8311 630.751 64.2056C615.039 68.3844 598.803 70.9909 583.215 75.4262C561.307 81.6511 564.606 87.1835 539.766 88.2105L538.898 88.2445C485.939 90.1632 411.019 88.8985 356.217 78.0312C344.186 75.6467 333.05 70.7183 321.091 68.1304C304.797 64.6051 287.37 64.641 271.608 59.7207C257.119 55.2012 246.475 43.519 231.529 40.1879C214.449 36.3827 195.974 40.9853 178.454 38.949C153.87 36.0892 138.421 27.824 118.866 16.3636C108.488 10.2825 99.3068 2.79169 88.6126 -2.89571C63.2754 -16.3541 34.9763 -25.9606 10.9526 -41.036L9.13987 -42.182L-9.45492 -54.142L-9.77222 -72.32C4.6184 -61.783 15.3007 -53.974 35.0288 -46.418C80.8869 -28.861 130.723 -28.453 177.956 -13.6939C237.313 4.83959 291.057 34.9161 348.242 57.1931C379.382 69.313 424.151 47.1123 457.306 51.729C463.838 52.6376 488.449 50.7561 495.066 51.0699C590.447 55.6199 597.945 62.3479 675.812 37.8177C753.678 13.2875 804.774 -0.258316 805.078 0.998886L805.508 2.81269C800.883 4.45079 796.259 6.08949 791.639 7.72939" fill="#40B5AD"/>
<path d="M731.53 -247.065L730.861 -245.33C701.621 -171.023 643.188 -114.719 572.765 -65.4971C530.22 -35.7911 482.598 -13.3612 433.597 7.3194C426.135 10.4734 413.559 15.6043 408.868 9.13672C405.713 4.74121 410.731 1.2858 415.852 -2.24091C418.34 -3.9509 420.847 -5.677 422.457 -7.5358C423.076 -8.23151 423.677 -8.92697 424.277 -9.62238C424.889 -10.3306 425.5 -11.0388 426.119 -11.7504C425.553 -11.6647 424.968 -11.6072 424.39 -11.5529C422.987 -11.4148 421.595 -11.28 420.435 -10.7673C394.32 0.31601 367.358 9.85809 340.389 19.4003L340.109 19.4999L339.679 17.6861C339.375 16.4289 288.294 29.946 210.428 54.4762C132.561 79.0064 101.445 102.66 6.064 98.1105C-0.55249 97.7967 -6.53247 94.5427 -13.0652 93.6435C-46.2195 89.03 -86.0179 85.9717 -117.142 73.8516C-174.316 51.5744 -228.06 21.5169 -287.416 2.97391C-334.65 -11.7847 -384.486 -12.1932 -430.344 -29.7501C-450.076 -37.2971 -460.762 -45.1151 -475.145 -55.6521L-477.654 -199.41C-475.184 -199.137 -472.699 -198.894 -470.211 -198.65C-452.482 -196.923 -434.524 -195.169 -421.231 -183.975C-406.385 -171.454 -408.38 -148.372 -423.976 -125.935L-424.511 -125.159C-441.967 -99.6281 -437.628 -87.7041 -406.63 -73.3471C-391.197 -66.1831 -374.993 -58.7701 -358.409 -58.6431L-358.65 -58.6391C-304.335 -47.5171 -250.657 -35.4461 -198.66 -18.4195C-197.068 -17.6488 -195.483 -16.8684 -193.928 -16.0654C-180.226 -9.026 -167.516 -0.671906 -153.7 6.233C-145.931 10.1186 -136.807 11.9794 -129.329 16.2457C-102.019 31.8192 -122.559 29.0214 -94.9548 36.4778L-93.3954 36.8925C-76.4952 41.3321 -45.825 47.2547 -32.1193 37.7168C-18.6435 28.3533 -34.2789 26.3915 -13.9881 24.841C-2.72791 23.9817 8.65955 25.6799 19.8985 24.6851C21.0693 24.5826 21.5971 22.3071 20.5995 21.7785L18.5104 19.4445C35.7906 22.192 54.3658 26.7854 59.3365 15.4966L60.2943 15.0254C73.4028 16.0591 86.9354 16.8487 100.93 17.5956L105.568 17.8302C130.723 19.1398 174.104 20.5163 203.696 14.2236L222.658 10.1838C276.204 -1.25839 239.26 5.9422 296.433 -15.8278L298.374 -16.5656C362.624 -40.8611 370.535 -38.0731 418.083 -83.6771L421.968 -87.4221C433.617 -98.7351 456.221 -121.692 455.693 -136.278C455.538 -140.378 448.93 -142.788 448.145 -146.843C447.006 -152.719 453.123 -159.24 450.184 -164.649C448.685 -167.4 443.685 -161.641 441.373 -159.296C434.227 -152.064 430.726 -148.319 428.72 -146.548C386.54 -114.646 339.027 -90.2701 285.439 -74.4081C284.348 -74.0381 283.377 -73.2761 282.413 -72.5211C281.99 -72.1981 281.567 -71.8751 281.137 -71.5521C281.45 -71.2421 281.756 -70.9311 282.067 -70.6021C282.779 -69.8181 283.566 -69.0811 284.416 -68.3991C296.037 -60.0071 287.47 -56.2431 280.801 -53.3151C279.98 -52.9531 279.19 -52.6081 278.47 -52.2641L276.481 -51.2821C258.267 -42.4861 238.223 -37.7961 218.167 -33.1031C210.999 -31.4251 203.827 -29.7471 196.741 -27.8843C195.325 -27.4186 193.975 -26.8155 192.721 -26.0876C192.103 -25.7611 191.485 -25.4347 190.859 -25.1366C191.612 -25.0361 192.366 -24.8946 193.12 -24.7562C194.881 -24.4271 196.657 -24.0983 198.391 -24.258C237.495 -27.5856 274.921 -36.6131 311.711 -47.8981L311.998 -47.9851C312.97 -48.2891 314.05 -48.6521 315.17 -49.0631C320.187 -50.8301 326.126 -52.9191 327.8 -50.0661C330.066 -46.2081 324.329 -43.2671 319.61 -40.8491C318.69 -40.3781 317.807 -39.9241 317.033 -39.4911L315.596 -38.6891C269.065 -12.9702 216.299 -2.55157 162.397 4.63882L159.064 5.07901C79.4221 15.5342 5.75305 2.78052 -63.0594 -32.5411C-69.1613 -35.6761 -75.6052 -38.3731 -82.0261 -41.0481C-100.301 -48.6891 -118.372 -56.2521 -127.846 -73.6521C-134.219 -85.3931 -135.757 -97.9441 -137.291 -110.492C-138.019 -116.41 -138.742 -122.326 -139.975 -128.159L-140.069 -128.609C-142.884 -141.709 -148.487 -152.668 -166.415 -155.717L-166.683 -155.766C-170.455 -156.533 -170.158 -159.351 -167.114 -161.497C-146.319 -175.969 -126.081 -171.079 -119.445 -150.019C-123.469 -132.494 -122.585 -114.612 -111.73 -99.0451C-109.803 -96.3081 -106.389 -94.4801 -103.161 -92.8161C-101.755 -92.0871 -100.344 -91.3611 -98.9288 -90.6391L-97.9315 -90.1331L-96.665 -89.4891L-95.3188 -88.8081L-94.0867 -88.1991L-92.7029 -87.5091L-91.467 -86.9001L-90.0644 -86.2081L-88.8476 -85.6131L-87.392 -84.9101L-86.2171 -84.3461L-84.6026 -83.5791L-83.5871 -83.1011C-82.7079 -82.6901 -81.8288 -82.2801 -80.935 -81.8851L-80.3759 -80.8661C-58.9062 -42.4391 -3.04089 -9.23697 54.1281 -2.98148C80.2171 -0.0617676 106.66 0.0897217 132.833 -2.53088C134.487 -2.7334 136.1 -3.32651 137.695 -3.9162C138.412 -4.18121 139.125 -4.44299 139.839 -4.6669L138.288 -5.0376C136.747 -5.44308 135.178 -5.767 133.588 -6.00659C130.83 -6.40668 128.057 -6.77808 125.299 -7.14969C108.965 -9.3392 92.6226 -11.5286 78.3713 -19.4643C76.6251 -20.4565 75.4525 -22.1847 74.2797 -23.9128C73.7243 -24.7301 73.1688 -25.5474 72.5508 -26.2878C73.4606 -26.7077 74.361 -27.2285 75.2651 -27.7461C77.1666 -28.8401 79.0793 -29.9431 81.1127 -30.1491C91.9932 -31.2261 102.936 -31.9791 113.882 -32.7321C144.157 -34.8131 174.455 -36.8981 203.479 -45.8231C204.601 -46.1581 205.824 -46.4951 207.096 -46.8331C212.562 -48.2601 218.694 -49.8761 218.553 -54.7151C218.553 -55.7801 218.17 -56.8181 217.452 -57.6921C226.627 -57.8521 235.767 -58.7581 244.743 -60.3961C246.654 -60.7451 248.613 -61.1491 250.185 -62.1301C251.758 -63.1101 252.86 -64.8091 252.366 -66.3911C245.441 -67.7821 238.241 -67.9491 231.22 -66.8831C227.517 -66.3201 223.789 -65.4121 220.065 -65.8081C218.364 -65.9871 216.717 -66.4381 215.016 -66.5851C210.536 -66.9771 206.09 -65.2671 201.594 -65.5051C197.791 -65.7061 194.321 -67.2711 190.718 -68.2941C189.354 -68.6811 187.588 -68.8991 186.695 -67.9461C186.038 -67.2471 186.237 -66.2091 186.873 -65.4881L186.119 -65.6421C163.551 -70.3201 140.96 -75.0041 120.492 -84.9271C80.996 -104.01 77.0062 -134.92 112.292 -159.338C115.545 -161.585 118.809 -163.871 122.095 -166.175L122.132 -166.201C152.642 -187.588 184.744 -210.092 224.757 -210.222C253.579 -210.311 281.615 -214.039 309.565 -217.753C332.618 -220.816 355.619 -223.872 378.971 -224.88C385.791 -225.188 395.242 -225.227 396.708 -218.766C398.085 -212.872 393.626 -206.055 387.476 -201.854C379.754 -196.574 371.293 -192.127 362.831 -187.681C349.759 -180.824 336.695 -173.942 326.394 -164.003C319.529 -157.46 315.418 -148.134 321.023 -140.738C325.743 -134.533 334.537 -137.357 341.836 -139.697C342.487 -139.904 343.126 -140.111 343.746 -140.305L345.918 -140.974C376.571 -150.511 401.981 -167.077 426.333 -184.907L428.685 -186.633C429.239 -187 429.835 -187.319 430.465 -187.586C430.838 -187.76 431.211 -187.937 431.583 -188.133C431.489 -187.904 431.407 -187.666 431.325 -187.424C431.149 -186.743 430.822 -186.093 430.359 -185.514C388.164 -140.007 314.003 -99.3591 236.093 -105.738L235.785 -105.764L234.531 -105.853C229.741 -106.177 224.315 -106.546 222.336 -111.669L222.325 -112.3L224.987 -113.95C231.505 -117.987 237.974 -121.992 244.439 -126.094C245.333 -126.744 246.136 -127.478 246.828 -128.282C247.112 -128.603 247.393 -128.889 247.681 -129.175C247.058 -129.101 246.416 -129.067 245.778 -129.037C244.494 -128.971 243.213 -128.907 242.07 -128.512C239.036 -127.474 235.938 -126.249 232.803 -125.011C219.906 -119.915 206.398 -114.579 194.334 -121.003L193.708 -121.33C176.335 -130.278 164.859 -123.922 153.029 -117.375C150.837 -116.159 148.629 -114.94 146.371 -113.805L145.999 -113.613C136.08 -108.487 137.617 -101.999 146.381 -96.6791C176.253 -78.5621 210.464 -78.4681 244.995 -81.7161L246.597 -81.8701C299.444 -87.0541 347.554 -102.602 383.805 -136.345L384.877 -137.333C390.686 -142.636 396.901 -147.643 403.113 -152.622C415.311 -162.424 427.494 -172.21 436.532 -184.302L437.135 -185.099C438.027 -186.269 438.95 -187.45 439.877 -188.64C448.732 -200.003 458.297 -212.272 450.813 -225.922C443.269 -239.767 426.587 -241.199 410.548 -242.579C408.184 -242.784 405.832 -242.986 403.524 -243.227L402.416 -243.343C399.607 -243.651 396.788 -243.905 393.961 -244.143C394.08 -244.205 394.196 -244.27 394.307 -244.338C395.229 -244.91 394.903 -246.189 393.773 -246.311L393.585 -246.308L371.837 -245.805C370.459 -245.926 369.077 -246.057 367.696 -246.197C365.542 -246.386 363.427 -247.836 361.63 -249.197L361.017 -249.669C360.713 -249.856 362.468 -252.655 363.875 -253.623C395.298 -275.635 478.192 -280.238 511.898 -261.888C527.922 -253.163 537.301 -240.152 545.048 -226.061L546.602 -223.185C571.407 -177.752 585.789 -176.128 630.777 -211.397C655.051 -230.443 675.454 -252.036 693.729 -275.213L693.887 -275.405C694.167 -275.761 694.453 -276.138 694.74 -276.522C696.753 -279.183 699.056 -282.238 702.855 -281.228C705.12 -280.636 706.926 -275.756 706.902 -272.861C706.63 -245.339 695.507 -220.715 677.678 -197.86L677.445 -198.043C678.21 -199.448 678.978 -200.853 679.751 -202.256C687.622 -216.597 695.505 -230.954 697.205 -247.034C697.264 -247.505 697.346 -248.002 697.427 -248.509C697.913 -251.462 698.445 -254.785 694.726 -255.74C692.461 -256.332 688.003 -253.356 685.73 -251.164L682.698 -248.289C659.45 -226.265 635.485 -204.826 607.326 -187.002C579.167 -169.179 561.277 -173.289 546.556 -199.981C544.732 -203.283 543.001 -206.639 541.27 -209.989C532.323 -227.32 523.375 -244.691 501.644 -254.598C500.534 -255.125 499.395 -255.566 498.237 -255.997L496.505 -256.648C486.763 -260.32 476.677 -262.157 465.893 -260.962C468.431 -260.451 470.994 -259.997 473.562 -259.543C479.153 -258.552 484.763 -257.558 490.139 -255.969C502.87 -252.211 511.797 -245.691 518.728 -237.729C515.169 -240.274 511.13 -242.369 507.04 -244.365L506.752 -244.505L505.16 -245.282C500.493 -247.552 495.763 -249.852 490.573 -251.088C484.063 -252.653 477.154 -252.504 470.373 -252.341C456.409 -252.006 442.107 -251.611 429.119 -247.24C436.414 -243.833 444.776 -242.359 453.112 -243.013C461.744 -243.707 470.626 -246.668 478.859 -244.387C479.184 -244.298 479.505 -244.2 479.819 -244.088L480.133 -243.977C480.341 -243.905 480.549 -243.833 480.749 -243.754L481.128 -243.606C481.309 -243.534 481.487 -243.461 481.665 -243.382C481.843 -243.303 481.915 -243.266 482.044 -243.209L482.54 -242.974L482.92 -242.779C483.079 -242.696 483.235 -242.614 483.386 -242.528C483.538 -242.442 483.629 -242.387 483.766 -242.314C483.903 -242.241 484.066 -242.139 484.21 -242.047C484.355 -241.955 484.446 -241.893 484.564 -241.816C484.682 -241.74 484.849 -241.629 484.99 -241.534L485.332 -241.287C485.469 -241.188 485.606 -241.09 485.74 -240.978L486.071 -240.719L486.453 -240.41L486.773 -240.135C486.899 -240.027 487.021 -239.915 487.155 -239.804L487.464 -239.519C487.586 -239.404 487.705 -239.289 487.823 -239.172C487.942 -239.054 488.019 -238.976 488.115 -238.861C488.21 -238.746 488.348 -238.619 488.463 -238.498C488.578 -238.377 488.651 -238.296 488.743 -238.187L489.076 -237.801C489.165 -237.699 489.253 -237.599 489.337 -237.49C489.422 -237.381 489.56 -237.22 489.668 -237.083L489.91 -236.771C490.021 -236.628 490.129 -236.482 490.237 -236.335L490.457 -236.023C490.572 -235.864 490.68 -235.711 490.792 -235.54L490.977 -235.275L491.39 -234.651L491.471 -234.523C491.634 -234.264 491.789 -234.001 491.943 -233.739C491.99 -233.657 492.033 -233.579 492.076 -233.498C492.18 -233.314 492.289 -233.126 492.39 -232.938C492.448 -232.835 492.499 -232.729 492.557 -232.626L492.813 -232.131L492.985 -231.784L493.215 -231.308L493.379 -230.945C493.453 -230.789 493.524 -230.632 493.59 -230.475C493.645 -230.35 493.7 -230.225 493.751 -230.099C493.802 -229.974 493.884 -229.786 493.947 -229.636L494.1 -229.25C494.163 -229.097 494.222 -228.937 494.281 -228.789C494.34 -228.642 494.38 -228.529 494.427 -228.397C494.474 -228.266 494.542 -228.084 494.597 -227.933L494.731 -227.544C494.787 -227.387 494.838 -227.23 494.89 -227.077C494.941 -226.923 494.973 -226.816 495.017 -226.687L495.16 -226.216L495.28 -225.824L495.412 -225.359C495.452 -225.227 495.488 -225.095 495.524 -224.966C495.56 -224.838 495.609 -224.652 495.649 -224.495L495.746 -224.112C495.786 -223.952 495.827 -223.798 495.863 -223.631C495.9 -223.464 495.924 -223.383 495.953 -223.257C496.079 -222.71 496.197 -222.163 496.301 -221.622C496.412 -221.033 496.584 -220.456 496.816 -219.891V-219.854C497.631 -209.982 495.563 -199.946 494.669 -189.998C494.225 -185.066 494.09 -180.08 495.062 -175.211C497.275 -164.275 505.016 -154.675 508.21 -143.914C508.979 -141.45 509.343 -138.909 509.301 -136.358C509.154 -135.936 509 -135.51 508.838 -135.087C508.788 -134.948 508.73 -134.808 508.676 -134.668C508.568 -134.385 508.457 -134.099 508.342 -133.819L508.136 -133.32L507.811 -132.557C507.735 -132.382 507.656 -132.21 507.58 -132.035L507.243 -131.303L506.993 -130.775C506.877 -130.533 506.757 -130.294 506.63 -130.052C506.546 -129.88 506.459 -129.708 506.372 -129.536C506.241 -129.282 506.106 -129.03 505.975 -128.778C505.892 -128.622 505.812 -128.46 505.728 -128.313C505.517 -127.921 505.298 -127.532 505.079 -127.147L505.057 -127.111L504.605 -126.346L504.378 -125.963L504.28 -125.801C504.17 -125.622 504.057 -125.443 503.943 -125.268C503.83 -125.092 503.728 -124.917 503.614 -124.741L503.464 -124.505C503.248 -124.185 503.025 -123.837 502.801 -123.505L502.614 -123.227L502.416 -122.946C502.259 -122.719 502.105 -122.496 501.943 -122.272C501.874 -122.17 501.8 -122.071 501.727 -121.953L501.511 -121.662C501.356 -121.451 501.206 -121.24 501.048 -121.022L500.809 -120.702C500.762 -120.635 500.71 -120.571 500.659 -120.507C500.479 -120.271 500.291 -120.034 500.111 -119.8C500.03 -119.695 499.946 -119.592 499.861 -119.48C499.707 -119.285 499.545 -119.093 499.386 -118.897C499.302 -118.795 499.221 -118.692 499.136 -118.577L498.89 -118.283L498.761 -118.132C498.555 -117.885 498.345 -117.639 498.131 -117.392L497.903 -117.139C497.715 -116.924 497.534 -116.709 497.327 -116.497L497.088 -116.228L496.984 -116.122C496 -115.054 494.98 -114.016 493.923 -113.01L493.834 -112.926C493.579 -112.685 493.317 -112.447 493.058 -112.206L492.651 -111.829C492.632 -111.816 492.617 -111.804 492.603 -111.788C492.384 -111.594 492.162 -111.401 491.944 -111.205L491.433 -110.757C491.307 -110.648 491.177 -110.541 491.063 -110.435L490.767 -110.184C490.578 -110.026 490.396 -109.862 490.2 -109.71L489.636 -109.255L489.533 -109.174L488.921 -108.684L488.528 -108.386L488.261 -108.177L487.612 -107.689L487.437 -107.559L486.955 -107.204L486.272 -106.715L485.975 -106.505L485.603 -106.255L484.89 -105.769L484.853 -105.747L484.24 -105.335L483.497 -104.849L482.854 -104.44L482.062 -103.953C481.854 -103.826 481.645 -103.699 481.433 -103.575C481.151 -103.406 480.864 -103.25 480.581 -103.078L480.429 -102.99L479.99 -102.739C479.666 -102.557 479.342 -102.38 479.014 -102.201C478.85 -102.113 478.687 -102.019 478.519 -101.931C478.024 -101.665 477.525 -101.407 477.029 -101.156C473.304 -99.2731 469.34 -97.6641 465.903 -95.4171C461.935 -92.8221 458.787 -89.4721 455.384 -86.3671C448.762 -80.3271 441.098 -75.1611 432.646 -71.0431C430.104 -69.8061 427.342 -68.5331 426.031 -66.3261C424.72 -64.1191 425.922 -60.7461 428.838 -60.5291C441.525 -68.1331 454.838 -74.9661 468.677 -80.9741C472.135 -82.4741 475.728 -83.9881 478.27 -86.4661C480.222 -88.3661 481.425 -90.7041 482.822 -92.9151C490.291 -104.724 503.357 -112.989 512.083 -124.043C520.58 -134.803 526.532 -147.586 533.234 -159.186C535.361 -162.869 537.487 -166.593 538.699 -170.553C540.236 -175.557 540.272 -180.779 540.31 -185.937C540.341 -191.515 540.367 -197.13 539.132 -202.601C539.104 -202.736 539.068 -202.871 539.035 -203.009C541.402 -198.092 543.837 -193.189 546.592 -188.436C551.357 -180.262 556.231 -174.482 561.659 -171.023L561.45 -171.152C570.241 -160.605 580.398 -156.405 591.917 -158.547C596.566 -159.411 600.747 -163.884 605.267 -163.051C606.022 -162.896 606.4 -162.789 606.718 -162.217C607.515 -160.681 605.433 -157.432 604.176 -155.589L604.07 -155.435C601.655 -151.877 598.452 -148.74 594.632 -146.196C595.429 -148.994 595.122 -151.962 592.61 -152.878C587.337 -154.802 582.1 -146.498 576.482 -147.546C571.15 -148.551 570.555 -155.731 565.777 -157.927C562.413 -159.468 555.101 -160.897 554.25 -157.725C553.039 -153.244 560.632 -150.176 562.522 -145.875C563.399 -143.874 564.2 -140.855 562.258 -139.473C556.205 -135.087 541.442 -131.626 528.89 -122.13C516.337 -112.634 507.254 -101.179 496.845 -84.7101C489.181 -79.3781 481.806 -74.0131 474.891 -68.6431C475.262 -68.9081 475.633 -69.1711 476.031 -69.4301C473.962 -67.8161 471.953 -66.1801 469.971 -64.5491L469.356 -64.0361L469.89 -64.2321C450.643 -57.1731 432.903 -47.7311 415.159 -38.2841C403.243 -31.9311 391.282 -25.5732 378.876 -19.9372C296.095 17.5884 207.129 39.0391 115.488 53.8608L111.672 54.4829C77.3553 60.1321 67.463 77.9805 92.6334 71.7745C215.381 41.5559 338.054 11.3481 454.128 -36.8651C462.605 -40.3871 471.118 -43.8441 479.623 -47.2941C533.345 -69.0921 586.667 -90.7321 628.314 -127.934C675.956 -170.515 716.48 -217.189 723.824 -277.891C726.899 -303.698 719.891 -326.873 693.131 -342.841C691.277 -343.964 688.883 -344.408 686.474 -344.855L686.202 -344.907C685.848 -344.974 685.479 -344.967 685.124 -344.895C684.772 -344.819 684.443 -344.681 684.165 -344.48C683.883 -344.283 683.662 -344.036 683.516 -343.756C683.371 -343.475 683.301 -343.171 683.317 -342.865L683.318 -342.837C683.414 -341.008 683.513 -339.192 684.144 -337.52C699.012 -297.858 655.344 -229.596 607.391 -217.551C583.989 -211.644 570.163 -223.214 558.184 -236.18L556.383 -238.152C533.323 -263.266 504.708 -279.966 466.317 -283.784C465.316 -283.893 464.376 -284.337 463.432 -284.785C462.962 -285.007 462.492 -285.229 462.012 -285.41C462.486 -285.586 462.948 -285.799 463.415 -286.009C464.293 -286.47 465.254 -286.805 466.261 -287.006C475.289 -288.517 484.163 -287.381 492.966 -285.818L494.787 -285.487C495.816 -285.318 496.871 -285.207 497.921 -285.115C498.636 -285.046 499.351 -284.976 500.052 -284.887C499.385 -285.191 498.745 -285.496 498.107 -285.838C497.163 -286.355 496.17 -286.811 495.137 -287.194C490.38 -288.872 485.597 -290.525 480.802 -292.183C477.524 -293.313 474.249 -294.449 470.971 -295.588L470.593 -295.717C465.442 -297.543 462.09 -299.672 460.961 -305.552L460.892 -305.866C459.624 -311.096 453.012 -310.318 447.671 -309.688L447.318 -309.647L446.846 -309.592L446.358 -309.539L443.653 -309.268C407.003 -305.519 373.412 -293.598 339.858 -281.687C335.518 -280.137 331.177 -278.603 326.833 -277.085L322.35 -275.523L321.45 -275.214L320.497 -274.882L318.764 -274.283C302.733 -268.761 286.582 -263.195 273.634 -252.925C264.83 -245.907 264.288 -238.215 272.595 -230.813L272.885 -230.549C278.931 -225.04 275.837 -222.492 269.275 -220.534L268.651 -220.353C260.251 -217.997 251.524 -218.653 242.921 -219.307C234.167 -219.972 225.541 -220.63 217.528 -218.075C167.468 -202.025 121.414 -179.812 90.4211 -141.741C74.7758 -122.53 86.1805 -101.12 116.179 -84.3911C132.373 -75.4041 150.435 -70.0411 168.52 -64.6681C173.534 -63.1781 178.547 -61.6871 183.524 -60.1261C184.098 -59.9501 184.703 -59.7811 185.318 -59.6081C189.307 -58.4941 193.775 -57.2311 193.843 -53.3181C193.848 -49.1771 189.123 -47.9361 185.03 -46.8521L184.697 -46.7641L181.947 -46.0211C149.086 -37.3261 115.33 -37.4221 81.4741 -38.2931L78.1953 -38.3771C68.7945 -38.6551 59.5076 -38.8691 50.1299 -38.8941L49.2357 -38.8791C45.0187 -38.8841 40.3056 -38.8901 38.3402 -35.2171C36.7242 -32.1961 38.8445 -29.7961 40.9265 -27.4403C41.5591 -26.7222 42.1879 -26.0072 42.7079 -25.2808C43.2556 -24.4887 43.9659 -23.6299 44.6876 -22.7619C46.5226 -20.556 48.4076 -18.2816 47.7332 -16.8684C46.3888 -14.0042 42.485 -14.3685 38.8972 -14.713C38.0465 -14.7929 37.2145 -14.873 36.4398 -14.9069L35.2321 -14.971C-4.61752 -17.3087 -48.3467 -44.6721 -69.2367 -76.5911L-69.123 -76.5421L-66.9164 -75.6561L-65.9098 -75.2601L-64.907 -74.8671L-64.668 -74.5241C-50.38 -54.1501 -28.667 -39.2491 0.0083313 -29.6271C8.00821 -26.9256 14.1565 -27.1655 12.9177 -37.8471L12.8638 -38.3481C11.5189 -52.3101 23.1187 -51.1531 32.8246 -50.1921C34.421 -50.0341 35.9645 -49.8811 37.3903 -49.8011L42.8496 -49.4611C46.3602 -49.2341 49.8822 -48.9991 53.4155 -48.7551L53.4794 -48.7571C60.5498 -48.2741 67.6202 -47.7941 74.6887 -47.4221L81.0454 -46.7031L85.9036 -46.1411L87.3572 -45.9711L91.3494 -45.5001L92.856 -45.3181L97.2174 -44.7851L98.3209 -44.6501C100.182 -44.4211 102.046 -44.1881 103.93 -43.9461C106.509 -43.6721 109.108 -43.5671 111.707 -43.6341C119.654 -43.7441 129.997 -44.8561 135.055 -47.2921C136.143 -47.8161 136.791 -48.8091 137.189 -49.8891L139.873 -50.2771C144.33 -50.9451 148.988 -51.9641 149.725 -56.0491C150.437 -60.0031 146.066 -61.9601 142.074 -63.7461C141.092 -64.1871 140.138 -64.6151 139.284 -65.0611L137.877 -65.7881C135.405 -67.0611 132.921 -68.3111 130.438 -69.5621C119.237 -75.2031 108.067 -80.8191 98.2173 -88.2691C75.0311 -105.749 70.1229 -129.21 89.6282 -149.701C121.032 -182.699 163.514 -203.989 206.875 -223.962L212.599 -226.587C214.836 -227.573 217.591 -228.435 219.921 -228.227C236.703 -226.913 254.22 -240.084 264.407 -255.299C265.674 -257.193 263.042 -259.221 260.894 -258.006C245.561 -249.32 229.833 -234.829 218.078 -232.847C208.26 -231.192 198.363 -229.526 190.51 -224.061L187.91 -222.264C175.953 -214.165 163.262 -206.81 150.567 -199.451H150.544C140.26 -193.489 129.968 -187.524 120.071 -181.164C120.302 -183.233 118.617 -184.987 116.649 -186L118.534 -187.198L123.854 -190.536C127.077 -192.564 130.296 -194.603 133.519 -196.645C154.283 -209.816 175.185 -223.074 197.793 -233.576C218.241 -243.086 238.191 -253.415 258.152 -263.75C307.69 -289.408 357.229 -315.085 414.617 -328.16C466.471 -340.021 516.115 -341.329 561.907 -313.794C564.486 -312.201 567.073 -310.232 568.837 -307.993C569.221 -307.498 569.64 -307.007 570.047 -306.512C573.264 -302.604 580.811 -295.318 575.092 -293.305L569.936 -294.951C566.651 -296.472 566.514 -298.499 562.356 -300.955C561.426 -301.482 560.437 -301.935 559.445 -302.391C559.043 -302.576 558.638 -302.762 558.24 -302.951C558.172 -302.984 558.092 -303.002 558.013 -303.004C557.934 -303.005 557.856 -302.988 557.785 -302.959C557.714 -302.926 557.655 -302.884 557.611 -302.826C557.566 -302.772 557.537 -302.708 557.531 -302.642C557.498 -302.379 557.461 -302.116 557.425 -301.854C557.224 -300.837 557.182 -299.807 557.302 -298.784C558.15 -293.259 556.922 -290.403 548.786 -291.394L547.181 -291.606C541.211 -292.401 533.744 -293.401 530.532 -288.557C527.695 -284.256 531.713 -281.021 535.475 -277.994C536.554 -277.122 537.613 -276.273 538.481 -275.417C549.474 -264.463 560.471 -253.51 572.119 -243.136C587.512 -229.426 604.839 -229.602 621.817 -241.106C642.576 -255.259 659.155 -272.422 670.203 -293.018C678.188 -307.932 677.522 -322.001 668.805 -334.538C663.515 -347.163 649.703 -358.117 627.427 -367.614C602.814 -378.09 576.636 -382.895 550.143 -386.577C548.669 -387.233 547.339 -388.283 546.017 -389.323C545.586 -389.663 545.159 -389.999 544.725 -390.326C544.508 -390.484 544.377 -390.709 544.35 -390.948C544.327 -391.188 544.417 -391.429 544.601 -391.615C545.004 -392.023 545.395 -392.456 545.789 -392.899C547.032 -394.277 548.274 -395.656 549.867 -396.145C585.306 -407.281 625.652 -416.722 656.424 -398.952C687.268 -381.183 718.57 -358.669 732.941 -326.176C744.708 -299.523 741.324 -272.91 731.424 -246.896L731.53 -247.065ZM221.059 -182.226C250.16 -183.757 294.138 -159.116 309.92 -179.782L311.552 -182.512C322.046 -196.268 300.331 -192.139 285.351 -192.471C274.786 -192.716 263.796 -194.275 252.922 -195.402L254.708 -195.117L255.752 -194.953C250.736 -195.749 245.743 -196.517 241.055 -197.221L227.221 -199.3C226.709 -199.376 226.186 -199.398 225.668 -199.364C195.528 -197.313 174.942 -184.906 155.12 -171.575L150.84 -168.688C150.576 -168.547 150.507 -168.19 150.434 -167.832C150.407 -167.689 150.379 -167.547 150.34 -167.42C150.659 -167.463 150.978 -167.494 151.301 -167.506C151.846 -167.503 152.382 -167.597 152.882 -167.78C163.019 -172.038 173.42 -175.83 184.04 -179.14L182.276 -178.163C182.015 -178.019 181.797 -177.823 181.647 -177.593C181.497 -177.36 181.415 -177.103 181.408 -176.841C181.405 -176.579 181.477 -176.318 181.62 -176.087C181.763 -175.853 181.974 -175.654 182.232 -175.507C193.95 -168.875 208.06 -181.51 221.048 -182.182L221.059 -182.226ZM147.139 -88.5681C129.237 -95.7331 115.639 -110.378 142.958 -125.481C159.709 -134.747 180.081 -138.319 197.992 -145.907C203.294 -148.156 201.423 -154.155 196.25 -155.517C190.39 -157.084 184.311 -158.013 178.161 -158.285V-158.316L177.911 -158.394L175.334 -159.211L174.094 -159.602L171.974 -160.285C139.96 -159.221 102.364 -138.355 99.2147 -120.921C97.0295 -108.73 117.779 -88.9421 132.552 -89.2631C132.938 -89.2851 133.32 -89.3641 133.675 -89.4981L134.049 -89.6051L134.3 -89.6731C134.21 -89.8641 134.12 -90.0641 134.034 -90.2681C133.789 -90.9191 133.437 -91.5381 132.983 -92.1051C132.523 -92.6051 132.079 -93.0931 131.646 -93.5751L132.6 -92.5281C136.141 -90.9641 139.783 -90.1281 144.687 -89.0771L147.211 -88.5471L147.139 -88.5681Z" fill="#5596DC"/>
</g>
<defs>
<clipPath id="clip0_2_2">
<rect width="1440" height="264" fill="white"/>
</clipPath>
</defs>
</svg>
