<svg width="1656" height="230" viewBox="0 0 1656 230" fill="none" xmlns="http://www.w3.org/2000/svg">
<g clip-path="url(#clip0_5810_147659)">
<g opacity="0.2">
<path d="M1453.94 188.402C1425.89 185.625 1394.25 185.348 1368.47 188.761C1370.36 188.166 1372.23 187.473 1374.05 186.687V186.687C1383.56 182.822 1436.22 154.981 1466.87 158.016C1512.05 159.621 1524.93 177.064 1547.44 186.851C1568.9 196.183 1548.5 208.924 1541.82 213.226C1539.68 214.602 1537.4 216.071 1535.79 217.857C1535.21 213.389 1534.7 210.162 1534.7 210.162C1524.29 198.234 1482.01 191.191 1453.96 188.414" fill="#4195C4"/>
<path d="M1117.1 46.4686C1101.25 51.8265 1088.17 58.0253 1076.98 65.2145C1049.36 82.9607 1033.25 106.746 1015.36 138.869C988.486 187.051 943.788 217.797 894.087 245.137C882.792 251.354 871.226 257.397 859.56 263.429L850.189 268.268C849.298 268.728 848.446 269.178 847.603 269.619L847.378 269.74L846.496 270.206L845.565 270.703C845.221 270.887 844.888 271.063 844.554 271.248C844.22 271.434 843.868 271.612 843.539 271.793L842.719 272.241L841.609 272.851L841.006 273.181L839.772 273.867L839.477 274.033C835.588 276.22 832.296 278.193 829.451 280.005L829.322 280.085L828.261 280.769L828.072 280.895L827.081 281.53L826.856 281.684L825.961 282.287L825.716 282.458L824.879 283.035L824.62 283.218C824.356 283.401 824.119 283.591 823.841 283.772L823.571 283.964C823.321 284.143 823.071 284.318 822.835 284.499L822.565 284.695L821.868 285.216L821.598 285.417L820.935 285.922L820.663 286.132L820.034 286.622L819.762 286.837L819.157 287.32L818.894 287.536C818.698 287.693 818.501 287.85 818.309 288.012L818.041 288.227L817.479 288.696L817.216 288.92L816.669 289.382C816.583 289.452 816.496 289.527 816.415 289.602L815.872 290.064L815.623 290.286L815.112 290.75L814.853 290.98L814.343 291.436L814.088 291.666L813.579 292.121L813.314 292.36L812.804 292.816C812.728 292.887 812.65 292.963 812.569 293.034L812.057 293.522L811.938 293.635L810.529 294.93C802.495 302.307 792.712 311.307 764.806 328.941L762.053 330.675C747.862 339.545 732.927 346.47 717.637 352.515C727.528 347.35 737.419 342.177 747.311 336.997L754.936 333.002L747.51 336.868C737.492 342.095 727.475 347.333 717.459 352.581C712.141 354.673 706.784 356.677 701.388 358.591C693.821 361.301 686.204 363.894 678.579 366.487C649.111 376.5 619.508 386.556 592.376 403.784C572.251 416.561 558.615 435.961 544.904 455.466C534.003 470.972 523.058 486.548 508.769 498.909C507.586 499.929 506.205 500.977 504.661 502.082C493.862 509.71 475.006 518.763 458.826 526.531C450.049 530.769 442.03 534.618 436.541 537.622C435.755 538.055 435.024 538.472 434.346 538.872C435.991 537.039 437.476 535.027 438.967 533.01C438.966 532.995 438.967 532.979 438.971 532.964C439.231 532.615 439.388 532.201 439.424 531.767C439.461 531.333 439.375 530.898 439.178 530.511C438.98 530.123 438.678 529.799 438.305 529.574C437.933 529.349 437.505 529.233 437.07 529.238L436.498 529.246C432.57 529.289 428.623 529.335 425.385 530.899C386.651 549.574 363.75 583.338 344.761 619.713L343.695 621.757C326.255 655.197 309.997 689.679 322.676 729.51C322.773 729.696 322.627 730.002 322.429 730.312C322.327 730.484 322.24 730.665 322.171 730.853C321.932 730.458 321.673 730.075 321.414 729.687C320.87 728.941 320.403 728.142 320.02 727.302C306.006 692.85 309.41 657.532 323.081 625.255L324.895 621.01C326.324 617.604 327.754 614.196 329.185 610.788C356.953 544.558 385.158 477.295 443.695 431.38C483.918 399.786 530.993 379.737 578.012 359.733C592.07 353.747 606.128 347.765 619.988 341.481L623.021 340.11C625.882 338.815 628.751 337.526 631.627 336.245C671.819 318.225 712.124 300.156 742.534 266.096C761.975 244.471 751.894 224.97 741.791 205.415C741.008 203.945 740.255 202.449 739.502 200.963L737.85 197.665C735.065 192.306 731.771 187.226 728.013 182.497C718.479 170.326 711.227 163.191 704.434 161.079C714.546 157.901 723.488 157.254 730.169 153.463C741.926 146.794 740.259 129.306 749.234 119.278C751.793 118.71 755.2 118.012 757.333 117.201C767.22 113.426 774.243 103.655 782.02 96.2442C808.757 70.7679 854.506 57.5935 866.817 48.1053C879.499 38.3335 899.423 38.1938 914.656 40.7376C923.101 42.1496 930.574 46.3997 938.559 49.1822C946.719 52.0239 955.071 51.2352 963.459 49.851C972.781 48.3132 982.646 46.4995 991.442 49.9566C991.937 50.0927 992.367 50.4002 992.656 50.8244C992.835 51.2931 992.849 51.8085 992.697 52.2864C991.089 60.0902 988.926 64.2964 982.673 69.5879C978.958 72.7303 974.291 74.5155 969.68 76.0276C929.183 89.281 883.224 90.2789 843.656 106.118C836.886 108.841 828.064 115.211 829.641 121.051C835.077 135.124 843.751 128.043 852.295 119.635C862.389 109.7 879.193 102.003 909.791 101.221C950.791 100.173 964.432 88.6528 1000.61 74.1732C1046.42 55.8319 1102 33.6025 1170.03 31.9805C1173.04 31.9099 1176.07 31.8804 1179.13 31.8921C1154.49 35.9068 1134.19 40.7082 1117.11 46.4833" fill="#A4DFD9"/>
<path d="M203.959 205.398C191.999 195.169 181.403 183.069 173.877 169.188C158.757 141.3 140.391 106.44 182.56 87.7293C203.769 78.3143 226.768 108.126 245.807 112.049C254.029 113.746 261.396 114.842 269.491 111.492C271.514 110.686 273.484 109.754 275.39 108.701C275.879 108.452 276.337 108.187 276.801 107.912C278.646 106.822 280.425 105.624 282.129 104.326C282.982 103.686 283.822 103.026 284.645 102.36L285.878 101.354C294.534 94.1644 303.831 86.2768 309.018 76.0415C326.038 84.4084 334.713 94.4748 328.384 106.529C319.967 122.559 296.056 126.669 274.049 130.456C236.652 136.885 204.768 142.368 263.853 203.784C268.417 208.526 270.852 214.789 272.459 221.774C266.478 226.331 260.194 230.148 253.012 231.586C237.854 234.617 215.465 215.244 203.955 205.393" fill="#4CBEB3"/>
<path d="M25.4577 339.732C21.9426 356.099 25.3764 382.334 42.5942 390.015C52.2218 394.307 65.3607 393.616 73.6342 400.703C82.6991 408.473 78.7224 424.813 79.478 435.47C80.3954 448.385 78.7292 461.133 76.7738 473.94C74.1184 491.544 72.9372 509.339 73.2426 527.14L71.9116 529.093L71.8841 529.137L69.0105 533.352C59.2382 547.637 49.3168 563.1 45.7865 580.325C41.8755 599.472 48.4558 616.203 60.0469 631.285C60.3018 631.524 60.2027 632.15 60.1136 632.722C60.0953 632.905 60.078 633.08 60.0621 633.241C59.7614 633.183 59.4501 633.139 59.1475 633.099C58.2467 633.033 57.365 632.805 56.5441 632.428C38.2261 621.978 30.6363 602.547 30.3732 582.555C30.0918 562.748 35.5432 543.754 41.4157 524.68C43.2169 518.823 45.0042 512.964 46.6418 507.117C50.0029 495.118 53.8645 478.957 47.1562 467.316C41.2152 456.977 28.1206 453.233 17.3234 450.72C-1.73914 446.288 -15.4632 430.145 -16.9526 410.534C-18.1206 395.133 -20.978 377.238 -34.5274 367.632C-47.0104 358.79 -64.5081 358.859 -79.0955 358.845C-99.5238 358.828 -115.615 346.29 -120.178 327.428C-124.823 308.219 -110.124 282.159 -103.305 263.839C-96.7198 246.151 -91.3512 228.04 -86.0843 209.924C-82.2612 196.777 -78.4989 179.835 -69.9481 169.96C-62.3672 161.207 -56.2625 147.9 -50.8939 136.963C-41.446 117.794 -32.3651 98.4392 -24.5532 78.5367C-14.4868 52.8862 -5.6473 1.31678 29.4597 3.00542C39.2242 3.47547 46.5434 5.99241 48.3081 16.54C49.189 21.7115 48.0739 27.2518 46.7997 32.2424C44.8618 39.8557 42.1792 48.4726 46.3656 55.8519C50.5521 63.2312 59.0926 70.763 59.5489 79.5188C60.2357 92.6527 51.59 107.518 46.2609 118.9C44.6596 122.317 43.8456 125.849 43.1089 129.444C42.7748 131.083 42.4541 132.727 42.0829 134.367C36.6753 158.217 32.1911 183.199 35.0308 207.086C36.1049 216.121 39.6637 225.384 38.5578 234.162C34.3923 267.226 32.7729 305.948 25.5046 339.727" fill="#4CBEB3"/>
<path d="M1293.28 120.403C1223.05 121.151 1143.18 122 1101.23 152.461C1020.23 211.302 987.572 233.281 924.811 263.376C817.108 315.051 712.192 371.816 610.065 433.673C609.234 434.185 608.39 434.696 607.541 435.206C599.544 440.042 591.158 445.113 587.747 454.995C553.424 470.002 518.583 513.504 455.655 540.499C455.103 540.733 454.549 540.984 453.996 541.264C453.797 541.356 453.596 541.461 453.392 541.557L452.361 542.068L451.44 542.552L450.813 542.889C433.495 552.346 414.604 572.819 400.61 591.946C407.169 579.632 414.238 567.563 421.422 555.59L427.829 544.95L431.727 541.455C432.636 540.649 433.497 539.79 434.304 538.882C434.978 538.478 435.71 538.062 436.498 537.632C441.989 534.605 449.994 530.764 458.788 526.541C474.963 518.773 493.82 509.719 504.618 502.092C506.161 501 507.543 499.939 508.726 498.919C523.016 486.557 533.96 470.981 544.861 455.475C558.572 435.971 572.208 416.571 592.334 403.794C619.466 386.566 649.068 376.51 678.536 366.497C686.162 363.904 693.778 361.31 701.345 358.601C706.727 356.673 712.087 354.691 717.401 352.599L708.499 357.252L717.586 352.52C732.889 346.476 747.829 339.551 762.001 330.679L764.754 328.946C792.659 311.325 802.446 302.325 810.477 294.935L811.887 293.639L812.005 293.526L812.518 293.038C812.599 292.967 812.676 292.891 812.753 292.82L813.262 292.364L813.527 292.126L814.037 291.67L814.292 291.44L814.801 290.984L815.061 290.755L815.571 290.29L815.821 290.068L816.363 289.607C816.449 289.532 816.531 289.456 816.617 289.386L817.164 288.925L817.428 288.7L817.99 288.231L818.257 288.016C818.45 287.854 818.646 287.697 818.843 287.54L819.106 287.325L819.711 286.841L819.983 286.627L820.612 286.136L820.883 285.926L821.546 285.421L821.817 285.22C822.047 285.048 822.278 284.871 822.518 284.7L822.784 284.503C823.024 284.323 823.283 284.149 823.519 283.968L823.789 283.777C824.044 283.593 824.29 283.404 824.568 283.222L824.828 283.039L825.665 282.463L825.909 282.292L826.805 281.689L827.029 281.534L828.021 280.899L828.21 280.774L829.271 280.089L829.4 280.009C832.245 278.188 835.537 276.215 839.426 274.037L839.721 273.871L840.954 273.186L841.558 272.855L842.668 272.246L843.488 271.798C843.817 271.617 844.16 271.432 844.503 271.253C844.845 271.073 845.17 270.892 845.513 270.707L846.445 270.21L847.552 269.623L850.142 268.273L861.397 262.46C863.4 261.42 865.415 260.381 867.44 259.344C876.006 254.936 884.829 250.386 894.036 245.136C943.737 217.797 988.435 187.055 1015.31 138.869C1033.22 106.747 1049.32 82.9622 1076.93 65.2141C1087.9 58.05 1102 51.6364 1117.05 46.4682C1134.13 40.6931 1154.43 35.8917 1179.07 31.877C1176.01 31.8622 1172.98 31.8918 1169.97 31.9655C1172.07 31.7343 1174.17 31.6127 1176.28 31.6011C1292.57 31.7401 1447.45 44.3178 1425.99 94.7777C1415.65 119.101 1358.61 119.707 1293.23 120.403L1293.28 120.403ZM695.494 364.048L695.004 364.311L694.646 364.498L694.037 364.832C693.702 364.938 693.369 365.063 693.031 365.197C692.692 365.331 692.355 365.455 692.02 365.561C691.828 365.682 691.646 365.82 691.478 365.972L691.009 366.39C690.673 366.496 690.336 366.625 690.002 366.754C689.669 366.884 689.327 367.008 688.991 367.119L688.982 367.211C689.318 367.105 689.656 366.975 689.993 366.846C690.331 366.717 690.664 366.592 691 366.482L691.129 366.402C691.188 366.361 691.248 366.316 691.309 366.266C691.389 366.205 691.466 366.138 691.537 366.075L692.01 365.658C692.198 365.588 692.397 365.506 692.605 365.42L693.087 365.24C693.372 365.124 693.661 365.018 693.954 364.926C694.684 364.581 695.42 364.185 696.153 363.774L696.492 363.585L695.494 364.048Z" fill="#4CBEB3"/>
<path d="M1518.18 426.714C1517.66 429.829 1516.31 432.736 1513.94 434.828C1512.93 435.728 1511.74 436.402 1510.45 436.804C1504.48 438.641 1502.1 433.075 1500 429.32C1499.09 427.596 1498.06 425.935 1496.92 424.349L1496.89 424.309L1496.65 424.006L1496.63 423.976C1496.63 423.976 1496.63 423.976 1496.63 423.953L1496.61 423.923C1496.48 423.767 1496.35 423.619 1496.22 423.472L1496.12 423.36L1495.93 423.151L1495.89 423.104L1495.65 422.617C1495.33 421.986 1495.01 421.355 1494.69 420.71L1493.76 418.844C1481.52 394.672 1467.73 377.942 1452.35 365.638C1447.86 362.049 1443.15 358.753 1438.24 355.771C1436.9 354.952 1435.55 354.157 1434.18 353.387C1416.4 343.324 1396.8 337.047 1375.28 330.84L1370.65 329.508C1369.87 329.05 1369.07 328.594 1368.26 328.143L1367.86 327.913C1365.06 326.345 1362.19 324.823 1359.25 323.346C1330.19 308.674 1299.31 297.948 1267.41 291.454C1235.65 284.98 1203.07 282.673 1170.69 283.585C1138.14 284.5 1105.6 288.511 1073.63 294.577C1065.92 296.042 1058.21 297.605 1050.56 299.369C1037.44 302.277 1024.47 305.869 1011.71 310.129C999.581 314.24 987.607 319.118 976.398 325.354L975.843 325.661L975.745 325.712C975.03 326.115 974.318 326.524 973.608 326.94C971.835 327.967 970.017 330.382 969.836 332.217C969.825 332.352 969.842 332.488 969.884 332.616L969.881 332.644C969.903 332.71 969.929 332.775 969.96 332.837L969.957 332.869C969.992 332.938 970.032 333.002 970.071 333.071C971.201 334.794 973.269 336.318 975.441 337.647C976.095 338.05 976.659 338.584 977.096 339.216C977.533 339.848 977.834 340.564 977.98 341.318C978.126 342.073 978.113 342.849 977.943 343.598C977.773 344.348 977.449 345.053 976.991 345.671C976.989 345.694 976.959 345.714 976.944 345.726C974.226 349.074 969.627 351.159 965.963 353.461C956.545 359.385 947.001 365.114 937.331 370.647C930.154 374.761 925.904 378.802 922.818 386.52C922.615 387.029 929.612 390.127 930.412 390.392C933.303 391.347 936.215 391.246 939.222 391.265C940.372 391.281 941.541 391.285 942.661 391.331C943.364 391.354 944.053 391.334 944.779 391.318L945.21 391.324C906.976 410.015 844.691 421.469 814.91 427.087C786.621 432.978 744.494 453.28 745.647 451.338C767.492 414.117 829.626 386.328 851.797 373.428L853.188 372.605C853.181 372.674 853.175 372.738 853.196 372.81L853.206 372.983C853.2 373.047 853.226 373.11 853.234 373.176C853.241 373.242 853.256 373.276 853.265 373.328L853.261 373.369C853.271 373.424 853.285 373.478 853.301 373.531C853.321 373.606 853.346 373.68 853.376 373.752C853.377 373.761 853.377 373.771 853.374 373.78C853.374 373.78 853.369 373.821 853.4 373.843C853.43 373.864 853.446 373.945 853.469 373.993C853.492 374.042 853.522 374.115 853.553 374.173L853.636 374.316L853.778 374.53L853.798 374.56C857.593 379.885 869.997 380.942 874.807 377.104C880.455 372.579 884.164 366.358 888.699 360.836C888.768 360.745 888.838 360.655 888.911 360.569C906.168 339.679 932.521 329.892 956.982 320.227C959.562 319.206 962.136 318.165 964.716 317.144C1003.87 301.552 1044.42 290.644 1085.87 282.908C1086.13 282.846 1086.39 282.769 1086.65 282.683L1086.77 282.644C1087.12 282.526 1087.47 282.394 1087.82 282.261L1088.44 282.021L1088.92 281.864L1089.23 281.761L1088.82 281.719C1088.53 281.668 1088.24 281.639 1087.95 281.633L1087.9 281.628C1087.76 281.631 1087.62 281.648 1087.48 281.679L1086.02 281.93C1104.45 277.751 1119.9 274.605 1128.63 273.612L1132.39 273.19C1188.14 267.033 1248.44 266.434 1307.03 267.917C1310.38 268.001 1313.72 268.094 1317.05 268.195L1324.92 268.44L1326.53 268.813C1356.04 275.658 1384.49 285.695 1411 300.495C1437.51 315.295 1461.12 334.478 1480.5 357.815C1488.31 367.316 1495.43 377.366 1501.81 387.887C1505.05 393.185 1508.27 398.556 1511.11 404.079C1513.68 409.098 1516.86 413.963 1518 419.587C1518.48 421.93 1518.53 424.341 1518.15 426.701" fill="#E5C7A3"/>
<path d="M1447.13 257.199C1446.56 257.013 1445.99 256.822 1445.43 256.623L1445.26 256.559C1436.46 253.451 1428.13 248.725 1419.82 244.007C1416.4 242.061 1412.98 240.126 1409.54 238.304L1409.35 238.196L1408.35 237.675L1407.97 237.48L1407.01 236.986L1406.74 236.852C1406.15 236.552 1405.56 236.27 1404.97 235.966L1404.47 235.717L1403.65 235.324L1403.06 235.048L1402.25 234.671L1401.64 234.392C1401.19 234.19 1400.75 233.993 1400.3 233.795L1399.6 233.489L1398.84 233.172L1398.17 232.892L1397.4 232.584L1396.7 232.315L1395.96 232.028C1395.51 231.867 1395.1 231.71 1394.67 231.561L1393.94 231.308L1393.21 231.059L1392.45 230.812L1391.72 230.587L1390.98 230.36L1390.04 230.095L1388.95 229.802L1388.16 229.602L1387.4 229.42L1386.65 229.253L1385.88 229.089L1385.06 228.933C1384.67 228.858 1384.28 228.792 1383.9 228.725C1383.6 228.696 1383.3 228.624 1382.98 228.579L1382.21 228.475L1381.44 228.375L1380.65 228.297C1380.38 228.271 1380.12 228.244 1379.85 228.218C1379.58 228.192 1379.35 228.168 1379.09 228.143C1378.63 228.097 1378.17 228.084 1377.71 228.061L1376.92 228.035L1376.12 228.021L1375.31 228.014L1374.51 228.028L1373.7 228.045L1372.61 228.1C1372.23 228.123 1371.84 228.149 1371.46 228.181L1370.63 228.252L1369.78 228.349L1368.98 228.446L1368.12 228.57L1367.27 228.708C1367.02 228.749 1366.79 228.782 1366.55 228.828C1363.88 229.316 1361.22 229.79 1358.55 230.251L1357.77 230.382C1355.46 230.773 1353.15 231.163 1350.84 231.554L1348.87 231.869C1346.95 232.18 1345.03 232.484 1343.11 232.78L1340.69 233.149C1338.9 233.417 1337.11 233.683 1335.33 233.945L1332.76 234.318L1327.45 235.064L1324.93 235.409C1323.07 235.661 1321.21 235.907 1319.35 236.147L1317.15 236.436C1314.88 236.731 1312.61 237.018 1310.33 237.297L1309.39 237.409C1306.75 237.732 1304.1 238.047 1301.45 238.355L1300.36 238.483C1298.13 238.742 1295.9 238.995 1293.67 239.241C1292.92 239.329 1292.17 239.408 1291.41 239.482C1289.53 239.689 1287.67 239.894 1285.81 240.097L1283.38 240.353L1277.82 240.936L1275.57 241.178C1273.56 241.387 1271.54 241.591 1269.52 241.791L1267.93 241.953C1257.24 243.019 1246.55 244.048 1235.85 245.041C1214.56 247.051 1193.26 249.065 1172.01 251.521L1171.54 251.572C1169.45 251.816 1167.34 252.063 1165.24 252.313L1163.83 252.484L1158.43 253.152L1156.63 253.378C1154.93 253.591 1153.24 253.81 1151.55 254.036L1149.62 254.286C1147.89 254.52 1146.17 254.756 1144.45 254.994L1142.74 255.225C1140.46 255.547 1138.18 255.873 1135.9 256.205C1135.74 256.232 1135.58 256.273 1135.42 256.325L1135.29 256.372L1134.94 256.514L1134.82 256.567L1134.44 256.761C1134.26 256.851 1134.08 256.944 1133.89 257.028C1134.33 257.071 1134.77 257.115 1135.21 257.158C1136.57 257.378 1137.94 257.475 1139.31 257.449C1182.77 254.708 1226.23 253.922 1269.38 259.026C1281.7 260.496 1293.87 262.292 1305.87 264.496L1306.28 264.57L1308.16 264.923L1309.72 265.222L1311.55 265.579L1313.14 265.894L1314.96 266.26L1316.62 266.605C1317.2 266.723 1317.78 266.841 1318.35 266.968C1319.41 267.188 1320.46 267.418 1321.51 267.647L1323.13 268.007L1324.9 268.405L1324.96 268.411L1317.09 268.166C1313.76 268.068 1310.42 267.976 1307.07 267.889C1248.45 266.402 1188.15 267.002 1132.4 273.159L1128.64 273.581C1119.9 274.573 1104.45 277.737 1086.03 281.898L1081.26 282.725L1080.73 282.817L1080.32 282.888C1078.52 283.198 1076.73 283.517 1074.95 283.833L1073.98 284.006C1015.98 294.314 958.816 307.185 905.708 332.785L905.625 332.828C904.627 333.308 903.63 333.794 902.634 334.287L902.473 334.364L899.543 335.824L899.362 335.918C898.385 336.406 897.407 336.904 896.429 337.401L896.263 337.487C895.282 338.009 894.302 338.531 893.322 339.053L893.233 339.1C888.106 341.805 883.026 344.645 877.996 347.62C875.588 349.048 873.287 350.648 871.109 352.408L871.049 352.458C870.63 352.792 870.22 353.133 869.81 353.477L869.699 353.568C869.304 353.901 868.913 354.234 868.527 354.571L868.385 354.697C868.008 355.031 867.636 355.361 867.264 355.7L867.1 355.851C866.738 356.182 866.375 356.517 866.017 356.853L865.842 357.022C865.489 357.358 865.135 357.695 864.785 358.036C864.724 358.09 864.663 358.149 864.606 358.209C864.256 358.55 863.907 358.892 863.575 359.24L863.41 359.409C863.059 359.76 862.708 360.115 862.376 360.472L862.231 360.62C861.87 360.988 861.512 361.362 861.16 361.731L861.066 361.833C860.688 362.227 860.31 362.626 859.936 363.026C859.419 363.555 858.949 364.089 858.464 364.621L857.917 365.217L857.63 365.537L857.448 365.737L856.796 366.457L855.722 367.651C854.496 369.053 853.723 370.324 853.403 371.465C853.361 371.615 853.327 371.767 853.302 371.92C853.302 371.92 853.302 371.92 853.299 371.957C853.276 372.095 853.262 372.235 853.257 372.375L853.244 372.513C853.24 372.554 853.235 372.596 853.232 372.633L851.841 373.456C829.669 386.356 767.541 414.145 745.691 451.365C734.99 460.59 719.383 471.108 692.797 483.798C664.297 497.399 632.264 502.371 603.459 515.301L602.944 515.529C586.265 522.852 528.904 540.62 507.692 551.753C421.727 596.87 399.454 625.941 385.271 649.364L383.535 652.265L383.436 650.459C383.377 649.413 383.304 648.361 383.233 647.3C382.898 642.428 382.557 637.482 383.072 632.704C383.342 629.858 384.025 627.067 385.1 624.417C389.716 613.336 394.983 602.542 400.629 591.939C415.935 571.005 437.117 548.456 455.679 540.497C518.607 513.502 553.448 470 587.77 454.993C589.24 454.497 590.714 454.024 592.192 453.573L592.556 453.456L594.539 452.84L594.716 452.788L596.633 452.193L598.501 451.616L599.779 451.223L600.555 450.979L602.655 450.319L603.612 450.024L604.769 449.646L606.363 449.117L607.497 448.732L608.69 448.312L609.652 447.971C610.211 447.77 610.77 447.561 611.325 447.351L612.223 447.004C612.696 446.825 613.164 446.639 613.629 446.447L614.471 446.103C614.984 445.889 615.498 445.671 616.013 445.443L616.463 445.255C628.567 439.875 640.489 434.169 652.293 428.201C725.761 391.166 794.33 344.856 869.676 311.36C884.198 304.907 898.783 298.648 913.431 292.583C916.093 279.771 931.228 272.987 944.171 268.84C1014.86 246.202 1081.23 216.767 1153.62 198.072C1160.18 196.377 1166.79 194.677 1173.55 194.19C1182.84 193.522 1192.13 195.176 1201.44 195.392C1222.46 195.886 1242.88 189.108 1263.56 185.325C1296.71 179.344 1330.78 181.008 1363.19 190.189L1368.51 188.747C1394.31 185.354 1425.96 185.613 1453.98 188.388C1482.01 191.163 1524.31 198.208 1534.72 210.136C1534.72 210.136 1535.24 213.364 1535.81 217.831C1536.52 223.259 1537.31 230.516 1537.31 236.065C1538 268.463 1479.94 267.748 1447.16 257.189" fill="#A4DFD9"/>
<path d="M471.862 110.298C466.832 114.995 460.982 118.744 455.903 123.385C448.246 130.372 432.843 140.329 415.538 155.661C404.826 160.307 395.084 167.528 386.992 176.008C373.678 189.952 364.293 207.131 355.885 224.468C342.656 251.764 331.092 280.164 322.359 309.234C318.101 323.387 319.066 329.305 322.577 330.149C319.643 335.551 316.5 340.812 313.148 345.931C288.66 383.215 247.876 403.971 220.859 438.321C204.391 459.265 180.34 469.769 172.571 473.907C133.789 494.555 92.4897 541.244 94.9791 569.888C96.2666 584.739 76.4043 580.929 74.1852 547.584C69.6128 478.877 81.8542 470.134 79.4661 435.45C78.6234 423.187 82.0917 409.309 75.3756 399.014C70.055 390.849 60.9995 385.657 55.7337 377.456C45.586 361.677 47.5048 323.026 48.5812 317.923C54.6933 289.021 54.8028 247.963 59.6442 218.67C64.9541 186.569 81.6104 159.5 102.724 135.296C104.379 133.44 105.195 132.513 106.799 130.666C113.548 122.768 120.101 114.73 126.277 106.375C128.34 103.598 129.33 102.225 131.247 99.5124C131.666 98.7552 131.87 98.3807 132.279 97.6273C139.53 84.4714 146.866 71.338 155.838 59.2254C158.402 55.8378 161.224 52.6539 164.28 49.7024C165.885 48.1247 177.198 33.565 192.667 27.0176C195.665 25.7552 198.957 25.3589 202.169 25.8737C246.453 32.8821 278.364 60.9432 309.025 76.0236C303.833 86.2584 294.541 94.1464 285.884 101.336L284.652 102.342C283.824 103.008 282.984 103.667 282.135 104.308C280.431 105.606 278.652 106.804 276.807 107.894C276.344 108.164 275.872 108.428 275.397 108.683C273.491 109.736 271.52 110.668 269.497 111.475C261.402 114.824 254.035 113.728 245.813 112.031C226.775 108.108 203.776 78.2963 182.567 87.7113C140.39 106.449 158.757 141.299 173.857 169.196C181.384 183.077 191.98 195.177 203.94 205.406C215.45 215.256 237.839 234.63 252.997 231.599C260.178 230.16 266.462 226.343 272.448 221.787C276.637 218.594 280.657 214.706 282.524 209.784C284.39 204.861 287.487 197.172 290.977 193.209C296.165 187.282 317.843 172.384 323.938 168.781C345.367 156.119 428.103 103.745 451.007 94.0013C459.407 90.4313 468.297 87.2117 477.405 87.7932C478.79 87.8792 480.292 88.1301 481.157 89.2001C481.935 90.1593 481.969 91.5045 481.847 92.7322C481.169 99.5788 476.861 105.574 471.845 110.277" fill="#A4DFD9"/>
<path d="M353.365 298.077C359.779 281.458 362.378 263.324 371.025 247.743C373.706 242.901 377.021 238.298 381.56 235.135C385.865 232.13 391.021 230.607 395.594 228.028C402.837 223.953 408.339 217.441 413.674 211.064C425.682 196.708 437.693 182.354 449.706 168.001C451.534 165.814 453.44 163.449 453.725 160.612C454.454 153.255 444.681 149.78 437.302 150.257C418.062 151.509 400.315 162.061 387.001 176.009C373.687 189.958 364.302 207.132 355.895 224.468C342.666 251.765 331.101 280.165 322.368 309.234C309.295 352.728 345.498 318.49 353.376 298.064" fill="#4CBEB3"/>
<path d="M644.668 32.2142C653.388 30.8071 660.767 39.1387 664.955 45.0555C670.062 52.2752 673.609 61.2815 677.578 69.7304C680.711 76.4064 684.482 86.3819 691.406 89.0965C698.602 91.9217 710.393 86.5098 718.306 84.7164C724.666 83.2706 731.138 81.7292 737.586 81.1836C739.089 81.0539 740.633 80.9374 742.155 80.8095C748.593 80.2585 763.28 77.1578 768.106 83.2864C775.324 92.4517 755.672 111.795 751.032 117.2C750.424 117.901 749.817 118.588 749.227 119.254C740.248 129.281 741.919 146.77 730.162 153.439C723.481 157.231 714.54 157.873 704.427 161.055C693.544 164.477 680.237 172.534 672.345 183.17C671.321 184.55 670.328 186.044 669.347 187.516C668.365 188.988 667.397 190.466 666.475 191.949C653.577 212.713 644.85 234.215 643.155 258.647C641.486 282.728 623.295 298.469 603.801 310.069L601.612 311.361C598.694 313.069 595.752 314.737 592.845 316.385L589.77 318.124L589.063 318.518L588.482 318.846C588.182 319.021 587.877 319.19 587.581 319.365L585.155 320.755C584.066 321.385 583.52 321.698 582.425 322.342C581.844 322.674 581.255 322.997 580.67 323.324C579.073 324.228 577.472 325.125 575.867 326.015C575.042 326.472 574.209 326.919 573.383 327.376C572.038 328.109 570.691 328.839 569.34 329.566C568.403 330.072 567.463 330.569 566.526 331.071C565.281 331.734 564.034 332.384 562.786 333.022L559.78 334.581C558.586 335.197 557.397 335.813 556.2 336.418L553.066 338.012C551.906 338.593 550.747 339.174 549.587 339.752C548.513 340.287 547.433 340.825 546.355 341.354L542.94 343.017C541.833 343.553 540.73 344.094 539.623 344.625C538.517 345.156 537.405 345.692 536.294 346.218C535.184 346.744 534.032 347.303 532.884 347.835L529.658 349.373L526.157 351.013C525.403 351.366 524.644 351.709 523.885 352.061C521.248 353.276 518.606 354.485 515.958 355.687L513.006 357.029L509.362 358.66L506.17 360.09L502.733 361.607L499.236 363.155L496.134 364.519L492.105 366.289L489.635 367.363L484.297 369.69L483.473 370.045L478.136 372.362L470.314 375.767L462.005 379.355C454.043 382.801 446.094 386.27 438.158 389.763C437.979 389.838 437.804 389.918 437.629 389.998C435.832 390.789 434.04 391.583 432.252 392.382L430.251 393.279L426.314 395.048L423.801 396.192L420.329 397.771L417.635 399.004L414.344 400.535L411.56 401.829L408.347 403.331L405.556 404.652L402.339 406.191L399.604 407.457L396.346 409.038C395.448 409.475 394.552 409.913 393.657 410.35L390.313 412.002L387.735 413.283C386.562 413.873 385.388 414.472 384.215 415.066C383.425 415.452 382.627 415.865 381.834 416.274C380.529 416.939 379.226 417.618 377.92 418.292L375.962 419.315C374.003 420.337 372.053 421.371 370.11 422.417C368.591 423.223 367.832 423.626 366.316 424.437C359.953 427.74 353.577 431.599 347.089 434.142C338.259 437.599 325.656 436.351 311.022 443.186C286.573 454.602 271.264 456.953 249.131 472.694C237.973 480.629 226.553 489.096 216.98 498.925C204.317 511.93 194.188 527.471 183.631 542.133C179.988 547.193 176.315 552.246 172.611 557.293C169.821 561.084 166.983 564.845 164.098 568.574C161.825 571.506 160.699 572.931 158.535 575.605C156.395 578.179 154.21 580.693 151.772 582.532C150.673 583.352 149.581 584.209 148.526 585.019C148.174 585.291 147.8 585.551 147.477 585.812C141.513 590.612 135.434 589.782 130.206 586.126C124.977 582.469 123.789 578.712 128.903 573.256C129.468 572.612 130 571.94 130.495 571.241C131.249 570.238 131.646 569.706 132.457 568.593C151.033 543.14 168.089 515.419 189.946 492.566C201.779 480.207 216.692 468.688 230.372 458.402C258.465 437.285 288.519 418.916 319.185 401.825C321.39 400.594 323.599 399.372 325.811 398.158C332.459 394.514 339.134 390.906 345.837 387.335L350.248 384.986C357.05 381.412 363.875 377.878 370.725 374.384C410.705 353.91 452.565 332.23 478.568 296.54C490.503 280.148 490.652 260.081 490.094 239.73C492.213 218.335 491.712 195.26 497.024 174.432C502.337 153.604 511.702 133.354 526.917 118.168C534.558 110.539 543.62 104.226 549.986 95.5001C562.913 77.7709 563.791 51.4567 581.614 38.6836C588.969 33.4223 598.148 31.4198 607.133 30.3826C619.148 28.9907 632.647 30.6199 644.624 32.2376" fill="#4CBEB3"/>
<path d="M1645.44 318.332C1626.14 302.213 1601.11 289.408 1591.41 267.878C1584.22 245.868 1586.92 223.347 1602.76 208.701C1618.61 194.056 1631.98 189.07 1657.99 191.548L1645.44 318.332Z" fill="#A4DFD9"/>
<path d="M1313.91 606.153L1312.81 608.579C1264.8 712.383 1184.14 785.721 1090.01 847C1033.14 883.975 971.286 909.624 908.035 932.525C898.403 936.019 882.199 941.639 877.543 931.544C874.419 924.687 881.117 920.396 887.953 916.017C891.275 913.894 894.621 911.751 896.894 909.283C897.766 908.361 898.614 907.438 899.462 906.514C900.326 905.574 901.19 904.633 902.064 903.689C901.358 903.73 900.634 903.728 899.92 903.723C898.184 903.718 896.462 903.71 894.961 904.286C861.241 916.58 826.744 926.509 792.237 936.437L791.878 936.54L791.654 933.839C791.491 931.966 726.887 944.141 627.757 968.411C528.627 992.681 486.72 1022.53 371.023 1001.93C362.997 1000.5 356.235 994.894 348.408 992.629C308.693 981.058 260.61 970.776 224.617 948.584C158.502 907.798 97.8637 856.198 28.4656 820.525C-26.7582 792.133 -87.5354 784.234 -140.616 751.974C-163.457 738.104 -175.209 725.165 -191.025 707.729L-170.282 498.244C-167.311 499.003 -164.318 499.722 -161.32 500.441C-139.961 505.551 -118.326 510.734 -103.95 528.966C-87.8979 549.356 -94.156 582.641 -116.913 612.992L-117.695 614.042C-143.235 648.622 -139.913 666.604 -104.445 692.032C-86.7888 704.715 -68.2327 717.872 -48.006 720.488L-48.3003 720.459C16.1713 744.598 79.7075 770.024 140.372 802.414C142.188 803.768 143.993 805.136 145.759 806.532C161.322 818.78 175.456 832.795 191.181 844.864C200.022 851.655 210.854 855.699 219.278 863.001C250.041 889.658 225.428 882.578 257.895 897.47L259.73 898.302C279.628 907.237 316.093 920.348 334.406 908.482C352.409 896.837 333.645 891.691 358.675 892.41C372.565 892.81 386.186 896.95 400.073 897.15C401.519 897.172 402.541 893.94 401.41 893.025L399.246 889.323C419.888 895.853 441.806 905.257 449.745 889.564L450.992 889.019C466.825 892.444 483.216 895.576 500.178 898.714L505.802 899.735C536.297 905.327 589.033 913.688 626.205 908.871L650.025 905.774C717.293 896.978 670.997 902.037 744.404 878.749L746.896 877.961C829.363 852.036 838.56 857.251 904.164 797.884L909.527 793.005C925.623 778.255 957.022 748.175 958.792 726.88C959.283 720.892 951.614 716.419 951.327 710.405C950.909 701.69 959.458 693.102 956.765 684.802C955.39 680.58 948.332 688.225 945.122 691.297C935.199 700.771 930.304 705.705 927.562 707.987C870.781 748.211 808.736 776.706 740.683 791.925C739.289 792.302 737.977 793.268 736.675 794.226C736.106 794.634 735.536 795.042 734.957 795.449C735.288 795.946 735.611 796.442 735.935 796.966C736.677 798.212 737.514 799.399 738.439 800.515C751.237 814.426 740.154 818.645 731.527 821.928C730.465 822.334 729.443 822.72 728.508 823.115L725.916 824.251C702.222 834.377 676.973 838.261 651.71 842.148C642.68 843.539 633.647 844.929 624.687 846.6C622.879 847.069 621.131 847.749 619.481 848.624C618.672 849.008 617.863 849.393 617.05 849.735C617.953 849.991 618.85 850.307 619.748 850.619C621.843 851.356 623.957 852.095 626.1 852.117C674.394 853.008 721.583 845.362 768.368 834.338L768.734 834.253C769.971 833.953 771.349 833.583 772.785 833.15C779.202 831.315 786.8 829.147 788.37 833.542C790.498 839.487 783.007 842.924 776.844 845.749C775.643 846.299 774.49 846.83 773.473 847.347L771.586 848.303C710.517 878.895 644.369 886.316 577.37 888.876L573.227 889.027C474.261 892.563 386.43 863.213 308.266 801.747C301.335 796.292 293.914 791.425 286.518 786.593C265.471 772.799 244.661 759.149 235.975 732.449C230.139 714.436 230.34 695.953 230.544 677.475C230.637 668.76 230.733 660.049 230.193 651.383L230.153 650.715C228.886 631.246 223.86 614.483 202.476 607.421L202.157 607.31C197.68 605.641 198.508 601.586 202.581 598.911C230.365 580.907 254.264 590.986 258.879 622.594C251.064 647.497 249.181 673.637 259.857 697.873C261.756 702.138 265.622 705.297 269.287 708.191C270.883 709.457 272.485 710.719 274.094 711.977L275.228 712.86L276.667 713.982L278.198 715.169L279.601 716.237L281.177 717.442L282.585 718.51L284.183 719.723L285.57 720.765L287.23 722.002L288.571 722.994L290.416 724.347L291.576 725.191C292.582 725.917 293.587 726.644 294.613 727.349L295.127 728.913C314.975 787.957 377.684 844.443 446.446 861.922C477.814 869.993 510.072 874.089 542.462 874.113C544.515 874.061 546.583 873.435 548.627 872.81C549.546 872.53 550.461 872.254 551.369 872.033L549.537 871.266C547.724 870.45 545.861 869.749 543.959 869.168C540.658 868.181 537.334 867.235 534.029 866.29C514.449 860.711 494.859 855.131 478.774 841.498C476.806 839.799 475.661 837.113 474.515 834.428C473.972 833.157 473.429 831.887 472.798 830.719C473.978 830.242 475.163 829.617 476.353 828.996C478.856 827.684 481.373 826.359 483.89 826.357C497.353 826.386 510.837 826.895 524.326 827.404C561.634 828.813 598.97 830.221 635.883 821.493C637.308 821.17 638.858 820.859 640.466 820.554C647.376 819.279 655.13 817.827 655.76 810.767C655.938 809.218 655.641 807.652 654.909 806.276C666.137 807.387 677.445 807.409 688.677 806.342C691.068 806.114 693.526 805.814 695.608 804.618C697.691 803.422 699.317 801.113 698.976 798.739C690.754 795.701 681.991 794.402 673.241 794.923C668.626 795.2 663.925 795.974 659.444 794.853C657.395 794.343 655.46 793.446 653.407 792.983C648.003 791.756 642.291 793.591 636.842 792.587C632.232 791.736 628.255 788.95 624.025 786.934C622.424 786.172 620.303 785.595 619.056 786.851C618.138 787.772 618.208 789.311 618.866 790.454L617.97 790.119C591.192 780.006 564.386 769.881 541.039 752.446C495.979 718.899 496.227 673.351 543.351 643.003C547.695 640.211 552.059 637.365 556.452 634.494L556.502 634.462C597.292 607.823 640.213 579.794 689.087 585.469C724.29 589.563 759.137 588.25 793.877 586.944C822.529 585.867 851.117 584.793 879.795 586.75C888.172 587.301 899.718 588.63 900.438 598.243C901.143 607.019 894.57 616.282 886.365 621.491C876.064 628.04 864.997 633.268 853.93 638.496C836.834 646.554 819.744 654.649 805.522 667.598C796.056 676.109 789.494 689.073 795.112 700.653C799.847 710.371 811.051 707.552 820.351 705.218C821.179 705.012 821.994 704.805 822.783 704.614L825.546 703.959C864.549 694.578 898.316 674.205 930.999 651.838L934.158 649.672C934.896 649.221 935.676 648.844 936.489 648.547C936.972 648.348 937.457 648.146 937.944 647.915C937.792 648.235 937.652 648.569 937.511 648.908C937.185 649.874 936.677 650.77 936.015 651.546C876.964 711.557 779.689 759.816 685.625 739.117L685.252 739.034L683.737 738.721C677.942 737.549 671.379 736.216 669.81 728.474L669.901 727.554L673.424 725.544C682.051 720.627 690.613 715.75 699.184 710.73C700.385 709.917 701.486 708.966 702.464 707.897V707.897C702.864 707.472 703.254 707.098 703.653 706.724C702.881 706.74 702.091 706.695 701.307 706.645C699.728 706.554 698.154 706.458 696.693 706.866C692.817 707.931 688.832 709.259 684.799 710.601C668.21 716.123 650.833 721.905 637.169 710.792L636.459 710.225C616.729 694.662 601.665 702.225 586.138 710.016C583.26 711.463 580.363 712.912 577.418 714.232L576.932 714.458C563.973 720.46 564.776 730.123 574.594 739.146C608.065 769.878 649.817 775.029 692.515 775.366L694.496 775.377C759.875 775.582 821.188 760.016 871.035 716.245L872.508 714.965C880.478 708.103 888.895 701.73 897.304 695.398C913.82 682.927 930.314 670.478 943.352 654.213L944.219 653.143C945.503 651.571 946.825 649.988 948.154 648.392C960.847 633.161 974.557 616.717 967.68 595.764C960.762 574.519 940.631 569.99 921.278 565.632C918.426 564.987 915.588 564.348 912.81 563.66L911.477 563.329C908.098 562.469 904.698 561.687 901.286 560.927C901.442 560.852 901.594 560.774 901.741 560.693C902.962 559.997 902.775 558.088 901.416 557.745L901.186 557.722L874.55 555.266C872.888 554.888 871.224 554.495 869.559 554.089C866.961 553.497 864.619 551.079 862.65 548.836L861.979 548.059C861.639 547.742 864.246 543.928 866.124 542.726C908.134 515.312 1010.1 520.766 1048.21 552.399C1066.33 567.44 1075.63 587.741 1082.76 609.373L1084.18 613.786C1106.94 683.509 1124.23 687.979 1184.99 643.27C1217.78 619.122 1246.27 590.703 1272.42 559.667L1272.64 559.41C1273.04 558.935 1273.46 558.427 1273.87 557.911C1276.77 554.335 1280.09 550.229 1284.56 552.255C1287.23 553.448 1288.62 560.811 1288.11 565.019C1283.22 605.014 1265.57 639.204 1240.01 669.835L1239.76 669.536C1240.93 667.602 1242.1 665.672 1243.27 663.745C1255.26 644.038 1267.26 624.309 1272 601.167C1272.15 600.49 1272.33 599.779 1272.51 599.055C1273.6 594.83 1274.8 590.073 1270.41 588.14C1267.75 586.947 1261.81 590.621 1258.67 593.477L1254.49 597.215C1222.46 625.844 1189.65 653.519 1152.32 675.318C1114.99 697.118 1093.83 688.517 1080.28 647.532C1078.6 642.462 1077.04 637.326 1075.48 632.198C1067.43 605.678 1059.38 579.097 1034.49 561.501C1033.22 560.572 1031.9 559.763 1030.56 558.966L1028.55 557.765C1017.27 550.996 1005.26 546.845 991.893 547.003C994.908 548.118 997.962 549.155 1001.02 550.191C1007.68 552.453 1014.37 554.721 1020.67 557.82C1035.59 565.152 1045.41 575.945 1052.55 588.543C1048.63 584.32 1044.04 580.68 1039.38 577.177L1039.05 576.931L1037.24 575.568C1031.92 571.582 1026.52 567.542 1020.39 564.985C1012.7 561.753 1004.24 560.957 995.935 560.2C978.831 558.641 961.305 557.119 944.724 561.574C953.065 567.6 963.03 570.969 973.317 571.239C983.97 571.496 995.305 568.49 1004.98 573.014C1005.36 573.191 1005.74 573.382 1006.1 573.59L1006.47 573.798C1006.71 573.933 1006.95 574.068 1007.18 574.212L1007.62 574.483C1007.83 574.615 1008.03 574.747 1008.24 574.888C1008.44 575.029 1008.52 575.093 1008.67 575.195L1009.24 575.609L1009.67 575.949C1009.85 576.092 1010.03 576.235 1010.2 576.382C1010.37 576.529 1010.47 576.623 1010.63 576.749C1010.78 576.876 1010.96 577.047 1011.13 577.203C1011.29 577.358 1011.39 577.461 1011.52 577.59C1011.65 577.719 1011.84 577.904 1011.99 578.064L1012.37 578.473C1012.52 578.636 1012.67 578.8 1012.82 578.981L1013.18 579.407L1013.59 579.912L1013.94 580.36C1014.07 580.536 1014.2 580.716 1014.35 580.897L1014.68 581.357C1014.81 581.542 1014.94 581.726 1015.06 581.915C1015.19 582.104 1015.27 582.228 1015.36 582.409C1015.46 582.591 1015.61 582.796 1015.73 582.989C1015.85 583.182 1015.93 583.31 1016.02 583.482L1016.36 584.092C1016.45 584.254 1016.54 584.412 1016.63 584.582C1016.72 584.753 1016.86 585.009 1016.97 585.224L1017.21 585.712C1017.32 585.937 1017.43 586.166 1017.54 586.395L1017.75 586.881C1017.87 587.129 1017.97 587.367 1018.08 587.633L1018.27 588.046L1018.67 589.014L1018.74 589.212C1018.9 589.613 1019.05 590.017 1019.19 590.422C1019.23 590.547 1019.27 590.667 1019.31 590.791C1019.41 591.075 1019.51 591.364 1019.6 591.651C1019.66 591.81 1019.7 591.972 1019.76 592.131L1019.99 592.887L1020.14 593.418L1020.34 594.143L1020.48 594.696C1020.54 594.934 1020.6 595.172 1020.66 595.41C1020.71 595.601 1020.75 595.791 1020.79 595.981C1020.84 596.171 1020.91 596.456 1020.96 596.684L1021.08 597.267C1021.13 597.5 1021.18 597.741 1021.23 597.964C1021.27 598.187 1021.3 598.357 1021.34 598.556C1021.37 598.754 1021.43 599.029 1021.47 599.256L1021.57 599.841C1021.61 600.078 1021.65 600.314 1021.68 600.545C1021.72 600.776 1021.74 600.936 1021.78 601.13L1021.87 601.836L1021.95 602.424L1022.04 603.12C1022.06 603.317 1022.09 603.515 1022.11 603.707C1022.13 603.9 1022.16 604.177 1022.18 604.411L1022.24 604.983C1022.26 605.222 1022.29 605.452 1022.3 605.7C1022.32 605.947 1022.34 606.07 1022.35 606.257C1022.41 607.071 1022.47 607.884 1022.5 608.686C1022.54 609.559 1022.66 610.426 1022.85 611.279L1022.84 611.334C1022.2 625.813 1018.01 640.108 1015.27 654.449C1013.92 661.558 1012.93 668.791 1013.31 676.017C1014.2 692.249 1022.06 707.347 1024.18 723.469C1024.7 727.166 1024.73 730.917 1024.26 734.621C1024.01 735.215 1023.75 735.809 1023.48 736.401C1023.4 736.597 1023.3 736.792 1023.21 736.987C1023.04 737.383 1022.85 737.783 1022.66 738.173L1022.33 738.869L1021.81 739.931C1021.69 740.175 1021.56 740.413 1021.44 740.656L1020.91 741.672L1020.51 742.403C1020.33 742.738 1020.15 743.068 1019.95 743.402C1019.82 743.639 1019.69 743.877 1019.55 744.114C1019.35 744.466 1019.14 744.812 1018.94 745.159C1018.81 745.374 1018.69 745.598 1018.56 745.799C1018.24 746.338 1017.91 746.872 1017.58 747.401L1017.54 747.449L1016.86 748.496L1016.52 749.02L1016.38 749.242C1016.21 749.486 1016.05 749.729 1015.88 749.968C1015.71 750.207 1015.56 750.447 1015.39 750.686L1015.17 751.007C1014.85 751.44 1014.52 751.913 1014.19 752.364L1013.92 752.741L1013.63 753.121C1013.4 753.428 1013.17 753.73 1012.94 754.032C1012.84 754.171 1012.73 754.304 1012.62 754.465L1012.31 754.857C1012.09 755.141 1011.87 755.426 1011.64 755.719L1011.3 756.149C1011.23 756.24 1011.15 756.325 1011.08 756.411C1010.82 756.729 1010.55 757.046 1010.29 757.359C1010.18 757.501 1010.06 757.638 1009.94 757.788C1009.72 758.05 1009.49 758.305 1009.26 758.566C1009.14 758.703 1009.02 758.84 1008.9 758.995L1008.55 759.388L1008.37 759.588C1008.08 759.915 1007.78 760.243 1007.48 760.572L1007.16 760.907C1006.89 761.192 1006.64 761.478 1006.35 761.756L1006.01 762.112L1005.87 762.251C1004.49 763.663 1003.07 765.022 1001.61 766.33L1001.49 766.438C1001.14 766.752 1000.78 767.06 1000.42 767.373L999.866 767.86C999.842 767.876 999.82 767.894 999.8 767.914C999.502 768.163 999.198 768.412 998.899 768.666L998.202 769.242C998.03 769.383 997.854 769.518 997.696 769.656L997.293 769.978C997.036 770.18 996.787 770.393 996.522 770.585L995.759 771.164L995.619 771.266L994.791 771.89L994.262 772.264L993.901 772.531L993.028 773.145L992.794 773.308L992.146 773.754L991.231 774.365L990.833 774.627L990.339 774.936L989.387 775.538L989.338 775.566L988.522 776.075L987.534 776.673L986.681 777.174L985.633 777.767C985.358 777.92 985.083 778.074 984.803 778.223C984.43 778.427 984.054 778.613 983.681 778.822L983.48 778.928L982.902 779.228C982.477 779.446 982.052 779.655 981.623 779.867C981.408 779.972 981.192 780.085 980.973 780.189C980.323 780.502 979.674 780.804 979.026 781.096C974.166 783.289 969.06 785.05 964.492 787.815C959.217 791.007 954.819 795.419 950.15 799.438C941.067 807.252 930.851 813.644 919.851 818.395C916.543 819.823 912.96 821.269 910.994 824.288C909.028 827.306 909.936 832.388 913.461 833.131C930.208 823.929 947.595 815.941 965.487 809.23C969.957 807.556 974.594 805.879 978.109 802.647C980.806 800.17 982.662 796.946 984.734 793.933C995.808 777.85 1013.13 767.744 1025.61 752.942C1037.77 738.536 1047.15 720.813 1057.26 704.922C1060.46 699.876 1063.68 694.771 1065.81 689.188C1068.52 682.133 1069.43 674.544 1070.33 667.046C1071.29 658.937 1072.25 650.772 1071.65 642.633C1071.63 642.432 1071.61 642.23 1071.6 642.024C1073.67 649.524 1075.83 657.014 1078.41 664.331C1082.87 676.92 1087.87 686.041 1093.92 691.869L1093.69 691.651C1102.67 708.281 1114.38 715.882 1128.8 714.452C1134.62 713.877 1140.46 707.983 1145.84 709.858C1146.74 710.193 1147.18 710.404 1147.48 711.283C1148.19 713.634 1145.11 718.055 1143.27 720.552L1143.12 720.76C1139.58 725.58 1135.15 729.674 1130.07 732.817C1131.5 728.863 1131.62 724.501 1128.7 722.801C1122.59 719.228 1114.82 730.54 1108.13 728.193C1101.79 725.949 1102.25 715.418 1096.78 711.524C1092.93 708.788 1084.24 705.638 1082.67 710.127C1080.45 716.468 1089.21 722.043 1090.81 728.577C1091.55 731.617 1092.03 736.126 1089.43 737.851C1081.31 743.344 1062.71 746.215 1045.82 758.188C1028.92 770.161 1015.93 785.493 1000.5 807.924C990.255 814.557 980.363 821.281 971.031 828.078C971.528 827.747 972.025 827.42 972.553 827.101C969.76 829.146 967.037 831.23 964.346 833.313L963.511 833.969L964.195 833.762C939.527 841.21 916.304 852.343 893.076 863.485C877.476 870.981 861.82 878.475 845.74 884.855C738.458 927.309 626.286 945.472 511.946 953.601L507.185 953.946C464.352 957.134 449.319 981.647 481.077 976.309C635.945 950.343 790.719 924.381 940.419 871.261C951.352 867.38 962.318 863.599 973.273 859.827C1042.47 835.993 1111.16 812.33 1168.17 764.318C1233.38 709.361 1290.59 647.406 1309.61 560.182C1317.64 523.093 1312.92 488.355 1282.89 461.205C1280.81 459.299 1277.96 458.302 1275.09 457.299L1274.77 457.183C1274.35 457.036 1273.9 456.989 1273.45 457.044C1273.01 457.1 1272.59 457.257 1272.21 457.503C1271.84 457.749 1271.53 458.079 1271.3 458.465C1271.08 458.851 1270.94 459.284 1270.91 459.731L1270.91 459.772C1270.72 462.447 1270.54 465.103 1271.04 467.627C1282.62 527.501 1218 620.397 1157.46 630.89C1127.91 636.053 1112.95 617.196 1100.47 596.58L1098.6 593.446C1074.6 553.535 1042.43 525.049 996.191 513.867C994.986 513.562 993.912 512.778 992.834 511.989C992.297 511.597 991.76 511.205 991.204 510.871C991.812 510.685 992.412 510.443 993.016 510.205C994.165 509.666 995.395 509.317 996.656 509.173C1007.93 508.297 1018.58 511.25 1029.06 514.815L1031.23 515.563C1032.46 515.959 1033.73 516.275 1035 516.563C1035.86 516.769 1036.72 516.975 1037.56 517.207C1036.8 516.667 1036.07 516.13 1035.34 515.539C1034.28 514.646 1033.14 513.841 1031.94 513.131C1026.41 509.993 1020.85 506.888 1015.27 503.772C1011.45 501.649 1007.64 499.518 1003.83 497.379L1003.39 497.136C997.401 493.724 993.661 490.136 993.257 481.418L993.224 480.951C992.542 473.157 984.34 473.32 977.715 473.453L977.278 473.461L976.692 473.473L976.088 473.478L972.74 473.476C927.373 473.557 884.387 485.974 841.449 498.383C835.893 499.999 830.339 501.594 824.784 503.168L819.053 504.783L817.902 505.1L816.684 505.444L814.469 506.061C793.982 511.744 773.342 517.473 755.832 530.514C743.921 539.434 741.986 550.543 750.902 562.528L751.213 562.954C757.682 571.854 753.483 575.107 745.147 576.993L744.355 577.165C733.709 579.361 723.162 577.128 712.767 574.915C702.19 572.665 691.768 570.445 681.561 572.986C617.785 588.995 557.878 614.558 513.735 665.394C491.452 691.047 501.83 723.862 535.685 752.594C553.968 768.041 575.132 778.49 596.323 788.955C602.197 791.859 608.071 794.762 613.889 797.762C614.561 798.102 615.271 798.437 615.994 798.778C620.679 800.983 625.925 803.476 625.36 809.177C624.68 815.202 618.706 816.314 613.529 817.292L613.108 817.371L609.628 818.048C568.067 825.88 526.871 820.793 485.68 814.565L481.691 813.961C470.26 812.179 458.956 810.507 447.511 809.095L446.417 808.987C441.269 808.361 435.516 807.661 432.508 812.717C430.035 816.874 432.226 820.675 434.378 824.408C435.032 825.545 435.681 826.677 436.195 827.81C436.733 829.043 437.458 830.396 438.195 831.765C440.07 835.242 441.995 838.827 440.938 840.784C438.822 844.753 434.116 843.651 429.793 842.624C428.767 842.383 427.765 842.145 426.825 841.982L425.361 841.712C377.095 832.47 328.238 786.257 308.019 736.765L308.149 736.852L310.697 738.465L311.86 739.188L313.019 739.906L313.254 740.44C327.325 772.172 351.366 797.03 384.783 815.23C394.103 820.332 401.649 820.884 401.905 805.164L401.923 804.428C402.593 783.92 416.563 787.305 428.254 790.125C430.177 790.589 432.036 791.038 433.764 791.362L440.373 792.657C444.623 793.502 448.884 794.36 453.156 795.232L453.234 795.24C461.786 796.978 470.339 798.712 478.908 800.289L486.549 802.267L492.388 803.797L494.134 804.258L498.931 805.527L500.74 806.013L505.976 807.427L507.301 807.786C509.535 808.393 511.773 809.004 514.032 809.632C517.134 810.409 520.292 810.942 523.476 811.226C533.197 812.231 546.009 812.129 552.587 809.326C554.002 808.724 554.958 807.374 555.623 805.861L558.965 805.691C564.517 805.372 570.372 804.573 571.948 798.739C573.473 793.091 568.46 789.604 563.881 786.421C562.756 785.636 561.662 784.873 560.694 784.099L559.096 782.836C556.288 780.622 553.463 778.438 550.638 776.255C537.897 766.408 525.189 756.602 514.398 744.32C488.985 715.495 486.877 680.648 514.085 653.7C557.891 610.302 613.283 585.559 669.53 562.861L676.953 559.882C679.848 558.775 683.354 557.924 686.165 558.57C706.436 562.94 730.004 546.348 744.96 525.709C746.821 523.14 743.943 519.804 741.12 521.257C720.961 531.644 699.36 550.418 684.679 551.578C672.418 552.547 660.059 553.519 649.566 560.318L646.094 562.551C630.155 572.581 613.442 581.419 596.724 590.262L596.696 590.259C583.153 597.425 569.6 604.594 556.463 612.393C557.087 609.419 555.321 606.62 553.086 604.858L555.585 603.392L562.633 599.316C566.903 596.836 571.173 594.346 575.445 591.847C602.977 575.731 630.692 559.508 660.033 547.545C686.574 536.708 712.641 524.608 738.723 512.499C803.454 482.437 868.188 452.346 940.418 441.738C1005.69 432.085 1066.52 437.458 1117.87 484.224C1120.75 486.92 1123.58 490.163 1125.37 493.678C1125.75 494.454 1126.18 495.231 1126.6 496.01C1129.88 502.167 1137.89 513.871 1130.57 515.96L1124.55 512.81C1120.79 510.117 1120.96 507.148 1116.29 502.966C1115.24 502.064 1114.11 501.26 1112.97 500.451C1112.51 500.122 1112.05 499.793 1111.59 499.46C1111.52 499.402 1111.42 499.364 1111.33 499.351C1111.23 499.337 1111.13 499.348 1111.04 499.383C1110.95 499.417 1110.87 499.474 1110.81 499.548C1110.74 499.622 1110.7 499.71 1110.68 499.806C1110.59 500.183 1110.51 500.559 1110.42 500.936C1110.01 502.384 1109.78 503.879 1109.76 505.384C1109.88 513.545 1107.91 517.519 1098.14 514.885L1096.21 514.341C1089.06 512.309 1080.11 509.761 1075.38 516.337C1071.21 522.177 1075.58 527.472 1079.67 532.427C1080.84 533.853 1081.99 535.244 1082.91 536.616C1094.52 554.16 1106.13 571.705 1118.63 588.503C1135.16 610.703 1156.34 612.987 1178.97 598.74C1206.66 581.196 1229.75 558.659 1246.65 530.319C1258.86 509.794 1260.38 489.231 1251.81 469.717C1247.45 450.577 1232.4 432.618 1206.77 415.538C1178.46 396.692 1147.29 385.866 1115.56 376.627C1113.87 375.457 1112.42 373.734 1110.97 372.027C1110.5 371.469 1110.04 370.917 1109.56 370.378C1109.33 370.116 1109.2 369.772 1109.21 369.419C1109.22 369.065 1109.37 368.73 1109.63 368.485C1110.18 367.951 1110.73 367.378 1111.29 366.792C1113.03 364.969 1114.78 363.145 1116.8 362.668C1161.92 351.663 1212.74 343.844 1247.37 374.203C1282.08 404.571 1316.57 441.909 1328.73 491.282C1338.69 531.776 1330.15 569.993 1313.75 606.384L1313.91 606.153ZM679.936 625.65C715.718 627.689 765.331 669.979 788.021 642.231L790.466 638.499C805.556 620.027 778.36 622.85 760.127 620.172C747.268 618.267 734.108 614.387 721.019 611.155L723.153 611.831L724.4 612.223C718.408 610.33 712.439 608.481 706.832 606.769L690.287 601.718C689.674 601.532 689.041 601.424 688.401 601.397C651.263 599.962 624.075 614.993 597.666 631.48L591.963 635.053C591.617 635.218 591.474 635.728 591.326 636.238C591.269 636.442 591.211 636.645 591.143 636.824C591.538 636.806 591.935 636.812 592.33 636.839C592.993 636.923 593.666 636.866 594.306 636.673C607.386 631.964 620.713 627.971 634.228 624.714L631.912 625.877C631.568 626.049 631.271 626.302 631.048 626.616C630.826 626.929 630.684 627.292 630.635 627.674C630.586 628.055 630.632 628.442 630.769 628.802C630.906 629.161 631.129 629.481 631.419 629.733C644.627 641.098 663.946 624.787 679.915 625.713L679.936 625.65ZM574.176 751.056C553.506 738.01 539.329 714.713 575.184 696.747C597.17 685.724 622.634 683.514 645.759 675.101C652.604 672.608 651.313 663.607 645.223 660.868C638.329 657.728 631.061 655.484 623.597 654.19L623.601 654.144L623.31 653.994L620.298 652.429L618.85 651.677L616.374 650.373C577.112 647.228 527.755 672.071 521.023 696.97C516.336 714.382 538.393 746.208 556.482 747.907C556.959 747.931 557.436 747.872 557.892 747.731L558.366 747.629L558.684 747.567C558.606 747.276 558.529 746.972 558.458 746.663C558.267 745.679 557.937 744.727 557.479 743.836C557.001 743.041 556.539 742.266 556.09 741.502L557.081 743.165C561.146 745.959 565.453 747.708 571.267 749.956L574.26 751.097L574.176 751.056Z" fill="#4195C4"/>
</g>
<path d="M513.267 242.136C528.169 245.398 543.925 257.726 566.256 265.641C582.553 271.416 601.567 274.42 618.316 279.868C632.64 284.516 647.717 293.554 658.918 298.221C671.278 303.372 679.327 304.2 684.89 307.346L685.144 307.48L684.534 307.129C680.902 305.064 677.289 303.571 673.223 301.894C667.097 299.47 661.132 296.658 655.364 293.475C652.084 291.627 648.244 289.021 644.178 286.239C637.076 281.383 629.281 276.051 622.558 273.657C614.426 270.77 605.716 269.185 597.145 267.623C584.831 265.382 572.785 263.192 563.137 257.25C534.129 239.4 501.684 228.399 477.546 228.399C445.604 228.399 412.114 227.29 387.537 225.626C398.245 229.513 409.167 232.78 420.251 235.413C448.773 242.053 479.639 234.766 513.272 242.131" fill="#A4DFD9"/>
<path d="M1429.03 994.811C1461.45 943.06 1430.45 886.453 1417.65 835.724C1414.17 821.95 1414.29 807.335 1409.98 793.801C1406.07 781.488 1397.59 771.027 1393.19 758.879L1389.03 747.365C1381.94 727.533 1389.78 716.125 1387.32 708.237L1386.75 706.389L1383.6 699.819C1380.7 693.761 1377.25 674.54 1373.12 665.626L1371.2 661.468C1347.99 611.302 1366.34 570.41 1358.01 521.413C1348.06 462.889 1343.12 541.213 1349.76 448.33C1353.25 399.666 1377.55 345.582 1405.62 305.826C1409.53 300.281 1416.28 291.04 1422.64 276.615C1429.01 262.189 1436.79 211.543 1452.12 180.613C1456.71 171.414 1462.75 163.02 1470.02 155.759C1452.82 164.076 1440.36 157.297 1427.31 150.214C1420.81 146.689 1414.17 143.08 1406.73 141.218C1386.37 136.135 1379.67 151.73 1371.92 169.815C1370.58 172.929 1369.21 176.117 1367.76 179.287L1366.83 181.278C1361.03 193.994 1356.99 218.243 1352.68 244.063C1349.54 262.938 1346.25 282.649 1342.03 299.311L1341.41 301.728C1337.58 316.287 1325.67 324.368 1313.77 332.408C1308.19 336.188 1302.62 339.963 1297.88 344.422C1273.99 366.915 1263.11 401.851 1274.08 423.79C1277.84 431.183 1284.5 435.055 1291.36 438.538L1296.49 441.117C1298.22 441.932 1299.99 442.653 1301.8 443.275C1307.57 445.377 1313.49 447.535 1313.28 454.022C1313.05 461.336 1305.81 464.571 1299.19 466.96L1295.35 468.346C1288.1 471.03 1280.39 472.629 1272.71 474.219C1270.63 474.653 1268.55 475.083 1266.47 475.536L1266.01 475.637C1264.79 475.901 1263.53 476.099 1262.26 476.312C1256.58 477.236 1250.84 478.188 1248.1 484.389C1244.81 491.883 1248.43 498.25 1252.33 504.215L1254.18 507.025C1260.8 516.807 1270.21 523.996 1281.38 526.695L1282.27 526.916C1306.66 533.233 1311.65 551.322 1317.06 570.923C1317.84 573.732 1318.62 576.574 1319.48 579.416L1320.12 581.541C1329.95 612.961 1341.73 643.757 1353.51 674.526C1369.16 715.381 1384.79 756.231 1395.84 798.607L1396.37 800.617C1399.71 813.046 1403.82 825.286 1407.92 837.521C1416.44 862.87 1424.95 888.209 1426.54 915.217C1429.57 966.325 1400.95 1008.7 1344.56 1034.32L1344.71 1034.25L1349.45 1033.39C1371.46 1029.32 1391.6 1025.01 1410.29 1016.75C1417.51 1010.35 1423.79 1002.97 1428.96 994.82" fill="#A4DFD9"/>
<path d="M1211.35 276.638C1219.31 294.312 1229.75 311.163 1233.81 330.116C1239.73 357.794 1231.56 387.874 1241.92 414.211C1242.71 416.198 1243.73 418.3 1245.65 419.243C1251.41 422.075 1255.12 412.774 1254.89 406.347C1253.2 353.512 1256.3 300.633 1264.13 248.355C1265.35 240.237 1266.7 232.049 1269.83 224.458C1274.58 212.906 1283.2 203.286 1287.71 191.651C1290.33 184.756 1291.45 177.378 1290.99 170.015C1290.53 162.651 1288.5 155.472 1285.03 148.957C1273.98 142.317 1258.89 147.747 1250.57 157.602C1242.26 167.458 1239.07 180.52 1236.13 193.075C1233.75 203.212 1231.37 213.348 1229 223.483C1228.56 225.331 1228.04 227.318 1226.58 228.528C1215.6 237.612 1212.69 211.247 1202 228.866C1195.16 240.135 1206.67 266.315 1211.31 276.615" fill="#4CBEB3"/>
<path d="M1082.48 310.479C1075.02 302.596 1068.65 294.085 1061.8 285.699C1054.41 276.615 1044.2 270.566 1034.08 265.11C1016.52 255.656 997.708 248.092 980.104 238.342C954.141 223.963 929.952 215.812 900.168 216.311C875.387 216.732 853.777 203.42 835.336 188.034C826.617 180.756 815.38 178.025 804.97 174.384C791.14 169.542 777.218 164.173 763.089 160.153C747.069 155.597 721.684 148.061 705.502 154.248C702.614 155.352 701.062 157.482 702.762 160.342C703.717 161.9 704.87 163.327 706.191 164.589C726.521 170.521 746.501 178.256 766.217 185.945C771.637 188.057 777.154 190.233 781.848 193.606L782.717 193.888C782.689 193.989 782.666 194.091 782.638 194.193C783.184 194.609 783.718 195.043 784.242 195.496C789.523 200.116 792.965 206.419 797.05 212.13C801.881 218.854 807.683 224.824 814.266 229.845C827.204 226.911 839.388 224.384 852.28 226.588C864.598 228.69 871.885 236.189 881.542 244.294C895.473 255.984 911.271 266.639 926.847 275.631C940.524 283.532 957.181 286.036 972.701 289.492C990.934 293.563 1008.44 298.364 1025.87 305.036C1042.24 311.302 1057.18 318.778 1072.28 327.732C1082.58 333.85 1103.87 346.182 1107.03 343.803C1110.18 341.423 1088.61 316.966 1082.46 310.47" fill="#A4DFD9"/>
<path d="M142.655 195.537C145.03 195.976 147.516 196.544 149.295 198.18C151.892 200.574 152.238 204.487 152.404 208.017C152.982 219.985 152.867 233.675 143.972 241.683C132.855 251.663 115.671 246.766 100.834 245.019C79.9029 242.575 58.6297 247.791 37.7077 245.241C1.60707 240.851 -28.6162 214.172 -64.5551 208.599C-75.0114 206.978 -86.1471 207.07 -95.3605 201.858C-98.3454 200.171 -101.344 196.845 -99.9441 193.721C-99.1216 191.873 -97.084 190.972 -95.1988 190.27C-60.4289 177.272 -19.3704 182.604 10.9268 204.053C16.0834 207.703 20.9535 211.792 26.4566 214.888C43.2108 224.319 65.2372 222.175 80.864 211.423C88.2985 206.312 92.3415 198.097 100.27 194.636C111.263 189.849 131.33 193.435 142.641 195.537" fill="#A4DFD9"/>
<path d="M576.066 188.301L459.396 168.765C450.617 167.291 441.579 165.744 433.858 161.271C426.853 157.209 421.276 150.93 414.064 147.247C406.167 143.218 397.009 142.627 388.147 142.456C356.839 141.811 325.574 145.106 295.088 152.261C287.534 154.035 278.5 157.764 277.909 165.494C277.253 173.968 287.261 178.926 295.62 180.465C327.22 186.273 360.151 177.942 391.728 183.81C416.531 188.431 438.927 201.479 463.185 208.401C485.951 214.897 509.853 215.868 533.524 216.796L603.544 219.541C614.287 219.962 625.173 220.405 635.427 223.593C648.762 227.729 660.225 236.208 671.929 243.795C698.034 260.687 726.47 273.67 756.333 282.33C746.371 258.345 724.169 239.821 698.784 234.35C672.738 228.727 665.673 217.989 643.762 206.488C623.164 195.676 598.697 192.095 576.038 188.301" fill="#A4DFD9"/>
<path d="M912.708 302.813C901.568 289.127 883.048 283.079 871.959 269.347C868.124 264.597 865.282 259.038 860.943 254.745C853.241 247.122 842.064 244.552 832.102 240.288C818.072 234.251 805.951 224.507 797.041 212.102C792.956 206.396 789.514 200.089 784.233 195.468C779.09 190.968 772.579 188.398 766.212 185.917C726.392 170.392 685.504 154.645 642.764 154.035C621.971 153.739 601.207 157.052 580.469 155.68C539.443 152.963 502.155 132.355 464.451 115.943C426.747 99.5307 376.766 87.9931 345.037 100.931C337.071 109.345 384.164 106.337 396.621 122.005C403.233 130.322 408.986 139.633 415.519 148.038C422.039 151.78 427.32 157.477 433.84 161.257C441.561 165.73 450.575 167.264 459.378 168.752L576.066 188.301C598.707 192.095 623.196 195.694 643.79 206.488C665.701 217.993 672.766 228.727 698.812 234.35C724.197 239.839 746.404 258.345 756.361 282.33C755.072 281.956 753.783 281.563 752.498 281.171C769.063 289.95 785.383 299.191 801.527 308.691C811.341 314.476 821.28 320.446 832.347 323.139C838.584 324.655 845.067 325.094 851.208 326.961C868.886 332.334 874.265 327.344 873.849 326.785C871.885 324.013 873.285 322.363 876.884 322.275C892.853 321.892 908.591 331.863 915.06 346.469C917.795 352.642 919.01 359.526 922.73 365.164C926.449 370.801 934.073 374.844 939.979 371.563C925.576 351.316 928.362 322.081 912.675 302.813" fill="#4CBEB3"/>
<path d="M689.765 310.151L687.112 308.621L685.153 307.489L684.89 307.346C679.345 304.2 671.278 303.372 658.918 298.22C647.717 293.554 632.622 284.516 618.316 279.868C601.567 274.429 582.553 271.416 566.256 265.641C543.925 257.726 528.169 245.398 513.267 242.136C479.634 234.771 448.769 242.057 420.246 235.417C409.163 232.785 398.24 229.517 387.532 225.631C355.886 214.315 329.964 200.458 313.603 198.259C289.756 195.052 274.42 184.859 262.739 172.952C258.424 172.614 221.205 123.308 204.964 123.308C173.225 123.308 155.741 138.344 145.132 180.654C144.876 181.665 144.619 182.664 144.36 183.653C144.619 182.664 144.882 181.666 145.136 180.654C144.882 181.666 144.619 182.669 144.355 183.662C144.332 183.741 144.314 183.819 144.291 183.898C144.027 184.891 143.755 185.88 143.482 186.85L143.482 186.892C143.344 187.386 143.2 187.881 143.057 188.371C142.914 188.86 142.771 189.346 142.627 189.831L142.627 189.882C142.41 190.612 142.188 191.342 141.962 192.058C142.19 191.343 142.412 190.618 142.627 189.882C142.359 190.783 142.087 191.665 141.809 192.543C141.722 192.82 141.629 193.093 141.542 193.37C141.343 193.994 141.14 194.618 140.932 195.218L141.126 194.645L140.932 195.218L142.678 195.542C145.053 195.981 147.539 196.549 149.318 198.185C151.919 200.578 152.261 204.492 152.428 208.022C153.005 219.989 152.89 233.68 143.995 241.688C132.878 251.668 115.694 246.77 100.857 245.028C79.926 242.575 58.6528 247.801 37.7308 245.245C27.2144 243.965 17.1969 240.796 7.38745 236.804L5.39598 236.614L4.93392 236.568C3.97746 236.471 3.02561 236.374 2.06915 236.268L1.90282 236.268C1.03415 236.171 0.165472 236.073 -0.703198 235.967L-1.32235 235.893L-3.77588 235.584L-4.13166 235.538C-5.05578 235.413 -6.01224 235.279 -6.95022 235.145L-7.37532 235.085L-9.74567 234.724L-10.3833 234.623C-11.2658 234.479 -12.1438 234.336 -13.0263 234.161L-13.1372 234.161C-14.0613 233.999 -14.9854 233.833 -15.9326 233.657L-16.4964 233.551C-17.2495 233.407 -17.998 233.26 -18.7512 233.089L-19.3704 232.964C-21.2186 232.585 -23.0483 232.18 -24.8596 231.749L-25.4926 231.596L-27.7244 231.042L-28.2835 230.898C-29.2076 230.664 -30.1225 230.419 -31.0281 230.164L-31.2545 230.099C-32.077 229.868 -32.8994 229.637 -33.7219 229.388L-34.3873 229.189C-35.1481 228.958 -35.9105 228.721 -36.6744 228.477L-37.1088 228.343C-38.0144 228.054 -38.917 227.753 -39.8164 227.442L-40.2785 227.285C-41.027 227.026 -41.774 226.76 -42.5195 226.486L-43.1895 226.241C-44.0027 225.941 -44.8159 225.636 -45.6291 225.317L-45.8648 225.224C-46.7612 224.873 -47.653 224.513 -48.5401 224.143L-49.1223 223.898C-49.8339 223.59 -50.5423 223.282 -51.2478 222.974L-51.8993 222.688C-52.7772 222.295 -53.6597 221.893 -54.5376 221.477L-55.4617 221.052C-56.4906 220.593 -57.5256 220.179 -58.5668 219.809L-58.7054 219.758L-59.5972 219.453L-59.8282 219.379L-60.6368 219.125L-60.9233 219.042L-61.6764 218.825L-61.9999 218.737L-62.7207 218.548L-63.0718 218.46L-63.7649 218.293L-64.1438 218.21L-64.8138 218.067L-65.2112 217.989L-65.8719 217.859L-66.2739 217.785L-66.93 217.674L-67.3413 217.605L-67.9881 217.508L-68.4132 217.448L-69.0509 217.365L-69.4806 217.314L-70.1182 217.24L-70.5526 217.194L-71.1856 217.129L-71.6476 217.092L-72.2807 217.041L-72.7427 217.009L-73.3711 216.967L-73.8332 216.94L-74.42 216.907L-74.8821 216.907L-75.5243 216.88L-75.9633 216.88L-76.6009 216.88L-77.063 216.88L-77.7052 216.88L-80.3621 216.88L-80.9997 216.88L-81.3971 216.88L-82.1179 216.88L-82.4829 216.88L-83.2361 216.907L-83.5734 216.907L-84.3681 216.94L-84.6592 216.94L-85.5325 216.981L-85.745 216.981L-86.7246 217.032L-86.8309 217.032C-87.6903 217.078 -88.5497 217.124 -89.4092 217.18L-91.1003 217.282L-93.0409 217.402L-93.4245 217.425L-93.8218 217.448L-93.9604 217.448L-94.5426 217.471L-95.0047 217.471L-95.573 217.471L-96.5988 217.471L-97.0609 217.471L-97.6015 217.471L-98.0635 217.471L-98.5995 217.443L-99.0246 217.416L-99.5467 217.374L-99.9256 217.369L-100.439 217.314L-100.836 217.268L-101.335 217.198L-101.718 217.143L-102.208 217.06L-102.578 216.995L-103.04 216.903L-103.396 216.829L-103.858 216.718L-104.195 216.639L-104.657 216.519L-104.981 216.427L-105.443 216.293L-105.752 216.2L-106.214 216.052L-106.51 215.946L-106.949 215.789L-107.235 215.678L-107.665 215.503L-107.938 215.392L-108.363 215.202L-108.617 215.082L-109.033 214.879L-109.282 214.754L-109.689 214.542L-109.92 214.412L-110.322 214.181L-110.544 214.052L-110.936 213.807L-111.144 213.673L-111.533 213.414L-111.727 213.276L-112.11 213.003L-112.29 212.864C-112.42 212.767 -112.544 212.675 -112.665 212.573L-112.84 212.435C-112.965 212.338 -113.085 212.236 -113.205 212.13L-113.367 211.991L-113.732 211.672L-113.88 211.534C-114 211.423 -114.12 211.312 -114.236 211.196L-114.374 211.062L-114.73 210.706L-114.85 210.577C-114.97 210.452 -115.086 210.328 -115.201 210.198L-115.312 210.078C-115.428 209.944 -115.548 209.815 -115.659 209.681L-115.76 209.561C-115.876 209.427 -115.991 209.288 -116.102 209.149L-116.19 209.038L-116.532 208.599C-116.532 208.567 -116.578 208.53 -116.606 208.498C-116.721 208.345 -116.832 208.193 -116.943 208.036C-116.943 208.008 -116.985 207.98 -117.003 207.948C-117.119 207.791 -117.23 207.629 -117.341 207.463L-117.391 207.389C-117.507 207.218 -117.618 207.052 -117.729 206.876L-117.761 206.821C-117.877 206.64 -117.987 206.46 -118.098 206.28L-118.121 206.243C-118.232 206.054 -118.348 205.864 -118.459 205.67C-121.61 200.153 -123.25 193.259 -124.664 186.208L-125.75 180.663L-124.664 186.18C-124.706 185.543 -127.483 144.748 -172.007 143.902L-172.007 257.019C-167.049 256.205 -162.086 255.443 -157.147 254.87C-137.74 252.611 -118.824 253.211 -102.726 264.837C-101.977 265.376 -101.235 265.941 -100.499 266.532C-99.3927 267.416 -98.3023 268.356 -97.2272 269.351C-96.5126 270.016 -95.8025 270.708 -95.0971 271.426C-94.3917 272.143 -93.6955 272.887 -93.0086 273.657C-82.409 285.555 -75.9448 299.995 -75.0484 315.035C-74.993 315.925 -74.9591 316.818 -74.9468 317.715L-74.9468 318.177C-74.9018 324.656 -75.8987 331.101 -77.8993 337.264C-78.0333 337.689 -78.1765 338.105 -78.3198 338.516L-78.4538 338.872C-78.5554 339.159 -78.6571 339.441 -78.768 339.718C-78.8188 339.856 -78.8743 339.995 -78.9297 340.134C-79.0314 340.389 -79.133 340.639 -79.2347 340.882C-79.2901 341.021 -79.3502 341.159 -79.4102 341.293C-79.5165 341.543 -79.6228 341.783 -79.7337 342.023L-79.9 342.393L-80.2882 343.197C-80.3297 343.28 -80.3667 343.363 -80.4083 343.442C-80.5839 343.789 -80.7595 344.126 -80.9397 344.459L-81.0136 344.588C-81.1707 344.87 -81.3278 345.147 -81.4756 345.415L-81.6559 345.711C-81.7852 345.923 -81.9146 346.136 -82.044 346.339C-82.1133 346.45 -82.1826 346.552 -82.2473 346.658C-82.3767 346.852 -82.506 347.046 -82.6354 347.231L-82.8433 347.536C-82.982 347.73 -83.1206 347.919 -83.2638 348.109L-83.4533 348.363C-83.6288 348.599 -83.809 348.825 -83.9939 349.051L-84.0724 349.148C-84.285 349.407 -84.4975 349.661 -84.7193 349.906C-84.7655 349.962 -84.8163 350.012 -84.8672 350.068C-85.0335 350.253 -85.2045 350.438 -85.3708 350.613L-85.5972 350.844L-86.0593 351.306L-86.3042 351.537L-86.7662 351.958L-87.0065 352.17C-87.1728 352.318 -87.3438 352.457 -87.5148 352.6L-87.7088 352.762C-88.1709 353.145 -88.6745 353.506 -89.1689 353.848L-89.3815 353.986C-89.557 354.106 -89.7372 354.226 -89.9175 354.337L-90.1808 354.499C-90.3472 354.605 -90.5181 354.702 -90.6845 354.804L-90.9617 354.961L-91.4838 355.248L-91.7426 355.382C-91.9413 355.488 -92.1446 355.585 -92.3479 355.687L-92.5281 355.774L-93.3367 356.139L-93.4522 356.186C-93.6832 356.283 -93.9143 356.38 -94.1499 356.467L-94.4087 356.569L-94.977 356.777L-95.2727 356.879L-95.8226 357.059L-95.9935 357.114L-96.1275 357.156L-96.7051 357.327L-96.9777 357.401C-97.218 357.47 -97.4398 357.53 -97.6985 357.59L-97.8325 357.627L-98.7012 357.826L-98.9415 357.872L-99.5745 358.001L-99.9025 358.057L-100.462 358.154L-100.813 358.209L-101.367 358.288L-101.714 358.339L-102.305 358.408L-102.619 358.445L-103.442 358.524L-103.636 358.524L-104.421 358.584L-104.777 358.584L-105.341 358.616L-105.743 358.616L-106.27 358.639L-106.686 358.639L-107.212 358.639L-108.562 358.639L-109.458 358.639L-109.86 358.639L-110.405 358.639L-110.867 358.639L-111.329 358.639L-111.819 358.639L-112.281 358.616L-112.785 358.588L-113.247 358.561L-113.764 358.528L-114.157 358.5L-115.492 358.399L-115.585 358.399L-116.204 358.343L-116.537 358.316L-117.151 358.26L-117.479 358.228L-118.126 358.168L-118.389 358.14L-119.096 358.066L-119.212 358.066C-121.102 357.867 -122.996 357.646 -124.886 357.428L-126.61 357.23L-127.072 357.179L-129.382 356.925L-129.576 356.925L-131.794 356.703L-132.029 356.703C-132.806 356.634 -133.582 356.569 -134.34 356.514L-138.175 356.255C-139.099 356.19 -139.991 356.112 -140.896 356.028L-141.511 355.885L-143.683 355.668L-144.283 355.603C-146.104 355.406 -147.924 355.188 -149.745 354.947L-150.29 354.873L-152.6 354.559L-153.062 354.499C-157.336 353.903 -161.615 353.242 -165.894 352.609L-166.989 352.452L-168.31 352.258L-169.696 352.064L-170.939 351.893L-172.007 351.741L-172.007 477.388L-149.403 459.405L-147.199 457.681C-117.988 434.999 -83.4024 420.213 -52.5554 399.845C-39.53 391.247 -28.4036 380.046 -15.7756 370.879C8.02045 353.603 26.8308 341.109 56.9986 336.294C78.4936 332.866 101.305 339.14 122.223 333.124C140.525 327.866 153.361 310.483 171.076 303.506C190.349 295.919 211.774 295.508 231.731 289.913C246.387 285.819 259.972 278.32 274.702 274.521C341.844 257.231 433.937 253.447 499.073 254.902L500.14 254.93C530.701 255.799 526.764 263.982 553.832 272.535C573.099 278.629 593.139 282.03 612.513 287.746C628.177 292.366 643.009 299.759 658.899 303.506C668.88 305.858 679.535 308.349 690.319 310.46L689.751 310.132L689.765 310.151ZM-170.158 190.515C-169.922 190.021 -169.662 189.54 -169.378 189.073C-169.662 189.54 -169.922 190.021 -170.158 190.515" fill="#4CBEB3"/>
<path d="M1093.52 255.864C1067.14 244.03 1043.82 222.452 1022.54 197.58C1018.68 193.065 1016.53 189.022 1015.79 185.451C999.625 180.968 983.9 175.016 968.815 167.671C959.949 163.35 951.142 158.494 941.443 156.72C927.119 154.095 912.509 158.457 898.837 163.452C896.36 164.353 893.754 165.365 892.1 167.407C889.729 170.313 889.85 174.523 890.714 178.173C895.847 199.858 920.285 210.577 942.219 214.569C965.322 218.774 989.419 219.236 1011.21 227.969C1017.86 230.64 1024.19 234.045 1030.5 237.441C1052 249.025 1073.6 260.655 1093.27 275.141C1108.43 286.309 1124.86 299.889 1143.53 297.421C1143.48 296.371 1143.39 295.328 1143.24 294.293C1132.02 280.893 1116.7 266.246 1093.52 255.845" fill="#4CBEB3"/>
<path d="M1093.52 255.864C1154.17 283.074 1161.03 339.275 1181.42 326.841C1197.05 317.391 1151.42 255.684 1147.48 239.336C1139.73 206.992 1180.18 160.352 1141.61 152.085C1103.04 143.819 1096.53 171.746 1064.26 166.904C1031.99 162.061 1001.26 172.721 1022.54 197.58C1043.82 222.438 1067.14 244.03 1093.52 255.864" fill="#A4DFD9"/>
<path d="M1614.06 180.146C1612.68 180.175 1611.31 180.345 1609.97 180.655C1590.77 180.798 1592.41 149.581 1579.67 134.615C1567.98 120.887 1551.43 113.522 1524.33 123.308C1505.63 130.059 1485.66 140.077 1470.03 155.8C1462.76 163.062 1456.71 171.456 1452.13 180.654C1436.8 211.585 1429.03 262.254 1422.65 276.661C1416.27 291.068 1409.53 300.341 1405.63 305.868C1377.56 345.605 1353.25 399.707 1349.77 448.371C1343.12 541.245 1348.07 462.931 1358.02 521.455C1366.33 570.433 1348 611.344 1371.2 661.509L1373.13 665.668C1377.25 674.567 1380.71 693.789 1383.6 699.86L1386.76 706.431L1387.32 708.279C1389.78 716.166 1381.94 727.575 1389.04 747.406L1393.2 758.921C1397.59 771.068 1406.07 781.529 1409.99 793.843C1414.3 807.377 1414.15 821.992 1417.65 835.766C1430.45 886.495 1461.46 943.088 1429.03 994.857C1423.87 1003.01 1417.58 1010.39 1410.36 1016.79C1411.8 1016.15 1413.22 1015.5 1414.63 1014.81C1419.6 1011.63 1424.53 1008.69 1429.65 1006.39C1446.16 995.656 1461.53 980.367 1476.1 957.518L1477.21 955.758C1477.59 955.143 1477.97 954.547 1478.35 953.955L1478.64 953.493L1478.53 953.586L1478.33 953.748L1478 953.997L1477.85 954.103L1477.6 954.274L1477.46 954.367C1477.33 954.445 1477.2 954.524 1477.07 954.593C1477.45 953.142 1477.83 951.688 1478.2 950.231C1478.4 949.46 1478.6 948.683 1478.79 947.921C1478.97 947.219 1479.15 946.535 1479.33 945.814C1479.54 945.001 1479.74 944.188 1479.95 943.37C1480.17 942.476 1480.4 941.583 1480.62 940.69C1480.73 940.228 1480.85 939.766 1480.97 939.327C1481.34 937.786 1481.72 936.265 1482.11 934.762C1483.92 927.512 1485.73 920.253 1487.65 913.045L1487.72 912.772C1488.67 909.208 1489.64 905.655 1490.64 902.112L1490.71 901.863C1491.18 900.19 1491.67 898.519 1492.16 896.85C1492.19 896.725 1492.23 896.605 1492.27 896.485C1492.79 894.735 1493.31 892.985 1493.85 891.236C1498.2 877.342 1510.36 873.382 1523.11 871.187L1524.34 870.979L1527.12 870.517C1556.53 865.869 1563.73 854.705 1557.28 825.993C1557.22 825.734 1557.17 825.476 1557.11 825.212L1556.6 822.971L1556.1 820.726C1552.67 805.284 1549.81 789.708 1547.07 774.095C1546.88 773.056 1546.7 772.015 1546.52 770.971L1546.48 770.759L1544.93 761.887C1541.61 743.017 1531.29 730.73 1516.6 723.823C1515.99 723.532 1515.38 723.254 1514.76 722.986C1513.5 722.446 1512.22 721.947 1510.91 721.48C1508.23 720.532 1505.5 719.743 1502.72 719.119C1502.01 718.957 1501.3 718.805 1500.58 718.657L1492.03 716.915C1483.71 715.233 1475.31 713.741 1467.18 713.68C1452.69 713.588 1439.02 718.079 1428.08 734.316L1427.89 734.602L1427.64 734.926C1426.92 735.85 1426.26 736.224 1425.69 736.252C1424.67 736.298 1423.87 735.222 1423.26 734.025L1423.15 733.803C1423.07 733.651 1423 733.498 1422.94 733.341C1422.83 733.115 1422.74 732.879 1422.65 732.676L1421.69 730.245C1420.91 728.245 1420.17 726.248 1419.47 724.271C1398.07 663.709 1412.98 613.622 1492.08 595.098C1494 586.166 1496.51 577.295 1497.73 568.252C1500.8 545.676 1495.79 522.809 1496.14 500.029C1496.4 483.169 1499.61 466.507 1502.8 449.947C1505.92 433.747 1509.04 417.515 1513.72 401.694C1517.01 390.563 1521.22 379.381 1528.87 370.648C1533.79 365.03 1539.89 360.719 1546.57 357.364C1546.61 356.676 1546.65 355.978 1546.71 355.303C1546.71 355.294 1546.71 355.285 1546.71 355.276C1546.76 354.753 1546.82 354.236 1546.9 353.732C1546.9 353.691 1546.9 353.649 1546.92 353.603C1546.96 353.372 1547.01 353.141 1547.06 352.924C1547.06 352.908 1547.06 352.893 1547.06 352.878C1547.12 352.642 1547.18 352.415 1547.26 352.184C1547.27 352.144 1547.28 352.103 1547.3 352.064C1547.36 351.884 1547.42 351.704 1547.5 351.533L1547.57 351.371C1547.66 351.169 1547.76 350.972 1547.87 350.78C1548.22 350.164 1548.56 349.548 1548.9 348.932C1548.98 348.788 1549.05 348.65 1549.13 348.506C1549.46 347.89 1549.78 347.274 1550.08 346.658L1550.2 346.432C1550.47 345.887 1550.74 345.337 1551 344.787C1551.08 344.621 1551.16 344.454 1551.24 344.292C1551.52 343.696 1551.79 343.105 1552.06 342.509C1552.12 342.356 1552.19 342.204 1552.26 342.047C1552.47 341.585 1552.67 341.081 1552.88 340.601C1552.96 340.402 1553.05 340.208 1553.13 340.014C1553.37 339.441 1553.59 338.868 1553.83 338.29C1553.91 338.073 1554 337.851 1554.09 337.634C1554.24 337.218 1554.41 336.807 1554.55 336.391C1554.64 336.151 1554.73 335.929 1554.82 335.675C1555.02 335.134 1555.21 334.594 1555.41 334.053C1555.51 333.758 1555.62 333.462 1555.72 333.171L1556.05 332.205C1556.24 331.672 1556.42 331.141 1556.6 330.611L1556.86 329.816L1557.25 328.624L1557.39 328.162C1559.8 320.594 1561.81 312.882 1564.18 305.286C1572.14 279.461 1593.1 268.829 1617.11 262.633L1656 236L1656 204.5C1636 171 1615.08 180.11 1614.02 180.146" fill="#4CBEB3"/>
</g>
<defs>
<clipPath id="clip0_5810_147659">
<rect width="1656" height="230" fill="white"/>
</clipPath>
</defs>
</svg>
