<svg width="1709" height="238" viewBox="0 0 1709 238" fill="none" xmlns="http://www.w3.org/2000/svg">
<g clip-path="url(#clip0_5901_161999)">
<g opacity="0.2">
<path d="M1554.94 189.402C1526.89 186.625 1495.25 186.348 1469.47 189.761C1471.36 189.166 1473.23 188.473 1475.06 187.686V187.686C1484.56 183.822 1537.22 155.981 1567.87 159.016C1613.05 160.621 1625.93 178.064 1648.44 187.851C1669.9 197.183 1649.5 209.924 1642.82 214.226C1640.68 215.602 1638.4 217.07 1636.79 218.857C1636.21 214.388 1635.7 211.161 1635.7 211.161C1625.29 199.234 1583.01 192.191 1554.96 189.414" fill="#4195C4"/>
<path d="M1218.1 47.4684C1202.25 52.8263 1189.17 59.0251 1177.98 66.2143C1150.36 83.9605 1134.25 107.746 1116.36 139.869C1089.49 188.051 1044.79 218.797 995.087 246.136C983.792 252.354 972.226 258.397 960.56 264.429L951.189 269.268C950.298 269.728 949.446 270.177 948.604 270.619L948.378 270.74L947.496 271.205L946.565 271.703C946.222 271.887 945.888 272.063 945.554 272.248C945.22 272.433 944.868 272.612 944.539 272.793L943.719 273.241L942.61 273.851L942.006 274.181L940.772 274.867L940.477 275.033C936.588 277.22 933.296 279.192 930.451 281.005L930.323 281.085L929.261 281.769L929.072 281.895L928.081 282.53L927.857 282.684L926.961 283.287L926.717 283.458L925.879 284.035L925.62 284.218C925.356 284.401 925.119 284.591 924.841 284.772L924.571 284.964C924.321 285.143 924.072 285.318 923.835 285.499L923.565 285.695L922.868 286.216L922.598 286.417L921.935 286.922L921.663 287.132L921.034 287.622L920.762 287.837L920.157 288.32L919.894 288.536C919.698 288.693 919.501 288.849 919.309 289.011L919.041 289.226L918.48 289.696L918.216 289.92L917.669 290.381C917.583 290.452 917.497 290.527 917.415 290.602L916.872 291.064L916.623 291.285L916.112 291.75L915.853 291.98L915.343 292.436L915.088 292.666L914.579 293.121L914.314 293.36L913.805 293.815C913.728 293.887 913.651 293.963 913.569 294.034L913.057 294.521L912.939 294.635L911.529 295.93C903.495 303.307 893.712 312.307 865.806 329.941L863.053 331.674C848.863 340.545 833.927 347.47 818.637 353.515C828.528 348.35 838.419 343.177 848.312 337.997L855.937 334.002L848.51 337.868C838.493 343.095 828.476 348.332 818.459 353.581C813.141 355.673 807.784 357.676 802.388 359.591C794.821 362.301 787.205 364.894 779.579 367.487C750.111 377.5 720.509 387.556 693.377 404.784C673.251 417.561 659.615 436.961 645.904 456.465C635.003 471.971 624.059 487.547 609.769 499.909C608.586 500.929 607.205 501.977 605.661 503.082C594.863 510.709 576.006 519.763 559.826 527.531C551.049 531.769 543.03 535.618 537.541 538.622C536.756 539.055 536.024 539.472 535.347 539.872C536.991 538.038 538.476 536.026 539.967 534.01C539.966 533.995 539.967 533.979 539.971 533.964C540.231 533.615 540.388 533.201 540.425 532.767C540.461 532.333 540.376 531.898 540.178 531.511C539.98 531.123 539.678 530.798 539.305 530.574C538.933 530.349 538.505 530.232 538.07 530.238L537.498 530.246C533.57 530.289 529.623 530.335 526.385 531.899C487.651 550.574 464.751 584.338 445.761 620.712L444.695 622.757C427.255 656.197 410.997 690.679 423.676 730.51C423.774 730.696 423.627 731.002 423.429 731.312C423.327 731.484 423.241 731.665 423.172 731.853C422.932 731.458 422.673 731.075 422.414 730.687C421.87 729.941 421.404 729.141 421.021 728.301C407.006 693.85 410.41 658.532 424.081 626.255L425.895 622.009C427.325 618.604 428.755 615.196 430.185 611.788C457.953 545.558 486.158 478.294 544.695 432.38C584.918 400.786 631.993 380.737 679.013 360.733C693.071 354.747 707.128 348.765 720.988 342.481L724.021 341.11C726.883 339.814 729.751 338.526 732.627 337.244C772.82 319.225 813.124 301.156 843.534 267.096C862.976 245.471 852.895 225.97 842.791 206.415C842.008 204.944 841.255 203.449 840.502 201.963L838.85 198.665C836.065 193.305 832.771 188.226 829.014 183.497C819.479 171.326 812.227 164.191 805.434 162.079C815.546 158.901 824.488 158.254 831.169 154.463C842.926 147.794 841.259 130.306 850.234 120.278C852.793 119.71 856.2 119.012 858.333 118.201C868.221 114.426 875.243 104.655 883.02 97.2441C909.757 71.7678 955.506 58.5933 967.817 49.1051C980.499 39.3334 1000.42 39.1936 1015.66 41.7374C1024.1 43.1494 1031.57 47.3995 1039.56 50.1821C1047.72 53.0238 1056.07 52.235 1064.46 50.8508C1073.78 49.313 1083.65 47.4993 1092.44 50.9565C1092.94 51.0925 1093.37 51.4 1093.66 51.8242C1093.83 52.2929 1093.85 52.8083 1093.7 53.2863C1092.09 61.0901 1089.93 65.2962 1083.67 70.5878C1079.96 73.7302 1075.29 75.5153 1070.68 77.0274C1030.18 90.2809 984.224 91.2787 944.656 107.117C937.886 109.841 929.064 116.211 930.641 122.05C936.077 136.124 944.751 129.043 953.296 120.635C963.389 110.7 980.194 103.003 1010.79 102.221C1051.79 101.173 1065.43 89.6527 1101.61 75.1731C1147.42 56.8317 1203 34.6023 1271.03 32.9803C1274.04 32.9097 1277.07 32.8802 1280.13 32.8919C1255.49 36.9066 1235.19 41.708 1218.11 47.4831" fill="#FBC998"/>
<path d="M304.959 206.398C292.999 196.169 282.403 184.069 274.877 170.188C259.758 142.299 241.391 107.44 283.56 88.7291C304.769 79.3141 327.768 109.125 346.807 113.049C355.029 114.745 362.396 115.842 370.491 112.492C372.514 111.686 374.484 110.754 376.39 109.701C376.879 109.452 377.338 109.186 377.801 108.912C379.646 107.822 381.425 106.624 383.129 105.325C383.982 104.686 384.823 104.026 385.645 103.36L386.878 102.354C395.534 95.1641 404.831 87.2766 410.019 77.0413C427.039 85.4081 435.714 95.4745 429.385 107.528C420.967 123.559 397.056 127.668 375.049 131.456C337.652 137.884 305.768 143.368 364.854 204.784C369.417 209.526 371.852 215.789 373.459 222.774C367.478 227.331 361.194 231.147 354.012 232.586C338.854 235.617 316.465 216.243 304.955 206.393" fill="#EB8045"/>
<path d="M126.458 340.732C122.943 357.099 126.377 383.334 143.594 391.015C153.222 395.307 166.361 394.616 174.634 401.703C183.699 409.473 179.723 425.813 180.478 436.47C181.396 449.385 179.729 462.133 177.774 474.94C175.119 492.544 173.937 510.339 174.243 528.14L172.912 530.093L172.884 530.137L170.011 534.352C160.238 548.637 150.317 564.101 146.787 581.325C142.876 600.472 149.456 617.203 161.047 632.285C161.302 632.524 161.203 633.15 161.114 633.722C161.096 633.905 161.078 634.08 161.062 634.241C160.762 634.183 160.45 634.139 160.148 634.099C159.247 634.033 158.365 633.805 157.544 633.428C139.226 622.978 131.636 603.547 131.373 583.556C131.092 563.748 136.543 544.754 142.416 525.681C144.217 519.823 146.004 513.964 147.642 508.117C151.003 496.118 154.865 479.957 148.156 468.316C142.215 457.977 129.121 454.233 118.324 451.72C99.261 447.288 85.5369 431.145 84.0476 411.534C82.8795 396.133 80.0221 378.238 66.4727 368.632C53.9898 359.79 36.4921 359.859 21.9046 359.845C1.47631 359.828 -14.6153 347.291 -19.1784 328.428C-23.8232 309.219 -9.12406 283.159 -2.30469 264.839C4.28035 247.151 9.6489 229.04 14.9158 210.924C18.7389 197.777 22.5012 180.835 31.052 170.961C38.6329 162.207 44.7376 148.9 50.1062 137.963C59.5541 118.794 68.635 99.4393 76.4469 79.5367C86.5133 53.8863 95.3528 2.31683 130.46 4.00546C140.224 4.4755 147.543 6.99245 149.308 17.5401C150.189 22.7116 149.074 28.2519 147.8 33.2425C145.862 40.8558 143.179 49.4726 147.366 56.8519C151.552 64.2312 160.093 71.7631 160.549 80.5188C161.236 93.6528 152.59 108.518 147.261 119.901C145.66 123.317 144.846 126.849 144.109 130.444C143.775 132.083 143.454 133.727 143.083 135.367C137.675 159.217 133.191 184.199 136.031 208.086C137.105 217.121 140.664 226.384 139.558 235.162C135.392 268.226 133.773 306.948 126.505 340.727" fill="#EB8045"/>
<path d="M1394.28 121.403C1324.05 122.151 1244.18 123 1202.23 153.461C1121.23 212.302 1088.57 234.281 1025.81 264.376C918.108 316.05 813.193 372.816 711.065 434.673C710.235 435.185 709.39 435.696 708.541 436.206C700.545 441.042 692.158 446.113 688.747 455.995C654.424 471.002 619.583 514.504 556.656 541.499C556.103 541.732 555.549 541.984 554.997 542.264C554.797 542.355 554.596 542.461 554.392 542.557L553.362 543.068L552.441 543.552L551.813 543.889C534.496 553.346 515.604 573.818 501.61 592.946C508.169 580.632 515.238 568.563 522.422 556.589L528.83 545.95L532.728 542.454C533.637 541.649 534.497 540.79 535.304 539.882C535.979 539.478 536.71 539.062 537.499 538.632C542.989 535.605 550.994 531.764 559.788 527.541C575.964 519.773 594.82 510.719 605.618 503.092C607.161 502 608.543 500.939 609.726 499.918C624.016 487.557 634.961 471.981 645.861 456.475C659.572 436.971 673.208 417.571 693.334 404.794C720.466 387.566 750.068 377.51 779.536 367.496C787.162 364.904 794.778 362.31 802.345 359.6C807.727 357.672 813.087 355.691 818.402 353.599L809.5 358.252L818.586 353.519C833.889 347.475 848.83 340.551 863.001 331.679L865.755 329.945C893.659 312.325 903.447 303.325 911.477 295.934L912.887 294.639L913.005 294.526L913.518 294.038C913.599 293.967 913.676 293.891 913.753 293.82L914.263 293.364L914.528 293.125L915.037 292.67L915.292 292.44L915.801 291.984L916.061 291.754L916.571 291.289L916.821 291.068L917.363 290.606C917.45 290.531 917.531 290.456 917.617 290.386L918.164 289.924L918.428 289.7L918.99 289.231L919.257 289.016C919.45 288.854 919.647 288.697 919.843 288.54L920.106 288.324L920.711 287.841L920.983 287.626L921.612 287.136L921.883 286.926L922.546 286.421L922.817 286.22C923.048 286.048 923.279 285.871 923.518 285.7L923.784 285.503C924.025 285.323 924.283 285.149 924.52 284.968L924.789 284.776C925.044 284.593 925.291 284.403 925.569 284.222L925.828 284.039L926.665 283.462L926.91 283.292L927.805 282.688L928.029 282.534L929.021 281.899L929.21 281.773L930.271 281.089L930.4 281.009C933.245 279.187 936.538 277.215 940.426 275.037L940.721 274.871L941.954 274.185L942.558 273.855L943.668 273.245L944.488 272.797C944.817 272.616 945.16 272.432 945.503 272.252C945.846 272.073 946.17 271.891 946.513 271.707L947.445 271.21L948.552 270.623L951.142 269.273L962.397 263.459C964.401 262.42 966.415 261.381 968.44 260.343C977.007 255.935 985.829 251.386 995.036 246.136C1044.74 218.796 1089.43 188.055 1116.31 139.868C1134.22 107.747 1150.32 83.9619 1177.93 66.2139C1188.9 59.0497 1203 52.6361 1218.05 47.468C1235.13 41.6928 1255.43 36.8914 1280.07 32.8767C1277.01 32.8619 1273.98 32.8915 1270.97 32.9652C1273.07 32.734 1275.17 32.6124 1277.28 32.6008C1393.57 32.7398 1548.45 45.3175 1526.99 95.7773C1516.65 120.101 1459.61 120.707 1394.23 121.402L1394.28 121.403ZM796.494 365.048L796.004 365.31L795.647 365.498L795.038 365.832C794.702 365.938 794.369 366.063 794.031 366.197C793.693 366.33 793.355 366.455 793.02 366.561C792.828 366.682 792.646 366.82 792.478 366.972L792.009 367.39C791.674 367.496 791.336 367.625 791.003 367.754C790.67 367.884 790.328 368.008 789.992 368.118L789.983 368.21C790.318 368.104 790.656 367.975 790.994 367.846C791.331 367.717 791.664 367.592 792 367.482L792.129 367.401C792.189 367.361 792.249 367.316 792.309 367.266C792.39 367.204 792.466 367.138 792.537 367.075L793.01 366.658C793.198 366.588 793.397 366.505 793.605 366.419L794.087 366.24C794.373 366.124 794.662 366.018 794.954 365.926C795.685 365.58 796.42 365.184 797.153 364.774L797.492 364.585L796.494 365.048Z" fill="#EB8045"/>
<path d="M1619.19 427.714C1618.66 430.829 1617.31 433.736 1614.94 435.828C1613.93 436.727 1612.74 437.401 1611.45 437.804C1605.48 439.641 1603.1 434.075 1601 430.32C1600.09 428.596 1599.06 426.935 1597.92 425.349L1597.89 425.309L1597.65 425.006L1597.63 424.976C1597.63 424.976 1597.63 424.976 1597.63 424.953L1597.61 424.923C1597.48 424.767 1597.35 424.619 1597.22 424.472L1597.12 424.36L1596.94 424.151L1596.89 424.104L1596.65 423.617C1596.33 422.986 1596.01 422.355 1595.69 421.71L1594.76 419.844C1582.52 395.672 1568.73 378.942 1553.35 366.638C1548.86 363.049 1544.15 359.753 1539.24 356.771C1537.9 355.952 1536.55 355.157 1535.18 354.387C1517.4 344.324 1497.8 338.047 1476.28 331.84L1471.65 330.508C1470.87 330.05 1470.07 329.594 1469.26 329.143L1468.86 328.913C1466.06 327.345 1463.19 325.823 1460.25 324.346C1431.2 309.674 1400.31 298.948 1368.41 292.454C1336.65 285.98 1304.07 283.673 1271.69 284.585C1239.14 285.5 1206.6 289.511 1174.63 295.577C1166.92 297.042 1159.21 298.605 1151.56 300.369C1138.44 303.277 1125.47 306.869 1112.71 311.129C1100.58 315.24 1088.61 320.118 1077.4 326.354L1076.84 326.661L1076.75 326.712C1076.03 327.114 1075.32 327.524 1074.61 327.94C1072.84 328.967 1071.02 331.382 1070.84 333.217C1070.83 333.352 1070.84 333.487 1070.88 333.616L1070.88 333.644C1070.9 333.71 1070.93 333.775 1070.96 333.837L1070.96 333.869C1070.99 333.938 1071.03 334.002 1071.07 334.071C1072.2 335.794 1074.27 337.318 1076.44 338.647C1077.1 339.05 1077.66 339.584 1078.1 340.216C1078.53 340.848 1078.83 341.564 1078.98 342.318C1079.13 343.072 1079.11 343.849 1078.94 344.598C1078.77 345.348 1078.45 346.053 1077.99 346.671C1077.99 346.694 1077.96 346.714 1077.94 346.726C1075.23 350.074 1070.63 352.159 1066.96 354.461C1057.55 360.385 1048 366.114 1038.33 371.647C1031.15 375.761 1026.9 379.802 1023.82 387.52C1023.62 388.029 1030.61 391.127 1031.41 391.392C1034.3 392.347 1037.22 392.246 1040.22 392.265C1041.37 392.281 1042.54 392.285 1043.66 392.331C1044.36 392.354 1045.05 392.334 1045.78 392.318L1046.21 392.324C1007.98 411.015 945.691 422.469 915.911 428.087C887.622 433.978 845.494 454.28 846.648 452.338C868.493 415.117 930.626 387.328 952.798 374.428L954.188 373.605C954.182 373.674 954.175 373.738 954.196 373.81L954.207 373.983C954.2 374.047 954.227 374.11 954.234 374.176C954.241 374.242 954.257 374.276 954.266 374.328L954.261 374.369C954.272 374.424 954.285 374.478 954.301 374.531C954.321 374.606 954.347 374.68 954.377 374.752C954.378 374.761 954.377 374.771 954.374 374.78C954.374 374.78 954.37 374.821 954.4 374.842C954.431 374.864 954.446 374.945 954.469 374.993C954.492 375.042 954.522 375.115 954.553 375.173L954.637 375.316L954.778 375.53L954.798 375.56C958.594 380.885 970.998 381.942 975.807 378.104C981.456 373.579 985.164 367.358 989.699 361.836C989.769 361.745 989.838 361.655 989.912 361.569C1007.17 340.679 1033.52 330.892 1057.98 321.227C1060.56 320.206 1063.14 319.165 1065.72 318.144C1104.87 302.552 1145.42 291.644 1186.87 283.908C1187.13 283.846 1187.39 283.769 1187.65 283.683L1187.77 283.644C1188.12 283.526 1188.47 283.393 1188.82 283.261L1189.44 283.021L1189.92 282.864L1190.24 282.76L1189.82 282.719C1189.53 282.668 1189.24 282.639 1188.95 282.633L1188.9 282.628C1188.76 282.631 1188.62 282.648 1188.48 282.679L1187.02 282.93C1205.45 278.751 1220.9 275.605 1229.63 274.612L1233.39 274.19C1289.14 268.033 1349.44 267.433 1408.03 268.917C1411.38 269.001 1414.72 269.094 1418.05 269.195L1425.92 269.44L1427.53 269.813C1457.04 276.658 1485.49 286.695 1512 301.495C1538.51 316.295 1562.12 335.478 1581.5 358.815C1589.31 368.316 1596.43 378.366 1602.81 388.887C1606.05 394.185 1609.27 399.556 1612.11 405.079C1614.68 410.098 1617.86 414.963 1619 420.587C1619.48 422.93 1619.53 425.34 1619.15 427.701" fill="#E5C7A3"/>
<path d="M1548.13 258.199C1547.56 258.013 1546.99 257.823 1546.43 257.623L1546.26 257.559C1537.46 254.451 1529.13 249.725 1520.82 245.007C1517.4 243.062 1513.98 241.126 1510.54 239.304L1510.35 239.196L1509.35 238.675L1508.97 238.48L1508.01 237.986L1507.74 237.852C1507.15 237.552 1506.56 237.27 1505.97 236.967L1505.47 236.717L1504.65 236.325L1504.06 236.048L1503.25 235.671L1502.64 235.392C1502.19 235.19 1501.75 234.993 1501.3 234.796L1500.6 234.489L1499.84 234.172L1499.17 233.892L1498.4 233.584L1497.7 233.315L1496.96 233.028C1496.51 232.867 1496.1 232.71 1495.67 232.561L1494.94 232.308L1494.21 232.059L1493.45 231.812L1492.72 231.587L1491.98 231.36L1491.04 231.096L1489.95 230.802L1489.16 230.603L1488.4 230.42L1487.65 230.253L1486.88 230.09L1486.06 229.934C1485.67 229.858 1485.28 229.792 1484.9 229.725C1484.6 229.696 1484.3 229.624 1483.98 229.579L1483.21 229.475L1482.44 229.376L1481.65 229.297C1481.38 229.271 1481.12 229.245 1480.85 229.218C1480.58 229.192 1480.35 229.168 1480.09 229.143C1479.63 229.097 1479.17 229.084 1478.71 229.062L1477.92 229.035L1477.12 229.021L1476.31 229.014L1475.51 229.028L1474.7 229.045L1473.61 229.101C1473.23 229.123 1472.84 229.15 1472.46 229.181L1471.63 229.252L1470.78 229.349L1469.98 229.447L1469.12 229.57L1468.27 229.709C1468.02 229.75 1467.79 229.783 1467.55 229.828C1464.88 230.316 1462.22 230.791 1459.55 231.251L1458.77 231.382C1456.46 231.773 1454.15 232.164 1451.84 232.554L1449.87 232.869C1447.95 233.181 1446.03 233.484 1444.11 233.78L1441.69 234.149C1439.9 234.417 1438.11 234.683 1436.33 234.946L1433.76 235.318L1428.45 236.064L1425.93 236.409C1424.07 236.662 1422.21 236.908 1420.35 237.148L1418.15 237.436C1415.88 237.731 1413.61 238.018 1411.33 238.298L1410.39 238.409C1407.75 238.732 1405.1 239.047 1402.45 239.355L1401.36 239.483C1399.13 239.742 1396.9 239.995 1394.67 240.242C1393.92 240.33 1393.17 240.409 1392.41 240.482C1390.53 240.69 1388.67 240.895 1386.81 241.098L1384.38 241.354L1378.82 241.936L1376.57 242.178C1374.56 242.387 1372.54 242.592 1370.52 242.791L1368.93 242.953C1358.24 244.019 1347.55 245.048 1336.85 246.041C1315.56 248.051 1294.26 250.065 1273.01 252.521L1272.54 252.572C1270.45 252.816 1268.34 253.063 1266.24 253.313L1264.83 253.484L1259.43 254.152L1257.63 254.378C1255.93 254.591 1254.24 254.81 1252.55 255.036L1250.62 255.286C1248.89 255.52 1247.17 255.756 1245.45 255.995L1243.74 256.225C1241.46 256.547 1239.18 256.874 1236.9 257.205C1236.74 257.233 1236.58 257.273 1236.42 257.325L1236.29 257.372L1235.94 257.514L1235.82 257.567L1235.44 257.762C1235.26 257.851 1235.08 257.944 1234.89 258.028C1235.33 258.071 1235.77 258.115 1236.21 258.159C1237.57 258.378 1238.94 258.475 1240.31 258.449C1283.77 255.708 1327.23 254.923 1370.38 260.026C1382.7 261.497 1394.87 263.292 1406.87 265.497L1407.28 265.57L1409.16 265.923L1410.72 266.222L1412.55 266.579L1414.14 266.895L1415.96 267.261L1417.62 267.606C1418.2 267.723 1418.78 267.841 1419.35 267.968C1420.41 268.189 1421.46 268.418 1422.51 268.647L1424.13 269.008L1425.9 269.405L1425.96 269.411L1418.09 269.166C1414.76 269.068 1411.42 268.976 1408.07 268.889C1349.45 267.402 1289.15 268.002 1233.4 274.159L1229.64 274.581C1220.9 275.573 1205.45 278.738 1187.03 282.899L1182.26 283.726L1181.73 283.818L1181.32 283.888C1179.52 284.198 1177.73 284.518 1175.95 284.833L1174.98 285.006C1116.98 295.315 1059.82 308.186 1006.71 333.785L1006.62 333.828C1005.63 334.308 1004.63 334.795 1003.63 335.287L1003.47 335.364L1000.54 336.825L1000.36 336.918C999.385 337.406 998.407 337.904 997.429 338.401L997.263 338.487C996.282 339.009 995.302 339.531 994.322 340.053L994.233 340.1C989.106 342.805 984.026 345.646 978.996 348.621C976.588 350.048 974.287 351.649 972.11 353.408L972.049 353.458C971.63 353.793 971.221 354.133 970.81 354.478L970.699 354.569C970.304 354.901 969.914 355.234 969.527 355.572L969.385 355.697C969.008 356.031 968.637 356.361 968.264 356.7L968.101 356.851C967.738 357.182 967.375 357.518 967.017 357.854L966.842 358.022C966.489 358.359 966.135 358.695 965.785 359.036C965.724 359.091 965.663 359.15 965.606 359.209C965.256 359.551 964.907 359.892 964.575 360.24L964.41 360.409C964.059 360.76 963.708 361.115 963.376 361.472L963.231 361.621C962.87 361.989 962.512 362.362 962.16 362.731L962.066 362.833C961.688 363.228 961.31 363.627 960.936 364.026C960.419 364.555 959.949 365.089 959.464 365.621L958.918 366.217L958.63 366.537L958.448 366.737L957.796 367.457L956.722 368.651C955.496 370.053 954.724 371.324 954.403 372.466C954.361 372.615 954.328 372.767 954.302 372.92C954.302 372.92 954.302 372.92 954.299 372.957C954.276 373.095 954.262 373.235 954.257 373.375L954.244 373.513C954.24 373.555 954.236 373.596 954.232 373.633L952.841 374.456C930.669 387.356 868.541 415.146 846.691 452.366C835.99 461.591 820.383 472.108 793.798 484.798C765.298 498.399 733.264 503.371 704.459 516.301L703.944 516.529C687.265 523.853 629.904 541.621 608.692 552.753C522.727 597.87 500.454 626.941 486.271 650.364L484.535 653.266L484.436 651.459C484.377 650.413 484.305 649.361 484.233 648.3C483.898 643.429 483.557 638.483 484.072 633.705C484.342 630.859 485.026 628.067 486.1 625.418C490.716 614.336 495.983 603.543 501.629 592.939C516.935 572.005 538.117 549.457 556.679 541.497C619.607 514.502 654.448 471 688.77 455.993C690.24 455.498 691.714 455.025 693.192 454.574L693.556 454.456L695.54 453.84L695.716 453.788L697.633 453.193L699.501 452.617L700.779 452.223L701.556 451.98L703.655 451.319L704.613 451.024L705.769 450.646L707.363 450.117L708.497 449.733L709.69 449.312L710.652 448.971C711.211 448.771 711.77 448.562 712.325 448.352L713.223 448.004C713.696 447.825 714.164 447.639 714.629 447.447L715.471 447.103C715.985 446.889 716.498 446.671 717.013 446.443L717.463 446.256C729.567 440.875 741.489 435.17 753.293 429.202C826.762 392.167 895.33 345.857 970.676 312.36C985.198 305.908 999.783 299.649 1014.43 293.583C1017.09 280.772 1032.23 273.987 1045.17 269.841C1115.86 247.203 1182.23 217.767 1254.62 199.072C1261.18 197.377 1267.79 195.677 1274.55 195.19C1283.84 194.523 1293.13 196.176 1302.44 196.392C1323.46 196.886 1343.88 190.108 1364.56 186.325C1397.71 180.344 1431.78 182.008 1464.19 191.189L1469.51 189.747C1495.31 186.354 1526.96 186.613 1554.98 189.388C1583.01 192.163 1625.31 199.208 1635.72 211.136C1635.72 211.136 1636.24 214.364 1636.81 218.831C1637.52 224.26 1638.31 231.516 1638.31 237.065C1639 269.463 1580.94 268.748 1548.16 258.189" fill="#FBC998"/>
<path d="M572.862 111.298C567.832 115.995 561.982 119.744 556.903 124.385C549.246 131.372 533.843 141.329 516.538 156.661C505.826 161.307 496.085 168.528 487.992 177.008C474.679 190.952 465.293 208.131 456.886 225.468C443.657 252.764 432.092 281.164 423.359 310.234C419.102 324.387 420.066 330.305 423.577 331.15C420.643 336.552 417.5 341.812 414.148 346.931C389.66 384.215 348.876 404.971 321.859 439.321C305.392 460.265 281.34 470.769 273.571 474.907C234.789 495.555 193.49 542.244 195.979 570.888C197.267 585.739 177.404 581.929 175.185 548.585C170.613 479.877 182.854 471.134 180.466 436.45C179.624 424.188 183.092 410.309 176.376 400.014C171.055 391.849 162 386.657 156.734 378.456C146.586 362.677 148.505 324.027 149.581 318.923C155.693 290.021 155.803 248.963 160.644 219.67C165.954 187.569 182.61 160.5 203.724 136.296C205.379 134.44 206.196 133.514 207.799 131.666C214.548 123.768 221.101 115.73 227.277 107.375C229.34 104.598 230.33 103.225 232.247 100.512C232.666 99.7553 232.87 99.3808 233.279 98.6273C240.53 85.4714 247.866 72.338 256.838 60.2255C259.402 56.8379 262.224 53.654 265.28 50.7024C266.885 49.1248 278.198 34.565 293.667 28.0176C296.665 26.7552 299.957 26.3589 303.169 26.8737C347.454 33.8821 379.364 61.9432 410.025 77.0236C404.833 87.2584 395.541 95.1464 386.884 102.336L385.652 103.342C384.824 104.008 383.984 104.667 383.136 105.308C381.431 106.606 379.652 107.804 377.808 108.894C377.344 109.164 376.872 109.428 376.397 109.683C374.491 110.736 372.52 111.668 370.498 112.475C362.403 115.824 355.036 114.728 346.813 113.031C327.775 109.108 304.776 79.2964 283.567 88.7114C241.39 107.449 259.758 142.3 274.858 170.196C282.384 184.077 292.98 196.177 304.94 206.406C316.45 216.256 338.839 235.63 353.997 232.599C361.179 231.16 367.463 227.343 373.448 222.787C377.637 219.594 381.658 215.706 383.524 210.784C385.39 205.861 388.487 198.172 391.977 194.209C397.165 188.282 418.843 173.384 424.938 169.781C446.367 157.119 529.103 104.745 552.007 95.0013C560.407 91.4313 569.297 88.2117 578.405 88.7932C579.79 88.8792 581.293 89.1301 582.157 90.2001C582.935 91.1593 582.969 92.5045 582.847 93.7322C582.169 100.579 577.861 106.574 572.845 111.277" fill="#FBC998"/>
<path d="M454.366 299.077C460.78 282.458 463.379 264.324 472.025 248.743C474.706 243.901 478.022 239.299 482.56 236.136C486.865 233.13 492.021 231.607 496.595 229.028C503.837 224.954 509.339 218.441 514.674 212.065C526.682 197.708 538.693 183.354 550.707 169.001C552.534 166.814 554.44 164.449 554.726 161.612C555.454 154.255 545.681 150.78 538.302 151.257C519.062 152.509 501.316 163.061 488.002 177.009C474.687 190.958 465.302 208.132 456.895 225.469C443.666 252.765 432.101 281.165 423.368 310.235C410.295 353.728 446.499 319.49 454.376 299.064" fill="#E6D1C5"/>
<path d="M745.668 33.2139C754.388 31.8068 761.767 40.1383 765.955 46.0551C771.062 53.2749 774.61 62.2811 778.579 70.7301C781.711 77.406 785.483 87.3816 792.406 90.0962C799.602 92.9214 811.393 87.5094 819.306 85.716C825.666 84.2703 832.138 82.7289 838.586 82.1833C840.089 82.0536 841.633 81.9371 843.155 81.8092C849.594 81.2581 864.281 78.1575 869.106 84.286C876.324 93.4514 856.672 112.794 852.032 118.199C851.424 118.901 850.818 119.588 850.227 120.254C841.248 130.281 842.92 147.77 831.162 154.439C824.481 158.23 815.54 158.873 805.428 162.055C794.544 165.476 781.238 173.533 773.345 184.169C772.322 185.549 771.329 187.043 770.347 188.516C769.365 189.988 768.397 191.466 767.475 192.949C754.577 213.713 745.85 235.215 744.155 259.647C742.486 283.728 724.295 299.469 704.801 311.069L702.612 312.361C699.694 314.069 696.752 315.737 693.845 317.385L690.771 319.124L690.063 319.518L689.483 319.846C689.182 320.02 688.878 320.19 688.582 320.365L686.155 321.754C685.066 322.385 684.52 322.697 683.425 323.341C682.845 323.674 682.256 323.996 681.671 324.324C680.074 325.227 678.473 326.124 676.868 327.015C676.042 327.472 675.209 327.918 674.384 328.375C673.039 329.109 671.691 329.839 670.341 330.566C669.404 331.072 668.463 331.569 667.527 332.07C666.282 332.733 665.035 333.384 663.786 334.021L660.781 335.581C659.587 336.197 658.397 336.812 657.2 337.418L654.066 339.011C652.906 339.593 651.747 340.173 650.588 340.752C649.513 341.286 648.434 341.825 647.355 342.354L643.94 344.017C642.833 344.553 641.73 345.094 640.624 345.625C639.517 346.156 638.405 346.691 637.295 347.218C636.184 347.744 635.033 348.303 633.884 348.835L630.658 350.373L627.157 352.013C626.403 352.366 625.644 352.708 624.885 353.06C622.248 354.276 619.606 355.485 616.958 356.686L614.007 358.029L610.363 359.66L607.171 361.09L603.733 362.606L600.237 364.155L597.134 365.519L593.105 367.288L590.636 368.362L585.298 370.69L584.473 371.044L579.136 373.362L571.314 376.767L563.005 380.355C555.043 383.801 547.094 387.27 539.158 390.762C538.979 390.837 538.804 390.918 538.629 390.998C536.832 391.789 535.04 392.583 533.253 393.381L531.251 394.279L527.315 396.048L524.801 397.192L521.329 398.771L518.635 400.004L515.345 401.535L512.561 402.829L509.347 404.331L506.556 405.652L503.339 407.19L500.604 408.457L497.346 410.038C496.448 410.475 495.552 410.912 494.658 411.35L491.314 413.002L488.735 414.283C487.562 414.873 486.389 415.472 485.215 416.066C484.425 416.452 483.627 416.865 482.835 417.274C481.529 417.939 480.227 418.618 478.92 419.292L476.962 420.314C475.003 421.337 473.053 422.371 471.111 423.417C469.591 424.223 468.832 424.626 467.317 425.437C460.954 428.74 454.577 432.598 448.09 435.141C439.259 438.599 426.656 437.351 412.022 444.185C387.574 455.601 372.264 457.953 350.132 473.694C338.973 481.629 327.553 490.096 317.981 499.925C305.317 512.93 295.188 528.471 284.631 543.133C280.988 548.193 277.315 553.246 273.611 558.293C270.822 562.084 267.984 565.844 265.098 569.573C262.825 572.506 261.699 573.931 259.536 576.605C257.396 579.179 255.21 581.693 252.772 583.531C251.674 584.351 250.581 585.209 249.526 586.019C249.174 586.291 248.8 586.551 248.477 586.811C242.514 591.612 236.434 590.782 231.206 587.126C225.978 583.469 224.79 579.711 229.903 574.256C230.468 573.612 231 572.939 231.496 572.241C232.25 571.238 232.646 570.706 233.457 569.593C252.034 544.14 269.089 516.419 290.946 493.566C302.779 481.207 317.692 469.687 331.372 459.402C359.465 438.285 389.519 419.916 420.185 402.824C422.39 401.594 424.599 400.372 426.812 399.158C433.459 395.513 440.134 391.906 446.837 388.335L451.248 385.986C458.05 382.412 464.876 378.878 471.725 375.384C511.706 354.91 553.566 333.23 579.568 297.54C591.504 281.147 591.652 261.08 591.095 240.73C593.213 219.335 592.712 196.26 598.025 175.432C603.337 154.604 612.702 134.354 627.917 119.168C635.558 111.539 644.62 105.225 650.986 96.4997C663.913 78.7706 664.791 52.4564 682.614 39.6833C689.969 34.422 699.148 32.4195 708.133 31.3823C720.148 29.9904 733.647 31.6195 745.624 33.2373" fill="#EB8045"/>
<path d="M1.65915 358.124C-4.98773 372.263 -13.7545 385.069 -20.8481 398.937C-42.618 441.495 -41.5161 482.511 -37.22 529.391C-34.3812 560.415 -57.5878 525.387 -64.2476 513.538C-66.1976 510.067 -67.9941 506.499 -69.6372 502.836L-56.7619 372.806C-52.5563 367.032 -47.8121 361.67 -42.5932 356.792C-39.3456 353.771 -35.8239 350.795 -34.0708 346.548C-32.3177 342.302 -32.5955 337.464 -33.2359 332.864C-35.8518 314.079 -44.2253 295.81 -42.2979 277.001C-40.3704 258.192 -28.5062 242.521 -24.5852 224.165C-20.8002 206.431 -24.676 187.567 -21.6405 169.667C-18.6051 151.766 -3.29002 133.6 12.6605 139.59C20.9899 142.737 26.5875 151.714 28.6715 161.007C30.7554 170.3 29.9129 179.981 29.0586 189.452C27.1134 211.067 25.1651 232.682 23.2137 254.296C20.0051 289.888 16.5358 326.426 1.65915 358.124" fill="#E6D1C5"/>
<path d="M55.7368 86.2106C56.5863 79.5064 56.1705 72.6862 57.084 65.9929C59.6605 47.0067 72.7147 29.6337 70.6544 10.5831C69.1873 5.89212 61.7386 7.30903 58.6955 11.1726C55.6524 15.0362 54.1992 20.3806 49.9483 22.8431C48.4159 23.7361 46.6127 24.175 45.2552 25.3174C43.7355 26.5971 43.0036 28.5491 42.3314 30.4141C37.9277 42.626 33.4668 55.1805 33.742 68.1576C33.8773 74.4811 35.1422 80.7447 35.1516 87.0743C35.1686 95.6241 23.9855 124.205 35.9912 125.956C45.6569 127.377 54.9114 92.7176 55.7147 86.1991" fill="#FBC998"/>
<path d="M1746.44 319.332C1727.14 303.213 1702.11 290.408 1692.41 268.878C1685.22 246.868 1687.92 224.346 1703.76 209.701C1719.61 195.056 1732.98 190.07 1758.99 192.548L1746.44 319.332Z" fill="#EA7534"/>
<path d="M1414.91 607.153L1413.81 609.579C1365.8 713.383 1285.14 786.721 1191.01 848C1134.14 884.975 1072.29 910.624 1009.04 933.524C999.403 937.019 983.199 942.639 978.543 932.544C975.419 925.687 982.117 921.396 988.954 917.017C992.275 914.894 995.621 912.751 997.895 910.283C998.766 909.361 999.614 908.438 1000.46 907.514C1001.33 906.574 1002.19 905.633 1003.06 904.689C1002.36 904.73 1001.63 904.728 1000.92 904.722C999.184 904.718 997.462 904.71 995.961 905.285C962.242 917.58 927.744 927.509 893.237 937.436L892.879 937.54L892.654 934.839C892.491 932.966 827.888 945.141 728.758 969.411C629.628 993.681 587.721 1023.53 472.023 1002.93C463.997 1001.5 457.235 995.894 449.408 993.629C409.694 982.058 361.61 971.776 325.617 949.584C259.502 908.798 198.864 857.198 129.466 821.525C74.2421 793.133 13.4649 785.235 -39.6161 752.974C-62.4569 739.104 -74.2091 726.165 -90.0245 708.729L-69.2816 499.244C-66.3108 500.003 -63.3175 500.722 -60.3196 501.441C-38.9608 506.551 -17.3261 511.734 -2.94991 529.966C13.1024 550.356 6.84421 583.641 -15.9132 613.992L-16.6952 615.043C-42.2346 649.622 -38.9124 667.604 -3.44433 693.032C14.2115 705.715 32.7675 718.873 52.9943 721.488L52.7 721.459C117.172 745.599 180.708 771.024 241.372 803.414C243.188 804.768 244.994 806.136 246.759 807.532C262.322 819.78 276.457 833.795 292.181 845.864C301.023 852.655 311.854 856.699 320.278 864.001C351.042 890.658 326.428 883.578 358.895 898.47L360.73 899.302C380.629 908.237 417.093 921.348 435.406 909.482C453.409 897.837 434.645 892.691 459.675 893.41C473.565 893.81 487.187 897.95 501.073 898.15C502.52 898.172 503.541 894.94 502.41 894.025L500.246 890.323C520.889 896.852 542.807 906.257 550.745 890.564L551.992 890.019C567.825 893.444 584.217 896.576 601.179 899.714L606.802 900.735C637.298 906.327 690.034 914.687 727.206 909.871L751.025 906.774C818.294 897.978 771.997 903.037 845.404 879.749L847.897 878.961C930.363 853.036 939.561 858.251 1005.16 798.884L1010.53 794.005C1026.62 779.255 1058.02 749.175 1059.79 727.88C1060.28 721.892 1052.61 717.419 1052.33 711.405C1051.91 702.69 1060.46 694.102 1057.76 685.802C1056.39 681.58 1049.33 689.225 1046.12 692.297C1036.2 701.771 1031.3 706.705 1028.56 708.987C971.781 749.211 909.736 777.706 841.683 792.925C840.29 793.302 838.978 794.268 837.676 795.226C837.106 795.634 836.536 796.041 835.957 796.448C836.289 796.946 836.611 797.442 836.935 797.966C837.678 799.212 838.515 800.398 839.439 801.515C852.238 815.426 841.154 819.645 832.527 822.928C831.466 823.333 830.443 823.72 829.508 824.115L826.916 825.251C803.222 835.376 777.973 839.261 752.71 843.148C743.681 844.539 734.647 845.929 725.687 847.6C723.879 848.069 722.132 848.749 720.481 849.624C719.673 850.008 718.864 850.393 718.05 850.734C718.953 850.991 719.85 851.307 720.748 851.619C722.843 852.356 724.957 853.095 727.1 853.116C775.394 854.007 822.583 846.362 869.368 835.337L869.734 835.253C870.971 834.953 872.349 834.583 873.785 834.15C880.203 832.315 887.8 830.147 889.371 834.541C891.498 840.486 884.007 843.924 877.845 846.749C876.643 847.299 875.49 847.83 874.473 848.347L872.587 849.302C811.518 879.895 745.37 887.316 678.371 889.876L674.228 890.027C575.261 893.563 487.43 864.213 409.266 802.747C402.335 797.292 394.915 792.425 387.518 787.593C366.471 773.799 345.661 760.149 336.975 733.449C331.14 715.436 331.34 696.953 331.545 678.475C331.637 669.76 331.733 661.049 331.194 652.383L331.153 651.715C329.886 632.246 324.86 615.483 303.476 608.421L303.158 608.31C298.68 606.641 299.508 602.586 303.581 599.911C331.365 581.907 355.264 591.986 359.879 623.594C352.064 648.497 350.182 674.637 360.857 698.873C362.756 703.138 366.622 706.297 370.287 709.191C371.883 710.457 373.485 711.719 375.094 712.977L376.228 713.86L377.667 714.982L379.198 716.169L380.602 717.237L382.177 718.442L383.585 719.51L385.183 720.723L386.57 721.765L388.231 723.002L389.572 723.994L391.416 725.347L392.577 726.191C393.582 726.917 394.587 727.644 395.613 728.349L396.127 729.913C415.976 788.957 478.684 845.443 547.446 862.922C578.814 870.993 611.072 875.088 643.462 875.113C645.515 875.061 647.583 874.434 649.627 873.81C650.547 873.53 651.461 873.254 652.37 873.033L650.537 872.266C648.724 871.45 646.861 870.749 644.959 870.168C641.658 869.181 638.335 868.235 635.029 867.29C615.449 861.711 595.859 856.131 579.774 842.498C577.807 840.799 576.661 838.113 575.515 835.428C574.973 834.157 574.43 832.887 573.798 831.719C574.978 831.242 576.164 830.616 577.353 829.996C579.856 828.684 582.374 827.359 584.89 827.357C598.353 827.386 611.837 827.894 625.326 828.404C662.634 829.813 699.97 831.221 736.884 822.493C738.309 822.17 739.858 821.859 741.467 821.554C748.377 820.279 756.131 818.827 756.76 811.767C756.938 810.218 756.641 808.652 755.909 807.276C767.137 808.387 778.445 808.409 789.677 807.342C792.068 807.114 794.526 806.814 796.608 805.618C798.691 804.422 800.317 802.113 799.976 799.739C791.754 796.701 782.991 795.401 774.241 795.923C769.626 796.2 764.925 796.974 760.444 795.852C758.396 795.343 756.46 794.446 754.407 793.982C749.003 792.756 743.291 794.59 737.842 793.587C733.232 792.735 729.255 789.95 725.025 787.934C723.424 787.172 721.304 786.595 720.056 787.851C719.138 788.772 719.209 790.311 719.866 791.454L718.971 791.119C692.192 781.006 665.387 770.881 642.04 753.446C596.979 719.899 597.227 674.351 644.352 644.003C648.696 641.211 653.059 638.365 657.452 635.494L657.502 635.462C698.293 608.823 741.213 580.794 790.087 586.469C825.29 590.563 860.137 589.25 894.877 587.944C923.53 586.867 952.117 585.793 980.795 587.75C989.172 588.301 1000.72 589.63 1001.44 599.243C1002.14 608.019 995.57 617.281 987.366 622.491C977.064 629.039 965.997 634.268 954.93 639.496C937.835 647.554 920.745 655.649 906.522 668.598C897.057 677.109 890.494 690.073 896.112 701.653C900.847 711.371 912.052 708.552 921.351 706.218C922.179 706.012 922.994 705.805 923.783 705.614L926.546 704.959C965.549 695.578 999.316 675.205 1032 652.838L1035.16 650.672C1035.9 650.221 1036.68 649.844 1037.49 649.547C1037.97 649.348 1038.46 649.146 1038.94 648.915C1038.79 649.234 1038.65 649.569 1038.51 649.908C1038.19 650.874 1037.68 651.77 1037.02 652.546C977.964 712.557 880.689 760.816 786.625 740.117L786.252 740.034L784.737 739.721C778.942 738.549 772.379 737.216 770.81 729.474L770.901 728.554L774.425 726.544C783.051 721.627 791.613 716.75 800.185 711.73C801.385 710.917 802.486 709.966 803.465 708.897V708.897C803.864 708.472 804.254 708.098 804.653 707.724C803.881 707.74 803.092 707.695 802.307 707.645C800.728 707.553 799.154 707.458 797.693 707.866C793.817 708.931 789.832 710.259 785.799 711.601C769.21 717.122 751.834 722.905 738.169 711.792L737.459 711.225C717.729 695.662 702.666 703.225 687.138 711.016C684.26 712.462 681.363 713.912 678.419 715.232L677.932 715.458C664.973 721.46 665.776 731.123 675.594 740.146C709.065 770.878 750.817 776.029 793.515 776.366L795.497 776.377C860.876 776.582 922.189 761.016 972.035 717.245L973.508 715.965C981.478 709.102 989.895 702.73 998.304 696.398C1014.82 683.927 1031.31 671.478 1044.35 655.213L1045.22 654.143C1046.5 652.57 1047.83 650.988 1049.15 649.392C1061.85 634.161 1075.56 617.717 1068.68 596.764C1061.76 575.519 1041.63 570.99 1022.28 566.632C1019.43 565.987 1016.59 565.348 1013.81 564.66L1012.48 564.328C1009.1 563.469 1005.7 562.687 1002.29 561.926C1002.44 561.852 1002.59 561.774 1002.74 561.693C1003.96 560.996 1003.78 559.088 1002.42 558.745L1002.19 558.722L975.55 556.266C973.888 555.887 972.224 555.495 970.559 555.089C967.962 554.497 965.62 552.078 963.65 549.836L962.979 549.059C962.639 548.742 965.246 544.928 967.125 543.726C1009.13 516.312 1111.1 521.765 1149.21 553.398C1167.33 568.439 1176.63 588.741 1183.76 610.373L1185.18 614.785C1207.94 684.509 1225.23 688.979 1285.99 644.27C1318.78 620.122 1347.27 591.703 1373.42 560.666L1373.65 560.41C1374.05 559.934 1374.46 559.427 1374.87 558.911C1377.77 555.335 1381.09 551.229 1385.56 553.255C1388.23 554.448 1389.62 561.811 1389.11 566.018C1384.22 606.014 1366.57 640.203 1341.01 670.835L1340.76 670.536C1341.93 668.602 1343.1 666.672 1344.27 664.745C1356.26 645.038 1368.26 625.309 1373 602.167C1373.15 601.49 1373.33 600.779 1373.51 600.054C1374.6 595.83 1375.8 591.073 1371.41 589.139C1368.75 587.947 1362.81 591.621 1359.67 594.477L1355.49 598.215C1323.46 626.844 1290.65 654.519 1253.32 676.318C1215.99 698.117 1194.83 689.517 1181.28 648.531C1179.6 643.462 1178.04 638.325 1176.48 633.198C1168.43 606.678 1160.38 580.097 1135.49 562.5C1134.22 561.572 1132.9 560.763 1131.56 559.966L1129.55 558.765C1118.27 551.996 1106.26 547.845 1092.89 548.003C1095.91 549.118 1098.96 550.154 1102.02 551.191C1108.68 553.453 1115.37 555.721 1121.67 558.82C1136.59 566.152 1146.41 576.945 1153.55 589.543C1149.63 585.32 1145.04 581.68 1140.38 578.177L1140.05 577.931L1138.24 576.567C1132.92 572.581 1127.52 568.542 1121.39 565.984C1113.7 562.753 1105.24 561.957 1096.94 561.199C1079.83 559.641 1062.31 558.119 1045.72 562.573C1054.07 568.6 1064.03 571.969 1074.32 572.239C1084.97 572.496 1096.31 569.49 1105.98 574.014C1106.36 574.191 1106.74 574.382 1107.1 574.589L1107.47 574.797C1107.71 574.933 1107.95 575.068 1108.18 575.212L1108.62 575.483C1108.83 575.615 1109.03 575.747 1109.24 575.888C1109.44 576.029 1109.53 576.092 1109.67 576.195L1110.24 576.609L1110.67 576.949C1110.85 577.092 1111.03 577.235 1111.2 577.382C1111.37 577.529 1111.47 577.622 1111.63 577.749C1111.78 577.876 1111.96 578.047 1112.13 578.203C1112.29 578.358 1112.39 578.461 1112.52 578.59C1112.65 578.719 1112.84 578.904 1112.99 579.064L1113.37 579.473C1113.52 579.636 1113.67 579.8 1113.82 579.981L1114.18 580.407L1114.59 580.912L1114.94 581.36C1115.07 581.536 1115.2 581.716 1115.35 581.897L1115.68 582.357C1115.81 582.542 1115.94 582.726 1116.06 582.915C1116.19 583.104 1116.27 583.228 1116.36 583.409C1116.46 583.591 1116.61 583.796 1116.73 583.989C1116.85 584.182 1116.93 584.31 1117.02 584.482L1117.36 585.092C1117.45 585.254 1117.55 585.411 1117.63 585.582C1117.72 585.753 1117.86 586.009 1117.97 586.224L1118.21 586.712C1118.32 586.937 1118.43 587.166 1118.54 587.395L1118.75 587.881C1118.87 588.129 1118.98 588.367 1119.08 588.633L1119.27 589.046L1119.67 590.014L1119.74 590.212C1119.9 590.613 1120.05 591.017 1120.19 591.422C1120.23 591.547 1120.27 591.667 1120.31 591.791C1120.41 592.075 1120.51 592.363 1120.6 592.651C1120.66 592.81 1120.7 592.972 1120.76 593.13L1120.99 593.887L1121.14 594.418L1121.34 595.143L1121.48 595.696C1121.54 595.934 1121.6 596.172 1121.66 596.41C1121.71 596.6 1121.75 596.791 1121.8 596.981C1121.84 597.17 1121.91 597.456 1121.96 597.684L1122.08 598.267C1122.13 598.5 1122.18 598.741 1122.23 598.964C1122.27 599.187 1122.3 599.357 1122.34 599.556C1122.37 599.754 1122.43 600.029 1122.47 600.256L1122.57 600.841C1122.61 601.078 1122.65 601.313 1122.68 601.545C1122.72 601.776 1122.74 601.936 1122.78 602.129L1122.87 602.836L1122.95 603.424L1123.04 604.119C1123.07 604.317 1123.09 604.514 1123.11 604.707C1123.13 604.9 1123.16 605.176 1123.18 605.411L1123.24 605.983C1123.26 606.222 1123.29 606.452 1123.3 606.699C1123.32 606.947 1123.34 607.069 1123.35 607.257C1123.41 608.071 1123.47 608.884 1123.5 609.686C1123.54 610.559 1123.66 611.426 1123.85 612.279L1123.84 612.334C1123.2 626.813 1119.01 641.108 1116.27 655.449C1114.92 662.558 1113.93 669.791 1114.31 677.016C1115.2 693.249 1123.06 708.347 1125.18 724.469C1125.7 728.165 1125.73 731.917 1125.26 735.62C1125.01 736.215 1124.75 736.808 1124.48 737.401C1124.4 737.597 1124.3 737.792 1124.21 737.987C1124.04 738.383 1123.85 738.783 1123.66 739.173L1123.33 739.869L1122.81 740.931C1122.69 741.175 1122.56 741.413 1122.44 741.656L1121.91 742.671L1121.51 743.403C1121.33 743.738 1121.15 744.068 1120.95 744.401C1120.82 744.639 1120.69 744.877 1120.55 745.114C1120.35 745.465 1120.14 745.812 1119.94 746.159C1119.81 746.374 1119.69 746.598 1119.56 746.799C1119.24 747.338 1118.91 747.872 1118.58 748.401L1118.54 748.449L1117.86 749.496L1117.52 750.019L1117.38 750.242C1117.21 750.485 1117.05 750.729 1116.88 750.968C1116.71 751.206 1116.56 751.447 1116.39 751.685L1116.17 752.007C1115.85 752.44 1115.52 752.913 1115.19 753.364L1114.92 753.741L1114.63 754.121C1114.4 754.428 1114.18 754.73 1113.94 755.032C1113.84 755.171 1113.73 755.304 1113.62 755.465L1113.31 755.857C1113.09 756.141 1112.87 756.426 1112.64 756.719L1112.3 757.149C1112.23 757.24 1112.15 757.325 1112.08 757.411C1111.82 757.729 1111.55 758.046 1111.29 758.359C1111.18 758.501 1111.06 758.638 1110.94 758.788C1110.72 759.049 1110.49 759.305 1110.26 759.566C1110.14 759.703 1110.02 759.84 1109.9 759.995L1109.55 760.388L1109.37 760.588C1109.08 760.915 1108.78 761.243 1108.48 761.572L1108.16 761.907C1107.89 762.192 1107.64 762.478 1107.35 762.756L1107.01 763.112L1106.87 763.251C1105.49 764.663 1104.07 766.022 1102.62 767.329L1102.49 767.438C1102.14 767.751 1101.78 768.059 1101.43 768.372L1100.87 768.86C1100.84 768.876 1100.82 768.894 1100.8 768.914C1100.5 769.163 1100.2 769.412 1099.9 769.665L1099.2 770.242C1099.03 770.383 1098.85 770.518 1098.7 770.656L1098.29 770.978C1098.04 771.18 1097.79 771.392 1097.52 771.584L1096.76 772.164L1096.62 772.266L1095.79 772.89L1095.26 773.264L1094.9 773.53L1094.03 774.145L1093.79 774.308L1093.15 774.754L1092.23 775.365L1091.83 775.627L1091.34 775.936L1090.39 776.538L1090.34 776.566L1089.52 777.074L1088.53 777.673L1087.68 778.174L1086.63 778.766C1086.36 778.92 1086.08 779.074 1085.8 779.223C1085.43 779.427 1085.05 779.613 1084.68 779.822L1084.48 779.928L1083.9 780.228C1083.48 780.446 1083.05 780.654 1082.62 780.867C1082.41 780.971 1082.19 781.085 1081.97 781.188C1081.32 781.502 1080.67 781.804 1080.03 782.096C1075.17 784.289 1070.06 786.05 1065.49 788.815C1060.22 792.007 1055.82 796.419 1051.15 800.437C1042.07 808.252 1031.85 814.644 1020.85 819.395C1017.54 820.823 1013.96 822.269 1011.99 825.288C1010.03 828.306 1010.94 833.387 1014.46 834.131C1031.21 824.929 1048.6 816.941 1066.49 810.23C1070.96 808.556 1075.59 806.879 1079.11 803.647C1081.81 801.17 1083.66 797.946 1085.73 794.933C1096.81 778.85 1114.13 768.743 1126.61 753.942C1138.77 739.535 1148.15 721.813 1158.26 705.921C1161.46 700.876 1164.68 695.771 1166.81 690.188C1169.52 683.133 1170.43 675.544 1171.33 668.046C1172.29 659.936 1173.25 651.771 1172.65 643.633C1172.64 643.432 1172.61 643.23 1172.6 643.024C1174.67 650.524 1176.83 658.014 1179.41 665.331C1183.87 677.92 1188.87 687.041 1194.92 692.869L1194.69 692.651C1203.67 709.281 1215.38 716.882 1229.8 715.452C1235.62 714.877 1241.46 708.983 1246.84 710.858C1247.74 711.193 1248.18 711.404 1248.48 712.282C1249.19 714.633 1246.11 719.055 1244.27 721.552L1244.12 721.76C1240.58 726.58 1236.15 730.674 1231.07 733.816C1232.5 729.863 1232.62 725.501 1229.7 723.801C1223.59 720.228 1215.82 731.54 1209.13 729.193C1202.79 726.949 1203.25 716.417 1197.78 712.523C1193.93 709.788 1185.24 706.638 1183.67 711.127C1181.45 717.468 1190.22 723.043 1191.81 729.576C1192.55 732.617 1193.03 737.126 1190.43 738.851C1182.31 744.344 1163.71 747.215 1146.82 759.188C1129.92 771.161 1116.93 786.493 1101.5 808.924C1091.26 815.557 1081.36 822.281 1072.03 829.078C1072.53 828.747 1073.02 828.42 1073.55 828.1C1070.76 830.145 1068.04 832.23 1065.35 834.313L1064.51 834.969L1065.2 834.762C1040.53 842.21 1017.3 853.343 994.076 864.485C978.476 871.98 962.82 879.475 946.74 885.855C839.458 928.309 727.287 946.472 612.947 954.601L608.186 954.946C565.352 958.134 550.319 982.647 582.078 977.309C736.945 951.343 891.719 925.381 1041.42 872.26C1052.35 868.38 1063.32 864.599 1074.27 860.827C1143.47 836.992 1212.16 813.33 1269.17 765.318C1334.38 710.36 1391.59 648.406 1410.61 561.182C1418.64 524.093 1413.92 489.355 1383.89 462.204C1381.81 460.299 1378.96 459.302 1376.09 458.298L1375.77 458.183C1375.35 458.036 1374.9 457.988 1374.45 458.044C1374.01 458.099 1373.59 458.256 1373.21 458.503C1372.84 458.749 1372.53 459.078 1372.3 459.465C1372.08 459.851 1371.94 460.284 1371.91 460.731L1371.91 460.772C1371.72 463.447 1371.54 466.103 1372.04 468.627C1383.62 528.501 1319 621.397 1258.46 631.89C1228.91 637.053 1213.95 618.196 1201.47 597.58L1199.6 594.446C1175.6 554.535 1143.43 526.048 1097.19 514.867C1095.99 514.562 1094.91 513.778 1093.83 512.989C1093.3 512.597 1092.76 512.205 1092.2 511.871C1092.81 511.685 1093.41 511.442 1094.02 511.205C1095.17 510.666 1096.39 510.317 1097.66 510.173C1108.93 509.297 1119.58 512.25 1130.06 515.815L1132.23 516.563C1133.46 516.959 1134.73 517.275 1136 517.563C1136.86 517.769 1137.72 517.975 1138.56 518.207C1137.8 517.667 1137.07 517.13 1136.34 516.539C1135.28 515.646 1134.14 514.841 1132.94 514.131C1127.41 510.992 1121.85 507.888 1116.27 504.772C1112.45 502.649 1108.64 500.517 1104.83 498.379L1104.39 498.135C1098.4 494.724 1094.66 491.136 1094.26 482.418L1094.22 481.95C1093.54 474.157 1085.34 474.32 1078.72 474.453L1078.28 474.461L1077.69 474.472L1077.09 474.478L1073.74 474.476C1028.37 474.557 985.387 486.974 942.449 499.382C936.894 500.999 931.339 502.594 925.785 504.168L920.053 505.783L918.902 506.1L917.684 506.444L915.469 507.061C894.982 512.744 874.342 518.473 856.832 531.514C844.922 540.434 842.986 551.543 851.903 563.528L852.213 563.954C858.682 572.854 854.483 576.107 846.148 577.993L845.355 578.165C834.709 580.361 824.163 578.128 813.768 575.915C803.19 573.665 792.768 571.444 782.561 573.986C718.785 589.995 658.878 615.558 614.735 666.394C592.452 692.047 602.831 724.862 636.685 753.594C654.968 769.041 676.133 779.49 697.323 789.955C703.197 792.858 709.071 795.762 714.889 798.762C715.561 799.102 716.271 799.437 716.994 799.778C721.679 801.983 726.925 804.476 726.361 810.177C725.681 816.202 719.706 817.314 714.53 818.292L714.108 818.371L710.629 819.048C669.068 826.88 627.871 821.793 586.68 815.565L582.691 814.961C571.26 813.179 559.957 811.507 548.512 810.095L547.417 809.987C542.27 809.361 536.516 808.661 533.509 813.717C531.035 817.874 533.227 821.675 535.378 825.408C536.032 826.545 536.681 827.677 537.196 828.81C537.733 830.043 538.458 831.396 539.195 832.765C541.071 836.242 542.995 839.827 541.938 841.784C539.822 845.753 535.116 844.651 530.793 843.624C529.768 843.383 528.765 843.145 527.825 842.982L526.361 842.712C478.096 833.47 429.238 787.257 409.019 737.765L409.15 737.852L411.697 739.465L412.86 740.188L414.02 740.906L414.255 741.44C428.325 773.172 452.367 798.03 485.783 816.23C495.103 821.332 502.649 821.884 502.906 806.164L502.923 805.428C503.593 784.92 517.564 788.305 529.254 791.124C531.177 791.589 533.036 792.038 534.764 792.362L541.373 793.657C545.623 794.502 549.884 795.36 554.156 796.232L554.234 796.24C562.787 797.978 571.34 799.712 579.908 801.289L587.55 803.267L593.388 804.797L595.135 805.258L599.931 806.527L601.74 807.013L606.977 808.427L608.302 808.786C610.535 809.392 612.773 810.004 615.033 810.632C618.134 811.409 621.292 811.942 624.477 812.226C634.198 813.231 647.009 813.129 653.587 810.326C655.003 809.724 655.958 808.374 656.623 806.861L659.965 806.691C665.517 806.372 671.372 805.573 672.948 799.739C674.473 794.091 669.46 790.604 664.882 787.421C663.757 786.636 662.662 785.873 661.694 785.099L660.097 783.836C657.289 781.622 654.463 779.438 651.638 777.255C638.897 767.408 626.19 757.602 615.398 745.32C589.985 716.495 587.878 681.648 615.085 654.7C658.891 611.301 714.283 586.559 770.53 563.861L777.953 560.881C780.848 559.775 784.355 558.924 787.165 559.569C807.436 563.94 831.004 547.348 845.96 526.709C847.821 524.14 844.943 520.804 842.12 522.257C821.962 532.644 800.36 551.418 785.679 552.578C773.418 553.547 761.059 554.519 750.566 561.318L747.095 563.551C731.155 573.581 714.442 582.419 697.724 591.262L697.696 591.259C684.153 598.425 670.6 605.594 657.463 613.393C658.087 610.419 656.321 607.62 654.086 605.857L656.585 604.392L663.633 600.316C667.903 597.836 672.174 595.346 676.445 592.846C703.978 576.731 731.693 560.508 761.033 548.545C787.574 537.708 813.641 525.608 839.723 513.499C904.454 483.437 969.188 453.346 1041.42 442.738C1106.69 433.085 1167.52 438.458 1218.87 485.224C1221.75 487.92 1224.58 491.163 1226.37 494.678C1226.75 495.454 1227.18 496.23 1227.6 497.01C1230.88 503.166 1238.89 514.871 1231.57 516.96L1225.55 513.81C1221.79 511.116 1221.96 508.147 1217.29 503.966C1216.24 503.063 1215.11 502.26 1213.97 501.45C1213.51 501.122 1213.05 500.793 1212.59 500.46C1212.52 500.402 1212.42 500.364 1212.33 500.35C1212.23 500.337 1212.13 500.348 1212.04 500.382C1211.95 500.417 1211.87 500.474 1211.81 500.547C1211.74 500.621 1211.7 500.71 1211.68 500.805C1211.59 501.182 1211.51 501.559 1211.42 501.936C1211.01 503.384 1210.78 504.879 1210.76 506.384C1210.88 514.544 1208.91 518.519 1199.14 515.885L1197.21 515.341C1190.06 513.309 1181.11 510.76 1176.38 517.337C1172.21 523.177 1176.58 528.471 1180.67 533.427C1181.84 534.852 1182.99 536.243 1183.91 537.616C1195.52 555.16 1207.13 572.705 1219.63 589.502C1236.16 611.703 1257.34 613.987 1279.98 599.74C1307.66 582.195 1330.75 559.659 1347.65 531.318C1359.86 510.794 1361.38 490.231 1352.81 470.717C1348.45 451.577 1333.4 433.617 1307.77 416.538C1279.46 397.692 1248.29 386.866 1216.56 377.627C1214.87 376.456 1213.42 374.734 1211.97 373.027C1211.51 372.469 1211.04 371.917 1210.56 371.378C1210.33 371.116 1210.2 370.772 1210.21 370.419C1210.22 370.065 1210.37 369.73 1210.63 369.485C1211.18 368.951 1211.73 368.378 1212.29 367.792C1214.03 365.969 1215.78 364.145 1217.8 363.667C1262.92 352.663 1313.74 344.843 1348.37 375.203C1383.08 405.57 1417.57 442.908 1429.73 492.281C1439.69 532.776 1431.15 570.993 1414.75 607.384L1414.91 607.153ZM780.936 626.65C816.719 628.689 866.332 670.979 889.022 643.231L891.467 639.499C906.557 621.027 879.361 623.85 861.127 621.172C848.269 619.267 835.109 615.387 822.019 612.155L824.153 612.831L825.4 613.223C819.408 611.33 813.439 609.48 807.832 607.769L791.287 602.718C790.675 602.532 790.041 602.424 789.401 602.397C752.263 600.962 725.075 615.993 698.666 632.48L692.964 636.052C692.618 636.218 692.474 636.728 692.326 637.238C692.269 637.442 692.212 637.645 692.143 637.824C692.539 637.806 692.935 637.812 693.33 637.839C693.993 637.923 694.666 637.866 695.306 637.673C708.386 632.964 721.713 628.971 735.228 625.714L732.912 626.877C732.568 627.049 732.271 627.302 732.049 627.615C731.826 627.929 731.684 628.292 731.635 628.673C731.586 629.055 731.632 629.442 731.769 629.801C731.906 630.161 732.129 630.481 732.419 630.733C745.627 642.098 764.947 625.787 780.916 626.713L780.936 626.65ZM675.176 752.056C654.506 739.01 640.329 715.713 676.185 697.747C698.171 686.724 723.634 684.514 746.759 676.101C753.604 673.607 752.313 664.606 746.223 661.868C739.329 658.728 732.061 656.484 724.597 655.19L724.602 655.144L724.31 654.994L721.298 653.428L719.85 652.677L717.374 651.373C678.112 648.228 628.756 673.071 622.023 697.97C617.337 715.382 639.393 747.208 657.482 748.907C657.959 748.931 658.436 748.872 658.892 748.73L659.367 748.629L659.684 748.567C659.606 748.276 659.529 747.972 659.458 747.663C659.267 746.679 658.938 745.727 658.479 744.836C658.001 744.041 657.539 743.266 657.09 742.502L658.082 744.165C662.146 746.959 666.454 748.708 672.267 750.956L675.261 752.097L675.176 752.056Z" fill="#4195C4"/>
</g>
<path d="M613.963 242.912C628.864 246.174 644.621 258.502 666.952 266.417C683.249 272.192 702.262 275.196 719.012 280.643C733.336 285.292 748.413 294.33 759.613 298.996C771.973 304.148 780.022 304.975 785.585 308.122L785.84 308.256L785.23 307.905C781.598 305.839 777.985 304.347 773.918 302.67C767.793 300.246 761.828 297.434 756.06 294.251C752.779 292.403 748.94 289.797 744.873 287.015C737.772 282.159 729.977 276.827 723.254 274.433C715.121 271.545 706.412 269.961 697.841 268.399C685.527 266.158 673.481 263.968 663.833 258.026C634.825 240.176 602.379 229.175 578.241 229.175C546.299 229.175 512.809 228.066 488.232 226.402C498.94 230.289 509.863 233.556 520.946 236.189C549.469 242.829 580.334 235.542 613.968 242.907" fill="#E6D1C5"/>
<path d="M1529.72 995.586C1562.15 943.836 1531.14 887.229 1518.34 836.5C1514.86 822.726 1514.99 808.111 1510.68 794.577C1506.76 782.263 1498.28 771.802 1493.89 759.655L1489.73 748.14C1482.63 728.309 1490.47 716.9 1488.01 709.013L1487.45 707.165L1484.29 700.594C1481.4 694.537 1477.94 675.315 1473.82 666.402L1471.89 662.243C1448.69 612.078 1467.04 571.186 1458.71 522.189C1448.76 463.665 1443.82 541.988 1450.46 449.105C1453.94 400.441 1478.25 346.357 1506.32 306.602C1510.22 301.057 1516.97 291.816 1523.34 277.39C1529.71 262.965 1537.49 212.319 1552.82 181.388C1557.4 172.19 1563.45 163.796 1570.72 156.534C1553.51 164.851 1541.05 158.073 1528.01 150.99C1521.51 147.464 1514.87 143.855 1507.42 141.993C1487.06 136.911 1480.37 152.505 1472.61 170.59C1471.28 173.704 1469.91 176.893 1468.45 180.062L1467.53 182.054C1461.73 194.77 1457.69 219.019 1453.38 244.838C1450.23 263.713 1446.94 283.425 1442.73 300.087L1442.11 302.503C1438.28 317.063 1426.36 325.144 1414.47 333.184C1408.89 336.964 1403.31 340.739 1398.58 345.197C1374.68 367.69 1363.8 402.627 1374.77 424.565C1378.54 431.958 1385.19 435.83 1392.05 439.314L1397.19 441.892C1398.92 442.708 1400.69 443.428 1402.5 444.05C1408.27 446.153 1414.18 448.31 1413.98 454.798C1413.74 462.112 1406.51 465.346 1399.88 467.735L1396.05 469.122C1388.79 471.806 1381.08 473.405 1373.41 474.994C1371.32 475.429 1369.25 475.858 1367.17 476.311L1366.71 476.413C1365.48 476.676 1364.22 476.875 1362.96 477.087C1357.28 478.012 1351.53 478.963 1348.8 485.164C1345.5 492.659 1349.13 499.026 1353.03 504.991L1354.88 507.8C1361.5 517.582 1370.91 524.772 1382.08 527.47L1382.96 527.692C1407.35 534.008 1412.34 552.098 1417.76 571.699C1418.54 574.508 1419.32 577.349 1420.17 580.191L1420.82 582.317C1430.65 613.737 1442.43 644.533 1454.21 675.301C1469.85 716.156 1485.49 757.007 1496.54 799.382L1497.07 801.392C1500.4 813.822 1504.52 826.062 1508.62 838.297C1517.13 863.646 1525.65 888.985 1527.24 915.992C1530.26 967.1 1501.65 1009.48 1445.26 1035.1L1445.41 1035.03L1450.15 1034.16C1472.15 1030.1 1492.29 1025.78 1510.98 1017.53C1518.21 1011.13 1524.49 1003.75 1529.65 995.596" fill="#FBC998"/>
<path d="M1312.05 277.414C1320.01 295.088 1330.44 311.939 1334.5 330.892C1340.43 358.57 1332.26 388.65 1342.62 414.987C1343.4 416.974 1344.42 419.076 1346.34 420.019C1352.11 422.851 1355.82 413.55 1355.59 407.123C1353.9 354.288 1356.99 301.409 1364.83 249.131C1366.05 241.013 1367.4 232.825 1370.53 225.234C1375.28 213.682 1383.9 204.062 1388.41 192.427C1391.03 185.532 1392.15 178.154 1391.69 170.791C1391.22 163.427 1389.19 156.248 1385.73 149.733C1374.68 143.093 1359.58 148.523 1351.27 158.378C1342.96 168.234 1339.76 181.296 1336.82 193.851C1334.45 203.988 1332.07 214.124 1329.69 224.259C1329.26 226.107 1328.74 228.094 1327.28 229.304C1316.29 238.388 1313.39 212.023 1302.7 229.642C1295.86 240.911 1307.37 267.091 1312.01 277.391" fill="#EB8045"/>
<path d="M1183.18 311.255C1175.71 303.372 1169.34 294.861 1162.5 286.475C1155.11 277.39 1144.9 271.342 1134.78 265.885C1117.22 256.432 1098.4 248.868 1080.8 239.118C1054.84 224.739 1030.65 216.588 1000.86 217.087C976.083 217.508 954.473 204.196 936.032 188.809C927.313 181.532 916.075 178.801 905.665 175.16C891.836 170.318 877.914 164.949 863.784 160.929C847.765 156.373 822.379 148.837 806.198 155.024C803.31 156.128 801.758 158.258 803.458 161.118C804.413 162.675 805.565 164.103 806.886 165.364C827.217 171.297 847.196 179.032 866.913 186.721C872.332 188.832 877.849 191.009 882.544 194.382L883.413 194.664C883.385 194.765 883.362 194.867 883.334 194.968C883.879 195.384 884.414 195.819 884.937 196.271C890.219 200.892 893.661 207.195 897.746 212.906C902.577 219.629 908.379 225.599 914.962 230.621C927.9 227.687 940.084 225.159 952.976 227.363C965.294 229.466 972.581 236.965 982.238 245.069C996.169 256.76 1011.97 267.415 1027.54 276.406C1041.22 284.307 1057.88 286.812 1073.4 290.268C1091.63 294.339 1109.13 299.14 1126.57 305.812C1142.94 312.077 1157.88 319.553 1172.98 328.508C1183.28 334.626 1204.57 346.958 1207.72 344.578C1210.88 342.199 1189.3 317.742 1183.15 311.245" fill="#FBC998"/>
<path d="M243.351 196.313C245.726 196.752 248.212 197.32 249.99 198.956C252.587 201.35 252.934 205.263 253.1 208.793C253.678 220.761 253.562 234.451 244.668 242.459C233.55 252.439 216.366 247.542 201.53 245.795C180.598 243.351 159.325 248.567 138.403 246.017C102.303 241.627 72.0795 214.948 36.1406 209.376C25.6842 207.754 14.5486 207.846 5.33512 202.634C2.35023 200.948 -0.648531 197.621 0.751506 194.497C1.57397 192.649 3.61164 191.748 5.49684 191.046C40.2667 178.048 81.3253 183.38 111.622 204.829C116.779 208.479 121.649 212.568 127.152 215.664C143.906 225.095 165.933 222.951 181.56 212.199C188.994 207.088 193.037 198.873 200.966 195.412C211.958 190.625 232.026 194.211 243.337 196.313" fill="#FBC998"/>
<path d="M676.761 189.077L560.092 169.542C551.313 168.068 542.275 166.52 534.554 162.047C527.549 157.985 521.972 151.706 514.759 148.023C506.863 143.994 497.705 143.403 488.842 143.232C457.534 142.588 426.27 145.882 395.784 153.037C388.229 154.811 379.196 158.54 378.604 166.27C377.948 174.744 387.956 179.702 396.315 181.241C427.915 187.049 460.846 178.718 492.423 184.586C517.227 189.207 539.622 202.255 563.881 209.177C586.646 215.673 610.549 216.644 634.22 217.573L704.24 220.317C714.983 220.738 725.869 221.181 736.122 224.369C749.457 228.505 760.921 236.984 772.625 244.571C798.729 261.464 827.165 274.446 857.029 283.106C847.067 259.121 824.865 240.597 799.48 235.126C773.433 229.503 766.368 218.765 744.458 207.264C723.859 196.452 699.393 192.871 676.734 189.077" fill="#FBC998"/>
<path d="M1013.4 303.589C1002.26 289.903 983.744 283.855 972.654 270.123C968.819 265.373 965.978 259.814 961.639 255.521C953.937 247.898 942.759 245.328 932.797 241.064C918.768 235.027 906.647 225.283 897.736 212.878C893.652 207.172 890.209 200.865 884.928 196.244C879.785 191.744 873.275 189.175 866.908 186.693C827.088 171.168 786.2 155.421 743.46 154.811C722.667 154.516 701.902 157.828 681.165 156.456C640.139 153.739 602.851 133.131 565.147 116.719C527.443 100.307 477.462 88.7692 445.732 101.707C437.766 110.121 484.859 107.113 497.317 122.781C503.929 131.098 509.681 140.409 516.215 148.814C522.734 152.556 528.016 158.254 534.535 162.033C542.256 166.506 551.271 168.04 560.073 169.528L676.762 189.077C699.402 192.871 723.891 196.47 744.485 207.264C766.396 218.769 773.461 229.503 799.507 235.126C824.893 240.615 847.099 259.121 857.057 283.106C855.768 282.732 854.478 282.339 853.194 281.947C869.759 290.726 886.079 299.967 902.223 309.467C912.037 315.252 921.976 321.222 933.042 323.915C939.28 325.431 945.763 325.87 951.903 327.737C969.582 333.11 974.96 328.12 974.544 327.561C972.581 324.789 973.981 323.139 977.58 323.051C993.549 322.668 1009.29 332.639 1015.76 347.245C1018.49 353.418 1019.71 360.302 1023.43 365.94C1027.15 371.577 1034.77 375.62 1040.67 372.339C1026.27 352.092 1029.06 322.857 1013.37 303.589" fill="#EB8045"/>
<path d="M790.46 310.927L787.808 309.397L785.849 308.265L785.585 308.122C780.041 304.975 771.973 304.148 759.613 298.996C748.413 294.329 733.317 285.292 719.012 280.643C702.262 275.205 683.249 272.192 666.952 266.416C644.621 258.501 628.864 246.174 613.963 242.912C580.33 235.546 549.464 242.833 520.941 236.193C509.858 233.561 498.936 230.293 488.228 226.407C456.581 215.091 430.66 201.234 414.298 199.034C390.452 195.828 375.116 185.635 363.435 173.728C359.119 173.39 321.901 124.084 305.659 124.084C273.92 124.084 256.436 139.119 245.827 181.43C245.572 182.44 245.314 183.44 245.056 184.429C245.314 183.44 245.578 182.442 245.832 181.43C245.578 182.442 245.314 183.445 245.051 184.438C245.028 184.517 245.009 184.595 244.986 184.674C244.723 185.667 244.45 186.656 244.178 187.626V187.668C244.039 188.162 243.896 188.657 243.753 189.146C243.609 189.636 243.466 190.121 243.323 190.607V190.657C243.106 191.387 242.884 192.117 242.658 192.834C242.885 192.119 243.107 191.394 243.323 190.657C243.055 191.558 242.782 192.441 242.505 193.319C242.417 193.596 242.325 193.869 242.237 194.146C242.038 194.77 241.835 195.393 241.627 195.994L241.821 195.421L241.627 195.994L243.374 196.318C245.749 196.757 248.235 197.325 250.014 198.961C252.615 201.354 252.957 205.268 253.123 208.798C253.701 220.765 253.585 234.456 244.691 242.463C233.573 252.444 216.39 247.546 201.553 245.804C180.622 243.351 159.348 248.576 138.426 246.021C127.91 244.741 117.893 241.572 108.083 237.579L106.092 237.39L105.629 237.344C104.673 237.247 103.721 237.15 102.765 237.043H102.598C101.73 236.946 100.861 236.849 99.9924 236.743L99.3732 236.669L96.9197 236.36L96.5639 236.313C95.6398 236.189 94.6833 236.055 93.7454 235.921L93.3203 235.861L90.9499 235.5L90.3123 235.398C89.4297 235.255 88.5518 235.112 87.6693 234.936H87.5584C86.6343 234.775 85.7102 234.608 84.7629 234.433L84.1992 234.327C83.4461 234.183 82.6975 234.035 81.9444 233.864L81.3252 233.74C79.477 233.361 77.6472 232.956 75.836 232.524L75.2029 232.372L72.9712 231.818L72.4121 231.674C71.488 231.44 70.5731 231.195 69.6675 230.94L69.4411 230.875C68.6186 230.644 67.7962 230.413 66.9737 230.163L66.3083 229.965C65.5475 229.734 64.7851 229.496 64.0211 229.253L63.5868 229.119C62.6812 228.83 61.7786 228.529 60.8791 228.218L60.4171 228.061C59.6685 227.802 58.9215 227.536 58.1761 227.262L57.5061 227.017C56.6929 226.716 55.8797 226.411 55.0664 226.093L54.8308 226C53.9344 225.649 53.0426 225.289 52.1555 224.919L51.5733 224.674C50.8617 224.366 50.1532 224.058 49.4478 223.75L48.7963 223.464C47.9184 223.071 47.0359 222.669 46.158 222.253L45.2338 221.828C44.205 221.369 43.17 220.955 42.1288 220.585L41.9902 220.534L41.0984 220.229L40.8674 220.155L40.0588 219.901L39.7723 219.818L39.0192 219.601L38.6957 219.513L37.9749 219.323L37.6237 219.236L36.9306 219.069L36.5518 218.986L35.8818 218.843L35.4844 218.764L34.8237 218.635L34.4217 218.561L33.7656 218.45L33.3543 218.381L32.7074 218.284L32.2823 218.224L31.6447 218.141L31.215 218.09L30.5773 218.016L30.143 217.97L29.51 217.905L29.0479 217.868L28.4149 217.817L27.9529 217.785L27.3245 217.743L26.8624 217.716L26.2756 217.683H25.8135L25.1713 217.655H24.7323H24.0947H23.6326H22.9903H20.3335H19.6959H19.2985H18.5777H18.2127L17.4595 217.683H17.1222L16.3275 217.716H16.0364L15.1631 217.757H14.9505L13.971 217.808H13.8647C13.0053 217.854 12.1458 217.9 11.2864 217.956L9.59528 218.057L7.65462 218.178L7.27112 218.201L6.87375 218.224H6.73513L6.15293 218.247H5.69088H5.12255H4.09678H3.63472H3.09411H2.63205L2.09606 218.219L1.67097 218.191L1.14885 218.15L0.769957 218.145L0.257072 218.09L-0.140299 218.044L-0.639323 217.974L-1.02283 217.919L-1.51261 217.836L-1.88226 217.771L-2.34432 217.679L-2.7001 217.605L-3.16216 217.494L-3.49947 217.415L-3.96152 217.295L-4.28496 217.203L-4.74702 217.069L-5.0566 216.976L-5.51866 216.828L-5.81438 216.722L-6.25333 216.565L-6.53981 216.454L-6.96952 216.279L-7.24213 216.168L-7.66723 215.978L-7.92136 215.858L-8.33722 215.655L-8.58673 215.53L-8.99334 215.317L-9.22437 215.188L-9.62636 214.957L-9.84814 214.828L-10.2409 214.583L-10.4488 214.449L-10.8369 214.19L-11.031 214.051L-11.4145 213.779L-11.5947 213.64C-11.7241 213.543 -11.8489 213.451 -11.969 213.349L-12.1446 213.21C-12.2693 213.113 -12.3895 213.012 -12.5096 212.905L-12.6713 212.767L-13.0363 212.448L-13.1842 212.309C-13.3043 212.199 -13.4245 212.088 -13.54 211.972L-13.6786 211.838L-14.0344 211.482L-14.1545 211.353C-14.2747 211.228 -14.3902 211.103 -14.5057 210.974L-14.6166 210.854C-14.7321 210.72 -14.8522 210.591 -14.9631 210.457L-15.0648 210.336C-15.1803 210.202 -15.2958 210.064 -15.4067 209.925L-15.4945 209.814L-15.8364 209.375C-15.8364 209.343 -15.8826 209.306 -15.9104 209.274C-16.0259 209.121 -16.1368 208.969 -16.2477 208.812C-16.2477 208.784 -16.2892 208.756 -16.3077 208.724C-16.4232 208.567 -16.5341 208.405 -16.645 208.239L-16.6959 208.165C-16.8114 207.994 -16.9223 207.827 -17.0332 207.652L-17.0655 207.596C-17.181 207.416 -17.2919 207.236 -17.4028 207.056L-17.4259 207.019C-17.5368 206.829 -17.6523 206.64 -17.7632 206.446C-20.9144 200.929 -22.5548 194.035 -23.9687 186.984L-25.0545 181.439L-23.9687 186.956C-24.0102 186.319 -26.7872 145.523 -71.3112 144.678L-71.3112 257.794C-66.3533 256.981 -61.3908 256.219 -56.4514 255.646C-37.0449 253.386 -18.1282 253.987 -2.03012 265.612C-1.28158 266.152 -0.539211 266.717 0.197002 267.308C1.30286 268.192 2.39332 269.132 3.46838 270.127C4.18303 270.792 4.89306 271.484 5.59847 272.201C6.30388 272.919 7.00005 273.663 7.68697 274.433C18.2866 286.331 24.7508 300.771 25.6472 315.811C25.7026 316.701 25.7365 317.594 25.7488 318.49V318.953C25.7938 325.432 24.7969 331.877 22.7963 338.04C22.6623 338.465 22.519 338.881 22.3758 339.292L22.2418 339.648C22.1402 339.935 22.0385 340.216 21.9276 340.494C21.8768 340.632 21.8213 340.771 21.7659 340.91C21.6642 341.165 21.5626 341.415 21.4609 341.658C21.4055 341.797 21.3454 341.935 21.2853 342.069C21.1791 342.319 21.0728 342.559 20.9619 342.799L20.7956 343.169L20.4074 343.973C20.3659 344.056 20.3289 344.139 20.2873 344.218C20.1117 344.564 19.9361 344.902 19.7559 345.234L19.682 345.364C19.5249 345.646 19.3678 345.923 19.2199 346.191L19.0397 346.487C18.9104 346.699 18.781 346.912 18.6516 347.115C18.5823 347.226 18.513 347.328 18.4483 347.434C18.3189 347.628 18.1896 347.822 18.0602 348.007L17.8523 348.312C17.7136 348.506 17.575 348.695 17.4318 348.885L17.2423 349.139C17.0668 349.374 16.8866 349.601 16.7017 349.827L16.6232 349.924C16.4106 350.183 16.1981 350.437 15.9763 350.682C15.9301 350.738 15.8793 350.788 15.8284 350.844C15.6621 351.029 15.4911 351.213 15.3248 351.389L15.0984 351.62L14.6363 352.082L14.3914 352.313L13.9294 352.734L13.6891 352.946C13.5228 353.094 13.3518 353.233 13.1808 353.376L12.9868 353.538C12.5247 353.921 12.0211 354.281 11.5267 354.623L11.3141 354.762C11.1386 354.882 10.9583 355.002 10.7781 355.113L10.5148 355.275C10.3484 355.381 10.1775 355.478 10.0111 355.58L9.73389 355.737L9.21177 356.023L8.95301 356.157C8.75433 356.264 8.55102 356.361 8.34771 356.462L8.16751 356.55L7.35891 356.915L7.24339 356.961C7.01236 357.058 6.78134 357.155 6.54569 357.243L6.28694 357.345L5.71861 357.553L5.42289 357.655L4.87304 357.835L4.70207 357.89L4.56808 357.932L3.9905 358.103L3.71789 358.177C3.47762 358.246 3.25583 358.306 2.99708 358.366L2.86308 358.403L1.99441 358.602L1.75414 358.648L1.12112 358.777L0.793061 358.833L0.233968 358.93L-0.117194 358.985L-0.671663 359.064L-1.01821 359.115L-1.60964 359.184L-1.92384 359.221L-2.74631 359.299H-2.94037L-3.72587 359.36H-4.08166L-4.64537 359.392H-5.04736L-5.5741 359.415H-5.98996H-6.51671H-7.86592H-8.76231H-9.1643H-9.70952H-10.1716H-10.6336H-11.1234L-11.5855 359.392L-12.0891 359.364L-12.5512 359.336L-13.0687 359.304L-13.4614 359.276L-14.7968 359.175H-14.8892L-15.5084 359.119L-15.841 359.092L-16.4556 359.036L-16.7836 359.004L-17.4305 358.944L-17.6939 358.916L-18.4008 358.842H-18.5164C-20.4062 358.643 -22.3006 358.422 -24.1904 358.204L-25.9139 358.006L-26.376 357.955L-28.6863 357.701H-28.8803L-31.0982 357.479H-31.3339C-32.1101 357.41 -32.8864 357.345 -33.6442 357.29L-37.4792 357.031C-38.4034 356.966 -39.2951 356.888 -40.2008 356.804L-40.8153 356.661L-42.987 356.444L-43.5877 356.379C-45.4082 356.182 -47.2287 355.963 -49.0492 355.723L-49.5944 355.649L-51.9047 355.335L-52.3668 355.275C-56.6408 354.679 -60.9195 354.018 -65.1981 353.385L-66.2932 353.228L-67.6147 353.034L-69.0009 352.84L-70.2438 352.669L-71.3112 352.516L-71.3112 478.164L-48.7073 460.181L-46.5032 458.457C-17.2919 435.775 17.2932 420.989 48.1402 400.621C61.1656 392.022 72.292 380.822 84.92 371.655C108.716 354.379 127.526 341.884 157.694 337.07C179.189 333.641 202.001 339.916 222.918 333.9C241.221 328.642 254.057 311.259 271.772 304.282C291.044 296.695 312.47 296.284 332.426 290.688C347.083 286.595 360.667 279.095 375.398 275.297C442.539 258.007 534.632 254.223 599.769 255.678L600.836 255.706C631.397 256.575 627.46 264.758 654.527 273.31C673.795 279.405 693.834 282.806 713.209 288.521C728.872 293.142 743.704 300.535 759.595 304.282C769.575 306.634 780.23 309.125 791.015 311.236L790.446 310.908L790.46 310.927ZM-69.4629 191.29C-69.2269 190.797 -68.9663 190.316 -68.682 189.849C-68.9663 190.316 -69.2269 190.797 -69.4629 191.29" fill="#EB8045"/>
<path d="M1194.22 256.639C1167.84 244.806 1144.52 223.228 1123.23 198.355C1119.37 193.841 1117.23 189.798 1116.49 186.226C1100.32 181.743 1084.6 175.792 1069.51 168.446C1060.64 164.126 1051.84 159.269 1042.14 157.495C1027.81 154.871 1013.2 159.232 999.532 164.227C997.056 165.128 994.45 166.14 992.796 168.183C990.425 171.089 990.545 175.298 991.409 178.948C996.543 200.633 1020.98 211.353 1042.92 215.345C1066.02 219.55 1090.11 220.012 1111.91 228.745C1118.56 231.415 1124.88 234.821 1131.2 238.217C1152.7 249.801 1174.29 261.431 1193.96 275.916C1209.13 287.084 1225.56 300.664 1244.23 298.197C1244.18 297.146 1244.08 296.103 1243.94 295.068C1232.71 281.669 1217.39 267.021 1194.22 256.621" fill="#EB8045"/>
<path d="M1194.22 256.639C1254.87 283.85 1261.73 340.05 1282.12 327.616C1297.74 318.167 1252.11 256.459 1248.18 240.112C1240.42 207.768 1280.88 161.127 1242.31 152.861C1203.74 144.595 1197.22 172.522 1164.95 167.679C1132.68 162.837 1101.95 173.497 1123.23 198.355C1144.52 223.214 1167.84 244.806 1194.22 256.639" fill="#FBC998"/>
<path d="M1714.75 180.922C1713.38 180.95 1712.01 181.121 1710.66 181.43C1691.47 181.573 1693.11 150.357 1680.36 135.39C1668.67 121.663 1652.13 114.298 1625.03 124.084C1606.33 130.835 1586.35 140.852 1570.73 156.576C1563.46 163.838 1557.41 172.231 1552.82 181.43C1537.49 212.36 1529.72 263.029 1523.34 277.436C1516.97 291.843 1510.23 301.117 1506.32 306.643C1478.25 346.38 1453.95 400.483 1450.46 449.147C1443.82 542.02 1448.76 463.706 1458.71 522.23C1467.03 571.209 1448.69 612.119 1471.9 662.285L1473.82 666.443C1477.95 675.343 1481.4 694.564 1484.3 700.636L1487.45 707.206L1488.02 709.054C1490.48 716.942 1482.64 728.35 1489.73 748.182L1493.89 759.696C1498.29 771.844 1506.77 782.305 1510.68 794.618C1514.99 808.152 1514.84 822.767 1518.35 836.541C1531.15 887.27 1562.15 943.863 1529.73 995.632C1524.56 1003.78 1518.28 1011.16 1511.06 1017.56C1512.49 1016.93 1513.91 1016.27 1515.33 1015.59C1520.3 1012.41 1525.22 1009.46 1530.35 1007.16C1546.86 996.432 1562.23 981.142 1576.79 958.293L1577.9 956.533C1578.28 955.918 1578.67 955.322 1579.05 954.731L1579.33 954.269L1579.22 954.361L1579.03 954.523L1578.69 954.772L1578.55 954.879L1578.3 955.05L1578.15 955.142C1578.02 955.221 1577.9 955.299 1577.77 955.369C1578.14 953.918 1578.52 952.464 1578.9 951.007C1579.1 950.235 1579.29 949.459 1579.49 948.696C1579.67 947.994 1579.85 947.31 1580.03 946.589C1580.23 945.776 1580.44 944.963 1580.64 944.145C1580.87 943.252 1581.09 942.359 1581.32 941.465C1581.43 941.003 1581.55 940.541 1581.66 940.102C1582.04 938.562 1582.42 937.04 1582.8 935.537C1584.61 928.287 1586.43 921.028 1588.35 913.82L1588.42 913.548C1589.36 909.984 1590.33 906.43 1591.33 902.888L1591.4 902.638C1591.88 900.966 1592.36 899.295 1592.86 897.625C1592.89 897.5 1592.93 897.38 1592.96 897.26C1593.48 895.51 1594.01 893.761 1594.55 892.011C1598.9 878.117 1611.06 874.157 1623.8 871.962L1625.04 871.754L1627.81 871.292C1657.22 866.644 1664.43 855.481 1657.98 826.768C1657.92 826.51 1657.86 826.251 1657.8 825.988L1657.3 823.747L1656.79 821.501C1653.37 806.059 1650.51 790.483 1647.76 774.87C1647.58 773.832 1647.4 772.791 1647.21 771.747L1647.17 771.534L1645.63 762.662C1642.31 743.792 1631.98 731.506 1617.3 724.598C1616.69 724.307 1616.07 724.03 1615.45 723.762C1614.2 723.221 1612.91 722.722 1611.61 722.255C1608.93 721.307 1606.19 720.519 1603.42 719.894C1602.71 719.733 1602 719.58 1601.28 719.432L1592.73 717.69C1584.41 716.008 1576.01 714.516 1567.88 714.456C1553.38 714.363 1539.72 718.855 1528.78 735.091L1528.58 735.378L1528.34 735.701C1527.61 736.625 1526.95 737 1526.39 737.027C1525.36 737.074 1524.56 735.997 1523.95 734.8L1523.84 734.579C1523.77 734.426 1523.7 734.274 1523.63 734.117C1523.53 733.89 1523.44 733.654 1523.35 733.451L1522.39 731.021C1521.61 729.02 1520.87 727.024 1520.17 725.046C1498.76 664.484 1513.67 614.397 1592.78 595.873C1594.69 586.942 1597.2 578.07 1598.43 569.028C1601.5 546.452 1596.48 523.584 1596.84 500.805C1597.1 483.944 1600.3 467.282 1603.49 450.722C1606.61 434.522 1609.74 418.29 1614.42 402.469C1617.71 391.338 1621.92 380.157 1629.56 371.424C1634.49 365.805 1640.58 361.494 1647.26 358.14C1647.31 357.451 1647.35 356.753 1647.41 356.079C1647.41 356.07 1647.41 356.06 1647.41 356.051C1647.45 355.529 1647.51 355.011 1647.6 354.508C1647.6 354.466 1647.6 354.425 1647.62 354.378C1647.66 354.147 1647.7 353.916 1647.75 353.699C1647.76 353.684 1647.76 353.668 1647.75 353.653C1647.81 353.417 1647.88 353.191 1647.95 352.96C1647.96 352.919 1647.98 352.879 1647.99 352.84C1648.05 352.66 1648.12 352.479 1648.19 352.308L1648.26 352.147C1648.35 351.944 1648.46 351.747 1648.57 351.555V351.555C1648.92 350.939 1649.26 350.323 1649.59 349.707C1649.67 349.564 1649.75 349.425 1649.82 349.282C1650.15 348.666 1650.47 348.05 1650.78 347.434L1650.89 347.207C1651.16 346.662 1651.43 346.112 1651.7 345.562C1651.77 345.396 1651.86 345.23 1651.93 345.068C1652.21 344.472 1652.49 343.88 1652.75 343.284C1652.82 343.132 1652.88 342.979 1652.95 342.822C1653.16 342.36 1653.37 341.857 1653.58 341.376C1653.66 341.177 1653.74 340.983 1653.82 340.789C1654.06 340.216 1654.28 339.643 1654.52 339.066C1654.61 338.849 1654.69 338.627 1654.78 338.41C1654.94 337.994 1655.1 337.583 1655.24 337.167C1655.33 336.926 1655.42 336.705 1655.51 336.451C1655.72 335.91 1655.91 335.369 1656.1 334.829C1656.21 334.533 1656.32 334.237 1656.42 333.946L1656.75 332.981C1656.94 332.448 1657.12 331.916 1657.29 331.386L1657.55 330.592L1657.94 329.4L1658.09 328.937C1660.5 321.369 1662.51 313.657 1664.88 306.061C1672.84 280.237 1693.8 269.605 1717.81 263.408V181.476C1716.83 181.075 1715.77 180.886 1714.72 180.922" fill="#EA7534"/>
</g>
<defs>
<clipPath id="clip0_5901_161999">
<rect width="1709" height="237.361" fill="white" transform="translate(1709 238) rotate(-180)"/>
</clipPath>
</defs>
</svg>
