<svg width="1440" height="230" viewBox="0 0 1440 230" fill="none" xmlns="http://www.w3.org/2000/svg">
<g clip-path="url(#clip0_5739_147545)">
<g clip-path="url(#clip1_5739_147545)">
<g opacity="0.2">
<path d="M1453.94 188.402C1425.89 185.625 1394.25 185.348 1368.47 188.761C1370.36 188.166 1372.23 187.473 1374.05 186.686C1383.56 182.822 1436.22 154.981 1466.87 158.016C1512.05 159.621 1524.93 177.064 1547.44 186.851C1568.9 196.183 1548.5 208.924 1541.82 213.226C1539.68 214.602 1537.4 216.071 1535.79 217.857C1535.21 213.389 1534.7 210.161 1534.7 210.161C1524.29 198.234 1482.01 191.191 1453.96 188.414" fill="#4195C4"/>
<path d="M1117.1 46.4686C1101.25 51.8265 1088.17 58.0253 1076.98 65.2146C1049.36 82.9608 1033.25 106.746 1015.36 138.869C988.486 187.051 943.788 217.797 894.087 245.137C882.792 251.354 871.226 257.397 859.56 263.429L850.189 268.268C849.298 268.728 848.446 269.178 847.604 269.619L847.378 269.74L846.496 270.206L845.565 270.703C845.221 270.887 844.888 271.063 844.554 271.249C844.22 271.434 843.868 271.612 843.539 271.793L842.719 272.242L841.61 272.851L841.006 273.182L839.772 273.867L839.477 274.033C835.588 276.22 832.296 278.193 829.451 280.005L829.323 280.085L828.261 280.77L828.072 280.895L827.081 281.53L826.857 281.684L825.961 282.288L825.717 282.458L824.879 283.035L824.62 283.218C824.356 283.401 824.119 283.591 823.841 283.772L823.571 283.964C823.321 284.143 823.072 284.318 822.835 284.499L822.565 284.695L821.868 285.216L821.598 285.417L820.935 285.922L820.663 286.132L820.034 286.623L819.762 286.837L819.157 287.32L818.894 287.536C818.698 287.693 818.501 287.85 818.309 288.012L818.041 288.227L817.48 288.696L817.216 288.92L816.669 289.382C816.583 289.452 816.496 289.527 816.415 289.603L815.872 290.064L815.623 290.286L815.112 290.75L814.853 290.98L814.343 291.436L814.088 291.666L813.579 292.122L813.314 292.36L812.804 292.816C812.728 292.887 812.651 292.963 812.569 293.034L812.057 293.522L811.939 293.635L810.529 294.931C802.495 302.307 792.712 311.307 764.806 328.942L762.053 330.675C747.862 339.545 732.927 346.47 717.637 352.515C727.528 347.35 737.419 342.177 747.312 336.997L754.937 333.002L747.51 336.868C737.493 342.095 727.475 347.333 717.459 352.581C712.141 354.674 706.784 356.677 701.388 358.591C693.821 361.301 686.204 363.894 678.579 366.487C649.111 376.5 619.509 386.556 592.377 403.784C572.251 416.561 558.615 435.961 544.904 455.466C534.003 470.972 523.059 486.548 508.769 498.909C507.586 499.93 506.205 500.977 504.661 502.082C493.863 509.71 475.006 518.763 458.826 526.531C450.049 530.769 442.03 534.619 436.541 537.623C435.756 538.055 435.024 538.472 434.347 538.872C435.991 537.039 437.476 535.027 438.967 533.011C438.966 532.995 438.967 532.98 438.971 532.965C439.231 532.616 439.388 532.201 439.425 531.767C439.461 531.334 439.376 530.898 439.178 530.511C438.98 530.123 438.678 529.799 438.305 529.574C437.933 529.349 437.505 529.233 437.07 529.238L436.498 529.247C432.57 529.29 428.623 529.335 425.385 530.9C386.651 549.574 363.751 583.338 344.761 619.713L343.695 621.757C326.255 655.197 309.997 689.679 322.676 729.51C322.774 729.696 322.627 730.002 322.429 730.312C322.327 730.484 322.241 730.665 322.172 730.853C321.932 730.458 321.673 730.075 321.414 729.687C320.87 728.941 320.404 728.142 320.021 727.302C306.006 692.85 309.41 657.532 323.081 625.255L324.895 621.01C326.325 617.604 327.755 614.197 329.185 610.788C356.953 544.558 385.158 477.295 443.695 431.38C483.918 399.787 530.993 379.737 578.013 359.733C592.071 353.747 606.128 347.765 619.988 341.481L623.021 340.11C625.883 338.815 628.751 337.526 631.627 336.245C671.82 318.225 712.124 300.156 742.534 266.096C761.976 244.471 751.895 224.97 741.791 205.415C741.008 203.945 740.255 202.449 739.502 200.963L737.85 197.666C735.065 192.306 731.771 187.226 728.014 182.497C718.479 170.326 711.227 163.191 704.434 161.079C714.546 157.902 723.488 157.255 730.169 153.463C741.926 146.795 740.259 129.306 749.234 119.278C751.793 118.71 755.2 118.012 757.333 117.202C767.221 113.426 774.243 103.655 782.02 96.2443C808.757 70.768 854.506 57.5936 866.817 48.1054C879.499 38.3336 899.423 38.1938 914.656 40.7376C923.101 42.1496 930.574 46.3997 938.559 49.1823C946.719 52.024 955.071 51.2353 963.459 49.8511C972.781 48.3133 982.647 46.4996 991.442 49.9567C991.937 50.0928 992.367 50.4003 992.656 50.8244C992.835 51.2932 992.849 51.8086 992.697 52.2865C991.089 60.0903 988.926 64.2965 982.673 69.588C978.958 72.7304 974.292 74.5156 969.68 76.0276C929.184 89.2811 883.224 90.2789 843.656 106.118C836.886 108.842 828.064 115.211 829.641 121.051C835.077 135.124 843.751 128.043 852.296 119.635C862.389 109.7 879.194 102.003 909.791 101.221C950.792 100.173 964.432 88.6529 1000.61 74.1733C1046.42 55.832 1102 33.6025 1170.03 31.9806C1173.04 31.9099 1176.07 31.8804 1179.13 31.8922C1154.49 35.9069 1134.19 40.7082 1117.11 46.4834" fill="#FEECA5"/>
<path d="M203.959 205.399C191.999 195.169 181.403 183.069 173.877 169.189C158.758 141.3 140.391 106.44 182.56 87.7295C203.769 78.3145 226.768 108.126 245.807 112.049C254.029 113.746 261.396 114.842 269.491 111.493C271.514 110.686 273.484 109.754 275.39 108.701C275.879 108.452 276.338 108.187 276.801 107.912C278.646 106.822 280.425 105.625 282.129 104.326C282.982 103.686 283.823 103.026 284.645 102.36L285.878 101.354C294.534 94.1645 303.831 86.277 309.019 76.0417C326.038 84.4085 334.713 94.4749 328.385 106.529C319.967 122.559 296.056 126.669 274.049 130.456C236.652 136.885 204.768 142.369 263.854 203.784C268.417 208.526 270.852 214.79 272.459 221.774C266.478 226.331 260.194 230.148 253.012 231.587C237.854 234.617 215.465 215.244 203.955 205.394" fill="#FDD535"/>
<path d="M25.4579 339.732C21.9428 356.099 25.3765 382.334 42.5944 390.015C52.2219 394.307 65.3609 393.616 73.6343 400.703C82.6993 408.473 78.7226 424.813 79.4782 435.47C80.3956 448.385 78.7293 461.133 76.774 473.94C74.1185 491.544 72.9373 509.34 73.2427 527.14L71.9118 529.093L71.8842 529.137L69.0106 533.352C59.2384 547.637 49.317 563.101 45.7866 580.326C41.8756 599.472 48.456 616.203 60.0471 631.285C60.302 631.524 60.2028 632.15 60.1137 632.722C60.0955 632.906 60.0782 633.08 60.0623 633.241C59.7615 633.184 59.4502 633.139 59.1477 633.1C58.2468 633.033 57.3652 632.806 56.5443 632.429C38.2263 621.978 30.6364 602.547 30.3733 582.556C30.092 562.748 35.5434 543.754 41.4158 524.681C43.217 518.823 45.0044 512.964 46.6419 507.118C50.0031 495.118 53.8646 478.957 47.1564 467.316C41.2153 456.977 28.1208 453.234 17.3235 450.72C-1.73899 446.288 -15.4631 430.146 -16.9524 410.534C-18.1205 395.133 -20.9779 377.238 -34.5273 367.632C-47.0102 358.79 -64.5079 358.859 -79.0954 358.845C-99.5237 358.828 -115.615 346.291 -120.178 327.429C-124.823 308.22 -110.124 282.159 -103.305 263.839C-96.7196 246.151 -91.3511 228.04 -86.0842 209.924C-82.2611 196.777 -78.4988 179.835 -69.948 169.961C-62.3671 161.207 -56.2624 147.9 -50.8938 136.963C-41.4459 117.794 -32.365 98.4394 -24.5531 78.5368C-14.4867 52.8864 -5.64723 1.31693 29.4598 3.00555C39.2243 3.47562 46.5435 5.99258 48.3082 16.5402C49.1891 21.7117 48.074 27.252 46.7998 32.2426C44.8619 39.8559 42.1793 48.4728 46.3657 55.852C50.5521 63.2314 59.0927 70.7632 59.549 79.519C60.2358 92.6529 51.5901 107.519 46.261 118.901C44.6597 122.317 43.8457 125.849 43.109 129.444C42.7749 131.083 42.4542 132.727 42.083 134.367C36.6754 158.217 32.1912 183.199 35.0309 207.086C36.105 216.122 39.6639 225.384 38.5579 234.162C34.3924 267.227 32.773 305.948 25.5048 339.727" fill="#FDD535"/>
<path d="M1293.28 120.403C1223.05 121.151 1143.18 122 1101.23 152.461C1020.23 211.302 987.572 233.281 924.811 263.376C817.108 315.051 712.193 371.817 610.065 433.673C609.234 434.185 608.39 434.696 607.541 435.206C599.545 440.042 591.158 445.113 587.747 454.995C553.424 470.002 518.583 513.504 455.656 540.5C455.103 540.733 454.549 540.984 453.997 541.264C453.797 541.356 453.596 541.461 453.392 541.557L452.361 542.068L451.441 542.552L450.813 542.89C433.495 552.346 414.604 572.819 400.61 591.947C407.169 579.632 414.238 567.563 421.422 555.59L427.829 544.95L431.728 541.455C432.636 540.649 433.497 539.79 434.304 538.882C434.978 538.478 435.71 538.062 436.498 537.632C441.989 534.605 449.994 530.764 458.788 526.541C474.963 518.773 493.82 509.719 504.618 502.092C506.161 501 507.543 499.939 508.726 498.919C523.016 486.557 533.961 470.981 544.861 455.475C558.572 435.971 572.208 416.571 592.334 403.794C619.466 386.566 649.068 376.51 678.536 366.497C686.162 363.904 693.778 361.31 701.345 358.601C706.727 356.673 712.087 354.691 717.401 352.599L708.499 357.252L717.586 352.52C732.889 346.476 747.829 339.551 762.001 330.679L764.754 328.946C792.659 311.325 802.446 302.325 810.477 294.935L811.887 293.639L812.005 293.526L812.518 293.038C812.599 292.967 812.676 292.891 812.753 292.82L813.262 292.364L813.527 292.126L814.037 291.67L814.292 291.44L814.801 290.984L815.061 290.755L815.571 290.29L815.821 290.068L816.363 289.607C816.449 289.532 816.531 289.456 816.617 289.386L817.164 288.925L817.428 288.7L817.99 288.231L818.257 288.016C818.45 287.854 818.646 287.697 818.843 287.54L819.106 287.325L819.711 286.841L819.983 286.627L820.612 286.136L820.883 285.926L821.546 285.421L821.817 285.22C822.047 285.048 822.278 284.871 822.518 284.7L822.784 284.503C823.025 284.323 823.283 284.149 823.519 283.968L823.789 283.777C824.044 283.593 824.29 283.404 824.568 283.222L824.828 283.039L825.665 282.463L825.909 282.292L826.805 281.689L827.029 281.534L828.021 280.899L828.21 280.774L829.271 280.089L829.4 280.009C832.245 278.188 835.537 276.215 839.426 274.037L839.721 273.871L840.954 273.186L841.558 272.855L842.668 272.246L843.488 271.798C843.817 271.617 844.16 271.432 844.503 271.253C844.845 271.073 845.17 270.892 845.513 270.707L846.445 270.21L847.552 269.623L850.142 268.273L861.397 262.46C863.4 261.42 865.415 260.381 867.44 259.344C876.007 254.936 884.829 250.386 894.036 245.136C943.737 217.797 988.435 187.055 1015.31 138.869C1033.22 106.747 1049.32 82.9621 1076.93 65.2141C1087.9 58.0499 1102 51.6363 1117.05 46.4682C1134.13 40.693 1154.43 35.8917 1179.07 31.877C1176.01 31.8622 1172.98 31.8917 1169.97 31.9654C1172.07 31.7343 1174.17 31.6126 1176.28 31.6011C1292.57 31.74 1447.45 44.3177 1425.99 94.7776C1415.65 119.101 1358.61 119.707 1293.23 120.402L1293.28 120.403ZM695.494 364.048L695.004 364.311L694.646 364.498L694.037 364.832C693.702 364.938 693.369 365.063 693.031 365.197C692.693 365.331 692.355 365.455 692.02 365.561C691.828 365.682 691.646 365.82 691.478 365.972L691.009 366.39C690.674 366.496 690.336 366.625 690.003 366.754C689.669 366.884 689.327 367.008 688.991 367.119L688.982 367.211C689.318 367.105 689.656 366.975 689.993 366.846C690.331 366.717 690.664 366.592 691 366.482L691.129 366.402C691.188 366.361 691.249 366.316 691.309 366.266C691.39 366.205 691.466 366.138 691.537 366.075L692.01 365.658C692.198 365.588 692.397 365.506 692.605 365.42L693.087 365.24C693.372 365.124 693.661 365.018 693.954 364.926C694.685 364.581 695.42 364.185 696.153 363.774L696.492 363.585L695.494 364.048Z" fill="#FDD535"/>
<path d="M1518.19 426.714C1517.66 429.829 1516.31 432.736 1513.94 434.828C1512.93 435.728 1511.74 436.402 1510.45 436.804C1504.48 438.641 1502.1 433.075 1500 429.32C1499.09 427.596 1498.06 425.935 1496.92 424.349L1496.89 424.309L1496.65 424.006L1496.63 423.976C1496.63 423.976 1496.63 423.976 1496.63 423.953L1496.61 423.923C1496.48 423.767 1496.35 423.619 1496.22 423.472L1496.12 423.36L1495.93 423.151L1495.89 423.104L1495.65 422.617C1495.33 421.986 1495.01 421.355 1494.69 420.71L1493.76 418.844C1481.52 394.672 1467.73 377.942 1452.35 365.638C1447.86 362.049 1443.15 358.753 1438.24 355.771C1436.9 354.952 1435.55 354.157 1434.18 353.387C1416.4 343.324 1396.8 337.047 1375.28 330.84L1370.65 329.508C1369.87 329.05 1369.07 328.594 1368.26 328.143L1367.86 327.913C1365.06 326.345 1362.19 324.823 1359.25 323.346C1330.2 308.674 1299.31 297.948 1267.41 291.454C1235.65 284.98 1203.07 282.673 1170.69 283.585C1138.14 284.5 1105.6 288.511 1073.63 294.577C1065.92 296.042 1058.21 297.605 1050.56 299.369C1037.44 302.277 1024.47 305.869 1011.71 310.129C999.582 314.24 987.607 319.118 976.398 325.354L975.843 325.661L975.745 325.712C975.03 326.115 974.318 326.524 973.608 326.94C971.835 327.967 970.017 330.382 969.836 332.217C969.825 332.352 969.842 332.488 969.884 332.616L969.882 332.644C969.903 332.71 969.929 332.775 969.96 332.837L969.957 332.869C969.992 332.938 970.032 333.002 970.071 333.071C971.201 334.794 973.27 336.318 975.441 337.647C976.095 338.05 976.659 338.584 977.096 339.216C977.533 339.848 977.834 340.564 977.98 341.318C978.126 342.073 978.113 342.849 977.943 343.598C977.773 344.348 977.449 345.053 976.991 345.671C976.989 345.694 976.959 345.714 976.944 345.726C974.226 349.074 969.627 351.159 965.963 353.461C956.545 359.385 947.001 365.114 937.331 370.648C930.154 374.761 925.904 378.802 922.819 386.52C922.615 387.029 929.612 390.127 930.412 390.392C933.303 391.347 936.215 391.246 939.222 391.265C940.372 391.281 941.542 391.285 942.661 391.331C943.364 391.354 944.053 391.335 944.779 391.318L945.211 391.324C906.976 410.015 844.691 421.469 814.911 427.087C786.621 432.978 744.494 453.28 745.648 451.338C767.492 414.117 829.626 386.328 851.797 373.429L853.188 372.605C853.181 372.674 853.175 372.738 853.196 372.81L853.207 372.983C853.2 373.047 853.226 373.11 853.234 373.176C853.241 373.242 853.257 373.276 853.265 373.328L853.261 373.369C853.272 373.424 853.285 373.478 853.301 373.531C853.321 373.606 853.347 373.68 853.377 373.752C853.378 373.761 853.377 373.771 853.374 373.78C853.374 373.78 853.37 373.821 853.4 373.843C853.43 373.864 853.446 373.945 853.469 373.993C853.492 374.042 853.522 374.115 853.553 374.173L853.636 374.316L853.778 374.53L853.798 374.56C857.593 379.885 869.998 380.942 874.807 377.105C880.456 372.58 884.164 366.358 888.699 360.836C888.769 360.745 888.838 360.655 888.911 360.569C906.168 339.679 932.521 329.892 956.982 320.228C959.562 319.206 962.136 318.166 964.716 317.144C1003.87 301.552 1044.42 290.644 1085.87 282.908C1086.13 282.846 1086.39 282.769 1086.65 282.683L1086.77 282.644C1087.12 282.526 1087.47 282.394 1087.82 282.261L1088.44 282.021L1088.92 281.864L1089.24 281.761L1088.82 281.719C1088.53 281.668 1088.24 281.639 1087.95 281.633L1087.9 281.628C1087.76 281.631 1087.62 281.648 1087.48 281.679L1086.02 281.93C1104.45 277.751 1119.9 274.605 1128.63 273.612L1132.39 273.19C1188.14 267.033 1248.44 266.434 1307.03 267.917C1310.38 268.001 1313.72 268.094 1317.05 268.195L1324.92 268.44L1326.53 268.813C1356.04 275.658 1384.49 285.695 1411 300.495C1437.51 315.295 1461.12 334.478 1480.5 357.815C1488.31 367.316 1495.43 377.366 1501.81 387.887C1505.05 393.185 1508.27 398.556 1511.11 404.079C1513.68 409.098 1516.86 413.963 1518 419.587C1518.48 421.93 1518.53 424.34 1518.15 426.701" fill="#E5C7A3"/>
<path d="M1447.13 257.199C1446.56 257.013 1445.99 256.822 1445.43 256.623L1445.26 256.559C1436.46 253.451 1428.13 248.725 1419.82 244.007C1416.4 242.061 1412.98 240.126 1409.54 238.304L1409.35 238.196L1408.35 237.675L1407.97 237.48L1407.01 236.986L1406.74 236.852C1406.15 236.552 1405.56 236.27 1404.97 235.966L1404.47 235.717L1403.65 235.324L1403.06 235.048L1402.25 234.671L1401.64 234.392C1401.19 234.19 1400.75 233.993 1400.3 233.795L1399.6 233.489L1398.84 233.172L1398.17 232.892L1397.4 232.584L1396.7 232.315L1395.96 232.028C1395.51 231.867 1395.1 231.71 1394.67 231.561L1393.94 231.308L1393.21 231.059L1392.45 230.812L1391.72 230.587L1390.98 230.36L1390.04 230.095L1388.95 229.802L1388.16 229.602L1387.4 229.42L1386.65 229.253L1385.88 229.089L1385.06 228.933C1384.67 228.858 1384.28 228.792 1383.9 228.725C1383.6 228.696 1383.3 228.624 1382.98 228.579L1382.21 228.475L1381.44 228.375L1380.65 228.297C1380.38 228.271 1380.12 228.244 1379.85 228.218C1379.58 228.192 1379.35 228.168 1379.09 228.143C1378.63 228.097 1378.17 228.084 1377.71 228.061L1376.92 228.035L1376.12 228.021L1375.31 228.014L1374.51 228.028L1373.7 228.045L1372.61 228.1C1372.23 228.123 1371.84 228.149 1371.46 228.181L1370.63 228.252L1369.78 228.349L1368.98 228.446L1368.12 228.57L1367.27 228.708C1367.02 228.749 1366.79 228.782 1366.55 228.828C1363.88 229.316 1361.22 229.79 1358.55 230.251L1357.77 230.382C1355.46 230.773 1353.16 231.163 1350.84 231.554L1348.87 231.869C1346.95 232.18 1345.03 232.484 1343.11 232.78L1340.69 233.149C1338.9 233.417 1337.11 233.683 1335.33 233.945L1332.76 234.318L1327.45 235.064L1324.93 235.409C1323.07 235.661 1321.21 235.908 1319.35 236.147L1317.15 236.436C1314.88 236.731 1312.61 237.018 1310.33 237.297L1309.39 237.409C1306.75 237.732 1304.1 238.047 1301.45 238.355L1300.36 238.483C1298.13 238.742 1295.9 238.995 1293.67 239.241C1292.92 239.329 1292.17 239.408 1291.41 239.482C1289.53 239.689 1287.67 239.894 1285.81 240.097L1283.38 240.353L1277.82 240.936L1275.57 241.178C1273.56 241.387 1271.54 241.591 1269.52 241.791L1267.93 241.953C1257.24 243.019 1246.55 244.048 1235.85 245.041C1214.56 247.051 1193.26 249.065 1172.01 251.521L1171.54 251.572C1169.45 251.816 1167.34 252.063 1165.24 252.313L1163.83 252.484L1158.43 253.152L1156.63 253.378C1154.93 253.591 1153.24 253.81 1151.55 254.036L1149.62 254.286C1147.89 254.52 1146.17 254.756 1144.45 254.995L1142.74 255.225C1140.46 255.547 1138.18 255.873 1135.9 256.205C1135.74 256.232 1135.58 256.273 1135.42 256.325L1135.29 256.372L1134.94 256.514L1134.82 256.567L1134.44 256.761C1134.26 256.851 1134.08 256.944 1133.89 257.028C1134.33 257.071 1134.77 257.115 1135.21 257.158C1136.57 257.378 1137.94 257.475 1139.31 257.449C1182.77 254.708 1226.23 253.922 1269.38 259.026C1281.7 260.497 1293.87 262.292 1305.87 264.496L1306.28 264.57L1308.16 264.923L1309.72 265.222L1311.55 265.579L1313.14 265.894L1314.96 266.26L1316.62 266.606C1317.2 266.723 1317.78 266.841 1318.35 266.968C1319.41 267.189 1320.46 267.418 1321.51 267.647L1323.13 268.007L1324.9 268.405L1324.96 268.411L1317.09 268.166C1313.76 268.068 1310.42 267.976 1307.07 267.889C1248.45 266.402 1188.15 267.002 1132.4 273.159L1128.64 273.581C1119.9 274.573 1104.45 277.738 1086.03 281.898L1081.26 282.726L1080.73 282.818L1080.32 282.888C1078.52 283.198 1076.73 283.518 1074.95 283.833L1073.98 284.006C1015.98 294.314 958.817 307.185 905.708 332.785L905.625 332.828C904.627 333.308 903.63 333.794 902.634 334.287L902.473 334.364L899.543 335.824L899.362 335.918C898.385 336.406 897.407 336.904 896.429 337.401L896.263 337.487C895.282 338.009 894.302 338.531 893.322 339.053L893.233 339.1C888.106 341.805 883.027 344.645 877.996 347.62C875.588 349.048 873.287 350.648 871.11 352.408L871.049 352.458C870.63 352.792 870.221 353.133 869.81 353.477L869.699 353.569C869.304 353.901 868.914 354.234 868.527 354.572L868.385 354.697C868.008 355.031 867.637 355.361 867.264 355.7L867.101 355.851C866.738 356.182 866.375 356.518 866.017 356.853L865.842 357.022C865.489 357.358 865.135 357.695 864.785 358.036C864.724 358.091 864.663 358.15 864.606 358.209C864.256 358.55 863.907 358.892 863.575 359.24L863.41 359.409C863.059 359.76 862.708 360.115 862.376 360.472L862.231 360.62C861.87 360.989 861.512 361.362 861.16 361.731L861.066 361.833C860.688 362.227 860.31 362.626 859.936 363.026C859.419 363.555 858.949 364.089 858.464 364.621L857.918 365.217L857.63 365.537L857.448 365.737L856.796 366.457L855.722 367.651C854.497 369.053 853.724 370.324 853.403 371.466C853.361 371.615 853.328 371.767 853.303 371.92C853.303 371.92 853.303 371.92 853.299 371.957C853.276 372.095 853.262 372.235 853.257 372.375L853.244 372.513C853.24 372.554 853.236 372.596 853.232 372.633L851.841 373.456C829.669 386.356 767.541 414.145 745.691 451.365C734.99 460.59 719.383 471.108 692.798 483.798C664.298 497.399 632.264 502.371 603.459 515.301L602.944 515.529C586.265 522.852 528.904 540.621 507.692 551.753C421.727 596.87 399.454 625.941 385.271 649.364L383.535 652.266L383.436 650.459C383.377 649.413 383.305 648.361 383.233 647.3C382.898 642.429 382.557 637.482 383.072 632.704C383.343 629.858 384.026 627.067 385.1 624.417C389.716 613.336 394.983 602.542 400.629 591.939C415.935 571.005 437.117 548.456 455.679 540.497C518.607 513.502 553.448 470 587.77 454.993C589.24 454.498 590.714 454.024 592.192 453.573L592.556 453.456L594.54 452.84L594.717 452.788L596.633 452.193L598.501 451.616L599.779 451.223L600.556 450.979L602.655 450.319L603.613 450.024L604.769 449.646L606.363 449.117L607.497 448.732L608.69 448.312L609.652 447.971C610.211 447.771 610.77 447.561 611.325 447.352L612.223 447.004C612.696 446.825 613.164 446.639 613.629 446.447L614.471 446.103C614.985 445.889 615.498 445.671 616.013 445.443L616.463 445.256C628.567 439.875 640.489 434.169 652.293 428.202C725.762 391.166 794.33 344.857 869.677 311.36C884.199 304.907 898.783 298.649 913.431 292.583C916.093 279.772 931.228 272.987 944.171 268.841C1014.86 246.202 1081.23 216.767 1153.62 198.072C1160.18 196.377 1166.79 194.677 1173.55 194.19C1182.84 193.522 1192.13 195.176 1201.44 195.392C1222.46 195.886 1242.88 189.108 1263.56 185.325C1296.71 179.344 1330.78 181.008 1363.19 190.189L1368.51 188.747C1394.31 185.354 1425.96 185.613 1453.98 188.388C1482.01 191.163 1524.31 198.208 1534.72 210.136C1534.72 210.136 1535.24 213.364 1535.81 217.831C1536.52 223.259 1537.31 230.516 1537.31 236.065C1538 268.463 1479.94 267.748 1447.16 257.189" fill="#FEECA5"/>
<path d="M471.862 110.298C466.832 114.995 460.982 118.744 455.903 123.385C448.246 130.372 432.843 140.329 415.538 155.661C404.826 160.307 395.085 167.528 386.992 176.008C373.679 189.952 364.293 207.131 355.886 224.468C342.657 251.764 331.092 280.164 322.359 309.234C318.102 323.387 319.066 329.305 322.577 330.15C319.643 335.552 316.5 340.812 313.148 345.931C288.66 383.215 247.876 403.971 220.859 438.321C204.392 459.265 180.34 469.769 172.571 473.907C133.789 494.555 92.4898 541.244 94.9793 569.888C96.2668 584.739 76.4044 580.929 74.1854 547.585C69.6129 478.877 81.8544 470.134 79.4662 435.45C78.6235 423.188 82.0919 409.309 75.3757 399.014C70.0552 390.849 60.9997 385.657 55.7338 377.456C45.5862 361.677 47.5049 323.027 48.5813 317.924C54.6934 289.021 54.8029 247.963 59.6443 218.671C64.9542 186.569 81.6105 159.5 102.724 135.296C104.379 133.44 105.196 132.514 106.799 130.667C113.548 122.768 120.101 114.73 126.277 106.375C128.34 103.599 129.33 102.225 131.247 99.5125C131.666 98.7553 131.87 98.3808 132.279 97.6274C139.53 84.4715 146.866 71.3381 155.838 59.2256C158.402 55.8379 161.224 52.6541 164.28 49.7024C165.885 48.1248 177.198 33.5651 192.667 27.0177C195.665 25.7553 198.957 25.359 202.169 25.8738C246.454 32.8821 278.364 60.9433 309.025 76.0237C303.833 86.2585 294.541 94.1465 285.884 101.336L284.652 102.342C283.824 103.008 282.984 103.667 282.136 104.308C280.431 105.607 278.652 106.804 276.808 107.894C276.344 108.164 275.872 108.428 275.397 108.683C273.491 109.736 271.52 110.668 269.498 111.475C261.402 114.824 254.036 113.728 245.813 112.031C226.775 108.108 203.776 78.2964 182.567 87.7114C140.39 106.449 158.758 141.3 173.858 169.196C181.384 183.077 191.98 195.177 203.94 205.406C215.45 215.256 237.839 234.63 252.997 231.599C260.179 230.16 266.463 226.343 272.448 221.787C276.637 218.594 280.658 214.706 282.524 209.784C284.39 204.861 287.487 197.172 290.977 193.209C296.165 187.282 317.843 172.384 323.938 168.781C345.367 156.119 428.103 103.745 451.007 94.0013C459.407 90.4314 468.297 87.2117 477.405 87.7932C478.79 87.8793 480.293 88.1302 481.157 89.2001C481.935 90.1594 481.969 91.5046 481.847 92.7323C481.169 99.5788 476.861 105.574 471.845 110.278" fill="#FEECA5"/>
<path d="M353.365 298.077C359.78 281.458 362.378 263.324 371.025 247.743C373.706 242.901 377.022 238.298 381.56 235.135C385.865 232.13 391.021 230.607 395.594 228.028C402.837 223.954 408.339 217.441 413.674 211.065C425.682 196.708 437.693 182.354 449.707 168.001C451.534 165.814 453.44 163.449 453.726 160.612C454.454 153.255 444.681 149.78 437.302 150.257C418.062 151.509 400.316 162.061 387.001 176.009C373.687 189.958 364.302 207.132 355.895 224.469C342.666 251.765 331.101 280.165 322.368 309.235C309.295 352.728 345.498 318.49 353.376 298.064" fill="#FDD535"/>
<path d="M644.668 32.2143C653.388 30.8072 660.767 39.1388 664.955 45.0555C670.062 52.2754 673.609 61.2816 677.579 69.7305C680.711 76.4065 684.482 86.382 691.406 89.0966C698.602 91.9218 710.393 86.5099 718.306 84.7165C724.666 83.2707 731.138 81.7293 737.586 81.1837C739.089 81.054 740.633 80.9375 742.155 80.8096C748.594 80.2585 763.281 77.1579 768.106 83.2865C775.324 92.4518 755.672 111.795 751.032 117.2C750.424 117.901 749.817 118.588 749.227 119.254C740.248 129.281 741.919 146.771 730.162 153.439C723.481 157.231 714.54 157.873 704.427 161.055C693.544 164.477 680.237 172.534 672.345 183.17C671.321 184.55 670.328 186.044 669.347 187.516C668.365 188.988 667.397 190.466 666.475 191.949C653.577 212.713 644.85 234.215 643.155 258.647C641.486 282.728 623.295 298.469 603.801 310.069L601.612 311.361C598.694 313.069 595.752 314.737 592.845 316.385L589.771 318.124L589.063 318.518L588.483 318.846C588.182 319.021 587.877 319.19 587.582 319.365L585.155 320.755C584.066 321.385 583.52 321.698 582.425 322.342C581.845 322.674 581.255 322.997 580.671 323.324C579.074 324.228 577.473 325.125 575.868 326.015C575.042 326.472 574.209 326.919 573.383 327.376C572.039 328.109 570.691 328.84 569.341 329.566C568.404 330.073 567.463 330.569 566.526 331.071C565.281 331.734 564.035 332.384 562.786 333.022L559.781 334.582C558.587 335.197 557.397 335.813 556.2 336.419L553.066 338.012C551.906 338.594 550.747 339.174 549.587 339.752C548.513 340.287 547.434 340.825 546.355 341.355L542.94 343.018C541.833 343.553 540.73 344.094 539.624 344.625C538.517 345.157 537.405 345.692 536.295 346.218C535.184 346.744 534.033 347.303 532.884 347.835L529.658 349.373L526.157 351.014C525.403 351.366 524.644 351.709 523.885 352.061C521.248 353.276 518.606 354.485 515.958 355.687L513.006 357.029L509.363 358.66L506.17 360.09L502.733 361.607L499.236 363.155L496.134 364.519L492.105 366.289L489.636 367.363L484.298 369.69L483.473 370.045L478.136 372.363L470.314 375.767L462.005 379.355C454.043 382.801 446.094 386.271 438.158 389.763C437.979 389.838 437.804 389.918 437.629 389.998C435.832 390.789 434.04 391.584 432.253 392.382L430.251 393.279L426.315 395.049L423.801 396.193L420.329 397.771L417.635 399.004L414.344 400.536L411.56 401.829L408.347 403.331L405.556 404.652L402.339 406.191L399.604 407.457L396.346 409.038C395.448 409.475 394.552 409.913 393.658 410.351L390.313 412.002L387.735 413.284C386.562 413.873 385.389 414.472 384.215 415.066C383.425 415.452 382.627 415.866 381.835 416.275C380.529 416.939 379.227 417.618 377.92 418.292L375.962 419.315C374.003 420.337 372.053 421.372 370.111 422.417C368.591 423.223 367.832 423.627 366.317 424.438C359.953 427.74 353.577 431.599 347.089 434.142C338.259 437.599 325.656 436.351 311.022 443.186C286.573 454.602 271.264 456.954 249.132 472.694C237.973 480.629 226.553 489.096 216.98 498.925C204.317 511.93 194.188 527.471 183.631 542.134C179.988 547.193 176.315 552.246 172.611 557.293C169.821 561.085 166.984 564.845 164.098 568.574C161.825 571.506 160.699 572.932 158.535 575.605C156.395 578.179 154.21 580.693 151.772 582.532C150.674 583.352 149.581 584.209 148.526 585.02C148.174 585.291 147.8 585.551 147.477 585.812C141.513 590.612 135.434 589.783 130.206 586.126C124.977 582.47 123.789 578.712 128.903 573.256C129.468 572.612 130 571.94 130.496 571.241C131.25 570.238 131.646 569.707 132.457 568.594C151.034 543.14 168.089 515.419 189.946 492.566C201.779 480.208 216.692 468.688 230.372 458.402C258.465 437.285 288.519 418.916 319.185 401.825C321.39 400.594 323.599 399.372 325.811 398.158C332.459 394.514 339.134 390.906 345.837 387.335L350.248 384.986C357.05 381.413 363.875 377.879 370.725 374.384C410.706 353.911 452.565 332.23 478.568 296.54C490.503 280.148 490.652 260.081 490.095 239.73C492.213 218.335 491.712 195.26 497.025 174.432C502.337 153.604 511.702 133.354 526.917 118.168C534.558 110.539 543.62 104.226 549.986 95.5001C562.913 77.771 563.791 51.4568 581.614 38.6838C588.969 33.4224 598.148 31.4199 607.133 30.3827C619.148 28.9908 632.647 30.6199 644.624 32.2377" fill="#FDD535"/>
<path d="M1313.91 606.153L1312.81 608.579C1264.8 712.383 1184.14 785.721 1090.01 847C1033.14 883.975 971.286 909.624 908.035 932.525C898.403 936.019 882.199 941.639 877.543 931.544C874.419 924.687 881.117 920.396 887.954 916.017C891.275 913.894 894.621 911.751 896.895 909.283C897.766 908.361 898.614 907.438 899.463 906.514C900.326 905.574 901.19 904.633 902.064 903.689C901.359 903.73 900.635 903.728 899.92 903.723C898.184 903.718 896.462 903.71 894.961 904.286C861.241 916.58 826.744 926.509 792.237 936.437L791.878 936.54L791.654 933.839C791.491 931.966 726.887 944.141 627.758 968.411C528.628 992.681 486.721 1022.53 371.023 1001.93C362.997 1000.5 356.235 994.894 348.408 992.629C308.694 981.058 260.61 970.776 224.617 948.584C158.502 907.798 97.8639 856.198 28.4658 820.525C-26.758 792.133 -87.5352 784.235 -140.616 751.974C-163.457 738.104 -175.209 725.165 -191.025 707.729L-170.282 498.244C-167.311 499.003 -164.318 499.722 -161.32 500.441C-139.961 505.551 -118.326 510.734 -103.95 528.966C-87.8977 549.356 -94.1559 582.641 -116.913 612.992L-117.695 614.043C-143.235 648.622 -139.912 666.604 -104.444 692.032C-86.7886 704.715 -68.2325 717.873 -48.0058 720.488L-48.3001 720.459C16.1715 744.599 79.7077 770.024 140.372 802.414C142.188 803.768 143.994 805.136 145.759 806.532C161.322 818.78 175.457 832.795 191.181 844.864C200.023 851.655 210.854 855.699 219.278 863.001C250.042 889.658 225.428 882.578 257.895 897.47L259.73 898.302C279.628 907.237 316.093 920.348 334.406 908.482C352.409 896.837 333.645 891.691 358.675 892.41C372.565 892.81 386.187 896.95 400.073 897.15C401.52 897.173 402.541 893.94 401.41 893.025L399.246 889.323C419.889 895.853 441.807 905.257 449.745 889.564L450.992 889.019C466.825 892.444 483.217 895.576 500.178 898.714L505.802 899.735C536.298 905.327 589.033 913.688 626.205 908.871L650.025 905.774C717.294 896.978 670.997 902.038 744.404 878.749L746.897 877.961C829.363 852.036 838.561 857.251 904.164 797.884L909.527 793.005C925.623 778.255 957.023 748.175 958.792 726.88C959.283 720.892 951.614 716.419 951.328 710.405C950.909 701.69 959.458 693.102 956.765 684.802C955.391 680.58 948.333 688.225 945.122 691.297C935.199 700.771 930.304 705.705 927.562 707.987C870.781 748.211 808.736 776.706 740.683 791.925C739.29 792.302 737.978 793.268 736.676 794.226C736.106 794.634 735.536 795.042 734.957 795.449C735.289 795.946 735.611 796.442 735.935 796.966C736.677 798.212 737.515 799.399 738.439 800.516C751.237 814.426 740.154 818.645 731.527 821.928C730.466 822.334 729.443 822.72 728.508 823.115L725.916 824.251C702.222 834.377 676.973 838.261 651.71 842.148C642.681 843.539 633.647 844.929 624.687 846.6C622.879 847.069 621.132 847.749 619.481 848.624C618.672 849.008 617.864 849.393 617.05 849.735C617.953 849.991 618.85 850.308 619.748 850.619C621.843 851.356 623.957 852.095 626.1 852.117C674.394 853.008 721.583 845.362 768.368 834.338L768.734 834.253C769.971 833.953 771.349 833.583 772.785 833.15C779.203 831.315 786.8 829.147 788.371 833.542C790.498 839.487 783.007 842.924 776.845 845.749C775.643 846.299 774.49 846.83 773.473 847.347L771.587 848.303C710.518 878.895 644.37 886.316 577.37 888.876L573.228 889.027C474.261 892.563 386.43 863.213 308.266 801.747C301.335 796.292 293.914 791.425 286.518 786.593C265.471 772.799 244.661 759.149 235.975 732.45C230.14 714.437 230.34 695.953 230.545 677.475C230.637 668.76 230.733 660.049 230.194 651.383L230.153 650.715C228.886 631.246 223.86 614.483 202.476 607.421L202.158 607.31C197.68 605.641 198.508 601.586 202.581 598.911C230.365 580.907 254.264 590.986 258.879 622.594C251.064 647.497 249.182 673.637 259.857 697.873C261.756 702.138 265.622 705.297 269.287 708.191C270.883 709.457 272.485 710.719 274.094 711.977L275.228 712.86L276.667 713.983L278.198 715.17L279.602 716.237L281.177 717.443L282.585 718.511L284.183 719.723L285.57 720.766L287.231 722.003L288.572 722.994L290.416 724.347L291.577 725.191C292.582 725.917 293.587 726.644 294.613 727.349L295.127 728.913C314.976 787.957 377.684 844.443 446.446 861.922C477.814 869.993 510.072 874.089 542.462 874.113C544.515 874.061 546.583 873.435 548.627 872.811C549.547 872.53 550.461 872.254 551.37 872.033L549.537 871.266C547.724 870.45 545.861 869.749 543.959 869.168C540.658 868.182 537.335 867.235 534.029 866.29C514.449 860.711 494.859 855.131 478.774 841.498C476.806 839.799 475.661 837.114 474.515 834.428C473.972 833.157 473.43 831.887 472.798 830.72C473.978 830.242 475.163 829.617 476.353 828.996C478.856 827.684 481.374 826.359 483.89 826.358C497.353 826.386 510.837 826.895 524.326 827.404C561.634 828.813 598.97 830.221 635.884 821.493C637.309 821.17 638.858 820.859 640.467 820.554C647.377 819.279 655.131 817.827 655.76 810.767C655.938 809.218 655.641 807.652 654.909 806.276C666.137 807.387 677.445 807.409 688.677 806.342C691.068 806.114 693.526 805.814 695.608 804.618C697.691 803.422 699.317 801.113 698.976 798.739C690.754 795.701 681.991 794.402 673.241 794.923C668.626 795.2 663.925 795.974 659.444 794.853C657.395 794.343 655.46 793.446 653.407 792.983C648.003 791.756 642.291 793.591 636.842 792.587C632.232 791.736 628.255 788.951 624.025 786.934C622.424 786.172 620.304 785.596 619.056 786.851C618.138 787.772 618.208 789.312 618.866 790.454L617.971 790.119C591.192 780.006 564.386 769.881 541.04 752.446C495.979 718.9 496.227 673.351 543.352 643.003C547.696 640.211 552.059 637.365 556.452 634.494L556.502 634.462C597.292 607.823 640.213 579.794 689.087 585.469C724.29 589.563 759.137 588.25 793.877 586.944C822.53 585.867 851.117 584.793 879.795 586.75C888.172 587.301 899.718 588.63 900.438 598.243C901.143 607.019 894.57 616.281 886.365 621.491C876.064 628.04 864.997 633.268 853.93 638.496C836.834 646.554 819.744 654.649 805.522 667.598C796.057 676.109 789.494 689.073 795.112 700.653C799.847 710.371 811.052 707.552 820.351 705.218C821.179 705.012 821.994 704.805 822.783 704.614L825.546 703.959C864.549 694.578 898.316 674.205 931 651.838L934.158 649.672C934.896 649.221 935.677 648.844 936.489 648.547C936.973 648.348 937.457 648.146 937.944 647.915C937.792 648.235 937.652 648.569 937.512 648.908C937.185 649.874 936.678 650.77 936.015 651.546C876.964 711.557 779.689 759.817 685.625 739.117L685.252 739.034L683.737 738.721C677.942 737.549 671.379 736.216 669.81 728.474L669.901 727.554L673.425 725.545C682.051 720.627 690.613 715.75 699.185 710.73C700.385 709.917 701.486 708.966 702.465 707.897C702.864 707.472 703.254 707.098 703.653 706.724C702.881 706.74 702.091 706.695 701.307 706.645C699.728 706.554 698.154 706.458 696.693 706.866C692.817 707.931 688.832 709.259 684.799 710.601C668.21 716.123 650.834 721.905 637.169 710.792L636.459 710.225C616.729 694.662 601.666 702.225 586.138 710.016C583.26 711.463 580.363 712.912 577.419 714.232L576.932 714.458C563.973 720.46 564.776 730.123 574.594 739.146C608.065 769.878 649.817 775.029 692.515 775.366L694.497 775.377C759.875 775.582 821.188 760.016 871.035 716.245L872.508 714.965C880.478 708.103 888.895 701.73 897.304 695.398C913.82 682.927 930.315 670.478 943.352 654.213L944.22 653.143C945.504 651.571 946.826 649.988 948.154 648.392C960.847 633.161 974.557 616.717 967.68 595.764C960.762 574.519 940.632 569.99 921.279 565.632C918.427 564.987 915.588 564.348 912.81 563.66L911.477 563.329C908.099 562.469 904.698 561.687 901.287 560.927C901.443 560.852 901.594 560.774 901.742 560.693C902.962 559.997 902.775 558.088 901.416 557.745L901.186 557.722L874.55 555.266C872.888 554.888 871.224 554.495 869.559 554.089C866.962 553.497 864.62 551.079 862.65 548.836L861.979 548.059C861.639 547.742 864.246 543.928 866.125 542.726C908.134 515.312 1010.1 520.766 1048.21 552.398C1066.33 567.44 1075.63 587.741 1082.76 609.373L1084.18 613.786C1106.94 683.509 1124.23 687.979 1184.99 643.27C1217.78 619.122 1246.27 590.703 1272.42 559.667L1272.65 559.41C1273.05 558.934 1273.46 558.427 1273.87 557.911C1276.77 554.335 1280.09 550.229 1284.56 552.255C1287.23 553.448 1288.62 560.811 1288.11 565.019C1283.22 605.014 1265.57 639.203 1240.01 669.835L1239.76 669.536C1240.93 667.602 1242.1 665.672 1243.27 663.745C1255.26 644.038 1267.26 624.309 1272 601.167C1272.15 600.49 1272.33 599.779 1272.51 599.055C1273.6 594.83 1274.8 590.073 1270.41 588.14C1267.75 586.947 1261.81 590.621 1258.67 593.477L1254.49 597.215C1222.46 625.844 1189.65 653.519 1152.32 675.318C1114.99 697.118 1093.83 688.517 1080.28 647.532C1078.6 642.462 1077.04 637.326 1075.48 632.198C1067.43 605.678 1059.38 579.097 1034.49 561.501C1033.22 560.572 1031.9 559.763 1030.56 558.966L1028.55 557.765C1017.27 550.996 1005.26 546.845 991.893 547.003C994.908 548.118 997.963 549.155 1001.02 550.191C1007.68 552.453 1014.37 554.721 1020.67 557.82C1035.59 565.152 1045.41 575.945 1052.55 588.543C1048.63 584.32 1044.04 580.68 1039.38 577.177L1039.05 576.931L1037.24 575.568C1031.92 571.582 1026.52 567.542 1020.39 564.985C1012.7 561.753 1004.24 560.957 995.936 560.2C978.831 558.641 961.305 557.119 944.724 561.574C953.065 567.6 963.03 570.969 973.317 571.239C983.971 571.496 995.305 568.49 1004.98 573.014C1005.36 573.191 1005.74 573.382 1006.1 573.59L1006.47 573.797C1006.71 573.933 1006.95 574.068 1007.18 574.212L1007.62 574.483C1007.83 574.615 1008.03 574.747 1008.24 574.888C1008.44 575.029 1008.53 575.093 1008.67 575.195L1009.24 575.609L1009.67 575.949C1009.85 576.092 1010.03 576.235 1010.2 576.382C1010.37 576.529 1010.47 576.623 1010.63 576.749C1010.78 576.876 1010.96 577.047 1011.13 577.203C1011.29 577.358 1011.39 577.461 1011.52 577.59C1011.65 577.719 1011.84 577.904 1011.99 578.064L1012.37 578.473C1012.52 578.636 1012.67 578.8 1012.82 578.981L1013.18 579.407L1013.59 579.912L1013.94 580.36C1014.07 580.536 1014.2 580.716 1014.35 580.897L1014.68 581.357C1014.81 581.542 1014.94 581.726 1015.06 581.915C1015.19 582.104 1015.27 582.228 1015.36 582.409C1015.46 582.591 1015.61 582.796 1015.73 582.989C1015.85 583.182 1015.93 583.31 1016.02 583.482L1016.36 584.092C1016.45 584.254 1016.55 584.412 1016.63 584.582C1016.72 584.753 1016.86 585.009 1016.97 585.224L1017.21 585.712C1017.32 585.937 1017.43 586.166 1017.54 586.395L1017.75 586.881C1017.87 587.129 1017.98 587.367 1018.08 587.633L1018.27 588.046L1018.67 589.014L1018.74 589.212C1018.9 589.613 1019.05 590.017 1019.19 590.422C1019.23 590.547 1019.27 590.667 1019.31 590.791C1019.41 591.075 1019.51 591.363 1019.6 591.651C1019.66 591.81 1019.7 591.972 1019.76 592.131L1019.99 592.887L1020.14 593.418L1020.34 594.143L1020.48 594.696C1020.54 594.934 1020.6 595.172 1020.66 595.41C1020.71 595.6 1020.75 595.791 1020.8 595.981C1020.84 596.17 1020.91 596.456 1020.96 596.684L1021.08 597.267C1021.13 597.5 1021.18 597.741 1021.23 597.964C1021.27 598.187 1021.3 598.357 1021.34 598.556C1021.37 598.754 1021.43 599.029 1021.47 599.256L1021.57 599.841C1021.61 600.078 1021.65 600.314 1021.68 600.545C1021.72 600.776 1021.74 600.936 1021.78 601.13L1021.87 601.836L1021.95 602.424L1022.04 603.12C1022.07 603.317 1022.09 603.515 1022.11 603.707C1022.13 603.9 1022.16 604.176 1022.18 604.411L1022.24 604.983C1022.26 605.222 1022.29 605.452 1022.3 605.7C1022.32 605.947 1022.34 606.07 1022.35 606.257C1022.41 607.071 1022.47 607.884 1022.5 608.686C1022.54 609.559 1022.66 610.426 1022.85 611.279L1022.84 611.334C1022.2 625.813 1018.01 640.108 1015.27 654.449C1013.92 661.558 1012.93 668.791 1013.31 676.017C1014.2 692.249 1022.06 707.347 1024.18 723.469C1024.7 727.166 1024.73 730.917 1024.26 734.62C1024.01 735.215 1023.75 735.809 1023.48 736.401C1023.4 736.597 1023.3 736.792 1023.21 736.987C1023.04 737.383 1022.85 737.783 1022.66 738.173L1022.33 738.869L1021.81 739.931C1021.69 740.175 1021.56 740.413 1021.44 740.656L1020.91 741.672L1020.51 742.403C1020.33 742.738 1020.15 743.068 1019.95 743.402C1019.82 743.639 1019.69 743.877 1019.55 744.114C1019.35 744.466 1019.14 744.812 1018.94 745.159C1018.81 745.374 1018.69 745.598 1018.56 745.799C1018.24 746.338 1017.91 746.872 1017.58 747.401L1017.54 747.449L1016.86 748.496L1016.52 749.02L1016.38 749.242C1016.21 749.486 1016.05 749.729 1015.88 749.968C1015.71 750.207 1015.56 750.447 1015.39 750.686L1015.17 751.007C1014.85 751.44 1014.52 751.913 1014.19 752.364L1013.92 752.741L1013.63 753.121C1013.4 753.428 1013.17 753.73 1012.94 754.032C1012.84 754.171 1012.73 754.304 1012.62 754.465L1012.31 754.857C1012.09 755.141 1011.87 755.426 1011.64 755.719L1011.3 756.149C1011.23 756.24 1011.15 756.325 1011.08 756.411C1010.82 756.729 1010.55 757.046 1010.29 757.359C1010.18 757.501 1010.06 757.638 1009.94 757.788C1009.72 758.05 1009.49 758.305 1009.26 758.566C1009.14 758.703 1009.02 758.84 1008.9 758.995L1008.55 759.388L1008.37 759.588C1008.08 759.915 1007.78 760.243 1007.48 760.572L1007.16 760.907C1006.89 761.192 1006.64 761.478 1006.35 761.756L1006.01 762.112L1005.87 762.251C1004.49 763.663 1003.07 765.022 1001.61 766.33L1001.49 766.438C1001.14 766.752 1000.78 767.06 1000.43 767.373L999.866 767.86C999.842 767.876 999.82 767.894 999.8 767.914C999.502 768.163 999.199 768.412 998.899 768.665L998.202 769.242C998.03 769.383 997.854 769.518 997.696 769.656L997.293 769.978C997.036 770.18 996.788 770.393 996.523 770.585L995.759 771.164L995.619 771.266L994.792 771.89L994.262 772.264L993.902 772.531L993.028 773.145L992.794 773.308L992.146 773.754L991.231 774.365L990.834 774.627L990.339 774.936L989.388 775.538L989.339 775.566L988.522 776.075L987.534 776.673L986.681 777.174L985.634 777.767C985.358 777.92 985.083 778.074 984.804 778.223C984.431 778.427 984.055 778.613 983.681 778.822L983.48 778.928L982.903 779.228C982.477 779.446 982.052 779.655 981.623 779.867C981.408 779.972 981.193 780.085 980.973 780.189C980.323 780.502 979.674 780.804 979.026 781.096C974.166 783.289 969.061 785.05 964.492 787.815C959.217 791.007 954.819 795.419 950.15 799.438C941.067 807.252 930.851 813.644 919.852 818.395C916.544 819.823 912.96 821.269 910.994 824.288C909.028 827.306 909.937 832.388 913.461 833.131C930.209 823.929 947.595 815.941 965.487 809.23C969.957 807.556 974.594 805.879 978.109 802.647C980.806 800.17 982.662 796.946 984.734 793.933C995.808 777.85 1013.13 767.744 1025.61 752.942C1037.77 738.536 1047.15 720.813 1057.26 704.922C1060.46 699.876 1063.68 694.771 1065.81 689.188C1068.52 682.133 1069.43 674.544 1070.33 667.046C1071.29 658.936 1072.25 650.772 1071.65 642.633C1071.63 642.432 1071.61 642.23 1071.6 642.024C1073.67 649.524 1075.83 657.014 1078.41 664.331C1082.87 676.92 1087.87 686.041 1093.92 691.869L1093.69 691.651C1102.67 708.281 1114.38 715.882 1128.8 714.452C1134.62 713.877 1140.46 707.983 1145.84 709.858C1146.74 710.193 1147.18 710.404 1147.48 711.283C1148.19 713.634 1145.11 718.055 1143.27 720.552L1143.12 720.76C1139.58 725.58 1135.15 729.674 1130.07 732.817C1131.5 728.863 1131.62 724.501 1128.7 722.801C1122.59 719.228 1114.82 730.54 1108.13 728.193C1101.79 725.949 1102.25 715.418 1096.78 711.524C1092.93 708.788 1084.24 705.638 1082.67 710.127C1080.45 716.468 1089.22 722.043 1090.81 728.577C1091.55 731.617 1092.03 736.126 1089.43 737.851C1081.31 743.344 1062.71 746.215 1045.82 758.188C1028.92 770.161 1015.93 785.493 1000.5 807.924C990.255 814.557 980.364 821.281 971.031 828.078C971.528 827.747 972.025 827.42 972.553 827.101C969.76 829.146 967.037 831.23 964.347 833.313L963.511 833.969L964.195 833.762C939.527 841.21 916.304 852.343 893.076 863.485C877.476 870.981 861.82 878.475 845.74 884.855C738.458 927.309 626.287 945.472 511.947 953.601L507.186 953.947C464.352 957.134 449.319 981.648 481.078 976.309C635.945 950.343 790.719 924.381 940.419 871.261C951.353 867.38 962.318 863.599 973.273 859.827C1042.47 835.993 1111.16 812.33 1168.17 764.318C1233.38 709.361 1290.59 647.406 1309.61 560.182C1317.64 523.093 1312.92 488.355 1282.89 461.204C1280.81 459.299 1277.96 458.302 1275.09 457.299L1274.77 457.183C1274.35 457.036 1273.9 456.988 1273.45 457.044C1273.01 457.099 1272.59 457.257 1272.21 457.503C1271.84 457.749 1271.53 458.079 1271.3 458.465C1271.08 458.851 1270.94 459.284 1270.91 459.731L1270.91 459.772C1270.72 462.447 1270.54 465.103 1271.04 467.627C1282.62 527.501 1218 620.397 1157.46 630.89C1127.91 636.053 1112.95 617.196 1100.47 596.58L1098.6 593.446C1074.6 553.535 1042.43 525.049 996.191 513.867C994.986 513.562 993.913 512.778 992.835 511.989C992.298 511.597 991.761 511.205 991.204 510.871C991.812 510.685 992.412 510.443 993.016 510.205C994.165 509.666 995.395 509.317 996.656 509.173C1007.93 508.297 1018.58 511.25 1029.06 514.815L1031.23 515.563C1032.46 515.959 1033.73 516.275 1035 516.563C1035.86 516.769 1036.72 516.975 1037.56 517.207C1036.8 516.667 1036.07 516.13 1035.34 515.539C1034.28 514.646 1033.14 513.841 1031.94 513.131C1026.41 509.993 1020.85 506.888 1015.27 503.772C1011.45 501.649 1007.64 499.518 1003.83 497.379L1003.39 497.136C997.401 493.724 993.661 490.136 993.257 481.418L993.224 480.951C992.543 473.157 984.34 473.32 977.715 473.453L977.278 473.461L976.692 473.473L976.088 473.478L972.74 473.476C927.373 473.557 884.387 485.975 841.449 498.383C835.894 499.999 830.339 501.594 824.784 503.168L819.053 504.783L817.902 505.101L816.684 505.444L814.469 506.061C793.982 511.744 773.342 517.473 755.832 530.514C743.922 539.434 741.986 550.544 750.903 562.528L751.213 562.954C757.682 571.854 753.483 575.107 745.148 576.993L744.355 577.165C733.709 579.361 723.163 577.128 712.767 574.915C702.19 572.665 691.768 570.445 681.561 572.986C617.785 588.995 557.878 614.558 513.735 665.395C491.452 691.047 501.831 723.862 535.685 752.594C553.968 768.041 575.133 778.49 596.323 788.955C602.197 791.859 608.071 794.762 613.889 797.762C614.561 798.102 615.271 798.437 615.994 798.778C620.679 800.983 625.925 803.476 625.361 809.177C624.68 815.202 618.706 816.314 613.53 817.292L613.108 817.371L609.629 818.048C568.067 825.88 526.871 820.793 485.68 814.565L481.691 813.961C470.26 812.179 458.957 810.507 447.512 809.095L446.417 808.987C441.27 808.361 435.516 807.661 432.508 812.717C430.035 816.874 432.227 820.675 434.378 824.408C435.032 825.545 435.681 826.678 436.196 827.81C436.733 829.043 437.458 830.396 438.195 831.765C440.071 835.242 441.995 838.827 440.938 840.784C438.822 844.753 434.116 843.651 429.793 842.624C428.768 842.383 427.765 842.145 426.825 841.982L425.361 841.712C377.096 832.47 328.238 786.257 308.019 736.765L308.15 736.852L310.697 738.465L311.86 739.188L313.02 739.907L313.255 740.441C327.325 772.172 351.367 797.031 384.783 815.23C394.103 820.332 401.649 820.884 401.906 805.164L401.923 804.428C402.593 783.92 416.564 787.305 428.254 790.125C430.177 790.589 432.036 791.038 433.764 791.362L440.373 792.657C444.623 793.502 448.884 794.36 453.156 795.232L453.234 795.24C461.787 796.978 470.34 798.712 478.908 800.29L486.55 802.267L492.388 803.797L494.135 804.258L498.931 805.527L500.74 806.013L505.977 807.427L507.302 807.786C509.535 808.393 511.773 809.004 514.032 809.632C517.134 810.409 520.292 810.942 523.477 811.226C533.198 812.231 546.009 812.13 552.587 809.326C554.003 808.724 554.958 807.374 555.623 805.861L558.965 805.691C564.517 805.372 570.372 804.573 571.948 798.739C573.473 793.091 568.46 789.604 563.882 786.421C562.757 785.636 561.662 784.873 560.694 784.099L559.097 782.836C556.288 780.622 553.463 778.438 550.638 776.255C537.897 766.408 525.19 756.602 514.398 744.32C488.985 715.495 486.877 680.649 514.085 653.701C557.891 610.302 613.283 585.559 669.53 562.861L676.953 559.882C679.848 558.775 683.354 557.925 686.165 558.57C706.436 562.94 730.004 546.348 744.96 525.709C746.821 523.14 743.943 519.804 741.12 521.257C720.962 531.644 699.36 550.418 684.679 551.578C672.418 552.547 660.059 553.519 649.566 560.318L646.094 562.551C630.155 572.581 613.442 581.419 596.724 590.262L596.696 590.26C583.153 597.425 569.6 604.594 556.463 612.394C557.087 609.419 555.321 606.62 553.086 604.858L555.585 603.392L562.633 599.316C566.903 596.836 571.173 594.346 575.445 591.847C602.978 575.731 630.693 559.508 660.033 547.545C686.574 536.708 712.641 524.608 738.723 512.499C803.454 482.437 868.188 452.346 940.418 441.738C1005.69 432.085 1066.52 437.458 1117.87 484.224C1120.75 486.92 1123.58 490.163 1125.37 493.678C1125.75 494.454 1126.18 495.231 1126.6 496.01C1129.88 502.167 1137.89 513.871 1130.57 515.96L1124.55 512.81C1120.79 510.116 1120.96 507.148 1116.29 502.966C1115.24 502.064 1114.11 501.26 1112.97 500.451C1112.51 500.122 1112.05 499.793 1111.59 499.46C1111.52 499.402 1111.42 499.364 1111.33 499.351C1111.23 499.337 1111.13 499.348 1111.04 499.382C1110.95 499.417 1110.87 499.474 1110.81 499.548C1110.74 499.621 1110.7 499.71 1110.68 499.805C1110.59 500.183 1110.51 500.559 1110.42 500.936C1110.01 502.384 1109.78 503.879 1109.76 505.384C1109.88 513.545 1107.91 517.519 1098.14 514.885L1096.21 514.341C1089.06 512.309 1080.11 509.761 1075.38 516.337C1071.21 522.177 1075.58 527.471 1079.67 532.427C1080.84 533.853 1081.99 535.244 1082.91 536.616C1094.52 554.16 1106.13 571.705 1118.63 588.503C1135.16 610.703 1156.34 612.987 1178.97 598.74C1206.66 581.196 1229.75 558.659 1246.65 530.319C1258.86 509.794 1260.38 489.231 1251.81 469.717C1247.45 450.577 1232.4 432.618 1206.77 415.538C1178.46 396.692 1147.29 385.866 1115.56 376.627C1113.87 375.457 1112.42 373.734 1110.97 372.027C1110.51 371.469 1110.04 370.917 1109.56 370.378C1109.33 370.116 1109.2 369.772 1109.21 369.419C1109.22 369.065 1109.37 368.73 1109.63 368.485C1110.18 367.951 1110.73 367.378 1111.29 366.792C1113.03 364.969 1114.78 363.145 1116.8 362.668C1161.92 351.663 1212.74 343.843 1247.37 374.203C1282.08 404.57 1316.57 441.909 1328.73 491.281C1338.69 531.776 1330.15 569.993 1313.75 606.384L1313.91 606.153ZM679.936 625.65C715.718 627.689 765.332 669.979 788.022 642.231L790.467 638.499C805.557 620.027 778.36 622.85 760.127 620.172C747.269 618.267 734.109 614.387 721.019 611.155L723.153 611.831L724.4 612.223C718.408 610.33 712.439 608.481 706.832 606.769L690.287 601.718C689.675 601.532 689.041 601.424 688.401 601.397C651.263 599.962 624.075 614.993 597.666 631.48L591.964 635.053C591.618 635.218 591.474 635.728 591.326 636.238C591.269 636.442 591.212 636.645 591.143 636.824C591.539 636.806 591.935 636.812 592.33 636.839C592.993 636.923 593.666 636.866 594.306 636.673C607.386 631.964 620.713 627.971 634.228 624.714L631.912 625.877C631.568 626.049 631.271 626.302 631.049 626.616C630.826 626.929 630.684 627.292 630.635 627.674C630.586 628.055 630.632 628.442 630.769 628.802C630.906 629.161 631.129 629.481 631.419 629.733C644.627 641.098 663.946 624.787 679.916 625.713L679.936 625.65ZM574.176 751.056C553.506 738.01 539.329 714.714 575.185 696.747C597.171 685.724 622.634 683.514 645.759 675.101C652.604 672.608 651.313 663.607 645.223 660.868C638.329 657.728 631.061 655.484 623.597 654.19L623.602 654.144L623.31 653.994L620.298 652.429L618.85 651.677L616.374 650.373C577.112 647.228 527.756 672.071 521.023 696.97C516.337 714.382 538.393 746.208 556.482 747.907C556.959 747.931 557.436 747.872 557.892 747.731L558.367 747.629L558.684 747.568C558.606 747.277 558.529 746.972 558.458 746.663C558.267 745.679 557.938 744.727 557.479 743.836C557.001 743.041 556.539 742.266 556.09 741.502L557.081 743.165C561.146 745.959 565.454 747.709 571.267 749.956L574.26 751.097L574.176 751.056Z" fill="#4195C4"/>
</g>
<path d="M512.963 241.912C527.865 245.174 543.621 257.501 565.952 265.416C582.249 271.192 601.262 274.196 618.012 279.643C632.336 284.292 647.413 293.329 658.613 297.996C670.973 303.148 679.022 303.975 684.586 307.122L684.84 307.256L684.23 306.905C680.598 304.839 676.985 303.347 672.919 301.67C666.793 299.246 660.828 296.434 655.06 293.251C651.779 291.403 647.94 288.797 643.874 286.015C636.772 281.159 628.977 275.827 622.254 273.433C614.122 270.545 605.412 268.96 596.841 267.399C584.527 265.158 572.481 262.968 562.833 257.025C533.825 239.176 501.379 228.175 477.241 228.175C445.299 228.175 411.809 227.066 387.232 225.402C397.94 229.289 408.863 232.556 419.946 235.189C448.469 241.828 479.335 234.542 512.968 241.907" fill="#FDD535"/>
<path d="M1428.72 994.586C1461.15 942.836 1430.14 886.229 1417.34 835.5C1413.86 821.726 1413.99 807.111 1409.68 793.577C1405.76 781.263 1397.28 770.802 1392.89 758.655L1388.73 747.14C1381.63 727.309 1389.47 715.9 1387.01 708.013L1386.45 706.165L1383.29 699.594C1380.4 693.537 1376.94 674.315 1372.82 665.402L1370.89 661.243C1347.69 611.078 1366.04 570.186 1357.71 521.189C1347.76 462.665 1342.82 540.988 1349.46 448.105C1352.94 399.441 1377.25 345.357 1405.32 305.602C1409.22 300.057 1415.97 290.816 1422.34 276.39C1428.71 261.965 1436.49 211.319 1451.82 180.388C1456.4 171.19 1462.45 162.796 1469.72 155.534C1452.51 163.851 1440.05 157.073 1427.01 149.99C1420.51 146.464 1413.87 142.855 1406.42 140.993C1386.06 135.911 1379.37 151.505 1371.61 169.59C1370.28 172.704 1368.91 175.893 1367.45 179.062L1366.53 181.054C1360.73 193.77 1356.69 218.018 1352.38 243.838C1349.23 262.713 1345.94 282.425 1341.73 299.087L1341.11 301.503C1337.28 316.063 1325.36 324.144 1313.47 332.184C1307.89 335.964 1302.31 339.739 1297.58 344.197C1273.68 366.69 1262.8 401.627 1273.77 423.565C1277.54 430.958 1284.19 434.83 1291.05 438.314L1296.19 440.892C1297.92 441.708 1299.69 442.428 1301.5 443.05C1307.27 445.153 1313.18 447.31 1312.98 453.798C1312.74 461.112 1305.51 464.346 1298.88 466.735L1295.05 468.121C1287.79 470.806 1280.08 472.405 1272.41 473.994C1270.32 474.429 1268.25 474.858 1266.17 475.311L1265.71 475.413C1264.48 475.676 1263.22 475.875 1261.96 476.087C1256.28 477.011 1250.53 477.963 1247.8 484.164C1244.5 491.659 1248.13 498.026 1252.03 503.991L1253.88 506.8C1260.5 516.582 1269.91 523.772 1281.08 526.47L1281.96 526.692C1306.35 533.008 1311.34 551.098 1316.76 570.698C1317.54 573.508 1318.32 576.349 1319.17 579.191L1319.82 581.317C1329.65 612.737 1341.43 643.533 1353.21 674.301C1368.85 715.156 1384.49 756.007 1395.54 798.382L1396.07 800.392C1399.4 812.822 1403.52 825.062 1407.62 837.297C1416.13 862.645 1424.65 887.985 1426.24 914.992C1429.26 966.1 1400.65 1008.48 1344.26 1034.1L1344.41 1034.03L1349.15 1033.16C1371.15 1029.1 1391.29 1024.78 1409.98 1016.53C1417.21 1010.13 1423.49 1002.75 1428.65 994.595" fill="#FEECA5"/>
<path d="M1211.05 276.413C1219.01 294.087 1229.44 310.938 1233.5 329.892C1239.43 357.569 1231.26 387.649 1241.62 413.987C1242.4 415.974 1243.42 418.076 1245.34 419.018C1251.11 421.851 1254.82 412.55 1254.59 406.122C1252.9 353.288 1255.99 300.409 1263.83 248.131C1265.05 240.012 1266.4 231.825 1269.53 224.233C1274.28 212.682 1282.9 203.062 1287.41 191.427C1290.03 184.531 1291.15 177.154 1290.69 169.791C1290.22 162.427 1288.19 155.247 1284.73 148.733C1273.68 142.093 1258.58 147.522 1250.27 157.378C1241.96 167.234 1238.76 180.296 1235.82 192.85C1233.45 202.988 1231.07 213.124 1228.69 223.258C1228.26 225.106 1227.74 227.093 1226.28 228.304C1215.29 237.388 1212.39 211.023 1201.7 228.641C1194.86 239.911 1206.37 266.091 1211.01 276.39" fill="#FDD535"/>
<path d="M1082.18 310.255C1074.71 302.372 1068.34 293.861 1061.5 285.474C1054.11 276.39 1043.9 270.342 1033.78 264.885C1016.22 255.431 997.404 247.867 979.799 238.118C953.836 223.739 929.647 215.588 899.863 216.087C875.083 216.508 853.473 203.196 835.032 187.809C826.313 180.532 815.075 177.801 804.665 174.16C790.836 169.317 776.914 163.948 762.784 159.928C746.765 155.373 721.379 147.836 705.198 154.023C702.31 155.128 700.758 157.258 702.458 160.118C703.413 161.675 704.565 163.103 705.886 164.364C726.217 170.297 746.196 178.032 765.912 185.721C771.332 187.832 776.849 190.008 781.544 193.381L782.413 193.663C782.385 193.765 782.362 193.867 782.334 193.968C782.879 194.384 783.414 194.818 783.937 195.271C789.219 199.892 792.661 206.194 796.746 211.905C801.577 218.629 807.379 224.599 813.962 229.621C826.9 226.687 839.084 224.159 851.975 226.363C864.294 228.466 871.581 235.965 881.238 244.069C895.169 255.759 910.966 266.414 926.542 275.406C940.219 283.307 956.877 285.812 972.397 289.268C990.63 293.339 1008.13 298.139 1025.57 304.812C1041.94 311.077 1056.88 318.553 1071.98 327.508C1082.28 333.625 1103.57 345.958 1106.72 343.578C1109.88 341.199 1088.3 316.742 1082.15 310.245" fill="#FEECA5"/>
<path d="M142.351 195.313C144.726 195.752 147.212 196.32 148.991 197.956C151.587 200.349 151.934 204.263 152.1 207.793C152.678 219.76 152.562 233.451 143.668 241.459C132.55 251.439 115.367 246.541 100.53 244.795C79.5986 242.35 58.3254 247.567 37.4034 245.017C1.30276 240.627 -28.9205 213.948 -64.8594 208.375C-75.3158 206.753 -86.4514 206.846 -95.6648 201.634C-98.6497 199.947 -101.648 196.621 -100.248 193.497C-99.426 191.649 -97.3883 190.748 -95.5031 190.045C-60.7332 177.048 -19.6747 182.38 10.6225 203.829C15.7791 207.479 20.6491 211.568 26.1523 214.664C42.9065 224.095 64.9328 221.951 80.5596 211.198C87.9942 206.088 92.0372 197.873 99.9661 194.412C110.958 189.625 131.026 193.211 142.337 195.313" fill="#FEECA5"/>
<path d="M575.762 188.077L459.092 168.541C450.313 167.067 441.275 165.519 433.554 161.047C426.549 156.985 420.972 150.706 413.759 147.023C405.863 142.994 396.705 142.403 387.842 142.232C356.534 141.587 325.27 144.881 294.784 152.037C287.229 153.811 278.196 157.54 277.604 165.27C276.948 173.744 286.956 178.702 295.315 180.241C326.915 186.049 359.846 177.718 391.423 183.586C416.227 188.206 438.623 201.255 462.881 208.177C485.646 214.673 509.549 215.643 533.22 216.572L603.24 219.317C613.983 219.737 624.869 220.181 635.122 223.369C648.457 227.505 659.921 235.983 671.625 243.57C697.73 260.463 726.165 273.446 756.029 282.106C746.067 258.121 723.865 239.597 698.48 234.126C672.433 228.503 665.368 217.764 643.458 206.264C622.859 195.452 598.393 191.871 575.734 188.077" fill="#FEECA5"/>
<path d="M912.403 302.589C901.263 288.903 882.744 282.854 871.654 269.122C867.819 264.372 864.978 258.814 860.639 254.521C852.937 246.897 841.759 244.328 831.797 240.063C817.768 234.026 805.647 224.282 796.736 211.878C792.652 206.171 789.209 199.864 783.928 195.244C778.785 190.743 772.275 188.174 765.908 185.693C726.088 170.168 685.2 154.421 642.46 153.811C621.667 153.515 600.902 156.828 580.165 155.456C539.139 152.739 501.851 132.131 464.147 115.719C426.443 99.3064 376.462 87.7688 344.732 100.706C336.766 109.121 383.859 106.113 396.317 121.781C402.929 130.098 408.681 139.408 415.215 147.813C421.734 151.556 427.016 157.253 433.535 161.033C441.256 165.506 450.271 167.04 459.073 168.527L575.762 188.077C598.402 191.871 622.891 195.47 643.485 206.264C665.396 217.769 672.461 228.503 698.507 234.126C723.893 239.615 746.099 258.12 756.057 282.106C754.768 281.732 753.478 281.339 752.194 280.946C768.759 289.725 785.079 298.966 801.223 308.466C811.037 314.251 820.976 320.221 832.042 322.915C838.28 324.43 844.763 324.869 850.903 326.736C868.582 332.11 873.96 327.12 873.544 326.561C871.581 323.788 872.981 322.139 876.58 322.051C892.549 321.667 908.286 331.639 914.755 346.244C917.491 352.417 918.706 359.302 922.425 364.939C926.145 370.576 933.769 374.619 939.674 371.339C925.272 351.091 928.058 321.857 912.371 302.589" fill="#FDD535"/>
<path d="M689.46 309.927L686.808 308.397L684.849 307.265L684.586 307.122C679.041 303.975 670.973 303.148 658.613 297.996C647.413 293.329 632.317 284.292 618.012 279.643C601.262 274.205 582.249 271.192 565.952 265.416C543.621 257.501 527.865 245.174 512.963 241.912C479.33 234.546 448.464 241.833 419.942 235.193C408.858 232.561 397.936 229.293 387.228 225.407C355.581 214.091 329.66 200.234 313.298 198.034C289.452 194.828 274.116 184.635 262.435 172.728C258.119 172.39 220.901 123.084 204.659 123.084C172.92 123.084 155.436 138.119 144.827 180.43C144.572 181.44 144.314 182.44 144.056 183.429C144.314 182.44 144.578 181.442 144.832 180.43C144.578 181.442 144.314 182.445 144.051 183.438C144.028 183.517 144.009 183.595 143.986 183.674C143.723 184.667 143.45 185.656 143.178 186.626V186.668C143.039 187.162 142.896 187.657 142.753 188.146C142.609 188.636 142.466 189.121 142.323 189.607V189.657C142.106 190.387 141.884 191.117 141.658 191.834C141.886 191.119 142.107 190.394 142.323 189.657C142.055 190.558 141.782 191.441 141.505 192.319C141.417 192.596 141.325 192.869 141.237 193.146C141.038 193.77 140.835 194.393 140.627 194.994L140.821 194.421L140.627 194.994L142.374 195.318C144.749 195.757 147.235 196.325 149.014 197.961C151.615 200.354 151.957 204.268 152.123 207.798C152.701 219.765 152.585 233.456 143.691 241.463C132.574 251.444 115.39 246.546 100.553 244.804C79.6216 242.35 58.3485 247.576 37.4265 245.021C26.91 243.741 16.8926 240.572 7.08308 236.579L5.09161 236.39L4.62956 236.344C3.6731 236.247 2.72125 236.15 1.76479 236.043H1.59845C0.729782 235.946 -0.138885 235.849 -1.00755 235.743L-1.62672 235.669L-4.08025 235.36L-4.43602 235.313C-5.36014 235.189 -6.3166 235.055 -7.25458 234.921L-7.67969 234.861L-10.05 234.5L-10.6877 234.398C-11.5702 234.255 -12.4481 234.112 -13.3307 233.936H-13.4416C-14.3657 233.775 -15.2898 233.608 -16.237 233.433L-16.8007 233.326C-17.5539 233.183 -18.3024 233.035 -19.0556 232.864L-19.6747 232.74C-21.5229 232.361 -23.3527 231.956 -25.164 231.524L-25.797 231.372L-28.0287 230.817L-28.5878 230.674C-29.5119 230.44 -30.4268 230.195 -31.3325 229.94L-31.5589 229.875C-32.3813 229.644 -33.2038 229.413 -34.0262 229.163L-34.6916 228.965C-35.4525 228.734 -36.2149 228.496 -36.9788 228.253L-37.4131 228.119C-38.3188 227.83 -39.2213 227.529 -40.1208 227.218L-40.5829 227.061C-41.3314 226.802 -42.0784 226.536 -42.8239 226.262L-43.4938 226.017C-44.3071 225.716 -45.1203 225.411 -45.9335 225.093L-46.1691 225C-47.0655 224.649 -47.9573 224.289 -48.8445 223.919L-49.4267 223.674C-50.1382 223.366 -50.8467 223.058 -51.5521 222.75L-52.2036 222.463C-53.0815 222.071 -53.9641 221.669 -54.842 221.253L-55.7661 220.828C-56.795 220.369 -57.83 219.955 -58.8711 219.585L-59.0098 219.534L-59.9015 219.229L-60.1326 219.155L-60.9412 218.901L-61.2276 218.818L-61.9808 218.601L-62.3042 218.513L-63.025 218.323L-63.3762 218.236L-64.0693 218.069L-64.4482 217.986L-65.1182 217.843L-65.5155 217.764L-66.1763 217.635L-66.5783 217.561L-67.2344 217.45L-67.6456 217.381L-68.2925 217.284L-68.7176 217.224L-69.3552 217.141L-69.785 217.09L-70.4226 217.016L-70.8569 216.97L-71.49 216.905L-71.952 216.868L-72.585 216.817L-73.0471 216.785L-73.6755 216.743L-74.1375 216.715L-74.7244 216.683H-75.1864L-75.8287 216.655H-76.2676H-76.9053H-77.3673H-78.0096H-80.6664H-81.3041H-81.7014H-82.4223H-82.7873L-83.5404 216.683H-83.8777L-84.6725 216.715H-84.9636L-85.8369 216.757H-86.0494L-87.029 216.808H-87.1352C-87.9947 216.854 -88.8541 216.9 -89.7135 216.956L-91.4047 217.057L-93.3453 217.178L-93.7288 217.201L-94.1262 217.224H-94.2648L-94.847 217.247H-95.3091H-95.8774H-96.9032H-97.3652H-97.9058H-98.3679L-98.9039 217.219L-99.329 217.191L-99.8511 217.15L-100.23 217.145L-100.743 217.09L-101.14 217.044L-101.639 216.974L-102.023 216.919L-102.513 216.836L-102.882 216.771L-103.344 216.679L-103.7 216.605L-104.162 216.494L-104.499 216.415L-104.961 216.295L-105.285 216.203L-105.747 216.069L-106.057 215.976L-106.519 215.828L-106.814 215.722L-107.253 215.565L-107.54 215.454L-107.969 215.278L-108.242 215.168L-108.667 214.978L-108.921 214.858L-109.337 214.655L-109.587 214.53L-109.993 214.317L-110.224 214.188L-110.626 213.957L-110.848 213.828L-111.241 213.583L-111.449 213.449L-111.837 213.19L-112.031 213.051L-112.414 212.779L-112.595 212.64C-112.724 212.543 -112.849 212.451 -112.969 212.349L-113.145 212.21C-113.269 212.113 -113.389 212.012 -113.51 211.905L-113.671 211.767L-114.036 211.448L-114.184 211.309C-114.304 211.198 -114.424 211.088 -114.54 210.972L-114.679 210.838L-115.034 210.482L-115.154 210.353C-115.275 210.228 -115.39 210.103 -115.506 209.974L-115.617 209.854C-115.732 209.72 -115.852 209.591 -115.963 209.457L-116.065 209.336C-116.18 209.202 -116.296 209.064 -116.407 208.925L-116.494 208.814L-116.836 208.375C-116.836 208.343 -116.883 208.306 -116.91 208.274C-117.026 208.121 -117.137 207.969 -117.248 207.812C-117.248 207.784 -117.289 207.756 -117.308 207.724C-117.423 207.567 -117.534 207.405 -117.645 207.239L-117.696 207.165C-117.811 206.994 -117.922 206.827 -118.033 206.652L-118.065 206.596C-118.181 206.416 -118.292 206.236 -118.403 206.056L-118.426 206.019C-118.537 205.829 -118.652 205.64 -118.763 205.446C-121.914 199.929 -123.555 193.035 -124.969 185.984L-126.054 180.439L-124.969 185.956C-125.01 185.319 -127.787 144.523 -172.311 143.678L-172.311 256.794C-167.353 255.981 -162.391 255.219 -157.451 254.646C-138.045 252.386 -119.128 252.987 -103.03 264.612C-102.282 265.152 -101.539 265.717 -100.803 266.308C-99.6971 267.192 -98.6066 268.132 -97.5316 269.127C-96.8169 269.792 -96.1069 270.484 -95.4015 271.201C-94.6961 271.919 -93.9999 272.663 -93.313 273.433C-82.7133 285.331 -76.2492 299.77 -75.3528 314.81C-75.2973 315.701 -75.2634 316.594 -75.2511 317.49V317.952C-75.2062 324.432 -76.2031 330.877 -78.2037 337.04C-78.3377 337.465 -78.4809 337.881 -78.6241 338.292L-78.7581 338.648C-78.8598 338.935 -78.9614 339.216 -79.0723 339.494C-79.1232 339.632 -79.1786 339.771 -79.234 339.91C-79.3357 340.165 -79.4374 340.415 -79.539 340.658C-79.5945 340.797 -79.6545 340.935 -79.7146 341.069C-79.8209 341.319 -79.9271 341.559 -80.038 341.799L-80.2044 342.169L-80.5925 342.973C-80.6341 343.056 -80.671 343.139 -80.7126 343.218C-80.8882 343.564 -81.0638 343.902 -81.244 344.234L-81.3179 344.364C-81.475 344.646 -81.6321 344.923 -81.78 345.191L-81.9602 345.487C-82.0896 345.699 -82.2189 345.912 -82.3483 346.115C-82.4176 346.226 -82.4869 346.327 -82.5516 346.434C-82.681 346.628 -82.8104 346.822 -82.9398 347.007L-83.1477 347.312C-83.2863 347.506 -83.4249 347.695 -83.5682 347.885L-83.7576 348.139C-83.9332 348.374 -84.1134 348.601 -84.2982 348.827L-84.3768 348.924C-84.5893 349.183 -84.8018 349.437 -85.0236 349.682C-85.0698 349.737 -85.1207 349.788 -85.1715 349.844C-85.3378 350.029 -85.5088 350.213 -85.6751 350.389L-85.9016 350.62L-86.3636 351.082L-86.6085 351.313L-87.0706 351.734L-87.3108 351.946C-87.4772 352.094 -87.6481 352.233 -87.8191 352.376L-88.0132 352.538C-88.4752 352.921 -88.9789 353.281 -89.4733 353.623L-89.6858 353.762C-89.8614 353.882 -90.0416 354.002 -90.2218 354.113L-90.4852 354.275C-90.6515 354.381 -90.8225 354.478 -90.9888 354.58L-91.2661 354.737L-91.7882 355.023L-92.0469 355.157C-92.2456 355.264 -92.4489 355.361 -92.6522 355.462L-92.8324 355.55L-93.641 355.915L-93.7565 355.961C-93.9876 356.058 -94.2186 356.155 -94.4543 356.243L-94.713 356.345L-95.2813 356.553L-95.577 356.654L-96.1269 356.835L-96.2979 356.89L-96.4319 356.932L-97.0094 357.103L-97.282 357.177C-97.5223 357.246 -97.7441 357.306 -98.0029 357.366L-98.1369 357.403L-99.0055 357.602L-99.2458 357.648L-99.8788 357.777L-100.207 357.833L-100.766 357.93L-101.117 357.985L-101.672 358.064L-102.018 358.115L-102.61 358.184L-102.924 358.221L-103.746 358.299H-103.94L-104.726 358.359H-105.082L-105.645 358.392H-106.047L-106.574 358.415H-106.99H-107.517H-108.866H-109.762H-110.164H-110.709H-111.172H-111.634H-112.123L-112.585 358.392L-113.089 358.364L-113.551 358.336L-114.069 358.304L-114.461 358.276L-115.797 358.175H-115.889L-116.508 358.119L-116.841 358.091L-117.456 358.036L-117.784 358.004L-118.43 357.944L-118.694 357.916L-119.401 357.842H-119.516C-121.406 357.643 -123.301 357.422 -125.19 357.204L-126.914 357.006L-127.376 356.955L-129.686 356.701H-129.88L-132.098 356.479H-132.334C-133.11 356.41 -133.886 356.345 -134.644 356.289L-138.479 356.031C-139.403 355.966 -140.295 355.887 -141.201 355.804L-141.815 355.661L-143.987 355.444L-144.588 355.379C-146.408 355.182 -148.229 354.963 -150.049 354.723L-150.594 354.649L-152.905 354.335L-153.367 354.275C-157.641 353.679 -161.919 353.018 -166.198 352.385L-167.293 352.228L-168.615 352.034L-170.001 351.84L-171.244 351.669L-172.311 351.516L-172.311 477.164L-149.707 459.181L-147.503 457.457C-118.292 434.775 -83.7068 419.989 -52.8598 399.621C-39.8343 391.022 -28.708 379.822 -16.0799 370.655C7.71611 353.378 26.5265 340.884 56.6943 336.07C78.1893 332.641 101.001 338.916 121.918 332.9C140.221 327.642 153.057 310.259 170.772 303.282C190.044 295.695 211.47 295.284 231.426 289.688C246.083 285.595 259.667 278.095 274.398 274.297C341.539 257.007 433.632 253.223 498.769 254.678L499.836 254.706C530.397 255.575 526.46 263.758 553.527 272.31C572.795 278.405 592.835 281.806 612.209 287.521C627.872 292.142 642.705 299.535 658.595 303.282C668.575 305.634 679.23 308.124 690.015 310.236L689.446 309.908L689.46 309.927ZM-170.463 190.29C-170.227 189.797 -169.966 189.316 -169.682 188.849C-169.966 189.316 -170.227 189.797 -170.463 190.29Z" fill="#FDD535"/>
<path d="M1093.22 255.639C1066.84 243.806 1043.52 222.228 1022.23 197.355C1018.37 192.841 1016.23 188.798 1015.49 185.226C999.32 180.743 983.596 174.792 968.511 167.446C959.644 163.126 950.837 158.27 941.139 156.495C926.815 153.871 912.205 158.233 898.532 163.228C896.056 164.129 893.45 165.14 891.796 167.183C889.425 170.089 889.545 174.298 890.409 177.949C895.543 199.633 919.981 210.353 941.915 214.345C965.018 218.55 989.114 219.012 1010.91 227.745C1017.56 230.415 1023.88 233.821 1030.2 237.217C1051.7 248.801 1073.29 260.431 1092.96 274.916C1108.13 286.084 1124.56 299.664 1143.23 297.197C1143.18 296.146 1143.08 295.104 1142.94 294.069C1131.71 280.669 1116.39 266.022 1093.22 255.621" fill="#FDD535"/>
<path d="M1093.22 255.639C1153.87 282.85 1160.73 339.05 1181.12 326.616C1196.74 317.167 1151.11 255.459 1147.18 239.111C1139.42 206.767 1179.88 160.127 1141.31 151.861C1102.74 143.595 1096.22 171.522 1063.95 166.679C1031.68 161.837 1000.95 172.496 1022.23 197.355C1043.52 222.214 1066.84 243.806 1093.22 255.639Z" fill="#FEECA5"/>
<path d="M1613.75 179.922C1612.38 179.95 1611.01 180.121 1609.66 180.43C1590.47 180.573 1592.11 149.357 1579.36 134.391C1567.67 120.663 1551.13 113.298 1524.03 123.084C1505.33 129.835 1485.35 139.852 1469.73 155.576C1462.46 162.838 1456.41 171.232 1451.82 180.43C1436.49 211.36 1428.72 262.03 1422.34 276.437C1415.97 290.843 1409.23 300.117 1405.32 305.643C1377.25 345.38 1352.95 399.483 1349.46 448.147C1342.82 541.02 1347.76 462.706 1357.71 521.23C1366.03 570.209 1347.69 611.119 1370.9 661.285L1372.82 665.443C1376.95 674.343 1380.4 693.564 1383.3 699.636L1386.45 706.206L1387.02 708.054C1389.48 715.942 1381.64 727.35 1388.73 747.182L1392.89 758.696C1397.29 770.844 1405.77 781.305 1409.68 793.618C1413.99 807.152 1413.84 821.767 1417.35 835.541C1430.15 886.27 1461.15 942.863 1428.73 994.632C1423.56 1002.78 1417.28 1010.16 1410.06 1016.56C1411.49 1015.93 1412.91 1015.27 1414.33 1014.59C1419.3 1011.41 1424.22 1008.46 1429.35 1006.16C1445.86 995.432 1461.23 980.142 1475.79 957.293L1476.9 955.533C1477.28 954.918 1477.67 954.322 1478.05 953.731L1478.33 953.269L1478.22 953.361L1478.03 953.523L1477.69 953.772L1477.55 953.879L1477.3 954.05L1477.15 954.142C1477.02 954.221 1476.9 954.299 1476.77 954.369C1477.15 952.918 1477.52 951.464 1477.9 950.007C1478.1 949.235 1478.29 948.459 1478.49 947.696C1478.67 946.994 1478.85 946.31 1479.03 945.589C1479.23 944.776 1479.44 943.963 1479.64 943.145C1479.87 942.252 1480.09 941.359 1480.32 940.465C1480.43 940.003 1480.55 939.541 1480.66 939.102C1481.04 937.562 1481.42 936.04 1481.8 934.537C1483.61 927.287 1485.43 920.028 1487.35 912.82L1487.42 912.548C1488.36 908.984 1489.33 905.43 1490.33 901.888L1490.4 901.638C1490.88 899.966 1491.36 898.295 1491.86 896.625C1491.89 896.5 1491.93 896.38 1491.96 896.26C1492.48 894.51 1493.01 892.761 1493.55 891.011C1497.9 877.117 1510.06 873.157 1522.8 870.962L1524.04 870.754L1526.81 870.292C1556.22 865.644 1563.43 854.481 1556.98 825.768C1556.92 825.51 1556.86 825.251 1556.8 824.988L1556.3 822.747L1555.79 820.501C1552.37 805.059 1549.51 789.483 1546.76 773.87C1546.58 772.832 1546.4 771.791 1546.21 770.747L1546.17 770.534L1544.63 761.662C1541.31 742.792 1530.98 730.506 1516.3 723.598C1515.69 723.307 1515.07 723.03 1514.45 722.762C1513.2 722.221 1511.91 721.722 1510.61 721.255C1507.93 720.307 1505.19 719.519 1502.42 718.894C1501.71 718.733 1501 718.58 1500.28 718.432L1491.73 716.69C1483.41 715.008 1475.01 713.516 1466.88 713.456C1452.38 713.363 1438.72 717.855 1427.78 734.091L1427.58 734.378L1427.34 734.701C1426.61 735.626 1425.95 736 1425.39 736.027C1424.36 736.074 1423.56 734.997 1422.95 733.8L1422.84 733.579C1422.77 733.426 1422.7 733.274 1422.63 733.117C1422.53 732.89 1422.44 732.654 1422.35 732.451L1421.39 730.021C1420.61 728.02 1419.87 726.024 1419.17 724.046C1397.76 663.484 1412.67 613.397 1491.78 594.873C1493.69 585.942 1496.2 577.07 1497.43 568.028C1500.5 545.452 1495.48 522.584 1495.84 499.805C1496.1 482.944 1499.3 466.282 1502.49 449.722C1505.61 433.522 1508.74 417.29 1513.42 401.47C1516.71 390.339 1520.92 379.157 1528.56 370.424C1533.49 364.805 1539.58 360.494 1546.26 357.14C1546.31 356.451 1546.35 355.753 1546.41 355.079C1546.41 355.07 1546.41 355.06 1546.41 355.051C1546.45 354.529 1546.51 354.011 1546.6 353.508C1546.6 353.466 1546.6 353.425 1546.62 353.378C1546.66 353.147 1546.7 352.916 1546.75 352.699C1546.76 352.684 1546.76 352.668 1546.75 352.653C1546.81 352.417 1546.88 352.191 1546.95 351.96C1546.96 351.919 1546.98 351.879 1546.99 351.84C1547.05 351.66 1547.12 351.479 1547.19 351.308L1547.26 351.147C1547.35 350.944 1547.46 350.747 1547.57 350.555C1547.92 349.939 1548.26 349.323 1548.59 348.707C1548.67 348.564 1548.75 348.425 1548.82 348.282C1549.15 347.666 1549.47 347.05 1549.78 346.434L1549.89 346.207C1550.16 345.662 1550.43 345.112 1550.7 344.562C1550.77 344.396 1550.86 344.23 1550.93 344.068C1551.21 343.472 1551.49 342.881 1551.75 342.284C1551.82 342.132 1551.88 341.979 1551.95 341.822C1552.16 341.36 1552.37 340.857 1552.58 340.376C1552.66 340.177 1552.74 339.983 1552.82 339.789C1553.06 339.216 1553.28 338.643 1553.52 338.066C1553.61 337.849 1553.69 337.627 1553.78 337.41C1553.94 336.994 1554.1 336.583 1554.24 336.167C1554.33 335.927 1554.42 335.705 1554.51 335.451C1554.72 334.91 1554.91 334.369 1555.1 333.829C1555.21 333.533 1555.32 333.237 1555.42 332.946L1555.75 331.981C1555.94 331.448 1556.12 330.916 1556.29 330.386L1556.55 329.592L1556.94 328.4L1557.09 327.938C1559.5 320.369 1561.51 312.657 1563.88 305.061C1571.84 279.237 1592.8 268.605 1616.81 262.408V180.476C1615.83 180.075 1614.77 179.886 1613.72 179.922" fill="#EA7534"/>
</g>
</g>
<defs>
<clipPath id="clip0_5739_147545">
<rect width="1440" height="230" fill="white"/>
</clipPath>
<clipPath id="clip1_5739_147545">
<rect width="1709" height="237.361" fill="white" transform="translate(1608 237) rotate(-180)"/>
</clipPath>
</defs>
</svg>
