<svg width="1656" height="230" viewBox="0 0 1656 230" fill="none" xmlns="http://www.w3.org/2000/svg">
<g clip-path="url(#clip0_5802_146512)">
<g opacity="0.2">
<path d="M202.062 41.5974C230.11 44.3748 261.749 44.6521 287.532 41.2385C285.635 41.8341 283.771 42.5266 281.945 43.3133V43.3133C272.443 47.1781 219.782 75.0185 189.131 71.9835C143.949 70.3791 131.069 52.9361 108.562 43.1484C87.0964 33.8167 107.497 21.0761 114.177 16.774C116.32 15.3982 118.601 13.9293 120.208 12.1429C120.787 16.6113 121.303 19.8384 121.303 19.8384C131.707 31.7661 173.991 38.8087 202.04 41.586" fill="#4195C4"/>
<path d="M538.897 183.531C554.75 178.173 567.831 171.975 579.023 164.785C606.642 147.039 622.746 123.254 640.641 91.1309C667.514 42.9489 712.212 12.2028 761.913 -15.1367C773.208 -21.3545 784.773 -27.3969 796.44 -33.4294L805.811 -38.2683C806.701 -38.728 807.554 -39.1776 808.396 -39.6189L808.622 -39.7404L809.504 -40.2057L810.435 -40.7031C810.778 -40.8874 811.111 -41.0633 811.446 -41.2485C811.78 -41.4336 812.132 -41.6124 812.461 -41.7934L813.28 -42.2415L814.39 -42.8513L814.994 -43.1816L816.227 -43.8674L816.522 -44.0331C820.412 -46.2203 823.704 -48.1927 826.549 -50.0051L826.677 -50.0853L827.739 -50.7695L827.927 -50.8948L828.919 -51.5302L829.143 -51.6844L830.039 -52.2876L830.283 -52.4584L831.12 -53.0348L831.38 -53.2181C831.644 -53.4009 831.881 -53.591 832.159 -53.7724L832.429 -53.9639C832.679 -54.1435 832.928 -54.3185 833.164 -54.4994L833.434 -54.6955L834.131 -55.2162L834.402 -55.4169L835.065 -55.9223L835.337 -56.1323L835.965 -56.6225L836.237 -56.837L836.843 -57.3204L837.105 -57.5358C837.302 -57.6928 837.498 -57.8497 837.691 -58.0117L837.958 -58.2267L838.52 -58.6958L838.784 -58.9204L839.331 -59.3816C839.417 -59.452 839.503 -59.5271 839.585 -59.6026L840.128 -60.0642L840.377 -60.2856L840.887 -60.7505L841.147 -60.9801L841.656 -61.4358L841.911 -61.6659L842.421 -62.1216L842.686 -62.36L843.195 -62.8157C843.272 -62.887 843.349 -62.963 843.43 -63.0338L843.943 -63.5217L844.061 -63.6354L845.471 -64.9305C853.505 -72.307 863.288 -81.3072 891.194 -98.9415L893.947 -100.675C908.137 -109.545 923.073 -116.47 938.362 -122.515C928.472 -117.35 918.58 -112.177 908.688 -106.997L901.063 -103.002L908.49 -106.868C918.507 -112.095 928.524 -117.333 938.541 -122.581C943.859 -124.674 949.215 -126.677 954.612 -128.591C962.179 -131.301 969.795 -133.894 977.421 -136.487C1006.89 -146.5 1036.49 -156.556 1063.62 -173.784C1083.75 -186.561 1097.38 -205.962 1111.1 -225.466C1122 -240.972 1132.94 -256.548 1147.23 -268.909C1148.41 -269.93 1149.79 -270.977 1151.34 -272.082C1162.14 -279.71 1180.99 -288.763 1197.17 -296.531C1205.95 -300.769 1213.97 -304.619 1219.46 -307.623C1220.24 -308.055 1220.98 -308.472 1221.65 -308.872C1220.01 -307.039 1218.52 -305.027 1217.03 -303.011C1217.03 -302.995 1217.03 -302.98 1217.03 -302.965C1216.77 -302.616 1216.61 -302.201 1216.58 -301.767C1216.54 -301.334 1216.62 -300.898 1216.82 -300.511C1217.02 -300.123 1217.32 -299.799 1217.69 -299.574C1218.07 -299.349 1218.49 -299.233 1218.93 -299.238L1219.5 -299.247C1223.43 -299.29 1227.38 -299.335 1230.61 -300.9C1269.35 -319.574 1292.25 -353.338 1311.24 -389.713L1312.3 -391.757C1329.74 -425.197 1346 -459.679 1333.32 -499.51C1333.23 -499.696 1333.37 -500.002 1333.57 -500.312C1333.67 -500.484 1333.76 -500.665 1333.83 -500.853C1334.07 -500.458 1334.33 -500.075 1334.59 -499.687C1335.13 -498.941 1335.6 -498.142 1335.98 -497.302C1349.99 -462.85 1346.59 -427.532 1332.92 -395.255L1331.11 -391.01C1329.68 -387.604 1328.25 -384.197 1326.81 -380.788C1299.05 -314.558 1270.84 -247.295 1212.3 -201.38C1172.08 -169.787 1125.01 -149.737 1077.99 -129.733C1063.93 -123.747 1049.87 -117.765 1036.01 -111.481L1032.98 -110.11C1030.12 -108.815 1027.25 -107.526 1024.37 -106.245C984.18 -88.2251 943.876 -70.1562 913.466 -36.0962C894.024 -14.4711 904.105 5.03025 914.209 24.5848C914.992 26.0553 915.744 27.5506 916.498 29.0368L918.149 32.3344C920.934 37.6943 924.228 42.7738 927.986 47.5027C937.521 59.674 944.773 66.8089 951.565 68.9209C941.454 72.0985 932.512 72.7454 925.831 76.5367C914.073 83.2055 915.741 100.694 906.766 110.722C904.207 111.29 900.799 111.988 898.667 112.799C888.779 116.574 881.757 126.345 873.98 133.756C847.243 159.232 801.494 172.406 789.183 181.895C776.501 191.666 756.577 191.806 741.344 189.262C732.898 187.85 725.426 183.6 717.441 180.818C709.281 177.976 700.929 178.765 692.541 180.149C683.218 181.687 673.353 183.5 664.558 180.043C664.063 179.907 663.632 179.6 663.344 179.176C663.165 178.707 663.15 178.191 663.302 177.713C664.911 169.91 667.073 165.704 673.327 160.412C677.042 157.27 681.708 155.484 686.32 153.972C726.816 140.719 772.776 139.721 812.344 123.882C819.114 121.159 827.935 114.789 826.359 108.949C820.922 94.8761 812.249 101.957 803.704 110.365C793.61 120.3 776.806 127.997 746.209 128.779C705.208 129.827 691.568 141.347 655.389 155.827C609.584 174.168 553.995 196.397 485.97 198.019C482.964 198.09 479.932 198.12 476.875 198.108C501.509 194.093 521.811 189.292 538.89 183.517" fill="#A4DFD9"/>
<path d="M1452.04 24.6013C1464 34.8305 1474.6 46.9305 1482.12 60.8113C1497.24 88.7003 1515.61 123.56 1473.44 142.27C1452.23 151.685 1429.23 121.874 1410.19 117.95C1401.97 116.254 1394.6 115.158 1386.51 118.507C1384.49 119.314 1382.52 120.246 1380.61 121.299C1380.12 121.547 1379.66 121.813 1379.2 122.088C1377.35 123.178 1375.58 124.375 1373.87 125.674C1373.02 126.314 1372.18 126.974 1371.35 127.64L1370.12 128.646C1361.47 135.835 1352.17 143.723 1346.98 153.958C1329.96 145.591 1321.29 135.525 1327.62 123.471C1336.03 107.441 1359.94 103.331 1381.95 99.5437C1419.35 93.1152 1451.23 87.6314 1392.15 26.2158C1387.58 21.4737 1385.15 15.2104 1383.54 8.22581C1389.52 3.66878 1395.81 -0.147882 1402.99 -1.58657C1418.15 -4.61736 1440.53 14.7561 1452.04 24.6064" fill="#4CBEB3"/>
<path d="M1630.54 -109.732C1634.06 -126.1 1630.62 -152.335 1613.41 -160.015C1603.78 -164.307 1590.64 -163.616 1582.37 -170.704C1573.3 -178.473 1577.28 -194.813 1576.52 -205.47C1575.6 -218.385 1577.27 -231.133 1579.23 -243.94C1581.88 -261.544 1583.06 -279.34 1582.76 -297.14L1584.09 -299.093L1584.12 -299.137L1586.99 -303.352C1596.76 -317.637 1606.68 -333.101 1610.21 -350.326C1614.12 -369.472 1607.54 -386.203 1595.95 -401.285C1595.7 -401.524 1595.8 -402.15 1595.89 -402.722C1595.9 -402.906 1595.92 -403.08 1595.94 -403.241C1596.24 -403.184 1596.55 -403.139 1596.85 -403.1C1597.75 -403.033 1598.63 -402.806 1599.46 -402.429C1617.77 -391.979 1625.36 -372.547 1625.63 -352.556C1625.91 -332.748 1620.46 -313.754 1614.58 -294.681C1612.78 -288.823 1611 -282.964 1609.36 -277.118C1606 -265.118 1602.14 -248.957 1608.84 -237.316C1614.78 -226.977 1627.88 -223.234 1638.68 -220.721C1657.74 -216.289 1671.46 -200.146 1672.95 -180.534C1674.12 -165.133 1676.98 -147.239 1690.53 -137.632C1703.01 -128.79 1720.51 -128.859 1735.1 -128.845C1755.52 -128.828 1771.62 -116.291 1776.18 -97.4287C1780.82 -78.2197 1766.12 -52.1596 1759.3 -33.8396C1752.72 -16.1511 1747.35 1.95965 1742.08 20.0758C1738.26 33.2229 1734.5 50.1648 1725.95 60.0392C1718.37 68.7932 1712.26 82.0996 1706.89 93.0367C1697.45 112.206 1688.36 131.56 1680.55 151.463C1670.49 177.113 1661.65 228.683 1626.54 226.994C1616.78 226.524 1609.46 224.007 1607.69 213.46C1606.81 208.288 1607.93 202.748 1609.2 197.757C1611.14 190.144 1613.82 181.527 1609.63 174.148C1605.45 166.769 1596.91 159.237 1596.45 150.481C1595.76 137.347 1604.41 122.481 1609.74 111.099C1611.34 107.683 1612.15 104.151 1612.89 100.556C1613.22 98.9171 1613.55 97.2726 1613.92 95.6332C1619.32 71.7826 1623.81 46.8007 1620.97 22.9135C1619.89 13.8784 1616.34 4.61567 1617.44 -4.16186C1621.61 -37.2267 1623.23 -75.9484 1630.49 -109.728" fill="#4CBEB3"/>
<path d="M362.715 109.597C432.953 108.849 512.816 108 554.765 77.5384C635.769 18.6976 668.428 -3.28109 731.189 -33.3763C838.892 -85.051 943.807 -141.817 1045.93 -203.674C1046.77 -204.186 1047.61 -204.696 1048.46 -205.207C1056.46 -210.042 1064.84 -215.113 1068.25 -224.995C1102.58 -240.002 1137.42 -283.504 1200.34 -310.5C1200.9 -310.733 1201.45 -310.985 1202 -311.264C1202.2 -311.356 1202.4 -311.461 1202.61 -311.557L1203.64 -312.068L1204.56 -312.553L1205.19 -312.89C1222.5 -322.346 1241.4 -342.819 1255.39 -361.947C1248.83 -349.632 1241.76 -337.564 1234.58 -325.59L1228.17 -314.951L1224.27 -311.455C1223.36 -310.649 1222.5 -309.79 1221.7 -308.882C1221.02 -308.479 1220.29 -308.062 1219.5 -307.632C1214.01 -304.606 1206.01 -300.764 1197.21 -296.541C1181.04 -288.773 1162.18 -279.72 1151.38 -272.092C1149.84 -271.001 1148.46 -269.939 1147.27 -268.919C1132.98 -256.558 1122.04 -240.982 1111.14 -225.476C1097.43 -205.971 1083.79 -186.571 1063.67 -173.794C1036.53 -156.566 1006.93 -146.51 977.464 -136.497C969.838 -133.904 962.222 -131.311 954.655 -128.601C949.273 -126.673 943.913 -124.692 938.599 -122.599L947.501 -127.252L938.414 -122.52C923.111 -116.476 908.171 -109.551 893.999 -100.679L891.245 -98.9459C863.341 -81.3254 853.554 -72.3256 845.523 -64.9349L844.113 -63.6397L843.995 -63.5261L843.482 -63.0382C843.401 -62.9673 843.324 -62.8914 843.247 -62.8201L842.738 -62.3644L842.472 -62.126L841.963 -61.6703L841.708 -61.4402L841.199 -60.9845L840.939 -60.7549L840.429 -60.29L840.179 -60.0686L839.637 -59.607C839.55 -59.5319 839.469 -59.4564 839.383 -59.386L838.836 -58.9248L838.572 -58.7002L838.01 -58.2311L837.743 -58.0161C837.55 -57.8541 837.354 -57.6971 837.157 -57.5402L836.894 -57.3248L836.289 -56.8414L836.017 -56.6269L835.388 -56.1367L835.117 -55.9267L834.454 -55.4212L834.183 -55.2205C833.953 -55.0483 833.722 -54.8716 833.482 -54.7003L833.216 -54.5037C832.975 -54.3232 832.717 -54.1492 832.481 -53.9683L832.211 -53.7768C831.956 -53.5931 831.71 -53.4039 831.432 -53.2225L831.172 -53.0392L830.335 -52.4628L830.09 -52.292L829.195 -51.6888L828.971 -51.5346L827.979 -50.8991L827.79 -50.7739L826.729 -50.0897L826.6 -50.0095C823.755 -48.1879 820.462 -46.2156 816.574 -44.0375L816.279 -43.8717L815.046 -43.1859L814.442 -42.8557L813.332 -42.2459L812.512 -41.7978C812.183 -41.6168 811.84 -41.4325 811.497 -41.2529C811.154 -41.0732 810.83 -40.8918 810.487 -40.7075L809.555 -40.2101L808.448 -39.6233L805.858 -38.2731L794.603 -32.46C792.599 -31.4202 790.585 -30.3815 788.56 -29.3438C779.993 -24.936 771.171 -20.3863 761.964 -15.1365C712.263 12.203 667.565 42.9445 640.692 91.1311C622.779 123.253 606.675 147.038 579.074 164.786C568.099 171.95 553.998 178.363 538.949 183.532C521.87 189.307 501.569 194.108 476.934 198.123C479.991 198.138 483.022 198.108 486.029 198.034C483.934 198.265 481.828 198.387 479.72 198.399C363.431 198.26 208.555 185.682 230.006 135.222C240.345 110.899 297.387 110.293 362.767 109.597L362.715 109.597ZM960.506 -134.048L960.996 -134.311L961.354 -134.498L961.962 -134.833C962.298 -134.939 962.631 -135.064 962.969 -135.197C963.307 -135.331 963.645 -135.455 963.98 -135.562C964.172 -135.683 964.354 -135.82 964.522 -135.972L964.991 -136.39C965.326 -136.496 965.664 -136.625 965.997 -136.755C966.331 -136.884 966.673 -137.008 967.008 -137.119L967.018 -137.211C966.682 -137.105 966.344 -136.976 966.006 -136.847C965.669 -136.718 965.336 -136.593 965 -136.482L964.871 -136.402C964.812 -136.361 964.751 -136.316 964.691 -136.267C964.61 -136.205 964.534 -136.138 964.463 -136.076L963.99 -135.658C963.802 -135.588 963.603 -135.506 963.395 -135.42L962.913 -135.24C962.628 -135.124 962.338 -135.018 962.046 -134.927C961.315 -134.581 960.58 -134.185 959.847 -133.775L959.508 -133.585L960.506 -134.048Z" fill="#4CBEB3"/>
<path d="M137.815 -196.714C138.337 -199.829 139.693 -202.736 142.063 -204.828C143.07 -205.728 144.258 -206.402 145.547 -206.805C151.523 -208.641 153.902 -203.075 156 -199.32C156.914 -197.596 157.942 -195.935 159.079 -194.349L159.107 -194.309L159.346 -194.007L159.371 -193.976C159.371 -193.976 159.371 -193.976 159.369 -193.953L159.394 -193.923C159.518 -193.767 159.647 -193.619 159.776 -193.472L159.877 -193.36L160.065 -193.151L160.111 -193.104L160.346 -192.617C160.669 -191.986 160.992 -191.355 161.309 -190.711L162.243 -188.844C174.481 -164.672 188.272 -147.942 203.648 -135.638C208.136 -132.049 212.85 -128.754 217.762 -125.772C219.101 -124.952 220.453 -124.157 221.816 -123.388C239.601 -113.324 259.2 -107.047 280.715 -100.84L285.347 -99.5084C286.133 -99.0498 286.933 -98.5945 287.738 -98.1433L288.138 -97.9134C290.936 -96.3455 293.806 -94.8231 296.749 -93.3462C325.805 -78.6738 356.69 -67.9485 388.586 -61.4546C420.354 -54.9798 452.93 -52.6735 485.314 -53.5855C517.855 -54.5003 550.402 -58.5116 582.367 -64.5771C590.081 -66.0421 597.785 -67.6054 605.436 -69.3691C618.564 -72.2775 631.533 -75.8692 644.287 -80.1295C656.418 -84.2401 668.393 -89.1184 679.602 -95.3541L680.157 -95.6612L680.255 -95.7119C680.969 -96.1147 681.682 -96.5241 682.391 -96.9398C684.165 -97.9668 685.982 -100.382 686.164 -102.217C686.174 -102.352 686.158 -102.488 686.115 -102.616L686.118 -102.644C686.097 -102.71 686.071 -102.775 686.04 -102.837L686.043 -102.87C686.008 -102.938 685.968 -103.002 685.928 -103.071C684.799 -104.794 682.73 -106.318 680.559 -107.647C679.904 -108.05 679.341 -108.584 678.904 -109.216C678.467 -109.848 678.165 -110.564 678.02 -111.318C677.874 -112.073 677.887 -112.849 678.057 -113.599C678.227 -114.348 678.551 -115.054 679.009 -115.671C679.011 -115.694 679.041 -115.714 679.056 -115.727C681.774 -119.075 686.373 -121.159 690.037 -123.461C699.455 -129.385 708.999 -135.114 718.669 -140.648C725.846 -144.761 730.095 -148.803 733.181 -156.52C733.385 -157.03 726.388 -160.128 725.588 -160.393C722.697 -161.347 719.785 -161.246 716.778 -161.265C715.628 -161.281 714.458 -161.286 713.339 -161.331C712.636 -161.355 711.946 -161.335 711.22 -161.318L710.789 -161.324C749.024 -180.016 811.309 -191.469 841.089 -197.087C869.378 -202.978 911.506 -223.281 910.352 -221.338C888.507 -184.118 826.374 -156.328 804.202 -143.429L802.812 -142.605C802.818 -142.674 802.825 -142.739 802.804 -142.81L802.793 -142.983C802.8 -143.048 802.773 -143.111 802.766 -143.176C802.759 -143.242 802.743 -143.276 802.734 -143.328L802.739 -143.369C802.728 -143.424 802.715 -143.478 802.699 -143.531C802.679 -143.606 802.653 -143.68 802.623 -143.752C802.622 -143.762 802.623 -143.771 802.626 -143.78C802.626 -143.78 802.63 -143.821 802.6 -143.843C802.569 -143.864 802.554 -143.945 802.531 -143.994C802.508 -144.042 802.478 -144.115 802.447 -144.174L802.363 -144.317L802.222 -144.53L802.202 -144.56C798.406 -149.886 786.002 -150.942 781.193 -147.105C775.544 -142.58 771.836 -136.358 767.301 -130.836C767.231 -130.746 767.162 -130.655 767.088 -130.569C749.832 -109.68 723.479 -99.8918 699.018 -90.2277C696.437 -89.2064 693.864 -88.1657 691.284 -87.1443C652.13 -71.5524 611.583 -60.6441 570.133 -52.9083C569.872 -52.846 569.613 -52.7694 569.354 -52.6837L569.234 -52.6444C568.883 -52.5259 568.531 -52.3937 568.179 -52.2614L567.557 -52.0212L567.077 -51.8645L566.765 -51.7607L567.183 -51.7193C567.469 -51.6678 567.758 -51.6392 568.048 -51.6337L568.103 -51.6282C568.244 -51.6309 568.384 -51.6481 568.521 -51.6796L569.981 -51.9298C551.551 -47.751 536.103 -44.605 527.368 -43.6126L523.612 -43.1906C467.86 -37.0335 407.565 -36.4337 348.971 -37.9174C345.623 -38.0012 342.282 -38.0938 338.946 -38.195L331.077 -38.4403L329.465 -38.8134C299.962 -45.6583 271.514 -55.6953 244.999 -70.4952C218.485 -85.295 194.879 -104.478 175.502 -127.816C167.687 -137.316 160.566 -147.366 154.191 -157.887C150.95 -163.185 147.726 -168.556 144.888 -174.08C142.316 -179.098 139.138 -183.963 138.001 -189.587C137.52 -191.93 137.469 -194.341 137.851 -196.702" fill="#E5C7A3"/>
<path d="M208.874 -27.1992C209.441 -27.013 210.007 -26.8224 210.567 -26.6229L210.742 -26.5591C219.535 -23.4505 227.866 -18.7252 236.179 -14.0065C239.599 -12.0613 243.015 -10.1259 246.456 -8.30394L246.654 -8.196L247.647 -7.67518L248.027 -7.47964L248.986 -6.98547L249.256 -6.85195C249.849 -6.55183 250.443 -6.2701 251.026 -5.9663L251.526 -5.71717L252.35 -5.32433L252.936 -5.04814L253.748 -4.67059L254.362 -4.39166C254.806 -4.1898 255.251 -3.99253 255.695 -3.79526L256.399 -3.48882L257.161 -3.17185L257.835 -2.89162L258.598 -2.58385L259.296 -2.31503L260.043 -2.02749C260.491 -1.86701 260.903 -1.71018 261.334 -1.56072L262.061 -1.30768L262.793 -1.05869L263.549 -0.812128L264.279 -0.586591L265.022 -0.359698L265.957 -0.0953772L267.047 0.198337L267.84 0.397569L268.602 0.579814L269.352 0.746873L270.115 0.910697L270.94 1.06664C271.328 1.14212 271.716 1.2085 272.104 1.27479C272.403 1.30439 272.702 1.37576 273.018 1.42097L273.788 1.52507L274.558 1.62458L275.349 1.70289C275.616 1.7293 275.882 1.75571 276.149 1.78211C276.416 1.80852 276.655 1.83219 276.908 1.85723C277.367 1.90276 277.83 1.91605 278.292 1.93859L279.079 1.96547L279.876 1.97935L280.693 1.98595L281.488 1.97188L282.303 1.9549L283.385 1.89966C283.768 1.87721 284.156 1.85067 284.54 1.81903L285.369 1.74784L286.224 1.65132L287.018 1.55359L287.884 1.43048L288.734 1.29173C288.975 1.25058 289.206 1.21764 289.452 1.17235C292.116 0.683938 294.781 0.209616 297.449 -0.250596L298.232 -0.381913C300.537 -0.772807 302.845 -1.16339 305.155 -1.55368L307.132 -1.86864C309.048 -2.18038 310.966 -2.48424 312.887 -2.78005L315.306 -3.14875C317.097 -3.41715 318.886 -3.68269 320.673 -3.94527L323.24 -4.31793L328.552 -5.06422L331.07 -5.40909C332.931 -5.66132 334.791 -5.90743 336.65 -6.1474L338.852 -6.43555C341.122 -6.73078 343.395 -7.01807 345.67 -7.29736L346.609 -7.40859C349.254 -7.73177 351.899 -8.04713 354.545 -8.35468L355.64 -8.4831C357.869 -8.74212 360.1 -8.99489 362.331 -9.24135C363.083 -9.32943 363.834 -9.40833 364.588 -9.48217C366.466 -9.68935 368.335 -9.89439 370.193 -10.0973L372.624 -10.3533L378.184 -10.9358L380.432 -11.1776C382.443 -11.387 384.458 -11.5914 386.478 -11.7907L388.072 -11.9532C398.758 -13.0186 409.451 -14.0477 420.151 -15.0405C441.444 -17.0506 462.742 -19.0648 483.987 -21.5208L484.456 -21.5718C486.554 -21.816 488.656 -22.063 490.76 -22.3127L492.17 -22.4842L497.572 -23.152L499.372 -23.3776C501.065 -23.5907 502.757 -23.8101 504.447 -24.0358L506.376 -24.2859C508.108 -24.52 509.834 -24.7562 511.554 -24.9945L513.257 -25.225C515.543 -25.5466 517.824 -25.8733 520.101 -26.205C520.262 -26.2324 520.422 -26.2725 520.577 -26.3251L520.712 -26.3721L521.06 -26.5141L521.181 -26.567L521.563 -26.7614C521.739 -26.8508 521.92 -26.9443 522.109 -27.0277C521.672 -27.0709 521.226 -27.1151 520.79 -27.1583C519.433 -27.3779 518.06 -27.4751 516.686 -27.4486C473.233 -24.7075 429.769 -23.9224 386.619 -29.0262C374.303 -30.4965 362.125 -32.292 350.132 -34.4964L349.716 -34.5699L347.838 -34.9231L346.275 -35.2218L344.453 -35.5786L342.86 -35.8943L341.039 -36.2603L339.383 -36.6055C338.805 -36.7231 338.222 -36.8411 337.645 -36.9679C336.589 -37.1884 335.54 -37.4178 334.49 -37.6471L332.868 -38.0073L331.101 -38.4051L331.041 -38.4111L338.91 -38.1659C342.244 -38.068 345.584 -37.9755 348.931 -37.8887C407.552 -36.4022 467.848 -37.002 523.6 -43.1591L527.356 -43.5811C536.095 -44.573 551.545 -47.7374 569.968 -51.8983L574.744 -52.7255L575.269 -52.8175L575.68 -52.8882C577.475 -53.198 579.266 -53.5174 581.053 -53.8327L582.022 -54.0061C640.023 -64.3143 697.183 -77.1854 750.292 -102.785L750.375 -102.828C751.373 -103.308 752.37 -103.794 753.366 -104.287L753.526 -104.364L756.457 -105.824L756.638 -105.918C757.615 -106.406 758.593 -106.904 759.571 -107.401L759.737 -107.487C760.717 -108.009 761.698 -108.531 762.678 -109.053L762.766 -109.1C767.894 -111.805 772.973 -114.645 778.004 -117.62C780.412 -119.048 782.713 -120.648 784.89 -122.408L784.951 -122.458C785.369 -122.792 785.779 -123.133 786.189 -123.477L786.301 -123.568C786.696 -123.901 787.086 -124.234 787.473 -124.571L787.615 -124.697C787.992 -125.031 788.363 -125.361 788.736 -125.7L788.899 -125.851C789.262 -126.182 789.625 -126.517 789.983 -126.853L790.157 -127.022C790.511 -127.358 790.865 -127.695 791.214 -128.036C791.275 -128.091 791.337 -128.149 791.394 -128.209C791.744 -128.55 792.093 -128.892 792.425 -129.24L792.59 -129.409C792.941 -129.76 793.291 -130.115 793.624 -130.472L793.769 -130.62C794.13 -130.988 794.487 -131.362 794.84 -131.731L794.933 -131.833C795.311 -132.227 795.69 -132.626 796.064 -133.026C796.58 -133.555 797.051 -134.089 797.536 -134.621L798.082 -135.217L798.369 -135.537L798.552 -135.737L799.203 -136.457L800.278 -137.651C801.503 -139.053 802.276 -140.324 802.597 -141.466C802.639 -141.615 802.672 -141.767 802.697 -141.92C802.697 -141.92 802.697 -141.92 802.701 -141.957C802.724 -142.095 802.738 -142.235 802.742 -142.375L802.756 -142.513C802.76 -142.554 802.764 -142.596 802.768 -142.633L804.159 -143.456C826.33 -156.356 888.459 -184.145 910.309 -221.365C921.01 -230.59 936.617 -241.108 963.202 -253.798C991.702 -267.399 1023.74 -272.371 1052.54 -285.301L1053.06 -285.529C1069.73 -292.852 1127.1 -310.621 1148.31 -321.753C1234.27 -366.87 1256.55 -395.941 1270.73 -419.364L1272.46 -422.266L1272.56 -420.459C1272.62 -419.413 1272.7 -418.361 1272.77 -417.3C1273.1 -412.429 1273.44 -407.482 1272.93 -402.704C1272.66 -399.858 1271.97 -397.067 1270.9 -394.417C1266.28 -383.336 1261.02 -372.542 1255.37 -361.939C1240.06 -341.005 1218.88 -318.456 1200.32 -310.497C1137.39 -283.502 1102.55 -240 1068.23 -224.993C1066.76 -224.498 1065.29 -224.024 1063.81 -223.573L1063.44 -223.456L1061.46 -222.84L1061.28 -222.788L1059.37 -222.193L1057.5 -221.616L1056.22 -221.223L1055.44 -220.979L1053.35 -220.319L1052.39 -220.024L1051.23 -219.646L1049.64 -219.117L1048.5 -218.732L1047.31 -218.312L1046.35 -217.971C1045.79 -217.771 1045.23 -217.561 1044.67 -217.352L1043.78 -217.004C1043.3 -216.825 1042.84 -216.639 1042.37 -216.447L1041.53 -216.103C1041.02 -215.889 1040.5 -215.671 1039.99 -215.443L1039.54 -215.256C1027.43 -209.875 1015.51 -204.169 1003.71 -198.202C930.238 -161.166 861.67 -114.857 786.323 -81.3598C771.801 -74.9074 757.216 -68.6485 742.569 -62.5832C739.907 -49.7715 724.772 -42.9868 711.829 -38.8405C641.142 -16.2023 574.769 13.2334 502.379 31.9279C495.818 33.623 489.209 35.3228 482.452 35.8098C473.159 36.4777 463.87 34.8241 454.558 34.6079C433.536 34.1143 413.122 40.8918 392.439 44.6755C359.291 50.6563 325.216 48.9925 292.809 39.811L287.489 41.2529C261.689 44.6462 230.044 44.3869 202.019 41.6118C173.993 38.8368 131.686 31.7921 121.282 19.8644C121.282 19.8644 120.757 16.6364 120.187 12.1689C119.48 6.74068 118.694 -0.515462 118.686 -6.06482C118.003 -38.4629 176.056 -37.7478 208.84 -27.1885" fill="#A4DFD9"/>
<path d="M1184.14 119.702C1189.17 115.004 1195.02 111.256 1200.1 106.615C1207.75 99.6278 1223.16 89.6704 1240.46 74.3388C1251.17 69.693 1260.92 62.4717 1269.01 53.9913C1282.32 40.0475 1291.71 22.8684 1300.11 5.53214C1313.34 -21.7646 1324.91 -50.1641 1333.64 -79.2339C1337.9 -93.3873 1336.93 -99.3054 1333.42 -100.15C1336.36 -105.552 1339.5 -110.812 1342.85 -115.932C1367.34 -153.215 1408.12 -173.971 1435.14 -208.321C1451.61 -229.266 1475.66 -239.769 1483.43 -243.907C1522.21 -264.555 1563.51 -311.244 1561.02 -339.888C1559.73 -354.739 1579.6 -350.929 1581.81 -317.585C1586.39 -248.877 1574.15 -240.135 1576.53 -205.45C1577.38 -193.188 1573.91 -179.309 1580.62 -169.014C1585.94 -160.849 1595 -155.658 1600.27 -147.456C1610.41 -131.677 1608.49 -93.0268 1607.42 -87.9237C1601.31 -59.0215 1601.2 -17.9635 1596.36 11.3292C1591.05 43.4311 1574.39 70.4999 1553.28 94.7036C1551.62 96.5595 1550.8 97.4862 1549.2 99.3332C1542.45 107.232 1535.9 115.27 1529.72 123.625C1527.66 126.401 1526.67 127.775 1524.75 130.487C1524.33 131.244 1524.13 131.619 1523.72 132.372C1516.47 145.528 1509.13 158.662 1500.16 170.774C1497.6 174.162 1494.78 177.346 1491.72 180.297C1490.12 181.875 1478.8 196.435 1463.33 202.982C1460.33 204.244 1457.04 204.641 1453.83 204.126C1409.55 197.118 1377.64 169.056 1346.97 153.976C1352.17 143.741 1361.46 135.853 1370.12 128.664L1371.35 127.658C1372.18 126.992 1373.02 126.332 1373.86 125.692C1375.57 124.393 1377.35 123.196 1379.19 122.106C1379.66 121.836 1380.13 121.571 1380.6 121.317C1382.51 120.264 1384.48 119.331 1386.5 118.525C1394.6 115.176 1401.96 116.272 1410.19 117.968C1429.23 121.892 1452.22 151.703 1473.43 142.288C1515.61 123.551 1497.24 88.7002 1482.14 60.8039C1474.62 46.9231 1464.02 34.8231 1452.06 24.5939C1440.55 14.7436 1418.16 -4.62985 1403 -1.59906C1395.82 -0.160374 1389.54 3.65628 1383.55 8.21286C1379.36 11.4059 1375.34 15.2934 1373.48 20.2161C1371.61 25.1388 1368.51 32.8277 1365.02 36.791C1359.83 42.7174 1338.16 57.616 1332.06 61.2191C1310.63 73.8812 1227.9 126.254 1204.99 135.998C1196.59 139.568 1187.7 142.788 1178.59 142.207C1177.21 142.121 1175.71 141.87 1174.84 140.8C1174.06 139.84 1174.03 138.495 1174.15 137.267C1174.83 130.421 1179.14 124.426 1184.15 119.722" fill="#A4DFD9"/>
<path d="M1302.63 -68.0773C1296.22 -51.4584 1293.62 -33.324 1284.97 -17.7434C1282.29 -12.9013 1278.98 -8.29856 1274.44 -5.13556C1270.14 -2.13048 1264.98 -0.60736 1260.41 1.97177C1253.16 6.04635 1247.66 12.5592 1242.33 18.9354C1230.32 33.2917 1218.31 47.6462 1206.29 61.9989C1204.47 64.1859 1202.56 66.551 1202.27 69.3876C1201.55 76.7445 1211.32 80.2196 1218.7 79.743C1237.94 78.4908 1255.68 67.9389 1269 53.9905C1282.31 40.0421 1291.7 22.8676 1300.11 5.53135C1313.33 -21.7654 1324.9 -50.1649 1333.63 -79.2347C1346.71 -122.728 1310.5 -88.4898 1302.62 -68.0644" fill="#4CBEB3"/>
<path d="M1011.33 197.786C1002.61 199.193 995.232 190.861 991.045 184.944C985.937 177.725 982.39 168.718 978.421 160.269C975.289 153.593 971.517 143.618 964.594 140.903C957.398 138.078 945.607 143.49 937.694 145.283C931.334 146.729 924.862 148.271 918.414 148.816C916.911 148.946 915.367 149.062 913.845 149.19C907.406 149.741 892.719 152.842 887.894 146.713C880.676 137.548 900.328 118.205 904.968 112.8C905.576 112.099 906.182 111.411 906.773 110.746C915.752 100.719 914.08 83.2294 925.838 76.5605C932.519 72.7693 941.46 72.127 951.572 68.9447C962.456 65.5232 975.762 57.4662 983.655 46.8302C984.678 45.4503 985.671 43.956 986.653 42.4838C987.634 41.0116 988.603 39.5335 989.525 38.0508C1002.42 17.2867 1011.15 -4.21533 1012.84 -28.6471C1014.51 -52.7285 1032.7 -68.4692 1052.2 -80.0692L1054.39 -81.3614C1057.31 -83.069 1060.25 -84.7372 1063.15 -86.3855L1066.23 -88.1241L1066.94 -88.5184L1067.52 -88.8463C1067.82 -89.0208 1068.12 -89.1903 1068.42 -89.3653L1070.84 -90.7548C1071.93 -91.3852 1072.48 -91.698 1073.57 -92.3418C1074.16 -92.6743 1074.74 -92.9967 1075.33 -93.3242C1076.93 -94.2278 1078.53 -95.1248 1080.13 -96.0153C1080.96 -96.4722 1081.79 -96.9189 1082.62 -97.3758C1083.96 -98.1094 1085.31 -98.8396 1086.66 -99.5664C1087.6 -100.073 1088.54 -100.569 1089.47 -101.071C1090.72 -101.734 1091.97 -102.384 1093.21 -103.022L1096.22 -104.582C1097.41 -105.197 1098.6 -105.813 1099.8 -106.419L1102.93 -108.012C1104.09 -108.594 1105.25 -109.174 1106.41 -109.752C1107.49 -110.287 1108.57 -110.825 1109.64 -111.355L1113.06 -113.018C1114.17 -113.553 1115.27 -114.094 1116.38 -114.625C1117.48 -115.157 1118.59 -115.692 1119.71 -116.218C1120.82 -116.744 1121.97 -117.304 1123.12 -117.835L1126.34 -119.373L1129.84 -121.014C1130.6 -121.366 1131.36 -121.709 1132.11 -122.061C1134.75 -123.276 1137.39 -124.485 1140.04 -125.687L1142.99 -127.029L1146.64 -128.66L1149.83 -130.09L1153.27 -131.607L1156.76 -133.155L1159.87 -134.519L1163.89 -136.289L1166.36 -137.363L1171.7 -139.69L1172.53 -140.045L1177.86 -142.363L1185.69 -145.767L1193.99 -149.355C1201.96 -152.801 1209.91 -156.271 1217.84 -159.763C1218.02 -159.838 1218.2 -159.918 1218.37 -159.998C1220.17 -160.789 1221.96 -161.584 1223.75 -162.382L1225.75 -163.279L1229.69 -165.049L1232.2 -166.193L1235.67 -167.771L1238.36 -169.004L1241.66 -170.536L1244.44 -171.829L1247.65 -173.331L1250.44 -174.652L1253.66 -176.191L1256.4 -177.457L1259.65 -179.038C1260.55 -179.475 1261.45 -179.913 1262.34 -180.351L1265.69 -182.002L1268.26 -183.284C1269.44 -183.873 1270.61 -184.472 1271.78 -185.066C1272.57 -185.452 1273.37 -185.866 1274.17 -186.275C1275.47 -186.939 1276.77 -187.618 1278.08 -188.292L1280.04 -189.315C1282 -190.337 1283.95 -191.372 1285.89 -192.417C1287.41 -193.224 1288.17 -193.627 1289.68 -194.438C1296.05 -197.74 1302.42 -201.599 1308.91 -204.142C1317.74 -207.6 1330.34 -206.352 1344.98 -213.186C1369.43 -224.602 1384.74 -226.954 1406.87 -242.694C1418.03 -250.629 1429.45 -259.096 1439.02 -268.925C1451.68 -281.93 1461.81 -297.471 1472.37 -312.134C1476.01 -317.193 1479.68 -322.246 1483.39 -327.294C1486.18 -331.085 1489.02 -334.845 1491.9 -338.574C1494.17 -341.506 1495.3 -342.932 1497.46 -345.605C1499.6 -348.179 1501.79 -350.693 1504.23 -352.532C1505.33 -353.352 1506.42 -354.209 1507.47 -355.02C1507.83 -355.291 1508.2 -355.551 1508.52 -355.812C1514.49 -360.612 1520.57 -359.783 1525.79 -356.126C1531.02 -352.47 1532.21 -348.712 1527.1 -343.256C1526.53 -342.612 1526 -341.94 1525.5 -341.241C1524.75 -340.238 1524.35 -339.707 1523.54 -338.594C1504.97 -313.14 1487.91 -285.419 1466.05 -262.566C1454.22 -250.208 1439.31 -238.688 1425.63 -228.402C1397.53 -207.285 1367.48 -188.917 1336.81 -171.825C1334.61 -170.595 1332.4 -169.372 1330.19 -168.158C1323.54 -164.514 1316.87 -160.906 1310.16 -157.335L1305.75 -154.986C1298.95 -151.413 1292.12 -147.879 1285.27 -144.384C1245.29 -123.911 1203.43 -102.23 1177.43 -66.5405C1165.5 -50.1479 1165.35 -30.0808 1165.91 -9.73026C1163.79 11.6647 1164.29 34.7398 1158.98 55.5677C1153.66 76.3957 1144.3 96.6459 1129.08 111.832C1121.44 119.461 1112.38 125.774 1106.01 134.5C1093.09 152.229 1092.21 178.543 1074.39 191.316C1067.03 196.578 1057.85 198.58 1048.87 199.617C1036.85 201.009 1023.35 199.38 1011.38 197.762" fill="#4CBEB3"/>
<path d="M10.5623 -88.3319C29.8605 -72.2129 54.8869 -59.4083 64.5905 -37.8782C71.7764 -15.8684 69.082 6.65346 53.238 21.2986C37.394 35.9437 24.0202 40.9297 -1.98701 38.452L10.5623 -88.3319Z" fill="#A4DFD9"/>
<path d="M342.09 -376.153L343.194 -378.579C391.198 -482.383 471.864 -555.721 565.994 -617C622.857 -653.976 684.713 -679.624 747.965 -702.525C757.597 -706.019 773.801 -711.639 778.457 -701.544C781.58 -694.688 774.883 -690.396 768.046 -686.017C764.725 -683.894 761.379 -681.751 759.105 -679.283C758.234 -678.362 757.386 -677.438 756.537 -676.514C755.673 -675.574 754.809 -674.633 753.936 -673.689C754.641 -673.731 755.365 -673.728 756.08 -673.723C757.816 -673.718 759.538 -673.71 761.039 -674.286C794.758 -686.58 829.256 -696.509 863.763 -706.437L864.121 -706.541L864.346 -703.839C864.509 -701.966 929.112 -714.142 1028.24 -738.411C1127.37 -762.681 1169.28 -792.529 1284.98 -771.93C1293 -770.504 1299.77 -764.894 1307.59 -762.629C1347.31 -751.058 1395.39 -740.776 1431.38 -718.584C1497.5 -677.799 1558.14 -626.198 1627.53 -590.525C1682.76 -562.133 1743.54 -554.235 1796.62 -521.974C1819.46 -508.104 1831.21 -495.166 1847.02 -477.729L1826.28 -268.244C1823.31 -269.003 1820.32 -269.722 1817.32 -270.441C1795.96 -275.551 1774.33 -280.735 1759.95 -298.966C1743.9 -319.356 1750.16 -352.641 1772.91 -382.992L1773.7 -384.043C1799.23 -418.622 1795.91 -436.605 1760.44 -462.032C1742.79 -474.715 1724.23 -487.873 1704.01 -490.488L1704.3 -490.459C1639.83 -514.599 1576.29 -540.025 1515.63 -572.414C1513.81 -573.769 1512.01 -575.136 1510.24 -576.532C1494.68 -588.78 1480.54 -602.795 1464.82 -614.864C1455.98 -621.655 1445.15 -625.699 1436.72 -633.002C1405.96 -659.658 1430.57 -652.578 1398.1 -667.47L1396.27 -668.302C1376.37 -677.237 1339.91 -690.348 1321.59 -678.482C1303.59 -666.837 1322.35 -661.692 1297.32 -662.41C1283.43 -662.81 1269.81 -666.95 1255.93 -667.15C1254.48 -667.173 1253.46 -663.94 1254.59 -663.025L1256.75 -659.323C1236.11 -665.853 1214.19 -675.257 1206.25 -659.564L1205.01 -659.019C1189.17 -662.444 1172.78 -665.576 1155.82 -668.714L1150.2 -669.735C1119.7 -675.327 1066.97 -683.688 1029.79 -678.871L1005.97 -675.774C938.706 -666.978 985.003 -672.038 911.596 -648.75L909.103 -647.961C826.636 -622.036 817.439 -627.251 751.836 -567.884L746.473 -563.006C730.377 -548.255 698.977 -518.175 697.208 -496.88C696.717 -490.893 704.385 -486.419 704.672 -480.405C705.091 -471.69 696.542 -463.102 699.235 -454.803C700.609 -450.58 707.667 -458.225 710.878 -461.297C720.801 -470.771 725.696 -475.705 728.438 -477.987C785.219 -518.211 847.264 -546.706 915.317 -561.925C916.71 -562.302 918.022 -563.268 919.324 -564.226C919.894 -564.634 920.464 -565.042 921.043 -565.449C920.711 -565.946 920.389 -566.442 920.065 -566.966C919.322 -568.212 918.485 -569.399 917.561 -570.516C904.762 -584.426 915.845 -588.645 924.473 -591.928C925.534 -592.334 926.557 -592.72 927.492 -593.115L930.084 -594.251C953.778 -604.377 979.027 -608.261 1004.29 -612.148C1013.32 -613.539 1022.35 -614.929 1031.31 -616.6C1033.12 -617.069 1034.87 -617.749 1036.52 -618.624C1037.33 -619.009 1038.14 -619.393 1038.95 -619.735C1038.05 -619.991 1037.15 -620.308 1036.25 -620.619C1034.16 -621.356 1032.04 -622.095 1029.9 -622.117C981.606 -623.008 934.417 -615.362 887.632 -604.338L887.266 -604.253C886.029 -603.953 884.651 -603.584 883.215 -603.15C876.797 -601.315 869.2 -599.147 867.629 -603.542C865.502 -609.487 872.992 -612.924 879.155 -615.75C880.356 -616.299 881.509 -616.83 882.526 -617.347L884.413 -618.303C945.482 -648.895 1011.63 -656.317 1078.63 -658.876L1082.77 -659.027C1181.74 -662.563 1269.57 -633.213 1347.73 -571.747C1354.66 -566.293 1362.09 -561.425 1369.48 -556.593C1390.53 -542.799 1411.34 -529.149 1420.02 -502.45C1425.86 -484.437 1425.66 -465.953 1425.46 -447.475C1425.36 -438.76 1425.27 -430.049 1425.81 -421.383L1425.85 -420.715C1427.11 -401.246 1432.14 -384.483 1453.52 -377.421L1453.84 -377.31C1458.32 -375.641 1457.49 -371.586 1453.42 -368.911C1425.63 -350.907 1401.74 -360.986 1397.12 -392.594C1404.94 -417.497 1406.82 -443.637 1396.14 -467.873C1394.24 -472.138 1390.38 -475.297 1386.71 -478.191C1385.12 -479.457 1383.51 -480.719 1381.91 -481.977L1380.77 -482.86L1379.33 -483.983L1377.8 -485.17L1376.4 -486.237L1374.82 -487.443L1373.41 -488.511L1371.82 -489.723L1370.43 -490.766L1368.77 -492.003L1367.43 -492.994L1365.58 -494.347L1364.42 -495.191C1363.42 -495.917 1362.41 -496.644 1361.39 -497.349L1360.87 -498.914C1341.02 -557.958 1278.32 -614.443 1209.55 -631.922C1178.19 -639.993 1145.93 -644.089 1113.54 -644.113C1111.48 -644.061 1109.42 -643.435 1107.37 -642.811C1106.45 -642.53 1105.54 -642.254 1104.63 -642.033L1106.46 -641.266C1108.28 -640.45 1110.14 -639.749 1112.04 -639.168C1115.34 -638.182 1118.67 -637.235 1121.97 -636.29C1141.55 -630.711 1161.14 -625.131 1177.23 -611.499C1179.19 -609.799 1180.34 -607.114 1181.48 -604.428C1182.03 -603.158 1182.57 -601.887 1183.2 -600.72C1182.02 -600.242 1180.84 -599.617 1179.65 -598.996C1177.14 -597.684 1174.63 -596.359 1172.11 -596.358C1158.65 -596.386 1145.16 -596.895 1131.67 -597.404C1094.37 -598.814 1057.03 -600.221 1020.12 -591.493C1018.69 -591.17 1017.14 -590.859 1015.53 -590.554C1008.62 -589.279 1000.87 -587.827 1000.24 -580.767C1000.06 -579.218 1000.36 -577.652 1001.09 -576.276C989.863 -577.387 978.554 -577.409 967.323 -576.342C964.932 -576.114 962.474 -575.814 960.392 -574.618C958.309 -573.422 956.683 -571.113 957.023 -568.739C965.246 -565.701 974.009 -564.402 982.759 -564.923C987.374 -565.2 992.075 -565.974 996.556 -564.853C998.604 -564.343 1000.54 -563.446 1002.59 -562.983C1008 -561.756 1013.71 -563.591 1019.16 -562.587C1023.77 -561.736 1027.74 -558.951 1031.97 -556.935C1033.58 -556.172 1035.7 -555.596 1036.94 -556.851C1037.86 -557.772 1037.79 -559.312 1037.13 -560.454L1038.03 -560.119C1064.81 -550.006 1091.61 -539.881 1114.96 -522.446C1160.02 -488.9 1159.77 -443.351 1112.65 -413.003C1108.3 -410.211 1103.94 -407.365 1099.55 -404.494L1099.5 -404.462C1058.71 -377.823 1015.79 -349.794 966.913 -355.469C931.71 -359.563 896.863 -358.25 862.123 -356.944C833.47 -355.867 804.883 -354.793 776.205 -356.751C767.828 -357.301 756.282 -358.63 755.562 -368.243C754.857 -377.019 761.429 -386.282 769.634 -391.491C779.936 -398.04 791.003 -403.268 802.07 -408.496C819.165 -416.554 836.255 -424.65 850.478 -437.598C859.943 -446.11 866.506 -459.074 860.888 -470.653C856.153 -480.371 844.948 -477.552 835.649 -475.218C834.821 -475.012 834.006 -474.805 833.216 -474.614L830.454 -473.959C791.451 -464.579 757.683 -444.205 725 -421.839L721.842 -419.672C721.104 -419.221 720.323 -418.844 719.511 -418.547C719.027 -418.349 718.543 -418.146 718.056 -417.915C718.208 -418.235 718.348 -418.569 718.488 -418.908C718.814 -419.875 719.322 -420.77 719.984 -421.546C779.035 -481.558 876.311 -529.817 970.375 -509.117L970.748 -509.034L972.263 -508.722C978.057 -507.549 984.621 -506.216 986.19 -498.474L986.099 -497.554L982.575 -495.545C973.949 -490.627 965.387 -485.75 956.815 -480.73C955.615 -479.917 954.514 -478.966 953.535 -477.897V-477.897C953.136 -477.472 952.746 -477.098 952.346 -476.724C953.119 -476.741 953.908 -476.695 954.693 -476.645C956.272 -476.554 957.846 -476.458 959.307 -476.866C963.182 -477.931 967.168 -479.259 971.201 -480.601C987.79 -486.123 1005.17 -491.905 1018.83 -480.792L1019.54 -480.225C1039.27 -464.663 1054.33 -472.225 1069.86 -480.016C1072.74 -481.463 1075.64 -482.912 1078.58 -484.232L1079.07 -484.458C1092.03 -490.46 1091.22 -500.123 1081.41 -509.146C1047.93 -539.878 1006.18 -545.03 963.485 -545.366L961.503 -545.377C896.124 -545.582 834.811 -530.016 784.965 -486.245L783.491 -484.966C775.522 -478.103 767.104 -471.73 758.696 -465.398C742.18 -452.928 725.685 -440.478 712.648 -424.213L711.78 -423.143C710.496 -421.571 709.174 -419.988 707.846 -418.392C695.152 -403.161 681.443 -386.717 688.32 -365.764C695.238 -344.519 715.368 -339.99 734.721 -335.632C737.573 -334.987 740.412 -334.349 743.19 -333.66L744.522 -333.329C747.901 -332.469 751.301 -331.687 754.713 -330.927C754.557 -330.852 754.406 -330.774 754.258 -330.693C753.038 -329.997 753.225 -328.088 754.584 -327.745L754.814 -327.722L781.45 -325.266C783.112 -324.888 784.776 -324.495 786.441 -324.089C789.038 -323.498 791.38 -321.079 793.35 -318.836L794.02 -318.059C794.36 -317.742 791.754 -313.928 789.875 -312.726C747.866 -285.312 645.898 -290.766 607.785 -322.399C589.666 -337.44 580.37 -357.741 573.244 -379.373L571.824 -383.786C549.063 -453.51 531.773 -457.98 471.006 -413.27C438.216 -389.122 409.729 -360.703 383.58 -329.667L383.355 -329.41C382.955 -328.935 382.542 -328.428 382.129 -327.911C379.23 -324.335 375.913 -320.229 371.442 -322.255C368.774 -323.448 367.377 -330.811 367.886 -335.019C372.775 -375.014 390.434 -409.204 415.986 -439.835L416.24 -439.536C415.073 -437.602 413.903 -435.672 412.727 -433.746C400.742 -414.038 388.741 -394.309 384.002 -371.167C383.852 -370.49 383.67 -369.779 383.487 -369.055C382.404 -364.83 381.204 -360.073 385.586 -358.14C388.254 -356.947 394.19 -360.622 397.328 -363.477L401.506 -367.215C433.537 -395.844 466.346 -423.519 503.677 -445.318C541.008 -467.118 562.17 -458.517 575.723 -417.532C577.403 -412.462 578.961 -407.326 580.519 -402.199C588.572 -375.678 596.62 -349.097 621.511 -331.501C622.779 -330.572 624.097 -329.763 625.439 -328.967L627.446 -327.765C638.732 -320.997 650.742 -316.845 664.106 -317.003C661.092 -318.119 658.037 -319.155 654.978 -320.191C648.316 -322.453 641.632 -324.721 635.331 -327.82C620.41 -335.152 610.59 -345.945 603.447 -358.544C607.37 -354.32 611.955 -350.681 616.618 -347.178L616.947 -346.931L618.762 -345.568C624.083 -341.582 629.478 -337.542 635.609 -334.985C643.298 -331.753 651.758 -330.957 660.064 -330.2C677.169 -328.641 694.694 -327.119 711.275 -331.574C702.935 -337.6 692.97 -340.969 682.683 -341.24C672.029 -341.496 660.695 -338.49 651.021 -343.014C650.639 -343.191 650.263 -343.382 649.898 -343.59L649.533 -343.798C649.291 -343.933 649.049 -344.068 648.818 -344.212L648.38 -344.483C648.17 -344.615 647.965 -344.747 647.761 -344.888C647.557 -345.029 647.475 -345.093 647.327 -345.195L646.76 -345.609L646.329 -345.949C646.148 -346.092 645.972 -346.235 645.801 -346.382C645.63 -346.529 645.527 -346.623 645.373 -346.749C645.218 -346.876 645.036 -347.048 644.875 -347.203C644.713 -347.358 644.612 -347.461 644.481 -347.59C644.35 -347.719 644.164 -347.905 644.008 -348.064L643.631 -348.473C643.48 -348.636 643.329 -348.8 643.184 -348.981L642.822 -349.407L642.408 -349.912L642.062 -350.36C641.926 -350.536 641.796 -350.716 641.651 -350.897L641.321 -351.357C641.19 -351.542 641.065 -351.726 640.939 -351.915C640.814 -352.104 640.734 -352.228 640.635 -352.41C640.537 -352.591 640.391 -352.796 640.27 -352.989C640.15 -353.182 640.075 -353.31 639.98 -353.482L639.637 -354.092C639.546 -354.254 639.455 -354.412 639.369 -354.583C639.284 -354.754 639.142 -355.009 639.034 -355.224L638.79 -355.713C638.677 -355.937 638.57 -356.166 638.462 -356.395L638.246 -356.881C638.131 -357.129 638.025 -357.367 637.916 -357.633L637.734 -358.046L637.333 -359.014L637.256 -359.212C637.1 -359.613 636.955 -360.017 636.809 -360.422C636.766 -360.547 636.726 -360.667 636.688 -360.791C636.59 -361.075 636.489 -361.364 636.397 -361.651C636.343 -361.81 636.298 -361.972 636.244 -362.131L636.013 -362.887L635.861 -363.418L635.659 -364.143L635.519 -364.696C635.456 -364.934 635.396 -365.173 635.339 -365.41C635.293 -365.601 635.246 -365.791 635.205 -365.981C635.163 -366.171 635.094 -366.456 635.042 -366.684L634.919 -367.267C634.868 -367.5 634.822 -367.741 634.774 -367.964C634.727 -368.187 634.697 -368.357 634.661 -368.556C634.625 -368.754 634.573 -369.029 634.531 -369.256L634.431 -369.842C634.389 -370.078 634.352 -370.314 634.315 -370.545C634.277 -370.776 634.256 -370.936 634.224 -371.13L634.127 -371.836L634.046 -372.424L633.962 -373.12C633.935 -373.317 633.912 -373.515 633.89 -373.707C633.867 -373.9 633.839 -374.177 633.815 -374.411L633.761 -374.983C633.738 -375.222 633.714 -375.452 633.697 -375.7C633.68 -375.947 633.664 -376.07 633.65 -376.257C633.587 -377.071 633.533 -377.884 633.496 -378.687C633.457 -379.559 633.343 -380.426 633.154 -381.279L633.159 -381.334C633.799 -395.813 637.986 -410.108 640.725 -424.449C642.084 -431.558 643.074 -438.791 642.693 -446.017C641.803 -462.249 633.942 -477.347 631.824 -493.469C631.295 -497.166 631.268 -500.917 631.744 -504.621C631.991 -505.215 632.25 -505.809 632.519 -506.401C632.603 -506.597 632.697 -506.792 632.786 -506.988C632.964 -507.383 633.148 -507.783 633.335 -508.173L633.669 -508.869L634.192 -509.931C634.314 -510.175 634.439 -510.413 634.561 -510.656L635.093 -511.672L635.486 -512.403C635.668 -512.738 635.854 -513.068 636.049 -513.402C636.18 -513.64 636.314 -513.877 636.449 -514.114C636.651 -514.466 636.858 -514.812 637.059 -515.159C637.187 -515.374 637.311 -515.598 637.438 -515.799C637.761 -516.338 638.092 -516.872 638.423 -517.401L638.456 -517.449L639.135 -518.496L639.475 -519.02L639.622 -519.242C639.786 -519.486 639.954 -519.729 640.121 -519.968C640.289 -520.207 640.443 -520.447 640.61 -520.686L640.833 -521.007C641.149 -521.44 641.48 -521.914 641.807 -522.364L642.081 -522.741L642.37 -523.121C642.6 -523.428 642.825 -523.731 643.059 -524.032C643.161 -524.171 643.267 -524.304 643.376 -524.465L643.689 -524.857C643.912 -525.141 644.13 -525.426 644.359 -525.719L644.703 -526.149C644.773 -526.24 644.846 -526.326 644.92 -526.411C645.179 -526.729 645.447 -527.046 645.705 -527.359C645.822 -527.501 645.942 -527.638 646.064 -527.788C646.285 -528.05 646.514 -528.306 646.74 -528.566C646.86 -528.703 646.976 -528.84 647.098 -528.995L647.448 -529.388L647.63 -529.588C647.923 -529.915 648.22 -530.243 648.522 -530.572L648.843 -530.907C649.108 -531.192 649.363 -531.478 649.651 -531.756L649.988 -532.113L650.132 -532.252C651.51 -533.663 652.927 -535.022 654.385 -536.33L654.507 -536.438C654.858 -536.752 655.219 -537.06 655.575 -537.373L656.134 -537.861C656.158 -537.876 656.18 -537.894 656.199 -537.914C656.498 -538.163 656.801 -538.412 657.1 -538.666L657.798 -539.242C657.97 -539.383 658.146 -539.519 658.303 -539.656L658.707 -539.978C658.964 -540.18 659.212 -540.393 659.477 -540.585L660.24 -541.164L660.38 -541.266L661.208 -541.89L661.738 -542.265L662.098 -542.531L662.972 -543.145L663.206 -543.308L663.854 -543.754L664.769 -544.365L665.166 -544.627L665.661 -544.936L666.612 -545.538L666.661 -545.566L667.478 -546.075L668.466 -546.673L669.319 -547.174L670.366 -547.767C670.641 -547.921 670.917 -548.074 671.196 -548.223C671.569 -548.428 671.945 -548.613 672.319 -548.822L672.52 -548.928L673.097 -549.228C673.523 -549.446 673.947 -549.655 674.377 -549.868C674.592 -549.972 674.807 -550.085 675.026 -550.189C675.676 -550.502 676.326 -550.804 676.973 -551.096C681.834 -553.29 686.939 -555.05 691.508 -557.815C696.783 -561.007 701.18 -565.419 705.85 -569.438C714.933 -577.252 725.148 -583.644 736.148 -588.395C739.456 -589.823 743.04 -591.27 745.006 -594.288C746.972 -597.306 746.063 -602.388 742.538 -603.131C725.791 -593.929 708.405 -585.941 690.513 -579.231C686.043 -577.556 681.406 -575.879 677.891 -572.647C675.194 -570.17 673.338 -566.946 671.266 -563.933C660.192 -547.85 642.871 -537.744 630.387 -522.942C618.23 -508.536 608.846 -490.813 598.743 -474.922C595.536 -469.876 592.324 -464.771 590.188 -459.188C587.484 -452.133 586.574 -444.544 585.674 -437.046C584.713 -428.937 583.751 -420.772 584.352 -412.633C584.365 -412.432 584.387 -412.23 584.403 -412.024C582.328 -419.524 580.167 -427.014 577.591 -434.331C573.126 -446.92 568.132 -456.042 562.079 -461.869L562.313 -461.651C553.326 -478.281 541.623 -485.882 527.202 -484.453C521.383 -483.877 515.539 -477.983 510.157 -479.858C509.262 -480.193 508.818 -480.404 508.524 -481.283C507.805 -483.634 510.885 -488.055 512.725 -490.552L512.88 -490.76C516.416 -495.58 520.847 -499.674 525.933 -502.817C524.497 -498.864 524.38 -494.501 527.295 -492.801C533.414 -489.228 541.183 -500.54 547.869 -498.193C554.212 -495.949 553.75 -485.418 559.219 -481.524C563.072 -478.788 571.763 -475.638 573.326 -480.127C575.547 -486.468 566.785 -492.044 565.189 -498.577C564.45 -501.617 563.972 -506.126 566.572 -507.851C574.689 -513.344 593.285 -516.215 610.184 -528.188C627.082 -540.162 640.068 -555.493 655.504 -577.924C665.744 -584.557 675.636 -591.281 684.969 -598.078C684.472 -597.747 683.975 -597.42 683.446 -597.101C686.24 -599.146 688.963 -601.23 691.653 -603.313L692.489 -603.969L691.804 -603.763C716.473 -611.21 739.695 -622.343 762.923 -633.485C778.524 -640.981 794.18 -648.475 810.259 -654.856C917.542 -697.309 1029.71 -715.472 1144.05 -723.601L1148.81 -723.947C1191.65 -727.134 1206.68 -751.648 1174.92 -746.309C1020.05 -720.343 865.281 -694.381 715.581 -641.261C704.647 -637.38 693.682 -633.6 682.726 -629.828C613.528 -605.993 544.843 -582.33 487.834 -534.318C422.616 -479.361 365.411 -417.406 346.392 -330.182C338.365 -293.093 343.083 -258.355 373.11 -231.205C375.188 -229.3 378.037 -228.302 380.905 -227.299L381.228 -227.183C381.65 -227.036 382.101 -226.989 382.545 -227.044C382.989 -227.1 383.414 -227.257 383.787 -227.503C384.161 -227.75 384.472 -228.079 384.698 -228.465C384.923 -228.851 385.057 -229.284 385.088 -229.731L385.092 -229.772C385.278 -232.447 385.457 -235.103 384.964 -237.627C373.379 -297.501 437.998 -390.397 498.54 -400.89C528.089 -406.053 543.054 -387.196 555.531 -366.58L557.403 -363.446C581.399 -323.535 613.569 -295.049 659.809 -283.868C661.013 -283.562 662.087 -282.778 663.165 -281.989C663.702 -281.597 664.239 -281.205 664.796 -280.871C664.188 -280.685 663.588 -280.443 662.984 -280.205C661.835 -279.666 660.605 -279.317 659.344 -279.173C648.072 -278.297 637.425 -281.25 626.936 -284.815L624.767 -285.564C623.539 -285.959 622.27 -286.275 621.003 -286.563C620.141 -286.769 619.279 -286.975 618.439 -287.207C619.202 -286.667 619.934 -286.13 620.656 -285.539C621.723 -284.647 622.861 -283.841 624.057 -283.131C629.588 -279.993 635.154 -276.888 640.733 -273.772C644.547 -271.649 648.36 -269.518 652.172 -267.379L652.612 -267.136C658.599 -263.724 662.339 -260.136 662.743 -251.418L662.776 -250.951C663.457 -243.157 671.659 -243.32 678.284 -243.453L678.722 -243.461L679.308 -243.473L679.912 -243.478L683.26 -243.476C728.627 -243.557 771.612 -255.975 814.551 -268.383C820.106 -269.999 825.661 -271.594 831.215 -273.168L836.947 -274.783L838.098 -275.101L839.316 -275.444L841.531 -276.061C862.018 -281.745 882.658 -287.474 900.167 -300.514C912.078 -309.434 914.014 -320.544 905.097 -332.528L904.786 -332.954C898.318 -341.855 902.517 -345.107 910.852 -346.993L911.645 -347.165C922.291 -349.362 932.837 -347.129 943.232 -344.915C953.81 -342.665 964.232 -340.445 974.439 -342.986C1038.21 -358.995 1098.12 -384.558 1142.26 -435.395C1164.55 -461.047 1154.17 -493.862 1120.31 -522.594C1102.03 -538.041 1080.87 -548.49 1059.68 -558.955C1053.8 -561.859 1047.93 -564.762 1042.11 -567.762C1041.44 -568.102 1040.73 -568.437 1040.01 -568.778C1035.32 -570.983 1030.07 -573.476 1030.64 -579.178C1031.32 -585.202 1037.29 -586.315 1042.47 -587.292L1042.89 -587.372L1046.37 -588.048C1087.93 -595.88 1129.13 -590.793 1170.32 -584.565L1174.31 -583.961C1185.74 -582.179 1197.04 -580.507 1208.49 -579.095L1209.58 -578.987C1214.73 -578.361 1220.48 -577.661 1223.49 -582.717C1225.96 -586.874 1223.77 -590.676 1221.62 -594.408C1220.97 -595.545 1220.32 -596.678 1219.8 -597.81C1219.27 -599.043 1218.54 -600.396 1217.8 -601.765C1215.93 -605.242 1214 -608.827 1215.06 -610.784C1217.18 -614.753 1221.88 -613.651 1226.21 -612.624C1227.23 -612.384 1228.23 -612.145 1229.18 -611.982L1230.64 -611.712C1278.9 -602.471 1327.76 -556.257 1347.98 -506.765L1347.85 -506.852L1345.3 -508.465L1344.14 -509.188L1342.98 -509.907L1342.75 -510.441C1328.67 -542.172 1304.63 -567.031 1271.22 -585.23C1261.9 -590.332 1254.35 -590.884 1254.09 -575.164L1254.08 -574.428C1253.41 -553.92 1239.44 -557.305 1227.75 -560.125C1225.82 -560.589 1223.96 -561.038 1222.24 -561.362L1215.63 -562.657C1211.38 -563.502 1207.12 -564.361 1202.84 -565.232L1202.77 -565.24C1194.21 -566.979 1185.66 -568.712 1177.09 -570.29L1169.45 -572.268L1163.61 -573.797L1161.87 -574.258L1157.07 -575.527L1155.26 -576.013L1150.02 -577.427L1148.7 -577.786C1146.46 -578.393 1144.23 -579.004 1141.97 -579.632C1138.87 -580.409 1135.71 -580.942 1132.52 -581.226C1122.8 -582.231 1109.99 -582.13 1103.41 -579.326C1102 -578.724 1101.04 -577.374 1100.38 -575.862L1097.04 -575.691C1091.48 -575.372 1085.63 -574.573 1084.05 -568.74C1082.53 -563.091 1087.54 -559.605 1092.12 -556.421C1093.24 -555.636 1094.34 -554.873 1095.31 -554.1L1096.9 -552.836C1099.71 -550.622 1102.54 -548.439 1105.36 -546.255C1118.1 -536.408 1130.81 -526.602 1141.6 -514.32C1167.01 -485.495 1169.12 -450.649 1141.91 -423.701C1098.11 -380.302 1042.72 -355.559 986.469 -332.861L979.047 -329.882C976.152 -328.775 972.645 -327.925 969.835 -328.57C949.564 -332.94 925.996 -316.348 911.04 -295.709C909.179 -293.14 912.057 -289.805 914.88 -291.257C935.038 -301.644 956.64 -320.418 971.321 -321.579C983.582 -322.547 995.94 -323.519 1006.43 -330.318L1009.91 -332.551C1025.84 -342.581 1042.56 -351.42 1059.28 -360.262L1059.3 -360.26C1072.85 -367.425 1086.4 -374.594 1099.54 -382.394C1098.91 -379.419 1100.68 -376.621 1102.91 -374.858L1100.41 -373.392L1093.37 -369.317C1089.1 -366.836 1084.83 -364.346 1080.55 -361.847C1053.02 -345.731 1025.31 -329.508 995.966 -317.546C969.426 -306.708 943.358 -294.608 917.277 -282.499C852.546 -252.437 787.812 -222.347 715.582 -211.739C650.308 -202.085 589.481 -207.458 538.133 -254.225C535.247 -256.92 532.416 -260.163 530.633 -263.678C530.245 -264.454 529.816 -265.231 529.401 -266.01C526.12 -272.167 518.113 -283.871 525.429 -285.96L531.45 -282.81C535.209 -280.117 535.04 -277.148 539.711 -272.966C540.759 -272.064 541.891 -271.26 543.027 -270.451C543.487 -270.122 543.951 -269.793 544.406 -269.46C544.484 -269.402 544.576 -269.364 544.672 -269.351C544.769 -269.337 544.867 -269.348 544.958 -269.383C545.05 -269.417 545.131 -269.474 545.194 -269.548C545.258 -269.622 545.302 -269.71 545.322 -269.806C545.406 -270.183 545.494 -270.559 545.583 -270.936C545.994 -272.384 546.215 -273.879 546.241 -275.384C546.121 -283.545 548.093 -287.519 557.861 -284.885L559.786 -284.341C566.944 -282.309 575.894 -279.761 580.618 -286.337C584.794 -292.178 580.425 -297.472 576.332 -302.427C575.16 -303.853 574.007 -305.244 573.088 -306.616C561.481 -324.161 549.869 -341.705 537.366 -358.503C520.843 -380.703 499.66 -382.987 477.025 -368.74C449.337 -351.196 426.253 -328.659 409.355 -300.319C397.135 -279.794 395.619 -259.231 404.185 -239.717C408.554 -220.577 423.602 -202.618 449.227 -185.538C477.541 -166.692 508.707 -155.866 540.443 -146.627C542.133 -145.457 543.583 -143.734 545.025 -142.027C545.495 -141.47 545.96 -140.917 546.436 -140.378C546.674 -140.117 546.801 -139.773 546.789 -139.419C546.778 -139.066 546.629 -138.731 546.374 -138.485C545.815 -137.951 545.266 -137.378 544.711 -136.793C542.966 -134.969 541.221 -133.145 539.195 -132.668C494.084 -121.663 443.261 -113.844 408.634 -144.203C373.919 -174.571 339.431 -211.909 327.266 -261.282C317.313 -301.776 325.852 -339.993 342.247 -376.384L342.09 -376.153ZM976.064 -395.651C940.281 -397.689 890.668 -439.98 867.978 -412.231L865.533 -408.499C850.443 -390.027 877.639 -392.851 895.873 -390.172C908.731 -388.267 921.891 -384.387 934.981 -381.155L932.847 -381.831L931.599 -382.224C937.592 -380.33 943.561 -378.481 949.168 -376.769L965.713 -371.718C966.325 -371.532 966.959 -371.424 967.599 -371.397C1004.74 -369.962 1031.92 -384.993 1058.33 -401.48L1064.04 -405.053C1064.38 -405.218 1064.53 -405.729 1064.67 -406.239C1064.73 -406.442 1064.79 -406.645 1064.86 -406.824C1064.46 -406.807 1064.06 -406.812 1063.67 -406.839C1063.01 -406.923 1062.33 -406.866 1061.69 -406.673C1048.61 -401.964 1035.29 -397.972 1021.77 -394.714L1024.09 -395.877C1024.43 -396.049 1024.73 -396.302 1024.95 -396.616C1025.17 -396.929 1025.32 -397.292 1025.36 -397.674C1025.41 -398.055 1025.37 -398.442 1025.23 -398.802C1025.09 -399.161 1024.87 -399.481 1024.58 -399.734C1011.37 -411.099 992.053 -394.787 976.084 -395.714L976.064 -395.651ZM1081.82 -521.056C1102.49 -508.01 1116.67 -484.714 1080.82 -466.747C1058.83 -455.724 1033.37 -453.514 1010.24 -445.101C1003.4 -442.608 1004.69 -433.607 1010.78 -430.868C1017.67 -427.728 1024.94 -425.484 1032.4 -424.19L1032.4 -424.144L1032.69 -423.994L1035.7 -422.429L1037.15 -421.677L1039.63 -420.373C1078.89 -417.228 1128.24 -442.072 1134.98 -466.97C1139.66 -484.382 1117.61 -516.209 1099.52 -517.907C1099.04 -517.931 1098.56 -517.872 1098.11 -517.731L1097.63 -517.629L1097.32 -517.568C1097.39 -517.277 1097.47 -516.972 1097.54 -516.663C1097.73 -515.679 1098.06 -514.727 1098.52 -513.836C1099 -513.041 1099.46 -512.266 1099.91 -511.502L1098.92 -513.165C1094.85 -515.959 1090.55 -517.709 1084.73 -519.956L1081.74 -521.097L1081.82 -521.056Z" fill="#4195C4"/>
</g>
<path d="M1142.73 -12.1359C1127.83 -15.3981 1112.08 -27.7258 1089.74 -35.6408C1073.45 -41.4166 1054.43 -44.42 1037.68 -49.8676C1023.36 -54.5159 1008.28 -63.5538 997.083 -68.2206C984.722 -73.3725 976.673 -74.1996 971.11 -77.3462L970.856 -77.4802L971.466 -77.1291C975.098 -75.0637 978.711 -73.5712 982.777 -71.8939C988.903 -69.4705 994.868 -66.6585 1000.64 -63.4752C1003.92 -61.627 1007.76 -59.021 1011.82 -56.2394C1018.92 -51.3832 1026.72 -46.051 1033.44 -43.6576C1041.57 -40.7697 1050.28 -39.1848 1058.86 -37.6231C1071.17 -35.3821 1083.21 -33.1919 1092.86 -27.2499C1121.87 -9.40055 1154.32 1.60106 1178.45 1.60106C1210.4 1.60106 1243.89 2.71 1268.46 4.37341C1257.76 0.486982 1246.83 -2.78054 1235.75 -5.41298C1207.23 -12.0528 1176.36 -4.7661 1142.73 -12.1313" fill="#A4DFD9"/>
<path d="M226.974 -764.811C194.547 -713.06 225.551 -656.453 238.355 -605.724C241.834 -591.95 241.709 -577.335 246.016 -563.801C249.934 -551.488 258.413 -541.027 262.807 -528.879L266.966 -517.365C274.063 -497.533 266.222 -486.125 268.684 -478.237L269.248 -476.389L272.404 -469.819C275.296 -463.761 278.753 -444.539 282.879 -435.626L284.801 -431.468C308.005 -381.302 289.657 -340.41 297.988 -291.413C307.936 -232.889 312.88 -311.212 306.236 -218.33C302.752 -169.666 278.448 -115.582 250.378 -75.8261C246.473 -70.2814 239.723 -61.0402 233.355 -46.6147C226.988 -32.1893 219.207 18.4569 203.876 49.3871C199.294 58.586 193.248 66.9799 185.976 74.2413C203.183 65.9242 215.645 72.7026 228.689 79.786C235.185 83.3115 241.83 86.9201 249.273 88.7822C269.632 93.8649 276.327 78.2704 284.085 60.1854C285.42 57.0712 286.788 53.883 288.243 50.7132L289.167 48.7218C294.966 36.0059 299.009 11.7571 303.316 -14.0627C306.462 -32.9378 309.752 -52.6492 313.966 -69.311L314.59 -71.7276C318.42 -86.2871 330.332 -94.3685 342.23 -102.408C347.807 -106.188 353.384 -109.963 358.12 -114.422C382.013 -136.915 392.895 -171.851 381.921 -193.79C378.155 -201.183 371.502 -205.055 364.645 -208.538L359.507 -211.117C357.778 -211.932 356.005 -212.653 354.198 -213.275C348.426 -215.377 342.512 -217.535 342.72 -224.022C342.951 -231.336 350.187 -234.571 356.813 -236.96L360.648 -238.346C367.902 -241.03 375.614 -242.629 383.289 -244.219C385.373 -244.653 387.447 -245.083 389.527 -245.536L389.989 -245.637C391.213 -245.901 392.474 -246.099 393.736 -246.312C399.419 -247.236 405.163 -248.188 407.898 -254.389C411.192 -261.883 407.565 -268.25 403.665 -274.215L401.817 -277.025C395.196 -286.807 385.788 -293.996 374.616 -296.695L373.733 -296.916C349.341 -303.233 344.351 -321.322 338.936 -340.923C338.159 -343.732 337.379 -346.574 336.524 -349.416L335.877 -351.541C326.049 -382.961 314.266 -413.757 302.489 -444.526C286.843 -485.381 271.207 -526.231 260.159 -568.607L259.628 -570.617C256.292 -583.046 252.18 -595.286 248.077 -607.521C239.561 -632.87 231.045 -658.209 229.456 -685.216C226.434 -736.325 255.049 -778.705 311.439 -804.321L311.286 -804.252L306.545 -803.388C284.542 -799.322 264.401 -795.006 245.711 -786.754C238.49 -780.355 232.206 -772.971 227.044 -764.82" fill="#A4DFD9"/>
<path d="M444.65 -46.6378C436.689 -64.3115 426.251 -81.1628 422.194 -100.116C416.266 -127.794 424.44 -157.874 414.08 -184.211C413.295 -186.198 412.274 -188.3 410.351 -189.243C404.585 -192.075 400.879 -182.774 401.11 -176.347C402.795 -123.512 399.702 -70.6332 391.869 -18.3552C390.649 -10.2368 389.295 -2.04914 386.167 5.54248C381.417 17.0939 372.8 26.714 368.29 38.3486C365.667 45.2445 364.549 52.6216 365.01 59.9851C365.471 67.3486 367.502 74.5284 370.966 81.0428C382.018 87.6826 397.113 82.2534 405.426 72.3977C413.738 62.542 416.931 49.4796 419.874 36.9255C422.249 26.7879 424.626 16.6519 427.004 6.51742C427.438 4.66919 427.956 2.68234 429.416 1.47175C440.404 -7.61232 443.31 18.7527 453.997 1.13444C460.836 -10.1352 449.326 -36.3154 444.687 -46.6147" fill="#4CBEB3"/>
<path d="M573.518 -80.479C580.985 -72.5963 587.352 -64.0851 594.195 -55.6988C601.588 -46.6147 611.8 -40.5664 621.919 -35.1095C639.477 -25.6557 658.292 -18.0919 675.896 -8.34242C701.86 6.03684 726.048 14.1876 755.833 13.6885C780.613 13.2681 802.223 26.58 820.664 41.9665C829.383 49.2439 840.62 51.9747 851.03 55.6157C864.86 60.4581 878.782 65.8272 892.911 69.8471C908.931 74.403 934.316 81.9392 950.498 75.7522C953.386 74.6479 954.938 72.5178 953.238 69.6577C952.283 68.1003 951.131 66.673 949.809 65.4114C929.479 59.4785 909.499 51.7437 889.783 44.055C884.363 41.9434 878.846 39.7671 874.152 36.3941L873.283 36.1122C873.311 36.0106 873.334 35.9089 873.362 35.8073C872.816 35.3914 872.282 34.9571 871.758 34.5043C866.477 29.8837 863.035 23.5812 858.95 17.8702C854.119 11.1464 848.317 5.17641 841.734 0.154841C828.796 3.08891 816.612 5.61637 803.72 3.41235C791.402 1.30998 784.115 -6.18922 774.458 -14.2937C760.527 -25.9838 744.729 -36.6389 729.153 -45.6305C715.476 -53.5317 698.819 -56.0361 683.299 -59.4923C665.066 -63.563 647.563 -68.3638 630.13 -75.0359C613.759 -81.3014 598.816 -88.7775 583.72 -97.7322C573.417 -103.85 552.129 -116.182 548.974 -113.803C545.818 -111.423 567.391 -86.9663 573.541 -80.4697" fill="#A4DFD9"/>
<path d="M1513.34 34.4627C1510.97 34.0238 1508.48 33.4554 1506.71 31.8197C1504.11 29.4263 1503.76 25.5126 1503.6 21.9825C1503.02 10.0152 1503.13 -3.6756 1512.03 -11.6831C1523.15 -21.6635 1540.33 -16.7657 1555.17 -15.0191C1576.1 -12.5748 1597.37 -17.7915 1618.29 -15.2409C1654.39 -10.8514 1684.62 15.8279 1720.55 21.4003C1731.01 23.0221 1742.15 22.9297 1751.36 28.1418C1754.35 29.8283 1757.34 33.1551 1755.94 36.2786C1755.12 38.1268 1753.08 39.0278 1751.2 39.7302C1716.43 52.7279 1675.37 47.3957 1645.07 25.947C1639.92 22.2967 1635.05 18.2075 1629.54 15.1117C1612.79 5.68108 1590.76 7.82503 1575.14 18.5771C1567.7 23.6875 1563.66 31.9029 1555.73 35.3637C1544.74 40.1506 1524.67 36.5651 1513.36 34.4627" fill="#A4DFD9"/>
<path d="M1079.93 41.6985L1196.6 61.2343C1205.38 62.7083 1214.42 64.2562 1222.14 68.7289C1229.15 72.7904 1234.72 79.0698 1241.94 82.7524C1249.83 86.7815 1258.99 87.373 1267.85 87.5439C1299.16 88.1883 1330.43 84.8942 1360.91 77.7391C1368.47 75.9647 1377.5 72.2359 1378.09 64.5057C1378.75 56.0315 1368.74 51.0737 1360.38 49.535C1328.78 43.7269 1295.85 52.0578 1264.27 46.1897C1239.47 41.5691 1217.07 28.5206 1192.82 21.599C1170.05 15.1024 1146.15 14.1321 1122.48 13.2033L1052.46 10.4587C1041.71 10.0382 1030.83 9.59467 1020.57 6.40647C1007.24 2.27105 995.775 -6.20772 984.071 -13.7947C957.966 -30.6876 929.53 -43.6703 899.667 -52.3304C909.629 -28.3449 931.831 -9.82102 957.216 -4.35025C983.262 1.273 990.327 12.0112 1012.24 23.5119C1032.84 34.324 1057.3 37.905 1079.96 41.6985" fill="#A4DFD9"/>
<path d="M743.292 -72.8134C754.433 -59.1273 772.952 -53.0789 784.041 -39.3465C787.876 -34.5966 790.718 -29.038 795.057 -24.7455C802.759 -17.1215 813.936 -14.5525 823.898 -10.2877C837.928 -4.25075 850.049 5.49309 858.959 17.8979C863.044 23.6043 866.486 29.9114 871.768 34.532C876.91 39.0324 883.421 41.6015 889.788 44.0827C929.608 59.6079 970.496 75.3548 1013.24 75.9648C1034.03 76.2605 1054.79 72.9475 1075.53 74.3198C1116.56 77.0367 1153.85 97.6445 1191.55 114.057C1229.25 130.469 1279.23 142.007 1310.96 129.069C1318.93 120.655 1271.84 123.663 1259.38 107.995C1252.77 99.6776 1247.01 90.3671 1240.48 81.9623C1233.96 78.2196 1228.68 72.5224 1222.16 68.7428C1214.44 64.2701 1205.42 62.736 1196.62 61.2482L1079.93 41.6985C1057.29 37.905 1032.8 34.3056 1012.21 23.5119C990.3 12.0066 983.235 1.27301 957.188 -4.35024C931.803 -9.83949 909.596 -28.3449 899.639 -52.3304C900.928 -51.9561 902.217 -51.5634 903.502 -51.1706C886.937 -59.9497 870.617 -69.1909 854.473 -78.6908C844.659 -84.4758 834.72 -90.4456 823.654 -93.1394C817.416 -94.6549 810.933 -95.0939 804.792 -96.9606C787.114 -102.334 781.736 -97.3441 782.152 -96.785C784.115 -94.0127 782.715 -92.3631 779.116 -92.2753C763.147 -91.8918 747.409 -101.863 740.941 -116.469C738.205 -122.642 736.99 -129.526 733.27 -135.164C729.551 -140.801 721.927 -144.844 716.022 -141.563C730.424 -121.316 727.638 -92.0813 743.325 -72.8134" fill="#4CBEB3"/>
<path d="M966.236 -80.1509L968.888 -78.6215L970.847 -77.4895L971.11 -77.3462C976.655 -74.1996 984.722 -73.3725 997.083 -68.2206C1008.28 -63.5538 1023.38 -54.5159 1037.68 -49.8676C1054.43 -44.4292 1073.45 -41.4166 1089.74 -35.6408C1112.08 -27.7258 1127.83 -15.3981 1142.73 -12.1359C1176.37 -4.77071 1207.23 -12.0574 1235.75 -5.41759C1246.84 -2.78515 1257.76 0.482375 1268.47 4.36881C1300.11 15.6846 1326.04 29.5418 1342.4 31.7412C1366.24 34.9478 1381.58 45.1408 1393.26 57.0481C1397.58 57.3854 1434.8 106.692 1451.04 106.692C1482.78 106.692 1500.26 91.6563 1510.87 49.3456C1511.12 48.3352 1511.38 47.3356 1511.64 46.3468C1511.38 47.3356 1511.12 48.3337 1510.86 49.3456C1511.12 48.3337 1511.38 47.331 1511.64 46.3376C1511.67 46.259 1511.69 46.1805 1511.71 46.1019C1511.97 45.1085 1512.25 44.1197 1512.52 43.1494V43.1078C1512.66 42.6134 1512.8 42.119 1512.94 41.6292C1513.09 41.1394 1513.23 40.6543 1513.37 40.1691V40.1183C1513.59 39.3882 1513.81 38.6582 1514.04 37.942C1513.81 38.6566 1513.59 39.3821 1513.37 40.1183C1513.64 39.2173 1513.91 38.3347 1514.19 37.4568C1514.28 37.1796 1514.37 36.907 1514.46 36.6297C1514.66 36.006 1514.86 35.3822 1515.07 34.7815L1514.87 35.3544L1515.07 34.7815L1513.32 34.4581C1510.95 34.0191 1508.46 33.4508 1506.68 31.8151C1504.08 29.4216 1503.74 25.508 1503.57 21.9779C1502.99 10.0105 1503.11 -3.68025 1512.01 -11.6877C1523.12 -21.6682 1540.31 -16.7704 1555.14 -15.0284C1576.07 -12.5749 1597.35 -17.8007 1618.27 -15.2456C1628.79 -13.9657 1638.8 -10.7959 1648.61 -6.80376L1650.6 -6.61432L1651.07 -6.56811C1652.02 -6.47108 1652.97 -6.37405 1653.93 -6.26777H1654.1C1654.97 -6.17074 1655.83 -6.07371 1656.7 -5.96744L1657.32 -5.89351L1659.78 -5.58394L1660.13 -5.53773C1661.06 -5.41297 1662.01 -5.27897 1662.95 -5.14497L1663.38 -5.0849L1665.75 -4.7245L1666.38 -4.62285C1667.27 -4.47961 1668.14 -4.33637 1669.03 -4.16079H1669.14C1670.06 -3.99907 1670.99 -3.83273 1671.93 -3.65715L1672.5 -3.55087C1673.25 -3.40763 1674 -3.25977 1674.75 -3.08881L1675.37 -2.96406C1677.22 -2.58517 1679.05 -2.1801 1680.86 -1.74884L1681.49 -1.59637L1683.72 -1.04189L1684.28 -0.898657C1685.21 -0.664547 1686.12 -0.419658 1687.03 -0.163985L1687.25 -0.0992905C1688.08 0.131739 1688.9 0.362758 1689.72 0.612269L1690.39 0.810965C1691.15 1.04199 1691.91 1.27917 1692.67 1.52252L1693.11 1.65653C1694.01 1.94608 1694.92 2.24643 1695.82 2.55755L1696.28 2.71464C1697.03 2.9734 1697.77 3.23984 1698.52 3.514L1699.19 3.75889C1700 4.05922 1700.82 4.36418 1701.63 4.683L1701.86 4.77542C1702.76 5.12658 1703.65 5.48699 1704.54 5.85664L1705.12 6.10153C1705.83 6.40956 1706.54 6.7176 1707.25 7.02564L1707.9 7.31212C1708.78 7.70487 1709.66 8.10685 1710.54 8.52271L1711.46 8.94781C1712.49 9.40679 1713.53 9.8211 1714.57 10.1907L1714.71 10.2416L1715.6 10.5465L1715.83 10.6205L1716.64 10.8746L1716.92 10.9578L1717.68 11.1749L1718 11.2627L1718.72 11.4522L1719.07 11.54L1719.77 11.7063L1720.14 11.7895L1720.81 11.9327L1721.21 12.0113L1721.87 12.1406L1722.27 12.2146L1722.93 12.3255L1723.34 12.3948L1723.99 12.4918L1724.41 12.5519L1725.05 12.635L1725.48 12.6859L1726.12 12.7598L1726.55 12.806L1727.19 12.8707L1727.65 12.9077L1728.28 12.9585L1728.74 12.9908L1729.37 13.0324L1729.83 13.0601L1730.42 13.0925H1730.88L1731.52 13.1202H1731.96H1732.6H1733.06H1733.71H1736.36H1737H1737.4H1738.12H1738.48L1739.24 13.0925H1739.57L1740.37 13.0601H1740.66L1741.53 13.0185H1741.75L1742.72 12.9677H1742.83C1743.69 12.9215 1744.55 12.8753 1745.41 12.8199L1747.1 12.7182L1749.04 12.5981L1749.42 12.575L1749.82 12.5519H1749.96L1750.54 12.5288H1751H1751.57H1752.6H1753.06H1753.6H1754.06L1754.6 12.5565L1755.02 12.5842L1755.55 12.6258L1755.93 12.6304L1756.44 12.6859L1756.84 12.7321L1757.34 12.8014L1757.72 12.8568L1758.21 12.94L1758.58 13.0047L1759.04 13.0971L1759.4 13.171L1759.86 13.2819L1760.2 13.3605L1760.66 13.4806L1760.98 13.573L1761.44 13.707L1761.75 13.7994L1762.21 13.9473L1762.51 14.0535L1762.95 14.2107L1763.24 14.3215L1763.67 14.4971L1763.94 14.608L1764.36 14.7975L1764.62 14.9176L1765.03 15.1209L1765.28 15.2457L1765.69 15.4582L1765.92 15.5876L1766.32 15.8186L1766.54 15.948L1766.94 16.1929L1767.14 16.3269L1767.53 16.5856L1767.73 16.7243L1768.11 16.9969L1768.29 17.1355C1768.42 17.2325 1768.54 17.3249 1768.66 17.4266L1768.84 17.5652C1768.97 17.6622 1769.09 17.7639 1769.21 17.8702L1769.37 18.0088L1769.73 18.3276L1769.88 18.4662C1770 18.5771 1770.12 18.688 1770.24 18.8035L1770.37 18.9375L1770.73 19.2933L1770.85 19.4227C1770.97 19.5474 1771.09 19.6722 1771.2 19.8016L1771.31 19.9217C1771.43 20.0557 1771.55 20.1851 1771.66 20.3191L1771.76 20.4392C1771.88 20.5732 1771.99 20.7118 1772.1 20.8504L1772.19 20.9613L1772.53 21.4003C1772.53 21.4326 1772.58 21.4696 1772.61 21.5019C1772.72 21.6544 1772.83 21.8069 1772.94 21.964C1772.94 21.9917 1772.98 22.0194 1773 22.0518C1773.12 22.2089 1773.23 22.3706 1773.34 22.5369L1773.39 22.6109C1773.51 22.7818 1773.62 22.9482 1773.73 23.1238L1773.76 23.1792C1773.88 23.3594 1773.99 23.5396 1774.1 23.7198L1774.12 23.7568C1774.23 23.9462 1774.35 24.1357 1774.46 24.3297C1777.61 29.8467 1779.25 36.7406 1780.66 43.7916L1781.75 49.3363L1780.66 43.8194C1780.71 44.457 1783.48 85.2521 1828.01 86.0977V-27.0188C1823.05 -26.2056 1818.09 -25.4432 1813.15 -24.8703C1793.74 -22.6108 1774.82 -23.2115 1758.73 -34.8369C1757.98 -35.3759 1757.23 -35.9412 1756.5 -36.5326C1755.39 -37.4167 1754.3 -38.3562 1753.23 -39.3512C1752.51 -40.0165 1751.8 -40.7081 1751.1 -41.4258C1750.39 -42.1435 1749.7 -42.8874 1749.01 -43.6575C1738.41 -55.5556 1731.94 -69.9949 1731.05 -85.0349C1730.99 -85.9251 1730.96 -86.8184 1730.95 -87.7148V-88.1769C1730.9 -94.6565 1731.9 -101.101 1733.9 -107.264C1734.03 -107.69 1734.18 -108.105 1734.32 -108.517L1734.45 -108.872C1734.56 -109.159 1734.66 -109.441 1734.77 -109.718C1734.82 -109.857 1734.87 -109.995 1734.93 -110.134C1735.03 -110.39 1735.13 -110.639 1735.23 -110.882C1735.29 -111.021 1735.35 -111.16 1735.41 -111.294C1735.52 -111.543 1735.62 -111.783 1735.73 -112.024L1735.9 -112.393L1736.29 -113.197C1736.33 -113.281 1736.37 -113.364 1736.41 -113.442C1736.58 -113.789 1736.76 -114.126 1736.94 -114.459L1737.01 -114.588C1737.17 -114.87 1737.33 -115.147 1737.48 -115.415L1737.66 -115.711C1737.79 -115.923 1737.91 -116.136 1738.04 -116.339C1738.11 -116.45 1738.18 -116.552 1738.25 -116.658C1738.38 -116.852 1738.51 -117.046 1738.64 -117.231L1738.84 -117.536C1738.98 -117.73 1739.12 -117.92 1739.26 -118.109L1739.45 -118.363C1739.63 -118.599 1739.81 -118.825 1739.99 -119.052L1740.07 -119.149C1740.29 -119.407 1740.5 -119.662 1740.72 -119.906C1740.77 -119.962 1740.82 -120.013 1740.87 -120.068C1741.03 -120.253 1741.2 -120.438 1741.37 -120.613L1741.6 -120.844L1742.06 -121.306L1742.3 -121.537L1742.77 -121.958L1743.01 -122.171C1743.17 -122.318 1743.34 -122.457 1743.51 -122.6L1743.71 -122.762C1744.17 -123.145 1744.67 -123.506 1745.17 -123.848L1745.38 -123.986C1745.56 -124.107 1745.74 -124.227 1745.92 -124.338L1746.18 -124.499C1746.35 -124.606 1746.52 -124.703 1746.68 -124.804L1746.96 -124.961L1747.48 -125.248L1747.74 -125.382C1747.94 -125.488 1748.14 -125.585 1748.35 -125.687L1748.53 -125.775L1749.34 -126.14L1749.45 -126.186C1749.68 -126.283 1749.91 -126.38 1750.15 -126.468L1750.41 -126.569L1750.98 -126.777L1751.27 -126.879L1751.82 -127.059L1751.99 -127.115L1752.13 -127.156L1752.71 -127.327L1752.98 -127.401C1753.22 -127.47 1753.44 -127.53 1753.7 -127.59L1753.83 -127.627L1754.7 -127.826L1754.94 -127.872L1755.57 -128.002L1755.9 -128.057L1756.46 -128.154L1756.81 -128.21L1757.37 -128.288L1757.71 -128.339L1758.31 -128.408L1758.62 -128.445L1759.44 -128.524H1759.64L1760.42 -128.584H1760.78L1761.34 -128.616H1761.74L1762.27 -128.639H1762.69H1763.21H1764.56H1765.46H1765.86H1766.41H1766.87H1767.33H1767.82L1768.28 -128.616L1768.78 -128.589L1769.25 -128.561L1769.76 -128.528L1770.16 -128.501L1771.49 -128.399H1771.58L1772.2 -128.344L1772.54 -128.316L1773.15 -128.26L1773.48 -128.228L1774.13 -128.168L1774.39 -128.14L1775.1 -128.066H1775.21C1777.1 -127.868 1779 -127.646 1780.89 -127.429L1782.61 -127.23L1783.07 -127.179L1785.38 -126.925H1785.58L1787.79 -126.703H1788.03C1788.81 -126.634 1789.58 -126.569 1790.34 -126.514L1794.17 -126.255C1795.1 -126.19 1795.99 -126.112 1796.9 -126.029L1797.51 -125.885L1799.68 -125.668L1800.28 -125.604C1802.1 -125.406 1803.92 -125.188 1805.74 -124.947L1806.29 -124.874L1808.6 -124.559L1809.06 -124.499C1813.34 -123.903 1817.62 -123.242 1821.89 -122.609L1822.99 -122.452L1824.31 -122.258L1825.7 -122.064L1826.94 -121.893L1828.01 -121.741V-247.388L1805.4 -229.405L1803.2 -227.682C1773.99 -204.999 1739.4 -190.213 1708.56 -169.846C1695.53 -161.247 1684.4 -150.046 1671.78 -140.879C1647.98 -123.603 1629.17 -111.109 1599 -106.294C1577.51 -102.866 1554.69 -109.14 1533.78 -103.124C1515.48 -97.8662 1502.64 -80.4836 1484.92 -73.5065C1465.65 -65.9195 1444.23 -65.5083 1424.27 -59.9128C1409.61 -55.8189 1396.03 -48.3197 1381.3 -44.5216C1314.16 -27.2314 1222.06 -23.4471 1156.93 -24.9026L1155.86 -24.9303C1125.3 -25.799 1129.24 -33.982 1102.17 -42.5347C1082.9 -48.6293 1062.86 -52.03 1043.49 -57.7457C1027.82 -62.3663 1012.99 -69.7592 997.101 -73.5065C987.121 -75.8584 976.465 -78.3489 965.681 -80.4605L966.249 -80.1324L966.236 -80.1509ZM1826.16 39.4852C1825.92 39.9785 1825.66 40.4597 1825.38 40.9269C1825.66 40.4597 1825.92 39.9785 1826.16 39.4852" fill="#4CBEB3"/>
<path d="M562.48 -25.8637C588.859 -14.0304 612.179 7.54772 633.461 32.4203C637.324 36.9346 639.468 40.9776 640.207 44.5494C656.375 49.032 672.1 54.9835 687.185 62.3294C696.051 66.6496 704.858 71.5058 714.557 73.2801C728.881 75.9046 743.491 71.5428 757.163 66.548C759.64 65.6469 762.246 64.635 763.9 62.5927C766.27 59.6864 766.15 55.477 765.286 51.8268C760.153 30.1424 735.715 19.4226 713.781 15.4304C690.678 11.2257 666.581 10.7636 644.786 2.03074C638.137 -0.639961 631.811 -4.04533 625.5 -7.44146C603.996 -19.0253 582.404 -30.6553 562.734 -45.1408C547.569 -56.3088 531.138 -69.8887 512.466 -67.4213C512.516 -66.3709 512.613 -65.3281 512.757 -64.2931C523.981 -50.8934 539.303 -36.2462 562.48 -25.8452" fill="#4CBEB3"/>
<path d="M562.48 -25.8637C501.83 -53.0744 494.968 -109.275 474.578 -96.8405C458.951 -87.3914 504.584 -25.6835 508.516 -9.33591C516.274 23.0082 475.821 69.6484 514.389 77.9146C552.957 86.1808 559.472 58.254 591.742 63.0964C624.012 67.9388 654.743 57.2791 633.461 32.4203C612.179 7.56158 588.859 -14.0304 562.48 -25.8637" fill="#A4DFD9"/>
<path d="M41.943 49.8538C43.3199 49.8252 44.6902 49.6549 46.0322 49.3455C65.2261 49.2023 63.5904 80.419 76.334 95.385C88.0241 109.113 104.566 116.478 131.665 106.692C150.37 99.9409 170.344 89.9235 185.967 74.1997C193.24 66.9378 199.287 58.544 203.871 49.3455C219.202 18.4153 226.974 -32.254 233.351 -46.661C239.727 -61.0679 246.468 -70.3415 250.373 -75.8677C278.443 -115.605 302.747 -169.707 306.231 -218.371C312.876 -311.245 307.932 -232.931 297.983 -291.455C289.666 -340.433 308.001 -381.344 284.796 -431.509L282.874 -435.668C278.748 -444.567 275.292 -463.789 272.399 -469.86L269.243 -476.431L268.68 -478.279C266.217 -486.166 274.058 -497.575 266.961 -517.406L262.802 -528.921C258.408 -541.068 249.929 -551.529 246.011 -563.843C241.705 -577.377 241.853 -591.992 238.35 -605.766C225.547 -656.495 194.542 -713.088 226.97 -764.857C232.133 -773.005 238.417 -780.387 245.637 -786.786C244.204 -786.155 242.781 -785.497 241.367 -784.813C236.4 -781.63 231.475 -778.686 226.35 -776.385C209.837 -765.656 194.468 -750.367 179.904 -727.518L178.791 -725.758C178.412 -725.143 178.028 -724.547 177.645 -723.955L177.363 -723.493L177.474 -723.586L177.668 -723.747L178.001 -723.997L178.149 -724.103L178.398 -724.274L178.541 -724.367C178.671 -724.445 178.8 -724.524 178.929 -724.593C178.551 -723.142 178.173 -721.688 177.797 -720.231C177.599 -719.46 177.405 -718.683 177.206 -717.921C177.026 -717.219 176.846 -716.535 176.67 -715.814C176.462 -715.001 176.259 -714.188 176.051 -713.37C175.829 -712.476 175.604 -711.583 175.376 -710.69C175.265 -710.228 175.15 -709.766 175.034 -709.327C174.655 -707.786 174.275 -706.265 173.893 -704.762C172.082 -697.512 170.266 -690.253 168.348 -683.045L168.279 -682.772C167.333 -679.208 166.361 -675.655 165.363 -672.112L165.294 -671.863C164.817 -670.19 164.332 -668.519 163.839 -666.85C163.806 -666.725 163.769 -666.605 163.732 -666.485C163.215 -664.735 162.687 -662.985 162.147 -661.236C157.8 -647.342 145.638 -643.382 132.895 -641.187L131.656 -640.979L128.884 -640.517C99.4739 -635.869 92.2704 -624.705 98.7161 -595.993C98.7761 -595.734 98.8317 -595.475 98.8917 -595.212L99.3999 -592.971L99.9036 -590.726C103.327 -575.284 106.188 -559.707 108.932 -544.095C109.117 -543.056 109.3 -542.015 109.482 -540.971L109.524 -540.759L111.067 -531.887C114.389 -513.016 124.712 -500.73 139.396 -493.823C140.006 -493.531 140.625 -493.254 141.244 -492.986C142.496 -492.446 143.781 -491.947 145.088 -491.48C147.768 -490.532 150.502 -489.743 153.276 -489.119C153.988 -488.957 154.699 -488.805 155.42 -488.657L163.968 -486.915C172.285 -485.233 180.685 -483.74 188.817 -483.68C203.312 -483.588 216.98 -488.079 227.917 -504.316L228.111 -504.602L228.356 -504.926C229.081 -505.85 229.742 -506.224 230.306 -506.252C231.331 -506.298 232.131 -505.222 232.741 -504.025L232.852 -503.803C232.926 -503.651 232.995 -503.498 233.064 -503.341C233.166 -503.115 233.258 -502.879 233.346 -502.676L234.307 -500.245C235.088 -498.245 235.827 -496.248 236.525 -494.271C257.932 -433.709 243.022 -383.622 163.917 -365.098C162.004 -356.166 159.491 -347.295 158.266 -338.252C155.198 -315.676 160.211 -292.809 159.856 -270.029C159.597 -253.169 156.395 -236.507 153.202 -219.947C150.083 -203.747 146.955 -187.515 142.279 -171.694C138.989 -160.563 134.78 -149.381 127.133 -140.648C122.207 -135.03 116.113 -130.719 109.431 -127.364C109.39 -126.676 109.348 -125.978 109.288 -125.303C109.29 -125.294 109.29 -125.285 109.288 -125.276C109.242 -124.753 109.182 -124.236 109.099 -123.732C109.099 -123.691 109.099 -123.649 109.076 -123.603C109.039 -123.372 108.992 -123.141 108.941 -122.924C108.939 -122.908 108.939 -122.893 108.941 -122.878C108.881 -122.642 108.817 -122.415 108.743 -122.184C108.732 -122.143 108.718 -122.103 108.701 -122.064C108.641 -121.884 108.576 -121.704 108.503 -121.533L108.433 -121.371C108.342 -121.169 108.24 -120.972 108.128 -120.78C107.777 -120.164 107.435 -119.548 107.103 -118.932C107.024 -118.788 106.945 -118.65 106.871 -118.506C106.542 -117.89 106.223 -117.274 105.915 -116.658L105.804 -116.432C105.531 -115.887 105.263 -115.337 105 -114.787C104.922 -114.621 104.838 -114.454 104.764 -114.292C104.483 -113.696 104.21 -113.105 103.942 -112.509C103.877 -112.356 103.813 -112.204 103.743 -112.047C103.531 -111.585 103.327 -111.081 103.12 -110.601C103.036 -110.402 102.953 -110.208 102.875 -110.014C102.634 -109.441 102.413 -108.868 102.172 -108.29C102.089 -108.073 102.001 -107.851 101.914 -107.634C101.757 -107.218 101.595 -106.807 101.452 -106.391C101.364 -106.151 101.271 -105.929 101.184 -105.675C100.98 -105.134 100.786 -104.594 100.592 -104.053C100.486 -103.758 100.38 -103.462 100.278 -103.171L99.9452 -102.205C99.7604 -101.672 99.5801 -101.141 99.4045 -100.611L99.1413 -99.8162L98.7531 -98.6241L98.6098 -98.162C96.1979 -90.5935 94.1879 -82.8817 91.8176 -75.2855C83.8563 -49.461 62.8973 -38.8291 38.8888 -32.6329L0 -6L0 25.5C20 59 40.9219 49.8899 41.9799 49.8538" fill="#4CBEB3"/>
</g>
<defs>
<clipPath id="clip0_5802_146512">
<rect width="1656" height="230" fill="white" transform="translate(1656 230) rotate(-180)"/>
</clipPath>
</defs>
</svg>
