<svg width="1440" height="148" viewBox="0 0 1440 148" fill="none" xmlns="http://www.w3.org/2000/svg">
<g clip-path="url(#clip0_6193_202546)">
<g clip-path="url(#clip1_6193_202546)">
<g opacity="0.2">
<path d="M1420.94 157.402C1392.89 154.625 1361.25 154.348 1335.47 157.761C1337.36 157.166 1339.23 156.473 1341.06 155.686C1350.56 151.822 1403.22 123.981 1433.87 127.016C1479.05 128.621 1491.93 146.064 1514.44 155.851C1535.9 165.183 1515.5 177.924 1508.82 182.226C1506.68 183.602 1504.4 185.07 1502.79 186.857C1502.21 182.388 1501.7 179.161 1501.7 179.161C1491.29 167.234 1449.01 160.191 1420.96 157.414" fill="#4195C4"/>
<path d="M1084.1 15.4684C1068.25 20.8263 1055.17 27.0251 1043.98 34.2143C1016.36 51.9605 1000.25 75.7456 982.359 107.869C955.486 156.051 910.788 186.797 861.087 214.136C849.792 220.354 838.227 226.397 826.56 232.429L817.189 237.268C816.298 237.728 815.446 238.177 814.604 238.619L814.378 238.74L813.496 239.205L812.565 239.703C812.222 239.887 811.888 240.063 811.554 240.248C811.22 240.433 810.868 240.612 810.539 240.793L809.719 241.241L808.61 241.851L808.006 242.181L806.773 242.867L806.477 243.033C802.588 245.22 799.296 247.192 796.451 249.005L796.323 249.085L795.261 249.769L795.072 249.895L794.081 250.53L793.857 250.684L792.961 251.287L792.717 251.458L791.879 252.035L791.62 252.218C791.356 252.401 791.119 252.591 790.841 252.772L790.571 252.964C790.321 253.143 790.072 253.318 789.835 253.499L789.565 253.695L788.868 254.216L788.598 254.417L787.935 254.922L787.663 255.132L787.034 255.622L786.762 255.837L786.157 256.32L785.895 256.536C785.698 256.693 785.501 256.849 785.309 257.011L785.041 257.226L784.48 257.696L784.216 257.92L783.669 258.381C783.583 258.452 783.497 258.527 783.415 258.602L782.872 259.064L782.623 259.285L782.112 259.75L781.853 259.98L781.343 260.436L781.088 260.666L780.579 261.121L780.314 261.36L779.805 261.815C779.728 261.887 779.651 261.963 779.569 262.034L779.057 262.521L778.939 262.635L777.529 263.93C769.495 271.307 759.712 280.307 731.806 297.941L729.053 299.674C714.863 308.545 699.927 315.47 684.637 321.515C694.528 316.35 704.419 311.177 714.312 305.997L721.937 302.002L714.51 305.868C704.493 311.095 694.476 316.332 684.459 321.581C679.141 323.673 673.784 325.676 668.388 327.591C660.821 330.301 653.205 332.894 645.579 335.487C616.111 345.5 586.509 355.556 559.377 372.784C539.251 385.561 525.615 404.961 511.904 424.465C501.003 439.971 490.059 455.547 475.769 467.909C474.586 468.929 473.205 469.977 471.661 471.082C460.863 478.709 442.006 487.763 425.826 495.531C417.049 499.769 409.03 503.618 403.541 506.622C402.756 507.055 402.024 507.472 401.347 507.872C402.991 506.038 404.476 504.026 405.967 502.01C405.966 501.995 405.967 501.979 405.971 501.964C406.231 501.615 406.388 501.201 406.425 500.767C406.461 500.333 406.376 499.898 406.178 499.511C405.98 499.123 405.678 498.798 405.305 498.574C404.933 498.349 404.505 498.232 404.07 498.238L403.498 498.246C399.57 498.289 395.624 498.335 392.386 499.899C353.651 518.574 330.751 552.338 311.761 588.712L310.695 590.757C293.255 624.197 276.998 658.679 289.676 698.51C289.774 698.696 289.627 699.002 289.43 699.312C289.327 699.484 289.241 699.665 289.172 699.853C288.932 699.458 288.673 699.075 288.414 698.687C287.87 697.941 287.404 697.141 287.021 696.301C273.006 661.85 276.41 626.532 290.081 594.255L291.895 590.01C293.325 586.604 294.755 583.196 296.185 579.788C323.953 513.558 352.158 446.294 410.695 400.38C450.918 368.786 497.993 348.737 545.013 328.733C559.071 322.747 573.128 316.765 586.988 310.481L590.021 309.11C592.883 307.814 595.751 306.526 598.627 305.244C638.82 287.225 679.124 269.156 709.534 235.096C728.976 213.471 718.895 193.97 708.791 174.415C708.008 172.944 707.255 171.449 706.502 169.963L704.85 166.665C702.065 161.305 698.771 156.226 695.014 151.497C685.479 139.326 678.227 132.191 671.434 130.079C681.546 126.901 690.488 126.254 697.169 122.463C708.926 115.794 707.259 98.3055 716.234 88.278C718.793 87.7096 722.2 87.0116 724.333 86.2013C734.221 82.4257 741.243 72.6552 749.02 65.2441C775.757 39.7678 821.506 26.5933 833.817 17.1051C846.499 7.33335 866.423 7.1936 881.656 9.73739C890.101 11.1494 897.574 15.3995 905.559 18.1821C913.719 21.0238 922.071 20.235 930.459 18.8508C939.781 17.313 949.647 15.4993 958.442 18.9565C958.937 19.0925 959.367 19.4 959.656 19.8242C959.835 20.2929 959.849 20.8083 959.697 21.2863C958.089 29.0901 955.926 33.2962 949.673 38.5878C945.958 41.7302 941.292 43.5154 936.68 45.0274C896.184 58.2809 850.224 59.2787 810.656 75.1174C803.886 77.8413 795.065 84.2111 796.641 90.0504C802.077 104.124 810.751 97.0427 819.296 88.6349C829.389 78.6997 846.194 71.0029 876.791 70.2205C917.792 69.1729 931.432 57.6527 967.61 43.1731C1013.42 24.8317 1069 2.60228 1137.03 0.980364C1140.04 0.909689 1143.07 0.880173 1146.13 0.891918C1121.49 4.90662 1101.19 9.70796 1084.11 15.4831" fill="#30638E"/>
<path d="M170.959 174.398C158.999 164.169 148.403 152.069 140.877 138.188C125.758 110.299 107.391 75.44 149.56 56.7293C170.769 47.3143 193.768 77.1257 212.807 81.0493C221.029 82.7456 228.396 83.8419 236.491 80.4925C238.514 79.6861 240.484 78.7538 242.39 77.701C242.879 77.4523 243.338 77.1865 243.801 76.9121C245.646 75.8219 247.425 74.6244 249.129 73.3257C249.982 72.6858 250.823 72.0261 251.645 71.3601L252.878 70.3538C261.534 63.1644 270.831 55.2768 276.019 45.0415C293.038 53.4083 301.713 63.4748 295.385 75.5286C286.967 91.5592 263.056 95.6687 241.049 99.4561C203.652 105.885 171.768 111.368 230.854 172.784C235.417 177.526 237.852 183.789 239.459 190.774C233.478 195.331 227.194 199.148 220.012 200.586C204.854 203.617 182.465 184.244 170.955 174.393" fill="#1F435D"/>
<path d="M-8.20445 375.532C-11.6351 391.506 -8.28385 417.111 8.52065 424.607C17.917 428.796 30.7405 428.122 38.8154 435.039C47.6627 442.622 43.7814 458.57 44.5189 468.971C45.4143 481.576 43.7881 494.018 41.8797 506.518C39.2879 523.699 38.1351 541.067 38.4332 558.441L37.1342 560.347L37.1073 560.389L34.3027 564.503C24.7651 578.445 15.0819 593.538 11.6363 610.349C7.81914 629.036 14.2415 645.365 25.5543 660.085C25.8031 660.318 25.7063 660.929 25.6194 661.487C25.6016 661.667 25.5847 661.837 25.5692 661.994C25.2756 661.938 24.9718 661.894 24.6765 661.856C23.7973 661.791 22.9368 661.569 22.1356 661.201C4.2574 651.002 -3.15022 632.037 -3.407 612.525C-3.68156 593.193 1.63893 574.655 7.37038 556.04C9.12832 550.323 10.8728 544.604 12.471 538.899C15.7515 527.187 19.5203 511.414 12.9731 500.053C7.17469 489.962 -5.60547 486.308 -16.1435 483.855C-34.7484 479.53 -48.1429 463.775 -49.5966 444.634C-50.7366 429.602 -53.5253 412.138 -66.7495 402.762C-78.9327 394.132 -96.0103 394.2 -110.248 394.186C-130.185 394.169 -145.891 381.933 -150.344 363.524C-154.878 344.776 -140.531 319.341 -133.876 301.461C-127.449 284.197 -122.209 266.521 -117.069 248.84C-113.337 236.009 -109.665 219.474 -101.32 209.836C-93.9209 201.292 -87.9628 188.305 -82.7231 177.631C-73.5019 158.922 -64.6391 140.032 -57.0148 120.607C-47.19 95.5726 -38.5628 45.2413 -4.29859 46.8894C5.23147 47.3482 12.3749 49.8047 14.0973 60.099C14.957 65.1464 13.8687 70.5537 12.6251 75.4245C10.7337 82.855 8.11549 91.265 12.2014 98.4671C16.2874 105.669 24.6229 113.02 25.0682 121.566C25.7385 134.384 17.3004 148.893 12.0992 160.002C10.5364 163.337 9.74192 166.784 9.02287 170.293C8.69686 171.892 8.38386 173.497 8.02149 175.097C2.74375 198.375 -1.63278 222.757 1.13879 246.071C2.18706 254.889 5.66046 263.929 4.58108 272.496C0.515549 304.767 -1.06494 342.559 -8.15869 375.527" fill="#1F435D"/>
<path d="M1260.28 89.4028C1190.05 90.1511 1110.18 91.0001 1068.23 121.461C987.231 180.302 954.572 202.281 891.811 232.376C784.108 284.051 679.193 340.817 577.065 402.673C576.235 403.185 575.39 403.696 574.541 404.206C566.545 409.042 558.158 414.113 554.747 423.995C520.424 439.002 485.583 482.504 422.656 509.5C422.103 509.733 421.549 509.984 420.997 510.264C420.797 510.356 420.596 510.461 420.392 510.557L419.362 511.068L418.441 511.552L417.813 511.89C400.496 521.346 381.604 541.819 367.61 560.947C374.169 548.632 381.238 536.563 388.422 524.59L394.83 513.95L398.728 510.455C399.637 509.649 400.497 508.79 401.304 507.882C401.979 507.478 402.71 507.062 403.499 506.632C408.989 503.605 416.994 499.764 425.788 495.541C441.964 487.773 460.82 478.719 471.618 471.092C473.161 470 474.543 468.939 475.726 467.919C490.016 455.557 500.961 439.981 511.861 424.475C525.572 404.971 539.208 385.571 559.334 372.794C586.466 355.566 616.068 345.51 645.536 335.497C653.162 332.904 660.778 330.31 668.345 327.601C673.727 325.673 679.087 323.691 684.402 321.599L675.5 326.252L684.586 321.52C699.889 315.476 714.829 308.551 729.001 299.679L731.755 297.946C759.659 280.325 769.446 271.325 777.477 263.935L778.887 262.639L779.005 262.526L779.518 262.038C779.599 261.967 779.676 261.891 779.753 261.82L780.263 261.364L780.528 261.126L781.037 260.67L781.292 260.44L781.801 259.984L782.061 259.755L782.571 259.29L782.821 259.068L783.363 258.607C783.45 258.532 783.531 258.456 783.617 258.386L784.164 257.925L784.428 257.7L784.99 257.231L785.257 257.016C785.45 256.854 785.646 256.697 785.843 256.54L786.106 256.325L786.711 255.841L786.983 255.627L787.612 255.136L787.883 254.926L788.546 254.421L788.817 254.22C789.047 254.048 789.279 253.871 789.518 253.7L789.784 253.503C790.025 253.323 790.283 253.149 790.519 252.968L790.789 252.777C791.044 252.593 791.29 252.404 791.568 252.222L791.828 252.039L792.665 251.463L792.91 251.292L793.805 250.689L794.029 250.534L795.021 249.899L795.21 249.774L796.271 249.089L796.4 249.009C799.245 247.188 802.538 245.215 806.426 243.037L806.721 242.871L807.954 242.186L808.558 241.855L809.668 241.246L810.488 240.798C810.817 240.617 811.16 240.432 811.503 240.253C811.846 240.073 812.17 239.892 812.513 239.707L813.445 239.21L814.552 238.623L817.142 237.273L828.397 231.46C830.401 230.42 832.415 229.381 834.44 228.344C843.007 223.936 851.829 219.386 861.036 214.136C910.737 186.797 955.435 156.055 982.308 107.869C1000.22 75.7472 1016.32 51.9621 1043.93 34.2141C1054.9 27.0499 1069 20.6363 1084.05 15.4682C1101.13 9.69302 1121.43 4.89168 1146.07 0.876978C1143.01 0.862197 1139.98 0.891665 1136.97 0.965431C1139.07 0.734301 1141.17 0.612605 1143.28 0.601077C1259.57 0.740021 1414.45 13.3177 1392.99 63.7776C1382.65 88.101 1325.61 88.7071 1260.23 89.4024L1260.28 89.4028ZM662.494 333.048L662.004 333.311L661.646 333.498L661.038 333.832C660.702 333.938 660.369 334.063 660.031 334.197C659.693 334.331 659.355 334.455 659.02 334.561C658.828 334.682 658.646 334.82 658.478 334.972L658.009 335.39C657.674 335.496 657.336 335.625 657.003 335.754C656.67 335.884 656.328 336.008 655.992 336.119L655.982 336.211C656.318 336.105 656.656 335.975 656.994 335.846C657.331 335.717 657.664 335.592 658 335.482L658.129 335.402C658.188 335.361 658.249 335.316 658.309 335.266C658.39 335.205 658.466 335.138 658.537 335.075L659.01 334.658C659.198 334.588 659.397 334.506 659.605 334.42L660.087 334.24C660.373 334.124 660.662 334.018 660.954 333.926C661.685 333.581 662.42 333.185 663.153 332.774L663.492 332.585L662.494 333.048Z" fill="#1F435D"/>
<path d="M1414.13 226.199C1413.56 226.013 1412.99 225.822 1412.43 225.623L1412.26 225.559C1403.46 222.45 1395.13 217.725 1386.82 213.006C1383.4 211.061 1379.98 209.126 1376.54 207.304L1376.35 207.196L1375.35 206.675L1374.97 206.479L1374.01 205.985L1373.74 205.852C1373.15 205.552 1372.56 205.27 1371.97 204.966L1371.47 204.717L1370.65 204.324L1370.06 204.048L1369.25 203.67L1368.64 203.391C1368.19 203.19 1367.75 202.992 1367.3 202.795L1366.6 202.489L1365.84 202.172L1365.17 201.891L1364.4 201.584L1363.7 201.315L1362.96 201.027C1362.51 200.867 1362.1 200.71 1361.67 200.56L1360.94 200.307L1360.21 200.058L1359.45 199.812L1358.72 199.586L1357.98 199.359L1357.04 199.095L1355.95 198.801L1355.16 198.602L1354.4 198.42L1353.65 198.253L1352.88 198.089L1352.06 197.933C1351.67 197.858 1351.28 197.791 1350.9 197.725C1350.6 197.695 1350.3 197.624 1349.98 197.579L1349.21 197.475L1348.44 197.375L1347.65 197.297C1347.38 197.27 1347.12 197.244 1346.85 197.218C1346.58 197.191 1346.35 197.168 1346.09 197.143C1345.63 197.097 1345.17 197.084 1344.71 197.061L1343.92 197.034L1343.12 197.02L1342.31 197.014L1341.51 197.028L1340.7 197.045L1339.61 197.1C1339.23 197.123 1338.84 197.149 1338.46 197.181L1337.63 197.252L1336.78 197.348L1335.98 197.446L1335.12 197.569L1334.27 197.708C1334.02 197.749 1333.79 197.782 1333.55 197.827C1330.88 198.316 1328.22 198.79 1325.55 199.25L1324.77 199.382C1322.46 199.773 1320.15 200.163 1317.84 200.553L1315.87 200.868C1313.95 201.18 1312.03 201.484 1310.11 201.78L1307.69 202.149C1305.9 202.417 1304.11 202.682 1302.33 202.945L1299.76 203.318L1294.45 204.064L1291.93 204.409C1290.07 204.661 1288.21 204.907 1286.35 205.147L1284.15 205.435C1281.88 205.731 1279.61 206.018 1277.33 206.297L1276.39 206.408C1273.75 206.732 1271.1 207.047 1268.45 207.354L1267.36 207.483C1265.13 207.742 1262.9 207.995 1260.67 208.241C1259.92 208.329 1259.17 208.408 1258.41 208.482C1256.53 208.689 1254.67 208.894 1252.81 209.097L1250.38 209.353L1244.82 209.936L1242.57 210.177C1240.56 210.387 1238.54 210.591 1236.52 210.79L1234.93 210.953C1224.24 212.018 1213.55 213.047 1202.85 214.04C1181.56 216.05 1160.26 218.065 1139.01 220.521L1138.54 220.572C1136.45 220.816 1134.34 221.063 1132.24 221.312L1130.83 221.484L1125.43 222.152L1123.63 222.377C1121.93 222.59 1120.24 222.81 1118.55 223.036L1116.62 223.286C1114.89 223.52 1113.17 223.756 1111.45 223.994L1109.74 224.225C1107.46 224.546 1105.18 224.873 1102.9 225.205C1102.74 225.232 1102.58 225.272 1102.42 225.325L1102.29 225.372L1101.94 225.514L1101.82 225.567L1101.44 225.761C1101.26 225.851 1101.08 225.944 1100.89 226.027C1101.33 226.071 1101.77 226.115 1102.21 226.158C1103.57 226.378 1104.94 226.475 1106.31 226.448C1149.77 223.707 1193.23 222.922 1236.38 228.026C1248.7 229.496 1260.87 231.292 1272.87 233.496L1273.28 233.57L1275.16 233.923L1276.72 234.222L1278.55 234.578L1280.14 234.894L1281.96 235.26L1283.62 235.605C1284.2 235.723 1284.78 235.841 1285.35 235.968C1286.41 236.188 1287.46 236.418 1288.51 236.647L1290.13 237.007L1291.9 237.405L1291.96 237.411L1284.09 237.166C1280.76 237.068 1277.42 236.975 1274.07 236.888C1215.45 235.402 1155.15 236.002 1099.4 242.159L1095.64 242.581C1086.9 243.573 1071.45 246.737 1053.03 250.898L1048.26 251.725L1047.73 251.817L1047.32 251.888C1045.52 252.198 1043.73 252.517 1041.95 252.832L1040.98 253.006C982.976 263.314 925.816 276.185 872.708 301.785L872.625 301.828C871.627 302.308 870.63 302.794 869.634 303.287L869.473 303.364L866.543 304.824L866.362 304.918C865.385 305.406 864.407 305.903 863.429 306.401L863.263 306.487C862.282 307.009 861.302 307.531 860.322 308.053L860.233 308.1C855.106 310.805 850.026 313.645 844.996 316.62C842.588 318.048 840.287 319.648 838.11 321.408L838.049 321.458C837.63 321.792 837.221 322.132 836.81 322.477L836.699 322.568C836.304 322.901 835.914 323.233 835.527 323.571L835.385 323.696C835.008 324.031 834.636 324.361 834.264 324.7L834.101 324.851C833.738 325.182 833.375 325.517 833.017 325.853L832.842 326.022C832.489 326.358 832.135 326.694 831.785 327.036C831.724 327.09 831.663 327.149 831.606 327.209C831.256 327.55 830.907 327.892 830.575 328.239L830.41 328.409C830.059 328.759 829.708 329.115 829.376 329.472L829.231 329.62C828.87 329.988 828.512 330.361 828.16 330.73L828.066 330.833C827.688 331.227 827.31 331.626 826.936 332.025C826.419 332.555 825.949 333.088 825.464 333.621L824.918 334.217L824.63 334.537L824.448 334.737L823.796 335.457L822.722 336.651C821.496 338.052 820.724 339.324 820.403 340.465C820.361 340.615 820.328 340.766 820.302 340.92C820.302 340.92 820.302 340.92 820.299 340.956C820.276 341.095 820.262 341.235 820.257 341.375L820.244 341.513C820.24 341.554 820.236 341.596 820.232 341.632L818.841 342.456C796.669 355.355 734.541 383.145 712.691 420.365C701.99 429.59 686.383 440.108 659.798 452.798C631.298 466.399 599.264 471.371 570.459 484.301L569.944 484.528C553.265 491.852 495.904 509.62 474.692 520.753C388.727 565.87 366.454 594.941 352.271 618.363L350.535 621.265L350.436 619.459C350.377 618.413 350.305 617.361 350.233 616.3C349.898 611.428 349.557 606.482 350.072 601.704C350.342 598.858 351.026 596.067 352.1 593.417C356.716 582.336 361.983 571.542 367.629 560.939C382.935 540.005 404.117 517.456 422.679 509.497C485.607 482.501 520.448 438.999 554.77 423.992C556.24 423.497 557.714 423.024 559.192 422.573L559.556 422.456L561.54 421.84L561.716 421.788L563.633 421.193L565.501 420.616L566.779 420.223L567.556 419.979L569.655 419.319L570.613 419.024L571.769 418.646L573.363 418.117L574.497 417.732L575.69 417.312L576.652 416.97C577.211 416.77 577.77 416.561 578.325 416.351L579.223 416.004C579.696 415.825 580.164 415.639 580.629 415.446L581.471 415.103C581.985 414.889 582.498 414.67 583.013 414.443L583.463 414.255C595.567 408.874 607.489 403.169 619.293 397.201C692.762 360.166 761.33 313.856 836.676 280.36C851.199 273.907 865.783 267.648 880.431 261.583C883.093 248.771 898.228 241.987 911.171 237.84C981.857 215.202 1048.23 185.766 1120.62 167.072C1127.18 165.377 1133.79 163.677 1140.55 163.19C1149.84 162.522 1159.13 164.176 1168.44 164.392C1189.46 164.885 1209.88 158.108 1230.56 154.324C1263.71 148.343 1297.78 150.007 1330.19 159.189L1335.51 157.747C1361.31 154.354 1392.96 154.613 1420.98 157.388C1449.01 160.163 1491.31 167.208 1501.72 179.135C1501.72 179.135 1502.24 182.363 1502.81 186.831C1503.52 192.259 1504.31 199.515 1504.31 205.065C1505 237.463 1446.94 236.748 1414.16 226.188" fill="#FBC998"/>
<path d="M438.862 79.2978C433.832 83.9955 427.982 87.7436 422.903 92.3853C415.246 99.3719 399.843 109.329 382.538 124.661C371.826 129.307 362.085 136.528 353.992 145.008C340.679 158.952 331.293 176.131 322.886 193.468C309.657 220.764 298.092 249.164 289.359 278.234C285.102 292.387 286.067 298.305 289.577 299.15C286.643 304.552 283.5 309.812 280.149 314.931C255.66 352.215 214.876 372.971 187.859 407.321C171.392 428.265 147.34 438.769 139.571 442.907C100.789 463.555 59.49 510.244 61.9794 538.888C63.2669 553.739 43.4046 549.929 41.1855 516.585C36.6131 447.877 48.8545 439.134 46.4664 404.45C45.6236 392.188 49.092 378.309 42.3758 368.014C37.0553 359.849 27.9998 354.657 22.7339 346.456C12.5863 330.677 14.505 292.027 15.5814 286.923C21.6935 258.021 21.803 216.963 26.6444 187.671C31.9543 155.569 48.6106 128.5 69.7239 104.296C71.3795 102.44 72.1956 101.514 73.7993 99.6665C80.5479 91.7681 87.1014 83.7296 93.2776 75.3752C95.3402 72.5985 96.3306 71.2247 98.2474 68.5125C98.666 67.7553 98.8702 67.3808 99.2792 66.6274C106.53 53.4715 113.866 40.3381 122.838 28.2256C125.402 24.8379 128.224 21.6541 131.28 18.7025C132.885 17.1248 144.198 2.56508 159.667 -3.98228C162.665 -5.24471 165.957 -5.64102 169.169 -5.12622C213.454 1.88214 245.364 29.9433 276.025 45.0237C270.833 55.2585 261.541 63.1465 252.884 70.336L251.652 71.3422C250.824 72.0078 249.984 72.6675 249.136 73.3078C247.431 74.6065 245.652 75.8041 243.808 76.8942C243.345 77.1641 242.873 77.4284 242.397 77.6831C240.491 78.7359 238.52 79.6682 236.498 80.4746C228.403 83.8241 221.036 82.7278 212.813 81.0314C193.775 77.1079 170.776 47.2964 149.567 56.7114C107.39 75.4492 125.758 110.3 140.858 138.196C148.384 152.077 158.98 164.177 170.94 174.406C182.45 184.256 204.839 203.63 219.997 200.599C227.179 199.16 233.463 195.343 239.449 190.787C243.637 187.594 247.658 183.706 249.524 178.784C251.391 173.861 254.487 166.172 257.977 162.209C263.165 156.282 284.843 141.384 290.939 137.781C312.367 125.119 395.103 72.7453 418.007 63.0013C426.407 59.4314 435.297 56.2117 444.405 56.7932C445.79 56.8793 447.293 57.1302 448.157 58.2001C448.935 59.1594 448.969 60.5046 448.847 61.7323C448.17 68.5789 443.861 74.5739 438.845 79.2775" fill="#30638E"/>
<path d="M320.365 267.077C326.779 250.458 329.378 232.324 338.025 216.743C340.706 211.901 344.022 207.298 348.56 204.135C352.865 201.13 358.021 199.607 362.594 197.028C369.837 192.953 375.339 186.441 380.674 180.064C392.682 165.708 404.693 151.354 416.706 137.001C418.534 134.814 420.44 132.449 420.726 129.612C421.454 122.255 411.681 118.78 404.302 119.257C385.062 120.509 367.315 131.061 354.001 145.009C340.687 158.958 331.302 176.132 322.895 193.468C309.666 220.765 298.101 249.165 289.368 278.234C276.295 321.728 312.498 287.49 320.376 267.064" fill="#1F435D"/>
<path d="M611.668 1.21414C620.388 -0.192938 627.767 8.1386 631.955 14.0553C637.062 21.2752 640.609 30.2814 644.578 38.7303C647.711 45.4063 651.482 55.3818 658.406 58.0964C665.602 60.9216 677.393 55.5097 685.306 53.7163C691.666 52.2706 698.138 50.7291 704.586 50.1835C706.089 50.0538 707.633 49.9374 709.155 49.8095C715.593 49.2583 730.28 46.1577 735.106 52.2863C742.324 61.4516 722.672 80.7946 718.032 86.1995C717.424 86.9008 716.817 87.5883 716.227 88.2542C707.248 98.2812 708.919 115.77 697.162 122.439C690.481 126.23 681.54 126.873 671.427 130.055C660.544 133.477 647.237 141.534 639.345 152.17C638.321 153.549 637.328 155.044 636.347 156.516C635.365 157.988 634.397 159.466 633.475 160.949C620.577 181.713 611.85 203.215 610.155 227.647C608.486 251.728 590.295 267.469 570.801 279.069L568.612 280.361C565.694 282.069 562.752 283.737 559.845 285.385L556.771 287.124L556.063 287.518L555.483 287.846C555.182 288.021 554.877 288.19 554.581 288.365L552.155 289.755C551.066 290.385 550.52 290.698 549.425 291.342C548.844 291.674 548.255 291.996 547.67 292.324C546.073 293.228 544.473 294.125 542.868 295.015C542.042 295.472 541.209 295.919 540.383 296.376C539.039 297.109 537.691 297.839 536.34 298.566C535.404 299.072 534.463 299.569 533.526 300.07C532.281 300.733 531.034 301.384 529.786 302.022L526.78 303.581C525.587 304.197 524.397 304.813 523.2 305.418L520.066 307.012C518.906 307.593 517.747 308.174 516.587 308.752C515.513 309.286 514.433 309.825 513.355 310.354L509.94 312.017C508.833 312.553 507.73 313.094 506.623 313.625C505.517 314.156 504.405 314.692 503.294 315.218C502.184 315.744 501.033 316.303 499.884 316.835L496.658 318.373L493.157 320.013C492.403 320.366 491.644 320.709 490.885 321.061C488.248 322.276 485.606 323.485 482.958 324.687L480.006 326.029L476.362 327.66L473.17 329.09L469.733 330.607L466.236 332.155L463.134 333.519L459.105 335.289L456.635 336.363L451.298 338.69L450.473 339.045L445.136 341.362L437.314 344.767L429.005 348.355C421.043 351.801 413.094 355.27 405.158 358.762C404.979 358.838 404.804 358.918 404.629 358.998C402.832 359.789 401.04 360.583 399.253 361.381L397.251 362.279L393.315 364.048L390.801 365.192L387.329 366.771L384.635 368.004L381.344 369.535L378.56 370.829L375.347 372.331L372.556 373.652L369.339 375.191L366.604 376.457L363.346 378.038C362.448 378.475 361.552 378.913 360.658 379.35L357.313 381.002L354.735 382.283C353.562 382.873 352.389 383.472 351.215 384.066C350.425 384.452 349.627 384.865 348.834 385.274C347.529 385.939 346.227 386.618 344.92 387.292L342.962 388.315C341.003 389.337 339.053 390.371 337.11 391.417C335.591 392.223 334.832 392.626 333.317 393.437C326.953 396.74 320.577 400.599 314.089 403.142C305.259 406.599 292.656 405.351 278.022 412.186C253.573 423.601 238.264 425.953 216.132 441.694C204.973 449.629 193.553 458.096 183.98 467.925C171.317 480.93 161.188 496.471 150.631 511.133C146.988 516.193 143.315 521.246 139.611 526.293C136.821 530.084 133.984 533.845 131.098 537.574C128.825 540.506 127.699 541.931 125.535 544.605C123.395 547.179 121.21 549.693 118.772 551.532C117.674 552.352 116.581 553.209 115.526 554.019C115.174 554.291 114.8 554.551 114.477 554.812C108.513 559.612 102.434 558.782 97.2057 555.126C91.9774 551.469 90.7893 547.712 95.9031 542.256C96.4683 541.612 96.9998 540.94 97.4956 540.241C98.2495 539.238 98.6458 538.706 99.4571 537.593C118.034 512.14 135.089 484.419 156.946 461.566C168.779 449.207 183.692 437.688 197.372 427.402C225.465 406.285 255.519 387.916 286.185 370.825C288.39 369.594 290.599 368.372 292.811 367.158C299.459 363.514 306.134 359.906 312.837 356.335L317.248 353.986C324.05 350.412 330.875 346.878 337.725 343.384C377.706 322.91 419.565 301.23 445.568 265.54C457.503 249.148 457.652 229.081 457.094 208.73C459.213 187.335 458.712 164.26 464.025 143.432C469.337 122.604 478.702 102.354 493.917 87.1682C501.558 79.5392 510.62 73.2256 516.986 64.5C529.913 46.7708 530.791 20.4566 548.614 7.68358C555.969 2.42222 565.148 0.41971 574.133 -0.617517C586.148 -2.00939 599.647 -0.38025 611.624 1.23756" fill="#1F435D"/>
</g>
<path d="M479.963 160.911C494.865 164.174 510.621 176.501 532.952 184.416C549.249 190.192 568.263 193.195 585.012 198.643C599.336 203.291 614.413 212.329 625.613 216.996C637.973 222.148 646.022 222.975 651.586 226.122L651.84 226.256L651.23 225.905C647.598 223.839 643.985 222.347 639.919 220.669C633.793 218.246 627.828 215.434 622.06 212.251C618.78 210.403 614.94 207.797 610.874 205.015C603.772 200.159 595.977 194.827 589.254 192.433C581.122 189.545 572.412 187.96 563.841 186.399C551.527 184.158 539.481 181.967 529.833 176.025C500.825 158.176 468.379 147.174 444.242 147.174C412.299 147.174 378.809 146.066 354.233 144.402C364.941 148.289 375.863 151.556 386.946 154.188C415.469 160.828 446.335 153.542 479.968 160.907" fill="#1F435D"/>
<path d="M1395.72 913.586C1428.15 861.836 1397.14 805.229 1384.34 754.499C1380.86 740.726 1380.99 726.111 1376.68 712.577C1372.76 700.263 1364.28 689.802 1359.89 677.654L1355.73 666.14C1348.63 646.308 1356.47 634.9 1354.01 627.013L1353.45 625.165L1350.29 618.594C1347.4 612.537 1343.94 593.315 1339.82 584.402L1337.89 580.243C1314.69 530.078 1333.04 489.185 1324.71 440.189C1314.76 381.664 1309.82 459.988 1316.46 367.105C1319.94 318.441 1344.25 264.357 1372.32 224.602C1376.22 219.057 1382.97 209.816 1389.34 195.39C1395.71 180.965 1403.49 130.319 1418.82 99.3884C1423.4 90.1895 1429.45 81.7956 1436.72 74.5343C1419.51 82.8513 1407.05 76.0729 1394.01 68.9896C1387.51 65.464 1380.87 61.8554 1373.42 59.9933C1353.06 54.9106 1346.37 70.5051 1338.61 88.5901C1337.28 91.7043 1335.91 94.8925 1334.45 98.0623L1333.53 100.054C1327.73 112.77 1323.69 137.018 1319.38 162.838C1316.23 181.713 1312.94 201.425 1308.73 218.087L1308.11 220.503C1304.28 235.063 1292.36 243.144 1280.47 251.184C1274.89 254.963 1269.31 258.738 1264.58 263.197C1240.68 285.69 1229.8 320.627 1240.77 342.565C1244.54 349.958 1251.19 353.83 1258.05 357.314L1263.19 359.892C1264.92 360.708 1266.69 361.428 1268.5 362.05C1274.27 364.152 1280.18 366.31 1279.98 372.798C1279.74 380.112 1272.51 383.346 1265.88 385.735L1262.05 387.121C1254.79 389.806 1247.08 391.405 1239.41 392.994C1237.32 393.428 1235.25 393.858 1233.17 394.311L1232.71 394.413C1231.48 394.676 1230.22 394.875 1228.96 395.087C1223.28 396.011 1217.53 396.963 1214.8 403.164C1211.5 410.659 1215.13 417.026 1219.03 422.991L1220.88 425.8C1227.5 435.582 1236.91 442.772 1248.08 445.47L1248.96 445.692C1273.35 452.008 1278.34 470.098 1283.76 489.698C1284.54 492.508 1285.32 495.349 1286.17 498.191L1286.82 500.316C1296.65 531.736 1308.43 562.533 1320.21 593.301C1335.85 634.156 1351.49 675.007 1362.54 717.382L1363.07 719.392C1366.4 731.822 1370.52 744.062 1374.62 756.297C1383.13 781.645 1391.65 806.985 1393.24 833.992C1396.26 885.1 1367.65 927.48 1311.26 953.097L1311.41 953.028L1316.15 952.163C1338.15 948.097 1358.29 943.782 1376.98 935.529C1384.21 929.13 1390.49 921.746 1395.65 913.595" fill="#30638E"/>
<path d="M1178.05 195.413C1186.01 213.087 1196.44 229.938 1200.5 248.892C1206.43 276.569 1198.26 306.649 1208.62 332.987C1209.4 334.974 1210.42 337.076 1212.34 338.019C1218.11 340.851 1221.82 331.55 1221.59 325.122C1219.9 272.288 1222.99 219.409 1230.83 167.131C1232.05 159.012 1233.4 150.825 1236.53 143.233C1241.28 131.682 1249.9 122.062 1254.41 110.427C1257.03 103.531 1258.15 96.1541 1257.69 88.7905C1257.22 81.427 1255.19 74.2473 1251.73 67.7328C1240.68 61.093 1225.58 66.5222 1217.27 76.3779C1208.96 86.2336 1205.76 99.296 1202.82 111.85C1200.45 121.988 1198.07 132.124 1195.69 142.258C1195.26 144.106 1194.74 146.093 1193.28 147.304C1182.29 156.388 1179.39 130.023 1168.7 147.641C1161.86 158.911 1173.37 185.091 1178.01 195.39" fill="#1F435D"/>
<path d="M1049.18 229.254C1041.71 221.372 1035.34 212.861 1028.5 204.474C1021.11 195.39 1010.9 189.342 1000.78 183.885C983.219 174.431 964.404 166.867 946.799 157.118C920.836 142.739 896.647 134.588 866.863 135.087C842.083 135.507 820.473 122.196 802.032 106.809C793.313 99.5316 782.075 96.8008 771.665 93.1598C757.836 88.3174 743.914 82.9483 729.784 78.9284C713.765 74.3725 688.379 66.8363 672.198 73.0233C669.31 74.1276 667.758 76.2577 669.458 79.1178C670.413 80.6752 671.565 82.1025 672.886 83.3642C693.217 89.297 713.196 97.0319 732.913 104.721C738.332 106.832 743.849 109.008 748.544 112.381L749.413 112.663C749.385 112.765 749.362 112.867 749.334 112.968C749.879 113.384 750.414 113.818 750.937 114.271C756.219 118.892 759.661 125.194 763.746 130.905C768.577 137.629 774.379 143.599 780.962 148.621C793.9 145.687 806.084 143.159 818.976 145.363C831.294 147.466 838.581 154.965 848.238 163.069C862.169 174.759 877.966 185.414 893.542 194.406C907.219 202.307 923.877 204.812 939.397 208.268C957.63 212.339 975.133 217.139 992.566 223.811C1008.94 230.077 1023.88 237.553 1038.98 246.508C1049.28 252.625 1070.57 264.958 1073.72 262.578C1076.88 260.199 1055.3 235.742 1049.15 229.245" fill="#30638E"/>
<path d="M109.351 114.313C111.726 114.752 114.212 115.32 115.991 116.956C118.587 119.349 118.934 123.263 119.1 126.793C119.678 138.76 119.562 152.451 110.668 160.459C99.5506 170.439 82.3667 165.541 67.53 163.795C46.5987 161.35 25.3256 166.567 4.40356 164.016C-31.6971 159.627 -61.9203 132.948 -97.8592 127.375C-108.316 125.753 -119.451 125.846 -128.665 120.634C-131.65 118.947 -134.648 115.62 -133.248 112.497C-132.426 110.649 -130.388 109.748 -128.503 109.045C-93.733 96.0476 -52.6745 101.38 -22.3773 122.829C-17.2208 126.479 -12.3507 130.568 -6.84756 133.664C9.90668 143.094 31.933 140.95 47.5598 130.198C54.9944 125.088 59.0374 116.873 66.9663 113.412C77.9587 108.625 98.0258 112.21 109.337 114.313" fill="#30638E"/>
<path d="M542.762 107.077L426.092 87.5412C417.313 86.0672 408.275 84.5193 400.554 80.0466C393.549 75.9851 387.972 69.7057 380.759 66.0231C372.863 61.994 363.705 61.4025 354.843 61.2316C323.535 60.5872 292.27 63.8813 261.784 71.0365C254.229 72.8108 245.196 76.5396 244.605 84.2698C243.948 92.744 253.957 97.7019 262.315 99.2405C293.916 105.049 326.846 96.7177 358.424 102.586C383.227 107.206 405.623 120.255 429.881 127.177C452.646 133.673 476.549 134.643 500.22 135.572L570.24 138.317C580.983 138.737 591.869 139.181 602.122 142.369C615.457 146.504 626.921 154.983 638.625 162.57C664.73 179.463 693.166 192.446 723.029 201.106C713.067 177.12 690.865 158.597 665.48 153.126C639.434 147.503 632.369 136.764 610.458 125.264C589.859 114.451 565.393 110.871 542.734 107.077" fill="#1F435D"/>
<path d="M879.404 221.589C868.263 207.903 849.744 201.854 838.654 188.122C834.819 183.372 831.978 177.814 827.639 173.521C819.937 165.897 808.759 163.328 798.797 159.063C784.768 153.026 772.647 143.282 763.736 130.878C759.652 125.171 756.21 118.864 750.928 114.244C745.785 109.743 739.275 107.174 732.908 104.693C693.088 89.1676 652.2 73.4207 609.46 72.8108C588.667 72.515 567.902 75.828 547.165 74.4557C506.139 71.7388 468.851 51.131 431.147 34.7187C393.443 18.3063 343.462 6.76875 311.732 19.7064C303.766 28.1205 350.859 25.1125 363.317 40.7809C369.929 49.0979 375.681 58.4084 382.215 66.8132C388.734 70.5559 394.016 76.2531 400.535 80.0327C408.256 84.5055 417.271 86.0395 426.073 87.5273L542.762 107.077C565.402 110.871 589.892 114.47 610.485 125.264C632.396 136.769 639.461 147.503 665.507 153.126C690.893 158.615 713.099 177.12 723.057 201.106C721.768 200.732 720.478 200.339 719.194 199.946C735.759 208.725 752.079 217.966 768.223 227.466C778.037 233.251 787.976 239.221 799.042 241.915C805.28 243.43 811.763 243.869 817.903 245.736C835.582 251.11 840.96 246.12 840.544 245.561C838.581 242.788 839.981 241.139 843.58 241.051C859.549 240.667 875.286 250.639 881.755 265.244C884.491 271.417 885.706 278.302 889.426 283.939C893.145 289.576 900.769 293.619 906.674 290.339C892.272 270.091 895.058 240.857 879.371 221.589" fill="#1F435D"/>
<path d="M656.46 228.926L653.808 227.397L651.849 226.265L651.586 226.122C646.041 222.975 637.973 222.148 625.613 216.996C614.413 212.329 599.318 203.291 585.012 198.643C568.263 193.205 549.249 190.192 532.952 184.416C510.621 176.501 494.865 164.174 479.963 160.911C446.33 153.546 415.465 160.833 386.942 154.193C375.859 151.561 364.936 148.293 354.228 144.407C322.582 133.091 296.66 119.234 280.299 117.034C256.452 113.828 241.116 103.635 229.435 91.7274C225.12 91.3901 187.901 42.0839 171.659 42.0839C139.921 42.0839 122.436 57.1192 111.828 99.4299C111.572 100.44 111.315 101.44 111.056 102.429C111.315 101.44 111.578 100.442 111.832 99.4299C111.578 100.442 111.315 101.445 111.051 102.438C111.028 102.516 111.01 102.595 110.987 102.674C110.723 103.667 110.451 104.656 110.178 105.626V105.668C110.039 106.162 109.896 106.657 109.753 107.146C109.61 107.636 109.466 108.121 109.323 108.606V108.657C109.106 109.387 108.884 110.117 108.658 110.834C108.886 110.119 109.108 109.393 109.323 108.657C109.055 109.558 108.783 110.441 108.505 111.319C108.418 111.596 108.325 111.869 108.237 112.146C108.039 112.77 107.835 113.393 107.627 113.994L107.821 113.421L107.627 113.994L109.374 114.317C111.749 114.756 114.235 115.325 116.014 116.96C118.615 119.354 118.957 123.268 119.123 126.798C119.701 138.765 119.585 152.456 110.691 160.463C99.5737 170.444 82.3898 165.546 67.5531 163.804C46.6218 161.35 25.3487 166.576 4.42665 164.021C-6.0898 162.741 -16.1072 159.571 -25.9167 155.579L-27.9082 155.39L-28.3703 155.344C-29.3267 155.247 -30.2786 155.15 -31.235 155.043H-31.4014C-32.27 154.946 -33.1387 154.849 -34.0074 154.743L-34.6265 154.669L-37.0801 154.359L-37.4358 154.313C-38.36 154.188 -39.3164 154.054 -40.2544 153.92L-40.6795 153.86L-43.0499 153.5L-43.6875 153.398C-44.57 153.255 -45.4479 153.112 -46.3305 152.936H-46.4414C-47.3655 152.775 -48.2896 152.608 -49.2368 152.433L-49.8005 152.326C-50.5537 152.183 -51.3022 152.035 -52.0554 151.864L-52.6745 151.74C-54.5228 151.361 -56.3525 150.956 -58.1638 150.524L-58.7968 150.372L-61.0285 149.817L-61.5876 149.674C-62.5118 149.44 -63.4266 149.195 -64.3323 148.939L-64.5587 148.875C-65.3811 148.644 -66.2036 148.413 -67.0261 148.163L-67.6914 147.965C-68.4523 147.734 -69.2147 147.496 -69.9786 147.253L-70.4129 147.119C-71.3186 146.829 -72.2211 146.529 -73.1206 146.218L-73.5827 146.061C-74.3312 145.802 -75.0782 145.536 -75.8237 145.262L-76.4936 145.017C-77.3069 144.716 -78.1201 144.411 -78.9333 144.093L-79.169 144C-80.0654 143.649 -80.9571 143.289 -81.8443 142.919L-82.4265 142.674C-83.138 142.366 -83.8465 142.058 -84.5519 141.75L-85.2034 141.463C-86.0814 141.071 -86.9639 140.669 -87.8418 140.253L-88.7659 139.828C-89.7948 139.369 -90.8298 138.954 -91.8709 138.585L-92.0096 138.534L-92.9013 138.229L-93.1324 138.155L-93.941 137.901L-94.2274 137.818L-94.9806 137.601L-95.304 137.513L-96.0248 137.323L-96.376 137.236L-97.0691 137.069L-97.448 136.986L-98.118 136.843L-98.5154 136.764L-99.1761 136.635L-99.5781 136.561L-100.234 136.45L-100.645 136.381L-101.292 136.284L-101.717 136.224L-102.355 136.14L-102.785 136.09L-103.422 136.016L-103.857 135.97L-104.49 135.905L-104.952 135.868L-105.585 135.817L-106.047 135.785L-106.675 135.743L-107.137 135.715L-107.724 135.683H-108.186L-108.828 135.655H-109.267H-109.905H-110.367H-111.009H-113.666H-114.304H-114.701H-115.422H-115.787L-116.54 135.683H-116.878L-117.672 135.715H-117.963L-118.837 135.757H-119.049L-120.029 135.808H-120.135C-120.994 135.854 -121.854 135.9 -122.713 135.956L-124.404 136.057L-126.345 136.177L-126.729 136.201L-127.126 136.224H-127.265L-127.847 136.247H-128.309H-128.877H-129.903H-130.365H-130.906H-131.368L-131.904 136.219L-132.329 136.191L-132.851 136.15L-133.23 136.145L-133.743 136.09L-134.14 136.043L-134.639 135.974L-135.023 135.919L-135.512 135.836L-135.882 135.771L-136.344 135.678L-136.7 135.604L-137.162 135.494L-137.499 135.415L-137.961 135.295L-138.285 135.202L-138.747 135.069L-139.056 134.976L-139.518 134.828L-139.814 134.722L-140.253 134.565L-140.54 134.454L-140.969 134.278L-141.242 134.167L-141.667 133.978L-141.921 133.858L-142.337 133.655L-142.586 133.53L-142.993 133.317L-143.224 133.188L-143.626 132.957L-143.848 132.828L-144.241 132.583L-144.449 132.449L-144.837 132.19L-145.031 132.051L-145.414 131.779L-145.594 131.64C-145.724 131.543 -145.849 131.451 -145.969 131.349L-146.144 131.21C-146.269 131.113 -146.389 131.012 -146.509 130.905L-146.671 130.767L-147.036 130.448L-147.184 130.309C-147.304 130.198 -147.424 130.088 -147.54 129.972L-147.678 129.838L-148.034 129.482L-148.154 129.353C-148.274 129.228 -148.39 129.103 -148.505 128.974L-148.616 128.854C-148.732 128.72 -148.852 128.59 -148.963 128.456L-149.065 128.336C-149.18 128.202 -149.296 128.064 -149.406 127.925L-149.494 127.814L-149.836 127.375C-149.836 127.343 -149.882 127.306 -149.91 127.274C-150.026 127.121 -150.137 126.969 -150.247 126.812C-150.247 126.784 -150.289 126.756 -150.307 126.724C-150.423 126.567 -150.534 126.405 -150.645 126.239L-150.696 126.165C-150.811 125.994 -150.922 125.827 -151.033 125.652L-151.065 125.596C-151.181 125.416 -151.292 125.236 -151.403 125.056L-151.426 125.019C-151.537 124.829 -151.652 124.64 -151.763 124.446C-154.914 118.929 -156.555 112.035 -157.968 104.984L-159.054 99.4392L-157.968 104.956C-158.01 104.319 -160.787 63.5234 -205.311 62.6778L-205.311 175.794C-200.353 174.981 -195.391 174.219 -190.451 173.646C-171.045 171.386 -152.128 171.987 -136.03 183.612C-135.281 184.151 -134.539 184.717 -133.803 185.308C-132.697 186.192 -131.606 187.132 -130.531 188.127C-129.817 188.792 -129.107 189.484 -128.401 190.201C-127.696 190.919 -127 191.663 -126.313 192.433C-115.713 204.331 -109.249 218.77 -108.353 233.81C-108.297 234.701 -108.263 235.594 -108.251 236.49V236.952C-108.206 243.432 -109.203 249.877 -111.203 256.04C-111.337 256.465 -111.481 256.881 -111.624 257.292L-111.758 257.648C-111.86 257.934 -111.961 258.216 -112.072 258.494C-112.123 258.632 -112.178 258.771 -112.234 258.909C-112.336 259.165 -112.437 259.415 -112.539 259.658C-112.594 259.797 -112.654 259.935 -112.714 260.069C-112.821 260.319 -112.927 260.559 -113.038 260.799L-113.204 261.169L-113.592 261.973C-113.634 262.056 -113.671 262.139 -113.712 262.218C-113.888 262.564 -114.064 262.902 -114.244 263.234L-114.318 263.364C-114.475 263.646 -114.632 263.923 -114.78 264.191L-114.96 264.486C-115.089 264.699 -115.219 264.912 -115.348 265.115C-115.417 265.226 -115.487 265.327 -115.551 265.434C-115.681 265.628 -115.81 265.822 -115.94 266.007L-116.147 266.312C-116.286 266.506 -116.425 266.695 -116.568 266.885L-116.757 267.139C-116.933 267.374 -117.113 267.601 -117.298 267.827L-117.377 267.924C-117.589 268.183 -117.802 268.437 -118.023 268.682C-118.07 268.737 -118.12 268.788 -118.171 268.844C-118.338 269.028 -118.509 269.213 -118.675 269.389L-118.901 269.62L-119.363 270.082L-119.608 270.313L-120.07 270.733L-120.311 270.946C-120.477 271.094 -120.648 271.232 -120.819 271.376L-121.013 271.537C-121.475 271.921 -121.979 272.281 -122.473 272.623L-122.686 272.762C-122.861 272.882 -123.041 273.002 -123.222 273.113L-123.485 273.275C-123.651 273.381 -123.822 273.478 -123.989 273.58L-124.266 273.737L-124.788 274.023L-125.047 274.157C-125.245 274.264 -125.449 274.361 -125.652 274.462L-125.832 274.55L-126.641 274.915L-126.756 274.961C-126.987 275.058 -127.218 275.155 -127.454 275.243L-127.713 275.345L-128.281 275.553L-128.577 275.654L-129.127 275.835L-129.298 275.89L-129.432 275.932L-130.009 276.103L-130.282 276.177C-130.522 276.246 -130.744 276.306 -131.003 276.366L-131.137 276.403L-132.005 276.602L-132.246 276.648L-132.879 276.777L-133.207 276.833L-133.766 276.93L-134.117 276.985L-134.671 277.064L-135.018 277.115L-135.609 277.184L-135.924 277.221L-136.746 277.299H-136.94L-137.726 277.359H-138.081L-138.645 277.392H-139.047L-139.574 277.415H-139.99H-140.516H-141.866H-142.762H-143.164H-143.709H-144.171H-144.633H-145.123L-145.585 277.392L-146.089 277.364L-146.551 277.336L-147.068 277.304L-147.461 277.276L-148.797 277.175H-148.889L-149.508 277.119L-149.841 277.091L-150.455 277.036L-150.783 277.004L-151.43 276.944L-151.694 276.916L-152.401 276.842H-152.516C-154.406 276.643 -156.3 276.421 -158.19 276.204L-159.914 276.006L-160.376 275.955L-162.686 275.701H-162.88L-165.098 275.479H-165.334C-166.11 275.41 -166.886 275.345 -167.644 275.289L-171.479 275.031C-172.403 274.966 -173.295 274.887 -174.201 274.804L-174.815 274.661L-176.987 274.444L-177.587 274.379C-179.408 274.182 -181.228 273.963 -183.049 273.723L-183.594 273.649L-185.904 273.335L-186.367 273.275C-190.641 272.679 -194.919 272.018 -199.198 271.385L-200.293 271.228L-201.614 271.034L-203.001 270.84L-204.244 270.669L-205.311 270.516L-205.311 396.164L-182.707 378.181L-180.503 376.457C-151.292 353.775 -116.707 338.989 -85.8596 318.621C-72.8342 310.022 -61.7078 298.822 -49.0797 289.655C-25.2837 272.378 -6.47331 259.884 23.6945 255.07C45.1894 251.641 68.0013 257.916 88.9187 251.9C107.221 246.642 120.057 229.259 137.772 222.282C157.045 214.695 178.47 214.284 198.427 208.688C213.083 204.594 226.668 197.095 241.398 193.297C308.54 176.007 400.633 172.223 465.769 173.678L466.836 173.706C497.397 174.575 493.46 182.758 520.527 191.31C539.795 197.405 559.835 200.806 579.209 206.521C594.873 211.142 609.705 218.535 625.595 222.282C635.575 224.634 646.23 227.124 657.015 229.236L656.447 228.908L656.46 228.926ZM-203.463 109.29C-203.227 108.797 -202.966 108.316 -202.682 107.849C-202.966 108.316 -203.227 108.797 -203.463 109.29Z" fill="#1F435D"/>
<path d="M1060.22 174.639C1033.84 162.806 1010.52 141.228 989.235 116.355C985.372 111.841 983.228 107.798 982.489 104.226C966.321 99.7434 950.596 93.7919 935.511 86.446C926.644 82.1258 917.838 77.2696 908.139 75.4952C893.815 72.8708 879.205 77.2326 865.533 82.2274C863.056 83.1284 860.45 84.1404 858.796 86.1827C856.425 89.089 856.546 93.2984 857.41 96.9486C862.543 118.633 886.981 129.353 908.915 133.345C932.018 137.55 956.115 138.012 977.91 146.745C984.559 149.415 990.884 152.821 997.196 156.217C1018.7 167.801 1040.29 179.431 1059.96 193.916C1075.13 205.084 1091.56 218.664 1110.23 216.197C1110.18 215.146 1110.08 214.104 1109.94 213.069C1098.72 199.669 1083.39 185.022 1060.22 174.621" fill="#1F435D"/>
<path d="M1060.22 174.639C1120.87 201.85 1127.73 258.05 1148.12 245.616C1163.74 236.167 1118.11 174.459 1114.18 158.111C1106.42 125.767 1146.88 79.1271 1108.31 70.8609C1069.74 62.5947 1063.22 90.5215 1030.95 85.6791C998.684 80.8368 967.952 91.4965 989.235 116.355C1010.52 141.214 1033.84 162.806 1060.22 174.639Z" fill="#30638E"/>
<path d="M1580.75 98.9217C1579.38 98.9503 1578.01 99.1206 1576.66 99.43C1557.47 99.5732 1559.11 68.3566 1546.36 53.3905C1534.67 39.6627 1518.13 32.2975 1491.03 42.0839C1472.33 48.8346 1452.35 58.852 1436.73 74.5759C1429.46 81.8377 1423.41 90.2315 1418.82 99.43C1403.49 130.36 1395.72 181.029 1389.34 195.436C1382.97 209.843 1376.23 219.117 1372.32 224.643C1344.25 264.38 1319.95 318.483 1316.46 367.147C1309.82 460.02 1314.76 381.706 1324.71 440.23C1333.03 489.209 1314.69 530.119 1337.9 580.285L1339.82 584.443C1343.95 593.343 1347.4 612.564 1350.3 618.636L1353.45 625.206L1354.02 627.054C1356.48 634.942 1348.64 646.35 1355.73 666.182L1359.89 677.696C1364.29 689.844 1372.77 700.305 1376.68 712.618C1380.99 726.152 1380.84 740.767 1384.35 754.541C1397.15 805.27 1428.15 861.863 1395.73 913.632C1390.56 921.781 1384.28 929.163 1377.06 935.562C1378.49 934.93 1379.91 934.273 1381.33 933.589C1386.3 930.405 1391.22 927.462 1396.35 925.161C1412.86 914.432 1428.23 899.142 1442.79 876.293L1443.9 874.533C1444.28 873.918 1444.67 873.322 1445.05 872.731L1445.33 872.269L1445.22 872.361L1445.03 872.523L1444.69 872.773L1444.55 872.879L1444.3 873.05L1444.15 873.142C1444.02 873.221 1443.9 873.299 1443.77 873.369C1444.15 871.918 1444.52 870.464 1444.9 869.007C1445.1 868.235 1445.29 867.459 1445.49 866.696C1445.67 865.994 1445.85 865.31 1446.03 864.589C1446.23 863.776 1446.44 862.963 1446.64 862.145C1446.87 861.252 1447.09 860.359 1447.32 859.465C1447.43 859.003 1447.55 858.541 1447.66 858.102C1448.04 856.562 1448.42 855.04 1448.8 853.537C1450.61 846.287 1452.43 839.028 1454.35 831.82L1454.42 831.548C1455.36 827.984 1456.33 824.43 1457.33 820.888L1457.4 820.638C1457.88 818.966 1458.36 817.295 1458.86 815.625C1458.89 815.5 1458.93 815.38 1458.96 815.26C1459.48 813.51 1460.01 811.761 1460.55 810.011C1464.9 796.117 1477.06 792.157 1489.8 789.962L1491.04 789.755L1493.81 789.292C1523.22 784.644 1530.43 773.481 1523.98 744.768C1523.92 744.51 1523.86 744.251 1523.8 743.988L1523.3 741.747L1522.79 739.501C1519.37 724.059 1516.51 708.483 1513.76 692.87C1513.58 691.832 1513.4 690.791 1513.21 689.747L1513.17 689.534L1511.63 680.662C1508.31 661.792 1497.98 649.506 1483.3 642.598C1482.69 642.307 1482.07 642.03 1481.45 641.762C1480.2 641.221 1478.91 640.722 1477.61 640.255C1474.93 639.307 1472.19 638.519 1469.42 637.894C1468.71 637.733 1468 637.58 1467.28 637.432L1458.73 635.69C1450.41 634.008 1442.01 632.516 1433.88 632.456C1419.38 632.364 1405.72 636.855 1394.78 653.091L1394.58 653.378L1394.34 653.701C1393.61 654.625 1392.95 655 1392.39 655.027C1391.36 655.074 1390.56 653.997 1389.95 652.8L1389.84 652.579C1389.77 652.426 1389.7 652.274 1389.63 652.117C1389.53 651.89 1389.44 651.654 1389.35 651.451L1388.39 649.021C1387.61 647.02 1386.87 645.024 1386.17 643.046C1364.76 582.484 1379.67 532.397 1458.78 513.873C1460.69 504.942 1463.2 496.07 1464.43 487.028C1467.5 464.452 1462.48 441.584 1462.84 418.805C1463.1 401.944 1466.3 385.282 1469.49 368.722C1472.61 352.522 1475.74 336.29 1480.42 320.469C1483.71 309.339 1487.92 298.157 1495.56 289.424C1500.49 283.805 1506.58 279.494 1513.26 276.14C1513.31 275.451 1513.35 274.753 1513.41 274.079C1513.41 274.07 1513.41 274.06 1513.41 274.051C1513.45 273.529 1513.51 273.011 1513.6 272.508C1513.6 272.466 1513.6 272.425 1513.62 272.378C1513.66 272.147 1513.7 271.916 1513.75 271.699C1513.76 271.684 1513.76 271.668 1513.75 271.653C1513.81 271.417 1513.88 271.191 1513.95 270.96C1513.96 270.919 1513.98 270.879 1513.99 270.84C1514.05 270.66 1514.12 270.479 1514.19 270.308L1514.26 270.147C1514.35 269.944 1514.46 269.747 1514.57 269.555C1514.92 268.939 1515.26 268.323 1515.59 267.707C1515.67 267.564 1515.75 267.425 1515.82 267.282C1516.15 266.666 1516.47 266.05 1516.78 265.434L1516.89 265.207C1517.16 264.662 1517.43 264.112 1517.7 263.562C1517.77 263.396 1517.86 263.23 1517.93 263.068C1518.21 262.472 1518.49 261.88 1518.75 261.284C1518.82 261.132 1518.88 260.979 1518.95 260.822C1519.16 260.36 1519.37 259.857 1519.58 259.376C1519.66 259.177 1519.74 258.983 1519.82 258.789C1520.06 258.216 1520.28 257.643 1520.52 257.066C1520.61 256.849 1520.69 256.627 1520.78 256.41C1520.94 255.994 1521.1 255.583 1521.24 255.167C1521.33 254.927 1521.42 254.705 1521.51 254.451C1521.72 253.91 1521.91 253.369 1522.1 252.829C1522.21 252.533 1522.32 252.237 1522.42 251.946L1522.75 250.981C1522.94 250.448 1523.12 249.916 1523.29 249.386L1523.55 248.592L1523.94 247.4L1524.09 246.938C1526.5 239.369 1528.51 231.657 1530.88 224.061C1538.84 198.237 1559.8 187.605 1583.81 181.408V99.4762C1582.83 99.0746 1581.77 98.8856 1580.72 98.9217" fill="#1F435D"/>
</g>
</g>
<defs>
<clipPath id="clip0_6193_202546">
<rect width="1440" height="148" fill="white"/>
</clipPath>
<clipPath id="clip1_6193_202546">
<rect width="1440" height="157" fill="white" transform="translate(1440 156) rotate(-180)"/>
</clipPath>
</defs>
</svg>
