<svg width="1440" height="148" viewBox="0 0 1440 148" fill="none" xmlns="http://www.w3.org/2000/svg">
<g clip-path="url(#clip0_6409_202185)">
<g clip-path="url(#clip1_6409_202185)">
<g opacity="0.2">
<path d="M19.0613 157.402C47.1097 154.625 78.7487 154.348 104.531 157.761C102.635 157.166 100.77 156.473 98.9444 155.686V155.686C89.4425 151.821 36.7809 123.981 6.12999 127.016C-39.0518 128.621 -51.932 146.064 -74.4388 155.851C-95.9042 165.183 -75.5035 177.924 -68.8231 182.226C-66.681 183.601 -64.3997 185.07 -62.7927 186.857C-62.2137 182.388 -61.6975 179.161 -61.6975 179.161C-51.2938 167.234 -9.0092 160.191 19.0392 157.414" fill="#4195C4"/>
<path d="M355.897 15.4684C371.75 20.8263 384.831 27.0251 396.023 34.2143C423.642 51.9605 439.746 75.7456 457.641 107.869C484.514 156.051 529.212 186.797 578.913 214.136C590.208 220.354 601.773 226.397 613.44 232.429L622.811 237.268C623.701 237.728 624.554 238.177 625.396 238.619L625.622 238.74L626.504 239.205L627.435 239.703C627.778 239.887 628.111 240.063 628.446 240.248C628.78 240.433 629.132 240.612 629.461 240.793L630.28 241.241L631.39 241.851L631.994 242.181L633.227 242.867L633.522 243.033C637.412 245.22 640.704 247.192 643.549 249.005L643.677 249.085L644.739 249.769L644.927 249.895L645.919 250.53L646.143 250.684L647.039 251.287L647.283 251.458L648.12 252.035L648.38 252.218C648.644 252.401 648.881 252.591 649.159 252.772L649.429 252.964C649.679 253.143 649.928 253.318 650.164 253.499L650.434 253.695L651.131 254.216L651.402 254.417L652.065 254.922L652.337 255.132L652.965 255.622L653.237 255.837L653.843 256.32L654.105 256.536C654.302 256.693 654.498 256.849 654.691 257.011L654.958 257.226L655.52 257.696L655.784 257.92L656.331 258.381C656.417 258.452 656.503 258.527 656.585 258.602L657.128 259.064L657.377 259.285L657.887 259.75L658.147 259.98L658.656 260.436L658.911 260.666L659.421 261.121L659.686 261.36L660.195 261.815C660.272 261.887 660.349 261.963 660.43 262.034L660.943 262.521L661.061 262.635L662.471 263.93C670.505 271.307 680.288 280.307 708.194 297.941L710.947 299.674C725.137 308.545 740.073 315.47 755.362 321.515C745.472 316.35 735.58 311.177 725.688 305.997L718.063 302.002L725.49 305.868C735.507 311.095 745.524 316.332 755.541 321.581C760.859 323.673 766.215 325.676 771.612 327.591C779.179 330.3 786.795 332.894 794.421 335.487C823.889 345.5 853.491 355.556 880.623 372.784C900.749 385.561 914.385 404.961 928.096 424.465C938.996 439.971 949.941 455.547 964.231 467.909C965.414 468.929 966.795 469.977 968.339 471.082C979.137 478.709 997.993 487.763 1014.17 495.531C1022.95 499.769 1030.97 503.618 1036.46 506.622C1037.24 507.055 1037.98 507.472 1038.65 507.872C1037.01 506.038 1035.52 504.026 1034.03 502.01C1034.03 501.995 1034.03 501.979 1034.03 501.964C1033.77 501.615 1033.61 501.201 1033.58 500.767C1033.54 500.333 1033.62 499.898 1033.82 499.511C1034.02 499.123 1034.32 498.798 1034.69 498.574C1035.07 498.349 1035.49 498.232 1035.93 498.238L1036.5 498.246C1040.43 498.289 1044.38 498.335 1047.61 499.899C1086.35 518.574 1109.25 552.338 1128.24 588.712L1129.3 590.757C1146.74 624.197 1163 658.679 1150.32 698.51C1150.23 698.696 1150.37 699.002 1150.57 699.312C1150.67 699.484 1150.76 699.665 1150.83 699.853C1151.07 699.458 1151.33 699.075 1151.59 698.687C1152.13 697.941 1152.6 697.141 1152.98 696.301C1166.99 661.85 1163.59 626.532 1149.92 594.255L1148.11 590.009C1146.68 586.604 1145.25 583.196 1143.81 579.788C1116.05 513.558 1087.84 446.294 1029.3 400.38C989.082 368.786 942.007 348.737 894.987 328.733C880.929 322.747 866.872 316.765 853.012 310.481L849.979 309.11C847.117 307.814 844.248 306.526 841.373 305.244C801.18 287.225 760.876 269.156 730.466 235.096C711.024 213.471 721.105 193.97 731.209 174.415C731.992 172.944 732.744 171.449 733.498 169.963L735.149 166.665C737.934 161.305 741.228 156.226 744.986 151.497C754.521 139.326 761.773 132.191 768.565 130.079C758.454 126.901 749.512 126.254 742.831 122.463C731.073 115.794 732.741 98.3055 723.766 88.278C721.207 87.7096 717.799 87.0116 715.667 86.2012C705.779 82.4257 698.757 72.6552 690.98 65.2441C664.243 39.7678 618.494 26.5933 606.183 17.1051C593.501 7.33336 573.577 7.19362 558.344 9.73741C549.898 11.1494 542.426 15.3995 534.441 18.1821C526.281 21.0238 517.929 20.235 509.541 18.8508C500.218 17.313 490.353 15.4993 481.558 18.9565C481.063 19.0925 480.632 19.4 480.344 19.8242C480.165 20.2929 480.15 20.8083 480.302 21.2863C481.911 29.0901 484.073 33.2962 490.327 38.5878C494.042 41.7302 498.708 43.5153 503.32 45.0274C543.816 58.2809 589.776 59.2787 629.344 75.1175C636.114 77.8413 644.935 84.2111 643.359 90.0504C637.922 104.124 629.249 97.0427 620.704 88.6349C610.61 78.6997 593.806 71.0029 563.209 70.2205C522.208 69.1729 508.568 57.6527 472.389 43.1731C426.584 24.8317 370.995 2.60229 302.97 0.980335C299.964 0.909675 296.932 0.88016 293.875 0.891902C318.509 4.90661 338.811 9.70797 355.89 15.4831" fill="#96C3ED"/>
<path d="M1269.04 174.398C1281 164.169 1291.6 152.069 1299.12 138.188C1314.24 110.299 1332.61 75.4399 1290.44 56.7292C1269.23 47.3142 1246.23 77.1256 1227.19 81.0491C1218.97 82.7455 1211.6 83.8418 1203.51 80.4923C1201.49 79.686 1199.52 78.7537 1197.61 77.7009C1197.12 77.4521 1196.66 77.1864 1196.2 76.9119C1194.35 75.8218 1192.57 74.6243 1190.87 73.3256C1190.02 72.6857 1189.18 72.026 1188.35 71.3599L1187.12 70.3537C1178.47 63.1642 1169.17 55.2767 1163.98 45.0414C1146.96 53.4082 1138.29 63.4746 1144.62 75.5285C1153.03 91.559 1176.94 95.6686 1198.95 99.4559C1236.35 105.884 1268.23 111.368 1209.15 172.784C1204.58 177.526 1202.15 183.789 1200.54 190.774C1206.52 195.331 1212.81 199.148 1219.99 200.586C1235.15 203.617 1257.53 184.244 1269.04 174.393" fill="#5596DC"/>
<path d="M1448.2 375.532C1451.63 391.506 1448.28 417.111 1431.48 424.607C1422.08 428.796 1409.26 428.122 1401.18 435.039C1392.34 442.622 1396.22 458.57 1395.48 468.971C1394.59 481.576 1396.21 494.018 1398.12 506.518C1400.71 523.699 1401.86 541.067 1401.57 558.44L1402.87 560.347L1402.89 560.389L1405.7 564.503C1415.23 578.445 1424.92 593.537 1428.36 610.349C1432.18 629.036 1425.76 645.365 1414.45 660.085C1414.2 660.318 1414.29 660.929 1414.38 661.487C1414.4 661.667 1414.42 661.837 1414.43 661.994C1414.72 661.938 1415.03 661.894 1415.32 661.856C1416.2 661.791 1417.06 661.569 1417.86 661.201C1435.74 651.002 1443.15 632.037 1443.41 612.525C1443.68 593.193 1438.36 574.655 1432.63 556.04C1430.87 550.323 1429.13 544.604 1427.53 538.898C1424.25 527.187 1420.48 511.414 1427.03 500.053C1432.83 489.962 1445.61 486.308 1456.14 483.855C1474.75 479.53 1488.14 463.774 1489.6 444.634C1490.74 429.602 1493.53 412.137 1506.75 402.762C1518.93 394.132 1536.01 394.2 1550.25 394.186C1570.19 394.169 1585.89 381.933 1590.34 363.523C1594.88 344.776 1580.53 319.341 1573.88 301.461C1567.45 284.197 1562.21 266.521 1557.07 248.84C1553.34 236.009 1549.67 219.473 1541.32 209.836C1533.92 201.292 1527.96 188.305 1522.72 177.631C1513.5 158.922 1504.64 140.032 1497.01 120.607C1487.19 95.5725 1478.56 45.2412 1444.3 46.8893C1434.77 47.348 1427.62 49.8046 1425.9 60.0989C1425.04 65.1463 1426.13 70.5536 1427.37 75.4244C1429.27 82.8549 1431.88 91.2649 1427.8 98.467C1423.71 105.669 1415.38 113.02 1414.93 121.566C1414.26 134.384 1422.7 148.893 1427.9 160.002C1429.46 163.337 1430.26 166.784 1430.98 170.292C1431.3 171.892 1431.62 173.497 1431.98 175.097C1437.26 198.375 1441.63 222.757 1438.86 246.07C1437.81 254.889 1434.34 263.929 1435.42 272.496C1439.48 304.767 1441.06 342.559 1448.16 375.527" fill="#5596DC"/>
<path d="M179.715 89.4026C249.952 90.1508 329.816 90.9999 371.765 121.461C452.769 180.302 485.428 202.281 548.189 232.376C655.892 284.05 760.807 340.816 862.935 402.673C863.765 403.185 864.61 403.696 865.459 404.206C873.455 409.042 881.841 414.113 885.253 423.995C919.575 439.002 954.416 482.504 1017.34 509.499C1017.9 509.732 1018.45 509.984 1019 510.264C1019.2 510.355 1019.4 510.461 1019.61 510.557L1020.64 511.068L1021.56 511.552L1022.19 511.889C1039.5 521.346 1058.4 541.818 1072.39 560.946C1065.83 548.632 1058.76 536.563 1051.58 524.589L1045.17 513.95L1041.27 510.454C1040.36 509.649 1039.5 508.79 1038.7 507.882C1038.02 507.478 1037.29 507.062 1036.5 506.632C1031.01 503.605 1023.01 499.764 1014.21 495.541C998.036 487.773 979.18 478.719 968.381 471.092C966.839 470 965.457 468.939 964.274 467.918C949.984 455.557 939.039 439.981 928.138 424.475C914.427 404.971 900.792 385.571 880.666 372.794C853.534 355.566 823.932 345.51 794.463 335.496C786.838 332.904 779.222 330.31 771.654 327.6C766.272 325.672 760.913 323.691 755.598 321.599L764.5 326.252L755.414 321.519C740.111 315.475 725.17 308.551 710.998 299.679L708.245 297.945C680.341 280.325 670.553 271.325 662.522 263.934L661.113 262.639L660.995 262.526L660.482 262.038C660.401 261.967 660.323 261.891 660.247 261.82L659.737 261.364L659.472 261.125L658.963 260.67L658.708 260.44L658.198 259.984L657.939 259.754L657.429 259.289L657.179 259.068L656.637 258.606C656.55 258.531 656.468 258.456 656.383 258.386L655.835 257.924L655.572 257.7L655.01 257.231L654.743 257.016C654.55 256.854 654.353 256.697 654.157 256.54L653.894 256.324L653.289 255.841L653.017 255.626L652.388 255.136L652.117 254.926L651.454 254.421L651.183 254.22C650.952 254.048 650.721 253.871 650.481 253.7L650.216 253.503C649.975 253.323 649.716 253.149 649.48 252.968L649.211 252.776C648.956 252.593 648.709 252.403 648.431 252.222L648.172 252.039L647.335 251.462L647.09 251.292L646.195 250.688L645.971 250.534L644.979 249.899L644.79 249.773L643.729 249.089L643.6 249.009C640.755 247.187 637.462 245.215 633.574 243.037L633.279 242.871L632.045 242.185L631.442 241.855L630.332 241.245L629.512 240.797C629.183 240.616 628.84 240.432 628.497 240.252C628.154 240.073 627.83 239.891 627.487 239.707L626.555 239.21L625.448 238.623L622.858 237.273L611.603 231.459C609.599 230.42 607.585 229.381 605.56 228.343C596.993 223.935 588.171 219.386 578.964 214.136C529.263 186.796 484.565 156.055 457.692 107.868C439.779 75.747 423.675 51.9619 396.074 34.2139C385.098 27.0497 370.998 20.6361 355.949 15.468C338.87 9.69279 318.568 4.89144 293.933 0.876731C296.99 0.861924 300.022 0.89145 303.029 0.965176C300.934 0.734032 298.828 0.61238 296.72 0.60083C180.431 0.739778 25.5543 13.3175 47.0062 63.7773C57.3452 88.1007 114.386 88.7069 179.766 89.4022L179.715 89.4026ZM777.506 333.048L777.996 333.31L778.353 333.498L778.962 333.832C779.298 333.938 779.631 334.063 779.969 334.197C780.307 334.33 780.644 334.455 780.98 334.561C781.172 334.682 781.353 334.82 781.522 334.972L781.991 335.39C782.326 335.496 782.664 335.625 782.997 335.754C783.33 335.884 783.672 336.008 784.008 336.118L784.017 336.21C783.682 336.104 783.344 335.975 783.006 335.846C782.668 335.717 782.336 335.592 782 335.482L781.871 335.401C781.811 335.361 781.751 335.316 781.69 335.266C781.61 335.204 781.534 335.138 781.463 335.075L780.989 334.658C780.802 334.588 780.603 334.505 780.395 334.419L779.913 334.24C779.627 334.124 779.338 334.018 779.046 333.926C778.315 333.58 777.579 333.184 776.847 332.774L776.508 332.585L777.506 333.048Z" fill="#5596DC"/>
<path d="M25.8742 226.199C26.4409 226.013 27.007 225.822 27.5677 225.623L27.7424 225.559C36.5352 222.45 44.8663 217.725 53.1793 213.006C56.599 211.061 60.0151 209.125 63.4564 207.304L63.6546 207.196L64.6477 206.675L65.0277 206.479L65.9863 205.985L66.2564 205.852C66.8489 205.551 67.4432 205.27 68.026 204.966L68.5259 204.717L69.3507 204.324L69.9363 204.048L70.7485 203.67L71.3617 203.391C71.8061 203.189 72.2509 202.992 72.6956 202.795L73.3988 202.488L74.1615 202.171L74.8348 201.891L75.5984 201.583L76.296 201.315L77.0431 201.027C77.4915 200.867 77.9031 200.71 78.334 200.56L79.0612 200.307L79.7933 200.058L80.549 199.812L81.2789 199.586L82.0225 199.359L82.9575 199.095L84.0474 198.801L84.8402 198.602L85.6023 198.42L86.3518 198.253L87.1156 198.089L87.9406 197.933C88.3278 197.858 88.7159 197.791 89.104 197.725C89.4029 197.695 89.7023 197.624 90.0182 197.579L90.7879 197.475L91.5582 197.375L92.3491 197.297C92.6158 197.27 92.8824 197.244 93.1491 197.218C93.4158 197.191 93.6549 197.167 93.9078 197.142C94.3676 197.097 94.8306 197.084 95.2927 197.061L96.0793 197.034L96.8766 197.02L97.6931 197.014L98.4886 197.028L99.3028 197.045L100.385 197.1C100.768 197.122 101.156 197.149 101.54 197.181L102.369 197.252L103.224 197.348L104.018 197.446L104.885 197.569L105.734 197.708C105.975 197.749 106.206 197.782 106.452 197.827C109.116 198.316 111.782 198.79 114.449 199.25L115.233 199.382C117.537 199.772 119.845 200.163 122.156 200.553L124.132 200.868C126.048 201.18 127.967 201.484 129.887 201.78L132.306 202.148C134.097 202.417 135.886 202.682 137.673 202.945L140.241 203.318L145.552 204.064L148.07 204.409C149.931 204.661 151.791 204.907 153.65 205.147L155.852 205.435C158.122 205.73 160.395 206.018 162.67 206.297L163.609 206.408C166.254 206.731 168.899 207.047 171.545 207.354L172.64 207.483C174.87 207.742 177.1 207.995 179.332 208.241C180.083 208.329 180.834 208.408 181.589 208.482C183.467 208.689 185.335 208.894 187.194 209.097L189.624 209.353L195.184 209.935L197.432 210.177C199.443 210.387 201.458 210.591 203.478 210.79L205.073 210.953C215.758 212.018 226.451 213.047 237.152 214.04C258.445 216.05 279.743 218.064 300.987 220.52L301.456 220.571C303.554 220.816 305.656 221.063 307.761 221.312L309.171 221.484L314.572 222.152L316.373 222.377C318.065 222.59 319.757 222.81 321.448 223.035L323.376 223.286C325.108 223.52 326.834 223.756 328.554 223.994L330.257 224.225C332.543 224.546 334.824 224.873 337.101 225.205C337.263 225.232 337.422 225.272 337.577 225.325L337.712 225.372L338.06 225.514L338.182 225.567L338.563 225.761C338.739 225.85 338.92 225.944 339.109 226.027C338.673 226.071 338.227 226.115 337.79 226.158C336.433 226.378 335.06 226.475 333.686 226.448C290.233 223.707 246.769 222.922 203.62 228.026C191.303 229.496 179.125 231.292 167.132 233.496L166.717 233.57L164.839 233.923L163.276 234.221L161.454 234.578L159.86 234.894L158.039 235.26L156.383 235.605C155.805 235.723 155.222 235.841 154.645 235.968C153.59 236.188 152.54 236.417 151.49 236.647L149.868 237.007L148.101 237.405L148.041 237.411L155.911 237.166C159.244 237.068 162.584 236.975 165.931 236.888C224.553 235.402 284.848 236.002 340.6 242.159L344.356 242.581C353.095 243.573 368.546 246.737 386.968 250.898L391.745 251.725L392.269 251.817L392.68 251.888C394.475 252.198 396.267 252.517 398.053 252.832L399.022 253.006C457.024 263.314 514.184 276.185 567.292 301.785L567.375 301.828C568.373 302.308 569.37 302.794 570.366 303.287L570.527 303.364L573.457 304.824L573.638 304.917C574.615 305.406 575.593 305.903 576.571 306.401L576.737 306.486C577.718 307.008 578.698 307.53 579.678 308.052L579.767 308.099C584.894 310.805 589.974 313.645 595.004 316.62C597.412 318.048 599.713 319.648 601.89 321.408L601.951 321.457C602.37 321.792 602.779 322.132 603.19 322.477L603.301 322.568C603.696 322.9 604.086 323.233 604.473 323.571L604.615 323.696C604.992 324.03 605.363 324.36 605.736 324.7L605.899 324.851C606.262 325.182 606.625 325.517 606.983 325.853L607.158 326.021C607.511 326.358 607.865 326.694 608.215 327.036C608.276 327.09 608.337 327.149 608.394 327.208C608.744 327.55 609.093 327.891 609.425 328.239L609.59 328.409C609.941 328.759 610.292 329.115 610.624 329.472L610.769 329.62C611.13 329.988 611.488 330.361 611.84 330.73L611.934 330.833C612.312 331.227 612.69 331.626 613.064 332.025C613.581 332.555 614.051 333.088 614.536 333.621L615.082 334.217L615.37 334.537L615.552 334.737L616.204 335.457L617.278 336.651C618.504 338.052 619.276 339.324 619.597 340.465C619.639 340.615 619.672 340.766 619.698 340.92C619.698 340.92 619.698 340.92 619.701 340.956C619.724 341.095 619.738 341.234 619.743 341.375L619.756 341.513C619.76 341.554 619.764 341.595 619.768 341.632L621.159 342.456C643.331 355.355 705.459 383.145 727.309 420.365C738.01 429.59 753.617 440.108 780.202 452.798C808.702 466.398 840.736 471.371 869.541 484.301L870.056 484.528C886.735 491.852 944.096 509.62 965.308 520.753C1051.27 565.87 1073.55 594.941 1087.73 618.363L1089.46 621.265L1089.56 619.458C1089.62 618.413 1089.7 617.361 1089.77 616.3C1090.1 611.428 1090.44 606.482 1089.93 601.704C1089.66 598.858 1088.97 596.066 1087.9 593.417C1083.28 582.336 1078.02 571.542 1072.37 560.939C1057.06 540.005 1035.88 517.456 1017.32 509.497C954.393 482.501 919.552 438.999 885.23 423.992C883.76 423.497 882.286 423.024 880.808 422.573L880.444 422.456L878.46 421.84L878.284 421.787L876.367 421.192L874.499 420.616L873.221 420.223L872.444 419.979L870.345 419.319L869.387 419.023L868.231 418.646L866.637 418.116L865.503 417.732L864.31 417.311L863.348 416.97C862.789 416.77 862.23 416.561 861.675 416.351L860.777 416.004C860.304 415.824 859.836 415.639 859.371 415.446L858.529 415.103C858.015 414.889 857.502 414.67 856.987 414.443L856.537 414.255C844.433 408.874 832.511 403.169 820.707 397.201C747.238 360.166 678.67 313.856 603.324 280.359C588.802 273.907 574.217 267.648 559.569 261.583C556.907 248.771 541.772 241.986 528.829 237.84C458.143 215.202 391.77 185.766 319.379 167.072C312.818 165.377 306.209 163.677 299.452 163.19C290.16 162.522 280.87 164.175 271.559 164.392C250.537 164.885 230.123 158.108 209.439 154.324C176.291 148.343 142.216 150.007 109.809 159.189L104.489 157.747C78.6897 154.353 47.0443 154.613 19.0189 157.388C-9.00656 160.163 -51.3141 167.208 -61.7178 179.135C-61.7178 179.135 -62.2432 182.363 -62.8131 186.831C-63.52 192.259 -64.3058 199.515 -64.3135 205.064C-64.9965 237.463 -6.94398 236.747 25.8407 226.188" fill="#FBC998"/>
<path d="M1001.14 79.2975C1006.17 83.9952 1012.02 87.7433 1017.1 92.385C1024.75 99.3717 1040.16 109.329 1057.46 124.661C1068.17 129.306 1077.92 136.528 1086.01 145.008C1099.32 158.952 1108.71 176.131 1117.11 193.467C1130.34 220.764 1141.91 249.164 1150.64 278.233C1154.9 292.387 1153.93 298.305 1150.42 299.149C1153.36 304.551 1156.5 309.812 1159.85 314.931C1184.34 352.215 1225.12 372.971 1252.14 407.321C1268.61 428.265 1292.66 438.768 1300.43 442.907C1339.21 463.555 1380.51 510.243 1378.02 538.888C1376.73 553.739 1396.6 549.928 1398.81 516.584C1403.39 447.877 1391.15 439.134 1393.53 404.45C1394.38 392.187 1390.91 378.309 1397.62 368.014C1402.94 359.849 1412 354.657 1417.27 346.456C1427.41 330.677 1425.49 292.026 1424.42 286.923C1418.31 258.021 1418.2 216.963 1413.36 187.67C1408.05 155.568 1391.39 128.5 1370.28 104.296C1368.62 102.44 1367.8 101.513 1366.2 99.6663C1359.45 91.7678 1352.9 83.7294 1346.72 75.375C1344.66 72.5983 1343.67 71.2244 1341.75 68.5123C1341.33 67.7551 1341.13 67.3806 1340.72 66.6271C1333.47 53.4712 1326.13 40.3378 1317.16 28.2253C1314.6 24.8377 1311.78 21.6538 1308.72 18.7022C1307.11 17.1246 1295.8 2.56483 1280.33 -3.98255C1277.33 -5.24495 1274.04 -5.64126 1270.83 -5.12648C1226.55 1.88191 1194.64 29.943 1163.97 45.0234C1169.17 55.2582 1178.46 63.1463 1187.12 70.3357L1188.35 71.342C1189.18 72.0076 1190.02 72.6672 1190.86 73.3076C1192.57 74.6063 1194.35 75.8038 1196.19 76.8939C1196.66 77.1638 1197.13 77.4282 1197.6 77.6829C1199.51 78.7357 1201.48 79.668 1203.5 80.4744C1211.6 83.8238 1218.96 82.7275 1227.19 81.0312C1246.22 77.1076 1269.22 47.2962 1290.43 56.7112C1332.61 75.449 1314.24 110.299 1299.14 138.196C1291.62 152.076 1281.02 164.176 1269.06 174.406C1257.55 184.256 1235.16 203.629 1220 200.599C1212.82 199.16 1206.54 195.343 1200.55 190.787C1196.36 187.594 1192.34 183.706 1190.48 178.783C1188.61 173.861 1185.51 166.172 1182.02 162.208C1176.83 156.282 1155.16 141.384 1149.06 137.78C1127.63 125.118 1044.9 72.7451 1021.99 63.0011C1013.59 59.4311 1004.7 56.2115 995.594 56.793C994.21 56.879 992.707 57.1299 991.843 58.1999C991.065 59.1591 991.031 60.5043 991.152 61.732C991.83 68.5786 996.138 74.5736 1001.15 79.2773" fill="#96C3ED"/>
<path d="M1119.63 267.077C1113.22 250.458 1110.62 232.324 1101.97 216.743C1099.29 211.901 1095.98 207.298 1091.44 204.135C1087.14 201.13 1081.98 199.607 1077.41 197.028C1070.16 192.953 1064.66 186.44 1059.33 180.064C1047.32 165.708 1035.31 151.353 1023.29 137.001C1021.47 134.814 1019.56 132.449 1019.27 129.612C1018.55 122.255 1028.32 118.78 1035.7 119.257C1054.94 120.509 1072.68 131.061 1086 145.009C1099.31 158.958 1108.7 176.132 1117.11 193.468C1130.33 220.765 1141.9 249.165 1150.63 278.234C1163.71 321.728 1127.5 287.489 1119.62 267.064" fill="#5596DC"/>
<path d="M828.332 1.21414C819.612 -0.19294 812.233 8.13858 808.045 14.0554C802.938 21.2752 799.391 30.2814 795.421 38.7303C792.289 45.4063 788.518 55.3818 781.594 58.0965C774.398 60.9216 762.607 55.5097 754.694 53.7163C748.334 52.2706 741.862 50.7291 735.414 50.1835C733.911 50.0538 732.367 49.9374 730.845 49.8094C724.406 49.2584 709.719 46.1577 704.894 52.2863C697.676 61.4516 717.328 80.7946 721.968 86.1995C722.576 86.9008 723.183 87.5883 723.773 88.2542C732.752 98.2812 731.081 115.77 742.838 122.439C749.519 126.23 758.46 126.873 768.573 130.055C779.456 133.477 792.763 141.534 800.655 152.17C801.679 153.549 802.672 155.044 803.653 156.516C804.635 157.988 805.603 159.466 806.525 160.949C819.423 181.713 828.15 203.215 829.845 227.647C831.514 251.728 849.705 267.469 869.199 279.069L871.388 280.361C874.306 282.069 877.248 283.737 880.155 285.385L883.229 287.124L883.937 287.518L884.517 287.846C884.818 288.021 885.123 288.19 885.418 288.365L887.845 289.755C888.934 290.385 889.48 290.698 890.575 291.342C891.155 291.674 891.745 291.996 892.33 292.324C893.926 293.228 895.527 294.125 897.132 295.015C897.958 295.472 898.791 295.919 899.617 296.376C900.961 297.109 902.309 297.839 903.659 298.566C904.596 299.072 905.537 299.569 906.474 300.07C907.719 300.733 908.965 301.384 910.214 302.022L913.219 303.581C914.413 304.197 915.603 304.813 916.8 305.418L919.934 307.012C921.094 307.593 922.253 308.174 923.413 308.752C924.487 309.286 925.566 309.825 926.645 310.354L930.06 312.017C931.167 312.553 932.27 313.094 933.376 313.625C934.483 314.156 935.595 314.692 936.705 315.218C937.816 315.744 938.967 316.303 940.116 316.835L943.342 318.373L946.843 320.013C947.597 320.366 948.356 320.709 949.115 321.061C951.752 322.276 954.394 323.485 957.042 324.687L959.994 326.029L963.637 327.66L966.83 329.09L970.267 330.607L973.764 332.155L976.866 333.519L980.895 335.289L983.364 336.363L988.702 338.69L989.527 339.045L994.864 341.362L1002.69 344.767L1010.99 348.355C1018.96 351.801 1026.91 355.27 1034.84 358.762C1035.02 358.838 1035.2 358.918 1035.37 358.998C1037.17 359.789 1038.96 360.583 1040.75 361.381L1042.75 362.279L1046.69 364.048L1049.2 365.192L1052.67 366.771L1055.37 368.004L1058.66 369.535L1061.44 370.829L1064.65 372.331L1067.44 373.652L1070.66 375.191L1073.4 376.457L1076.65 378.038C1077.55 378.475 1078.45 378.913 1079.34 379.35L1082.69 381.002L1085.26 382.283C1086.44 382.873 1087.61 383.472 1088.78 384.066C1089.58 384.452 1090.37 384.865 1091.17 385.274C1092.47 385.939 1093.77 386.618 1095.08 387.292L1097.04 388.315C1099 389.337 1100.95 390.371 1102.89 391.417C1104.41 392.223 1105.17 392.626 1106.68 393.437C1113.05 396.74 1119.42 400.599 1125.91 403.142C1134.74 406.599 1147.34 405.351 1161.98 412.186C1186.43 423.602 1201.74 425.953 1223.87 441.694C1235.03 449.629 1246.45 458.096 1256.02 467.925C1268.68 480.93 1278.81 496.471 1289.37 511.133C1293.01 516.193 1296.69 521.246 1300.39 526.293C1303.18 530.084 1306.02 533.845 1308.9 537.574C1311.18 540.506 1312.3 541.931 1314.46 544.605C1316.6 547.179 1318.79 549.693 1321.23 551.532C1322.33 552.352 1323.42 553.209 1324.47 554.019C1324.83 554.291 1325.2 554.551 1325.52 554.812C1331.49 559.612 1337.57 558.782 1342.79 555.126C1348.02 551.469 1349.21 547.712 1344.1 542.256C1343.53 541.612 1343 540.94 1342.5 540.241C1341.75 539.238 1341.35 538.706 1340.54 537.593C1321.97 512.14 1304.91 484.419 1283.05 461.566C1271.22 449.207 1256.31 437.688 1242.63 427.402C1214.54 406.285 1184.48 387.916 1153.82 370.825C1151.61 369.594 1149.4 368.372 1147.19 367.158C1140.54 363.514 1133.87 359.906 1127.16 356.335L1122.75 353.986C1115.95 350.412 1109.12 346.878 1102.28 343.384C1062.29 322.91 1020.43 301.23 994.432 265.54C982.497 249.148 982.348 229.081 982.905 208.73C980.787 187.335 981.288 164.26 975.975 143.432C970.663 122.604 961.298 102.354 946.083 87.1682C938.442 79.5392 929.38 73.2256 923.014 64.5C910.087 46.7708 909.209 20.4566 891.386 7.68357C884.031 2.42222 874.852 0.41973 865.867 -0.617497C853.852 -2.00939 840.353 -0.380223 828.376 1.23755" fill="#5596DC"/>
</g>
<path d="M960.037 160.912C945.135 164.174 929.379 176.501 907.048 184.416C890.751 190.192 871.737 193.196 854.988 198.643C840.664 203.292 825.587 212.329 814.387 216.996C802.027 222.148 793.978 222.975 788.414 226.122L788.16 226.256L788.77 225.905C792.402 223.839 796.015 222.347 800.081 220.67C806.207 218.246 812.172 215.434 817.94 212.251C821.221 210.403 825.06 207.797 829.126 205.015C836.228 200.159 844.023 194.827 850.746 192.433C858.878 189.545 867.588 187.96 876.159 186.399C888.473 184.158 900.519 181.968 910.167 176.026C939.175 158.176 971.621 147.175 995.759 147.175C1027.7 147.175 1061.19 146.066 1085.77 144.402C1075.06 148.289 1064.14 151.556 1053.05 154.189C1024.53 160.828 993.665 153.542 960.032 160.907" fill="#5596DC"/>
<path d="M44.2788 913.586C11.8515 861.836 42.8556 805.229 55.6592 754.5C59.1385 740.726 59.0138 726.111 63.3202 712.577C67.2384 700.263 75.7173 689.802 80.1114 677.655L84.27 666.14C91.3672 646.309 83.526 634.9 85.9888 627.013L86.5525 625.165L89.7084 618.594C92.6009 612.537 96.057 593.315 100.183 584.402L102.105 580.243C125.31 530.078 106.962 489.186 115.293 440.189C125.241 381.665 130.185 459.988 123.54 367.105C120.056 318.441 95.752 264.357 67.682 224.602C63.7776 219.057 57.027 209.816 50.6598 195.39C44.2927 180.965 36.5116 130.319 21.1805 99.3885C16.5982 90.1896 10.5529 81.7957 3.28035 74.5344C20.4874 82.8514 32.9491 76.073 45.993 68.9897C52.4895 65.4642 59.134 61.8555 66.5777 59.9934C86.936 54.9108 93.6313 70.5052 101.389 88.5902C102.725 91.7045 104.092 94.8927 105.548 98.0624L106.472 100.054C112.271 112.77 116.314 137.019 120.62 162.838C123.767 181.713 127.057 201.425 131.271 218.087L131.894 220.503C135.725 235.063 147.637 243.144 159.535 251.184C165.112 254.964 170.689 258.739 175.425 263.197C199.318 285.69 210.199 320.627 199.225 342.565C195.46 349.958 188.806 353.83 181.949 357.314L176.811 359.892C175.082 360.708 173.31 361.428 171.502 362.05C165.731 364.153 159.816 366.31 160.024 372.798C160.255 380.112 167.491 383.346 174.117 385.735L177.952 387.122C185.207 389.806 192.918 391.405 200.593 392.994C202.677 393.429 204.752 393.858 206.831 394.311L207.293 394.413C208.517 394.676 209.779 394.875 211.04 395.087C216.724 396.012 222.467 396.963 225.202 403.164C228.497 410.659 224.87 417.026 220.97 422.991L219.122 425.8C212.5 435.582 203.093 442.772 191.92 445.47L191.038 445.692C166.646 452.008 161.656 470.098 156.24 489.699C155.464 492.508 154.683 495.349 153.828 498.191L153.181 500.317C143.353 531.737 131.571 562.533 119.793 593.301C104.148 634.156 88.5117 675.007 77.4638 717.382L76.9324 719.392C73.5964 731.822 69.484 744.062 65.381 756.297C56.8652 781.646 48.3496 806.985 46.7601 833.992C43.7382 885.1 72.3535 927.48 128.743 953.097L128.591 953.028L123.85 952.164C101.847 948.097 81.7055 943.782 63.0153 935.529C55.7946 929.13 49.5105 921.746 44.348 913.596" fill="#96C3ED"/>
<path d="M261.955 195.414C253.993 213.087 243.556 229.939 239.499 248.892C233.57 276.569 241.744 306.649 231.385 332.987C230.599 334.974 229.578 337.076 227.656 338.019C221.89 340.851 218.184 331.55 218.415 325.123C220.1 272.288 217.007 219.409 209.174 167.131C207.954 159.013 206.6 150.825 203.472 143.233C198.722 131.682 190.105 122.062 185.595 110.427C182.972 103.531 181.853 96.1542 182.315 88.7907C182.776 81.4271 184.807 74.2474 188.27 67.7329C199.323 61.0932 214.418 66.5223 222.731 76.378C231.043 86.2338 234.236 99.2961 237.179 111.85C239.554 121.988 241.931 132.124 244.309 142.258C244.743 144.107 245.26 146.093 246.721 147.304C257.708 156.388 260.615 130.023 271.302 147.641C278.141 158.911 266.631 185.091 261.992 195.39" fill="#5596DC"/>
<path d="M390.822 229.255C398.289 221.372 404.656 212.861 411.499 204.474C418.892 195.39 429.104 189.342 439.223 183.885C456.781 174.431 475.596 166.867 493.201 157.118C519.164 142.739 543.353 134.588 573.137 135.087C597.917 135.508 619.527 122.196 637.968 106.809C646.687 99.5317 657.925 96.8009 668.335 93.1599C682.164 88.3175 696.086 82.9484 710.216 78.9285C726.235 74.3726 751.621 66.8365 767.802 73.0234C770.69 74.1277 772.242 76.2578 770.542 79.118C769.587 80.6754 768.435 82.1027 767.114 83.3643C746.783 89.2971 726.804 97.032 707.087 104.721C701.668 106.832 696.151 109.009 691.456 112.382L690.587 112.663C690.615 112.765 690.638 112.867 690.666 112.968C690.121 113.384 689.586 113.819 689.063 114.271C683.781 118.892 680.339 125.194 676.254 130.905C671.423 137.629 665.621 143.599 659.038 148.621C646.1 145.687 633.916 143.159 621.024 145.363C608.706 147.466 601.419 154.965 591.762 163.069C577.831 174.759 562.034 185.415 546.458 194.406C532.781 202.307 516.123 204.812 500.603 208.268C482.37 212.339 464.867 217.139 447.434 223.812C431.063 230.077 416.12 237.553 401.025 246.508C390.721 252.626 369.434 264.958 366.278 262.578C363.122 260.199 384.695 235.742 390.845 229.245" fill="#96C3ED"/>
<path d="M1330.65 114.313C1328.27 114.752 1325.79 115.32 1324.01 116.956C1321.41 119.349 1321.07 123.263 1320.9 126.793C1320.32 138.76 1320.44 152.451 1329.33 160.459C1340.45 170.439 1357.63 165.541 1372.47 163.795C1393.4 161.35 1414.67 166.567 1435.6 164.017C1471.7 159.627 1501.92 132.948 1537.86 127.375C1548.32 125.753 1559.45 125.846 1568.66 120.634C1571.65 118.947 1574.65 115.621 1573.25 112.497C1572.43 110.649 1570.39 109.748 1568.5 109.045C1533.73 96.0478 1492.67 101.38 1462.38 122.829C1457.22 126.479 1452.35 130.568 1446.85 133.664C1430.09 143.095 1408.07 140.951 1392.44 130.198C1385.01 125.088 1380.96 116.873 1373.03 113.412C1362.04 108.625 1341.97 112.211 1330.66 114.313" fill="#96C3ED"/>
<path d="M897.238 107.077L1013.91 87.5413C1022.69 86.0673 1031.72 84.5194 1039.45 80.0467C1046.45 75.9852 1052.03 69.7059 1059.24 66.0233C1067.14 61.9941 1076.29 61.4027 1085.16 61.2317C1116.47 60.5873 1147.73 63.8814 1178.22 71.0366C1185.77 72.8109 1194.8 76.5397 1195.4 84.2699C1196.05 92.7441 1186.04 97.702 1177.68 99.2406C1146.08 105.049 1113.15 96.7178 1081.58 102.586C1056.77 107.207 1034.38 120.255 1010.12 127.177C987.353 133.673 963.451 134.644 939.78 135.572L869.759 138.317C859.017 138.737 848.13 139.181 837.877 142.369C824.542 146.505 813.079 154.983 801.375 162.57C775.27 179.463 746.834 192.446 716.971 201.106C726.933 177.121 749.134 158.597 774.52 153.126C800.566 147.503 807.631 136.764 829.542 125.264C850.14 114.452 874.606 110.871 897.266 107.077" fill="#5596DC"/>
<path d="M560.597 221.589C571.737 207.903 590.256 201.855 601.346 188.122C605.181 183.372 608.022 177.814 612.361 173.521C620.063 165.897 631.241 163.328 641.203 159.063C655.232 153.027 667.353 143.283 676.264 130.878C680.348 125.171 683.791 118.864 689.072 114.244C694.215 109.743 700.725 107.174 707.092 104.693C746.912 89.1679 787.8 73.4209 830.54 72.811C851.333 72.5153 872.098 75.8282 892.835 74.4559C933.861 71.739 971.149 51.1312 1008.85 34.7189C1046.56 18.3066 1096.54 6.76899 1128.27 19.7066C1136.23 28.1207 1089.14 25.1127 1076.68 40.7811C1070.07 49.0982 1064.32 58.4086 1057.79 66.8135C1051.27 70.5562 1045.98 76.2533 1039.46 80.033C1031.74 84.5057 1022.73 86.0397 1013.93 87.5276L897.238 107.077C874.598 110.871 850.109 114.47 829.515 125.264C807.604 136.769 800.539 147.503 774.493 153.126C749.107 158.615 726.901 177.121 716.943 201.106C718.232 200.732 719.522 200.339 720.806 199.946C704.241 208.725 687.921 217.967 671.777 227.467C661.963 233.252 652.024 239.221 640.958 241.915C634.72 243.431 628.237 243.87 622.097 245.736C604.418 251.11 599.04 246.12 599.456 245.561C601.419 242.788 600.019 241.139 596.42 241.051C580.451 240.668 564.714 250.639 558.245 265.244C555.509 271.418 554.294 278.302 550.575 283.939C546.855 289.576 539.231 293.619 533.326 290.339C547.728 270.091 544.942 240.857 560.629 221.589" fill="#5596DC"/>
<path d="M783.54 228.927L786.192 227.397L788.151 226.265L788.414 226.122C793.959 222.975 802.027 222.148 814.387 216.996C825.587 212.329 840.683 203.292 854.988 198.643C871.737 193.205 890.751 190.192 907.048 184.416C929.379 176.501 945.135 164.174 960.037 160.912C993.67 153.546 1024.54 160.833 1053.06 154.193C1064.14 151.561 1075.06 148.293 1085.77 144.407C1117.42 133.091 1143.34 119.234 1159.7 117.034C1183.55 113.828 1198.88 103.635 1210.56 91.7275C1214.88 91.3902 1252.1 42.084 1268.34 42.084C1300.08 42.084 1317.56 57.1194 1328.17 99.4301C1328.43 100.44 1328.69 101.44 1328.94 102.429C1328.69 101.44 1328.42 100.442 1328.17 99.4301C1328.42 100.442 1328.69 101.445 1328.95 102.438C1328.97 102.517 1328.99 102.595 1329.01 102.674C1329.28 103.667 1329.55 104.656 1329.82 105.626V105.668C1329.96 106.162 1330.1 106.657 1330.25 107.146C1330.39 107.636 1330.53 108.121 1330.68 108.607V108.657C1330.89 109.387 1331.12 110.117 1331.34 110.834C1331.11 110.119 1330.89 109.394 1330.68 108.657C1330.94 109.558 1331.22 110.441 1331.49 111.319C1331.58 111.596 1331.68 111.869 1331.76 112.146C1331.96 112.77 1332.16 113.393 1332.37 113.994L1332.18 113.421L1332.37 113.994L1330.63 114.318C1328.25 114.757 1325.77 115.325 1323.99 116.961C1321.38 119.354 1321.04 123.268 1320.88 126.798C1320.3 138.765 1320.41 152.456 1329.31 160.463C1340.43 170.444 1357.61 165.546 1372.45 163.804C1393.38 161.351 1414.65 166.576 1435.57 164.021C1446.09 162.741 1456.11 159.572 1465.92 155.579L1467.91 155.39L1468.37 155.344C1469.33 155.247 1470.28 155.15 1471.24 155.043H1471.4C1472.27 154.946 1473.14 154.849 1474.01 154.743L1474.63 154.669L1477.08 154.36L1477.44 154.313C1478.36 154.189 1479.32 154.055 1480.25 153.921L1480.68 153.861L1483.05 153.5L1483.69 153.398C1484.57 153.255 1485.45 153.112 1486.33 152.936H1486.44C1487.37 152.775 1488.29 152.608 1489.24 152.433L1489.8 152.327C1490.55 152.183 1491.3 152.035 1492.06 151.864L1492.67 151.74C1494.52 151.361 1496.35 150.956 1498.16 150.524L1498.8 150.372L1501.03 149.818L1501.59 149.674C1502.51 149.44 1503.43 149.195 1504.33 148.94L1504.56 148.875C1505.38 148.644 1506.2 148.413 1507.03 148.163L1507.69 147.965C1508.45 147.734 1509.21 147.496 1509.98 147.253L1510.41 147.119C1511.32 146.83 1512.22 146.529 1513.12 146.218L1513.58 146.061C1514.33 145.802 1515.08 145.536 1515.82 145.262L1516.49 145.017C1517.31 144.716 1518.12 144.411 1518.93 144.093L1519.17 144C1520.07 143.649 1520.96 143.289 1521.84 142.919L1522.43 142.674C1523.14 142.366 1523.85 142.058 1524.55 141.75L1525.2 141.464C1526.08 141.071 1526.96 140.669 1527.84 140.253L1528.77 139.828C1529.79 139.369 1530.83 138.955 1531.87 138.585L1532.01 138.534L1532.9 138.229L1533.13 138.155L1533.94 137.901L1534.23 137.818L1534.98 137.601L1535.3 137.513L1536.02 137.323L1536.38 137.236L1537.07 137.069L1537.45 136.986L1538.12 136.843L1538.52 136.764L1539.18 136.635L1539.58 136.561L1540.23 136.45L1540.65 136.381L1541.29 136.284L1541.72 136.224L1542.36 136.141L1542.78 136.09L1543.42 136.016L1543.86 135.97L1544.49 135.905L1544.95 135.868L1545.58 135.817L1546.05 135.785L1546.68 135.743L1547.14 135.716L1547.72 135.683H1548.19L1548.83 135.655H1549.27H1549.91H1550.37H1551.01H1553.67H1554.3H1554.7H1555.42H1555.79L1556.54 135.683H1556.88L1557.67 135.716H1557.96L1558.84 135.757H1559.05L1560.03 135.808H1560.14C1560.99 135.854 1561.85 135.9 1562.71 135.956L1564.4 136.057L1566.35 136.178L1566.73 136.201L1567.13 136.224H1567.26L1567.85 136.247H1568.31H1568.88H1569.9H1570.37H1570.91H1571.37L1571.9 136.219L1572.33 136.191L1572.85 136.15L1573.23 136.145L1573.74 136.09L1574.14 136.044L1574.64 135.974L1575.02 135.919L1575.51 135.836L1575.88 135.771L1576.34 135.679L1576.7 135.605L1577.16 135.494L1577.5 135.415L1577.96 135.295L1578.28 135.203L1578.75 135.069L1579.06 134.976L1579.52 134.828L1579.81 134.722L1580.25 134.565L1580.54 134.454L1580.97 134.279L1581.24 134.168L1581.67 133.978L1581.92 133.858L1582.34 133.655L1582.59 133.53L1582.99 133.317L1583.22 133.188L1583.63 132.957L1583.85 132.828L1584.24 132.583L1584.45 132.449L1584.84 132.19L1585.03 132.051L1585.41 131.779L1585.59 131.64C1585.72 131.543 1585.85 131.451 1585.97 131.349L1586.14 131.21C1586.27 131.113 1586.39 131.012 1586.51 130.905L1586.67 130.767L1587.04 130.448L1587.18 130.309C1587.3 130.199 1587.42 130.088 1587.54 129.972L1587.68 129.838L1588.03 129.482L1588.15 129.353C1588.27 129.228 1588.39 129.103 1588.51 128.974L1588.62 128.854C1588.73 128.72 1588.85 128.591 1588.96 128.457L1589.06 128.336C1589.18 128.202 1589.3 128.064 1589.41 127.925L1589.49 127.814L1589.84 127.375C1589.84 127.343 1589.88 127.306 1589.91 127.274C1590.03 127.121 1590.14 126.969 1590.25 126.812C1590.25 126.784 1590.29 126.756 1590.31 126.724C1590.42 126.567 1590.53 126.405 1590.64 126.239L1590.7 126.165C1590.81 125.994 1590.92 125.827 1591.03 125.652L1591.07 125.596C1591.18 125.416 1591.29 125.236 1591.4 125.056L1591.43 125.019C1591.54 124.829 1591.65 124.64 1591.76 124.446C1594.91 118.929 1596.55 112.035 1597.97 104.984L1599.05 99.4393L1597.97 104.956C1598.01 104.319 1600.79 63.5235 1645.31 62.6779V175.794C1640.35 174.981 1635.39 174.219 1630.45 173.646C1611.04 171.386 1592.13 171.987 1576.03 183.612C1575.28 184.152 1574.54 184.717 1573.8 185.308C1572.7 186.192 1571.61 187.132 1570.53 188.127C1569.82 188.792 1569.11 189.484 1568.4 190.201C1567.7 190.919 1567 191.663 1566.31 192.433C1555.71 204.331 1549.25 218.771 1548.35 233.811C1548.3 234.701 1548.26 235.594 1548.25 236.49V236.953C1548.21 243.432 1549.2 249.877 1551.2 256.04C1551.34 256.465 1551.48 256.881 1551.62 257.292L1551.76 257.648C1551.86 257.935 1551.96 258.216 1552.07 258.494C1552.12 258.632 1552.18 258.771 1552.23 258.91C1552.34 259.165 1552.44 259.415 1552.54 259.658C1552.59 259.797 1552.65 259.935 1552.71 260.069C1552.82 260.319 1552.93 260.559 1553.04 260.799L1553.2 261.169L1553.59 261.973C1553.63 262.056 1553.67 262.139 1553.71 262.218C1553.89 262.564 1554.06 262.902 1554.24 263.234L1554.32 263.364C1554.47 263.646 1554.63 263.923 1554.78 264.191L1554.96 264.487C1555.09 264.699 1555.22 264.912 1555.35 265.115C1555.42 265.226 1555.49 265.328 1555.55 265.434C1555.68 265.628 1555.81 265.822 1555.94 266.007L1556.15 266.312C1556.29 266.506 1556.42 266.695 1556.57 266.885L1556.76 267.139C1556.93 267.374 1557.11 267.601 1557.3 267.827L1557.38 267.924C1557.59 268.183 1557.8 268.437 1558.02 268.682C1558.07 268.738 1558.12 268.788 1558.17 268.844C1558.34 269.029 1558.51 269.213 1558.68 269.389L1558.9 269.62L1559.36 270.082L1559.61 270.313L1560.07 270.734L1560.31 270.946C1560.48 271.094 1560.65 271.233 1560.82 271.376L1561.01 271.538C1561.48 271.921 1561.98 272.281 1562.47 272.623L1562.69 272.762C1562.86 272.882 1563.04 273.002 1563.22 273.113L1563.49 273.275C1563.65 273.381 1563.82 273.478 1563.99 273.58L1564.27 273.737L1564.79 274.023L1565.05 274.157C1565.25 274.264 1565.45 274.361 1565.65 274.462L1565.83 274.55L1566.64 274.915L1566.76 274.961C1566.99 275.058 1567.22 275.155 1567.45 275.243L1567.71 275.345L1568.28 275.553L1568.58 275.655L1569.13 275.835L1569.3 275.89L1569.43 275.932L1570.01 276.103L1570.28 276.177C1570.52 276.246 1570.74 276.306 1571 276.366L1571.14 276.403L1572.01 276.602L1572.25 276.648L1572.88 276.777L1573.21 276.833L1573.77 276.93L1574.12 276.985L1574.67 277.064L1575.02 277.115L1575.61 277.184L1575.92 277.221L1576.75 277.299H1576.94L1577.73 277.36H1578.08L1578.65 277.392H1579.05L1579.57 277.415H1579.99H1580.52H1581.87H1582.76H1583.16H1583.71H1584.17H1584.63H1585.12L1585.59 277.392L1586.09 277.364L1586.55 277.336L1587.07 277.304L1587.46 277.276L1588.8 277.175H1588.89L1589.51 277.119L1589.84 277.092L1590.46 277.036L1590.78 277.004L1591.43 276.944L1591.69 276.916L1592.4 276.842H1592.52C1594.41 276.643 1596.3 276.422 1598.19 276.204L1599.91 276.006L1600.38 275.955L1602.69 275.701H1602.88L1605.1 275.479H1605.33C1606.11 275.41 1606.89 275.345 1607.64 275.29L1611.48 275.031C1612.4 274.966 1613.3 274.888 1614.2 274.804L1614.82 274.661L1616.99 274.444L1617.59 274.379C1619.41 274.182 1621.23 273.963 1623.05 273.723L1623.59 273.649L1625.9 273.335L1626.37 273.275C1630.64 272.679 1634.92 272.018 1639.2 271.385L1640.29 271.228L1641.61 271.034L1643 270.84L1644.24 270.669L1645.31 270.516V396.164L1622.71 378.181L1620.5 376.457C1591.29 353.775 1556.71 338.989 1525.86 318.621C1512.83 310.022 1501.71 298.822 1489.08 289.655C1465.28 272.379 1446.47 259.884 1416.31 255.07C1394.81 251.641 1372 257.916 1351.08 251.9C1332.78 246.642 1319.94 229.259 1302.23 222.282C1282.96 214.695 1261.53 214.284 1241.57 208.688C1226.92 204.595 1213.33 197.095 1198.6 193.297C1131.46 176.007 1039.37 172.223 974.231 173.678L973.164 173.706C942.603 174.575 946.54 182.758 919.473 191.31C900.205 197.405 880.165 200.806 860.791 206.521C845.127 211.142 830.295 218.535 814.405 222.282C804.425 224.634 793.77 227.125 782.985 229.236L783.554 228.908L783.54 228.927ZM1643.46 109.29C1643.23 108.797 1642.97 108.316 1642.68 107.849C1642.97 108.316 1643.23 108.797 1643.46 109.29" fill="#5596DC"/>
<path d="M379.784 174.639C406.162 162.806 429.482 141.228 450.765 116.355C454.628 111.841 456.772 107.798 457.511 104.226C473.679 99.7435 489.404 93.7921 504.488 86.4462C513.355 82.1259 522.162 77.2697 531.861 75.4954C546.185 72.8709 560.795 77.2327 574.467 82.2276C576.944 83.1286 579.55 84.1405 581.204 86.1828C583.574 89.0891 583.454 93.2985 582.59 96.9487C577.457 118.633 553.018 129.353 531.085 133.345C507.982 137.55 483.885 138.012 462.09 146.745C455.441 149.415 449.115 152.821 442.804 156.217C421.299 167.801 399.707 179.431 380.038 193.916C364.873 205.084 348.442 218.664 329.77 216.197C329.82 215.146 329.917 214.104 330.061 213.069C341.285 199.669 356.607 185.022 379.784 174.621" fill="#5596DC"/>
<path d="M379.784 174.639C319.134 201.85 312.272 258.05 291.882 245.616C276.255 236.167 321.888 174.459 325.82 158.112C333.578 125.767 293.125 79.1273 331.693 70.861C370.261 62.5948 376.776 90.5216 409.046 85.6793C441.316 80.8369 472.048 91.4966 450.765 116.355C429.483 141.214 406.163 162.806 379.784 174.639" fill="#96C3ED"/>
<path d="M-140.753 98.9218C-139.376 98.9504 -138.006 99.1207 -136.664 99.4301C-117.47 99.5733 -119.106 68.3567 -106.362 53.3906C-94.672 39.6628 -78.1303 32.2976 -51.0305 42.084C-32.3264 48.8347 -12.3516 58.8521 3.27057 74.576C10.5437 81.8379 16.5905 90.2316 21.1753 99.4301C36.5064 130.36 44.2783 181.03 50.6547 195.437C57.0311 209.844 63.7724 219.117 67.6768 224.643C95.7469 264.38 120.051 318.483 123.535 367.147C130.18 460.021 125.235 381.706 115.287 440.231C106.97 489.209 125.305 530.119 102.1 580.285L100.178 584.444C96.0519 593.343 92.5957 612.564 89.7032 618.636L86.5473 625.206L85.9837 627.055C83.5209 634.942 91.362 646.35 84.2648 666.182L80.1063 677.696C75.7121 689.844 67.2333 700.305 63.315 712.619C59.0087 726.152 59.1566 740.767 55.6542 754.541C42.8505 805.271 11.8464 861.863 44.2736 913.632C49.4374 921.781 55.7213 929.163 62.9407 935.562C61.5084 934.93 60.0852 934.273 58.6713 933.589C53.7042 930.405 48.7787 927.462 43.6544 925.161C27.1405 914.432 11.7724 899.142 -2.79169 876.294L-3.90521 874.533C-4.2841 873.919 -4.6676 873.323 -5.05111 872.731L-5.33301 872.269L-5.22201 872.361L-5.02798 872.523L-4.69531 872.773L-4.54742 872.879L-4.29789 873.05L-4.15474 873.142C-4.02537 873.221 -3.89595 873.299 -3.76657 873.369C-4.14546 871.918 -4.52278 870.464 -4.89859 869.007C-5.09728 868.235 -5.29136 867.459 -5.49004 866.697C-5.67024 865.994 -5.85052 865.31 -6.0261 864.59C-6.23403 863.776 -6.43726 862.963 -6.64519 862.145C-6.86697 861.252 -7.09183 860.359 -7.31977 859.465C-7.43067 859.003 -7.54618 858.541 -7.66169 858.102C-8.04058 856.562 -8.421 855.04 -8.80296 853.537C-10.6142 846.287 -12.4301 839.029 -14.3477 831.82L-14.417 831.548C-15.3627 827.984 -16.3346 824.431 -17.3327 820.888L-17.4019 820.639C-17.8794 818.966 -18.3645 817.295 -18.8574 815.625C-18.8897 815.501 -18.9268 815.38 -18.9637 815.26C-19.4812 813.511 -20.0095 811.761 -20.5486 810.011C-24.8965 796.117 -37.0579 792.157 -49.8015 789.963L-51.0398 789.755L-53.8121 789.293C-83.2222 784.644 -90.4257 773.481 -83.98 744.769C-83.9199 744.51 -83.8644 744.251 -83.8043 743.988L-83.2961 741.747L-82.7924 739.501C-79.3686 724.059 -76.5084 708.483 -73.7638 692.87C-73.579 691.832 -73.3957 690.791 -73.214 689.747L-73.1723 689.534L-71.6291 680.663C-68.3069 661.792 -57.9845 649.506 -43.3003 642.598C-42.6904 642.307 -42.0712 642.03 -41.4521 641.762C-40.1999 641.221 -38.9154 640.722 -37.6077 640.256C-34.9276 639.307 -32.1936 638.519 -29.4201 637.895C-28.7085 637.733 -27.997 637.58 -27.2762 637.432L-18.7281 635.69C-10.411 634.009 -2.0108 632.516 6.12143 632.456C20.6162 632.364 34.2839 636.855 45.2209 653.092L45.4149 653.378L45.6598 653.702C46.3852 654.626 47.046 655 47.6097 655.028C48.6354 655.074 49.4348 653.997 50.0447 652.801L50.1556 652.579C50.2296 652.426 50.2988 652.274 50.3682 652.117C50.4698 651.89 50.5623 651.655 50.6501 651.451L51.6112 649.021C52.3921 647.02 53.1313 645.024 53.829 643.046C75.2361 582.484 60.3256 532.397 -18.7788 513.873C-20.6918 504.942 -23.2054 496.07 -24.4298 487.028C-27.4979 464.452 -22.4846 441.584 -22.8404 418.805C-23.0991 401.944 -26.3011 385.283 -29.494 368.722C-32.6128 352.523 -35.741 336.29 -40.4171 320.47C-43.7069 309.339 -47.9163 298.157 -55.5634 289.424C-60.4889 283.805 -66.5834 279.494 -73.2647 276.14C-73.3063 275.451 -73.3479 274.754 -73.408 274.079C-73.4058 274.07 -73.4058 274.06 -73.408 274.051C-73.4542 273.529 -73.5143 273.012 -73.5975 272.508C-73.5975 272.466 -73.5974 272.425 -73.6205 272.379C-73.6575 272.148 -73.7037 271.917 -73.7545 271.699C-73.7567 271.684 -73.7567 271.668 -73.7545 271.653C-73.8146 271.417 -73.8793 271.191 -73.9532 270.96C-73.9643 270.919 -73.9782 270.879 -73.9948 270.84C-74.0549 270.66 -74.1196 270.48 -74.1935 270.309L-74.2629 270.147C-74.3543 269.945 -74.456 269.747 -74.5678 269.555V269.555C-74.9189 268.939 -75.2608 268.323 -75.5935 267.707C-75.6721 267.564 -75.7506 267.425 -75.8246 267.282C-76.1542 266.666 -76.473 266.05 -76.7811 265.434L-76.8919 265.207C-77.1646 264.662 -77.4325 264.112 -77.6959 263.562C-77.7745 263.396 -77.8576 263.23 -77.9316 263.068C-78.2134 262.472 -78.4861 261.881 -78.7541 261.285C-78.8187 261.132 -78.8834 260.98 -78.9527 260.822C-79.1653 260.36 -79.3686 259.857 -79.5765 259.376C-79.6597 259.178 -79.7429 258.983 -79.8214 258.789C-80.0617 258.216 -80.2835 257.644 -80.5238 257.066C-80.6069 256.849 -80.6946 256.627 -80.7824 256.41C-80.9395 255.994 -81.1013 255.583 -81.2445 255.167C-81.3323 254.927 -81.4247 254.705 -81.5125 254.451C-81.7158 253.91 -81.9099 253.369 -82.104 252.829C-82.2102 252.533 -82.3165 252.237 -82.4181 251.946L-82.7508 250.981C-82.9356 250.448 -83.1159 249.916 -83.2915 249.387L-83.5548 248.592L-83.943 247.4L-84.0862 246.938C-86.4982 239.369 -88.5081 231.657 -90.8785 224.061C-98.8397 198.237 -119.799 187.605 -143.807 181.409L-143.807 99.4763C-142.828 99.0747 -141.774 98.8857 -140.716 98.9218" fill="#5596DC"/>
</g>
</g>
<defs>
<clipPath id="clip0_6409_202185">
<rect width="1440" height="148" fill="white" transform="matrix(-1 0 0 1 1440 0)"/>
</clipPath>
<clipPath id="clip1_6409_202185">
<rect width="1440" height="157" fill="white" transform="matrix(1 0 0 -1 0 156)"/>
</clipPath>
</defs>
</svg>
