<svg width="1440" height="230" viewBox="0 0 1440 230" fill="none" xmlns="http://www.w3.org/2000/svg">
<g clip-path="url(#clip0_5739_146412)">
<g clip-path="url(#clip1_5739_146412)">
<g opacity="0.2">
<path d="M-13.9379 41.5973C14.1105 44.3746 45.7495 44.6519 71.5322 41.2384C69.6356 41.834 67.7708 42.5265 65.9452 43.3132C56.4433 47.178 3.78171 75.0184 -26.8692 71.9834C-72.051 70.379 -84.9312 52.936 -107.438 43.1483C-128.903 33.8166 -108.503 21.076 -101.822 16.7739C-99.6802 15.3981 -97.3989 13.9292 -95.7919 12.1428C-95.2129 16.6112 -94.6967 19.8383 -94.6967 19.8383C-84.293 31.766 -42.0084 38.8085 -13.96 41.5858" fill="#4195C4"/>
<path d="M322.898 183.531C338.751 178.173 351.831 171.974 363.023 164.785C390.643 147.039 406.746 123.254 424.641 91.1306C451.514 42.9487 496.212 12.2026 545.913 -15.137C557.208 -21.3547 568.774 -27.3972 580.44 -33.4296L589.811 -38.2685C590.702 -38.7282 591.554 -39.1779 592.396 -39.6191L592.622 -39.7407L593.504 -40.2059L594.435 -40.7034C594.779 -40.8876 595.112 -41.0636 595.446 -41.2487C595.78 -41.4339 596.132 -41.6126 596.461 -41.7936L597.281 -42.2418L598.39 -42.8516L598.994 -43.1819L600.228 -43.8676L600.523 -44.0334C604.412 -46.2206 607.704 -48.193 610.549 -50.0054L610.677 -50.0855L611.739 -50.7697L611.928 -50.895L612.919 -51.5304L613.143 -51.6847L614.039 -52.2878L614.283 -52.4587L615.121 -53.0351L615.38 -53.2183C615.644 -53.4011 615.881 -53.5912 616.159 -53.7726L616.429 -53.9642C616.679 -54.1437 616.928 -54.3187 617.165 -54.4996L617.435 -54.6957L618.132 -55.2164L618.402 -55.4171L619.065 -55.9226L619.337 -56.1325L619.966 -56.6228L620.238 -56.8373L620.843 -57.3206L621.106 -57.5361C621.302 -57.693 621.499 -57.8499 621.691 -58.012L621.959 -58.227L622.52 -58.696L622.784 -58.9206L623.331 -59.3819C623.417 -59.4523 623.504 -59.5273 623.585 -59.6028L624.128 -60.0645L624.377 -60.2859L624.888 -60.7507L625.147 -60.9804L625.657 -61.4361L625.912 -61.6662L626.421 -62.1218L626.686 -62.3603L627.196 -62.8159C627.272 -62.8873 627.349 -62.9632 627.431 -63.0341L627.943 -63.5219L628.061 -63.6356L629.471 -64.9308C637.505 -72.3072 647.288 -81.3075 675.194 -98.9417L677.947 -100.675C692.138 -109.545 707.073 -116.47 722.363 -122.516C712.472 -117.35 702.581 -112.178 692.688 -106.997L685.063 -103.002L692.49 -106.868C702.507 -112.095 712.525 -117.333 722.541 -122.582C727.859 -124.674 733.216 -126.677 738.612 -128.591C746.179 -131.301 753.796 -133.895 761.421 -136.487C790.889 -146.501 820.491 -156.556 847.623 -173.784C867.749 -186.562 881.385 -205.962 895.096 -225.466C905.997 -240.972 916.941 -256.548 931.231 -268.909C932.414 -269.93 933.795 -270.977 935.339 -272.082C946.137 -279.71 964.994 -288.764 981.174 -296.531C989.951 -300.77 997.97 -304.619 1003.46 -307.623C1004.24 -308.056 1004.98 -308.472 1005.65 -308.873C1004.01 -307.039 1002.52 -305.027 1001.03 -303.011C1001.03 -302.995 1001.03 -302.98 1001.03 -302.965C1000.77 -302.616 1000.61 -302.201 1000.58 -301.767C1000.54 -301.334 1000.62 -300.899 1000.82 -300.511C1001.02 -300.124 1001.32 -299.799 1001.69 -299.574C1002.07 -299.349 1002.5 -299.233 1002.93 -299.238L1003.5 -299.247C1007.43 -299.29 1011.38 -299.335 1014.61 -300.9C1053.35 -319.575 1076.25 -353.338 1095.24 -389.713L1096.3 -391.757C1113.75 -425.198 1130 -459.679 1117.32 -499.51C1117.23 -499.696 1117.37 -500.002 1117.57 -500.312C1117.67 -500.484 1117.76 -500.665 1117.83 -500.853C1118.07 -500.458 1118.33 -500.075 1118.59 -499.687C1119.13 -498.941 1119.6 -498.142 1119.98 -497.302C1133.99 -462.85 1130.59 -427.532 1116.92 -395.255L1115.11 -391.01C1113.68 -387.604 1112.25 -384.197 1110.82 -380.788C1083.05 -314.558 1054.84 -247.295 996.305 -201.38C956.082 -169.787 909.007 -149.737 861.987 -129.733C847.929 -123.747 833.872 -117.766 820.012 -111.481L816.979 -110.11C814.117 -108.815 811.249 -107.526 808.373 -106.245C768.18 -88.2253 727.876 -70.1565 697.466 -36.0964C678.024 -14.4714 688.105 5.02998 698.209 24.5846C698.992 26.0551 699.745 27.5504 700.498 29.0365L702.15 32.3342C704.935 37.694 708.229 42.7736 711.986 47.5024C721.521 59.6737 728.773 66.8086 735.566 68.9206C725.454 72.0982 716.512 72.7451 709.831 76.5364C698.074 83.2052 699.741 100.694 690.766 110.722C688.207 111.29 684.8 111.988 682.667 112.798C672.779 116.574 665.757 126.344 657.98 133.755C631.243 159.232 585.494 172.406 573.183 181.894C560.501 191.666 540.577 191.806 525.344 189.262C516.899 187.85 509.426 183.6 501.441 180.817C493.281 177.976 484.929 178.764 476.541 180.149C467.219 181.686 457.353 183.5 448.558 180.043C448.063 179.907 447.633 179.599 447.344 179.175C447.165 178.707 447.151 178.191 447.303 177.713C448.911 169.909 451.074 165.703 457.327 160.412C461.042 157.269 465.708 155.484 470.32 153.972C510.816 140.719 556.776 139.721 596.344 123.882C603.114 121.158 611.936 114.788 610.359 108.949C604.923 94.8759 596.249 101.957 587.704 110.365C577.611 120.3 560.806 127.997 530.209 128.779C489.208 129.827 475.568 141.347 439.39 155.826C393.584 174.168 337.996 196.397 269.97 198.019C266.964 198.09 263.932 198.119 260.875 198.108C285.51 194.093 305.811 189.292 322.89 183.516" fill="#FEECA5"/>
<path d="M1236.04 24.6012C1248 34.8304 1258.6 46.9304 1266.12 60.8112C1281.24 88.7001 1299.61 123.56 1257.44 142.27C1236.23 151.685 1213.23 121.874 1194.19 117.95C1185.97 116.254 1178.6 115.158 1170.51 118.507C1168.49 119.314 1166.52 120.246 1164.61 121.299C1164.12 121.547 1163.66 121.813 1163.2 122.088C1161.35 123.178 1159.58 124.375 1157.87 125.674C1157.02 126.314 1156.18 126.973 1155.35 127.64L1154.12 128.646C1145.47 135.835 1136.17 143.723 1130.98 153.958C1113.96 145.591 1105.29 135.525 1111.62 123.471C1120.03 107.44 1143.94 103.331 1165.95 99.5436C1203.35 93.1151 1235.23 87.6313 1176.15 26.2157C1171.58 21.4735 1169.15 15.2103 1167.54 8.22569C1173.52 3.66865 1179.81 -0.148005 1186.99 -1.58669C1202.15 -4.61749 1224.53 14.7559 1236.05 24.6063" fill="#FDD535"/>
<path d="M1414.54 -109.732C1418.06 -126.1 1414.62 -152.335 1397.41 -160.015C1387.78 -164.307 1374.64 -163.616 1366.37 -170.704C1357.3 -178.473 1361.28 -194.813 1360.52 -205.47C1359.6 -218.385 1361.27 -231.133 1363.23 -243.94C1365.88 -261.544 1367.06 -279.34 1366.76 -297.14L1368.09 -299.093L1368.12 -299.137L1370.99 -303.352C1380.76 -317.637 1390.68 -333.101 1394.21 -350.326C1398.12 -369.472 1391.54 -386.203 1379.95 -401.285C1379.7 -401.524 1379.8 -402.15 1379.89 -402.722C1379.9 -402.906 1379.92 -403.08 1379.94 -403.241C1380.24 -403.184 1380.55 -403.139 1380.85 -403.1C1381.75 -403.033 1382.63 -402.806 1383.46 -402.429C1401.77 -391.979 1409.36 -372.547 1409.63 -352.556C1409.91 -332.748 1404.46 -313.754 1398.58 -294.681C1396.78 -288.823 1395 -282.964 1393.36 -277.118C1390 -265.118 1386.14 -248.957 1392.84 -237.316C1398.78 -226.977 1411.88 -223.234 1422.68 -220.721C1441.74 -216.289 1455.46 -200.146 1456.95 -180.534C1458.12 -165.133 1460.98 -147.239 1474.53 -137.632C1487.01 -128.79 1504.51 -128.859 1519.1 -128.845C1539.52 -128.828 1555.62 -116.291 1560.18 -97.4287C1564.82 -78.2197 1550.12 -52.1596 1543.3 -33.8396C1536.72 -16.1511 1531.35 1.95965 1526.08 20.0759C1522.26 33.2229 1518.5 50.1648 1509.95 60.0392C1502.37 68.7932 1496.26 82.0996 1490.89 93.0367C1481.45 112.206 1472.36 131.561 1464.55 151.463C1454.49 177.113 1445.65 228.683 1410.54 226.994C1400.78 226.524 1393.46 224.007 1391.69 213.46C1390.81 208.288 1391.93 202.748 1393.2 197.757C1395.14 190.144 1397.82 181.527 1393.63 174.148C1389.45 166.768 1380.91 159.237 1380.45 150.481C1379.76 137.347 1388.41 122.481 1393.74 111.099C1395.34 107.683 1396.15 104.151 1396.89 100.556C1397.23 98.9171 1397.55 97.2726 1397.92 95.6332C1403.32 71.7826 1407.81 46.8006 1404.97 22.9136C1403.89 13.8783 1400.34 4.61567 1401.44 -4.16188C1405.61 -37.2267 1407.23 -75.9484 1414.5 -109.728" fill="#FDD535"/>
<path d="M146.715 109.597C216.953 108.849 296.816 108 338.765 77.5385C419.769 18.6975 452.428 -3.28108 515.189 -33.3762C622.892 -85.051 727.807 -141.817 829.935 -203.674C830.766 -204.186 831.61 -204.696 832.459 -205.207C840.455 -210.042 848.842 -215.113 852.253 -224.995C886.576 -240.002 921.417 -283.504 984.344 -310.5C984.897 -310.733 985.451 -310.985 986.003 -311.264C986.203 -311.356 986.404 -311.461 986.608 -311.557L987.639 -312.068L988.559 -312.553L989.187 -312.89C1006.5 -322.346 1025.4 -342.819 1039.39 -361.947C1032.83 -349.632 1025.76 -337.564 1018.58 -325.59L1012.17 -314.951L1008.27 -311.455C1007.36 -310.649 1006.5 -309.79 1005.7 -308.882C1005.02 -308.479 1004.29 -308.062 1003.5 -307.632C998.011 -304.606 990.006 -300.764 981.212 -296.541C965.037 -288.773 946.18 -279.72 935.382 -272.092C933.839 -271.001 932.457 -269.939 931.274 -268.919C916.984 -256.558 906.039 -240.982 895.139 -225.476C881.428 -205.971 867.792 -186.571 847.666 -173.794C820.534 -156.566 790.932 -146.51 761.464 -136.497C753.838 -133.904 746.222 -131.311 738.655 -128.601C733.273 -126.673 727.913 -124.692 722.599 -122.599L731.501 -127.252L722.414 -122.52C707.111 -116.476 692.171 -109.551 677.999 -100.679L675.246 -98.9459C647.341 -81.3254 637.554 -72.3256 629.523 -64.9349L628.113 -63.6397L627.995 -63.5261L627.482 -63.0382C627.401 -62.9673 627.324 -62.8914 627.247 -62.8201L626.738 -62.3644L626.473 -62.126L625.963 -61.6703L625.708 -61.4402L625.199 -60.9845L624.939 -60.7549L624.429 -60.29L624.179 -60.0686L623.637 -59.607C623.551 -59.5319 623.469 -59.4564 623.383 -59.386L622.836 -58.9248L622.572 -58.7002L622.01 -58.2311L621.743 -58.0161C621.55 -57.8541 621.354 -57.6971 621.157 -57.5402L620.894 -57.3248L620.289 -56.8414L620.017 -56.6269L619.388 -56.1367L619.117 -55.9267L618.454 -55.4212L618.183 -55.2205C617.953 -55.0483 617.722 -54.8716 617.482 -54.7003L617.216 -54.5037C616.975 -54.3232 616.717 -54.1492 616.481 -53.9683L616.211 -53.7768C615.956 -53.5931 615.71 -53.4039 615.432 -53.2225L615.172 -53.0392L614.335 -52.4628L614.091 -52.292L613.195 -51.6888L612.971 -51.5346L611.979 -50.8991L611.79 -50.7739L610.729 -50.0897L610.6 -50.0095C607.755 -48.1879 604.463 -46.2156 600.574 -44.0375L600.279 -43.8717L599.046 -43.1859L598.442 -42.8557L597.332 -42.2459L596.512 -41.7978C596.183 -41.6168 595.84 -41.4325 595.497 -41.2529C595.155 -41.0733 594.83 -40.8918 594.487 -40.7075L593.555 -40.2101L592.448 -39.6233L589.858 -38.2731L578.603 -32.46C576.6 -31.4202 574.585 -30.3815 572.56 -29.3438C563.993 -24.936 555.171 -20.3863 545.964 -15.1365C496.263 12.203 451.565 42.9445 424.692 91.1311C406.779 123.253 390.675 147.038 363.074 164.786C352.099 171.95 337.998 178.363 322.949 183.532C305.87 189.307 285.569 194.108 260.934 198.123C263.991 198.138 267.022 198.108 270.029 198.034C267.934 198.265 265.828 198.387 263.72 198.399C147.432 198.26 -7.44538 185.682 14.0065 135.222C24.3456 110.899 81.3868 110.293 146.767 109.597L146.715 109.597ZM744.506 -134.048L744.996 -134.311L745.354 -134.498L745.963 -134.833C746.298 -134.939 746.631 -135.064 746.969 -135.197C747.307 -135.331 747.645 -135.455 747.98 -135.562C748.172 -135.683 748.354 -135.82 748.522 -135.972L748.991 -136.39C749.326 -136.496 749.664 -136.625 749.997 -136.755C750.331 -136.884 750.673 -137.008 751.009 -137.119L751.018 -137.211C750.682 -137.105 750.344 -136.976 750.007 -136.847C749.669 -136.718 749.336 -136.593 749 -136.482L748.871 -136.402C748.812 -136.361 748.751 -136.316 748.691 -136.267C748.61 -136.205 748.534 -136.138 748.463 -136.076L747.99 -135.658C747.802 -135.588 747.603 -135.506 747.395 -135.42L746.913 -135.24C746.628 -135.124 746.339 -135.018 746.046 -134.927C745.315 -134.581 744.58 -134.185 743.847 -133.775L743.508 -133.585L744.506 -134.048Z" fill="#FDD535"/>
<path d="M-78.185 -196.714C-77.663 -199.829 -76.3072 -202.736 -73.9364 -204.828C-72.9297 -205.728 -71.742 -206.402 -70.4533 -206.805C-64.4767 -208.641 -62.0981 -203.075 -59.9997 -199.32C-59.0859 -197.596 -58.0574 -195.935 -56.9213 -194.349L-56.8928 -194.309L-56.6535 -194.007L-56.6286 -193.976C-56.6286 -193.976 -56.6286 -193.976 -56.6308 -193.953L-56.6061 -193.923C-56.4822 -193.767 -56.3528 -193.619 -56.2235 -193.472L-56.1231 -193.36L-55.9349 -193.151L-55.8884 -193.104L-55.6535 -192.617C-55.3306 -191.986 -55.0077 -191.355 -54.6907 -190.711L-53.7564 -188.844C-41.5193 -164.672 -27.728 -147.942 -12.3516 -135.638C-7.86424 -132.049 -3.15 -128.754 1.76178 -125.772C3.10139 -124.952 4.45283 -124.157 5.816 -123.388C23.6012 -113.324 43.2007 -107.047 64.7154 -100.84L69.3475 -99.5084C70.1332 -99.0498 70.9332 -98.5945 71.7382 -98.1433L72.1379 -97.9134C74.9357 -96.3455 77.8062 -94.8231 80.7492 -93.3462C109.805 -78.6738 140.69 -67.9485 172.586 -61.4546C204.354 -54.9798 236.93 -52.6735 269.314 -53.5855C301.856 -54.5003 334.402 -58.5117 366.367 -64.5771C374.081 -66.0421 381.786 -67.6054 389.436 -69.3691C402.565 -72.2775 415.533 -75.8692 428.287 -80.1295C440.418 -84.2401 452.393 -89.1184 463.602 -95.3541L464.157 -95.6612L464.255 -95.7119C464.97 -96.1147 465.682 -96.5241 466.392 -96.9398C468.165 -97.9668 469.983 -100.382 470.164 -102.217C470.175 -102.352 470.158 -102.488 470.116 -102.616L470.118 -102.644C470.097 -102.71 470.071 -102.775 470.04 -102.837L470.043 -102.87C470.008 -102.938 469.968 -103.002 469.929 -103.071C468.799 -104.794 466.73 -106.318 464.559 -107.647C463.905 -108.05 463.341 -108.584 462.904 -109.216C462.467 -109.848 462.166 -110.564 462.02 -111.318C461.874 -112.073 461.887 -112.849 462.057 -113.599C462.227 -114.348 462.551 -115.054 463.009 -115.671C463.011 -115.694 463.041 -115.714 463.056 -115.727C465.774 -119.075 470.373 -121.159 474.037 -123.461C483.455 -129.385 492.999 -135.114 502.669 -140.648C509.846 -144.761 514.096 -148.803 517.181 -156.52C517.385 -157.03 510.388 -160.128 509.588 -160.393C506.697 -161.347 503.785 -161.246 500.778 -161.265C499.628 -161.281 498.458 -161.286 497.339 -161.331C496.636 -161.355 495.947 -161.335 495.221 -161.318L494.789 -161.324C533.024 -180.016 595.309 -191.469 625.089 -197.087C653.379 -202.978 695.506 -223.281 694.352 -221.338C672.508 -184.118 610.374 -156.328 588.203 -143.429L586.812 -142.605C586.819 -142.674 586.825 -142.739 586.804 -142.81L586.793 -142.983C586.8 -143.048 586.774 -143.111 586.766 -143.176C586.759 -143.242 586.743 -143.276 586.735 -143.328L586.739 -143.369C586.728 -143.424 586.715 -143.478 586.699 -143.531C586.679 -143.606 586.653 -143.68 586.623 -143.752C586.622 -143.761 586.623 -143.771 586.626 -143.78C586.626 -143.78 586.63 -143.821 586.6 -143.843C586.57 -143.864 586.554 -143.945 586.531 -143.994C586.508 -144.042 586.478 -144.115 586.447 -144.174L586.364 -144.317L586.222 -144.53L586.202 -144.56C582.407 -149.886 570.002 -150.942 565.193 -147.105C559.544 -142.58 555.836 -136.358 551.301 -130.836C551.231 -130.746 551.162 -130.655 551.089 -130.569C533.832 -109.68 507.479 -99.8918 483.018 -90.2277C480.438 -89.2064 477.864 -88.1657 475.284 -87.1443C436.13 -71.5524 395.583 -60.6441 354.133 -52.9083C353.872 -52.846 353.613 -52.7694 353.354 -52.6837L353.234 -52.6444C352.884 -52.5259 352.532 -52.3937 352.18 -52.2614L351.557 -52.0212L351.077 -51.8645L350.765 -51.7607L351.183 -51.7193C351.469 -51.6678 351.758 -51.6392 352.048 -51.6337L352.103 -51.6282C352.244 -51.6309 352.384 -51.6481 352.521 -51.6796L353.981 -51.9298C335.551 -47.751 320.103 -44.605 311.369 -43.6126L307.612 -43.1906C251.86 -37.0335 191.565 -36.4337 132.971 -37.9174C129.624 -38.0012 126.282 -38.0938 122.946 -38.195L115.077 -38.4403L113.465 -38.8134C83.9624 -45.6583 55.5139 -55.6953 28.9996 -70.4952C2.48518 -85.295 -21.1204 -104.478 -40.4978 -127.816C-48.3124 -137.316 -55.4342 -147.366 -61.8086 -157.887C-65.0496 -163.185 -68.2741 -168.556 -71.112 -174.08C-73.6842 -179.098 -76.8614 -183.963 -77.9993 -189.587C-78.4797 -191.93 -78.5305 -194.341 -78.1492 -196.702" fill="#E5C7A3"/>
<path d="M-7.1258 -27.1994C-6.55923 -27.0133 -5.99305 -26.8226 -5.4324 -26.6232L-5.25765 -26.5594C3.53515 -23.4507 11.8662 -18.7255 20.1792 -14.0067C23.599 -12.0615 27.015 -10.1261 30.4563 -8.30417L30.6545 -8.19623L31.6477 -7.67542L32.0276 -7.47986L32.9863 -6.98572L33.2563 -6.8522C33.8488 -6.55206 34.4431 -6.27033 35.0259 -5.96655L35.5259 -5.7174L36.3507 -5.32459L36.9362 -5.04838L37.7485 -4.67085L38.3617 -4.39191C38.806 -4.19004 39.2508 -3.99278 39.6956 -3.79553L40.3988 -3.48909L41.1615 -3.1721L41.8347 -2.89187L42.5983 -2.58411L43.296 -2.31527L44.043 -2.02774C44.4914 -1.86723 44.903 -1.71043 45.3339 -1.56098L46.0611 -1.30792L46.7933 -1.0589L47.5489 -0.812347L48.2788 -0.586865L49.0224 -0.359957L49.9574 -0.095642L51.0473 0.198118L51.8401 0.397327L52.6022 0.579572L53.3518 0.746647L54.1156 0.910477L54.9405 1.06638C55.3277 1.14189 55.7158 1.20828 56.104 1.27456C56.4029 1.30416 56.7022 1.37551 57.0181 1.42071L57.7879 1.52484L58.5581 1.62435L59.349 1.70266C59.6157 1.72907 59.8824 1.75548 60.149 1.78188C60.4157 1.80829 60.6548 1.83196 60.9077 1.857C61.3675 1.90253 61.8305 1.91581 62.2926 1.93832L63.0793 1.96524L63.8765 1.97911L64.6931 1.98569L65.4885 1.97166L66.3028 1.95464L67.3854 1.89943C67.7683 1.87699 68.1564 1.8504 68.5402 1.8188L69.3691 1.7476L70.2238 1.65105L71.0181 1.55337L71.8847 1.43021L72.7342 1.29151C72.9751 1.25034 73.2059 1.21738 73.4518 1.17212C76.1158 0.683714 78.7815 0.209392 81.4489 -0.250836L82.2327 -0.38213C84.5372 -0.773037 86.845 -1.16363 89.1556 -1.55393L91.1323 -1.86887C93.0483 -2.18062 94.9666 -2.48447 96.8872 -2.78029L99.3058 -3.149C101.097 -3.4174 102.886 -3.68293 104.673 -3.94553L107.241 -4.31817L112.552 -5.06448L115.07 -5.40935C116.931 -5.66157 118.791 -5.90769 120.65 -6.14764L122.852 -6.43579C125.122 -6.73104 127.395 -7.01832 129.67 -7.29762L130.609 -7.40885C133.254 -7.73201 135.899 -8.04739 138.545 -8.35492L139.64 -8.48334C141.87 -8.74238 144.1 -8.99513 146.332 -9.2416C147.083 -9.32968 147.834 -9.40856 148.589 -9.4824C150.466 -9.68961 152.335 -9.89462 154.194 -10.0975L156.624 -10.3536L162.184 -10.9361L164.432 -11.1778C166.443 -11.3873 168.458 -11.5916 170.478 -11.7909L172.072 -11.9534C182.758 -13.0188 193.451 -14.048 204.152 -15.0407C225.445 -17.0508 246.743 -19.065 267.987 -21.521L268.456 -21.572C270.554 -21.8162 272.656 -22.0633 274.761 -22.3129L276.171 -22.4844L281.572 -23.1522L283.372 -23.3778C285.065 -23.5909 286.757 -23.8104 288.448 -24.0361L290.376 -24.2862C292.108 -24.5202 293.834 -24.7564 295.554 -24.9947L297.257 -25.2253C299.543 -25.5469 301.824 -25.8736 304.101 -26.2053C304.263 -26.2326 304.422 -26.2728 304.577 -26.3253L304.712 -26.3723L305.06 -26.5143L305.182 -26.5672L305.563 -26.7617C305.739 -26.851 305.92 -26.9445 306.109 -27.0279C305.673 -27.0712 305.227 -27.1153 304.79 -27.1586C303.433 -27.3781 302.06 -27.4753 300.686 -27.4488C257.233 -24.7078 213.769 -23.9226 170.62 -29.0264C158.303 -30.4967 146.125 -32.2922 134.132 -34.4966L133.717 -34.5702L131.839 -34.9233L130.276 -35.2221L128.454 -35.5789L126.86 -35.8946L125.039 -36.2606L123.383 -36.6057C122.805 -36.7233 122.222 -36.8413 121.645 -36.9681C120.59 -37.1887 119.54 -37.418 118.49 -37.6474L116.868 -38.0076L115.101 -38.4054L115.041 -38.4113L122.91 -38.1661C126.244 -38.0683 129.584 -37.9758 132.931 -37.8889C191.552 -36.4024 251.848 -37.0022 307.6 -43.1593L311.356 -43.5813C320.095 -44.5733 335.545 -47.7377 353.968 -51.8985L358.745 -52.7257L359.269 -52.8177L359.68 -52.8885C361.475 -53.1983 363.266 -53.5177 365.053 -53.833L366.022 -54.0064C424.024 -64.3146 481.183 -77.1856 534.292 -102.785L534.375 -102.828C535.373 -103.308 536.37 -103.795 537.366 -104.287L537.527 -104.364L540.457 -105.825L540.638 -105.918C541.615 -106.406 542.593 -106.904 543.571 -107.401L543.737 -107.487C544.718 -108.009 545.698 -108.531 546.678 -109.053L546.767 -109.1C551.894 -111.805 556.973 -114.646 562.004 -117.62C564.412 -119.048 566.713 -120.649 568.89 -122.408L568.951 -122.458C569.37 -122.793 569.779 -123.133 570.19 -123.478L570.301 -123.569C570.696 -123.901 571.086 -124.234 571.473 -124.572L571.615 -124.697C571.992 -125.031 572.363 -125.361 572.736 -125.7L572.899 -125.851C573.262 -126.182 573.625 -126.518 573.983 -126.854L574.158 -127.022C574.511 -127.359 574.865 -127.695 575.215 -128.036C575.276 -128.091 575.337 -128.15 575.394 -128.209C575.744 -128.551 576.093 -128.892 576.425 -129.24L576.59 -129.409C576.941 -129.76 577.292 -130.115 577.624 -130.472L577.769 -130.621C578.13 -130.989 578.488 -131.362 578.84 -131.731L578.934 -131.833C579.312 -132.228 579.69 -132.627 580.064 -133.026C580.581 -133.555 581.051 -134.089 581.536 -134.621L582.082 -135.217L582.37 -135.537L582.552 -135.737L583.204 -136.457L584.278 -137.651C585.503 -139.053 586.276 -140.324 586.597 -141.466C586.639 -141.615 586.672 -141.767 586.697 -141.92C586.697 -141.92 586.697 -141.92 586.701 -141.957C586.724 -142.095 586.738 -142.235 586.743 -142.375L586.756 -142.513C586.76 -142.555 586.764 -142.596 586.768 -142.633L588.159 -143.456C610.331 -156.356 672.459 -184.146 694.309 -221.366C705.01 -230.591 720.617 -241.108 747.202 -253.798C775.702 -267.399 807.736 -272.371 836.541 -285.301L837.056 -285.529C853.735 -292.853 911.096 -310.621 932.308 -321.753C1018.27 -366.87 1040.55 -395.941 1054.73 -419.364L1056.46 -422.266L1056.56 -420.459C1056.62 -419.413 1056.7 -418.361 1056.77 -417.3C1057.1 -412.429 1057.44 -407.483 1056.93 -402.705C1056.66 -399.859 1055.97 -397.067 1054.9 -394.418C1050.28 -383.336 1045.02 -372.543 1039.37 -361.939C1024.06 -341.005 1002.88 -318.457 984.321 -310.497C921.393 -283.502 886.552 -240 852.23 -224.993C850.76 -224.498 849.286 -224.025 847.808 -223.574L847.444 -223.456L845.46 -222.84L845.283 -222.788L843.367 -222.193L841.499 -221.617L840.221 -221.223L839.444 -220.98L837.345 -220.319L836.387 -220.024L835.231 -219.646L833.637 -219.117L832.503 -218.733L831.31 -218.312L830.348 -217.971C829.789 -217.771 829.23 -217.562 828.675 -217.352L827.777 -217.004C827.304 -216.825 826.836 -216.639 826.371 -216.447L825.529 -216.103C825.015 -215.889 824.502 -215.671 823.987 -215.443L823.537 -215.256C811.433 -209.875 799.511 -204.17 787.707 -198.202C714.238 -161.167 645.67 -114.857 570.323 -81.36C555.801 -74.9076 541.217 -68.6488 526.569 -62.5834C523.907 -49.7718 508.772 -42.9871 495.829 -38.8407C425.143 -16.2026 358.77 13.2331 286.379 31.9277C279.818 33.6227 273.209 35.3226 266.452 35.8096C257.16 36.4775 247.87 34.8239 238.558 34.6076C217.537 34.1141 197.123 40.8915 176.439 44.6753C143.291 50.656 109.216 48.9923 76.8089 39.8108L71.4889 41.2527C45.6896 44.646 14.0442 44.3866 -13.9812 41.6116C-42.0066 38.8366 -84.3142 31.7918 -94.7178 19.8641C-94.7178 19.8641 -95.2432 16.6361 -95.8131 12.1686C-96.52 6.74043 -97.3059 -0.515697 -97.3135 -6.06507C-97.9965 -38.4632 -39.944 -37.7481 -7.15942 -27.1888" fill="#FEECA5"/>
<path d="M968.138 119.702C973.168 115.004 979.018 111.256 984.097 106.614C991.754 99.6278 1007.16 89.6703 1024.46 74.3387C1035.17 69.693 1044.92 62.4717 1053.01 53.9912C1066.32 40.0474 1075.71 22.8683 1084.11 5.53207C1097.34 -21.7647 1108.91 -50.1642 1117.64 -79.234C1121.9 -93.3874 1120.93 -99.3055 1117.42 -100.15C1120.36 -105.552 1123.5 -110.813 1126.85 -115.932C1151.34 -153.215 1192.12 -173.972 1219.14 -208.321C1235.61 -229.266 1259.66 -239.769 1267.43 -243.908C1306.21 -264.556 1347.51 -311.244 1345.02 -339.888C1343.73 -354.739 1363.6 -350.929 1365.81 -317.585C1370.39 -248.877 1358.15 -240.135 1360.53 -205.45C1361.38 -193.188 1357.91 -179.309 1364.62 -169.014C1369.94 -160.849 1379 -155.658 1384.27 -147.457C1394.41 -131.677 1392.5 -93.0269 1391.42 -87.9238C1385.31 -59.0216 1385.2 -17.9636 1380.36 11.3291C1375.05 43.431 1358.39 70.4998 1337.28 94.7036C1335.62 96.5594 1334.8 97.4861 1333.2 99.3332C1326.45 107.232 1319.9 115.27 1313.72 123.624C1311.66 126.401 1310.67 127.775 1308.75 130.487C1308.33 131.244 1308.13 131.619 1307.72 132.372C1300.47 145.528 1293.13 158.662 1284.16 170.774C1281.6 174.162 1278.78 177.346 1275.72 180.297C1274.12 181.875 1262.8 196.435 1247.33 202.982C1244.33 204.244 1241.04 204.641 1237.83 204.126C1193.55 197.118 1161.64 169.056 1130.97 153.976C1136.17 143.741 1145.46 135.853 1154.12 128.664L1155.35 127.658C1156.18 126.992 1157.02 126.332 1157.86 125.692C1159.57 124.393 1161.35 123.196 1163.19 122.106C1163.66 121.836 1164.13 121.571 1164.6 121.317C1166.51 120.264 1168.48 119.331 1170.5 118.525C1178.6 115.176 1185.96 116.272 1194.19 117.968C1213.23 121.892 1236.22 151.703 1257.43 142.288C1299.61 123.55 1281.24 88.7001 1266.14 60.8038C1258.62 46.923 1248.02 34.823 1236.06 24.5938C1224.55 14.7435 1202.16 -4.62994 1187 -1.59913C1179.82 -0.160462 1173.54 3.6562 1167.55 8.21279C1163.36 11.4058 1159.34 15.2933 1157.48 20.216C1155.61 25.1387 1152.51 32.8276 1149.02 36.791C1143.84 42.7173 1122.16 57.6159 1116.06 61.219C1094.63 73.8811 1011.9 126.254 988.993 135.998C980.593 139.568 971.703 142.788 962.595 142.206C961.21 142.12 959.707 141.87 958.843 140.8C958.065 139.84 958.031 138.495 958.153 137.267C958.831 130.421 963.139 124.426 968.155 119.722" fill="#FEECA5"/>
<path d="M1086.63 -68.0775C1080.22 -51.4586 1077.62 -33.3243 1068.97 -17.7436C1066.29 -12.9015 1062.98 -8.2988 1058.44 -5.1358C1054.14 -2.13073 1048.98 -0.607603 1044.41 1.97153C1037.16 6.04611 1031.66 12.559 1026.33 18.9351C1014.32 33.2915 1002.31 47.646 990.293 61.9987C988.466 64.1857 986.56 66.5507 986.274 69.3873C985.546 76.7443 995.319 80.2194 1002.7 79.7428C1021.94 78.4905 1039.68 67.9387 1053 53.9903C1066.31 40.0418 1075.7 22.8674 1084.11 5.53111C1097.33 -21.7656 1108.9 -50.1651 1117.63 -79.2349C1130.71 -122.729 1094.5 -88.49 1086.62 -68.0646" fill="#FDD535"/>
<path d="M795.332 197.785C786.612 199.193 779.233 190.861 775.045 184.944C769.938 177.724 766.391 168.718 762.421 160.269C759.289 153.593 755.518 143.618 748.594 140.903C741.398 138.078 729.607 143.49 721.694 145.283C715.334 146.729 708.862 148.27 702.414 148.816C700.911 148.946 699.367 149.062 697.845 149.19C691.406 149.741 676.719 152.842 671.894 146.713C664.676 137.548 684.328 118.205 688.968 112.8C689.576 112.099 690.183 111.411 690.773 110.745C699.752 100.718 698.081 83.2293 709.838 76.5604C716.519 72.7691 725.46 72.1268 735.573 68.9446C746.456 65.523 759.763 57.4661 767.655 46.83C768.679 45.4502 769.672 43.9559 770.653 42.4837C771.635 41.0115 772.603 39.5334 773.525 38.0507C786.423 17.2866 795.15 -4.21544 796.845 -28.6472C798.514 -52.7286 816.705 -68.4693 836.199 -80.0693L838.388 -81.3615C841.306 -83.0692 844.248 -84.7373 847.155 -86.3856L850.229 -88.1243L850.937 -88.5185L851.517 -88.8464C851.818 -89.021 852.123 -89.1904 852.418 -89.3654L854.845 -90.7549C855.934 -91.3854 856.48 -91.6981 857.575 -92.3419C858.155 -92.6744 858.745 -92.9968 859.329 -93.3243C860.926 -94.2279 862.527 -95.1249 864.132 -96.0154C864.958 -96.4723 865.791 -96.919 866.617 -97.3759C867.961 -98.1095 869.309 -98.8397 870.659 -99.5665C871.596 -100.073 872.537 -100.569 873.474 -101.071C874.719 -101.734 875.965 -102.384 877.214 -103.022L880.219 -104.582C881.413 -105.197 882.603 -105.813 883.8 -106.419L886.934 -108.012C888.094 -108.594 889.253 -109.174 890.413 -109.752C891.487 -110.287 892.566 -110.825 893.645 -111.355L897.06 -113.018C898.167 -113.554 899.27 -114.094 900.376 -114.626C901.483 -115.157 902.595 -115.692 903.705 -116.218C904.816 -116.744 905.967 -117.304 907.116 -117.835L910.342 -119.373L913.843 -121.014C914.597 -121.366 915.356 -121.709 916.115 -122.061C918.752 -123.276 921.394 -124.485 924.042 -125.687L926.994 -127.029L930.637 -128.66L933.83 -130.09L937.267 -131.607L940.764 -133.155L943.866 -134.52L947.895 -136.289L950.364 -137.363L955.702 -139.69L956.527 -140.045L961.864 -142.363L969.686 -145.767L977.995 -149.355C985.957 -152.802 993.906 -156.271 1001.84 -159.763C1002.02 -159.838 1002.2 -159.918 1002.37 -159.998C1004.17 -160.789 1005.96 -161.584 1007.75 -162.382L1009.75 -163.279L1013.69 -165.049L1016.2 -166.193L1019.67 -167.771L1022.37 -169.004L1025.66 -170.536L1028.44 -171.829L1031.65 -173.331L1034.44 -174.652L1037.66 -176.191L1040.4 -177.457L1043.65 -179.038C1044.55 -179.476 1045.45 -179.913 1046.34 -180.351L1049.69 -182.002L1052.26 -183.284C1053.44 -183.873 1054.61 -184.472 1055.78 -185.066C1056.58 -185.453 1057.37 -185.866 1058.17 -186.275C1059.47 -186.939 1060.77 -187.618 1062.08 -188.292L1064.04 -189.315C1066 -190.337 1067.95 -191.372 1069.89 -192.418C1071.41 -193.224 1072.17 -193.627 1073.68 -194.438C1080.05 -197.741 1086.42 -201.599 1092.91 -204.142C1101.74 -207.6 1114.34 -206.352 1128.98 -213.186C1153.43 -224.602 1168.74 -226.954 1190.87 -242.694C1202.03 -250.63 1213.45 -259.096 1223.02 -268.925C1235.68 -281.93 1245.81 -297.471 1256.37 -312.134C1260.01 -317.193 1263.69 -322.246 1267.39 -327.294C1270.18 -331.085 1273.02 -334.845 1275.9 -338.574C1278.18 -341.506 1279.3 -342.932 1281.46 -345.606C1283.6 -348.18 1285.79 -350.693 1288.23 -352.532C1289.33 -353.352 1290.42 -354.21 1291.47 -355.02C1291.83 -355.291 1292.2 -355.552 1292.52 -355.812C1298.49 -360.612 1304.57 -359.783 1309.79 -356.126C1315.02 -352.47 1316.21 -348.712 1311.1 -343.256C1310.53 -342.613 1310 -341.94 1309.5 -341.241C1308.75 -340.239 1308.35 -339.707 1307.54 -338.594C1288.97 -313.141 1271.91 -285.419 1250.05 -262.566C1238.22 -250.208 1223.31 -238.688 1209.63 -228.402C1181.54 -207.285 1151.48 -188.917 1120.82 -171.825C1118.61 -170.595 1116.4 -169.372 1114.19 -168.158C1107.54 -164.514 1100.87 -160.906 1094.16 -157.335L1089.75 -154.986C1082.95 -151.413 1076.12 -147.879 1069.28 -144.384C1029.29 -123.911 987.435 -102.23 961.432 -66.5406C949.497 -50.148 949.348 -30.0809 949.905 -9.73039C947.787 11.6646 948.288 34.7396 942.975 55.5676C937.663 76.3955 928.298 96.6458 913.083 111.831C905.442 119.46 896.38 125.774 890.014 134.5C877.087 152.229 876.209 178.543 858.386 191.316C851.031 196.577 841.852 198.58 832.867 199.617C820.852 201.009 807.353 199.38 795.376 197.762" fill="#FDD535"/>
<path d="M126.09 -376.153L127.194 -378.579C175.198 -482.384 255.864 -555.722 349.995 -617C406.857 -653.976 468.714 -679.624 531.965 -702.525C541.597 -706.019 557.801 -711.64 562.457 -701.544C565.581 -694.688 558.883 -690.397 552.046 -686.017C548.725 -683.895 545.379 -681.751 543.105 -679.283C542.234 -678.362 541.386 -677.438 540.537 -676.515C539.674 -675.574 538.81 -674.633 537.936 -673.689C538.641 -673.731 539.365 -673.729 540.08 -673.723C541.816 -673.718 543.538 -673.71 545.039 -674.286C578.759 -686.581 613.256 -696.509 647.763 -706.437L648.122 -706.541L648.346 -703.839C648.509 -701.966 713.113 -714.142 812.242 -738.412C911.372 -762.682 953.279 -792.529 1068.98 -771.931C1077 -770.504 1083.77 -764.895 1091.59 -762.629C1131.31 -751.059 1179.39 -740.777 1215.38 -718.584C1281.5 -677.799 1342.14 -626.199 1411.53 -590.525C1466.76 -562.134 1527.54 -554.235 1580.62 -521.974C1603.46 -508.105 1615.21 -495.166 1631.02 -477.729L1610.28 -268.245C1607.31 -269.003 1604.32 -269.722 1601.32 -270.442C1579.96 -275.551 1558.33 -280.735 1543.95 -298.967C1527.9 -319.356 1534.16 -352.641 1556.91 -382.992L1557.7 -384.043C1583.23 -418.622 1579.91 -436.605 1544.44 -462.033C1526.79 -474.716 1508.23 -487.873 1488.01 -490.489L1488.3 -490.46C1423.83 -514.599 1360.29 -540.025 1299.63 -572.414C1297.81 -573.769 1296.01 -575.136 1294.24 -576.532C1278.68 -588.78 1264.54 -602.796 1248.82 -614.865C1239.98 -621.656 1229.15 -625.7 1220.72 -633.002C1189.96 -659.659 1214.57 -652.578 1182.1 -667.471L1180.27 -668.302C1160.37 -677.237 1123.91 -690.348 1105.59 -678.483C1087.59 -666.837 1106.35 -661.692 1081.33 -662.41C1067.44 -662.811 1053.81 -666.95 1039.93 -667.15C1038.48 -667.173 1037.46 -663.94 1038.59 -663.025L1040.75 -659.324C1020.11 -665.853 998.193 -675.257 990.255 -659.565L989.008 -659.02C973.175 -662.445 956.783 -665.577 939.822 -668.714L934.198 -669.735C903.702 -675.327 850.967 -683.688 813.795 -678.872L789.975 -675.775C722.706 -666.978 769.003 -672.038 695.596 -648.75L693.103 -647.961C610.637 -622.037 601.439 -627.252 535.836 -567.884L530.473 -563.006C514.377 -548.256 482.977 -518.175 481.208 -496.88C480.717 -490.893 488.386 -486.419 488.672 -480.406C489.091 -471.691 480.542 -463.102 483.235 -454.803C484.609 -450.581 491.667 -458.226 494.878 -461.297C504.801 -470.771 509.696 -475.705 512.438 -477.987C569.219 -518.212 631.264 -546.706 699.317 -561.925C700.71 -562.303 702.022 -563.269 703.324 -564.226C703.894 -564.634 704.464 -565.042 705.043 -565.449C704.711 -565.946 704.389 -566.442 704.065 -566.967C703.323 -568.212 702.485 -569.399 701.561 -570.516C688.763 -584.427 699.846 -588.646 708.473 -591.928C709.534 -592.334 710.557 -592.72 711.492 -593.115L714.084 -594.251C737.778 -604.377 763.027 -608.261 788.29 -612.149C797.319 -613.539 806.353 -614.929 815.313 -616.6C817.121 -617.07 818.868 -617.749 820.519 -618.625C821.328 -619.009 822.136 -619.393 822.95 -619.735C822.047 -619.992 821.15 -620.308 820.252 -620.62C818.157 -621.356 816.043 -622.095 813.9 -622.117C765.606 -623.008 718.417 -615.362 671.632 -604.338L671.266 -604.253C670.029 -603.953 668.651 -603.584 667.215 -603.15C660.797 -601.315 653.2 -599.147 651.629 -603.542C649.502 -609.487 656.993 -612.924 663.155 -615.75C664.357 -616.299 665.51 -616.831 666.527 -617.348L668.413 -618.303C729.482 -648.895 795.63 -656.317 862.63 -658.876L866.772 -659.028C965.739 -662.563 1053.57 -633.214 1131.73 -571.748C1138.66 -566.293 1146.09 -561.426 1153.48 -556.593C1174.53 -542.799 1195.34 -529.149 1204.02 -502.45C1209.86 -484.437 1209.66 -465.954 1209.46 -447.475C1209.36 -438.76 1209.27 -430.05 1209.81 -421.383L1209.85 -420.715C1211.11 -401.246 1216.14 -384.484 1237.52 -377.421L1237.84 -377.311C1242.32 -375.641 1241.49 -371.586 1237.42 -368.911C1209.63 -350.907 1185.74 -360.986 1181.12 -392.594C1188.94 -417.497 1190.82 -443.638 1180.14 -467.873C1178.24 -472.138 1174.38 -475.298 1170.71 -478.191C1169.12 -479.457 1167.51 -480.719 1165.91 -481.978L1164.77 -482.861L1163.33 -483.983L1161.8 -485.17L1160.4 -486.238L1158.82 -487.443L1157.42 -488.511L1155.82 -489.723L1154.43 -490.766L1152.77 -492.003L1151.43 -492.995L1149.58 -494.347L1148.42 -495.191C1147.42 -495.918 1146.41 -496.644 1145.39 -497.349L1144.87 -498.914C1125.02 -557.958 1062.32 -614.443 993.554 -631.922C962.186 -639.993 929.928 -644.089 897.538 -644.113C895.485 -644.061 893.417 -643.435 891.373 -642.811C890.453 -642.53 889.539 -642.254 888.63 -642.033L890.463 -641.267C892.276 -640.45 894.139 -639.75 896.041 -639.168C899.342 -638.182 902.665 -637.235 905.971 -636.29C925.551 -630.711 945.141 -625.131 961.226 -611.499C963.194 -609.8 964.339 -607.114 965.485 -604.428C966.028 -603.158 966.57 -601.888 967.202 -600.72C966.022 -600.242 964.837 -599.617 963.647 -598.996C961.144 -597.684 958.626 -596.359 956.11 -596.358C942.647 -596.386 929.163 -596.895 915.674 -597.404C878.366 -598.814 841.03 -600.222 804.116 -591.493C802.691 -591.17 801.142 -590.859 799.533 -590.554C792.623 -589.279 784.869 -587.827 784.24 -580.767C784.062 -579.219 784.359 -577.653 785.091 -576.277C773.863 -577.387 762.555 -577.409 751.323 -576.342C748.932 -576.114 746.474 -575.815 744.392 -574.619C742.309 -573.423 740.683 -571.113 741.024 -568.74C749.246 -565.701 758.009 -564.402 766.759 -564.924C771.374 -565.2 776.075 -565.975 780.556 -564.853C782.605 -564.344 784.54 -563.446 786.593 -562.983C791.997 -561.756 797.709 -563.591 803.158 -562.587C807.768 -561.736 811.745 -558.951 815.975 -556.935C817.576 -556.173 819.696 -555.596 820.944 -556.851C821.862 -557.773 821.792 -559.312 821.134 -560.454L822.029 -560.119C848.808 -550.006 875.614 -539.881 898.96 -522.447C944.021 -488.9 943.773 -443.352 896.648 -413.004C892.304 -410.211 887.941 -407.365 883.548 -404.494L883.498 -404.462C842.708 -377.824 799.787 -349.794 750.913 -355.469C715.71 -359.563 680.863 -358.25 646.123 -356.945C617.47 -355.868 588.883 -354.793 560.205 -356.751C551.828 -357.302 540.282 -358.631 539.562 -368.244C538.857 -377.019 545.43 -386.282 553.635 -391.492C563.936 -398.04 575.003 -403.268 586.07 -408.496C603.166 -416.554 620.256 -424.65 634.478 -437.598C643.943 -446.11 650.506 -459.074 644.888 -470.653C640.153 -480.371 628.948 -477.552 619.649 -475.218C618.821 -475.013 618.006 -474.805 617.217 -474.614L614.454 -473.959C575.451 -464.579 541.684 -444.205 509 -421.839L505.842 -419.672C505.104 -419.221 504.323 -418.844 503.511 -418.547C503.027 -418.349 502.543 -418.146 502.056 -417.916C502.208 -418.235 502.348 -418.569 502.488 -418.908C502.815 -419.875 503.322 -420.77 503.985 -421.546C563.036 -481.558 660.311 -529.817 754.375 -509.118L754.748 -509.034L756.263 -508.722C762.058 -507.549 768.621 -506.217 770.19 -498.474L770.099 -497.555L766.575 -495.545C757.949 -490.628 749.387 -485.75 740.815 -480.73C739.615 -479.917 738.514 -478.967 737.535 -477.897C737.136 -477.473 736.746 -477.098 736.347 -476.724C737.119 -476.741 737.909 -476.695 738.693 -476.645C740.272 -476.554 741.846 -476.458 743.307 -476.866C747.183 -477.931 751.168 -479.259 755.201 -480.601C771.79 -486.123 789.166 -491.906 802.831 -480.793L803.541 -480.226C823.271 -464.663 838.334 -472.225 853.862 -480.016C856.74 -481.463 859.637 -482.913 862.581 -484.232L863.068 -484.458C876.027 -490.46 875.224 -500.123 865.406 -509.146C831.935 -539.879 790.183 -545.03 747.485 -545.367L745.503 -545.377C680.125 -545.583 618.812 -530.017 568.965 -486.245L567.492 -484.966C559.522 -478.103 551.105 -471.73 542.696 -465.398C526.18 -452.928 509.685 -440.478 496.648 -424.213L495.78 -423.143C494.496 -421.571 493.174 -419.988 491.846 -418.393C479.153 -403.162 465.443 -386.717 472.32 -365.764C479.238 -344.519 499.368 -339.991 518.721 -335.632C521.573 -334.987 524.412 -334.349 527.19 -333.66L528.523 -333.329C531.901 -332.47 535.302 -331.687 538.713 -330.927C538.557 -330.853 538.406 -330.775 538.258 -330.693C537.038 -329.997 537.225 -328.089 538.584 -327.745L538.814 -327.722L565.45 -325.266C567.112 -324.888 568.776 -324.496 570.441 -324.089C573.038 -323.498 575.38 -321.079 577.35 -318.836L578.021 -318.059C578.361 -317.743 575.754 -313.929 573.875 -312.726C531.866 -285.312 429.898 -290.766 391.785 -322.399C373.666 -337.44 364.37 -357.741 357.245 -379.374L355.824 -383.786C333.063 -453.51 315.773 -457.98 255.006 -413.27C222.216 -389.122 193.73 -360.704 167.58 -329.667L167.355 -329.411C166.955 -328.935 166.542 -328.428 166.129 -327.912C163.231 -324.335 159.913 -320.23 155.442 -322.256C152.774 -323.448 151.377 -330.812 151.887 -335.019C156.775 -375.014 174.434 -409.204 199.987 -439.835L200.24 -439.536C199.074 -437.603 197.903 -435.672 196.728 -433.746C184.742 -414.038 172.741 -394.309 168.003 -371.168C167.852 -370.491 167.67 -369.78 167.487 -369.055C166.404 -364.83 165.205 -360.074 169.587 -358.14C172.254 -356.947 178.19 -360.622 181.328 -363.478L185.506 -367.215C217.537 -395.844 250.347 -423.519 287.677 -445.319C325.008 -467.118 346.17 -458.517 359.723 -417.532C361.403 -412.462 362.961 -407.326 364.519 -402.199C372.573 -375.678 380.62 -349.098 405.511 -331.501C406.779 -330.572 408.097 -329.764 409.439 -328.967L411.446 -327.765C422.732 -320.997 434.742 -316.845 448.107 -317.003C445.092 -318.119 442.037 -319.155 438.978 -320.191C432.316 -322.453 425.632 -324.721 419.331 -327.82C404.41 -335.153 394.59 -345.945 387.447 -358.544C391.371 -354.32 395.955 -350.681 400.618 -347.178L400.947 -346.932L402.762 -345.568C408.083 -341.582 413.478 -337.542 419.609 -334.985C427.298 -331.753 435.758 -330.957 444.064 -330.2C461.169 -328.641 478.695 -327.119 495.276 -331.574C486.935 -337.6 476.97 -340.969 466.683 -341.24C456.029 -341.496 444.695 -338.491 435.021 -343.015C434.639 -343.192 434.263 -343.382 433.898 -343.59L433.534 -343.798C433.292 -343.933 433.05 -344.069 432.818 -344.212L432.38 -344.483C432.17 -344.615 431.965 -344.747 431.761 -344.888C431.557 -345.029 431.475 -345.093 431.327 -345.196L430.76 -345.609L430.329 -345.949C430.148 -346.093 429.972 -346.235 429.801 -346.382C429.63 -346.529 429.528 -346.623 429.373 -346.75C429.218 -346.876 429.036 -347.048 428.875 -347.203C428.714 -347.358 428.612 -347.461 428.481 -347.59C428.35 -347.719 428.164 -347.905 428.008 -348.064L427.631 -348.473C427.48 -348.637 427.329 -348.8 427.184 -348.982L426.822 -349.407L426.408 -349.913L426.063 -350.36C425.927 -350.536 425.796 -350.716 425.651 -350.898L425.321 -351.358C425.191 -351.542 425.065 -351.727 424.94 -351.915C424.814 -352.104 424.734 -352.228 424.636 -352.41C424.538 -352.591 424.391 -352.796 424.27 -352.989C424.15 -353.182 424.075 -353.31 423.98 -353.482L423.637 -354.092C423.546 -354.254 423.455 -354.412 423.37 -354.583C423.284 -354.754 423.143 -355.009 423.034 -355.224L422.79 -355.713C422.677 -355.938 422.57 -356.166 422.463 -356.395L422.246 -356.881C422.131 -357.129 422.025 -357.367 421.917 -357.633L421.735 -358.046L421.334 -359.014L421.256 -359.212C421.1 -359.613 420.955 -360.018 420.809 -360.422C420.766 -360.547 420.726 -360.667 420.688 -360.792C420.59 -361.075 420.489 -361.364 420.397 -361.652C420.343 -361.81 420.299 -361.972 420.245 -362.131L420.013 -362.888L419.861 -363.418L419.659 -364.144L419.519 -364.696C419.456 -364.935 419.396 -365.173 419.339 -365.411C419.293 -365.601 419.247 -365.791 419.205 -365.981C419.163 -366.171 419.094 -366.456 419.043 -366.684L418.919 -367.268C418.868 -367.5 418.822 -367.742 418.775 -367.964C418.727 -368.187 418.697 -368.357 418.661 -368.556C418.625 -368.755 418.574 -369.029 418.531 -369.256L418.431 -369.842C418.39 -370.078 418.353 -370.314 418.315 -370.545C418.278 -370.776 418.256 -370.936 418.224 -371.13L418.127 -371.836L418.046 -372.424L417.962 -373.12C417.935 -373.318 417.913 -373.515 417.89 -373.707C417.867 -373.9 417.839 -374.177 417.816 -374.411L417.761 -374.983C417.738 -375.222 417.715 -375.452 417.697 -375.7C417.68 -375.948 417.664 -376.07 417.65 -376.257C417.587 -377.071 417.533 -377.885 417.496 -378.687C417.457 -379.559 417.343 -380.427 417.154 -381.279L417.159 -381.334C417.799 -395.813 421.987 -410.108 424.725 -424.449C426.084 -431.558 427.074 -438.792 426.694 -446.017C425.803 -462.249 417.942 -477.347 415.824 -493.469C415.295 -497.166 415.268 -500.917 415.744 -504.621C415.992 -505.215 416.25 -505.809 416.519 -506.401C416.604 -506.597 416.697 -506.792 416.786 -506.988C416.965 -507.383 417.148 -507.783 417.335 -508.173L417.669 -508.869L418.192 -509.932C418.314 -510.175 418.439 -510.413 418.561 -510.657L419.093 -511.672L419.486 -512.404C419.668 -512.739 419.854 -513.068 420.049 -513.402C420.18 -513.64 420.315 -513.877 420.45 -514.115C420.652 -514.466 420.858 -514.812 421.059 -515.159C421.187 -515.374 421.312 -515.599 421.438 -515.8C421.761 -516.339 422.092 -516.872 422.423 -517.401L422.456 -517.449L423.135 -518.496L423.475 -519.02L423.623 -519.242C423.786 -519.486 423.954 -519.729 424.122 -519.968C424.289 -520.207 424.443 -520.447 424.611 -520.686L424.833 -521.007C425.15 -521.44 425.48 -521.914 425.807 -522.364L426.082 -522.741L426.37 -523.121C426.6 -523.428 426.825 -523.731 427.059 -524.033C427.161 -524.171 427.267 -524.305 427.376 -524.466L427.689 -524.857C427.912 -525.141 428.131 -525.426 428.359 -525.719L428.704 -526.15C428.773 -526.24 428.846 -526.326 428.92 -526.411C429.179 -526.729 429.447 -527.046 429.706 -527.36C429.822 -527.501 429.942 -527.638 430.064 -527.789C430.285 -528.05 430.514 -528.306 430.74 -528.567C430.86 -528.703 430.976 -528.841 431.098 -528.996L431.448 -529.388L431.63 -529.588C431.923 -529.915 432.22 -530.243 432.522 -530.573L432.843 -530.908C433.108 -531.192 433.364 -531.478 433.651 -531.756L433.988 -532.113L434.132 -532.252C435.51 -533.663 436.928 -535.022 438.385 -536.33L438.507 -536.439C438.859 -536.752 439.219 -537.06 439.575 -537.373L440.134 -537.861C440.158 -537.876 440.18 -537.894 440.2 -537.915C440.498 -538.164 440.801 -538.412 441.101 -538.666L441.798 -539.242C441.97 -539.383 442.146 -539.519 442.304 -539.656L442.707 -539.979C442.964 -540.181 443.212 -540.393 443.477 -540.585L444.241 -541.164L444.381 -541.266L445.208 -541.89L445.738 -542.265L446.098 -542.531L446.972 -543.146L447.206 -543.308L447.854 -543.755L448.769 -544.365L449.166 -544.628L449.661 -544.936L450.612 -545.538L450.661 -545.566L451.478 -546.075L452.466 -546.674L453.319 -547.174L454.366 -547.767C454.642 -547.921 454.917 -548.075 455.196 -548.223C455.569 -548.428 455.945 -548.614 456.319 -548.823L456.52 -548.928L457.097 -549.228C457.523 -549.446 457.948 -549.655 458.377 -549.868C458.592 -549.972 458.807 -550.085 459.027 -550.189C459.677 -550.502 460.326 -550.805 460.974 -551.097C465.834 -553.29 470.939 -555.05 475.508 -557.815C480.783 -561.008 485.181 -565.42 489.85 -569.438C498.933 -577.253 509.149 -583.644 520.148 -588.396C523.456 -589.823 527.04 -591.27 529.006 -594.288C530.972 -597.307 530.063 -602.388 526.539 -603.132C509.791 -593.929 492.405 -585.942 474.513 -579.231C470.043 -577.556 465.406 -575.879 461.891 -572.648C459.194 -570.17 457.338 -566.946 455.266 -563.934C444.192 -547.85 426.871 -537.744 414.387 -522.943C402.23 -508.536 392.846 -490.813 382.743 -474.922C379.537 -469.877 376.324 -464.771 374.188 -459.188C371.484 -452.134 370.574 -444.544 369.674 -437.046C368.713 -428.937 367.751 -420.772 368.352 -412.633C368.365 -412.432 368.387 -412.23 368.404 -412.025C366.328 -419.524 364.167 -427.014 361.591 -434.332C357.126 -446.92 352.132 -456.042 346.079 -461.869L346.313 -461.651C337.327 -478.281 325.623 -485.882 311.202 -484.453C305.383 -483.877 299.539 -477.984 294.157 -479.858C293.262 -480.193 292.818 -480.404 292.525 -481.283C291.806 -483.634 294.885 -488.056 296.725 -490.553L296.88 -490.76C300.416 -495.581 304.848 -499.674 309.933 -502.817C308.497 -498.864 308.381 -494.501 311.295 -492.801C317.414 -489.228 325.183 -500.541 331.869 -498.193C338.212 -495.949 337.75 -485.418 343.219 -481.524C347.072 -478.788 355.763 -475.639 357.326 -480.127C359.547 -486.468 350.785 -492.044 349.189 -498.577C348.45 -501.617 347.973 -506.126 350.572 -507.852C358.689 -513.344 377.286 -516.216 394.184 -528.189C411.082 -540.162 424.069 -555.494 439.504 -577.924C449.745 -584.557 459.636 -591.281 468.969 -598.079C468.472 -597.747 467.975 -597.42 467.447 -597.101C470.24 -599.146 472.963 -601.23 475.653 -603.313L476.489 -603.969L475.805 -603.763C500.473 -611.21 523.696 -622.343 546.924 -633.485C562.524 -640.981 578.18 -648.476 594.26 -654.856C701.542 -697.309 813.713 -715.473 928.053 -723.601L932.814 -723.947C975.648 -727.135 990.681 -751.648 958.922 -746.31C804.055 -720.343 649.281 -694.382 499.581 -641.261C488.647 -637.38 477.682 -633.6 466.727 -629.828C397.528 -605.993 328.843 -582.33 271.835 -534.318C206.617 -479.361 149.412 -417.407 130.393 -330.183C122.365 -293.094 127.083 -258.355 157.111 -231.205C159.188 -229.3 162.038 -228.303 164.905 -227.299L165.228 -227.183C165.65 -227.036 166.101 -226.989 166.545 -227.044C166.989 -227.1 167.414 -227.257 167.787 -227.503C168.161 -227.75 168.473 -228.079 168.698 -228.465C168.924 -228.852 169.057 -229.285 169.088 -229.731L169.092 -229.772C169.278 -232.447 169.458 -235.104 168.964 -237.627C157.379 -297.501 221.998 -390.397 282.54 -400.891C312.089 -406.053 327.054 -387.197 339.532 -366.58L341.404 -363.447C365.399 -323.535 397.569 -295.049 443.809 -283.868C445.014 -283.563 446.087 -282.778 447.165 -281.989C447.702 -281.597 448.239 -281.205 448.796 -280.871C448.188 -280.685 447.588 -280.443 446.984 -280.206C445.835 -279.666 444.605 -279.318 443.344 -279.173C432.072 -278.297 421.425 -281.251 410.936 -284.815L408.767 -285.564C407.539 -285.959 406.27 -286.275 405.003 -286.563C404.141 -286.769 403.28 -286.975 402.439 -287.207C403.203 -286.667 403.934 -286.131 404.656 -285.539C405.723 -284.647 406.861 -283.842 408.058 -283.131C413.588 -279.993 419.154 -276.888 424.733 -273.773C428.547 -271.649 432.36 -269.518 436.172 -267.379L436.613 -267.136C442.599 -263.725 446.339 -260.137 446.743 -251.418L446.776 -250.951C447.457 -243.157 455.66 -243.32 462.285 -243.454L462.722 -243.461L463.308 -243.473L463.912 -243.478L467.26 -243.476C512.627 -243.558 555.613 -255.975 598.551 -268.383C604.106 -270 609.661 -271.595 615.216 -273.168L620.947 -274.783L622.098 -275.101L623.316 -275.445L625.531 -276.061C646.018 -281.745 666.658 -287.474 684.168 -300.515C696.078 -309.434 698.014 -320.544 689.097 -332.529L688.787 -332.954C682.318 -341.855 686.517 -345.107 694.852 -346.993L695.645 -347.166C706.291 -349.362 716.837 -347.129 727.233 -344.915C737.81 -342.666 748.232 -340.445 758.439 -342.986C822.215 -358.996 882.122 -384.559 926.265 -435.395C948.548 -461.048 938.169 -493.862 904.315 -522.594C886.032 -538.042 864.867 -548.49 843.677 -558.956C837.803 -561.859 831.929 -564.762 826.111 -567.762C825.439 -568.102 824.729 -568.437 824.006 -568.778C819.321 -570.983 814.075 -573.476 814.639 -579.178C815.32 -585.202 821.294 -586.315 826.47 -587.293L826.892 -587.372L830.371 -588.049C871.933 -595.88 913.129 -590.793 954.32 -584.565L958.309 -583.961C969.74 -582.179 981.043 -580.507 992.488 -579.096L993.583 -578.987C998.73 -578.361 1004.48 -577.662 1007.49 -582.717C1009.96 -586.874 1007.77 -590.676 1005.62 -594.408C1004.97 -595.546 1004.32 -596.678 1003.8 -597.811C1003.27 -599.043 1002.54 -600.397 1001.8 -601.765C999.929 -605.243 998.005 -608.827 999.062 -610.784C1001.18 -614.754 1005.88 -613.652 1010.21 -612.625C1011.23 -612.384 1012.23 -612.145 1013.18 -611.982L1014.64 -611.712C1062.9 -602.471 1111.76 -556.258 1131.98 -506.765L1131.85 -506.852L1129.3 -508.465L1128.14 -509.188L1126.98 -509.907L1126.75 -510.441C1112.68 -542.173 1088.63 -567.031 1055.22 -585.23C1045.9 -590.332 1038.35 -590.884 1038.09 -575.165L1038.08 -574.428C1037.41 -553.921 1023.44 -557.305 1011.75 -560.125C1009.82 -560.589 1007.96 -561.038 1006.24 -561.362L999.627 -562.658C995.377 -563.502 991.116 -564.361 986.844 -565.233L986.766 -565.24C978.213 -566.979 969.66 -568.713 961.092 -570.29L953.45 -572.268L947.612 -573.798L945.865 -574.259L941.069 -575.527L939.26 -576.013L934.023 -577.428L932.698 -577.786C930.465 -578.393 928.227 -579.005 925.968 -579.632C922.866 -580.409 919.708 -580.942 916.523 -581.227C906.802 -582.231 893.991 -582.13 887.413 -579.327C885.997 -578.724 885.042 -577.375 884.377 -575.862L881.035 -575.691C875.483 -575.373 869.628 -574.573 868.052 -568.74C866.527 -563.091 871.54 -559.605 876.118 -556.421C877.243 -555.637 878.338 -554.874 879.306 -554.1L880.903 -552.837C883.712 -550.622 886.537 -548.439 889.362 -546.255C902.103 -536.409 914.81 -526.602 925.602 -514.32C951.015 -485.496 953.123 -450.649 925.915 -423.701C882.109 -380.302 826.717 -355.56 770.47 -332.862L763.047 -329.882C760.152 -328.776 756.646 -327.925 753.835 -328.57C733.564 -332.941 709.996 -316.349 695.04 -295.71C693.179 -293.14 696.057 -289.805 698.88 -291.257C719.038 -301.644 740.64 -320.418 755.321 -321.579C767.582 -322.547 779.941 -323.52 790.434 -330.318L793.906 -332.551C809.845 -342.581 826.558 -351.42 843.276 -360.263L843.304 -360.26C856.847 -367.425 870.4 -374.594 883.537 -382.394C882.913 -379.419 884.679 -376.621 886.914 -374.858L884.415 -373.392L877.367 -369.317C873.097 -366.836 868.827 -364.346 864.555 -361.847C837.022 -345.731 809.307 -329.508 779.967 -317.546C753.426 -306.709 727.359 -294.608 701.277 -282.5C636.546 -252.437 571.812 -222.347 499.582 -211.739C434.309 -202.086 373.481 -207.459 322.133 -254.225C319.248 -256.92 316.416 -260.163 314.633 -263.678C314.245 -264.455 313.816 -265.231 313.401 -266.01C310.12 -272.167 302.113 -283.871 309.429 -285.961L315.45 -282.811C319.209 -280.117 319.04 -277.148 323.711 -272.966C324.759 -272.064 325.891 -271.26 327.028 -270.451C327.487 -270.122 327.951 -269.793 328.406 -269.46C328.484 -269.402 328.576 -269.365 328.672 -269.351C328.769 -269.337 328.867 -269.348 328.958 -269.383C329.05 -269.417 329.131 -269.474 329.194 -269.548C329.258 -269.622 329.302 -269.711 329.322 -269.806C329.406 -270.183 329.495 -270.56 329.583 -270.936C329.994 -272.384 330.216 -273.879 330.242 -275.384C330.121 -283.545 332.093 -287.519 341.862 -284.885L343.786 -284.342C350.944 -282.31 359.894 -279.761 364.618 -286.337C368.795 -292.178 364.425 -297.472 360.333 -302.427C359.16 -303.853 358.007 -305.244 357.089 -306.616C345.481 -324.161 333.869 -341.706 321.366 -358.503C304.843 -380.704 283.66 -382.987 261.025 -368.74C233.337 -351.196 210.253 -328.659 193.355 -300.319C181.135 -279.794 179.619 -259.231 188.185 -239.717C192.554 -220.577 207.602 -202.618 233.227 -185.538C261.541 -166.692 292.707 -155.866 324.443 -146.627C326.133 -145.457 327.583 -143.735 329.025 -142.027C329.495 -141.47 329.96 -140.918 330.436 -140.378C330.674 -140.117 330.801 -139.773 330.789 -139.419C330.778 -139.066 330.629 -138.731 330.374 -138.485C329.815 -137.951 329.266 -137.379 328.711 -136.793C326.966 -134.969 325.221 -133.145 323.195 -132.668C278.084 -121.664 227.261 -113.844 192.634 -144.203C157.92 -174.571 123.431 -211.909 111.266 -261.282C101.313 -301.776 109.852 -339.994 126.248 -376.384L126.09 -376.153ZM760.064 -395.651C724.282 -397.69 674.668 -439.98 651.978 -412.232L649.533 -408.499C634.443 -390.028 661.64 -392.851 679.873 -390.172C692.731 -388.268 705.891 -384.388 718.981 -381.155L716.847 -381.831L715.6 -382.224C721.592 -380.33 727.561 -378.481 733.168 -376.77L749.713 -371.719C750.325 -371.532 750.959 -371.424 751.599 -371.397C788.737 -369.963 815.925 -384.993 842.334 -401.481L848.036 -405.053C848.382 -405.218 848.526 -405.729 848.674 -406.239C848.731 -406.442 848.788 -406.645 848.857 -406.824C848.461 -406.807 848.065 -406.812 847.67 -406.84C847.007 -406.923 846.334 -406.866 845.694 -406.673C832.614 -401.964 819.287 -397.972 805.772 -394.714L808.088 -395.878C808.432 -396.049 808.729 -396.303 808.951 -396.616C809.174 -396.929 809.316 -397.293 809.365 -397.674C809.414 -398.055 809.368 -398.443 809.231 -398.802C809.094 -399.161 808.871 -399.481 808.581 -399.734C795.373 -411.099 776.054 -394.787 760.084 -395.714L760.064 -395.651ZM865.824 -521.057C886.494 -508.01 900.671 -484.714 864.815 -466.748C842.829 -455.724 817.366 -453.514 794.241 -445.101C787.396 -442.608 788.687 -433.607 794.777 -430.868C801.671 -427.729 808.939 -425.485 816.403 -424.19L816.398 -424.144L816.69 -423.995L819.702 -422.429L821.15 -421.677L823.626 -420.373C862.888 -417.229 912.244 -442.072 918.977 -466.97C923.663 -484.383 901.607 -516.209 883.518 -517.907C883.041 -517.932 882.564 -517.872 882.108 -517.731L881.633 -517.629L881.316 -517.568C881.394 -517.277 881.471 -516.972 881.542 -516.663C881.733 -515.679 882.062 -514.727 882.521 -513.836C882.999 -513.041 883.461 -512.267 883.91 -511.502L882.919 -513.165C878.854 -515.959 874.546 -517.709 868.733 -519.956L865.74 -521.098L865.824 -521.057Z" fill="#4195C4"/>
</g>
<path d="M927.037 -11.9115C912.135 -15.1736 896.379 -27.5013 874.048 -35.4164C857.751 -41.1921 838.738 -44.1955 821.988 -49.6431C807.664 -54.2915 792.587 -63.3293 781.387 -67.9961C769.027 -73.1481 760.978 -73.9751 755.414 -77.1218L755.16 -77.2557L755.77 -76.9046C759.402 -74.8392 763.015 -73.3467 767.081 -71.6695C773.207 -69.246 779.172 -66.4341 784.94 -63.2508C788.221 -61.4025 792.06 -58.7965 796.126 -56.0149C803.228 -51.1587 811.023 -45.8265 817.746 -43.4331C825.878 -40.5452 834.588 -38.9604 843.159 -37.3986C855.473 -35.1576 867.519 -32.9674 877.167 -27.0254C906.175 -9.17606 938.621 1.82555 962.759 1.82555C994.701 1.82555 1028.19 2.93449 1052.77 4.5979C1042.06 0.711469 1031.14 -2.55605 1020.05 -5.18849C991.531 -11.8283 960.665 -4.54162 927.032 -11.9068" fill="#FDD535"/>
<path d="M11.2787 -764.586C-21.1485 -712.836 9.85553 -656.229 22.6592 -605.499C26.1385 -591.726 26.0137 -577.111 30.3201 -563.577C34.2384 -551.263 42.7172 -540.802 47.1114 -528.654L51.2699 -517.14C58.3671 -497.308 50.526 -485.9 52.9887 -478.013L53.5524 -476.165L56.7083 -469.594C59.6008 -463.537 63.057 -444.315 67.1832 -435.402L69.1053 -431.243C92.3099 -381.078 73.9615 -340.185 82.2924 -291.189C92.2406 -232.664 97.1846 -310.988 90.5402 -218.105C87.0563 -169.441 62.752 -115.357 34.6819 -75.6016C30.7775 -70.0569 24.0269 -60.8157 17.6598 -46.3903C11.2926 -31.9648 3.51152 18.6814 -11.8196 49.6116C-16.4018 58.8105 -22.4472 67.2044 -29.7197 74.4657C-12.5127 66.1487 -0.0509644 72.9271 12.9929 80.0104C19.4895 83.536 26.1339 87.1446 33.5777 89.0067C53.936 94.0894 60.6312 78.4949 68.3892 60.4099C69.7245 57.2957 71.0922 54.1075 72.5477 50.9377L73.4718 48.9463C79.2707 36.2304 83.3136 11.9816 87.62 -13.8382C90.7666 -32.7133 94.0565 -52.4247 98.2705 -69.0866L98.8943 -71.5031C102.725 -86.0626 114.637 -94.144 126.535 -102.184C132.112 -105.963 137.689 -109.738 142.425 -114.197C166.318 -136.69 177.199 -171.627 166.225 -193.565C162.46 -200.958 155.806 -204.83 148.949 -208.314L143.811 -210.892C142.082 -211.708 140.31 -212.428 138.502 -213.05C132.731 -215.152 126.816 -217.31 127.024 -223.798C127.255 -231.112 134.491 -234.346 141.117 -236.735L144.952 -238.121C152.207 -240.806 159.918 -242.405 167.593 -243.994C169.677 -244.428 171.752 -244.858 173.831 -245.311L174.293 -245.413C175.517 -245.676 176.779 -245.875 178.04 -246.087C183.724 -247.011 189.467 -247.963 192.202 -254.164C195.497 -261.659 191.87 -268.026 187.97 -273.991L186.122 -276.8C179.5 -286.582 170.093 -293.772 158.92 -296.47L158.038 -296.692C133.646 -303.008 128.655 -321.098 123.24 -340.698C122.464 -343.508 121.683 -346.349 120.828 -349.191L120.181 -351.316C110.353 -382.736 98.5708 -413.533 86.7929 -444.301C71.1476 -485.156 55.5116 -526.007 44.4638 -568.382L43.9324 -570.392C40.5963 -582.822 36.484 -595.062 32.3809 -607.297C23.8652 -632.645 15.3495 -657.985 13.76 -684.992C10.7382 -736.1 39.3534 -778.48 95.743 -804.097L95.5905 -804.028L90.8498 -803.163C68.8466 -799.097 48.7055 -794.782 30.0152 -786.529C22.7946 -780.13 16.5105 -772.746 11.348 -764.595" fill="#FEECA5"/>
<path d="M228.954 -46.4134C220.993 -64.0871 210.555 -80.9384 206.498 -99.8921C200.57 -127.569 208.744 -157.649 198.385 -183.987C197.599 -185.974 196.578 -188.076 194.656 -189.019C188.889 -191.851 185.184 -182.55 185.415 -176.122C187.1 -123.288 184.007 -70.4088 176.174 -18.1308C174.954 -10.0124 173.6 -1.82477 170.472 5.76685C165.722 17.3183 157.104 26.9384 152.595 38.573C149.971 45.4689 148.853 52.8459 149.314 60.2095C149.776 67.573 151.806 74.7527 155.27 81.2672C166.322 87.907 181.418 82.4778 189.73 72.6221C198.043 62.7664 201.236 49.704 204.179 37.1499C206.554 27.0123 208.93 16.8763 211.308 6.74178C211.743 4.89355 212.26 2.90671 213.72 1.69611C224.708 -7.38795 227.614 18.9771 238.302 1.35881C245.14 -9.9108 233.63 -36.091 228.991 -46.3903" fill="#FDD535"/>
<path d="M357.822 -80.2546C365.289 -72.3719 371.656 -63.8608 378.5 -55.4744C385.893 -46.3904 396.104 -40.342 406.223 -34.8851C423.781 -25.4314 442.596 -17.8675 460.201 -8.11806C486.164 6.2612 510.353 14.4119 540.137 13.9129C564.917 13.4924 586.527 26.8043 604.968 42.1909C613.687 49.4683 624.925 52.1991 635.335 55.8401C649.164 60.6825 663.086 66.0516 677.216 70.0715C693.235 74.6274 718.621 82.1635 734.802 75.9766C737.69 74.8723 739.242 72.7422 737.542 69.882C736.587 68.3246 735.435 66.8973 734.114 65.6357C713.783 59.7029 693.804 51.968 674.088 44.2794C668.668 42.1678 663.151 39.9915 658.456 36.6184L657.587 36.3366C657.615 36.2349 657.638 36.1333 657.666 36.0316C657.121 35.6158 656.586 35.1814 656.063 34.7286C650.781 30.108 647.339 23.8056 643.254 18.0945C638.423 11.3708 632.621 5.40077 626.038 0.379204C613.1 3.31328 600.916 5.84073 588.025 3.63671C575.706 1.53435 568.419 -5.96485 558.762 -14.0694C544.831 -25.7594 529.034 -36.4145 513.458 -45.4062C499.781 -53.3074 483.123 -55.8117 467.603 -59.2679C449.37 -63.3387 431.867 -68.1395 414.434 -74.8116C398.063 -81.0771 383.12 -88.5532 368.025 -97.5079C357.721 -103.626 336.434 -115.958 333.278 -113.578C330.122 -111.199 351.696 -86.7419 357.846 -80.2454" fill="#FEECA5"/>
<path d="M1297.65 34.6871C1295.27 34.2481 1292.79 33.6798 1291.01 32.0441C1288.41 29.6506 1288.07 25.737 1287.9 22.2069C1287.32 10.2396 1287.44 -3.45123 1296.33 -11.4587C1307.45 -21.4392 1324.63 -16.5413 1339.47 -14.7948C1360.4 -12.3505 1381.67 -17.5671 1402.6 -15.0166C1438.7 -10.627 1468.92 16.0523 1504.86 21.6247C1515.32 23.2465 1526.45 23.1541 1535.66 28.3661C1538.65 30.0526 1541.65 33.3794 1540.25 36.503C1539.43 38.3512 1537.39 39.2522 1535.5 39.9545C1500.73 52.9522 1459.67 47.6201 1429.38 26.1713C1424.22 22.5211 1419.35 18.4319 1413.85 15.3361C1397.09 5.90545 1375.07 8.0494 1359.44 18.8015C1352.01 23.9119 1347.96 32.1273 1340.03 35.5881C1329.04 40.375 1308.97 36.7894 1297.66 34.6871" fill="#FEECA5"/>
<path d="M864.238 41.9229L980.908 61.4587C989.687 62.9327 998.725 64.4806 1006.45 68.9533C1013.45 73.0148 1019.03 79.2941 1026.24 82.9767C1034.14 87.0059 1043.3 87.5973 1052.16 87.7683C1083.47 88.4127 1114.73 85.1186 1145.22 77.9634C1152.77 76.1891 1161.8 72.4603 1162.4 64.7301C1163.05 56.2559 1153.04 51.298 1144.68 49.7594C1113.08 43.9513 1080.15 52.2822 1048.58 46.4141C1023.77 41.7935 1001.38 28.745 977.119 21.8233C954.354 15.3268 930.451 14.3565 906.78 13.4277L836.76 10.6831C826.017 10.2626 815.131 9.81904 804.878 6.63084C791.543 2.49541 780.079 -5.98336 768.375 -13.5704C742.27 -30.4633 713.835 -43.446 683.971 -52.106C693.933 -28.1206 716.135 -9.59666 741.52 -4.12589C767.567 1.49737 774.632 12.2356 796.542 23.7362C817.141 34.5484 841.607 38.1294 864.266 41.9229" fill="#FEECA5"/>
<path d="M527.597 -72.5891C538.737 -58.9029 557.256 -52.8545 568.346 -39.1222C572.181 -34.3722 575.022 -28.8137 579.361 -24.5211C587.063 -16.8972 598.241 -14.3281 608.203 -10.0633C622.232 -4.02638 634.353 5.71747 643.264 18.1222C647.348 23.8287 650.791 30.1358 656.072 34.7563C661.215 39.2568 667.725 41.8258 674.092 44.3071C713.912 59.8323 754.8 75.5792 797.54 76.1891C818.333 76.4848 839.098 73.1719 859.835 74.5442C900.861 77.2611 938.149 97.8689 975.853 114.281C1013.56 130.694 1063.54 142.231 1095.27 129.293C1103.23 120.879 1056.14 123.887 1043.68 108.219C1037.07 99.902 1031.32 90.5915 1024.79 82.1866C1018.27 78.444 1012.98 72.7468 1006.46 68.9672C998.744 64.4944 989.729 62.9604 980.927 61.4726L864.238 41.9229C841.598 38.1294 817.109 34.5299 796.515 23.7363C774.604 12.231 767.539 1.49739 741.493 -4.12587C716.107 -9.61511 693.901 -28.1206 683.943 -52.106C685.232 -51.7317 686.522 -51.339 687.806 -50.9462C671.241 -59.7253 654.921 -68.9665 638.777 -78.4664C628.963 -84.2514 619.024 -90.2212 607.958 -92.915C601.72 -94.4306 595.237 -94.8695 589.097 -96.7362C571.418 -102.11 566.04 -97.1197 566.456 -96.5606C568.419 -93.7883 567.019 -92.1387 563.42 -92.051C547.451 -91.6674 531.714 -101.639 525.245 -116.244C522.509 -122.417 521.294 -129.302 517.575 -134.939C513.855 -140.576 506.231 -144.619 500.326 -141.339C514.728 -121.091 511.942 -91.8569 527.629 -72.5891" fill="#FDD535"/>
<path d="M750.54 -79.9265L753.192 -78.3971L755.151 -77.2651L755.414 -77.1219C760.959 -73.9753 769.027 -73.1482 781.387 -67.9962C792.587 -63.3294 807.683 -54.2915 821.988 -49.6432C838.738 -44.2048 857.751 -41.1922 874.048 -35.4165C896.379 -27.5014 912.135 -15.1737 927.037 -11.9116C960.67 -4.54634 991.536 -11.833 1020.06 -5.19322C1031.14 -2.56078 1042.06 0.706741 1052.77 4.59317C1084.42 15.909 1110.34 29.7661 1126.7 31.9655C1150.55 35.1722 1165.88 45.3652 1177.56 57.2725C1181.88 57.6098 1219.1 106.916 1235.34 106.916C1267.08 106.916 1284.56 91.8806 1295.17 49.5699C1295.43 48.5596 1295.69 47.56 1295.94 46.5712C1295.69 47.56 1295.42 48.558 1295.17 49.5699C1295.42 48.558 1295.69 47.5554 1295.95 46.5619C1295.97 46.4834 1295.99 46.4048 1296.01 46.3263C1296.28 45.3329 1296.55 44.3441 1296.82 43.3737V43.3322C1296.96 42.8378 1297.1 42.3434 1297.25 41.8536C1297.39 41.3638 1297.53 40.8786 1297.68 40.3935V40.3426C1297.89 39.6126 1298.12 38.8825 1298.34 38.1663C1298.11 38.881 1297.89 39.6064 1297.68 40.3426C1297.95 39.4416 1298.22 38.5591 1298.49 37.6812C1298.58 37.4039 1298.68 37.1313 1298.76 36.8541C1298.96 36.2303 1299.16 35.6065 1299.37 35.0059L1299.18 35.5788L1299.37 35.0059L1297.63 34.6824C1295.25 34.2435 1292.77 33.6751 1290.99 32.0395C1288.39 29.646 1288.04 25.7324 1287.88 22.2022C1287.3 10.2349 1287.41 -3.45589 1296.31 -11.4634C1307.43 -21.4438 1324.61 -16.546 1339.45 -14.804C1360.38 -12.3505 1381.65 -17.5764 1402.57 -15.0212C1413.09 -13.7413 1423.11 -10.5716 1432.92 -6.5794L1434.91 -6.38995L1435.37 -6.34374C1436.33 -6.24671 1437.28 -6.14968 1438.24 -6.04341H1438.4C1439.27 -5.94637 1440.14 -5.84935 1441.01 -5.74307L1441.63 -5.66914L1444.08 -5.35957L1444.44 -5.31336C1445.36 -5.18861 1446.32 -5.0546 1447.25 -4.92061L1447.68 -4.86054L1450.05 -4.50014L1450.69 -4.39848C1451.57 -4.25524 1452.45 -4.11201 1453.33 -3.93642H1453.44C1454.37 -3.7747 1455.29 -3.60836 1456.24 -3.43278L1456.8 -3.3265C1457.55 -3.18327 1458.3 -3.03541 1459.06 -2.86444L1459.67 -2.73969C1461.52 -2.3608 1463.35 -1.95573 1465.16 -1.52448L1465.8 -1.372L1468.03 -0.817528L1468.59 -0.674294C1469.51 -0.440186 1470.43 -0.19529 1471.33 0.060379L1471.56 0.125076C1472.38 0.356102 1473.2 0.58712 1474.03 0.836632L1474.69 1.03533C1475.45 1.26636 1476.21 1.50354 1476.98 1.74689L1477.41 1.88089C1478.32 2.17045 1479.22 2.47079 1480.12 2.78191L1480.58 2.93901C1481.33 3.19776 1482.08 3.4642 1482.82 3.73836L1483.49 3.98325C1484.31 4.28359 1485.12 4.58855 1485.93 4.90737L1486.17 4.99979C1487.07 5.35095 1487.96 5.71136 1488.84 6.081L1489.43 6.32589C1490.14 6.63393 1490.85 6.94197 1491.55 7.25001L1492.2 7.53648C1493.08 7.92923 1493.96 8.33122 1494.84 8.74707L1495.77 9.17217C1496.79 9.63115 1497.83 10.0455 1498.87 10.4151L1499.01 10.4659L1499.9 10.7709L1500.13 10.8448L1500.94 11.099L1501.23 11.1821L1501.98 11.3993L1502.3 11.4871L1503.03 11.6765L1503.38 11.7643L1504.07 11.9307L1504.45 12.0138L1505.12 12.1571L1505.52 12.2356L1506.18 12.365L1506.58 12.4389L1507.23 12.5498L1507.65 12.6191L1508.29 12.7162L1508.72 12.7762L1509.36 12.8594L1509.78 12.9102L1510.42 12.9842L1510.86 13.0304L1511.49 13.095L1511.95 13.132L1512.59 13.1828L1513.05 13.2152L1513.68 13.2568L1514.14 13.2845L1514.72 13.3168H1515.19L1515.83 13.3446H1516.27H1516.91H1517.37H1518.01H1520.67H1521.3H1521.7H1522.42H1522.79L1523.54 13.3168H1523.88L1524.67 13.2845H1524.96L1525.84 13.2429H1526.05L1527.03 13.1921H1527.14C1527.99 13.1459 1528.85 13.0997 1529.71 13.0442L1531.4 12.9426L1533.35 12.8224L1533.73 12.7993L1534.13 12.7762H1534.26L1534.85 12.7531H1535.31H1535.88H1536.9H1537.37H1537.91H1538.37L1538.9 12.7808L1539.33 12.8086L1539.85 12.8502L1540.23 12.8548L1540.74 12.9102L1541.14 12.9564L1541.64 13.0257L1542.02 13.0812L1542.51 13.1644L1542.88 13.229L1543.34 13.3215L1543.7 13.3954L1544.16 13.5063L1544.5 13.5848L1544.96 13.705L1545.28 13.7974L1545.75 13.9314L1546.06 14.0238L1546.52 14.1716L1546.81 14.2779L1547.25 14.435L1547.54 14.5459L1547.97 14.7215L1548.24 14.8324L1548.67 15.0218L1548.92 15.142L1549.34 15.3453L1549.59 15.47L1549.99 15.6826L1550.22 15.812L1550.63 16.043L1550.85 16.1724L1551.24 16.4172L1551.45 16.5512L1551.84 16.81L1552.03 16.9486L1552.41 17.2212L1552.59 17.3598C1552.72 17.4569 1552.85 17.5493 1552.97 17.6509L1553.14 17.7896C1553.27 17.8866 1553.39 17.9882 1553.51 18.0945L1553.67 18.2331L1554.04 18.552L1554.18 18.6906C1554.3 18.8015 1554.42 18.9124 1554.54 19.0279L1554.68 19.1619L1555.03 19.5177L1555.15 19.647C1555.27 19.7718 1555.39 19.8966 1555.51 20.0259L1555.62 20.1461C1555.73 20.2801 1555.85 20.4094 1555.96 20.5434L1556.06 20.6636C1556.18 20.7976 1556.3 20.9362 1556.41 21.0748L1556.49 21.1857L1556.84 21.6246C1556.84 21.657 1556.88 21.694 1556.91 21.7263C1557.03 21.8788 1557.14 22.0313 1557.25 22.1884C1557.25 22.2161 1557.29 22.2438 1557.31 22.2762C1557.42 22.4333 1557.53 22.595 1557.64 22.7613L1557.7 22.8352C1557.81 23.0062 1557.92 23.1726 1558.03 23.3481L1558.07 23.4036C1558.18 23.5838 1558.29 23.764 1558.4 23.9442L1558.43 23.9812C1558.54 24.1706 1558.65 24.36 1558.76 24.5541C1561.91 30.0711 1563.55 36.965 1564.97 44.016L1566.05 49.5607L1564.97 44.0437C1565.01 44.6814 1567.79 85.4765 1612.31 86.3221V-26.7944C1607.35 -25.9812 1602.39 -25.2188 1597.45 -24.6459C1578.04 -22.3864 1559.13 -22.9871 1543.03 -34.6125C1542.28 -35.1516 1541.54 -35.7168 1540.8 -36.3082C1539.7 -37.1923 1538.61 -38.1318 1537.53 -39.1268C1536.82 -39.7922 1536.11 -40.4837 1535.4 -41.2014C1534.7 -41.9192 1534 -42.6631 1533.31 -43.4332C1522.71 -55.3312 1516.25 -69.7705 1515.35 -84.8105C1515.3 -85.7007 1515.26 -86.5941 1515.25 -87.4905V-87.9525C1515.21 -94.4322 1516.2 -100.877 1518.2 -107.04C1518.34 -107.465 1518.48 -107.881 1518.62 -108.292L1518.76 -108.648C1518.86 -108.935 1518.96 -109.216 1519.07 -109.494C1519.12 -109.632 1519.18 -109.771 1519.23 -109.91C1519.34 -110.165 1519.44 -110.415 1519.54 -110.658C1519.59 -110.797 1519.65 -110.935 1519.71 -111.069C1519.82 -111.319 1519.93 -111.559 1520.04 -111.799L1520.2 -112.169L1520.59 -112.973C1520.63 -113.056 1520.67 -113.139 1520.71 -113.218C1520.89 -113.564 1521.06 -113.902 1521.24 -114.234L1521.32 -114.364C1521.48 -114.646 1521.63 -114.923 1521.78 -115.191L1521.96 -115.487C1522.09 -115.699 1522.22 -115.912 1522.35 -116.115C1522.42 -116.226 1522.49 -116.328 1522.55 -116.434C1522.68 -116.628 1522.81 -116.822 1522.94 -117.007L1523.15 -117.312C1523.29 -117.506 1523.42 -117.695 1523.57 -117.885L1523.76 -118.139C1523.93 -118.374 1524.11 -118.601 1524.3 -118.827L1524.38 -118.924C1524.59 -119.183 1524.8 -119.437 1525.02 -119.682C1525.07 -119.738 1525.12 -119.788 1525.17 -119.844C1525.34 -120.029 1525.51 -120.213 1525.68 -120.389L1525.9 -120.62L1526.36 -121.082L1526.61 -121.313L1527.07 -121.734L1527.31 -121.946C1527.48 -122.094 1527.65 -122.233 1527.82 -122.376L1528.01 -122.538C1528.48 -122.921 1528.98 -123.281 1529.47 -123.623L1529.69 -123.762C1529.86 -123.882 1530.04 -124.002 1530.22 -124.113L1530.49 -124.275C1530.65 -124.381 1530.82 -124.478 1530.99 -124.58L1531.27 -124.737L1531.79 -125.023L1532.05 -125.157C1532.25 -125.264 1532.45 -125.361 1532.65 -125.462L1532.83 -125.55L1533.64 -125.915L1533.76 -125.961C1533.99 -126.058 1534.22 -126.155 1534.45 -126.243L1534.71 -126.345L1535.28 -126.553L1535.58 -126.655L1536.13 -126.835L1536.3 -126.89L1536.43 -126.932L1537.01 -127.103L1537.28 -127.177C1537.52 -127.246 1537.74 -127.306 1538 -127.366L1538.14 -127.403L1539.01 -127.602L1539.25 -127.648L1539.88 -127.777L1540.21 -127.833L1540.77 -127.93L1541.12 -127.985L1541.67 -128.064L1542.02 -128.115L1542.61 -128.184L1542.92 -128.221L1543.75 -128.299H1543.94L1544.73 -128.36H1545.08L1545.65 -128.392H1546.05L1546.57 -128.415H1546.99H1547.52H1548.87H1549.76H1550.16H1550.71H1551.17H1551.63H1552.12L1552.59 -128.392L1553.09 -128.364L1553.55 -128.336L1554.07 -128.304L1554.46 -128.276L1555.8 -128.175H1555.89L1556.51 -128.119L1556.84 -128.092L1557.46 -128.036L1557.78 -128.004L1558.43 -127.944L1558.69 -127.916L1559.4 -127.842H1559.52C1561.41 -127.643 1563.3 -127.422 1565.19 -127.204L1566.91 -127.006L1567.38 -126.955L1569.69 -126.701H1569.88L1572.1 -126.479H1572.33C1573.11 -126.41 1573.89 -126.345 1574.64 -126.29L1578.48 -126.031C1579.4 -125.966 1580.3 -125.888 1581.2 -125.804L1581.82 -125.661L1583.99 -125.444L1584.59 -125.379C1586.41 -125.182 1588.23 -124.963 1590.05 -124.723L1590.59 -124.649L1592.9 -124.335L1593.37 -124.275C1597.64 -123.679 1601.92 -123.018 1606.2 -122.385L1607.29 -122.228L1608.61 -122.034L1610 -121.84L1611.24 -121.669L1612.31 -121.516V-247.164L1589.71 -229.181L1587.5 -227.457C1558.29 -204.775 1523.71 -189.989 1492.86 -169.621C1479.83 -161.022 1468.71 -149.822 1456.08 -140.655C1432.28 -123.379 1413.47 -110.884 1383.31 -106.07C1361.81 -102.641 1339 -108.916 1318.08 -102.9C1299.78 -97.6419 1286.94 -80.2592 1269.23 -73.2822C1249.96 -65.6952 1228.53 -65.2839 1208.57 -59.6884C1193.92 -55.5946 1180.33 -48.0954 1165.6 -44.2972C1098.46 -27.007 1006.37 -23.2227 941.231 -24.6782L940.164 -24.7059C909.603 -25.5746 913.54 -33.7577 886.473 -42.3104C867.205 -48.4049 847.165 -51.8057 827.791 -57.5213C812.128 -62.1419 797.295 -69.5349 781.405 -73.2822C771.425 -75.634 760.77 -78.1245 749.985 -80.2361L750.554 -79.9081L750.54 -79.9265ZM1610.46 39.7096C1610.23 40.2029 1609.97 40.6841 1609.68 41.1512C1609.97 40.6841 1610.23 40.2029 1610.46 39.7096Z" fill="#FDD535"/>
<path d="M346.784 -25.6392C373.163 -13.8059 396.483 7.7722 417.765 32.6448C421.628 37.1591 423.772 41.2021 424.511 44.7738C440.68 49.2565 456.404 55.2079 471.489 62.5538C480.356 66.8741 489.163 71.7303 498.861 73.5046C513.185 76.1291 527.795 71.7673 541.468 66.7724C543.944 65.8714 546.55 64.8595 548.204 62.8172C550.575 59.9109 550.455 55.7015 549.591 52.0513C544.457 30.3669 520.019 19.6471 498.085 15.6549C474.982 11.4502 450.886 10.9881 429.09 2.25523C422.441 -0.415474 416.116 -3.82085 409.804 -7.21697C388.3 -18.8008 366.708 -30.4308 347.038 -44.9163C331.873 -56.0843 315.442 -69.6642 296.771 -67.1968C296.82 -66.1464 296.917 -65.1037 297.062 -64.0686C308.285 -50.669 323.607 -36.0217 346.784 -25.6208" fill="#FDD535"/>
<path d="M346.784 -25.6392C286.134 -52.8499 279.273 -109.05 258.882 -96.616C243.255 -87.1669 288.888 -25.459 292.82 -9.11142C300.578 23.2327 260.125 69.8729 298.693 78.1391C337.261 86.4053 343.776 58.4785 376.046 63.3209C408.316 68.1632 439.048 57.5035 417.765 32.6448C396.483 7.78606 373.163 -13.8059 346.784 -25.6392Z" fill="#FEECA5"/>
<path d="M-173.753 50.0783C-172.376 50.0497 -171.005 49.8794 -169.663 49.57C-150.47 49.4268 -152.105 80.6434 -139.362 95.6095C-127.672 109.337 -111.13 116.702 -84.0301 106.916C-65.326 100.165 -45.3512 90.148 -29.729 74.4241C-22.4559 67.1623 -16.4091 58.7685 -11.8242 49.57C3.50687 18.6398 11.2787 -32.0295 17.6551 -46.4365C24.0315 -60.8434 30.7729 -70.117 34.6773 -75.6432C62.7473 -115.38 87.0517 -169.483 90.5356 -218.147C97.18 -311.02 92.2359 -232.706 82.2878 -291.23C73.9707 -340.209 92.3052 -381.119 69.1006 -431.285L67.1785 -435.443C63.0523 -444.343 59.5962 -463.564 56.7037 -469.636L53.5478 -476.206L52.9841 -478.054C50.5213 -485.942 58.3625 -497.35 51.2652 -517.182L47.1067 -528.696C42.7125 -540.844 34.2337 -551.305 30.3155 -563.618C26.0091 -577.152 26.157 -591.767 22.6546 -605.541C9.85098 -656.27 -21.1532 -712.863 11.2741 -764.632C16.4378 -772.781 22.7217 -780.163 29.9412 -786.562C28.5088 -785.93 27.0857 -785.272 25.6718 -784.589C20.7046 -781.405 15.7791 -778.462 10.6549 -776.161C-5.85911 -765.432 -21.2272 -750.142 -35.7913 -727.293L-36.9048 -725.533C-37.2837 -724.918 -37.6672 -724.322 -38.0507 -723.731L-38.3326 -723.269L-38.2216 -723.361L-38.0275 -723.523L-37.6949 -723.772L-37.547 -723.879L-37.2975 -724.05L-37.1543 -724.142C-37.0249 -724.221 -36.8955 -724.299 -36.7661 -724.369C-37.145 -722.918 -37.5224 -721.464 -37.8982 -720.007C-38.0968 -719.235 -38.2909 -718.459 -38.4896 -717.696C-38.6698 -716.994 -38.8501 -716.31 -39.0257 -715.589C-39.2336 -714.776 -39.4368 -713.963 -39.6447 -713.145C-39.8665 -712.252 -40.0914 -711.359 -40.3193 -710.465C-40.4302 -710.003 -40.5457 -709.541 -40.6613 -709.102C-41.0401 -707.562 -41.4206 -706.04 -41.8025 -704.537C-43.6138 -697.287 -45.4297 -690.028 -47.3472 -682.82L-47.4166 -682.548C-48.3623 -678.984 -49.3342 -675.43 -50.3322 -671.888L-50.4015 -671.638C-50.8789 -669.966 -51.3641 -668.295 -51.8569 -666.625C-51.8893 -666.5 -51.9263 -666.38 -51.9633 -666.26C-52.4808 -664.51 -53.0091 -662.761 -53.5481 -661.011C-57.8961 -647.117 -70.0575 -643.157 -82.8011 -640.962L-84.0394 -640.754L-86.8117 -640.292C-116.222 -635.644 -123.425 -624.481 -116.98 -595.768C-116.919 -595.51 -116.864 -595.251 -116.804 -594.988L-116.296 -592.747L-115.792 -590.501C-112.368 -575.059 -109.508 -559.483 -106.763 -543.87C-106.579 -542.832 -106.395 -541.791 -106.214 -540.747L-106.172 -540.534L-104.629 -531.662C-101.307 -512.792 -90.9841 -500.506 -76.2999 -493.598C-75.69 -493.307 -75.0708 -493.03 -74.4516 -492.762C-73.1995 -492.221 -71.9149 -491.722 -70.6073 -491.255C-67.9272 -490.307 -65.1932 -489.519 -62.4196 -488.894C-61.7081 -488.733 -60.9965 -488.58 -60.2757 -488.432L-51.7276 -486.69C-43.4106 -485.008 -35.0104 -483.516 -26.8781 -483.456C-12.3834 -483.363 1.28438 -487.855 12.2213 -504.091L12.4153 -504.378L12.6602 -504.701C13.3857 -505.625 14.0464 -506 14.6101 -506.027C15.6359 -506.074 16.4352 -504.997 17.0452 -503.8L17.1561 -503.579C17.23 -503.426 17.2993 -503.274 17.3686 -503.117C17.4702 -502.89 17.5627 -502.654 17.6505 -502.451L18.6116 -500.021C19.3925 -498.02 20.1317 -496.024 20.8294 -494.046C42.2366 -433.484 27.326 -383.397 -51.7784 -364.873C-53.6913 -355.942 -56.2049 -347.07 -57.4294 -338.028C-60.4974 -315.452 -55.4841 -292.584 -55.8399 -269.805C-56.0987 -252.944 -59.3007 -236.282 -62.4935 -219.722C-65.6124 -203.522 -68.7406 -187.29 -73.4166 -171.469C-76.7065 -160.339 -80.9159 -149.157 -88.5629 -140.424C-93.4885 -134.805 -99.5829 -130.494 -106.264 -127.14C-106.306 -126.451 -106.348 -125.753 -106.408 -125.079C-106.405 -125.07 -106.405 -125.06 -106.408 -125.051C-106.454 -124.529 -106.514 -124.011 -106.597 -123.508C-106.597 -123.466 -106.597 -123.425 -106.62 -123.378C-106.657 -123.147 -106.703 -122.916 -106.754 -122.699C-106.756 -122.684 -106.756 -122.668 -106.754 -122.653C-106.814 -122.417 -106.879 -122.191 -106.953 -121.96C-106.964 -121.919 -106.978 -121.879 -106.994 -121.84C-107.054 -121.66 -107.119 -121.479 -107.193 -121.308L-107.262 -121.147C-107.354 -120.944 -107.456 -120.747 -107.567 -120.555C-107.919 -119.939 -108.26 -119.323 -108.593 -118.707C-108.672 -118.564 -108.75 -118.425 -108.824 -118.282C-109.154 -117.666 -109.473 -117.05 -109.781 -116.434L-109.891 -116.207C-110.164 -115.662 -110.432 -115.112 -110.695 -114.562C-110.774 -114.396 -110.857 -114.23 -110.931 -114.068C-111.213 -113.472 -111.486 -112.88 -111.754 -112.284C-111.818 -112.132 -111.883 -111.979 -111.952 -111.822C-112.165 -111.36 -112.368 -110.857 -112.576 -110.376C-112.659 -110.177 -112.742 -109.983 -112.821 -109.789C-113.061 -109.216 -113.283 -108.643 -113.523 -108.066C-113.607 -107.849 -113.694 -107.627 -113.782 -107.41C-113.939 -106.994 -114.101 -106.583 -114.244 -106.167C-114.332 -105.926 -114.424 -105.705 -114.512 -105.451C-114.715 -104.91 -114.909 -104.369 -115.104 -103.829C-115.21 -103.533 -115.316 -103.237 -115.418 -102.946L-115.75 -101.981C-115.935 -101.448 -116.115 -100.916 -116.291 -100.386L-116.554 -99.5917L-116.943 -98.3996L-117.086 -97.9375C-119.498 -90.369 -121.508 -82.6572 -123.878 -75.061C-131.839 -49.2365 -152.798 -38.6046 -176.807 -32.4084L-176.807 49.5238C-175.827 49.9254 -174.774 50.1144 -173.716 50.0783" fill="#EA7534"/>
</g>
</g>
<defs>
<clipPath id="clip0_5739_146412">
<rect width="1440" height="230" fill="white" transform="translate(1440 230) rotate(-180)"/>
</clipPath>
<clipPath id="clip1_5739_146412">
<rect width="1709" height="237.361" fill="white" transform="translate(-168 -7)"/>
</clipPath>
</defs>
</svg>
