<svg width="1440" height="148" viewBox="0 0 1440 148" fill="none" xmlns="http://www.w3.org/2000/svg">
<g clip-path="url(#clip0_6409_202185)">
<g clip-path="url(#clip1_6409_202185)">
<g opacity="0.2">
<path d="M1420.94 157.402C1392.89 154.625 1361.25 154.348 1335.47 157.761C1337.37 157.166 1339.23 156.473 1341.06 155.686C1350.56 151.821 1403.22 123.981 1433.87 127.016C1479.05 128.621 1491.93 146.064 1514.44 155.851C1535.9 165.183 1515.5 177.924 1508.82 182.226C1506.68 183.601 1504.4 185.07 1502.79 186.857C1502.21 182.388 1501.7 179.161 1501.7 179.161C1491.29 167.234 1449.01 160.191 1420.96 157.414" fill="#4195C4"/>
<path d="M1084.1 15.4684C1068.25 20.8263 1055.17 27.0251 1043.98 34.2143C1016.36 51.9605 1000.25 75.7456 982.359 107.869C955.487 156.051 910.789 186.797 861.088 214.136C849.793 220.354 838.227 226.397 826.56 232.429L817.19 237.268C816.299 237.728 815.447 238.177 814.604 238.619L814.379 238.74L813.497 239.205L812.565 239.703C812.222 239.887 811.889 240.063 811.555 240.248C811.221 240.433 810.869 240.612 810.54 240.793L809.72 241.241L808.61 241.851L808.007 242.181L806.773 242.867L806.478 243.033C802.589 245.22 799.297 247.192 796.452 249.005L796.323 249.085L795.262 249.769L795.073 249.895L794.081 250.53L793.857 250.684L792.962 251.287L792.717 251.458L791.88 252.035L791.621 252.218C791.356 252.401 791.119 252.591 790.841 252.772L790.572 252.964C790.322 253.143 790.072 253.318 789.836 253.499L789.566 253.695L788.869 254.216L788.598 254.417L787.935 254.922L787.664 255.132L787.035 255.622L786.763 255.837L786.158 256.32L785.895 256.536C785.699 256.693 785.502 256.849 785.31 257.011L785.042 257.226L784.48 257.696L784.217 257.92L783.669 258.381C783.584 258.452 783.497 258.527 783.415 258.602L782.873 259.064L782.623 259.285L782.113 259.75L781.854 259.98L781.344 260.436L781.089 260.666L780.58 261.121L780.315 261.36L779.805 261.815C779.729 261.887 779.651 261.963 779.57 262.034L779.057 262.521L778.939 262.635L777.53 263.93C769.495 271.307 759.713 280.307 731.807 297.941L729.054 299.674C714.863 308.545 699.928 315.47 684.638 321.515C694.529 316.35 704.42 311.177 714.312 305.997L721.937 302.002L714.511 305.868C704.493 311.095 694.476 316.332 684.46 321.581C679.142 323.673 673.785 325.676 668.389 327.591C660.822 330.301 653.205 332.894 645.58 335.487C616.112 345.5 586.509 355.556 559.377 372.784C539.252 385.561 525.616 404.961 511.905 424.465C501.004 439.971 490.059 455.547 475.769 467.909C474.587 468.929 473.206 469.977 471.662 471.082C460.863 478.709 442.007 487.763 425.827 495.531C417.05 499.769 409.031 503.618 403.542 506.622C402.756 507.055 402.025 507.472 401.347 507.872C402.992 506.038 404.477 504.026 405.967 502.01C405.966 501.995 405.968 501.979 405.972 501.964C406.232 501.615 406.389 501.201 406.425 500.767C406.462 500.333 406.376 499.898 406.179 499.511C405.981 499.123 405.679 498.798 405.306 498.574C404.934 498.349 404.506 498.232 404.07 498.238L403.499 498.246C399.571 498.289 395.624 498.335 392.386 499.899C353.652 518.574 330.751 552.338 311.762 588.712L310.696 590.757C293.256 624.197 276.998 658.679 289.677 698.51C289.774 698.696 289.628 699.002 289.43 699.312C289.328 699.484 289.241 699.665 289.172 699.853C288.933 699.458 288.674 699.075 288.415 698.687C287.871 697.941 287.404 697.141 287.021 696.301C273.007 661.85 276.411 626.532 290.082 594.255L291.895 590.01C293.325 586.604 294.755 583.196 296.186 579.788C323.954 513.558 352.158 446.294 410.696 400.38C450.918 368.786 497.994 348.737 545.013 328.733C559.071 322.747 573.129 316.765 586.989 310.481L590.022 309.11C592.883 307.814 595.752 306.526 598.628 305.244C638.82 287.225 679.125 269.156 709.534 235.096C728.976 213.471 718.895 193.97 708.792 174.415C708.009 172.944 707.256 171.449 706.502 169.963L704.851 166.665C702.066 161.305 698.772 156.226 695.014 151.497C685.48 139.326 678.228 132.191 671.435 130.079C681.547 126.901 690.489 126.254 697.17 122.463C708.927 115.794 707.26 98.3055 716.235 88.278C718.793 87.7096 722.201 87.0116 724.334 86.2013C734.221 82.4257 741.243 72.6552 749.021 65.2441C775.758 39.7678 821.507 26.5933 833.818 17.1051C846.5 7.33335 866.424 7.1936 881.657 9.73739C890.102 11.1494 897.575 15.3995 905.559 18.1821C913.719 21.0238 922.072 20.235 930.46 18.8508C939.782 17.313 949.647 15.4993 958.443 18.9565C958.938 19.0925 959.368 19.4 959.657 19.8242C959.836 20.2929 959.85 20.8083 959.698 21.2863C958.09 29.0901 955.927 33.2962 949.673 38.5878C945.959 41.7302 941.292 43.5154 936.68 45.0274C896.184 58.2809 850.225 59.2787 810.657 75.1174C803.886 77.8413 795.065 84.2111 796.641 90.0504C802.078 104.124 810.751 97.0427 819.296 88.6349C829.39 78.6997 846.194 71.0029 876.791 70.2205C917.792 69.1729 931.432 57.6527 967.611 43.1731C1013.42 24.8317 1069.01 2.60228 1137.03 0.980364C1140.04 0.909689 1143.07 0.880173 1146.13 0.891918C1121.49 4.90662 1101.19 9.70796 1084.11 15.4831" fill="#96C3ED"/>
<path d="M170.96 174.398C159 164.169 148.404 152.069 140.878 138.188C125.758 110.299 107.392 75.4399 149.561 56.7292C170.77 47.3142 193.769 77.1256 212.808 81.0491C221.03 82.7455 228.397 83.8418 236.492 80.4923C238.515 79.686 240.485 78.7537 242.391 77.7009C242.88 77.4521 243.338 77.1864 243.802 76.9119C245.647 75.8218 247.426 74.6243 249.13 73.3256C249.983 72.6857 250.823 72.026 251.646 71.3599L252.879 70.3537C261.535 63.1642 270.832 55.2767 276.019 45.0414C293.039 53.4082 301.714 63.4746 295.385 75.5285C286.968 91.559 263.057 95.6686 241.05 99.4559C203.653 105.884 171.769 111.368 230.854 172.784C235.418 177.526 237.853 183.789 239.46 190.774C233.478 195.331 227.194 199.148 220.013 200.586C204.855 203.617 182.466 184.244 170.956 174.393" fill="#5596DC"/>
<path d="M-8.20371 375.532C-11.6344 391.506 -8.28312 417.111 8.52138 424.607C17.9178 428.796 30.7413 428.122 38.8161 435.039C47.6634 442.622 43.7822 458.57 44.5197 468.971C45.415 481.576 43.7888 494.018 41.8804 506.518C39.2887 523.699 38.1358 541.067 38.4339 558.44L37.1349 560.347L37.108 560.389L34.3034 564.503C24.7658 578.445 15.0826 593.537 11.637 610.349C7.81987 629.036 14.2422 645.365 25.555 660.085C25.8038 660.318 25.7071 660.929 25.6201 661.487C25.6023 661.667 25.5854 661.837 25.5699 661.994C25.2764 661.938 24.9725 661.894 24.6772 661.856C23.798 661.791 22.9375 661.569 22.1364 661.201C4.25814 651.002 -3.14949 632.037 -3.40627 612.525C-3.68083 593.193 1.63967 574.655 7.37112 556.04C9.12906 550.323 10.8735 544.604 12.4717 538.898C15.7522 527.187 19.521 511.414 12.9738 500.053C7.17543 489.962 -5.60474 486.308 -16.1428 483.855C-34.7476 479.53 -48.1422 463.774 -49.5958 444.634C-50.7359 429.602 -53.5246 412.137 -66.7487 402.762C-78.932 394.132 -96.0096 394.2 -110.247 394.186C-130.185 394.169 -145.89 381.933 -150.343 363.524C-154.877 344.776 -140.531 319.341 -133.875 301.461C-127.448 284.197 -122.208 266.521 -117.068 248.84C-113.337 236.009 -109.665 219.473 -101.319 209.836C-93.9202 201.292 -87.9621 188.305 -82.7223 177.631C-73.5012 158.922 -64.6384 140.032 -57.0141 120.607C-47.1893 95.5725 -38.562 45.2412 -4.29786 46.8892C5.2322 47.3481 12.3756 49.8046 14.098 60.0989C14.9577 65.1463 13.8694 70.5535 12.6258 75.4244C10.7345 82.8549 8.11622 91.2649 12.2022 98.467C16.2881 105.669 24.6236 113.02 25.069 121.566C25.7393 134.384 17.3011 148.893 12.1 160.002C10.5372 163.337 9.74265 166.784 9.0236 170.292C8.69759 171.892 8.38459 173.497 8.02223 175.097C2.74448 198.375 -1.63204 222.757 1.13952 246.07C2.1878 254.889 5.66119 263.929 4.58181 272.496C0.516282 304.767 -1.06421 342.559 -8.15796 375.527" fill="#5596DC"/>
<path d="M1260.29 89.4026C1190.05 90.1508 1110.18 90.9999 1068.24 121.461C987.231 180.302 954.573 202.281 891.812 232.376C784.109 284.05 679.193 340.816 577.066 402.673C576.235 403.185 575.391 403.696 574.542 404.206C566.545 409.042 558.159 414.113 554.748 423.995C520.425 439.002 485.584 482.504 422.656 509.499C422.104 509.732 421.55 509.984 420.997 510.264C420.798 510.355 420.597 510.461 420.393 510.557L419.362 511.068L418.441 511.552L417.814 511.889C400.496 521.346 381.605 541.818 367.611 560.946C374.17 548.632 381.238 536.563 388.423 524.589L394.83 513.95L398.728 510.454C399.637 509.649 400.498 508.79 401.305 507.882C401.979 507.478 402.711 507.062 403.499 506.632C408.99 503.605 416.995 499.764 425.789 495.541C441.964 487.773 460.821 478.719 471.619 471.092C473.162 470 474.544 468.939 475.727 467.918C490.017 455.557 500.961 439.981 511.862 424.475C525.573 404.971 539.209 385.571 559.335 372.794C586.467 355.566 616.069 345.51 645.537 335.496C653.162 332.904 660.779 330.31 668.346 327.6C673.728 325.672 679.088 323.691 684.402 321.599L675.5 326.252L684.587 321.519C699.89 315.476 714.83 308.551 729.002 299.679L731.755 297.945C759.66 280.325 769.447 271.325 777.478 263.934L778.888 262.639L779.006 262.526L779.519 262.038C779.6 261.967 779.677 261.891 779.754 261.82L780.263 261.364L780.528 261.125L781.038 260.67L781.293 260.44L781.802 259.984L782.062 259.754L782.572 259.289L782.821 259.068L783.364 258.606C783.45 258.531 783.532 258.456 783.618 258.386L784.165 257.924L784.429 257.7L784.991 257.231L785.258 257.016C785.45 256.854 785.647 256.697 785.844 256.54L786.107 256.324L786.712 255.841L786.984 255.626L787.612 255.136L787.884 254.926L788.547 254.421L788.818 254.22C789.048 254.048 789.279 253.871 789.519 253.7L789.785 253.503C790.025 253.323 790.284 253.149 790.52 252.968L790.79 252.776C791.045 252.593 791.291 252.403 791.569 252.222L791.829 252.039L792.666 251.462L792.91 251.292L793.806 250.688L794.03 250.534L795.022 249.899L795.21 249.773L796.272 249.089L796.4 249.009C799.246 247.187 802.538 245.215 806.427 243.037L806.722 242.871L807.955 242.185L808.559 241.855L809.669 241.245L810.488 240.797C810.817 240.616 811.161 240.432 811.503 240.252C811.846 240.073 812.171 239.891 812.514 239.707L813.446 239.21L814.553 238.623L817.143 237.273L828.398 231.46C830.401 230.42 832.416 229.381 834.441 228.343C843.007 223.936 851.829 219.386 861.037 214.136C910.737 186.796 955.435 156.055 982.308 107.868C1000.22 75.7469 1016.33 51.9619 1043.93 34.2138C1054.9 27.0497 1069 20.6361 1084.05 15.468C1101.13 9.69277 1121.43 4.89143 1146.07 0.876734C1143.01 0.861953 1139.98 0.891421 1136.97 0.965187C1139.07 0.734056 1141.17 0.612361 1143.28 0.600833C1259.57 0.739777 1414.45 13.3174 1392.99 63.7773C1382.66 88.1007 1325.61 88.7069 1260.23 89.4022L1260.29 89.4026ZM662.495 333.048L662.005 333.31L661.647 333.498L661.038 333.832C660.703 333.938 660.37 334.063 660.032 334.197C659.693 334.33 659.356 334.455 659.021 334.561C658.828 334.682 658.647 334.82 658.478 334.972L658.01 335.39C657.674 335.496 657.337 335.625 657.003 335.754C656.67 335.884 656.328 336.008 655.992 336.118L655.983 336.21C656.319 336.104 656.656 335.975 656.994 335.846C657.332 335.717 657.665 335.592 658.001 335.482L658.129 335.401C658.189 335.361 658.249 335.316 658.31 335.266C658.39 335.204 658.467 335.138 658.538 335.075L659.011 334.658C659.199 334.588 659.398 334.505 659.606 334.419L660.088 334.24C660.373 334.124 660.662 334.018 660.955 333.926C661.685 333.58 662.421 333.184 663.154 332.774L663.493 332.585L662.495 333.048Z" fill="#5596DC"/>
<path d="M1414.13 226.199C1413.56 226.013 1412.99 225.822 1412.43 225.623L1412.26 225.559C1403.47 222.45 1395.13 217.725 1386.82 213.006C1383.4 211.061 1379.99 209.125 1376.54 207.304L1376.35 207.196L1375.35 206.675L1374.97 206.479L1374.01 205.985L1373.74 205.852C1373.15 205.551 1372.56 205.27 1371.97 204.966L1371.47 204.717L1370.65 204.324L1370.06 204.048L1369.25 203.67L1368.64 203.391C1368.19 203.189 1367.75 202.992 1367.3 202.795L1366.6 202.488L1365.84 202.171L1365.17 201.891L1364.4 201.584L1363.7 201.315L1362.96 201.027C1362.51 200.867 1362.1 200.71 1361.67 200.56L1360.94 200.307L1360.21 200.058L1359.45 199.812L1358.72 199.586L1357.98 199.359L1357.04 199.095L1355.95 198.801L1355.16 198.602L1354.4 198.42L1353.65 198.253L1352.88 198.089L1352.06 197.933C1351.67 197.858 1351.28 197.791 1350.9 197.725C1350.6 197.695 1350.3 197.624 1349.98 197.579L1349.21 197.475L1348.44 197.375L1347.65 197.297C1347.38 197.27 1347.12 197.244 1346.85 197.218C1346.58 197.191 1346.35 197.167 1346.09 197.142C1345.63 197.097 1345.17 197.084 1344.71 197.061L1343.92 197.034L1343.12 197.02L1342.31 197.014L1341.51 197.028L1340.7 197.045L1339.62 197.1C1339.23 197.122 1338.84 197.149 1338.46 197.181L1337.63 197.252L1336.78 197.348L1335.98 197.446L1335.12 197.569L1334.27 197.708C1334.03 197.749 1333.79 197.782 1333.55 197.827C1330.88 198.316 1328.22 198.79 1325.55 199.25L1324.77 199.382C1322.46 199.772 1320.16 200.163 1317.84 200.553L1315.87 200.868C1313.95 201.18 1312.03 201.484 1310.11 201.78L1307.69 202.148C1305.9 202.417 1304.11 202.682 1302.33 202.945L1299.76 203.318L1294.45 204.064L1291.93 204.409C1290.07 204.661 1288.21 204.907 1286.35 205.147L1284.15 205.435C1281.88 205.73 1279.61 206.018 1277.33 206.297L1276.39 206.408C1273.75 206.731 1271.1 207.047 1268.46 207.354L1267.36 207.483C1265.13 207.742 1262.9 207.995 1260.67 208.241C1259.92 208.329 1259.17 208.408 1258.41 208.482C1256.53 208.689 1254.67 208.894 1252.81 209.097L1250.38 209.353L1244.82 209.935L1242.57 210.177C1240.56 210.387 1238.54 210.591 1236.52 210.79L1234.93 210.953C1224.24 212.018 1213.55 213.047 1202.85 214.04C1181.56 216.05 1160.26 218.064 1139.01 220.52L1138.54 220.571C1136.45 220.816 1134.34 221.063 1132.24 221.312L1130.83 221.484L1125.43 222.152L1123.63 222.377C1121.94 222.59 1120.24 222.81 1118.55 223.035L1116.62 223.286C1114.89 223.52 1113.17 223.756 1111.45 223.994L1109.74 224.225C1107.46 224.546 1105.18 224.873 1102.9 225.205C1102.74 225.232 1102.58 225.272 1102.42 225.325L1102.29 225.372L1101.94 225.514L1101.82 225.567L1101.44 225.761C1101.26 225.85 1101.08 225.944 1100.89 226.027C1101.33 226.071 1101.77 226.115 1102.21 226.158C1103.57 226.378 1104.94 226.475 1106.31 226.448C1149.77 223.707 1193.23 222.922 1236.38 228.026C1248.7 229.496 1260.88 231.292 1272.87 233.496L1273.28 233.57L1275.16 233.923L1276.72 234.221L1278.55 234.578L1280.14 234.894L1281.96 235.26L1283.62 235.605C1284.2 235.723 1284.78 235.841 1285.36 235.968C1286.41 236.188 1287.46 236.417 1288.51 236.647L1290.13 237.007L1291.9 237.405L1291.96 237.411L1284.09 237.166C1280.76 237.068 1277.42 236.975 1274.07 236.888C1215.45 235.402 1155.15 236.002 1099.4 242.159L1095.64 242.581C1086.91 243.573 1071.45 246.737 1053.03 250.898L1048.26 251.725L1047.73 251.817L1047.32 251.888C1045.53 252.198 1043.73 252.517 1041.95 252.832L1040.98 253.006C982.977 263.314 925.817 276.185 872.709 301.785L872.625 301.828C871.627 302.308 870.631 302.794 869.635 303.287L869.474 303.364L866.543 304.824L866.362 304.917C865.385 305.406 864.407 305.903 863.429 306.401L863.263 306.486C862.283 307.008 861.302 307.53 860.322 308.052L860.234 308.099C855.106 310.805 850.027 313.645 844.996 316.62C842.589 318.048 840.287 319.648 838.11 321.408L838.049 321.457C837.631 321.792 837.221 322.132 836.811 322.477L836.7 322.568C836.305 322.9 835.914 323.233 835.528 323.571L835.385 323.696C835.009 324.03 834.637 324.36 834.264 324.7L834.101 324.851C833.739 325.182 833.376 325.517 833.017 325.853L832.843 326.021C832.489 326.358 832.135 326.694 831.786 327.036C831.725 327.09 831.663 327.149 831.606 327.208C831.257 327.55 830.907 327.891 830.576 328.239L830.41 328.409C830.06 328.759 829.709 329.115 829.376 329.472L829.232 329.62C828.87 329.988 828.513 330.361 828.161 330.73L828.067 330.833C827.689 331.227 827.31 331.626 826.936 332.025C826.42 332.555 825.949 333.088 825.465 333.621L824.918 334.217L824.631 334.537L824.449 334.737L823.797 335.457L822.722 336.651C821.497 338.052 820.724 339.324 820.404 340.465C820.362 340.615 820.328 340.766 820.303 340.92C820.303 340.92 820.303 340.92 820.299 340.956C820.276 341.095 820.262 341.234 820.258 341.375L820.244 341.513C820.24 341.554 820.236 341.595 820.232 341.632L818.841 342.456C796.67 355.355 734.541 383.145 712.692 420.365C701.99 429.59 686.383 440.108 659.798 452.798C631.298 466.398 599.265 471.371 570.459 484.301L569.945 484.528C553.266 491.852 495.904 509.62 474.692 520.753C388.728 565.87 366.455 594.941 352.272 618.363L350.536 621.265L350.436 619.458C350.377 618.413 350.305 617.361 350.234 616.3C349.899 611.428 349.557 606.482 350.072 601.704C350.343 598.858 351.026 596.066 352.1 593.417C356.717 582.336 361.983 571.542 367.63 560.939C382.936 540.005 404.117 517.456 422.679 509.497C485.607 482.501 520.448 438.999 554.771 423.992C556.241 423.497 557.714 423.024 559.192 422.573L559.557 422.456L561.54 421.84L561.717 421.787L563.633 421.192L565.501 420.616L566.78 420.223L567.556 419.979L569.655 419.319L570.613 419.023L571.769 418.646L573.363 418.116L574.497 417.732L575.69 417.311L576.653 416.97C577.211 416.77 577.771 416.561 578.325 416.351L579.223 416.004C579.696 415.824 580.165 415.639 580.63 415.446L581.472 415.103C581.985 414.889 582.499 414.67 583.014 414.443L583.464 414.255C595.568 408.874 607.49 403.169 619.294 397.201C692.762 360.166 761.33 313.856 836.677 280.359C851.199 273.907 865.784 267.648 880.432 261.583C883.093 248.771 898.229 241.986 911.171 237.84C981.858 215.202 1048.23 185.766 1120.62 167.072C1127.18 165.377 1133.79 163.677 1140.55 163.19C1149.84 162.522 1159.13 164.175 1168.44 164.392C1189.46 164.885 1209.88 158.108 1230.56 154.324C1263.71 148.343 1297.78 150.007 1330.19 159.189L1335.51 157.747C1361.31 154.353 1392.96 154.613 1420.98 157.388C1449.01 160.163 1491.31 167.208 1501.72 179.135C1501.72 179.135 1502.24 182.363 1502.81 186.831C1503.52 192.259 1504.31 199.515 1504.31 205.064C1505 237.463 1446.94 236.747 1414.16 226.188" fill="#FBC998"/>
<path d="M438.863 79.2975C433.833 83.9952 427.983 87.7433 422.904 92.385C415.247 99.3717 399.844 109.329 382.539 124.661C371.827 129.306 362.085 136.528 353.993 145.008C340.679 158.952 331.294 176.131 322.886 193.467C309.657 220.764 298.093 249.164 289.359 278.233C285.102 292.387 286.067 298.305 289.578 299.149C286.644 304.551 283.501 309.812 280.149 314.931C255.661 352.215 214.877 372.971 187.86 407.321C171.392 428.265 147.341 438.768 139.572 442.907C100.79 463.555 59.4907 510.243 61.9801 538.888C63.2676 553.739 43.4053 549.928 41.1863 516.584C36.6138 447.877 48.8553 439.134 46.4671 404.45C45.6244 392.187 49.0927 378.309 42.3766 368.014C37.056 359.849 28.0005 354.657 22.7347 346.456C12.587 330.677 14.5058 292.026 15.5822 286.923C21.6942 258.021 21.8038 216.963 26.6451 187.67C31.955 155.568 48.6113 128.5 69.7246 104.296C71.3803 102.44 72.1964 101.513 73.8001 99.6663C80.5486 91.7678 87.1022 83.7294 93.2783 75.375C95.3409 72.5983 96.3313 71.2244 98.2482 68.5122C98.6667 67.7551 98.871 67.3806 99.2799 66.6271C106.53 53.4713 113.867 40.3378 122.839 28.2253C125.403 24.8377 128.225 21.6538 131.281 18.7023C132.886 17.1246 144.199 2.56483 159.668 -3.98253C162.666 -5.24496 165.958 -5.64126 169.17 -5.12647C213.454 1.88189 245.365 29.943 276.026 45.0234C270.834 55.2582 261.542 63.1463 252.885 70.3358L251.653 71.3419C250.825 72.0076 249.984 72.6673 249.136 73.3076C247.432 74.6063 245.653 75.8038 243.808 76.894C243.345 77.1638 242.873 77.4282 242.398 77.6829C240.492 78.7357 238.521 79.668 236.498 80.4743C228.403 83.8238 221.036 82.7275 212.814 81.0312C193.776 77.1076 170.777 47.2962 149.568 56.7112C107.391 75.449 125.758 110.299 140.858 138.196C148.385 152.076 158.981 164.176 170.941 174.406C182.451 184.256 204.84 203.629 219.998 200.599C227.179 199.16 233.463 195.343 239.449 190.787C243.638 187.594 247.658 183.706 249.525 178.783C251.391 173.861 254.488 166.172 257.978 162.208C263.166 156.282 284.844 141.384 290.939 137.78C312.368 125.118 395.104 72.7451 418.008 63.0011C426.408 59.4311 435.298 56.2115 444.406 56.793C445.791 56.879 447.293 57.1299 448.158 58.1999C448.936 59.1591 448.97 60.5043 448.848 61.732C448.17 68.5786 443.862 74.5736 438.846 79.2773" fill="#96C3ED"/>
<path d="M320.366 267.077C326.78 250.458 329.379 232.324 338.026 216.743C340.706 211.901 344.022 207.298 348.56 204.135C352.865 201.13 358.021 199.607 362.595 197.028C369.838 192.953 375.339 186.44 380.674 180.064C392.682 165.708 404.693 151.353 416.707 137.001C418.535 134.814 420.44 132.449 420.726 129.612C421.454 122.255 411.681 118.78 404.302 119.257C385.062 120.509 367.316 131.061 354.002 145.009C340.688 158.958 331.303 176.132 322.895 193.468C309.666 220.765 298.102 249.165 289.368 278.234C276.295 321.728 312.499 287.489 320.376 267.064" fill="#5596DC"/>
<path d="M611.669 1.21414C620.389 -0.192938 627.768 8.1386 631.956 14.0553C637.063 21.2752 640.61 30.2814 644.579 38.7303C647.712 45.4063 651.483 55.3818 658.407 58.0964C665.603 60.9216 677.394 55.5097 685.307 53.7163C691.667 52.2706 698.139 50.7291 704.587 50.1835C706.09 50.0538 707.634 49.9374 709.156 49.8095C715.595 49.2583 730.282 46.1577 735.107 52.2863C742.325 61.4516 722.673 80.7946 718.033 86.1995C717.425 86.9008 716.818 87.5883 716.228 88.2542C707.249 98.2812 708.92 115.77 697.163 122.439C690.482 126.23 681.541 126.873 671.428 130.055C660.545 133.477 647.238 141.534 639.346 152.17C638.322 153.549 637.329 155.044 636.348 156.516C635.366 157.988 634.398 159.466 633.476 160.949C620.578 181.713 611.851 203.215 610.156 227.647C608.487 251.728 590.296 267.469 570.802 279.069L568.613 280.361C565.695 282.069 562.753 283.737 559.846 285.385L556.772 287.124L556.064 287.518L555.484 287.846C555.183 288.021 554.878 288.19 554.583 288.365L552.156 289.755C551.067 290.385 550.521 290.698 549.426 291.342C548.846 291.674 548.256 291.996 547.671 292.324C546.075 293.228 544.474 294.125 542.869 295.015C542.043 295.472 541.21 295.919 540.384 296.376C539.04 297.109 537.692 297.839 536.342 298.566C535.405 299.072 534.464 299.569 533.527 300.07C532.282 300.733 531.035 301.384 529.787 302.022L526.781 303.581C525.588 304.197 524.398 304.813 523.201 305.418L520.067 307.012C518.907 307.593 517.748 308.174 516.588 308.752C515.514 309.286 514.435 309.825 513.356 310.354L509.941 312.017C508.834 312.553 507.731 313.094 506.625 313.625C505.518 314.156 504.406 314.692 503.296 315.218C502.185 315.744 501.034 316.303 499.885 316.835L496.659 318.373L493.158 320.013C492.404 320.366 491.645 320.709 490.886 321.061C488.249 322.276 485.607 323.485 482.959 324.687L480.007 326.029L476.364 327.66L473.171 329.09L469.734 330.607L466.237 332.155L463.135 333.519L459.106 335.289L456.637 336.363L451.299 338.69L450.474 339.045L445.137 341.362L437.315 344.767L429.006 348.355C421.044 351.801 413.095 355.27 405.159 358.762C404.98 358.838 404.805 358.918 404.63 358.998C402.833 359.789 401.041 360.583 399.254 361.381L397.252 362.279L393.316 364.048L390.802 365.192L387.33 366.771L384.636 368.004L381.345 369.535L378.561 370.829L375.348 372.331L372.557 373.652L369.34 375.191L366.605 376.457L363.347 378.038C362.449 378.475 361.553 378.913 360.659 379.35L357.314 381.002L354.736 382.283C353.563 382.873 352.39 383.472 351.216 384.066C350.426 384.452 349.628 384.865 348.835 385.274C347.53 385.939 346.228 386.618 344.921 387.292L342.963 388.315C341.004 389.337 339.054 390.371 337.111 391.417C335.592 392.223 334.833 392.626 333.318 393.437C326.954 396.74 320.578 400.599 314.09 403.142C305.26 406.599 292.657 405.351 278.023 412.186C253.574 423.601 238.265 425.953 216.133 441.694C204.974 449.629 193.554 458.096 183.981 467.925C171.318 480.93 161.189 496.471 150.632 511.133C146.989 516.193 143.316 521.246 139.612 526.293C136.822 530.084 133.985 533.845 131.099 537.574C128.826 540.506 127.7 541.931 125.536 544.605C123.396 547.179 121.211 549.693 118.773 551.532C117.675 552.352 116.582 553.209 115.527 554.019C115.175 554.291 114.801 554.551 114.478 554.812C108.514 559.612 102.435 558.782 97.2067 555.126C91.9784 551.469 90.7904 547.712 95.9041 542.256C96.4693 541.612 97.0008 540.94 97.4966 540.241C98.2506 539.238 98.6469 538.706 99.4582 537.593C118.035 512.14 135.09 484.419 156.947 461.566C168.78 449.207 183.693 437.688 197.373 427.402C225.466 406.285 255.52 387.916 286.186 370.825C288.391 369.594 290.6 368.372 292.812 367.158C299.46 363.514 306.135 359.906 312.838 356.335L317.249 353.986C324.051 350.412 330.876 346.878 337.726 343.384C377.707 322.91 419.566 301.23 445.569 265.54C457.504 249.148 457.653 229.081 457.095 208.73C459.214 187.335 458.713 164.26 464.026 143.432C469.338 122.604 478.703 102.354 493.918 87.1682C501.559 79.5392 510.621 73.2256 516.987 64.5C529.914 46.7708 530.792 20.4566 548.615 7.68358C555.97 2.42222 565.149 0.41971 574.134 -0.617517C586.149 -2.00939 599.648 -0.38025 611.625 1.23756" fill="#5596DC"/>
</g>
<path d="M479.963 160.912C494.864 164.174 510.62 176.501 532.952 184.416C549.248 190.192 568.262 193.196 585.012 198.643C599.335 203.292 614.412 212.329 625.613 216.996C637.973 222.148 646.022 222.975 651.585 226.122L651.839 226.256L651.229 225.905C647.597 223.839 643.984 222.347 639.918 220.67C633.792 218.246 627.827 215.434 622.06 212.251C618.779 210.403 614.939 207.797 610.873 205.015C603.771 200.159 595.976 194.827 589.253 192.433C581.121 189.545 572.411 187.96 563.84 186.399C551.526 184.158 539.48 181.968 529.833 176.026C500.825 158.176 468.379 147.175 444.241 147.175C412.299 147.175 378.809 146.066 354.232 144.402C364.94 148.289 375.863 151.556 386.946 154.189C415.469 160.828 446.334 153.542 479.967 160.907" fill="#5596DC"/>
<path d="M1395.72 913.586C1428.15 861.836 1397.14 805.229 1384.34 754.5C1380.86 740.726 1380.99 726.111 1376.68 712.577C1372.76 700.263 1364.28 689.802 1359.89 677.655L1355.73 666.14C1348.63 646.309 1356.47 634.9 1354.01 627.013L1353.45 625.165L1350.29 618.594C1347.4 612.537 1343.94 593.315 1339.82 584.402L1337.89 580.243C1314.69 530.078 1333.04 489.186 1324.71 440.189C1314.76 381.665 1309.81 459.988 1316.46 367.105C1319.94 318.441 1344.25 264.357 1372.32 224.602C1376.22 219.057 1382.97 209.816 1389.34 195.39C1395.71 180.965 1403.49 130.319 1418.82 99.3885C1423.4 90.1896 1429.45 81.7957 1436.72 74.5344C1419.51 82.8514 1407.05 76.073 1394.01 68.9897C1387.51 65.4642 1380.87 61.8555 1373.42 59.9934C1353.06 54.9108 1346.37 70.5052 1338.61 88.5902C1337.27 91.7045 1335.91 94.8927 1334.45 98.0624L1333.53 100.054C1327.73 112.77 1323.69 137.019 1319.38 162.838C1316.23 181.713 1312.94 201.425 1308.73 218.087L1308.11 220.503C1304.27 235.063 1292.36 243.144 1280.46 251.184C1274.89 254.964 1269.31 258.739 1264.57 263.197C1240.68 285.69 1229.8 320.627 1240.77 342.565C1244.54 349.958 1251.19 353.83 1258.05 357.314L1263.19 359.892C1264.92 360.708 1266.69 361.428 1268.5 362.05C1274.27 364.153 1280.18 366.31 1279.98 372.798C1279.74 380.112 1272.51 383.346 1265.88 385.735L1262.05 387.122C1254.79 389.806 1247.08 391.405 1239.41 392.994C1237.32 393.429 1235.25 393.858 1233.17 394.311L1232.71 394.413C1231.48 394.676 1230.22 394.875 1228.96 395.087C1223.28 396.012 1217.53 396.963 1214.8 403.164C1211.5 410.659 1215.13 417.026 1219.03 422.991L1220.88 425.8C1227.5 435.582 1236.91 442.772 1248.08 445.47L1248.96 445.692C1273.35 452.008 1278.34 470.098 1283.76 489.699C1284.54 492.508 1285.32 495.349 1286.17 498.191L1286.82 500.317C1296.65 531.737 1308.43 562.533 1320.21 593.301C1335.85 634.156 1351.49 675.007 1362.54 717.382L1363.07 719.392C1366.4 731.822 1370.52 744.062 1374.62 756.297C1383.13 781.646 1391.65 806.985 1393.24 833.992C1396.26 885.1 1367.65 927.48 1311.26 953.097L1311.41 953.028L1316.15 952.164C1338.15 948.097 1358.29 943.782 1376.98 935.529C1384.2 929.13 1390.49 921.746 1395.65 913.596" fill="#96C3ED"/>
<path d="M1178.05 195.414C1186.01 213.087 1196.44 229.939 1200.5 248.892C1206.43 276.569 1198.26 306.649 1208.62 332.987C1209.4 334.974 1210.42 337.076 1212.34 338.019C1218.11 340.851 1221.82 331.55 1221.59 325.123C1219.9 272.288 1222.99 219.409 1230.83 167.131C1232.05 159.013 1233.4 150.825 1236.53 143.233C1241.28 131.682 1249.9 122.062 1254.41 110.427C1257.03 103.531 1258.15 96.1542 1257.69 88.7907C1257.22 81.4271 1255.19 74.2474 1251.73 67.7329C1240.68 61.0932 1225.58 66.5223 1217.27 76.378C1208.96 86.2337 1205.76 99.2961 1202.82 111.85C1200.45 121.988 1198.07 132.124 1195.69 142.258C1195.26 144.107 1194.74 146.093 1193.28 147.304C1182.29 156.388 1179.39 130.023 1168.7 147.641C1161.86 158.911 1173.37 185.091 1178.01 195.39" fill="#5596DC"/>
<path d="M1049.18 229.255C1041.71 221.372 1035.34 212.861 1028.5 204.474C1021.11 195.39 1010.9 189.342 1000.78 183.885C983.218 174.431 964.403 166.867 946.799 157.118C920.836 142.739 896.647 134.588 866.863 135.087C842.083 135.508 820.472 122.196 802.031 106.809C793.312 99.5317 782.075 96.8009 771.665 93.1599C757.835 88.3175 743.914 82.9484 729.784 78.9285C713.764 74.3726 688.379 66.8365 672.198 73.0234C669.31 74.1277 667.757 76.2578 669.458 79.118C670.412 80.6754 671.565 82.1027 672.886 83.3643C693.217 89.2971 713.196 97.032 732.912 104.721C738.332 106.832 743.849 109.009 748.544 112.382L749.412 112.663C749.384 112.765 749.361 112.867 749.334 112.968C749.879 113.384 750.413 113.819 750.937 114.271C756.218 118.892 759.661 125.194 763.745 130.905C768.577 137.629 774.379 143.599 780.961 148.621C793.899 145.687 806.084 143.159 818.975 145.363C831.294 147.466 838.58 154.965 848.237 163.069C862.168 174.759 877.966 185.415 893.542 194.406C907.219 202.307 923.876 204.812 939.397 208.268C957.629 212.339 975.132 217.139 992.566 223.812C1008.94 230.077 1023.88 237.553 1038.97 246.508C1049.28 252.626 1070.57 264.958 1073.72 262.578C1076.88 260.199 1055.3 235.742 1049.15 229.245" fill="#96C3ED"/>
<path d="M109.35 114.313C111.725 114.752 114.211 115.32 115.99 116.956C118.587 119.349 118.933 123.263 119.1 126.793C119.677 138.76 119.562 152.451 110.667 160.459C99.5499 170.439 82.366 165.541 67.5293 163.795C46.598 161.35 25.3248 166.567 4.40283 164.017C-31.6978 159.627 -61.921 132.948 -97.8599 127.375C-108.316 125.753 -119.452 125.846 -128.665 120.634C-131.65 118.947 -134.649 115.621 -133.249 112.497C-132.427 110.649 -130.389 109.748 -128.504 109.045C-93.7337 96.0478 -52.6752 101.38 -22.3781 122.829C-17.2215 126.479 -12.3514 130.568 -6.84829 133.664C9.90594 143.095 31.9323 140.951 47.5591 130.198C54.9936 125.088 59.0366 116.873 66.9656 113.412C77.9579 108.625 98.0251 112.211 109.336 114.313" fill="#96C3ED"/>
<path d="M542.761 107.077L426.091 87.5413C417.312 86.0673 408.274 84.5194 400.553 80.0467C393.548 75.9852 387.971 69.7059 380.759 66.0233C372.862 61.9941 363.704 61.4027 354.842 61.2317C323.534 60.5873 292.269 63.8814 261.783 71.0366C254.229 72.8109 245.195 76.5397 244.604 84.2699C243.948 92.7441 253.956 97.702 262.315 99.2406C293.915 105.049 326.846 96.7178 358.423 102.586C383.226 107.207 405.622 120.255 429.88 127.177C452.646 133.673 476.548 134.644 500.219 135.572L570.24 138.317C580.982 138.737 591.869 139.181 602.122 142.369C615.457 146.505 626.92 154.983 638.624 162.57C664.729 179.463 693.165 192.446 723.028 201.106C713.066 177.121 690.865 158.597 665.479 153.126C639.433 147.503 632.368 136.764 610.457 125.264C589.859 114.452 565.393 110.871 542.733 107.077" fill="#5596DC"/>
<path d="M879.403 221.589C868.263 207.903 849.743 201.855 838.654 188.122C834.819 183.372 831.977 177.814 827.639 173.521C819.936 165.897 808.759 163.328 798.797 159.063C784.767 153.027 772.646 143.283 763.736 130.878C759.651 125.171 756.209 118.864 750.928 114.244C745.785 109.743 739.275 107.174 732.907 104.693C693.087 89.1679 652.2 73.4209 609.459 72.811C588.667 72.5153 567.902 75.8282 547.164 74.4559C506.138 71.739 468.85 51.1312 431.146 34.7189C393.442 18.3066 343.461 6.76899 311.732 19.7066C303.766 28.1207 350.859 25.1127 363.316 40.7811C369.928 49.0982 375.681 58.4086 382.214 66.8135C388.734 70.5562 394.015 76.2533 400.535 80.033C408.256 84.5057 417.271 86.0397 426.073 87.5276L542.761 107.077C565.402 110.871 589.891 114.47 610.485 125.264C632.396 136.769 639.461 147.503 665.507 153.126C690.892 158.615 713.099 177.121 723.056 201.106C721.767 200.732 720.478 200.339 719.193 199.946C735.758 208.725 752.078 217.967 768.222 227.467C778.037 233.252 787.975 239.221 799.042 241.915C805.279 243.431 811.762 243.87 817.903 245.736C835.581 251.11 840.96 246.12 840.544 245.561C838.58 242.788 839.98 241.139 843.58 241.051C859.548 240.668 875.286 250.639 881.755 265.244C884.49 271.418 885.705 278.302 889.425 283.939C893.145 289.576 900.769 293.619 906.674 290.339C892.271 270.091 895.057 240.857 879.371 221.589" fill="#5596DC"/>
<path d="M656.46 228.927L653.808 227.397L651.848 226.265L651.585 226.122C646.04 222.975 637.973 222.148 625.613 216.996C614.412 212.329 599.317 203.292 585.012 198.643C568.262 193.205 549.248 190.192 532.952 184.416C510.62 176.501 494.864 164.174 479.963 160.912C446.329 153.546 415.464 160.833 386.941 154.193C375.858 151.561 364.935 148.293 354.227 144.407C322.581 133.091 296.659 119.234 280.298 117.034C256.451 113.828 241.115 103.635 229.435 91.7275C225.119 91.3902 187.9 42.084 171.659 42.084C139.92 42.084 122.436 57.1194 111.827 99.4301C111.571 100.44 111.314 101.44 111.055 102.429C111.314 101.44 111.577 100.442 111.832 99.4301C111.577 100.442 111.314 101.445 111.051 102.438C111.028 102.517 111.009 102.595 110.986 102.674C110.723 103.667 110.45 104.656 110.177 105.626V105.668C110.039 106.162 109.895 106.657 109.752 107.146C109.609 107.636 109.466 108.121 109.323 108.607V108.657C109.105 109.387 108.884 110.117 108.657 110.834C108.885 110.119 109.107 109.394 109.323 108.657C109.055 109.558 108.782 110.441 108.505 111.319C108.417 111.596 108.324 111.869 108.237 112.146C108.038 112.77 107.835 113.393 107.627 113.994L107.821 113.421L107.627 113.994L109.373 114.318C111.748 114.757 114.234 115.325 116.013 116.961C118.615 119.354 118.956 123.268 119.123 126.798C119.7 138.765 119.585 152.456 110.69 160.463C99.5731 170.444 82.3892 165.546 67.5525 163.804C46.6212 161.351 25.3481 166.576 4.42604 164.021C-6.09041 162.741 -16.1078 159.572 -25.9173 155.579L-27.9088 155.39L-28.3709 155.344C-29.3273 155.247 -30.2792 155.15 -31.2356 155.043H-31.402C-32.2706 154.946 -33.1393 154.849 -34.008 154.743L-34.6272 154.669L-37.0807 154.36L-37.4364 154.313C-38.3606 154.189 -39.317 154.055 -40.255 153.921L-40.6801 153.861L-43.0505 153.5L-43.6881 153.398C-44.5706 153.255 -45.4485 153.112 -46.3311 152.936H-46.442C-47.3661 152.775 -48.2902 152.608 -49.2374 152.433L-49.8011 152.326C-50.5543 152.183 -51.3028 152.035 -52.056 151.864L-52.6751 151.74C-54.5234 151.361 -56.3531 150.956 -58.1644 150.524L-58.7974 150.372L-61.0292 149.818L-61.5883 149.674C-62.5124 149.44 -63.4272 149.195 -64.3329 148.94L-64.5593 148.875C-65.3818 148.644 -66.2042 148.413 -67.0267 148.163L-67.692 147.965C-68.4529 147.734 -69.2153 147.496 -69.9792 147.253L-70.4136 147.119C-71.3192 146.83 -72.2218 146.529 -73.1212 146.218L-73.5833 146.061C-74.3318 145.802 -75.0788 145.536 -75.8243 145.262L-76.4942 145.017C-77.3075 144.716 -78.1207 144.411 -78.9339 144.093L-79.1696 144C-80.066 143.649 -80.9577 143.289 -81.8449 142.919L-82.4271 142.674C-83.1386 142.366 -83.8471 142.058 -84.5526 141.75L-85.2041 141.464C-86.082 141.071 -86.9645 140.669 -87.8424 140.253L-88.7665 139.828C-89.7954 139.369 -90.8304 138.955 -91.8716 138.585L-92.0102 138.534L-92.9019 138.229L-93.133 138.155L-93.9416 137.901L-94.2281 137.818L-94.9812 137.601L-95.3046 137.513L-96.0255 137.323L-96.3766 137.236L-97.0697 137.069L-97.4486 136.986L-98.1186 136.843L-98.516 136.764L-99.1767 136.635L-99.5787 136.561L-100.235 136.45L-100.646 136.381L-101.293 136.284L-101.718 136.224L-102.356 136.141L-102.785 136.09L-103.423 136.016L-103.857 135.97L-104.49 135.905L-104.952 135.868L-105.585 135.817L-106.048 135.785L-106.676 135.743L-107.138 135.716L-107.725 135.683H-108.187L-108.829 135.655H-109.268H-109.906H-110.368H-111.01H-113.667H-114.304H-114.702H-115.423H-115.788L-116.541 135.683H-116.878L-117.673 135.716H-117.964L-118.837 135.757H-119.05L-120.029 135.808H-120.136C-120.995 135.854 -121.855 135.9 -122.714 135.956L-124.405 136.057L-126.346 136.178L-126.729 136.201L-127.127 136.224H-127.265L-127.847 136.247H-128.309H-128.878H-129.904H-130.366H-130.906H-131.368L-131.904 136.219L-132.329 136.191L-132.852 136.15L-133.23 136.145L-133.743 136.09L-134.141 136.044L-134.64 135.974L-135.023 135.919L-135.513 135.836L-135.883 135.771L-136.345 135.679L-136.7 135.605L-137.163 135.494L-137.5 135.415L-137.962 135.295L-138.285 135.203L-138.747 135.069L-139.057 134.976L-139.519 134.828L-139.815 134.722L-140.254 134.565L-140.54 134.454L-140.97 134.279L-141.243 134.168L-141.668 133.978L-141.922 133.858L-142.338 133.655L-142.587 133.53L-142.994 133.317L-143.225 133.188L-143.627 132.957L-143.849 132.828L-144.241 132.583L-144.449 132.449L-144.837 132.19L-145.031 132.051L-145.415 131.779L-145.595 131.64C-145.724 131.543 -145.849 131.451 -145.969 131.349L-146.145 131.21C-146.27 131.113 -146.39 131.012 -146.51 130.905L-146.672 130.767L-147.037 130.448L-147.185 130.309C-147.305 130.199 -147.425 130.088 -147.54 129.972L-147.679 129.838L-148.035 129.482L-148.155 129.353C-148.275 129.228 -148.391 129.103 -148.506 128.974L-148.617 128.854C-148.732 128.72 -148.853 128.591 -148.964 128.457L-149.065 128.336C-149.181 128.202 -149.296 128.064 -149.407 127.925L-149.495 127.814L-149.837 127.375C-149.837 127.343 -149.883 127.306 -149.911 127.274C-150.026 127.121 -150.137 126.969 -150.248 126.812C-150.248 126.784 -150.29 126.756 -150.308 126.724C-150.424 126.567 -150.535 126.405 -150.645 126.239L-150.696 126.165C-150.812 125.994 -150.923 125.827 -151.034 125.652L-151.066 125.596C-151.181 125.416 -151.292 125.236 -151.403 125.056L-151.426 125.019C-151.537 124.829 -151.653 124.64 -151.764 124.446C-154.915 118.929 -156.555 112.035 -157.969 104.984L-159.055 99.4393L-157.969 104.956C-158.011 104.319 -160.788 63.5235 -205.312 62.6779L-205.312 175.794C-200.354 174.981 -195.391 174.219 -190.452 173.646C-171.045 171.386 -152.129 171.987 -136.03 183.612C-135.282 184.152 -134.54 184.717 -133.803 185.308C-132.698 186.192 -131.607 187.132 -130.532 188.127C-129.817 188.792 -129.107 189.484 -128.402 190.201C-127.696 190.919 -127 191.663 -126.313 192.433C-115.714 204.331 -109.25 218.771 -108.353 233.811C-108.298 234.701 -108.264 235.594 -108.252 236.49V236.953C-108.207 243.432 -109.203 249.877 -111.204 256.04C-111.338 256.465 -111.481 256.881 -111.625 257.292L-111.759 257.648C-111.86 257.935 -111.962 258.216 -112.073 258.494C-112.124 258.632 -112.179 258.771 -112.234 258.91C-112.336 259.165 -112.438 259.415 -112.539 259.658C-112.595 259.797 -112.655 259.935 -112.715 260.069C-112.821 260.319 -112.928 260.559 -113.038 260.799L-113.205 261.169L-113.593 261.973C-113.635 262.056 -113.671 262.139 -113.713 262.218C-113.889 262.564 -114.064 262.902 -114.244 263.234L-114.318 263.364C-114.475 263.646 -114.633 263.923 -114.78 264.191L-114.961 264.487C-115.09 264.699 -115.219 264.912 -115.349 265.115C-115.418 265.226 -115.487 265.328 -115.552 265.434C-115.681 265.628 -115.811 265.822 -115.94 266.007L-116.148 266.312C-116.287 266.506 -116.425 266.695 -116.569 266.885L-116.758 267.139C-116.934 267.374 -117.114 267.601 -117.299 267.827L-117.377 267.924C-117.59 268.183 -117.802 268.437 -118.024 268.682C-118.07 268.738 -118.121 268.788 -118.172 268.844C-118.338 269.029 -118.509 269.213 -118.676 269.389L-118.902 269.62L-119.364 270.082L-119.609 270.313L-120.071 270.734L-120.311 270.946C-120.478 271.094 -120.649 271.233 -120.82 271.376L-121.014 271.538C-121.476 271.921 -121.979 272.281 -122.474 272.623L-122.686 272.762C-122.862 272.882 -123.042 273.002 -123.222 273.113L-123.486 273.275C-123.652 273.381 -123.823 273.478 -123.989 273.58L-124.266 273.737L-124.789 274.023L-125.047 274.157C-125.246 274.264 -125.449 274.361 -125.653 274.462L-125.833 274.55L-126.641 274.915L-126.757 274.961C-126.988 275.058 -127.219 275.155 -127.455 275.243L-127.713 275.345L-128.282 275.553L-128.577 275.655L-129.127 275.835L-129.298 275.89L-129.432 275.932L-130.01 276.103L-130.282 276.177C-130.523 276.246 -130.745 276.306 -131.003 276.366L-131.137 276.403L-132.006 276.602L-132.246 276.648L-132.879 276.777L-133.207 276.833L-133.766 276.93L-134.118 276.985L-134.672 277.064L-135.019 277.115L-135.61 277.184L-135.924 277.221L-136.747 277.299H-136.941L-137.726 277.36H-138.082L-138.646 277.392H-139.048L-139.574 277.415H-139.99H-140.517H-141.866H-142.763H-143.165H-143.71H-144.172H-144.634H-145.124L-145.586 277.392L-146.089 277.364L-146.552 277.336L-147.069 277.304L-147.462 277.276L-148.797 277.175H-148.89L-149.509 277.119L-149.841 277.092L-150.456 277.036L-150.784 277.004L-151.431 276.944L-151.694 276.916L-152.401 276.842H-152.517C-154.407 276.643 -156.301 276.422 -158.191 276.204L-159.914 276.006L-160.376 275.955L-162.687 275.701H-162.881L-165.099 275.479H-165.334C-166.11 275.41 -166.887 275.345 -167.645 275.29L-171.48 275.031C-172.404 274.966 -173.295 274.888 -174.201 274.804L-174.816 274.661L-176.987 274.444L-177.588 274.379C-179.409 274.182 -181.229 273.963 -183.05 273.723L-183.595 273.649L-185.905 273.335L-186.367 273.275C-190.641 272.679 -194.92 272.018 -199.198 271.385L-200.294 271.228L-201.615 271.034L-203.001 270.84L-204.244 270.669L-205.312 270.516L-205.312 396.164L-182.708 378.181L-180.504 376.457C-151.292 353.775 -116.707 338.989 -85.8602 318.621C-72.8348 310.022 -61.7084 298.822 -49.0803 289.655C-25.2843 272.379 -6.47392 259.884 23.6939 255.07C45.1888 251.641 68.0007 257.916 88.9181 251.9C107.22 246.642 120.056 229.259 137.771 222.282C157.044 214.695 178.47 214.284 198.426 208.688C213.082 204.595 226.667 197.095 241.397 193.297C308.539 176.007 400.632 172.223 465.768 173.678L466.836 173.706C497.396 174.575 493.459 182.758 520.527 191.31C539.795 197.405 559.834 200.806 579.208 206.521C594.872 211.142 609.704 218.535 625.594 222.282C635.575 224.634 646.23 227.125 657.014 229.236L656.446 228.908L656.46 228.927ZM-203.463 109.29C-203.227 108.797 -202.967 108.316 -202.682 107.849C-202.967 108.316 -203.227 108.797 -203.463 109.29Z" fill="#5596DC"/>
<path d="M1060.22 174.639C1033.84 162.806 1010.52 141.228 989.234 116.355C985.371 111.841 983.227 107.798 982.488 104.226C966.32 99.7435 950.595 93.7921 935.511 86.4462C926.644 82.1259 917.837 77.2697 908.138 75.4954C893.814 72.8709 879.204 77.2327 865.532 82.2276C863.055 83.1286 860.449 84.1405 858.795 86.1828C856.425 89.0891 856.545 93.2985 857.409 96.9487C862.542 118.633 886.981 129.353 908.915 133.345C932.017 137.55 956.114 138.012 977.909 146.745C984.558 149.415 990.884 152.821 997.195 156.217C1018.7 167.801 1040.29 179.431 1059.96 193.916C1075.13 205.084 1091.56 218.664 1110.23 216.197C1110.18 215.146 1110.08 214.104 1109.94 213.069C1098.71 199.669 1083.39 185.022 1060.22 174.621" fill="#5596DC"/>
<path d="M1060.22 174.639C1120.87 201.85 1127.73 258.05 1148.12 245.616C1163.74 236.167 1118.11 174.459 1114.18 158.112C1106.42 125.767 1146.87 79.1273 1108.31 70.861C1069.74 62.5948 1063.22 90.5216 1030.95 85.6793C998.683 80.8369 967.952 91.4966 989.234 116.355C1010.52 141.214 1033.84 162.806 1060.22 174.639Z" fill="#96C3ED"/>
<path d="M1580.75 98.9218C1579.38 98.9504 1578 99.1207 1576.66 99.4301C1557.47 99.5733 1559.1 68.3567 1546.36 53.3906C1534.67 39.6628 1518.13 32.2976 1491.03 42.084C1472.33 48.8347 1452.35 58.8521 1436.73 74.576C1429.46 81.8379 1423.41 90.2316 1418.82 99.4301C1403.49 130.36 1395.72 181.03 1389.34 195.437C1382.97 209.844 1376.23 219.117 1372.32 224.643C1344.25 264.38 1319.95 318.483 1316.46 367.147C1309.82 460.021 1314.76 381.706 1324.71 440.231C1333.03 489.209 1314.69 530.119 1337.9 580.285L1339.82 584.444C1343.95 593.343 1347.4 612.564 1350.3 618.636L1353.45 625.206L1354.02 627.055C1356.48 634.942 1348.64 646.35 1355.73 666.182L1359.89 677.696C1364.29 689.844 1372.77 700.305 1376.68 712.619C1380.99 726.152 1380.84 740.767 1384.34 754.541C1397.15 805.271 1428.15 861.863 1395.73 913.633C1390.56 921.781 1384.28 929.163 1377.06 935.562C1378.49 934.93 1379.91 934.273 1381.33 933.589C1386.29 930.405 1391.22 927.462 1396.34 925.161C1412.86 914.432 1428.23 899.142 1442.79 876.294L1443.9 874.533C1444.28 873.919 1444.67 873.323 1445.05 872.731L1445.33 872.269L1445.22 872.361L1445.03 872.523L1444.69 872.773L1444.55 872.879L1444.3 873.05L1444.15 873.142C1444.02 873.221 1443.89 873.299 1443.77 873.369C1444.14 871.918 1444.52 870.464 1444.9 869.007C1445.1 868.235 1445.29 867.459 1445.49 866.697C1445.67 865.994 1445.85 865.31 1446.03 864.59C1446.23 863.776 1446.44 862.963 1446.64 862.145C1446.87 861.252 1447.09 860.359 1447.32 859.465C1447.43 859.003 1447.55 858.541 1447.66 858.102C1448.04 856.562 1448.42 855.04 1448.8 853.537C1450.61 846.287 1452.43 839.029 1454.35 831.82L1454.42 831.548C1455.36 827.984 1456.33 824.431 1457.33 820.888L1457.4 820.639C1457.88 818.966 1458.36 817.295 1458.86 815.625C1458.89 815.501 1458.93 815.38 1458.96 815.26C1459.48 813.511 1460.01 811.761 1460.55 810.011C1464.9 796.117 1477.06 792.157 1489.8 789.963L1491.04 789.755L1493.81 789.293C1523.22 784.644 1530.42 773.481 1523.98 744.769C1523.92 744.51 1523.86 744.251 1523.8 743.988L1523.3 741.747L1522.79 739.501C1519.37 724.059 1516.51 708.483 1513.76 692.87C1513.58 691.832 1513.39 690.791 1513.21 689.747L1513.17 689.534L1511.63 680.663C1508.31 661.792 1497.98 649.506 1483.3 642.598C1482.69 642.307 1482.07 642.03 1481.45 641.762C1480.2 641.221 1478.91 640.722 1477.61 640.256C1474.93 639.307 1472.19 638.519 1469.42 637.895C1468.71 637.733 1468 637.58 1467.28 637.432L1458.73 635.69C1450.41 634.009 1442.01 632.516 1433.88 632.456C1419.38 632.364 1405.72 636.855 1394.78 653.092L1394.58 653.378L1394.34 653.701C1393.61 654.626 1392.95 655 1392.39 655.028C1391.36 655.074 1390.56 653.997 1389.95 652.801L1389.84 652.579C1389.77 652.426 1389.7 652.274 1389.63 652.117C1389.53 651.89 1389.44 651.655 1389.35 651.451L1388.39 649.021C1387.61 647.02 1386.87 645.024 1386.17 643.046C1364.76 582.484 1379.67 532.397 1458.78 513.873C1460.69 504.942 1463.2 496.07 1464.43 487.028C1467.5 464.452 1462.48 441.584 1462.84 418.805C1463.1 401.944 1466.3 385.283 1469.49 368.722C1472.61 352.523 1475.74 336.29 1480.42 320.47C1483.71 309.339 1487.92 298.157 1495.56 289.424C1500.49 283.805 1506.58 279.494 1513.26 276.14C1513.31 275.451 1513.35 274.754 1513.41 274.079C1513.4 274.07 1513.4 274.06 1513.41 274.051C1513.45 273.529 1513.51 273.012 1513.6 272.508C1513.6 272.466 1513.6 272.425 1513.62 272.379C1513.66 272.148 1513.7 271.917 1513.75 271.699C1513.76 271.684 1513.76 271.668 1513.75 271.653C1513.81 271.417 1513.88 271.191 1513.95 270.96C1513.96 270.919 1513.98 270.879 1513.99 270.84C1514.05 270.66 1514.12 270.48 1514.19 270.309L1514.26 270.147C1514.35 269.945 1514.46 269.747 1514.57 269.555C1514.92 268.939 1515.26 268.323 1515.59 267.707C1515.67 267.564 1515.75 267.425 1515.82 267.282C1516.15 266.666 1516.47 266.05 1516.78 265.434L1516.89 265.207C1517.16 264.662 1517.43 264.112 1517.69 263.563C1517.77 263.396 1517.86 263.23 1517.93 263.068C1518.21 262.472 1518.49 261.881 1518.75 261.285C1518.82 261.132 1518.88 260.98 1518.95 260.822C1519.16 260.36 1519.37 259.857 1519.58 259.376C1519.66 259.178 1519.74 258.983 1519.82 258.789C1520.06 258.216 1520.28 257.644 1520.52 257.066C1520.61 256.849 1520.69 256.627 1520.78 256.41C1520.94 255.994 1521.1 255.583 1521.24 255.167C1521.33 254.927 1521.42 254.705 1521.51 254.451C1521.71 253.91 1521.91 253.369 1522.1 252.829C1522.21 252.533 1522.32 252.237 1522.42 251.946L1522.75 250.981C1522.93 250.448 1523.11 249.916 1523.29 249.387L1523.55 248.592L1523.94 247.4L1524.09 246.938C1526.5 239.369 1528.51 231.657 1530.88 224.061C1538.84 198.237 1559.8 187.605 1583.81 181.409V99.4763C1582.83 99.0747 1581.77 98.8857 1580.72 98.9218" fill="#5596DC"/>
</g>
</g>
<defs>
<clipPath id="clip0_6409_202185">
<rect width="1440" height="148" fill="white"/>
</clipPath>
<clipPath id="clip1_6409_202185">
<rect width="1440" height="157" fill="white" transform="translate(1440 156) rotate(-180)"/>
</clipPath>
</defs>
</svg>
