<svg width="1440" height="139" viewBox="0 0 1440 139" fill="none" xmlns="http://www.w3.org/2000/svg">
<g clip-path="url(#clip0_29_5962)">
<path d="M154.086 -491.176C127.096 -456.295 151.636 -417.198 161.446 -382.373C164.106 -372.917 163.836 -362.938 167.176 -353.635C170.216 -345.17 176.986 -337.906 180.406 -329.548L183.656 -321.626C189.186 -307.982 182.676 -300.303 184.586 -294.881L185.026 -293.611L187.506 -289.079C189.786 -284.901 192.366 -271.726 195.616 -265.58L197.136 -262.713C215.406 -228.126 199.996 -200.46 206.186 -166.882C213.576 -126.774 218.536 -180.192 212.026 -116.856C208.606 -83.6724 188.206 -47.0831 164.906 -20.3323C161.666 -16.6012 156.066 -10.3862 150.716 -0.625305C145.366 9.13552 138.436 43.6117 125.596 64.5165C121.756 70.7335 116.746 76.3799 110.746 81.2354C124.836 75.7999 134.886 80.6058 145.406 85.6282C150.656 88.128 156.016 90.6867 162.046 92.064C178.536 95.824 184.166 85.2694 190.686 73.0291C191.816 70.9213 192.966 68.7635 194.186 66.6196L194.956 65.2726C199.826 56.6712 203.406 40.169 207.216 22.5976C209.996 9.75238 212.906 -3.66202 216.536 -14.9806L217.066 -16.622C220.356 -26.5104 230.136 -31.8602 239.906 -37.1817C244.486 -39.6837 249.066 -42.1825 252.976 -45.1603C272.666 -60.1817 281.936 -83.8854 273.276 -99.0231C270.296 -104.125 264.936 -106.864 259.396 -109.34L255.256 -111.174C253.856 -111.755 252.426 -112.272 250.966 -112.723C246.296 -114.241 241.506 -115.798 241.756 -120.225C242.036 -125.217 247.956 -127.323 253.376 -128.861L256.506 -129.753C262.436 -131.483 268.726 -132.465 274.986 -133.442C276.686 -133.709 278.376 -133.973 280.076 -134.253L280.456 -134.316C281.446 -134.478 282.476 -134.596 283.506 -134.723C288.136 -135.273 292.816 -135.842 295.116 -140.038C297.886 -145.109 295.016 -149.509 291.916 -153.638L290.446 -155.582C285.176 -162.356 277.616 -167.4 268.556 -169.401L267.846 -169.565C248.086 -174.225 244.246 -186.649 240.076 -200.111C239.476 -202.041 238.876 -203.992 238.216 -205.945L237.716 -207.406C230.096 -229.002 220.886 -250.2 211.676 -271.38C199.436 -299.502 187.206 -327.621 178.726 -356.716L178.326 -358.096C175.756 -366.632 172.556 -375.049 169.366 -383.462C162.746 -400.894 156.126 -418.319 155.156 -436.785C153.306 -471.73 177.076 -500.266 223.236 -516.959L223.116 -516.914L219.246 -516.391C201.306 -513.927 184.876 -511.265 169.586 -505.895C163.636 -501.627 158.436 -496.674 154.146 -491.181" fill="#5F5F6B"/>
<path d="M889.764 35.8279C877.685 33.3887 865.02 24.7464 846.956 19.0241C833.773 14.8485 818.348 12.5276 804.792 8.56965C793.2 5.19199 781.048 -1.19402 771.996 -4.54002C762.007 -8.23372 755.472 -8.91282 750.986 -11.1406L750.781 -11.2357L751.272 -10.9872C754.201 -9.52522 757.121 -8.45472 760.408 -7.25162C765.361 -5.50962 770.178 -3.50452 774.829 -1.24892C777.475 0.0597833 780.566 1.89398 783.839 3.85126C789.556 7.26841 795.831 11.0204 801.269 12.7503C807.848 14.8379 814.911 16.0438 821.862 17.232C831.849 18.9372 841.618 20.6038 849.392 24.7987C872.767 37.3998 899.019 45.3734 918.647 45.716C944.621 46.1694 971.84 47.402 991.805 48.8868C983.142 46.0808 974.303 43.6943 965.32 41.7393C942.206 36.8001 917.021 41.3381 889.76 35.831" fill="#5F5F6B"/>
<path d="M322.526 2.35796C316.266 -9.82453 307.976 -21.4805 304.906 -34.4816C300.416 -53.4667 307.416 -73.8925 299.306 -92.0251C298.696 -93.3931 297.886 -94.8441 296.336 -95.5151C291.686 -97.5311 288.556 -91.2311 288.666 -86.839C289.406 -50.7338 286.266 -14.6664 279.276 20.9231C278.186 26.4499 276.986 32.0221 274.346 37.1621C270.346 44.9832 263.226 51.4305 259.426 59.3119C257.206 63.9838 256.206 69.0058 256.496 74.0412C256.786 79.0762 258.346 84.0079 261.086 88.5059C269.996 93.1972 282.336 89.7038 289.216 83.0913C296.086 76.4787 298.846 67.6037 301.386 59.0722C303.436 52.1829 305.486 45.2948 307.546 38.4075C307.916 37.1515 308.366 35.802 309.566 34.996C318.606 28.9484 320.656 46.9945 329.556 35.1146C335.256 27.5156 326.206 9.47354 322.556 2.37426" fill="#4195C4"/>
<path d="M427.716 -18.9233C433.696 -13.4341 438.776 -7.53153 444.238 -1.70733C450.142 4.60119 458.373 8.87658 466.536 12.7467C480.701 19.452 495.91 24.8845 510.109 31.7923C531.05 41.9805 550.622 47.89 574.847 47.9719C595.002 48.0365 612.416 57.434 627.228 68.2033C634.231 73.2968 643.336 75.3212 651.758 77.9554C662.945 81.4586 674.202 85.3228 685.644 88.2686C698.616 91.6072 719.168 97.114 732.4 93.1185C734.761 92.4054 736.049 90.9728 734.7 88.9954C733.941 87.9182 733.023 86.9271 731.963 86.0469C715.502 81.7068 699.348 76.1411 683.407 70.6106C679.025 69.0916 674.565 67.5271 670.788 65.157L670.085 64.9522C670.109 64.8832 670.129 64.8141 670.152 64.7451C669.714 64.4534 669.283 64.1491 668.864 63.8325C664.625 60.6021 661.901 56.2493 658.647 52.2912C654.798 47.6308 650.153 43.4717 644.859 39.9489C634.304 41.769 624.366 43.3221 613.909 41.634C603.918 40.0234 598.082 34.7987 590.326 29.1271C579.137 20.9461 566.418 13.4454 553.86 7.08391C542.833 1.49402 529.318 -0.45263 516.738 -3.03323C501.961 -6.07193 487.785 -9.59883 473.689 -14.4027C460.452 -18.9138 448.39 -24.2313 436.226 -30.5608C427.916 -34.8848 410.756 -43.6088 408.156 -42.0286C405.566 -40.4483 422.816 -23.4404 427.736 -18.9166" fill="#EA7534"/>
<path d="M1190.57 72.9105C1188.65 72.577 1186.63 72.1536 1185.2 71.0114C1183.12 69.34 1182.89 66.6625 1182.79 64.2494C1182.47 56.0686 1182.72 46.7207 1190.05 41.3786C1199.21 34.7207 1213.13 38.3094 1225.17 39.7127C1242.16 41.679 1259.52 38.4185 1276.5 40.4572C1305.81 43.9673 1330.06 62.6157 1359.22 66.9312C1367.7 68.1872 1376.76 68.2821 1384.19 71.9722C1386.6 73.1663 1389 75.4808 1387.82 77.594C1387.13 78.8445 1385.46 79.4308 1383.92 79.8837C1355.49 88.2664 1322.17 84.0423 1297.79 68.9648C1293.64 66.3988 1289.73 63.5371 1285.29 61.3449C1271.78 54.6669 1253.84 55.8184 1241.01 62.9392C1234.9 66.3236 1231.52 71.8766 1225.03 74.1274C1216.03 77.2404 1199.76 74.507 1190.58 72.9107" fill="#5F5F6B"/>
<path d="M838.057 71.7003L932.695 86.6974C939.816 87.8286 947.147 89.014 953.372 92.178C959.019 95.051 963.48 99.4184 969.301 102.036C975.674 104.899 983.114 105.433 990.318 105.676C1015.77 106.56 1041.23 104.754 1066.11 100.301C1072.27 99.1963 1079.66 96.778 1080.23 91.5074C1080.87 85.7297 1072.79 82.2019 1066.01 81.0325C1040.38 76.6176 1013.51 81.8394 987.899 77.3838C967.785 73.8764 949.729 64.6476 930.086 59.5764C911.652 54.8168 892.227 53.8149 872.99 52.8447L816.086 49.9765C807.355 49.5369 798.508 49.0794 790.209 46.7567C779.415 43.7433 770.194 37.7904 760.767 32.4431C739.74 20.536 716.773 11.2666 692.593 4.92883C700.408 21.45 718.241 34.4153 738.818 38.5116C759.93 42.7214 765.547 50.1549 783.227 58.3197C799.848 65.9958 819.7 68.7885 838.08 71.7007" fill="#FFD72E"/>
<path d="M565.681 -11.2787C574.577 -1.77424 589.564 2.61906 598.417 12.1544C601.479 15.4526 603.724 19.2889 607.2 22.2819C613.373 27.5977 622.431 29.5107 630.481 32.5646C641.816 36.8865 651.559 43.7128 658.655 52.3103C661.908 56.2652 664.632 60.6212 668.871 63.8516C673 66.998 678.263 68.8451 683.411 70.6296C715.606 81.7973 748.666 93.131 783.413 94.1542C800.317 94.6513 817.242 92.6836 834.088 93.9151C867.416 96.3528 897.491 110.955 927.955 122.699C958.418 134.442 998.923 143.03 1024.88 134.646C1031.46 129.013 993.126 130.398 983.183 119.522C977.906 113.748 973.339 107.308 968.126 101.475C962.87 98.8269 958.643 94.8613 953.387 92.1877C947.162 89.0236 939.849 87.8481 932.71 86.7071L838.057 71.7003C819.692 68.7883 799.822 65.9827 783.204 58.3193C765.525 50.1513 759.908 42.7213 738.795 38.5111C718.218 34.4022 700.382 21.4495 692.571 4.92838C693.614 5.20227 694.658 5.48878 695.698 5.77554C682.333 -0.454834 669.172 -6.99764 656.158 -13.7143C648.246 -17.8042 640.236 -22.0221 631.269 -24.0188C626.215 -25.1423 620.949 -25.5337 615.978 -26.896C601.667 -30.8167 597.234 -27.4849 597.565 -27.0971C599.129 -25.176 597.971 -24.0697 595.043 -24.0609C582.053 -24.0256 569.375 -31.0584 564.289 -41.1245C562.138 -45.379 561.232 -50.0975 558.275 -53.9999C555.317 -57.9026 549.166 -60.7718 544.325 -58.6153C555.795 -44.5838 553.181 -24.659 565.707 -11.2782" fill="#E5C7A3"/>
<path d="M-6.08409 62.5367C-4.96409 62.5366 -3.84401 62.4401 -2.75401 62.2477C12.856 62.4223 11.156 83.7171 21.336 94.1185C30.676 103.659 44.0459 108.924 66.1959 102.625C81.4859 98.2805 97.846 91.723 110.736 81.2068C116.736 76.351 121.756 70.7048 125.596 64.488C138.426 43.5832 145.356 9.09116 150.706 -0.656921C156.066 -10.405 161.656 -16.6423 164.896 -20.3607C188.196 -47.099 208.606 -83.7008 212.016 -116.884C218.526 -180.214 213.576 -126.803 206.186 -166.911C200.006 -200.476 215.396 -228.154 197.126 -262.742L195.616 -265.609C192.366 -271.745 189.786 -284.92 187.506 -289.108L185.016 -293.64L184.586 -294.91C182.676 -300.331 189.186 -308.01 183.646 -321.654L180.406 -329.577C176.976 -337.935 170.206 -345.199 167.166 -353.664C163.826 -362.967 164.126 -372.945 161.436 -382.401C151.636 -417.227 127.096 -456.314 154.086 -491.207C158.376 -496.7 163.576 -501.65 169.526 -505.918C168.346 -505.506 167.186 -505.078 166.026 -504.631C161.946 -502.528 157.906 -500.588 153.716 -499.089C140.156 -491.996 127.476 -481.773 115.366 -466.376L114.436 -465.19C114.126 -464.776 113.806 -464.374 113.486 -463.976L113.246 -463.664L113.346 -463.726L113.506 -463.833L113.776 -463.999L113.896 -464.069L114.106 -464.183L114.216 -464.244C114.326 -464.296 114.436 -464.347 114.536 -464.393C114.216 -463.407 113.886 -462.419 113.566 -461.43C113.396 -460.906 113.226 -460.379 113.056 -459.861C112.906 -459.384 112.746 -458.919 112.596 -458.43C112.416 -457.877 112.246 -457.325 112.066 -456.769C111.876 -456.163 111.676 -455.554 111.486 -454.949C111.386 -454.635 111.286 -454.321 111.186 -454.023C110.866 -452.977 110.536 -451.941 110.206 -450.921C108.646 -445.996 107.086 -441.065 105.436 -436.169L105.376 -435.984C104.566 -433.565 103.736 -431.152 102.876 -428.746L102.826 -428.577C102.416 -427.441 101.996 -426.306 101.576 -425.174C101.546 -425.089 101.516 -425.007 101.486 -424.926C101.046 -423.737 100.596 -422.552 100.136 -421.364C96.436 -411.937 86.496 -409.406 76.106 -408.088L75.096 -407.963L72.836 -407.687C48.866 -404.93 42.876 -397.409 47.776 -377.71C47.826 -377.532 47.8659 -377.355 47.9159 -377.174L48.2959 -375.636L48.6859 -374.096C51.2859 -363.502 53.426 -352.824 55.466 -342.123C55.606 -341.41 55.746 -340.698 55.876 -339.982L55.906 -339.836L57.0559 -333.756C59.5359 -320.822 67.786 -312.285 79.636 -307.36C80.136 -307.152 80.636 -306.954 81.136 -306.762C82.146 -306.375 83.186 -306.016 84.236 -305.679C86.406 -304.994 88.626 -304.416 90.866 -303.95C91.446 -303.83 92.026 -303.716 92.606 -303.604L99.5359 -302.293C106.286 -301.027 113.096 -299.888 119.706 -299.732C131.496 -299.463 142.656 -302.336 151.746 -313.269L151.906 -313.462L152.106 -313.679C152.716 -314.3 153.256 -314.546 153.716 -314.557C154.546 -314.574 155.186 -313.828 155.666 -313.002L155.756 -312.849C155.806 -312.744 155.866 -312.639 155.916 -312.53C155.996 -312.374 156.076 -312.212 156.146 -312.072L156.896 -310.398C157.506 -309.021 158.086 -307.647 158.626 -306.287C175.316 -264.625 162.586 -230.632 98.0459 -219.105C96.3859 -213.032 94.236 -207.01 93.126 -200.852C90.366 -185.478 94.166 -169.791 93.606 -154.239C93.196 -142.729 90.396 -131.396 87.606 -120.132C84.876 -109.114 82.136 -98.0731 78.146 -87.3353C75.336 -79.7806 71.7759 -72.2042 65.4559 -66.349C61.3859 -62.5819 56.376 -59.7244 50.906 -57.5284C50.866 -57.0588 50.826 -56.583 50.766 -56.1231C50.766 -56.1167 50.766 -56.1104 50.766 -56.1042C50.716 -55.7483 50.666 -55.3957 50.596 -55.053C50.596 -55.0246 50.5859 -54.9962 50.5759 -54.9649C50.5359 -54.8077 50.4959 -54.6506 50.4559 -54.503C50.4559 -54.4926 50.4559 -54.4819 50.4559 -54.4714C50.4059 -54.3114 50.3459 -54.1577 50.2859 -54.001C50.2759 -53.973 50.266 -53.9457 50.246 -53.9195C50.196 -53.7973 50.146 -53.6751 50.086 -53.5594L50.026 -53.45C49.946 -53.3131 49.856 -53.1798 49.766 -53.0504C49.476 -52.6348 49.1859 -52.2187 48.9159 -51.8028C48.8459 -51.7061 48.776 -51.6126 48.716 -51.5158C48.446 -51.0998 48.1759 -50.6834 47.9159 -50.2672L47.8259 -50.1142C47.5959 -49.7457 47.376 -49.374 47.156 -49.0022C47.086 -48.8898 47.0159 -48.7773 46.9559 -48.668C46.7159 -48.2649 46.486 -47.8649 46.266 -47.4616C46.206 -47.3584 46.156 -47.2552 46.096 -47.1489C45.916 -46.8364 45.7459 -46.4953 45.5759 -46.1701C45.5059 -46.0356 45.436 -45.9043 45.366 -45.7729C45.166 -45.385 44.976 -44.9969 44.776 -44.6059C44.706 -44.4587 44.6359 -44.3085 44.5559 -44.1615C44.4259 -43.8797 44.2859 -43.6012 44.1659 -43.3192C44.0959 -43.1564 44.0159 -43.0062 43.9359 -42.8339C43.7659 -42.4676 43.6059 -42.1012 43.4359 -41.7348C43.3459 -41.5343 43.2559 -41.3339 43.1759 -41.1365L42.896 -40.4818C42.736 -40.1206 42.5859 -39.7603 42.4359 -39.4008L42.2059 -38.8618L41.876 -38.0532L41.756 -37.7397C39.706 -32.6054 37.976 -27.3675 35.966 -22.2136C29.176 -4.69102 12.0159 2.27212 -7.58409 6.16278L-8.56407 62.1147C-7.77407 62.4028 -6.91406 62.5469 -6.05406 62.5373" fill="#EA7534"/>
<path d="M747.056 -13.1251L749.194 -12.043L750.774 -11.2421L750.986 -11.1405C755.457 -8.91303 762.007 -8.23373 771.997 -4.53993C781.049 -1.19403 793.216 5.19225 804.793 8.56964C818.348 12.5213 833.773 14.8485 846.956 19.0241C865.02 24.7463 877.686 33.3886 889.764 35.8279C917.025 41.335 942.21 36.797 965.324 41.7362C974.307 43.6915 983.15 46.0777 991.809 48.8837C1017.41 57.0605 1038.32 66.8915 1051.6 68.6257C1070.95 71.1541 1083.3 78.3326 1092.66 86.6299C1096.16 86.9215 1125.84 121.121 1139.04 121.352C1164.85 121.802 1179.25 111.783 1188.38 83.0391C1188.6 82.353 1188.82 81.6738 1189.04 81.0022C1188.82 81.6738 1188.6 82.3516 1188.38 83.039C1188.6 82.3516 1188.82 81.6706 1189.05 80.9959C1189.07 80.9426 1189.08 80.8893 1189.1 80.8359C1189.33 80.1613 1189.56 79.4899 1189.8 78.8311V78.8027C1189.92 78.467 1190.04 78.1314 1190.16 77.799C1190.28 77.4666 1190.4 77.1373 1190.53 76.808L1190.53 76.7733C1190.71 76.2778 1190.9 75.7824 1191.09 75.2965C1190.9 75.7814 1190.71 76.2737 1190.53 76.7733C1190.76 76.1618 1190.99 75.563 1191.22 74.9674C1191.3 74.7793 1191.38 74.5944 1191.45 74.4063C1191.62 73.9832 1191.79 73.5601 1191.97 73.1528L1191.81 73.5413L1191.97 73.1528L1190.55 72.9072C1188.63 72.5737 1186.61 72.1503 1185.19 71.008C1183.1 69.3366 1182.87 66.6591 1182.77 64.246C1182.45 56.0652 1182.7 46.7174 1190.03 41.3753C1199.19 34.7174 1213.11 38.306 1225.15 39.7062C1242.14 41.6788 1259.5 38.412 1276.48 40.4539C1285.02 41.4772 1293.13 43.784 1301.06 46.6495L1302.67 46.8072L1303.05 46.8453C1303.83 46.9251 1304.6 47.0049 1305.38 47.091L1305.51 47.0934C1306.22 47.172 1306.92 47.2506 1307.63 47.3355L1308.13 47.3948L1310.12 47.641L1310.41 47.6776C1311.16 47.7759 1311.94 47.881 1312.7 47.9858L1313.04 48.0329L1314.96 48.3126L1315.48 48.3911C1316.2 48.5015 1316.91 48.6117 1317.63 48.7442L1317.72 48.7457C1318.47 48.8693 1319.21 48.996 1319.98 49.1294L1320.44 49.2099C1321.05 49.3184 1321.66 49.43 1322.27 49.5575L1322.77 49.6515C1324.27 49.9364 1325.75 50.2391 1327.22 50.5592L1327.73 50.6724L1329.54 51.0827L1329.99 51.1884C1330.74 51.3615 1331.48 51.5418 1332.22 51.7291L1332.4 51.7765C1333.07 51.9459 1333.73 52.1154 1334.4 52.2975L1334.94 52.4426C1335.55 52.6112 1336.17 52.7842 1336.79 52.961L1337.14 53.0587C1337.87 53.2694 1338.6 53.4873 1339.33 53.7124L1339.7 53.8262C1340.31 54.0136 1340.91 54.2062 1341.52 54.4039L1342.06 54.5807C1342.72 54.7973 1343.37 55.0171 1344.03 55.2464L1344.22 55.3128C1344.95 55.5654 1345.67 55.8242 1346.38 56.0892L1346.86 56.2647C1347.43 56.4852 1348 56.7058 1348.57 56.9259L1349.1 57.1308C1349.81 57.4115 1350.52 57.6985 1351.23 57.995L1351.98 58.2984C1352.81 58.6267 1353.64 58.9241 1354.49 59.1913L1354.6 59.228L1355.32 59.4489L1355.51 59.5026L1356.16 59.6877L1356.39 59.7485L1357 59.9075L1357.26 59.9721L1357.85 60.1117L1358.13 60.1766L1358.69 60.3L1359 60.3622L1359.55 60.4695L1359.87 60.5288L1360.4 60.6266L1360.73 60.6828L1361.26 60.7678L1361.59 60.821L1362.12 60.8964L1362.46 60.9435L1362.98 61.0093L1363.33 61.0501L1363.85 61.1097L1364.2 61.1474L1364.72 61.2005L1365.09 61.2323L1365.6 61.276L1365.98 61.3047L1366.49 61.342L1366.87 61.3675L1367.34 61.3979L1367.72 61.4045L1368.24 61.4325L1368.6 61.4387L1369.12 61.4478L1369.49 61.4543L1370.01 61.4635L1372.17 61.5012L1372.69 61.5102L1373.02 61.5159L1373.6 61.5261L1373.9 61.5313L1374.51 61.523L1374.79 61.5278L1375.43 61.517L1375.67 61.5211L1376.38 61.5051L1376.55 61.5082L1377.35 61.4874L1377.44 61.4889C1378.14 61.4695 1378.83 61.4502 1379.53 61.4245L1380.91 61.3791L1382.49 61.3246L1382.8 61.3142L1383.13 61.3041L1383.24 61.3061L1383.71 61.2986L1384.09 61.3051L1384.55 61.3132L1385.38 61.3277L1385.76 61.3343L1386.2 61.342L1386.58 61.3485L1387.01 61.3751L1387.36 61.4L1387.78 61.4358L1388.09 61.4444L1388.5 61.4895L1388.83 61.5267L1389.23 61.5811L1389.54 61.6244L1389.94 61.6882L1390.24 61.7376L1390.61 61.8073L1390.9 61.8628L1391.28 61.9451L1391.55 62.0035L1391.93 62.0921L1392.19 62.1598L1392.56 62.2579L1392.81 62.3254L1393.19 62.4329L1393.43 62.5097L1393.78 62.6232L1394.01 62.703L1394.36 62.829L1394.58 62.9086L1394.92 63.044L1395.13 63.1297L1395.46 63.2744L1395.67 63.3632L1395.99 63.5141L1396.18 63.6057L1396.5 63.7692L1396.68 63.8607L1397 64.0335L1397.17 64.128L1397.48 64.3102L1397.64 64.4076L1397.94 64.5992L1398.09 64.6964C1398.19 64.7645 1398.29 64.8294 1398.39 64.9005L1398.53 64.9977C1398.63 65.0657 1398.73 65.1368 1398.82 65.2111L1398.95 65.3081L1399.25 65.531L1399.37 65.6277C1399.46 65.7052 1399.56 65.7826 1399.65 65.8631L1399.76 65.9566L1400.05 66.2046L1400.14 66.2947C1400.24 66.3816 1400.33 66.4684 1400.42 66.5584L1400.51 66.642C1400.61 66.7352 1400.7 66.8252 1400.79 66.9183L1400.87 67.0018C1400.96 67.0949 1401.06 67.1912 1401.14 67.2875L1401.21 67.3645L1401.49 67.6691C1401.49 67.6912 1401.52 67.7171 1401.55 67.7395C1401.64 67.8453 1401.73 67.951 1401.81 68.0599C1401.81 68.0788 1401.85 68.0983 1401.86 68.1207C1401.95 68.2296 1402.04 68.3416 1402.13 68.4568L1402.17 68.508C1402.26 68.6264 1402.35 68.7416 1402.44 68.863L1402.47 68.9014C1402.56 69.0261 1402.65 69.1507 1402.73 69.2753L1402.75 69.3009C1402.84 69.4318 1402.93 69.5629 1403.02 69.697C1405.52 73.5093 1406.77 78.2404 1407.83 83.0757L1408.65 86.8776L1407.83 83.0946C1407.86 83.5306 1409.63 111.429 1445.83 112.639L1447.17 35.3908C1443.13 35.8758 1439.09 36.326 1435.06 36.6471C1419.26 37.9147 1403.88 37.236 1390.93 29.0685C1390.33 28.6899 1389.73 28.2932 1389.14 27.8788C1388.25 27.2595 1387.38 26.6025 1386.51 25.9076C1385.94 25.4431 1385.37 24.9609 1384.81 24.4606C1384.24 23.9605 1383.68 23.4426 1383.13 22.9068C1374.66 14.6312 1369.57 4.67872 1369.02 -5.60493C1368.99 -6.21343 1368.97 -6.82413 1368.97 -7.43653L1368.98 -7.75203C1369.02 -12.1775 1369.91 -16.5645 1371.61 -20.7451C1371.72 -21.0335 1371.84 -21.3155 1371.96 -21.5943L1372.08 -21.8354C1372.16 -22.0296 1372.25 -22.2206 1372.34 -22.4083C1372.39 -22.5023 1372.43 -22.5962 1372.48 -22.69C1372.56 -22.8631 1372.65 -23.032 1372.74 -23.1969C1372.78 -23.2908 1372.83 -23.3846 1372.88 -23.4752C1372.97 -23.6441 1373.06 -23.8067 1373.15 -23.9692L1373.29 -24.2193L1373.62 -24.7628C1373.65 -24.819 1373.69 -24.8753 1373.72 -24.9283C1373.87 -25.1625 1374.01 -25.3903 1374.16 -25.615L1374.23 -25.7023C1374.36 -25.8925 1374.49 -26.0796 1374.61 -26.2605L1374.76 -26.4599C1374.87 -26.6032 1374.98 -26.7466 1375.08 -26.8836C1375.14 -26.9583 1375.2 -27.0267 1375.25 -27.0984C1375.36 -27.2291 1375.47 -27.3598 1375.58 -27.4842L1375.75 -27.6895C1375.86 -27.82 1375.98 -27.9474 1376.1 -28.0748L1376.26 -28.2456C1376.4 -28.4041 1376.55 -28.5561 1376.7 -28.7081L1376.77 -28.7733C1376.94 -28.947 1377.12 -29.1175 1377.3 -29.2816C1377.34 -29.3188 1377.38 -29.3528 1377.43 -29.3899C1377.56 -29.5138 1377.7 -29.6376 1377.84 -29.7551L1378.03 -29.9097L1378.41 -30.2186L1378.61 -30.3729L1378.99 -30.6535L1379.19 -30.7953C1379.33 -30.8939 1379.47 -30.9861 1379.61 -31.0815L1379.77 -31.1892C1380.15 -31.4445 1380.56 -31.6835 1380.97 -31.91L1381.14 -32.0016C1381.29 -32.0812 1381.43 -32.1607 1381.58 -32.2338L1381.8 -32.3406C1381.94 -32.4108 1382.08 -32.4746 1382.21 -32.5417L1382.44 -32.645L1382.87 -32.8332L1383.08 -32.9211C1383.24 -32.9908 1383.41 -33.0542 1383.58 -33.1207L1383.72 -33.1781L1384.38 -33.4159L1384.48 -33.4458C1384.67 -33.5088 1384.86 -33.5718 1385.05 -33.6284L1385.26 -33.6942L1385.73 -33.8281L1385.97 -33.8933L1386.42 -34.0086L1386.56 -34.044L1386.67 -34.0705L1387.14 -34.1791L1387.36 -34.2257C1387.56 -34.2696 1387.74 -34.3075 1387.95 -34.3448L1388.06 -34.3682L1388.77 -34.4915L1388.96 -34.5197L1389.48 -34.599L1389.75 -34.6322L1390.2 -34.6906L1390.49 -34.7234L1390.94 -34.7692L1391.22 -34.799L1391.7 -34.8379L1391.96 -34.8587L1392.63 -34.9007L1392.79 -34.8979L1393.43 -34.9278L1393.72 -34.9228L1394.18 -34.9368L1394.5 -34.9311L1394.93 -34.9394L1395.27 -34.9335L1395.7 -34.9261L1396.79 -34.9069L1397.52 -34.8942L1397.85 -34.8885L1398.29 -34.8807L1398.67 -34.8742L1399.04 -34.8676L1399.44 -34.8607L1399.82 -34.8383L1400.23 -34.8123L1400.6 -34.7868L1401.02 -34.7573L1401.34 -34.7328L1402.43 -34.6444L1402.5 -34.6431L1403.01 -34.5965L1403.28 -34.5728L1403.77 -34.5262L1404.04 -34.4995L1404.57 -34.4493L1404.78 -34.4266L1405.35 -34.3661L1405.45 -34.3645C1406.98 -34.202 1408.52 -34.0236 1410.05 -33.8485L1411.45 -33.6883L1411.83 -33.6471L1413.7 -33.4407L1413.86 -33.438L1415.66 -33.255L1415.85 -33.2517C1416.48 -33.1933 1417.12 -33.1382 1417.73 -33.0895L1420.85 -32.8584C1421.6 -32.8011 1422.32 -32.7348 1423.06 -32.6652L1423.55 -32.5586L1425.32 -32.3795L1425.81 -32.3268C1427.28 -32.1662 1428.76 -31.9911 1430.24 -31.8012L1430.68 -31.743L1432.56 -31.4956L1432.93 -31.448C1436.4 -30.9803 1439.87 -30.4684 1443.34 -29.9753L1444.23 -29.8525L1445.3 -29.7012L1446.43 -29.549L1447.44 -29.4146L1448.3 -29.2954L1449.8 -115.101L1431.21 -103.141L1429.39 -101.995C1405.37 -86.9196 1377.07 -77.3132 1351.74 -63.8419C1341.05 -58.1545 1331.87 -50.6637 1321.49 -44.5826C1301.93 -33.1222 1286.49 -24.857 1261.9 -21.9972C1244.38 -19.961 1225.91 -24.5698 1208.83 -20.7583C1193.88 -17.4273 1183.24 -5.73873 1168.75 -1.22553C1152.99 3.68212 1135.56 3.65885 1119.27 7.19682C1107.3 9.78449 1096.16 14.7129 1084.14 17.0976C1029.34 27.9522 954.407 29.2294 901.458 27.3109L900.591 27.2768C875.751 26.2498 879.049 20.7174 857.141 14.4926C841.546 10.0571 825.292 7.45027 809.606 3.27203C796.924 -0.105734 784.951 -5.36494 772.075 -8.14954C763.987 -9.89724 755.353 -11.7492 746.608 -13.3443L747.067 -13.1122L747.056 -13.1251ZM1444.88 80.7805C1444.68 81.1142 1444.46 81.439 1444.23 81.754C1444.46 81.439 1444.68 81.1142 1444.88 80.7805Z" fill="#D53A2C"/>
<path d="M154.086 -491.176C127.096 -456.295 151.636 -417.198 161.446 -382.373C164.106 -372.917 163.836 -362.938 167.176 -353.635C170.216 -345.17 176.986 -337.906 180.406 -329.548L183.656 -321.626C189.186 -307.982 182.676 -300.303 184.586 -294.881L185.026 -293.611L187.506 -289.079C189.786 -284.901 192.366 -271.726 195.616 -265.58L197.136 -262.713C215.406 -228.126 199.996 -200.46 206.186 -166.882C213.576 -126.774 218.536 -180.192 212.026 -116.856C208.606 -83.6724 188.206 -47.0831 164.906 -20.3323C161.666 -16.6012 156.066 -10.3862 150.716 -0.625305C145.366 9.13552 138.436 43.6117 125.596 64.5165C121.756 70.7335 116.746 76.3799 110.746 81.2354C124.836 75.7999 134.886 80.6058 145.406 85.6282C150.656 88.128 156.016 90.6867 162.046 92.064C178.536 95.824 184.166 85.2694 190.686 73.0291C191.816 70.9213 192.966 68.7635 194.186 66.6196L194.956 65.2726C199.826 56.6712 203.406 40.169 207.216 22.5976C209.996 9.75238 212.906 -3.66202 216.536 -14.9806L217.066 -16.622C220.356 -26.5104 230.136 -31.8602 239.906 -37.1817C244.486 -39.6837 249.066 -42.1825 252.976 -45.1603C272.666 -60.1817 281.936 -83.8854 273.276 -99.0231C270.296 -104.125 264.936 -106.864 259.396 -109.34L255.256 -111.174C253.856 -111.755 252.426 -112.272 250.966 -112.723C246.296 -114.241 241.506 -115.798 241.756 -120.225C242.036 -125.217 247.956 -127.323 253.376 -128.861L256.506 -129.753C262.436 -131.483 268.726 -132.465 274.986 -133.442C276.686 -133.709 278.376 -133.973 280.076 -134.253L280.456 -134.316C281.446 -134.478 282.476 -134.596 283.506 -134.723C288.136 -135.273 292.816 -135.842 295.116 -140.038C297.886 -145.109 295.016 -149.509 291.916 -153.638L290.446 -155.582C285.176 -162.356 277.616 -167.4 268.556 -169.401L267.846 -169.565C248.086 -174.225 244.246 -186.649 240.076 -200.111C239.476 -202.041 238.876 -203.992 238.216 -205.945L237.716 -207.406C230.096 -229.002 220.886 -250.2 211.676 -271.38C199.436 -299.502 187.206 -327.621 178.726 -356.716L178.326 -358.096C175.756 -366.632 172.556 -375.049 169.366 -383.462C162.746 -400.894 156.126 -418.319 155.156 -436.785C153.306 -471.73 177.076 -500.266 223.236 -516.959L223.116 -516.914L219.246 -516.391C201.306 -513.927 184.876 -511.265 169.586 -505.895C163.636 -501.627 158.436 -496.674 154.146 -491.181" fill="#E6C6A7"/>
<path d="M418.096 18.2172C439.406 26.6726 458.108 41.7394 475.117 59.0272C478.205 62.1648 479.9 64.9562 480.458 67.4059C493.551 70.6967 506.266 74.9841 518.446 80.2147C525.605 83.2909 532.708 86.7322 540.573 88.0816C552.19 90.0772 564.122 87.3058 575.299 84.0889C577.324 83.5087 579.455 82.8547 580.824 81.4835C582.786 79.5323 582.739 76.656 582.08 74.151C578.164 59.2697 558.42 51.6023 540.632 48.5647C521.896 45.3653 502.307 44.7078 484.689 38.4347C479.314 36.5165 474.211 34.1012 469.119 31.6923C451.771 23.4765 434.356 15.2278 418.526 5.05635C406.336 -2.78552 393.136 -12.2925 377.916 -10.8725C377.946 -10.1543 378.016 -9.44102 378.116 -8.73222C387.086 0.577776 399.366 10.798 418.096 18.2298" fill="#5F5F6B"/>
<path d="M418.096 18.2171C369.096 -1.22605 364.186 -39.7028 347.466 -31.5009C334.646 -25.2699 371.016 17.5184 374.016 28.7381C379.936 50.9362 346.486 82.2128 377.746 88.4053C409.016 94.5978 414.646 75.6189 440.827 79.3838C467.01 83.1487 492.126 76.3053 475.117 59.0271C458.107 41.7489 439.406 26.6726 418.096 18.2171Z" fill="#D53A2C"/>
<path d="M648.706 -53.2172L649.491 -52.9383L651.508 -52.2182L653.26 -51.5942L654.571 -51.1231L657.017 -50.2471L657.719 -49.995L660.748 -48.9037L661.047 -48.7943L664.461 -47.5605L664.532 -47.534C692.725 -37.2919 720.569 -26.415 747.059 -13.1251C746.902 -13.2004 746.753 -13.2788 746.597 -13.3572C755.337 -11.7622 763.972 -9.89762 772.064 -8.17812C784.944 -5.39662 796.913 -0.128014 809.595 3.24654C825.307 7.42524 841.543 10.0317 857.13 14.4671C879.038 20.692 875.739 26.2244 900.579 27.2514L901.447 27.2854C954.407 29.2041 1029.33 27.9394 1084.13 17.0721C1096.16 14.6876 1107.3 9.75913 1119.26 7.17133C1135.55 3.64598 1152.98 3.68188 1168.74 -1.23842C1183.23 -5.75792 1193.87 -17.4401 1208.82 -20.7712C1225.9 -24.5764 1244.37 -19.9739 1261.89 -22.0101C1286.48 -24.8699 1301.92 -33.1351 1321.48 -44.5955C1331.86 -50.6767 1341.04 -58.1675 1351.73 -63.8548C1377.07 -77.3133 1405.37 -86.9198 1429.39 -101.995L1431.21 -103.141L1449.8 -115.101L1450.12 -133.279C1435.73 -122.742 1425.04 -114.933 1405.32 -107.377C1359.46 -89.8201 1309.62 -89.4121 1262.39 -74.6531C1203.03 -56.1196 1149.29 -26.043 1092.1 -3.76602C1060.96 8.35385 1021.18 11.4092 988.026 16.0259C981.493 16.9346 975.514 20.1791 968.897 20.4929C873.516 25.043 842.4 1.38874 764.534 -23.1414C686.667 -47.6716 635.572 -61.2175 635.268 -59.9602L634.838 -58.1465C639.462 -56.5084 644.086 -54.8697 648.707 -53.2298" fill="#FFD72E"/>
<path d="M889.764 35.8279C877.685 33.3887 865.02 24.7464 846.956 19.0241C833.773 14.8485 818.348 12.5276 804.792 8.56965C793.2 5.19199 781.048 -1.19402 771.996 -4.54002C762.007 -8.23372 755.472 -8.91282 750.986 -11.1406L750.781 -11.2357L751.272 -10.9872C754.201 -9.52522 757.121 -8.45472 760.408 -7.25162C765.361 -5.50962 770.178 -3.50452 774.829 -1.24892C777.475 0.0597833 780.566 1.89398 783.839 3.85126C789.556 7.26841 795.831 11.0204 801.269 12.7503C807.848 14.8379 814.911 16.0438 821.862 17.232C831.849 18.9372 841.618 20.6038 849.392 24.7987C872.767 37.3998 899.019 45.3734 918.647 45.716C944.621 46.1694 971.84 47.402 991.805 48.8868C983.142 46.0808 974.303 43.6943 965.32 41.7393C942.206 36.8001 917.021 41.3381 889.76 35.831" fill="#4195C4"/>
<path d="M322.526 2.35796C316.266 -9.82453 307.976 -21.4805 304.906 -34.4816C300.416 -53.4667 307.416 -73.8925 299.306 -92.0251C298.696 -93.3931 297.886 -94.8441 296.336 -95.5151C291.686 -97.5311 288.556 -91.2311 288.666 -86.839C289.406 -50.7338 286.266 -14.6664 279.276 20.9231C278.186 26.4499 276.986 32.0221 274.346 37.1621C270.346 44.9832 263.226 51.4305 259.426 59.3119C257.206 63.9838 256.206 69.0058 256.496 74.0412C256.786 79.0762 258.346 84.0079 261.086 88.5059C269.996 93.1972 282.336 89.7038 289.216 83.0913C296.086 76.4787 298.846 67.6037 301.386 59.0722C303.436 52.1829 305.486 45.2948 307.546 38.4075C307.916 37.1515 308.366 35.802 309.566 34.996C318.606 28.9484 320.656 46.9945 329.556 35.1146C335.256 27.5156 326.206 9.47354 322.556 2.37426" fill="#40B5AD"/>
<path d="M427.716 -18.9233C433.696 -13.4341 438.776 -7.53153 444.238 -1.70733C450.142 4.60119 458.373 8.87658 466.536 12.7467C480.701 19.452 495.91 24.8845 510.109 31.7923C531.05 41.9805 550.622 47.89 574.847 47.9719C595.002 48.0365 612.416 57.434 627.228 68.2033C634.231 73.2968 643.336 75.3212 651.758 77.9554C662.945 81.4586 674.202 85.3228 685.644 88.2686C698.616 91.6072 719.168 97.114 732.4 93.1185C734.761 92.4054 736.049 90.9728 734.7 88.9954C733.941 87.9182 733.023 86.9271 731.963 86.0469C715.502 81.7068 699.348 76.1411 683.407 70.6106C679.025 69.0916 674.565 67.5271 670.788 65.157L670.085 64.9522C670.109 64.8832 670.129 64.8141 670.152 64.7451C669.714 64.4534 669.283 64.1491 668.864 63.8325C664.625 60.6021 661.901 56.2493 658.647 52.2912C654.798 47.6308 650.153 43.4717 644.859 39.9489C634.304 41.769 624.366 43.3221 613.909 41.634C603.918 40.0234 598.082 34.7987 590.326 29.1271C579.137 20.9461 566.418 13.4454 553.86 7.08391C542.833 1.49402 529.318 -0.45263 516.738 -3.03323C501.961 -6.07193 487.785 -9.59883 473.689 -14.4027C460.452 -18.9138 448.39 -24.2313 436.226 -30.5608C427.916 -34.8848 410.756 -43.6088 408.156 -42.0286C405.566 -40.4483 422.816 -23.4404 427.736 -18.9166" fill="#5596DC"/>
<path d="M1190.57 72.9105C1188.65 72.577 1186.63 72.1536 1185.2 71.0114C1183.12 69.34 1182.89 66.6625 1182.79 64.2494C1182.47 56.0686 1182.72 46.7207 1190.05 41.3786C1199.21 34.7207 1213.13 38.3094 1225.17 39.7127C1242.16 41.679 1259.52 38.4185 1276.5 40.4572C1305.81 43.9673 1330.06 62.6157 1359.22 66.9312C1367.7 68.1872 1376.76 68.2821 1384.19 71.9722C1386.6 73.1663 1389 75.4808 1387.82 77.594C1387.13 78.8445 1385.46 79.4308 1383.92 79.8837C1355.49 88.2664 1322.17 84.0423 1297.79 68.9648C1293.64 66.3988 1289.73 63.5371 1285.29 61.3449C1271.78 54.6669 1253.84 55.8184 1241.01 62.9392C1234.9 66.3236 1231.52 71.8766 1225.03 74.1274C1216.03 77.2404 1199.76 74.507 1190.58 72.9107" fill="#5596DC"/>
<path d="M838.057 71.7003L932.695 86.6974C939.816 87.8286 947.147 89.014 953.372 92.178C959.019 95.051 963.48 99.4184 969.301 102.036C975.674 104.899 983.114 105.433 990.318 105.676C1015.77 106.56 1041.23 104.754 1066.11 100.301C1072.27 99.1963 1079.66 96.778 1080.23 91.5074C1080.87 85.7297 1072.79 82.2019 1066.01 81.0325C1040.38 76.6176 1013.51 81.8394 987.899 77.3838C967.785 73.8764 949.729 64.6476 930.086 59.5764C911.652 54.8168 892.227 53.8149 872.99 52.8447L816.086 49.9765C807.355 49.5369 798.508 49.0794 790.209 46.7567C779.415 43.7433 770.194 37.7904 760.767 32.4431C739.74 20.536 716.773 11.2666 692.593 4.92883C700.408 21.45 718.241 34.4153 738.818 38.5116C759.93 42.7214 765.547 50.1549 783.227 58.3197C799.848 65.9958 819.7 68.7885 838.08 71.7007" fill="#8B7AB0"/>
<path d="M565.681 -11.2787C574.577 -1.77424 589.564 2.61906 598.417 12.1544C601.479 15.4526 603.724 19.2889 607.2 22.2819C613.373 27.5977 622.431 29.5107 630.481 32.5646C641.816 36.8865 651.559 43.7128 658.655 52.3103C661.908 56.2652 664.632 60.6212 668.871 63.8516C673 66.998 678.263 68.8451 683.411 70.6296C715.606 81.7973 748.666 93.131 783.413 94.1542C800.317 94.6513 817.242 92.6836 834.088 93.9151C867.416 96.3528 897.491 110.955 927.955 122.699C958.418 134.442 998.923 143.03 1024.88 134.646C1031.46 129.013 993.126 130.398 983.183 119.522C977.906 113.748 973.339 107.308 968.126 101.475C962.87 98.8269 958.643 94.8613 953.387 92.1877C947.162 89.0236 939.849 87.8481 932.71 86.7071L838.057 71.7003C819.692 68.7883 799.822 65.9827 783.204 58.3193C765.525 50.1513 759.908 42.7213 738.795 38.5111C718.218 34.4022 700.382 21.4495 692.571 4.92838C693.614 5.20227 694.658 5.48878 695.698 5.77554C682.333 -0.454834 669.172 -6.99764 656.158 -13.7143C648.246 -17.8042 640.236 -22.0221 631.269 -24.0188C626.215 -25.1423 620.949 -25.5337 615.978 -26.896C601.667 -30.8167 597.234 -27.4849 597.565 -27.0971C599.129 -25.176 597.971 -24.0697 595.043 -24.0609C582.053 -24.0256 569.375 -31.0584 564.289 -41.1245C562.138 -45.379 561.232 -50.0975 558.275 -53.9999C555.317 -57.9026 549.166 -60.7718 544.325 -58.6153C555.795 -44.5838 553.181 -24.659 565.707 -11.2782" fill="#FEECA5"/>
<path d="M-6.08409 62.5367C-4.96409 62.5366 -3.84401 62.4401 -2.75401 62.2477C12.856 62.4223 11.156 83.7171 21.336 94.1185C30.676 103.659 44.0459 108.924 66.1959 102.625C81.4859 98.2805 97.846 91.723 110.736 81.2068C116.736 76.351 121.756 70.7048 125.596 64.488C138.426 43.5832 145.356 9.09116 150.706 -0.656921C156.066 -10.405 161.656 -16.6423 164.896 -20.3607C188.196 -47.099 208.606 -83.7008 212.016 -116.884C218.526 -180.214 213.576 -126.803 206.186 -166.911C200.006 -200.476 215.396 -228.154 197.126 -262.742L195.616 -265.609C192.366 -271.745 189.786 -284.92 187.506 -289.108L185.016 -293.64L184.586 -294.91C182.676 -300.331 189.186 -308.01 183.646 -321.654L180.406 -329.577C176.976 -337.935 170.206 -345.199 167.166 -353.664C163.826 -362.967 164.126 -372.945 161.436 -382.401C151.636 -417.227 127.096 -456.314 154.086 -491.207C158.376 -496.7 163.576 -501.65 169.526 -505.918C168.346 -505.506 167.186 -505.078 166.026 -504.631C161.946 -502.528 157.906 -500.588 153.716 -499.089C140.156 -491.996 127.476 -481.773 115.366 -466.376L114.436 -465.19C114.126 -464.776 113.806 -464.374 113.486 -463.976L113.246 -463.664L113.346 -463.726L113.506 -463.833L113.776 -463.999L113.896 -464.069L114.106 -464.183L114.216 -464.244C114.326 -464.296 114.436 -464.347 114.536 -464.393C114.216 -463.407 113.886 -462.419 113.566 -461.43C113.396 -460.906 113.226 -460.379 113.056 -459.861C112.906 -459.384 112.746 -458.919 112.596 -458.43C112.416 -457.877 112.246 -457.325 112.066 -456.769C111.876 -456.163 111.676 -455.554 111.486 -454.949C111.386 -454.635 111.286 -454.321 111.186 -454.023C110.866 -452.977 110.536 -451.941 110.206 -450.921C108.646 -445.996 107.086 -441.065 105.436 -436.169L105.376 -435.984C104.566 -433.565 103.736 -431.152 102.876 -428.746L102.826 -428.577C102.416 -427.441 101.996 -426.306 101.576 -425.174C101.546 -425.089 101.516 -425.007 101.486 -424.926C101.046 -423.737 100.596 -422.552 100.136 -421.364C96.436 -411.937 86.496 -409.406 76.106 -408.088L75.096 -407.963L72.836 -407.687C48.866 -404.93 42.876 -397.409 47.776 -377.71C47.826 -377.532 47.8659 -377.355 47.9159 -377.174L48.2959 -375.636L48.6859 -374.096C51.2859 -363.502 53.426 -352.824 55.466 -342.123C55.606 -341.41 55.746 -340.698 55.876 -339.982L55.906 -339.836L57.0559 -333.756C59.5359 -320.822 67.786 -312.285 79.636 -307.36C80.136 -307.152 80.636 -306.954 81.136 -306.762C82.146 -306.375 83.186 -306.016 84.236 -305.679C86.406 -304.994 88.626 -304.416 90.866 -303.95C91.446 -303.83 92.026 -303.716 92.606 -303.604L99.5359 -302.293C106.286 -301.027 113.096 -299.888 119.706 -299.732C131.496 -299.463 142.656 -302.336 151.746 -313.269L151.906 -313.462L152.106 -313.679C152.716 -314.3 153.256 -314.546 153.716 -314.557C154.546 -314.574 155.186 -313.828 155.666 -313.002L155.756 -312.849C155.806 -312.744 155.866 -312.639 155.916 -312.53C155.996 -312.374 156.076 -312.212 156.146 -312.072L156.896 -310.398C157.506 -309.021 158.086 -307.647 158.626 -306.287C175.316 -264.625 162.586 -230.632 98.0459 -219.105C96.3859 -213.032 94.236 -207.01 93.126 -200.852C90.366 -185.478 94.166 -169.791 93.606 -154.239C93.196 -142.729 90.396 -131.396 87.606 -120.132C84.876 -109.114 82.136 -98.0731 78.146 -87.3353C75.336 -79.7806 71.7759 -72.2042 65.4559 -66.349C61.3859 -62.5819 56.376 -59.7244 50.906 -57.5284C50.866 -57.0588 50.826 -56.583 50.766 -56.1231C50.766 -56.1167 50.766 -56.1104 50.766 -56.1042C50.716 -55.7483 50.666 -55.3957 50.596 -55.053C50.596 -55.0246 50.5859 -54.9962 50.5759 -54.9649C50.5359 -54.8077 50.4959 -54.6506 50.4559 -54.503C50.4559 -54.4926 50.4559 -54.4819 50.4559 -54.4714C50.4059 -54.3114 50.3459 -54.1577 50.2859 -54.001C50.2759 -53.973 50.266 -53.9457 50.246 -53.9195C50.196 -53.7973 50.146 -53.6751 50.086 -53.5594L50.026 -53.45C49.946 -53.3131 49.856 -53.1798 49.766 -53.0504C49.476 -52.6348 49.1859 -52.2187 48.9159 -51.8028C48.8459 -51.7061 48.776 -51.6126 48.716 -51.5158C48.446 -51.0998 48.1759 -50.6834 47.9159 -50.2672L47.8259 -50.1142C47.5959 -49.7457 47.376 -49.374 47.156 -49.0022C47.086 -48.8898 47.0159 -48.7773 46.9559 -48.668C46.7159 -48.2649 46.486 -47.8649 46.266 -47.4616C46.206 -47.3584 46.156 -47.2552 46.096 -47.1489C45.916 -46.8364 45.7459 -46.4953 45.5759 -46.1701C45.5059 -46.0356 45.436 -45.9043 45.366 -45.7729C45.166 -45.385 44.976 -44.9969 44.776 -44.6059C44.706 -44.4587 44.6359 -44.3085 44.5559 -44.1615C44.4259 -43.8797 44.2859 -43.6012 44.1659 -43.3192C44.0959 -43.1564 44.0159 -43.0062 43.9359 -42.8339C43.7659 -42.4676 43.6059 -42.1012 43.4359 -41.7348C43.3459 -41.5343 43.2559 -41.3339 43.1759 -41.1365L42.896 -40.4818C42.736 -40.1206 42.5859 -39.7603 42.4359 -39.4008L42.2059 -38.8618L41.876 -38.0532L41.756 -37.7397C39.706 -32.6054 37.976 -27.3675 35.966 -22.2136C29.176 -4.69102 12.0159 2.27212 -7.58409 6.16278L-8.56407 62.1147C-7.77407 62.4028 -6.91406 62.5469 -6.05406 62.5373" fill="#ED746E"/>
<path d="M747.056 -13.1251L749.194 -12.043L750.774 -11.2421L750.986 -11.1405C755.457 -8.91303 762.007 -8.23373 771.997 -4.53993C781.049 -1.19403 793.216 5.19225 804.793 8.56964C818.348 12.5213 833.773 14.8485 846.956 19.0241C865.02 24.7463 877.686 33.3886 889.764 35.8279C917.025 41.335 942.21 36.797 965.324 41.7362C974.307 43.6915 983.15 46.0777 991.809 48.8837C1017.41 57.0605 1038.32 66.8915 1051.6 68.6257C1070.95 71.1541 1083.3 78.3326 1092.66 86.6299C1096.16 86.9215 1125.84 121.121 1139.04 121.352C1164.85 121.802 1179.25 111.783 1188.38 83.0391C1188.6 82.353 1188.82 81.6738 1189.04 81.0022C1188.82 81.6738 1188.6 82.3516 1188.38 83.039C1188.6 82.3516 1188.82 81.6706 1189.05 80.9959C1189.07 80.9426 1189.08 80.8893 1189.1 80.8359C1189.33 80.1613 1189.56 79.4899 1189.8 78.8311V78.8027C1189.92 78.467 1190.04 78.1314 1190.16 77.799C1190.28 77.4666 1190.4 77.1373 1190.53 76.808L1190.53 76.7733C1190.71 76.2778 1190.9 75.7824 1191.09 75.2965C1190.9 75.7814 1190.71 76.2737 1190.53 76.7733C1190.76 76.1618 1190.99 75.563 1191.22 74.9674C1191.3 74.7793 1191.38 74.5944 1191.45 74.4063C1191.62 73.9832 1191.79 73.5601 1191.97 73.1528L1191.81 73.5413L1191.97 73.1528L1190.55 72.9072C1188.63 72.5737 1186.61 72.1503 1185.19 71.008C1183.1 69.3366 1182.87 66.6591 1182.77 64.246C1182.45 56.0652 1182.7 46.7174 1190.03 41.3753C1199.19 34.7174 1213.11 38.306 1225.15 39.7062C1242.14 41.6788 1259.5 38.412 1276.48 40.4539C1285.02 41.4772 1293.13 43.784 1301.06 46.6495L1302.67 46.8072L1303.05 46.8453C1303.83 46.9251 1304.6 47.0049 1305.38 47.091L1305.51 47.0934C1306.22 47.172 1306.92 47.2506 1307.63 47.3355L1308.13 47.3948L1310.12 47.641L1310.41 47.6776C1311.16 47.7759 1311.94 47.881 1312.7 47.9858L1313.04 48.0329L1314.96 48.3126L1315.48 48.3911C1316.2 48.5015 1316.91 48.6117 1317.63 48.7442L1317.72 48.7457C1318.47 48.8693 1319.21 48.996 1319.98 49.1294L1320.44 49.2099C1321.05 49.3184 1321.66 49.43 1322.27 49.5575L1322.77 49.6515C1324.27 49.9364 1325.75 50.2391 1327.22 50.5592L1327.73 50.6724L1329.54 51.0827L1329.99 51.1884C1330.74 51.3615 1331.48 51.5418 1332.22 51.7291L1332.4 51.7765C1333.07 51.9459 1333.73 52.1154 1334.4 52.2975L1334.94 52.4426C1335.55 52.6112 1336.17 52.7842 1336.79 52.961L1337.14 53.0587C1337.87 53.2694 1338.6 53.4873 1339.33 53.7124L1339.7 53.8262C1340.31 54.0136 1340.91 54.2062 1341.52 54.4039L1342.06 54.5807C1342.72 54.7973 1343.37 55.0171 1344.03 55.2464L1344.22 55.3128C1344.95 55.5654 1345.67 55.8242 1346.38 56.0892L1346.86 56.2647C1347.43 56.4852 1348 56.7058 1348.57 56.9259L1349.1 57.1308C1349.81 57.4115 1350.52 57.6985 1351.23 57.995L1351.98 58.2984C1352.81 58.6267 1353.64 58.9241 1354.49 59.1913L1354.6 59.228L1355.32 59.4489L1355.51 59.5026L1356.16 59.6877L1356.39 59.7485L1357 59.9075L1357.26 59.9721L1357.85 60.1117L1358.13 60.1766L1358.69 60.3L1359 60.3622L1359.55 60.4695L1359.87 60.5288L1360.4 60.6266L1360.73 60.6828L1361.26 60.7678L1361.59 60.821L1362.12 60.8964L1362.46 60.9435L1362.98 61.0093L1363.33 61.0501L1363.85 61.1097L1364.2 61.1474L1364.72 61.2005L1365.09 61.2323L1365.6 61.276L1365.98 61.3047L1366.49 61.342L1366.87 61.3675L1367.34 61.3979L1367.72 61.4045L1368.24 61.4325L1368.6 61.4387L1369.12 61.4478L1369.49 61.4543L1370.01 61.4635L1372.17 61.5012L1372.69 61.5102L1373.02 61.5159L1373.6 61.5261L1373.9 61.5313L1374.51 61.523L1374.79 61.5278L1375.43 61.517L1375.67 61.5211L1376.38 61.5051L1376.55 61.5082L1377.35 61.4874L1377.44 61.4889C1378.14 61.4695 1378.83 61.4502 1379.53 61.4245L1380.91 61.3791L1382.49 61.3246L1382.8 61.3142L1383.13 61.3041L1383.24 61.3061L1383.71 61.2986L1384.09 61.3051L1384.55 61.3132L1385.38 61.3277L1385.76 61.3343L1386.2 61.342L1386.58 61.3485L1387.01 61.3751L1387.36 61.4L1387.78 61.4358L1388.09 61.4444L1388.5 61.4895L1388.83 61.5267L1389.23 61.5811L1389.54 61.6244L1389.94 61.6882L1390.24 61.7376L1390.61 61.8073L1390.9 61.8628L1391.28 61.9451L1391.55 62.0035L1391.93 62.0921L1392.19 62.1598L1392.56 62.2579L1392.81 62.3254L1393.19 62.4329L1393.43 62.5097L1393.78 62.6232L1394.01 62.703L1394.36 62.829L1394.58 62.9086L1394.92 63.044L1395.13 63.1297L1395.46 63.2744L1395.67 63.3632L1395.99 63.5141L1396.18 63.6057L1396.5 63.7692L1396.68 63.8607L1397 64.0335L1397.17 64.128L1397.48 64.3102L1397.64 64.4076L1397.94 64.5992L1398.09 64.6964C1398.19 64.7645 1398.29 64.8294 1398.39 64.9005L1398.53 64.9977C1398.63 65.0657 1398.73 65.1368 1398.82 65.2111L1398.95 65.3081L1399.25 65.531L1399.37 65.6277C1399.46 65.7052 1399.56 65.7826 1399.65 65.8631L1399.76 65.9566L1400.05 66.2046L1400.14 66.2947C1400.24 66.3816 1400.33 66.4684 1400.42 66.5584L1400.51 66.642C1400.61 66.7352 1400.7 66.8252 1400.79 66.9183L1400.87 67.0018C1400.96 67.0949 1401.06 67.1912 1401.14 67.2875L1401.21 67.3645L1401.49 67.6691C1401.49 67.6912 1401.52 67.7171 1401.55 67.7395C1401.64 67.8453 1401.73 67.951 1401.81 68.0599C1401.81 68.0788 1401.85 68.0983 1401.86 68.1207C1401.95 68.2296 1402.04 68.3416 1402.13 68.4568L1402.17 68.508C1402.26 68.6264 1402.35 68.7416 1402.44 68.863L1402.47 68.9014C1402.56 69.0261 1402.65 69.1507 1402.73 69.2753L1402.75 69.3009C1402.84 69.4318 1402.93 69.5629 1403.02 69.697C1405.52 73.5093 1406.77 78.2404 1407.83 83.0757L1408.65 86.8776L1407.83 83.0946C1407.86 83.5306 1409.63 111.429 1445.83 112.639L1447.17 35.3908C1443.13 35.8758 1439.09 36.326 1435.06 36.6471C1419.26 37.9147 1403.88 37.236 1390.93 29.0685C1390.33 28.6899 1389.73 28.2932 1389.14 27.8788C1388.25 27.2595 1387.38 26.6025 1386.51 25.9076C1385.94 25.4431 1385.37 24.9609 1384.81 24.4606C1384.24 23.9605 1383.68 23.4426 1383.13 22.9068C1374.66 14.6312 1369.57 4.67872 1369.02 -5.60493C1368.99 -6.21343 1368.97 -6.82413 1368.97 -7.43653L1368.98 -7.75203C1369.02 -12.1775 1369.91 -16.5645 1371.61 -20.7451C1371.72 -21.0335 1371.84 -21.3155 1371.96 -21.5943L1372.08 -21.8354C1372.16 -22.0296 1372.25 -22.2206 1372.34 -22.4083C1372.39 -22.5023 1372.43 -22.5962 1372.48 -22.69C1372.56 -22.8631 1372.65 -23.032 1372.74 -23.1969C1372.78 -23.2908 1372.83 -23.3846 1372.88 -23.4752C1372.97 -23.6441 1373.06 -23.8067 1373.15 -23.9692L1373.29 -24.2193L1373.62 -24.7628C1373.65 -24.819 1373.69 -24.8753 1373.72 -24.9283C1373.87 -25.1625 1374.01 -25.3903 1374.16 -25.615L1374.23 -25.7023C1374.36 -25.8925 1374.49 -26.0796 1374.61 -26.2605L1374.76 -26.4599C1374.87 -26.6032 1374.98 -26.7466 1375.08 -26.8836C1375.14 -26.9583 1375.2 -27.0267 1375.25 -27.0984C1375.36 -27.2291 1375.47 -27.3598 1375.58 -27.4842L1375.75 -27.6895C1375.86 -27.82 1375.98 -27.9474 1376.1 -28.0748L1376.26 -28.2456C1376.4 -28.4041 1376.55 -28.5561 1376.7 -28.7081L1376.77 -28.7733C1376.94 -28.947 1377.12 -29.1175 1377.3 -29.2816C1377.34 -29.3188 1377.38 -29.3528 1377.43 -29.3899C1377.56 -29.5138 1377.7 -29.6376 1377.84 -29.7551L1378.03 -29.9097L1378.41 -30.2186L1378.61 -30.3729L1378.99 -30.6535L1379.19 -30.7953C1379.33 -30.8939 1379.47 -30.9861 1379.61 -31.0815L1379.77 -31.1892C1380.15 -31.4445 1380.56 -31.6835 1380.97 -31.91L1381.14 -32.0016C1381.29 -32.0812 1381.43 -32.1607 1381.58 -32.2338L1381.8 -32.3406C1381.94 -32.4108 1382.08 -32.4746 1382.21 -32.5417L1382.44 -32.645L1382.87 -32.8332L1383.08 -32.9211C1383.24 -32.9908 1383.41 -33.0542 1383.58 -33.1207L1383.72 -33.1781L1384.38 -33.4159L1384.48 -33.4458C1384.67 -33.5088 1384.86 -33.5718 1385.05 -33.6284L1385.26 -33.6942L1385.73 -33.8281L1385.97 -33.8933L1386.42 -34.0086L1386.56 -34.044L1386.67 -34.0705L1387.14 -34.1791L1387.36 -34.2257C1387.56 -34.2696 1387.74 -34.3075 1387.95 -34.3448L1388.06 -34.3682L1388.77 -34.4915L1388.96 -34.5197L1389.48 -34.599L1389.75 -34.6322L1390.2 -34.6906L1390.49 -34.7234L1390.94 -34.7692L1391.22 -34.799L1391.7 -34.8379L1391.96 -34.8587L1392.63 -34.9007L1392.79 -34.8979L1393.43 -34.9278L1393.72 -34.9228L1394.18 -34.9368L1394.5 -34.9311L1394.93 -34.9394L1395.27 -34.9335L1395.7 -34.9261L1396.79 -34.9069L1397.52 -34.8942L1397.85 -34.8885L1398.29 -34.8807L1398.67 -34.8742L1399.04 -34.8676L1399.44 -34.8607L1399.82 -34.8383L1400.23 -34.8123L1400.6 -34.7868L1401.02 -34.7573L1401.34 -34.7328L1402.43 -34.6444L1402.5 -34.6431L1403.01 -34.5965L1403.28 -34.5728L1403.77 -34.5262L1404.04 -34.4995L1404.57 -34.4493L1404.78 -34.4266L1405.35 -34.3661L1405.45 -34.3645C1406.98 -34.202 1408.52 -34.0236 1410.05 -33.8485L1411.45 -33.6883L1411.83 -33.6471L1413.7 -33.4407L1413.86 -33.438L1415.66 -33.255L1415.85 -33.2517C1416.48 -33.1933 1417.12 -33.1382 1417.73 -33.0895L1420.85 -32.8584C1421.6 -32.8011 1422.32 -32.7348 1423.06 -32.6652L1423.55 -32.5586L1425.32 -32.3795L1425.81 -32.3268C1427.28 -32.1662 1428.76 -31.9911 1430.24 -31.8012L1430.68 -31.743L1432.56 -31.4956L1432.93 -31.448C1436.4 -30.9803 1439.87 -30.4684 1443.34 -29.9753L1444.23 -29.8525L1445.3 -29.7012L1446.43 -29.549L1447.44 -29.4146L1448.3 -29.2954L1449.8 -115.101L1431.21 -103.141L1429.39 -101.995C1405.37 -86.9196 1377.07 -77.3132 1351.74 -63.8419C1341.05 -58.1545 1331.87 -50.6637 1321.49 -44.5826C1301.93 -33.1222 1286.49 -24.857 1261.9 -21.9972C1244.38 -19.961 1225.91 -24.5698 1208.83 -20.7583C1193.88 -17.4273 1183.24 -5.73873 1168.75 -1.22553C1152.99 3.68212 1135.56 3.65885 1119.27 7.19682C1107.3 9.78449 1096.16 14.7129 1084.14 17.0976C1029.34 27.9522 954.407 29.2294 901.458 27.3109L900.591 27.2768C875.751 26.2498 879.049 20.7174 857.141 14.4926C841.546 10.0571 825.292 7.45027 809.606 3.27203C796.924 -0.105734 784.951 -5.36494 772.075 -8.14954C763.987 -9.89724 755.353 -11.7492 746.608 -13.3443L747.067 -13.1122L747.056 -13.1251ZM1444.88 80.7805C1444.68 81.1142 1444.46 81.439 1444.23 81.754C1444.46 81.439 1444.68 81.1142 1444.88 80.7805Z" fill="#ED7342"/>
<path d="M418.096 18.2172C439.406 26.6726 458.108 41.7394 475.117 59.0272C478.205 62.1648 479.9 64.9562 480.458 67.4059C493.551 70.6967 506.266 74.9841 518.446 80.2147C525.605 83.2909 532.708 86.7322 540.573 88.0816C552.19 90.0772 564.122 87.3058 575.299 84.0889C577.324 83.5087 579.455 82.8547 580.824 81.4835C582.786 79.5323 582.739 76.656 582.08 74.151C578.164 59.2697 558.42 51.6023 540.632 48.5647C521.896 45.3653 502.307 44.7078 484.689 38.4347C479.314 36.5165 474.211 34.1012 469.119 31.6923C451.771 23.4765 434.356 15.2278 418.526 5.05635C406.336 -2.78552 393.136 -12.2925 377.916 -10.8725C377.946 -10.1543 378.016 -9.44102 378.116 -8.73222C387.086 0.577776 399.366 10.798 418.096 18.2298" fill="#E6C6A7"/>
<path d="M418.096 18.2171C369.096 -1.22605 364.186 -39.7028 347.466 -31.5009C334.646 -25.2699 371.016 17.5184 374.016 28.7381C379.936 50.9362 346.486 82.2128 377.746 88.4053C409.016 94.5978 414.646 75.6189 440.827 79.3838C467.01 83.1487 492.126 76.3053 475.117 59.0271C458.107 41.7489 439.406 26.6726 418.096 18.2171Z" fill="#ED746E"/>
<path d="M648.707 -53.2171L649.492 -52.9383L651.508 -52.2181L653.26 -51.5942L654.571 -51.1231L657.018 -50.2471L657.72 -49.9949L660.749 -48.9036L661.048 -48.7942L664.461 -47.5605L664.532 -47.534C692.725 -37.2918 720.569 -26.415 747.059 -13.125C746.903 -13.2004 746.754 -13.2787 746.598 -13.3572C755.338 -11.7622 763.972 -9.89762 772.064 -8.17812C784.944 -5.39662 796.913 -0.128024 809.595 3.24654C825.307 7.42525 841.543 10.0318 857.131 14.4671C879.039 20.692 875.74 26.2244 900.58 27.2514L901.448 27.2854C954.407 29.2041 1029.33 27.9394 1084.13 17.0721C1096.16 14.6876 1107.3 9.75915 1119.26 7.17134C1135.55 3.646 1152.98 3.68189 1168.74 -1.23842C1183.23 -5.75792 1193.87 -17.4401 1208.82 -20.7712C1225.9 -24.5764 1244.37 -19.9738 1261.89 -22.0101C1286.48 -24.8699 1301.93 -33.1351 1321.48 -44.5955C1331.86 -50.6766 1341.04 -58.1674 1351.73 -63.8548C1377.07 -77.3132 1405.37 -86.9197 1429.39 -101.995L1431.21 -103.141L1449.8 -115.101L1450.12 -133.279C1435.73 -122.742 1425.05 -114.933 1405.32 -107.377C1359.46 -89.8201 1309.62 -89.4121 1262.39 -74.653C1203.03 -56.1195 1149.29 -26.043 1092.1 -3.76602C1060.96 8.35387 1016.2 -13.8468 983.04 -9.23012C976.508 -8.32152 951.897 -10.203 945.28 -9.88922C849.899 -5.33922 842.401 1.38876 764.534 -23.1414C686.668 -47.6716 635.572 -61.2174 635.268 -59.9602L634.838 -58.1464C639.463 -56.5083 644.087 -54.8696 648.707 -53.2297" fill="#40B5AD"/>
<path d="M708.816 -308.024L709.485 -306.289C738.725 -231.982 797.158 -175.678 867.581 -126.456C910.126 -96.7501 957.748 -74.3202 1006.75 -53.6396C1014.21 -50.4856 1026.79 -45.3547 1031.48 -51.8223C1034.63 -56.2178 1029.62 -59.6733 1024.49 -63.2C1022.01 -64.91 1019.5 -66.636 1017.89 -68.4948C1017.27 -69.1905 1016.67 -69.886 1016.07 -70.5814C1015.46 -71.2896 1014.85 -71.9978 1014.23 -72.7094C1014.79 -72.6237 1015.38 -72.5662 1015.96 -72.5119C1017.36 -72.3738 1018.75 -72.239 1019.91 -71.7263C1046.03 -60.643 1072.99 -51.1009 1099.96 -41.5587L1100.24 -41.4591L1100.67 -43.2729C1100.97 -44.5301 1152.05 -31.013 1229.92 -6.48285C1307.79 18.0473 1338.9 41.7015 1434.28 37.1515C1440.9 36.8377 1446.88 33.5836 1453.41 32.6844C1486.57 28.0709 1526.36 25.0127 1557.49 12.8926C1614.66 -9.38464 1668.41 -39.4421 1727.76 -57.9851C1775 -72.7437 1824.83 -73.1522 1870.69 -90.7091C1890.42 -98.2561 1901.11 -106.074 1915.49 -116.611L1918 -260.369C1915.53 -260.096 1913.05 -259.853 1910.56 -259.609C1892.83 -257.882 1874.87 -256.128 1861.58 -244.934C1846.73 -232.413 1848.73 -209.331 1864.32 -186.894L1864.86 -186.118C1882.31 -160.587 1877.97 -148.663 1846.98 -134.306C1831.54 -127.142 1815.34 -119.729 1798.76 -119.602L1799 -119.598C1744.68 -108.476 1691 -96.4051 1639.01 -79.3785C1637.41 -78.6078 1635.83 -77.8274 1634.27 -77.0244C1620.57 -69.985 1607.86 -61.6309 1594.05 -54.726C1586.28 -50.8404 1577.15 -48.9796 1569.67 -44.7133C1542.36 -29.1398 1562.91 -31.9376 1535.3 -24.4812L1533.74 -24.0665C1516.84 -19.6269 1486.17 -13.7043 1472.47 -23.2422C1458.99 -32.6057 1474.62 -34.5675 1454.33 -36.118C1443.07 -36.9773 1431.69 -35.2791 1420.45 -36.2739C1419.28 -36.3764 1418.75 -38.6519 1419.75 -39.1805L1421.84 -41.5145C1404.56 -38.767 1385.98 -34.1736 1381.01 -45.4624L1380.05 -45.9336C1366.94 -44.8999 1353.41 -44.1103 1339.42 -43.3634L1334.78 -43.1288C1309.62 -41.8192 1266.24 -40.4427 1236.65 -46.7354L1217.69 -50.7752C1164.14 -62.2174 1201.09 -55.0168 1143.91 -76.7868L1141.97 -77.5246C1077.72 -101.82 1069.81 -99.0321 1022.26 -144.636L1018.38 -148.381C1006.73 -159.694 984.125 -182.651 984.653 -197.237C984.808 -201.337 991.416 -203.747 992.201 -207.802C993.34 -213.678 987.223 -220.199 990.162 -225.608C991.661 -228.359 996.661 -222.6 998.973 -220.255C1006.12 -213.023 1009.62 -209.278 1011.63 -207.507C1053.81 -175.605 1101.32 -151.229 1154.91 -135.367C1156 -134.997 1156.97 -134.235 1157.93 -133.48C1158.36 -133.157 1158.78 -132.834 1159.21 -132.511C1158.9 -132.201 1158.59 -131.89 1158.28 -131.561C1157.57 -130.777 1156.78 -130.04 1155.93 -129.358C1144.31 -120.966 1152.88 -117.202 1159.55 -114.274C1160.37 -113.912 1161.16 -113.567 1161.88 -113.223L1163.86 -112.241C1182.08 -103.445 1202.12 -98.7551 1222.18 -94.0621C1229.35 -92.3841 1236.52 -90.7061 1243.6 -88.8433C1245.02 -88.3776 1246.37 -87.7745 1247.62 -87.0466C1248.24 -86.7201 1248.86 -86.3937 1249.49 -86.0956C1248.73 -85.9951 1247.98 -85.8536 1247.23 -85.7152C1245.47 -85.3861 1243.69 -85.0573 1241.96 -85.217C1202.85 -88.5446 1165.43 -97.5721 1128.64 -108.857L1128.35 -108.944C1127.38 -109.248 1126.3 -109.611 1125.18 -110.022C1120.16 -111.789 1114.22 -113.878 1112.55 -111.025C1110.28 -107.167 1116.02 -104.226 1120.74 -101.808C1121.66 -101.337 1122.54 -100.883 1123.31 -100.45L1124.75 -99.6481C1171.28 -73.9292 1224.05 -63.5106 1277.95 -56.3202L1281.28 -55.88C1360.92 -45.4248 1434.59 -58.1785 1503.41 -93.5001C1509.51 -96.6351 1515.95 -99.3321 1522.37 -102.007C1540.65 -109.648 1558.72 -117.211 1568.19 -134.611C1574.57 -146.352 1576.1 -158.903 1577.64 -171.451C1578.37 -177.369 1579.09 -183.285 1580.32 -189.118L1580.42 -189.568C1583.23 -202.668 1588.83 -213.627 1606.76 -216.676L1607.03 -216.725C1610.8 -217.492 1610.5 -220.31 1607.46 -222.456C1586.67 -236.928 1566.43 -232.038 1559.79 -210.978C1563.82 -193.453 1562.93 -175.571 1552.08 -160.004C1550.15 -157.267 1546.74 -155.439 1543.51 -153.775C1542.1 -153.046 1540.69 -152.32 1539.27 -151.598L1538.28 -151.092L1537.01 -150.448L1535.66 -149.767L1534.43 -149.158L1533.05 -148.468L1531.81 -147.859L1530.41 -147.167L1529.19 -146.572L1527.74 -145.869L1526.56 -145.305L1524.95 -144.538L1523.93 -144.06C1523.05 -143.649 1522.17 -143.239 1521.28 -142.844L1520.72 -141.825C1499.25 -103.398 1443.39 -70.196 1386.22 -63.9405C1360.13 -61.0208 1333.69 -60.8693 1307.51 -63.4899C1305.86 -63.6924 1304.25 -64.2855 1302.65 -64.8752C1301.93 -65.1402 1301.22 -65.402 1300.51 -65.6259L1302.06 -65.9966C1303.6 -66.4021 1305.17 -66.726 1306.76 -66.9656C1309.52 -67.3657 1312.29 -67.7371 1315.05 -68.1087C1331.38 -70.2982 1347.72 -72.4876 1361.97 -80.4233C1363.72 -81.4155 1364.89 -83.1437 1366.07 -84.8718C1366.62 -85.6891 1367.18 -86.5064 1367.8 -87.2468C1366.89 -87.6667 1365.99 -88.1875 1365.08 -88.7051C1363.18 -89.7991 1361.27 -90.9021 1359.23 -91.1081C1348.35 -92.1851 1337.41 -92.9381 1326.46 -93.6911C1296.19 -95.7721 1265.89 -97.8571 1236.87 -106.782C1235.75 -107.117 1234.52 -107.454 1233.25 -107.792C1227.78 -109.219 1221.65 -110.835 1221.79 -115.674C1221.79 -116.739 1222.18 -117.777 1222.89 -118.651C1213.72 -118.811 1204.58 -119.717 1195.6 -121.355C1193.69 -121.704 1191.73 -122.108 1190.16 -123.089C1188.59 -124.069 1187.49 -125.768 1187.98 -127.35C1194.9 -128.741 1202.1 -128.908 1209.13 -127.842C1212.83 -127.279 1216.56 -126.371 1220.28 -126.767C1221.98 -126.946 1223.63 -127.397 1225.33 -127.544C1229.81 -127.936 1234.26 -126.226 1238.75 -126.464C1242.56 -126.665 1246.02 -128.23 1249.63 -129.253C1250.99 -129.64 1252.76 -129.858 1253.65 -128.905C1254.31 -128.206 1254.11 -127.168 1253.47 -126.447L1254.23 -126.601C1276.79 -131.279 1299.39 -135.963 1319.85 -145.886C1359.35 -164.969 1363.34 -195.879 1328.05 -220.297C1324.8 -222.544 1321.54 -224.83 1318.25 -227.134L1318.21 -227.16C1287.7 -248.547 1255.6 -271.051 1215.59 -271.181C1186.77 -271.27 1158.73 -274.998 1130.78 -278.712C1107.73 -281.775 1084.73 -284.831 1061.38 -285.839C1054.55 -286.147 1045.1 -286.186 1043.64 -279.725C1042.26 -273.831 1046.72 -267.014 1052.87 -262.813C1060.59 -257.533 1069.05 -253.086 1077.52 -248.64C1090.59 -241.783 1103.65 -234.901 1113.95 -224.962C1120.82 -218.419 1124.93 -209.093 1119.32 -201.697C1114.6 -195.492 1105.81 -198.316 1098.51 -200.656C1097.86 -200.863 1097.22 -201.07 1096.6 -201.264L1094.43 -201.933C1063.77 -211.47 1038.36 -228.036 1014.01 -245.866L1011.66 -247.592C1011.11 -247.959 1010.51 -248.278 1009.88 -248.545C1009.51 -248.719 1009.14 -248.896 1008.76 -249.092C1008.86 -248.863 1008.94 -248.625 1009.02 -248.383C1009.2 -247.702 1009.52 -247.052 1009.99 -246.473C1052.18 -200.966 1126.34 -160.318 1204.25 -166.697L1204.56 -166.723L1205.82 -166.812C1210.61 -167.136 1216.03 -167.505 1218.01 -172.628L1218.02 -173.259L1215.36 -174.909C1208.84 -178.946 1202.37 -182.951 1195.91 -187.053C1195.01 -187.703 1194.21 -188.437 1193.52 -189.241C1193.23 -189.562 1192.95 -189.848 1192.67 -190.134C1193.29 -190.06 1193.93 -190.026 1194.57 -189.996C1195.85 -189.93 1197.13 -189.866 1198.28 -189.471C1201.31 -188.433 1204.41 -187.208 1207.54 -185.97C1220.44 -180.874 1233.95 -175.538 1246.01 -181.962L1246.64 -182.289C1264.01 -191.237 1275.49 -184.881 1287.32 -178.334C1289.51 -177.118 1291.72 -175.899 1293.97 -174.764L1294.35 -174.572C1304.27 -169.446 1302.73 -162.958 1293.97 -157.638C1264.09 -139.521 1229.88 -139.427 1195.35 -142.675L1193.75 -142.829C1140.9 -148.013 1092.79 -163.561 1056.54 -197.304L1055.47 -198.292C1049.66 -203.595 1043.45 -208.602 1037.23 -213.581C1025.04 -223.383 1012.85 -233.169 1003.81 -245.261L1003.21 -246.058C1002.32 -247.228 1001.4 -248.409 1000.47 -249.599C991.614 -260.962 982.049 -273.231 989.533 -286.881C997.077 -300.726 1013.76 -302.158 1029.8 -303.538C1032.16 -303.743 1034.51 -303.945 1036.82 -304.186L1037.93 -304.302C1040.74 -304.61 1043.56 -304.864 1046.39 -305.102C1046.27 -305.164 1046.15 -305.229 1046.04 -305.297C1045.12 -305.869 1045.44 -307.148 1046.57 -307.27L1046.76 -307.267L1068.51 -306.764C1069.89 -306.885 1071.27 -307.016 1072.65 -307.156C1074.8 -307.345 1076.92 -308.795 1078.72 -310.156L1079.33 -310.628C1079.63 -310.815 1077.88 -313.614 1076.47 -314.582C1045.05 -336.594 962.154 -341.197 928.448 -322.847C912.424 -314.122 903.045 -301.111 895.298 -287.02L893.744 -284.144C868.939 -238.711 854.557 -237.087 809.569 -272.356C785.295 -291.402 764.892 -312.995 746.617 -336.172L746.459 -336.364C746.179 -336.72 745.893 -337.097 745.606 -337.481C743.593 -340.142 741.29 -343.197 737.491 -342.187C735.226 -341.595 733.42 -336.715 733.444 -333.82C733.716 -306.298 744.839 -281.674 762.668 -258.819L762.901 -259.002C762.136 -260.407 761.368 -261.812 760.595 -263.215C752.724 -277.556 744.841 -291.913 743.141 -307.993C743.082 -308.464 743 -308.961 742.919 -309.468C742.433 -312.421 741.901 -315.744 745.62 -316.699C747.885 -317.291 752.343 -314.315 754.616 -312.123L757.648 -309.248C780.896 -287.224 804.861 -265.785 833.02 -247.961C861.179 -230.138 879.069 -234.248 893.79 -260.94C895.614 -264.242 897.345 -267.598 899.076 -270.948C908.023 -288.279 916.971 -305.65 938.702 -315.557C939.812 -316.084 940.951 -316.525 942.109 -316.956L943.841 -317.607C953.583 -321.279 963.669 -323.116 974.453 -321.921C971.915 -321.41 969.352 -320.956 966.784 -320.502C961.193 -319.511 955.583 -318.517 950.207 -316.928C937.476 -313.17 928.549 -306.65 921.618 -298.688C925.177 -301.233 929.216 -303.328 933.306 -305.324L933.594 -305.464L935.186 -306.241C939.853 -308.511 944.583 -310.811 949.773 -312.047C956.283 -313.612 963.192 -313.463 969.973 -313.3C983.937 -312.965 998.239 -312.57 1011.23 -308.199C1003.93 -304.792 995.57 -303.318 987.234 -303.972C978.602 -304.666 969.72 -307.627 961.487 -305.346C961.162 -305.257 960.841 -305.159 960.527 -305.047L960.213 -304.936C960.005 -304.864 959.797 -304.792 959.597 -304.713L959.218 -304.565C959.037 -304.493 958.859 -304.42 958.681 -304.341C958.503 -304.262 958.431 -304.225 958.302 -304.168L957.806 -303.933L957.426 -303.738C957.267 -303.655 957.111 -303.573 956.96 -303.487C956.808 -303.401 956.717 -303.346 956.58 -303.273C956.443 -303.2 956.28 -303.098 956.136 -303.006C955.991 -302.914 955.9 -302.852 955.782 -302.775C955.664 -302.699 955.497 -302.588 955.356 -302.493L955.014 -302.246C954.877 -302.147 954.74 -302.049 954.606 -301.937L954.275 -301.678L953.893 -301.369L953.573 -301.094C953.447 -300.986 953.325 -300.874 953.191 -300.763L952.882 -300.478C952.76 -300.363 952.641 -300.248 952.523 -300.131C952.404 -300.013 952.327 -299.935 952.231 -299.82C952.136 -299.705 951.998 -299.578 951.883 -299.457C951.768 -299.336 951.695 -299.255 951.603 -299.146L951.27 -298.76C951.181 -298.658 951.093 -298.558 951.009 -298.449C950.924 -298.34 950.786 -298.179 950.678 -298.042L950.436 -297.73C950.325 -297.587 950.217 -297.441 950.109 -297.294L949.889 -296.982C949.774 -296.823 949.666 -296.67 949.554 -296.499L949.369 -296.234L948.956 -295.61L948.875 -295.482C948.712 -295.223 948.557 -294.96 948.403 -294.698C948.356 -294.616 948.313 -294.538 948.27 -294.457C948.166 -294.273 948.057 -294.085 947.956 -293.897C947.898 -293.794 947.847 -293.688 947.789 -293.585L947.533 -293.09L947.361 -292.743L947.131 -292.267L946.967 -291.904C946.893 -291.748 946.822 -291.591 946.756 -291.434C946.701 -291.309 946.646 -291.184 946.595 -291.058C946.544 -290.933 946.462 -290.745 946.399 -290.595L946.246 -290.209C946.183 -290.056 946.124 -289.896 946.065 -289.748C946.006 -289.601 945.966 -289.488 945.919 -289.356C945.872 -289.225 945.804 -289.043 945.749 -288.892L945.615 -288.503C945.559 -288.346 945.508 -288.189 945.456 -288.036C945.405 -287.882 945.373 -287.775 945.329 -287.646L945.186 -287.175L945.066 -286.783L944.934 -286.318C944.894 -286.186 944.858 -286.054 944.822 -285.925C944.786 -285.797 944.737 -285.611 944.697 -285.454L944.6 -285.071C944.56 -284.911 944.519 -284.757 944.483 -284.59C944.446 -284.423 944.422 -284.342 944.393 -284.216C944.267 -283.669 944.149 -283.122 944.045 -282.581C943.934 -281.992 943.762 -281.415 943.53 -280.85V-280.813C942.715 -270.941 944.783 -260.905 945.677 -250.957C946.121 -246.025 946.256 -241.039 945.284 -236.17C943.071 -225.234 935.33 -215.634 932.136 -204.873C931.367 -202.409 931.003 -199.868 931.045 -197.317C931.192 -196.895 931.346 -196.469 931.508 -196.046C931.558 -195.907 931.616 -195.767 931.67 -195.627C931.778 -195.344 931.889 -195.058 932.004 -194.778L932.21 -194.279L932.535 -193.516C932.611 -193.341 932.69 -193.169 932.766 -192.994L933.103 -192.262L933.353 -191.734C933.469 -191.492 933.589 -191.253 933.716 -191.011C933.8 -190.839 933.887 -190.667 933.974 -190.495C934.105 -190.241 934.24 -189.989 934.371 -189.737C934.454 -189.581 934.534 -189.419 934.618 -189.272C934.829 -188.88 935.048 -188.491 935.267 -188.106L935.289 -188.07L935.741 -187.305L935.968 -186.922L936.066 -186.76C936.176 -186.581 936.289 -186.402 936.403 -186.227C936.516 -186.051 936.618 -185.876 936.732 -185.7L936.882 -185.464C937.098 -185.144 937.321 -184.796 937.545 -184.464L937.732 -184.186L937.93 -183.905C938.087 -183.678 938.241 -183.455 938.403 -183.231C938.472 -183.129 938.546 -183.03 938.619 -182.912L938.835 -182.621C938.99 -182.41 939.14 -182.199 939.298 -181.981L939.537 -181.661C939.584 -181.594 939.636 -181.53 939.687 -181.466C939.867 -181.23 940.055 -180.993 940.235 -180.759C940.316 -180.654 940.4 -180.551 940.485 -180.439C940.639 -180.244 940.801 -180.052 940.96 -179.856C941.044 -179.754 941.125 -179.651 941.21 -179.536L941.456 -179.242L941.585 -179.091C941.791 -178.844 942.001 -178.598 942.215 -178.351L942.443 -178.098C942.631 -177.883 942.812 -177.668 943.019 -177.456L943.258 -177.187L943.362 -177.081C944.346 -176.013 945.366 -174.975 946.423 -173.969L946.512 -173.885C946.767 -173.644 947.029 -173.406 947.288 -173.165L947.695 -172.788C947.714 -172.775 947.729 -172.763 947.743 -172.747C947.962 -172.553 948.184 -172.36 948.402 -172.164L948.913 -171.716C949.039 -171.607 949.169 -171.5 949.283 -171.394L949.579 -171.143C949.768 -170.985 949.95 -170.821 950.146 -170.669L950.71 -170.214L950.813 -170.133L951.425 -169.643L951.818 -169.345L952.085 -169.136L952.734 -168.648L952.909 -168.518L953.391 -168.163L954.074 -167.674L954.371 -167.464L954.743 -167.214L955.456 -166.728L955.493 -166.706L956.106 -166.294L956.849 -165.808L957.492 -165.399L958.284 -164.912C958.492 -164.785 958.701 -164.658 958.913 -164.534C959.195 -164.365 959.482 -164.209 959.765 -164.037L959.917 -163.949L960.356 -163.698C960.68 -163.516 961.004 -163.339 961.332 -163.16C961.496 -163.072 961.659 -162.978 961.827 -162.89C962.322 -162.624 962.821 -162.366 963.317 -162.115C967.042 -160.232 971.006 -158.623 974.443 -156.376C978.411 -153.781 981.559 -150.431 984.962 -147.326C991.584 -141.286 999.248 -136.12 1007.7 -132.002C1010.24 -130.765 1013 -129.492 1014.32 -127.285C1015.63 -125.078 1014.42 -121.705 1011.51 -121.488C998.821 -129.092 985.508 -135.925 971.669 -141.933C968.211 -143.433 964.618 -144.947 962.076 -147.425C960.124 -149.325 958.921 -151.663 957.524 -153.874C950.055 -165.683 936.989 -173.948 928.263 -185.002C919.766 -195.762 913.814 -208.545 907.112 -220.145C904.985 -223.828 902.859 -227.552 901.647 -231.512C900.11 -236.516 900.074 -241.738 900.036 -246.896C900.005 -252.474 899.979 -258.089 901.214 -263.56C901.242 -263.695 901.278 -263.83 901.311 -263.968C898.944 -259.051 896.509 -254.148 893.754 -249.395C888.989 -241.221 884.115 -235.441 878.687 -231.982L878.896 -232.111C870.105 -221.564 859.948 -217.364 848.429 -219.506C843.78 -220.37 839.599 -224.843 835.079 -224.01C834.324 -223.855 833.946 -223.748 833.628 -223.176C832.831 -221.64 834.913 -218.391 836.17 -216.548L836.276 -216.394C838.691 -212.836 841.894 -209.699 845.714 -207.155C844.917 -209.953 845.224 -212.921 847.736 -213.837C853.009 -215.761 858.246 -207.457 863.864 -208.505C869.196 -209.51 869.791 -216.69 874.569 -218.886C877.933 -220.427 885.245 -221.856 886.096 -218.684C887.307 -214.203 879.714 -211.135 877.824 -206.834C876.947 -204.833 876.146 -201.814 878.088 -200.432C884.141 -196.046 898.904 -192.585 911.456 -183.089C924.009 -173.593 933.092 -162.138 943.501 -145.669C951.165 -140.337 958.54 -134.972 965.455 -129.602C965.084 -129.867 964.713 -130.13 964.315 -130.389C966.384 -128.775 968.393 -127.139 970.375 -125.508L970.99 -124.995L970.456 -125.191C989.703 -118.132 1007.44 -108.69 1025.19 -99.2431C1037.1 -92.8901 1049.06 -86.5322 1061.47 -80.8962C1144.25 -43.3706 1233.22 -21.9199 1324.86 -7.09824L1328.67 -6.47614C1362.99 -0.826935 1372.88 17.0215 1347.71 10.8154C1224.97 -19.4031 1102.29 -49.6109 986.218 -97.8241C977.741 -101.346 969.228 -104.803 960.723 -108.253C907.001 -130.051 853.679 -151.691 812.032 -188.893C764.39 -231.474 723.866 -278.148 716.522 -338.85C713.447 -364.657 720.455 -387.832 747.215 -403.8C749.069 -404.923 751.463 -405.367 753.872 -405.814L754.144 -405.866C754.498 -405.933 754.867 -405.926 755.222 -405.854C755.574 -405.778 755.903 -405.64 756.181 -405.439C756.463 -405.242 756.684 -404.995 756.83 -404.715C756.975 -404.434 757.045 -404.13 757.029 -403.824L757.028 -403.796C756.932 -401.967 756.833 -400.151 756.202 -398.479C741.334 -358.817 785.002 -290.555 832.955 -278.51C856.357 -272.603 870.183 -284.173 882.162 -297.139L883.963 -299.111C907.023 -324.225 935.638 -340.925 974.029 -344.743C975.03 -344.852 975.97 -345.296 976.914 -345.744C977.384 -345.966 977.854 -346.188 978.334 -346.369C977.86 -346.545 977.398 -346.758 976.931 -346.968C976.053 -347.429 975.092 -347.764 974.085 -347.965C965.057 -349.476 956.183 -348.34 947.38 -346.777L945.559 -346.446C944.53 -346.277 943.475 -346.166 942.425 -346.074C941.71 -346.005 940.995 -345.935 940.294 -345.846C940.961 -346.15 941.601 -346.455 942.239 -346.797C943.183 -347.314 944.176 -347.77 945.209 -348.153C949.966 -349.831 954.749 -351.484 959.544 -353.142C962.822 -354.272 966.097 -355.408 969.375 -356.547L969.753 -356.676C974.904 -358.502 978.256 -360.631 979.385 -366.511L979.454 -366.825C980.722 -372.055 987.334 -371.277 992.675 -370.647L993.028 -370.606L993.5 -370.551L993.988 -370.498L996.693 -370.227C1033.34 -366.478 1066.93 -354.557 1100.49 -342.646C1104.83 -341.096 1109.17 -339.562 1113.51 -338.044L1118 -336.482L1118.9 -336.173L1119.85 -335.841L1121.58 -335.242C1137.61 -329.72 1153.76 -324.154 1166.71 -313.884C1175.52 -306.866 1176.06 -299.174 1167.75 -291.772L1167.46 -291.508C1161.41 -285.999 1164.51 -283.451 1171.07 -281.493L1171.7 -281.312C1180.1 -278.956 1188.82 -279.612 1197.42 -280.266C1206.18 -280.931 1214.8 -281.589 1222.82 -279.034C1272.88 -262.984 1318.93 -240.771 1349.92 -202.7C1365.57 -183.489 1354.17 -162.079 1324.17 -145.35C1307.97 -136.363 1289.91 -131 1271.83 -125.627C1266.81 -124.137 1261.8 -122.646 1256.82 -121.085C1256.25 -120.909 1255.64 -120.74 1255.03 -120.567C1251.04 -119.453 1246.57 -118.19 1246.5 -114.277C1246.5 -110.136 1251.22 -108.895 1255.32 -107.811L1255.65 -107.723L1258.4 -106.98C1291.26 -98.2851 1325.02 -98.3811 1358.87 -99.2521L1362.15 -99.3362C1371.55 -99.6142 1380.84 -99.8281 1390.22 -99.8531L1391.11 -99.8381C1395.33 -99.8431 1400.04 -99.8491 1402.01 -96.1761C1403.62 -93.1551 1401.5 -90.7551 1399.42 -88.3993C1398.79 -87.6812 1398.16 -86.9662 1397.64 -86.2398C1397.09 -85.4477 1396.38 -84.5889 1395.66 -83.7209C1393.82 -81.515 1391.94 -79.2406 1392.61 -77.8274C1393.96 -74.9632 1397.86 -75.3275 1401.45 -75.672C1402.3 -75.7519 1403.13 -75.832 1403.91 -75.8659L1405.11 -75.93C1444.96 -78.2677 1488.69 -105.631 1509.58 -137.55L1509.47 -137.501L1507.26 -136.615L1506.26 -136.219L1505.25 -135.826L1505.01 -135.483C1490.73 -115.109 1469.01 -100.208 1440.34 -90.5862C1432.34 -87.8847 1426.19 -88.1245 1427.43 -98.8061L1427.48 -99.3071C1428.83 -113.269 1417.23 -112.112 1407.52 -111.151C1405.93 -110.993 1404.38 -110.84 1402.96 -110.76L1397.5 -110.42C1393.99 -110.193 1390.46 -109.958 1386.93 -109.714L1386.87 -109.716C1379.8 -109.233 1372.73 -108.753 1365.66 -108.381L1359.3 -107.662L1354.44 -107.1L1352.99 -106.93L1349 -106.459L1347.49 -106.277L1343.13 -105.744L1342.03 -105.609C1340.16 -105.38 1338.3 -105.147 1336.42 -104.905C1333.84 -104.631 1331.24 -104.526 1328.64 -104.593C1320.69 -104.703 1310.35 -105.815 1305.29 -108.251C1304.2 -108.775 1303.55 -109.768 1303.16 -110.848L1300.47 -111.236C1296.02 -111.904 1291.36 -112.923 1290.62 -117.008C1289.91 -120.962 1294.28 -122.919 1298.27 -124.705C1299.25 -125.146 1300.21 -125.574 1301.06 -126.02L1302.47 -126.747C1304.94 -128.02 1307.43 -129.27 1309.91 -130.521C1321.11 -136.162 1332.28 -141.778 1342.13 -149.228C1365.31 -166.708 1370.22 -190.169 1350.72 -210.66C1319.31 -243.658 1276.83 -264.948 1233.47 -284.921L1227.75 -287.546C1225.51 -288.532 1222.75 -289.394 1220.42 -289.186C1203.64 -287.872 1186.13 -301.043 1175.94 -316.258C1174.67 -318.152 1177.3 -320.18 1179.45 -318.965C1194.79 -310.279 1210.51 -295.788 1222.27 -293.806C1232.09 -292.151 1241.98 -290.485 1249.84 -285.02L1252.44 -283.223C1264.39 -275.124 1277.08 -267.769 1289.78 -260.41H1289.8C1300.09 -254.448 1310.38 -248.483 1320.28 -242.123C1320.04 -244.192 1321.73 -245.946 1323.7 -246.959L1321.81 -248.157L1316.49 -251.495C1313.27 -253.523 1310.05 -255.562 1306.83 -257.604C1286.06 -270.775 1265.16 -284.033 1242.55 -294.535C1222.1 -304.045 1202.15 -314.374 1182.19 -324.709C1132.66 -350.367 1083.12 -376.044 1025.73 -389.119C973.875 -400.98 924.231 -402.288 878.439 -374.753C875.86 -373.16 873.273 -371.191 871.509 -368.952C871.125 -368.457 870.706 -367.966 870.299 -367.471C867.082 -363.563 859.535 -356.277 865.254 -354.264L870.41 -355.91C873.695 -357.431 873.832 -359.458 877.99 -361.914C878.92 -362.441 879.909 -362.894 880.901 -363.35C881.303 -363.535 881.708 -363.721 882.106 -363.91C882.174 -363.943 882.254 -363.961 882.333 -363.963C882.412 -363.964 882.49 -363.947 882.561 -363.918C882.632 -363.885 882.691 -363.843 882.735 -363.785C882.78 -363.731 882.809 -363.667 882.815 -363.601C882.848 -363.338 882.885 -363.075 882.921 -362.813C883.122 -361.796 883.164 -360.766 883.044 -359.743C882.196 -354.218 883.424 -351.362 891.56 -352.353L893.165 -352.565C899.135 -353.36 906.602 -354.36 909.814 -349.516C912.651 -345.215 908.633 -341.98 904.871 -338.953C903.792 -338.081 902.733 -337.232 901.865 -336.376C890.872 -325.422 879.875 -314.469 868.227 -304.095C852.834 -290.385 835.507 -290.561 818.529 -302.065C797.77 -316.218 781.191 -333.381 770.143 -353.977C762.158 -368.891 762.824 -382.96 771.541 -395.497C776.831 -408.122 790.643 -419.076 812.919 -428.573C837.532 -439.049 863.71 -443.854 890.203 -447.536C891.677 -448.192 893.007 -449.242 894.329 -450.282C894.76 -450.622 895.187 -450.958 895.621 -451.285C895.838 -451.443 895.969 -451.668 895.996 -451.907C896.019 -452.147 895.929 -452.388 895.745 -452.574C895.342 -452.982 894.951 -453.415 894.557 -453.858C893.314 -455.236 892.072 -456.615 890.479 -457.104C855.04 -468.24 814.694 -477.681 783.922 -459.911C753.078 -442.142 721.776 -419.628 707.405 -387.135C695.638 -360.482 699.022 -333.869 708.922 -307.855L708.816 -308.024ZM1219.29 -243.185C1190.19 -244.716 1146.21 -220.075 1130.43 -240.741L1128.79 -243.471C1118.3 -257.227 1140.01 -253.098 1154.99 -253.43C1165.56 -253.675 1176.55 -255.234 1187.42 -256.361L1185.64 -256.076L1184.59 -255.912C1189.61 -256.708 1194.6 -257.476 1199.29 -258.18L1213.12 -260.259C1213.64 -260.335 1214.16 -260.357 1214.68 -260.323C1244.82 -258.272 1265.4 -245.865 1285.23 -232.534L1289.51 -229.647C1289.77 -229.506 1289.84 -229.149 1289.91 -228.791C1289.94 -228.648 1289.97 -228.506 1290.01 -228.379C1289.69 -228.422 1289.37 -228.453 1289.05 -228.465C1288.5 -228.462 1287.96 -228.556 1287.46 -228.739C1277.33 -232.997 1266.93 -236.789 1256.31 -240.099L1258.07 -239.122C1258.33 -238.978 1258.55 -238.782 1258.7 -238.552C1258.85 -238.319 1258.93 -238.062 1258.94 -237.8C1258.94 -237.538 1258.87 -237.277 1258.73 -237.046C1258.58 -236.812 1258.37 -236.613 1258.11 -236.466C1246.4 -229.834 1232.29 -242.469 1219.3 -243.141L1219.29 -243.185ZM1293.21 -149.527C1311.11 -156.692 1324.71 -171.337 1297.39 -186.44C1280.64 -195.706 1260.27 -199.278 1242.35 -206.866C1237.05 -209.115 1238.92 -215.114 1244.1 -216.476C1249.96 -218.043 1256.03 -218.972 1262.18 -219.244V-219.275L1262.43 -219.353L1265.01 -220.17L1266.25 -220.561L1268.37 -221.244C1300.39 -220.18 1337.98 -199.314 1341.13 -181.88C1343.32 -169.689 1322.57 -149.901 1307.79 -150.222C1307.41 -150.244 1307.03 -150.323 1306.67 -150.457L1306.3 -150.564L1306.05 -150.632C1306.14 -150.823 1306.23 -151.023 1306.31 -151.227C1306.56 -151.878 1306.91 -152.497 1307.36 -153.064C1307.82 -153.564 1308.27 -154.052 1308.7 -154.534L1307.75 -153.487C1304.2 -151.923 1300.56 -151.087 1295.66 -150.036L1293.14 -149.506L1293.21 -149.527Z" fill="#5596DC"/>
</g>
<defs>
<clipPath id="clip0_29_5962">
<rect width="1440" height="139" fill="white"/>
</clipPath>
</defs>
</svg>
