<svg width="1440" height="148" viewBox="0 0 1440 148" fill="none" xmlns="http://www.w3.org/2000/svg">
<g clip-path="url(#clip0_6412_202310)">
<g clip-path="url(#clip1_6412_202310)">
<g opacity="0.2">
<path d="M1420.94 157.402C1392.89 154.625 1361.25 154.347 1335.47 157.761C1337.36 157.165 1339.23 156.473 1341.06 155.686V155.686C1350.56 151.821 1403.22 123.981 1433.87 127.016C1479.05 128.62 1491.93 146.063 1514.44 155.851C1535.9 165.183 1515.5 177.923 1508.82 182.226C1506.68 183.601 1504.4 185.07 1502.79 186.857C1502.21 182.388 1501.7 179.161 1501.7 179.161C1491.29 167.233 1449.01 160.191 1420.96 157.414" fill="#4195C4"/>
<path d="M1084.1 15.4683C1068.25 20.8262 1055.17 27.025 1043.98 34.2142C1016.36 51.9604 1000.25 75.7455 982.359 107.869C955.486 156.051 910.788 186.797 861.087 214.136C849.792 220.354 838.226 226.397 826.56 232.429L817.189 237.268C816.298 237.728 815.446 238.177 814.603 238.619L814.378 238.74L813.496 239.205L812.565 239.703C812.221 239.887 811.888 240.063 811.554 240.248C811.22 240.433 810.868 240.612 810.539 240.793L809.719 241.241L808.609 241.851L808.006 242.181L806.772 242.867L806.477 243.033C802.588 245.22 799.296 247.192 796.451 249.005L796.322 249.085L795.261 249.769L795.072 249.894L794.081 250.53L793.856 250.684L792.961 251.287L792.716 251.458L791.879 252.034L791.62 252.218C791.356 252.4 791.119 252.591 790.841 252.772L790.571 252.964C790.321 253.143 790.071 253.318 789.835 253.499L789.565 253.695L788.868 254.216L788.598 254.416L787.935 254.922L787.663 255.132L787.034 255.622L786.762 255.837L786.157 256.32L785.894 256.535C785.698 256.692 785.501 256.849 785.309 257.011L785.041 257.226L784.479 257.695L784.216 257.92L783.669 258.381C783.583 258.452 783.496 258.527 783.415 258.602L782.872 259.064L782.623 259.285L782.112 259.75L781.853 259.98L781.343 260.435L781.088 260.666L780.579 261.121L780.314 261.36L779.804 261.815C779.728 261.887 779.65 261.963 779.569 262.033L779.057 262.521L778.938 262.635L777.529 263.93C769.495 271.307 759.712 280.307 731.806 297.941L729.053 299.674C714.862 308.545 699.927 315.47 684.637 321.515C694.528 316.35 704.419 311.177 714.311 305.997L721.936 302.002L714.51 305.868C704.492 311.095 694.475 316.332 684.459 321.581C679.141 323.673 673.784 325.676 668.388 327.59C660.821 330.3 653.204 332.894 645.579 335.487C616.111 345.5 586.508 355.556 559.376 372.784C539.251 385.561 525.615 404.961 511.904 424.465C501.003 439.971 490.058 455.547 475.769 467.909C474.586 468.929 473.205 469.976 471.661 471.082C460.862 478.709 442.006 487.763 425.826 495.531C417.049 499.769 409.03 503.618 403.541 506.622C402.755 507.055 402.024 507.472 401.346 507.872C402.991 506.038 404.476 504.026 405.967 502.01C405.966 501.995 405.967 501.979 405.971 501.964C406.231 501.615 406.388 501.2 406.424 500.767C406.461 500.333 406.375 499.898 406.178 499.51C405.98 499.123 405.678 498.798 405.305 498.573C404.933 498.348 404.505 498.232 404.07 498.238L403.498 498.246C399.57 498.289 395.623 498.335 392.385 499.899C353.651 518.574 330.75 552.337 311.761 588.712L310.695 590.756C293.255 624.197 276.997 658.679 289.676 698.51C289.773 698.696 289.627 699.002 289.429 699.312C289.327 699.484 289.24 699.665 289.171 699.853C288.932 699.457 288.673 699.074 288.414 698.686C287.87 697.94 287.403 697.141 287.02 696.301C273.006 661.849 276.41 626.532 290.081 594.255L291.895 590.009C293.324 586.603 294.754 583.196 296.185 579.787C323.953 513.558 352.158 446.294 410.695 400.379C450.918 368.786 497.993 348.737 545.012 328.732C559.07 322.746 573.128 316.765 586.988 310.481L590.021 309.11C592.882 307.814 595.751 306.526 598.627 305.244C638.819 287.225 679.124 269.156 709.534 235.096C728.975 213.471 718.894 193.969 708.791 174.415C708.008 172.944 707.255 171.449 706.502 169.963L704.85 166.665C702.065 161.305 698.771 156.226 695.013 151.497C685.479 139.326 678.227 132.191 671.434 130.079C681.546 126.901 690.488 126.254 697.169 122.463C708.926 115.794 707.259 98.3053 716.234 88.2779C718.793 87.7094 722.2 87.0114 724.333 86.2011C734.22 82.4255 741.243 72.655 749.02 65.2439C775.757 39.7676 821.506 26.5932 833.817 17.105C846.499 7.3332 866.423 7.19346 881.656 9.73726C890.101 11.1493 897.574 15.3994 905.559 18.1819C913.719 21.0236 922.071 20.2349 930.459 18.8507C939.781 17.3129 949.646 15.4992 958.442 18.9563C958.937 19.0924 959.367 19.3999 959.656 19.8241C959.835 20.2927 959.849 20.8082 959.697 21.2861C958.089 29.0899 955.926 33.2961 949.673 38.5876C945.958 41.73 941.291 43.5152 936.68 45.0273C896.183 58.2807 850.224 59.2785 810.656 75.1173C803.886 77.8411 795.064 84.2109 796.641 90.0503C802.077 104.123 810.751 97.0425 819.295 88.6348C829.389 78.6995 846.193 71.0027 876.791 70.2204C917.791 69.1727 931.432 57.6525 967.61 43.1729C1013.42 24.8316 1069 2.60216 1137.03 0.980227C1140.04 0.909567 1143.07 0.880053 1146.13 0.891795C1121.49 4.90649 1101.19 9.70785 1084.11 15.483" fill="#FEECA5"/>
<path d="M170.959 174.398C158.999 164.169 148.403 152.069 140.877 138.188C125.757 110.299 107.391 75.4397 149.56 56.7291C170.769 47.3141 193.768 77.1255 212.807 81.049C221.029 82.7454 228.396 83.8417 236.491 80.4922C238.514 79.6859 240.484 78.7536 242.39 77.7008C242.879 77.452 243.337 77.1863 243.801 76.9118C245.646 75.8217 247.425 74.6242 249.129 73.3255C249.982 72.6856 250.822 72.0259 251.645 71.3598L252.878 70.3536C261.534 63.1641 270.831 55.2766 276.018 45.0413C293.038 53.4081 301.713 63.4746 295.384 75.5284C286.967 91.559 263.056 95.6685 241.049 99.4558C203.652 105.884 171.768 111.368 230.853 172.784C235.417 177.526 237.852 183.789 239.459 190.774C233.478 195.331 227.193 199.147 220.012 200.586C204.854 203.617 182.465 184.243 170.955 174.393" fill="#FDD535"/>
<path d="M-8.20465 375.531C-11.6354 391.506 -8.28405 417.111 8.52044 424.607C17.9168 428.796 30.7403 428.121 38.8152 435.039C47.6625 442.622 43.7812 458.57 44.5187 468.971C45.4141 481.576 43.7878 494.017 41.8794 506.517C39.2877 523.699 38.1349 541.067 38.4329 558.44L37.1339 560.346L37.1071 560.389L34.3025 564.502C24.7648 578.445 15.0816 593.537 11.636 610.348C7.8189 629.035 14.2412 645.365 25.5541 660.084C25.8029 660.318 25.7061 660.929 25.6191 661.487C25.6014 661.666 25.5845 661.837 25.5689 661.994C25.2754 661.938 24.9716 661.894 24.6763 661.855C23.7971 661.79 22.9366 661.569 22.1354 661.201C4.25715 651.001 -3.15046 632.037 -3.40724 612.525C-3.6818 593.193 1.6387 574.655 7.37016 556.04C9.1281 550.322 10.8726 544.604 12.4708 538.898C15.7513 527.187 19.5201 511.413 12.9729 500.052C7.17448 489.961 -5.60568 486.308 -16.1437 483.855C-34.7486 479.529 -48.1432 463.774 -49.5968 444.633C-50.7368 429.602 -53.5256 412.137 -66.7497 402.761C-78.9329 394.132 -96.0105 394.199 -110.248 394.185C-130.186 394.169 -145.891 381.932 -150.344 363.523C-154.878 344.775 -140.531 319.341 -133.876 301.461C-127.449 284.197 -122.209 266.521 -117.069 248.84C-113.337 236.008 -109.665 219.473 -101.32 209.836C-93.9211 201.292 -87.963 188.305 -82.7232 177.63C-73.5021 158.921 -64.6392 140.032 -57.0149 120.607C-47.1902 95.5722 -38.5629 45.2408 -4.29873 46.8889C5.23133 47.3477 12.3748 49.8042 14.0971 60.0986C14.9568 65.1459 13.8686 70.5532 12.6249 75.424C10.7336 82.8545 8.11534 91.2645 12.2013 98.4667C16.2872 105.669 24.6227 113.02 25.0681 121.565C25.7384 134.384 17.3002 148.893 12.0991 160.002C10.5363 163.336 9.74176 166.783 9.02272 170.292C8.6967 171.891 8.3837 173.496 8.02133 175.096C2.74358 198.374 -1.63294 222.756 1.13861 246.07C2.18688 254.888 5.66028 263.929 4.58089 272.495C0.515366 304.766 -1.06513 342.559 -8.15889 375.527" fill="#FDD535"/>
<path d="M1260.28 89.4027C1190.05 90.151 1110.18 91 1068.23 121.461C987.231 180.302 954.572 202.281 891.811 232.376C784.108 284.051 679.192 340.816 577.065 402.673C576.234 403.185 575.39 403.696 574.541 404.206C566.544 409.042 558.158 414.113 554.747 423.995C520.424 439.002 485.583 482.504 422.655 509.499C422.103 509.732 421.549 509.984 420.996 510.264C420.797 510.355 420.596 510.461 420.392 510.557L419.361 511.068L418.44 511.552L417.813 511.889C400.495 521.346 381.604 541.818 367.61 560.946C374.169 548.632 381.238 536.563 388.422 524.589L394.829 513.95L398.727 510.454C399.636 509.649 400.497 508.79 401.304 507.882C401.978 507.478 402.71 507.062 403.498 506.632C408.989 503.605 416.994 499.764 425.788 495.541C441.963 487.773 460.82 478.719 471.618 471.092C473.161 470 474.543 468.939 475.726 467.918C490.016 455.557 500.96 439.981 511.861 424.475C525.572 404.971 539.208 385.571 559.334 372.794C586.466 355.566 616.068 345.51 645.536 335.496C653.162 332.904 660.778 330.31 668.345 327.6C673.727 325.672 679.087 323.691 684.401 321.599L675.499 326.252L684.586 321.519C699.889 315.476 714.829 308.551 729.001 299.679L731.754 297.945C759.659 280.325 769.446 271.325 777.477 263.934L778.887 262.639L779.005 262.526L779.518 262.038C779.599 261.967 779.676 261.891 779.753 261.82L780.262 261.364L780.527 261.126L781.037 260.67L781.292 260.44L781.801 259.984L782.061 259.754L782.571 259.29L782.821 259.068L783.363 258.607C783.449 258.532 783.531 258.456 783.617 258.386L784.164 257.924L784.428 257.7L784.99 257.231L785.257 257.016C785.45 256.854 785.646 256.697 785.843 256.54L786.106 256.324L786.711 255.841L786.983 255.626L787.612 255.136L787.883 254.926L788.546 254.421L788.817 254.22C789.047 254.048 789.278 253.871 789.518 253.7L789.784 253.503C790.024 253.323 790.283 253.149 790.519 252.968L790.789 252.776C791.044 252.593 791.29 252.403 791.568 252.222L791.828 252.039L792.665 251.462L792.909 251.292L793.805 250.688L794.029 250.534L795.021 249.899L795.21 249.773L796.271 249.089L796.4 249.009C799.245 247.188 802.537 245.215 806.426 243.037L806.721 242.871L807.954 242.186L808.558 241.855L809.668 241.246L810.488 240.797C810.817 240.616 811.16 240.432 811.503 240.252C811.845 240.073 812.17 239.891 812.513 239.707L813.445 239.21L814.552 238.623L817.142 237.273L828.397 231.46C830.4 230.42 832.415 229.381 834.44 228.343C843.006 223.936 851.829 219.386 861.036 214.136C910.737 186.797 955.435 156.055 982.307 107.869C1000.22 75.7471 1016.32 51.962 1043.93 34.214C1054.9 27.0498 1069 20.6362 1084.05 15.4681C1101.13 9.69291 1121.43 4.89155 1146.07 0.876855C1143.01 0.862047 1139.98 0.891572 1136.97 0.965298C1139.07 0.734155 1141.17 0.612502 1143.28 0.600953C1259.57 0.73992 1414.45 13.3176 1392.99 63.7775C1382.65 88.1009 1325.61 88.7071 1260.23 89.4023L1260.28 89.4027ZM662.494 333.048L662.004 333.31L661.646 333.498L661.037 333.832C660.702 333.938 660.369 334.063 660.031 334.197C659.692 334.331 659.355 334.455 659.02 334.561C658.828 334.682 658.646 334.82 658.478 334.972L658.009 335.39C657.673 335.496 657.336 335.625 657.002 335.754C656.669 335.884 656.327 336.008 655.991 336.118L655.982 336.21C656.318 336.104 656.656 335.975 656.993 335.846C657.331 335.717 657.664 335.592 658 335.482L658.129 335.401C658.188 335.361 658.248 335.316 658.309 335.266C658.389 335.204 658.466 335.138 658.537 335.075L659.01 334.658C659.198 334.588 659.397 334.505 659.605 334.419L660.087 334.24C660.372 334.124 660.661 334.018 660.954 333.926C661.684 333.581 662.42 333.184 663.153 332.774L663.492 332.585L662.494 333.048Z" fill="#FDD535"/>
<path d="M1414.13 226.199C1413.56 226.013 1412.99 225.822 1412.43 225.623L1412.26 225.559C1403.46 222.45 1395.13 217.725 1386.82 213.006C1383.4 211.061 1379.98 209.126 1376.54 207.304L1376.35 207.196L1375.35 206.675L1374.97 206.479L1374.01 205.985L1373.74 205.852C1373.15 205.552 1372.56 205.27 1371.97 204.966L1371.47 204.717L1370.65 204.324L1370.06 204.048L1369.25 203.67L1368.64 203.391C1368.19 203.189 1367.75 202.992 1367.3 202.795L1366.6 202.489L1365.84 202.172L1365.16 201.891L1364.4 201.584L1363.7 201.315L1362.96 201.027C1362.51 200.867 1362.1 200.71 1361.67 200.56L1360.94 200.307L1360.21 200.058L1359.45 199.812L1358.72 199.586L1357.98 199.359L1357.04 199.095L1355.95 198.801L1355.16 198.602L1354.4 198.42L1353.65 198.253L1352.88 198.089L1352.06 197.933C1351.67 197.858 1351.28 197.791 1350.9 197.725C1350.6 197.695 1350.3 197.624 1349.98 197.579L1349.21 197.475L1348.44 197.375L1347.65 197.297C1347.38 197.27 1347.12 197.244 1346.85 197.218C1346.58 197.191 1346.34 197.167 1346.09 197.142C1345.63 197.097 1345.17 197.084 1344.71 197.061L1343.92 197.034L1343.12 197.02L1342.31 197.014L1341.51 197.028L1340.7 197.045L1339.61 197.1C1339.23 197.122 1338.84 197.149 1338.46 197.181L1337.63 197.252L1336.78 197.348L1335.98 197.446L1335.11 197.569L1334.27 197.708C1334.02 197.749 1333.79 197.782 1333.55 197.827C1330.88 198.316 1328.22 198.79 1325.55 199.25L1324.77 199.382C1322.46 199.772 1320.15 200.163 1317.84 200.553L1315.87 200.868C1313.95 201.18 1312.03 201.484 1310.11 201.78L1307.69 202.148C1305.9 202.417 1304.11 202.682 1302.33 202.945L1299.76 203.318L1294.45 204.064L1291.93 204.409C1290.07 204.661 1288.21 204.907 1286.35 205.147L1284.15 205.435C1281.88 205.73 1279.6 206.018 1277.33 206.297L1276.39 206.408C1273.75 206.731 1271.1 207.047 1268.45 207.354L1267.36 207.483C1265.13 207.742 1262.9 207.995 1260.67 208.241C1259.92 208.329 1259.17 208.408 1258.41 208.482C1256.53 208.689 1254.66 208.894 1252.81 209.097L1250.38 209.353L1244.82 209.935L1242.57 210.177C1240.56 210.387 1238.54 210.591 1236.52 210.79L1234.93 210.953C1224.24 212.018 1213.55 213.047 1202.85 214.04C1181.55 216.05 1160.26 218.064 1139.01 220.52L1138.54 220.571C1136.45 220.816 1134.34 221.063 1132.24 221.312L1130.83 221.484L1125.43 222.152L1123.63 222.377C1121.93 222.59 1120.24 222.81 1118.55 223.035L1116.62 223.286C1114.89 223.52 1113.17 223.756 1111.45 223.994L1109.74 224.225C1107.46 224.546 1105.18 224.873 1102.9 225.205C1102.74 225.232 1102.58 225.272 1102.42 225.325L1102.29 225.372L1101.94 225.514L1101.82 225.567L1101.44 225.761C1101.26 225.85 1101.08 225.944 1100.89 226.027C1101.33 226.071 1101.77 226.115 1102.21 226.158C1103.57 226.378 1104.94 226.475 1106.31 226.448C1149.77 223.707 1193.23 222.922 1236.38 228.026C1248.7 229.496 1260.87 231.292 1272.87 233.496L1273.28 233.57L1275.16 233.923L1276.72 234.221L1278.55 234.578L1280.14 234.894L1281.96 235.26L1283.62 235.605C1284.19 235.723 1284.78 235.841 1285.35 235.968C1286.41 236.188 1287.46 236.417 1288.51 236.647L1290.13 237.007L1291.9 237.405L1291.96 237.411L1284.09 237.166C1280.76 237.068 1277.42 236.975 1274.07 236.888C1215.45 235.402 1155.15 236.002 1099.4 242.159L1095.64 242.581C1086.9 243.573 1071.45 246.737 1053.03 250.898L1048.25 251.725L1047.73 251.817L1047.32 251.888C1045.52 252.198 1043.73 252.517 1041.95 252.832L1040.98 253.006C982.976 263.314 925.816 276.185 872.708 301.785L872.624 301.828C871.627 302.308 870.63 302.794 869.634 303.287L869.473 303.364L866.542 304.824L866.361 304.917C865.384 305.406 864.406 305.903 863.429 306.401L863.262 306.486C862.282 307.008 861.302 307.53 860.321 308.052L860.233 308.099C855.105 310.805 850.026 313.645 844.995 316.62C842.588 318.048 840.286 319.648 838.109 321.408L838.048 321.457C837.63 321.792 837.22 322.132 836.81 322.477L836.699 322.568C836.304 322.9 835.913 323.233 835.527 323.571L835.384 323.696C835.008 324.03 834.636 324.36 834.264 324.7L834.1 324.851C833.738 325.182 833.375 325.517 833.016 325.853L832.842 326.021C832.488 326.358 832.135 326.694 831.785 327.036C831.724 327.09 831.662 327.149 831.605 327.208C831.256 327.55 830.906 327.891 830.575 328.239L830.409 328.409C830.059 328.759 829.708 329.115 829.375 329.472L829.231 329.62C828.869 329.988 828.512 330.361 828.16 330.73L828.066 330.832C827.688 331.227 827.309 331.626 826.936 332.025C826.419 332.555 825.948 333.088 825.464 333.621L824.917 334.217L824.63 334.536L824.448 334.737L823.796 335.457L822.721 336.651C821.496 338.052 820.723 339.324 820.403 340.465C820.361 340.615 820.327 340.766 820.302 340.919C820.302 340.919 820.302 340.919 820.298 340.956C820.275 341.095 820.262 341.234 820.257 341.375L820.243 341.513C820.239 341.554 820.235 341.595 820.231 341.632L818.841 342.456C796.669 355.355 734.54 383.145 712.691 420.365C701.989 429.59 686.382 440.107 659.797 452.798C631.297 466.398 599.264 471.371 570.459 484.301L569.944 484.528C553.265 491.852 495.903 509.62 474.691 520.753C388.727 565.869 366.454 594.94 352.271 618.363L350.535 621.265L350.435 619.458C350.376 618.412 350.304 617.361 350.233 616.299C349.898 611.428 349.556 606.482 350.071 601.704C350.342 598.858 351.025 596.066 352.099 593.417C356.716 582.336 361.982 571.542 367.629 560.939C382.935 540.004 404.116 517.456 422.679 509.497C485.606 482.501 520.447 438.999 554.77 423.992C556.24 423.497 557.713 423.024 559.191 422.573L559.556 422.456L561.539 421.84L561.716 421.787L563.632 421.192L565.5 420.616L566.779 420.222L567.555 419.979L569.654 419.319L570.612 419.023L571.769 418.646L573.362 418.116L574.496 417.732L575.689 417.311L576.652 416.97C577.21 416.77 577.77 416.561 578.324 416.351L579.222 416.004C579.695 415.824 580.164 415.639 580.629 415.446L581.471 415.103C581.984 414.889 582.498 414.67 583.013 414.443L583.463 414.255C595.567 408.874 607.489 403.169 619.293 397.201C692.761 360.166 761.33 313.856 836.676 280.359C851.198 273.907 865.783 267.648 880.431 261.583C883.092 248.771 898.228 241.986 911.17 237.84C981.857 215.202 1048.23 185.766 1120.62 167.072C1127.18 165.377 1133.79 163.677 1140.55 163.19C1149.84 162.522 1159.13 164.175 1168.44 164.392C1189.46 164.885 1209.88 158.108 1230.56 154.324C1263.71 148.343 1297.78 150.007 1330.19 159.189L1335.51 157.747C1361.31 154.353 1392.96 154.613 1420.98 157.388C1449.01 160.163 1491.31 167.208 1501.72 179.135C1501.72 179.135 1502.24 182.363 1502.81 186.831C1503.52 192.259 1504.31 199.515 1504.31 205.065C1505 237.463 1446.94 236.748 1414.16 226.188" fill="#FBC998"/>
<path d="M438.862 79.2973C433.832 83.9951 427.982 87.7432 422.903 92.3848C415.246 99.3715 399.843 109.329 382.538 124.661C371.826 129.306 362.085 136.528 353.992 145.008C340.678 158.952 331.293 176.131 322.886 193.467C309.657 220.764 298.092 249.163 289.359 278.233C285.102 292.387 286.066 298.305 289.577 299.149C286.643 304.551 283.5 309.812 280.148 314.931C255.66 352.215 214.876 372.971 187.859 407.32C171.391 428.265 147.34 438.768 139.571 442.907C100.789 463.555 59.4897 510.243 61.9791 538.887C63.2667 553.738 43.4043 549.928 41.1853 516.584C36.6128 447.877 48.8543 439.134 46.4661 404.45C45.6234 392.187 49.0918 378.308 42.3756 368.013C37.0551 359.849 27.9996 354.657 22.7337 346.456C12.5861 330.676 14.5048 292.026 15.5812 286.923C21.6933 258.021 21.8029 216.963 26.6442 187.67C31.9541 155.568 48.6104 128.499 69.7237 104.296C71.3794 102.44 72.1955 101.513 73.7992 99.666C80.5477 91.7676 87.1013 83.7291 93.2774 75.3747C95.34 72.598 96.3304 71.2242 98.2473 68.512C98.6658 67.7548 98.8701 67.3804 99.279 66.6269C106.53 53.471 113.866 40.3376 122.838 28.2251C125.402 24.8375 128.224 21.6536 131.28 18.702C132.885 17.1244 144.198 2.5646 159.667 -3.98278C162.665 -5.24517 165.957 -5.64149 169.169 -5.12671C213.454 1.88169 245.364 29.9428 276.025 45.0232C270.833 55.258 261.541 63.146 252.884 70.3355L251.652 71.3417C250.824 72.0074 249.984 72.667 249.135 73.3074C247.431 74.6061 245.652 75.8036 243.808 76.8937C243.344 77.1636 242.872 77.428 242.397 77.6827C240.491 78.7355 238.52 79.6678 236.498 80.4741C228.402 83.8236 221.036 82.7273 212.813 81.0309C193.775 77.1074 170.776 47.296 149.567 56.711C107.39 75.4488 125.757 110.299 140.858 138.195C148.384 152.076 158.98 164.176 170.94 174.405C182.45 184.256 204.839 203.629 219.997 200.598C227.178 199.16 233.462 195.343 239.448 190.786C243.637 187.593 247.657 183.706 249.524 178.783C251.39 173.861 254.487 166.172 257.977 162.208C263.165 156.282 284.843 141.383 290.938 137.78C312.367 125.118 395.103 72.7449 418.007 63.0009C426.407 59.431 435.297 56.2113 444.405 56.7928C445.79 56.8788 447.293 57.1298 448.157 58.1997C448.935 59.1589 448.969 60.5042 448.847 61.7319C448.169 68.5784 443.861 74.5734 438.845 79.2771" fill="#FEECA5"/>
<path d="M320.365 267.077C326.779 250.458 329.378 232.324 338.025 216.743C340.705 211.901 344.021 207.298 348.559 204.135C352.864 201.13 358.02 199.607 362.594 197.028C369.837 192.953 375.338 186.44 380.673 180.064C392.681 165.708 404.692 151.353 416.706 137.001C418.534 134.814 420.439 132.449 420.725 129.612C421.453 122.255 411.68 118.78 404.301 119.257C385.061 120.509 367.315 131.061 354.001 145.009C340.687 158.957 331.302 176.132 322.894 193.468C309.665 220.765 298.101 249.164 289.367 278.234C276.294 321.728 312.498 287.489 320.375 267.064" fill="#FDD535"/>
<path d="M611.668 1.21398C620.388 -0.193103 627.767 8.13842 631.955 14.0552C637.062 21.275 640.61 30.2812 644.579 38.7301C647.711 45.4061 651.483 55.3817 658.406 58.0963C665.602 60.9215 677.393 55.5095 685.306 53.7161C691.666 52.2704 698.138 50.729 704.586 50.1834C706.089 50.0537 707.633 49.9372 709.155 49.8093C715.594 49.2582 730.281 46.1576 735.106 52.2861C742.324 61.4515 722.672 80.7945 718.032 86.1994C717.424 86.9006 716.818 87.5882 716.227 88.254C707.248 98.281 708.919 115.77 697.162 122.439C690.481 126.23 681.54 126.873 671.428 130.055C660.544 133.476 647.238 141.533 639.345 152.169C638.321 153.549 637.328 155.044 636.347 156.516C635.365 157.988 634.397 159.466 633.475 160.949C620.577 181.713 611.85 203.215 610.155 227.647C608.486 251.728 590.295 267.469 570.801 279.069L568.612 280.361C565.694 282.069 562.752 283.737 559.845 285.385L556.771 287.124L556.063 287.518L555.483 287.846C555.182 288.02 554.878 288.19 554.582 288.365L552.155 289.754C551.066 290.385 550.52 290.698 549.425 291.341C548.845 291.674 548.256 291.996 547.671 292.324C546.074 293.227 544.473 294.124 542.868 295.015C542.042 295.472 541.209 295.918 540.383 296.375C539.039 297.109 537.691 297.839 536.341 298.566C535.404 299.072 534.463 299.569 533.526 300.07C532.281 300.733 531.035 301.384 529.786 302.022L526.781 303.581C525.587 304.197 524.397 304.812 523.2 305.418L520.066 307.012C518.906 307.593 517.747 308.173 516.587 308.752C515.513 309.286 514.434 309.825 513.355 310.354L509.94 312.017C508.833 312.553 507.73 313.094 506.624 313.625C505.517 314.156 504.405 314.692 503.295 315.218C502.184 315.744 501.033 316.303 499.884 316.835L496.658 318.373L493.157 320.013C492.403 320.366 491.644 320.708 490.885 321.06C488.248 322.276 485.606 323.485 482.958 324.687L480.006 326.029L476.363 327.66L473.17 329.09L469.733 330.606L466.236 332.155L463.134 333.519L459.105 335.288L456.636 336.363L451.298 338.69L450.473 339.044L445.136 341.362L437.314 344.767L429.005 348.355C421.043 351.801 413.094 355.27 405.158 358.762C404.979 358.837 404.804 358.918 404.629 358.998C402.832 359.789 401.04 360.583 399.253 361.381L397.251 362.279L393.315 364.048L390.801 365.192L387.329 366.771L384.635 368.004L381.344 369.535L378.56 370.829L375.347 372.331L372.556 373.652L369.339 375.19L366.604 376.457L363.346 378.038C362.448 378.475 361.552 378.912 360.658 379.35L357.314 381.002L354.735 382.283C353.562 382.873 352.389 383.472 351.215 384.066C350.425 384.452 349.627 384.865 348.835 385.274C347.529 385.939 346.227 386.618 344.92 387.292L342.962 388.314C341.003 389.337 339.053 390.371 337.111 391.417C335.591 392.223 334.832 392.626 333.317 393.437C326.954 396.74 320.577 400.599 314.089 403.141C305.259 406.599 292.656 405.351 278.022 412.185C253.573 423.601 238.264 425.953 216.132 441.694C204.973 449.629 193.553 458.096 183.98 467.925C171.317 480.93 161.188 496.471 150.631 511.133C146.988 516.193 143.315 521.246 139.611 526.293C136.822 530.084 133.984 533.844 131.098 537.573C128.825 540.506 127.699 541.931 125.535 544.605C123.395 547.179 121.21 549.693 118.772 551.531C117.674 552.351 116.581 553.209 115.526 554.019C115.174 554.291 114.8 554.551 114.477 554.811C108.513 559.612 102.434 558.782 97.2058 555.126C91.9774 551.469 90.7894 547.711 95.9031 542.256C96.4683 541.612 96.9999 540.939 97.4956 540.241C98.2496 539.238 98.6459 538.706 99.4572 537.593C118.034 512.14 135.089 484.419 156.946 461.566C168.779 449.207 183.692 437.687 197.372 427.402C225.465 406.285 255.519 387.916 286.185 370.824C288.39 369.594 290.599 368.372 292.812 367.158C299.459 363.513 306.134 359.906 312.837 356.335L317.248 353.986C324.05 350.412 330.875 346.878 337.725 343.384C377.706 322.91 419.566 301.23 445.568 265.54C457.504 249.147 457.652 229.08 457.095 208.73C459.213 187.335 458.712 164.26 464.025 143.432C469.337 122.604 478.702 102.354 493.917 87.168C501.558 79.539 510.62 73.2255 516.986 64.4998C529.913 46.7706 530.791 20.4564 548.614 7.68339C555.969 2.42205 565.148 0.419558 574.133 -0.617668C586.148 -2.00956 599.647 -0.38039 611.624 1.23738" fill="#FDD535"/>
</g>
<path d="M479.963 160.911C494.864 164.174 510.62 176.501 532.952 184.416C549.248 190.192 568.262 193.196 585.012 198.643C599.335 203.291 614.412 212.329 625.613 216.996C637.973 222.148 646.022 222.975 651.585 226.122L651.839 226.256L651.229 225.905C647.597 223.839 643.984 222.347 639.918 220.67C633.792 218.246 627.827 215.434 622.059 212.251C618.779 210.403 614.939 207.797 610.873 205.015C603.771 200.159 595.976 194.827 589.253 192.433C581.121 189.545 572.411 187.96 563.84 186.399C551.526 184.158 539.48 181.967 529.833 176.025C500.825 158.176 468.379 147.174 444.241 147.174C412.299 147.174 378.809 146.066 354.232 144.402C364.94 148.289 375.863 151.556 386.946 154.188C415.469 160.828 446.334 153.542 479.967 160.907" fill="#FDD535"/>
<path d="M1395.72 913.586C1428.15 861.836 1397.14 805.229 1384.34 754.5C1380.86 740.726 1380.99 726.111 1376.68 712.577C1372.76 700.263 1364.28 689.802 1359.89 677.655L1355.73 666.14C1348.63 646.309 1356.47 634.9 1354.01 627.013L1353.45 625.165L1350.29 618.594C1347.4 612.537 1343.94 593.315 1339.82 584.402L1337.89 580.244C1314.69 530.078 1333.04 489.186 1324.71 440.189C1314.76 381.665 1309.81 459.988 1316.46 367.105C1319.94 318.441 1344.25 264.357 1372.32 224.602C1376.22 219.057 1382.97 209.816 1389.34 195.39C1395.71 180.965 1403.49 130.319 1418.82 99.3885C1423.4 90.1896 1429.45 81.7957 1436.72 74.5344C1419.51 82.8515 1407.05 76.0731 1394.01 68.9897C1387.51 65.4642 1380.87 61.8555 1373.42 59.9934C1353.06 54.9108 1346.37 70.5052 1338.61 88.5902C1337.27 91.7045 1335.91 94.8927 1334.45 98.0624L1333.53 100.054C1327.73 112.77 1323.69 137.019 1319.38 162.838C1316.23 181.713 1312.94 201.425 1308.73 218.087L1308.11 220.503C1304.27 235.063 1292.36 243.144 1280.46 251.184C1274.89 254.964 1269.31 258.739 1264.57 263.197C1240.68 285.69 1229.8 320.627 1240.77 342.565C1244.54 349.958 1251.19 353.83 1258.05 357.314L1263.19 359.892C1264.92 360.708 1266.69 361.428 1268.5 362.05C1274.27 364.153 1280.18 366.31 1279.98 372.798C1279.74 380.112 1272.51 383.347 1265.88 385.735L1262.05 387.122C1254.79 389.806 1247.08 391.405 1239.41 392.994C1237.32 393.429 1235.25 393.858 1233.17 394.311L1232.71 394.413C1231.48 394.676 1230.22 394.875 1228.96 395.087C1223.28 396.012 1217.53 396.963 1214.8 403.164C1211.5 410.659 1215.13 417.026 1219.03 422.991L1220.88 425.8C1227.5 435.582 1236.91 442.772 1248.08 445.47L1248.96 445.692C1273.35 452.008 1278.34 470.098 1283.76 489.699C1284.54 492.508 1285.32 495.349 1286.17 498.191L1286.82 500.317C1296.65 531.737 1308.43 562.533 1320.21 593.301C1335.85 634.156 1351.49 675.007 1362.54 717.382L1363.07 719.392C1366.4 731.822 1370.52 744.062 1374.62 756.297C1383.13 781.646 1391.65 806.985 1393.24 833.992C1396.26 885.1 1367.65 927.48 1311.26 953.097L1311.41 953.028L1316.15 952.164C1338.15 948.097 1358.29 943.782 1376.98 935.53C1384.2 929.13 1390.49 921.746 1395.65 913.596" fill="#FEECA5"/>
<path d="M1178.05 195.414C1186.01 213.087 1196.44 229.939 1200.5 248.892C1206.43 276.569 1198.26 306.649 1208.62 332.987C1209.4 334.974 1210.42 337.076 1212.34 338.019C1218.11 340.851 1221.82 331.55 1221.58 325.123C1219.9 272.288 1222.99 219.409 1230.83 167.131C1232.05 159.013 1233.4 150.825 1236.53 143.233C1241.28 131.682 1249.9 122.062 1254.41 110.427C1257.03 103.531 1258.15 96.1542 1257.69 88.7907C1257.22 81.4271 1255.19 74.2474 1251.73 67.733C1240.68 61.0932 1225.58 66.5223 1217.27 76.3781C1208.96 86.2338 1205.76 99.2961 1202.82 111.85C1200.45 121.988 1198.07 132.124 1195.69 142.258C1195.26 144.107 1194.74 146.093 1193.28 147.304C1182.29 156.388 1179.39 130.023 1168.7 147.641C1161.86 158.911 1173.37 185.091 1178.01 195.39" fill="#FDD535"/>
<path d="M1049.18 229.255C1041.71 221.372 1035.34 212.861 1028.5 204.474C1021.11 195.39 1010.9 189.342 1000.78 183.885C983.218 174.431 964.403 166.867 946.799 157.118C920.836 142.739 896.647 134.588 866.863 135.087C842.083 135.507 820.472 122.196 802.031 106.809C793.312 99.5316 782.075 96.8008 771.665 93.1598C757.835 88.3174 743.914 82.9483 729.784 78.9284C713.764 74.3725 688.379 66.8363 672.198 73.0233C669.31 74.1276 667.757 76.2577 669.458 79.1178C670.412 80.6752 671.565 82.1025 672.886 83.3642C693.217 89.297 713.196 97.0319 732.912 104.721C738.332 106.832 743.849 109.008 748.543 112.381L749.412 112.663C749.384 112.765 749.361 112.867 749.334 112.968C749.879 113.384 750.413 113.818 750.937 114.271C756.218 118.892 759.661 125.194 763.745 130.905C768.577 137.629 774.379 143.599 780.961 148.621C793.899 145.687 806.084 143.159 818.975 145.363C831.293 147.466 838.58 154.965 848.237 163.069C862.168 174.759 877.966 185.414 893.542 194.406C907.219 202.307 923.876 204.812 939.397 208.268C957.629 212.339 975.132 217.139 992.566 223.812C1008.94 230.077 1023.88 237.553 1038.97 246.508C1049.28 252.625 1070.57 264.958 1073.72 262.578C1076.88 260.199 1055.3 235.742 1049.15 229.245" fill="#FEECA5"/>
<path d="M109.35 114.313C111.725 114.752 114.211 115.32 115.99 116.956C118.587 119.349 118.933 123.263 119.1 126.793C119.677 138.76 119.562 152.451 110.667 160.459C99.5499 170.439 82.3659 165.541 67.5292 163.795C46.598 161.35 25.3248 166.567 4.40283 164.016C-31.6978 159.627 -61.921 132.948 -97.8599 127.375C-108.316 125.753 -119.452 125.846 -128.665 120.634C-131.65 118.947 -134.649 115.62 -133.249 112.497C-132.427 110.649 -130.389 109.748 -128.504 109.045C-93.7337 96.0475 -52.6752 101.38 -22.3781 122.828C-17.2215 126.479 -12.3514 130.568 -6.84829 133.664C9.90594 143.094 31.9323 140.95 47.5591 130.198C54.9936 125.088 59.0366 116.873 66.9656 113.412C77.9579 108.625 98.0251 112.21 109.336 114.313" fill="#FEECA5"/>
<path d="M542.761 107.077L426.091 87.5411C417.312 86.0671 408.274 84.5192 400.553 80.0465C393.548 75.985 387.971 69.7056 380.759 66.023C372.862 61.9939 363.704 61.4024 354.842 61.2315C323.534 60.5871 292.269 63.8812 261.783 71.0363C254.229 72.8106 245.195 76.5395 244.604 84.2697C243.948 92.7438 253.956 97.7017 262.315 99.2404C293.915 105.048 326.846 96.7176 358.423 102.586C383.226 107.206 405.622 120.255 429.88 127.176C452.646 133.673 476.548 134.643 500.219 135.572L570.24 138.317C580.982 138.737 591.869 139.181 602.122 142.369C615.457 146.504 626.92 154.983 638.624 162.57C664.729 179.463 693.165 192.446 723.028 201.106C713.066 177.12 690.865 158.596 665.479 153.126C639.433 147.502 632.368 136.764 610.457 125.264C589.859 114.451 565.393 110.87 542.733 107.077" fill="#FDD535"/>
<path d="M879.403 221.589C868.263 207.903 849.743 201.855 838.654 188.122C834.819 183.372 831.977 177.814 827.639 173.521C819.936 165.897 808.759 163.328 798.797 159.063C784.767 153.026 772.646 143.283 763.736 130.878C759.651 125.171 756.209 118.864 750.928 114.244C745.785 109.743 739.274 107.174 732.907 104.693C693.087 89.1677 652.2 73.4207 609.459 72.8108C588.667 72.5151 567.902 75.828 547.164 74.4557C506.138 71.7388 468.85 51.131 431.146 34.7187C393.442 18.3064 343.461 6.76876 311.732 19.7064C303.766 28.1205 350.859 25.1125 363.316 40.7809C369.928 49.0979 375.681 58.4084 382.214 66.8133C388.734 70.5559 394.015 76.2531 400.535 80.0327C408.256 84.5055 417.271 86.0395 426.073 87.5273L542.761 107.077C565.402 110.871 589.891 114.47 610.485 125.264C632.396 136.769 639.461 147.503 665.507 153.126C690.892 158.615 713.099 177.121 723.056 201.106C721.767 200.732 720.478 200.339 719.193 199.946C735.758 208.725 752.078 217.966 768.222 227.466C778.037 233.251 787.975 239.221 799.042 241.915C805.279 243.431 811.762 243.869 817.903 245.736C835.581 251.11 840.96 246.12 840.544 245.561C838.58 242.788 839.98 241.139 843.58 241.051C859.548 240.667 875.286 250.639 881.755 265.244C884.49 271.417 885.705 278.302 889.425 283.939C893.144 289.576 900.768 293.619 906.674 290.339C892.271 270.091 895.057 240.857 879.371 221.589" fill="#FDD535"/>
<path d="M656.46 228.926L653.808 227.397L651.848 226.265L651.585 226.122C646.04 222.975 637.973 222.148 625.613 216.996C614.412 212.329 599.317 203.291 585.012 198.643C568.262 193.205 549.248 190.192 532.952 184.416C510.62 176.501 494.864 164.174 479.963 160.911C446.329 153.546 415.464 160.833 386.941 154.193C375.858 151.561 364.935 148.293 354.227 144.407C322.581 133.091 296.659 119.234 280.298 117.034C256.451 113.828 241.115 103.635 229.435 91.7274C225.119 91.3901 187.9 42.0838 171.659 42.0838C139.92 42.0838 122.436 57.1192 111.827 99.4299C111.571 100.44 111.314 101.44 111.055 102.429C111.314 101.44 111.577 100.442 111.832 99.4299C111.577 100.442 111.314 101.444 111.051 102.438C111.028 102.516 111.009 102.595 110.986 102.674C110.723 103.667 110.45 104.656 110.177 105.626L110.177 105.668C110.039 106.162 109.895 106.656 109.752 107.146C109.609 107.636 109.466 108.121 109.323 108.606L109.323 108.657C109.105 109.387 108.884 110.117 108.657 110.833C108.885 110.119 109.107 109.393 109.323 108.657C109.055 109.558 108.782 110.441 108.505 111.319C108.417 111.596 108.324 111.868 108.237 112.146C108.038 112.769 107.835 113.393 107.627 113.994L107.821 113.421L107.627 113.994L109.373 114.317C111.748 114.756 114.234 115.325 116.013 116.96C118.615 119.354 118.956 123.267 119.123 126.798C119.7 138.765 119.585 152.456 110.69 160.463C99.5731 170.444 82.3891 165.546 67.5524 163.804C46.6212 161.35 25.348 166.576 4.42602 164.021C-6.09043 162.741 -16.1079 159.571 -25.9174 155.579L-27.9088 155.39L-28.3709 155.344C-29.3273 155.246 -30.2792 155.149 -31.2357 155.043L-31.402 155.043C-32.2707 154.946 -33.1393 154.849 -34.008 154.743L-34.6272 154.669L-37.0807 154.359L-37.4365 154.313C-38.3606 154.188 -39.3171 154.054 -40.255 153.92L-40.6801 153.86L-43.0505 153.5L-43.6881 153.398C-44.5707 153.255 -45.4486 153.112 -46.3311 152.936L-46.442 152.936C-47.3661 152.774 -48.2902 152.608 -49.2374 152.433L-49.8012 152.326C-50.5543 152.183 -51.3029 152.035 -52.056 151.864L-52.6752 151.739C-54.5234 151.361 -56.3532 150.956 -58.1644 150.524L-58.7974 150.372L-61.0292 149.817L-61.5883 149.674C-62.5124 149.44 -63.4273 149.195 -64.3329 148.939L-64.5593 148.875C-65.3818 148.644 -66.2042 148.413 -67.0267 148.163L-67.6921 147.964C-68.4529 147.733 -69.2153 147.496 -69.9792 147.253L-70.4136 147.119C-71.3192 146.829 -72.2218 146.529 -73.1212 146.218L-73.5833 146.061C-74.3318 145.802 -75.0788 145.536 -75.8243 145.261L-76.4943 145.017C-77.3075 144.716 -78.1207 144.411 -78.9339 144.092L-79.1696 144C-80.066 143.649 -80.9578 143.288 -81.8449 142.919L-82.4271 142.674C-83.1387 142.366 -83.8472 142.058 -84.5526 141.75L-85.2041 141.463C-86.082 141.071 -86.9645 140.669 -87.8424 140.253L-88.7665 139.828C-89.7954 139.369 -90.8304 138.954 -91.8716 138.585L-92.0102 138.534L-92.902 138.229L-93.133 138.155L-93.9416 137.901L-94.2281 137.818L-94.9812 137.6L-95.3047 137.513L-96.0255 137.323L-96.3766 137.235L-97.0697 137.069L-97.4486 136.986L-98.1186 136.843L-98.516 136.764L-99.1767 136.635L-99.5787 136.561L-100.235 136.45L-100.646 136.381L-101.293 136.284L-101.718 136.224L-102.356 136.14L-102.785 136.09L-103.423 136.016L-103.857 135.969L-104.49 135.905L-104.952 135.868L-105.585 135.817L-106.048 135.785L-106.676 135.743L-107.138 135.715L-107.725 135.683L-108.187 135.683L-108.829 135.655L-109.268 135.655L-109.906 135.655L-110.368 135.655L-111.01 135.655L-113.667 135.655L-114.305 135.655L-114.702 135.655L-115.423 135.655L-115.788 135.655L-116.541 135.683L-116.878 135.683L-117.673 135.715L-117.964 135.715L-118.837 135.757L-119.05 135.757L-120.029 135.808L-120.136 135.808C-120.995 135.854 -121.855 135.9 -122.714 135.956L-124.405 136.057L-126.346 136.177L-126.729 136.2L-127.127 136.224L-127.265 136.224L-127.847 136.247L-128.31 136.247L-128.878 136.247L-129.904 136.247L-130.366 136.247L-130.906 136.247L-131.368 136.247L-131.904 136.219L-132.329 136.191L-132.852 136.15L-133.23 136.145L-133.743 136.09L-134.141 136.043L-134.64 135.974L-135.023 135.919L-135.513 135.835L-135.883 135.771L-136.345 135.678L-136.7 135.604L-137.163 135.493L-137.5 135.415L-137.962 135.295L-138.285 135.202L-138.747 135.068L-139.057 134.976L-139.519 134.828L-139.815 134.722L-140.254 134.565L-140.54 134.454L-140.97 134.278L-141.243 134.167L-141.668 133.978L-141.922 133.858L-142.338 133.654L-142.587 133.53L-142.994 133.317L-143.225 133.188L-143.627 132.957L-143.849 132.827L-144.241 132.583L-144.449 132.449L-144.837 132.19L-145.031 132.051L-145.415 131.779L-145.595 131.64C-145.724 131.543 -145.849 131.45 -145.969 131.349L-146.145 131.21C-146.27 131.113 -146.39 131.012 -146.51 130.905L-146.672 130.767L-147.037 130.448L-147.185 130.309C-147.305 130.198 -147.425 130.087 -147.54 129.972L-147.679 129.838L-148.035 129.482L-148.155 129.353C-148.275 129.228 -148.391 129.103 -148.506 128.974L-148.617 128.854C-148.732 128.72 -148.853 128.59 -148.964 128.456L-149.065 128.336C-149.181 128.202 -149.296 128.064 -149.407 127.925L-149.495 127.814L-149.837 127.375C-149.837 127.343 -149.883 127.306 -149.911 127.273C-150.026 127.121 -150.137 126.969 -150.248 126.811C-150.248 126.784 -150.29 126.756 -150.308 126.724C-150.424 126.567 -150.535 126.405 -150.645 126.238L-150.696 126.165C-150.812 125.994 -150.923 125.827 -151.034 125.652L-151.066 125.596C-151.181 125.416 -151.292 125.236 -151.403 125.056L-151.426 125.019C-151.537 124.829 -151.653 124.64 -151.764 124.446C-154.915 118.929 -156.555 112.035 -157.969 104.984L-159.055 99.4391L-157.969 104.956C-158.011 104.318 -160.788 63.5233 -205.312 62.6777L-205.312 175.794C-200.354 174.981 -195.391 174.219 -190.452 173.646C-171.045 171.386 -152.129 171.987 -136.031 183.612C-135.282 184.151 -134.54 184.717 -133.803 185.308C-132.698 186.192 -131.607 187.132 -130.532 188.127C-129.817 188.792 -129.107 189.483 -128.402 190.201C-127.697 190.919 -127 191.663 -126.313 192.433C-115.714 204.331 -109.25 218.77 -108.353 233.81C-108.298 234.701 -108.264 235.594 -108.252 236.49L-108.252 236.952C-108.207 243.432 -109.204 249.877 -111.204 256.04C-111.338 256.465 -111.481 256.881 -111.625 257.292L-111.759 257.648C-111.86 257.934 -111.962 258.216 -112.073 258.493C-112.124 258.632 -112.179 258.771 -112.235 258.909C-112.336 259.165 -112.438 259.414 -112.539 259.658C-112.595 259.796 -112.655 259.935 -112.715 260.069C-112.821 260.319 -112.928 260.559 -113.038 260.799L-113.205 261.169L-113.593 261.973C-113.635 262.056 -113.672 262.139 -113.713 262.218C-113.889 262.564 -114.064 262.901 -114.244 263.234L-114.318 263.364C-114.475 263.645 -114.633 263.923 -114.78 264.191L-114.961 264.486C-115.09 264.699 -115.219 264.911 -115.349 265.115C-115.418 265.226 -115.487 265.327 -115.552 265.434C-115.681 265.628 -115.811 265.822 -115.94 266.007L-116.148 266.311C-116.287 266.506 -116.425 266.695 -116.569 266.884L-116.758 267.139C-116.934 267.374 -117.114 267.601 -117.299 267.827L-117.377 267.924C-117.59 268.183 -117.802 268.437 -118.024 268.682C-118.07 268.737 -118.121 268.788 -118.172 268.844C-118.338 269.028 -118.509 269.213 -118.676 269.389L-118.902 269.62L-119.364 270.082L-119.609 270.313L-120.071 270.733L-120.311 270.946C-120.478 271.094 -120.649 271.232 -120.82 271.376L-121.014 271.537C-121.476 271.921 -121.979 272.281 -122.474 272.623L-122.686 272.762C-122.862 272.882 -123.042 273.002 -123.222 273.113L-123.486 273.275C-123.652 273.381 -123.823 273.478 -123.989 273.58L-124.267 273.737L-124.789 274.023L-125.047 274.157C-125.246 274.263 -125.449 274.361 -125.653 274.462L-125.833 274.55L-126.641 274.915L-126.757 274.961C-126.988 275.058 -127.219 275.155 -127.455 275.243L-127.713 275.345L-128.282 275.553L-128.578 275.654L-129.127 275.834L-129.298 275.89L-129.432 275.932L-130.01 276.102L-130.283 276.176C-130.523 276.246 -130.745 276.306 -131.003 276.366L-131.137 276.403L-132.006 276.602L-132.246 276.648L-132.879 276.777L-133.207 276.833L-133.766 276.93L-134.118 276.985L-134.672 277.064L-135.019 277.114L-135.61 277.184L-135.924 277.221L-136.747 277.299L-136.941 277.299L-137.726 277.359L-138.082 277.359L-138.646 277.392L-139.048 277.392L-139.575 277.415L-139.99 277.415L-140.517 277.415L-141.866 277.415L-142.763 277.415L-143.165 277.415L-143.71 277.415L-144.172 277.415L-144.634 277.415L-145.124 277.415L-145.586 277.392L-146.09 277.364L-146.552 277.336L-147.069 277.304L-147.462 277.276L-148.797 277.174L-148.89 277.174L-149.509 277.119L-149.841 277.091L-150.456 277.036L-150.784 277.003L-151.431 276.943L-151.694 276.916L-152.401 276.842L-152.517 276.842C-154.407 276.643 -156.301 276.421 -158.191 276.204L-159.914 276.005L-160.376 275.955L-162.687 275.701L-162.881 275.701L-165.099 275.479L-165.334 275.479C-166.111 275.409 -166.887 275.345 -167.645 275.289L-171.48 275.031C-172.404 274.966 -173.296 274.887 -174.201 274.804L-174.816 274.661L-176.987 274.444L-177.588 274.379C-179.409 274.182 -181.229 273.963 -183.05 273.723L-183.595 273.649L-185.905 273.335L-186.367 273.275C-190.641 272.679 -194.92 272.018 -199.199 271.385L-200.294 271.228L-201.615 271.034L-203.001 270.84L-204.244 270.669L-205.312 270.516L-205.312 396.164L-182.708 378.18L-180.504 376.457C-151.292 353.775 -116.707 338.989 -85.8602 318.621C-72.8348 310.022 -61.7084 298.822 -49.0804 289.655C-25.2844 272.378 -6.47396 259.884 23.6938 255.07C45.1888 251.641 68.0006 257.916 88.918 251.9C107.22 246.642 120.056 229.259 137.771 222.282C157.044 214.695 178.47 214.284 198.426 208.688C213.082 204.594 226.667 197.095 241.397 193.297C308.539 176.007 400.632 172.223 465.768 173.678L466.836 173.706C497.396 174.575 493.459 182.758 520.527 191.31C539.795 197.405 559.834 200.806 579.208 206.521C594.872 211.142 609.704 218.535 625.594 222.282C635.575 224.634 646.23 227.124 657.014 229.236L656.446 228.908L656.46 228.926ZM-203.463 109.29C-203.227 108.797 -202.967 108.316 -202.682 107.849C-202.967 108.316 -203.227 108.797 -203.463 109.29" fill="#FDD535"/>
<path d="M1060.22 174.639C1033.84 162.806 1010.52 141.228 989.234 116.355C985.371 111.841 983.227 107.798 982.488 104.226C966.32 99.7435 950.595 93.7921 935.511 86.4462C926.644 82.1259 917.837 77.2697 908.138 75.4954C893.814 72.8709 879.204 77.2327 865.532 82.2276C863.055 83.1286 860.449 84.1405 858.795 86.1828C856.425 89.0891 856.545 93.2985 857.409 96.9487C862.542 118.633 886.981 129.353 908.915 133.345C932.017 137.55 956.114 138.012 977.909 146.745C984.558 149.415 990.884 152.821 997.195 156.217C1018.7 167.801 1040.29 179.431 1059.96 193.916C1075.13 205.084 1091.56 218.664 1110.23 216.197C1110.18 215.146 1110.08 214.104 1109.94 213.069C1098.71 199.669 1083.39 185.022 1060.22 174.621" fill="#FDD535"/>
<path d="M1060.22 174.639C1120.87 201.85 1127.73 258.05 1148.12 245.616C1163.74 236.167 1118.11 174.459 1114.18 158.111C1106.42 125.767 1146.87 79.1272 1108.31 70.8609C1069.74 62.5947 1063.22 90.5215 1030.95 85.6791C998.683 80.8368 967.952 91.4964 989.234 116.355C1010.52 141.214 1033.84 162.806 1060.22 174.639" fill="#FEECA5"/>
<path d="M1580.75 98.922C1579.38 98.9506 1578 99.1209 1576.66 99.4303C1557.47 99.5735 1559.1 68.3568 1546.36 53.3908C1534.67 39.663 1518.13 32.2978 1491.03 42.0842C1472.33 48.8349 1452.35 58.8523 1436.73 74.5761C1429.46 81.838 1423.41 90.2317 1418.82 99.4302C1403.49 130.36 1395.72 181.03 1389.34 195.437C1382.97 209.844 1376.23 219.117 1372.32 224.643C1344.25 264.38 1319.95 318.483 1316.46 367.147C1309.82 460.021 1314.76 381.706 1324.71 440.231C1333.03 489.209 1314.69 530.119 1337.9 580.285L1339.82 584.444C1343.95 593.343 1347.4 612.565 1350.3 618.636L1353.45 625.206L1354.02 627.055C1356.48 634.942 1348.64 646.35 1355.73 666.182L1359.89 677.696C1364.29 689.844 1372.77 700.305 1376.68 712.619C1380.99 726.152 1380.84 740.767 1384.34 754.541C1397.15 805.271 1428.15 861.864 1395.73 913.633C1390.56 921.781 1384.28 929.163 1377.06 935.562C1378.49 934.93 1379.91 934.273 1381.33 933.589C1386.29 930.405 1391.22 927.462 1396.34 925.161C1412.86 914.432 1428.23 899.142 1442.79 876.294L1443.9 874.533C1444.28 873.919 1444.67 873.323 1445.05 872.731L1445.33 872.269L1445.22 872.362L1445.03 872.523L1444.69 872.773L1444.55 872.879L1444.3 873.05L1444.15 873.142C1444.02 873.221 1443.89 873.3 1443.77 873.369C1444.14 871.918 1444.52 870.464 1444.9 869.007C1445.1 868.235 1445.29 867.459 1445.49 866.697C1445.67 865.994 1445.85 865.311 1446.02 864.59C1446.23 863.777 1446.44 862.963 1446.64 862.145C1446.87 861.252 1447.09 860.359 1447.32 859.466C1447.43 859.003 1447.55 858.541 1447.66 858.102C1448.04 856.562 1448.42 855.041 1448.8 853.537C1450.61 846.288 1452.43 839.029 1454.35 831.821L1454.42 831.548C1455.36 827.984 1456.33 824.431 1457.33 820.888L1457.4 820.639C1457.88 818.966 1458.36 817.295 1458.86 815.625C1458.89 815.501 1458.93 815.381 1458.96 815.26C1459.48 813.511 1460.01 811.761 1460.55 810.011C1464.9 796.117 1477.06 792.157 1489.8 789.963L1491.04 789.755L1493.81 789.293C1523.22 784.644 1530.42 773.481 1523.98 744.769C1523.92 744.51 1523.86 744.251 1523.8 743.988L1523.3 741.747L1522.79 739.501C1519.37 724.059 1516.51 708.483 1513.76 692.87C1513.58 691.832 1513.39 690.791 1513.21 689.747L1513.17 689.534L1511.63 680.663C1508.31 661.792 1497.98 649.506 1483.3 642.598C1482.69 642.307 1482.07 642.03 1481.45 641.762C1480.2 641.221 1478.91 640.722 1477.61 640.256C1474.93 639.307 1472.19 638.519 1469.42 637.895C1468.71 637.733 1468 637.58 1467.28 637.433L1458.73 635.691C1450.41 634.009 1442.01 632.516 1433.88 632.456C1419.38 632.364 1405.71 636.855 1394.78 653.092L1394.58 653.378L1394.34 653.702C1393.61 654.626 1392.95 655 1392.39 655.028C1391.36 655.074 1390.56 653.997 1389.95 652.801L1389.84 652.579C1389.77 652.426 1389.7 652.274 1389.63 652.117C1389.53 651.89 1389.44 651.655 1389.35 651.451L1388.39 649.021C1387.61 647.02 1386.87 645.024 1386.17 643.047C1364.76 582.485 1379.67 532.397 1458.78 513.874C1460.69 504.942 1463.2 496.07 1464.43 487.028C1467.5 464.452 1462.48 441.585 1462.84 418.805C1463.1 401.945 1466.3 385.283 1469.49 368.723C1472.61 352.523 1475.74 336.291 1480.42 320.47C1483.71 309.339 1487.92 298.157 1495.56 289.424C1500.49 283.805 1506.58 279.494 1513.26 276.14C1513.31 275.451 1513.35 274.754 1513.41 274.079C1513.4 274.07 1513.4 274.061 1513.41 274.051C1513.45 273.529 1513.51 273.012 1513.6 272.508C1513.6 272.467 1513.6 272.425 1513.62 272.379C1513.66 272.148 1513.7 271.917 1513.75 271.699C1513.76 271.684 1513.76 271.669 1513.75 271.653C1513.81 271.418 1513.88 271.191 1513.95 270.96C1513.96 270.919 1513.98 270.879 1513.99 270.84C1514.05 270.66 1514.12 270.48 1514.19 270.309L1514.26 270.147C1514.35 269.945 1514.46 269.747 1514.57 269.556V269.556C1514.92 268.939 1515.26 268.323 1515.59 267.707C1515.67 267.564 1515.75 267.425 1515.82 267.282C1516.15 266.666 1516.47 266.05 1516.78 265.434L1516.89 265.208C1517.16 264.662 1517.43 264.113 1517.69 263.563C1517.77 263.396 1517.86 263.23 1517.93 263.068C1518.21 262.472 1518.49 261.881 1518.75 261.285C1518.82 261.132 1518.88 260.98 1518.95 260.823C1519.16 260.361 1519.37 259.857 1519.58 259.376C1519.66 259.178 1519.74 258.984 1519.82 258.79C1520.06 258.217 1520.28 257.644 1520.52 257.066C1520.61 256.849 1520.69 256.627 1520.78 256.41C1520.94 255.994 1521.1 255.583 1521.24 255.167C1521.33 254.927 1521.42 254.705 1521.51 254.451C1521.71 253.91 1521.91 253.37 1522.1 252.829C1522.21 252.533 1522.32 252.238 1522.42 251.947L1522.75 250.981C1522.93 250.448 1523.11 249.917 1523.29 249.387L1523.55 248.592L1523.94 247.4L1524.09 246.938C1526.5 239.369 1528.51 231.658 1530.88 224.061C1538.84 198.237 1559.8 187.605 1583.81 181.409L1583.81 99.4765C1582.83 99.0749 1581.77 98.8859 1580.72 98.922" fill="#FDD535"/>
</g>
</g>
<defs>
<clipPath id="clip0_6412_202310">
<rect width="1440" height="148" fill="white" transform="translate(0 -0.000244141)"/>
</clipPath>
<clipPath id="clip1_6412_202310">
<rect width="1440" height="157" fill="white" transform="translate(1440 156) rotate(-180)"/>
</clipPath>
</defs>
</svg>
