<svg xmlns="http://www.w3.org/2000/svg" xmlns:xlink="http://www.w3.org/1999/xlink" width="1440" height="270" fill="none" xmlns:v="https://vecta.io/nano"><style><![CDATA[.B{fill:#5f5f6b}.C{fill:#4195c4}.D{fill:#d53a2c}.E{fill:#ffd72e}.F{fill:#ea7534}.G{fill:#e5c7a3}]]></style><g clip-path="url(#A)"><g clip-path="url(#B)"><g opacity=".2"><use xlink:href="#C" class="B"/><use xlink:href="#D" class="D"/><use xlink:href="#E" class="C"/><use xlink:href="#F" class="E"/><use xlink:href="#G" class="G"/><use xlink:href="#H" class="B"/><use xlink:href="#I" class="G"/><use xlink:href="#J" class="E"/><use xlink:href="#K" class="F"/><use xlink:href="#L" class="D"/><use xlink:href="#M" class="C"/><use xlink:href="#N" class="D"/><use xlink:href="#O" class="E"/><use xlink:href="#P" class="C"/><use xlink:href="#Q" class="F"/><g class="B"><use xlink:href="#R"/><use xlink:href="#S"/></g><use xlink:href="#C" class="C"/><use xlink:href="#D" class="D"/><use xlink:href="#E" class="B"/><use xlink:href="#F" class="E"/><use xlink:href="#G" class="G"/><use xlink:href="#H" class="C"/><use xlink:href="#I" class="G"/><use xlink:href="#J" class="E"/><use xlink:href="#K" class="F"/><use xlink:href="#L" class="D"/><use xlink:href="#M" class="B"/><use xlink:href="#N" class="D"/><use xlink:href="#O" class="E"/><use xlink:href="#P" class="B"/><use xlink:href="#Q" class="F"/><g class="C"><use xlink:href="#R"/><use xlink:href="#S"/></g></g><use xlink:href="#T" class="B"/><use xlink:href="#U" class="C"/><use xlink:href="#V" class="F"/><use xlink:href="#W" class="B"/><use xlink:href="#X" class="E"/><use xlink:href="#Y" class="G"/><use xlink:href="#Z" class="D"/><use xlink:href="#a" class="E"/><use xlink:href="#b" class="B"/><use xlink:href="#c" class="D"/><use xlink:href="#d" class="F"/><use xlink:href="#e" class="B"/><use xlink:href="#T" class="C"/><use xlink:href="#U" class="B"/><use xlink:href="#V" class="F"/><use xlink:href="#W" class="C"/><use xlink:href="#X" class="E"/><use xlink:href="#Y" class="G"/><use xlink:href="#Z" class="D"/><use xlink:href="#a" class="E"/><use xlink:href="#b" class="C"/><use xlink:href="#c" class="D"/><use xlink:href="#d" class="F"/><use xlink:href="#e" class="C"/></g></g><defs><clipPath id="A"><path fill="#fff" d="M0 0h1440v270H0z"/></clipPath><clipPath id="B"><path fill="#fff" transform="translate(0 -805)" d="M0 0h1440v1075H0z"/></clipPath><path id="C" d="M125.035 117.098c22.764 2.254 48.442 2.479 69.366-.291a47.24 47.24 0 0 0-4.534 1.683c-7.711 3.137-50.451 25.732-75.327 23.269-36.669-1.302-47.122-15.459-65.388-23.402-17.421-7.574-.864-17.914 4.557-21.405 1.739-1.117 3.59-2.31 4.895-3.759l.889 6.246c8.443 9.68 42.761 15.396 65.524 17.65m2.743-153.114c-22.051-44.39 7.516-87.627 21.914-127.574 3.911-10.847 4.979-22.66 9.54-33.246 4.149-9.632 11.833-17.402 16.354-26.862l4.279-8.967c7.318-15.449 1.898-25.29 4.517-31.463l.603-1.447 3.075-5.054c2.82-4.661 7.149-19.909 11.194-26.778l1.885-3.205c22.752-38.66 11.204-73.153 21.851-112.058 12.714-46.471 10.444 17.181 12.505-58.366 1.078-39.581-14.226-85.205-33.717-119.558-2.71-4.79-7.423-12.793-11.411-24.953s-6.223-53.686-16.132-79.892a77.046 77.046 0 0 0-12.469-21.505c13.232 8.094 23.839 3.616 34.94-1.062 5.529-2.328 11.184-4.711 17.344-5.619 16.849-2.477 21.009 10.653 25.828 25.879l2.602 7.983.587 1.682c3.666 10.734 4.992 30.641 6.405 51.839 1.032 15.495 2.113 31.678 4.184 45.472l.31 2.001c1.93 12.066 10.904 19.545 19.87 26.99 4.202 3.498 8.404 6.993 11.873 10.973 17.498 20.077 23.492 49.163 12.875 66.004-3.633 5.669-9.316 8.264-15.133 10.53l-4.355 1.671a42.48 42.48 0 0 1-4.461 1.318c-4.829 1.237-9.778 2.507-10.129 7.763-.398 5.925 5.187 9.116 10.347 11.575l2.987 1.427c5.644 2.748 11.744 4.656 17.816 6.553l4.932 1.563.365.119c.968.31 1.971.572 2.973.844 4.516 1.201 9.078 2.429 10.792 7.656 2.061 6.316-1.378 11.169-5.004 15.674l-1.718 2.122c-6.129 7.37-14.302 12.424-23.541 13.71l-.731.109c-20.205 3.15-25.682 17.361-31.623 32.758l-2.627 6.666-.693 1.665c-10.45 24.59-22.428 48.52-34.401 72.428-15.903 31.745-31.798 63.487-44.11 96.827l-.59 1.581c-3.688 9.772-7.988 19.328-12.28 28.882-8.905 19.791-17.809 39.575-21.253 61.26-6.527 41.035 13.194 77.551 56.688 102.75l-.118-.069-3.759-1.077c-17.446-5.043-33.367-10.14-47.802-18.299a83.462 83.462 0 0 1-13.323-19.207"/><path id="D" d="M398.405 232.287c12.866-4.349 23.482-9.38 32.565-15.214 22.416-14.403 35.485-33.707 50.009-59.777 21.809-39.104 58.085-64.057 98.422-86.246 9.167-5.046 18.553-9.95 28.022-14.846l7.605-3.927 2.098-1.096.183-.099.716-.377.756-.404.82-.443.824-.442.665-.363.901-.495.49-.268 1.001-.557.239-.134a171.9 171.9 0 0 0 8.137-4.847l.105-.065.861-.556.153-.101.805-.516.182-.125.727-.49.198-.138.68-.468.21-.149c.215-.148.407-.302.633-.45l.219-.155.597-.435.219-.159.566-.422.219-.163.538-.41.221-.171.51-.398.221-.174.491-.392.213-.175a21.9 21.9 0 0 0 .475-.386l.217-.175.456-.38.214-.183.444-.374a4.37 4.37 0 0 0 .207-.18l.44-.374.202-.18.415-.377.21-.186.414-.37.207-.187.413-.37.215-.193.414-.37c.062-.058.124-.12.19-.177l.417-.396.095-.092 1.144-1.052c6.521-5.986 14.46-13.29 37.108-27.602l2.235-1.407c11.517-7.199 23.638-12.82 36.047-17.726L698.522-3.502 692.333-.26l6.028-3.137L722.75-16.15a409.976 409.976 0 0 1 13.043-4.877l18.511-6.409c23.916-8.126 47.941-16.288 69.961-30.27 16.334-10.37 27.4-26.114 38.528-41.944 8.847-12.584 17.729-25.225 29.327-35.258.96-.828 2.08-1.678 3.333-2.575 8.764-6.19 24.068-13.538 37.199-19.842l18.086-9.002a66.901 66.901 0 0 0 1.782-1.014c-1.335 1.488-2.54 3.121-3.75 4.757a.092.092 0 0 1-.004.037 1.899 1.899 0 0 0-.167 1.992 1.892 1.892 0 0 0 1.711 1.033l.464-.007c3.187-.035 6.39-.072 9.018-1.342 31.437-15.156 50.018-42.558 65.438-72.079l.86-1.659c14.16-27.14 27.35-55.125 17.06-87.451-.08-.151.04-.399.2-.651.08-.14.15-.287.21-.439.19.321.4.632.61.946a10.55 10.55 0 0 1 1.13 1.936c11.38 27.961 8.62 56.624-2.48 82.82l-1.47 3.445-3.48 8.296c-22.54 53.751-45.429 108.341-92.937 145.605-32.645 25.64-70.85 41.913-109.011 58.148L801.856-7.141l-2.462 1.112-6.984 3.138c-32.62 14.624-65.33 29.288-90.011 56.931-15.778 17.55-7.597 33.378.603 49.248.636 1.193 1.246 2.407 1.858 3.613l1.34 2.676a76.48 76.48 0 0 0 7.984 12.311c7.738 9.878 13.623 15.668 19.136 17.382-8.206 2.579-15.463 3.104-20.885 6.181-9.543 5.413-8.19 19.606-15.473 27.744-2.077.462-4.843 1.028-6.573 1.686-8.025 3.064-13.724 10.994-20.036 17.008-21.7 20.677-58.829 31.369-68.82 39.069-10.293 7.931-26.463 8.044-38.826 5.98-6.854-1.146-12.918-4.596-19.399-6.854-6.622-2.306-13.401-1.666-20.208-.543-7.566 1.249-15.573 2.72-22.711-.085a1.757 1.757 0 0 1-.986-.705 1.807 1.807 0 0 1-.033-1.186c1.306-6.334 3.061-9.747 8.136-14.042 3.015-2.55 6.802-3.999 10.545-5.226 32.866-10.756 70.166-11.566 102.279-24.421 5.495-2.21 12.654-7.38 11.375-12.119-4.413-11.422-11.452-5.675-18.387 1.149-8.192 8.063-21.83 14.31-46.662 14.945-33.276.85-44.346 10.199-73.708 21.951-37.175 14.885-82.29 32.927-137.498 34.243l-7.382.072c19.993-3.259 36.47-7.155 50.33-11.842"/><path id="E" d="M34.024-30.478c.836-4.413-2.954-12.604-8.78-21.882.026-2.017.022-4.034-.092-6.038-.293-5.305-14.385-35.193-1.817-35.768 9.267-.428 18.367 6.314 20.657 15.302.994 3.897.814 7.994 1.595 11.949C48.24-53.489 60.885-44.912 70.67-35.343a93.398 93.398 0 0 1 27.665 60.986c.083 1.485.034 3.199-1.111 4.148-.706.582-1.666.725-2.582.807-11.266 1.014-22.439-3.823-31.26-10.91S47.742 3.386 41.096-5.77c-4.672-6.44-9.4-13.121-12.458-20.396 2.895-.169 4.84-1.427 5.385-4.305"/><path id="F" d="M1139.5 103.304c9.71 8.302 18.31 18.122 24.41 29.387 12.27 22.635 27.18 50.926-7.04 66.111-17.22 7.641-35.88-16.553-51.33-19.737-6.68-1.377-12.66-2.267-19.23.451a41.935 41.935 0 00-4.78 2.266c-.4.202-.77.418-1.15.64-1.5.885-2.94 1.857-4.32 2.911a63.83 63.83 0 00-2.04 1.595l-1 .817c-7.03 5.835-14.58 12.236-18.79 20.543-13.81-6.79-20.85-14.96-15.71-24.743 6.83-13.01 26.23-16.345 44.1-19.419 30.35-5.217 56.22-9.668 8.27-59.512-3.7-3.849-5.68-8.932-6.98-14.6 4.85-3.699 9.95-6.796 15.78-7.964 12.3-2.46 30.47 13.264 39.81 21.258"/><path id="G" d="M1284.37-5.72c2.85-13.284.06-34.576-13.91-40.81-7.81-3.482-18.48-2.922-25.19-8.674-7.36-6.305-4.13-19.567-4.74-28.215-.75-10.482.6-20.828 2.19-31.222a259.95 259.95 0 0 0 2.87-43.177l1.08-1.585.02-.035 2.33-3.421c7.93-11.594 15.98-24.144 18.85-38.123 3.17-15.539-2.17-29.118-11.57-41.358-.21-.194-.13-.702-.06-1.166.02-.15.03-.291.04-.422.25.047.5.083.75.115a6.16 6.16 0 0 1 2.11.545c14.86 8.481 21.02 24.251 21.24 40.476.23 16.075-4.2 31.491-8.96 46.97l-4.25 14.254c-2.72 9.739-5.86 22.855-.41 32.303 4.82 8.39 15.45 11.429 24.21 13.468 15.47 3.597 26.61 16.699 27.82 32.615.95 12.5 3.26 27.022 14.26 34.819 10.13 7.175 24.33 7.12 36.17 7.131 16.58.014 29.64 10.189 33.34 25.497 3.77 15.59-8.16 36.74-13.69 51.608-5.34 14.356-9.7 29.054-13.98 43.757-3.1 10.67-6.15 24.42-13.09 32.434-6.15 7.105-11.11 17.904-15.47 26.78-7.66 15.558-15.03 31.266-21.37 47.418-8.17 20.818-15.35 62.671-43.84 61.3-7.93-.381-13.87-2.424-15.3-10.984-.71-4.197.19-8.694 1.23-12.744 1.57-6.179 3.75-13.172.35-19.161s-10.33-12.102-10.7-19.208c-.56-10.659 6.46-22.724 10.78-31.961 1.3-2.773 1.96-5.64 2.56-8.558l.83-3.995c4.39-19.356 8.03-39.631 5.73-59.018-.87-7.333-3.76-14.85-2.86-21.974 3.38-26.835 4.69-58.26 10.59-85.675"/><path id="H" d="M255.419 172.284c57.003-.607 121.819-1.296 155.864-26.018 65.742-47.755 92.248-65.592 143.183-90.017A2986.284 2986.284 0 0 0 809.91-81.96l2.048-1.245c6.49-3.925 13.296-8.04 16.065-16.06 27.856-12.18 56.132-47.485 107.203-69.394a21.83 21.83 0 0 0 1.347-.621c.161-.074.325-.16.49-.238l.837-.414.747-.393.509-.274c14.055-7.675 29.387-24.29 40.744-39.814-5.323 9.994-11.06 19.789-16.891 29.507l-5.199 8.634-3.164 2.837a24.82 24.82 0 0 0-2.091 2.088 50.33 50.33 0 0 1-1.781 1.015c-4.456 2.456-10.953 5.574-18.09 9.001-13.128 6.305-28.431 13.652-37.195 19.843a44.54 44.54 0 0 0-3.334 2.575c-11.597 10.032-20.48 22.674-29.327 35.258-11.127 15.83-22.194 31.574-38.528 41.944-22.02 13.982-46.045 22.143-69.961 30.27l-18.511 6.408a446.78 446.78 0 0 0-13.031 4.871l7.225-3.776-7.375 3.84c-12.42 4.905-24.545 10.526-36.047 17.726l-2.234 1.407c-22.647 14.3-30.59 21.604-37.108 27.603l-1.144 1.05-.096.093-.416.396c-.066.057-.129.119-.191.177l-.413.37-.215.193-.414.37-.207.187-.413.37-.211.186-.414.377-.203.18-.44.375c-.07.06-.136.122-.206.179l-.444.374-.214.182-.456.381-.217.175c-.156.131-.316.259-.475.386l-.214.175-.491.392-.221.174-.51.398-.22.17-.538.41-.22.164-.569.422-.216.16-.597.434-.219.155c-.207.15-.406.303-.632.45l-.211.149-.679.468-.199.138-.726.49-.182.125-.805.516-.153.101-.862.556-.104.065c-2.31 1.478-4.982 3.079-8.137 4.846l-.24.135-1.001.557-.49.268-.9.495-.666.363-.823.442-.821.443-.756.404-.898.476-2.102 1.096-9.135 4.718-4.904 2.529c-6.953 3.577-14.113 7.27-21.585 11.53-40.336 22.189-76.613 47.138-98.422 86.245-14.539 26.07-27.608 45.373-50.009 59.777-8.907 5.815-20.351 11.02-32.565 15.214-13.861 4.687-30.337 8.584-50.331 11.842a254.47 254.47 0 0 0 7.382-.071c-1.7.187-3.409.286-5.12.295-94.378-.112-220.074-10.32-202.664-51.273 8.391-19.74 54.685-20.232 107.746-20.797h-.041zM740.577-25.455l.398-.213.29-.152.494-.271c.272-.087.542-.188.817-.296s.548-.21.82-.296c.156-.098.304-.21.44-.333l.381-.34c.272-.085.546-.19.817-.295a16.75 16.75 0 0 1 .82-.296l.008-.075c-.273.086-.547.191-.821.296a18.29 18.29 0 0 1-.817.296l-.104.065a3.859 3.859 0 0 0-.332.265l-.384.339c-.152.056-.313.123-.482.193l-.392.146c-.231.094-.466.18-.703.254-.593.28-1.19.602-1.785.935l-.275.154.81-.376z"/><path id="I" d="M72.893-76.314c.423-2.528 1.524-4.887 3.448-6.584a7.68 7.68 0 0 1 2.827-1.605c4.85-1.49 6.78 3.027 8.484 6.075a35.404 35.404 0 0 0 2.498 4.034l.023.033.195.245.02.025-.002.018.02.025c.1.127.206.246.31.366l.082.091.153.17.037.037.191.396.781 1.547.759 1.515c9.931 19.617 21.124 33.195 33.603 43.18a108.459 108.459 0 0 0 11.454 8.009c1.088.665 2.184 1.31 3.291 1.934 14.434 8.168 30.341 13.262 47.802 18.3l3.759 1.08 1.94 1.108.325.187c2.27 1.272 4.6 2.508 6.988 3.707a296.656 296.656 0 0 0 74.534 25.882c25.783 5.255 52.221 7.127 78.503 6.387 26.41-.743 52.825-3.998 78.767-8.92 6.26-1.19 12.513-2.459 18.722-3.89a313.566 313.566 0 0 0 31.531-8.733c9.846-3.336 19.565-7.295 28.661-12.356l.451-.25.079-.04 1.734-.997c1.439-.833 2.915-2.794 3.062-4.283a.829.829 0 0 0-.039-.324l.002-.022a1.114 1.114 0 0 0-.064-.157l.003-.027c-.028-.055-.061-.107-.093-.163-.917-1.399-2.596-2.635-4.358-3.714a4.492 4.492 0 0 1-2.061-2.98 4.508 4.508 0 0 1 .803-3.532c.002-.019.026-.035.038-.045 2.206-2.717 5.939-4.409 8.912-6.277a649.472 649.472 0 0 1 23.238-13.949c5.824-3.338 9.273-6.618 11.778-12.882.165-.413-5.514-2.927-6.163-3.142-2.347-.775-4.71-.693-7.15-.708l-2.791-.054c-.571-.02-1.13-.003-1.719.01l-.35-.004c31.03-15.17 81.58-24.466 105.749-29.025 22.959-4.78 57.149-21.258 56.213-19.682-17.729 30.208-68.155 52.761-86.15 63.23l-1.128.669c.005-.056.01-.109-.007-.167l-.008-.14c.005-.052-.016-.103-.022-.157s-.019-.08-.026-.123l.003-.034a1.19 1.19 0 0 0-.032-.13 1.42 1.42 0 0 0-.061-.18.056.056 0 0 1 .002-.023s.003-.033-.021-.05-.037-.084-.056-.123-.043-.098-.068-.146l-.068-.116-.115-.174-.016-.024c-3.081-4.322-13.148-5.18-17.051-2.065-4.584 3.672-7.594 8.722-11.275 13.203a4.55 4.55 0 0 1-.172.217c-14.005 16.954-35.393 24.897-55.245 32.74l-6.277 2.503c-31.777 12.654-64.684 21.507-98.324 27.785a7.67 7.67 0 0 0-.632.183l-.098.032c-.284.096-.57.203-.856.31l-.505.195-.389.128-.254.084.34.033c.232.042.466.065.702.07l.044.004a1.69 1.69 0 0 0 .34-.041l1.184-.204c-14.957 3.392-27.494 5.945-34.583 6.75l-3.049.343c-45.247 4.997-94.182 5.484-141.736 4.28l-8.136-.225-6.387-.2-1.308-.302c-23.944-5.556-47.032-13.702-68.551-25.713s-40.676-27.58-56.403-46.52a208.49 208.49 0 0 1-17.295-24.406c-2.63-4.3-5.248-8.659-7.55-13.142-2.088-4.072-4.667-8.02-5.59-12.585a16.023 16.023 0 0 1-.122-5.774"/><path id="J" d="M130.562 61.263l1.375.468.141.052c7.137 2.523 13.898 6.358 20.645 10.187l8.34 4.628.161.088.806.423.309.158.778.401.219.109 1.436.719.406.202.669.319.475.224.66.306.497.227 1.083.484.571.248.619.257.546.228.62.25.566.218.606.233 1.048.38.59.204.594.203.614.2.592.183.603.184.759.214.885.239.643.161.619.148.608.136.62.133.669.126c.315.062.63.116.945.17.242.023.485.081.742.118l.624.085.625.08.642.064.65.064.615.061c.374.037.749.048 1.124.066l.639.022.647.011.662.005.646-.01.661-.015.879-.045.937-.065.672-.058.694-.078.645-.08.703-.1.69-.112.582-.097 6.49-1.155.636-.106 5.619-.951 1.604-.256 4.671-.74 1.963-.299 4.356-.646 2.083-.303 4.311-.605 2.044-.28 4.528-.6 1.787-.233 5.534-.7.762-.09 6.441-.768.888-.104 5.431-.615 1.832-.196 4.549-.499 1.972-.208 4.513-.473 1.824-.196 4.907-.497 1.294-.132 26.035-2.506 51.808-5.26.381-.04 5.116-.602 1.145-.14 4.383-.541 1.462-.183 4.119-.534 1.565-.203 4.202-.575 1.382-.188 5.555-.795a2.52 2.52 0 0 0 .386-.097l.109-.038.283-.116.099-.043.309-.157c.143-.073.29-.149.443-.216l-1.07-.107a18.605 18.605 0 0 0-3.331-.235c-35.266 2.224-70.54 2.862-105.56-1.28-9.996-1.194-19.879-2.651-29.613-4.44l-.337-.06-1.524-.286-1.269-.243-1.478-.29-1.294-.256-1.478-.297-1.344-.28-1.41-.294-2.561-.551-1.316-.292-1.434-.323-.049-.005 6.387.199 8.132.225c47.577 1.206 96.512.72 141.759-4.278l3.049-.342c7.092-.805 19.631-3.373 34.583-6.75l3.876-.672.426-.074.334-.058 4.36-.766.787-.14c47.073-8.367 93.463-18.813 136.565-39.59l.068-.034 2.427-1.184.13-.063 2.379-1.185.147-.076 2.38-1.203.135-.07 2.387-1.271.071-.038c4.162-2.196 8.284-4.5 12.367-6.915a47.17 47.17 0 0 0 5.589-3.886l.049-.04 1.005-.828.09-.074.952-.814.115-.101.91-.815.132-.122.88-.814.142-.136.857-.824a32.688 32.688 0 0 0 .983-.977l.134-.137.839-.863.117-.12.87-.901.076-.083.917-.968c.419-.43.801-.863 1.195-1.295l.443-.483.233-.26.148-.163.529-.584.872-.969c.995-1.137 1.622-2.17 1.882-3.096.034-.12.061-.244.082-.368l.003-.03a2.59 2.59 0 0 0 .033-.34l.011-.112.01-.097 1.129-.668c17.994-10.47 68.417-33.023 86.15-63.23 8.685-7.487 21.351-16.023 42.927-26.322 23.13-11.038 49.128-15.074 72.506-25.567l.418-.185c13.536-5.944 60.09-20.364 77.306-29.4 69.767-36.616 87.844-60.209 99.354-79.219l1.409-2.355.081 1.466.164 2.564c.272 3.954.549 7.968.131 11.846a23.933 23.933 0 0 1-1.645 6.725c-3.747 8.994-8.021 17.754-12.604 26.359-12.422 16.99-29.613 35.29-44.678 41.75-51.071 21.909-79.347 57.214-107.203 69.394l-3.588 1.152-.296.095-1.61.5-.144.042-1.555.483-1.516.468-1.037.32-.63.197-1.704.536-.777.24-.939.306-1.294.43-.92.312-.968.341-.781.277-1.358.502-.728.282-1.142.453-.683.279-1.252.535-.365.152c-9.823 4.368-19.499 8.998-29.079 13.841-59.626 30.057-115.275 67.642-176.425 94.827a1513.16 1513.16 0 0 1-35.511 15.24c-2.16 10.397-14.444 15.903-24.947 19.268-57.369 18.373-111.236 42.263-169.987 57.435-5.325 1.376-10.689 2.755-16.173 3.15-7.541.543-15.081-.799-22.638-.975-17.061-.401-33.629 5.1-50.415 8.171a179.636 179.636 0 0 1-80.859-3.948l-4.317 1.17c-20.938 2.754-46.621 2.544-69.366.291s-57.082-7.969-65.525-17.65c0 0-.427-2.62-.89-6.245-.573-4.406-1.21-10.295-1.217-14.798-.554-26.294 46.561-25.714 73.168-17.144"/><path id="K" d="M922.074 180.486c4.081-3.812 8.829-6.854 12.952-10.621 6.214-5.671 18.715-13.752 32.759-26.195 8.694-3.77 16.6-9.631 23.168-16.513 10.807-11.317 18.417-25.259 25.247-39.33 10.73-22.153 20.12-45.201 27.21-68.794 3.45-11.487 2.67-16.29-.18-16.975 2.38-4.384 4.93-8.654 7.65-12.809 19.88-30.258 52.98-47.104 74.9-74.981 13.37-16.999 32.89-25.523 39.19-28.882 31.48-16.758 65-54.649 62.98-77.896-1.05-12.053 15.07-8.961 16.87 18.101 3.71 55.762-6.22 62.857-4.28 91.006.68 9.953-2.13 21.216 3.32 29.572 4.31 6.626 11.66 10.84 15.94 17.495 8.23 12.807 6.68 44.175 5.8 48.316-4.96 23.457-5.05 56.78-8.98 80.553-4.31 26.053-17.82 48.022-34.96 67.665l-3.31 3.757c-5.47 6.411-10.79 12.935-15.81 19.715a266.001 266.001 0 0 0-4.03 5.57l-.84 1.529c-5.88 10.678-11.83 21.337-19.12 31.167a66.743 66.743 0 0 1-6.85 7.729c-1.3 1.28-10.48 13.097-23.04 18.41a14.106 14.106 0 0 1-7.71.929c-35.94-5.688-61.84-28.462-86.72-40.701 4.21-8.307 11.75-14.708 18.78-20.543l1-.817 2.04-1.595a45.044 45.044 0 0 1 4.33-2.911c.37-.219.76-.434 1.14-.64a42.725 42.725 0 0 1 4.79-2.266c6.57-2.718 12.55-1.828 19.22-.452 15.45 3.185 34.12 27.379 51.33 19.738 34.23-15.207 19.32-43.491 7.07-66.132-6.11-11.265-14.71-21.085-24.41-29.387-9.35-7.994-27.52-23.718-39.82-21.258-5.83 1.168-10.93 4.265-15.79 7.963-3.39 2.592-6.66 5.747-8.17 9.742-1.52 3.995-4.03 10.235-6.86 13.452-4.21 4.81-21.81 16.901-26.75 19.825-17.39 10.277-84.543 52.782-103.131 60.69-6.817 2.898-14.033 5.511-21.424 5.039-1.124-.07-2.344-.274-3.045-1.142-.632-.779-.659-1.87-.561-2.867.551-5.556 4.047-10.422 8.118-14.239"/><path id="L" d="M1018.24 28.087c-5.2 13.488-7.31 28.205-14.33 40.85-2.17 3.93-4.865 7.665-8.549 10.232-3.493 2.44-7.678 3.675-11.39 5.769-5.878 3.306-10.343 8.592-14.673 13.767l-29.243 34.95c-1.484 1.775-3.03 3.694-3.262 5.996-.591 5.971 7.341 8.791 13.329 8.405 15.615-1.017 30.018-9.58 40.823-20.901s18.425-25.259 25.245-39.329c10.74-22.153 20.12-45.202 27.21-68.794 10.61-35.3-18.77-7.512-25.16 9.065"/><path id="M" d="M781.827 243.856c-7.077 1.142-13.066-5.62-16.465-10.422-4.145-5.859-7.024-13.168-10.245-20.025-2.542-5.419-5.603-13.515-11.222-15.718-5.84-2.293-15.409 2.1-21.832 3.555-5.162 1.173-10.414 2.424-15.647 2.867l-3.708.304c-5.226.447-17.145 2.964-21.062-2.01-5.858-7.439 10.092-23.137 13.857-27.524l1.465-1.667c7.288-8.138 5.931-22.332 15.473-27.744 5.422-3.077 12.679-3.599 20.886-6.181 8.833-2.777 19.632-9.316 26.038-17.948.83-1.12 1.636-2.333 2.433-3.528a138.132 138.132 0 0 0 2.331-3.597c10.467-16.852 17.55-34.303 18.926-54.131 1.355-19.545 16.118-32.32 31.939-41.734l1.777-1.049a592.376 592.376 0 0 1 7.115-4.077l2.495-1.411.574-.32.471-.266.731-.421 1.97-1.128 2.215-1.288 1.424-.797a542.482 542.482 0 0 1 3.898-2.184l2.016-1.105a691.278 691.278 0 0 1 3.281-1.778l2.284-1.22a205.638 205.638 0 0 1 3.036-1.584l2.439-1.266 2.906-1.49 2.544-1.294 2.823-1.412 2.623-1.3 2.772-1.35 2.691-1.305 2.702-1.293 2.768-1.312 2.618-1.248 2.841-1.332 1.844-.85 6.434-2.943 2.395-1.089 2.958-1.324 2.59-1.16 2.79-1.231 2.838-1.257 2.518-1.107 3.269-1.436 2.005-.872 4.332-1.888.669-.288 4.332-1.881 6.348-2.763 6.743-2.913a3465.276 3465.276 0 0 0 19.784-8.637 943.416 943.416 0 0 0 4.363-1.935l1.625-.728 3.194-1.436 2.04-.928 2.818-1.282 2.187-1 2.67-1.243 2.26-1.05 2.607-1.22 2.266-1.071 2.611-1.249 2.219-1.027 2.644-1.284 2.182-1.065 2.714-1.34 2.093-1.04 2.856-1.447 1.933-.98 3.176-1.638 1.59-.83 4.745-2.518 3.08-1.64c5.17-2.68 10.34-5.812 15.61-7.875 7.16-2.807 17.39-1.794 29.27-7.34 19.84-9.265 32.27-11.174 50.23-23.949 9.05-6.44 18.32-13.312 26.09-21.289 10.28-10.554 18.5-23.167 27.07-35.067l8.94-12.304 6.91-9.155a344.58 344.58 0 0 1 4.51-5.706c1.74-2.089 3.52-4.13 5.49-5.622.9-.665 1.78-1.361 2.64-2.019.28-.22.59-.431.85-.643 4.84-3.896 9.77-3.222 14.02-.255 4.24 2.968 5.2 6.018 1.05 10.445-.45.523-.89 1.069-1.29 1.636l-1.59 2.148c-15.08 20.658-28.92 43.156-46.66 61.703-9.6 10.03-21.7 19.379-32.81 27.727-22.8 17.138-47.19 32.046-72.08 45.917l-5.37 2.976-16.26 8.784-3.58 1.907-16.61 8.604C971.707-17.228 937.734.368 916.631 29.333c-9.687 13.304-9.807 29.59-9.355 46.106-1.719 17.364-1.312 36.091-5.624 52.995s-11.912 33.339-24.26 45.663c-6.202 6.192-13.556 11.316-18.723 18.397-10.491 14.389-11.204 35.745-25.668 46.112-5.97 4.27-13.419 5.895-20.711 6.737-9.751 1.129-20.707-.193-30.427-1.506"/><path id="N" d="M274.53 3.091l.026.003 30.357 1.34c45.063 2.201 83.544.457 126.779-15.453 4.693-1.728 12.278-2.793 12.051-8.11-.198-5.616-7.944-5.93-12.863-7.326l-31.35-9.006c-25.757-7.498-51.035-16.283-74.03-31.58-19.27-12.835-31.164-26.302-35.63-40.566-.074.746.381-1.41 1.694-2.418 3.428-2.618 6.715-2.21 11.203-1.253 3.019.642 9.669 4.153 14.219 8.628 6.124 5.211 13.928 11.983 19.476 16.158 9.819 7.4 24.126 15.14 35.331 20.26 37.826 17.356 59.737 33.665 100.173 41.448 3.792.753 9.507 1.646 10.662 5.322 1.79 5.702-4.793 7.262-8.681 8.395-4.424 1.292-9.349 2.09-13.683 3.62A501.867 501.867 0 0 1 434.08.97c-17.337 5.014-35.003 8.97-52.896 11.343-35.825 4.788-72.043 2.811-106.931-6.767l-.049-.005c-1.343-.397-1.06-2.456.341-2.453"/><path id="O" d="M1385.65-19.836c5.4-11.476 12.51-21.869 18.27-33.124 17.67-34.54 16.77-67.827 13.29-105.875-2.31-25.178 16.53 3.25 21.93 12.867a110.74 110.74 0 0 1 4.38 8.686l-10.45 105.53a92.399 92.399 0 0 1-11.5 12.996c-2.64 2.453-5.5 4.868-6.92 8.314s-1.2 7.373-.68 11.106c2.13 15.246 8.92 30.073 7.36 45.338-1.57 15.265-11.2 27.983-14.38 42.881-3.07 14.392.08 29.702-2.39 44.23-2.46 14.528-14.89 29.271-27.84 24.409-6.76-2.553-11.3-9.839-12.99-17.381s-1.01-15.399-.31-23.086l4.74-52.626c2.6-28.887 5.42-58.54 17.49-84.265"/><path id="P" d="M1341.76 200.847c-.69 5.441-.35 10.977-1.09 16.409-2.09 15.409-12.68 29.508-11.01 44.97 1.19 3.807 7.23 2.657 9.7-.479s3.65-7.473 7.1-9.471c1.25-.725 2.71-1.081 3.81-2.009 1.23-1.038 1.83-2.622 2.37-4.136 3.58-9.911 7.2-20.1 6.97-30.632-.11-5.132-1.13-10.216-1.14-15.353-.01-6.938 9.06-30.134-.68-31.555-7.85-1.154-15.36 26.975-16.01 32.266"/><path id="Q" d="M-30.384 11.649C-14.722 24.73 5.59 35.123 13.465 52.596c5.832 17.863 3.645 36.142-9.214 48.027s-23.713 15.933-44.82 13.922l10.185-102.896z"/><path id="R" d="M238.679-221.944l.895-1.969c38.96-84.246 104.427-143.766 180.822-193.499 46.149-30.008 96.351-50.824 147.685-69.41 7.817-2.836 20.968-7.397 24.747.796 2.535 5.564-2.901 9.047-8.449 12.601-2.696 1.723-5.412 3.463-7.257 5.466l-2.084 2.246-2.111 2.294c.572-.034 1.16-.032 1.74-.028 1.409.004 2.806.01 4.024-.457 27.367-9.978 55.365-18.036 83.37-26.093l.291-.084.182 2.192c.132 1.521 52.564-8.361 133.016-28.058s114.464-43.921 208.36-27.204c6.52 1.158 12 5.711 18.36 7.549 32.23 9.391 71.25 17.735 100.46 35.746 53.66 33.101 102.87 74.979 159.2 103.931 44.82 23.043 94.14 29.453 137.22 55.635 18.54 11.257 28.08 21.758 40.91 35.909l-16.83 170.015-7.28-1.783c-17.33-4.147-34.89-8.354-46.56-23.151-13.02-16.548-7.95-43.561 10.52-68.194l.64-.853c20.73-28.064 18.03-42.658-10.76-63.295-14.32-10.293-29.38-20.972-45.8-23.095l.24.024c-52.33-19.591-103.89-40.226-153.13-66.513a223.051 223.051 0 0 1-4.37-3.342c-12.63-9.941-24.1-21.315-36.86-31.11-7.18-5.512-15.97-8.794-22.8-14.72-24.97-21.634-5-15.888-31.34-27.975l-1.49-.675c-16.15-7.251-45.75-17.892-60.61-8.262-14.61 9.452.62 13.628-19.7 13.044-11.27-.325-22.324-3.684-33.595-3.847-1.173-.018-2.002 2.606-1.085 3.349l1.757 3.003c-16.754-5.299-34.542-12.931-40.984-.195l-1.013.442c-12.85-2.779-26.153-5.321-39.919-7.868l-4.564-.829c-24.749-4.538-67.549-11.323-97.717-7.414l-19.332 2.513c-54.594 7.139-17.021 3.033-76.597 21.933l-2.023.64c-66.928 21.04-74.393 16.808-127.636 64.99l-4.352 3.959c-13.063 11.971-38.547 36.384-39.983 53.666-.398 4.859 5.825 8.49 6.058 13.371.34 7.073-6.598 14.043-4.413 20.779 1.116 3.426 6.844-2.778 9.45-5.271l14.251-13.546c46.083-32.645 96.438-55.771 151.668-68.122 1.131-.307 2.196-1.091 3.253-1.868l1.394-.992a42.21 42.21 0 0 1-.793-1.232 22.862 22.862 0 0 0-2.033-2.88c-10.387-11.29-1.392-14.714 5.61-17.378l2.451-.964 2.103-.922c19.23-8.218 39.721-11.37 60.224-14.525l21.932-3.613a19.42 19.42 0 0 0 4.225-1.643 48.125 48.125 0 0 1 1.973-.901c-.733-.208-1.461-.465-2.19-.718-1.7-.598-3.416-1.197-5.155-1.215-39.194-.723-77.492 5.482-115.462 14.429l-.297.069a61.46 61.46 0 0 0-3.288.895c-5.209 1.489-11.375 3.249-12.649-.318-1.727-4.825 4.352-7.614 9.354-9.908a76.644 76.644 0 0 0 2.736-1.296l1.531-.776c49.563-24.828 103.248-30.851 157.623-32.928l3.363-.123c80.32-2.87 151.602 20.95 215.034 70.835 5.63 4.427 11.65 8.377 17.66 12.299 17.08 11.195 33.97 22.273 41.01 43.942 4.74 14.619 4.58 29.62 4.41 44.616-.07 7.074-.15 14.143.29 21.177l.03.542c1.03 15.8 5.11 29.405 22.46 35.136l.26.09c3.64 1.355 2.96 4.646-.34 6.817-22.55 14.612-41.95 6.432-45.69-19.221 6.34-20.211 7.87-41.426-.8-61.095-1.54-3.462-4.68-6.026-7.65-8.374l-3.9-3.073-.92-.717-1.17-.911-1.24-.963-1.14-.866-1.28-.979-1.14-.866-1.3-.984-1.13-.847-1.34-1.003-1.09-.805-1.5-1.098-.94-.685-2.46-1.751-.42-1.27c-16.11-47.92-67.004-93.762-122.81-107.948a313.693 313.693 0 0 0-77.925-9.894c-1.667.042-3.345.551-5.004 1.057-.746.228-1.488.452-2.226.631l1.488.622a38.226 38.226 0 0 0 4.526 1.703l8.059 2.336c15.892 4.528 31.79 9.056 44.845 20.12 1.597 1.379 2.526 3.559 3.456 5.739.441 1.031.881 2.062 1.394 3.009-.958.388-1.92.896-2.885 1.399-2.032 1.065-4.075 2.14-6.117 2.142-10.926-.023-21.87-.436-32.818-.85-30.278-1.144-60.579-2.286-90.538 4.797-1.157.263-2.414.515-3.72.763-5.608 1.035-11.9 2.213-12.411 7.943a6.237 6.237 0 0 0 .69 3.644 142.02 142.02 0 0 0-27.406-.053c-1.94.185-3.935.428-5.625 1.399s-3.01 2.845-2.733 4.771a51.414 51.414 0 0 0 20.886 3.097c3.746-.224 7.561-.853 11.198.058 1.662.413 3.233 1.141 4.899 1.517 4.386.996 9.022-.493 13.444.321 3.741.691 6.969 2.952 10.402 4.588 1.299.618 3.02 1.086 4.033.068.745-.748.688-1.997.154-2.925l.727.272c21.733 8.208 43.488 16.425 62.436 30.575 36.57 27.226 36.369 64.192-1.876 88.822a1680.507 1680.507 0 0 0-10.633 6.906l-.04.026c-33.105 21.62-67.939 44.368-107.604 39.762-28.57-3.322-56.852-2.257-85.046-1.197-23.254.874-46.456 1.746-69.73.157-6.799-.447-16.169-1.525-16.754-9.327-.572-7.122 4.762-14.64 11.422-18.868 8.36-5.314 17.342-9.558 26.324-13.801 13.874-6.539 27.744-13.11 39.287-23.618 7.682-6.908 13.008-17.43 8.448-26.827-3.843-7.887-12.936-5.6-20.483-3.705l-1.974.49-2.242.532c-31.654 7.613-59.06 24.148-85.585 42.3l-2.563 1.758c-.599.366-1.233.672-1.892.913a23.98 23.98 0 0 0-1.181.513 16.56 16.56 0 0 0 .351-.806 6.519 6.519 0 0 1 1.214-2.141c47.925-48.704 126.873-87.871 203.214-71.072l.302.068 1.23.254c4.703.952 10.03 2.033 11.303 8.316l-.074.747-2.86 1.631-20.906 12.023a15.085 15.085 0 0 0-2.662 2.299c-.324.345-.641.649-.965.952.627-.013 1.268.024 1.904.065 1.282.074 2.559.151 3.745-.18 3.145-.864 6.38-1.942 9.653-3.031 13.463-4.481 27.566-9.175 38.656-.155l.576.46c16.012 12.63 28.238 6.493 40.84.17 2.336-1.174 4.687-2.351 7.076-3.422l.395-.183c10.518-4.871 9.866-12.714 1.898-20.037-27.165-24.942-61.05-29.122-95.703-29.396l-1.609-.008c-53.06-.167-102.821 12.466-143.276 47.99l-1.195 1.039c-6.468 5.57-13.3 10.742-20.124 15.88-13.404 10.121-26.791 20.225-37.372 33.426l-.704.868-3.193 3.856c-10.302 12.361-21.429 25.707-15.847 42.712 5.614 17.242 21.952 20.918 37.658 24.455l6.874 1.6 1.081.269c2.742.697 5.502 1.332 8.271 1.95a6.75 6.75 0 0 0-.37.189c-.99.565-.838 2.114.265 2.393l.186.018 21.618 1.994 4.05.955c2.108.48 4.009 2.443 5.608 4.263l.544.631c.276.257-1.839 3.352-3.364 4.328-34.095 22.249-116.85 17.823-147.782-7.85-14.705-12.207-22.25-28.684-28.033-46.24l-1.153-3.581c-18.472-56.587-32.504-60.215-81.822-23.929-26.612 19.598-49.731 42.662-70.954 67.851l-.183.208-.994 1.217c-2.353 2.902-5.045 6.234-8.674 4.59-2.165-.968-3.299-6.944-2.885-10.359 3.967-32.459 18.299-60.207 39.037-85.067l.206.243-2.851 4.699c-9.727 15.995-19.467 32.007-23.313 50.788-.122.549-.27 1.126-.418 1.714-.879 3.429-1.853 7.29 1.704 8.859 2.165.968 6.982-2.014 9.529-4.332l3.391-3.033c25.996-23.236 52.623-45.696 82.92-63.388s47.472-10.712 58.472 22.551c1.363 4.115 2.627 8.283 3.892 12.444 6.536 21.524 13.067 43.096 33.268 57.378 1.03.754 2.099 1.41 3.188 2.056l1.63.976c9.159 5.493 18.906 8.862 29.753 8.734-2.447-.906-4.926-1.746-7.409-2.588-5.407-1.835-10.832-3.676-15.945-6.191-12.11-5.951-20.08-14.71-25.877-24.935 3.184 3.428 6.905 6.382 10.69 9.225l.266.199 1.474 1.107c4.318 3.235 8.696 6.514 13.672 8.589 6.241 2.623 13.107 3.269 19.848 3.884 13.882 1.265 28.105 2.5 41.562-1.116a41.48 41.48 0 0 0-23.205-7.844c-8.646-.208-17.845 2.231-25.697-1.441a11.84 11.84 0 0 1-.911-.467l-.296-.168-.581-.337-.355-.22c-.17-.107-.336-.214-.502-.328l-.352-.25-.461-.336-.349-.275-.429-.352-.347-.298a7.305 7.305 0 0 1-.405-.368l-.319-.314a28.154 28.154 0 0 1-.384-.385l-.306-.332a7.355 7.355 0 0 1-.363-.412l-.293-.346-.337-.41-.28-.363-.334-.436-.268-.374a17.17 17.17 0 0 1-.309-.452 4.51 4.51 0 0 1-.247-.402c-.08-.147-.199-.313-.296-.47a8.03 8.03 0 0 1-.236-.4l-.279-.495c-.073-.132-.147-.26-.217-.398s-.184-.346-.272-.521l-.198-.396a25.67 25.67 0 0 1-.266-.554l-.176-.394a14.547 14.547 0 0 1-.267-.611l-.148-.335-.325-.786-.063-.161c-.126-.325-.244-.653-.363-.981a9.509 9.509 0 0 1-.098-.3l-.236-.698c-.044-.129-.08-.261-.124-.389l-.188-.614-.123-.431-.164-.589-.114-.448-.146-.58-.109-.463-.131-.571-.101-.473-.117-.566a15.675 15.675 0 0 1-.092-.48 66.228 66.228 0 0 0-.106-.568l-.081-.475-.094-.571-.073-.475-.079-.573-.066-.477-.069-.565-.058-.477-.06-.571-.045-.464-.051-.582c-.014-.201-.027-.3-.038-.452a58.31 58.31 0 0 1-.125-1.972 12.324 12.324 0 0 0-.278-2.104l.004-.044c.519-11.751 3.918-23.353 6.141-34.992 1.102-5.769 1.906-11.64 1.597-17.504-.723-13.174-7.103-25.427-8.822-38.512-.429-3-.45-6.044-.065-9.05.201-.483.411-.964.63-1.445.068-.159.144-.317.216-.476l.446-.962.271-.565.424-.862.3-.589.432-.823.319-.594a26.39 26.39 0 0 1 .457-.811l.325-.578.494-.848.308-.519.799-1.301.027-.038.551-.85.276-.425.12-.18.405-.59c.136-.193.26-.388.396-.582l.181-.261.791-1.101.222-.306.234-.309.56-.739c.082-.113.169-.221.257-.352l.254-.317.544-.7.279-.349c.057-.074.116-.143.176-.213l.638-.769.29-.349.549-.631c.098-.111.192-.222.291-.348l.284-.319.148-.162.723-.799.261-.272c.215-.231.422-.463.656-.689l.273-.289.117-.113a72.702 72.702 0 0 1 3.452-3.31l.099-.088.866-.758.454-.396a.275.275 0 0 0 .053-.044l.731-.609.567-.468.41-.336.327-.262c.209-.164.41-.336.626-.492l.619-.47.114-.083.672-.506.429-.304.293-.216.709-.499.19-.132.526-.362.742-.496.323-.213.401-.25.772-.489.04-.023.663-.413.802-.485.692-.407.85-.481.673-.37.912-.486.163-.086.468-.244 1.039-.519.527-.26 1.58-.737c3.945-1.78 8.088-3.209 11.796-5.453 4.281-2.591 7.85-6.171 11.64-9.433a96.177 96.177 0 0 1 24.59-15.385c2.684-1.159 5.593-2.333 7.188-4.783s.859-6.573-2.002-7.177a323.904 323.904 0 0 1-42.223 19.398c-3.628 1.359-7.392 2.72-10.244 5.343-2.189 2.01-3.695 4.627-5.377 7.072-8.987 13.053-23.045 21.255-33.177 33.267-9.866 11.693-17.482 26.076-25.681 38.973-2.603 4.095-5.21 8.238-6.944 12.769-2.195 5.726-2.933 11.886-3.663 17.971-.78 6.581-1.561 13.208-1.073 19.813.01.163.028.327.042.494-1.685-6.087-3.438-12.166-5.53-18.104-3.623-10.217-7.676-17.62-12.589-22.35l.19.178c-7.293-13.497-16.791-19.666-28.495-18.506-4.723.467-9.466 5.25-13.834 3.729-.726-.272-1.086-.443-1.325-1.156-.583-1.908 1.916-5.497 3.41-7.523l.125-.169a37.767 37.767 0 0 1 10.594-9.785c-1.166 3.208-1.26 6.749 1.105 8.129 4.966 2.899 11.272-6.282 16.698-4.376 5.148 1.821 4.773 10.368 9.212 13.528 3.126 2.22 10.18 4.777 11.449 1.134 1.802-5.146-5.309-9.672-6.604-14.974-.6-2.467-.988-6.127 1.122-7.527 6.587-4.458 21.68-6.788 35.395-16.505s24.254-22.161 36.781-40.365c8.311-5.383 16.339-10.84 23.913-16.357-.403.269-.806.534-1.235.793a308.385 308.385 0 0 0 6.66-5.041l.678-.533-.555.168c20.02-6.044 38.867-15.08 57.719-24.123 12.661-6.083 25.367-12.165 38.417-17.344 87.069-34.454 178.106-49.195 270.902-55.792l3.864-.281c34.763-2.587 46.964-22.482 21.189-18.149-125.688 21.074-251.3 42.144-372.795 85.256l-26.664 9.279c-56.16 19.344-111.904 38.548-158.171 77.514-52.93 44.603-99.357 94.884-114.793 165.674-6.515 30.1-2.686 58.294 21.684 80.329 1.686 1.546 3.999 2.355 6.326 3.17l.262.093a2.36 2.36 0 0 0 3.133-2.067l.003-.034c.151-2.171.297-4.327-.103-6.375-9.403-48.593 43.041-123.986 92.176-132.502 23.982-4.19 36.127 11.114 46.254 27.846l1.519 2.543c19.474 32.392 45.583 55.511 83.11 64.585.978.248 1.85.884 2.725 1.525.436.318.871.636 1.323.907-.493.151-.98.348-1.47.54a9.488 9.488 0 0 1-2.955.838c-9.148.711-17.789-1.686-26.302-4.579l-1.76-.607a36.081 36.081 0 0 0-3.054-.812l-2.082-.522c.62.438 1.214.874 1.799 1.354.867.724 1.79 1.377 2.761 1.954l13.534 7.595 9.284 5.189.357.197c4.859 2.769 7.894 5.681 8.222 12.756l.027.38c.553 6.325 7.209 6.193 12.586 6.085l.355-.007.476-.009.49-.004 2.717.001c36.819-.066 71.706-10.143 106.554-20.214l13.525-3.883 4.652-1.311.933-.258.989-.279 1.798-.5c16.627-4.613 33.378-9.262 47.588-19.846 9.667-7.239 11.238-16.256 4.001-25.982l-.252-.346c-5.25-7.223-1.842-9.863 4.923-11.394l.643-.14c8.64-1.782 17.2.03 25.636 1.827 8.585 1.826 17.043 3.628 25.327 1.565 51.759-12.993 100.379-33.739 136.205-74.997 18.084-20.82 9.661-47.452-17.815-70.77-14.838-12.537-32.014-21.017-49.212-29.51l-14.257-7.147a62.558 62.558 0 0 0-1.708-.825c-3.802-1.79-8.06-3.813-7.602-8.44.552-4.89 5.401-5.793 9.602-6.586l.342-.064 2.824-.55c33.731-6.356 67.165-2.227 100.595 2.827l3.237.491 27.74 3.948.888.088c4.178.508 8.847 1.076 11.288-3.027 2.008-3.374.229-6.459-1.517-9.488-.53-.923-1.057-1.842-1.475-2.762-.436-1-1.025-2.098-1.623-3.209-1.522-2.822-3.084-5.732-2.226-7.32 1.717-3.221 5.536-2.327 9.045-1.493.832.195 1.646.389 2.409.521l1.188.219c39.172 7.5 78.828 45.006 95.238 85.174l-.11-.071-2.07-1.309-.94-.587-.94-.583-.19-.433c-11.42-25.753-30.94-45.928-58.055-60.699-7.564-4.14-13.689-4.588-13.897 8.17l-.014.597c-.544 16.644-11.882 13.897-21.37 11.609-1.561-.377-3.069-.741-4.472-1.005l-5.363-1.051-10.375-2.09-.063-.006-20.837-4.098-6.202-1.605-4.738-1.242-1.417-.374-3.893-1.03-1.468-.394-4.25-1.148-1.076-.291a986.358 986.358 0 0 1-5.462-1.498 49.74 49.74 0 0 0-7.665-1.294c-7.889-.815-18.287-.733-23.626 1.542-1.149.489-1.924 1.584-2.464 2.812l-2.712.138c-4.506.259-9.258.908-10.537 5.642-1.238 4.584 2.831 7.414 6.547 9.998.913.636 1.801 1.256 2.587 1.884l1.296 1.025a890.214 890.214 0 0 0 6.865 5.341c10.34 7.992 20.654 15.95 29.412 25.918 20.625 23.394 22.335 51.675.254 73.546-35.552 35.221-80.507 55.302-126.157 73.723l-6.024 2.419c-2.35.897-5.196 1.588-7.476 1.064-16.452-3.547-35.58 9.919-47.718 26.669-1.51 2.086.826 4.793 3.117 3.614 16.36-8.43 33.892-23.667 45.806-24.609 9.951-.785 19.981-1.575 28.498-7.092l2.817-1.813c12.936-8.14 26.5-15.313 40.069-22.49l.022.002c10.991-5.815 21.991-11.633 32.653-17.963-.507 2.414.926 4.685 2.74 6.116l-2.028 1.189-5.72 3.308a4040.47 4040.47 0 0 0-10.398 6.062c-22.345 13.08-44.838 26.246-68.651 35.954-21.54 8.796-42.695 18.616-63.863 28.443-52.535 24.399-105.072 48.82-163.693 57.429-52.975 7.834-102.342 3.474-144.014-34.481-2.343-2.188-4.641-4.82-6.088-7.672-.314-.631-.663-1.26-.999-1.893-2.664-4.997-9.162-14.496-3.224-16.191l4.886 2.556c3.051 2.186 2.914 4.596 6.705 7.99.85.732 1.769 1.384 2.692 2.041l1.118.804a.478.478 0 0 0 .449.063.468.468 0 0 0 .295-.343l.211-.918c.334-1.175.514-2.388.535-3.61-.098-6.623 1.503-9.848 9.431-7.711l1.561.442c5.81 1.649 13.074 3.717 16.907-1.62 3.39-4.74-.156-9.037-3.478-13.059-.951-1.157-1.887-2.286-2.632-3.399-9.421-14.239-18.845-28.478-28.992-42.111-13.41-18.018-30.602-19.871-48.972-8.308-22.471 14.239-41.206 32.529-54.92 55.53-9.918 16.657-11.148 33.346-4.196 49.183 3.545 15.534 15.759 30.11 36.555 43.971 22.98 15.295 48.273 24.081 74.03 31.58 1.372.95 2.549 2.347 3.719 3.733l1.145 1.338a1.106 1.106 0 0 1-.05 1.536c-.454.434-.9.899-1.35 1.374-1.416 1.48-2.833 2.96-4.477 3.348-36.611 8.93-77.859 15.277-105.961-9.362-28.174-24.646-56.164-54.95-66.038-95.02-8.077-32.864-1.147-63.881 12.159-93.415l-.127.187zm514.524-15.823c-29.041-1.655-69.306-35.977-87.721-13.457l-1.984 3.029c-12.247 14.991 9.825 12.7 24.623 14.874 10.436 1.546 21.116 4.695 31.739 7.318l-1.732-.548-1.012-.319 14.258 4.426 13.428 4.1a6.114 6.114 0 0 0 1.53.26c30.141 1.165 52.207-11.034 73.64-24.415l4.628-2.899c.281-.134.397-.549.517-.963.047-.165.093-.33.149-.475-.321.014-.643.01-.963-.012a3.866 3.866 0 0 0-1.604.135 310.383 310.383 0 0 1-32.4 9.706l1.879-.945a1.898 1.898 0 0 0 .401-3.129c-10.72-9.224-26.399 4.014-39.36 3.262l-.016.052zm85.833-101.778c16.776 10.588 28.281 29.495-.819 44.076-17.843 8.947-38.509 10.74-57.277 17.568-5.555 2.024-4.507 9.329.435 11.552a72.032 72.032 0 0 0 17.552 5.419l-.004.038.237.121 2.444 1.271 1.175.61 2.01 1.058c31.864 2.552 71.921-17.61 77.385-37.817 3.804-14.132-14.097-39.962-28.778-41.34a3.305 3.305 0 0 0-1.144.143l-.385.083-.258.049.184.735a8.6 8.6 0 0 0 .794 2.294l1.127 1.894-.804-1.35c-3.299-2.267-6.795-3.687-11.513-5.511l-2.43-.926.069.033z"/><path id="S" d="M992.367-257.016c-11.511 19.009-29.587 42.603-99.355 79.219-17.215 9.035-63.769 23.455-77.306 29.399l-.417.185c-23.378 10.497-49.376 14.529-72.506 25.567-21.573 10.3-34.24 18.843-42.928 26.322.91-1.575-33.261 14.904-56.213 19.682-24.191 4.553-74.733 13.853-105.749 29.021l.213.021c-6.355-.03-12.719.048-19.085.13-26.347.334-52.71.67-78.575-6.944-1.854-.541-3.55-1.636-5.257-2.743-.779-.503-.792-1.933-.555-2.004 1.66-.48 3.328-.963 4.926-1.573a24.852 24.852 0 0 0 3.501-1.79l.184-.103a1.5 1.5 0 0 0 .321-2.327c-1.096-1.118-2.204-2.257-3.515-2.861a9029.814 9029.814 0 0 0-37.479-17.594l-.071-.007-.023-.002a14016.838 14016.838 0 0 1-47.748-22.458c-1.675-.818-3.089-2.213-4.507-3.608a1.332 1.332 0 0 1 .096-1.986 1.34 1.34 0 0 1 .679-.289c.511-.062.976-.114 1.301-.12 2.019-.03 2.696.358 4.351 1.079l25.381 11.557c15.022 6.948 30.047 13.904 45.442 19.901 56.142 21.914 111.304 11.398 166.112-5.698l3.352-1.051c48.772-15.471 95.88-33.134 141.517-58.008l6.114-3.408c22.404-12.033 45.274-23.38 68.162-34.744l75.762-38.848c13.393-7.311 24.079-18.304 34.69-29.218l4.425-4.536.242-.244c7.952-7.993 15.504-12.185 21.346 2.532 1.567 3.924 4.652 2.492 6.544-.026l.794-1.052c11.711-15.519 17.289-32.957 7.663-50.751-10.381-18.995-28.141-29.541-50.34-30.986-3.217-.168-7.356 1.981-5.795 6.119l1.25 3.515-.378-.565-.847-1.26-1.118-1.655-.328-.485-.281-.405-.743-1.091-3.614-5.362-.095-.145-.235-.37-.205-.325-.435-.71a12.187 12.187 0 0 1-.898-1.932c-1.86-4.962-2.541-13.953 4.18-14.659a48.038 48.038 0 0 1 8.861-.05c3.237.274 6.453.762 9.626 1.462a6.304 6.304 0 0 0 2.299 1.445c12.042 3.634 23.248 9.085 34.379 14.799l4.475 2.305.879.637c.211.149.418.305.625.458l.464.343.624.469.448.342.623.484.438.341.618.494.422.34.613.502.415.346.605.508.403.345.597.519c.135.115.263.234.395.348l.588.526.388.351.573.528.383.358.561.534.375.361.546.537.371.368.576.502.339.373.52.541.358.378.5.547.338.384.485.546.337.41.466.543a9.18 9.18 0 0 1 .336.41l.455.547.336.41.432.548.336.41.417.546.314.408.398.54.308.434.38.543c.102.145.196.294.299.44s.243.36.361.541l.29.454.325.53.285.469.325.526.273.475.302.528.264.486.281.517.255.504.259.508c.085.171.162.34.243.514l.24.502.237.536.213.481.24.585.178.44c.088.22.164.438.248.654.044.125.096.251.139.391l.35 1.033a66.235 66.235 0 0 1 1.248 4.367c2.56 10.262 2.788 21.047 3.016 31.768l.331 11.077-1.374 2.348z"/><path id="T" d="M888.717 73.668c-12.094-2.648-24.882-12.653-43.005-19.077-13.227-4.687-28.658-7.125-42.252-11.546-11.625-3.772-23.861-11.107-32.951-14.895-10.031-4.181-16.564-4.852-21.079-7.406l-.206-.109.495.285c2.948 1.676 5.88 2.888 9.18 4.249A125.654 125.654 0 0 1 773.393 32c2.662 1.5 5.779 3.615 9.079 5.873 5.763 3.941 12.09 8.269 17.546 10.211 6.6 2.344 13.669 3.63 20.625 4.898 9.994 1.818 19.77 3.596 27.6 8.418 23.542 14.487 49.875 23.415 69.465 23.415 25.924 0 53.104.9 73.05 2.25a241.219 241.219 0 0 0-26.55-7.942c-23.149-5.389-48.199.525-75.495-5.453M145.5-537.191c-26.317 42-1.155 87.941 9.236 129.113 2.824 11.178 2.723 23.04 6.218 34.023 3.18 9.994 10.061 18.484 13.628 28.343l3.375 9.345c5.76 16.095-.604 25.354 1.395 31.755l.457 1.5 2.561 5.332c2.348 4.917 5.153 20.517 8.502 27.75l1.559 3.375c18.833 40.714 3.942 73.902 10.703 113.667 8.074 47.497 12.086-16.069 6.694 59.313C207-54.18 187.275-10.285 164.494 21.98c-3.169 4.5-8.647 12-13.815 23.708s-11.482 52.81-23.925 77.913a77.074 77.074 0 0 1-14.527 20.172c13.965-6.75 24.078-1.249 34.665 4.5 5.272 2.861 10.665 5.79 16.706 7.301 16.522 4.125 21.956-8.531 28.252-23.209l3.375-7.687.75-1.617c4.707-10.32 7.988-30 11.483-50.955 2.554-15.318 5.224-31.316 8.644-44.838l.506-1.962C219.717 13.49 229.384 6.93 239.04.405c4.527-3.067 9.053-6.13 12.897-9.75 19.391-18.255 28.222-46.608 19.316-64.413-3.056-6-8.456-9.143-14.021-11.97l-4.17-2.093a42.685 42.685 0 0 0-4.309-1.751c-4.684-1.706-9.484-3.458-9.315-8.723.187-5.936 6.06-8.561 11.437-10.5l3.113-1.125c5.887-2.178 12.146-3.476 18.375-4.766l5.062-1.069.375-.082c.994-.214 2.018-.375 3.042-.548 4.612-.75 9.273-1.522 11.493-6.555 2.674-6.082-.27-11.25-3.435-16.091l-1.5-2.28c-5.374-7.939-13.008-13.774-22.076-15.964l-.716-.18c-19.796-5.126-23.846-19.807-28.241-35.715l-1.958-6.892-.525-1.725c-7.976-25.5-17.539-50.494-27.097-75.465-12.698-33.158-25.388-66.311-34.354-100.703l-.431-1.631c-2.708-10.087-6.045-20.021-9.375-29.951-6.912-20.573-13.823-41.138-15.113-63.056-2.452-41.479 20.771-75.874 66.536-96.664l-.123.056-3.848.701c-17.857 3.3-34.204 6.803-49.372 13.5a83.43 83.43 0 0 0-15.151 17.802"/><path id="U" d="M322.164 45.667c-6.461-14.344-14.933-28.02-18.225-43.402-4.812-22.463 1.822-46.875-6.585-68.25-.638-1.613-1.466-3.32-3.026-4.084-4.68-2.299-7.688 5.25-7.5 10.466a712.197 712.197 0 0 1-7.5 128.224c-.99 6.589-2.089 13.234-4.628 19.395-3.855 9.375-10.849 17.182-14.509 26.625a42.007 42.007 0 0 0 2.171 34.65c8.97 5.389 21.222.982 27.968-7.016s9.337-18.6 11.726-28.789a81373.37 81373.37 0 0 1 5.786-24.679c.353-1.5.773-3.112 1.958-4.095 8.917-7.372 11.276 14.025 19.95-.274 5.55-9.146-3.791-30.393-7.556-38.752"/><path id="V" d="M426.75 18.205c6.06 6.398 11.228 13.305 16.782 20.111 6 7.373 14.287 12.282 22.5 16.71 14.25 7.673 29.52 13.812 43.807 21.724 21.071 11.67 40.703 18.285 64.875 17.88 20.111-.341 37.65 10.463 52.616 22.95 7.077 5.906 16.197 8.123 24.645 11.078 11.224 3.93 22.523 8.287 33.99 11.55 13.002 3.697 33.604 9.813 46.737 4.792 2.343-.896 3.603-2.625 2.223-4.946a17.194 17.194 0 0 0-2.782-3.446c-16.5-4.815-32.715-11.093-48.716-17.333-4.399-1.714-8.877-3.48-12.687-6.217l-.705-.229c.023-.083.042-.165.064-.248a27.55 27.55 0 0 1-1.301-1.057c-4.286-3.75-7.08-8.865-10.395-13.5a67.953 67.953 0 0 0-13.973-14.378c-10.5 2.382-20.388 4.433-30.851 2.644-9.997-1.706-15.911-7.792-23.749-14.37-11.306-9.487-24.127-18.135-36.768-25.432-11.1-6.413-24.619-8.445-37.215-11.25-14.798-3.304-29.003-7.2-43.152-12.615-13.286-5.085-25.413-11.153-37.665-18.42-8.362-4.965-25.638-14.974-28.2-13.043s14.948 21.78 19.939 27.053"/><path id="W" d="M1189.5 111.489c-1.93-.356-3.95-.817-5.39-2.145-2.11-1.942-2.39-5.119-2.52-7.984-.47-9.712-.38-20.823 6.84-27.322 9.02-8.1 22.97-4.125 35.01-2.707 16.99 1.983 34.25-2.25 51.23-.18 29.3 3.562 53.83 25.214 83 29.737 8.49 1.316 17.52 1.241 25 5.471 2.42 1.369 4.86 4.069 3.72 6.604-.67 1.5-2.32 2.231-3.85 2.801-28.22 10.549-61.54 6.221-86.13-11.186-4.19-2.963-8.14-6.281-12.6-8.794-13.6-7.654-31.48-5.914-44.16 2.813-6.04 4.147-9.32 10.815-15.75 13.623-8.92 3.885-25.21.975-34.39-.731"/><path id="X" d="M837.749 117.361l94.688 15.855c7.125 1.196 14.46 2.453 20.726 6.083 5.685 3.296 10.211 8.392 16.065 11.381 6.409 3.27 13.841 3.75 21.034 3.889a303.295 303.295 0 0 0 75.528-7.958c6.13-1.44 13.46-4.466 13.94-10.74.53-6.877-7.59-10.901-14.37-12.15-25.65-4.714-52.38 2.048-78.005-2.715-20.13-3.75-38.306-14.34-57.993-19.957-18.477-5.273-37.876-6.06-57.087-6.814l-56.827-2.228c-8.719-.34-17.554-.7-25.875-3.288-10.823-3.357-20.126-10.238-29.625-16.395a258.725 258.725 0 0 0-68.501-31.275c8.085 19.466 26.103 34.5 46.706 38.94 21.139 4.563 26.872 13.278 44.655 22.612 16.717 8.775 36.574 11.681 54.964 14.76M296.715-178.673c23.089 36.941 68.899 52.222 83.625 98.977 9.416 29.82 45.285 44.055 68.824 65.708 24.439 22.552 61.054 20.756 89.152 37.687 8.085 4.894 19.005 9.709 23.625-2.872-7.582-11.903-8.681-27.308-13.665-40.71-22.125-7.354-43.875-15.822-65.797-23.85-2.018-.672-3.51-2.922-5.25-4.418 1.796-.75 3.514-1.875 5.306-2.175 5.306-.9 10.613-1.571 15.919-2.325-3.589-5.692-10.163-5.767-15.544-8.089-3-1.275-6.277-1.875-9.341-3.075-24.585-9.75-54.03-10.563-73.905-27.72-37.5-32.37-75.851-64.5-104.771-105.716l-55.448-78.075c15.319 34.466 37.29 64.875 57.244 96.653"/><path id="Y" d="M564.537 24.424c9.041 11.107 24.071 16.016 33.071 27.161 3.113 3.855 5.419 8.366 8.94 11.85 6.251 6.188 15.323 8.273 23.408 11.734a68.253 68.253 0 0 1 28.455 22.875c3.315 4.631 6.108 9.75 10.395 13.5 4.173 3.652 9.457 5.737 14.625 7.751 32.317 12.6 65.501 25.38 100.188 25.875 16.875.24 33.728-2.449 50.558-1.335 33.296 2.205 63.559 18.93 94.159 32.25s71.163 22.684 96.914 12.184c6.47-6.829-31.754-4.388-41.864-17.104-5.367-6.75-10.035-14.306-15.338-21.127-5.291-3.038-9.577-7.662-14.869-10.729-6.266-3.63-13.582-4.875-20.726-6.083l-94.702-15.866c-18.375-3.079-38.25-6-54.964-14.76-17.783-9.337-23.516-18.049-44.655-22.612-20.603-4.455-38.625-19.474-46.706-38.94l3.135.94c-13.444-7.124-26.689-14.624-39.792-22.334-7.965-4.695-16.031-9.54-25.012-11.726-5.063-1.23-10.324-1.587-15.308-3.102-14.347-4.36-18.712-.31-18.375.143 1.594 2.25.458 3.589-2.463 3.66-12.96.311-25.733-7.781-30.983-19.635-2.22-5.01-3.206-10.598-6.225-15.173s-9.206-7.856-13.999-5.193c11.689 16.432 9.428 40.158 22.159 55.796"/><path id="Z" d="M745.474 18.47l2.152 1.242 1.59.919.214.116c4.5 2.554 11.047 3.225 21.079 7.406 9.09 3.788 21.341 11.123 32.951 14.895 13.594 4.414 29.025 6.859 42.251 11.546 18.124 6.424 30.912 16.43 43.005 19.077 27.297 5.977 52.346.063 75.495 5.452a241.154 241.154 0 0 1 26.55 7.943c25.689 9.183 46.719 20.43 59.999 22.215 19.36 2.602 31.8 10.875 41.28 20.538 3.5.274 33.71 40.29 46.89 40.29 25.76 0 39.95-12.202 48.56-46.541l.63-2.434-.63 2.434.63-2.441c.02-.064.03-.128.05-.191l.66-2.397v-.033l.34-1.2.35-1.185v-.042l.54-1.766-.54 1.766.67-2.16.21-.671a54.9 54.9 0 0 1 .5-1.5l-.16.465.16-.465-1.42-.262c-1.93-.357-3.94-.818-5.39-2.145-2.11-1.943-2.39-5.119-2.52-7.984-.47-9.713-.38-20.824 6.84-27.323 9.02-8.1 22.97-4.125 35.01-2.71 16.99 1.99 34.25-2.25 51.23-.177 8.54 1.039 16.67 3.611 24.63 6.851l1.62.154.37.037 2.33.244h.13l2.12.244.5.06 1.99.251.29.038 2.29.318.34.05 1.93.292.51.082 2.15.375h.09l2.27.409.46.086 1.83.375.5.101 4.45.987.52.123 1.81.45.45.117 2.23.596.18.052 2.01.578.54.161 1.85.578.35.108 2.2.732.38.127 1.82.649.54.199 1.98.75.19.075 2.17.877.47.199 1.73.75.53.232 2.14.983.75.345a33.08 33.08 0 0 0 2.52 1.009l.11.04.73.248.18.06.66.207.23.067.61.176.26.072.59.153.29.072.56.135.3.067.55.116.32.064.54.105.32.06.54.09.33.056.53.08.34.048.52.067.35.042.51.06.36.037.51.053.38.03.51.04.37.027.51.034.38.022.48.027h.37l.52.022h5.65l.61-.022h.27l.65-.027h.24l.7-.033h.18l.79-.042h.09l2.09-.12 1.37-.082 1.58-.098.31-.018.32-.02h.11l.48-.018h2.85l.44.023.34.022.43.034.31.004.41.045.32.037.41.056.31.045.4.068.3.052.37.075.29.06.38.09.27.064.38.098.26.075.37.108.25.075.38.12.24.087.35.127.24.09.35.143.22.09.34.153.21.098.34.165.2.101.33.173.19.105.32.187.18.105.32.199.17.109.31.21.16.112.31.221.15.113c.1.079.21.154.3.236l.15.113c.1.078.19.16.29.247l.13.113.3.258.12.113a5.43 5.43 0 0 1 .29.274l.11.108.29.29.1.104c.1.101.19.203.28.308l.09.097a8.06 8.06 0 0 1 .28.323l.09.097.27.334.07.09.28.356c0 .026.04.056.06.083.1.123.19.247.28.375 0 .022.03.045.04.071.1.127.19.259.28.394l.04.06.27.416.03.045.27.439.02.03.28.465c2.55 4.477 3.89 10.072 5.03 15.795l.88 4.5-.88-4.478c.04.518 2.29 33.626 38.43 34.313V61.592c-4.03.66-8.06 1.279-12.06 1.744-15.75 1.833-31.11 1.346-44.17-8.09a46.577 46.577 0 0 1-4.46-3.664c-.58-.539-1.16-1.1-1.73-1.683a47.11 47.11 0 0 1-1.7-1.81c-8.6-9.657-13.85-21.376-14.57-33.582a39.37 39.37 0 0 1-.09-2.175v-.375a49.36 49.36 0 0 1 2.4-15.491l.34-1.017.11-.288c.08-.233.16-.462.25-.687.05-.112.09-.225.13-.337.09-.208.17-.41.25-.608l.15-.333c.08-.203.17-.398.26-.593l.13-.3.32-.652.09-.2.44-.824.06-.105c.12-.229.25-.454.37-.671l.15-.24c.1-.173.21-.345.31-.51.06-.09.12-.173.17-.26.1-.157.21-.314.31-.464l.17-.248c.11-.157.23-.31.34-.465l.16-.206c.14-.191.29-.375.44-.559l.06-.078c.17-.21.34-.417.52-.615l.12-.132.41-.442.19-.188.37-.375.2-.187.38-.341.19-.173c.13-.12.27-.232.41-.349l.16-.13a14.09 14.09 0 0 1 1.19-.882l.17-.113c.14-.097.29-.195.43-.285l.22-.13c.13-.087.27-.166.41-.248l.22-.128.42-.232.21-.11c.16-.085.33-.164.5-.247l.14-.07.66-.297.09-.038.57-.228.21-.083.46-.169.24-.082.44-.146.14-.045.11-.034.47-.139.22-.06a13.33 13.33 0 0 1 .59-.154l.11-.03.7-.16.2-.038.51-.105.27-.045.45-.08.28-.044.45-.064.29-.041.48-.056.25-.03.67-.064h.16l.63-.049h.29l.46-.026h.33l.42-.019h4.51l.37.019.41.022.38.023.42.026.32.023 1.08.082h.07l.51.045.27.023.49.045.27.026.53.049.21.022.57.06h.1l4.6.518 1.4.16.38.042 1.87.206h.16l1.8.18h.19l1.88.154 3.11.21 2.21.184.49.116 1.77.176.49.053 4.43.532.44.06 1.87.255.38.05 10.41 1.533.89.127 1.08.158 1.12.157 1.01.14.87.123v-101.974l-18.35 14.595-1.79 1.399c-23.71 18.409-51.77 30.409-76.81 46.939-10.57 6.978-19.6 16.068-29.85 23.508-19.31 14.022-34.58 24.162-59.06 28.07-17.45 2.782-35.96-2.31-52.94 2.572-14.85 4.267-25.27 18.375-39.65 24.037-15.64 6.158-33.03 6.491-49.22 11.033-11.9 3.322-22.92 9.408-34.88 12.49C1027.84 61.42 953.1 64.492 900.236 63.31l-.866-.022c-24.803-.705-21.608-7.346-43.575-14.288-15.638-4.946-31.901-7.706-47.625-12.345-12.713-3.75-24.75-9.75-37.646-12.79l-25.5-5.645.461.267-.011-.015zm697.906 97.096"/><path id="a" d="M646.646-27.125l.788.315 2.025.814 1.759.705 1.316.533 2.456.99.705.285 3.041 1.233.3.124 3.428 1.395.071.03c28.309 11.584 56.28 23.929 82.942 39.169-.157-.086-.307-.176-.465-.266 8.749 1.713 17.397 3.75 25.5 5.625 12.9 3.037 24.934 9.048 37.647 12.795 15.75 4.638 31.995 7.398 47.625 12.345 21.967 6.94 18.772 13.582 43.575 14.287l.866.023c52.875 1.18 127.605-1.875 182.095-15.923 11.96-3.082 22.99-9.169 34.88-12.491 16.19-4.526 33.58-4.845 49.22-11.018 14.38-5.67 24.8-19.77 39.65-24.037 16.98-4.875 35.49.21 52.94-2.573 24.48-3.907 39.75-14.047 59.06-28.068 10.25-7.44 19.28-16.53 29.85-23.51 25.05-16.514 53.11-28.514 76.82-46.923l1.79-1.399 18.35-14.595v-21.603c-14.18 12.817-24.7 22.316-44.26 31.702-45.44 21.81-95.16 23.329-142.03 41.843-58.9 23.25-112.01 60.097-168.67 87.75-30.86 15.045-70.51 19.5-103.505 25.672-6.503 1.215-12.412 5.194-19.009 5.704-95.089 7.384-126.547-20.074-204.667-47.603S633.401-36.357 633.12-34.857l-.397 2.164 13.923 5.553"/><path id="b" d="M417.792 62.53c21.408 9.603 40.335 27.116 57.607 47.302 3.135 3.664 4.875 6.945 5.475 9.844A223.376 223.376 0 01519 134.106c7.197 3.506 14.344 7.447 22.215 8.887 11.625 2.13 23.483-1.41 34.579-5.464 2.01-.731 4.125-1.552 5.468-3.21 1.923-2.358 1.826-5.775 1.125-8.737-4.167-17.599-24-26.299-41.802-29.539-18.75-3.412-38.306-3.787-55.995-10.875-5.396-2.167-10.53-4.931-15.652-7.687-17.453-9.401-34.976-18.84-50.94-30.596-12.308-9.064-25.643-20.085-40.796-18.083.04.852.118 1.699.236 2.539 9.109 10.875 21.544 22.762 40.354 31.203"/><path id="c" d="M417.793 62.529c-49.223-22.084-54.792-67.695-71.34-57.604-12.683 7.669 24.352 57.75 27.543 71.017 6.297 26.251-26.535 64.103 4.767 70.812s36.588-15.956 62.778-12.026 51.132-4.722 33.859-24.897-36.199-37.699-57.607-47.302"/><path id="d" d="M-4.669 123.978a16.34 16.34 0 0 0 3.319-.413c15.578-.116 14.25 25.219 24.592 37.365 9.488 11.141 22.913 17.119 44.907 9.176 15.18-5.478 31.391-13.608 44.07-26.37a77.107 77.107 0 0 0 14.531-20.171c12.443-25.102 18.75-66.225 23.925-77.917s10.646-19.22 13.815-23.704c22.781-32.25 42.506-76.159 45.334-115.654 5.392-75.375 1.38-11.816-6.694-59.314-6.75-39.75 8.13-72.952-10.702-113.666l-1.56-3.375c-3.349-7.222-6.154-22.822-8.502-27.75l-2.561-5.332-.457-1.5c-1.999-6.402 4.365-15.66-1.395-31.755l-3.375-9.345c-3.567-9.859-10.448-18.349-13.628-28.343-3.495-10.984-3.375-22.845-6.217-34.024-10.392-41.171-35.554-87.101-9.237-129.116a83.533 83.533 0 0 1 15.15-17.797 108.154 108.154 0 0 0-3.465 1.601c-4.031 2.584-8.028 4.972-12.187 6.84-13.403 8.707-25.875 21.116-37.695 39.66l-.904 1.429a76.77 76.77 0 0 1-.93 1.462l-.229.375.09-.075.158-.131.27-.203.12-.086.202-.139.117-.075c.105-.063.21-.127.315-.183l-.919 3.54-.48 1.875-.435 1.71-.503 1.983-.547 2.175-.278 1.107-.926 3.705-4.5 17.625-.056.221a589.574 589.574 0 0 1-2.367 8.651l-.056.203a476.148 476.148 0 0 1-1.18 4.068c-.027.102-.057.199-.087.297l-1.287 4.26c-3.528 11.276-13.398 14.49-23.74 16.271l-1.006.169-2.25.375c-23.869 3.772-29.715 12.832-24.484 36.135l.143.633.413 1.819.408 1.823c2.779 12.532 5.1 25.173 7.328 37.845l.446 2.535.034.172 1.252 7.2c2.697 15.315 11.074 25.286 22.992 30.893a43.83 43.83 0 0 0 1.5.678 51.54 51.54 0 0 0 3.12 1.223 58.292 58.292 0 0 0 6.645 1.916 85.62 85.62 0 0 0 1.74.375l6.937 1.414c6.75 1.365 13.568 2.576 20.168 2.625 11.763.075 22.856-3.57 31.732-16.748l.158-.232.198-.263c.589-.75 1.125-1.053 1.583-1.076.832-.037 1.481.836 1.976 1.808l.09.18a11.8 11.8 0 0 1 .173.375c.082.183.157.375.228.54l.78 1.972a156.078 156.078 0 0 1 1.8 4.849c17.374 49.151 5.273 89.801-58.927 104.835-1.553 7.249-3.593 14.449-4.586 21.787-2.49 18.323 1.578 36.882 1.29 55.369-.21 13.684-2.81 27.206-5.4 40.646-2.532 13.148-5.07 26.322-8.865 39.162-2.67 9.033-6.087 18.108-12.293 25.196-3.998 4.56-8.944 8.059-14.366 10.781l-.116 1.673a16.794 16.794 0 0 1-.154 1.275c0 .033 0 .067-.019.105a7.43 7.43 0 0 1-.109.55.139.139 0 0 0 0 .038 9.608 9.608 0 0 1-.195.66 5.35 5.35 0 0 1-.16.432l-.057.13a5.254 5.254 0 0 1-.248.48l-.832 1.5-.188.346-.776 1.5-.09.184-.652 1.335-.192.4-.667 1.448-.161.375c-.173.375-.338.784-.507 1.174l-.199.476-.57 1.4-.21.532-.374 1.008-.218.582a92.89 92.89 0 0 0-.48 1.316l-.255.716-.27.784-.439 1.294-.213.645-.315.967-.117.375c-1.957 6.143-3.588 12.401-5.512 18.566-6.461 20.96-23.471 29.588-42.956 34.617v66.495c.794.326 1.65.479 2.508.45"/><path id="e" d="M237.559-341.251l.697 2.048c30.469 87.675 89.753 153.356 160.875 210.375 42.968 34.41 90.874 60.071 140.127 83.625 7.5 3.593 20.137 9.428 24.704 1.646 3.072-5.287-1.994-9.288-7.166-13.372-2.512-1.98-5.044-3.979-6.682-6.154l-1.853-2.441a788.951 788.951 0 0 0-1.875-2.49 25.89 25.89 0 0 0 1.729.198c1.402.136 2.794.267 3.96.852 26.25 12.626 53.318 23.404 80.393 34.181l.281.113.397-2.164c.281-1.5 51.484 13.5 129.604 41.028s109.579 54.987 204.668 47.603c6.596-.51 12.506-4.5 19.008-5.704 33.004-6.169 72.654-10.627 103.504-25.672 56.65-27.653 109.76-64.478 168.66-87.739 46.87-18.514 96.59-20.032 142.03-41.843 19.56-9.375 30.09-18.885 44.26-31.702v-170.846l-7.42 1.057c-17.66 2.419-35.55 4.875-48.61 18.45-14.6 15.184-12.21 42.566 3.75 68.899l.54.911c17.87 29.97 13.74 44.228-16.93 61.928-15.28 8.831-31.32 17.973-47.86 18.468h.24c-54 14.34-107.35 29.794-158.93 51.102l-4.69 2.895c-13.54 8.647-26.08 18.836-39.75 27.326-7.68 4.778-16.75 7.178-24.14 12.401-26.98 19.069-6.53 15.319-33.94 24.75l-1.55.525c-16.79 5.625-47.29 13.298-61.13 2.25-13.605-10.845 1.96-13.5-18.311-14.921-11.25-.788-22.583 1.466-33.814.517-1.17-.097-1.736-2.79-.75-3.438l2.044-2.817c-17.194 3.623-35.648 9.465-40.804-3.843l-.964-.54c-13.061 1.5-26.55 2.718-40.5 3.896l-4.623.375c-25.077 2.078-68.337 4.612-97.973-2.25l-18.99-4.406c-53.625-12.484-16.639-4.695-74.063-29.374l-1.95-.836c-64.53-27.533-72.374-24.057-120.611-77.25l-3.941-4.369c-11.82-13.2-34.774-40.005-34.5-57.345.083-4.875 6.634-7.875 7.346-12.709 1.035-7.005-5.182-14.625-2.344-21.112 1.448-3.3 6.537 3.438 8.884 6.176l12.848 14.884c42.641 37.027 90.472 65.002 144.217 82.736 1.095.416 2.078 1.301 3.053 2.179l1.29 1.125a42.55 42.55 0 0 0-.912 1.147 22.858 22.858 0 0 1-2.306 2.666c-11.448 10.212-2.835 14.505 3.87 17.847l2.344 1.2 2.002 1.125c18.327 10.072 38.408 15.228 58.5 20.389l21.469 5.756a19.443 19.443 0 0 1 4.043 2.051c.622.375 1.245.75 1.875 1.091-.75.135-1.5.319-2.25.499-1.752.427-3.518.855-5.25.701-39.075-3.142-76.575-13.091-113.479-25.736l-.289-.098a61.61 61.61 0 0 1-3.183-1.215c-5.037-1.995-10.999-4.353-12.619-.93-2.194 4.632 3.581 8.007 8.332 10.782l2.595 1.56 1.448.922c46.875 29.591 99.705 40.875 153.611 48.3l3.334.454c79.646 10.77 152.929-5.91 220.971-49.301 6.04-3.852 12.42-7.189 18.78-10.5 18.1-9.458 36-18.818 45.15-39.687 6.15-14.081 7.47-29.025 8.78-43.965.62-7.046 1.24-14.088 2.37-21.045l.09-.536c2.58-15.622 7.98-28.759 25.81-32.752l.27-.064c3.75-.99 3.4-4.331.33-6.818-21-16.762-41.11-10.533-47.36 14.625 4.32 20.738 3.74 42-6.82 60.72-1.87 3.293-5.24 5.535-8.44 7.579l-4.18 2.674-.99.622-1.25.792-1.33.836-1.22.75-1.37.847-1.22.75-1.39.852-1.2.731-1.44.866-1.17.694-1.59.945-1.01.589-2.62 1.5-.54 1.222c-20.76 46.099-75.918 86.704-132.85 95.322a313.678 313.678 0 0 1-78.521 2.167c-1.654-.206-3.274-.877-4.875-1.545-.72-.3-1.437-.596-2.153-.847l1.542-.473a38.342 38.342 0 0 1 4.672-1.249l8.25-1.53c16.26-2.94 32.528-5.88 46.609-15.603 1.725-1.216 2.865-3.293 4.005-5.37.54-.983 1.08-1.965 1.683-2.858-.915-.48-1.822-1.08-2.733-1.676-1.916-1.26-3.844-2.532-5.876-2.734-10.875-1.054-21.807-1.721-32.742-2.389-30.244-1.845-60.51-3.694-89.625-13.695-1.125-.375-2.351-.75-3.626-1.125-5.479-1.582-11.625-3.375-11.569-9.127a6.244 6.244 0 0 1 1.046-3.559 141.996 141.996 0 0 1-27.277-2.648c-1.913-.375-3.874-.813-5.46-1.946s-2.715-3.127-2.25-5.017a51.418 51.418 0 0 1 21.09-1.024c3.705.592 7.44 1.594 11.149 1.046 1.695-.247 3.33-.817 5.025-1.027 4.462-.559 8.929 1.38 13.41 1.005 3.791-.319 7.226-2.25 10.803-3.54 1.354-.488 3.113-.784 4.02.33.668.817.488 2.055-.135 2.925l.75-.199c22.437-6.026 44.895-12.06 65.145-24.274 39.075-23.49 42.518-60.296 6.886-88.575l-9.9-7.92-.038-.03c-30.814-24.776-63.236-50.846-103.163-50.171-28.758.491-56.797-3.356-84.749-7.189-23.055-3.161-46.058-6.315-69.375-7.027-6.81-.225-16.242-.075-17.592 7.631-1.271 7.031 3.297 15.037 9.507 19.901 7.796 6.113 16.316 11.22 24.836 16.328 13.162 7.875 26.317 15.78 36.769 27.375 6.963 7.631 11.227 18.626 5.763 27.528-4.601 7.47-13.425 4.298-20.748 1.669l-1.917-.682-2.179-.75c-30.75-10.695-56.392-29.85-81-50.528l-2.377-2.002a10.66 10.66 0 0 0-1.792-1.095 24.35 24.35 0 0 1-1.125-.627c.097.27.183.552.27.837a6.5 6.5 0 0 0 .997 2.25c42.892 53.19 117.596 99.945 195.221 90.75l.308-.038 1.249-.131c4.773-.484 10.181-1.035 12.067-7.163v-.75l-2.685-1.905-19.62-14.025a15.036 15.036 0 0 1-2.422-2.55 20.905 20.905 0 0 0-.867-1.042c.623.075 1.264.101 1.902.124 1.282.052 2.561.101 3.708.547 3.045 1.17 6.158 2.561 9.308 3.968 12.956 5.786 26.527 11.846 38.452 3.963l.619-.401c17.179-10.991 28.74-3.679 40.657 3.855 2.209 1.399 4.433 2.801 6.705 4.103l.375.221c9.987 5.884 8.566 13.624-.086 20.126-29.49 22.144-63.622 22.965-98.134 19.823l-1.601-.15c-52.818-5.063-101.092-22.538-137.85-61.875l-1.087-1.152c-5.888-6.18-12.177-12-18.462-17.786-12.341-11.392-24.667-22.766-33.896-36.945l-.615-.934-2.797-4.151c-9.034-13.316-18.792-27.694-11.562-44.066 7.287-16.605 23.907-18.653 39.885-20.625l6.998-.915 1.103-.161c2.797-.424 5.606-.784 8.422-1.125a8.034 8.034 0 0 1-.349-.225c-.93-.66-.626-2.187.499-2.355h.187l21.709.146 4.125-.551c2.145-.27 4.23-2.037 6-3.69l.604-.574c.3-.229-1.5-3.518-2.921-4.639-31.737-25.5-114.525-29.25-147.837-6.75-15.836 10.699-24.967 26.351-32.452 43.253l-1.5 3.45c-23.959 54.491-38.28 56.718-83.783 15.75-24.551-22.125-45.284-47.355-63.922-74.513l-.161-.225a63.38 63.38 0 0 1-.87-1.309c-2.055-3.12-4.407-6.701-8.179-5.422-2.25.75-3.967 6.585-3.892 10.024.75 32.692 12.277 61.717 30.465 88.5l.228-.222-2.373-4.957c-8.104-16.875-16.219-33.769-18.195-52.838-.068-.558-.158-1.147-.248-1.747-.536-3.499-1.125-7.436 2.569-8.648 2.25-.75 6.75 2.693 9.056 5.25l3.075 3.353c23.58 25.684 47.865 50.659 76.271 71.25s46.185 15.337 60.409-16.68c1.763-3.96 3.431-7.984 5.1-12 8.625-20.775 17.25-41.599 38.76-53.82 1.099-.649 2.228-1.196 3.375-1.733l1.717-.81c9.657-4.563 19.688-6.956 30.469-5.76-2.524.66-5.073 1.253-7.627 1.845-5.561 1.294-11.141 2.592-16.478 4.59-12.637 4.729-21.431 12.66-28.207 22.264 3.506-3.097 7.5-5.67 11.546-8.126l.285-.173 1.575-.956c4.616-2.794 9.296-5.625 14.452-7.2 6.469-1.995 13.366-1.961 20.134-1.909 13.939.109 28.215.282 41.25 5.205a41.47 41.47 0 0 1-23.865 5.52c-8.625-.645-17.539-3.978-25.714-1.098-.322.112-.641.236-.952.375l-.311.138c-.206.09-.413.18-.612.278l-.375.184c-.18.09-.356.18-.532.277l-.375.214-.491.289-.375.24a13.22 13.22 0 0 0-.462.307l-.375.263a6.96 6.96 0 0 0-.438.326l-.349.281-.42.345-.337.3c-.135.12-.271.24-.402.375l-.326.315-.375.375-.315.334-.375.401-.304.345a20.05 20.05 0 0 0-.352.42 4.898 4.898 0 0 0-.285.375c-.094.139-.229.293-.341.439a7.385 7.385 0 0 0-.274.375l-.326.465c-.087.124-.173.244-.255.375s-.218.326-.323.491l-.236.375a25.28 25.28 0 0 0-.319.525l-.214.375a14.86 14.86 0 0 0-.326.581l-.18.319-.401.75-.079.154-.457.941a9.106 9.106 0 0 0-.128.289l-.304.671c-.056.124-.105.251-.161.375l-.247.593-.166.416-.221.57-.157.435-.203.562-.154.45c-.048.15-.127.375-.187.555l-.146.462-.173.551c-.056.176-.094.311-.139.469l-.161.555-.127.465-.15.558-.12.465-.135.563-.113.469-.124.555-.105.468-.116.563-.09.457-.108.574-.083.446a63.736 63.736 0 0 0-.319 1.95 12.309 12.309 0 0 1-.483 2.067v.045c-.642 11.745 1.597 23.625 2.662 35.426.529 5.85.75 11.771-.135 17.576-2.018 13.039-9.574 24.604-12.574 37.455a33.678 33.678 0 0 0-.956 9c.152.5.314 1 .484 1.5.052.165.112.33.168.495l.349 1.001.214.589.338.9.239.615.349.863.259.622a28.64 28.64 0 0 0 .375.851l.266.608.409.892.255.548.668 1.372.022.042.465.9.232.45.102.191.345.626.337.619.154.277.679 1.174.191.326.203.33.483.792c.071.12.146.236.221.375l.222.341.472.75.244.375c.049.079.101.154.154.229l.558.828.256.375c.157.229.322.454.483.683a7.4 7.4 0 0 1 .255.375l.251.345.132.176.641.866.232.297c.192.251.375.502.585.75l.244.315.105.123c1 1.25 2.036 2.462 3.109 3.634l.09.098.788.84.412.438a.378.378 0 0 1 .049.049l.667.679.518.521.375.375.3.293c.191.183.375.375.573.551l.57.529.106.093.618.57.398.345.27.244.656.566.176.15.488.413.69.566.3.244.375.289.72.562.037.026.619.477.75.562.649.473.798.562.634.435.859.574.154.101.442.289.983.619.498.311 1.5.889c3.75 2.16 7.733 3.99 11.202 6.588 4.005 3 7.203 6.915 10.653 10.534a96.176 96.176 0 0 0 22.954 17.734c2.558 1.417 5.336 2.872 6.683 5.467s.206 6.627-2.7 6.945a323.964 323.964 0 0 0-40.106-23.463c-3.477-1.71-7.088-3.435-9.668-6.327-1.98-2.216-3.221-4.968-4.654-7.567-7.657-13.875-20.838-23.423-29.737-36.375-8.666-12.608-14.828-27.671-21.717-41.314-2.186-4.331-4.372-8.711-5.651-13.391-1.62-5.914-1.747-12.116-1.875-18.244-.127-6.626-.251-13.297.885-19.822.026-.162.06-.323.09-.488-2.276 5.891-4.62 11.768-7.286 17.471-4.612 9.81-9.375 16.778-14.73 21l.206-.157c-8.587 12.712-18.647 17.915-30.18 15.607-4.653-.93-8.902-6.157-13.398-5.073-.75.198-1.125.333-1.433 1.02-.769 1.841 1.365 5.658 2.651 7.822l.109.18a37.742 37.742 0 0 0 9.577 10.781c-.843-3.307-.588-6.84 1.902-7.98 5.227-2.396 10.597 7.362 16.185 6 5.302-1.305 5.771-9.847 10.5-12.555 3.33-1.901 10.601-3.75 11.505 0 1.286 5.299-6.236 9.102-8.048 14.25-.84 2.397-1.586 6 .375 7.602 6.117 5.085 20.906 8.891 33.596 19.912s21.953 24.443 32.625 43.793c7.74 6.176 15.192 12.397 22.186 18.633-.375-.307-.75-.611-1.152-.911a306.185 306.185 0 0 1 6.131 5.674l.623.596-.536-.221c19.327 7.987 37.192 18.836 55.061 29.692 12 7.302 24.045 14.607 36.521 21.046 83.25 42.866 172.391 66.506 264.086 82.214l3.818.66c34.339 6 44.52 27 19.297 20.15-123-33.357-245.924-66.702-362.579-121.576l-25.62-11.861c-53.982-24.784-107.562-49.388-149.764-92.723-48.278-49.601-89.524-104.212-97.909-176.178-3.517-30.597 3.071-58.275 29.494-77.802 1.83-1.372 4.211-1.95 6.607-2.531l.27-.067a2.352 2.352 0 0 1 2.042.463 2.35 2.35 0 0 1 .658.85c.152.33.225.69.214 1.053v.034c-.064 2.175-.131 4.335-.731 6.333-14.145 47.43 30.615 127.624 78.671 140.94 23.452 6.533 37.046-7.5 48.772-23.152l1.763-2.381c22.571-30.315 50.831-50.749 89.07-56.082.997-.15 1.928-.697 2.861-1.248.465-.274.93-.548 1.407-.773-.477-.199-.942-.442-1.41-.682a9.486 9.486 0 0 0-2.858-1.125c-9.034-1.609-17.869-.075-26.625 1.965l-1.811.431a36.073 36.073 0 0 1-3.12.506l-2.123.315a31.29 31.29 0 0 0 1.924-1.17 21.162 21.162 0 0 1 2.94-1.672l14.216-6.225 9.75-4.249.375-.161c5.108-2.277 8.415-4.875 9.439-11.884l.064-.375c1.174-6.24 7.785-5.453 13.125-4.815l.352.041.473.056.487.053 2.704.266c36.634 3.694 70.358 17.16 104.044 30.615l13.076 5.198 4.5 1.762.904.349.956.375 1.74.675c16.091 6.229 32.303 12.506 45.401 24.439 8.907 8.156 9.581 17.283 1.421 26.25l-.285.318c-5.936 6.672-2.804 9.634 3.777 11.824l.626.203c8.422 2.625 17.119 1.665 25.691.708 8.723-.971 17.318-1.931 25.358.938 50.227 18.03 96.566 43.466 128.152 88.054 15.945 22.5 4.939 48.172-24.701 68.67-16.001 11.013-33.93 17.76-51.881 24.517l-14.891 5.708c-.57.221-1.17.435-1.782.652-3.96 1.406-8.396 3-8.396 7.65.067 4.92 4.804 6.296 8.906 7.5l.334.098 2.756.825c32.94 9.648 66.619 8.835 100.384 7.098l3.27-.168 27.994-1.197h.892c4.208-.093 8.91-.198 10.935 4.125 1.665 3.555-.409 6.45-2.445 9.293-.619.866-1.233 1.729-1.74 2.603-.532.952-1.226 1.987-1.931 3.033-1.792 2.659-3.634 5.4-2.936 7.065 1.391 3.375 5.28 2.861 8.854 2.378.847-.113 1.676-.225 2.448-.282l1.204-.1c39.72-3.605 82.875-37.021 103.165-75.376l-.12.06-2.18 1.099-1 .491-.99.488-.24.412c-13.9 24.503-35.301 42.656-63.745 54.683-7.935 3.375-14.074 3.217-13.024-9.499l.045-.596c1.099-16.617-10.455-15-20.122-13.658-1.59.221-3.128.435-4.549.559l-5.441.517-10.53 1.058h-.064l-21.139 2.025-6.33.986-4.837.769-1.448.232-3.975.642-1.5.247-4.342.724-1.099.184a979.35 979.35 0 0 0-5.584.952 49.69 49.69 0 0 1-7.755.533c-7.931.033-18.27-1.073-23.359-3.863-1.095-.6-1.758-1.766-2.174-3.041l-2.686-.405c-4.458-.701-9.123-1.815-9.929-6.653-.78-4.683 3.547-7.098 7.5-9.303.971-.544 1.916-1.073 2.759-1.62l1.392-.893 7.357-4.639c11.078-6.933 22.125-13.837 31.823-22.893 22.83-21.248 27.319-49.223 7.5-73.163-31.909-38.554-74.666-62.966-118.279-85.796l-5.756-3c-2.25-1.125-5.014-2.093-7.335-1.796-16.722 1.908-34.429-13.377-44.858-31.242-1.297-2.223 1.294-4.687 3.458-3.288 15.45 10.001 31.395 26.891 43.159 29.002 9.825 1.763 19.728 3.536 27.66 9.866l2.625 2.082c12.071 9.375 24.862 17.85 37.657 26.328h.023c10.365 6.87 20.737 13.744 30.723 21.094-.266-2.452 1.384-4.571 3.33-5.816l-1.901-1.384-5.366-3.855-9.75-7.057c-20.948-15.218-42.034-30.537-64.774-42.544-20.569-10.875-40.654-22.733-60.75-34.598-49.875-29.456-99.75-58.935-157.238-73.278-51.945-13.017-101.501-13.542-146.711 20.122-2.546 1.946-5.092 4.339-6.813 7.035-.375.596-.784 1.189-1.182 1.785-3.142 4.71-10.545 13.523-4.803 15.795l5.114-2.062c3.252-1.875 3.353-4.287 7.459-7.29.919-.645 1.898-1.204 2.88-1.767l1.193-.69a.478.478 0 0 1 .63.134.48.48 0 0 1 .082.219l.12.934c.217 1.202.276 2.427.176 3.645-.75 6.581.525 9.948 8.625 8.602l1.598-.285c5.944-1.069 13.376-2.411 16.665 3.278 2.906 5.051-1.046 8.977-4.748 12.652-1.061 1.058-2.103 2.089-2.954 3.124-10.778 13.241-21.559 26.482-33 39.049-15.12 16.608-32.412 16.758-49.553 3.442-20.959-16.384-37.8-36.431-49.181-60.671-8.228-17.554-7.808-34.283.671-49.358 5.059-15.108 18.649-28.41 40.71-40.155 24.375-12.956 50.411-19.207 76.781-24.131 1.459-.81 2.768-2.085 4.069-3.349l1.271-1.218a1.1 1.1 0 0 0 .101-1.534 39.66 39.66 0 0 1-1.207-1.5c-1.264-1.613-2.528-3.225-4.125-3.773-35.554-12.495-75.975-22.875-106.369-1.125-30.465 21.75-61.305 49.148-75.078 88.05-11.277 31.909-7.437 63.458 2.895 94.159l-.109-.199zm510.461 66.447c-29.063-1.215-72.514 28.972-88.62 4.747l-1.676-3.21c-10.71-16.125 11.029-11.67 25.969-12.375 10.537-.51 21.476-2.591 32.306-4.155l-1.778.375-1.039.218 14.625-3 13.767-2.757a6.142 6.142 0 0 1 1.549-.108c30.108 1.811 50.865 16.125 70.875 31.552l4.32 3.341c.266.162.341.585.42 1.009.03.169.059.338.101.488a8.344 8.344 0 0 0-.96-.083 3.868 3.868 0 0 1-1.583-.292 310.368 310.368 0 0 0-31.286-12.852l1.777 1.125a1.896 1.896 0 0 1 .09 3.154c-11.576 8.123-25.874-6.596-38.846-7.125l-.011-.052zm75.386 109.74c17.738-8.884 31.05-26.565 3.529-43.943-16.875-10.661-37.264-14.482-55.267-23.126-5.329-2.561-3.567-9.728 1.571-11.453a72.044 72.044 0 0 1 18-3.663v-.038l.247-.097 2.558-1.024 1.23-.491 2.103-.855c31.962.6 69.837 24.611 73.283 45.258 2.393 14.438-17.966 38.378-32.711 38.303a3.302 3.302 0 0 1-1.125-.255l-.375-.12-.252-.075c.087-.229.173-.469.256-.713a8.568 8.568 0 0 1 1.016-2.205l1.308-1.773-.933 1.263c-3.507 1.932-7.125 3-12 4.35l-2.509.683.071-.026z"/></defs></svg>