<svg width="24" height="24" viewBox="0 0 24 24" fill="none" xmlns="http://www.w3.org/2000/svg">
<path fill-rule="evenodd" clip-rule="evenodd" d="M12 2C17.523 2 22 6.47701 22 12C22 17.523 17.523 22 12 22C6.47701 22 2 17.523 2 12C2 6.47701 6.47701 2 12 2ZM7.04933 12.1298C6.68027 11.7216 6.7121 11.0912 7.11955 10.7229C7.52781 10.3539 8.15818 10.3857 8.52643 10.7932L11.0177 13.5457L16.4002 7.98588C16.7847 7.59069 17.4159 7.5817 17.8111 7.96628C18.2063 8.35087 18.2153 8.98204 17.8307 9.37723L11.7093 15.7004L11.7076 15.6988C11.6929 15.7135 11.6774 15.729 11.6619 15.7429C11.2545 16.1119 10.6241 16.0809 10.255 15.6726L7.04852 12.1306L7.04933 12.1298Z" fill="#B3E3FF"/>
</svg>
