<svg width="20" height="21" viewBox="0 0 20 21" fill="none" xmlns="http://www.w3.org/2000/svg">
<path fill-rule="evenodd" clip-rule="evenodd" d="M9.60072 0.998169C12.1643 0.998169 14.5742 1.99657 16.3883 3.81097C18.2024 5.62345 19.1998 8.03497 19.1998 10.5982C19.1998 13.1614 18.2024 15.571 16.3883 17.3854C14.5761 19.1998 12.1643 20.1982 9.60072 20.1982C4.30635 20.1982 -0.000244141 15.8916 -0.000244141 10.5982C-0.000244141 5.30473 4.30635 0.998169 9.60072 0.998169ZM13.9491 13.1821C14.0196 12.1667 13.6765 11.3287 12.9126 10.6461C12.27 10.0723 11.4363 9.69281 10.6679 9.34301L10.6401 9.33032L10.6344 9.32844C9.94234 9.01262 9.3375 8.73383 8.91018 8.38469C8.49559 8.04594 8.26937 7.65885 8.30496 7.11322C8.33285 6.74533 8.60056 6.50644 8.86518 6.36207C9.15566 6.20253 9.55159 6.10375 9.91788 6.10375C9.9593 6.10375 10.0017 6.10537 10.047 6.10725C11.1448 6.18159 12.0139 6.64112 12.8837 7.63324L13.0917 7.87819L13.3383 7.66917L13.6941 7.36006L13.9389 7.14512L13.7249 6.9018C12.6817 5.70676 11.5309 5.08885 10.1203 4.99287C10.0529 4.98632 9.98394 4.98439 9.91403 4.98439H9.91239C9.87422 4.98439 9.82775 4.98439 9.77851 4.98631H9.7257C8.80059 4.98631 7.79166 5.28804 7.01997 5.79799C6.09548 6.40902 5.54943 7.27053 5.53444 8.23304C5.51585 9.36645 5.97625 10.1363 6.64152 10.6961C7.2848 11.2374 8.12149 11.583 8.86736 11.891L8.8842 11.8979L8.89161 11.9017L8.91496 11.9104C9.59524 12.192 10.1869 12.4389 10.6108 12.7652C11.0194 13.0797 11.2546 13.4543 11.2439 14.0057L11.2439 14.0071C11.2399 14.3038 11.0252 14.5704 10.6474 14.7764C10.2754 14.9793 9.80323 15.0874 9.42399 15.0874H9.25735C8.10884 15.0388 7.07531 14.5367 6.18048 13.5774L5.96129 13.3438L5.72477 13.5579L5.37875 13.8785L5.14106 14.1011L5.36269 14.3373C6.47848 15.5375 7.86678 16.1925 9.3769 16.2106H9.44513C10.4107 16.2106 11.4598 15.9523 12.2589 15.5109C13.2622 14.9631 13.8843 14.1416 13.9491 13.1821ZM9.37981 15.9706H9.44515C9.44514 15.9706 9.44514 15.9706 9.44513 15.9706H9.37979L9.37981 15.9706ZM5.57932 14.2173C6.23372 14.9089 6.97945 15.4045 7.7851 15.6888C7.00655 15.4141 6.28396 14.9421 5.64567 14.2864C5.62434 14.2645 5.60311 14.2424 5.58197 14.2201L5.57932 14.2173ZM5.53827 14.1735L5.54095 14.1764L5.53825 14.1735L5.4806 14.1121L5.48062 14.1121L5.53827 14.1735ZM9.30679 15.3294L9.30676 15.3294L9.30679 15.3286V15.3294ZM11.4841 14.0103C11.4787 14.4081 11.209 14.7224 10.838 14.944C11.2089 14.7224 11.4787 14.4081 11.4841 14.0103C11.5091 12.7243 10.3491 12.2442 9.0045 11.6877L9.00452 11.6877C10.3491 12.2442 11.5091 12.7243 11.4841 14.0103ZM5.77465 8.23687C5.74011 10.3397 7.45819 11.0493 8.97645 11.6763L8.97642 11.6763C7.45817 11.0493 5.74009 10.3397 5.77463 8.23687C5.78808 7.37095 6.27812 6.57607 7.15251 5.99815C7.37883 5.84859 7.62718 5.71775 7.88826 5.60834C7.62719 5.71775 7.37884 5.8486 7.15253 5.99815C6.27814 6.57607 5.7881 7.37095 5.77465 8.23687ZM8.97645 11.6763L8.98394 11.6794L8.98776 11.6814L8.98391 11.6794L8.97645 11.6763ZM13.0657 7.47655C12.6773 7.03333 12.285 6.68873 11.871 6.4335C12.285 6.68873 12.6773 7.03332 13.0657 7.47655L13.1195 7.53991L13.1195 7.53991L13.0657 7.47655ZM10.0601 5.86759C10.014 5.86567 9.96593 5.86375 9.9179 5.86375C9.96594 5.86375 10.014 5.86567 10.0601 5.86759C10.1335 5.87251 10.2059 5.87907 10.2774 5.88728C10.2059 5.87906 10.1335 5.87251 10.0601 5.86759ZM8.29019 8.99335C8.83789 9.46183 9.57967 9.79783 10.2965 10.1223L10.3099 10.1281L10.3164 10.131L10.3164 10.131C11.0731 10.4794 11.7892 10.8091 12.3085 11.2666C12.885 11.7735 13.1291 12.361 13.0772 13.1156C13.0292 13.8625 12.4738 14.3617 11.9684 14.6631C12.0664 14.4634 12.1202 14.2465 12.126 14.0161C12.1375 13.2404 11.8396 12.6202 11.2131 12.1172C10.67 11.6812 9.95121 11.3849 9.25338 11.0973L9.23568 11.09C7.77325 10.489 6.39152 9.92071 6.41651 8.24263C6.42419 7.59751 6.81238 6.98695 7.50997 6.52423C7.53303 6.50887 7.55609 6.49351 7.58107 6.47815C7.49844 6.65863 7.45232 6.84679 7.44079 7.04455C7.38506 7.82215 7.66371 8.45959 8.29019 8.99335ZM9.78335 5.22631C9.82948 5.22439 9.87368 5.22439 9.91403 5.22439C9.87368 5.22439 9.82949 5.22439 9.78338 5.22631L9.78335 5.22631ZM9.49865 18.3838C5.27742 18.3838 1.83653 14.9006 1.83653 10.6127C1.83653 6.32481 5.27742 2.84153 9.49865 2.84153C13.7199 2.84153 17.1608 6.32481 17.1608 10.6127C17.1608 14.9006 13.7199 18.3838 9.49865 18.3838ZM9.49865 1.99544C11.7685 1.99544 13.9022 2.89163 15.5085 4.52029C17.1147 6.14723 17.9978 8.31188 17.9978 10.6127C17.9978 12.9135 17.1147 15.0764 15.5085 16.7051C13.9039 18.3337 11.7685 19.2299 9.49865 19.2299C4.81093 19.2299 0.997803 15.3642 0.997803 10.6127C0.997803 5.86114 4.81093 1.99544 9.49865 1.99544Z" fill="#040506"/>
</svg>
