<svg width="20" height="21" viewBox="0 0 20 21" fill="none" xmlns="http://www.w3.org/2000/svg">
<path fill-rule="evenodd" clip-rule="evenodd" d="M16.3883 3.81109C14.5742 1.99669 12.1643 0.998291 9.60072 0.998291C4.30635 0.998291 -0.000244141 5.30485 -0.000244141 10.5983C-0.000244141 15.8917 4.30635 20.1983 9.60072 20.1983C12.1643 20.1983 14.5761 19.1999 16.3883 17.3855C18.2024 15.5711 19.1998 13.1615 19.1998 10.5983C19.1998 8.03509 18.2024 5.62357 16.3883 3.81109ZM12.9126 10.6463C13.6765 11.3288 14.0196 12.1668 13.9491 13.1822C13.8843 14.1417 13.2622 14.9632 12.2589 15.511C11.4598 15.9524 10.4107 16.2108 9.44513 16.2108H9.3769C7.86678 16.1926 6.47848 15.5376 5.36269 14.3374L5.14106 14.1013L5.37875 13.8786L5.72477 13.558L5.96129 13.3439L6.18048 13.5775C7.07531 14.5368 8.10884 15.0389 9.25735 15.0876H9.42399C9.80323 15.0876 10.2754 14.9794 10.6474 14.7766C11.0252 14.5706 11.2399 14.3039 11.2439 14.0072L11.2439 14.0058C11.2546 13.4544 11.0194 13.0799 10.6108 12.7654C10.1869 12.4391 9.59524 12.1921 8.91496 11.9105L8.89161 11.9018L8.8842 11.8981L8.86736 11.8911C8.12149 11.5831 7.2848 11.2375 6.64152 10.6962C5.97625 10.1364 5.51585 9.36658 5.53444 8.23316C5.54943 7.27065 6.09548 6.40914 7.01997 5.79811C7.79166 5.28816 8.80059 4.98643 9.7257 4.98643H9.77851C9.82775 4.98451 9.87422 4.98451 9.91239 4.98451H9.91403C9.98394 4.98451 10.0529 4.98644 10.1203 4.99299C11.5309 5.08897 12.6817 5.70689 13.7249 6.90192L13.9389 7.14524L13.6941 7.36018L13.3383 7.66929L13.0917 7.87831L12.8837 7.63337C12.0139 6.64124 11.1448 6.18171 10.047 6.10738C10.0017 6.10549 9.9593 6.10387 9.91788 6.10387C9.55159 6.10387 9.15566 6.20266 8.86518 6.36219C8.60056 6.50656 8.33285 6.74545 8.30496 7.11334C8.26937 7.65897 8.49559 8.04606 8.91018 8.38481C9.3375 8.73396 9.94234 9.01275 10.6344 9.32856L10.6401 9.33045L10.6679 9.34313C11.4363 9.69293 12.27 10.0725 12.9126 10.6463ZM10.5463 9.55219C9.17032 8.92435 7.98077 8.38099 8.06533 7.09651C8.10184 6.60691 8.45736 6.31123 8.74946 6.15187C9.07808 5.97139 9.51431 5.86387 9.91788 5.86387C9.96592 5.86387 10.014 5.86579 10.0601 5.86771C11.2343 5.94643 12.1605 6.44371 13.0657 7.47667L13.1195 7.54003L13.1829 7.48627L13.5365 7.17907L13.5999 7.12339L13.5442 7.06003L13.5046 7.01499C13.4833 6.99099 13.462 6.96724 13.4406 6.94375C12.4603 5.86507 11.3942 5.31935 10.1004 5.23219C10.0428 5.22643 9.98129 5.22451 9.91403 5.22451C9.87368 5.22451 9.82948 5.22451 9.78335 5.22643H9.7257C8.84747 5.22643 7.88469 5.51443 7.15251 5.99827C6.27812 6.57619 5.78808 7.37107 5.77463 8.23699C5.74009 10.3398 7.45817 11.0494 8.97642 11.6765L8.98391 11.6796L8.98776 11.6815L9.00313 11.6872L9.0045 11.6878C10.3491 12.2444 11.5091 12.7245 11.4841 14.0104C11.4726 14.8591 10.258 15.3276 9.42399 15.3276H9.30682L9.30676 15.3295L9.27813 15.3285L9.25232 15.3276C9.19006 15.325 9.12813 15.3212 9.06655 15.3161C7.92003 15.2215 6.89121 14.6914 6.00523 13.7416L5.94759 13.6802L5.88609 13.7359L5.5421 14.0546L5.4806 14.1122L5.53825 14.1736L5.58197 14.2202C5.60311 14.2425 5.62434 14.2647 5.64567 14.2866C6.70223 15.3718 7.9898 15.954 9.37979 15.9708H9.44513C10.3733 15.9708 11.3822 15.7212 12.1432 15.3007C13.0964 14.7804 13.6518 14.022 13.7095 13.1656C13.7748 12.2248 13.4615 11.4588 12.7524 10.8252C12.1375 10.276 11.3323 9.90931 10.552 9.55411L10.5463 9.55219ZM9.49865 18.384C5.27742 18.384 1.83653 14.9007 1.83653 10.6128C1.83653 6.32494 5.27742 2.84165 9.49865 2.84165C13.7199 2.84165 17.1608 6.32494 17.1608 10.6128C17.1608 14.9007 13.7199 18.384 9.49865 18.384ZM9.49865 1.99556C11.7685 1.99556 13.9022 2.89176 15.5085 4.52041C17.1147 6.14735 17.9978 8.312 17.9978 10.6128C17.9978 12.9136 17.1147 15.0765 15.5085 16.7052C13.9039 18.3339 11.7685 19.23 9.49865 19.23C4.81093 19.23 0.997803 15.3644 0.997803 10.6128C0.997803 5.86126 4.81093 1.99556 9.49865 1.99556Z" fill="black"/>
<path d="M12.7525 10.8253C12.1376 10.2761 11.3324 9.90941 10.5522 9.55421L10.5464 9.55229C9.17043 8.92445 7.98088 8.38109 8.06544 7.09661C8.10195 6.60701 8.45747 6.31133 8.74958 6.15197C9.07819 5.97149 9.51442 5.86397 9.91799 5.86397C9.96603 5.86397 10.0141 5.86589 10.0602 5.86781C11.2344 5.94653 12.1606 6.44381 13.0658 7.47677L13.1196 7.54013L13.183 7.48637L13.5366 7.17917L13.6 7.12349L13.5443 7.06013C12.5354 5.90429 11.44 5.32253 10.1006 5.23229C10.0429 5.22653 9.98141 5.22461 9.91415 5.22461C9.87379 5.22461 9.82959 5.22461 9.78347 5.22653H9.72581C8.84758 5.22653 7.8848 5.51453 7.15262 5.99837C6.27823 6.57629 5.78819 7.37117 5.77474 8.23709C5.74015 10.3433 7.46394 11.0518 8.98403 11.6797L8.98787 11.6816L9.00324 11.6873C10.3485 12.2441 11.5092 12.7241 11.4842 14.0105C11.4727 14.8592 10.2581 15.3277 9.4241 15.3277H9.38951H9.30688V15.3296C8.06352 15.2931 6.95276 14.7574 6.00535 13.7417L5.94769 13.6803L5.8862 13.736L5.54221 14.0547L5.48071 14.1123L5.53836 14.1737C6.61453 15.3315 7.94245 15.9536 9.3799 15.9709H9.44524C10.3734 15.9709 11.3823 15.7213 12.1434 15.3008C13.0965 14.7805 13.6519 14.0221 13.7096 13.1657C13.7749 12.2249 13.4617 11.4589 12.7525 10.8253ZM8.29028 8.99357C8.83798 9.46205 9.57976 9.79805 10.2966 10.1225L10.31 10.1283C11.0691 10.4777 11.7878 10.808 12.3086 11.2669C12.8851 11.7737 13.1292 12.3613 13.0773 13.1158C13.0293 13.8627 12.4739 14.3619 11.9685 14.6633C12.0665 14.4637 12.1203 14.2467 12.1261 14.0163C12.1376 13.2406 11.8397 12.6205 11.2132 12.1174C10.6655 11.6777 9.93913 11.3801 9.23577 11.0902C7.77334 10.4893 6.39161 9.92093 6.4166 8.24285C6.42428 7.59773 6.81247 6.98717 7.51006 6.52445C7.53312 6.50909 7.55618 6.49373 7.58116 6.47837C7.49853 6.65885 7.45241 6.84701 7.44088 7.04477C7.38515 7.82237 7.6638 8.45981 8.29028 8.99357Z" fill="white"/>
<path d="M9.60072 19.034C4.94954 19.034 1.16467 15.2489 1.16467 10.5983C1.16467 5.94772 4.94954 2.16261 9.60072 2.16261C14.2519 2.16261 18.0368 5.94772 18.0368 10.5983C18.0368 15.2489 14.2519 19.034 9.60072 19.034Z" stroke="white"/>
</svg>
