<svg width="43" height="42" viewBox="0 0 43 42" fill="none" xmlns="http://www.w3.org/2000/svg">
<path d="M39.3008 6.99805C37.9358 7.8083 35.197 8.91255 33.587 9.23105C33.5398 9.2433 33.5013 9.25905 33.4558 9.2713C32.033 7.8678 30.0835 6.99805 27.9258 6.99805C23.577 6.99805 20.0508 10.5243 20.0508 14.873C20.0508 15.1023 20.0315 15.524 20.0508 15.748C14.183 15.748 9.71703 12.675 6.51453 8.74805C6.16628 9.62305 6.01403 11.0055 6.01403 12.304C6.01403 14.7558 7.93028 17.1638 10.914 18.6565C10.3645 18.7983 9.75903 18.8998 9.12903 18.8998C8.11228 18.8998 7.03603 18.632 6.05078 17.82C6.05078 17.8498 6.05078 17.8778 6.05078 17.9093C6.05078 21.3358 9.68728 23.6685 12.9213 24.3178C12.265 24.7045 10.942 24.743 10.2963 24.743C9.84128 24.743 8.23128 24.5348 7.80078 24.4543C8.70028 27.263 11.9448 28.8415 15.037 28.8975C12.6185 30.7945 10.9403 31.498 5.98778 31.498H4.30078C7.42978 33.5035 11.4145 34.9998 15.408 34.9998C28.4105 34.9998 35.8008 25.0895 35.8008 15.748C35.8008 15.5975 35.7973 15.2825 35.792 14.9658C35.792 14.9343 35.8008 14.9045 35.8008 14.873C35.8008 14.8258 35.7868 14.7803 35.7868 14.733C35.7815 14.495 35.7763 14.2728 35.771 14.1573C37.1535 13.1598 38.3523 11.9155 39.3008 10.498C38.032 11.0615 36.6705 11.4395 35.2408 11.611C36.7003 10.736 38.774 8.65005 39.3008 6.99805ZM32.3008 15.748C32.3008 22.888 27.126 30.4463 17.4853 31.3983C18.7908 30.4725 20.0508 29.1583 20.0508 29.1583C20.0508 29.1583 14.8008 24.4998 14.407 18.4133C16.2183 18.9663 18.1048 19.248 20.0508 19.248H23.5508V14.873C23.5508 14.8713 23.5508 14.8713 23.5508 14.8713C23.5543 12.4563 25.5108 10.4998 27.9258 10.4998C30.3425 10.4998 32.3008 12.458 32.3008 14.8748C32.3008 14.8748 32.3008 15.6098 32.3008 15.748Z" fill="white"/>
</svg>
