<svg width="16" height="17" viewBox="0 0 16 17" fill="none" xmlns="http://www.w3.org/2000/svg">
<path fill-rule="evenodd" clip-rule="evenodd" d="M2 8.6875C2 8.41136 2.22386 8.1875 2.5 8.1875H13.5C13.7761 8.1875 14 8.41136 14 8.6875C14 8.96364 13.7761 9.1875 13.5 9.1875H2.5C2.22386 9.1875 2 8.96364 2 8.6875Z" fill="#000"/>
<path fill-rule="evenodd" clip-rule="evenodd" d="M8.64645 3.83395C8.84171 3.63868 9.15829 3.63868 9.35355 3.83395L13.8536 8.33395C14.0488 8.52921 14.0488 8.84579 13.8536 9.04105L9.35355 13.5411C9.15829 13.7363 8.84171 13.7363 8.64645 13.5411C8.45118 13.3458 8.45118 13.0292 8.64645 12.8339L12.7929 8.6875L8.64645 4.54105C8.45118 4.34579 8.45118 4.02921 8.64645 3.83395Z" fill="#000"/>
</svg>
