<svg width="44" height="44" viewBox="0 0 44 44" fill="none" xmlns="http://www.w3.org/2000/svg">
<rect width="44" height="44" rx="22" fill="#303C4A"/>
<path fill-rule="evenodd" clip-rule="evenodd" d="M31 22C31 21.5858 30.6642 21.25 30.25 21.25H13.75C13.3358 21.25 13 21.5858 13 22C13 22.4142 13.3358 22.75 13.75 22.75H30.25C30.6642 22.75 31 22.4142 31 22Z" fill="white"/>
<path fill-rule="evenodd" clip-rule="evenodd" d="M21.0303 14.7197C20.7374 14.4268 20.2626 14.4268 19.9697 14.7197L13.2197 21.4697C12.9268 21.7626 12.9268 22.2374 13.2197 22.5303L19.9697 29.2803C20.2626 29.5732 20.7374 29.5732 21.0303 29.2803C21.3232 28.9874 21.3232 28.5126 21.0303 28.2197L14.8107 22L21.0303 15.7803C21.3232 15.4874 21.3232 15.0126 21.0303 14.7197Z" fill="white"/>
</svg>
