<svg width="43" height="42" viewBox="0 0 43 42" fill="none" xmlns="http://www.w3.org/2000/svg">
<path d="M16.189 6.771C16.1627 6.771 16.1366 6.77266 16.1104 6.77441C15.8881 6.79191 10.6182 7.24563 7.24072 9.96338C5.47672 11.5944 1.94971 21.1281 1.94971 29.3706C1.94971 29.5159 1.98733 29.6564 2.05908 29.7842C4.49333 34.0594 11.1325 35.18 12.6445 35.229H12.6719C12.9396 35.229 13.1911 35.1008 13.3486 34.8838L14.8799 32.7817C10.7516 31.7142 8.64321 29.9012 8.52246 29.7944C8.17596 29.4882 8.14102 28.9617 8.44727 28.6152C8.61177 28.428 8.84175 28.3315 9.07275 28.3315C9.26875 28.3315 9.46722 28.4 9.62646 28.54C9.67721 28.5855 13.5593 31.8794 21.1963 31.8794C28.8473 31.8794 32.731 28.5699 32.7695 28.5366C32.9288 28.3984 33.1272 28.3315 33.3232 28.3315C33.5542 28.3315 33.7825 28.4262 33.9487 28.6152C34.2532 28.9617 34.2217 29.4899 33.877 29.7944C33.7545 29.9029 31.6444 31.7108 27.5161 32.7783L29.0474 34.8838C29.2049 35.1008 29.4564 35.229 29.7241 35.229H29.7515C31.2652 35.1818 37.9061 34.0612 40.3403 29.7842C40.4121 29.6582 40.4497 29.5159 40.4497 29.3706C40.4497 21.1281 36.922 11.5935 35.1143 9.92578C31.7823 7.24653 26.5131 6.79366 26.2891 6.77441C26.2663 6.77266 26.24 6.771 26.2173 6.771C25.8918 6.771 25.5932 6.96393 25.4585 7.26318C25.448 7.28418 25.3333 7.5492 25.2056 7.96045C27.4088 8.33145 30.1145 9.08179 32.5645 10.6025C32.9565 10.8458 33.0777 11.3606 32.8345 11.7544C32.677 12.0099 32.4035 12.1509 32.1235 12.1509C31.973 12.1509 31.8209 12.1102 31.6826 12.0244C27.4721 9.41516 22.2112 9.2832 21.1997 9.2832C20.1882 9.2832 14.9272 9.41683 10.7202 12.0278C10.582 12.1118 10.4298 12.1509 10.2793 12.1509C9.9993 12.1509 9.72419 12.0133 9.56494 11.7578C9.31994 11.3641 9.44296 10.8475 9.83496 10.6025C12.285 9.08354 14.9923 8.33487 17.1973 7.96387C17.0678 7.55087 16.9497 7.2876 16.9409 7.2666C16.8062 6.96735 16.5127 6.771 16.189 6.771ZM21.1997 12.7832C21.7177 12.7832 26.3632 12.8455 29.8335 14.998C30.5212 15.425 31.3099 15.6543 32.1201 15.6543C32.8079 15.6543 33.4684 15.4971 34.0581 15.2031C35.1379 17.9209 36.4087 22.2009 36.8164 26.5986C36.7464 26.5006 36.6713 26.4059 36.5908 26.3149C35.7683 25.3717 34.5779 24.835 33.3267 24.835C32.2819 24.835 31.2693 25.2095 30.5273 25.8535C30.3996 25.9568 27.3335 28.3828 21.1997 28.3828C15.0677 28.3828 12.0035 25.9607 11.937 25.9082C11.1443 25.2135 10.1297 24.8315 9.07617 24.8315C7.83192 24.8315 6.64643 25.3652 5.82568 26.2944C5.73993 26.3907 5.66001 26.492 5.58301 26.5952C5.99076 22.201 7.25997 17.9123 8.33447 15.1963C8.92597 15.492 9.5898 15.6509 10.2793 15.6509C11.0878 15.6509 11.8765 15.425 12.5625 14.998C16.0363 12.8438 20.6817 12.7832 21.1997 12.7832ZM15.7583 17.5786C14.1413 17.5786 12.8291 19.0768 12.8291 20.9248C12.8291 22.7728 14.1396 24.271 15.7583 24.271C17.3771 24.271 18.6875 22.7728 18.6875 20.9248C18.6875 19.0751 17.3771 17.5786 15.7583 17.5786ZM26.6411 17.5786C25.0241 17.5786 23.7119 19.0768 23.7119 20.9248C23.7119 22.7728 25.0224 24.271 26.6411 24.271C28.2599 24.271 29.5703 22.7728 29.5703 20.9248C29.5703 19.0751 28.2581 17.5786 26.6411 17.5786Z" fill="white"/>
</svg>
