<svg width="43" height="42" viewBox="0 0 43 42" fill="none" xmlns="http://www.w3.org/2000/svg">
<path fill-rule="evenodd" clip-rule="evenodd" d="M16.7731 7.02942C14.3276 6.87638 11.9104 7.62135 9.97532 9.12443C8.04024 10.6275 6.72042 12.7853 6.2637 15.1926C5.80846 17.5922 6.24194 20.0751 7.48274 22.1781C7.73268 22.5869 7.81004 23.0909 7.67254 23.5721L6.88547 26.3268L9.64018 25.5398C10.1155 25.404 10.6199 25.4767 11.0325 25.7286C13.1359 26.9701 15.6195 27.404 18.0197 26.9486C20.427 26.4919 22.5848 25.172 24.0879 23.2369C25.591 21.3019 26.3359 18.8846 26.1829 16.4391C26.0298 13.9936 24.9893 11.6881 23.2567 9.95555C21.5241 8.22296 19.2186 7.18245 16.7731 7.02942ZM9.90579 29.1039C12.595 30.498 15.6816 30.9546 18.6721 30.3873C21.9172 29.7716 24.8259 27.9925 26.852 25.384C28.8782 22.7755 29.8824 19.517 29.6761 16.2205C29.4697 12.924 28.0671 9.81621 25.7316 7.48067C23.396 5.14514 20.2882 3.74254 16.9917 3.53625C13.6952 3.32996 10.4368 4.33418 7.8283 6.36033C5.21981 8.38648 3.44069 11.2952 2.82503 14.5403C2.25767 17.5308 2.71436 20.6174 4.10837 23.3065L3.14154 26.6904L4.79662 27.1633L3.14154 26.6904C3.00757 27.1593 3.00143 27.6555 3.12375 28.1275C3.24607 28.5995 3.4924 29.0303 3.83721 29.3751C4.18202 29.7199 4.61277 29.9662 5.08481 30.0886C5.55684 30.2109 6.05301 30.2047 6.5219 30.0708L9.90579 29.1039Z" fill="white"/>
<path fill-rule="evenodd" clip-rule="evenodd" d="M25.5492 13.046C25.6023 12.0809 26.4276 11.3417 27.3927 11.3948C29.7206 11.5229 31.9762 12.2488 33.9419 13.5025C35.9075 14.7561 37.517 16.4952 38.6148 18.552C39.7127 20.6088 40.2619 22.9138 40.2095 25.2446C40.163 27.3167 39.6424 29.3471 38.692 31.1812L39.6589 34.5653C39.7928 35.0342 39.799 35.5303 39.6766 36.0024C39.5543 36.4744 39.308 36.9052 38.9632 37.25C38.6184 37.5948 38.1876 37.8411 37.7156 37.9635C37.2436 38.0858 36.7474 38.0796 36.2785 37.9457L32.8943 36.9788C31.3467 37.7806 29.6567 38.2779 27.9165 38.4407C25.9187 38.6277 23.9042 38.3693 22.0183 37.6841C20.1323 36.9988 18.4218 35.9039 17.0099 34.4781C15.5981 33.0523 14.52 31.3311 13.8533 29.4386C13.5322 28.527 14.0109 27.5277 14.9225 27.2065C15.8341 26.8854 16.8334 27.3641 17.1545 28.2757C17.6492 29.6801 18.4492 30.9574 19.4969 32.0154C20.5446 33.0735 21.814 33.886 23.2135 34.3945C24.613 34.9029 26.1078 35.0947 27.5904 34.956C29.0657 34.8179 30.4922 34.356 31.7683 33.6032C32.181 33.3516 32.6852 33.2789 33.1602 33.4147L35.9149 34.2017L35.1279 31.447C34.9902 30.9653 35.068 30.4618 35.3173 30.0535C36.192 28.5705 36.6717 26.8877 36.7104 25.166C36.7493 23.4366 36.3417 21.7262 35.5271 20.2001C34.7125 18.674 33.5184 17.3836 32.0598 16.4534C30.6013 15.5232 28.9277 14.9845 27.2004 14.8895C26.2353 14.8364 25.496 14.011 25.5492 13.046Z" fill="white"/>
</svg>
