<svg width="42" height="42" viewBox="0 0 42 42" fill="none" xmlns="http://www.w3.org/2000/svg">
<path d="M36.0015 5.2706C35.4198 5.20891 34.7876 5.29975 34.1523 5.55087C33.3648 5.86062 21.0252 11.0514 9.52246 15.8937L5.72168 17.4933C4.24993 18.09 3.50684 19.0605 3.50684 20.3678C3.50684 21.283 3.89419 22.5245 5.74219 23.256L12.1577 25.8263C12.7125 27.4905 14.001 31.3547 14.3247 32.3819C14.5172 32.9909 15.0034 34.5251 16.2319 34.8839C16.4839 34.9696 16.7469 35.0138 17.0146 35.0138C17.7899 35.0138 18.3481 34.653 18.6211 34.443L22.6987 30.9942L27.6514 35.5743C27.8421 35.7686 28.8518 36.7501 30.208 36.7501C31.9003 36.7501 33.1839 35.3414 33.4517 33.9781C33.5969 33.2309 38.3735 9.25245 38.3735 9.25595C38.8023 7.3327 38.0314 6.33501 37.5361 5.90976C37.1118 5.54664 36.5831 5.33229 36.0015 5.2706ZM34.8428 9.05088C34.183 12.3584 30.5865 30.412 30.0405 33.0143L22.8013 26.3185L17.8896 30.4781L19.25 25.1563C19.25 25.1563 28.6345 15.6571 29.1997 15.1041C29.6547 14.6613 29.75 14.5061 29.75 14.3521C29.75 14.1474 29.6446 14.0001 29.4014 14.0001C29.1826 14.0001 28.8855 14.2097 28.728 14.3077C26.7272 15.5551 18.2072 20.409 14.0137 22.7945L7.92969 20.3644L10.8828 19.1236C18.4061 15.9561 31.8048 10.3144 34.8428 9.05088Z" fill="white"/>
</svg>
