<svg width="43" height="42" viewBox="0 0 43 42" fill="none" xmlns="http://www.w3.org/2000/svg">
<path d="M21.6006 7C21.6006 7 10.6553 6.99995 7.92529 7.73145C6.41854 8.13395 5.23453 9.31971 4.83203 10.8247C4.10053 13.5547 4.10059 21 4.10059 21C4.10059 21 4.10053 28.4453 4.83203 31.1753C5.23453 32.682 6.42029 33.8661 7.92529 34.2686C10.6553 35.0001 21.6006 35 21.6006 35C21.6006 35 32.5459 35.0001 35.2759 34.2686C36.7809 33.8661 37.9666 32.6803 38.3691 31.1753C39.1006 28.4453 39.1006 21 39.1006 21C39.1006 21 39.1006 13.5547 38.3691 10.8247C37.9666 9.31971 36.7809 8.13395 35.2759 7.73145C32.5459 6.99995 21.6006 7 21.6006 7ZM21.6006 10.5C26.6441 10.5 32.9596 10.7338 34.3701 11.1118C34.6659 11.1906 34.9083 11.433 34.9888 11.7305C35.4105 13.302 35.6006 18.0985 35.6006 21C35.6006 23.9015 35.4105 28.6963 34.9888 30.2695C34.91 30.5653 34.6676 30.8077 34.3701 30.8882C32.9614 31.2662 26.6441 31.5 21.6006 31.5C16.5588 31.5 10.2433 31.2662 8.83105 30.8882C8.5353 30.8094 8.2929 30.567 8.2124 30.2695C7.79065 28.698 7.60059 23.9015 7.60059 21C7.60059 18.0985 7.79065 13.3021 8.2124 11.7271C8.29115 11.4331 8.53355 11.1906 8.83105 11.1118C10.2398 10.7338 16.5571 10.5 21.6006 10.5ZM18.1006 14.9365V27.0635L28.6006 21L18.1006 14.9365Z" fill="white"/>
</svg>
