<svg width="24" height="24" viewBox="0 0 24 24" fill="none" xmlns="http://www.w3.org/2000/svg">
<path d="M9.5772 16.3844C8.66347 16.3867 7.76211 16.1733 6.94652 15.7613L3.00049 17.0766L4.31583 13.1306C3.90387 12.315 3.69039 11.4136 3.69277 10.4999C3.6932 9.40733 3.9978 8.33643 4.57247 7.40717C5.14715 6.47792 5.96918 5.72701 6.94652 5.23856C7.76211 4.8266 8.66347 4.61312 9.5772 4.6155H9.92334C11.3663 4.69511 12.7292 5.30416 13.7511 6.32604" stroke="white" stroke-width="2" stroke-linecap="round" stroke-linejoin="round"/>
<path d="M9.03886 12.5768C9.03648 13.4906 9.24996 14.3919 9.66192 15.2075C10.1504 16.1848 10.9013 17.0069 11.8305 17.5816C12.7598 18.1562 13.8307 18.4608 14.9233 18.4613C15.837 18.4636 16.7384 18.2502 17.554 17.8382L21.5 19.1535L20.1847 15.2075C20.5966 14.3919 20.8101 13.4906 20.8077 12.5768C20.8073 11.4842 20.5027 10.4133 19.928 9.48408C19.3533 8.55482 18.5313 7.80391 17.554 7.31546C16.7384 6.9035 15.837 6.69002 14.9233 6.6924H14.5771C13.1342 6.77201 11.7713 7.38106 10.7494 8.40294C9.72752 9.42482 9.11847 10.7877 9.03886 12.2307V12.5768Z" stroke="white" stroke-width="2" stroke-linecap="round" stroke-linejoin="round"/>
</svg>
