<svg width="16" height="17" viewBox="0 0 16 17" fill="none" xmlns="http://www.w3.org/2000/svg">
<path d="M8.47281 1.64813V5.64596H12.4701C12.4701 3.64629 10.4701 1.64813 8.47281 1.64813Z" stroke="white" stroke-linejoin="round"/>
<path d="M8.47281 6.50085V10.4987H12.4701C12.4701 8.49902 10.4701 6.50085 8.47281 6.50085Z" stroke="white" stroke-linejoin="round"/>
<path d="M8.47281 15.3518V11.354H12.4701C12.4701 13.3536 10.4701 15.3518 8.47281 15.3518Z" stroke="white" stroke-linejoin="round"/>
<path d="M7.52734 1.64813V5.64596H3.53001C3.53001 3.64629 5.53001 1.64813 7.52734 1.64813Z" stroke="white" stroke-linejoin="round"/>
<path d="M7.52734 10.4987V6.50089H3.53001C3.53001 8.50056 5.53001 10.4987 7.52734 10.4987Z" stroke="white" stroke-linejoin="round"/>
<path d="M7.52734 15.3519V11.354H3.53001C3.53001 13.3537 5.53001 15.3519 7.52734 15.3519Z" stroke="white" stroke-linejoin="round"/>
</svg>
