<svg width="1202" height="237" viewBox="0 0 1202 237" fill="none" xmlns="http://www.w3.org/2000/svg">
<g clip-path="url(#clip0)">
<g opacity="0.2">
<path d="M993.239 122.995C983.616 116.887 974.951 109.856 965.834 103.075C955.978 95.7239 944.031 92.1866 932.33 89.2277C912.031 84.1086 890.938 81.2357 870.516 75.8274C840.398 67.8505 813.684 65.7588 783.493 73.9076C758.375 80.6928 732.962 72.6858 710.242 61.7537C699.5 56.5824 687.36 56.6854 675.829 55.6496C660.509 54.2681 644.96 52.3741 629.545 51.9068C612.069 51.3788 584.294 50.2197 569.409 60.6689C566.753 62.5339 565.719 65.1006 568.184 67.5759C569.555 68.9163 571.094 70.0735 572.763 71.0189C594.981 71.8426 617.303 74.5909 639.346 77.3596C645.405 78.1187 651.579 78.9188 657.223 81.1481L658.18 81.2121C658.178 81.3227 658.18 81.4321 658.178 81.5427C658.84 81.8262 659.495 82.1312 660.145 82.4578C666.706 85.8065 671.827 91.3391 677.45 96.1048C684.093 101.71 691.531 106.299 699.521 109.722C711.938 103.416 723.693 97.7171 737.381 96.6536C750.46 95.6335 759.802 101.398 771.711 107.171C788.891 115.497 807.706 122.291 825.869 127.448C841.818 131.982 859.417 130.258 876.103 129.795C895.708 129.261 914.757 129.658 934.215 131.978C952.487 134.156 969.616 137.933 987.28 143.176C999.338 146.76 1024.17 153.853 1026.77 150.621C1029.38 147.389 1001.14 128.027 993.213 122.992" fill="#EA7534"/>
<path d="M446.384 128.539L322.607 138.583C313.292 139.335 303.695 140.078 294.688 137.505C286.515 135.168 279.227 130.206 270.94 128.308C261.868 126.232 252.394 127.98 243.328 130.079C211.293 137.455 180.312 148.829 151.114 163.934C143.879 167.678 135.64 173.791 137.021 181.812C138.527 190.606 149.987 193.086 158.89 192.508C192.548 190.313 223.933 173.385 257.583 171.258C284.017 169.598 310.163 177.135 336.632 177.958C361.473 178.731 386.054 173.587 410.388 168.46L482.37 153.291C493.414 150.963 504.609 148.621 515.865 149.236C530.5 150.025 544.345 155.715 558.205 160.436C589.113 170.935 621.39 176.856 654.011 178.011C637.717 156.15 610.364 142.989 583.119 143.933C555.163 144.89 545.216 135.772 519.962 129.685C496.219 123.963 470.395 126.595 446.356 128.546" fill="#FFD72E"/>
<path d="M818.45 158.748C803.598 147.674 783.195 146.268 768.383 135.134C763.261 131.283 758.942 126.353 753.424 123.097C743.628 117.312 731.591 117.564 720.356 115.778C704.525 113.232 689.687 106.423 677.434 96.0812C671.812 91.3201 666.69 85.7828 660.128 82.4341C653.739 79.1722 646.452 78.2272 639.334 77.3348C594.816 71.7463 549.154 66.2059 505.49 76.5497C484.248 81.5828 463.96 90.2824 442.498 94.2053C400.038 101.965 356.794 90.5526 314.202 83.5181C271.611 76.4836 217.772 77.561 188.792 98.8709C182.841 109.48 230.009 94.3364 246.709 107.09C255.573 113.861 263.818 121.862 272.625 128.742C280.222 130.88 287.06 135.324 294.666 137.499C303.673 140.071 313.243 139.32 322.585 138.577L446.385 128.542C470.405 126.596 496.258 123.977 519.99 129.681C545.246 135.772 555.192 144.886 583.148 143.929C610.398 143.004 637.751 156.145 654.04 178.007C652.632 177.956 651.219 177.887 649.811 177.817C668.925 182.504 687.909 187.725 706.78 193.254C718.255 196.625 729.904 200.152 741.86 200.055C748.598 199.998 755.31 198.782 762.04 199.106C781.414 200.041 785.609 193.582 785.042 193.119C782.332 190.801 783.334 188.763 786.976 187.75C803.133 183.263 821.711 189.376 832.043 202.584C836.411 208.167 839.415 214.863 844.647 219.647C849.88 224.431 858.678 226.591 863.847 221.737C843.992 204.82 839.328 174.346 818.417 158.757" fill="#E5C7A3"/>
</g>
<path d="M1107.76 102.351C1098.13 96.242 1089.47 89.2115 1080.35 82.43C1070.49 75.0794 1058.55 71.5421 1046.85 68.5831C1026.55 63.464 1005.46 60.5911 985.033 55.1828C954.915 47.2059 928.201 45.1142 898.01 53.2631C872.892 60.0483 847.479 52.0412 824.76 41.1092C814.017 35.9378 801.877 36.0409 790.346 35.0051C775.026 33.6236 759.477 31.7295 744.062 31.2623C726.586 30.7342 698.811 29.5751 683.926 40.0244C681.27 41.8894 680.236 44.456 682.701 46.9313C684.072 48.2717 685.611 49.429 687.28 50.3744C709.498 51.1981 731.82 53.9464 753.863 56.7151C759.922 57.4742 766.096 58.2743 771.741 60.5035L772.697 60.5676C772.695 60.6782 772.698 60.7876 772.695 60.8982C773.357 61.1816 774.013 61.4867 774.662 61.8133C781.223 65.162 786.344 70.6945 791.967 75.4603C798.611 81.0653 806.048 85.6541 814.038 89.0771C826.455 82.7713 838.21 77.0726 851.898 76.009C864.977 74.989 874.319 80.7535 886.228 86.5261C903.409 94.8523 922.223 101.646 940.386 106.803C956.335 111.338 973.934 109.614 990.62 109.15C1010.22 108.617 1029.27 109.014 1048.73 111.333C1067 113.511 1084.13 117.288 1101.8 122.531C1113.86 126.115 1138.69 133.208 1141.29 129.976C1143.89 126.744 1115.66 107.383 1107.73 102.347" fill="#EA7534"/>
<path d="M560.901 107.895L437.124 117.938C427.809 118.69 418.212 119.433 409.205 116.861C401.032 114.523 393.744 109.562 385.457 107.664C376.385 105.588 366.911 107.335 357.846 109.435C325.81 116.81 294.829 128.184 265.631 143.289C258.396 147.033 250.157 153.146 251.538 161.167C253.044 169.962 264.504 172.441 273.407 171.863C307.065 169.669 338.45 152.74 372.1 150.613C398.534 148.953 424.68 156.491 451.149 157.314C475.99 158.087 500.571 152.942 524.905 147.815L596.887 132.646C607.931 130.318 619.127 127.977 630.382 128.592C645.017 129.381 658.862 135.071 672.722 139.792C703.63 150.291 735.907 156.212 768.528 157.366C752.234 135.506 724.881 122.345 697.637 123.288C669.68 124.246 659.733 115.127 634.479 109.041C610.736 103.319 584.912 105.95 560.873 107.902" fill="#FFD72E"/>
<path d="M932.967 138.104C918.115 127.03 897.712 125.624 882.9 114.49C877.778 110.638 873.459 105.709 867.941 102.452C858.145 96.6673 846.108 96.9196 834.873 95.1338C819.042 92.5876 804.204 85.7783 791.951 75.4366C786.329 70.6756 781.207 65.1383 774.646 61.7896C768.256 58.5276 760.97 57.5826 753.851 56.6903C709.333 51.1018 663.672 45.5614 620.007 55.9052C598.765 60.9383 578.477 69.6378 557.015 73.5608C514.555 81.32 471.311 69.908 428.719 62.8736C386.128 55.8391 332.289 56.9164 303.309 78.2264C297.359 88.8351 344.526 73.6918 361.226 86.4459C370.091 93.216 378.335 101.218 387.142 108.098C394.739 110.235 401.577 114.68 409.183 116.855C418.19 119.427 427.76 118.676 437.102 117.932L560.902 107.898C584.922 105.951 610.775 103.333 634.508 109.037C659.763 115.128 669.709 124.242 697.665 123.284C724.915 122.36 752.268 135.5 768.557 157.362C767.149 157.312 765.736 157.243 764.328 157.173C783.442 161.86 802.426 167.08 821.297 172.609C832.772 175.98 844.421 179.508 856.377 179.411C863.115 179.353 869.827 178.137 876.557 178.462C895.931 179.397 900.126 172.937 899.56 172.475C896.849 170.157 897.851 168.118 901.493 167.105C917.65 162.618 936.228 168.731 946.56 181.94C950.929 187.522 953.932 194.219 959.164 199.003C964.397 203.787 973.195 205.947 978.364 201.092C958.509 184.176 953.846 153.702 932.934 138.112" fill="#E5C7A3"/>
</g>
<defs>
<clipPath id="clip0">
<rect width="230.66" height="1200" fill="white" transform="translate(1.11426 236.453) rotate(-90.2768)"/>
</clipPath>
</defs>
</svg>
