<svg width="1202" height="237" viewBox="0 0 1202 237" fill="none" xmlns="http://www.w3.org/2000/svg">
<g clip-path="url(#clip0_5292_144057)">
<g opacity="0.2">
<path d="M208.311 123.176C217.934 117.058 226.599 110.017 235.717 103.226C245.573 95.8644 257.519 92.3218 269.22 89.3584C289.519 84.2316 310.612 81.3543 331.034 75.9379C361.153 67.949 387.867 65.854 418.058 74.0147C443.175 80.8097 468.589 72.7906 491.308 61.8423C502.051 56.6632 514.191 56.7663 525.722 55.729C541.042 54.3453 556.591 52.4483 572.006 51.9803C589.482 51.4513 617.257 50.2903 632.141 60.7549C634.798 62.6226 635.832 65.1931 633.367 67.672C631.995 69.0144 630.456 70.1734 628.788 71.1202C606.57 71.9453 584.247 74.6977 562.205 77.4708C556.146 78.231 549.971 79.0323 544.327 81.2649L543.371 81.3291C543.373 81.4398 543.37 81.5494 543.372 81.6601C542.711 81.944 542.055 82.2495 541.406 82.5766C534.844 85.9303 529.723 91.471 524.1 96.2439C517.457 101.857 510.019 106.453 502.03 109.881C489.613 103.566 477.858 97.8589 464.169 96.7938C451.09 95.7724 441.749 101.545 429.839 107.327C412.659 115.665 393.844 122.469 375.681 127.634C359.732 132.175 342.133 130.449 325.447 129.985C305.842 129.451 286.794 129.848 267.335 132.171C249.063 134.353 231.934 138.136 214.27 143.386C202.212 146.976 177.378 154.079 174.776 150.843C172.174 147.606 200.41 128.216 208.337 123.173" fill="#EB8045"/>
<path d="M755.166 128.726L878.943 138.784C888.258 139.537 897.856 140.28 906.863 137.704C915.035 135.363 922.323 130.395 930.61 128.493C939.682 126.415 949.157 128.164 958.222 130.267C990.257 137.653 1021.24 149.044 1050.44 164.171C1057.67 167.92 1065.91 174.042 1064.53 182.075C1063.02 190.883 1051.56 193.366 1042.66 192.787C1009 190.59 977.617 173.636 943.967 171.506C917.533 169.844 891.387 177.393 864.918 178.217C840.077 178.991 815.496 173.84 791.162 168.705L719.18 153.514C708.136 151.183 696.941 148.838 685.686 149.454C671.05 150.244 657.205 155.943 643.345 160.671C612.437 171.186 580.16 177.116 547.539 178.272C563.833 156.379 591.186 143.199 618.431 144.143C646.387 145.102 656.334 135.97 681.589 129.875C705.331 124.144 731.155 126.779 755.195 128.733" fill="#FDD535"/>
<path d="M383.1 158.981C397.952 147.89 418.355 146.482 433.167 135.331C438.29 131.474 442.608 126.538 448.126 123.276C457.923 117.483 469.96 117.735 481.195 115.947C497.025 113.397 511.864 106.577 524.117 96.2202C529.738 91.4521 534.861 85.9066 541.422 82.5529C547.812 79.2861 555.098 78.3396 562.216 77.4459C606.735 71.8488 652.396 66.2999 696.061 76.6587C717.303 81.6991 737.591 90.4113 759.052 94.3399C801.512 102.11 844.757 90.6811 887.349 83.636C929.94 76.5908 983.779 77.6693 1012.76 99.0105C1018.71 109.635 971.542 94.4696 954.842 107.243C945.977 114.023 937.733 122.037 928.925 128.926C921.329 131.067 914.491 135.518 906.884 137.696C897.877 140.273 888.307 139.521 878.965 138.776L755.166 128.727C731.145 126.778 705.293 124.156 681.56 129.869C656.304 135.969 646.358 145.096 618.402 144.138C591.152 143.212 563.799 156.372 547.51 178.266C548.918 178.216 550.331 178.147 551.739 178.077C532.625 182.771 513.641 187.999 494.77 193.536C483.295 196.912 471.646 200.445 459.69 200.348C452.952 200.291 446.24 199.073 439.51 199.398C420.135 200.335 415.941 193.865 416.508 193.402C419.218 191.081 418.216 189.039 414.574 188.025C398.417 183.531 379.839 189.654 369.507 202.882C365.138 208.472 362.135 215.179 356.903 219.97C351.67 224.761 342.872 226.924 337.702 222.062C357.558 205.121 362.222 174.602 383.133 158.989" fill="#E8CDAE"/>
</g>
<path d="M93.7933 102.502C103.417 96.3841 112.082 89.3431 121.199 82.5516C131.055 75.1901 143.002 71.6475 154.703 68.684C175.002 63.5572 196.095 60.68 216.517 55.2635C246.635 47.2746 273.349 45.1797 303.54 53.3404C328.658 60.1354 354.071 52.1163 376.791 41.168C387.533 35.9889 399.673 36.092 411.204 35.0546C426.524 33.671 442.074 31.774 457.488 31.306C474.965 30.777 502.739 29.616 517.624 40.0806C520.28 41.9483 521.314 44.5187 518.85 46.9977C517.478 48.3401 515.939 49.4991 514.27 50.4458C492.052 51.271 469.73 54.0234 447.687 56.7964C441.628 57.5567 435.454 58.358 429.81 60.5906L428.853 60.6547C428.855 60.7655 428.853 60.8751 428.855 60.9858C428.193 61.2697 427.538 61.5752 426.888 61.9023C420.327 65.2559 415.206 70.7967 409.583 75.5695C402.939 81.1829 395.502 85.7785 387.512 89.2066C375.095 82.8916 363.34 77.1846 349.652 76.1195C336.573 75.098 327.231 80.8712 315.322 86.6524C298.141 94.991 279.326 101.795 261.164 106.96C245.214 111.501 227.615 109.775 210.929 109.311C191.325 108.776 172.276 109.174 152.818 111.497C134.546 113.679 117.416 117.461 99.7525 122.712C87.6941 126.302 62.8609 133.405 60.2588 130.168C57.6568 126.932 85.8921 107.541 93.8192 102.498" fill="#E8504A"/>
<path d="M640.649 108.052L764.426 118.109C773.741 118.862 783.338 119.606 792.345 117.03C800.518 114.689 807.806 109.72 816.093 107.819C825.165 105.74 834.639 107.49 843.704 109.593C875.74 116.979 906.721 128.37 935.919 143.496C943.154 147.246 951.393 153.368 950.012 161.401C948.506 170.208 937.046 172.692 928.142 172.113C894.485 169.915 863.099 152.962 829.45 150.832C803.016 149.17 776.87 156.719 750.401 157.543C725.559 158.317 700.979 153.166 676.644 148.031L604.662 132.84C593.619 130.509 582.423 128.164 571.168 128.78C556.533 129.57 542.688 135.269 528.827 139.996C497.92 150.512 465.643 156.441 433.021 157.598C449.315 135.705 476.668 122.524 503.913 123.469C531.87 124.428 541.817 115.296 567.071 109.2C590.814 103.47 616.638 106.105 640.677 108.059" fill="#4CBEB3"/>
<path d="M268.583 138.306C283.434 127.216 303.838 125.808 318.65 114.657C323.772 110.8 328.091 105.863 333.609 102.602C343.405 96.8084 355.442 97.0609 366.677 95.2724C382.508 92.7224 397.346 85.9028 409.599 75.5458C415.221 70.7777 420.343 65.2322 426.905 61.8786C433.294 58.6117 440.581 57.6653 447.699 56.7715C492.217 51.1745 537.879 45.6256 581.543 55.9843C602.785 61.0248 623.073 69.737 644.535 73.6656C686.995 81.4359 730.239 70.0068 772.831 62.9616C815.423 55.9165 869.261 56.995 898.241 78.3362C904.192 88.9606 857.025 73.7953 840.324 86.5683C831.46 93.3485 823.215 101.362 814.408 108.252C806.811 110.393 799.973 114.844 792.367 117.022C783.36 119.598 773.79 118.846 764.448 118.102L640.648 108.053C616.628 106.104 590.775 103.482 567.042 109.195C541.787 115.295 531.841 124.422 503.884 123.463C476.635 122.537 449.282 135.698 432.992 157.592C434.401 157.542 435.814 157.473 437.222 157.402C418.107 162.096 399.124 167.325 380.252 172.862C368.778 176.238 357.129 179.771 345.173 179.674C338.434 179.616 331.722 178.398 324.992 178.724C305.618 179.66 301.423 173.191 301.99 172.728C304.7 170.406 303.698 168.365 300.057 167.351C283.9 162.857 265.321 168.979 254.989 182.207C250.621 187.798 247.618 194.504 242.385 199.295C237.152 204.087 228.354 206.25 223.185 201.388C243.04 184.447 247.704 153.927 268.616 138.315" fill="#E8CDAE"/>
</g>
<defs>
<clipPath id="clip0_5292_144057">
<rect width="231" height="1200" fill="white" transform="matrix(0.00483058 -0.999988 -0.999988 -0.00483058 1200.44 236.794)"/>
</clipPath>
</defs>
</svg>
