<svg width="1202" height="237" viewBox="0 0 1202 237" fill="none" xmlns="http://www.w3.org/2000/svg">
<g clip-path="url(#clip0)">
<g opacity="0.2">
<path d="M207.86 113.911C217.484 120.02 226.149 127.05 235.266 133.832C245.122 141.182 257.069 144.72 268.77 147.679C289.068 152.798 310.162 155.671 330.584 161.079C360.702 169.056 387.416 171.148 417.607 162.999C442.725 156.214 468.138 164.221 490.857 175.153C501.6 180.324 513.74 180.221 525.271 181.257C540.591 182.638 556.14 184.532 571.555 185C589.031 185.528 616.806 186.687 631.691 176.237C634.347 174.372 635.381 171.806 632.916 169.33C631.545 167.99 630.005 166.833 628.337 165.887C606.119 165.064 583.797 162.315 561.754 159.547C555.695 158.788 549.521 157.988 543.876 155.758L542.92 155.694C542.922 155.584 542.919 155.474 542.922 155.364C542.26 155.08 541.604 154.775 540.955 154.449C534.394 151.1 529.273 145.567 523.65 140.802C517.006 135.197 509.569 130.608 501.579 127.185C489.162 133.491 477.407 139.189 463.719 140.253C450.64 141.273 441.298 135.508 429.389 129.736C412.208 121.41 393.393 114.616 375.231 109.459C359.281 104.924 341.683 106.648 324.997 107.111C305.392 107.645 286.343 107.248 266.885 104.929C248.613 102.75 231.484 98.9735 213.82 93.7306C201.761 90.1465 176.928 83.0537 174.326 86.2856C171.724 89.5176 199.959 108.879 207.886 113.915" fill="#EA7534"/>
<path d="M754.716 108.367L878.493 98.323C887.808 97.5712 897.405 96.8283 906.412 99.4006C914.585 101.738 921.873 106.699 930.16 108.598C939.232 110.674 948.706 108.926 957.771 106.827C989.807 99.4509 1020.79 88.077 1049.99 72.9724C1057.22 69.2281 1065.46 63.1149 1064.08 55.0941C1062.57 46.2994 1051.11 43.82 1042.21 44.3981C1008.55 46.5924 977.167 63.5211 943.517 65.6484C917.083 67.3079 890.937 59.7705 864.468 58.9477C839.627 58.1748 815.046 63.319 790.711 68.4462L718.729 83.6154C707.686 85.9434 696.49 88.2846 685.235 87.6694C670.6 86.8807 656.755 81.1906 642.895 76.4698C611.987 65.9705 579.71 60.0496 547.088 58.8952C563.383 80.7558 590.735 93.9167 617.98 92.9733C645.937 92.0156 655.884 101.134 681.138 107.22C704.881 112.942 730.705 110.311 754.744 108.36" fill="#FFD72E"/>
<path d="M382.65 78.1579C397.502 89.232 417.905 90.638 432.717 101.772C437.839 105.624 442.158 110.553 447.676 113.809C457.473 119.594 469.51 119.342 480.745 121.128C496.575 123.674 511.413 130.483 523.666 140.825C529.288 145.586 534.41 151.123 540.972 154.472C547.361 157.734 554.648 158.679 561.766 159.571C606.284 165.16 651.946 170.7 695.61 160.357C716.852 155.323 737.14 146.624 758.602 142.701C801.062 134.942 844.306 146.354 886.898 153.388C929.49 160.423 983.328 159.345 1012.31 138.035C1018.26 127.427 971.092 142.57 954.391 129.816C945.527 123.046 937.282 115.044 928.475 108.164C920.878 106.027 914.041 101.582 906.434 99.4071C897.427 96.8348 887.857 97.5859 878.515 98.3295L754.716 108.364C730.695 110.311 704.843 112.929 681.11 107.225C655.854 101.134 645.908 92.0199 617.952 92.9776C590.702 93.9022 563.349 80.7612 547.06 58.8995C548.468 58.9497 549.881 59.0188 551.29 59.0891C532.175 54.4019 513.191 49.1814 494.32 43.6526C482.845 40.2814 471.197 36.7541 459.24 36.8509C452.502 36.9084 445.79 38.1246 439.06 37.7998C419.686 36.8647 415.491 43.3244 416.058 43.7868C418.768 46.1052 417.766 48.1435 414.124 49.1563C397.967 53.6433 379.389 47.5304 369.057 34.3219C364.689 28.7397 361.685 22.0431 356.453 17.259C351.22 12.4748 342.422 10.3151 337.253 15.1695C357.108 32.0858 361.772 62.5601 382.683 78.1496" fill="#E5C7A3"/>
</g>
<path d="M93.3429 134.556C102.966 140.664 111.631 147.695 120.749 154.476C130.605 161.827 142.551 165.364 154.252 168.323C174.551 173.442 195.644 176.315 216.066 181.723C246.184 189.7 272.898 191.792 303.09 183.643C328.207 176.858 353.621 184.865 376.34 195.797C387.082 200.969 399.222 200.865 410.753 201.901C426.073 203.283 441.623 205.177 457.037 205.644C474.514 206.172 502.288 207.331 517.173 196.882C519.829 195.017 520.863 192.45 518.399 189.975C517.027 188.635 515.488 187.477 513.819 186.532C491.602 185.708 469.279 182.96 447.236 180.191C441.177 179.432 435.003 178.632 429.359 176.403L428.402 176.339C428.404 176.228 428.402 176.119 428.404 176.008C427.742 175.725 427.087 175.42 426.438 175.093C419.876 171.744 414.755 166.212 409.132 161.446C402.489 155.841 395.051 151.252 387.062 147.829C374.644 154.135 362.89 159.834 349.201 160.897C336.122 161.917 326.781 156.153 314.871 150.38C297.691 142.054 278.876 135.26 260.713 130.103C244.764 125.569 227.165 127.293 210.479 127.756C190.874 128.29 171.826 127.893 152.367 125.573C134.095 123.395 116.966 119.618 99.3023 114.375C87.2439 110.791 62.4107 103.698 59.8086 106.93C57.2065 110.162 85.4417 129.524 93.3688 134.559" fill="#D53A2C"/>
<path d="M640.198 129.011L763.975 118.967C773.29 118.216 782.888 117.473 791.895 120.045C800.067 122.383 807.355 127.344 815.642 129.242C824.714 131.318 834.189 129.571 843.254 127.471C875.289 120.095 906.27 108.722 935.468 93.6169C942.704 89.8726 950.943 83.7595 949.561 75.7386C948.055 66.944 936.596 64.4646 927.692 65.0426C894.034 67.237 862.649 84.1656 829 86.2929C802.565 87.9524 776.42 80.415 749.95 79.5923C725.109 78.8194 700.529 83.9635 676.194 89.0908L604.212 104.26C593.168 106.588 581.973 108.929 570.718 108.314C556.082 107.525 542.238 101.835 528.377 97.1144C497.47 86.615 465.192 80.6941 432.571 79.5397C448.865 101.4 476.218 114.561 503.463 113.618C531.419 112.66 541.366 121.779 566.621 127.865C590.363 133.587 616.187 130.956 640.227 129.004" fill="#4195C4"/>
<path d="M268.133 98.8024C282.984 109.877 303.388 111.283 318.199 122.417C323.322 126.268 327.64 131.197 333.158 134.454C342.955 140.239 354.992 139.987 366.227 141.772C382.057 144.319 396.895 151.128 409.148 161.47C414.77 166.231 419.893 171.768 426.454 175.117C432.844 178.379 440.13 179.324 447.248 180.216C491.766 185.804 537.428 191.345 581.093 181.001C602.335 175.968 622.622 167.268 644.084 163.345C686.544 155.586 729.789 166.998 772.38 174.033C814.972 181.067 868.81 179.99 897.791 158.68C903.741 148.071 856.574 163.214 839.874 150.46C831.009 143.69 822.765 135.688 813.958 128.809C806.361 126.671 799.523 122.227 791.917 120.052C782.909 117.479 773.339 118.23 763.997 118.974L640.198 129.009C616.177 130.955 590.325 133.574 566.592 127.869C541.336 121.778 531.391 112.664 503.434 113.622C476.184 114.547 448.832 101.406 432.542 79.544C433.951 79.5943 435.364 79.6634 436.772 79.7336C417.657 75.0464 398.674 69.826 379.802 64.2971C368.328 60.926 356.679 57.3987 344.723 57.4955C337.984 57.5529 331.273 58.7692 324.543 58.4443C305.168 57.5093 300.973 63.9689 301.54 64.4314C304.25 66.7497 303.248 68.7881 299.607 69.8008C283.45 74.2879 264.871 68.1749 254.539 54.9664C250.171 49.3842 247.168 42.6877 241.935 37.9035C236.703 33.1194 227.905 30.9596 222.735 35.8141C242.59 52.7303 247.254 83.2046 268.166 98.7941" fill="#FFD72E"/>
</g>
<defs>
<clipPath id="clip0">
<rect width="230.66" height="1200" fill="white" transform="translate(1199.99 0.453613) rotate(89.7232)"/>
</clipPath>
</defs>
</svg>
