<svg width="1202" height="237" viewBox="0 0 1202 237" fill="none" xmlns="http://www.w3.org/2000/svg">
<g clip-path="url(#clip0)">
<g opacity="0.2">
<path d="M993.24 122.996C983.616 116.887 974.951 109.857 965.834 103.075C955.978 95.7248 944.031 92.1875 932.331 89.2286C912.032 84.1095 890.938 81.2366 870.517 75.8283C840.398 67.8514 813.684 65.7597 783.493 73.9086C758.375 80.6937 732.962 72.6867 710.243 61.7546C699.5 56.5833 687.36 56.6863 675.829 55.6505C660.509 54.269 644.96 52.375 629.545 51.9077C612.069 51.3797 584.294 50.2206 569.41 60.6698C566.753 62.5348 565.719 65.1015 568.184 67.5768C569.555 68.9172 571.095 70.0745 572.763 71.0198C594.981 71.8436 617.304 74.5918 639.346 77.3606C645.405 78.1197 651.58 78.9197 657.224 81.149L658.18 81.213C658.178 81.3236 658.181 81.433 658.179 81.5436C658.84 81.8271 659.496 82.1321 660.145 82.4587C666.706 85.8074 671.827 91.34 677.451 96.1057C684.094 101.711 691.531 106.3 699.521 109.723C711.938 103.417 723.693 97.7181 737.381 96.6545C750.46 95.6344 759.802 101.399 771.711 107.172C788.892 115.498 807.707 122.291 825.869 127.449C841.819 131.983 859.417 130.259 876.103 129.796C895.708 129.262 914.757 129.659 934.215 131.979C952.487 134.157 969.616 137.934 987.28 143.177C999.339 146.761 1024.17 153.854 1026.77 150.622C1029.38 147.39 1001.14 128.028 993.214 122.993" fill="#EA7534"/>
<path d="M446.384 128.54L322.607 138.584C313.292 139.336 303.695 140.079 294.688 137.507C286.515 135.169 279.227 130.208 270.94 128.309C261.868 126.234 252.394 127.981 243.329 130.08C211.293 137.456 180.312 148.83 151.114 163.935C143.879 167.679 135.64 173.792 137.021 181.813C138.527 190.608 149.987 193.087 158.89 192.509C192.548 190.315 223.933 173.386 257.583 171.259C284.017 169.599 310.163 177.137 336.632 177.959C361.473 178.732 386.054 173.588 410.389 168.461L482.371 153.292C493.414 150.964 504.61 148.623 515.865 149.238C530.5 150.026 544.345 155.717 558.205 160.437C589.113 170.937 621.39 176.858 654.012 178.012C637.717 156.151 610.365 142.99 583.12 143.934C555.163 144.892 545.217 135.773 519.962 129.687C496.22 123.965 470.395 126.596 446.356 128.547" fill="#FFD72E"/>
<path d="M818.45 158.749C803.598 147.675 783.195 146.269 768.383 135.135C763.261 131.284 758.942 126.354 753.424 123.098C743.628 117.313 731.591 117.565 720.356 115.779C704.525 113.233 689.687 106.424 677.434 96.0821C671.812 91.3211 666.69 85.7838 660.128 82.4351C653.739 79.1732 646.452 78.2281 639.334 77.3358C594.816 71.7473 549.154 66.2069 505.49 76.5507C484.248 81.5838 463.96 90.2833 442.498 94.2063C400.038 101.966 356.794 90.5535 314.202 83.5191C271.611 76.4846 217.772 77.5619 188.792 98.8719C182.841 109.481 230.009 94.3373 246.709 107.091C255.573 113.862 263.818 121.863 272.625 128.743C280.222 130.88 287.06 135.325 294.666 137.5C303.673 140.072 313.243 139.321 322.585 138.578L446.385 128.543C470.405 126.597 496.258 123.978 519.99 129.682C545.246 135.773 555.192 144.887 583.148 143.93C610.398 143.005 637.751 156.146 654.04 178.008C652.632 177.957 651.219 177.888 649.811 177.818C668.925 182.505 687.909 187.726 706.78 193.255C718.255 196.626 729.904 200.153 741.86 200.056C748.598 199.999 755.31 198.783 762.04 199.107C781.414 200.042 785.609 193.583 785.042 193.12C782.332 190.802 783.334 188.764 786.976 187.751C803.133 183.264 821.711 189.377 832.043 202.585C836.411 208.168 839.415 214.864 844.647 219.648C849.88 224.432 858.678 226.592 863.847 221.738C843.992 204.821 839.328 174.347 818.417 158.758" fill="#E5C7A3"/>
</g>
<path d="M1107.76 102.352C1098.13 96.2429 1089.47 89.2124 1080.35 82.4309C1070.5 75.0803 1058.55 71.543 1046.85 68.584C1026.55 63.465 1005.46 60.592 985.034 55.1838C954.916 47.2068 928.202 45.1151 898.01 53.264C872.893 60.0492 847.479 52.0422 824.76 41.1101C814.018 35.9387 801.878 36.0418 790.347 35.006C775.027 33.6245 759.477 31.7304 744.063 31.2632C726.587 30.7351 698.812 29.576 683.927 40.0253C681.271 41.8903 680.237 44.4569 682.701 46.9322C684.073 48.2726 685.612 49.4299 687.281 50.3753C709.499 51.199 731.821 53.9473 753.864 56.716C759.923 57.4751 766.097 58.2752 771.741 60.5044L772.698 60.5685C772.696 60.6791 772.698 60.7885 772.696 60.8991C773.358 61.1825 774.013 61.4876 774.662 61.8142C781.224 65.1629 786.345 70.6955 791.968 75.4612C798.611 81.0662 806.049 85.655 814.038 89.078C826.456 82.7722 838.211 77.0735 851.899 76.01C864.978 74.9899 874.319 80.7544 886.229 86.5271C903.409 94.8532 922.224 101.647 940.387 106.804C956.336 111.339 973.935 109.615 990.621 109.151C1010.23 108.618 1029.27 109.014 1048.73 111.334C1067 113.512 1084.13 117.289 1101.8 122.532C1113.86 126.116 1138.69 133.209 1141.29 129.977C1143.89 126.745 1115.66 107.384 1107.73 102.348" fill="#D53A2C"/>
<path d="M560.902 107.896L437.125 117.94C427.81 118.691 418.213 119.434 409.205 116.862C401.033 114.525 393.745 109.563 385.458 107.665C376.386 105.589 366.912 107.336 357.846 109.436C325.811 116.812 294.83 128.186 265.632 143.29C258.396 147.035 250.158 153.148 251.539 161.169C253.045 169.963 264.505 172.443 273.408 171.865C307.066 169.67 338.451 152.742 372.101 150.614C398.535 148.955 424.68 156.492 451.15 157.315C475.991 158.088 500.572 152.944 524.906 147.816L596.888 132.647C607.932 130.319 619.127 127.978 630.382 128.593C645.018 129.382 658.863 135.072 672.723 139.793C703.63 150.292 735.908 156.213 768.529 157.367C752.235 135.507 724.882 122.346 697.637 123.289C669.681 124.247 659.734 115.128 634.479 109.042C610.737 103.32 584.913 105.951 560.874 107.903" fill="#4195C4"/>
<path d="M932.967 138.105C918.116 127.031 897.712 125.625 882.901 114.491C877.778 110.639 873.46 105.71 867.942 102.453C858.145 96.6683 846.108 96.9205 834.873 95.1348C819.043 92.5886 804.205 85.7792 791.952 75.4376C786.33 70.6766 781.208 65.1393 774.646 61.7906C768.256 58.5286 760.97 57.5836 753.852 56.6912C709.334 51.1028 663.672 45.5623 620.008 55.9062C598.766 60.9393 578.478 69.6388 557.016 73.5618C514.556 81.321 471.311 69.909 428.72 62.8745C386.128 55.8401 332.29 56.9174 303.309 78.2273C297.359 88.8361 344.526 73.6928 361.227 86.4469C370.091 93.217 378.336 101.219 387.143 108.099C394.739 110.236 401.577 114.681 409.184 116.856C418.191 119.428 427.761 118.677 437.103 117.933L560.902 107.899C584.923 105.952 610.775 103.334 634.508 109.038C659.764 115.129 669.709 124.243 697.666 123.285C724.916 122.361 752.268 135.501 768.558 157.363C767.15 157.313 765.736 157.244 764.328 157.174C783.443 161.861 802.426 167.081 821.298 172.61C832.772 175.981 844.421 179.509 856.377 179.412C863.116 179.354 869.828 178.138 876.558 178.463C895.932 179.398 900.127 172.938 899.56 172.476C896.85 170.157 897.852 168.119 901.493 167.106C917.65 162.619 936.229 168.732 946.561 181.941C950.929 187.523 953.932 194.22 959.165 199.004C964.397 203.788 973.195 205.948 978.365 201.093C958.51 184.177 953.846 153.703 932.934 138.113" fill="#FFD72E"/>
</g>
<defs>
<clipPath id="clip0">
<rect width="230.66" height="1200" fill="white" transform="translate(1.11426 236.454) rotate(-90.2768)"/>
</clipPath>
</defs>
</svg>
