<svg width="1440" height="148" viewBox="0 0 1440 148" fill="none" xmlns="http://www.w3.org/2000/svg">
<g clip-path="url(#clip0_7002_202528)">
<g clip-path="url(#clip1_7002_202528)">
<g opacity="0.2">
<path d="M1420.94 157.402C1392.89 154.625 1361.25 154.348 1335.47 157.761C1337.37 157.166 1339.23 156.473 1341.06 155.686V155.686C1350.56 151.822 1403.22 123.981 1433.87 127.016C1479.05 128.621 1491.93 146.064 1514.44 155.851C1535.9 165.183 1515.5 177.924 1508.82 182.226C1506.68 183.602 1504.4 185.07 1502.79 186.857C1502.21 182.389 1501.7 179.161 1501.7 179.161C1491.29 167.234 1449.01 160.191 1420.96 157.414" fill="#4195C4"/>
<path d="M1084.1 15.4685C1068.25 20.8264 1055.17 27.0252 1043.98 34.2144C1016.36 51.9606 1000.25 75.7457 982.359 107.869C955.487 156.051 910.788 186.797 861.087 214.137C849.792 220.354 838.227 226.397 826.56 232.429L817.189 237.268C816.299 237.728 815.446 238.177 814.604 238.619L814.378 238.74L813.497 239.206L812.565 239.703C812.222 239.887 811.889 240.063 811.555 240.248C811.22 240.433 810.868 240.612 810.539 240.793L809.72 241.241L808.61 241.851L808.006 242.181L806.773 242.867L806.478 243.033C802.588 245.22 799.296 247.193 796.452 249.005L796.323 249.085L795.261 249.769L795.073 249.895L794.081 250.53L793.857 250.684L792.961 251.287L792.717 251.458L791.88 252.035L791.62 252.218C791.356 252.401 791.119 252.591 790.841 252.772L790.571 252.964C790.321 253.143 790.072 253.318 789.836 253.499L789.566 253.695L788.869 254.216L788.598 254.417L787.935 254.922L787.664 255.132L787.035 255.622L786.763 255.837L786.158 256.32L785.895 256.536C785.698 256.693 785.502 256.85 785.309 257.012L785.042 257.227L784.48 257.696L784.216 257.92L783.669 258.381C783.583 258.452 783.497 258.527 783.415 258.602L782.872 259.064L782.623 259.285L782.113 259.75L781.853 259.98L781.344 260.436L781.089 260.666L780.579 261.121L780.314 261.36L779.805 261.816C779.728 261.887 779.651 261.963 779.57 262.034L779.057 262.522L778.939 262.635L777.529 263.93C769.495 271.307 759.712 280.307 731.806 297.941L729.053 299.675C714.863 308.545 699.927 315.47 684.638 321.515C694.528 316.35 704.42 311.177 714.312 305.997L721.937 302.002L714.51 305.868C704.493 311.095 694.476 316.333 684.459 321.581C679.141 323.673 673.785 325.677 668.388 327.591C660.821 330.301 653.205 332.894 645.579 335.487C616.111 345.5 586.509 355.556 559.377 372.784C539.251 385.561 525.615 404.961 511.904 424.465C501.004 439.972 490.059 455.548 475.769 467.909C474.586 468.929 473.206 469.977 471.661 471.082C460.863 478.709 442.007 487.763 425.827 495.531C417.049 499.769 409.03 503.618 403.542 506.622C402.756 507.055 402.024 507.472 401.347 507.872C402.991 506.038 404.477 504.027 405.967 502.01C405.966 501.995 405.968 501.979 405.972 501.964C406.231 501.615 406.388 501.201 406.425 500.767C406.461 500.333 406.376 499.898 406.178 499.511C405.98 499.123 405.678 498.798 405.306 498.574C404.933 498.349 404.505 498.232 404.07 498.238L403.498 498.246C399.57 498.289 395.624 498.335 392.386 499.899C353.651 518.574 330.751 552.338 311.762 588.712L310.696 590.757C293.255 624.197 276.998 658.679 289.676 698.51C289.774 698.696 289.628 699.002 289.43 699.312C289.327 699.484 289.241 699.665 289.172 699.853C288.932 699.458 288.673 699.075 288.414 698.687C287.871 697.941 287.404 697.141 287.021 696.301C273.006 661.85 276.411 626.532 290.082 594.255L291.895 590.01C293.325 586.604 294.755 583.196 296.185 579.788C323.953 513.558 352.158 446.294 410.695 400.38C450.918 368.786 497.993 348.737 545.013 328.733C559.071 322.747 573.128 316.765 586.988 310.481L590.021 309.11C592.883 307.814 595.752 306.526 598.627 305.244C638.82 287.225 679.124 269.156 709.534 235.096C728.976 213.471 718.895 193.97 708.791 174.415C708.008 172.944 707.256 171.449 706.502 169.963L704.851 166.665C702.066 161.306 698.772 156.226 695.014 151.497C685.479 139.326 678.227 132.191 671.435 130.079C681.546 126.901 690.488 126.254 697.169 122.463C708.927 115.794 707.26 98.3056 716.234 88.2781C718.793 87.7096 722.201 87.0117 724.333 86.2013C734.221 82.4258 741.243 72.6553 749.021 65.2441C775.757 39.7678 821.506 26.5934 833.817 17.1052C846.499 7.33345 866.423 7.19371 881.656 9.7375C890.102 11.1495 897.574 15.3996 905.559 18.1822C913.719 21.0239 922.071 20.2351 930.459 18.8509C939.782 17.3131 949.647 15.4994 958.442 18.9566C958.937 19.0926 959.368 19.4001 959.657 19.8243C959.835 20.293 959.85 20.8084 959.698 21.2864C958.089 29.0902 955.927 33.2963 949.673 38.5879C945.958 41.7303 941.292 43.5154 936.68 45.0275C896.184 58.281 850.224 59.2788 810.656 75.1175C803.886 77.8413 795.065 84.2112 796.641 90.0505C802.078 104.124 810.751 97.0428 819.296 88.635C829.39 78.6998 846.194 71.003 876.791 70.2206C917.792 69.173 931.432 57.6528 967.611 43.1732C1013.42 24.8318 1069 2.60241 1137.03 0.980471C1140.04 0.909811 1143.07 0.880297 1146.13 0.892039C1121.49 4.90674 1101.19 9.70809 1084.11 15.4833" fill="#FEECA5"/>
<path d="M170.959 174.398C158.999 164.169 148.404 152.069 140.877 138.188C125.758 110.299 107.391 75.4397 149.561 56.7291C170.77 47.3141 193.769 77.1255 212.807 81.049C221.029 82.7454 228.396 83.8417 236.491 80.4922C238.514 79.6859 240.485 78.7536 242.391 77.7008C242.88 77.452 243.338 77.1863 243.801 76.9118C245.646 75.8217 247.425 74.6242 249.129 73.3255C249.982 72.6856 250.823 72.0259 251.646 71.3598L252.878 70.3536C261.535 63.1641 270.831 55.2766 276.019 45.0413C293.039 53.4081 301.714 63.4746 295.385 75.5284C286.967 91.559 263.057 95.6685 241.049 99.4558C203.653 105.884 171.768 111.368 230.854 172.784C235.417 177.526 237.852 183.789 239.459 190.774C233.478 195.331 227.194 199.147 220.012 200.586C204.854 203.617 182.465 184.243 170.955 174.393" fill="#FDD535"/>
<path d="M-8.20416 375.531C-11.6349 391.506 -8.28357 417.111 8.52093 424.607C17.9173 428.796 30.7408 428.122 38.8157 435.039C47.663 442.622 43.7817 458.57 44.5192 468.971C45.4145 481.576 43.7883 494.018 41.8799 506.517C39.2882 523.699 38.1354 541.067 38.4334 558.44L37.1344 560.346L37.1075 560.389L34.3029 564.503C24.7653 578.445 15.0821 593.537 11.6365 610.349C7.81939 629.036 14.2417 645.365 25.5545 660.085C25.8034 660.318 25.7066 660.929 25.6196 661.487C25.6018 661.666 25.585 661.837 25.5694 661.994C25.2759 661.938 24.9721 661.894 24.6768 661.856C23.7976 661.791 22.9371 661.569 22.1359 661.201C4.25764 651.002 -3.14997 632.037 -3.40675 612.525C-3.68131 593.193 1.63919 574.655 7.37064 556.04C9.12859 550.323 10.8731 544.604 12.4713 538.898C15.7518 527.187 19.5206 511.414 12.9734 500.052C7.17497 489.962 -5.6052 486.308 -16.1432 483.855C-34.7481 479.53 -48.1427 463.774 -49.5963 444.633C-50.7363 429.602 -53.5251 412.137 -66.7492 402.761C-78.9324 394.132 -96.01 394.199 -110.247 394.185C-130.185 394.169 -145.89 381.933 -150.344 363.523C-154.877 344.775 -140.531 319.341 -133.875 301.461C-127.448 284.197 -122.209 266.521 -117.068 248.84C-113.337 236.008 -109.665 219.473 -101.319 209.836C-93.9206 201.292 -87.9625 188.305 -82.7227 177.631C-73.5016 158.921 -64.6388 140.032 -57.0145 120.607C-47.1897 95.5724 -38.5624 45.2411 -4.29825 46.8892C5.23182 47.3479 12.3753 49.8045 14.0976 60.0988C14.9573 65.1462 13.869 70.5535 12.6254 75.4243C10.7341 82.8548 8.11583 91.2648 12.2018 98.4669C16.2877 105.669 24.6232 113.02 25.0686 121.566C25.7389 134.384 17.3007 148.893 12.0996 160.002C10.5367 163.336 9.74225 166.784 9.0232 170.292C8.69719 171.892 8.38418 173.496 8.02182 175.097C2.74407 198.374 -1.63245 222.757 1.1391 246.07C2.18737 254.889 5.66077 263.929 4.58138 272.496C0.515855 304.767 -1.06464 342.559 -8.1584 375.527" fill="#FDD535"/>
<path d="M1260.28 89.4027C1190.05 90.151 1110.18 91 1068.24 121.461C987.231 180.302 954.572 202.281 891.811 232.376C784.108 284.051 679.193 340.816 577.066 402.673C576.235 403.185 575.39 403.696 574.541 404.206C566.545 409.042 558.159 414.113 554.747 423.995C520.425 439.002 485.584 482.504 422.656 509.499C422.103 509.732 421.549 509.984 420.997 510.264C420.797 510.355 420.597 510.461 420.392 510.557L419.362 511.068L418.441 511.552L417.813 511.889C400.496 521.346 381.605 541.818 367.61 560.946C374.169 548.632 381.238 536.563 388.423 524.589L394.83 513.95L398.728 510.454C399.637 509.649 400.497 508.79 401.304 507.882C401.979 507.478 402.71 507.062 403.499 506.632C408.99 503.605 416.994 499.764 425.789 495.541C441.964 487.773 460.82 478.719 471.619 471.092C473.161 470 474.543 468.939 475.726 467.918C490.016 455.557 500.961 439.981 511.862 424.475C525.573 404.971 539.208 385.571 559.334 372.794C586.466 355.566 616.068 345.51 645.537 335.496C653.162 332.904 660.778 330.31 668.346 327.6C673.728 325.672 679.087 323.691 684.402 321.599L675.5 326.252L684.586 321.519C699.889 315.476 714.83 308.551 729.002 299.679L731.755 297.945C759.659 280.325 769.447 271.325 777.478 263.934L778.887 262.639L779.005 262.526L779.518 262.038C779.599 261.967 779.677 261.891 779.753 261.82L780.263 261.364L780.528 261.126L781.037 260.67L781.292 260.44L781.802 259.984L782.061 259.754L782.571 259.29L782.821 259.068L783.363 258.607C783.45 258.532 783.532 258.456 783.617 258.386L784.165 257.924L784.428 257.7L784.99 257.231L785.258 257.016C785.45 256.854 785.647 256.697 785.843 256.54L786.106 256.324L786.711 255.841L786.983 255.626L787.612 255.136L787.883 254.926L788.546 254.421L788.817 254.22C789.048 254.048 789.279 253.871 789.519 253.7L789.784 253.503C790.025 253.323 790.284 253.149 790.52 252.968L790.789 252.776C791.044 252.593 791.291 252.403 791.569 252.222L791.828 252.039L792.665 251.462L792.91 251.292L793.805 250.688L794.03 250.534L795.021 249.899L795.21 249.773L796.271 249.089L796.4 249.009C799.246 247.188 802.538 245.215 806.426 243.037L806.721 242.871L807.955 242.186L808.558 241.855L809.668 241.246L810.488 240.797C810.817 240.616 811.16 240.432 811.503 240.252C811.846 240.073 812.17 239.891 812.514 239.707L813.445 239.21L814.553 238.623L817.142 237.273L828.397 231.46C830.401 230.42 832.415 229.381 834.44 228.343C843.007 223.936 851.829 219.386 861.036 214.136C910.737 186.797 955.435 156.055 982.308 107.869C1000.22 75.7471 1016.32 51.962 1043.93 34.214C1054.9 27.0498 1069 20.6362 1084.05 15.4681C1101.13 9.69291 1121.43 4.89155 1146.07 0.876855C1143.01 0.862047 1139.98 0.891572 1136.97 0.965298C1139.07 0.734155 1141.17 0.612502 1143.28 0.600953C1259.57 0.73992 1414.45 13.3176 1392.99 63.7775C1382.65 88.1009 1325.61 88.7071 1260.23 89.4023L1260.28 89.4027ZM662.494 333.048L662.004 333.31L661.647 333.498L661.038 333.832C660.702 333.938 660.369 334.063 660.031 334.197C659.693 334.331 659.356 334.455 659.02 334.561C658.828 334.682 658.647 334.82 658.478 334.972L658.009 335.39C657.674 335.496 657.336 335.625 657.003 335.754C656.67 335.884 656.328 336.008 655.992 336.118L655.983 336.21C656.318 336.104 656.656 335.975 656.994 335.846C657.332 335.717 657.664 335.592 658 335.482L658.129 335.401C658.189 335.361 658.249 335.316 658.31 335.266C658.39 335.204 658.466 335.138 658.537 335.075L659.011 334.658C659.199 334.588 659.397 334.505 659.605 334.419L660.087 334.24C660.373 334.124 660.662 334.018 660.954 333.926C661.685 333.581 662.421 333.184 663.153 332.774L663.492 332.585L662.494 333.048Z" fill="#FDD535"/>
<path d="M1414.13 226.199C1413.56 226.013 1412.99 225.822 1412.43 225.623L1412.26 225.559C1403.46 222.45 1395.13 217.725 1386.82 213.006C1383.4 211.061 1379.99 209.126 1376.54 207.304L1376.35 207.196L1375.35 206.675L1374.97 206.479L1374.01 205.985L1373.74 205.852C1373.15 205.552 1372.56 205.27 1371.97 204.966L1371.47 204.717L1370.65 204.324L1370.06 204.048L1369.25 203.67L1368.64 203.391C1368.19 203.189 1367.75 202.992 1367.3 202.795L1366.6 202.489L1365.84 202.172L1365.17 201.891L1364.4 201.584L1363.7 201.315L1362.96 201.027C1362.51 200.867 1362.1 200.71 1361.67 200.56L1360.94 200.307L1360.21 200.058L1359.45 199.812L1358.72 199.586L1357.98 199.359L1357.04 199.095L1355.95 198.801L1355.16 198.602L1354.4 198.42L1353.65 198.253L1352.88 198.089L1352.06 197.933C1351.67 197.858 1351.28 197.791 1350.9 197.725C1350.6 197.695 1350.3 197.624 1349.98 197.579L1349.21 197.475L1348.44 197.375L1347.65 197.297C1347.38 197.27 1347.12 197.244 1346.85 197.218C1346.58 197.191 1346.35 197.167 1346.09 197.142C1345.63 197.097 1345.17 197.084 1344.71 197.061L1343.92 197.034L1343.12 197.02L1342.31 197.014L1341.51 197.028L1340.7 197.045L1339.61 197.1C1339.23 197.122 1338.84 197.149 1338.46 197.181L1337.63 197.252L1336.78 197.348L1335.98 197.446L1335.12 197.569L1334.27 197.708C1334.02 197.749 1333.79 197.782 1333.55 197.827C1330.88 198.316 1328.22 198.79 1325.55 199.25L1324.77 199.382C1322.46 199.772 1320.16 200.163 1317.84 200.553L1315.87 200.868C1313.95 201.18 1312.03 201.484 1310.11 201.78L1307.69 202.148C1305.9 202.417 1304.11 202.682 1302.33 202.945L1299.76 203.318L1294.45 204.064L1291.93 204.409C1290.07 204.661 1288.21 204.907 1286.35 205.147L1284.15 205.435C1281.88 205.73 1279.61 206.018 1277.33 206.297L1276.39 206.408C1273.75 206.731 1271.1 207.047 1268.45 207.354L1267.36 207.483C1265.13 207.742 1262.9 207.995 1260.67 208.241C1259.92 208.329 1259.17 208.408 1258.41 208.482C1256.53 208.689 1254.67 208.894 1252.81 209.097L1250.38 209.353L1244.82 209.935L1242.57 210.177C1240.56 210.387 1238.54 210.591 1236.52 210.79L1234.93 210.953C1224.24 212.018 1213.55 213.047 1202.85 214.04C1181.56 216.05 1160.26 218.064 1139.01 220.52L1138.54 220.571C1136.45 220.816 1134.34 221.063 1132.24 221.312L1130.83 221.484L1125.43 222.152L1123.63 222.377C1121.93 222.59 1120.24 222.81 1118.55 223.035L1116.62 223.286C1114.89 223.52 1113.17 223.756 1111.45 223.994L1109.74 224.225C1107.46 224.546 1105.18 224.873 1102.9 225.205C1102.74 225.232 1102.58 225.272 1102.42 225.325L1102.29 225.372L1101.94 225.514L1101.82 225.567L1101.44 225.761C1101.26 225.85 1101.08 225.944 1100.89 226.027C1101.33 226.071 1101.77 226.115 1102.21 226.158C1103.57 226.378 1104.94 226.475 1106.31 226.448C1149.77 223.707 1193.23 222.922 1236.38 228.026C1248.7 229.496 1260.87 231.292 1272.87 233.496L1273.28 233.57L1275.16 233.923L1276.72 234.221L1278.55 234.578L1280.14 234.894L1281.96 235.26L1283.62 235.605C1284.2 235.723 1284.78 235.841 1285.36 235.968C1286.41 236.188 1287.46 236.417 1288.51 236.647L1290.13 237.007L1291.9 237.405L1291.96 237.411L1284.09 237.166C1280.76 237.068 1277.42 236.975 1274.07 236.888C1215.45 235.402 1155.15 236.002 1099.4 242.159L1095.64 242.581C1086.9 243.573 1071.45 246.737 1053.03 250.898L1048.26 251.725L1047.73 251.817L1047.32 251.888C1045.52 252.198 1043.73 252.517 1041.95 252.832L1040.98 253.006C982.976 263.314 925.817 276.185 872.708 301.785L872.625 301.828C871.627 302.308 870.63 302.794 869.634 303.287L869.473 303.364L866.543 304.824L866.362 304.917C865.385 305.406 864.407 305.903 863.429 306.401L863.263 306.486C862.282 307.008 861.302 307.53 860.322 308.052L860.233 308.099C855.106 310.805 850.027 313.645 844.996 316.62C842.588 318.048 840.287 319.648 838.11 321.408L838.049 321.457C837.63 321.792 837.221 322.132 836.81 322.477L836.699 322.568C836.304 322.9 835.914 323.233 835.527 323.571L835.385 323.696C835.008 324.03 834.637 324.36 834.264 324.7L834.101 324.851C833.738 325.182 833.375 325.517 833.017 325.853L832.842 326.021C832.489 326.358 832.135 326.694 831.785 327.036C831.724 327.09 831.663 327.149 831.606 327.208C831.256 327.55 830.907 327.891 830.575 328.239L830.41 328.409C830.059 328.759 829.708 329.115 829.376 329.472L829.231 329.62C828.87 329.988 828.512 330.361 828.16 330.73L828.066 330.832C827.688 331.227 827.31 331.626 826.936 332.025C826.419 332.555 825.949 333.088 825.464 333.621L824.918 334.217L824.631 334.536L824.448 334.737L823.796 335.457L822.722 336.651C821.497 338.052 820.724 339.324 820.403 340.465C820.361 340.615 820.328 340.766 820.303 340.919C820.303 340.919 820.303 340.919 820.299 340.956C820.276 341.095 820.262 341.234 820.257 341.375L820.244 341.513C820.24 341.554 820.236 341.595 820.232 341.632L818.841 342.456C796.669 355.355 734.541 383.145 712.691 420.365C701.99 429.59 686.383 440.107 659.798 452.798C631.298 466.398 599.264 471.371 570.459 484.301L569.944 484.528C553.265 491.852 495.904 509.62 474.692 520.753C388.727 565.869 366.454 594.94 352.271 618.363L350.535 621.265L350.436 619.458C350.377 618.412 350.305 617.361 350.233 616.299C349.898 611.428 349.557 606.482 350.072 601.704C350.342 598.858 351.026 596.066 352.1 593.417C356.716 582.336 361.983 571.542 367.629 560.939C382.935 540.004 404.117 517.456 422.679 509.497C485.607 482.501 520.448 438.999 554.77 423.992C556.24 423.497 557.714 423.024 559.192 422.573L559.556 422.456L561.54 421.84L561.717 421.787L563.633 421.192L565.501 420.616L566.779 420.222L567.556 419.979L569.655 419.319L570.613 419.023L571.769 418.646L573.363 418.116L574.497 417.732L575.69 417.311L576.652 416.97C577.211 416.77 577.77 416.561 578.325 416.351L579.223 416.004C579.696 415.824 580.164 415.639 580.629 415.446L581.471 415.103C581.985 414.889 582.498 414.67 583.013 414.443L583.463 414.255C595.567 408.874 607.489 403.169 619.293 397.201C692.762 360.166 761.33 313.856 836.677 280.359C851.199 273.907 865.783 267.648 880.431 261.583C883.093 248.771 898.228 241.986 911.171 237.84C981.857 215.202 1048.23 185.766 1120.62 167.072C1127.18 165.377 1133.79 163.677 1140.55 163.19C1149.84 162.522 1159.13 164.175 1168.44 164.392C1189.46 164.885 1209.88 158.108 1230.56 154.324C1263.71 148.343 1297.78 150.007 1330.19 159.189L1335.51 157.747C1361.31 154.353 1392.96 154.613 1420.98 157.388C1449.01 160.163 1491.31 167.208 1501.72 179.135C1501.72 179.135 1502.24 182.363 1502.81 186.831C1503.52 192.259 1504.31 199.515 1504.31 205.065C1505 237.463 1446.94 236.748 1414.16 226.188" fill="#FBC998"/>
<path d="M438.862 79.2976C433.833 83.9953 427.983 87.7434 422.903 92.3851C415.247 99.3718 399.843 109.329 382.539 124.661C371.826 129.307 362.085 136.528 353.993 145.008C340.679 158.952 331.293 176.131 322.886 193.467C309.657 220.764 298.093 249.164 289.359 278.233C285.102 292.387 286.067 298.305 289.577 299.149C286.643 304.551 283.5 309.812 280.149 314.931C255.66 352.215 214.876 372.971 187.86 407.321C171.392 428.265 147.34 438.768 139.571 442.907C100.79 463.555 59.4902 510.243 61.9796 538.888C63.2672 553.739 43.4048 549.928 41.1858 516.584C36.6133 447.877 48.8548 439.134 46.4666 404.45C45.6239 392.187 49.0922 378.309 42.3761 368.014C37.0556 359.849 28.0001 354.657 22.7342 346.456C12.5866 330.677 14.5053 292.026 15.5817 286.923C21.6938 258.021 21.8033 216.963 26.6447 187.67C31.9546 155.568 48.6109 128.5 69.7242 104.296C71.3799 102.44 72.1959 101.513 73.7997 99.6663C80.5482 91.7679 87.1017 83.7294 93.2779 75.375C95.3405 72.5983 96.3309 71.2244 98.2478 68.5123C98.6663 67.7551 98.8706 67.3806 99.2795 66.6271C106.53 53.4713 113.867 40.3378 122.839 28.2253C125.402 24.8377 128.225 21.6538 131.28 18.7023C132.885 17.1246 144.198 2.56485 159.668 -3.98253C162.666 -5.24493 165.958 -5.64124 169.17 -5.12646C213.454 1.88194 245.365 29.9431 276.025 45.0235C270.833 55.2583 261.541 63.1463 252.885 70.3358L251.652 71.342C250.825 72.0076 249.984 72.6673 249.136 73.3076C247.432 74.6063 245.653 75.8039 243.808 76.894C243.345 77.1639 242.873 77.4282 242.397 77.6829C240.491 78.7357 238.521 79.668 236.498 80.4744C228.403 83.8238 221.036 82.7276 212.814 81.0312C193.775 77.1077 170.776 47.2962 149.567 56.7112C107.391 75.449 125.758 110.299 140.858 138.196C148.385 152.076 158.98 164.176 170.94 174.406C182.45 184.256 204.839 203.629 219.997 200.599C227.179 199.16 233.463 195.343 239.449 190.787C243.637 187.594 247.658 183.706 249.524 178.783C251.391 173.861 254.488 166.172 257.977 162.209C263.165 156.282 284.843 141.384 290.939 137.78C312.367 125.118 395.104 72.7452 418.007 63.0012C426.408 59.4312 435.298 56.2116 444.406 56.793C445.79 56.8791 447.293 57.13 448.157 58.2C448.935 59.1592 448.969 60.5044 448.848 61.7321C448.17 68.5787 443.862 74.5737 438.846 79.2774" fill="#FEECA5"/>
<path d="M320.366 267.077C326.78 250.458 329.379 232.324 338.026 216.743C340.706 211.901 344.022 207.298 348.56 204.135C352.865 201.13 358.021 199.607 362.595 197.028C369.838 192.953 375.339 186.441 380.674 180.064C392.682 165.708 404.693 151.354 416.707 137.001C418.535 134.814 420.44 132.449 420.726 129.612C421.454 122.255 411.681 118.78 404.302 119.257C385.062 120.509 367.316 131.061 354.002 145.009C340.688 158.958 331.303 176.132 322.895 193.468C309.666 220.765 298.102 249.165 289.368 278.234C276.295 321.728 312.499 287.49 320.376 267.064" fill="#FDD535"/>
<path d="M611.668 1.21422C620.388 -0.192859 627.767 8.13866 631.955 14.0555C637.062 21.2752 640.61 30.2815 644.579 38.7304C647.711 45.4064 651.483 55.3819 658.406 58.0965C665.602 60.9217 677.393 55.5098 685.306 53.7164C691.666 52.2706 698.138 50.7292 704.586 50.1836C706.089 50.0539 707.633 49.9374 709.155 49.8095C715.594 49.2585 730.281 46.1578 735.106 52.2864C742.324 61.4517 722.672 80.7947 718.032 86.1996C717.424 86.9009 716.818 87.5884 716.227 88.2543C707.248 98.2813 708.919 115.77 697.162 122.439C690.481 126.231 681.54 126.873 671.428 130.055C660.544 133.477 647.238 141.534 639.345 152.17C638.321 153.55 637.328 155.044 636.347 156.516C635.365 157.988 634.397 159.466 633.475 160.949C620.577 181.713 611.85 203.215 610.155 227.647C608.486 251.728 590.295 267.469 570.801 279.069L568.612 280.361C565.694 282.069 562.752 283.737 559.845 285.385L556.771 287.124L556.063 287.518L555.483 287.846C555.182 288.021 554.878 288.19 554.582 288.365L552.155 289.755C551.066 290.385 550.52 290.698 549.425 291.342C548.845 291.674 548.256 291.997 547.671 292.324C546.074 293.228 544.473 294.125 542.868 295.015C542.042 295.472 541.209 295.919 540.383 296.376C539.039 297.109 537.691 297.839 536.341 298.566C535.404 299.072 534.463 299.569 533.526 300.071C532.281 300.734 531.035 301.384 529.786 302.022L526.781 303.581C525.587 304.197 524.397 304.813 523.2 305.418L520.066 307.012C518.906 307.593 517.747 308.174 516.587 308.752C515.513 309.287 514.434 309.825 513.355 310.354L509.94 312.017C508.833 312.553 507.73 313.094 506.624 313.625C505.517 314.156 504.405 314.692 503.295 315.218C502.184 315.744 501.033 316.303 499.884 316.835L496.658 318.373L493.157 320.013C492.403 320.366 491.644 320.709 490.885 321.061C488.248 322.276 485.606 323.485 482.958 324.687L480.006 326.029L476.363 327.66L473.17 329.09L469.733 330.607L466.236 332.155L463.134 333.519L459.105 335.289L456.636 336.363L451.298 338.69L450.473 339.045L445.136 341.362L437.314 344.767L429.005 348.355C421.043 351.801 413.094 355.27 405.158 358.763C404.979 358.838 404.804 358.918 404.629 358.998C402.832 359.789 401.04 360.583 399.253 361.382L397.251 362.279L393.315 364.048L390.801 365.192L387.329 366.771L384.635 368.004L381.344 369.535L378.56 370.829L375.347 372.331L372.556 373.652L369.339 375.191L366.604 376.457L363.346 378.038C362.448 378.475 361.552 378.913 360.658 379.35L357.314 381.002L354.735 382.283C353.562 382.873 352.389 383.472 351.215 384.066C350.425 384.452 349.627 384.865 348.835 385.274C347.529 385.939 346.227 386.618 344.92 387.292L342.962 388.315C341.003 389.337 339.053 390.371 337.111 391.417C335.591 392.223 334.832 392.626 333.317 393.437C326.954 396.74 320.577 400.599 314.089 403.142C305.259 406.599 292.656 405.351 278.022 412.186C253.573 423.602 238.264 425.953 216.132 441.694C204.973 449.629 193.553 458.096 183.98 467.925C171.317 480.93 161.188 496.471 150.631 511.133C146.988 516.193 143.315 521.246 139.611 526.293C136.822 530.084 133.984 533.845 131.098 537.574C128.825 540.506 127.699 541.931 125.535 544.605C123.395 547.179 121.21 549.693 118.772 551.532C117.674 552.352 116.581 553.209 115.526 554.019C115.174 554.291 114.8 554.551 114.477 554.812C108.513 559.612 102.434 558.782 97.2058 555.126C91.9774 551.469 90.7894 547.712 95.9031 542.256C96.4683 541.612 96.9999 540.94 97.4956 540.241C98.2496 539.238 98.6459 538.706 99.4572 537.593C118.034 512.14 135.089 484.419 156.946 461.566C168.779 449.207 183.692 437.688 197.372 427.402C225.465 406.285 255.519 387.916 286.185 370.825C288.39 369.594 290.599 368.372 292.812 367.158C299.459 363.514 306.134 359.906 312.837 356.335L317.248 353.986C324.05 350.412 330.875 346.878 337.725 343.384C377.706 322.91 419.566 301.23 445.568 265.54C457.504 249.148 457.652 229.081 457.095 208.73C459.213 187.335 458.712 164.26 464.025 143.432C469.337 122.604 478.702 102.354 493.917 87.1682C501.558 79.5393 510.62 73.2257 516.986 64.5001C529.913 46.7709 530.791 20.4567 548.614 7.68364C555.969 2.42229 565.148 0.419802 574.133 -0.617424C586.148 -2.00931 599.647 -0.380145 611.624 1.23763" fill="#FDD535"/>
</g>
<path d="M479.963 160.911C494.865 164.174 510.621 176.501 532.952 184.416C549.249 190.192 568.262 193.196 585.012 198.643C599.336 203.291 614.413 212.329 625.613 216.996C637.973 222.148 646.022 222.975 651.586 226.122L651.84 226.256L651.23 225.905C647.598 223.839 643.985 222.347 639.919 220.67C633.793 218.246 627.828 215.434 622.06 212.251C618.779 210.403 614.94 207.797 610.874 205.015C603.772 200.159 595.977 194.827 589.254 192.433C581.122 189.545 572.412 187.96 563.841 186.399C551.527 184.158 539.481 181.967 529.833 176.025C500.825 158.176 468.379 147.174 444.241 147.174C412.299 147.174 378.809 146.066 354.232 144.402C364.94 148.289 375.863 151.556 386.946 154.188C415.469 160.828 446.335 153.542 479.968 160.907" fill="#FDD535"/>
<path d="M1395.72 913.586C1428.15 861.836 1397.14 805.229 1384.34 754.5C1380.86 740.726 1380.99 726.111 1376.68 712.577C1372.76 700.263 1364.28 689.802 1359.89 677.655L1355.73 666.14C1348.63 646.309 1356.47 634.9 1354.01 627.013L1353.45 625.165L1350.29 618.594C1347.4 612.537 1343.94 593.315 1339.82 584.402L1337.89 580.244C1314.69 530.078 1333.04 489.186 1324.71 440.189C1314.76 381.665 1309.82 459.988 1316.46 367.105C1319.94 318.441 1344.25 264.357 1372.32 224.602C1376.22 219.057 1382.97 209.816 1389.34 195.39C1395.71 180.965 1403.49 130.319 1418.82 99.3885C1423.4 90.1896 1429.45 81.7957 1436.72 74.5344C1419.51 82.8515 1407.05 76.0731 1394.01 68.9897C1387.51 65.4642 1380.87 61.8555 1373.42 59.9934C1353.06 54.9108 1346.37 70.5052 1338.61 88.5902C1337.28 91.7045 1335.91 94.8927 1334.45 98.0624L1333.53 100.054C1327.73 112.77 1323.69 137.019 1319.38 162.838C1316.23 181.713 1312.94 201.425 1308.73 218.087L1308.11 220.503C1304.28 235.063 1292.36 243.144 1280.47 251.184C1274.89 254.964 1269.31 258.739 1264.58 263.197C1240.68 285.69 1229.8 320.627 1240.77 342.565C1244.54 349.958 1251.19 353.83 1258.05 357.314L1263.19 359.892C1264.92 360.708 1266.69 361.428 1268.5 362.05C1274.27 364.153 1280.18 366.31 1279.98 372.798C1279.74 380.112 1272.51 383.347 1265.88 385.735L1262.05 387.122C1254.79 389.806 1247.08 391.405 1239.41 392.994C1237.32 393.429 1235.25 393.858 1233.17 394.311L1232.71 394.413C1231.48 394.676 1230.22 394.875 1228.96 395.087C1223.28 396.012 1217.53 396.963 1214.8 403.164C1211.5 410.659 1215.13 417.026 1219.03 422.991L1220.88 425.8C1227.5 435.582 1236.91 442.772 1248.08 445.47L1248.96 445.692C1273.35 452.008 1278.34 470.098 1283.76 489.699C1284.54 492.508 1285.32 495.349 1286.17 498.191L1286.82 500.317C1296.65 531.737 1308.43 562.533 1320.21 593.301C1335.85 634.156 1351.49 675.007 1362.54 717.382L1363.07 719.392C1366.4 731.822 1370.52 744.062 1374.62 756.297C1383.13 781.646 1391.65 806.985 1393.24 833.992C1396.26 885.1 1367.65 927.48 1311.26 953.097L1311.41 953.028L1316.15 952.164C1338.15 948.097 1358.29 943.782 1376.98 935.53C1384.21 929.13 1390.49 921.746 1395.65 913.596" fill="#FEECA5"/>
<path d="M1178.05 195.414C1186.01 213.087 1196.44 229.939 1200.5 248.892C1206.43 276.569 1198.26 306.649 1208.62 332.987C1209.4 334.974 1210.42 337.076 1212.34 338.019C1218.11 340.851 1221.82 331.55 1221.59 325.123C1219.9 272.288 1222.99 219.409 1230.83 167.131C1232.05 159.013 1233.4 150.825 1236.53 143.233C1241.28 131.682 1249.9 122.062 1254.41 110.427C1257.03 103.531 1258.15 96.1542 1257.69 88.7907C1257.22 81.4271 1255.19 74.2474 1251.73 67.733C1240.68 61.0932 1225.58 66.5223 1217.27 76.3781C1208.96 86.2338 1205.76 99.2961 1202.82 111.85C1200.45 121.988 1198.07 132.124 1195.69 142.258C1195.26 144.107 1194.74 146.093 1193.28 147.304C1182.29 156.388 1179.39 130.023 1168.7 147.641C1161.86 158.911 1173.37 185.091 1178.01 195.39" fill="#FDD535"/>
<path d="M1049.18 229.255C1041.71 221.372 1035.34 212.861 1028.5 204.474C1021.11 195.39 1010.9 189.342 1000.78 183.885C983.219 174.431 964.404 166.867 946.799 157.118C920.836 142.739 896.647 134.588 866.863 135.087C842.083 135.507 820.473 122.196 802.032 106.809C793.313 99.5316 782.075 96.8008 771.665 93.1598C757.836 88.3174 743.914 82.9483 729.784 78.9284C713.765 74.3725 688.379 66.8363 672.198 73.0233C669.31 74.1276 667.758 76.2577 669.458 79.1178C670.413 80.6752 671.565 82.1025 672.886 83.3642C693.217 89.297 713.196 97.0319 732.913 104.721C738.332 106.832 743.849 109.008 748.544 112.381L749.413 112.663C749.385 112.765 749.362 112.867 749.334 112.968C749.879 113.384 750.414 113.818 750.937 114.271C756.219 118.892 759.661 125.194 763.746 130.905C768.577 137.629 774.379 143.599 780.962 148.621C793.9 145.687 806.084 143.159 818.976 145.363C831.294 147.466 838.581 154.965 848.238 163.069C862.169 174.759 877.966 185.414 893.542 194.406C907.219 202.307 923.877 204.812 939.397 208.268C957.63 212.339 975.133 217.139 992.566 223.812C1008.94 230.077 1023.88 237.553 1038.98 246.508C1049.28 252.625 1070.57 264.958 1073.72 262.578C1076.88 260.199 1055.3 235.742 1049.15 229.245" fill="#FDD535"/>
<path d="M109.351 114.313C111.726 114.752 114.212 115.32 115.99 116.956C118.587 119.349 118.934 123.263 119.1 126.793C119.678 138.76 119.562 152.451 110.668 160.459C99.5504 170.439 82.3664 165.541 67.5297 163.795C46.5985 161.35 25.3253 166.567 4.40331 164.016C-31.6973 159.627 -61.9205 132.948 -97.8594 127.375C-108.316 125.753 -119.451 125.846 -128.665 120.634C-131.65 118.947 -134.649 115.62 -133.248 112.497C-132.426 110.649 -130.388 109.748 -128.503 109.045C-93.7333 96.0475 -52.6747 101.38 -22.3776 122.828C-17.221 126.479 -12.3509 130.568 -6.84781 133.664C9.90643 143.094 31.9328 140.95 47.5596 130.198C54.9941 125.088 59.0371 116.873 66.966 113.412C77.9584 108.625 98.0256 112.21 109.337 114.313" fill="#FEECA5"/>
<path d="M542.761 107.077L426.092 87.5411C417.313 86.0671 408.275 84.5192 400.554 80.0465C393.549 75.985 387.972 69.7056 380.759 66.023C372.863 61.9939 363.705 61.4024 354.842 61.2315C323.534 60.5871 292.27 63.8812 261.784 71.0363C254.229 72.8106 245.196 76.5395 244.604 84.2697C243.948 92.7438 253.956 97.7017 262.315 99.2404C293.915 105.048 326.846 96.7176 358.423 102.586C383.227 107.206 405.622 120.255 429.881 127.176C452.646 133.673 476.548 134.643 500.22 135.572L570.24 138.317C580.983 138.737 591.869 139.181 602.122 142.369C615.457 146.504 626.921 154.983 638.625 162.57C664.729 179.463 693.165 192.446 723.029 201.106C713.067 177.12 690.865 158.596 665.48 153.126C639.433 147.502 632.368 136.764 610.458 125.264C589.859 114.451 565.393 110.87 542.734 107.077" fill="#FDD535"/>
<path d="M879.403 221.589C868.263 207.903 849.744 201.855 838.654 188.122C834.819 183.372 831.978 177.814 827.639 173.521C819.936 165.897 808.759 163.328 798.797 159.063C784.768 153.026 772.647 143.283 763.736 130.878C759.652 125.171 756.209 118.864 750.928 114.244C745.785 109.743 739.275 107.174 732.908 104.693C693.088 89.1677 652.2 73.4207 609.46 72.8108C588.667 72.5151 567.902 75.828 547.165 74.4557C506.139 71.7388 468.851 51.131 431.147 34.7187C393.443 18.3064 343.462 6.76876 311.732 19.7064C303.766 28.1205 350.859 25.1125 363.317 40.7809C369.929 49.0979 375.681 58.4084 382.215 66.8133C388.734 70.5559 394.016 76.2531 400.535 80.0327C408.256 84.5055 417.271 86.0395 426.073 87.5273L542.762 107.077C565.402 110.871 589.891 114.47 610.485 125.264C632.396 136.769 639.461 147.503 665.507 153.126C690.893 158.615 713.099 177.121 723.057 201.106C721.768 200.732 720.478 200.339 719.194 199.946C735.759 208.725 752.079 217.966 768.223 227.466C778.037 233.251 787.976 239.221 799.042 241.915C805.28 243.431 811.763 243.869 817.903 245.736C835.582 251.11 840.96 246.12 840.544 245.561C838.58 242.788 839.981 241.139 843.58 241.051C859.549 240.667 875.286 250.639 881.755 265.244C884.491 271.417 885.706 278.302 889.425 283.939C893.145 289.576 900.769 293.619 906.674 290.339C892.272 270.091 895.058 240.857 879.371 221.589" fill="#FEECA5"/>
<path d="M656.46 228.926L653.808 227.397L651.849 226.265L651.586 226.122C646.041 222.975 637.973 222.148 625.613 216.996C614.413 212.329 599.317 203.291 585.012 198.643C568.263 193.205 549.249 190.192 532.952 184.416C510.621 176.501 494.865 164.174 479.963 160.911C446.33 153.546 415.464 160.833 386.942 154.193C375.858 151.561 364.936 148.293 354.228 144.407C322.581 133.091 296.66 119.234 280.298 117.034C256.452 113.828 241.116 103.635 229.435 91.7274C225.119 91.3901 187.901 42.0838 171.659 42.0838C139.921 42.0838 122.436 57.1192 111.827 99.4299C111.572 100.44 111.314 101.44 111.056 102.429C111.314 101.44 111.578 100.442 111.832 99.4299C111.578 100.442 111.314 101.444 111.051 102.438C111.028 102.516 111.01 102.595 110.986 102.674C110.723 103.667 110.45 104.656 110.178 105.626L110.178 105.668C110.039 106.162 109.896 106.656 109.753 107.146C109.609 107.636 109.466 108.121 109.323 108.606L109.323 108.657C109.106 109.387 108.884 110.117 108.658 110.833C108.886 110.119 109.107 109.393 109.323 108.657C109.055 109.558 108.782 110.441 108.505 111.319C108.417 111.596 108.325 111.868 108.237 112.146C108.039 112.769 107.835 113.393 107.627 113.994L107.821 113.421L107.627 113.994L109.374 114.317C111.749 114.756 114.235 115.325 116.014 116.96C118.615 119.354 118.957 123.267 119.123 126.798C119.701 138.765 119.585 152.456 110.691 160.463C99.5736 170.444 82.3896 165.546 67.5529 163.804C46.6217 161.35 25.3485 166.576 4.42651 164.021C-6.08994 162.741 -16.1074 159.571 -25.9169 155.579L-27.9083 155.39L-28.3704 155.344C-29.3269 155.246 -30.2787 155.149 -31.2352 155.043L-31.4015 155.043C-32.2702 154.946 -33.1388 154.849 -34.0075 154.743L-34.6267 154.669L-37.0802 154.359L-37.436 154.313C-38.3601 154.188 -39.3166 154.054 -40.2545 153.92L-40.6796 153.86L-43.05 153.5L-43.6876 153.398C-44.5702 153.255 -45.4481 153.112 -46.3306 152.936L-46.4415 152.936C-47.3656 152.774 -48.2897 152.608 -49.237 152.433L-49.8007 152.326C-50.5538 152.183 -51.3024 152.035 -52.0555 151.864L-52.6747 151.739C-54.5229 151.361 -56.3527 150.956 -58.1639 150.524L-58.7969 150.372L-61.0287 149.817L-61.5878 149.674C-62.5119 149.44 -63.4268 149.195 -64.3324 148.939L-64.5588 148.875C-65.3813 148.644 -66.2037 148.413 -67.0262 148.163L-67.6916 147.964C-68.4524 147.733 -69.2148 147.496 -69.9788 147.253L-70.4131 147.119C-71.3187 146.829 -72.2213 146.529 -73.1208 146.218L-73.5828 146.061C-74.3314 145.802 -75.0784 145.536 -75.8238 145.261L-76.4938 145.017C-77.307 144.716 -78.1202 144.411 -78.9334 144.092L-79.1691 144C-80.0655 143.649 -80.9573 143.288 -81.8444 142.919L-82.4266 142.674C-83.1382 142.366 -83.8467 142.058 -84.5521 141.75L-85.2036 141.463C-86.0815 141.071 -86.964 140.669 -87.8419 140.253L-88.7661 139.828C-89.7949 139.369 -90.8299 138.954 -91.8711 138.585L-92.0097 138.534L-92.9015 138.229L-93.1325 138.155L-93.9411 137.901L-94.2276 137.818L-94.9807 137.6L-95.3042 137.513L-96.025 137.323L-96.3762 137.235L-97.0692 137.069L-97.4481 136.986L-98.1181 136.843L-98.5155 136.764L-99.1762 136.635L-99.5782 136.561L-100.234 136.45L-100.646 136.381L-101.292 136.284L-101.718 136.224L-102.355 136.14L-102.785 136.09L-103.423 136.016L-103.857 135.969L-104.49 135.905L-104.952 135.868L-105.585 135.817L-106.047 135.785L-106.675 135.743L-107.137 135.715L-107.724 135.683L-108.186 135.683L-108.829 135.655L-109.268 135.655L-109.905 135.655L-110.367 135.655L-111.01 135.655L-113.666 135.655L-114.304 135.655L-114.701 135.655L-115.422 135.655L-115.787 135.655L-116.54 135.683L-116.878 135.683L-117.672 135.715L-117.964 135.715L-118.837 135.757L-119.049 135.757L-120.029 135.808L-120.135 135.808C-120.995 135.854 -121.854 135.9 -122.713 135.956L-124.405 136.057L-126.345 136.177L-126.729 136.2L-127.126 136.224L-127.265 136.224L-127.847 136.247L-128.309 136.247L-128.877 136.247L-129.903 136.247L-130.365 136.247L-130.906 136.247L-131.368 136.247L-131.904 136.219L-132.329 136.191L-132.851 136.15L-133.23 136.145L-133.743 136.09L-134.14 136.043L-134.639 135.974L-135.023 135.919L-135.513 135.835L-135.882 135.771L-136.344 135.678L-136.7 135.604L-137.162 135.493L-137.499 135.415L-137.961 135.295L-138.285 135.202L-138.747 135.068L-139.056 134.976L-139.519 134.828L-139.814 134.722L-140.253 134.565L-140.54 134.454L-140.969 134.278L-141.242 134.167L-141.667 133.978L-141.921 133.858L-142.337 133.654L-142.587 133.53L-142.993 133.317L-143.224 133.188L-143.626 132.957L-143.848 132.827L-144.241 132.583L-144.449 132.449L-144.837 132.19L-145.031 132.051L-145.414 131.779L-145.595 131.64C-145.724 131.543 -145.849 131.45 -145.969 131.349L-146.144 131.21C-146.269 131.113 -146.389 131.012 -146.509 130.905L-146.671 130.767L-147.036 130.448L-147.184 130.309C-147.304 130.198 -147.424 130.087 -147.54 129.972L-147.679 129.838L-148.034 129.482L-148.154 129.353C-148.275 129.228 -148.39 129.103 -148.506 128.974L-148.616 128.854C-148.732 128.72 -148.852 128.59 -148.963 128.456L-149.065 128.336C-149.18 128.202 -149.296 128.064 -149.407 127.925L-149.494 127.814L-149.836 127.375C-149.836 127.343 -149.883 127.306 -149.91 127.273C-150.026 127.121 -150.137 126.969 -150.248 126.811C-150.248 126.784 -150.289 126.756 -150.308 126.724C-150.423 126.567 -150.534 126.405 -150.645 126.238L-150.696 126.165C-150.811 125.994 -150.922 125.827 -151.033 125.652L-151.065 125.596C-151.181 125.416 -151.292 125.236 -151.403 125.056L-151.426 125.019C-151.537 124.829 -151.652 124.64 -151.763 124.446C-154.914 118.929 -156.555 112.035 -157.969 104.984L-159.054 99.4391L-157.969 104.956C-158.01 104.318 -160.787 63.5233 -205.311 62.6777L-205.311 175.794C-200.353 174.981 -195.391 174.219 -190.451 173.646C-171.045 171.386 -152.128 171.987 -136.03 183.612C-135.281 184.151 -134.539 184.717 -133.803 185.308C-132.697 186.192 -131.607 187.132 -130.532 188.127C-129.817 188.792 -129.107 189.483 -128.401 190.201C-127.696 190.919 -127 191.663 -126.313 192.433C-115.713 204.331 -109.249 218.77 -108.353 233.81C-108.297 234.701 -108.263 235.594 -108.251 236.49L-108.251 236.952C-108.206 243.432 -109.203 249.877 -111.204 256.04C-111.338 256.465 -111.481 256.881 -111.624 257.292L-111.758 257.648C-111.86 257.934 -111.961 258.216 -112.072 258.493C-112.123 258.632 -112.179 258.771 -112.234 258.909C-112.336 259.165 -112.437 259.414 -112.539 259.658C-112.594 259.796 -112.655 259.935 -112.715 260.069C-112.821 260.319 -112.927 260.559 -113.038 260.799L-113.204 261.169L-113.592 261.973C-113.634 262.056 -113.671 262.139 -113.713 262.218C-113.888 262.564 -114.064 262.901 -114.244 263.234L-114.318 263.364C-114.475 263.645 -114.632 263.923 -114.78 264.191L-114.96 264.486C-115.09 264.699 -115.219 264.911 -115.348 265.115C-115.418 265.226 -115.487 265.327 -115.552 265.434C-115.681 265.628 -115.81 265.822 -115.94 266.007L-116.148 266.311C-116.286 266.506 -116.425 266.695 -116.568 266.884L-116.758 267.139C-116.933 267.374 -117.113 267.601 -117.298 267.827L-117.377 267.924C-117.589 268.183 -117.802 268.437 -118.024 268.682C-118.07 268.737 -118.121 268.788 -118.171 268.844C-118.338 269.028 -118.509 269.213 -118.675 269.389L-118.902 269.62L-119.364 270.082L-119.608 270.313L-120.071 270.733L-120.311 270.946C-120.477 271.094 -120.648 271.232 -120.819 271.376L-121.013 271.537C-121.475 271.921 -121.979 272.281 -122.473 272.623L-122.686 272.762C-122.861 272.882 -123.042 273.002 -123.222 273.113L-123.485 273.275C-123.651 273.381 -123.822 273.478 -123.989 273.58L-124.266 273.737L-124.788 274.023L-125.047 274.157C-125.246 274.263 -125.449 274.361 -125.652 274.462L-125.832 274.55L-126.641 274.915L-126.757 274.961C-126.988 275.058 -127.219 275.155 -127.454 275.243L-127.713 275.345L-128.281 275.553L-128.577 275.654L-129.127 275.834L-129.298 275.89L-129.432 275.932L-130.009 276.102L-130.282 276.176C-130.522 276.246 -130.744 276.306 -131.003 276.366L-131.137 276.403L-132.006 276.602L-132.246 276.648L-132.879 276.777L-133.207 276.833L-133.766 276.93L-134.117 276.985L-134.672 277.064L-135.018 277.114L-135.61 277.184L-135.924 277.221L-136.746 277.299L-136.94 277.299L-137.726 277.359L-138.082 277.359L-138.645 277.392L-139.047 277.392L-139.574 277.415L-139.99 277.415L-140.517 277.415L-141.866 277.415L-142.762 277.415L-143.164 277.415L-143.709 277.415L-144.172 277.415L-144.634 277.415L-145.123 277.415L-145.585 277.392L-146.089 277.364L-146.551 277.336L-147.069 277.304L-147.461 277.276L-148.797 277.174L-148.889 277.174L-149.508 277.119L-149.841 277.091L-150.455 277.036L-150.784 277.003L-151.43 276.943L-151.694 276.916L-152.401 276.842L-152.516 276.842C-154.406 276.643 -156.301 276.421 -158.19 276.204L-159.914 276.005L-160.376 275.955L-162.686 275.701L-162.88 275.701L-165.098 275.479L-165.334 275.479C-166.11 275.409 -166.886 275.345 -167.644 275.289L-171.479 275.031C-172.403 274.966 -173.295 274.887 -174.201 274.804L-174.815 274.661L-176.987 274.444L-177.588 274.379C-179.408 274.182 -181.229 273.963 -183.049 273.723L-183.594 273.649L-185.905 273.335L-186.367 273.275C-190.641 272.679 -194.919 272.018 -199.198 271.385L-200.293 271.228L-201.615 271.034L-203.001 270.84L-204.244 270.669L-205.311 270.516L-205.311 396.164L-182.707 378.18L-180.503 376.457C-151.292 353.775 -116.707 338.989 -85.8597 318.621C-72.8343 310.022 -61.7079 298.822 -49.0799 289.655C-25.2839 272.378 -6.47347 259.884 23.6943 255.07C45.1893 251.641 68.0011 257.916 88.9185 251.9C107.221 246.642 120.057 229.259 137.772 222.282C157.044 214.695 178.47 214.284 198.426 208.688C213.083 204.594 226.667 197.095 241.398 193.297C308.54 176.007 400.632 172.223 465.769 173.678L466.836 173.706C497.397 174.575 493.46 182.758 520.527 191.31C539.795 197.405 559.835 200.806 579.209 206.521C594.872 211.142 609.705 218.535 625.595 222.282C635.575 224.634 646.23 227.124 657.015 229.236L656.446 228.908L656.46 228.926ZM-203.463 109.29C-203.227 108.797 -202.966 108.316 -202.682 107.849C-202.966 108.316 -203.227 108.797 -203.463 109.29" fill="#FDD535"/>
<path d="M1060.22 174.639C1033.84 162.806 1010.52 141.228 989.235 116.355C985.372 111.841 983.228 107.798 982.489 104.226C966.32 99.7435 950.596 93.7921 935.511 86.4462C926.644 82.1259 917.837 77.2697 908.139 75.4954C893.815 72.8709 879.205 77.2327 865.532 82.2276C863.056 83.1286 860.45 84.1405 858.796 86.1828C856.425 89.0891 856.545 93.2985 857.409 96.9487C862.543 118.633 886.981 129.353 908.915 133.345C932.018 137.55 956.114 138.012 977.91 146.745C984.559 149.415 990.884 152.821 997.196 156.217C1018.7 167.801 1040.29 179.431 1059.96 193.916C1075.13 205.084 1091.56 218.664 1110.23 216.197C1110.18 215.146 1110.08 214.104 1109.94 213.069C1098.71 199.669 1083.39 185.022 1060.22 174.621" fill="#FDD535"/>
<path d="M1060.22 174.639C1120.87 201.85 1127.73 258.05 1148.12 245.616C1163.74 236.167 1118.11 174.459 1114.18 158.111C1106.42 125.767 1146.88 79.1272 1108.31 70.8609C1069.74 62.5947 1063.22 90.5215 1030.95 85.6791C998.684 80.8368 967.952 91.4964 989.235 116.355C1010.52 141.214 1033.84 162.806 1060.22 174.639" fill="#FEECA5"/>
<path d="M1580.75 98.922C1579.38 98.9506 1578.01 99.1209 1576.66 99.4303C1557.47 99.5735 1559.11 68.3568 1546.36 53.3908C1534.67 39.663 1518.13 32.2978 1491.03 42.0842C1472.33 48.8349 1452.35 58.8523 1436.73 74.5761C1429.46 81.838 1423.41 90.2317 1418.82 99.4302C1403.49 130.36 1395.72 181.03 1389.34 195.437C1382.97 209.844 1376.23 219.117 1372.32 224.643C1344.25 264.38 1319.95 318.483 1316.46 367.147C1309.82 460.021 1314.76 381.706 1324.71 440.231C1333.03 489.209 1314.69 530.119 1337.9 580.285L1339.82 584.444C1343.95 593.343 1347.4 612.565 1350.3 618.636L1353.45 625.206L1354.02 627.055C1356.48 634.942 1348.64 646.35 1355.73 666.182L1359.89 677.696C1364.29 689.844 1372.77 700.305 1376.68 712.619C1380.99 726.152 1380.84 740.767 1384.35 754.541C1397.15 805.271 1428.15 861.864 1395.73 913.633C1390.56 921.781 1384.28 929.163 1377.06 935.562C1378.49 934.93 1379.91 934.273 1381.33 933.589C1386.3 930.405 1391.22 927.462 1396.34 925.161C1412.86 914.432 1428.23 899.142 1442.79 876.294L1443.9 874.533C1444.28 873.919 1444.67 873.323 1445.05 872.731L1445.33 872.269L1445.22 872.362L1445.03 872.523L1444.69 872.773L1444.55 872.879L1444.3 873.05L1444.15 873.142C1444.02 873.221 1443.9 873.3 1443.77 873.369C1444.14 871.918 1444.52 870.464 1444.9 869.007C1445.1 868.235 1445.29 867.459 1445.49 866.697C1445.67 865.994 1445.85 865.311 1446.03 864.59C1446.23 863.777 1446.44 862.963 1446.64 862.145C1446.87 861.252 1447.09 860.359 1447.32 859.466C1447.43 859.003 1447.55 858.541 1447.66 858.102C1448.04 856.562 1448.42 855.041 1448.8 853.537C1450.61 846.288 1452.43 839.029 1454.35 831.821L1454.42 831.548C1455.36 827.984 1456.33 824.431 1457.33 820.888L1457.4 820.639C1457.88 818.966 1458.36 817.295 1458.86 815.625C1458.89 815.501 1458.93 815.381 1458.96 815.26C1459.48 813.511 1460.01 811.761 1460.55 810.011C1464.9 796.117 1477.06 792.157 1489.8 789.963L1491.04 789.755L1493.81 789.293C1523.22 784.644 1530.43 773.481 1523.98 744.769C1523.92 744.51 1523.86 744.251 1523.8 743.988L1523.3 741.747L1522.79 739.501C1519.37 724.059 1516.51 708.483 1513.76 692.87C1513.58 691.832 1513.4 690.791 1513.21 689.747L1513.17 689.534L1511.63 680.663C1508.31 661.792 1497.98 649.506 1483.3 642.598C1482.69 642.307 1482.07 642.03 1481.45 641.762C1480.2 641.221 1478.91 640.722 1477.61 640.256C1474.93 639.307 1472.19 638.519 1469.42 637.895C1468.71 637.733 1468 637.58 1467.28 637.433L1458.73 635.691C1450.41 634.009 1442.01 632.516 1433.88 632.456C1419.38 632.364 1405.72 636.855 1394.78 653.092L1394.58 653.378L1394.34 653.702C1393.61 654.626 1392.95 655 1392.39 655.028C1391.36 655.074 1390.56 653.997 1389.95 652.801L1389.84 652.579C1389.77 652.426 1389.7 652.274 1389.63 652.117C1389.53 651.89 1389.44 651.655 1389.35 651.451L1388.39 649.021C1387.61 647.02 1386.87 645.024 1386.17 643.047C1364.76 582.485 1379.67 532.397 1458.78 513.874C1460.69 504.942 1463.2 496.07 1464.43 487.028C1467.5 464.452 1462.48 441.585 1462.84 418.805C1463.1 401.945 1466.3 385.283 1469.49 368.723C1472.61 352.523 1475.74 336.291 1480.42 320.47C1483.71 309.339 1487.92 298.157 1495.56 289.424C1500.49 283.805 1506.58 279.494 1513.26 276.14C1513.31 275.451 1513.35 274.754 1513.41 274.079C1513.41 274.07 1513.41 274.061 1513.41 274.051C1513.45 273.529 1513.51 273.012 1513.6 272.508C1513.6 272.467 1513.6 272.425 1513.62 272.379C1513.66 272.148 1513.7 271.917 1513.75 271.699C1513.76 271.684 1513.76 271.669 1513.75 271.653C1513.81 271.418 1513.88 271.191 1513.95 270.96C1513.96 270.919 1513.98 270.879 1513.99 270.84C1514.05 270.66 1514.12 270.48 1514.19 270.309L1514.26 270.147C1514.35 269.945 1514.46 269.747 1514.57 269.556V269.556C1514.92 268.939 1515.26 268.323 1515.59 267.707C1515.67 267.564 1515.75 267.425 1515.82 267.282C1516.15 266.666 1516.47 266.05 1516.78 265.434L1516.89 265.208C1517.16 264.662 1517.43 264.113 1517.7 263.563C1517.77 263.396 1517.86 263.23 1517.93 263.068C1518.21 262.472 1518.49 261.881 1518.75 261.285C1518.82 261.132 1518.88 260.98 1518.95 260.823C1519.16 260.361 1519.37 259.857 1519.58 259.376C1519.66 259.178 1519.74 258.984 1519.82 258.79C1520.06 258.217 1520.28 257.644 1520.52 257.066C1520.61 256.849 1520.69 256.627 1520.78 256.41C1520.94 255.994 1521.1 255.583 1521.24 255.167C1521.33 254.927 1521.42 254.705 1521.51 254.451C1521.72 253.91 1521.91 253.37 1522.1 252.829C1522.21 252.533 1522.32 252.238 1522.42 251.947L1522.75 250.981C1522.94 250.448 1523.12 249.917 1523.29 249.387L1523.55 248.592L1523.94 247.4L1524.09 246.938C1526.5 239.369 1528.51 231.658 1530.88 224.061C1538.84 198.237 1559.8 187.605 1583.81 181.409L1583.81 99.4765C1582.83 99.0749 1581.77 98.8859 1580.72 98.922" fill="#FDD535"/>
</g>
</g>
<defs>
<clipPath id="clip0_7002_202528">
<rect width="1440" height="148" fill="white" transform="translate(0 -0.000244141)"/>
</clipPath>
<clipPath id="clip1_7002_202528">
<rect width="1440" height="157" fill="white" transform="translate(1440 156) rotate(-180)"/>
</clipPath>
</defs>
</svg>
