<svg width="1440" height="148" viewBox="0 0 1440 148" fill="none" xmlns="http://www.w3.org/2000/svg">
<g clip-path="url(#clip0_7002_202654)">
<g clip-path="url(#clip1_7002_202654)">
<g opacity="0.2">
<path d="M1420.94 157.403C1392.89 154.625 1361.25 154.348 1335.47 157.762C1337.37 157.166 1339.23 156.474 1341.06 155.687C1350.56 151.822 1403.22 123.982 1433.87 127.017C1479.05 128.621 1491.93 146.064 1514.44 155.852C1535.9 165.184 1515.5 177.924 1508.82 182.226C1506.68 183.602 1504.4 185.071 1502.79 186.857C1502.21 182.389 1501.7 179.162 1501.7 179.162C1491.29 167.234 1449.01 160.192 1420.96 157.414" fill="#4195C4"/>
<path d="M1084.1 15.469C1068.25 20.8269 1055.17 27.0257 1043.98 34.2149C1016.36 51.9611 1000.25 75.7462 982.359 107.869C955.487 156.051 910.788 186.798 861.087 214.137C849.792 220.355 838.227 226.397 826.56 232.43L817.189 237.269C816.299 237.728 815.446 238.178 814.604 238.619L814.378 238.741L813.497 239.206L812.565 239.703C812.222 239.888 811.889 240.064 811.555 240.249C811.221 240.434 810.868 240.613 810.539 240.794L809.72 241.242L808.61 241.852L808.006 242.182L806.773 242.868L806.478 243.033C802.588 245.221 799.296 247.193 796.452 249.005L796.323 249.086L795.261 249.77L795.073 249.895L794.081 250.531L793.857 250.685L792.961 251.288L792.717 251.459L791.88 252.035L791.62 252.218C791.356 252.401 791.119 252.591 790.841 252.773L790.571 252.964C790.321 253.144 790.072 253.319 789.836 253.5L789.566 253.696L788.869 254.217L788.598 254.417L787.935 254.923L787.664 255.133L787.035 255.623L786.763 255.837L786.158 256.321L785.895 256.536C785.698 256.693 785.502 256.85 785.309 257.012L785.042 257.227L784.48 257.696L784.216 257.921L783.669 258.382C783.583 258.452 783.497 258.527 783.415 258.603L782.872 259.065L782.623 259.286L782.113 259.751L781.853 259.98L781.344 260.436L781.089 260.666L780.579 261.122L780.314 261.36L779.805 261.816C779.728 261.887 779.651 261.963 779.57 262.034L779.057 262.522L778.939 262.636L777.529 263.931C769.495 271.307 759.712 280.308 731.806 297.942L729.053 299.675C714.863 308.545 699.927 315.471 684.638 321.516C694.528 316.351 704.42 311.178 714.312 305.997L721.937 302.002L714.51 305.868C704.493 311.095 694.476 316.333 684.459 321.582C679.141 323.674 673.785 325.677 668.388 327.591C660.821 330.301 653.205 332.895 645.579 335.487C616.111 345.501 586.509 355.556 559.377 372.784C539.251 385.562 525.615 404.962 511.904 424.466C501.004 439.972 490.059 455.548 475.769 467.909C474.586 468.93 473.206 469.977 471.661 471.083C460.863 478.71 442.007 487.764 425.827 495.531C417.049 499.77 409.03 503.619 403.542 506.623C402.756 507.056 402.024 507.472 401.347 507.873C402.991 506.039 404.477 504.027 405.967 502.011C405.966 501.995 405.968 501.98 405.972 501.965C406.231 501.616 406.388 501.201 406.425 500.767C406.461 500.334 406.376 499.899 406.178 499.511C405.98 499.124 405.678 498.799 405.306 498.574C404.933 498.349 404.505 498.233 404.07 498.238L403.498 498.247C399.57 498.29 395.624 498.335 392.386 499.9C353.651 518.575 330.751 552.338 311.762 588.713L310.696 590.757C293.255 624.198 276.998 658.679 289.676 698.51C289.774 698.696 289.628 699.002 289.43 699.312C289.327 699.484 289.241 699.665 289.172 699.853C288.932 699.458 288.673 699.075 288.414 698.687C287.871 697.941 287.404 697.142 287.021 696.302C273.006 661.85 276.411 626.532 290.082 594.255L291.895 590.01C293.325 586.604 294.755 583.197 296.185 579.788C323.953 513.558 352.158 446.295 410.695 400.38C450.918 368.787 497.993 348.737 545.013 328.733C559.071 322.747 573.128 316.766 586.988 310.481L590.021 309.11C592.883 307.815 595.752 306.527 598.627 305.245C638.82 287.225 679.124 269.157 709.534 235.097C728.976 213.471 718.895 193.97 708.791 174.415C708.008 172.945 707.256 171.45 706.502 169.964L704.851 166.666C702.066 161.306 698.772 156.226 695.014 151.498C685.479 139.326 678.227 132.191 671.435 130.079C681.546 126.902 690.488 126.255 697.169 122.464C708.927 115.795 707.26 98.3061 716.234 88.2786C718.793 87.7101 722.201 87.0121 724.333 86.2018C734.221 82.4263 741.243 72.6558 749.021 65.2446C775.757 39.7683 821.506 26.5939 833.817 17.1057C846.499 7.33392 866.423 7.19418 881.656 9.73798C890.102 11.15 897.574 15.4001 905.559 18.1827C913.719 21.0243 922.071 20.2356 930.459 18.8514C939.782 17.3136 949.647 15.4999 958.442 18.9571C958.937 19.0931 959.368 19.4006 959.657 19.8248C959.835 20.2935 959.85 20.8089 959.698 21.2869C958.089 29.0907 955.927 33.2968 949.673 38.5884C945.958 41.7308 941.292 43.516 936.68 45.028C896.184 58.2814 850.224 59.2793 810.656 75.118C803.886 77.8418 795.065 84.2117 796.641 90.051C802.078 104.124 810.751 97.0433 819.296 88.6355C829.39 78.7002 846.194 71.0034 876.791 70.2211C917.792 69.1735 931.432 57.6533 967.611 43.1737C1013.42 24.8323 1069 2.60289 1137.03 0.980988C1140.04 0.910314 1143.07 0.880798 1146.13 0.892543C1121.49 4.90724 1101.19 9.70857 1084.11 15.4838" fill="#BDB3D0"/>
<path d="M170.959 174.399C158.999 164.169 148.404 152.07 140.877 138.189C125.758 110.3 107.391 75.4402 149.561 56.7295C170.77 47.3146 193.769 77.126 212.807 81.0495C221.029 82.7459 228.396 83.8422 236.491 80.4927C238.514 79.6864 240.485 78.7541 242.391 77.7013C242.88 77.4525 243.338 77.1868 243.801 76.9123C245.646 75.8222 247.425 74.6247 249.129 73.326C249.982 72.6861 250.823 72.0264 251.646 71.3603L252.878 70.3541C261.535 63.1646 270.831 55.2771 276.019 45.0418C293.039 53.4086 301.714 63.475 295.385 75.5289C286.967 91.5594 263.057 95.669 241.049 99.4563C203.653 105.885 171.768 111.369 230.854 172.784C235.417 177.526 237.852 183.79 239.459 190.774C233.478 195.331 227.194 199.148 220.012 200.587C204.854 203.617 182.465 184.244 170.955 174.394" fill="#8B7AB0"/>
<path d="M-8.20415 375.532C-11.6349 391.506 -8.28357 417.111 8.52094 424.608C17.9173 428.796 30.7408 428.122 38.8157 435.04C47.6629 442.622 43.7817 458.57 44.5192 468.971C45.4146 481.576 43.7883 494.018 41.8799 506.518C39.2882 523.7 38.1354 541.067 38.4334 558.441L37.1344 560.347L37.1075 560.39L34.3029 564.503C24.7653 578.445 15.0821 593.538 11.6365 610.349C7.81939 629.036 14.2417 645.365 25.5545 660.085C25.8034 660.318 25.7066 660.93 25.6196 661.487C25.6018 661.667 25.585 661.837 25.5694 661.995C25.2759 661.938 24.9721 661.895 24.6768 661.856C23.7976 661.791 22.9371 661.569 22.1359 661.201C4.25765 651.002 -3.14997 632.038 -3.40675 612.526C-3.68131 593.193 1.63919 574.655 7.37065 556.04C9.12859 550.323 10.8731 544.605 12.4713 538.899C15.7517 527.187 19.5206 511.414 12.9734 500.053C7.17497 489.962 -5.60519 486.308 -16.1433 483.856C-34.7481 479.53 -48.1427 463.775 -49.5963 444.634C-50.7363 429.603 -53.5251 412.138 -66.7492 402.762C-78.9325 394.133 -96.01 394.2 -110.247 394.186C-130.185 394.169 -145.89 381.933 -150.344 363.524C-154.877 344.776 -140.531 319.342 -133.875 301.461C-127.448 284.198 -122.209 266.522 -117.068 248.84C-113.337 236.009 -109.665 219.474 -101.319 209.836C-93.9206 201.293 -87.9625 188.306 -82.7227 177.631C-73.5016 158.922 -64.6388 140.032 -57.0145 120.608C-47.1897 95.5729 -38.5624 45.2416 -4.29824 46.8896C5.23182 47.3484 12.3752 49.805 14.0976 60.0993C14.9573 65.1467 13.869 70.5539 12.6254 75.4247C10.7341 82.8553 8.11583 91.2652 12.2018 98.4674C16.2877 105.67 24.6232 113.021 25.0686 121.566C25.7389 134.385 17.3007 148.893 12.0996 160.002C10.5367 163.337 9.74225 166.784 9.0232 170.293C8.69718 171.892 8.38419 173.497 8.02182 175.097C2.74407 198.375 -1.63246 222.757 1.13911 246.071C2.18738 254.889 5.66077 263.929 4.58139 272.496C0.515854 304.767 -1.06464 342.559 -8.1584 375.527" fill="#8B7AB0"/>
<path d="M1260.28 89.4032C1190.05 90.1514 1110.18 91.0005 1068.24 121.462C987.231 180.303 954.572 202.281 891.811 232.376C784.108 284.051 679.193 340.817 577.066 402.674C576.235 403.186 575.39 403.696 574.541 404.207C566.545 409.042 558.159 414.113 554.747 423.995C520.425 439.002 485.584 482.504 422.656 509.5C422.103 509.733 421.549 509.985 420.997 510.264C420.797 510.356 420.597 510.461 420.392 510.557L419.362 511.068L418.441 511.553L417.813 511.89C400.496 521.346 381.605 541.819 367.61 560.947C374.169 548.632 381.238 536.564 388.423 524.59L394.83 513.951L398.728 510.455C399.637 509.649 400.497 508.79 401.304 507.882C401.979 507.479 402.71 507.062 403.499 506.632C408.99 503.606 416.994 499.764 425.789 495.541C441.964 487.773 460.82 478.72 471.619 471.092C473.161 470.001 474.543 468.939 475.726 467.919C490.016 455.558 500.961 439.982 511.862 424.476C525.573 404.971 539.208 385.571 559.334 372.794C586.466 355.566 616.068 345.51 645.537 335.497C653.162 332.904 660.778 330.311 668.346 327.601C673.728 325.673 679.087 323.692 684.402 321.599L675.5 326.252L684.586 321.52C699.889 315.476 714.83 308.551 729.002 299.679L731.755 297.946C759.659 280.325 769.447 271.326 777.478 263.935L778.887 262.64L779.005 262.526L779.518 262.038C779.599 261.967 779.677 261.891 779.753 261.82L780.263 261.364L780.528 261.126L781.037 260.67L781.292 260.44L781.802 259.985L782.061 259.755L782.571 259.29L782.821 259.069L783.363 258.607C783.45 258.532 783.532 258.457 783.617 258.386L784.165 257.925L784.428 257.7L784.99 257.231L785.258 257.016C785.45 256.854 785.647 256.697 785.843 256.54L786.106 256.325L786.711 255.841L786.983 255.627L787.612 255.137L787.883 254.927L788.546 254.421L788.817 254.221C789.048 254.048 789.279 253.872 789.519 253.7L789.784 253.504C790.025 253.323 790.284 253.149 790.52 252.968L790.789 252.777C791.044 252.593 791.291 252.404 791.569 252.223L791.828 252.039L792.665 251.463L792.91 251.292L793.805 250.689L794.03 250.535L795.021 249.899L795.21 249.774L796.271 249.09L796.4 249.01C799.246 247.188 802.538 245.216 806.426 243.038L806.721 242.872L807.955 242.186L808.558 241.856L809.668 241.246L810.488 240.798C810.817 240.617 811.16 240.433 811.503 240.253C811.846 240.073 812.17 239.892 812.514 239.708L813.445 239.21L814.553 238.623L817.142 237.273L828.397 231.46C830.401 230.42 832.415 229.382 834.44 228.344C843.007 223.936 851.829 219.386 861.036 214.137C910.737 186.797 955.435 156.056 982.308 107.869C1000.22 75.7475 1016.33 51.9625 1043.93 34.2144C1054.9 27.0503 1069 20.6367 1084.05 15.4686C1101.13 9.69338 1121.43 4.89204 1146.07 0.877346C1143.01 0.862564 1139.98 0.892031 1136.97 0.965797C1139.07 0.734667 1141.17 0.612972 1143.28 0.601444C1259.57 0.740408 1414.45 13.3181 1392.99 63.778C1382.65 88.1014 1325.61 88.7075 1260.23 89.4028L1260.28 89.4032ZM662.494 333.048L662.004 333.311L661.647 333.498L661.038 333.833C660.702 333.939 660.369 334.064 660.031 334.197C659.693 334.331 659.356 334.455 659.02 334.562C658.828 334.683 658.647 334.82 658.478 334.972L658.009 335.39C657.674 335.496 657.336 335.625 657.003 335.755C656.67 335.884 656.328 336.008 655.992 336.119L655.983 336.211C656.318 336.105 656.656 335.976 656.994 335.847C657.332 335.718 657.664 335.593 658 335.482L658.129 335.402C658.189 335.361 658.249 335.316 658.31 335.267C658.39 335.205 658.466 335.138 658.537 335.076L659.011 334.658C659.199 334.588 659.397 334.506 659.605 334.42L660.087 334.24C660.373 334.124 660.662 334.018 660.954 333.927C661.685 333.581 662.421 333.185 663.153 332.775L663.492 332.585L662.494 333.048Z" fill="#8B7AB0"/>
<path d="M1414.13 226.199C1413.56 226.013 1412.99 225.823 1412.43 225.623L1412.26 225.559C1403.46 222.451 1395.13 217.725 1386.82 213.007C1383.4 211.061 1379.98 209.126 1376.54 207.304L1376.35 207.196L1375.35 206.675L1374.97 206.48L1374.01 205.986L1373.74 205.852C1373.15 205.552 1372.56 205.27 1371.97 204.966L1371.47 204.717L1370.65 204.325L1370.06 204.048L1369.25 203.671L1368.64 203.392C1368.19 203.19 1367.75 202.993 1367.3 202.795L1366.6 202.489L1365.84 202.172L1365.17 201.892L1364.4 201.584L1363.7 201.315L1362.96 201.028C1362.51 200.867 1362.1 200.71 1361.67 200.561L1360.94 200.308L1360.21 200.059L1359.45 199.812L1358.72 199.587L1357.98 199.36L1357.04 199.096L1355.95 198.802L1355.16 198.603L1354.4 198.42L1353.65 198.253L1352.88 198.089L1352.06 197.934C1351.67 197.858 1351.28 197.792 1350.9 197.725C1350.6 197.696 1350.3 197.624 1349.98 197.579L1349.21 197.475L1348.44 197.376L1347.65 197.297C1347.38 197.271 1347.12 197.244 1346.85 197.218C1346.58 197.192 1346.35 197.168 1346.09 197.143C1345.63 197.097 1345.17 197.084 1344.71 197.062L1343.92 197.035L1343.12 197.021L1342.31 197.014L1341.51 197.028L1340.7 197.045L1339.61 197.1C1339.23 197.123 1338.84 197.15 1338.46 197.181L1337.63 197.252L1336.78 197.349L1335.98 197.447L1335.12 197.57L1334.27 197.708C1334.02 197.75 1333.79 197.783 1333.55 197.828C1330.88 198.316 1328.22 198.791 1325.55 199.251L1324.77 199.382C1322.46 199.773 1320.16 200.164 1317.84 200.554L1315.87 200.869C1313.95 201.181 1312.03 201.484 1310.11 201.78L1307.69 202.149C1305.9 202.417 1304.11 202.683 1302.33 202.945L1299.76 203.318L1294.45 204.064L1291.93 204.409C1290.07 204.661 1288.21 204.908 1286.35 205.148L1284.15 205.436C1281.88 205.731 1279.61 206.018 1277.33 206.298L1276.39 206.409C1273.75 206.732 1271.1 207.047 1268.45 207.355L1267.36 207.483C1265.13 207.742 1262.9 207.995 1260.67 208.242C1259.92 208.33 1259.17 208.408 1258.41 208.482C1256.53 208.69 1254.67 208.895 1252.81 209.097L1250.38 209.353L1244.82 209.936L1242.57 210.178C1240.56 210.387 1238.54 210.591 1236.52 210.791L1234.93 210.953C1224.24 212.019 1213.55 213.048 1202.85 214.041C1181.56 216.051 1160.26 218.065 1139.01 220.521L1138.54 220.572C1136.45 220.816 1134.34 221.063 1132.24 221.313L1130.83 221.484L1125.43 222.152L1123.63 222.378C1121.93 222.591 1120.24 222.81 1118.55 223.036L1116.62 223.286C1114.89 223.52 1113.17 223.756 1111.45 223.995L1109.74 224.225C1107.46 224.547 1105.18 224.873 1102.9 225.205C1102.74 225.232 1102.58 225.273 1102.42 225.325L1102.29 225.372L1101.94 225.514L1101.82 225.567L1101.44 225.762C1101.26 225.851 1101.08 225.944 1100.89 226.028C1101.33 226.071 1101.77 226.115 1102.21 226.158C1103.57 226.378 1104.94 226.475 1106.31 226.449C1149.77 223.708 1193.23 222.923 1236.38 228.026C1248.7 229.497 1260.87 231.292 1272.87 233.497L1273.28 233.57L1275.16 233.923L1276.72 234.222L1278.55 234.579L1280.14 234.895L1281.96 235.26L1283.62 235.606C1284.2 235.723 1284.78 235.841 1285.35 235.968C1286.41 236.189 1287.46 236.418 1288.51 236.647L1290.13 237.007L1291.9 237.405L1291.96 237.411L1284.09 237.166C1280.76 237.068 1277.42 236.976 1274.07 236.889C1215.45 235.402 1155.15 236.002 1099.4 242.159L1095.64 242.581C1086.9 243.573 1071.45 246.738 1053.03 250.898L1048.26 251.726L1047.73 251.818L1047.32 251.888C1045.52 252.198 1043.73 252.518 1041.95 252.833L1040.98 253.006C982.976 263.314 925.817 276.185 872.708 301.785L872.625 301.828C871.627 302.308 870.63 302.795 869.634 303.287L869.473 303.364L866.543 304.824L866.362 304.918C865.385 305.406 864.407 305.904 863.429 306.401L863.263 306.487C862.282 307.009 861.302 307.531 860.322 308.053L860.233 308.1C855.106 310.805 850.027 313.645 844.996 316.62C842.588 318.048 840.287 319.648 838.11 321.408L838.049 321.458C837.63 321.793 837.221 322.133 836.81 322.477L836.699 322.569C836.304 322.901 835.914 323.234 835.527 323.572L835.385 323.697C835.008 324.031 834.637 324.361 834.264 324.7L834.101 324.851C833.738 325.182 833.375 325.518 833.017 325.854L832.842 326.022C832.489 326.358 832.135 326.695 831.785 327.036C831.724 327.091 831.663 327.15 831.606 327.209C831.256 327.55 830.907 327.892 830.575 328.24L830.41 328.409C830.059 328.76 829.708 329.115 829.376 329.472L829.231 329.62C828.87 329.989 828.512 330.362 828.16 330.731L828.066 330.833C827.688 331.227 827.31 331.626 826.936 332.026C826.419 332.555 825.949 333.089 825.464 333.621L824.918 334.217L824.63 334.537L824.448 334.737L823.796 335.457L822.722 336.651C821.497 338.053 820.724 339.324 820.403 340.466C820.361 340.615 820.328 340.767 820.303 340.92C820.303 340.92 820.303 340.92 820.299 340.957C820.276 341.095 820.262 341.235 820.257 341.375L820.244 341.513C820.24 341.555 820.236 341.596 820.232 341.633L818.841 342.456C796.669 355.356 734.541 383.145 712.691 420.365C701.99 429.59 686.383 440.108 659.798 452.798C631.298 466.399 599.264 471.371 570.459 484.301L569.944 484.529C553.265 491.852 495.904 509.621 474.692 520.753C388.727 565.87 366.454 594.941 352.271 618.364L350.535 621.266L350.436 619.459C350.377 618.413 350.305 617.361 350.233 616.3C349.898 611.429 349.557 606.482 350.072 601.704C350.342 598.858 351.026 596.067 352.1 593.417C356.716 582.336 361.983 571.542 367.629 560.939C382.935 540.005 404.117 517.456 422.679 509.497C485.607 482.502 520.448 439 554.77 423.993C556.24 423.498 557.714 423.024 559.192 422.573L559.556 422.456L561.54 421.84L561.717 421.788L563.633 421.193L565.501 420.616L566.779 420.223L567.556 419.979L569.655 419.319L570.613 419.024L571.769 418.646L573.363 418.117L574.497 417.732L575.69 417.312L576.652 416.971C577.211 416.771 577.77 416.561 578.325 416.352L579.223 416.004C579.696 415.825 580.164 415.639 580.629 415.447L581.471 415.103C581.985 414.889 582.498 414.671 583.013 414.443L583.463 414.256C595.567 408.875 607.489 403.169 619.293 397.202C692.762 360.166 761.33 313.857 836.677 280.36C851.199 273.907 865.783 267.649 880.431 261.583C883.093 248.772 898.228 241.987 911.171 237.841C981.857 215.202 1048.23 185.767 1120.62 167.072C1127.18 165.377 1133.79 163.677 1140.55 163.19C1149.84 162.522 1159.13 164.176 1168.44 164.392C1189.46 164.886 1209.88 158.108 1230.56 154.325C1263.71 148.344 1297.78 150.008 1330.19 159.189L1335.51 157.747C1361.31 154.354 1392.96 154.613 1420.98 157.388C1449.01 160.163 1491.31 167.208 1501.72 179.136C1501.72 179.136 1502.24 182.364 1502.81 186.831C1503.52 192.26 1504.31 199.516 1504.31 205.065C1505 237.463 1446.94 236.748 1414.16 226.189" fill="#FBC998"/>
<path d="M438.862 79.2981C433.833 83.9958 427.983 87.7439 422.903 92.3856C415.247 99.3722 399.844 109.33 382.539 124.661C371.826 129.307 362.085 136.528 353.993 145.009C340.679 158.953 331.293 176.132 322.886 193.468C309.657 220.765 298.093 249.164 289.359 278.234C285.102 292.387 286.067 298.305 289.577 299.15C286.643 304.552 283.5 309.812 280.149 314.932C255.66 352.215 214.876 372.972 187.86 407.321C171.392 428.266 147.34 438.769 139.571 442.907C100.79 463.556 59.4902 510.244 61.9796 538.888C63.2672 553.739 43.4048 549.929 41.1858 516.585C36.6133 447.877 48.8548 439.135 46.4666 404.45C45.6239 392.188 49.0922 378.309 42.3761 368.014C37.0556 359.849 28.0001 354.658 22.7342 346.456C12.5866 330.677 14.5053 292.027 15.5817 286.924C21.6938 258.022 21.8033 216.963 26.6447 187.671C31.9546 155.569 48.6109 128.5 69.7242 104.296C71.3799 102.441 72.1959 101.514 73.7996 99.6668C80.5482 91.7683 87.1017 83.7299 93.2779 75.3755C95.3405 72.5988 96.3309 71.2249 98.2478 68.5127C98.6663 67.7556 98.8706 67.3811 99.2795 66.6276C106.53 53.4718 113.867 40.3383 122.839 28.2258C125.402 24.8382 128.225 21.6543 131.28 18.7028C132.885 17.1251 144.198 2.56534 159.668 -3.98202C162.666 -5.24445 165.958 -5.64075 169.17 -5.12596C213.454 1.88241 245.365 29.9436 276.025 45.0239C270.833 55.2588 261.541 63.1468 252.885 70.3363L251.652 71.3425C250.825 72.0081 249.984 72.6678 249.136 73.3081C247.432 74.6068 245.653 75.8043 243.808 76.8945C243.345 77.1643 242.873 77.4287 242.397 77.6834C240.491 78.7362 238.521 79.6685 236.498 80.4749C228.403 83.8243 221.036 82.728 212.814 81.0317C193.775 77.1081 170.776 47.2967 149.567 56.7117C107.391 75.4495 125.758 110.3 140.858 138.196C148.385 152.077 158.98 164.177 170.94 174.406C182.45 184.256 204.839 203.63 219.997 200.599C227.179 199.16 233.463 195.344 239.449 190.787C243.637 187.594 247.658 183.707 249.524 178.784C251.391 173.861 254.488 166.172 257.977 162.209C263.165 156.283 284.843 141.384 290.939 137.781C312.367 125.119 395.104 72.7456 418.007 63.0016C426.408 59.4317 435.298 56.212 444.406 56.7935C445.79 56.8796 447.293 57.1305 448.157 58.2004C448.935 59.1597 448.969 60.5049 448.848 61.7326C448.17 68.5792 443.862 74.5742 438.846 79.2778" fill="#BDB3D0"/>
<path d="M320.366 267.078C326.78 250.459 329.379 232.324 338.026 216.744C340.706 211.902 344.022 207.299 348.56 204.136C352.865 201.131 358.021 199.608 362.595 197.028C369.838 192.954 375.339 186.441 380.674 180.065C392.682 165.709 404.693 151.354 416.707 137.001C418.535 134.814 420.44 132.449 420.726 129.613C421.454 122.256 411.681 118.781 404.302 119.257C385.062 120.509 367.316 131.061 354.002 145.01C340.688 158.958 331.303 176.133 322.895 193.469C309.666 220.766 298.102 249.165 289.368 278.235C276.295 321.729 312.499 287.49 320.376 267.065" fill="#8B7AB0"/>
<path d="M611.668 1.2147C620.388 -0.192369 627.767 8.13917 631.955 14.0559C637.062 21.2757 640.61 30.2819 644.579 38.7309C647.711 45.4069 651.483 55.3824 658.406 58.097C665.602 60.9222 677.393 55.5102 685.306 53.7169C691.666 52.2711 698.138 50.7297 704.586 50.1841C706.089 50.0544 707.633 49.9379 709.155 49.81C715.594 49.2589 730.281 46.1583 735.106 52.2869C742.324 61.4522 722.672 80.7952 718.032 86.2001C717.424 86.9014 716.818 87.5889 716.227 88.2548C707.248 98.2817 708.919 115.771 697.162 122.44C690.481 126.231 681.54 126.873 671.427 130.056C660.544 133.477 647.238 141.534 639.345 152.17C638.321 153.55 637.328 155.044 636.347 156.516C635.365 157.989 634.397 159.467 633.475 160.95C620.577 181.714 611.85 203.216 610.155 227.647C608.486 251.729 590.295 267.47 570.801 279.069L568.612 280.362C565.694 282.069 562.752 283.738 559.845 285.386L556.771 287.124L556.063 287.519L555.483 287.847C555.182 288.021 554.878 288.191 554.582 288.366L552.155 289.755C551.066 290.386 550.52 290.698 549.425 291.342C548.845 291.675 548.256 291.997 547.671 292.324C546.074 293.228 544.473 294.125 542.868 295.016C542.042 295.472 541.209 295.919 540.383 296.376C539.039 297.11 537.691 297.84 536.341 298.567C535.404 299.073 534.463 299.569 533.526 300.071C532.281 300.734 531.035 301.384 529.786 302.022L526.781 303.582C525.587 304.197 524.397 304.813 523.2 305.419L520.066 307.012C518.906 307.594 517.747 308.174 516.587 308.753C515.513 309.287 514.434 309.826 513.355 310.355L509.94 312.018C508.833 312.554 507.73 313.095 506.624 313.626C505.517 314.157 504.405 314.692 503.295 315.218C502.184 315.745 501.033 316.304 499.884 316.836L496.658 318.373L493.157 320.014C492.403 320.366 491.644 320.709 490.885 321.061C488.248 322.277 485.606 323.485 482.958 324.687L480.006 326.029L476.363 327.661L473.17 329.09L469.733 330.607L466.236 332.155L463.134 333.52L459.105 335.289L456.636 336.363L451.298 338.69L450.473 339.045L445.136 341.363L437.314 344.767L429.005 348.356C421.043 351.802 413.094 355.271 405.158 358.763C404.979 358.838 404.804 358.918 404.629 358.998C402.832 359.789 401.04 360.584 399.253 361.382L397.251 362.28L393.315 364.049L390.801 365.193L387.329 366.771L384.635 368.004L381.344 369.536L378.56 370.83L375.347 372.332L372.556 373.652L369.339 375.191L366.604 376.457L363.346 378.038C362.448 378.476 361.552 378.913 360.658 379.351L357.314 381.002L354.735 382.284C353.562 382.874 352.389 383.472 351.215 384.067C350.425 384.453 349.627 384.866 348.835 385.275C347.529 385.94 346.227 386.619 344.92 387.292L342.962 388.315C341.003 389.338 339.053 390.372 337.111 391.418C335.591 392.224 334.832 392.627 333.317 393.438C326.954 396.741 320.577 400.599 314.089 403.142C305.259 406.6 292.656 405.352 278.022 412.186C253.573 423.602 238.264 425.954 216.132 441.694C204.973 449.63 193.553 458.096 183.98 467.925C171.317 480.931 161.188 496.471 150.631 511.134C146.988 516.193 143.315 521.247 139.611 526.294C136.822 530.085 133.984 533.845 131.098 537.574C128.825 540.506 127.699 541.932 125.535 544.606C123.395 547.18 121.21 549.694 118.772 551.532C117.674 552.352 116.581 553.21 115.526 554.02C115.174 554.292 114.8 554.552 114.477 554.812C108.513 559.612 102.434 558.783 97.2058 555.126C91.9774 551.47 90.7894 547.712 95.9031 542.257C96.4683 541.613 96.9999 540.94 97.4956 540.241C98.2496 539.239 98.6459 538.707 99.4572 537.594C118.034 512.141 135.089 484.42 156.946 461.566C168.779 449.208 183.692 437.688 197.372 427.402C225.465 406.286 255.519 387.917 286.185 370.825C288.39 369.595 290.599 368.373 292.812 367.158C299.459 363.514 306.134 359.906 312.837 356.335L317.248 353.986C324.05 350.413 330.875 346.879 337.725 343.385C377.706 322.911 419.566 301.231 445.568 265.541C457.504 249.148 457.652 229.081 457.095 208.731C459.213 187.336 458.712 164.261 464.025 143.433C469.337 122.605 478.702 102.354 493.917 87.1687C501.558 79.5397 510.62 73.2262 516.986 64.5005C529.913 46.7714 530.791 20.4572 548.614 7.68414C555.969 2.42278 565.148 0.420269 574.133 -0.616955C586.148 -2.00883 599.647 -0.379685 611.624 1.23812" fill="#8B7AB0"/>
</g>
<path d="M479.963 160.912C494.865 164.174 510.621 176.502 532.952 184.417C549.249 190.192 568.262 193.196 585.012 198.643C599.336 203.292 614.413 212.33 625.613 216.996C637.973 222.148 646.022 222.975 651.586 226.122L651.84 226.256L651.23 225.905C647.598 223.839 643.985 222.347 639.919 220.67C633.793 218.246 627.828 215.434 622.06 212.251C618.779 210.403 614.94 207.797 610.874 205.015C603.772 200.159 595.977 194.827 589.254 192.433C581.122 189.545 572.412 187.961 563.841 186.399C551.527 184.158 539.481 181.968 529.833 176.026C500.825 158.176 468.379 147.175 444.241 147.175C412.299 147.175 378.809 146.066 354.232 144.402C364.94 148.289 375.863 151.556 386.946 154.189C415.469 160.829 446.335 153.542 479.968 160.907" fill="#8B7AB0"/>
<path d="M1395.72 913.587C1428.15 861.836 1397.14 805.23 1384.34 754.5C1380.86 740.726 1380.99 726.111 1376.68 712.578C1372.76 700.264 1364.28 689.803 1359.89 677.655L1355.73 666.141C1348.63 646.309 1356.47 634.901 1354.01 627.014L1353.45 625.165L1350.29 618.595C1347.4 612.537 1343.94 593.316 1339.82 584.403L1337.89 580.244C1314.69 530.078 1333.04 489.186 1324.71 440.189C1314.76 381.665 1309.82 459.989 1316.46 367.106C1319.94 318.442 1344.25 264.358 1372.32 224.602C1376.22 219.058 1382.97 209.816 1389.34 195.391C1395.71 180.965 1403.49 130.319 1418.82 99.389C1423.4 90.1901 1429.45 81.7962 1436.72 74.5349C1419.51 82.852 1407.05 76.0736 1394.01 68.9902C1387.51 65.4647 1380.87 61.856 1373.42 59.9939C1353.06 54.9113 1346.37 70.5057 1338.61 88.5907C1337.28 91.705 1335.91 94.8932 1334.45 98.0629L1333.53 100.054C1327.73 112.77 1323.69 137.019 1319.38 162.839C1316.23 181.714 1312.94 201.425 1308.73 218.087L1308.11 220.504C1304.28 235.063 1292.36 243.145 1280.47 251.184C1274.89 254.964 1269.31 258.739 1264.58 263.198C1240.68 285.691 1229.8 320.627 1240.77 342.566C1244.54 349.959 1251.19 353.831 1258.05 357.315L1263.19 359.893C1264.92 360.708 1266.69 361.429 1268.5 362.051C1274.27 364.153 1280.18 366.311 1279.98 372.798C1279.74 380.113 1272.51 383.347 1265.88 385.736L1262.05 387.122C1254.79 389.807 1247.08 391.405 1239.41 392.995C1237.32 393.429 1235.25 393.859 1233.17 394.312L1232.71 394.413C1231.48 394.677 1230.22 394.875 1228.96 395.088C1223.28 396.012 1217.53 396.964 1214.8 403.165C1211.5 410.659 1215.13 417.026 1219.03 422.992L1220.88 425.801C1227.5 435.583 1236.91 442.772 1248.08 445.471L1248.96 445.693C1273.35 452.009 1278.34 470.098 1283.76 489.699C1284.54 492.508 1285.32 495.35 1286.17 498.192L1286.82 500.317C1296.65 531.737 1308.43 562.533 1320.21 593.302C1335.85 634.157 1351.49 675.008 1362.54 717.383L1363.07 719.393C1366.4 731.822 1370.52 744.062 1374.62 756.298C1383.13 781.646 1391.65 806.985 1393.24 833.993C1396.26 885.101 1367.65 927.481 1311.26 953.097L1311.41 953.028L1316.15 952.164C1338.15 948.098 1358.29 943.782 1376.98 935.53C1384.21 929.131 1390.49 921.747 1395.65 913.596" fill="#BDB3D0"/>
<path d="M1178.05 195.414C1186.01 213.088 1196.44 229.939 1200.5 248.892C1206.43 276.57 1198.26 306.65 1208.62 332.987C1209.4 334.974 1210.42 337.076 1212.34 338.019C1218.11 340.851 1221.82 331.55 1221.59 325.123C1219.9 272.288 1222.99 219.409 1230.83 167.131C1232.05 159.013 1233.4 150.825 1236.53 143.234C1241.28 131.682 1249.9 122.062 1254.41 110.427C1257.03 103.532 1258.15 96.1545 1257.69 88.7909C1257.22 81.4274 1255.19 74.2476 1251.73 67.7332C1240.68 61.0934 1225.58 66.5226 1217.27 76.3783C1208.96 86.234 1205.76 99.2964 1202.82 111.851C1200.45 121.988 1198.07 132.124 1195.69 142.259C1195.26 144.107 1194.74 146.094 1193.28 147.304C1182.29 156.388 1179.39 130.023 1168.7 147.642C1161.86 158.911 1173.37 185.091 1178.01 195.391" fill="#8B7AB0"/>
<path d="M1049.18 229.255C1041.71 221.373 1035.34 212.861 1028.5 204.475C1021.11 195.391 1010.9 189.343 1000.78 183.886C983.219 174.432 964.404 166.868 946.799 157.119C920.836 142.739 896.647 134.589 866.863 135.088C842.083 135.508 820.473 122.196 802.032 106.81C793.313 99.5323 782.075 96.8016 771.665 93.1605C757.836 88.3182 743.914 82.9491 729.784 78.9291C713.765 74.3732 688.379 66.8371 672.198 73.024C669.31 74.1283 667.758 76.2584 669.458 79.1186C670.413 80.676 671.565 82.1033 672.886 83.3649C693.217 89.2977 713.196 97.0326 732.913 104.721C738.332 106.833 743.849 109.009 748.544 112.382L749.413 112.664C749.385 112.766 749.362 112.867 749.334 112.969C749.879 113.385 750.414 113.819 750.937 114.272C756.219 118.893 759.661 125.195 763.746 130.906C768.577 137.63 774.379 143.6 780.962 148.621C793.9 145.687 806.084 143.16 818.976 145.364C831.294 147.466 838.581 154.965 848.238 163.07C862.169 174.76 877.966 185.415 893.542 194.407C907.219 202.308 923.877 204.812 939.397 208.269C957.63 212.339 975.133 217.14 992.566 223.812C1008.94 230.078 1023.88 237.554 1038.98 246.509C1049.28 252.626 1070.57 264.959 1073.72 262.579C1076.88 260.199 1055.3 235.743 1049.15 229.246" fill="#8B7AB0"/>
<path d="M109.351 114.313C111.726 114.752 114.212 115.321 115.99 116.956C118.587 119.35 118.934 123.263 119.1 126.793C119.678 138.761 119.562 152.452 110.668 160.459C99.5504 170.439 82.3664 165.542 67.5297 163.795C46.5985 161.351 25.3253 166.567 4.40331 164.017C-31.6973 159.627 -61.9205 132.948 -97.8594 127.376C-108.316 125.754 -119.451 125.846 -128.665 120.634C-131.65 118.948 -134.649 115.621 -133.248 112.497C-132.426 110.649 -130.388 109.748 -128.503 109.046C-93.7333 96.048 -52.6748 101.38 -22.3776 122.829C-17.221 126.479 -12.3509 130.568 -6.84781 133.664C9.90643 143.095 31.9328 140.951 47.5596 130.199C54.9941 125.088 59.0371 116.873 66.966 113.412C77.9584 108.625 98.0256 112.211 109.337 114.313" fill="#BDB3D0"/>
<path d="M542.761 107.077L426.092 87.5416C417.313 86.0676 408.275 84.5197 400.554 80.047C393.549 75.9855 387.972 69.7061 380.759 66.0235C372.863 61.9944 363.705 61.4029 354.842 61.232C323.534 60.5876 292.27 63.8817 261.784 71.0368C254.229 72.8111 245.196 76.5399 244.604 84.2702C243.948 92.7443 253.956 97.7022 262.315 99.2409C293.915 105.049 326.846 96.7181 358.423 102.586C383.227 107.207 405.622 120.255 429.881 127.177C452.646 133.674 476.548 134.644 500.22 135.573L570.24 138.317C580.983 138.738 591.869 139.181 602.122 142.369C615.457 146.505 626.921 154.984 638.625 162.571C664.729 179.464 693.165 192.446 723.029 201.106C713.067 177.121 690.865 158.597 665.48 153.126C639.433 147.503 632.368 136.765 610.458 125.264C589.859 114.452 565.393 110.871 542.734 107.077" fill="#8B7AB0"/>
<path d="M879.403 221.59C868.263 207.903 849.744 201.855 838.654 188.123C834.819 183.373 831.978 177.814 827.639 173.522C819.936 165.898 808.759 163.329 798.797 159.064C784.768 153.027 772.647 143.283 763.736 130.878C759.652 125.172 756.209 118.865 750.928 114.244C745.785 109.744 739.275 107.175 732.908 104.693C693.088 89.1682 652.2 73.4212 609.46 72.8113C588.667 72.5156 567.902 75.8285 547.165 74.4562C506.139 71.7393 468.851 51.1315 431.147 34.7192C393.443 18.3069 343.462 6.76924 311.732 19.7069C303.766 28.121 350.859 25.113 363.317 40.7814C369.929 49.0984 375.681 58.4089 382.215 66.8137C388.734 70.5564 394.016 76.2536 400.535 80.0332C408.256 84.506 417.271 86.04 426.073 87.5278L542.762 107.078C565.402 110.871 589.891 114.47 610.485 125.264C632.396 136.769 639.461 147.503 665.507 153.126C690.893 158.616 713.099 177.121 723.057 201.106C721.768 200.732 720.478 200.339 719.194 199.947C735.759 208.726 752.079 217.967 768.223 227.467C778.037 233.252 787.976 239.222 799.042 241.915C805.28 243.431 811.763 243.87 817.903 245.737C835.582 251.11 840.96 246.12 840.544 245.561C838.58 242.789 839.981 241.139 843.58 241.051C859.549 240.668 875.286 250.639 881.755 265.245C884.491 271.418 885.706 278.303 889.425 283.94C893.145 289.577 900.769 293.62 906.674 290.339C892.272 270.092 895.058 240.857 879.371 221.59" fill="#BDB3D0"/>
<path d="M656.46 228.927L653.808 227.398L651.849 226.266L651.586 226.122C646.041 222.976 637.973 222.149 625.613 216.997C614.413 212.33 599.317 203.292 585.012 198.644C568.262 193.205 549.249 190.193 532.952 184.417C510.621 176.502 494.865 164.174 479.963 160.912C446.33 153.547 415.464 160.834 386.942 154.194C375.858 151.561 364.936 148.294 354.228 144.407C322.581 133.092 296.66 119.234 280.298 117.035C256.452 113.828 241.116 103.635 229.435 91.7281C225.119 91.3908 187.901 42.0845 171.659 42.0845C139.921 42.0845 122.436 57.1199 111.827 99.4306C111.572 100.441 111.315 101.441 111.056 102.429C111.315 101.441 111.578 100.443 111.832 99.4306C111.578 100.443 111.314 101.445 111.051 102.439C111.028 102.517 111.01 102.596 110.986 102.674C110.723 103.668 110.45 104.656 110.178 105.627L110.178 105.668C110.039 106.163 109.896 106.657 109.753 107.147C109.609 107.637 109.466 108.122 109.323 108.607L109.323 108.658C109.106 109.388 108.884 110.118 108.658 110.834C108.886 110.12 109.107 109.394 109.323 108.658C109.055 109.559 108.782 110.441 108.505 111.319C108.417 111.597 108.325 111.869 108.237 112.146C108.039 112.77 107.835 113.394 107.627 113.995L107.821 113.422L107.627 113.995L109.374 114.318C111.749 114.757 114.235 115.325 116.014 116.961C118.615 119.355 118.957 123.268 119.123 126.798C119.701 138.766 119.585 152.456 110.691 160.464C99.5736 170.444 82.3896 165.547 67.5529 163.805C46.6217 161.351 25.3485 166.577 4.42651 164.022C-6.08994 162.742 -16.1074 159.572 -25.9169 155.58L-27.9083 155.39L-28.3704 155.344C-29.3269 155.247 -30.2787 155.15 -31.2352 155.044L-31.4015 155.044C-32.2702 154.947 -33.1388 154.85 -34.0075 154.744L-34.6267 154.67L-37.0802 154.36L-37.436 154.314C-38.3601 154.189 -39.3166 154.055 -40.2545 153.921L-40.6796 153.861L-43.05 153.501L-43.6876 153.399C-44.5702 153.256 -45.4481 153.113 -46.3306 152.937L-46.4415 152.937C-47.3656 152.775 -48.2897 152.609 -49.237 152.433L-49.8007 152.327C-50.5538 152.184 -51.3024 152.036 -52.0555 151.865L-52.6747 151.74C-54.5229 151.361 -56.3527 150.956 -58.1639 150.525L-58.797 150.373L-61.0287 149.818L-61.5878 149.675C-62.5119 149.441 -63.4268 149.196 -64.3324 148.94L-64.5588 148.875C-65.3813 148.644 -66.2037 148.413 -67.0262 148.164L-67.6916 147.965C-68.4524 147.734 -69.2148 147.497 -69.9787 147.254L-70.4131 147.12C-71.3187 146.83 -72.2213 146.53 -73.1208 146.219L-73.5828 146.062C-74.3313 145.803 -75.0784 145.536 -75.8238 145.262L-76.4938 145.017C-77.307 144.717 -78.1202 144.412 -78.9335 144.093L-79.1691 144.001C-80.0655 143.65 -80.9573 143.289 -81.8444 142.92L-82.4266 142.675C-83.1382 142.367 -83.8467 142.059 -84.5521 141.751L-85.2036 141.464C-86.0815 141.071 -86.964 140.669 -87.8419 140.253L-88.7661 139.828C-89.7949 139.369 -90.8299 138.955 -91.8711 138.585L-92.0097 138.535L-92.9015 138.23L-93.1325 138.156L-93.9411 137.902L-94.2276 137.818L-94.9807 137.601L-95.3042 137.513L-96.025 137.324L-96.3762 137.236L-97.0692 137.07L-97.4481 136.987L-98.1181 136.843L-98.5155 136.765L-99.1762 136.636L-99.5782 136.562L-100.234 136.451L-100.646 136.381L-101.292 136.284L-101.718 136.224L-102.355 136.141L-102.785 136.09L-103.423 136.016L-103.857 135.97L-104.49 135.905L-104.952 135.868L-105.585 135.818L-106.047 135.785L-106.675 135.744L-107.137 135.716L-107.724 135.684L-108.186 135.684L-108.829 135.656L-109.268 135.656L-109.905 135.656L-110.367 135.656L-111.01 135.656L-113.666 135.656L-114.304 135.656L-114.701 135.656L-115.422 135.656L-115.787 135.656L-116.54 135.684L-116.878 135.684L-117.672 135.716L-117.964 135.716L-118.837 135.758L-119.049 135.758L-120.029 135.808L-120.135 135.808C-120.995 135.855 -121.854 135.901 -122.713 135.956L-124.405 136.058L-126.345 136.178L-126.729 136.201L-127.126 136.224L-127.265 136.224L-127.847 136.247L-128.309 136.247L-128.877 136.247L-129.903 136.247L-130.365 136.247L-130.906 136.247L-131.368 136.247L-131.904 136.22L-132.329 136.192L-132.851 136.15L-133.23 136.146L-133.743 136.09L-134.14 136.044L-134.639 135.975L-135.023 135.919L-135.513 135.836L-135.882 135.771L-136.344 135.679L-136.7 135.605L-137.162 135.494L-137.499 135.416L-137.961 135.296L-138.285 135.203L-138.747 135.069L-139.056 134.977L-139.519 134.829L-139.814 134.723L-140.253 134.565L-140.54 134.455L-140.969 134.279L-141.242 134.168L-141.667 133.979L-141.921 133.859L-142.337 133.655L-142.587 133.53L-142.993 133.318L-143.224 133.189L-143.626 132.958L-143.848 132.828L-144.241 132.583L-144.449 132.449L-144.837 132.191L-145.031 132.052L-145.414 131.779L-145.595 131.641C-145.724 131.544 -145.849 131.451 -145.969 131.35L-146.144 131.211C-146.269 131.114 -146.389 131.012 -146.509 130.906L-146.671 130.767L-147.036 130.449L-147.184 130.31C-147.304 130.199 -147.424 130.088 -147.54 129.973L-147.679 129.839L-148.034 129.483L-148.154 129.353C-148.275 129.229 -148.39 129.104 -148.506 128.975L-148.616 128.854C-148.732 128.72 -148.852 128.591 -148.963 128.457L-149.065 128.337C-149.18 128.203 -149.296 128.064 -149.407 127.926L-149.494 127.815L-149.836 127.376C-149.836 127.344 -149.883 127.307 -149.91 127.274C-150.026 127.122 -150.137 126.969 -150.248 126.812C-150.248 126.784 -150.289 126.757 -150.308 126.724C-150.423 126.567 -150.534 126.406 -150.645 126.239L-150.696 126.165C-150.811 125.994 -150.922 125.828 -151.033 125.652L-151.065 125.597C-151.181 125.417 -151.292 125.237 -151.403 125.056L-151.426 125.019C-151.537 124.83 -151.652 124.64 -151.763 124.446C-154.914 118.929 -156.555 112.036 -157.969 104.984L-159.054 99.4398L-157.969 104.957C-158.01 104.319 -160.787 63.524 -205.311 62.6784L-205.311 175.795C-200.353 174.982 -195.391 174.219 -190.451 173.646C-171.045 171.387 -152.128 171.988 -136.03 183.613C-135.281 184.152 -134.539 184.717 -133.803 185.309C-132.697 186.193 -131.607 187.132 -130.532 188.127C-129.817 188.793 -129.107 189.484 -128.401 190.202C-127.696 190.92 -127 191.664 -126.313 192.434C-115.713 204.332 -109.249 218.771 -108.353 233.811C-108.297 234.701 -108.263 235.595 -108.251 236.491L-108.251 236.953C-108.206 243.433 -109.203 249.877 -111.204 256.041C-111.338 256.466 -111.481 256.882 -111.624 257.293L-111.758 257.649C-111.86 257.935 -111.961 258.217 -112.072 258.494C-112.123 258.633 -112.179 258.771 -112.234 258.91C-112.336 259.166 -112.437 259.415 -112.539 259.659C-112.594 259.797 -112.655 259.936 -112.715 260.07C-112.821 260.319 -112.927 260.56 -113.038 260.8L-113.204 261.169L-113.592 261.973C-113.634 262.057 -113.671 262.14 -113.713 262.218C-113.888 262.565 -114.064 262.902 -114.244 263.235L-114.318 263.364C-114.475 263.646 -114.632 263.923 -114.78 264.191L-114.96 264.487C-115.09 264.7 -115.219 264.912 -115.348 265.115C-115.418 265.226 -115.487 265.328 -115.552 265.434C-115.681 265.628 -115.81 265.822 -115.94 266.007L-116.148 266.312C-116.286 266.506 -116.425 266.696 -116.568 266.885L-116.758 267.139C-116.933 267.375 -117.113 267.601 -117.298 267.828L-117.377 267.925C-117.589 268.184 -117.802 268.438 -118.024 268.683C-118.07 268.738 -118.121 268.789 -118.171 268.844C-118.338 269.029 -118.509 269.214 -118.675 269.39L-118.902 269.621L-119.364 270.083L-119.608 270.314L-120.071 270.734L-120.311 270.947C-120.477 271.094 -120.648 271.233 -120.819 271.376L-121.013 271.538C-121.475 271.922 -121.979 272.282 -122.473 272.624L-122.686 272.763C-122.861 272.883 -123.042 273.003 -123.222 273.114L-123.485 273.275C-123.651 273.382 -123.822 273.479 -123.989 273.58L-124.266 273.738L-124.788 274.024L-125.047 274.158C-125.246 274.264 -125.449 274.361 -125.652 274.463L-125.832 274.551L-126.641 274.916L-126.757 274.962C-126.988 275.059 -127.219 275.156 -127.454 275.244L-127.713 275.345L-128.281 275.553L-128.577 275.655L-129.127 275.835L-129.298 275.891L-129.432 275.932L-130.009 276.103L-130.282 276.177C-130.522 276.246 -130.744 276.307 -131.003 276.367L-131.137 276.404L-132.006 276.602L-132.246 276.648L-132.879 276.778L-133.207 276.833L-133.766 276.93L-134.117 276.986L-134.672 277.064L-135.018 277.115L-135.61 277.184L-135.924 277.221L-136.746 277.3L-136.94 277.3L-137.726 277.36L-138.082 277.36L-138.645 277.392L-139.047 277.392L-139.574 277.415L-139.99 277.415L-140.517 277.415L-141.866 277.415L-142.762 277.415L-143.164 277.415L-143.709 277.415L-144.172 277.415L-144.634 277.415L-145.123 277.415L-145.585 277.392L-146.089 277.365L-146.551 277.337L-147.069 277.305L-147.461 277.277L-148.797 277.175L-148.889 277.175L-149.508 277.12L-149.841 277.092L-150.456 277.037L-150.784 277.004L-151.43 276.944L-151.694 276.916L-152.401 276.843L-152.516 276.843C-154.406 276.644 -156.301 276.422 -158.19 276.205L-159.914 276.006L-160.376 275.955L-162.686 275.701L-162.88 275.701L-165.098 275.479L-165.334 275.479C-166.11 275.41 -166.886 275.345 -167.644 275.29L-171.479 275.031C-172.403 274.967 -173.295 274.888 -174.201 274.805L-174.815 274.662L-176.987 274.444L-177.588 274.38C-179.408 274.183 -181.229 273.964 -183.049 273.724L-183.594 273.65L-185.905 273.335L-186.367 273.275C-190.641 272.679 -194.919 272.019 -199.198 271.386L-200.293 271.228L-201.615 271.034L-203.001 270.84L-204.244 270.669L-205.311 270.517L-205.311 396.164L-182.707 378.181L-180.503 376.458C-151.292 353.775 -116.707 338.989 -85.8597 318.622C-72.8343 310.023 -61.7079 298.823 -49.0799 289.655C-25.2839 272.379 -6.47347 259.885 23.6943 255.07C45.1893 251.642 68.0011 257.917 88.9185 251.901C107.221 246.642 120.057 229.26 137.772 222.283C157.044 214.696 178.47 214.284 198.426 208.689C213.083 204.595 226.667 197.096 241.398 193.298C308.54 176.008 400.632 172.223 465.769 173.679L466.836 173.707C497.397 174.575 493.46 182.758 520.527 191.311C539.795 197.406 559.835 200.806 579.209 206.522C594.872 211.143 609.705 218.535 625.595 222.283C635.575 224.635 646.23 227.125 657.015 229.237L656.446 228.909L656.46 228.927ZM-203.463 109.291C-203.227 108.798 -202.966 108.316 -202.682 107.849C-202.966 108.316 -203.227 108.798 -203.463 109.291Z" fill="#8B7AB0"/>
<path d="M1060.22 174.64C1033.84 162.806 1010.52 141.228 989.235 116.355C985.372 111.841 983.228 107.798 982.489 104.226C966.32 99.7438 950.596 93.7923 935.511 86.4464C926.644 82.1262 917.837 77.2699 908.139 75.4956C893.815 72.8711 879.205 77.233 865.532 82.2278C863.056 83.1288 860.45 84.1407 858.796 86.183C856.425 89.0894 856.545 93.2987 857.409 96.949C862.543 118.633 886.981 129.353 908.915 133.345C932.018 137.55 956.114 138.012 977.91 146.745C984.559 149.416 990.884 152.821 997.196 156.217C1018.7 167.801 1040.29 179.431 1059.96 193.917C1075.13 205.085 1091.56 218.664 1110.23 216.197C1110.18 215.147 1110.08 214.104 1109.94 213.069C1098.71 199.669 1083.39 185.022 1060.22 174.621" fill="#8B7AB0"/>
<path d="M1060.22 174.64C1120.87 201.851 1127.73 258.051 1148.12 245.617C1163.74 236.168 1118.11 174.46 1114.18 158.112C1106.42 125.768 1146.88 79.1279 1108.31 70.8617C1069.74 62.5954 1063.22 90.5223 1030.95 85.6799C998.684 80.8375 967.952 91.4972 989.235 116.356C1010.52 141.215 1033.84 162.807 1060.22 174.64Z" fill="#BDB3D0"/>
<path d="M1580.75 98.9222C1579.38 98.9508 1578.01 99.1212 1576.66 99.4305C1557.47 99.5737 1559.11 68.3571 1546.36 53.391C1534.67 39.6633 1518.13 32.298 1491.03 42.0844C1472.33 48.8351 1452.35 58.8525 1436.73 74.5764C1429.46 81.8383 1423.41 90.232 1418.82 99.4305C1403.49 130.361 1395.72 181.03 1389.34 195.437C1382.97 209.844 1376.23 219.117 1372.32 224.644C1344.25 264.381 1319.95 318.483 1316.46 367.147C1309.82 460.021 1314.76 381.707 1324.71 440.231C1333.03 489.209 1314.69 530.12 1337.9 580.285L1339.82 584.444C1343.95 593.343 1347.4 612.565 1350.3 618.636L1353.45 625.207L1354.02 627.055C1356.48 634.942 1348.64 646.351 1355.73 666.182L1359.89 677.697C1364.29 689.844 1372.77 700.305 1376.68 712.619C1380.99 726.153 1380.84 740.768 1384.35 754.542C1397.15 805.271 1428.15 861.864 1395.73 913.633C1390.56 921.781 1384.28 929.163 1377.06 935.562C1378.49 934.931 1379.91 934.273 1381.33 933.589C1386.3 930.406 1391.22 927.462 1396.34 925.161C1412.86 914.432 1428.23 899.143 1442.79 876.294L1443.9 874.534C1444.28 873.919 1444.67 873.323 1445.05 872.731L1445.33 872.269L1445.22 872.362L1445.03 872.524L1444.69 872.773L1444.55 872.879L1444.3 873.05L1444.15 873.143C1444.02 873.221 1443.9 873.3 1443.77 873.369C1444.14 871.918 1444.52 870.464 1444.9 869.007C1445.1 868.236 1445.29 867.459 1445.49 866.697C1445.67 865.995 1445.85 865.311 1446.03 864.59C1446.23 863.777 1446.44 862.964 1446.64 862.146C1446.87 861.252 1447.09 860.359 1447.32 859.466C1447.43 859.004 1447.55 858.542 1447.66 858.103C1448.04 856.562 1448.42 855.041 1448.8 853.538C1450.61 846.288 1452.43 839.029 1454.35 831.821L1454.42 831.548C1455.36 827.984 1456.33 824.431 1457.33 820.888L1457.4 820.639C1457.88 818.966 1458.36 817.295 1458.86 815.626C1458.89 815.501 1458.93 815.381 1458.96 815.261C1459.48 813.511 1460.01 811.761 1460.55 810.012C1464.9 796.118 1477.06 792.158 1489.8 789.963L1491.04 789.755L1493.81 789.293C1523.22 784.645 1530.43 773.481 1523.98 744.769C1523.92 744.51 1523.86 744.252 1523.8 743.988L1523.3 741.747L1522.79 739.502C1519.37 724.06 1516.51 708.484 1513.76 692.871C1513.58 691.832 1513.4 690.791 1513.21 689.747L1513.17 689.535L1511.63 680.663C1508.31 661.793 1497.98 649.506 1483.3 642.599C1482.69 642.308 1482.07 642.03 1481.45 641.762C1480.2 641.222 1478.91 640.723 1477.61 640.256C1474.93 639.308 1472.19 638.519 1469.42 637.895C1468.71 637.733 1468 637.581 1467.28 637.433L1458.73 635.691C1450.41 634.009 1442.01 632.517 1433.88 632.456C1419.38 632.364 1405.72 636.855 1394.78 653.092L1394.58 653.378L1394.34 653.702C1393.61 654.626 1392.95 655 1392.39 655.028C1391.36 655.074 1390.56 653.998 1389.95 652.801L1389.84 652.579C1389.77 652.427 1389.7 652.274 1389.63 652.117C1389.53 651.891 1389.44 651.655 1389.35 651.452L1388.39 649.021C1387.61 647.021 1386.87 645.024 1386.17 643.047C1364.76 582.485 1379.67 532.398 1458.78 513.874C1460.69 504.942 1463.2 496.071 1464.43 487.028C1467.5 464.452 1462.48 441.585 1462.84 418.805C1463.1 401.945 1466.3 385.283 1469.49 368.723C1472.61 352.523 1475.74 336.291 1480.42 320.47C1483.71 309.339 1487.92 298.157 1495.56 289.424C1500.49 283.806 1506.58 279.495 1513.26 276.14C1513.31 275.452 1513.35 274.754 1513.41 274.079C1513.41 274.07 1513.41 274.061 1513.41 274.052C1513.45 273.529 1513.51 273.012 1513.6 272.508C1513.6 272.467 1513.6 272.425 1513.62 272.379C1513.66 272.148 1513.7 271.917 1513.75 271.7C1513.76 271.684 1513.76 271.669 1513.75 271.654C1513.81 271.418 1513.88 271.191 1513.95 270.96C1513.96 270.92 1513.98 270.879 1513.99 270.84C1514.05 270.66 1514.12 270.48 1514.19 270.309L1514.26 270.147C1514.35 269.945 1514.46 269.748 1514.57 269.556C1514.92 268.94 1515.26 268.324 1515.59 267.708C1515.67 267.564 1515.75 267.426 1515.82 267.282C1516.15 266.666 1516.47 266.05 1516.78 265.434L1516.89 265.208C1517.16 264.663 1517.43 264.113 1517.7 263.563C1517.77 263.397 1517.86 263.23 1517.93 263.068C1518.21 262.472 1518.49 261.881 1518.75 261.285C1518.82 261.132 1518.88 260.98 1518.95 260.823C1519.16 260.361 1519.37 259.857 1519.58 259.377C1519.66 259.178 1519.74 258.984 1519.82 258.79C1520.06 258.217 1520.28 257.644 1520.52 257.066C1520.61 256.849 1520.69 256.627 1520.78 256.41C1520.94 255.994 1521.1 255.583 1521.24 255.167C1521.33 254.927 1521.42 254.705 1521.51 254.451C1521.72 253.91 1521.91 253.37 1522.1 252.829C1522.21 252.534 1522.32 252.238 1522.42 251.947L1522.75 250.981C1522.94 250.448 1523.12 249.917 1523.29 249.387L1523.55 248.592L1523.94 247.4L1524.09 246.938C1526.5 239.37 1528.51 231.658 1530.88 224.062C1538.84 198.237 1559.8 187.605 1583.81 181.409L1583.81 99.4767C1582.83 99.0751 1581.77 98.8861 1580.72 98.9222" fill="#8B7AB0"/>
</g>
</g>
<defs>
<clipPath id="clip0_7002_202654">
<rect width="1440" height="148" fill="white"/>
</clipPath>
<clipPath id="clip1_7002_202654">
<rect width="1440" height="157" fill="white" transform="translate(1440 156) rotate(-180)"/>
</clipPath>
</defs>
</svg>
