<svg width="119" height="44" viewBox="0 0 119 44" fill="none" xmlns="http://www.w3.org/2000/svg">
<path fill-rule="evenodd" clip-rule="evenodd" d="M42.4623 13.2496V26.2569H45.662H48.8616V21.2985C48.8616 18.0205 48.8785 16.2171 48.9114 15.9773C48.9815 15.4671 49.1573 14.9749 49.3999 14.61C49.8381 13.9509 50.4726 13.6533 51.3367 13.7018C52.4546 13.7644 53.1128 14.4252 53.3115 15.6841C53.3418 15.8766 53.3592 17.8408 53.3594 21.1212L53.3597 26.2569H56.5594H59.7591V20.2631C59.7591 15.2111 59.7481 14.1751 59.689 13.6702C59.4788 11.8731 58.8685 10.4815 57.8356 9.44441C56.9451 8.55026 55.8446 8.02422 54.4861 7.84323C53.9569 7.77274 52.6217 7.81522 52.1541 7.91742C50.9984 8.17001 50.0888 8.6623 49.2674 9.47956L48.8153 9.92942V5.0858V0.242188H45.6388H42.4623V13.2496ZM110.492 0.439269C110.318 0.837281 103.813 16.5661 103.813 16.5887C103.813 16.6016 105.518 16.6068 107.601 16.6002L111.39 16.5884L114.763 8.45005C116.618 3.97398 118.137 0.296118 118.139 0.276967C118.14 0.257815 116.44 0.242188 114.36 0.242188H110.578L110.492 0.439269ZM28.4347 7.82969C27.0236 8.03831 25.9498 8.43456 24.8813 9.141C22.7276 10.5648 21.2582 12.9737 20.8491 15.7508C20.6604 17.0318 20.7412 18.6477 21.0558 19.8889C21.8459 23.0053 23.9394 25.3887 26.6912 26.3048C27.6959 26.6392 28.0598 26.6939 29.2926 26.6958C30.1863 26.6972 30.4532 26.682 30.7765 26.6114C32.0691 26.3291 33.0192 25.8383 33.8023 25.0482L34.208 24.6388V25.4479V26.2569H37.2918H40.3755V17.2376V8.21819H37.2918H34.208V9.04886V9.87957L33.9182 9.57523C33.1766 8.79645 32.1719 8.25427 30.9156 7.95466C30.4978 7.85505 30.2971 7.83646 29.5013 7.82384C28.9912 7.81573 28.5112 7.81837 28.4347 7.82969ZM69.2905 7.8788C67.5426 8.11335 65.7738 8.86494 64.4693 9.92742C61.9223 12.0017 60.679 15.3306 61.1764 18.7435C61.726 22.5137 64.3993 25.465 68.1292 26.4191C68.9669 26.6334 69.7165 26.7207 70.72 26.7207C72.4705 26.7207 73.7967 26.4213 75.2582 25.6964C78.0082 24.3323 79.8353 21.7777 80.2837 18.6702C80.3925 17.9159 80.3916 16.589 80.2817 15.8464C80.0533 14.3032 79.4813 12.8699 78.6051 11.6455C78.2542 11.155 77.3714 10.2361 76.8936 9.8638C75.5014 8.77916 73.874 8.10365 72.1014 7.87476C71.3875 7.78257 69.9926 7.78457 69.2905 7.8788ZM89.6478 7.8788C87.9218 8.11042 86.2853 8.79692 84.916 9.8638C84.4382 10.2361 83.5554 11.155 83.2044 11.6455C82.3282 12.8699 81.7562 14.3032 81.5278 15.8464C81.4179 16.589 81.417 17.9159 81.5258 18.6702C82.1043 22.6791 85.0077 25.7405 88.9803 26.5301C89.7354 26.6802 90.1833 26.7207 91.0896 26.7207C92.8245 26.7207 94.3058 26.3787 95.7217 25.6512C99.4709 23.725 101.399 19.5681 100.539 15.2668C99.745 11.2966 96.5886 8.41676 92.4343 7.87216C91.7502 7.78248 90.3404 7.78582 89.6478 7.8788ZM0.170898 8.24314C0.170898 8.25719 1.89594 12.3407 4.00434 17.3175C6.1127 22.2944 7.83677 26.3887 7.83561 26.416C7.8344 26.4433 7.21533 27.924 6.45989 29.7065C5.70444 31.489 5.08634 32.9551 5.08634 32.9645C5.08634 32.9739 6.61449 32.9762 8.48217 32.9696L11.8781 32.9577L16.9882 20.6459C19.7987 13.8744 22.0998 8.30792 22.1016 8.27583C22.1042 8.22946 21.4174 8.22 18.737 8.22946L15.3689 8.24138L13.2998 13.4889C12.1618 16.375 11.2203 18.7262 11.2077 18.7137C11.195 18.7012 10.2655 16.3398 9.14196 13.4662L7.09917 8.24138L3.63504 8.22951C1.72974 8.22297 0.170898 8.22909 0.170898 8.24314ZM31.563 13.696C32.8453 13.9892 33.8678 14.9973 34.2146 16.3101C34.3521 16.8307 34.3519 17.692 34.2142 18.2114C33.8679 19.5175 32.8908 20.4942 31.588 20.8367C31.0699 20.9729 30.2068 20.9732 29.6868 20.8373C28.5647 20.5441 27.6048 19.7168 27.1929 18.688C26.7402 17.5569 26.8799 16.1395 27.5377 15.1893C28.4377 13.8895 29.9521 13.3277 31.563 13.696ZM71.3995 13.7092C72.7937 13.958 73.8663 14.9881 74.2103 16.4086C74.3232 16.875 74.3114 17.7321 74.1856 18.2114C73.8552 19.469 72.911 20.4312 71.6767 20.7677C71.2508 20.8839 70.1935 20.8848 69.7755 20.7694C68.7561 20.488 67.9426 19.8053 67.5013 18.8606C67.2385 18.2981 67.1614 17.9356 67.161 17.2608C67.1608 16.6484 67.2183 16.3385 67.4294 15.8159C67.6835 15.1868 68.1643 14.5989 68.7295 14.226C69.4661 13.7401 70.4766 13.5445 71.3995 13.7092ZM91.7559 13.7093C92.9501 13.9232 93.935 14.7137 94.3801 15.8159C94.5912 16.3385 94.6488 16.6484 94.6485 17.2608C94.6482 17.9356 94.5711 18.2981 94.3083 18.8606C93.8669 19.8053 93.0535 20.488 92.0341 20.7694C91.6161 20.8848 90.5588 20.8839 90.1328 20.7677C88.8987 20.4313 87.9554 19.4702 87.6236 18.2114C87.4868 17.6921 87.4866 16.8282 87.6233 16.3158C88.0509 14.7122 89.405 13.6618 91.0603 13.6495C91.2515 13.6481 91.5646 13.675 91.7559 13.7093ZM105.32 18.1731C103.466 18.4044 102.002 19.7304 101.599 21.5435C101.487 22.0471 101.499 22.9334 101.624 23.4422C102.012 25.0105 103.227 26.1853 104.796 26.5081C104.996 26.5492 105.38 26.5816 105.667 26.5816C106.88 26.5816 107.832 26.1881 108.686 25.3338C109.545 24.4745 109.934 23.5292 109.934 22.2971C109.934 20.7828 109.244 19.5273 107.988 18.7543C107.244 18.2964 106.183 18.0653 105.32 18.1731ZM52.6067 27.9671C51.3203 28.3925 50.7525 29.8492 51.4255 30.9975C51.6011 31.2972 52.0212 31.6684 52.3739 31.8355C52.6724 31.9768 52.7139 31.9839 53.2438 31.9839C53.7748 31.9839 53.8147 31.977 54.1167 31.834C54.5216 31.6422 54.9623 31.2095 55.1426 30.8269C55.633 29.7855 55.1872 28.5857 54.1218 28.0797C53.8055 27.9295 53.7208 27.9101 53.3205 27.8954C52.9721 27.8827 52.8138 27.8986 52.6067 27.9671ZM47.2618 28.0643C45.5469 28.4082 44.4206 29.4963 43.9898 31.2251C43.9261 31.4806 43.8842 31.8384 43.8669 32.2737L43.8406 32.9345H43.1508H42.461L42.4732 34.4532L42.4855 35.9719L43.1695 35.9848L43.8534 35.9976V39.5902V43.1828H45.7083H47.5632V39.5897V35.9966L48.8269 35.9842L50.0905 35.9719L50.1027 34.4532L50.1149 32.9345H48.8363H47.5576L47.5897 32.5983C47.661 31.8526 47.9574 31.438 48.5476 31.2587C48.9451 31.138 49.5153 31.1584 49.9471 31.3088C50.0977 31.3613 50.2281 31.4043 50.2369 31.4043C50.2456 31.4043 50.2528 30.7067 50.2528 29.8541V28.304L49.9862 28.2038C49.5378 28.0354 49.087 27.9724 48.3591 27.9766C47.903 27.9793 47.5417 28.0081 47.2618 28.0643ZM62.4487 32.7234C61.6687 32.8909 61.0318 33.2736 60.6192 33.8224L60.4083 34.103V33.5188V32.9345H58.5302H56.6521V38.0587V43.1828H58.5302H60.4083L60.4086 40.3889C60.4087 38.783 60.4282 37.4766 60.4543 37.3167C60.5149 36.9467 60.7393 36.5003 60.943 36.345C61.4846 35.9318 62.3416 36.029 62.6986 36.5441C62.9802 36.9505 62.9759 36.8973 62.9943 40.1802L63.0112 43.1828H64.8862H66.7613V39.819C66.7613 36.2519 66.7424 35.8431 66.5469 35.1684C66.3598 34.5228 66.104 34.0835 65.6496 33.6274C65.2074 33.1835 64.8333 32.9601 64.2564 32.7954C63.8063 32.6669 62.8831 32.6301 62.4487 32.7234ZM71.9318 32.6895C71.326 32.7738 70.4204 33.1328 69.9455 33.4769C68.8577 34.2649 68.1035 35.5076 67.8404 36.9457C67.7357 37.5174 67.7384 38.6616 67.8456 39.2121C68.0275 40.1463 68.3822 40.968 68.8951 41.6437C69.5749 42.5391 70.5403 43.153 71.621 43.3771C72.2065 43.4985 73.1917 43.4744 73.6939 43.3264C74.2682 43.1572 74.7418 42.8903 75.1515 42.5049L75.5256 42.1529V42.6679V43.1828H77.3805H79.2354V38.0587V32.9345H77.3805H75.5256V33.465V33.9955L75.2822 33.7361C74.7968 33.219 74.104 32.8634 73.313 32.7254C72.9465 32.6615 72.2613 32.6437 71.9318 32.6895ZM86.4926 32.7307C85.8345 32.8661 85.0754 33.3357 84.6822 33.8507L84.5218 34.0608V33.4972V32.9335L82.6321 32.9456L80.7425 32.9577L80.7307 38.0702L80.7189 43.1828H82.6204H84.5218L84.5224 40.2729C84.5229 37.1961 84.5269 37.132 84.7423 36.7139C84.944 36.3226 85.3335 36.0906 85.7917 36.0889C86.1928 36.0874 86.4155 36.1706 86.6588 36.4128C87.0621 36.8144 87.0461 36.6665 87.0617 40.1338L87.0754 43.1828H88.9537H90.832L90.8167 39.4614C90.8015 35.7814 90.8002 35.7357 90.6976 35.3459C90.6405 35.1291 90.4898 34.7379 90.3625 34.4764C90.1704 34.0817 90.0703 33.9402 89.7719 33.6417C89.3823 33.252 89.0524 33.0342 88.6228 32.8832C87.9779 32.6565 87.1432 32.5968 86.4926 32.7307ZM96.3931 32.7276C94.7382 32.9893 93.3881 33.8755 92.5808 35.23C92.3391 35.6355 92.1503 36.1086 92.0035 36.6769C91.8849 37.1357 91.874 37.2494 91.8729 38.0355C91.8717 38.9639 91.9136 39.2745 92.1304 39.9439C92.6955 41.6891 94.1217 42.9377 96.0221 43.3511C96.3289 43.4178 96.6115 43.4367 97.2973 43.4362C98.2805 43.4355 98.6607 43.3697 99.3841 43.0745L99.755 42.9231L99.7672 41.2007L99.7793 39.4783L99.4658 39.6623C99.012 39.9285 98.6346 40.0364 98.0616 40.0636C97.4731 40.0917 97.1545 40.033 96.7234 39.8173C96.3296 39.6203 96.0201 39.2986 95.822 38.8805C95.6848 38.5909 95.6744 38.5342 95.6754 38.0818C95.6763 37.6839 95.696 37.5462 95.7831 37.3282C96.0896 36.5611 96.8114 36.1016 97.7842 36.0542C98.4752 36.0206 98.756 36.0971 99.7434 36.5884C99.7626 36.5979 99.7782 35.834 99.7782 34.891V33.1763L99.4823 33.0578C98.5789 32.6961 97.3934 32.5694 96.3931 32.7276ZM104.93 32.7279C102.066 33.2309 100.194 35.725 100.471 38.6687C100.569 39.7077 100.84 40.5207 101.34 41.2731C102.053 42.3454 103.123 43.0372 104.555 43.3512C105.171 43.4863 106.766 43.4741 107.43 43.3291C108.464 43.1032 109.379 42.6233 110.042 41.9597C110.351 41.6498 110.855 40.9809 110.811 40.9388C110.8 40.9285 110.082 40.6473 109.215 40.3138L107.638 39.7075L107.406 39.9428C107.119 40.2344 106.884 40.3747 106.527 40.4676C105.423 40.755 104.321 40.177 104.142 39.2168L104.103 39.0098L107.633 38.998L111.163 38.9861L111.16 38.1282C111.158 37.4852 111.137 37.1722 111.074 36.8786C110.827 35.7231 110.369 34.8429 109.636 34.1159C108.936 33.4214 108.147 33.0057 107.082 32.7696C106.612 32.6655 105.417 32.6423 104.93 32.7279ZM51.3657 38.0587V43.1828H53.2438H55.1219V38.0587V32.9345H53.2438H51.3657V38.0587ZM106.433 35.5871C106.696 35.6534 106.854 35.7434 107.091 35.9622C107.319 36.1726 107.451 36.3974 107.516 36.6866L107.559 36.8762H105.848C103.918 36.8762 104.072 36.9145 104.236 36.4765C104.518 35.7235 105.46 35.342 106.433 35.5871ZM74.1105 36.0967C74.6196 36.226 75.1758 36.6853 75.4006 37.162C75.9291 38.2823 75.3983 39.574 74.238 39.9916C73.8858 40.1183 73.2418 40.1309 72.8767 40.0181C72.254 39.8258 71.7188 39.2916 71.5317 38.6758C71.454 38.4199 71.4379 38.269 71.4534 37.9436C71.4705 37.587 71.4951 37.4889 71.643 37.1899C72.0936 36.2781 73.089 35.8371 74.1105 36.0967Z" fill="#A6A6A6"/>
</svg>
