<svg width="89" height="62" viewBox="0 0 89 62" fill="none" xmlns="http://www.w3.org/2000/svg">
<g clip-path="url(#clip0)">
<path d="M44.5 0.417969H0V15.149H14.731V45.5318H29.769V15.149H44.5V0.417969ZM59.231 0.417969H89V15.149H59.231V0.417969ZM59.231 30.0178V15.149H44.5V45.5318H89V30.0396L59.231 30.0178Z" fill="#A6A6A6"/>
<path d="M6.13793 51.67V60.8769H3.68276V51.67H0V49.8286H9.2069V51.67H6.13793ZM16.1029 57.1941H10.997C11.078 58.4217 11.9401 58.9845 12.7534 58.9845C13.3715 58.9845 13.8914 58.8474 14.217 58.4723L15.8104 59.8506C15.1275 60.7283 13.8914 61.2556 12.7534 61.2556C10.2979 61.2556 8.73673 59.5271 8.73673 56.8277C8.73673 54.2095 10.3789 52.3774 12.5422 52.3774C14.8191 52.3774 16.1357 54.2154 16.1357 56.6549C16.1357 56.9817 16.1194 57.1941 16.1029 57.1941ZM12.4284 54.4376C11.6151 54.4376 11.1112 54.7389 11.0299 55.9665H13.957C13.892 54.7389 13.4365 54.4376 12.4284 54.4376ZM21.4855 61.2795C19.2575 61.2795 17.4854 59.4581 17.4854 56.8399C17.4854 54.2218 19.2093 52.3841 21.5831 52.3841C23.2094 52.3841 24.25 53.1811 24.9657 54.2709L23.4862 55.7667C22.9819 55.051 22.4455 54.5468 21.5349 54.5468C20.4614 54.5468 19.7623 55.4411 19.7623 56.8393C19.7623 58.2059 20.4614 59.1168 21.5349 59.1168C22.4127 59.1168 22.9657 58.7267 23.5515 58.0273L24.9823 59.3768C24.1525 60.4828 23.1765 61.2795 21.4855 61.2795ZM31.6103 60.8769V56.4821C31.6103 54.9541 31.3179 54.4986 30.3907 54.4986C29.4636 54.4986 29.1552 54.9544 29.1552 56.4342V60.8775H26.7V50.369L29.1552 49.2461V53.1336C29.1552 52.7269 30.1388 52.3856 31.0331 52.3856C33.2123 52.3856 34.0655 53.8815 34.0655 56.2881V60.8775L31.6103 60.8769Z" fill="#A6A6A6"/>
<path d="M43.0319 53.0347C42.6253 52.2546 41.975 51.7989 40.9508 51.7989C39.2433 51.7989 38.268 53.2953 38.268 55.4089C38.268 57.4577 39.2598 59.0189 40.9671 59.0189C41.9924 59.0189 42.594 58.58 43.1952 57.5719L45.1142 58.7099C44.3341 60.3198 42.9672 61.2792 40.9027 61.2792C37.9267 61.2792 35.926 59.0017 35.926 55.4083C35.926 51.9446 38.0071 49.538 40.9831 49.538C43.1301 49.538 44.431 50.5786 45.1458 52.0579L43.0319 53.0347ZM51.3905 55.1812C51.0327 54.8556 50.6706 54.6281 50.1666 54.6281C49.2892 54.6281 48.797 55.0032 48.797 56.4818V60.8766H46.3418V52.2834H48.797V53.1326C49.4108 52.726 49.6796 52.3847 50.4766 52.3847C51.2079 52.3847 51.7217 52.6769 52.0142 52.9862L51.3905 55.1812ZM58.6176 60.8004V60.5316C58.0039 60.9379 57.634 61.2795 56.7397 61.2795C54.5602 61.2795 53.7073 59.7831 53.7073 57.377V52.2838H55.5487V57.1812C55.5487 58.7099 56.1481 59.1653 57.0755 59.1653C58.0011 59.1653 58.6176 58.7092 58.6176 57.2294V52.2834H61.0728V60.8766H58.5213L58.6176 60.8004ZM67.5176 60.8769V56.4821C67.5176 54.9541 67.3786 54.4986 66.4512 54.4986C65.5256 54.4986 65.3694 54.9544 65.3694 56.4342V60.8775H62.9142V52.2844H65.3694V53.1336C65.3694 52.7269 66.1995 52.3856 67.0938 52.3856C69.2734 52.3856 69.9728 53.8815 69.9728 56.2881V60.8775L67.5176 60.8769ZM75.9119 61.2795C73.6838 61.2795 71.9121 59.4581 71.9121 56.8399C71.9121 54.2218 73.6359 52.3841 76.0098 52.3841C77.6366 52.3841 78.677 53.1811 79.3921 54.2709L77.9135 55.7667C77.4086 55.051 76.8728 54.5468 75.9625 54.5468C74.8884 54.5468 74.189 55.4411 74.189 56.8393C74.189 58.2059 74.8884 59.1168 75.9625 59.1168C76.8393 59.1168 77.3933 58.7267 77.9788 58.0273L79.4096 59.3768C78.5782 60.4828 77.6032 61.2795 75.9119 61.2795ZM85.9314 61.1009V56.4821C85.9314 54.9541 85.639 54.4986 84.7115 54.4986C83.7859 54.4986 83.4763 54.9544 83.4763 56.4342V60.8775H81.0211V50.369L83.4763 49.2461V53.1336C83.4763 52.7269 84.4599 52.3856 85.3542 52.3856C87.5337 52.3856 88.3866 53.8815 88.3866 56.2881V60.8775H85.9891L85.9314 61.1009Z" fill="#A6A6A6"/>
</g>
<defs>
<clipPath id="clip0">
<rect width="89" height="60.876" fill="white" transform="translate(0 0.410156)"/>
</clipPath>
</defs>
</svg>
