<svg width="195" height="42" viewBox="0 0 195 42" fill="none" xmlns="http://www.w3.org/2000/svg">
<path d="M18.6357 20.4746C18.6357 21.4867 19.4264 22.2773 20.4385 22.2773C21.4505 22.2773 22.2412 21.4867 22.2412 20.4746C22.2412 19.4625 21.4505 18.6719 20.4385 18.6719C19.4264 18.7035 18.6357 19.4942 18.6357 20.4746ZM33.7534 18.7035C32.7413 18.7035 31.9506 19.4942 31.9506 20.5062C31.9506 21.5183 32.7413 22.309 33.7534 22.309C34.7654 22.309 35.5561 21.5183 35.5561 20.5062C35.5561 19.4942 34.7654 18.7035 33.7534 18.7035ZM33.7534 32.2398C32.7413 32.2398 31.9506 33.0305 31.9506 34.0425C31.9506 35.0546 32.7413 35.8452 33.7534 35.8452C34.7654 35.8452 35.5561 35.0546 35.5561 34.0425C35.5561 33.0305 34.7654 32.2398 33.7534 32.2398Z" fill="#A6A6A6"/>
<path d="M37.5809 3.80701C35.7782 1.5615 32.5523 1.46663 30.6547 3.23773L30.4333 3.45912L29.9905 3.80701C28.1878 5.26184 25.4995 5.13534 23.8233 3.45912V3.33261C23.254 2.76332 22.4949 2.32055 21.7043 2.09916C21.5778 2.09916 21.3564 1.97266 21.2615 1.97266H19.4588C19.3323 1.97266 19.2374 1.97265 19.1109 2.09916H18.8895C18.763 2.09916 18.6681 2.22567 18.5416 2.22567C18.5416 2.22567 18.4151 2.22567 18.4151 2.35218C18.2886 2.35218 18.1937 2.47869 18.0672 2.47869C18.0672 2.47869 17.9407 2.47869 17.9407 2.60519C17.8142 2.7317 17.7193 2.7317 17.5928 2.82658C17.5928 2.82658 17.4663 2.82658 17.4663 2.95309C17.3398 3.0796 17.2449 3.07959 17.1184 3.17447L16.9919 3.30099L16.7705 3.52237L16.3277 3.87027C14.525 5.3251 11.8367 5.19859 10.287 3.52237C10.287 3.52237 10.1605 3.52237 10.1605 3.39586L9.93909 3.17447C9.27492 2.60519 8.48425 2.16241 7.5987 2.06753H5.57458C5.57458 2.19404 5.44808 2.19404 5.3532 2.28892H5.32157C4.75229 2.51031 4.21463 2.7317 3.74023 3.17447L3.61372 3.30099L3.26583 3.64887C2.82305 4.09165 2.60166 4.66093 2.38028 5.10371C2.38028 5.23022 2.25377 5.3251 2.25377 5.45161C2.25377 5.57811 2.12726 5.67299 2.12726 5.89438C2.00075 6.68505 2.00075 7.47572 2.25377 8.23476C2.25377 8.36127 2.38028 8.45615 2.38028 8.58266V8.70917C2.38028 8.83567 2.50678 8.93056 2.50678 9.05706C2.63329 9.18357 2.63329 9.27845 2.72817 9.49984C2.94956 9.62634 3.17095 9.84774 3.29745 9.94262L3.51884 10.164L3.74023 10.3854C5.41645 12.0616 5.41645 14.9713 3.61372 16.774C3.39233 16.9954 3.04444 17.3433 2.94956 17.5647C2.82305 17.6912 2.82305 17.7861 2.72817 18.0075V18.134C2.60166 18.2605 2.60166 18.3554 2.50678 18.4819V18.6084C2.50678 18.7349 2.38028 18.8298 2.38028 18.9563V19.0828C2.38028 19.2093 2.38028 19.3042 2.25377 19.4307V21.1069C2.25377 21.2334 2.25377 21.3283 2.38028 21.4548V21.5813C2.60166 22.372 3.04444 23.1626 3.7086 23.8268C5.51133 25.6295 5.51133 28.5392 3.7086 30.3103L3.5821 30.4368L3.36071 30.6582V30.7847C3.2342 30.9112 3.13932 31.0061 3.13932 31.1326C3.13932 31.1326 3.13932 31.2591 3.01281 31.2591C2.88631 31.3856 2.88631 31.4805 2.79142 31.607L2.66492 31.7335C2.66492 31.86 2.53841 31.86 2.53841 31.9549C2.53841 32.0498 2.4119 32.0814 2.4119 32.1763C2.4119 32.3028 2.4119 32.3028 2.2854 32.3977C2.06401 32.8404 1.9375 33.4097 1.9375 33.8525V34.738C2.06401 35.0859 2.06401 35.4022 2.2854 35.6236C2.2854 35.7501 2.4119 35.845 2.4119 35.845C2.4119 35.845 2.4119 35.9715 2.53841 35.9715C2.53841 36.098 2.66492 36.1929 2.66492 36.3194C2.66492 36.3194 2.66492 36.4459 2.79142 36.4459C2.91793 36.6673 3.01281 36.7938 3.13932 36.8887C3.13932 36.8887 3.13932 37.0152 3.26583 37.0152C3.26583 37.0152 3.26583 37.1417 3.39233 37.1417C3.39233 37.2682 3.51884 37.2682 3.51884 37.2682L3.64535 37.3947C3.77186 37.5212 3.86674 37.5212 3.86674 37.6161L3.99324 37.7426C3.99324 37.7426 4.11975 37.7426 4.11975 37.8691C4.24626 37.9956 4.34114 38.0905 4.46765 38.0905C4.46765 38.0905 4.59415 38.0905 4.59415 38.217C4.72066 38.3435 4.81554 38.3435 4.94205 38.4384H5.0053C5.13181 38.5649 5.22669 38.5649 5.44808 38.5649C5.57459 38.5649 5.79597 38.6914 5.89085 38.6914H6.01736C6.14387 38.6914 6.23875 38.6914 6.36526 38.8179H7.37731C7.72521 38.8179 7.9466 38.6914 8.26287 38.6914H8.38937C8.51588 38.6914 8.61076 38.5649 8.73727 38.5649H8.80052C8.92703 38.5649 9.02191 38.4384 9.14842 38.4384H9.27492C9.49631 38.3119 9.84421 38.0905 10.0656 37.9956L10.4135 37.6477L10.54 37.5212C12.3427 35.6236 15.2524 35.6236 17.0235 37.5212C19.0476 39.6402 22.4001 39.5453 24.2977 37.1733C25.626 35.4971 25.626 33.0302 24.2977 31.2275C22.4949 28.982 19.269 28.8871 17.3714 30.6582L17.15 30.8796L16.7072 31.2275C14.9045 32.6823 12.2162 32.5558 10.54 30.8796L10.3186 30.6582L9.97071 30.2154C8.51588 28.4127 8.64239 25.7244 10.3186 24.0482C11.3307 23.1626 11.7734 21.9292 11.7734 20.6957V20.3478C11.7734 19.2409 11.3307 18.1023 10.4451 17.3117C10.4451 17.1852 10.3186 17.1852 10.3186 17.0903L9.97071 16.6475C8.51588 14.8448 8.64239 12.1565 10.3186 10.4803L10.4451 10.3538L10.5716 10.2273C12.3744 8.32965 15.284 8.32965 17.0551 10.2273L17.1816 10.3538L17.3081 10.4803L17.5295 10.7017C17.656 10.7017 17.656 10.8282 17.7509 10.8282C17.8458 10.8282 17.8774 10.9547 17.9723 10.9547C18.0672 10.9547 18.0988 11.0812 18.1937 11.0812C18.2886 11.0812 18.3202 11.2077 18.4151 11.2077C18.51 11.2077 18.5416 11.3342 18.6365 11.3342C18.7313 11.3342 18.763 11.4607 18.8579 11.4607C18.9527 11.4607 18.9844 11.4607 19.0792 11.5872C19.2057 11.5872 19.2057 11.5872 19.3006 11.7137H21.1982C21.3247 11.7137 21.4196 11.7137 21.5461 11.5872H21.7675C21.894 11.5872 21.9889 11.4607 22.1154 11.4607H22.2419C22.3684 11.4607 22.4633 11.3342 22.6847 11.2393C23.1275 11.0179 23.5702 10.67 23.9181 10.3538L24.0446 10.2273C25.8474 8.32965 28.757 8.32965 30.5281 10.2273C32.4258 12.4728 35.9047 12.3463 37.7074 10.0059C38.9093 7.95012 38.9093 5.48323 37.5809 3.80701Z" fill="#A6A6A6"/>
<path d="M63.1034 17.6919C62.4393 17.0278 61.87 16.585 61.0793 16.2371C60.4152 15.8892 59.6245 15.6678 58.6124 15.6678C57.7269 15.6678 56.8097 15.8892 56.1455 16.2371C55.4814 16.585 54.9121 17.0278 54.4693 17.6919C54.0265 18.2612 53.6786 18.9254 53.4573 19.7161C53.2359 20.5067 53.1094 21.2974 53.1094 22.0564C53.1094 22.8155 53.2359 23.6378 53.5521 24.3968C53.7735 25.1875 54.2163 25.7252 54.6591 26.2944C55.1019 26.8637 55.766 27.3065 56.4618 27.6228C57.126 27.9707 57.9166 28.0655 58.8022 28.0655C59.8143 28.0655 60.6049 27.8442 61.2691 27.4963C61.9332 27.1484 62.5974 26.7056 63.1667 26.0414L65.5071 28.5083C64.6215 29.5204 63.6095 30.1845 62.4709 30.6273C61.364 31.0701 60.1305 31.2915 58.7706 31.2915C57.4422 31.2915 56.0823 31.0701 54.9753 30.6273C53.8684 30.1845 52.8564 29.5204 52.0657 28.7297C51.275 27.939 50.6108 26.927 50.1681 25.82C49.7253 24.7131 49.5039 23.3531 49.5039 22.0248C49.5039 20.6965 49.7253 19.3365 50.1681 18.2296C50.6108 17.1227 51.275 16.1106 52.0657 15.1934C52.8564 14.4028 53.8684 13.7386 54.9753 13.2958C56.0823 12.853 57.4422 12.6317 58.7706 12.6317C60.0989 12.6317 61.3323 12.853 62.4709 13.2958C63.7044 13.7386 64.7164 14.5293 65.602 15.4148L63.1034 17.6919ZM70.6939 21.8351C70.6939 22.7206 70.8204 23.6378 71.1367 24.302C71.358 25.0926 71.8008 25.7568 72.2436 26.3261C72.6864 26.8953 73.3505 27.3381 74.0463 27.5595C74.7105 27.9074 75.6277 28.0023 76.5132 28.0023C77.3988 28.0023 78.1894 27.8758 78.9801 27.5595C79.6443 27.2116 80.3084 26.7688 80.7828 26.3261C81.2256 25.7568 81.6684 25.0926 81.8898 24.302C82.1112 23.5113 82.3326 22.7206 82.3326 21.8351C82.3326 20.9495 82.206 20.0323 81.8898 19.3682C81.6684 18.5775 81.2256 17.9133 80.7828 17.3441C80.3401 16.7748 79.6759 16.332 78.9801 16.1106C78.3159 15.7627 77.3988 15.6678 76.5132 15.6678C75.6277 15.6678 74.837 15.7943 74.0463 16.1106C73.3822 16.4585 72.718 16.9013 72.2436 17.3441C71.8008 17.9133 71.358 18.5775 71.1367 19.3682C70.9153 20.1588 70.6939 20.9495 70.6939 21.8351ZM67.12 21.8351C67.12 20.5067 67.3414 19.2733 67.7842 18.1347C68.227 17.0278 68.8911 16.0157 69.8083 15.0985C70.6939 14.213 71.6111 13.5172 72.8445 13.0744C73.9514 12.6317 75.1849 12.2838 76.5448 12.2838C77.9048 12.2838 79.1066 12.5051 80.2452 13.0744C81.3521 13.5172 82.3642 14.1814 83.2814 15.0985C84.1669 15.9841 84.7362 16.9962 85.3055 18.1347C85.7482 19.2417 85.9696 20.4751 85.9696 21.8351C85.9696 23.1634 85.7482 24.3968 85.3055 25.5354C84.8627 26.6423 84.1985 27.6544 83.2814 28.5716C82.3958 29.4571 81.4786 30.0264 80.2452 30.5957C79.1382 31.0385 77.9048 31.3864 76.5448 31.3864C75.2165 31.3864 73.9831 31.165 72.8445 30.5957C71.7376 30.1529 70.7255 29.4888 69.8083 28.5716C68.9228 27.686 68.3535 26.7688 67.7842 25.5354C67.4679 24.3968 67.12 23.1634 67.12 21.8351ZM89.417 30.912H92.7694V13.0112H89.417V30.912ZM88.6263 6.49605C88.6263 5.83188 88.8477 5.2626 89.2905 4.69332C89.7332 4.25055 90.3025 3.90265 90.9667 3.90265C91.6308 3.90265 92.2001 4.12404 92.6429 4.69332C93.0857 5.1361 93.3071 5.80026 93.3071 6.49605C93.3071 7.19184 93.0857 7.7295 92.6429 8.29878C92.2001 8.74155 91.6308 9.08945 90.9667 9.08945C90.3025 9.08945 89.7332 8.86806 89.2905 8.29878C88.8477 7.82438 88.6263 7.16021 88.6263 6.49605ZM97.4502 12.9795H100.834V15.7627H100.961C101.404 14.7507 102.068 13.96 103.206 13.4223C104.218 12.853 105.452 12.5368 106.907 12.5368C107.792 12.5368 108.583 12.6633 109.373 12.9795C110.164 13.2009 110.828 13.6437 111.398 14.213C111.967 14.7823 112.41 15.4464 112.852 16.332C113.2 17.2175 113.422 18.2296 113.422 19.463V31.0068H110.006V20.3802C110.006 19.5896 109.88 18.7989 109.658 18.2612C109.437 17.6919 109.089 17.1543 108.773 16.8064C108.425 16.4585 107.982 16.1422 107.444 16.0157C107.001 15.8892 106.432 15.7943 105.863 15.7943C105.199 15.7943 104.535 15.9208 103.965 16.1422C103.396 16.3636 102.858 16.7115 102.384 17.2492C101.941 17.6919 101.593 18.3561 101.372 19.1468C101.151 19.9374 101.024 20.823 101.024 21.8351V31.1333H97.6716V13.0112L97.4502 12.9795ZM125.788 28.0972C126.673 28.0972 127.464 27.9707 128.255 27.6544C129.045 27.3065 129.583 26.8637 130.152 26.3261C130.595 25.7568 131.038 25.0926 131.259 24.302C131.481 23.5113 131.702 22.7206 131.702 21.7402C131.702 20.8546 131.576 19.9374 131.259 19.1784C131.038 18.3877 130.595 17.7236 130.152 17.1543C129.583 16.585 129.045 16.1422 128.255 15.826C127.464 15.4781 126.673 15.3832 125.788 15.3832C124.902 15.3832 124.112 15.5097 123.321 15.826C122.53 16.1739 121.993 16.6166 121.423 17.1543C120.981 17.7236 120.538 18.3877 120.316 19.1784C120.095 19.9691 119.874 20.7597 119.874 21.7402C119.874 22.6257 120 23.5429 120.316 24.302C120.538 25.0926 120.981 25.7568 121.423 26.3261C121.866 26.8953 122.53 27.3381 123.321 27.6544C123.985 27.8758 124.902 28.0972 125.788 28.0972ZM135.086 30.7854H131.734V28.2237H131.607C130.943 29.2357 130.026 29.8999 128.919 30.4692C127.812 31.0385 126.578 31.2599 125.345 31.2599C124.017 31.2599 122.657 31.0385 121.55 30.5957C120.443 30.1529 119.431 29.4888 118.64 28.5716C117.849 27.686 117.185 26.674 116.837 25.5354C116.395 24.4285 116.173 23.195 116.173 21.8351C116.173 20.4751 116.395 19.2733 116.837 18.0398C117.28 16.9329 117.849 15.9208 118.64 15.0037C119.431 14.1181 120.443 13.4223 121.55 12.9795C122.657 12.5368 123.89 12.3154 125.345 12.3154C126.578 12.3154 127.812 12.5368 128.919 13.1061C130.026 13.6753 130.943 14.4344 131.481 15.3516H131.607V1.91016H134.96V30.7854H135.086ZM152.196 20.3802C152.196 19.5896 152.07 18.9254 151.848 18.2612C151.627 17.5971 151.279 17.0278 150.836 16.585C150.393 16.1422 149.824 15.7943 149.255 15.4781C148.591 15.2567 147.927 15.0353 147.009 15.0353C146.219 15.0353 145.428 15.1618 144.764 15.4781C144.1 15.826 143.53 16.1422 142.961 16.7115C142.518 17.1543 142.076 17.7236 141.854 18.3877C141.633 19.0519 141.411 19.6212 141.411 20.1905H152.165L152.196 20.3802ZM141.475 23.1634C141.475 23.9541 141.696 24.6182 142.044 25.2824C142.392 25.9465 142.835 26.5158 143.372 26.9586C143.942 27.4014 144.606 27.7493 145.27 27.9707C146.061 28.1921 146.725 28.3186 147.515 28.3186C148.527 28.3186 149.54 28.0972 150.299 27.5279C151.089 27.0851 151.753 26.4209 152.418 25.6303L154.979 27.6544C153.082 30.1213 150.393 31.3547 147.041 31.3547C145.586 31.3547 144.353 31.1333 143.246 30.6906C142.139 30.2478 141.127 29.5836 140.336 28.6664C139.545 27.7809 138.881 26.8637 138.533 25.6303C138.091 24.5233 137.869 23.2899 137.869 21.9299C137.869 20.6016 138.091 19.3682 138.533 18.2296C138.976 17.1227 139.64 16.1106 140.431 15.1934C141.222 14.3079 142.234 13.7386 143.341 13.1693C144.448 12.7265 145.681 12.5051 147.041 12.5051C148.622 12.5051 149.951 12.7265 151.058 13.2958C152.165 13.8651 153.082 14.5293 153.746 15.4148C154.41 16.3004 154.979 17.3124 155.327 18.451C155.675 19.5579 155.77 20.6965 155.77 21.9299V23.1634H141.475ZM168.99 17.4706C168.547 17.0278 168.104 16.585 167.535 16.2371C166.966 15.8892 166.207 15.6678 165.416 15.6678C164.626 15.6678 163.961 15.8892 163.297 16.2371C162.728 16.585 162.412 17.0278 162.412 17.6919C162.412 18.2612 162.633 18.704 162.981 18.9254C163.329 19.2733 163.772 19.4947 164.214 19.7161C164.657 19.9375 165.226 20.064 165.669 20.1588C166.239 20.2853 166.681 20.3802 166.998 20.3802C167.662 20.6016 168.452 20.7281 169.022 21.0444C169.686 21.2658 170.255 21.6137 170.698 22.0564C171.141 22.4992 171.489 22.942 171.805 23.5113C172.026 24.0806 172.248 24.7447 172.248 25.6303C172.248 26.6423 172.026 27.5279 171.583 28.192C171.141 28.8562 170.571 29.5204 169.907 29.9948C169.243 30.4692 168.452 30.7854 167.567 31.0068C166.681 31.2282 165.764 31.3547 165.005 31.3547C163.55 31.3547 162.222 31.1333 161.083 30.6906C159.976 30.2478 158.964 29.4571 158.047 28.2237L160.609 26.1047C161.178 26.674 161.716 27.1167 162.412 27.5595C163.107 28.0023 163.866 28.2237 164.879 28.2237C165.321 28.2237 165.764 28.2237 166.207 28.0972C166.65 27.9707 166.998 27.8758 167.314 27.6544C167.662 27.433 167.883 27.2116 168.104 26.9902C168.326 26.6423 168.452 26.3261 168.452 25.9782C168.452 25.5354 168.326 25.0926 168.01 24.7447C167.662 24.3968 167.345 24.1754 166.903 23.9541C166.46 23.7327 166.017 23.6062 165.574 23.5113L164.246 23.1634C163.582 22.942 162.791 22.8155 162.222 22.5941C161.558 22.3727 160.988 22.0248 160.546 21.7085C160.103 21.3607 159.66 20.823 159.312 20.2537C158.964 19.6844 158.869 18.9254 158.869 18.1347C158.869 17.2492 159.091 16.332 159.439 15.6678C159.787 15.0037 160.324 14.4344 161.02 13.9916C161.684 13.5488 162.348 13.2009 163.139 12.9795C163.93 12.7582 164.815 12.6317 165.606 12.6317C166.839 12.6317 167.946 12.853 169.085 13.2958C170.192 13.7386 171.109 14.5293 171.773 15.5413L168.99 17.4706ZM175.505 2.35294H178.858V20.4751L186.48 12.853H191.066L182.906 20.9179L191.856 30.5324H187.049L178.889 21.3607V30.5324H175.537V2.35294" fill="#A6A6A6"/>
</svg>
