<svg width="176" height="60" viewBox="0 0 176 60" fill="none" xmlns="http://www.w3.org/2000/svg">
<g clip-path="url(#clip0)">
<path fill-rule="evenodd" clip-rule="evenodd" d="M24.6269 0.804603C19.3476 1.4442 13.5074 4.18892 8.53374 8.36798C7.53415 9.20784 5.43446 11.232 5.43446 11.3557C5.43446 11.4023 6.44835 12.4669 7.68768 13.7213L9.94081 16.0021L8.99081 17.0777C5.51189 21.0165 3.13184 24.9991 1.72134 29.2421C0.840188 31.8929 0.463315 34.078 0.459501 36.5583C0.456068 38.7629 0.765424 40.5918 1.43525 42.3277L1.71132 43.0429L8.31717 49.6328C13.83 55.1323 15.0589 56.3118 15.7444 56.7613C17.1737 57.6985 18.8185 58.3611 20.6502 58.7375C21.8759 58.9896 24.6771 59.0887 26.0029 58.927C31.27 58.2849 36.6967 55.7968 41.4711 51.835C42.7005 50.8148 44.8191 48.834 44.8191 48.7046C44.8191 48.6529 43.7937 47.5725 42.5403 46.3036L40.2614 43.9965L40.9725 43.2442C42.7111 41.4047 44.8373 38.4727 46.0976 36.1768C47.8676 32.9525 49.0302 29.4709 49.4054 26.2706C49.5678 24.8858 49.4653 21.9233 49.2161 20.7977C48.7968 18.9049 48.1597 17.3653 47.1839 15.8876C46.6847 15.1316 45.6793 14.0814 40.108 8.49672L33.614 1.9871L32.9243 1.70683C31.9967 1.32995 30.1037 0.873359 28.9688 0.752726C27.745 0.622651 25.952 0.644108 24.6269 0.804603ZM30.2079 2.54602C30.6947 2.65196 31.4457 2.8547 31.8767 2.99651C32.6512 3.25141 32.675 3.26896 33.9001 4.48883C34.9607 5.54497 35.0985 5.71519 34.8537 5.66732C33.4383 5.39001 31.1496 5.349 29.3713 5.56919C23.6937 6.27211 17.8327 9.15415 12.4634 13.8834C11.9408 14.3437 11.4543 14.763 11.3823 14.8153C11.2821 14.8878 10.8233 14.4821 9.43033 13.0892L7.60929 11.2682L8.80314 10.2201C13.7296 5.89514 19.1756 3.18847 24.5069 2.41508C25.8547 2.21959 29.0446 2.29283 30.2079 2.54602ZM37.953 11.9505C40.5509 12.345 42.8354 13.457 44.5304 15.152C46.1995 16.821 47.2587 18.9421 47.7438 21.5864C47.9602 22.7664 47.9557 25.424 47.7347 26.8313C47.0639 31.1037 45.0785 35.5152 42.0072 39.5575C41.2835 40.51 39.6224 42.4712 39.3429 42.7032C39.1964 42.8248 39.013 42.6707 37.4701 41.1296C36.5293 40.1899 35.7597 39.3928 35.7597 39.3582C35.7597 39.3236 36.0201 39.0079 36.3383 38.6567C41.7037 32.7363 44.2143 25.3493 42.4156 20.7758C41.7133 18.9901 40.2362 17.6586 38.3 17.0659C37.3129 16.7637 35.6219 16.6312 34.3472 16.7563C32.389 16.9483 29.994 17.6922 27.7015 18.8203C25.409 19.9485 23.3049 21.3752 21.2554 23.1909L20.3403 24.0017L18.6022 22.2616L16.864 20.5216L17.6038 19.8307C22.1385 15.5958 28.117 12.5771 33.2802 11.9154C34.325 11.7814 36.9711 11.8013 37.953 11.9505ZM13.504 22.1484C12.8648 22.8883 12.0182 23.9228 11.6228 24.4472C6.70707 30.9675 4.46119 38.0895 5.39775 44.1873L5.45639 44.5687L4.25521 43.3767C3.11 42.2402 3.0423 42.1513 2.80456 41.4694C0.492878 34.8398 3.38226 25.7205 10.2252 18.0486L11.0131 17.1654L12.8396 18.9843L14.6662 20.8033L13.504 22.1484ZM36.6082 18.3602L36.8368 18.4213L36.7756 19.6701C36.7031 21.1489 36.5186 22.3506 36.203 23.3983C35.2636 26.517 33.501 29.6015 30.9799 32.5387L30.01 33.6689L28.1498 31.8086L26.2896 29.9485L27.1441 29.0081C28.973 26.9952 30.6585 24.6521 31.6941 22.683C32.2561 21.6144 32.9883 19.8086 33.1912 18.991C33.3141 18.4958 33.3165 18.4934 33.7504 18.4366C33.9901 18.4053 34.2506 18.3659 34.3292 18.349C34.6025 18.2906 36.3809 18.2993 36.6082 18.3602ZM31.3153 19.6553C30.9052 20.8159 29.9983 22.5683 29.1067 23.9228C28.1404 25.3907 27.4546 26.2775 26.0959 27.8161L25.142 28.8963L23.2748 27.0286L21.4076 25.1609L22.0185 24.6134C23.948 22.884 26.1723 21.3474 28.2597 20.3021C29.3721 19.745 31.2056 18.9881 31.4902 18.9687C31.5283 18.966 31.4497 19.275 31.3153 19.6553ZM59.6241 20.7884C59.5301 20.8837 59.5049 23.3193 59.5049 32.3189C59.5049 43.2513 59.5121 43.7351 59.6793 43.8864C59.8364 44.0285 60.2938 44.044 64.2805 44.0428C66.7152 44.0419 69.3385 43.9983 70.1098 43.9458C73.2091 43.735 75.6215 42.7338 77.4357 40.9055C78.8862 39.4437 79.8094 37.4507 80.2661 34.7952C80.4874 33.5086 80.4806 30.7688 80.2529 29.5014C79.4851 25.2266 77.0383 22.4269 73.094 21.3095C71.1672 20.7638 71.0347 20.7537 65.1789 20.7089C60.8711 20.676 59.7186 20.6925 59.6241 20.7884ZM167.284 21.1763C167.2 21.2598 167.169 21.9964 167.169 23.8941V26.4975H166.044C165.296 26.4975 164.88 26.5359 164.804 26.612C164.644 26.7726 164.644 29.8463 164.804 30.0069C164.88 30.0829 165.294 30.1213 166.039 30.1213H167.159L167.19 35.3901C167.221 40.5218 167.227 40.6751 167.431 41.2827C167.98 42.9121 169.137 43.807 170.999 44.0405C172.285 44.2017 174.082 44.1394 175.301 43.8913L175.565 43.8376L175.539 41.676L175.513 39.5145L174.321 39.4611C173.054 39.4044 172.844 39.3552 172.697 39.0804C172.641 38.9755 172.605 37.1945 172.605 34.5643V30.2215L174.107 30.1952L175.609 30.169V28.3571V26.5452L174.107 26.519L172.605 26.4927V23.9618C172.605 22.3994 172.567 21.3602 172.506 21.2463C172.412 21.0711 172.281 21.0619 169.902 21.0619C168.082 21.0619 167.366 21.0932 167.284 21.1763ZM70.5192 26.1572C72.3085 26.644 73.5164 27.8966 73.9929 29.7598C74.3537 31.1703 74.3355 33.5458 73.9525 35.0325C73.5776 36.4879 72.6862 37.6481 71.5122 38.2084C70.4752 38.7033 69.858 38.8108 67.7299 38.8674L65.7988 38.9187V32.4095V25.9005L67.8729 25.951C69.3588 25.9872 70.1094 26.0457 70.5192 26.1572ZM88.5803 26.2645C85.6367 26.7974 83.359 28.74 82.3423 31.5846C81.0141 35.3007 81.6545 39.5728 83.8971 41.9566C85.0708 43.2043 86.1941 43.8578 87.9218 44.2978C91.1948 45.1314 94.7151 44.2814 97.0682 42.0893C97.6204 41.5753 99.0804 39.7495 99.0804 39.5736C99.0804 39.3695 98.676 39.1125 96.9748 38.2358C95.9468 37.7065 95.0807 37.2735 95.0488 37.2735C95.017 37.2735 94.8489 37.5405 94.6754 37.8669C94.2505 38.666 93.3985 39.5605 92.7691 39.8681C90.9048 40.7795 88.7166 40.2474 87.7855 38.6562C87.5123 38.1894 87.2553 37.349 87.2553 36.9224V36.6059H93.1487C97.6051 36.6059 99.0699 36.578 99.1566 36.4915C99.3169 36.3314 99.3016 35.1653 99.1233 33.966C98.6522 30.7949 97.3171 28.5253 95.1778 27.2598C94.4592 26.8346 93.1196 26.3636 92.2142 26.2176C91.3658 26.0807 89.4596 26.1053 88.5803 26.2645ZM107.997 26.1722C107.179 26.2877 106.503 26.4323 105.946 26.6113C102.961 27.5705 100.99 30.0012 100.367 33.49C100.129 34.8205 100.207 36.9615 100.537 38.2282C100.985 39.9426 101.633 41.0669 102.824 42.198C103.865 43.1869 105.074 43.8401 106.709 44.2976C107.195 44.4335 107.659 44.4699 108.855 44.466C110.233 44.4616 110.462 44.4361 111.22 44.2041C112.766 43.7303 113.926 43.021 115.012 41.8854C115.731 41.1327 116.532 40.0396 116.532 39.8109C116.532 39.7251 116.392 39.5692 116.222 39.4648C115.595 39.0811 112.731 37.6549 112.586 37.6549C112.5 37.6549 112.337 37.8666 112.198 38.1591C111.836 38.9254 111.36 39.4188 110.644 39.7715C110.091 40.0436 109.914 40.0835 109.289 40.0792C108.454 40.0736 107.923 39.8633 107.254 39.2739C105.474 37.7079 105.358 33.3554 107.042 31.3878C108.097 30.1557 110.088 30.1396 111.351 31.353C111.569 31.563 111.868 31.9486 112.015 32.2098C112.162 32.471 112.349 32.7024 112.431 32.7238C112.642 32.7789 116.285 30.6763 116.323 30.4777C116.355 30.3105 115.972 29.6988 115.393 28.9922C114.471 27.8683 112.668 26.7837 111.092 26.4063C110.313 26.2197 108.585 26.0891 107.997 26.1722ZM155.421 26.3613C154.45 26.5369 153.548 26.9073 152.862 27.413L152.301 27.8256L152.273 27.2332L152.245 26.6406L149.966 26.615C147.946 26.5923 147.667 26.6075 147.51 26.749C147.34 26.9025 147.334 27.3386 147.334 38.2705C147.334 46.9804 147.36 49.6591 147.448 49.7469C147.611 49.91 152.587 49.91 152.75 49.7469C152.835 49.6623 152.865 48.7812 152.865 46.374V43.1156L153.795 43.5835C155.027 44.2036 155.815 44.3662 157.251 44.2961C158.922 44.2146 159.947 43.8767 161.048 43.044C162.582 41.8832 163.603 40.1056 164.14 37.6549C164.427 36.3446 164.422 34.0852 164.126 32.6961C163.736 30.8584 163.113 29.617 161.987 28.4312C160.313 26.6688 157.909 25.9112 155.421 26.3613ZM22.071 28.1145C23.6591 29.7045 23.7709 29.8389 23.6359 29.9979C23.5559 30.092 23.1634 30.5413 22.7637 30.9963C21.1133 32.8749 19.57 35.1826 18.5336 37.3212C17.7996 38.8356 17.349 40.0643 16.9072 41.7555C16.3316 43.9593 16.3534 46.4248 16.9639 48.15C18.113 51.3975 21.1625 52.9411 25.4128 52.4271C29.5171 51.9308 34.2457 49.5617 38.2955 45.9727L39.1627 45.2043L40.9012 46.9447L42.6397 48.6851L41.8999 49.376C38.128 52.8985 33.0577 55.7556 28.6818 56.8241C26.8992 57.2593 25.6726 57.4153 23.9824 57.4213C21.7396 57.4293 20.079 57.1194 18.3345 56.3673C16.099 55.4036 14.02 53.4643 12.9442 51.3392C11.6164 48.7164 11.2286 45.4497 11.829 41.9462C12.6704 37.0357 15.3986 31.7878 19.4709 27.2458C19.887 26.7818 20.2574 26.4022 20.294 26.4022C20.3306 26.4022 21.1302 27.1727 22.071 28.1145ZM127.26 26.5071C126.117 26.6702 124.644 27.2221 123.708 27.8381L123.398 28.042V27.4319C123.398 27.0845 123.348 26.7725 123.283 26.7073C123.2 26.6244 122.509 26.5929 120.771 26.5929C118.569 26.5929 118.36 26.6071 118.215 26.7673C118.071 26.9268 118.057 27.6588 118.057 35.3351C118.057 43.3454 118.065 43.7358 118.232 43.8864C118.385 44.0246 118.71 44.0442 120.843 44.0442C122.721 44.0442 123.302 44.0159 123.382 43.9207C123.451 43.8369 123.493 42.0993 123.512 38.5089C123.539 33.5466 123.552 33.1982 123.721 32.8576C124.076 32.1429 124.695 31.8534 126.501 31.5568C127.181 31.4452 127.855 31.3307 127.999 31.3022L128.261 31.2505V28.9408C128.261 26.6454 128.227 26.3796 127.932 26.4138C127.877 26.4202 127.575 26.4622 127.26 26.5071ZM129.693 26.7347C129.625 26.8161 129.601 26.9787 129.635 27.1165C129.669 27.2485 130.463 29.8346 131.402 32.8634C135.175 45.035 134.978 44.3251 134.725 44.8071C134.484 45.2675 134.069 45.379 132.595 45.3791C131.681 45.3793 131.219 45.4156 131.141 45.4937C131.059 45.5755 131.027 46.1824 131.027 47.6203C131.027 49.0582 131.059 49.6651 131.141 49.7469C131.285 49.8905 135.045 49.9029 136.033 49.763C137.658 49.533 138.979 48.3853 139.751 46.5315C139.916 46.1338 141.439 41.5506 143.135 36.3466C145.701 28.4685 146.197 26.8604 146.096 26.7388C145.993 26.614 145.578 26.5929 143.233 26.5929H140.491L140.391 26.9982C140.338 27.221 139.769 29.6993 139.128 32.5054C138.487 35.3114 137.935 37.6384 137.901 37.6765C137.868 37.7146 137.264 35.2364 136.562 32.1693L135.283 26.5929H132.547C130.241 26.5929 129.792 26.6152 129.693 26.7347ZM91.9339 30.4236C92.8153 30.8272 93.4188 31.6285 93.5913 32.6246L93.6533 32.9822H90.4944H87.3355L87.401 32.6722C87.5108 32.1528 88.0312 31.2694 88.4269 30.9307C89.1372 30.3227 89.7543 30.1165 90.7413 30.1576C91.2097 30.1771 91.5719 30.258 91.9339 30.4236ZM157.183 30.5739C158.017 31.0282 158.625 31.9438 158.918 33.1897C159.136 34.113 159.113 36.2875 158.874 37.2166C158.67 38.0156 158.263 38.8554 157.819 39.3946C157.105 40.2611 155.715 40.495 154.597 39.9369C153.286 39.2814 152.674 37.8422 152.674 35.4139C152.674 33.1768 153.258 31.5783 154.366 30.7829C155.229 30.163 156.283 30.0847 157.183 30.5739ZM27.8747 35.3533C25.4579 37.6303 22.3571 39.6751 19.7641 40.7016C19.2273 40.9141 18.7664 41.088 18.74 41.088C18.7134 41.088 18.8144 40.7519 18.9643 40.3411C20.098 37.235 22.0446 34.0732 24.3701 31.5616L24.9211 30.9664L26.7705 32.8087L28.62 34.651L27.8747 35.3533ZM31.6124 37.6606L33.4233 39.4781L32.8511 40.0151C29.8861 42.798 25.351 45.3204 22.1095 45.9891C21.3132 46.1535 19.5326 46.3308 18.666 46.3321L18.1176 46.3329L18.1232 44.974C18.1261 44.2266 18.1583 43.4501 18.1947 43.2485L18.2607 42.8818L19.405 42.5098C22.3403 41.5556 26.0594 39.2245 28.7982 36.6221C29.244 36.1985 29.6521 35.8498 29.7051 35.8474C29.758 35.8451 30.6163 36.6609 31.6124 37.6606Z" fill="#A6A6A6"/>
</g>
<defs>
<clipPath id="clip0">
<rect width="175.181" height="58.3618" fill="white" transform="translate(0.459473 0.667969)"/>
</clipPath>
</defs>
</svg>
