<svg width="232" height="55" viewBox="0 0 232 55" fill="none" xmlns="http://www.w3.org/2000/svg">
<g clip-path="url(#clip0)">
<path d="M33.9741 40.1308L24.3658 44.3201V43.8973C22.521 44.3585 20.4455 44.6275 18.5239 44.7429C9.45355 44.666 2.30491 39.9002 2.18961 34.2889V32.2135C5.14899 36.5181 11.2215 39.439 18.5239 39.3237C20.9836 39.439 23.5202 39.0547 25.6341 38.4782L26.4796 36.4028C23.9814 37.1714 21.2142 37.6711 18.5239 37.6711C9.45355 37.6711 2.30491 32.9438 2.18961 27.2172V25.5261C5.14899 29.5232 11.2215 32.4057 18.5239 32.2135C21.8291 32.4057 25.0191 31.7139 27.7479 30.5224L28.1707 28.447C25.5188 29.8306 22.0982 30.6377 18.5623 30.5224C9.49198 30.6377 2.34334 25.9104 2.22804 20.0685V18.3774C5.18743 22.4514 11.2599 25.3723 18.5623 25.4876C22.7131 25.3723 26.6333 24.2578 29.8618 22.5667L30.2845 20.0685C27.3636 22.2208 23.0975 23.6428 18.5623 23.835C9.49198 23.6428 2.34334 18.8771 2.22804 12.9583C2.30491 7.30859 9.49198 2.58127 18.5623 2.50441C23.943 2.58127 28.9778 4.46452 31.9372 7.5392L32.2446 8.03883H34.3585L34.051 7.5392C31.0916 3.50368 25.1344 0.851763 18.5623 0.851763C8.49271 0.813329 0.498535 6.30933 0.498535 12.9199V13.3427V34.6733C0.844437 41.1301 8.64645 46.3955 18.4854 46.3955C24.9807 46.4339 30.861 43.8589 33.9741 40.1308Z" fill="#A6A6A6"/>
<path d="M30.0554 54.8507L33.4376 40.4766L23.7139 44.7043L29.6327 19.7994H18.2563L21.2157 7.53906H57.5354L54.576 19.7994H42.7385L40.2019 26.5637L53.3077 21.0677L30.0554 54.8507ZM35.9742 37.5556L34.2831 46.011L48.2345 24.911L36.8197 29.9842L41.893 18.1467H53.3077L55.4216 9.26857H22.4456L20.3318 18.1467H31.7465L26.2505 41.7833L35.9742 37.5556Z" fill="#A6A6A6"/>
<path d="M81.6317 15.7686V15.8071C81.6702 17.1522 81.2474 18.1899 80.4019 18.9586C79.5563 19.7273 78.4033 20.1116 76.9044 20.1116C75.4055 20.1116 74.1756 19.612 73.2532 18.6512C72.3308 17.6903 71.8696 16.422 71.8696 14.8847V12.3865C71.8696 10.8491 72.3308 9.58084 73.2148 8.62C74.1372 7.65916 75.3286 7.15953 76.7891 7.15953C78.3265 7.15953 79.5179 7.54386 80.4019 8.2741C81.2858 9.04277 81.7086 10.0805 81.6702 11.4256V11.4641H79.2104C79.2104 10.657 79.0183 10.042 78.6339 9.65771C78.2496 9.27337 77.6347 9.08121 76.8276 9.08121C76.0589 9.08121 75.4824 9.38867 75.0596 10.0036C74.6368 10.6185 74.4062 11.3872 74.4062 12.3481V14.8847C74.4062 15.8455 74.6368 16.6526 75.0596 17.2675C75.5208 17.8825 76.1357 18.1899 76.9429 18.1899C77.7115 18.1899 78.2496 17.9978 78.6339 17.6134C79.0183 17.2291 79.2104 16.6142 79.2104 15.8071H81.6317V15.7686ZM95.5447 14.7694C95.5447 16.3067 95.045 17.6134 94.0842 18.6127C93.1234 19.612 91.8551 20.1116 90.2793 20.1116C88.7035 20.1116 87.4736 19.612 86.4744 18.6127C85.5135 17.6134 85.0139 16.3067 85.0139 14.7694V12.5018C85.0139 10.9644 85.5135 9.69614 86.4744 8.65843C87.4352 7.65916 88.7035 7.12109 90.2409 7.12109C91.8166 7.12109 93.0849 7.62073 94.0458 8.65843C95.045 9.65771 95.5063 10.9644 95.5063 12.5018V14.7694H95.5447ZM93.0081 12.4634C93.0081 11.4641 92.7775 10.6954 92.2778 10.042C91.7782 9.42711 91.1248 9.08121 90.2409 9.08121C89.3953 9.08121 88.7035 9.38867 88.2423 10.042C87.7811 10.657 87.5121 11.4641 87.5121 12.4634V14.7309C87.5121 15.7302 87.7427 16.5373 88.2423 17.1907C88.7035 17.8056 89.3953 18.1515 90.2409 18.1515C91.1248 18.1515 91.7782 17.844 92.2778 17.1907C92.7775 16.5757 93.0081 15.7302 93.0081 14.7309V12.4634ZM102.078 19.9195H99.5418V7.31326H102.078V19.9195ZM116.645 19.9195H114.108L109.035 11.4256H108.996V19.9195H106.46V7.31326H108.996L114.07 15.8071H114.108V7.31326H116.645V19.9195ZM129.366 9.27337H125.753V19.9195H123.217V9.27337H119.681V7.31326H129.366V9.27337ZM139.82 14.385H135.131V17.9978H140.704V19.9195H132.633V7.31326H140.704V9.27337H135.17V12.4249H139.859V14.385H139.82ZM146.853 17.9978H152.503V19.9195H144.317V7.31326H146.853V17.9978ZM163.265 14.385H158.576V17.9978H164.149V19.9195H156.077V7.31326H164.149V9.27337H158.614V12.4249H163.303V14.385H163.265ZM177.447 18.2284C177.062 18.728 176.486 19.1892 175.679 19.5736C174.91 19.9579 173.911 20.1501 172.681 20.1501C171.143 20.1501 169.914 19.6889 168.953 18.728C167.992 17.7672 167.492 16.5373 167.492 15V12.3481C167.492 10.8107 167.953 9.58084 168.914 8.62C169.837 7.65916 171.067 7.15953 172.527 7.15953C174.064 7.15953 175.256 7.54386 176.063 8.2741C176.87 9.00434 177.293 9.96518 177.254 11.1951V11.2335H174.871C174.871 10.5801 174.679 10.042 174.295 9.65771C173.911 9.27337 173.334 9.08121 172.604 9.08121C171.835 9.08121 171.22 9.38867 170.721 9.96517C170.259 10.5801 170.029 11.3488 170.029 12.2712V14.9231C170.029 15.8839 170.259 16.6526 170.759 17.2675C171.259 17.8825 171.912 18.1515 172.719 18.1515C173.334 18.1515 173.795 18.0746 174.141 17.9593C174.487 17.844 174.756 17.6903 174.948 17.4981V15.0384H172.527V13.2705H177.485V18.2284H177.447ZM183.98 14.8847V19.9195H181.444V7.31326H185.825C187.247 7.31326 188.4 7.65917 189.207 8.31254C190.014 8.96591 190.437 9.8883 190.437 11.0413C190.437 11.6947 190.283 12.2328 189.937 12.7324C189.592 13.1936 189.092 13.5779 188.439 13.8854C189.169 14.116 189.707 14.4619 190.053 15C190.36 15.4996 190.552 16.153 190.552 16.9216V17.844C190.552 18.1899 190.591 18.5743 190.706 18.9586C190.783 19.343 190.975 19.612 191.206 19.8042V19.9963H188.592C188.362 19.8042 188.208 19.4967 188.131 19.0739C188.054 18.6512 188.016 18.2284 188.016 17.844V16.9601C188.016 16.3451 187.862 15.8455 187.516 15.4996C187.17 15.1537 186.671 14.9615 186.056 14.9615H183.98V14.8847ZM183.98 12.963H185.787C186.478 12.963 187.016 12.8093 187.362 12.5018C187.708 12.1943 187.9 11.7716 187.9 11.1566C187.9 10.5801 187.708 10.1189 187.362 9.773C187.016 9.4271 186.517 9.27337 185.825 9.27337H183.98V12.963ZM201.16 17.2291H197.086L196.241 19.9579H193.589L197.855 7.3517H200.43L204.657 19.9579H202.006L201.16 17.2291ZM197.701 15.2306H200.545L199.161 10.7723H199.123L197.701 15.2306ZM210.269 15.3459V19.9195H207.732V7.31326H212.575C214.035 7.31326 215.15 7.69759 215.995 8.42783C216.841 9.15807 217.225 10.1573 217.225 11.3488C217.225 12.5402 216.802 13.5395 215.995 14.2697C215.15 15 214.035 15.3843 212.575 15.3843H210.269V15.3459ZM210.269 13.4242H212.575C213.267 13.4242 213.805 13.232 214.189 12.8477C214.535 12.4634 214.727 11.9637 214.727 11.3872C214.727 10.7723 214.535 10.2726 214.189 9.8883C213.843 9.50397 213.305 9.3118 212.575 9.3118H210.269V13.4242ZM231.1 19.9195H228.563V14.6925H223.413V19.9195H220.876V7.31326H223.413V12.7324H228.563V7.31326H231.1V19.9195Z" fill="#A6A6A6"/>
<path d="M76.4809 40.5222H74.9051V32.2206H72.061V30.8754H79.325V32.2206H76.4809V40.5222ZM87.0501 40.5222H85.4743V36.0255C85.4743 35.449 85.359 35.0262 85.1284 34.7572C84.8978 34.4881 84.5519 34.3344 84.0523 34.3344C83.3989 34.3344 82.9377 34.5266 82.6303 34.9109C82.3228 35.2952 82.1691 35.9486 82.1691 36.871V40.4838H80.6317V30.222H82.1691V32.8355C82.1691 33.2583 82.1306 33.681 82.0922 34.1807H82.2075C82.3997 33.8348 82.7071 33.5657 83.0915 33.3736C83.4758 33.1814 83.8986 33.0661 84.3982 33.0661C86.1661 33.0661 87.0501 33.9501 87.0501 35.7565V40.5222ZM92.3924 40.6375C91.2394 40.6375 90.3554 40.2916 89.7405 39.6382C89.0871 38.9849 88.7796 38.0625 88.7796 36.9095C88.7796 35.718 89.0871 34.7956 89.6636 34.1038C90.2401 33.412 91.0856 33.0661 92.1233 33.0661C93.0842 33.0661 93.8528 33.3736 94.3909 33.9501C94.9674 34.5266 95.2365 35.3337 95.2365 36.3714V37.2169H90.3554C90.3938 37.9087 90.586 38.4852 90.9319 38.8311C91.2778 39.2155 91.8159 39.4076 92.4692 39.4076C92.892 39.4076 93.3148 39.3692 93.6607 39.2923C94.045 39.2155 94.4294 39.0617 94.8521 38.8696V40.1379C94.4678 40.33 94.0835 40.4453 93.6991 40.5222C93.3532 40.5991 92.892 40.6375 92.3924 40.6375ZM92.1233 34.2576C91.6237 34.2576 91.2394 34.4113 90.9319 34.7187C90.6244 35.0262 90.4707 35.4874 90.3938 36.1024H93.6991C93.6991 35.4874 93.5454 35.0262 93.2763 34.7187C93.0073 34.4113 92.623 34.2576 92.1233 34.2576ZM104.153 34.3728H102.385V40.5222H100.809V34.3728H99.6179V33.6426L100.809 33.1814V32.7202C100.809 31.8747 101.001 31.2213 101.424 30.7985C101.847 30.3758 102.462 30.1836 103.269 30.1836C103.807 30.1836 104.345 30.2605 104.883 30.4526L104.461 31.6441C104.076 31.5288 103.73 31.4519 103.346 31.4519C103 31.4519 102.731 31.5672 102.577 31.7594C102.424 31.99 102.347 32.2974 102.347 32.7202V33.1814H104.115V34.3728H104.153ZM110.571 40.5222L110.341 39.5614H110.264C110.033 39.9073 109.726 40.1763 109.342 40.3685C108.957 40.5606 108.496 40.6759 107.996 40.6759C107.112 40.6759 106.459 40.4453 105.998 40.0226C105.537 39.5998 105.344 38.908 105.344 38.024V33.2198H106.92V37.7166C106.92 38.2931 107.036 38.6774 107.266 38.9849C107.497 39.2539 107.843 39.4076 108.342 39.4076C108.996 39.4076 109.457 39.2155 109.764 38.8311C110.072 38.4468 110.226 37.7934 110.226 36.871V33.2198H111.801V40.5222H110.571ZM116.721 39.3692C117.105 39.3692 117.489 39.2923 117.874 39.177V40.33C117.72 40.4069 117.489 40.4838 117.22 40.5222C116.951 40.5606 116.682 40.5991 116.375 40.5991C114.914 40.5991 114.184 39.8304 114.184 38.2931V34.3728H113.185V33.681L114.261 33.1045L114.799 31.5672H115.76V33.1814H117.835V34.3728H115.76V38.2931C115.76 38.6774 115.837 38.9464 116.029 39.1386C116.144 39.2923 116.413 39.3692 116.721 39.3692ZM124.446 40.5222L124.215 39.5614H124.138C123.908 39.9073 123.6 40.1763 123.216 40.3685C122.832 40.5606 122.371 40.6759 121.871 40.6759C120.987 40.6759 120.334 40.4453 119.872 40.0226C119.45 39.5998 119.219 38.908 119.219 38.024V33.2198H120.795V37.7166C120.795 38.2931 120.91 38.6774 121.141 38.9849C121.371 39.2539 121.717 39.4076 122.217 39.4076C122.87 39.4076 123.331 39.2155 123.639 38.8311C123.946 38.4468 124.1 37.7934 124.1 36.871V33.2198H125.676V40.5222H124.446ZM131.595 33.0661C131.902 33.0661 132.171 33.1045 132.363 33.143L132.21 34.6034C131.979 34.565 131.748 34.5266 131.518 34.5266C130.903 34.5266 130.403 34.7187 130.019 35.1415C129.634 35.5643 129.442 36.0639 129.442 36.7173V40.5222H127.905V33.2198H129.135L129.327 34.4881H129.404C129.634 34.0654 129.98 33.7195 130.365 33.4504C130.711 33.2198 131.133 33.0661 131.595 33.0661ZM136.629 40.6375C135.476 40.6375 134.592 40.2916 133.977 39.6382C133.324 38.9849 133.017 38.0625 133.017 36.9095C133.017 35.718 133.324 34.7956 133.901 34.1038C134.477 33.412 135.323 33.0661 136.36 33.0661C137.321 33.0661 138.09 33.3736 138.628 33.9501C139.204 34.5266 139.473 35.3337 139.473 36.3714V37.2169H134.592C134.631 37.9087 134.823 38.4852 135.169 38.8311C135.515 39.2155 136.053 39.4076 136.706 39.4076C137.129 39.4076 137.552 39.3692 137.898 39.2923C138.282 39.2155 138.666 39.0617 139.089 38.8696V40.1379C138.705 40.33 138.32 40.4453 137.936 40.5222C137.552 40.5991 137.129 40.6375 136.629 40.6375ZM136.36 34.2576C135.861 34.2576 135.476 34.4113 135.169 34.7187C134.861 35.0262 134.708 35.4874 134.631 36.1024H137.936C137.936 35.4874 137.782 35.0262 137.513 34.7187C137.206 34.4113 136.822 34.2576 136.36 34.2576ZM151.196 36.8326C151.196 38.024 150.888 38.9464 150.273 39.6382C149.658 40.2916 148.813 40.6375 147.737 40.6375C147.045 40.6375 146.468 40.4838 145.93 40.1763C145.392 39.8688 145.008 39.4076 144.739 38.8311C144.47 38.2546 144.316 37.6013 144.316 36.8326C144.316 35.6412 144.624 34.7188 145.238 34.0654C145.853 33.412 146.699 33.0661 147.814 33.0661C148.851 33.0661 149.697 33.412 150.312 34.1038C150.927 34.7956 151.196 35.6796 151.196 36.8326ZM145.892 36.8326C145.892 38.5237 146.507 39.3692 147.775 39.3692C149.005 39.3692 149.62 38.5237 149.62 36.8326C149.62 35.1799 149.005 34.3344 147.775 34.3344C147.122 34.3344 146.661 34.565 146.353 34.9878C146.046 35.4106 145.892 36.0255 145.892 36.8326ZM156.653 34.3728H154.885V40.5222H153.31V34.3728H152.118V33.6426L153.31 33.1814V32.7202C153.31 31.8747 153.502 31.2213 153.924 30.7985C154.347 30.3758 154.962 30.1836 155.769 30.1836C156.307 30.1836 156.845 30.2605 157.383 30.4526L156.961 31.6441C156.576 31.5288 156.23 31.4519 155.846 31.4519C155.5 31.4519 155.231 31.5672 155.077 31.7594C154.924 31.9515 154.847 32.2974 154.847 32.7202V33.1814H156.615V34.3728H156.653ZM167.568 40.5222H165.993V36.0255C165.993 35.449 165.877 35.0647 165.685 34.7572C165.493 34.4881 165.147 34.3344 164.686 34.3344C164.071 34.3344 163.648 34.5266 163.379 34.9109C163.11 35.2952 162.956 35.9486 162.956 36.871V40.5222H161.419V33.2198H162.649L162.879 34.1807H162.956C163.149 33.8348 163.456 33.5657 163.84 33.3736C164.225 33.1814 164.647 33.1045 165.109 33.1045C166.223 33.1045 166.992 33.4889 167.338 34.2576H167.453C167.684 33.9116 167.991 33.6042 168.375 33.412C168.76 33.2198 169.221 33.1045 169.721 33.1045C170.605 33.1045 171.22 33.3351 171.642 33.7579C172.027 34.1807 172.257 34.8725 172.257 35.7565V40.5222H170.72V36.0255C170.72 35.449 170.605 35.0647 170.412 34.7572C170.182 34.4881 169.874 34.3344 169.413 34.3344C168.798 34.3344 168.375 34.5266 168.106 34.9109C167.837 35.2952 167.684 35.8718 167.684 36.6404V40.5222H167.568ZM180.789 36.8326C180.789 38.024 180.482 38.9464 179.867 39.6382C179.252 40.2916 178.407 40.6375 177.33 40.6375C176.639 40.6375 176.062 40.4838 175.524 40.1763C174.986 39.8688 174.602 39.4076 174.333 38.8311C174.064 38.2546 173.91 37.6013 173.91 36.8326C173.91 35.6412 174.217 34.7188 174.832 34.0654C175.447 33.412 176.293 33.0661 177.407 33.0661C178.445 33.0661 179.291 33.412 179.906 34.1038C180.482 34.7956 180.789 35.6796 180.789 36.8326ZM175.486 36.8326C175.486 38.5237 176.101 39.3692 177.369 39.3692C178.599 39.3692 179.214 38.5237 179.214 36.8326C179.214 35.1799 178.599 34.3344 177.369 34.3344C176.716 34.3344 176.254 34.565 175.947 34.9878C175.639 35.4106 175.486 36.0255 175.486 36.8326ZM189.014 40.5222H187.438V36.0255C187.438 35.449 187.323 35.0262 187.093 34.7572C186.862 34.4881 186.516 34.3344 186.016 34.3344C185.363 34.3344 184.863 34.5266 184.594 34.9109C184.325 35.2952 184.133 35.9486 184.133 36.871V40.5222H182.596V33.2198H183.826L184.056 34.1807H184.133C184.364 33.8348 184.671 33.5657 185.056 33.3736C185.44 33.1814 185.901 33.1045 186.401 33.1045C188.169 33.1045 189.014 33.9885 189.014 35.7949V40.5222ZM194.357 40.6375C193.204 40.6375 192.32 40.2916 191.705 39.6382C191.051 38.9849 190.744 38.0625 190.744 36.9095C190.744 35.718 191.051 34.7956 191.628 34.1038C192.204 33.412 193.05 33.0661 194.088 33.0661C195.048 33.0661 195.817 33.3736 196.355 33.9501C196.932 34.5266 197.201 35.3337 197.201 36.3714V37.2169H192.32C192.358 37.9087 192.55 38.4852 192.896 38.8311C193.242 39.2155 193.78 39.4076 194.433 39.4076C194.856 39.4076 195.279 39.3692 195.625 39.2923C195.971 39.2155 196.394 39.0617 196.816 38.8696V40.1379C196.432 40.33 196.048 40.4453 195.663 40.5222C195.279 40.5991 194.856 40.6375 194.357 40.6375ZM194.049 34.2576C193.549 34.2576 193.165 34.4113 192.858 34.7187C192.55 35.0262 192.396 35.4874 192.32 36.1024H195.625C195.625 35.4874 195.471 35.0262 195.202 34.7187C194.933 34.4113 194.549 34.2576 194.049 34.2576ZM197.585 33.2198H199.276L200.775 37.3707C201.006 37.9472 201.159 38.5237 201.236 39.0233H201.275C201.313 38.7927 201.39 38.4852 201.505 38.1393C201.62 37.7934 202.159 36.1408 203.196 33.2198H204.887L201.774 41.483C201.198 42.982 200.275 43.7506 198.93 43.7506C198.584 43.7506 198.238 43.7122 197.931 43.6353V42.4055C198.161 42.4439 198.43 42.4823 198.738 42.4823C199.468 42.4823 200.006 42.0596 200.314 41.1756L200.583 40.4838L197.585 33.2198Z" fill="#A6A6A6"/>
</g>
<defs>
<clipPath id="clip0">
<rect width="230.601" height="54" fill="white" transform="translate(0.498535 0.847656)"/>
</clipPath>
</defs>
</svg>
