<svg width="164" height="48" viewBox="0 0 164 48" fill="none" xmlns="http://www.w3.org/2000/svg">
<g clip-path="url(#clip0)">
<path d="M120.888 35.7887C115.307 35.7887 111.838 32.5556 111.838 27.3441C111.838 21.9354 115.039 18.5705 120.192 18.5705H120.625C121.271 18.5705 122.161 18.5915 123.377 18.7434V12.2148H127.017V35.2003C127.017 35.2003 123.558 35.7887 120.888 35.7887ZM120.855 21.4367C117.329 21.4367 115.615 23.3401 115.615 27.2534C115.615 30.7671 117.683 32.951 121.007 32.951C121.646 32.951 122.378 32.9088 123.376 32.8234V21.6708C122.379 21.5105 121.576 21.4367 120.855 21.4367ZM71.025 35.2615L61.1916 18.1012L61.1884 35.2615H57.7612V13.5372H62.5593L72.3927 30.5446L72.3885 13.5372H75.8611V35.2615H71.025ZM102.348 35.5957C100.692 35.5957 98.9657 35.4101 96.9104 35.0147L96.6879 34.9725V31.9376L97.0127 32.0072C98.8254 32.3942 100.39 32.7243 101.956 32.7243C103.221 32.7243 106.166 32.526 106.166 30.6648C106.166 29.1041 104.131 28.7118 102.496 28.3986L102.393 28.3775C102.087 28.3206 101.799 28.2626 101.557 28.2014C99.1587 27.5793 96.6004 26.6439 96.6004 23.4308C96.6004 20.2967 99.0806 18.5009 103.406 18.5009C105.483 18.5009 106.99 18.7223 108.201 18.9037L108.79 18.9902V21.9354L108.476 21.8785C107.106 21.6265 105.498 21.3671 103.954 21.3671C102.236 21.3671 100.197 21.6887 100.197 23.2167C100.197 24.4853 101.866 24.848 103.798 25.2688C106.499 25.853 109.848 26.5869 109.848 30.2736C109.848 33.6554 107.117 35.5957 102.348 35.5957ZM137.236 35.5957C133.469 35.5957 129.979 34.9314 129.979 30.1207C129.979 24.8849 135.375 24.8849 138.601 24.8849C138.922 24.8849 140.438 24.9556 140.903 24.9756C140.899 22.0388 140.862 21.3386 136.603 21.3386C134.914 21.3386 133.039 21.6718 131.384 21.9692L131.067 22.0261V19.1262L131.281 19.0808C133.2 18.6907 135.05 18.5009 136.937 18.5009C141.064 18.5009 144.561 18.9163 144.561 24.0371V35.2045L144.31 35.233C141.451 35.5536 139.182 35.5957 137.238 35.5957H137.236ZM138.51 27.4759C135.399 27.4759 133.472 27.9336 133.472 30.2113C133.472 32.8477 135.931 33.0659 138.238 33.0659C139.099 33.0659 140.648 32.9552 141.121 32.9215V27.5666C140.455 27.5381 138.72 27.4759 138.51 27.4759ZM86.1585 35.5957C82.3854 35.5957 78.897 34.9314 78.897 30.1207C78.897 24.8849 84.293 24.8849 87.5178 24.8849C87.8394 24.8849 89.359 24.9556 89.8251 24.9756C89.8209 22.0388 89.7797 21.3386 85.5205 21.3386C83.8312 21.3386 81.9562 21.6718 80.3006 21.9692L79.9843 22.0261V19.1262L80.2025 19.0808C82.0621 18.6963 83.9559 18.502 85.8548 18.5009C89.9811 18.5009 93.479 18.9163 93.479 24.0371V35.2045L93.227 35.233C90.3692 35.5536 88.0988 35.5957 86.1585 35.5957ZM87.4271 27.4759C84.3173 27.4759 82.3939 27.9336 82.3939 30.2113C82.3939 32.8477 84.8488 33.0659 87.1561 33.0659C88.0208 33.0659 89.5699 32.9552 90.0434 32.9215V27.5666C89.3716 27.5381 87.638 27.4759 87.4282 27.4759" fill="#A6A6A6"/>
<mask id="mask0" mask-type="alpha" maskUnits="userSpaceOnUse" x="146" y="17" width="17" height="26">
<path d="M146.939 17.5117H162.786V42.8203H146.939V17.5117Z" fill="white"/>
</mask>
<g mask="url(#mask0)">
<path d="M159.058 42.6436V35.5171C157.638 35.7154 156.884 35.7154 156.274 35.7154C154.832 35.7154 153.23 35.4022 151.99 34.8791C149.213 33.7244 147.558 30.7929 147.558 27.0314C147.558 25.1543 148.015 21.7219 151.076 19.8722C152.612 18.9548 154.425 18.5625 157.152 18.5625C158.127 18.5625 159.445 18.6363 160.718 18.7101L162.786 18.8177V40.9922L159.058 42.6436ZM156.88 21.4297C153.18 21.4287 151.305 23.3163 151.305 27.0314C151.305 31.8147 154.102 32.8197 156.454 32.8197C157.026 32.8197 157.669 32.8197 159.094 32.6383V21.5331C157.978 21.4593 157.463 21.4297 156.879 21.4297H156.88Z" fill="#A6A6A6"/>
</g>
<mask id="mask1" mask-type="alpha" maskUnits="userSpaceOnUse" x="26" y="0" width="30" height="36">
<path d="M26.7236 0.65625H55.1958V35.4387H26.7236V0.65625Z" fill="white"/>
</mask>
<g mask="url(#mask1)">
<path d="M41.4991 0.65625L29.4586 33.7367C29.3097 34.144 29.0491 34.5011 28.7067 34.7673C28.3643 35.0334 27.9539 35.1977 27.5225 35.2415V35.2573H40.2506C41.2471 35.2573 42.1002 34.6235 42.4176 33.7377L54.4624 0.65625H41.4991Z" fill="#A6A6A6"/>
</g>
<path d="M26.4834 34.761C27.2216 34.761 27.868 34.394 28.2634 33.8383C28.3046 33.7803 28.449 33.5778 28.5513 33.3026L32.9677 21.1629L30.3841 14.0734C30.2336 13.7144 29.9898 13.4021 29.6781 13.169C29.3663 12.9359 28.9979 12.7904 28.611 12.7476C28.2241 12.7048 27.8328 12.7662 27.4776 12.9255C27.1224 13.0849 26.8163 13.3362 26.5909 13.6537C26.5488 13.7117 26.3769 13.97 26.3031 14.1894L21.8867 26.3248L24.4819 33.4429C24.6502 33.8341 24.9295 34.1674 25.2852 34.4017C25.6409 34.636 26.0575 34.7609 26.4834 34.761Z" fill="#A6A6A6"/>
<mask id="mask2" mask-type="alpha" maskUnits="userSpaceOnUse" x="-1" y="11" width="29" height="36">
<path d="M-0.695312 11.1914H27.7768V46.8311H-0.695312V11.1914Z" fill="white"/>
</mask>
<g mask="url(#mask2)">
<path d="M27.4273 12.2305H14.559C13.5625 12.2305 12.7093 12.8611 12.3877 13.7511L0.347168 46.8315H13.3104L25.352 13.7521C25.5083 13.3218 25.789 12.9477 26.1586 12.6774C26.5282 12.4072 26.9699 12.2531 27.4273 12.2347V12.2305Z" fill="#A6A6A6"/>
</g>
</g>
<defs>
<clipPath id="clip0">
<rect width="163.451" height="46.399" fill="white" transform="translate(0.359863 0.648438)"/>
</clipPath>
</defs>
</svg>
