<svg width="187" height="41" viewBox="0 0 187 41" fill="none" xmlns="http://www.w3.org/2000/svg">
<g clip-path="url(#clip0_5544_126217)">
<path opacity="0.251" d="M19.7393 24.1623L21.4765 23.1322L34.3781 30.6204L34.3932 33.229L21.8425 40.4483L19.7479 39.2419L19.7393 24.1602" fill="white"/>
<path opacity="0.549" d="M16.1592 17.7861L17.9223 16.799L17.8814 1.8936L15.6274 0.575317L3.0918 7.82478V10.2398L16.1635 17.7861" fill="white"/>
<path opacity="0.349" d="M16.1721 23.1301L17.9352 24.1194L17.8943 39.0247L15.6404 40.343L3.10474 33.0936V30.6764L16.1764 23.1301" fill="white"/>
<path opacity="0.749" d="M19.6833 16.786L21.4228 17.8183L34.3244 10.3301L34.3395 7.71935L21.7866 0.5L19.692 1.7086L19.6855 16.7903" fill="white"/>
<path opacity="0.902" d="M22.2322 19.4849L22.2085 21.5043L35.151 28.9215L37.42 27.629L37.4028 13.1602L35.3081 11.9537L22.23 19.4871" fill="white"/>
<path opacity="0.451" d="M15.367 21.4204L15.3929 19.4011L2.45038 11.9839L0.179199 13.2742L0.196422 27.7431L2.29323 28.9517L15.3692 21.4161" fill="white"/>
<path d="M60.6487 11.3494H56.8749V29.2914H60.6487C63.8363 29.2914 66.1669 28.5703 67.6409 27.128C69.1263 25.6856 69.869 23.409 69.869 20.2978C69.869 17.2068 69.1263 14.9451 67.6409 13.5129C66.1669 12.0706 63.8363 11.3494 60.6487 11.3494ZM53.749 31.857V8.78598H60.1708C64.6457 8.78598 67.93 9.71789 70.024 11.5817C72.118 13.4369 73.1649 16.3423 73.1649 20.2978C73.1649 24.2748 72.1129 27.1953 70.009 29.0591C67.905 30.9243 64.6255 31.857 60.1708 31.857H53.749ZM78.1443 31.857V8.78598H81.2701V31.857H78.1443ZM103.237 28.5645V22.3688H98.1307V19.8032H106.331V29.7086C105.124 30.5645 103.793 31.214 102.339 31.657C100.886 32.0886 99.3335 32.3043 97.6829 32.3043C94.0734 32.3043 91.2476 31.2533 89.2053 29.1516C87.1746 27.0398 86.1591 24.1043 86.1591 20.3451C86.1591 16.5745 87.1746 13.6383 89.2053 11.5365C91.2476 9.42469 94.0734 8.36877 97.6829 8.36877C99.1884 8.36877 100.617 8.55372 101.969 8.92361C103.33 9.29495 104.583 9.84118 105.728 10.5623V13.8849C104.572 12.9057 103.345 12.1688 102.044 11.6742C100.746 11.1795 99.3793 10.9322 97.9456 10.9322C95.1196 10.9322 92.9957 11.7208 91.5733 13.2978C90.1596 14.8734 89.4528 17.2225 89.4528 20.3451C89.4528 23.4563 90.1596 25.7996 91.5733 27.3753C92.9957 28.9523 95.1196 29.7409 97.9456 29.7409C99.0493 29.7409 100.034 29.6477 100.901 29.4613C101.767 29.2662 102.545 28.9673 103.237 28.5645ZM112.038 31.857V8.78598H115.163V31.857H112.038ZM122.141 31.857V8.78598H123.686V30.5903H134.932V31.857H122.141ZM139.759 31.857V8.78598H141.369V31.857H139.759ZM149.104 31.857V8.78598H151.393L162.593 29.8785V8.78598H164.139V31.857H161.943L150.682 10.6247V31.857H149.104ZM172.817 31.857V8.78598H185.874V10.0677H174.395V18.9215H185.396V20.1752H174.395V30.6054H186.153V31.857H172.817Z" fill="white"/>
</g>
<defs>
<clipPath id="clip0_5544_126217">
<rect width="186" height="40" fill="white" transform="translate(0.179199 0.5)"/>
</clipPath>
</defs>
</svg>
