<svg width="181" height="45" viewBox="0 0 181 45" fill="none" xmlns="http://www.w3.org/2000/svg">
<path d="M25.0952 44.4808L15.9854 24.698H34.205L25.0952 44.4808Z" fill="url(#paint0_linear_5544_126234)"/>
<path d="M13.2844 24.3321L21.9061 42.6794L0.59668 16.0786L13.2844 24.3321Z" fill="url(#paint1_linear_5544_126234)"/>
<path d="M34.1921 22.0869L15.8545 22.1659L18.277 11.9038L31.5486 11.8467L34.1921 22.0869Z" fill="url(#paint2_linear_5544_126234)"/>
<path d="M13.4439 21.3648L1.40576 13.7299L6.56944 6.77747L16.236 11.4388L13.4439 21.3648Z" fill="url(#paint3_linear_5544_126234)"/>
<path d="M31.1807 0.519165L41.6834 5.00685L32.0513 9.50164L17.4845 9.39792L8.31592 4.93084L18.4173 0.519165H31.1807Z" fill="url(#paint4_linear_5544_126234)"/>
<path d="M36.4306 21.4736L48.445 13.8536L42.9544 7.04065L33.6357 11.5493L36.4306 21.4736Z" fill="url(#paint5_linear_5544_126234)"/>
<path d="M36.8834 24.4507L28.3789 42.7985L49.1525 16.5392L36.8834 24.4507Z" fill="url(#paint6_linear_5544_126234)"/>
<path d="M76.9158 30.0184C76.9158 29.6373 76.8015 29.3071 76.5727 29.0277C76.3566 28.7483 75.9499 28.4879 75.3526 28.2466C74.7552 28.0053 73.891 27.764 72.7599 27.5226C71.3745 27.2178 70.1226 26.8051 69.0042 26.2843C67.8985 25.7636 67.0279 25.0904 66.3924 24.2649C65.757 23.4266 65.4392 22.4169 65.4392 21.2357C65.4392 20.08 65.7697 19.0131 66.4306 18.0351C67.0914 17.0572 68.0383 16.2697 69.2711 15.6728C70.5166 15.0759 72.0036 14.7774 73.7321 14.7774C75.5369 14.7774 77.0938 15.0632 78.4029 15.6347C79.7119 16.2062 80.716 16.9937 81.415 17.997C82.114 19.0004 82.4635 20.1498 82.4635 21.4453H76.7061C76.7061 20.6706 76.4647 20.0419 75.9817 19.5592C75.5115 19.0639 74.7552 18.8162 73.7131 18.8162C73.1539 18.8162 72.6645 18.9115 72.2451 19.102C71.8257 19.2925 71.5016 19.5465 71.2729 19.8641C71.0568 20.1689 70.9488 20.5309 70.9488 20.95C70.9488 21.331 71.0695 21.6676 71.311 21.9597C71.5525 22.2518 71.9465 22.5058 72.493 22.7217C73.0395 22.9377 73.7703 23.1282 74.6853 23.2933C76.1469 23.5727 77.4687 23.9601 78.6507 24.4554C79.8327 24.938 80.7732 25.6048 81.4722 26.4558C82.1712 27.294 82.5207 28.4117 82.5207 29.8088C82.5207 31.0281 82.1585 32.1203 81.4341 33.0856C80.7223 34.0382 79.7056 34.7875 78.3838 35.3336C77.0747 35.8798 75.5305 36.1529 73.7512 36.1529C71.8067 36.1529 70.1671 35.8036 68.8326 35.105C67.4981 34.4065 66.4877 33.5238 65.8014 32.4569C65.1151 31.3773 64.772 30.2787 64.772 29.1611H70.2243C70.2625 29.8469 70.4467 30.4057 70.7772 30.8376C71.1203 31.2694 71.5588 31.5869 72.0926 31.7901C72.6391 31.9933 73.2365 32.0949 73.8846 32.0949C74.5455 32.0949 75.0984 32.0124 75.5432 31.8473C76.0008 31.6695 76.3439 31.4282 76.5727 31.1233C76.8015 30.8058 76.9158 30.4375 76.9158 30.0184Z" fill="white"/>
<path d="M96.266 19.3497H84.084V15.1584H96.266V19.3497ZM92.7772 10.0717V29.3325C92.7772 29.8914 92.8471 30.3232 92.9869 30.628C93.1395 30.9328 93.3746 31.1424 93.6923 31.2567C94.01 31.371 94.404 31.4282 94.8743 31.4282C95.2174 31.4282 95.5225 31.4154 95.7894 31.39C96.0563 31.3646 96.285 31.3329 96.4757 31.2948L96.4566 35.6385C95.9864 35.8036 95.4716 35.9306 94.9124 36.0195C94.3659 36.1084 93.7495 36.1529 93.0632 36.1529C91.8304 36.1529 90.7564 35.9496 89.8414 35.5432C88.939 35.1241 88.24 34.4636 87.7443 33.5619C87.2613 32.6474 87.0199 31.4536 87.0199 29.9803V10.0717H92.7772Z" fill="white"/>
<path d="M110.259 22.0359C110.259 21.1087 110.03 20.3721 109.573 19.826C109.115 19.2798 108.384 19.0068 107.38 19.0068C106.808 19.0068 106.313 19.102 105.893 19.2925C105.474 19.483 105.156 19.7561 104.94 20.1117C104.724 20.4546 104.616 20.8801 104.616 21.3882H98.8587C98.8587 20.1689 99.2209 19.0639 99.9454 18.0732C100.67 17.0699 101.693 16.2697 103.015 15.6728C104.336 15.0759 105.893 14.7774 107.685 14.7774C109.287 14.7774 110.717 15.0505 111.975 15.5966C113.233 16.13 114.224 16.9365 114.949 18.0161C115.673 19.0957 116.036 20.4483 116.036 22.074V30.6852C116.036 31.9044 116.105 32.8697 116.245 33.5809C116.398 34.2922 116.607 34.9145 116.874 35.448V35.7718H111.079C110.799 35.1876 110.59 34.4573 110.45 33.5809C110.323 32.7046 110.259 31.8155 110.259 30.9138V22.0359ZM111.041 26.4748H108.105C106.707 26.4748 105.696 26.7797 105.074 27.3893C104.451 27.9862 104.139 28.7102 104.139 29.5611C104.139 30.2089 104.368 30.7423 104.826 31.1614C105.283 31.5806 105.9 31.7901 106.675 31.7901C107.476 31.7901 108.162 31.6377 108.734 31.3329C109.319 31.0154 109.763 30.6407 110.068 30.2089C110.386 29.7643 110.539 29.3579 110.526 28.9896L112.013 31.4663C111.81 31.9743 111.536 32.5014 111.193 33.0475C110.863 33.5936 110.437 34.1017 109.916 34.5716C109.395 35.0415 108.759 35.4226 108.01 35.7147C107.272 36.0068 106.402 36.1529 105.398 36.1529C104.101 36.1529 102.919 35.8925 101.852 35.3718C100.784 34.8383 99.939 34.108 99.3162 33.1809C98.6935 32.241 98.3821 31.1678 98.3821 29.9612C98.3821 27.8021 99.1828 26.1319 100.784 24.9507C102.386 23.7569 104.769 23.1599 107.933 23.1599H111.003L111.041 26.4748Z" fill="white"/>
<path d="M131.211 30.0184C131.211 29.6373 131.096 29.3071 130.867 29.0277C130.651 28.7483 130.245 28.4879 129.647 28.2466C129.05 28.0053 128.186 27.764 127.055 27.5226C125.669 27.2178 124.417 26.8051 123.299 26.2843C122.193 25.7636 121.323 25.0904 120.687 24.2649C120.052 23.4266 119.734 22.4169 119.734 21.2357C119.734 20.08 120.064 19.0131 120.725 18.0351C121.386 17.0572 122.333 16.2697 123.566 15.6728C124.811 15.0759 126.298 14.7774 128.027 14.7774C129.832 14.7774 131.389 15.0632 132.698 15.6347C134.007 16.2062 135.011 16.9937 135.71 17.997C136.409 19.0004 136.758 20.1498 136.758 21.4453H131.001C131.001 20.6706 130.759 20.0419 130.276 19.5592C129.806 19.0639 129.05 18.8162 128.008 18.8162C127.449 18.8162 126.959 18.9115 126.54 19.102C126.12 19.2925 125.796 19.5465 125.568 19.8641C125.352 20.1689 125.244 20.5309 125.244 20.95C125.244 21.331 125.364 21.6676 125.606 21.9597C125.847 22.2518 126.241 22.5058 126.788 22.7217C127.334 22.9377 128.065 23.1282 128.98 23.2933C130.442 23.5727 131.763 23.9601 132.945 24.4554C134.127 24.938 135.068 25.6048 135.767 26.4558C136.466 27.294 136.815 28.4117 136.815 29.8088C136.815 31.0281 136.453 32.1203 135.729 33.0856C135.017 34.0382 134 34.7875 132.679 35.3336C131.369 35.8798 129.825 36.1529 128.046 36.1529C126.101 36.1529 124.462 35.8036 123.127 35.105C121.793 34.4065 120.782 33.5238 120.096 32.4569C119.41 31.3773 119.067 30.2787 119.067 29.1611H124.519C124.557 29.8469 124.741 30.4057 125.072 30.8376C125.415 31.2694 125.854 31.5869 126.387 31.7901C126.934 31.9933 127.531 32.0949 128.179 32.0949C128.84 32.0949 129.393 32.0124 129.838 31.8473C130.296 31.6695 130.639 31.4282 130.867 31.1233C131.096 30.8058 131.211 30.4375 131.211 30.0184Z" fill="white"/>
<path d="M145.871 35.7718H140.094V6.50916H145.871V35.7718ZM143.507 24.8555C143.507 22.8996 143.825 21.1659 144.46 19.6545C145.108 18.1431 146.017 16.9556 147.186 16.0919C148.356 15.2156 149.722 14.7774 151.285 14.7774C152.645 14.7774 153.833 15.0441 154.85 15.5775C155.88 16.0983 156.68 16.9492 157.252 18.1304C157.837 19.2989 158.129 20.8674 158.129 22.8361V35.7718H152.353V22.7979C152.353 21.9343 152.226 21.2611 151.971 20.7785C151.73 20.2832 151.368 19.9403 150.885 19.7498C150.415 19.5465 149.836 19.4449 149.15 19.4449C148.387 19.4449 147.746 19.5783 147.224 19.845C146.703 20.099 146.278 20.4673 145.947 20.95C145.629 21.4326 145.401 22.0041 145.261 22.6646C145.121 23.3123 145.051 24.0172 145.051 24.7793L143.507 24.8555Z" fill="white"/>
<path d="M167.795 35.7718H162.018V6.50916H167.795V35.7718ZM165.431 24.8555C165.431 22.8996 165.749 21.1659 166.384 19.6545C167.032 18.1431 167.941 16.9556 169.11 16.0919C170.279 15.2156 171.646 14.7774 173.209 14.7774C174.569 14.7774 175.757 15.0441 176.774 15.5775C177.803 16.0983 178.604 16.9492 179.176 18.1304C179.761 19.2989 180.053 20.8674 180.053 22.8361V35.7718H174.277V22.7979C174.277 21.9343 174.149 21.2611 173.895 20.7785C173.654 20.2832 173.292 19.9403 172.809 19.7498C172.338 19.5465 171.76 19.4449 171.074 19.4449C170.311 19.4449 169.669 19.5783 169.148 19.845C168.627 20.099 168.201 20.4673 167.871 20.95C167.553 21.4326 167.324 22.0041 167.185 22.6646C167.045 23.3123 166.975 24.0172 166.975 24.7793L165.431 24.8555Z" fill="white"/>
<defs>
<linearGradient id="paint0_linear_5544_126234" x1="15.9854" y1="34.5896" x2="34.205" y2="34.5896" gradientUnits="userSpaceOnUse">
<stop stop-color="#84D5D1"/>
<stop offset="0.51" stop-color="#5B87E1"/>
<stop offset="1" stop-color="#806CE0"/>
</linearGradient>
<linearGradient id="paint1_linear_5544_126234" x1="2.17698" y1="28.4156" x2="20.066" y2="26.2291" gradientUnits="userSpaceOnUse">
<stop stop-color="#84D5D1"/>
<stop offset="0.51" stop-color="#5B87E1"/>
<stop offset="1" stop-color="#806CE0"/>
</linearGradient>
<linearGradient id="paint2_linear_5544_126234" x1="15.997" y1="17.1961" x2="34.3748" y2="17.1961" gradientUnits="userSpaceOnUse">
<stop stop-color="#84D5D1"/>
<stop offset="0.51" stop-color="#5B87E1"/>
<stop offset="1" stop-color="#806CE0"/>
</linearGradient>
<linearGradient id="paint3_linear_5544_126234" x1="1.25557" y1="14.48" x2="15.6505" y2="16.2011" gradientUnits="userSpaceOnUse">
<stop stop-color="#84D5D1"/>
<stop offset="0.51" stop-color="#5B87E1"/>
<stop offset="1" stop-color="#806CE0"/>
</linearGradient>
<linearGradient id="paint4_linear_5544_126234" x1="8.31592" y1="5.01023" x2="41.6837" y2="5.01023" gradientUnits="userSpaceOnUse">
<stop stop-color="#84D5D1"/>
<stop offset="0.51" stop-color="#5B87E1"/>
<stop offset="1" stop-color="#806CE0"/>
</linearGradient>
<linearGradient id="paint5_linear_5544_126234" x1="48.4301" y1="14.6337" x2="34.0356" y2="16.3548" gradientUnits="userSpaceOnUse">
<stop stop-color="#84D5D1"/>
<stop offset="0.51" stop-color="#5B87E1"/>
<stop offset="1" stop-color="#806CE0"/>
</linearGradient>
<linearGradient id="paint6_linear_5544_126234" x1="47.4951" y1="28.8028" x2="30.0948" y2="26.6761" gradientUnits="userSpaceOnUse">
<stop stop-color="#84D5D1"/>
<stop offset="0.51" stop-color="#5B87E1"/>
<stop offset="1" stop-color="#806CE0"/>
</linearGradient>
</defs>
</svg>
