<svg width="487" height="292" viewBox="0 0 487 292" fill="none" xmlns="http://www.w3.org/2000/svg">
<path opacity="0.1" d="M332.433 291.971C326.05 291.769 319.686 291.16 313.381 290.149C301.621 288.257 290.731 283.888 280.122 278.632C270.289 273.751 260.882 268.12 251.416 262.584C245.89 259.355 240.159 256.502 234.36 253.835C229.306 251.46 224.121 249.373 218.831 247.583C210.558 244.764 201.804 243.626 193.085 244.235C185.896 244.77 178.788 246.084 171.884 248.154C162.819 250.914 154.094 254.593 145.302 258.069C137.004 261.357 128.613 264.347 119.82 266.025C116.409 266.672 112.998 267.149 109.587 267.533C103.813 268.036 98.0095 268.119 92.2235 267.78C87.53 267.553 82.8574 267.01 78.2375 266.153C70.1822 264.829 62.258 262.805 54.5552 260.105C45.9715 257.164 37.879 252.952 30.5487 247.608C24.1521 242.838 18.5263 237.115 13.8679 230.64C9.56102 224.923 6.18232 218.565 3.85598 211.798C2.0765 206.302 0.881667 200.635 0.291266 194.889C-0.403829 187.849 0.147542 180.741 1.92012 173.892C4.23975 164.522 10.252 158.84 19.4282 156.327C22.9944 155.439 26.6285 154.849 30.2929 154.564C35.3585 154.044 40.3304 154.658 45.3364 155.024C48.0483 155.228 50.7772 155.254 53.4806 155.544C59.9324 156.108 66.4171 156.197 72.8819 155.808C81.4099 155.45 89.8271 154.445 97.7496 150.952C106.653 147.025 113.629 141.011 118.004 132.212C119.848 128.412 120.932 124.289 121.193 120.074C121.551 115.448 121.006 110.848 121.006 106.24C121.006 104.289 120.656 102.305 120.767 100.345C121.099 94.3827 121.85 88.4199 124.553 82.9512C126.823 78.1983 130.226 74.0742 134.463 70.9405C139.359 67.4521 145.015 65.1749 150.965 64.2963C153.908 63.7685 156.894 63.5119 159.885 63.5297C167.082 63.7309 174.234 64.7396 181.205 66.5366C188.172 68.2402 194.765 70.9916 201.365 73.7515C205.912 75.7391 210.578 77.446 215.334 78.8625C221.632 80.6621 228.232 81.1521 234.727 80.302C238.242 79.9058 241.685 79.0287 244.961 77.6955C250.181 75.4526 254.65 71.7636 257.838 67.0647C261.113 62.3712 263.134 57.1154 264.729 51.6723C266.775 44.6959 268.14 37.5491 270.033 30.5301C271.365 25.0912 273.793 19.981 277.171 15.5124C280.697 11.039 285.35 7.58193 290.654 5.49498C296.411 3.23014 302.426 1.68514 308.563 0.895144C315.933 -0.0307291 323.376 -0.238994 330.787 0.273304C337.634 0.734052 344.437 1.71652 351.135 3.2121C357.403 4.50687 363.458 6.6194 369.7 7.98231C375.482 9.20894 381.324 10.1715 387.012 11.7814C396.202 14.3092 405.234 17.3754 414.063 20.9641C421.414 24.0136 428.834 26.9268 435.903 30.6408C443.391 34.5762 450.691 38.7842 457.334 44.057C458.739 45.1303 460.075 46.2911 461.334 47.5324C464.131 50.4201 467.304 52.9159 469.922 55.9825C473.508 60.169 476.707 64.6707 479.482 69.4328C481.059 72.1331 482.586 74.8589 483.916 77.704C485.23 80.6183 486.109 83.7092 486.526 86.8781C486.95 89.2897 487.091 91.7426 486.944 94.1867C486.244 102.032 485.656 109.877 482.509 117.28C480.107 122.918 476.974 128.217 473.188 133.038C470.393 136.646 467.285 140.001 463.901 143.064C458.482 147.922 452.681 152.337 446.555 156.268C440.645 160.058 434.539 163.5 428.527 167.103C422.975 170.433 417.534 173.917 412.971 178.602C409.671 181.967 406.729 185.638 405.151 190.187C404.304 192.833 403.733 195.559 403.446 198.322C402.934 202.283 403.446 206.201 403.599 210.12C403.753 214.038 404.315 217.948 404.674 221.866C404.87 223.962 405.091 226.066 405.134 228.161C405.134 230.41 405.637 232.616 405.552 234.874C405.288 241.569 404.486 248.162 401.817 254.363C398.952 261.096 394.534 267.057 388.922 271.758C386.224 274.044 383.406 276.185 380.48 278.172C373.853 282.618 366.553 285.557 358.972 287.891C353.317 289.628 347.509 290.818 341.626 291.443C338.584 291.898 335.507 292.075 332.433 291.971Z" fill="#EB8045"/>
</svg>
