<svg width="16" height="20" viewBox="0 0 16 20" fill="none" xmlns="http://www.w3.org/2000/svg">
<path d="M6.80011 0.400024C6.13737 0.400024 5.60011 0.937283 5.60011 1.60002C5.60011 2.26277 6.13737 2.80002 6.80011 2.80002H9.20011C9.86285 2.80002 10.4001 2.26277 10.4001 1.60002C10.4001 0.937283 9.86285 0.400024 9.20011 0.400024H6.80011Z" fill="#FEECA5"/>
<path fill-rule="evenodd" clip-rule="evenodd" d="M0.80011 4.00002C0.80011 2.67454 1.87463 1.60002 3.20011 1.60002C3.20011 3.58825 4.81188 5.20002 6.80011 5.20002H9.20011C11.1883 5.20002 12.8001 3.58825 12.8001 1.60002C14.1256 1.60002 15.2001 2.67454 15.2001 4.00002V17.2C15.2001 18.5255 14.1256 19.6 12.8001 19.6H3.20011C1.87463 19.6 0.80011 18.5255 0.80011 17.2V4.00002ZM12.4486 10.8486C12.9173 10.3799 12.9173 9.62012 12.4486 9.1515C11.98 8.68287 11.2202 8.68287 10.7516 9.1515L6.80011 13.103L5.24864 11.5515C4.78001 11.0829 4.02021 11.0829 3.55158 11.5515C3.08295 12.0201 3.08295 12.7799 3.55158 13.2486L5.95158 15.6486C6.42021 16.1172 7.18001 16.1172 7.64864 15.6486L12.4486 10.8486Z" fill="#FEECA5"/>
</svg>
