<svg width="201" height="146" viewBox="0 0 201 146" fill="none" xmlns="http://www.w3.org/2000/svg">
<g clip-path="url(#clip0_5892_82554)">
<g opacity="0.22">
<path opacity="0.22" d="M129.589 13.3742C129.544 16.4031 129.305 19.4261 128.876 22.4248C128.502 25.1881 128.113 27.9489 127.798 30.7197C127.442 33.867 127.147 37.0244 127.185 40.1967C127.217 42.6457 127.512 45.0524 128.604 47.2895C129.057 48.2684 129.715 49.1393 130.532 49.8438C131.349 50.5482 132.307 51.0702 133.342 51.3746C135.279 51.9704 137.304 52.2293 139.328 52.1402C141.602 52.0529 143.817 51.6414 146.034 51.175C148.411 50.6763 150.745 50.0278 153.082 49.3944C154.733 48.9479 156.369 48.4492 158.018 48.0027C159.841 47.5039 161.666 47.0351 163.519 46.6585C165.364 46.2444 167.233 45.9487 169.116 45.7731C171.667 45.5861 174.171 45.8006 176.498 46.9952C179.019 48.2895 180.506 50.387 181.149 53.1079C181.56 54.9611 181.628 56.8738 181.351 58.7517C180.78 63.1535 179.106 67.1538 176.942 70.9845C175.07 74.2569 172.86 77.3239 170.348 80.1348C167.116 83.8537 163.46 87.1817 159.454 90.0508C157.614 91.3526 155.721 92.5688 153.775 93.6994C152.192 94.6247 150.516 95.3704 148.86 96.1585C145.837 97.5975 142.75 98.9018 139.784 100.458C138.126 101.331 136.475 102.216 134.879 103.201C132.475 104.693 130.177 106.346 127.998 108.149C125.14 110.491 122.536 113.1 119.885 115.659C117.461 117.998 115.067 120.37 112.461 122.51C110.618 124.065 108.627 125.435 106.517 126.602C103.822 128.044 101.013 129.261 97.9907 129.812C94.0802 130.528 90.4315 129.869 87.3215 127.248C85.6849 125.831 84.4035 124.05 83.5806 122.048C82.4085 119.347 81.6204 116.534 80.952 113.681C80.5555 111.993 80.2038 110.297 79.7624 108.621C79.3507 106.976 78.6184 105.428 77.6076 104.067C75.6208 101.387 73.1979 99.0603 70.44 97.1835C68.4448 95.8517 66.3599 94.6895 64.2799 93.5199C61.0752 91.7068 57.9004 89.8438 54.8777 87.7389C53.2941 86.6366 51.7329 85.5068 50.2365 84.2872C48.3547 82.785 46.6126 81.1155 45.0316 79.2993C43.6851 77.723 42.4548 76.051 41.3505 74.2965C40.7744 73.3862 40.2307 72.4584 39.7344 71.5033C38.8068 69.7629 38.0026 67.9594 37.3278 66.1063C36.5454 63.954 35.9668 61.7329 35.5995 59.4724C35.2311 57.0264 35.1424 54.5464 35.3351 52.0804C35.5027 49.8127 35.8454 47.5615 36.3601 45.3467C36.5946 44.3491 36.8589 43.3515 37.1407 42.3539C37.7183 40.3495 38.4435 38.3905 39.3105 36.4931C40.1393 34.6199 41.1839 32.8497 42.4229 31.2184C44.2038 28.921 46.6382 27.2161 49.406 26.3278C51.0334 25.7986 52.7193 25.4703 54.4263 25.3502C55.7431 25.2454 57.0549 25.2803 58.3693 25.2853C59.8432 25.2853 61.3146 25.415 62.7885 25.425C63.7861 25.425 64.7837 25.4824 65.7813 25.4824C67.3724 25.4824 68.9619 25.4291 70.5497 25.3227C71.9837 25.228 73.4128 25.1282 74.8343 24.9287C77.1012 24.6247 79.3255 24.0607 81.4633 23.2478C85.3613 21.7514 88.8229 19.5068 92.0875 16.9505C94.4193 15.1175 96.6265 13.1373 98.8361 11.1596C101.749 8.5534 104.822 6.17168 108.208 4.19397C109.638 3.37335 111.127 2.6614 112.663 2.06414C114.127 1.49454 115.632 1.03439 117.164 0.687479C118.855 0.281294 120.611 0.225279 122.324 0.522878C125.003 1.00421 126.833 2.54797 128.038 4.93468C128.856 6.56323 129.245 8.29902 129.454 10.0897C129.56 11.1812 129.605 12.2777 129.589 13.3742Z" fill="#EB8045"/>
</g>
<path d="M94.4392 76.1769C94.4392 76.1769 94.4941 75.4287 94.4941 75.2816C94.4941 75.1345 94.6737 75.132 94.9505 75.1519C95.2273 75.1719 108.981 75.0447 110.353 75.0172C111.725 74.9898 142.468 75.0971 142.68 75.0971C142.892 75.0971 143.029 75.2666 143.228 75.6457C143.428 76.0248 145.972 80.0376 146.318 80.6336C146.665 81.2297 149.561 85.7537 149.877 86.1802C150.194 86.6066 152.725 91.183 153.002 91.5995C153.279 92.016 156.948 98.5502 157.175 98.9143C157.402 99.2784 158.875 101.802 159.192 102.536C159.509 103.269 160.038 104.147 160.063 104.211C160.088 104.276 160.063 104.334 159.958 104.354C159.853 104.374 140.779 105.738 139.475 105.818C138.171 105.897 120.77 107.082 118.434 107.314C116.097 107.546 95.0577 109.529 94.4667 109.606L93.0376 109.8C92.9778 109.8 92.888 109.83 92.898 109.566C92.908 109.302 93.0127 106.897 93.0027 106.573C92.9927 106.249 93.3718 98.812 93.3718 98.2983C93.3718 97.7845 93.5813 93.2081 93.5963 92.6819C93.6112 92.1557 93.8058 86.1029 93.8058 85.6814C93.8058 85.2599 94.0178 82.2273 94.0552 81.8432C94.0926 81.4591 94.4392 76.4014 94.4392 76.1769Z" fill="#FFDAB6"/>
<path d="M69.1258 48.9729C69.1258 48.9729 69.1831 48.2247 69.1831 48.0776C69.1831 47.9304 69.3602 47.9279 69.637 47.9479C69.9139 47.9678 83.668 47.8406 85.0397 47.8132C86.4113 47.7858 117.154 47.893 117.366 47.893C117.578 47.893 117.715 48.0626 117.917 48.4417C118.119 48.8208 120.661 52.8335 121.005 53.4296C121.349 54.0256 124.247 58.5497 124.564 58.9761C124.881 59.4026 127.412 63.979 127.689 64.3955C127.966 64.812 131.634 71.3461 131.861 71.7103C132.088 72.0744 133.562 74.5982 133.879 75.3315C134.195 76.0647 134.724 76.9426 134.749 77.0074C134.774 77.0722 134.749 77.1296 134.644 77.1496C134.54 77.1695 115.468 78.5337 114.162 78.6135C112.855 78.6933 95.4569 79.8779 93.1201 80.1099C90.7832 80.3418 69.7468 82.3245 69.1532 82.4018L67.7242 82.5964C67.6643 82.5964 67.5745 82.6263 67.5845 82.3619C67.5945 82.0976 67.6992 79.6934 67.6892 79.3692C67.6793 79.045 68.0584 71.608 68.0584 71.0942C68.0584 70.5805 68.2703 66.0041 68.2828 65.4779C68.2953 64.9516 68.4923 58.8988 68.4923 58.4773C68.4923 58.0559 68.7043 55.0232 68.7417 54.6392C68.7791 54.2551 69.1258 49.1899 69.1258 48.9729Z" fill="#F5BB83"/>
<path d="M81.7825 20.8112C81.7825 20.8112 81.8399 20.063 81.8399 19.9134C81.8399 19.7637 82.0169 19.7662 82.2938 19.7862C82.5706 19.8061 96.3247 19.6764 97.6964 19.649C99.0681 19.6216 129.811 19.7288 130.023 19.7288C130.235 19.7288 130.372 19.9009 130.572 20.28C130.771 20.659 133.315 24.6693 133.662 25.2679C134.008 25.8664 136.904 30.3904 137.221 30.8144C137.537 31.2384 140.069 35.8173 140.345 36.2338C140.622 36.6503 144.291 43.1844 144.518 43.551C144.745 43.9176 146.219 46.439 146.535 47.1698C146.852 47.9005 147.381 48.7809 147.406 48.8457C147.431 48.9105 147.406 48.9704 147.301 48.9878C147.196 49.0053 128.125 50.3745 126.818 50.4518C125.511 50.5291 108.114 51.7187 105.777 51.9482C103.44 52.1776 82.4035 54.1628 81.8099 54.2426L80.3809 54.4346C80.321 54.4346 80.2313 54.4646 80.2412 54.2027C80.2512 53.9408 80.356 51.5317 80.346 51.21C80.336 50.8882 80.7151 43.4463 80.7151 42.9325C80.7151 42.4188 80.9246 37.8449 80.9395 37.3161C80.9545 36.7874 81.149 30.7371 81.149 30.3156C81.149 29.8941 81.361 26.8615 81.3984 26.4799C81.4358 26.0984 81.7825 21.0306 81.7825 20.8112Z" fill="#FFDAB6"/>
<path d="M104.772 94.904C105.093 94.4052 105.35 93.9937 105.595 93.5847C105.786 93.2803 106.028 93.0111 106.31 92.7891C106.754 92.42 107.203 92.4899 107.542 92.9562C107.78 93.2992 107.987 93.6622 108.161 94.0411C108.71 95.1709 109.263 96.3056 110.189 97.1885C110.568 97.6034 111.079 97.8754 111.635 97.9591C112.025 98.0052 112.419 97.9421 112.775 97.777C113.131 97.6118 113.434 97.3511 113.65 97.0239C114.191 96.3048 114.568 95.4755 114.753 94.5948C114.79 94.4638 114.798 94.3259 114.773 94.1918C114.749 94.0577 114.694 93.931 114.613 93.8216C114.421 93.5722 114.291 93.2655 114.483 92.9313C114.513 92.8575 114.564 92.7943 114.629 92.7499C114.695 92.7054 114.773 92.6817 114.852 92.6819C114.922 92.6852 114.99 92.708 115.048 92.7477C115.105 92.7873 115.151 92.8423 115.179 92.9063C115.254 93.0687 115.306 93.2408 115.334 93.4176C115.446 93.894 115.658 94.0386 116.139 93.9987C116.199 93.9973 116.259 93.9881 116.316 93.9713C116.533 93.8964 116.778 93.8116 116.837 94.1309C116.89 94.4002 116.633 94.4202 116.446 94.4875C116.238 94.559 116.016 94.5779 115.8 94.5424C115.334 94.4701 115.316 94.4676 115.211 94.9264C115.008 95.701 114.671 96.4338 114.214 97.0912C113.871 97.6543 113.356 98.0917 112.745 98.3382C111.77 98.7172 110.904 98.4604 110.136 97.8119C109.36 97.1302 108.724 96.3044 108.263 95.3803C107.974 94.8342 107.707 94.2755 107.428 93.7219C107.36 93.5554 107.263 93.4025 107.141 93.2705C107.106 93.228 107.062 93.1932 107.013 93.1682C106.963 93.1433 106.909 93.1287 106.854 93.1255C106.799 93.1222 106.744 93.1303 106.692 93.1492C106.64 93.1681 106.593 93.1975 106.552 93.2355C106.429 93.3364 106.321 93.4539 106.231 93.5847C105.787 94.2209 105.389 94.8877 105.039 95.5799C104.915 95.8309 104.871 96.1138 104.914 96.3904C105.078 97.4746 105.054 98.5788 104.844 99.655C104.709 100.236 104.814 100.845 104.664 101.433C104.559 101.979 104.416 102.517 104.238 103.044C104.177 103.213 104.093 103.374 103.989 103.521C103.954 103.582 103.903 103.633 103.843 103.669C103.782 103.705 103.713 103.725 103.642 103.726C103.572 103.728 103.502 103.711 103.44 103.678C103.378 103.644 103.325 103.595 103.288 103.536C103.193 103.434 103.119 103.315 103.071 103.184C102.859 102.498 102.677 101.8 102.886 101.082C103.051 100.52 102.964 99.9368 103.113 99.3682C103.375 98.2643 103.739 97.1872 104.201 96.151C104.3 95.9765 104.341 95.7743 104.315 95.5749C104.128 94.51 103.889 93.4725 103.26 92.5547C102.532 91.4898 101.515 91.1381 100.298 91.3576C99.7248 91.4876 99.2038 91.7854 98.8012 92.213C97.8292 93.1909 97.085 94.3711 96.6215 95.6696C96.1427 96.8731 95.8712 98.1489 95.8184 99.443C95.7985 100.054 95.791 100.73 96.2673 101.251C96.392 101.386 96.4319 101.538 96.2673 101.663C96.1027 101.787 96.0179 101.65 95.9107 101.55C95.5372 101.127 95.3338 100.581 95.3396 100.017C95.2298 97.7371 95.8833 95.6497 97.0055 93.6944C97.4613 92.8776 98.0632 92.1515 98.7812 91.5521C99.9983 90.5545 101.946 90.4972 103.158 91.6344C103.658 92.1257 104.039 92.7245 104.273 93.3852C104.445 93.8516 104.58 94.3229 104.772 94.904ZM104.31 97.0987C104.285 97.176 104.268 97.2533 104.238 97.3256C103.637 98.8993 103.24 100.508 103.343 102.209C103.327 102.578 103.449 102.939 103.684 103.224C104.316 101.255 104.599 99.1919 104.522 97.1261C104.522 97.0264 104.615 96.8767 104.46 96.8518C104.305 96.8268 104.315 96.9865 104.308 97.0987H104.31Z" fill="#B8C4D1"/>
<path d="M97.7364 58.6569C97.9209 58.5122 97.9184 58.3402 97.9858 58.2005C98.0618 58.0172 98.1527 57.8403 98.2576 57.6718C98.7315 57.0009 99.3375 57.0084 99.7889 57.6892C100.054 58.1139 100.235 58.5855 100.323 59.0784C100.582 60.494 100.582 61.9449 100.323 63.3605C100.173 64.2658 99.9588 65.1593 99.6817 66.034C99.5545 66.443 99.5719 66.4829 99.9311 66.7049C100.255 66.9034 100.601 67.0641 100.961 67.1837C101.36 67.3159 101.762 67.4331 102.178 67.2236C102.202 67.2054 102.23 67.1928 102.259 67.1866C102.289 67.1803 102.319 67.1807 102.348 67.1876C102.378 67.1945 102.405 67.2078 102.429 67.2265C102.452 67.2453 102.472 67.269 102.485 67.2959C102.512 67.3503 102.518 67.4128 102.503 67.4716C102.487 67.5304 102.451 67.5815 102.4 67.6152C102.307 67.6915 102.2 67.7482 102.085 67.7816C101.969 67.8151 101.848 67.8246 101.729 67.8097C101.068 67.8097 100.482 67.5179 99.9211 67.2386C99.8138 67.1862 99.7141 67.1164 99.6118 67.0565C99.5853 67.0332 99.5531 67.0171 99.5185 67.0099C99.4839 67.0027 99.448 67.0046 99.4143 67.0154C99.3807 67.0262 99.3504 67.0456 99.3264 67.0716C99.3025 67.0976 99.2857 67.1293 99.2776 67.1638C99.1779 67.4132 99.0881 67.6476 98.9858 67.8845C98.3855 69.387 97.5697 70.7942 96.5642 72.0619C95.7387 73.0595 94.781 73.8924 93.5091 74.274C92.6761 74.5234 91.8457 74.5234 91.0825 74.0695C90.7583 73.8725 90.5837 73.9772 90.3792 74.2067C89.6029 75.0647 88.747 75.8471 87.8229 76.5435C87.1446 77.0423 86.4463 77.5012 85.6008 77.6708C85.265 77.7533 84.9107 77.7116 84.6032 77.5536C84.4581 77.4833 84.3427 77.3636 84.2778 77.216C84.2129 77.0684 84.2027 76.9025 84.2491 76.748C84.2596 76.6989 84.2856 76.6544 84.3234 76.6212C84.3611 76.5879 84.4085 76.5677 84.4586 76.5635C84.4838 76.5614 84.5092 76.5646 84.5332 76.5728C84.5572 76.581 84.5792 76.594 84.5979 76.6111C84.6167 76.6282 84.6317 76.6489 84.642 76.672C84.6524 76.6952 84.6578 76.7202 84.6581 76.7455C84.6706 76.9251 84.6706 77.1096 84.8751 77.1969C85.0612 77.2713 85.2655 77.2878 85.4611 77.2443C85.9505 77.1409 86.4148 76.9427 86.8278 76.6607C88.0873 75.8677 89.1372 74.8302 90.1523 73.7553C90.272 73.6281 90.3393 73.5059 90.2071 73.3413C88.9876 71.7726 88.7257 69.9246 88.7557 68.0242C88.7987 64.5784 89.6585 61.192 91.2646 58.1431C91.7768 57.118 92.4961 56.2102 93.3769 55.4771C93.6966 55.2063 94.0601 54.9921 94.4518 54.8436C94.8794 54.6625 95.3578 54.6408 95.8 54.7827C96.2422 54.9246 96.6187 55.2206 96.861 55.6168C97.3598 56.325 97.5269 57.1431 97.6316 57.981C97.6265 58.2107 97.662 58.4395 97.7364 58.6569ZM90.6835 73.0944C90.8163 73.0307 90.9273 72.9292 91.0027 72.8026C91.8493 71.7702 92.6171 70.6756 93.2996 69.528C94.7711 67.074 96.0604 64.5401 96.7912 61.7569C97.1428 60.4201 97.3523 59.0659 97.1254 57.6793C97.0506 57.0023 96.8089 56.3544 96.4221 55.7938C96.2348 55.5198 95.9607 55.3169 95.644 55.2178C95.3272 55.1187 94.9863 55.1292 94.6763 55.2477C94.2423 55.4013 93.8449 55.6434 93.5091 55.9584C92.8083 56.5842 92.2269 57.332 91.7933 58.1656C90.0384 61.4075 89.155 65.0493 89.2295 68.735C89.227 69.9775 89.5211 71.2028 90.0874 72.3088C90.247 72.6006 90.3792 72.9348 90.6835 73.0944ZM97.4645 61.1608C97.4346 61.1883 97.3897 61.2107 97.3822 61.2406C96.7263 64.0862 95.4744 66.6824 94.0179 69.1913C93.2118 70.5928 92.2944 71.9272 91.2745 73.1817C91.0252 73.4834 91.0451 73.5433 91.3693 73.7154C91.8825 73.9957 92.4815 74.0757 93.0502 73.9398C94.3371 73.648 95.2948 72.8724 96.1303 71.8923C97.3523 70.4383 98.1753 68.7624 98.8736 67.0116C98.9305 66.8883 98.9483 66.7506 98.9247 66.6168C98.9011 66.4831 98.8371 66.3598 98.7414 66.2634C98.2169 65.6325 97.8578 64.8808 97.6965 64.0763C97.5479 63.3133 97.4835 62.5364 97.5044 61.7594C97.5426 61.5597 97.5289 61.3536 97.4645 61.1608ZM99.0956 65.9916C99.3001 65.8844 99.2901 65.7422 99.325 65.64C99.876 63.9291 100.116 62.1333 100.033 60.3378C100.012 59.6604 99.8776 58.9912 99.6368 58.3576C99.5649 58.1495 99.4521 57.9579 99.3051 57.794C99.0906 57.5795 98.9559 57.577 98.7489 57.794C98.5541 58.0221 98.4119 58.2903 98.3324 58.5796C98.1382 59.1874 98.0308 59.8196 98.0132 60.4575C97.9309 61.7319 97.8511 63.0063 98.1903 64.2608C98.3592 64.898 98.6685 65.4894 99.0956 65.9916Z" fill="#ED8B54"/>
<path d="M96.6215 35.1065C96.5716 36.0218 96.6215 36.9346 97.0679 37.775C97.9159 39.3637 99.1878 39.7153 100.672 39.1866C101.761 38.787 102.716 38.0886 103.427 37.1715C103.819 36.6902 104.176 36.1914 104.53 35.6751C104.607 35.5871 104.647 35.4721 104.641 35.355C104.634 35.2378 104.582 35.128 104.495 35.0491C103.465 33.685 103.38 32.1936 103.996 30.6448C104.178 30.1834 104.495 29.7295 105.064 29.7271C105.632 29.7246 105.984 30.1311 106.216 30.6299C106.472 31.1957 106.535 31.8302 106.395 32.4355C106.231 33.2543 105.958 34.0477 105.585 34.7948C105.383 35.2013 105.378 35.2287 105.797 35.4033C107.004 35.9381 108.352 36.0684 109.64 35.7749C110.07 35.6756 110.463 35.4559 110.772 35.1414C110.968 34.9734 111.177 34.82 111.396 34.6825C111.413 34.6647 111.434 34.6506 111.457 34.641C111.481 34.6313 111.505 34.6264 111.53 34.6264C111.555 34.6264 111.58 34.6313 111.603 34.641C111.626 34.6506 111.647 34.6647 111.665 34.6825C111.701 34.7189 111.72 34.7677 111.72 34.8185C111.72 34.8693 111.701 34.918 111.665 34.9544C111.522 35.1212 111.369 35.2786 111.206 35.4257C110.59 35.9644 109.907 36.3335 109.054 36.3036C108.535 36.2837 108.016 36.2886 107.498 36.2911C106.821 36.2989 106.153 36.1404 105.552 35.8298C105.153 35.6253 105.126 35.6228 104.894 36.0043C104.367 36.8212 103.74 37.5693 103.028 38.2314C102.353 38.9394 101.502 39.4557 100.562 39.7278C98.8885 40.1543 97.5218 39.8101 96.6589 38.1142C96.3194 37.4483 96.124 36.7184 96.0853 35.9719C96.0421 35.0388 96.0939 34.1038 96.2399 33.1812C96.5467 31.0838 97.3398 29.1734 98.3224 27.3329C99.0014 26.0209 99.9064 24.839 100.996 23.8413C101.521 23.3548 102.156 23.0016 102.846 22.8113C103.142 22.7233 103.455 22.7052 103.759 22.7584C104.063 22.8116 104.351 22.9346 104.599 23.1179C104.848 23.3011 105.05 23.5396 105.191 23.8144C105.332 24.0892 105.407 24.393 105.41 24.7017C105.465 25.7916 105.066 26.7144 104.555 27.6271C103.821 28.9778 102.766 30.1278 101.485 30.9765C100.826 31.4302 100.082 31.7458 99.2975 31.9043C99.0348 31.9718 98.758 31.9605 98.5017 31.8718C98.2453 31.7831 98.0208 31.6209 97.856 31.4055C97.815 31.3611 97.7839 31.3085 97.7648 31.2511C97.7456 31.1938 97.7389 31.133 97.745 31.0729C97.7512 31.0127 97.77 30.9546 97.8003 30.9023C97.8306 30.85 97.8717 30.8047 97.9209 30.7695C97.9673 30.716 98.0299 30.6791 98.0991 30.6642C98.1684 30.6494 98.2406 30.6574 98.3049 30.6872C98.4421 30.7571 98.3997 30.8793 98.3648 30.999C98.275 31.2833 98.4695 31.3531 98.6815 31.3756C99.1806 31.4243 99.6836 31.3382 100.138 31.1262C101.063 30.6997 101.899 30.1023 102.602 29.3654C103.436 28.5352 104.118 27.5643 104.615 26.4974C104.909 25.8391 105.01 25.111 104.906 24.3975C104.817 23.5994 103.909 23.0483 103.108 23.2503C102.491 23.4176 101.925 23.7346 101.46 24.173C99.9185 25.5547 98.8411 27.258 98.0156 29.141C97.5287 30.232 97.1438 31.3658 96.8659 32.5278C96.6598 33.3709 96.5775 34.2396 96.6215 35.1065ZM104.178 32.4729C104.178 32.6001 104.163 32.822 104.178 33.039C104.222 33.617 104.426 34.1713 104.767 34.6401C104.874 34.7898 105.029 34.9444 105.166 34.6601C105.65 33.6276 106.091 32.5826 105.971 31.403C105.947 31.0624 105.822 30.7368 105.612 30.4678C105.3 30.0887 104.994 30.0862 104.674 30.4678C104.578 30.5946 104.494 30.7308 104.425 30.8743C104.196 31.374 104.111 31.9274 104.178 32.4729Z" fill="#B8C4D1"/>
<path d="M124.564 92.0085C124.501 91.7988 124.361 91.6207 124.172 91.5097C124.018 91.3875 123.878 91.2603 123.731 91.1207C123.475 90.8905 123.279 90.6008 123.162 90.2772C123.044 89.9536 123.009 89.606 123.057 89.2652C123.185 89.0906 123.307 88.9185 123.441 88.7414C123.672 88.3788 123.999 88.0878 124.386 87.9014C124.773 87.715 125.204 87.6405 125.631 87.6865C126.279 87.742 126.922 87.8479 127.554 88.0032C128.552 88.2526 129.532 88.5644 130.517 88.8512C132.3 89.2477 134.076 89.6717 135.866 90.0308C138.111 90.4797 140.313 91.0583 142.58 91.3576C143.386 91.4648 143.914 90.9311 143.745 90.143C143.616 89.5598 143.434 88.9896 143.201 88.4397C142.73 87.3049 141.999 86.462 140.767 86.0779C140.064 85.8584 139.393 85.5592 138.642 85.5392C138.6 85.5018 138.56 85.437 138.512 85.427C137.462 85.2241 136.399 85.0991 135.33 85.0529C132.591 85.0903 129.877 85.5834 127.3 86.5119C125.978 87.0555 124.624 87.5219 123.287 88.0307C123.114 88.1071 122.926 88.1467 122.737 88.1467C122.548 88.1467 122.36 88.1071 122.187 88.0307C121.84 87.482 122.032 86.9433 122.279 86.4445C122.491 86.0367 122.763 85.6627 123.085 85.3347C124.933 83.4109 127.042 81.7555 129.35 80.4166C131.23 79.2903 133.27 78.4553 135.4 77.9401C136.384 77.7127 137.385 77.57 138.393 77.5137C138.478 77.6259 138.557 77.6184 138.642 77.5137C139.089 77.5635 139.515 77.3765 139.959 77.4064C139.977 77.4387 140.002 77.4656 140.034 77.4844C140.066 77.5032 140.102 77.5131 140.138 77.5131C140.175 77.5131 140.211 77.5032 140.243 77.4844C140.275 77.4656 140.3 77.4387 140.318 77.4064H141.635C141.652 77.4387 141.678 77.4656 141.71 77.4844C141.742 77.5032 141.778 77.5131 141.814 77.5131C141.851 77.5131 141.887 77.5032 141.919 77.4844C141.95 77.4656 141.976 77.4387 141.994 77.4064C144.625 77.6134 147.184 78.0848 149.608 79.2121C151.81 80.2371 153.773 81.6137 155.728 83.0253C157.135 84.0403 158.407 85.2175 159.811 86.235C160.726 86.8984 161.557 87.6815 162.404 88.4347C165.048 90.774 167.552 93.258 169.999 95.7993C171.642 97.5077 173.253 99.246 174.807 101.037C175.657 102.012 176.553 102.957 177.418 103.91C178.914 105.536 180.411 107.152 181.87 108.823C182.67 109.738 183.501 110.623 184.311 111.529C185.475 112.832 186.62 114.156 187.746 115.502C188.424 116.31 189.13 117.095 189.84 117.876C190.91 119.055 192.008 120.21 193.083 121.392C194.08 122.502 194.941 123.727 195.876 124.884C196.751 125.969 197.652 127.031 198.514 128.126C198.819 128.51 199.23 128.829 199.355 129.34C199.011 129.398 198.696 129.193 198.357 129.238C197.469 129.36 196.589 129.488 195.771 129.897C194.953 130.306 194.095 130.727 193.277 131.189C190.995 132.457 188.937 134.094 187.187 136.032C185.732 137.648 184.567 139.505 183.745 141.518C183.314 142.573 182.932 143.633 182.94 144.793C182.62 144.589 182.345 144.324 182.129 144.012C181.75 143.549 181.324 143.13 180.91 142.701C179.296 141.02 177.737 139.291 176.258 137.491C175.64 136.743 174.984 136.014 174.323 135.296C173.542 134.446 172.732 133.623 171.946 132.775C170.325 131.029 168.704 129.266 167.073 127.52C165.796 126.153 164.579 124.734 163.292 123.372C161.846 121.836 160.482 120.225 159.033 118.691C157.843 117.444 156.589 116.232 155.352 115.015C153.738 113.482 152.042 112.037 150.271 110.688C148.258 109.095 146.244 107.505 144.229 105.917C143.024 104.972 141.799 104.049 140.582 103.122C140.497 103.073 140.405 103.034 140.311 103.007C140.061 102.59 139.612 102.363 139.243 102.072C138.106 101.174 136.899 100.368 135.712 99.5378C134.41 98.6275 133.096 97.7321 131.749 96.8892C129.846 95.6971 128.008 94.3952 126.165 93.1308C125.629 92.7492 125.187 92.2454 124.564 92.0085ZM127.14 90.3226C126.778 89.5221 126.105 89.1106 125.304 88.8761C125.059 88.8057 124.797 88.8162 124.557 88.906C124.318 88.9959 124.114 89.1602 123.975 89.3749C123.693 89.8138 123.766 90.2253 124.062 90.6418C124.512 91.2476 125.123 91.7144 125.826 91.9886C126.09 92.3502 126.419 92.1806 126.736 92.0958C126.893 92.0684 127.038 91.9942 127.153 91.883C127.267 91.7718 127.345 91.6286 127.377 91.4723C127.444 91.0758 127.484 90.6543 127.14 90.3226ZM133.834 94.3129C133.717 94.273 133.584 94.2356 133.535 94.3902C133.485 94.5449 133.594 94.6396 133.702 94.7369C133.747 94.7756 133.8 94.8022 133.858 94.8144C133.916 94.8266 133.977 94.824 134.033 94.8067C134.233 94.7527 134.409 94.6315 134.53 94.4635C134.651 94.2954 134.711 94.0908 134.699 93.884C134.681 93.6935 134.591 93.517 134.448 93.3909C134.304 93.2647 134.117 93.1984 133.926 93.2056C133.666 93.211 133.414 93.2953 133.203 93.4471C132.992 93.599 132.832 93.8113 132.744 94.0561C132.665 94.2627 132.651 94.488 132.701 94.7031C132.752 94.9182 132.866 95.1133 133.028 95.2631C133.347 95.5749 133.776 95.5873 134.195 95.5325C134.253 95.5173 134.306 95.4882 134.35 95.4477C134.384 95.4273 134.41 95.3948 134.422 95.3566C134.434 95.3184 134.432 95.2771 134.415 95.2407C134.403 95.2152 134.385 95.1926 134.364 95.1741C134.342 95.1557 134.317 95.1419 134.29 95.1334C134.113 95.1135 133.929 95.1334 133.754 95.0985C133.586 95.0717 133.433 94.9856 133.322 94.8556C133.212 94.7257 133.152 94.5606 133.153 94.3902C133.188 94.2263 133.265 94.0745 133.377 93.9498C133.489 93.8251 133.632 93.7319 133.791 93.6795C133.86 93.662 133.931 93.665 133.998 93.6881C134.064 93.7112 134.123 93.7533 134.165 93.8092C134.207 93.8662 134.231 93.9339 134.235 94.0041C134.239 94.0744 134.222 94.1443 134.188 94.2057C134.174 94.2379 134.153 94.2667 134.127 94.2902C134.101 94.3138 134.07 94.3316 134.037 94.3424C134.003 94.3532 133.968 94.3569 133.933 94.3531C133.898 94.3493 133.864 94.3382 133.834 94.3204V94.3129Z" fill="#FBC998"/>
<path d="M182.94 144.778C182.94 143.618 183.314 142.558 183.745 141.503C184.567 139.49 185.732 137.633 187.187 136.017C188.934 134.077 190.988 132.438 193.267 131.166C194.083 130.705 194.918 130.286 195.761 129.874C196.604 129.463 197.459 129.338 198.347 129.216C198.694 129.171 199.008 129.375 199.345 129.318C199.632 129.525 200.003 129.63 200.195 129.959C200.61 130.664 200.756 131.495 200.604 132.298C200.303 133.977 199.308 135.246 198.15 136.421C195.932 138.717 193.506 140.804 190.905 142.656C189.816 143.419 188.698 144.152 187.581 144.86C186.771 145.369 185.874 145.72 184.935 145.898C184.625 145.979 184.299 145.972 183.993 145.876C183.687 145.78 183.415 145.6 183.207 145.357C183.052 145.177 183.082 144.945 182.94 144.778Z" fill="#EB8146"/>
<path d="M124.564 92.0085C125.187 92.2455 125.629 92.7567 126.165 93.1159C128.016 94.3853 129.846 95.6821 131.749 96.8742C133.096 97.7172 134.41 98.62 135.712 99.5228C136.899 100.353 138.106 101.159 139.243 102.057C139.612 102.348 140.049 102.575 140.311 102.992C139.348 103.315 138.359 103.554 137.355 103.705C136.832 103.807 136.298 103.87 135.769 103.955C135.682 103.852 135.602 103.867 135.52 103.975C135.198 103.987 134.886 104.104 134.56 104.067C133.973 103.915 133.358 103.915 132.771 104.067C132.126 103.999 131.485 103.942 130.921 103.568C130.746 103.454 130.594 103.307 130.476 103.134C130.358 102.962 130.275 102.768 130.232 102.563C130.189 102.358 130.187 102.147 130.226 101.942C130.265 101.736 130.345 101.541 130.46 101.366C130.73 100.904 131.073 100.489 131.475 100.136C131.527 100.111 131.577 100.082 131.624 100.049C131.697 99.9967 131.834 99.9368 131.744 99.8371C131.654 99.7373 131.532 99.8071 131.46 99.9194C130.951 100.062 130.432 100.168 129.908 100.236C129.821 100.131 129.741 100.146 129.659 100.254H128.714C128.641 100.149 128.564 100.129 128.464 100.231C128.195 100.159 127.926 100.091 127.659 100.012C126.736 99.7348 125.826 98.5552 126.434 97.2683C126.579 96.964 126.731 96.6672 126.881 96.368C126.833 96.3396 126.78 96.3229 126.725 96.319C126.67 96.3151 126.615 96.3242 126.564 96.3455C125.883 96.5806 125.154 96.6465 124.442 96.5376C123.981 96.4979 123.546 96.31 123.202 96.0019C122.857 95.6939 122.622 95.2824 122.531 94.8292C122.479 94.4753 122.555 94.1143 122.746 93.8117C123.197 93.046 123.895 92.5447 124.564 92.0085Z" fill="#ECA26D"/>
<path d="M130.517 88.8562C129.519 88.5694 128.552 88.2576 127.554 88.0082C126.922 87.8528 126.279 87.747 125.631 87.6915C125.204 87.6455 124.773 87.72 124.386 87.9064C123.999 88.0928 123.672 88.3838 123.441 88.7464C123.317 88.9235 123.192 89.0956 123.057 89.2702C122.436 89.0931 122.239 88.6192 122.189 88.0406C122.362 88.1171 122.549 88.1565 122.738 88.1565C122.927 88.1565 123.114 88.1171 123.287 88.0406C124.624 87.5419 125.978 87.0655 127.3 86.5218C129.877 85.5934 132.591 85.1003 135.33 85.0629C136.399 85.109 137.462 85.2341 138.512 85.437C138.56 85.437 138.6 85.5118 138.642 85.5492C138.627 85.629 138.61 85.7287 138.522 85.7362C138.151 85.7966 137.785 85.8893 137.43 86.0131C135.15 86.6379 132.938 87.4849 130.824 88.5419C130.686 88.6043 130.509 88.6467 130.517 88.8562Z" fill="#ECA36C"/>
<path d="M132.781 104.059C133.368 103.907 133.983 103.907 134.569 104.059C133.987 104.239 133.364 104.239 132.781 104.059Z" fill="#F4BD9D"/>
<path d="M131.457 99.9194C131.529 99.8071 131.644 99.7323 131.741 99.8371C131.839 99.9418 131.694 99.9967 131.622 100.049C131.574 100.082 131.524 100.111 131.472 100.136L131.457 99.9194Z" fill="#F7D7C0"/>
<path d="M140.318 77.3815C140.301 77.4138 140.275 77.4407 140.243 77.4595C140.211 77.4782 140.175 77.4881 140.139 77.4881C140.102 77.4881 140.066 77.4782 140.034 77.4595C140.003 77.4407 139.977 77.4138 139.959 77.3815C140.076 77.2418 140.186 77.2393 140.318 77.3815Z" fill="#FDE5CE"/>
<path d="M141.994 77.389C141.976 77.4212 141.95 77.4482 141.919 77.4669C141.887 77.4857 141.851 77.4956 141.814 77.4956C141.778 77.4956 141.742 77.4857 141.71 77.4669C141.678 77.4482 141.652 77.4212 141.635 77.389C141.652 77.3567 141.678 77.3298 141.71 77.311C141.742 77.2922 141.778 77.2823 141.814 77.2823C141.851 77.2823 141.887 77.2922 141.919 77.311C141.95 77.3298 141.976 77.3567 141.994 77.389Z" fill="#FDE5CE"/>
<path d="M138.642 77.4987C138.567 77.6134 138.488 77.6209 138.393 77.4987C138.48 77.394 138.56 77.3865 138.642 77.4987Z" fill="#FDE5CE"/>
<path d="M128.464 100.231C128.554 100.129 128.631 100.149 128.714 100.254C128.616 100.368 128.539 100.338 128.464 100.231Z" fill="#F4CDB0"/>
<path d="M129.664 100.254C129.736 100.146 129.816 100.131 129.913 100.236C129.831 100.341 129.754 100.368 129.664 100.254Z" fill="#F4CDB0"/>
<path d="M135.53 103.97C135.602 103.862 135.682 103.847 135.779 103.95C135.697 104.054 135.62 104.069 135.53 103.97Z" fill="#F4CDB0"/>
<path d="M130.517 88.8562C130.517 88.6442 130.686 88.6068 130.824 88.5369C132.942 87.4792 135.159 86.6322 137.443 86.0081C137.798 85.8843 138.163 85.7916 138.535 85.7312C138.622 85.7312 138.64 85.624 138.655 85.5442C139.403 85.5641 140.076 85.8634 140.779 86.0829C142.011 86.467 142.742 87.3099 143.214 88.4447C143.447 88.9946 143.629 89.5648 143.757 90.148C143.927 90.9361 143.398 91.4698 142.593 91.3626C140.326 91.0633 138.103 90.4847 135.879 90.0358C134.076 89.6767 132.3 89.2527 130.517 88.8562Z" fill="#EB8146"/>
<path d="M125.826 91.9985C125.123 91.7244 124.512 91.2576 124.063 90.6518C123.766 90.2353 123.693 89.8238 123.975 89.3849C124.114 89.1702 124.318 89.0058 124.558 88.916C124.797 88.8262 125.059 88.8157 125.305 88.8861C126.105 89.1205 126.778 89.532 127.14 90.3326C126.881 90.3323 126.628 90.4074 126.411 90.5487C126.194 90.6899 126.023 90.8913 125.918 91.1282C125.771 91.39 125.863 91.7068 125.826 91.9985Z" fill="#ECA26C"/>
<path d="M133.834 94.3204C133.865 94.3361 133.898 94.3453 133.933 94.3473C133.967 94.3494 134.001 94.3442 134.034 94.3323C134.066 94.3203 134.096 94.3018 134.121 94.2779C134.145 94.2539 134.165 94.2251 134.178 94.1932C134.212 94.1319 134.229 94.0619 134.225 93.9917C134.221 93.9214 134.197 93.8538 134.156 93.7967C134.113 93.7408 134.055 93.6987 133.988 93.6756C133.922 93.6526 133.85 93.6496 133.781 93.667C133.622 93.7194 133.48 93.8126 133.368 93.9373C133.256 94.062 133.178 94.2139 133.143 94.3778C133.142 94.5482 133.202 94.7133 133.312 94.8432C133.423 94.9731 133.576 95.0593 133.744 95.0861C133.919 95.116 134.103 95.101 134.28 95.121C134.307 95.1294 134.332 95.1432 134.354 95.1617C134.375 95.1801 134.393 95.2028 134.405 95.2282C134.422 95.2646 134.424 95.3059 134.412 95.3442C134.4 95.3824 134.375 95.4148 134.34 95.4352C134.296 95.4757 134.243 95.5048 134.186 95.52C133.764 95.5749 133.338 95.5624 133.018 95.2507C132.856 95.1008 132.742 94.9058 132.691 94.6907C132.641 94.4755 132.656 94.2502 132.734 94.0436C132.822 93.7988 132.982 93.5865 133.193 93.4346C133.404 93.2828 133.656 93.1986 133.916 93.1931C134.111 93.1835 134.302 93.2503 134.448 93.3793C134.594 93.5084 134.685 93.6895 134.699 93.884C134.716 94.0928 134.66 94.3011 134.541 94.4731C134.421 94.6451 134.245 94.7701 134.043 94.8267C133.987 94.8439 133.927 94.8466 133.869 94.8344C133.811 94.8222 133.757 94.7955 133.712 94.7569C133.604 94.6671 133.482 94.5723 133.545 94.4102C133.607 94.2481 133.717 94.2805 133.834 94.3204Z" fill="#EC874D"/>
<path d="M125.826 91.9986C125.863 91.7068 125.771 91.4 125.918 91.1182C126.022 90.8813 126.194 90.68 126.411 90.5387C126.628 90.3975 126.881 90.3224 127.14 90.3226C127.484 90.6543 127.444 91.0708 127.377 91.4823C127.345 91.6386 127.267 91.7818 127.153 91.893C127.038 92.0042 126.893 92.0784 126.736 92.1058C126.419 92.1906 126.09 92.3602 125.826 91.9986Z" fill="#EB8247"/>
<path d="M173.62 69.962C173.36 70.1781 173.065 70.347 172.747 70.4608C170.502 71.4584 168.21 72.2689 165.938 73.1642C162.796 74.4046 159.683 75.7164 156.599 77.0997C151.012 79.6186 145.528 82.337 140.056 85.1003C138.64 85.8136 137.183 86.4395 135.739 87.0955C134.522 87.6466 133.37 88.32 132.198 88.9584C132.067 89.0457 131.917 89.101 131.761 89.12C131.604 89.1391 131.446 89.1213 131.297 89.0682C130.841 88.8986 130.345 88.8537 129.896 88.6542C130.145 88.2576 130.594 88.2352 130.961 88.0506C132.824 87.1029 134.727 86.235 136.615 85.3347C137.637 84.8359 138.635 84.3047 139.635 83.766C140.371 83.372 141.098 82.9563 141.814 82.5191C143.416 81.5539 145.014 80.5813 146.698 79.7757C147.895 79.1971 149.109 78.6435 150.331 78.1097C152.481 77.1704 154.656 76.295 156.855 75.4836C159.317 74.5733 161.746 73.5832 164.185 72.6231C166.515 71.7053 168.829 70.7501 171.146 69.7999C171.532 69.6428 171.894 69.4358 172.271 69.2437C172.428 69.1639 172.66 69.0417 172.57 68.8647C172.458 68.6452 172.256 68.8497 172.111 68.917C171.966 68.9844 171.812 69.124 171.65 69.1889C169.531 70.0485 167.412 70.9031 165.29 71.7527C163.852 72.3263 162.41 72.8949 160.966 73.4585C159.132 74.1743 157.304 74.8975 155.461 75.5809C153.279 76.3939 151.142 77.3092 149.019 78.2544C147.498 78.9009 146.016 79.6362 144.58 80.4566C143.194 81.2762 141.799 82.0809 140.395 82.8707C139.375 83.4468 138.358 84.0379 137.3 84.5417C136.151 85.0903 135.016 85.6714 133.854 86.1926C132.475 86.8136 131.125 87.5045 129.764 88.1629C129.654 88.2085 129.542 88.2469 129.427 88.2776C129.357 88.2972 129.283 88.3003 129.211 88.2866C129.139 88.2728 129.071 88.2427 129.013 88.1985C128.955 88.1543 128.908 88.0973 128.875 88.0318C128.843 87.9664 128.826 87.8943 128.826 87.8212C128.795 87.6531 128.756 87.4866 128.709 87.3224C130.121 86.5116 131.574 85.7725 133.061 85.1078C134.896 84.2349 136.724 83.347 138.517 82.3969C140.627 81.2821 142.71 80.1149 144.862 79.0874C147.014 78.0599 149.271 77.0648 151.476 76.0572C153.284 75.2317 155.097 74.4137 156.9 73.5782C159.03 72.5807 161.16 71.6105 163.312 70.6753C165.081 69.9046 166.864 69.1789 168.684 68.5454C169.717 68.1863 170.752 67.8347 171.759 67.4107C171.886 67.3541 172.024 67.326 172.163 67.3284C172.465 68.0142 172.764 68.7026 173.066 69.3884C173.109 69.5197 173.181 69.6396 173.277 69.739C173.373 69.8384 173.49 69.9147 173.62 69.962Z" fill="#323E4C"/>
<path d="M127.033 87.8411C126.477 87.8411 125.943 87.6366 125.365 87.6167C125.691 87.4471 126.013 87.27 126.342 87.1054C132.036 84.2399 137.734 81.3818 143.533 78.7332C150.551 75.5277 157.555 72.2939 164.544 69.0318C166.702 68.0217 168.874 67.0366 171.071 66.1288C171.218 66.0689 171.37 66.0241 171.523 65.9717L171.772 66.034L172.021 66.9693C171.548 66.9942 171.173 67.2935 170.742 67.4381C169.345 67.902 167.954 68.3808 166.577 68.8971C164.956 69.5031 163.372 70.1964 161.791 70.8922C160.774 71.3461 159.766 71.8225 158.754 72.2839C157.07 73.052 155.382 73.8102 153.701 74.5783C152.596 75.0771 151.504 75.6133 150.391 76.1021C148.443 76.96 146.51 77.8504 144.593 78.7731C142.69 79.6909 140.839 80.7084 138.969 81.6861C136.692 82.8807 134.38 84.0079 132.073 85.1477C130.577 85.8959 129.103 86.6914 127.562 87.3523C127.352 87.4521 127.035 87.487 127.033 87.8411Z" fill="#36424F"/>
<path d="M127.033 87.8411C127.033 87.487 127.352 87.4521 127.567 87.3598C129.108 86.6989 130.577 85.8958 132.078 85.1551C134.385 84.0154 136.697 82.8881 138.974 81.6935C140.844 80.7159 142.695 79.6984 144.598 78.7806C146.501 77.8628 148.449 76.9675 150.396 76.1096C151.509 75.6108 152.601 75.0895 153.706 74.5858C155.387 73.8176 157.075 73.0595 158.759 72.2913C159.771 71.83 160.779 71.3536 161.796 70.8997C163.377 70.1964 164.961 69.5031 166.582 68.9045C167.959 68.3883 169.35 67.907 170.747 67.4456C171.178 67.3009 171.552 67.0017 172.026 66.9767C172.072 67.0245 172.107 67.0809 172.131 67.1425C172.154 67.2042 172.166 67.2699 172.163 67.3358C172.024 67.3335 171.887 67.3616 171.759 67.4181C170.762 67.8421 169.717 68.1938 168.684 68.5529C166.864 69.1889 165.081 69.9121 163.312 70.6827C161.16 71.618 159.03 72.5981 156.901 73.5857C155.097 74.4212 153.284 75.2392 151.476 76.0647C149.272 77.0623 147.052 78.0598 144.862 79.0948C142.673 80.1298 140.622 81.2895 138.518 82.4043C136.724 83.3545 134.896 84.2423 133.061 85.1152C131.576 85.7776 130.125 86.5143 128.714 87.3224C128.426 87.3854 128.153 87.504 127.911 87.6715C127.661 87.8249 127.362 87.8767 127.075 87.8162L127.033 87.8411Z" fill="#404D5C"/>
<path d="M129.427 88.2801C129.542 88.2493 129.654 88.211 129.764 88.1653C131.125 87.5069 132.475 86.8161 133.854 86.1951C135.016 85.6739 136.151 85.0928 137.3 84.5441C138.358 84.0453 139.375 83.4493 140.395 82.8732C141.797 82.0834 143.192 81.2787 144.58 80.459C146.016 79.6387 147.498 78.9034 149.019 78.2569C151.142 77.3117 153.279 76.3964 155.461 75.5834C157.304 74.9 159.132 74.1768 160.966 73.461C162.409 72.9007 163.85 72.3321 165.29 71.7551C167.412 70.9055 169.531 70.0509 171.65 69.1914C171.812 69.1265 171.949 68.9943 172.111 68.9195C172.273 68.8447 172.458 68.6477 172.57 68.8671C172.66 69.0442 172.428 69.1664 172.271 69.2462C171.899 69.4383 171.522 69.6453 171.146 69.8024C168.829 70.7526 166.515 71.7078 164.185 72.6255C161.746 73.5857 159.317 74.5758 156.856 75.4861C154.656 76.2991 152.481 77.1745 150.331 78.1122C149.109 78.6459 147.895 79.1996 146.698 79.7782C145.014 80.5912 143.416 81.5639 141.814 82.5215C141.098 82.9522 140.371 83.3678 139.635 83.7685C138.637 84.3072 137.64 84.8484 136.615 85.3372C134.727 86.2375 132.824 87.1054 130.961 88.0531C130.594 88.2377 130.138 88.2601 129.896 88.6567L129.542 88.5045L129.427 88.2801Z" fill="#404D5C"/>
<path d="M178.391 67.9319C177.419 68.4008 176.42 68.8089 175.398 69.154C175.417 69.0158 175.389 68.8753 175.318 68.7549C174.64 67.7574 174.296 66.6201 173.996 65.4704C173.972 65.2765 173.884 65.0961 173.747 64.9566C173.905 64.8382 174.086 64.7533 174.278 64.7073C175.194 64.403 176.081 64.0289 176.967 63.6498C176.772 64.0339 176.52 64.398 176.608 64.8694C176.847 66.1064 177.254 67.2311 178.391 67.9319Z" fill="#EB8248"/>
<path d="M121.162 93.884C120.473 94.1316 119.771 94.3422 119.06 94.515C118.576 94.6343 118.077 94.6747 117.581 94.6347C116.748 94.5773 116.351 93.8441 116.715 93.1632C116.946 92.7428 117.265 92.3777 117.651 92.0933C118.248 91.632 118.892 91.2334 119.571 90.9037C120.257 90.9461 120.319 90.9486 120.319 91.3875C120.319 91.8265 120.928 91.7641 120.915 92.1756C120.906 92.2534 120.887 92.3297 120.858 92.4026C120.833 92.4512 120.818 92.5045 120.814 92.5591C120.81 92.6137 120.818 92.6685 120.836 92.7202C120.854 92.7718 120.883 92.8191 120.92 92.8593C120.957 92.8995 121.002 92.9316 121.052 92.9537C121.394 93.1258 121.456 93.3478 121.202 93.6521C121.152 93.6945 121.172 93.7967 121.162 93.884Z" fill="#34404E"/>
<path d="M173.749 64.9541C173.886 65.0936 173.974 65.274 173.999 65.4679C174.298 66.6176 174.642 67.7524 175.321 68.7524C175.391 68.8728 175.419 69.0133 175.4 69.1515C175.39 69.2001 175.368 69.2454 175.336 69.2833C175.303 69.3212 175.262 69.3505 175.216 69.3684C174.702 69.6178 174.218 69.9196 173.612 69.9595C173.483 69.9122 173.365 69.8359 173.269 69.7365C173.173 69.6372 173.101 69.5172 173.059 69.3859C172.757 68.7001 172.458 68.0117 172.156 67.3259C172.158 67.2599 172.147 67.1942 172.123 67.1326C172.1 67.0709 172.064 67.0146 172.019 66.9668L171.769 66.0315L171.792 65.8495C172.138 65.4155 172.702 65.3507 173.128 65.0639C173.313 64.9468 173.536 64.9074 173.749 64.9541Z" fill="#B2BECB"/>
<path d="M178.391 67.9319C177.254 67.2311 176.84 66.1064 176.61 64.8768C176.523 64.413 176.775 64.0414 176.969 63.6573C177.837 63.2832 177.932 63.4079 178.351 63.9291C178.991 64.6781 179.344 65.6299 179.348 66.6151C179.341 67.3683 179.129 67.6601 178.391 67.9319Z" fill="#FBC898"/>
<path d="M121.162 93.884C121.162 93.8067 121.162 93.7044 121.195 93.652C121.444 93.3478 121.387 93.1258 121.045 92.9537C120.995 92.9316 120.95 92.8995 120.913 92.8593C120.875 92.8191 120.847 92.7718 120.829 92.7201C120.81 92.6685 120.803 92.6137 120.807 92.5591C120.81 92.5045 120.825 92.4512 120.85 92.4026C120.879 92.3297 120.898 92.2534 120.908 92.1756C120.908 91.7641 120.304 91.8539 120.312 91.3875C120.319 90.9212 120.257 90.9461 119.563 90.9037C119.724 90.7216 119.941 90.5986 120.179 90.5546C120.233 90.5795 120.284 90.6095 120.332 90.6443C120.795 91.0484 120.781 91.0234 121.302 90.7217C121.823 90.4199 122.342 89.9934 122.97 89.8438C123.033 89.9537 123.062 90.0792 123.055 90.2054C122.307 90.5371 121.663 91.0134 120.925 91.4524C121.146 91.6721 121.302 91.9481 121.377 92.2504C121.688 92.0983 121.95 91.9562 122.222 91.8439C122.721 91.6344 123.22 91.3451 123.783 91.2978C123.803 91.3758 123.794 91.4584 123.758 91.5303C123.722 91.6023 123.661 91.6587 123.586 91.6893C123.352 91.7916 123.12 91.9063 122.885 92.0085C122.521 92.1657 122.155 92.3153 121.791 92.4724C121.579 92.5672 121.459 92.6944 121.643 92.9263C121.828 93.1582 121.728 93.4251 121.751 93.6745C121.588 93.8169 121.378 93.8919 121.162 93.884Z" fill="#465361"/>
<path d="M121.763 93.657C121.741 93.4076 121.836 93.1333 121.656 92.9089C121.476 92.6844 121.591 92.5497 121.803 92.455C122.167 92.2978 122.534 92.1482 122.898 91.9911C123.132 91.8888 123.364 91.7741 123.599 91.6719C123.673 91.6413 123.734 91.5848 123.77 91.5129C123.807 91.441 123.816 91.3584 123.796 91.2803L125.023 92.218C124.664 92.5323 122.564 93.45 121.763 93.657Z" fill="#384452"/>
<path d="M123.791 91.2753C123.225 91.3227 122.741 91.612 122.229 91.8215C121.958 91.9337 121.696 92.0709 121.384 92.228C121.309 91.9257 121.153 91.6496 120.933 91.4299C121.681 91.0035 122.322 90.5271 123.062 90.183C123.279 90.5638 123.523 90.9288 123.791 91.2753Z" fill="#36424F"/>
<path d="M122.978 89.8338C122.349 89.9835 121.853 90.3974 121.309 90.7117C120.766 91.0259 120.81 91.0384 120.339 90.6344C120.291 90.5996 120.241 90.5695 120.187 90.5446C121.09 89.9286 122.107 89.5121 123.01 88.9011C123.12 88.8263 123.23 89.0158 123.322 88.8786C123.115 89.1604 123.117 89.5246 122.978 89.8338Z" fill="#3A4654"/>
<path d="M129.427 88.2801L129.542 88.502C128.706 88.3185 127.881 88.0895 127.07 87.8162C127.357 87.8767 127.656 87.8249 127.906 87.6715C128.148 87.504 128.421 87.3854 128.709 87.3224C128.756 87.4866 128.795 87.653 128.826 87.8212C128.826 87.8945 128.842 87.9668 128.875 88.0326C128.907 88.0984 128.954 88.1558 129.012 88.2002C129.071 88.2447 129.138 88.2751 129.21 88.2889C129.282 88.3028 129.357 88.2997 129.427 88.2801Z" fill="#36424F"/>
<path d="M171.794 65.852L171.772 66.034L171.522 65.9717C171.582 65.8619 171.69 65.8569 171.794 65.852Z" fill="#767F8A"/>
<path d="M123.322 88.8786L123.334 88.8636L123.324 88.8786H123.322Z" fill="#3A4654"/>
<path d="M75.1686 75.8726C73.3181 77.1421 71.4875 78.4364 69.5846 79.631C68.2379 80.474 66.9236 81.3768 65.6217 82.2796C64.4346 83.1076 63.2275 83.9132 62.0903 84.8135C61.7212 85.1053 61.2847 85.3297 61.0229 85.7462C60.928 85.7736 60.8368 85.8121 60.751 85.8609C59.534 86.7912 58.3095 87.7139 57.1049 88.6566C55.0848 90.2395 53.0705 91.8298 51.062 93.4276C49.2913 94.7774 47.5954 96.2227 45.9818 97.7571C44.7349 98.9741 43.4879 100.174 42.3008 101.433C40.8518 102.967 39.4876 104.578 38.0411 106.112C36.7567 107.474 35.5471 108.895 34.2603 110.259C32.6267 112.005 31.0181 113.751 29.3871 115.517C28.6015 116.364 27.791 117.187 27.0103 118.038C26.3495 118.756 25.6935 119.479 25.075 120.233C23.5961 122.033 22.0374 123.759 20.4238 125.44C20.0098 125.871 19.5834 126.288 19.2043 126.754C18.9874 127.065 18.7121 127.33 18.3937 127.535C18.3937 126.375 18.0197 125.313 17.5882 124.26C16.7665 122.246 15.6021 120.39 14.1465 118.774C12.3992 116.835 10.3451 115.196 8.06629 113.923C7.25076 113.461 6.41529 113.045 5.57234 112.631C4.7513 112.274 3.87793 112.053 2.98611 111.975C2.63945 111.928 2.32521 112.132 1.98853 112.075C2.11322 111.576 2.52473 111.244 2.82899 110.86C3.6919 109.768 4.59221 108.706 5.46759 107.618C6.40282 106.456 7.26074 105.229 8.26082 104.127C9.33072 102.945 10.4281 101.787 11.503 100.61C12.2137 99.8296 12.9195 99.044 13.5979 98.2359C14.7235 96.8942 15.8682 95.5691 17.032 94.2606C17.8426 93.3553 18.6731 92.4699 19.4736 91.5571C20.9276 89.8937 22.429 88.2701 23.9253 86.644C24.8007 85.6888 25.6861 84.7461 26.5365 83.7685C28.0902 81.9803 29.7013 80.2421 31.3448 78.5312C33.7914 75.9899 36.2953 73.5059 38.9389 71.1641C39.7869 70.4159 40.6174 69.6278 41.5326 68.9644C42.9367 67.9469 44.2086 66.7697 45.6152 65.7547C47.5705 64.3456 49.5332 62.9664 51.7354 61.9439C54.1595 60.8167 56.7233 60.3453 59.3494 60.1383C59.367 60.1706 59.393 60.1975 59.4246 60.2163C59.4562 60.235 59.4922 60.2449 59.529 60.2449C59.5657 60.2449 59.6018 60.235 59.6334 60.2163C59.665 60.1975 59.691 60.1706 59.7086 60.1383H61.0254C61.1401 60.2854 61.2598 60.2854 61.3845 60.1383C61.8284 60.1084 62.2549 60.2954 62.7013 60.2455C62.7761 60.3628 62.8559 60.3677 62.9507 60.2455C63.9584 60.3044 64.9594 60.447 65.9434 60.672C68.0742 61.1869 70.1143 62.0228 71.9938 63.151C74.3034 64.4929 76.4124 66.1536 78.2586 68.084C78.5805 68.4111 78.852 68.7843 79.0641 69.1913C79.3135 69.6901 79.5031 70.2288 79.1564 70.78C78.983 70.8559 78.7958 70.8951 78.6065 70.8951C78.4172 70.8951 78.23 70.8559 78.0566 70.78C76.7198 70.2812 75.3656 69.8024 74.0438 69.2612C72.6939 68.7396 71.2891 68.3731 69.8565 68.1688C68.5908 67.9203 67.303 67.8017 66.0133 67.8147C64.9446 67.8596 63.8809 67.9847 62.831 68.1888C62.7836 68.1888 62.7437 68.2611 62.7013 68.301C61.9531 68.3185 61.2798 68.6202 60.5765 68.8372C59.3444 69.2238 58.6137 70.0667 58.1424 71.2015C57.9094 71.7506 57.7274 72.3199 57.5987 72.9024C57.4291 73.6929 57.9578 74.2241 58.7633 74.1194C61.0304 73.8201 63.24 73.2415 65.4771 72.7926C67.2677 72.4335 69.0434 72.007 70.8266 71.613C71.8117 71.3262 72.7918 71.0119 73.7894 70.7625C74.4214 70.6084 75.0642 70.5025 75.7123 70.4458C76.1393 70.4004 76.5704 70.4751 76.9573 70.6615C77.3441 70.8479 77.6713 71.1385 77.9019 71.5008C78.0266 71.6778 78.1513 71.8524 78.286 72.027C78.3344 72.3678 78.2984 72.7152 78.1809 73.0388C78.0635 73.3623 77.8684 73.6521 77.6126 73.8825C77.4655 74.0122 77.3258 74.1493 77.1712 74.269C76.9829 74.3805 76.8433 74.5585 76.7797 74.7678C76.1462 74.9998 75.7048 75.5035 75.1686 75.8726ZM73.9565 74.2391C73.9877 74.3954 74.0658 74.5385 74.1802 74.6495C74.2947 74.7604 74.4402 74.8338 74.5975 74.8601C74.9142 74.9449 75.2434 75.1095 75.5078 74.7529C76.2098 74.4788 76.8208 74.013 77.271 73.4086C77.5678 72.9896 77.6401 72.5781 77.3583 72.1392C77.2186 71.9254 77.0144 71.7617 76.7753 71.672C76.5363 71.5823 76.2748 71.5712 76.029 71.6404C75.2284 71.8748 74.5551 72.2888 74.1934 73.0869C73.8468 73.4086 73.8892 73.8301 73.9565 74.2391ZM67.1555 76.95C67.1208 76.8883 67.1045 76.8179 67.1085 76.7472C67.1125 76.6765 67.1366 76.6085 67.1779 76.551C67.2206 76.495 67.279 76.453 67.3456 76.4304C67.4122 76.4077 67.4841 76.4054 67.552 76.4238C67.7112 76.4762 67.8539 76.5695 67.966 76.6941C68.078 76.8188 68.1554 76.9707 68.1905 77.1346C68.1909 77.3048 68.1306 77.4697 68.0205 77.5995C67.9103 77.7293 67.7575 77.8156 67.5894 77.8429C67.4149 77.8728 67.2303 77.8553 67.0533 77.8753C66.9992 77.8933 66.9544 77.9318 66.9286 77.9825C66.9119 78.0189 66.9093 78.0603 66.9212 78.0985C66.9332 78.1367 66.9589 78.1691 66.9934 78.1895C67.0366 78.2309 67.0899 78.2602 67.148 78.2743C67.5695 78.3292 67.996 78.3167 68.3152 78.005C68.4794 77.8569 68.5953 77.6628 68.6478 77.448C68.7002 77.2332 68.6869 77.0075 68.6095 76.8004C68.5215 76.5556 68.3615 76.3431 68.1505 76.1908C67.9395 76.0386 67.6874 75.9538 67.4273 75.9475C67.2371 75.9438 67.0524 76.0113 66.9093 76.1368C66.7663 76.2623 66.6753 76.4367 66.6542 76.6258C66.637 76.835 66.6931 77.0436 66.8127 77.216C66.9324 77.3884 67.1082 77.5139 67.3101 77.571C67.3671 77.5873 67.4272 77.5892 67.4851 77.5765C67.5429 77.5639 67.5968 77.5372 67.6418 77.4987C67.7491 77.4114 67.8713 77.3166 67.8089 77.152C67.7466 76.9874 67.6269 77.0348 67.5096 77.0772C67.4785 77.0946 67.444 77.1052 67.4085 77.1081C67.3729 77.111 67.3372 77.1063 67.3036 77.0943C67.27 77.0822 67.2395 77.0631 67.2139 77.0382C67.1884 77.0133 67.1684 76.9833 67.1555 76.95Z" fill="#FBC998"/>
<path d="M18.3938 127.535C18.3938 126.375 18.0197 125.313 17.5883 124.26C16.7666 122.246 15.6022 120.39 14.1466 118.774C12.3993 116.834 10.3452 115.196 8.06637 113.923C7.25085 113.461 6.41537 113.045 5.57242 112.631C4.75138 112.274 3.87801 112.053 2.98619 111.975C2.63953 111.928 2.32529 112.132 1.98861 112.075C1.7018 112.284 1.3302 112.389 1.13817 112.716C0.723306 113.42 0.57799 114.252 0.729162 115.055C1.03093 116.734 2.02602 118.005 3.18321 119.18C5.40253 121.475 7.82766 123.563 10.4281 125.415C11.518 126.178 12.6353 126.911 13.7526 127.62C14.5619 128.129 15.4594 128.481 16.3987 128.66C16.7088 128.74 17.0351 128.731 17.3407 128.635C17.6462 128.539 17.9187 128.359 18.127 128.116C18.2816 127.934 18.2492 127.699 18.3938 127.535Z" fill="#EB8146"/>
<path d="M76.7698 74.7628C76.1463 74.9997 75.7048 75.511 75.1686 75.8726C73.3181 77.1421 71.4876 78.4364 69.5847 79.631C68.238 80.474 66.9236 81.3768 65.6218 82.2796C64.4347 83.1076 63.2276 83.9131 62.0904 84.8135C61.7213 85.1052 61.2848 85.3297 61.0229 85.7462C61.9857 86.069 62.9745 86.3085 63.9783 86.462C64.502 86.5617 65.0357 86.6241 65.5644 86.7113C65.6517 86.6116 65.7315 86.6241 65.8138 86.7313C66.1356 86.7313 66.4473 86.861 66.774 86.8236C67.3602 86.6702 67.976 86.6702 68.5622 86.8236C69.2081 86.7562 69.8491 86.6964 70.4127 86.3123C70.765 86.0853 71.013 85.7279 71.1023 85.3184C71.1916 84.9089 71.1149 84.4807 70.889 84.1276C70.6186 83.6669 70.2759 83.2526 69.874 82.9006C69.8224 82.8745 69.7725 82.8453 69.7244 82.8133C69.652 82.7584 69.5149 82.6986 69.6046 82.6013C69.6944 82.5041 69.8166 82.5689 69.889 82.6811C70.3974 82.8254 70.9159 82.9312 71.4402 82.9979C71.5275 82.8931 71.6073 82.9081 71.6896 83.0178H72.6448C72.7171 82.9106 72.7944 82.8906 72.8942 82.9954C73.1635 82.9205 73.4329 82.8532 73.6997 82.7734C74.6225 82.4966 75.5328 81.3169 74.9242 80.0301C74.7796 79.7283 74.6275 79.4315 74.4778 79.1322C74.525 79.1037 74.5782 79.0866 74.6332 79.0822C74.6882 79.0779 74.7435 79.0865 74.7946 79.1073C75.4755 79.3444 76.2042 79.4112 76.9169 79.3018C77.3777 79.2621 77.8131 79.0737 78.1576 78.7652C78.5021 78.4567 78.7371 78.0446 78.8273 77.591C78.8797 77.2371 78.8036 76.8761 78.6128 76.5734C78.1364 75.8028 77.4381 75.299 76.7698 74.7628Z" fill="#ECA26D"/>
<path d="M70.8167 71.613C71.8018 71.3262 72.782 71.0119 73.7796 70.7625C74.4115 70.6084 75.0543 70.5025 75.7024 70.4458C76.1294 70.4004 76.5606 70.4751 76.9474 70.6615C77.3343 70.8479 77.6614 71.1385 77.8921 71.5007C78.0168 71.6778 78.1415 71.8524 78.2761 72.027C78.8971 71.8499 79.0942 71.376 79.144 70.7975C78.9711 70.8733 78.7842 70.9124 78.5954 70.9124C78.4065 70.9124 78.2197 70.8733 78.0467 70.7975C76.7099 70.2987 75.3557 69.8198 74.0339 69.2786C72.688 68.7518 71.2865 68.3795 69.8566 68.1688C68.5909 67.9203 67.3032 67.8017 66.0134 67.8147C64.9448 67.8596 63.881 67.9847 62.8311 68.1888C62.7837 68.1888 62.7438 68.2611 62.7014 68.301C62.7164 68.3783 62.7338 68.4806 62.8211 68.4856C63.1929 68.5456 63.5585 68.6391 63.9135 68.7649C66.1934 69.3886 68.4063 70.2357 70.52 71.2938C70.6471 71.3586 70.8242 71.401 70.8167 71.613Z" fill="#ECA36C"/>
<path d="M68.5521 86.8161C67.9659 86.6627 67.3501 86.6627 66.7639 86.8161C67.3464 86.9957 67.9695 86.9957 68.5521 86.8161Z" fill="#F4BD9D"/>
<path d="M69.8789 82.6737C69.8066 82.5614 69.6919 82.4891 69.5946 82.5939C69.4973 82.6986 69.642 82.751 69.7143 82.8058C69.7624 82.8379 69.8124 82.867 69.8639 82.8931L69.8789 82.6737Z" fill="#F7D7C0"/>
<path d="M61.0154 60.1358C61.1301 60.2829 61.2498 60.2829 61.3745 60.1358C61.3569 60.1035 61.331 60.0766 61.2994 60.0578C61.2678 60.0391 61.2317 60.0292 61.1949 60.0292C61.1582 60.0292 61.1221 60.0391 61.0905 60.0578C61.0589 60.0766 61.033 60.1035 61.0154 60.1358Z" fill="#FDE5CE"/>
<path d="M59.3396 60.1458C59.3572 60.178 59.3832 60.205 59.4148 60.2237C59.4463 60.2425 59.4824 60.2524 59.5192 60.2524C59.5559 60.2524 59.592 60.2425 59.6236 60.2237C59.6552 60.205 59.6811 60.178 59.6987 60.1458C59.574 59.9961 59.4543 59.9961 59.3396 60.1458Z" fill="#FDE5CE"/>
<path d="M62.6914 60.253C62.7662 60.3702 62.846 60.3752 62.9408 60.253C62.8535 60.1483 62.7737 60.1408 62.6914 60.253Z" fill="#FDE5CE"/>
<path d="M72.8641 82.9879C72.7744 82.8831 72.697 82.9031 72.6147 83.0103C72.717 83.1126 72.7943 83.0951 72.8641 82.9879Z" fill="#F4CDB0"/>
<path d="M71.6696 83.0103C71.5972 82.9006 71.5174 82.8856 71.4202 82.9904C71.5025 83.0951 71.5798 83.1101 71.6696 83.0103Z" fill="#F4CDB0"/>
<path d="M65.8038 86.7238C65.7315 86.6166 65.6517 86.6041 65.5544 86.7039C65.6367 86.8086 65.7141 86.8236 65.8038 86.7238Z" fill="#F4CDB0"/>
<path d="M70.8167 71.613C70.8167 71.401 70.6471 71.3636 70.51 71.2937C68.3963 70.2357 66.1834 69.3886 63.9035 68.7649C63.5485 68.6391 63.1829 68.5456 62.8112 68.4855C62.7239 68.4855 62.7064 68.3783 62.6914 68.301C61.9433 68.3185 61.2699 68.6202 60.5666 68.8372C59.3346 69.2238 58.6039 70.0667 58.1325 71.2015C57.8995 71.7505 57.7175 72.3199 57.5888 72.9023C57.4192 73.6929 57.9479 74.2241 58.7535 74.1194C61.0205 73.8201 63.2301 73.2415 65.4672 72.7926C67.2579 72.436 69.0336 72.007 70.8167 71.613Z" fill="#EB8146"/>
<path d="M75.5079 74.7528C76.21 74.4788 76.8209 74.013 77.2711 73.4086C77.5679 72.9896 77.6402 72.5781 77.3584 72.1392C77.2188 71.9254 77.0146 71.7617 76.7755 71.672C76.5364 71.5823 76.275 71.5712 76.0292 71.6404C75.2286 71.8748 74.5552 72.2888 74.1936 73.0869C74.4529 73.0865 74.7066 73.1618 74.9237 73.3036C75.1408 73.4454 75.3117 73.6474 75.4156 73.8849C75.5628 74.1543 75.4705 74.4611 75.5079 74.7528Z" fill="#ECA26C"/>
<path d="M67.4998 77.0772C67.4691 77.0929 67.4355 77.1021 67.4011 77.1041C67.3667 77.1062 67.3322 77.1011 67.2999 77.0891C67.2675 77.0771 67.238 77.0586 67.2132 77.0347C67.1884 77.0107 67.1688 76.9819 67.1557 76.95C67.121 76.8883 67.1047 76.8179 67.1087 76.7472C67.1127 76.6766 67.1368 76.6085 67.1781 76.551C67.2208 76.495 67.2792 76.453 67.3458 76.4304C67.4124 76.4077 67.4843 76.4054 67.5522 76.4238C67.7114 76.4763 67.8541 76.5695 67.9661 76.6942C68.0781 76.8188 68.1556 76.9707 68.1907 77.1346C68.1911 77.3048 68.1308 77.4697 68.0207 77.5995C67.9105 77.7293 67.7577 77.8156 67.5896 77.8429C67.4151 77.8728 67.2305 77.8553 67.0534 77.8753C66.9994 77.8933 66.9546 77.9318 66.9287 77.9825C66.9121 78.019 66.9095 78.0603 66.9214 78.0985C66.9334 78.1367 66.9591 78.1691 66.9936 78.1895C67.0367 78.2309 67.0901 78.2602 67.1482 78.2743C67.5697 78.3292 67.9961 78.3167 68.3154 78.005C68.4796 77.8569 68.5955 77.6628 68.6479 77.448C68.7004 77.2332 68.6871 77.0075 68.6097 76.8004C68.5217 76.5556 68.3617 76.3431 68.1507 76.1909C67.9397 76.0386 67.6876 75.9538 67.4275 75.9475C67.2373 75.9438 67.0525 76.0113 66.9095 76.1368C66.7665 76.2623 66.6755 76.4367 66.6544 76.6258C66.6372 76.835 66.6933 77.0436 66.8129 77.216C66.9325 77.3884 67.1084 77.5139 67.3103 77.571C67.3673 77.5873 67.4274 77.5892 67.4852 77.5765C67.5431 77.5639 67.597 77.5372 67.642 77.4987C67.7492 77.4114 67.8715 77.3167 67.8091 77.1521C67.7468 76.9874 67.6121 77.0348 67.4998 77.0772Z" fill="#EC874D"/>
<path d="M75.5078 74.7528C75.4704 74.4611 75.5627 74.1543 75.4155 73.875C75.3116 73.6374 75.1406 73.4354 74.9236 73.2936C74.7065 73.1519 74.4528 73.0765 74.1935 73.0769C73.8493 73.4086 73.8892 73.8251 73.9566 74.2391C73.9878 74.3954 74.0658 74.5385 74.1803 74.6494C74.2948 74.7604 74.4403 74.8338 74.5975 74.8601C74.9142 74.9449 75.2434 75.1145 75.5078 74.7528Z" fill="#EB8247"/>
<path d="M27.7087 52.7188C27.9681 52.9351 28.2636 53.1039 28.5816 53.2176C30.8262 54.2152 33.1181 55.0257 35.3901 55.9235C38.5325 57.1622 41.6458 58.474 44.73 59.859C50.3164 62.3754 55.8006 65.0963 61.2723 67.8596C62.6889 68.5729 64.1454 69.1963 65.5894 69.8547C66.8064 70.4034 67.9586 71.0768 69.1308 71.7177C69.2621 71.8045 69.4119 71.8594 69.5682 71.878C69.7246 71.8967 69.8831 71.8785 70.0311 71.825C70.4875 71.6554 70.9838 71.613 71.4327 71.4135C71.1833 71.0144 70.7344 70.992 70.3678 70.8074C68.5048 69.8622 66.6019 68.9918 64.7165 68.0915C63.6915 67.6052 62.6939 67.0615 61.6938 66.5253C60.9456 66.1288 60.2299 65.7198 59.5141 65.2783C57.913 64.3132 56.3144 63.3405 54.631 62.535C53.4339 61.9564 52.2193 61.4052 50.9973 60.8715C48.8475 59.9321 46.6728 59.0568 44.4731 58.2454C42.0116 57.3326 39.5824 56.345 37.1434 55.3823C34.814 54.4671 32.4996 53.5094 30.1827 52.5592C29.7962 52.4021 29.4346 52.1976 29.058 52.003C28.9009 51.9232 28.6689 51.8035 28.7587 51.6265C28.8709 51.4045 29.0729 51.6115 29.2176 51.6788C29.3622 51.7462 29.5169 51.8833 29.679 51.9507C31.7972 52.8086 33.917 53.6623 36.0385 54.512C37.4784 55.0889 38.9199 55.6583 40.3631 56.2203C42.1961 56.9336 44.0242 57.6568 45.8672 58.3427C48.0494 59.1532 50.1867 60.071 52.3116 61.0137C53.8337 61.6581 55.3168 62.3909 56.7533 63.2084C58.1399 64.0314 59.5366 64.8319 60.9382 65.6225C61.9582 66.2011 62.9757 66.7922 64.0332 67.296C65.1829 67.8421 66.3176 68.4257 67.4798 68.9469C68.859 69.5654 70.2082 70.2588 71.5724 70.9172C71.6814 70.9613 71.793 70.9987 71.9066 71.0294C71.9768 71.0495 72.0507 71.053 72.1225 71.0396C72.1943 71.0263 72.262 70.9964 72.3203 70.9524C72.3786 70.9084 72.4259 70.8514 72.4584 70.786C72.4909 70.7206 72.5077 70.6485 72.5076 70.5755C72.5383 70.4074 72.5774 70.2409 72.6248 70.0767C71.2282 69.2338 69.7418 68.5604 68.2729 67.8621C66.4373 66.9892 64.6093 66.1013 62.8161 65.1536C60.7062 64.0364 58.6238 62.8717 56.4715 61.8442C54.3192 60.8167 52.0622 59.8216 49.8575 58.814C48.0494 57.986 46.2363 57.168 44.4332 56.3325C42.3033 55.3474 40.1735 54.3648 38.0212 53.4296C36.253 52.6614 34.4698 51.9332 32.6493 51.3022C31.6168 50.9406 30.5818 50.5915 29.5742 50.165C29.447 50.1092 29.3091 50.0819 29.1702 50.0852L28.2674 52.1427C28.2243 52.2749 28.1516 52.3956 28.0548 52.4954C27.9579 52.5953 27.8396 52.6717 27.7087 52.7188Z" fill="#323E4C"/>
<path d="M74.3007 70.5955C74.8568 70.5955 75.3905 70.391 75.9691 70.3735C75.6424 70.2014 75.3207 70.0268 74.9915 69.8597C69.2978 66.9942 63.5991 64.1386 57.8007 61.49C50.7827 58.2828 43.7788 55.0482 36.7891 51.7861C34.6319 50.7885 32.4596 49.8034 30.2625 48.8856C30.1153 48.8233 29.9632 48.7809 29.811 48.7285L29.5617 48.7883L29.3123 49.7236C29.7861 49.7485 30.1602 50.0503 30.5917 50.1924C31.9883 50.6588 33.3799 51.1351 34.7566 51.6514C36.3776 52.2599 37.9613 52.9507 39.5424 53.6466C40.56 54.1005 41.5675 54.5768 42.5801 55.0382C44.2635 55.8038 45.9519 56.562 47.6328 57.3301C48.7376 57.8289 49.83 58.3651 50.9423 58.8564C52.8909 59.7143 54.8237 60.6047 56.7407 61.5275C58.6337 62.4602 60.4892 63.4702 62.3596 64.4553C64.6366 65.6475 66.9485 66.7772 69.2554 67.9145C70.7518 68.6626 72.2257 69.4607 73.767 70.1191C73.9814 70.2089 74.2982 70.2413 74.3007 70.5955Z" fill="#36424F"/>
<path d="M74.3006 70.5954C74.3006 70.2413 73.9814 70.2089 73.7669 70.1141C72.2257 69.4557 70.7567 68.6501 69.2554 67.9094C66.9484 66.7722 64.6366 65.6424 62.3596 64.4503C60.4891 63.4702 58.6386 62.4552 56.7357 61.5374C54.8328 60.6196 52.8975 59.7168 50.9373 58.8664C49.825 58.3676 48.7326 57.8439 47.6278 57.3401C45.9469 56.5719 44.2585 55.8138 42.5751 55.0481C41.5625 54.5868 40.555 54.1104 39.5374 53.6565C37.9563 52.9507 36.3726 52.2599 34.7515 51.6613C33.3749 51.1451 31.9832 50.6638 30.5866 50.2024C30.1552 50.0602 29.7811 49.7585 29.3072 49.7335C29.2161 49.8316 29.1669 49.9613 29.1701 50.0951C29.309 50.0919 29.4469 50.1191 29.5741 50.175C30.5717 50.6014 31.6166 50.9506 32.6491 51.3122C34.4697 51.9457 36.2529 52.6714 38.0211 53.4395C40.1734 54.3748 42.3032 55.3574 44.433 56.3425C46.2362 57.178 48.0493 57.996 49.8574 58.824C52.062 59.8216 54.2817 60.8191 56.4714 61.8541C58.661 62.8891 60.7111 64.0463 62.816 65.1636C64.6091 66.1113 66.4372 66.9992 68.2727 67.872C69.7417 68.5703 71.2281 69.2437 72.6247 70.0867C72.9118 70.1519 73.1842 70.2703 73.4277 70.4358C73.6777 70.5886 73.9761 70.6412 74.2632 70.583L74.3006 70.5954Z" fill="#404D5C"/>
<path d="M71.9066 71.0344C71.793 71.0037 71.6814 70.9662 71.5724 70.9221C70.2082 70.2637 68.859 69.5704 67.4798 68.9519C66.3176 68.4307 65.1829 67.8471 64.0332 67.3009C62.9757 66.8021 61.9582 66.2061 60.9382 65.6275C59.5366 64.8369 58.14 64.0363 56.7533 63.2133C55.3186 62.3935 53.8371 61.6582 52.3166 61.0112C50.1917 60.0685 48.0544 59.1507 45.8722 58.3402C44.0292 57.6543 42.2011 56.9311 40.368 56.2178C38.9232 55.6542 37.4817 55.0847 36.0435 54.5094C33.922 53.6615 31.8022 52.8077 29.684 51.9482C29.5219 51.8808 29.3847 51.7486 29.2226 51.6763C29.0605 51.604 28.8759 51.402 28.7637 51.6239C28.6739 51.801 28.9058 51.9207 29.063 52.0005C29.4346 52.1951 29.8112 52.3996 30.1877 52.5567C32.5046 53.5069 34.819 54.4645 37.1484 55.3798C39.5874 56.3425 42.0166 57.3301 44.4781 58.2429C46.6778 59.0559 48.8525 59.9313 51.0023 60.869C52.2243 61.4027 53.4389 61.9539 54.636 62.5325C56.3194 63.348 57.918 64.3207 59.5191 65.2758C60.2349 65.7073 60.9631 66.1163 61.6988 66.5228C62.6964 67.059 63.694 67.6027 64.7215 68.089C66.6069 68.9893 68.5098 69.8597 70.3728 70.8049C70.7394 70.9895 71.1958 71.0119 71.4377 71.411L71.7919 71.2588C71.8318 71.189 71.8692 71.1092 71.9066 71.0344Z" fill="#404D5C"/>
<path d="M22.9429 50.6862C23.9137 51.1561 24.9133 51.5643 25.9356 51.9083C25.9168 51.7701 25.9449 51.6296 26.0154 51.5092C26.6938 50.5116 27.0379 49.3744 27.3372 48.2247C27.3643 48.0358 27.4518 47.8609 27.5866 47.7259C27.4283 47.6075 27.2476 47.5227 27.0554 47.4765C26.1401 47.1722 25.2523 46.7981 24.3669 46.4191C24.5614 46.8031 24.8133 47.1673 24.726 47.6411C24.4941 48.8631 24.0801 49.9904 22.9429 50.6862Z" fill="#EB8248"/>
<path d="M80.1715 76.6308C80.8602 76.8787 81.5621 77.0885 82.2739 77.2593C82.7568 77.381 83.2566 77.4214 83.7528 77.379C84.5858 77.3241 84.9823 76.5884 84.6182 75.9101C84.3887 75.4892 84.0694 75.1239 83.683 74.8402C83.0859 74.378 82.4423 73.9793 81.7626 73.6505C81.0768 73.6929 81.0144 73.6929 81.0144 74.1344C81.0144 74.5758 80.4059 74.511 80.4184 74.9225C80.428 75.0002 80.4473 75.0764 80.4757 75.1494C80.5008 75.1981 80.5157 75.2513 80.5194 75.306C80.5231 75.3606 80.5157 75.4154 80.4975 75.467C80.4792 75.5186 80.4507 75.566 80.4135 75.6061C80.3763 75.6463 80.3313 75.6784 80.2812 75.7006C79.9395 75.8702 79.8772 76.0946 80.1316 76.3989C80.1815 76.4488 80.1615 76.551 80.1715 76.6308Z" fill="#34404E"/>
<path d="M27.5839 47.7134C27.4491 47.8484 27.3616 48.0234 27.3345 48.2122C27.0352 49.3619 26.6911 50.4992 26.0127 51.4967C25.9422 51.6171 25.9141 51.7576 25.9329 51.8958C25.9433 51.9447 25.9655 51.9903 25.9977 52.0286C26.0299 52.0669 26.071 52.0967 26.1175 52.1153C26.6312 52.3646 27.1151 52.6639 27.7211 52.7063C27.851 52.6586 27.9684 52.5819 28.0643 52.4821C28.1602 52.3823 28.2322 52.2619 28.2747 52.1302L29.1776 50.0727C29.1744 49.9389 29.2236 49.8092 29.3147 49.7111L29.5641 48.7759L29.5417 48.5938C29.195 48.1623 28.6314 48.095 28.2049 47.8082C28.018 47.6973 27.7954 47.6633 27.5839 47.7134Z" fill="#B2BECB"/>
<path d="M22.9428 50.6862C24.08 49.9854 24.494 48.8631 24.7235 47.6336C24.8108 47.1698 24.5589 46.7957 24.3643 46.4116C23.4964 46.0375 23.4017 46.1622 22.9827 46.6834C22.3428 47.4335 21.9893 48.386 21.9851 49.3719C21.9951 50.1251 22.2046 50.4144 22.9428 50.6862Z" fill="#FBC898"/>
<path d="M80.1716 76.6308C80.1716 76.551 80.1716 76.4487 80.1392 76.3989C79.8898 76.0946 79.9472 75.8701 80.2888 75.7006C80.3389 75.6784 80.3839 75.6463 80.4211 75.6061C80.4583 75.5659 80.4869 75.5186 80.5051 75.467C80.5233 75.4153 80.5308 75.3605 80.527 75.3059C80.5233 75.2513 80.5084 75.1981 80.4834 75.1494C80.4549 75.0764 80.4357 75.0002 80.426 74.9224C80.4135 74.5109 81.0295 74.5982 81.0221 74.1344C81.0146 73.6705 81.0769 73.6929 81.7702 73.6505C81.6099 73.4684 81.3929 73.3454 81.1542 73.3014C81.0997 73.3244 81.0486 73.3546 81.0021 73.3912C80.5382 73.7927 80.5532 73.7702 80.032 73.466C79.5107 73.1617 78.992 72.7402 78.3635 72.5881C78.3008 72.6988 78.2713 72.8252 78.2787 72.9522C79.0269 73.2839 79.6703 73.7578 80.4085 74.1842C80.1889 74.4047 80.0329 74.6804 79.9571 74.9823C79.6454 74.8327 79.3835 74.6905 79.1117 74.5758C78.6004 74.3663 78.1141 74.077 77.5505 74.0296C77.5308 74.1073 77.5398 74.1895 77.5761 74.2611C77.6123 74.3326 77.6732 74.3886 77.7475 74.4187C77.9819 74.5234 78.2139 74.6381 78.4483 74.7404C78.8124 74.8975 79.179 75.0446 79.5431 75.2043C79.7551 75.2965 79.8748 75.4262 79.6903 75.6582C79.5057 75.8901 79.6055 76.157 79.583 76.4063C79.7431 76.554 79.9539 76.6343 80.1716 76.6308Z" fill="#465361"/>
<path d="M79.5828 76.4113C79.6053 76.1619 79.5105 75.8901 79.6901 75.6632C79.8696 75.4362 79.7549 75.3015 79.5429 75.2093C79.1788 75.0496 78.8122 74.9025 78.4481 74.7454C78.2137 74.6431 77.9817 74.5284 77.7473 74.4237C77.673 74.3936 77.6121 74.3376 77.5759 74.2661C77.5396 74.1945 77.5305 74.1123 77.5503 74.0346L76.3232 74.9723C76.6699 75.2891 78.7698 76.2043 79.5828 76.4113Z" fill="#384452"/>
<path d="M77.543 74.0296C78.1091 74.077 78.5929 74.3663 79.1042 74.5758C79.376 74.6905 79.6379 74.8252 79.9496 74.9823C80.0254 74.6805 80.1814 74.4047 80.401 74.1843C79.6528 73.7578 79.0119 73.2839 78.2712 72.9522C78.0534 73.3276 77.8101 73.6876 77.543 74.0296Z" fill="#36424F"/>
<path d="M78.3559 72.5881C78.9844 72.7402 79.4807 73.1518 80.0243 73.466C80.568 73.7802 80.5231 73.7927 80.9945 73.3912C81.041 73.3546 81.0921 73.3244 81.1466 73.3014C80.2438 72.6829 79.2263 72.2664 78.3235 71.6554C78.2137 71.5831 78.104 71.7726 78.0117 71.6329C78.2187 71.9172 78.2162 72.2789 78.3559 72.5881Z" fill="#3A4654"/>
<path d="M71.9065 71.0344C71.8691 71.1092 71.8317 71.184 71.7917 71.2588C72.6271 71.0741 73.4521 70.8452 74.2633 70.573C73.9762 70.6312 73.6777 70.5786 73.4278 70.4258C73.1843 70.2603 72.9119 70.1419 72.6247 70.0767C72.5773 70.2409 72.5382 70.4074 72.5075 70.5755C72.5084 70.6489 72.4921 70.7216 72.4599 70.7876C72.4278 70.8537 72.3806 70.9113 72.3222 70.9559C72.2638 71.0004 72.1958 71.0308 72.1237 71.0444C72.0515 71.058 71.9771 71.0546 71.9065 71.0344Z" fill="#36424F"/>
<path d="M29.5393 48.6063L29.5618 48.7883L29.8111 48.7285C29.7513 48.6162 29.6441 48.6113 29.5393 48.6063Z" fill="#767F8A"/>
<path d="M78.0117 71.6329L77.9993 71.618L78.0092 71.6329H78.0117Z" fill="#3A4654"/>
<path d="M118.239 33.7797C118.176 33.5704 118.036 33.3924 117.848 33.2809C117.695 33.1612 117.556 33.0315 117.409 32.8944C117.152 32.6645 116.957 32.3748 116.839 32.0511C116.722 31.7274 116.686 31.3797 116.735 31.0389C116.862 30.8643 116.985 30.6897 117.119 30.5126C117.35 30.1504 117.677 29.8598 118.064 29.6734C118.451 29.487 118.882 29.4123 119.309 29.4577C119.957 29.5193 120.6 29.6302 121.232 29.7894C122.229 30.0388 123.207 30.353 124.195 30.6398C125.978 31.0339 127.754 31.4604 129.544 31.8195C131.789 32.2684 133.991 32.847 136.258 33.1463C137.061 33.251 137.592 32.7198 137.423 31.9292C137.294 31.3468 137.112 30.7774 136.879 30.2283C136.408 29.0936 135.677 28.2506 134.442 27.8666C133.742 27.6471 133.068 27.3453 132.32 27.3279C132.275 27.288 132.238 27.2256 132.188 27.2156C131.138 27.0115 130.074 26.8865 129.006 26.8416C126.269 26.8774 123.558 27.3679 120.982 28.293C119.658 28.8342 118.306 29.2906 116.97 29.8118C116.796 29.8877 116.609 29.9269 116.42 29.9269C116.231 29.9269 116.043 29.8877 115.87 29.8118C115.523 29.2607 115.715 28.7245 115.962 28.2232C116.174 27.8168 116.445 27.4437 116.765 27.1159C118.613 25.1858 120.722 23.5252 123.033 22.1829C124.912 21.0547 126.952 20.2188 129.083 19.7039C130.067 19.4785 131.068 19.3359 132.076 19.2774C132.16 19.3896 132.24 19.3846 132.325 19.2774C132.771 19.3273 133.198 19.1427 133.642 19.1702C133.766 19.3073 133.891 19.3073 134.001 19.1702H135.318C135.335 19.2024 135.361 19.2294 135.393 19.2481C135.424 19.2669 135.461 19.2768 135.497 19.2768C135.534 19.2768 135.57 19.2669 135.602 19.2481C135.633 19.2294 135.659 19.2024 135.677 19.1702C138.308 19.3772 140.864 19.8485 143.291 20.9758C145.493 21.9983 147.453 23.3775 149.411 24.789C150.815 25.8016 152.09 26.9787 153.491 27.9963C154.406 28.6596 155.237 29.4452 156.087 30.1959C158.728 32.5377 161.235 35.0217 163.681 37.5631C165.322 39.2689 166.924 41.0072 168.49 42.8004C169.34 43.778 170.236 44.7232 171.101 45.6759C172.597 47.3019 174.094 48.918 175.553 50.589C176.351 51.5017 177.184 52.3871 177.992 53.2924C179.156 54.5992 180.301 55.9244 181.428 57.2678C182.107 58.0758 182.81 58.8614 183.521 59.642C184.593 60.8192 185.691 61.9763 186.763 63.1585C187.761 64.2658 188.621 65.4928 189.559 66.65C190.432 67.7349 191.332 68.7973 192.195 69.8922C192.499 70.2762 192.913 70.5955 193.035 71.1067C192.694 71.1666 192.377 70.9596 192.038 71.0069C191.145 71.084 190.272 71.3064 189.451 71.6654C188.611 72.0769 187.776 72.4958 186.957 72.9547C184.678 74.2263 182.623 75.8652 180.877 77.8055C179.421 79.4221 178.256 81.2784 177.433 83.2922C177.004 84.3446 176.62 85.407 176.63 86.5667C176.311 86.3631 176.035 86.0977 175.82 85.7861C175.44 85.3197 175.014 84.9033 174.6 84.4718C172.986 82.7909 171.428 81.0651 169.949 79.2644C169.33 78.5162 168.672 77.788 168.013 77.0697C167.233 76.2193 166.42 75.3963 165.637 74.5484C164.013 72.8026 162.395 71.0369 160.764 69.2936C159.487 67.9269 158.27 66.5054 156.983 65.1437C155.536 63.6099 154.17 61.9988 152.723 60.465C151.531 59.2056 150.276 58.006 149.042 56.7889C147.428 55.2546 145.731 53.8093 143.959 52.4594C141.949 50.8683 139.939 49.2722 137.919 47.691C136.712 46.7458 135.49 45.823 134.27 44.8953C134.187 44.844 134.096 44.8053 134.001 44.7806C133.737 44.3616 133.303 44.1371 132.933 43.8453C131.796 42.945 130.589 42.1395 129.402 41.3115C128.098 40.4012 126.783 39.5058 125.439 38.6629C123.536 37.4683 121.698 36.1689 119.855 34.9045C119.302 34.5279 118.86 34.0291 118.239 33.7797ZM120.818 32.0938C120.456 31.2958 119.78 30.8843 118.982 30.6473C118.737 30.5778 118.475 30.5886 118.236 30.6784C117.997 30.7681 117.792 30.932 117.653 31.1461C117.371 31.5851 117.444 31.9966 117.738 32.4155C118.188 33.0206 118.8 33.4865 119.504 33.7598C119.768 34.1214 120.095 33.9518 120.414 33.867C120.571 33.8406 120.716 33.7671 120.83 33.6561C120.944 33.5452 121.022 33.4021 121.052 33.246C121.117 32.8545 121.157 32.4355 120.813 32.1013L120.818 32.0938ZM127.512 36.0841C127.394 36.0417 127.262 36.0068 127.21 36.159C127.158 36.3111 127.27 36.4083 127.377 36.5056C127.423 36.5441 127.477 36.5708 127.535 36.5834C127.593 36.5961 127.654 36.5942 127.711 36.5779C127.913 36.5216 128.09 36.3962 128.209 36.2236C128.328 36.0509 128.383 35.8418 128.365 35.6327C128.346 35.4432 128.256 35.2677 128.113 35.1421C127.97 35.0165 127.784 34.9503 127.594 34.9569C127.334 34.962 127.082 35.046 126.87 35.1979C126.659 35.3498 126.499 35.5624 126.412 35.8073C126.333 36.0134 126.317 36.2386 126.368 36.4535C126.419 36.6684 126.533 36.863 126.696 37.0119C127.015 37.3236 127.444 37.3361 127.861 37.2812C127.919 37.2665 127.973 37.2374 128.018 37.1964C128.053 37.1765 128.079 37.1439 128.09 37.1054C128.102 37.0669 128.098 37.0254 128.08 36.9894C128.068 36.9641 128.05 36.9415 128.029 36.9231C128.007 36.9046 127.983 36.8907 127.956 36.8822C127.779 36.8623 127.596 36.8822 127.422 36.8498C127.253 36.823 127.1 36.737 126.989 36.6071C126.879 36.4772 126.818 36.3121 126.818 36.1415C126.854 35.9776 126.932 35.8259 127.045 35.7013C127.157 35.5767 127.3 35.4835 127.459 35.4307C127.527 35.4126 127.599 35.4153 127.666 35.4384C127.733 35.4615 127.791 35.504 127.833 35.5604C127.873 35.618 127.897 35.6855 127.901 35.7555C127.905 35.8255 127.889 35.8952 127.856 35.9569C127.845 35.991 127.826 36.0223 127.802 36.0486C127.777 36.0749 127.748 36.0956 127.714 36.1093C127.681 36.123 127.646 36.1295 127.61 36.1281C127.574 36.1268 127.539 36.1177 127.507 36.1016L127.512 36.0841Z" fill="#FBC998"/>
<path d="M176.613 86.5592C176.613 85.3995 176.987 84.3371 177.416 83.2847C178.239 81.2709 179.404 79.4146 180.86 77.798C182.606 75.8577 184.66 74.2188 186.94 72.9472C187.756 72.4883 188.591 72.0694 189.434 71.6579C190.254 71.2989 191.128 71.0765 192.02 70.9995C192.364 70.9521 192.681 71.1591 193.018 71.0992C193.307 71.3087 193.679 71.4135 193.868 71.7402C194.285 72.444 194.431 73.2759 194.277 74.0795C193.975 75.7579 192.98 77.0298 191.826 78.2045C189.606 80.5005 187.18 82.5876 184.578 84.4394C183.491 85.2025 182.374 85.9357 181.254 86.644C180.445 87.1534 179.547 87.5062 178.608 87.684C178.298 87.7643 177.971 87.7558 177.666 87.6597C177.36 87.5636 177.088 87.3836 176.879 87.1403C176.722 86.9583 176.755 86.7238 176.613 86.5592Z" fill="#EB8146"/>
<path d="M118.239 33.7797C118.865 34.0166 119.307 34.5279 119.843 34.8895C121.691 36.159 123.524 37.4533 125.427 38.6479C126.771 39.4909 128.085 40.3937 129.39 41.2965C130.577 42.1245 131.784 42.93 132.921 43.8304C133.29 44.1221 133.724 44.3466 133.989 44.7656C133.025 45.0865 132.037 45.3251 131.033 45.4789C130.507 45.5786 129.976 45.641 129.447 45.7282C129.357 45.6285 129.28 45.641 129.198 45.7482C128.88 45.8035 128.559 45.8351 128.237 45.843C127.651 45.6883 127.034 45.6883 126.447 45.843C125.803 45.7756 125.162 45.7158 124.599 45.3317C124.246 45.1056 123.998 44.7488 123.908 44.3397C123.818 43.9305 123.894 43.5025 124.12 43.1495C124.391 42.6887 124.734 42.2737 125.135 41.92C125.185 41.8901 125.24 41.8676 125.287 41.8327C125.335 41.7978 125.497 41.718 125.404 41.6207C125.312 41.5234 125.195 41.5883 125.123 41.7005C124.615 41.8415 124.099 41.9449 123.576 42.0098C123.486 41.905 123.409 41.9225 123.327 42.0297H122.379C122.309 41.9225 122.232 41.9025 122.13 42.0073C121.863 41.9325 121.591 41.8651 121.324 41.7853C121.053 41.7013 120.802 41.5603 120.589 41.3715C120.376 41.1828 120.206 40.9507 120.091 40.6909C119.975 40.4311 119.916 40.1496 119.918 39.8652C119.92 39.5808 119.983 39.3001 120.102 39.042C120.244 38.7402 120.399 38.4434 120.549 38.1441C120.501 38.1156 120.447 38.0985 120.392 38.0941C120.337 38.0898 120.281 38.0984 120.229 38.1192C119.549 38.3562 118.821 38.423 118.11 38.3137C117.649 38.2742 117.213 38.0864 116.868 37.7783C116.523 37.4703 116.288 37.0587 116.197 36.6054C116.144 36.2503 116.221 35.8883 116.414 35.5853C116.868 34.8272 117.568 34.3234 118.239 33.7797Z" fill="#ECA26D"/>
<path d="M124.19 30.6374C123.202 30.3506 122.23 30.0388 121.232 29.7894C120.6 29.6352 119.957 29.5294 119.309 29.4727C118.882 29.4273 118.451 29.502 118.064 29.6884C117.677 29.8748 117.35 30.1654 117.119 30.5276C116.992 30.7047 116.87 30.8793 116.735 31.0539C116.114 30.8768 115.915 30.4029 115.865 29.8243C116.038 29.9002 116.226 29.9394 116.415 29.9394C116.604 29.9394 116.791 29.9002 116.965 29.8243C118.302 29.3255 119.653 28.8467 120.978 28.3055C123.554 27.3773 126.267 26.8843 129.006 26.8466C130.074 26.8915 131.138 27.0165 132.188 27.2207C132.238 27.2207 132.275 27.293 132.32 27.3329C132.303 27.4102 132.288 27.5124 132.198 27.5199C131.826 27.5783 131.46 27.671 131.106 27.7968C128.826 28.4214 126.613 29.2684 124.499 30.3256C124.359 30.383 124.18 30.4254 124.19 30.6374Z" fill="#ECA36C"/>
<path d="M126.452 45.8405C127.039 45.6859 127.655 45.6859 128.242 45.8405C127.659 46.0189 127.035 46.0189 126.452 45.8405Z" fill="#F4BD9D"/>
<path d="M125.127 41.698C125.2 41.5858 125.314 41.5135 125.409 41.6182C125.504 41.723 125.362 41.7754 125.292 41.8302C125.222 41.8851 125.19 41.8876 125.14 41.9175C125.135 41.8427 125.13 41.7604 125.127 41.698Z" fill="#F7D7C0"/>
<path d="M133.991 19.1602C133.876 19.3073 133.757 19.3073 133.632 19.1602C133.649 19.1279 133.675 19.101 133.707 19.0822C133.739 19.0635 133.775 19.0536 133.811 19.0536C133.848 19.0536 133.884 19.0635 133.916 19.0822C133.947 19.101 133.973 19.1279 133.991 19.1602Z" fill="#FDE5CE"/>
<path d="M135.667 19.1702C135.649 19.2024 135.623 19.2294 135.592 19.2481C135.56 19.2669 135.524 19.2768 135.487 19.2768C135.45 19.2768 135.414 19.2669 135.383 19.2481C135.351 19.2294 135.325 19.2024 135.308 19.1702C135.325 19.1379 135.351 19.111 135.383 19.0922C135.414 19.0734 135.45 19.0635 135.487 19.0635C135.524 19.0635 135.56 19.0734 135.592 19.0922C135.623 19.111 135.649 19.1379 135.667 19.1702Z" fill="#FDE5CE"/>
<path d="M132.315 19.2774C132.24 19.3946 132.16 19.3996 132.066 19.2774C132.15 19.1727 132.23 19.1677 132.315 19.2774Z" fill="#FDE5CE"/>
<path d="M122.14 42.0098C122.232 41.9051 122.309 41.925 122.389 42.0322C122.289 42.137 122.209 42.1195 122.14 42.0098Z" fill="#F4CDB0"/>
<path d="M123.337 42.0347C123.409 41.9275 123.486 41.91 123.586 42.0148C123.504 42.122 123.424 42.1345 123.337 42.0347Z" fill="#F4CDB0"/>
<path d="M129.212 45.7507C129.285 45.6435 129.362 45.631 129.462 45.7308C129.37 45.833 129.29 45.848 129.212 45.7507Z" fill="#F4CDB0"/>
<path d="M124.19 30.6374C124.19 30.4254 124.359 30.388 124.494 30.3181C126.608 29.2626 128.821 28.4173 131.1 27.7943C131.455 27.6685 131.821 27.5758 132.193 27.5174C132.283 27.5174 132.298 27.4077 132.315 27.3304C133.063 27.3478 133.737 27.6496 134.437 27.8691C135.672 28.2531 136.403 29.0961 136.874 30.2308C137.107 30.7799 137.289 31.3493 137.418 31.9317C137.587 32.7223 137.056 33.2535 136.253 33.1488C133.986 32.8495 131.764 32.2709 129.539 31.822C127.749 31.4579 125.97 31.0364 124.19 30.6374Z" fill="#EB8146"/>
<path d="M119.499 33.7797C118.798 33.5045 118.189 33.0379 117.74 32.433C117.446 32.014 117.374 31.6025 117.656 31.1636C117.795 30.9495 117.999 30.7856 118.238 30.6958C118.478 30.6061 118.739 30.5952 118.985 30.6648C119.783 30.9017 120.459 31.3132 120.82 32.1113C120.561 32.1106 120.307 32.1858 120.09 32.3276C119.873 32.4694 119.702 32.6716 119.598 32.9093C119.441 33.1787 119.534 33.4854 119.499 33.7797Z" fill="#ECA26C"/>
<path d="M127.507 36.1016C127.537 36.1173 127.571 36.1264 127.605 36.1285C127.64 36.1305 127.674 36.1254 127.707 36.1135C127.739 36.1015 127.768 36.083 127.793 36.059C127.818 36.0351 127.838 36.0063 127.851 35.9744C127.884 35.9127 127.9 35.843 127.896 35.773C127.892 35.703 127.868 35.6354 127.828 35.5779C127.786 35.5214 127.728 35.479 127.661 35.4559C127.594 35.4328 127.522 35.4301 127.454 35.4482C127.295 35.5009 127.152 35.5942 127.04 35.7188C126.927 35.8434 126.849 35.9951 126.813 36.159C126.813 36.3296 126.874 36.4947 126.984 36.6246C127.095 36.7544 127.248 36.8405 127.417 36.8672C127.591 36.8972 127.773 36.8797 127.95 36.8997C127.977 36.9082 128.002 36.9221 128.024 36.9405C128.045 36.959 128.063 36.9815 128.075 37.0069C128.093 37.0428 128.097 37.0843 128.085 37.1228C128.074 37.1613 128.048 37.1939 128.013 37.2139C127.968 37.2549 127.914 37.284 127.856 37.2987C127.434 37.3536 127.01 37.3411 126.691 37.0293C126.528 36.8805 126.414 36.6859 126.363 36.471C126.312 36.2561 126.327 36.0308 126.407 35.8248C126.494 35.5798 126.654 35.3673 126.865 35.2154C127.076 35.0635 127.329 34.9794 127.589 34.9743C127.779 34.9677 127.965 35.034 128.108 35.1596C128.251 35.2851 128.341 35.4606 128.359 35.6502C128.378 35.8593 128.323 36.0683 128.204 36.241C128.084 36.4137 127.908 36.5391 127.706 36.5954C127.649 36.6116 127.588 36.6135 127.53 36.6009C127.472 36.5883 127.417 36.5616 127.372 36.5231C127.265 36.4358 127.142 36.341 127.205 36.1764C127.267 36.0118 127.389 36.0592 127.507 36.1016Z" fill="#EC874D"/>
<path d="M119.499 33.7797C119.533 33.4879 119.441 33.1812 119.591 32.9019C119.694 32.6641 119.865 32.4619 120.083 32.3201C120.3 32.1783 120.554 32.1031 120.813 32.1038C121.157 32.438 121.117 32.852 121.047 33.266C121.017 33.4221 120.939 33.5651 120.825 33.6761C120.711 33.787 120.566 33.8606 120.409 33.887C120.09 33.9693 119.763 34.1389 119.499 33.7797Z" fill="#EB8247"/>
<path d="M167.293 11.7432C167.033 11.9594 166.738 12.1283 166.42 12.2419C164.175 13.2395 161.883 14.0501 159.611 14.9479C156.471 16.1965 153.357 17.5092 150.272 18.8858C144.683 21.4022 139.201 24.1231 133.727 26.8864C132.31 27.5997 130.854 28.2232 129.412 28.8816C128.193 29.4303 127.04 30.1036 125.871 30.7446C125.739 30.8314 125.59 30.8863 125.433 30.9049C125.277 30.9235 125.118 30.9053 124.97 30.8518C124.514 30.6822 124.018 30.6398 123.566 30.4403C123.816 30.0438 124.267 30.0188 124.631 29.8343C126.497 28.8891 128.397 28.0187 130.285 27.1209C131.31 26.6221 132.308 26.0884 133.308 25.5522C134.056 25.1556 134.769 24.7466 135.485 24.3052C137.086 23.34 138.685 22.3674 140.368 21.5618C141.568 20.9808 142.78 20.4296 144.002 19.8959C146.152 18.9548 148.327 18.0795 150.528 17.2698C152.987 16.3595 155.417 15.3694 157.858 14.4067C160.187 13.4914 162.502 12.5337 164.816 11.586C165.203 11.4264 165.564 11.2219 165.944 11.0299C166.098 10.9476 166.333 10.8279 166.24 10.6508C166.128 10.4288 165.929 10.6358 165.781 10.7032C165.634 10.7705 165.485 10.9077 165.32 10.975C163.195 11.8313 161.076 12.6842 158.963 13.5338C157.525 14.1107 156.083 14.6802 154.638 15.2422C152.805 15.9554 150.975 16.6787 149.132 17.3645C146.952 18.1751 144.815 19.0928 142.69 20.038C141.168 20.6832 139.686 21.4177 138.251 22.2377C136.867 23.0607 135.47 23.8613 134.068 24.6543C133.046 25.2304 132.031 25.8215 130.971 26.3253C129.821 26.874 128.689 27.4551 127.527 27.9763C126.145 28.5973 124.798 29.2881 123.434 29.9465C123.324 29.9906 123.212 30.0281 123.097 30.0587C123.027 30.0784 122.954 30.0815 122.882 30.0679C122.811 30.0544 122.743 30.0244 122.685 29.9804C122.627 29.9365 122.58 29.8797 122.548 29.8145C122.516 29.7494 122.499 29.6776 122.499 29.6048C122.469 29.4364 122.429 29.2699 122.379 29.106C123.776 28.2631 125.265 27.5897 126.734 26.8914C128.569 26.0185 130.397 25.1307 132.19 24.183C134.298 23.0657 136.38 21.901 138.532 20.8735C140.685 19.846 142.942 18.8509 145.149 17.8434C146.957 17.0154 148.77 16.1974 150.573 15.3494C152.701 14.3643 154.833 13.3817 156.983 12.4465C158.751 11.6783 160.537 10.9501 162.357 10.3191C163.39 9.95749 164.422 9.60833 165.43 9.18187C165.558 9.12608 165.697 9.09885 165.836 9.10206C166.136 9.78873 166.436 10.4746 166.739 11.1596C166.781 11.2927 166.852 11.4145 166.948 11.5156C167.044 11.6168 167.162 11.6946 167.293 11.7432Z" fill="#323E4C"/>
<path d="M120.706 29.6198C120.15 29.6198 119.616 29.4153 119.037 29.3978C119.362 29.2258 119.686 29.0512 120.015 28.8841C125.709 26.0185 131.407 23.163 137.206 20.5144C144.22 17.3072 151.224 14.0725 158.217 10.8104C160.375 9.81284 162.547 8.81526 164.744 7.90996C164.889 7.84761 165.043 7.80521 165.193 7.75284L165.442 7.81269C165.527 8.12444 165.612 8.43618 165.692 8.75042C165.218 8.77286 164.846 9.07463 164.412 9.21928C163.018 9.68316 161.624 10.1595 160.247 10.6758C158.629 11.2843 157.043 11.9751 155.464 12.6709C154.446 13.1248 153.439 13.6012 152.424 14.0625L147.371 16.3545C146.266 16.8533 145.174 17.3895 144.064 17.8808C142.116 18.7387 140.182 19.629 138.263 20.5518C136.363 21.4696 134.522 22.4846 132.642 23.4647C130.362 24.6568 128.05 25.7866 125.744 26.9238C124.247 27.672 122.776 28.4701 121.235 29.131C121.023 29.2332 120.706 29.2657 120.706 29.6198Z" fill="#36424F"/>
<path d="M120.706 29.6198C120.706 29.2657 121.023 29.2332 121.24 29.141C122.781 28.4801 124.25 27.6745 125.749 26.9338C128.055 25.7966 130.367 24.6668 132.647 23.4747C134.517 22.4946 136.368 21.4795 138.268 20.5618C140.169 19.644 142.121 18.7487 144.069 17.8908C145.179 17.392 146.271 16.8707 147.376 16.3645L152.429 14.0775C153.444 13.6161 154.451 13.1398 155.469 12.6859C157.048 11.9801 158.634 11.2893 160.252 10.6907C161.629 10.1745 163.023 9.69313 164.417 9.23425C164.851 9.0896 165.223 8.78783 165.697 8.76538C165.788 8.86258 165.838 8.99126 165.836 9.12451C165.697 9.1213 165.558 9.14853 165.43 9.20432C164.432 9.63078 163.39 9.97994 162.357 10.3416C160.537 10.975 158.751 11.7008 156.983 12.4689C154.833 13.4041 152.701 14.3867 150.573 15.3719C148.77 16.2073 146.957 17.0254 145.149 17.8658C142.942 18.8634 140.722 19.861 138.533 20.896C136.343 21.931 134.293 23.0881 132.19 24.2054C130.397 25.1531 128.569 26.041 126.734 26.9139C125.265 27.6122 123.776 28.2855 122.379 29.1285C122.093 29.1933 121.821 29.3117 121.579 29.4777C121.329 29.6302 121.03 29.6828 120.743 29.6248L120.706 29.6198Z" fill="#404D5C"/>
<path d="M123.097 30.0587C123.212 30.0281 123.324 29.9906 123.434 29.9465C124.798 29.2881 126.145 28.5973 127.527 27.9763C128.689 27.4551 129.821 26.874 130.971 26.3253C132.031 25.8265 133.046 25.2304 134.068 24.6543C135.47 23.8613 136.867 23.0607 138.251 22.2377C139.683 21.418 141.162 20.6835 142.68 20.038C144.805 19.0928 146.942 18.1751 149.122 17.3645C150.965 16.6787 152.795 15.9554 154.628 15.2422C156.072 14.6785 157.513 14.1091 158.953 13.5338C161.074 12.6859 163.194 11.8321 165.31 10.9725C165.475 10.9052 165.609 10.7755 165.771 10.7007C165.934 10.6259 166.118 10.4263 166.23 10.6483C166.323 10.8254 166.088 10.9451 165.934 11.0274C165.562 11.2194 165.185 11.4239 164.806 11.5835C162.492 12.5312 160.177 13.4889 157.848 14.4042C155.407 15.3669 152.977 16.357 150.518 17.2673C148.319 18.0803 146.143 18.9557 143.992 19.8934C142.77 20.4271 141.558 20.9783 140.358 21.5593C138.675 22.3724 137.076 23.345 135.475 24.3027C134.759 24.7341 134.033 25.1432 133.298 25.5497C132.3 26.0859 131.303 26.6296 130.275 27.1184C128.387 28.0162 126.487 28.8866 124.621 29.8318C124.257 30.0163 123.801 30.0413 123.556 30.4378L123.202 30.2857C123.175 30.2084 123.137 30.1336 123.097 30.0587Z" fill="#404D5C"/>
<path d="M172.064 9.71059C171.093 10.1815 170.094 10.5896 169.071 10.9326C169.092 10.7952 169.064 10.6545 168.991 10.5361C168.313 9.53851 167.971 8.39877 167.669 7.24906C167.646 7.05546 167.558 6.87536 167.42 6.7378C167.58 6.62012 167.761 6.53535 167.954 6.4884C168.869 6.18414 169.757 5.81005 170.642 5.43097C170.445 5.81504 170.196 6.17916 170.283 6.65301C170.51 7.88751 170.924 9.01228 172.064 9.71059Z" fill="#EB8248"/>
<path d="M114.835 35.6552C114.146 35.9031 113.444 36.1129 112.733 36.2836C112.25 36.4053 111.75 36.4458 111.254 36.4034C110.418 36.3485 110.022 35.6128 110.386 34.9344C110.618 34.5151 110.936 34.1503 111.321 33.8645C111.918 33.4028 112.562 33.0042 113.241 32.6749C113.93 32.7173 113.99 32.7173 113.99 33.1587C113.99 33.6001 114.598 33.5353 114.588 33.9468C114.579 34.0249 114.559 34.1012 114.528 34.1738C114.503 34.2226 114.488 34.276 114.485 34.3307C114.481 34.3854 114.489 34.4403 114.507 34.492C114.526 34.5436 114.555 34.5909 114.592 34.631C114.63 34.671 114.675 34.703 114.725 34.7249C115.067 34.897 115.129 35.119 114.872 35.4232C114.822 35.4731 114.842 35.5754 114.835 35.6552Z" fill="#34404E"/>
<path d="M167.42 6.7378C167.558 6.87536 167.646 7.05546 167.669 7.24906C167.971 8.39877 168.313 9.53601 168.991 10.5361C169.064 10.6545 169.092 10.7952 169.071 10.9326C169.061 10.9812 169.039 11.0266 169.007 11.0648C168.975 11.103 168.935 11.133 168.889 11.1521C168.373 11.4015 167.876 11.7008 167.285 11.7432C167.155 11.6954 167.038 11.6187 166.942 11.5189C166.846 11.4191 166.774 11.2988 166.732 11.1671C166.429 10.482 166.128 9.79621 165.829 9.10954C165.83 8.9763 165.78 8.84761 165.689 8.75041C165.607 8.43618 165.522 8.12443 165.44 7.81269L165.462 7.63063C165.806 7.19918 166.37 7.13184 166.799 6.84504C166.984 6.72909 167.207 6.69057 167.42 6.7378Z" fill="#B2BECB"/>
<path d="M172.064 9.71059C170.924 9.01228 170.51 7.88751 170.283 6.65799C170.196 6.19412 170.445 5.82003 170.642 5.43596C171.508 5.06436 171.605 5.18656 172.024 5.7078C172.664 6.45773 173.017 7.41033 173.021 8.39628C173.009 9.14945 172.802 9.43875 172.064 9.71059Z" fill="#FBC898"/>
<path d="M114.835 35.6552C114.835 35.5754 114.823 35.4731 114.865 35.4232C115.114 35.119 115.059 34.897 114.718 34.7249C114.668 34.703 114.622 34.6711 114.585 34.631C114.547 34.5909 114.519 34.5436 114.5 34.492C114.482 34.4403 114.474 34.3855 114.477 34.3307C114.481 34.276 114.496 34.2226 114.521 34.1738C114.551 34.1013 114.571 34.0249 114.581 33.9468C114.581 33.5353 113.977 33.6226 113.982 33.1587C113.987 32.6949 113.93 32.7173 113.234 32.6749C113.396 32.4932 113.613 32.3704 113.852 32.3258C113.906 32.3499 113.957 32.38 114.005 32.4155C114.466 32.8171 114.451 32.7946 114.975 32.4929C115.498 32.1911 116.012 31.7646 116.643 31.6125C116.705 31.7236 116.734 31.8497 116.728 31.9766C115.997 32.3509 115.285 32.7621 114.596 33.2086C114.817 33.4278 114.973 33.704 115.047 34.0067C115.361 33.857 115.621 33.7149 115.895 33.6027C116.394 33.3907 116.893 33.1039 117.456 33.054C117.475 33.1317 117.466 33.2137 117.43 33.2851C117.394 33.3565 117.333 33.4125 117.259 33.443C117.022 33.5478 116.793 33.6625 116.556 33.7648C116.192 33.9219 115.825 34.069 115.463 34.2286C115.249 34.3209 115.129 34.4506 115.316 34.6825C115.503 34.9145 115.401 35.1813 115.421 35.4307C115.262 35.578 115.052 35.6583 114.835 35.6552Z" fill="#465361"/>
<path d="M115.433 35.4357C115.413 35.1863 115.508 34.9145 115.329 34.6875C115.149 34.4606 115.261 34.3259 115.476 34.2336C115.837 34.074 116.204 33.9269 116.568 33.7697C116.805 33.6675 117.035 33.5528 117.271 33.448C117.345 33.4175 117.406 33.3615 117.442 33.2901C117.478 33.2187 117.488 33.1367 117.469 33.059L118.696 33.9967C118.334 34.3134 116.244 35.2287 115.433 35.4357Z" fill="#384452"/>
<path d="M117.464 33.054C116.895 33.1014 116.411 33.3907 115.902 33.6026C115.628 33.7149 115.369 33.852 115.054 34.0067C114.981 33.704 114.824 33.4277 114.603 33.2086C115.293 32.7621 116.004 32.3509 116.735 31.9766C116.953 32.352 117.196 32.7119 117.464 33.054Z" fill="#36424F"/>
<path d="M116.651 31.6125C116.02 31.7646 115.526 32.1786 114.982 32.4928C114.438 32.8071 114.483 32.817 114.012 32.4155C113.965 32.38 113.914 32.3499 113.86 32.3257C114.76 31.7072 115.778 31.2908 116.683 30.6797C116.79 30.6074 116.9 30.7969 116.992 30.6573C116.785 30.9416 116.79 31.3032 116.651 31.6125Z" fill="#3A4654"/>
<path d="M123.097 30.0588C123.137 30.1336 123.175 30.2084 123.212 30.2832C122.378 30.0985 121.553 29.8696 120.743 29.5974C121.03 29.6553 121.329 29.6028 121.579 29.4502C121.821 29.2843 122.093 29.1658 122.379 29.1011C122.429 29.2649 122.469 29.4314 122.499 29.5999C122.498 29.673 122.514 29.7454 122.546 29.8112C122.578 29.877 122.625 29.9344 122.683 29.979C122.742 30.0235 122.809 30.0539 122.881 30.0677C122.953 30.0816 123.027 30.0785 123.097 30.0588Z" fill="#36424F"/>
<path d="M165.467 7.63065L165.445 7.8127L165.195 7.75285C165.253 7.64062 165.36 7.63563 165.467 7.63065Z" fill="#767F8A"/>
<path d="M116.992 30.6573L117.007 30.6423L116.995 30.6573H116.992Z" fill="#3A4654"/>
</g>
<defs>
<clipPath id="clip0_5892_82554">
<rect width="200" height="145.614" fill="white" transform="translate(0.666748 0.333344)"/>
</clipPath>
</defs>
</svg>
