<svg width="400" height="292" viewBox="0 0 400 292" fill="none" xmlns="http://www.w3.org/2000/svg">
<g clip-path="url(#clip0_6126_192470)">
<g opacity="0.22">
<path opacity="0.22" d="M257.845 26.7484C257.754 32.8063 257.277 38.8522 256.418 44.8495C255.67 50.3761 254.892 55.8977 254.263 61.4393C253.55 67.734 252.961 74.0487 253.036 80.3933C253.101 85.2915 253.69 90.1048 255.874 94.5789C256.781 96.5369 258.096 98.2785 259.731 99.6875C261.365 101.096 263.281 102.14 265.351 102.749C269.225 103.941 273.274 104.459 277.322 104.28C281.871 104.106 286.301 103.283 290.735 102.35C295.488 101.353 300.157 100.056 304.831 98.7887C308.133 97.8959 311.405 96.8983 314.702 96.0055C318.348 95.0079 321.999 94.0702 325.705 93.317C329.394 92.4888 333.133 91.8974 336.898 91.5463C342.001 91.1722 347.008 91.6012 351.662 93.9904C356.705 96.5791 359.678 100.774 360.965 106.216C361.786 109.922 361.923 113.748 361.369 117.503C360.226 126.307 356.879 134.308 352.55 141.969C348.806 148.514 344.386 154.648 339.362 160.27C332.898 167.707 325.586 174.363 317.575 180.102C313.894 182.705 310.108 185.138 306.217 187.399C303.05 189.249 299.698 190.741 296.386 192.317C290.341 195.195 284.166 197.804 278.235 200.916C274.918 202.662 271.616 204.433 268.424 206.403C263.617 209.385 259.02 212.692 254.662 216.299C248.946 220.982 243.739 226.2 238.437 231.317C233.588 235.996 228.8 240.74 223.588 245.019C219.902 248.129 215.921 250.871 211.701 253.204C206.31 256.087 200.693 258.521 194.648 259.624C186.827 261.055 179.53 259.738 173.31 254.496C170.036 251.663 167.474 248.101 165.828 244.096C163.483 238.694 161.907 233.068 160.57 227.362C159.777 223.985 159.074 220.593 158.191 217.241C157.368 213.952 155.903 210.856 153.882 208.134C149.908 202.774 145.062 198.121 139.546 194.367C135.556 191.703 131.386 189.379 127.226 187.04C120.817 183.414 114.467 179.688 108.422 175.478C105.255 173.273 102.132 171.014 99.1395 168.574C95.3758 165.57 91.8917 162.231 88.7297 158.599C86.0367 155.446 83.5761 152.102 81.3676 148.593C80.2154 146.772 79.128 144.917 78.1354 143.007C76.2802 139.526 74.6718 135.919 73.3221 132.213C71.7574 127.908 70.6001 123.466 69.8655 118.945C69.1287 114.053 68.9514 109.093 69.3367 104.161C69.672 99.6255 70.3573 95.1229 71.3868 90.6934C71.8556 88.6982 72.3844 86.703 72.948 84.7079C74.1031 80.6989 75.5536 76.781 77.2875 72.9863C78.9451 69.2397 81.0342 65.6993 83.5124 62.4369C87.0742 57.842 91.9428 54.4322 97.4785 52.6556C100.733 51.5973 104.105 50.9406 107.519 50.7003C110.153 50.4909 112.776 50.5607 115.405 50.5707C118.353 50.5707 121.296 50.83 124.244 50.85C126.239 50.85 128.234 50.9647 130.229 50.9647C133.411 50.9647 136.59 50.8583 139.766 50.6455C142.634 50.4559 145.492 50.2564 148.335 49.8574C152.869 49.2494 157.317 48.1214 161.593 46.4955C169.389 43.5028 176.312 39.0137 182.841 33.9011C187.505 30.235 191.919 26.2746 196.339 22.3192C202.165 17.1068 208.31 12.3434 215.083 8.38795C217.942 6.74671 220.92 5.3228 223.992 4.12828C226.921 2.98908 229.93 2.06878 232.995 1.37496C236.376 0.562589 239.888 0.450558 243.315 1.04576C248.672 2.00842 252.333 5.09593 254.742 9.86936C256.378 13.1265 257.156 16.598 257.575 20.1794C257.787 22.3623 257.877 24.5554 257.845 26.7484Z" fill="#FDD535"/>
</g>
<path d="M187.545 152.354C187.545 152.354 187.655 150.857 187.655 150.563C187.655 150.269 188.014 150.264 188.568 150.304C189.121 150.344 216.629 150.089 219.373 150.034C222.116 149.98 283.602 150.194 284.026 150.194C284.45 150.194 284.724 150.533 285.123 151.291C285.522 152.049 290.61 160.075 291.303 161.267C291.997 162.459 297.788 171.507 298.421 172.36C299.055 173.213 304.117 182.366 304.671 183.199C305.225 184.032 312.562 197.1 313.016 197.828C313.47 198.557 316.417 203.604 317.051 205.071C317.684 206.537 318.742 208.293 318.792 208.423C318.842 208.552 318.792 208.667 318.582 208.707C318.373 208.747 280.225 211.475 277.617 211.635C275.008 211.795 240.207 214.164 235.534 214.628C230.86 215.092 188.782 219.057 187.6 219.212L184.742 219.601C184.622 219.601 184.443 219.661 184.462 219.132C184.482 218.603 184.692 213.795 184.672 213.146C184.652 212.498 185.41 197.624 185.41 196.596C185.41 195.569 185.829 186.416 185.859 185.364C185.889 184.311 186.278 172.206 186.278 171.363C186.278 170.52 186.702 164.454 186.777 163.686C186.852 162.918 187.545 152.803 187.545 152.354Z" fill="#EE7E7A"/>
<path d="M136.918 97.9458C136.918 97.9458 137.033 96.4494 137.033 96.1551C137.033 95.8608 137.387 95.8559 137.941 95.8958C138.494 95.9357 166.003 95.6813 168.746 95.6264C171.489 95.5715 232.975 95.786 233.399 95.786C233.823 95.786 234.097 96.1252 234.501 96.8834C234.905 97.6415 239.988 105.667 240.676 106.859C241.365 108.051 247.161 117.099 247.794 117.952C248.428 118.805 253.49 127.958 254.044 128.791C254.598 129.624 261.935 142.692 262.389 143.421C262.843 144.149 265.791 149.196 266.424 150.663C267.057 152.129 268.115 153.885 268.165 154.015C268.215 154.144 268.165 154.259 267.955 154.299C267.746 154.339 229.603 157.067 226.99 157.227C224.376 157.387 189.58 159.756 184.907 160.22C180.233 160.684 138.16 164.649 136.973 164.804L134.115 165.193C133.995 165.193 133.816 165.253 133.836 164.724C133.855 164.195 134.065 159.387 134.045 158.738C134.025 158.09 134.783 143.216 134.783 142.188C134.783 141.161 135.207 132.008 135.232 130.956C135.257 129.903 135.651 117.798 135.651 116.955C135.651 116.112 136.075 110.046 136.15 109.278C136.225 108.51 136.918 98.3797 136.918 97.9458Z" fill="#96C3ED"/>
<path d="M162.232 41.6223C162.232 41.6223 162.346 40.1259 162.346 39.8266C162.346 39.5274 162.7 39.5324 163.254 39.5723C163.808 39.6122 191.316 39.3528 194.059 39.2979C196.803 39.2431 258.289 39.4575 258.713 39.4575C259.137 39.4575 259.411 39.8017 259.81 40.5599C260.209 41.318 265.297 49.3386 265.99 50.5357C266.683 51.7328 272.474 60.7808 273.108 61.6288C273.741 62.4767 278.804 71.6345 279.357 72.4675C279.911 73.3005 287.248 86.3688 287.702 87.102C288.156 87.8352 291.104 92.878 291.737 94.3395C292.371 95.8009 293.428 97.5616 293.478 97.6913C293.528 97.821 293.478 97.9407 293.269 97.9756C293.059 98.0105 254.917 100.749 252.303 100.904C249.689 101.058 214.894 103.437 210.22 103.896C205.546 104.355 163.473 108.326 162.286 108.485L159.428 108.869C159.309 108.869 159.129 108.929 159.149 108.405C159.169 107.882 159.378 103.063 159.358 102.42C159.339 101.776 160.097 86.8925 160.097 85.865C160.097 84.8375 160.516 75.6897 160.546 74.6322C160.576 73.5748 160.965 61.4741 160.965 60.6312C160.965 59.7882 161.389 53.7229 161.463 52.9598C161.538 52.1966 162.232 42.0612 162.232 41.6223Z" fill="#FFF2B6"/>
<path d="M208.21 189.808C208.853 188.81 209.367 187.987 209.856 187.169C210.238 186.56 210.722 186.022 211.287 185.578C212.175 184.84 213.073 184.98 213.751 185.912C214.226 186.598 214.64 187.324 214.988 188.082C216.086 190.342 217.193 192.611 219.044 194.377C219.803 195.207 220.824 195.751 221.937 195.918C222.716 196.01 223.505 195.884 224.217 195.554C224.928 195.224 225.534 194.702 225.967 194.048C227.049 192.61 227.802 190.951 228.172 189.189C228.247 188.928 228.262 188.652 228.213 188.384C228.165 188.115 228.055 187.862 227.892 187.643C227.508 187.144 227.249 186.531 227.633 185.863C227.692 185.715 227.794 185.589 227.925 185.5C228.057 185.411 228.212 185.363 228.371 185.364C228.511 185.37 228.646 185.416 228.762 185.495C228.877 185.575 228.968 185.684 229.024 185.813C229.175 186.137 229.279 186.482 229.334 186.835C229.558 187.788 229.982 188.077 230.945 187.997C231.065 187.994 231.184 187.976 231.299 187.942C231.733 187.793 232.222 187.623 232.341 188.262C232.446 188.8 231.932 188.84 231.558 188.975C231.143 189.118 230.699 189.156 230.266 189.085C229.334 188.94 229.299 188.935 229.089 189.853C228.683 191.402 228.008 192.867 227.094 194.182C226.409 195.309 225.379 196.183 224.156 196.676C222.206 197.434 220.475 196.921 218.939 195.624C217.387 194.26 216.115 192.609 215.193 190.761C214.614 189.668 214.081 188.551 213.522 187.444C213.387 187.111 213.192 186.805 212.948 186.541C212.878 186.456 212.79 186.386 212.692 186.336C212.593 186.287 212.485 186.257 212.375 186.251C212.265 186.244 212.154 186.261 212.05 186.298C211.946 186.336 211.852 186.395 211.771 186.471C211.525 186.673 211.309 186.908 211.128 187.169C210.24 188.442 209.444 189.775 208.744 191.16C208.496 191.662 208.409 192.228 208.494 192.781C208.822 194.949 208.775 197.158 208.355 199.31C208.085 200.472 208.295 201.689 207.995 202.866C207.784 203.958 207.499 205.035 207.143 206.088C207.02 206.427 206.852 206.747 206.644 207.041C206.574 207.164 206.473 207.266 206.352 207.338C206.23 207.41 206.092 207.449 205.951 207.452C205.81 207.455 205.671 207.422 205.547 207.355C205.422 207.288 205.317 207.19 205.242 207.071C205.052 206.868 204.904 206.629 204.808 206.368C204.384 204.996 204.02 203.599 204.439 202.163C204.768 201.041 204.594 199.874 204.893 198.736C205.416 196.528 206.144 194.374 207.068 192.302C207.267 191.953 207.348 191.548 207.297 191.15C206.923 189.02 206.444 186.945 205.187 185.109C203.731 182.98 201.696 182.276 199.262 182.715C198.116 182.975 197.074 183.571 196.269 184.426C194.325 186.382 192.836 188.742 191.909 191.339C190.952 193.746 190.409 196.298 190.303 198.886C190.263 200.108 190.248 201.46 191.201 202.502C191.451 202.772 191.53 203.076 191.201 203.325C190.872 203.575 190.702 203.3 190.488 203.101C189.741 202.255 189.334 201.162 189.346 200.033C189.126 195.474 190.433 191.299 192.678 187.389C193.589 185.755 194.793 184.303 196.229 183.104C198.663 181.109 202.559 180.994 204.983 183.269C205.982 184.251 206.745 185.449 207.212 186.77C207.557 187.703 207.826 188.646 208.21 189.808ZM207.287 194.197C207.237 194.352 207.202 194.507 207.143 194.651C205.94 197.799 205.147 201.016 205.352 204.418C205.321 205.155 205.565 205.878 206.035 206.448C207.298 202.511 207.865 198.384 207.711 194.252C207.711 194.053 207.896 193.753 207.586 193.703C207.277 193.654 207.297 193.973 207.282 194.197H207.287Z" fill="#E8504A"/>
<path d="M194.139 117.314C194.508 117.024 194.503 116.68 194.638 116.401C194.79 116.034 194.972 115.681 195.182 115.344C196.129 114.002 197.341 114.017 198.244 115.378C198.775 116.228 199.137 117.171 199.312 118.157C199.83 120.988 199.83 123.89 199.312 126.721C199.013 128.532 198.584 130.319 198.03 132.068C197.775 132.886 197.81 132.966 198.529 133.41C199.176 133.807 199.868 134.128 200.589 134.367C201.387 134.632 202.19 134.866 203.023 134.447C203.071 134.411 203.126 134.386 203.185 134.373C203.244 134.361 203.305 134.361 203.364 134.375C203.422 134.389 203.477 134.416 203.524 134.453C203.571 134.491 203.61 134.538 203.636 134.592C203.691 134.701 203.703 134.826 203.672 134.943C203.641 135.061 203.568 135.163 203.467 135.23C203.281 135.383 203.067 135.496 202.836 135.563C202.605 135.63 202.363 135.649 202.125 135.619C200.803 135.619 199.631 135.036 198.509 134.477C198.294 134.372 198.095 134.233 197.89 134.113C197.837 134.066 197.773 134.034 197.704 134.02C197.634 134.005 197.562 134.009 197.495 134.031C197.428 134.052 197.367 134.091 197.319 134.143C197.271 134.195 197.238 134.259 197.222 134.328C197.022 134.826 196.843 135.295 196.638 135.769C195.437 138.774 193.806 141.588 191.795 144.124C190.144 146.119 188.229 147.785 185.685 148.548C184.019 149.047 182.358 149.047 180.832 148.139C180.183 147.745 179.834 147.954 179.425 148.413C177.872 150.129 176.16 151.694 174.312 153.087C172.956 154.085 171.559 155.002 169.868 155.342C169.197 155.507 168.488 155.423 167.873 155.107C167.583 154.967 167.352 154.727 167.222 154.432C167.092 154.137 167.072 153.805 167.165 153.496C167.186 153.398 167.238 153.309 167.313 153.242C167.389 153.176 167.483 153.135 167.584 153.127C167.634 153.123 167.685 153.129 167.733 153.146C167.781 153.162 167.825 153.188 167.862 153.222C167.9 153.256 167.93 153.298 167.951 153.344C167.971 153.39 167.982 153.44 167.983 153.491C168.008 153.85 168.008 154.219 168.417 154.394C168.789 154.543 169.197 154.576 169.589 154.489C170.567 154.282 171.496 153.885 172.322 153.321C174.841 151.735 176.941 149.66 178.971 147.511C179.21 147.256 179.345 147.012 179.081 146.683C176.642 143.545 176.118 139.849 176.178 136.048C176.264 129.157 177.984 122.384 181.196 116.286C182.22 114.236 183.659 112.42 185.42 110.954C186.06 110.413 186.787 109.984 187.57 109.687C188.425 109.325 189.382 109.282 190.267 109.565C191.151 109.849 191.904 110.441 192.389 111.234C193.386 112.65 193.72 114.286 193.93 115.962C193.92 116.421 193.99 116.879 194.139 117.314ZM180.033 146.189C180.299 146.061 180.521 145.858 180.672 145.605C182.365 143.54 183.901 141.351 185.266 139.056C188.209 134.148 190.787 129.08 192.249 123.514C192.952 120.84 193.371 118.132 192.917 115.359C192.768 114.005 192.284 112.709 191.511 111.588C191.136 111.04 190.588 110.634 189.954 110.436C189.321 110.237 188.639 110.258 188.019 110.495C187.151 110.803 186.356 111.287 185.685 111.917C184.283 113.168 183.12 114.664 182.253 116.331C178.743 122.815 176.977 130.099 177.126 137.47C177.12 139.955 177.709 142.406 178.841 144.618C179.161 145.201 179.425 145.87 180.033 146.189ZM193.596 122.322C193.536 122.377 193.446 122.421 193.431 122.481C192.119 128.172 189.615 133.365 186.702 138.383C185.09 141.186 183.255 143.854 181.216 146.363C180.717 146.967 180.757 147.087 181.405 147.431C182.432 147.991 183.629 148.151 184.767 147.88C187.341 147.296 189.256 145.745 190.927 143.785C193.371 140.877 195.017 137.525 196.414 134.023C196.528 133.777 196.563 133.501 196.516 133.234C196.469 132.966 196.341 132.72 196.149 132.527C195.1 131.265 194.382 129.762 194.059 128.153C193.762 126.627 193.634 125.073 193.675 123.519C193.752 123.119 193.724 122.707 193.596 122.322ZM196.858 131.983C197.267 131.769 197.247 131.484 197.317 131.28C198.419 127.858 198.898 124.267 198.733 120.676C198.69 119.321 198.422 117.982 197.94 116.715C197.796 116.299 197.571 115.916 197.277 115.588C196.848 115.159 196.578 115.154 196.164 115.588C195.775 116.044 195.49 116.581 195.331 117.159C194.943 118.375 194.728 119.639 194.693 120.915C194.528 123.464 194.369 126.013 195.047 128.522C195.385 129.796 196.003 130.979 196.858 131.983Z" fill="#5596DC"/>
<path d="M191.91 70.213C191.81 72.0435 191.91 73.8691 192.802 75.55C194.498 78.7273 197.042 79.4306 200.01 78.3732C202.189 77.5739 204.099 76.1772 205.521 74.3429C206.305 73.3803 207.018 72.3827 207.726 71.3502C207.881 71.1742 207.961 70.9442 207.948 70.7099C207.935 70.4756 207.83 70.2559 207.656 70.0982C205.596 67.3699 205.427 64.3871 206.659 61.2896C207.023 60.3668 207.656 59.459 208.794 59.454C209.931 59.4491 210.634 60.2621 211.098 61.2597C211.611 62.3913 211.737 63.6604 211.457 64.8709C211.128 66.5086 210.583 68.0953 209.836 69.5895C209.432 70.4025 209.422 70.4574 210.26 70.8065C212.675 71.8761 215.371 72.1368 217.946 71.5497C218.806 71.3512 219.592 70.9117 220.211 70.2828C220.603 69.9467 221.02 69.64 221.458 69.365C221.493 69.3294 221.535 69.3012 221.581 69.2819C221.628 69.2626 221.677 69.2527 221.727 69.2527C221.777 69.2527 221.827 69.2626 221.873 69.2819C221.919 69.3012 221.961 69.3294 221.997 69.365C222.068 69.4377 222.107 69.5353 222.107 69.6369C222.107 69.7384 222.068 69.836 221.997 69.9087C221.711 70.2423 221.405 70.5572 221.079 70.8514C219.847 71.9288 218.48 72.667 216.774 72.6071C215.737 72.5672 214.699 72.5772 213.662 72.5822C212.309 72.5977 210.973 72.2808 209.771 71.6595C208.973 71.2504 208.918 71.2455 208.454 72.0086C207.4 73.6423 206.147 75.1385 204.723 76.4628C203.372 77.8788 201.67 78.9114 199.79 79.4555C196.444 80.3085 193.71 79.6201 191.984 76.2284C191.305 74.8966 190.914 73.4367 190.837 71.9438C190.751 70.0776 190.854 68.2075 191.146 66.3623C191.76 62.1675 193.346 58.3467 195.311 54.6657C196.669 52.0417 198.479 49.6778 200.658 47.6826C201.709 46.7096 202.979 46.0032 204.359 45.6226C204.951 45.4466 205.576 45.4103 206.184 45.5167C206.793 45.6231 207.368 45.8692 207.865 46.2357C208.362 46.6022 208.767 47.0791 209.049 47.6287C209.33 48.1784 209.48 48.7859 209.487 49.4034C209.597 51.5831 208.799 53.4287 207.776 55.2542C206.308 57.9555 204.199 60.2556 201.636 61.953C200.318 62.8603 198.83 63.4915 197.262 63.8085C196.736 63.9436 196.183 63.921 195.67 63.7436C195.157 63.5662 194.708 63.2418 194.379 62.8109C194.296 62.7221 194.234 62.6169 194.196 62.5022C194.158 62.3875 194.144 62.266 194.157 62.1457C194.169 62.0254 194.207 61.9091 194.267 61.8045C194.328 61.6999 194.41 61.6094 194.508 61.539C194.601 61.432 194.726 61.3581 194.865 61.3284C195.003 61.2987 195.148 61.3148 195.276 61.3744C195.551 61.5141 195.466 61.7585 195.396 61.9979C195.216 62.5665 195.606 62.7062 196.03 62.7511C197.028 62.8486 198.034 62.6763 198.942 62.2523C200.792 61.3993 202.464 60.2045 203.87 58.7308C205.539 57.0703 206.902 55.1285 207.896 52.9947C208.484 51.6782 208.686 50.2219 208.479 48.7949C208.3 47.1988 206.484 46.0964 204.883 46.5005C203.649 46.8352 202.517 47.4691 201.586 48.346C198.504 51.1093 196.349 54.516 194.698 58.2819C193.724 60.4639 192.954 62.7315 192.398 65.0555C191.986 66.7418 191.821 68.4792 191.91 70.213ZM207.023 64.9457C207.023 65.2001 206.993 65.644 207.023 66.078C207.111 67.2339 207.518 68.3426 208.2 69.2802C208.414 69.5795 208.724 69.8887 208.998 69.3201C209.966 67.2551 210.849 65.1652 210.609 62.8059C210.561 62.1248 210.311 61.4735 209.891 60.9355C209.267 60.1773 208.654 60.1723 208.015 60.9355C207.823 61.1892 207.655 61.4616 207.517 61.7485C207.059 62.748 206.888 63.8548 207.023 64.9457Z" fill="#B8C4D1"/>
<path d="M247.794 184.017C247.668 183.598 247.388 183.241 247.011 183.019C246.702 182.775 246.422 182.521 246.128 182.241C245.616 181.781 245.225 181.202 244.99 180.554C244.755 179.907 244.684 179.212 244.781 178.53C245.036 178.181 245.28 177.837 245.549 177.483C246.01 176.758 246.664 176.176 247.438 175.803C248.212 175.43 249.075 175.281 249.929 175.373C251.225 175.484 252.511 175.696 253.774 176.006C255.77 176.505 257.73 177.129 259.7 177.702C263.266 178.495 266.818 179.343 270.399 180.062C274.888 180.959 279.293 182.117 283.827 182.715C285.438 182.93 286.495 181.862 286.156 180.286C285.899 179.12 285.535 177.979 285.069 176.879C284.126 174.61 282.664 172.924 280.2 172.156C278.794 171.717 277.452 171.118 275.951 171.078C275.866 171.004 275.786 170.874 275.691 170.854C273.591 170.448 271.464 170.198 269.327 170.106C263.848 170.181 258.42 171.167 253.266 173.024C250.622 174.111 247.914 175.044 245.24 176.061C244.894 176.214 244.519 176.293 244.14 176.293C243.762 176.293 243.387 176.214 243.041 176.061C242.347 174.964 242.731 173.887 243.225 172.889C243.649 172.073 244.192 171.325 244.836 170.669C248.533 166.822 252.75 163.511 257.366 160.833C261.126 158.581 265.206 156.911 269.466 155.88C271.434 155.425 273.436 155.14 275.452 155.027C275.622 155.252 275.781 155.237 275.951 155.027C276.844 155.127 277.697 154.753 278.584 154.813C278.62 154.877 278.671 154.931 278.735 154.969C278.798 155.006 278.87 155.026 278.943 155.026C279.017 155.026 279.089 155.006 279.152 154.969C279.216 154.931 279.267 154.877 279.303 154.813H281.936C281.971 154.877 282.023 154.931 282.087 154.969C282.15 155.006 282.222 155.026 282.295 155.026C282.369 155.026 282.441 155.006 282.504 154.969C282.567 154.931 282.619 154.877 282.654 154.813C287.917 155.227 293.034 156.17 297.883 158.424C302.287 160.474 306.212 163.227 310.123 166.051C312.936 168.081 315.48 170.435 318.288 172.47C320.119 173.797 321.78 175.363 323.475 176.869C328.763 181.548 333.771 186.516 338.664 191.599C341.951 195.015 345.173 198.492 348.28 202.073C349.981 204.023 351.772 205.914 353.503 207.819C356.495 211.071 359.488 214.304 362.406 217.645C364.007 219.476 365.668 221.247 367.289 223.057C369.617 225.664 371.906 228.313 374.158 231.003C375.514 232.619 376.926 234.19 378.347 235.752C380.487 238.111 382.682 240.42 384.832 242.784C386.827 245.004 388.548 247.453 390.418 249.768C392.169 251.937 393.97 254.062 395.695 256.252C396.304 257.02 397.127 257.658 397.376 258.681C396.688 258.796 396.059 258.387 395.381 258.476C393.605 258.721 391.845 258.975 390.209 259.793C388.573 260.611 386.857 261.454 385.221 262.377C380.656 264.915 376.541 268.187 373.04 272.063C370.13 275.297 367.801 279.009 366.157 283.037C365.294 285.147 364.531 287.267 364.546 289.586C363.907 289.179 363.356 288.648 362.925 288.025C362.167 287.097 361.314 286.259 360.486 285.401C357.259 282.039 354.141 278.583 351.183 274.981C349.946 273.485 348.634 272.029 347.313 270.592C345.751 268.891 344.13 267.245 342.559 265.549C339.317 262.058 336.075 258.531 332.813 255.04C330.259 252.306 327.825 249.468 325.251 246.745C322.358 243.672 319.63 240.45 316.732 237.383C314.353 234.889 311.844 232.464 309.37 230.03C306.143 226.963 302.751 224.074 299.209 221.376C295.182 218.191 291.154 215.01 287.124 211.835C284.714 209.944 282.265 208.099 279.831 206.243C279.66 206.145 279.477 206.068 279.288 206.014C278.789 205.181 277.891 204.727 277.153 204.143C274.878 202.348 272.464 200.736 270.09 199.075C267.486 197.255 264.858 195.464 262.164 193.778C258.358 191.394 254.682 188.79 250.996 186.262C249.924 185.498 249.041 184.491 247.794 184.017ZM252.947 180.645C252.223 179.044 250.877 178.221 249.275 177.752C248.784 177.611 248.26 177.632 247.781 177.812C247.303 177.992 246.894 178.32 246.617 178.75C246.053 179.628 246.198 180.451 246.791 181.284C247.69 182.495 248.912 183.429 250.318 183.977C250.847 184.7 251.505 184.361 252.138 184.192C252.453 184.137 252.743 183.988 252.972 183.766C253.201 183.543 253.357 183.257 253.42 182.945C253.555 182.151 253.635 181.309 252.947 180.645ZM266.334 188.626C266.1 188.546 265.835 188.471 265.736 188.78C265.636 189.09 265.855 189.279 266.07 189.474C266.16 189.551 266.267 189.604 266.383 189.629C266.499 189.653 266.62 189.648 266.733 189.613C267.133 189.505 267.484 189.263 267.726 188.927C267.969 188.591 268.088 188.182 268.065 187.768C268.029 187.387 267.849 187.034 267.562 186.782C267.274 186.529 266.901 186.397 266.519 186.411C265.999 186.422 265.494 186.59 265.072 186.894C264.65 187.198 264.33 187.623 264.154 188.112C263.997 188.525 263.968 188.976 264.069 189.406C264.17 189.836 264.398 190.226 264.723 190.526C265.361 191.15 266.219 191.175 267.057 191.065C267.173 191.035 267.279 190.976 267.367 190.895C267.435 190.854 267.487 190.79 267.511 190.713C267.535 190.637 267.53 190.554 267.496 190.481C267.472 190.43 267.437 190.385 267.394 190.348C267.351 190.311 267.301 190.284 267.247 190.267C266.893 190.227 266.524 190.267 266.174 190.197C265.838 190.143 265.532 189.971 265.311 189.711C265.091 189.451 264.97 189.121 264.972 188.78C265.043 188.453 265.197 188.149 265.421 187.9C265.645 187.65 265.931 187.464 266.249 187.359C266.386 187.324 266.529 187.33 266.662 187.376C266.795 187.422 266.912 187.506 266.997 187.618C267.08 187.732 267.128 187.868 267.136 188.008C267.144 188.149 267.111 188.289 267.042 188.411C267.014 188.476 266.972 188.533 266.92 188.58C266.868 188.628 266.806 188.663 266.74 188.685C266.673 188.706 266.602 188.714 266.532 188.706C266.462 188.699 266.395 188.676 266.334 188.641V188.626Z" fill="#FBC998"/>
<path d="M364.546 289.556C364.546 287.237 365.294 285.117 366.157 283.007C367.801 278.979 370.13 275.267 373.04 272.033C376.534 268.154 380.642 264.876 385.201 262.332C386.832 261.409 388.503 260.571 390.189 259.748C391.875 258.925 393.585 258.676 395.361 258.431C396.055 258.342 396.683 258.751 397.356 258.636C397.93 259.05 398.673 259.259 399.057 259.918C399.887 261.327 400.178 262.989 399.875 264.597C399.272 267.953 397.282 270.492 394.967 272.842C390.53 277.434 385.679 281.608 380.477 285.311C378.298 286.838 376.063 288.304 373.828 289.721C372.21 290.737 370.414 291.441 368.536 291.796C367.917 291.958 367.264 291.943 366.652 291.752C366.041 291.56 365.496 291.2 365.08 290.713C364.77 290.354 364.83 289.89 364.546 289.556Z" fill="#EB8146"/>
<path d="M247.794 184.017C249.041 184.491 249.924 185.513 250.997 186.232C254.698 188.77 258.359 191.364 262.164 193.748C264.858 195.434 267.486 197.24 270.09 199.046C272.464 200.706 274.879 202.318 277.153 204.113C277.891 204.697 278.764 205.151 279.288 205.984C277.363 206.63 275.385 207.107 273.377 207.41C272.33 207.615 271.262 207.739 270.205 207.909C270.03 207.705 269.871 207.734 269.706 207.949C269.063 207.974 268.439 208.208 267.786 208.133C266.613 207.829 265.382 207.829 264.209 208.133C262.918 207.999 261.636 207.884 260.508 207.136C260.158 206.908 259.855 206.613 259.619 206.268C259.383 205.923 259.217 205.535 259.131 205.126C259.045 204.716 259.041 204.294 259.119 203.883C259.197 203.472 259.356 203.081 259.586 202.732C260.127 201.809 260.812 200.979 261.616 200.273C261.72 200.222 261.82 200.164 261.915 200.098C262.06 199.993 262.334 199.874 262.154 199.674C261.975 199.474 261.73 199.614 261.586 199.839C260.568 200.125 259.531 200.336 258.483 200.472C258.309 200.263 258.149 200.292 257.985 200.507H256.094C255.949 200.297 255.795 200.258 255.595 200.462C255.057 200.317 254.518 200.183 253.984 200.023C252.139 199.469 250.318 197.11 251.535 194.536C251.824 193.928 252.129 193.334 252.428 192.736C252.333 192.679 252.227 192.646 252.117 192.638C252.007 192.63 251.896 192.648 251.795 192.691C250.432 193.161 248.975 193.293 247.55 193.075C246.629 192.996 245.759 192.62 245.07 192.004C244.381 191.388 243.91 190.565 243.729 189.658C243.624 188.95 243.776 188.228 244.158 187.623C245.061 186.092 246.457 185.089 247.794 184.017Z" fill="#ECA26D"/>
<path d="M259.7 177.712C257.705 177.139 255.77 176.515 253.774 176.016C252.511 175.706 251.225 175.494 249.929 175.383C249.075 175.291 248.212 175.44 247.438 175.813C246.664 176.186 246.01 176.767 245.549 177.493C245.3 177.847 245.051 178.191 244.781 178.54C243.539 178.186 243.145 177.238 243.045 176.081C243.391 176.234 243.765 176.313 244.143 176.313C244.521 176.313 244.894 176.234 245.24 176.081C247.914 175.084 250.622 174.131 253.266 173.044C258.42 171.187 263.848 170.2 269.327 170.126C271.464 170.218 273.591 170.468 275.691 170.874C275.786 170.874 275.866 171.023 275.951 171.098C275.921 171.258 275.886 171.457 275.711 171.472C274.968 171.593 274.237 171.778 273.526 172.026C268.967 173.276 264.542 174.97 260.314 177.084C260.039 177.208 259.685 177.293 259.7 177.712Z" fill="#EB8146"/>
<path d="M264.229 208.119C265.402 207.814 266.633 207.814 267.805 208.119C266.64 208.478 265.394 208.478 264.229 208.119Z" fill="#ECA26D"/>
<path d="M261.581 199.839C261.725 199.614 261.955 199.464 262.149 199.674C262.344 199.883 262.054 199.993 261.91 200.098C261.815 200.164 261.715 200.222 261.61 200.272L261.581 199.839Z" fill="#ECA26D"/>
<path d="M279.303 154.763C279.268 154.827 279.216 154.881 279.152 154.919C279.089 154.956 279.017 154.976 278.944 154.976C278.87 154.976 278.798 154.956 278.735 154.919C278.672 154.881 278.62 154.827 278.584 154.763C278.819 154.484 279.038 154.479 279.303 154.763Z" fill="#FDE5CE"/>
<path d="M282.654 154.778C282.619 154.842 282.567 154.896 282.504 154.934C282.441 154.971 282.369 154.991 282.295 154.991C282.222 154.991 282.15 154.971 282.086 154.934C282.023 154.896 281.971 154.842 281.936 154.778C281.971 154.713 282.023 154.659 282.086 154.622C282.15 154.584 282.222 154.565 282.295 154.565C282.369 154.565 282.441 154.584 282.504 154.622C282.567 154.659 282.619 154.713 282.654 154.778Z" fill="#FDE5CE"/>
<path d="M275.951 154.997C275.801 155.227 275.642 155.242 275.452 154.997C275.627 154.788 275.786 154.773 275.951 154.997Z" fill="#FDE5CE"/>
<path d="M255.595 200.462C255.775 200.258 255.929 200.297 256.094 200.507C255.899 200.736 255.745 200.677 255.595 200.462Z" fill="#ECA26D"/>
<path d="M257.994 200.507C258.139 200.292 258.298 200.263 258.493 200.472C258.328 200.682 258.174 200.736 257.994 200.507Z" fill="#ECA26D"/>
<path d="M269.726 207.939C269.871 207.724 270.03 207.694 270.225 207.899C270.06 208.108 269.906 208.138 269.726 207.939Z" fill="#ECA26D"/>
<path d="M259.7 177.712C259.7 177.288 260.039 177.213 260.314 177.074C264.55 174.958 268.984 173.264 273.552 172.016C274.262 171.768 274.993 171.583 275.736 171.462C275.911 171.462 275.946 171.248 275.976 171.088C277.472 171.128 278.819 171.727 280.225 172.166C282.689 172.934 284.151 174.62 285.094 176.889C285.56 177.989 285.924 179.129 286.181 180.296C286.52 181.872 285.463 182.94 283.852 182.725C279.318 182.127 274.873 180.969 270.424 180.071C266.818 179.353 263.267 178.505 259.7 177.712Z" fill="#EB8146"/>
<path d="M250.318 183.997C248.913 183.449 247.69 182.515 246.792 181.304C246.198 180.471 246.053 179.648 246.617 178.77C246.895 178.34 247.303 178.012 247.782 177.832C248.26 177.652 248.784 177.631 249.276 177.772C250.877 178.241 252.223 179.064 252.947 180.665C252.429 180.665 251.922 180.815 251.488 181.097C251.054 181.38 250.712 181.782 250.503 182.256C250.208 182.78 250.393 183.413 250.318 183.997Z" fill="#ECA26C"/>
<path d="M266.334 188.641C266.396 188.672 266.463 188.69 266.532 188.695C266.601 188.699 266.669 188.688 266.734 188.665C266.799 188.641 266.858 188.604 266.908 188.556C266.957 188.508 266.996 188.45 267.023 188.386C267.091 188.264 267.124 188.124 267.116 187.983C267.108 187.843 267.06 187.707 266.978 187.593C266.892 187.482 266.776 187.397 266.643 187.351C266.51 187.305 266.366 187.299 266.229 187.334C265.911 187.439 265.626 187.625 265.402 187.875C265.178 188.124 265.023 188.428 264.953 188.755C264.951 189.096 265.071 189.426 265.291 189.686C265.512 189.946 265.818 190.118 266.155 190.172C266.504 190.232 266.873 190.202 267.227 190.242C267.281 190.259 267.331 190.286 267.374 190.323C267.417 190.36 267.452 190.405 267.476 190.456C267.51 190.529 267.515 190.612 267.491 190.688C267.467 190.765 267.416 190.83 267.347 190.87C267.259 190.951 267.153 191.01 267.038 191.04C266.195 191.15 265.342 191.125 264.703 190.501C264.378 190.202 264.151 189.811 264.049 189.381C263.948 188.951 263.978 188.5 264.135 188.087C264.31 187.598 264.63 187.173 265.052 186.869C265.474 186.566 265.979 186.397 266.499 186.386C266.888 186.367 267.27 186.501 267.563 186.759C267.855 187.017 268.036 187.379 268.065 187.768C268.099 188.186 267.987 188.602 267.748 188.946C267.508 189.29 267.157 189.54 266.753 189.653C266.64 189.688 266.52 189.693 266.404 189.669C266.288 189.644 266.18 189.591 266.09 189.514C265.875 189.334 265.631 189.145 265.756 188.82C265.88 188.496 266.1 188.561 266.334 188.641Z" fill="#EC874D"/>
<path d="M250.318 183.997C250.393 183.413 250.208 182.8 250.502 182.236C250.711 181.763 251.054 181.36 251.488 181.077C251.922 180.795 252.429 180.645 252.947 180.645C253.635 181.309 253.555 182.142 253.42 182.965C253.357 183.277 253.201 183.563 252.972 183.786C252.743 184.008 252.453 184.157 252.138 184.211C251.505 184.381 250.847 184.72 250.318 183.997Z" fill="#EB8247"/>
<path d="M345.906 139.924C345.387 140.356 344.796 140.694 344.16 140.921C339.671 142.917 335.087 144.538 330.543 146.328C324.259 148.809 318.032 151.433 311.864 154.199C300.691 159.237 289.722 164.674 278.779 170.2C275.946 171.627 273.033 172.879 270.145 174.191C267.711 175.293 265.406 176.64 263.062 177.917C262.8 178.091 262.5 178.202 262.188 178.24C261.875 178.278 261.558 178.243 261.261 178.136C260.349 177.797 259.356 177.707 258.458 177.308C258.957 176.515 259.855 176.47 260.588 176.101C264.314 174.206 268.12 172.47 271.896 170.669C273.941 169.672 275.936 168.609 277.936 167.532C279.409 166.744 280.862 165.913 282.295 165.038C285.498 163.108 288.695 161.162 292.062 159.551C294.456 158.394 296.885 157.287 299.329 156.219C303.629 154.341 307.978 152.59 312.378 150.967C317.301 149.147 322.159 147.166 327.037 145.246C331.696 143.41 336.324 141.5 340.958 139.6C341.731 139.285 342.455 138.871 343.208 138.487C343.522 138.328 343.986 138.083 343.806 137.729C343.582 137.29 343.178 137.699 342.889 137.834C342.599 137.969 342.29 138.248 341.966 138.378C337.729 140.097 333.49 141.806 329.247 143.505C326.37 144.652 323.487 145.79 320.598 146.917C316.931 148.348 313.275 149.795 309.589 151.162C305.225 152.788 300.95 154.618 296.705 156.509C293.662 157.802 290.698 159.272 287.827 160.913C285.054 162.552 282.264 164.162 279.457 165.741C277.417 166.893 275.382 168.076 273.267 169.083C270.968 170.181 268.698 171.343 266.374 172.385C263.616 173.627 260.917 175.009 258.194 176.326C257.975 176.417 257.75 176.494 257.521 176.555C257.38 176.594 257.232 176.6 257.088 176.573C256.945 176.546 256.809 176.485 256.693 176.397C256.577 176.309 256.482 176.194 256.417 176.063C256.352 175.933 256.318 175.788 256.318 175.642C256.257 175.306 256.179 174.973 256.084 174.645C258.909 173.023 261.814 171.545 264.788 170.215C268.459 168.47 272.115 166.694 275.701 164.794C279.921 162.564 284.086 160.23 288.391 158.175C292.695 156.12 297.209 154.129 301.619 152.114C305.235 150.463 308.861 148.827 312.467 147.156C316.727 145.161 320.987 143.221 325.291 141.35C328.828 139.809 332.394 138.358 336.035 137.091C338.1 136.372 340.17 135.669 342.185 134.821C342.439 134.708 342.715 134.652 342.993 134.657C343.597 136.028 344.195 137.405 344.799 138.777C344.884 139.039 345.028 139.279 345.22 139.478C345.412 139.677 345.647 139.829 345.906 139.924Z" fill="#323E4C"/>
<path d="M252.732 175.682C251.62 175.682 250.553 175.273 249.396 175.233C250.049 174.894 250.692 174.54 251.351 174.211C262.738 168.48 274.135 162.763 285.732 157.466C299.768 151.055 313.776 144.588 327.755 138.063C332.07 136.043 336.414 134.073 340.809 132.257C341.103 132.138 341.407 132.048 341.712 131.943L342.21 132.068L342.709 133.938C341.762 133.988 341.013 134.587 340.15 134.876C337.357 135.804 334.574 136.762 331.821 137.794C328.578 139.006 325.411 140.393 322.249 141.784C320.214 142.692 318.199 143.645 316.174 144.568C312.807 146.104 309.43 147.62 306.068 149.156C303.858 150.154 301.674 151.226 299.449 152.204C295.552 153.92 291.686 155.701 287.852 157.546C284.046 159.382 280.345 161.417 276.605 163.372C272.051 165.761 267.427 168.016 262.813 170.295C259.82 171.792 256.872 173.383 253.79 174.705C253.371 174.904 252.737 174.974 252.732 175.682Z" fill="#36424F"/>
<path d="M252.732 175.682C252.732 174.974 253.371 174.904 253.8 174.72C256.882 173.398 259.82 171.792 262.823 170.31C267.437 168.031 272.061 165.776 276.615 163.387C280.355 161.432 284.056 159.397 287.862 157.561C291.668 155.726 295.564 153.935 299.459 152.219C301.684 151.222 303.868 150.179 306.078 149.171C309.44 147.635 312.817 146.119 316.184 144.583C318.209 143.66 320.224 142.707 322.259 141.799C325.421 140.393 328.588 139.006 331.831 137.809C334.584 136.777 337.367 135.814 340.16 134.891C341.023 134.602 341.771 134.003 342.719 133.953C342.81 134.049 342.881 134.162 342.928 134.285C342.975 134.408 342.998 134.54 342.993 134.672C342.715 134.667 342.44 134.723 342.185 134.836C340.19 135.684 338.1 136.387 336.035 137.106C332.394 138.378 328.828 139.824 325.291 141.365C320.987 143.236 316.727 145.196 312.468 147.171C308.861 148.842 305.235 150.478 301.619 152.129C297.21 154.124 292.77 156.12 288.391 158.19C284.012 160.26 279.912 162.579 275.702 164.809C272.115 166.709 268.459 168.485 264.788 170.23C261.818 171.555 258.916 173.028 256.094 174.645C255.519 174.771 254.973 175.008 254.488 175.343C253.989 175.65 253.391 175.753 252.817 175.632L252.732 175.682Z" fill="#404D5C"/>
<path d="M257.521 176.56C257.75 176.499 257.975 176.422 258.194 176.331C260.917 175.014 263.616 173.632 266.374 172.39C268.698 171.348 270.968 170.186 273.267 169.088C275.382 168.091 277.417 166.899 279.457 165.746C282.261 164.167 285.05 162.557 287.827 160.918C290.698 159.277 293.662 157.807 296.705 156.514C300.95 154.623 305.225 152.793 309.589 151.167C313.275 149.8 316.931 148.354 320.598 146.922C323.484 145.801 326.367 144.664 329.247 143.51C333.49 141.811 337.729 140.102 341.966 138.383C342.29 138.253 342.564 137.989 342.889 137.839C343.213 137.689 343.582 137.295 343.806 137.734C343.986 138.088 343.522 138.333 343.208 138.492C342.465 138.877 341.711 139.291 340.958 139.605C336.324 141.505 331.696 143.416 327.037 145.251C322.159 147.171 317.301 149.152 312.378 150.972C307.978 152.598 303.629 154.349 299.329 156.224C296.885 157.292 294.456 158.399 292.062 159.556C288.695 161.182 285.498 163.128 282.295 165.043C280.862 165.904 279.409 166.736 277.936 167.537C275.941 168.614 273.946 169.697 271.896 170.674C268.12 172.475 264.314 174.211 260.588 176.106C259.855 176.475 258.942 176.52 258.458 177.313L257.75 177.009L257.521 176.56Z" fill="#404D5C"/>
<path d="M355.448 135.864C353.505 136.801 351.506 137.618 349.463 138.308C349.5 138.031 349.444 137.75 349.303 137.51C347.946 135.515 347.258 133.24 346.659 130.941C346.61 130.553 346.435 130.192 346.161 129.913C346.477 129.676 346.839 129.507 347.223 129.414C349.054 128.806 350.829 128.058 352.6 127.3C352.211 128.068 351.707 128.796 351.882 129.739C352.361 132.213 353.174 134.462 355.448 135.864Z" fill="#EB8248"/>
<path d="M240.991 187.768C239.613 188.263 238.209 188.684 236.786 189.03C235.819 189.269 234.82 189.349 233.828 189.269C232.162 189.155 231.369 187.688 232.097 186.326C232.558 185.486 233.196 184.755 233.968 184.187C235.163 183.264 236.45 182.467 237.808 181.807C239.18 181.892 239.305 181.897 239.305 182.775C239.305 183.653 240.522 183.528 240.497 184.351C240.478 184.507 240.44 184.659 240.382 184.805C240.332 184.902 240.302 185.009 240.295 185.118C240.287 185.227 240.302 185.337 240.339 185.44C240.375 185.543 240.432 185.638 240.507 185.719C240.581 185.799 240.671 185.863 240.771 185.907C241.455 186.252 241.579 186.696 241.071 187.304C240.971 187.389 241.011 187.593 240.991 187.768Z" fill="#34404E"/>
<path d="M346.165 129.908C346.439 130.187 346.615 130.548 346.664 130.936C347.263 133.235 347.951 135.505 349.308 137.505C349.449 137.745 349.505 138.026 349.467 138.303C349.447 138.4 349.402 138.491 349.338 138.566C349.273 138.642 349.191 138.701 349.098 138.737C348.071 139.236 347.103 139.839 345.891 139.919C345.632 139.824 345.397 139.672 345.205 139.473C345.013 139.274 344.869 139.034 344.784 138.772C344.18 137.4 343.582 136.023 342.978 134.652C342.982 134.52 342.96 134.388 342.913 134.265C342.866 134.142 342.795 134.029 342.704 133.933L342.205 132.063L342.25 131.699C342.943 130.831 344.071 130.701 344.923 130.128C345.292 129.894 345.739 129.815 346.165 129.908Z" fill="#B2BECB"/>
<path d="M355.448 135.864C353.174 134.462 352.346 132.213 351.887 129.754C351.712 128.826 352.216 128.083 352.605 127.315C354.341 126.566 354.53 126.816 355.368 127.858C356.648 129.356 357.356 131.26 357.363 133.23C357.348 134.737 356.924 135.32 355.448 135.864Z" fill="#FBC898"/>
<path d="M240.991 187.768C240.991 187.613 240.991 187.409 241.056 187.304C241.554 186.696 241.44 186.252 240.756 185.907C240.656 185.863 240.566 185.799 240.492 185.719C240.417 185.638 240.36 185.543 240.324 185.44C240.287 185.337 240.272 185.227 240.28 185.118C240.287 185.009 240.317 184.902 240.367 184.805C240.425 184.659 240.463 184.507 240.482 184.351C240.482 183.528 239.275 183.708 239.29 182.775C239.305 181.842 239.18 181.892 237.793 181.807C238.114 181.443 238.548 181.197 239.025 181.109C239.133 181.159 239.234 181.219 239.33 181.289C240.257 182.097 240.228 182.047 241.27 181.443C242.313 180.84 243.35 179.987 244.607 179.688C244.732 179.907 244.791 180.158 244.777 180.411C243.28 181.074 241.993 182.027 240.517 182.905C240.958 183.344 241.271 183.896 241.42 184.501C242.043 184.197 242.567 183.912 243.111 183.688C244.108 183.269 245.106 182.69 246.233 182.595C246.273 182.752 246.255 182.917 246.182 183.061C246.11 183.205 245.988 183.317 245.839 183.379C245.37 183.583 244.906 183.813 244.437 184.017C243.709 184.331 242.976 184.631 242.248 184.945C241.824 185.134 241.584 185.389 241.953 185.853C242.322 186.316 242.123 186.85 242.168 187.349C241.843 187.634 241.422 187.784 240.991 187.768Z" fill="#465361"/>
<path d="M242.193 187.314C242.148 186.815 242.338 186.267 241.979 185.818C241.619 185.369 241.849 185.099 242.273 184.91C243.001 184.596 243.734 184.296 244.462 183.982C244.931 183.778 245.395 183.548 245.864 183.344C246.013 183.283 246.135 183.17 246.207 183.026C246.28 182.882 246.298 182.717 246.258 182.561L248.712 184.436C247.994 185.064 243.794 186.9 242.193 187.314Z" fill="#384452"/>
<path d="M246.248 182.551C245.116 182.645 244.148 183.224 243.125 183.643C242.582 183.867 242.058 184.142 241.435 184.456C241.285 183.851 240.973 183.299 240.532 182.86C242.028 182.007 243.31 181.054 244.791 180.366C245.225 181.127 245.712 181.858 246.248 182.551Z" fill="#36424F"/>
<path d="M244.622 179.668C243.365 179.967 242.372 180.795 241.285 181.423C240.198 182.052 240.287 182.077 239.345 181.269C239.249 181.199 239.148 181.139 239.041 181.089C240.846 179.857 242.881 179.024 244.687 177.802C244.906 177.652 245.126 178.032 245.31 177.757C244.896 178.321 244.901 179.049 244.622 179.668Z" fill="#3A4654"/>
<path d="M257.521 176.56L257.75 177.004C256.079 176.637 254.429 176.179 252.807 175.632C253.381 175.753 253.979 175.65 254.478 175.343C254.963 175.008 255.508 174.771 256.084 174.645C256.179 174.973 256.257 175.306 256.319 175.642C256.318 175.789 256.351 175.934 256.416 176.065C256.48 176.197 256.575 176.312 256.691 176.4C256.808 176.489 256.943 176.55 257.087 176.578C257.231 176.606 257.38 176.599 257.521 176.56Z" fill="#36424F"/>
<path d="M342.255 131.704L342.21 132.068L341.711 131.943C341.831 131.724 342.046 131.714 342.255 131.704Z" fill="#767F8A"/>
<path d="M245.31 177.757L245.335 177.727L245.315 177.757H245.31Z" fill="#3A4654"/>
<path d="M149.004 151.745C145.303 154.284 141.641 156.873 137.836 159.262C135.142 160.948 132.514 162.754 129.91 164.559C127.536 166.215 125.122 167.826 122.847 169.627C122.109 170.21 121.236 170.659 120.712 171.492C120.523 171.547 120.34 171.624 120.169 171.722C117.734 173.582 115.285 175.428 112.876 177.313C108.836 180.479 104.807 183.66 100.791 186.855C97.2491 189.555 93.8573 192.445 90.6302 195.514C88.1362 197.948 85.6423 200.347 83.268 202.866C80.3701 205.934 77.6417 209.156 74.7487 212.224C72.1799 214.947 69.7608 217.79 67.187 220.518C63.92 224.01 60.7028 227.502 57.4407 231.033C55.8695 232.729 54.2484 234.375 52.6872 236.076C51.3654 237.512 50.0536 238.959 48.8166 240.465C45.8588 244.066 42.7413 247.518 39.5141 250.88C38.6862 251.743 37.8332 252.576 37.0751 253.508C36.6413 254.129 36.0907 254.66 35.454 255.07C35.454 252.75 34.7058 250.625 33.8429 248.521C32.1996 244.493 29.8707 240.78 26.9596 237.547C23.465 233.669 19.3567 230.391 14.7991 227.846C13.168 226.923 11.4971 226.09 9.81118 225.262C8.16911 224.548 6.42236 224.105 4.63872 223.95C3.9454 223.855 3.31692 224.264 2.64355 224.15C2.89295 223.152 3.71596 222.489 4.32448 221.721C6.0503 219.536 7.85093 217.411 9.60168 215.236C11.4721 212.912 13.188 210.458 15.1881 208.253C17.3279 205.889 19.5226 203.575 21.6724 201.22C23.094 199.659 24.5055 198.088 25.8623 196.472C28.1135 193.788 30.4029 191.138 32.7306 188.521C34.3517 186.71 36.0126 184.94 37.6138 183.114C40.5217 179.787 43.5244 176.54 46.5172 173.288C48.2679 171.378 50.0386 169.492 51.7395 167.537C54.847 163.961 58.0692 160.484 61.3562 157.062C66.2493 151.98 71.2572 147.012 76.5443 142.328C78.2402 140.832 79.9012 139.256 81.7318 137.929C84.54 135.894 87.0838 133.539 89.897 131.509C93.8075 128.691 97.733 125.933 102.137 123.888C106.986 121.633 112.113 120.691 117.365 120.277C117.401 120.341 117.452 120.395 117.516 120.432C117.579 120.47 117.651 120.49 117.724 120.49C117.798 120.49 117.87 120.47 117.933 120.432C117.997 120.395 118.048 120.341 118.084 120.277H120.717C120.947 120.571 121.186 120.571 121.435 120.277C122.323 120.217 123.176 120.591 124.069 120.491C124.219 120.725 124.378 120.735 124.568 120.491C126.583 120.609 128.585 120.894 130.553 121.344C134.815 122.374 138.895 124.046 142.654 126.302C147.273 128.986 151.491 132.307 155.184 136.168C155.828 136.822 156.371 137.569 156.795 138.383C157.294 139.38 157.673 140.458 156.979 141.56C156.633 141.712 156.258 141.79 155.879 141.79C155.501 141.79 155.126 141.712 154.78 141.56C152.106 140.562 149.398 139.605 146.754 138.522C144.054 137.479 141.245 136.746 138.379 136.338C135.848 135.841 133.273 135.603 130.693 135.629C128.556 135.719 126.428 135.969 124.328 136.378C124.234 136.378 124.154 136.522 124.069 136.602C122.573 136.637 121.226 137.24 119.819 137.674C117.355 138.447 115.894 140.133 114.951 142.403C114.485 143.501 114.121 144.64 113.864 145.805C113.525 147.386 114.582 148.448 116.193 148.239C120.727 147.64 125.146 146.483 129.621 145.585C133.202 144.867 136.753 144.014 140.32 143.226C142.29 142.652 144.25 142.024 146.245 141.525C147.509 141.217 148.795 141.005 150.091 140.892C150.945 140.801 151.807 140.95 152.581 141.323C153.355 141.696 154.009 142.277 154.47 143.001C154.72 143.356 154.969 143.705 155.239 144.054C155.335 144.735 155.263 145.43 155.028 146.077C154.794 146.725 154.403 147.304 153.892 147.765C153.598 148.024 153.318 148.299 153.009 148.538C152.632 148.761 152.353 149.117 152.226 149.536C150.959 149.999 150.076 151.007 149.004 151.745ZM146.58 148.478C146.642 148.791 146.798 149.077 147.027 149.299C147.256 149.521 147.547 149.668 147.861 149.72C148.495 149.89 149.153 150.219 149.682 149.506C151.086 148.958 152.308 148.026 153.208 146.817C153.802 145.979 153.947 145.156 153.383 144.278C153.104 143.851 152.695 143.523 152.217 143.344C151.739 143.165 151.216 143.142 150.724 143.281C149.123 143.75 147.777 144.578 147.053 146.174C146.36 146.817 146.445 147.66 146.58 148.478ZM132.978 153.9C132.908 153.777 132.876 153.636 132.884 153.494C132.891 153.353 132.94 153.217 133.022 153.102C133.108 152.99 133.224 152.906 133.358 152.861C133.491 152.815 133.635 152.811 133.771 152.848C134.089 152.952 134.374 153.139 134.598 153.388C134.822 153.638 134.977 153.941 135.047 154.269C135.048 154.61 134.928 154.939 134.707 155.199C134.487 155.459 134.182 155.631 133.845 155.686C133.496 155.746 133.127 155.711 132.773 155.751C132.665 155.787 132.575 155.864 132.524 155.965C132.49 156.038 132.485 156.12 132.509 156.197C132.533 156.273 132.584 156.338 132.653 156.379C132.74 156.462 132.846 156.52 132.963 156.549C133.806 156.658 134.658 156.633 135.297 156.01C135.625 155.714 135.857 155.326 135.962 154.896C136.067 154.466 136.04 154.015 135.885 153.601C135.709 153.111 135.389 152.686 134.968 152.382C134.546 152.077 134.041 151.907 133.521 151.895C133.141 151.888 132.771 152.023 132.485 152.274C132.199 152.525 132.017 152.873 131.975 153.252C131.941 153.67 132.053 154.087 132.292 154.432C132.531 154.777 132.883 155.028 133.287 155.142C133.401 155.174 133.521 155.178 133.637 155.153C133.752 155.128 133.86 155.074 133.95 154.997C134.165 154.823 134.409 154.633 134.284 154.304C134.16 153.975 133.92 154.07 133.686 154.154C133.624 154.189 133.555 154.21 133.483 154.216C133.412 154.222 133.341 154.213 133.274 154.188C133.207 154.164 133.145 154.126 133.094 154.076C133.043 154.027 133.003 153.966 132.978 153.9Z" fill="#FBC998"/>
<path d="M35.4542 255.07C35.4542 252.75 34.706 250.625 33.8431 248.521C32.1997 244.493 29.8709 240.78 26.9598 237.547C23.4651 233.669 19.3569 230.391 14.7992 227.846C13.1682 226.923 11.4972 226.09 9.81134 225.262C8.16927 224.548 6.42252 224.105 4.63888 223.95C3.94556 223.855 3.31709 224.264 2.64372 224.15C2.07011 224.569 1.32691 224.778 0.942844 225.432C0.113116 226.841 -0.177516 228.503 0.124828 230.11C0.728364 233.467 2.71854 236.011 5.03293 238.36C9.47156 242.951 14.3218 247.125 19.5228 250.83C21.7025 252.356 23.9371 253.823 26.1717 255.239C27.7903 256.257 29.5853 256.963 31.4638 257.319C32.084 257.48 32.7368 257.463 33.3479 257.271C33.959 257.078 34.5038 256.719 34.9204 256.232C35.2297 255.868 35.1649 255.399 35.4542 255.07Z" fill="#EB8146"/>
<path d="M152.206 149.526C150.959 149.999 150.076 151.022 149.004 151.745C145.303 154.284 141.642 156.873 137.836 159.262C135.142 160.948 132.514 162.754 129.91 164.559C127.536 166.215 125.122 167.826 122.847 169.627C122.109 170.21 121.236 170.659 120.712 171.492C122.638 172.138 124.615 172.617 126.623 172.924C127.671 173.123 128.738 173.248 129.795 173.423C129.97 173.223 130.13 173.248 130.294 173.463C130.938 173.463 131.561 173.722 132.215 173.647C133.387 173.34 134.618 173.34 135.791 173.647C137.083 173.512 138.365 173.393 139.492 172.625C140.197 172.171 140.693 171.456 140.871 170.637C141.05 169.818 140.896 168.961 140.445 168.255C139.904 167.334 139.218 166.505 138.414 165.801C138.311 165.749 138.211 165.691 138.115 165.627C137.971 165.517 137.696 165.397 137.876 165.203C138.055 165.008 138.3 165.138 138.444 165.362C139.461 165.651 140.498 165.862 141.547 165.996C141.721 165.786 141.881 165.816 142.046 166.036H143.956C144.101 165.821 144.255 165.781 144.455 165.991C144.994 165.841 145.532 165.706 146.066 165.547C147.911 164.993 149.732 162.634 148.515 160.06C148.226 159.457 147.921 158.863 147.622 158.264C147.717 158.207 147.823 158.173 147.933 158.164C148.043 158.156 148.153 158.173 148.256 158.215C149.618 158.689 151.075 158.822 152.5 158.604C153.422 158.524 154.293 158.147 154.982 157.53C155.671 156.913 156.141 156.089 156.321 155.182C156.426 154.474 156.274 153.752 155.892 153.147C154.939 151.606 153.543 150.598 152.206 149.526Z" fill="#ECA26D"/>
<path d="M140.3 143.226C142.27 142.652 144.23 142.024 146.226 141.525C147.49 141.217 148.775 141.005 150.071 140.892C150.925 140.801 151.788 140.95 152.561 141.323C153.335 141.696 153.989 142.277 154.451 143.001C154.7 143.356 154.949 143.705 155.219 144.054C156.461 143.7 156.855 142.752 156.955 141.595C156.609 141.747 156.235 141.825 155.857 141.825C155.48 141.825 155.106 141.747 154.76 141.595C152.086 140.597 149.378 139.64 146.734 138.557C144.042 137.504 141.24 136.759 138.38 136.338C135.848 135.841 133.273 135.603 130.693 135.629C128.556 135.719 126.429 135.969 124.329 136.378C124.234 136.378 124.154 136.522 124.069 136.602C124.099 136.757 124.134 136.961 124.309 136.971C125.052 137.091 125.784 137.278 126.493 137.53C131.053 138.777 135.479 140.471 139.706 142.588C139.961 142.717 140.315 142.802 140.3 143.226Z" fill="#ECA36C"/>
<path d="M135.771 173.632C134.598 173.325 133.367 173.325 132.194 173.632C133.359 173.991 134.606 173.991 135.771 173.632Z" fill="#ECA26D"/>
<path d="M138.424 165.347C138.28 165.123 138.05 164.978 137.856 165.188C137.661 165.397 137.95 165.502 138.095 165.612C138.191 165.676 138.291 165.734 138.394 165.786L138.424 165.347Z" fill="#ECA26D"/>
<path d="M120.697 120.272C120.927 120.566 121.166 120.566 121.416 120.272C121.38 120.207 121.328 120.153 121.265 120.116C121.202 120.078 121.13 120.058 121.056 120.058C120.983 120.058 120.911 120.078 120.848 120.116C120.784 120.153 120.732 120.207 120.697 120.272Z" fill="#FDE5CE"/>
<path d="M117.346 120.292C117.381 120.356 117.433 120.41 117.496 120.448C117.559 120.485 117.631 120.505 117.705 120.505C117.778 120.505 117.85 120.485 117.914 120.448C117.977 120.41 118.029 120.356 118.064 120.292C117.815 119.992 117.575 119.992 117.346 120.292Z" fill="#FDE5CE"/>
<path d="M124.049 120.506C124.199 120.74 124.359 120.75 124.548 120.506C124.374 120.297 124.214 120.282 124.049 120.506Z" fill="#FDE5CE"/>
<path d="M144.395 165.976C144.215 165.766 144.061 165.806 143.896 166.021C144.101 166.225 144.255 166.19 144.395 165.976Z" fill="#ECA26D"/>
<path d="M142.006 166.021C141.861 165.801 141.701 165.771 141.507 165.981C141.671 166.19 141.826 166.22 142.006 166.021Z" fill="#ECA26D"/>
<path d="M130.274 173.448C130.13 173.233 129.97 173.208 129.775 173.408C129.94 173.617 130.095 173.647 130.274 173.448Z" fill="#ECA26D"/>
<path d="M140.3 143.226C140.3 142.802 139.961 142.727 139.686 142.588C135.459 140.471 131.033 138.777 126.474 137.53C125.764 137.278 125.032 137.091 124.289 136.971C124.114 136.971 124.079 136.757 124.049 136.602C122.553 136.637 121.206 137.24 119.8 137.674C117.336 138.448 115.874 140.133 114.931 142.403C114.466 143.501 114.102 144.64 113.844 145.805C113.505 147.386 114.562 148.448 116.173 148.239C120.707 147.64 125.127 146.483 129.601 145.585C133.182 144.872 136.734 144.014 140.3 143.226Z" fill="#EB8146"/>
<path d="M149.682 149.506C151.086 148.958 152.308 148.026 153.209 146.817C153.802 145.979 153.947 145.156 153.383 144.278C153.104 143.851 152.696 143.524 152.218 143.344C151.739 143.165 151.216 143.143 150.725 143.281C149.124 143.75 147.777 144.578 147.054 146.174C147.572 146.173 148.08 146.324 148.514 146.607C148.948 146.891 149.29 147.295 149.498 147.77C149.792 148.309 149.608 148.922 149.682 149.506Z" fill="#ECA26C"/>
<path d="M133.666 154.154C133.605 154.186 133.538 154.204 133.469 154.208C133.4 154.212 133.331 154.202 133.266 154.178C133.202 154.154 133.143 154.117 133.093 154.069C133.043 154.021 133.004 153.964 132.978 153.9C132.909 153.777 132.876 153.636 132.884 153.494C132.892 153.353 132.94 153.217 133.023 153.102C133.108 152.99 133.225 152.906 133.358 152.861C133.491 152.815 133.635 152.811 133.771 152.848C134.089 152.953 134.375 153.139 134.599 153.388C134.823 153.638 134.978 153.941 135.048 154.269C135.049 154.61 134.928 154.939 134.708 155.199C134.488 155.459 134.182 155.631 133.846 155.686C133.497 155.746 133.128 155.711 132.773 155.751C132.665 155.787 132.576 155.864 132.524 155.965C132.491 156.038 132.485 156.121 132.509 156.197C132.533 156.273 132.585 156.338 132.654 156.379C132.74 156.462 132.847 156.52 132.963 156.549C133.806 156.658 134.659 156.633 135.297 156.01C135.626 155.714 135.857 155.326 135.962 154.896C136.067 154.466 136.041 154.015 135.886 153.601C135.71 153.111 135.39 152.686 134.968 152.382C134.546 152.077 134.042 151.908 133.522 151.895C133.141 151.888 132.772 152.023 132.486 152.274C132.199 152.525 132.018 152.873 131.975 153.252C131.941 153.67 132.053 154.087 132.292 154.432C132.532 154.777 132.883 155.028 133.287 155.142C133.401 155.175 133.521 155.178 133.637 155.153C133.753 155.128 133.86 155.074 133.951 154.997C134.165 154.823 134.409 154.633 134.285 154.304C134.16 153.975 133.891 154.07 133.666 154.154Z" fill="#EC874D"/>
<path d="M149.682 149.506C149.607 148.922 149.792 148.309 149.498 147.75C149.29 147.275 148.948 146.871 148.514 146.587C148.079 146.304 147.572 146.153 147.053 146.154C146.365 146.817 146.445 147.65 146.58 148.478C146.642 148.791 146.798 149.077 147.027 149.299C147.256 149.521 147.547 149.668 147.862 149.72C148.495 149.89 149.153 150.229 149.682 149.506Z" fill="#EB8247"/>
<path d="M54.084 105.438C54.6028 105.87 55.1937 106.208 55.8298 106.435C60.3189 108.43 64.9028 110.051 69.4467 111.847C75.7315 114.324 81.9581 116.948 88.1264 119.718C99.2993 124.751 110.268 130.193 121.211 135.719C124.044 137.146 126.957 138.393 129.845 139.709C132.279 140.807 134.584 142.153 136.928 143.435C137.191 143.609 137.49 143.719 137.803 143.756C138.116 143.793 138.433 143.757 138.729 143.65C139.642 143.311 140.634 143.226 141.532 142.827C141.033 142.029 140.135 141.984 139.402 141.615C135.676 139.724 131.87 137.984 128.1 136.183C126.049 135.21 124.054 134.123 122.054 133.051C120.558 132.257 119.126 131.439 117.695 130.557C114.492 128.626 111.295 126.681 107.928 125.07C105.534 123.913 103.105 122.81 100.661 121.743C96.3615 119.864 92.012 118.113 87.6127 116.491C82.6896 114.665 77.8314 112.69 72.9532 110.765C68.2945 108.934 63.6657 107.019 59.032 105.118C58.2589 104.804 57.5356 104.395 56.7824 104.006C56.4682 103.846 56.0043 103.607 56.1839 103.253C56.4084 102.809 56.8124 103.223 57.1017 103.358C57.391 103.492 57.7002 103.767 58.0244 103.901C62.2608 105.617 66.5005 107.325 70.7436 109.024C73.6233 110.178 76.5063 111.317 79.3926 112.441C83.0587 113.867 86.7149 115.314 90.4009 116.685C94.7653 118.306 99.04 120.142 103.29 122.027C106.334 123.316 109.3 124.782 112.173 126.417C114.946 128.063 117.74 129.664 120.543 131.245C122.583 132.402 124.618 133.584 126.733 134.592C129.032 135.684 131.302 136.851 133.626 137.894C136.384 139.131 139.083 140.517 141.811 141.834C142.029 141.922 142.253 141.997 142.48 142.059C142.62 142.099 142.768 142.106 142.912 142.079C143.055 142.052 143.191 141.993 143.307 141.905C143.424 141.817 143.518 141.703 143.583 141.572C143.648 141.441 143.682 141.297 143.682 141.151C143.743 140.815 143.821 140.482 143.916 140.153C141.123 138.467 138.15 137.121 135.212 135.724C131.541 133.978 127.885 132.203 124.299 130.307C120.079 128.073 115.914 125.743 111.609 123.688C107.305 121.633 102.791 119.643 98.3816 117.628C94.7653 115.972 91.1391 114.336 87.5329 112.665C83.2732 110.695 79.0135 108.73 74.709 106.859C71.1725 105.323 67.6062 103.866 63.965 102.604C61.9 101.881 59.83 101.183 57.8149 100.33C57.5605 100.218 57.2847 100.164 57.0069 100.17L55.2013 104.285C55.1151 104.55 54.9697 104.791 54.776 104.991C54.5824 105.191 54.3457 105.343 54.084 105.438Z" fill="#323E4C"/>
<path d="M147.268 141.191C148.38 141.191 149.448 140.782 150.605 140.747C149.951 140.403 149.308 140.054 148.649 139.719C137.262 133.988 125.865 128.277 114.268 122.98C100.232 116.566 86.2242 110.096 72.2448 103.572C67.9302 101.577 63.5858 99.6067 59.1914 97.7711C58.8971 97.6465 58.5929 97.5617 58.2886 97.4569L57.7898 97.5766L57.291 99.4471C58.2387 99.497 58.9869 100.1 59.8498 100.385C62.643 101.318 65.4263 102.27 68.1796 103.303C71.4217 104.52 74.5891 105.901 77.7514 107.293C79.7865 108.201 81.8016 109.154 83.8267 110.076C87.1935 111.608 90.5703 113.124 93.9322 114.66C96.1418 115.658 98.3265 116.73 100.551 117.713C104.448 119.429 108.314 121.209 112.148 123.055C115.934 124.92 119.645 126.94 123.386 128.911C127.94 131.295 132.563 133.554 137.177 135.829C140.17 137.325 143.118 138.921 146.2 140.238C146.629 140.418 147.263 140.483 147.268 141.191Z" fill="#36424F"/>
<path d="M147.268 141.191C147.268 140.483 146.629 140.418 146.2 140.228C143.118 138.911 140.18 137.3 137.177 135.819C132.563 133.544 127.94 131.285 123.386 128.901C119.645 126.94 115.944 124.91 112.138 123.075C108.332 121.239 104.462 119.434 100.541 117.733C98.3165 116.735 96.1317 115.688 93.9221 114.68C90.5603 113.144 87.1835 111.628 83.8166 110.096C81.7915 109.174 79.7764 108.221 77.7413 107.313C74.579 105.901 71.4117 104.52 68.1696 103.323C65.4162 102.29 62.633 101.328 59.8398 100.405C58.9768 100.12 58.2287 99.5169 57.281 99.467C57.0988 99.6632 57.0004 99.9227 57.0066 100.19C57.2844 100.184 57.5602 100.238 57.8147 100.35C59.8098 101.203 61.8998 101.901 63.9648 102.624C67.6059 103.891 71.1723 105.343 74.7087 106.879C79.0133 108.75 83.2729 110.715 87.5326 112.685C91.1389 114.356 94.7651 115.992 98.3813 117.648C102.791 119.643 107.23 121.638 111.609 123.708C115.989 125.778 120.089 128.093 124.298 130.327C127.885 132.223 131.541 133.998 135.212 135.744C138.15 137.141 141.123 138.487 143.916 140.173C144.49 140.304 145.035 140.541 145.522 140.872C146.022 141.177 146.619 141.282 147.193 141.166L147.268 141.191Z" fill="#404D5C"/>
<path d="M142.48 142.069C142.253 142.008 142.029 141.933 141.811 141.844C139.083 140.528 136.384 139.141 133.626 137.904C131.302 136.861 129.032 135.694 126.733 134.602C124.618 133.604 122.583 132.412 120.543 131.255C117.74 129.674 114.946 128.073 112.173 126.427C109.304 124.787 106.341 123.316 103.3 122.022C99.05 120.137 94.7753 118.301 90.4109 116.68C86.7249 115.309 83.0687 113.862 79.4026 112.436C76.5129 111.308 73.6299 110.169 70.7536 109.019C66.5105 107.323 62.2708 105.616 58.0344 103.896C57.7102 103.762 57.4359 103.497 57.1117 103.353C56.7875 103.208 56.4183 102.804 56.1939 103.248C56.0143 103.602 56.4782 103.842 56.7924 104.001C57.5356 104.39 58.2888 104.799 59.042 105.113C63.6757 107.014 68.3045 108.929 72.9632 110.76C77.8414 112.685 82.6996 114.66 87.6227 116.486C92.022 118.112 96.3715 119.863 100.671 121.738C103.115 122.806 105.544 123.908 107.938 125.065C111.305 126.696 114.502 128.641 117.705 130.552C119.136 131.415 120.593 132.233 122.064 133.046C124.059 134.118 126.054 135.205 128.11 136.178C131.88 137.979 135.686 139.719 139.412 141.61C140.145 141.979 141.058 142.024 141.542 142.822L142.25 142.518C142.33 142.378 142.405 142.218 142.48 142.069Z" fill="#404D5C"/>
<path d="M44.5522 101.372C46.494 102.312 48.4931 103.129 50.5377 103.817C50.5002 103.54 50.5564 103.259 50.6973 103.018C52.0541 101.023 52.7424 98.7488 53.3409 96.4494C53.395 96.0717 53.57 95.7217 53.8397 95.4518C53.5232 95.2151 53.1617 95.0453 52.7773 94.953C50.9467 94.3445 49.171 93.5963 47.4003 92.8381C47.7894 93.6063 48.2932 94.3345 48.1186 95.2822C47.6547 97.7263 46.8267 99.9808 44.5522 101.372Z" fill="#EB8248"/>
<path d="M159.009 153.262C160.387 153.757 161.791 154.177 163.214 154.519C164.18 154.762 165.18 154.843 166.172 154.758C167.838 154.648 168.631 153.177 167.903 151.82C167.444 150.978 166.805 150.248 166.032 149.68C164.838 148.756 163.551 147.958 162.192 147.301C160.82 147.386 160.695 147.386 160.695 148.269C160.695 149.152 159.478 149.022 159.503 149.845C159.523 150 159.561 150.153 159.618 150.299C159.668 150.396 159.698 150.503 159.705 150.612C159.713 150.721 159.698 150.831 159.661 150.934C159.625 151.037 159.568 151.132 159.493 151.212C159.419 151.293 159.329 151.357 159.229 151.401C158.546 151.74 158.421 152.189 158.93 152.798C159.029 152.897 158.989 153.102 159.009 153.262Z" fill="#34404E"/>
<path d="M53.8343 95.4269C53.5647 95.6968 53.3897 96.0468 53.3355 96.4245C52.737 98.7239 52.0487 100.998 50.692 102.994C50.551 103.234 50.4948 103.515 50.5323 103.792C50.5531 103.889 50.5976 103.981 50.6619 104.057C50.7263 104.134 50.8086 104.193 50.9014 104.231C51.929 104.729 52.8966 105.328 54.1087 105.413C54.3685 105.317 54.6033 105.164 54.7951 104.964C54.9869 104.765 55.1309 104.524 55.216 104.26L57.0216 100.145C57.0154 99.8779 57.1138 99.6184 57.2959 99.4222L57.7947 97.5518L57.7498 97.1876C57.0565 96.3247 55.9293 96.1901 55.0763 95.6165C54.7026 95.3946 54.2573 95.3267 53.8343 95.4269Z" fill="#B2BECB"/>
<path d="M44.5521 101.372C46.8266 99.9708 47.6545 97.7263 48.1134 95.2673C48.288 94.3395 47.7842 93.5913 47.3952 92.8232C45.6594 92.075 45.4698 92.3244 44.6319 93.3669C43.3521 94.867 42.6452 96.772 42.6367 98.7438C42.6567 100.25 43.0757 100.829 44.5521 101.372Z" fill="#FBC898"/>
<path d="M159.01 153.262C159.01 153.102 159.01 152.898 158.945 152.798C158.446 152.189 158.561 151.74 159.244 151.401C159.344 151.357 159.434 151.293 159.509 151.212C159.583 151.132 159.64 151.037 159.677 150.934C159.713 150.831 159.728 150.721 159.721 150.612C159.713 150.503 159.683 150.396 159.633 150.299C159.576 150.153 159.538 150 159.519 149.845C159.494 149.022 160.726 149.197 160.711 148.269C160.696 147.341 160.82 147.386 162.207 147.301C161.886 146.937 161.452 146.691 160.975 146.603C160.866 146.649 160.764 146.709 160.671 146.782C159.743 147.585 159.773 147.541 158.73 146.932C157.688 146.323 156.65 145.481 155.394 145.176C155.268 145.398 155.209 145.651 155.224 145.905C156.72 146.568 158.007 147.516 159.484 148.369C159.044 148.809 158.732 149.361 158.581 149.965C157.957 149.665 157.434 149.381 156.89 149.152C155.867 148.733 154.895 148.154 153.767 148.059C153.728 148.215 153.746 148.379 153.819 148.522C153.891 148.665 154.013 148.777 154.162 148.837C154.63 149.047 155.094 149.276 155.563 149.481C156.291 149.795 157.025 150.089 157.753 150.409C158.177 150.593 158.416 150.853 158.047 151.316C157.678 151.78 157.877 152.314 157.833 152.813C158.153 153.108 158.574 153.269 159.01 153.262Z" fill="#465361"/>
<path d="M157.832 152.823C157.877 152.324 157.688 151.78 158.047 151.326C158.406 150.872 158.176 150.603 157.752 150.419C157.024 150.099 156.291 149.805 155.563 149.491C155.094 149.286 154.63 149.057 154.161 148.847C154.012 148.787 153.891 148.675 153.818 148.532C153.746 148.389 153.728 148.225 153.767 148.069L151.313 149.945C152.006 150.578 156.206 152.409 157.832 152.823Z" fill="#384452"/>
<path d="M153.752 148.059C154.885 148.154 155.852 148.733 156.875 149.152C157.419 149.381 157.942 149.65 158.566 149.965C158.717 149.361 159.029 148.809 159.469 148.368C157.972 147.516 156.69 146.568 155.209 145.904C154.773 146.655 154.287 147.375 153.752 148.059Z" fill="#36424F"/>
<path d="M155.378 145.176C156.635 145.48 157.628 146.304 158.715 146.932C159.803 147.56 159.713 147.585 160.655 146.782C160.748 146.709 160.851 146.649 160.96 146.603C159.154 145.366 157.119 144.533 155.313 143.311C155.094 143.166 154.874 143.545 154.69 143.266C155.104 143.834 155.099 144.558 155.378 145.176Z" fill="#3A4654"/>
<path d="M142.479 142.069C142.405 142.218 142.33 142.368 142.25 142.518C143.921 142.148 145.571 141.69 147.193 141.146C146.619 141.262 146.022 141.157 145.522 140.852C145.035 140.521 144.49 140.284 143.916 140.153C143.821 140.482 143.743 140.815 143.682 141.151C143.683 141.298 143.651 141.443 143.586 141.575C143.522 141.707 143.428 141.823 143.311 141.912C143.194 142.001 143.058 142.062 142.914 142.089C142.769 142.116 142.621 142.109 142.479 142.069Z" fill="#36424F"/>
<path d="M57.7451 97.2125L57.79 97.5766L58.2888 97.4569C58.1691 97.2325 57.9546 97.2225 57.7451 97.2125Z" fill="#767F8A"/>
<path d="M154.69 143.266L154.665 143.236L154.685 143.266H154.69Z" fill="#3A4654"/>
<path d="M235.145 67.5595C235.018 67.1407 234.738 66.7848 234.362 66.5619C234.057 66.3225 233.778 66.0631 233.484 65.7887C232.971 65.329 232.58 64.7497 232.345 64.1023C232.11 63.4548 232.038 62.7594 232.137 62.0777C232.391 61.7286 232.636 61.3794 232.905 61.0253C233.366 60.3009 234.021 59.7196 234.794 59.3468C235.568 58.9741 236.431 58.8247 237.285 58.9154C238.581 59.0386 239.867 59.2604 241.13 59.5788C243.125 60.0776 245.081 60.7061 247.056 61.2797C250.622 62.0678 254.174 62.9207 257.755 63.639C262.244 64.5368 266.648 65.694 271.182 66.2925C272.788 66.502 273.851 65.4396 273.512 63.8584C273.254 62.6936 272.89 61.5549 272.424 60.4567C271.482 58.1872 270.02 56.5013 267.551 55.7331C266.15 55.2942 264.803 54.6907 263.306 54.6558C263.217 54.5759 263.142 54.4512 263.042 54.4313C260.942 54.0231 258.815 53.773 256.678 53.6831C251.205 53.7548 245.782 54.7359 240.631 56.5861C237.983 57.6684 235.279 58.5812 232.606 59.6237C232.259 59.7755 231.885 59.8538 231.506 59.8538C231.128 59.8538 230.753 59.7755 230.406 59.6237C229.713 58.5214 230.097 57.449 230.591 56.4464C231.015 55.6336 231.556 54.8874 232.197 54.2318C235.892 50.3717 240.111 47.0505 244.732 44.3657C248.49 42.1094 252.571 40.4376 256.832 39.4077C258.8 38.9571 260.802 38.6718 262.818 38.5548C262.987 38.7792 263.147 38.7693 263.316 38.5548C264.209 38.6546 265.062 38.2854 265.95 38.3403C266.199 38.6146 266.449 38.6146 266.668 38.3403H269.302C269.337 38.4048 269.389 38.4587 269.452 38.4962C269.515 38.5338 269.588 38.5536 269.661 38.5536C269.735 38.5536 269.807 38.5338 269.87 38.4962C269.933 38.4587 269.985 38.4048 270.02 38.3403C275.282 38.7543 280.395 39.697 285.248 41.9516C289.653 43.9966 293.573 46.7549 297.489 49.5781C300.297 51.6031 302.846 53.9574 305.649 55.9925C307.479 57.3193 309.14 58.8905 310.841 60.3918C316.123 65.0755 321.136 70.0434 326.029 75.1261C329.311 78.5378 332.514 82.0144 335.646 85.6007C337.347 87.556 339.138 89.4464 340.868 91.3518C343.861 94.6039 346.854 97.836 349.772 101.178C351.368 103.003 353.034 104.774 354.65 106.585C356.978 109.198 359.269 111.849 361.523 114.536C362.88 116.152 364.287 117.723 365.708 119.284C367.853 121.638 370.048 123.953 372.192 126.317C374.188 128.532 375.908 130.986 377.784 133.3C379.53 135.47 381.33 137.595 383.056 139.784C383.665 140.552 384.493 141.191 384.737 142.213C384.054 142.333 383.42 141.919 382.742 142.014C380.957 142.168 379.21 142.613 377.569 143.331C375.888 144.154 374.218 144.992 372.581 145.909C368.022 148.453 363.913 151.73 360.421 155.611C357.509 158.844 355.179 162.557 353.533 166.584C352.675 168.689 351.907 170.814 351.927 173.133C351.288 172.726 350.737 172.195 350.306 171.572C349.547 170.639 348.694 169.807 347.866 168.944C344.639 165.582 341.522 162.13 338.564 158.529C337.327 157.032 336.01 155.576 334.693 154.139C333.132 152.439 331.506 150.793 329.94 149.097C326.693 145.605 323.456 142.074 320.194 138.587C317.64 135.854 315.206 133.011 312.632 130.287C309.739 127.22 307.006 123.998 304.113 120.93C301.728 118.411 299.219 116.012 296.75 113.578C293.522 110.509 290.128 107.619 286.585 104.919C282.565 101.737 278.545 98.5443 274.504 95.382C272.09 93.4916 269.646 91.646 267.207 89.7905C267.04 89.688 266.858 89.6107 266.668 89.5611C266.14 88.7231 265.272 88.2742 264.534 87.6906C262.259 85.89 259.845 84.2789 257.471 82.6229C254.862 80.8023 252.233 79.0117 249.545 77.3258C245.739 74.9366 242.063 72.3379 238.377 69.809C237.27 69.0558 236.387 68.0582 235.145 67.5595ZM240.302 64.1876C239.579 62.5915 238.227 61.7685 236.631 61.2946C236.14 61.1555 235.616 61.1773 235.138 61.3568C234.66 61.5363 234.251 61.8641 233.973 62.2922C233.409 63.1701 233.554 63.9931 234.142 64.8311C235.043 66.0412 236.267 66.9729 237.674 67.5196C238.202 68.2428 238.856 67.9036 239.494 67.734C239.808 67.6812 240.098 67.5341 240.326 67.3122C240.555 67.0904 240.71 66.8043 240.771 66.492C240.901 65.7089 240.981 64.871 240.292 64.2026L240.302 64.1876ZM253.69 72.1683C253.455 72.0835 253.191 72.0136 253.086 72.3179C252.982 72.6222 253.206 72.8167 253.42 73.0112C253.512 73.0882 253.62 73.1417 253.737 73.1669C253.853 73.1921 253.974 73.1883 254.089 73.1559C254.493 73.0433 254.846 72.7925 255.084 72.4471C255.323 72.1017 255.433 71.6836 255.396 71.2655C255.359 70.8863 255.179 70.5354 254.893 70.2842C254.606 70.0331 254.235 69.9006 253.854 69.9137C253.334 69.9239 252.83 70.0921 252.407 70.3959C251.985 70.6997 251.665 71.1247 251.49 71.6146C251.332 72.0268 251.301 72.4772 251.402 72.907C251.504 73.3368 251.733 73.726 252.059 74.0238C252.697 74.6473 253.555 74.6722 254.388 74.5625C254.505 74.5331 254.613 74.4748 254.702 74.3929C254.772 74.3529 254.824 74.2878 254.847 74.2107C254.87 74.1337 254.863 74.0507 254.827 73.9789C254.802 73.9282 254.767 73.883 254.724 73.8461C254.681 73.8093 254.632 73.7815 254.578 73.7644C254.224 73.7245 253.859 73.7644 253.51 73.6996C253.173 73.6461 252.866 73.4739 252.645 73.2142C252.424 72.9545 252.303 72.6242 252.303 72.283C252.375 71.9552 252.531 71.6519 252.756 71.4026C252.981 71.1534 253.266 70.9669 253.585 70.8614C253.721 70.8252 253.865 70.8306 253.999 70.8768C254.132 70.923 254.249 71.008 254.333 71.1208C254.413 71.2359 254.46 71.371 254.468 71.511C254.476 71.651 254.445 71.7905 254.378 71.9139C254.356 71.982 254.319 72.0445 254.27 72.0971C254.221 72.1497 254.162 72.1912 254.095 72.2186C254.029 72.2461 253.958 72.2589 253.886 72.2563C253.814 72.2536 253.744 72.2355 253.68 72.2032L253.69 72.1683Z" fill="#FBC998"/>
<path d="M351.892 173.118C351.892 170.799 352.64 168.674 353.498 166.569C355.144 162.542 357.474 158.829 360.386 155.596C363.879 151.715 367.987 148.438 372.546 145.894C374.178 144.977 375.848 144.139 377.534 143.316C379.175 142.598 380.922 142.153 382.707 141.999C383.395 141.904 384.029 142.318 384.702 142.198C385.281 142.617 386.024 142.827 386.403 143.48C387.237 144.888 387.528 146.552 387.221 148.159C386.617 151.516 384.627 154.06 382.318 156.409C377.879 161.001 373.027 165.175 367.823 168.879C365.648 170.405 363.414 171.871 361.174 173.288C359.556 174.307 357.761 175.012 355.882 175.368C355.262 175.528 354.609 175.512 353.998 175.319C353.387 175.127 352.842 174.767 352.425 174.281C352.111 173.916 352.176 173.448 351.892 173.118Z" fill="#EB8146"/>
<path d="M235.145 67.5594C236.397 68.0333 237.28 69.0558 238.352 69.7791C242.048 72.3179 245.714 74.9066 249.52 77.2958C252.209 78.9818 254.837 80.7874 257.446 82.593C259.82 84.249 262.234 85.8601 264.509 87.6607C265.247 88.2443 266.115 88.6932 266.644 89.5312C264.717 90.1729 262.74 90.6501 260.733 90.9577C259.68 91.1572 258.618 91.2819 257.561 91.4565C257.381 91.257 257.226 91.2819 257.062 91.4964C256.427 91.6069 255.785 91.6703 255.141 91.6859C253.968 91.3767 252.734 91.3767 251.56 91.6859C250.273 91.5513 248.991 91.4316 247.864 90.6634C247.159 90.2112 246.662 89.4976 246.482 88.6793C246.303 87.861 246.455 87.005 246.906 86.299C247.449 85.3773 248.134 84.5474 248.936 83.84C249.036 83.7801 249.146 83.7352 249.241 83.6654C249.336 83.5956 249.66 83.4359 249.475 83.2414C249.291 83.0469 249.056 83.1766 248.912 83.401C247.897 83.683 246.864 83.8897 245.819 84.0195C245.639 83.81 245.485 83.845 245.32 84.0594H243.425C243.285 83.845 243.131 83.8051 242.926 84.0145C242.392 83.8649 241.849 83.7302 241.315 83.5706C240.772 83.4027 240.27 83.1205 239.845 82.743C239.419 82.3655 239.079 81.9014 238.848 81.3818C238.616 80.8623 238.499 80.2992 238.503 79.7304C238.507 79.1616 238.632 78.6002 238.871 78.0839C239.155 77.4804 239.464 76.8868 239.764 76.2883C239.668 76.2311 239.561 76.1969 239.45 76.1882C239.34 76.1796 239.228 76.1968 239.125 76.2384C237.765 76.7124 236.309 76.846 234.886 76.6275C233.964 76.5485 233.093 76.1727 232.403 75.5567C231.713 74.9406 231.242 74.1175 231.06 73.2107C230.955 72.5007 231.109 71.7767 231.494 71.1707C232.402 69.6544 233.803 68.6468 235.145 67.5594Z" fill="#ECA26D"/>
<path d="M247.046 61.2746C245.071 60.701 243.126 60.0775 241.13 59.5787C239.866 59.2704 238.581 59.0586 237.285 58.9453C236.431 58.8545 235.568 59.0039 234.795 59.3767C234.021 59.7494 233.367 60.3307 232.905 61.0551C232.651 61.4093 232.407 61.7584 232.137 62.1076C230.895 61.7535 230.496 60.8057 230.396 59.6486C230.743 59.8003 231.118 59.8787 231.496 59.8787C231.875 59.8787 232.249 59.8003 232.596 59.6486C235.27 58.651 237.973 57.6933 240.622 56.6109C245.775 54.7545 251.201 53.7684 256.678 53.693C258.815 53.7829 260.942 54.033 263.042 54.4412C263.142 54.4412 263.217 54.5858 263.307 54.6656C263.272 54.8203 263.242 55.0248 263.062 55.0397C262.318 55.1564 261.587 55.3418 260.878 55.5934C256.318 56.8426 251.893 58.5366 247.665 60.6511C247.385 60.7658 247.026 60.8506 247.046 61.2746Z" fill="#EB8146"/>
<path d="M251.57 91.6809C252.744 91.3717 253.977 91.3717 255.151 91.6809C253.984 92.0377 252.737 92.0377 251.57 91.6809Z" fill="#ECA26D"/>
<path d="M248.921 83.396C249.066 83.1716 249.295 83.0269 249.485 83.2364C249.675 83.4459 249.39 83.5507 249.251 83.6604C249.111 83.7701 249.046 83.7751 248.946 83.835C248.936 83.6853 248.926 83.5207 248.921 83.396Z" fill="#ECA26D"/>
<path d="M266.648 38.3203C266.419 38.6146 266.18 38.6146 265.93 38.3203C265.965 38.2558 266.017 38.2019 266.08 38.1644C266.144 38.1269 266.216 38.1071 266.289 38.1071C266.363 38.1071 266.435 38.1269 266.498 38.1644C266.561 38.2019 266.613 38.2558 266.648 38.3203Z" fill="#FDE5CE"/>
<path d="M270 38.3402C269.965 38.4048 269.913 38.4586 269.85 38.4962C269.787 38.5337 269.715 38.5535 269.641 38.5535C269.568 38.5535 269.496 38.5337 269.433 38.4962C269.369 38.4586 269.317 38.4048 269.282 38.3402C269.317 38.2757 269.369 38.2218 269.433 38.1843C269.496 38.1468 269.568 38.127 269.641 38.127C269.715 38.127 269.787 38.1468 269.85 38.1843C269.913 38.2218 269.965 38.2757 270 38.3402Z" fill="#FDE5CE"/>
<path d="M263.297 38.5548C263.147 38.7892 262.987 38.7992 262.798 38.5548C262.967 38.3453 263.127 38.3353 263.297 38.5548Z" fill="#FDE5CE"/>
<path d="M242.946 84.0195C243.13 83.81 243.285 83.8499 243.445 84.0644C243.245 84.2739 243.085 84.2389 242.946 84.0195Z" fill="#ECA26D"/>
<path d="M245.34 84.0693C245.484 83.8549 245.639 83.8199 245.839 84.0294C245.674 84.2439 245.514 84.2688 245.34 84.0693Z" fill="#ECA26D"/>
<path d="M257.092 91.5013C257.236 91.2869 257.391 91.2619 257.591 91.4614C257.406 91.6659 257.246 91.6959 257.092 91.5013Z" fill="#ECA26D"/>
<path d="M247.046 61.2746C247.046 60.8506 247.385 60.7758 247.654 60.6361C251.883 58.5251 256.308 56.8344 260.867 55.5884C261.577 55.3368 262.308 55.1515 263.052 55.0347C263.232 55.0347 263.262 54.8153 263.297 54.6606C264.793 54.6956 266.14 55.2991 267.541 55.738C270.01 56.5062 271.472 58.1921 272.414 60.4616C272.88 61.5598 273.244 62.6985 273.502 63.8633C273.841 65.4445 272.779 66.5069 271.172 66.2974C266.638 65.6989 262.194 64.5417 257.745 63.6439C254.164 62.9156 250.607 62.0727 247.046 61.2746Z" fill="#EB8146"/>
<path d="M237.664 67.5594C236.262 67.009 235.044 66.0757 234.147 64.8659C233.559 64.028 233.414 63.205 233.978 62.3271C234.257 61.8989 234.665 61.5711 235.143 61.3916C235.622 61.2121 236.145 61.1904 236.636 61.3295C238.232 61.8034 239.584 62.6264 240.307 64.2225C239.789 64.2211 239.281 64.3715 238.847 64.6551C238.412 64.9387 238.071 65.3432 237.863 65.8186C237.549 66.3573 237.734 66.9708 237.664 67.5594Z" fill="#ECA26C"/>
<path d="M253.68 72.2032C253.741 72.2346 253.808 72.2529 253.877 72.257C253.946 72.2611 254.015 72.2508 254.08 72.2269C254.144 72.203 254.203 72.166 254.253 72.1181C254.303 72.0702 254.342 72.0126 254.368 71.9488C254.435 71.8254 254.466 71.6859 254.458 71.5459C254.45 71.4059 254.403 71.2708 254.323 71.1557C254.238 71.0429 254.122 70.9579 253.989 70.9117C253.855 70.8655 253.711 70.8602 253.575 70.8964C253.256 71.0018 252.971 71.1883 252.746 71.4375C252.521 71.6868 252.365 71.9902 252.293 72.3179C252.292 72.6591 252.414 72.9894 252.635 73.2491C252.856 73.5088 253.163 73.681 253.5 73.7345C253.849 73.7943 254.213 73.7594 254.567 73.7993C254.621 73.8164 254.671 73.8442 254.714 73.8811C254.757 73.9179 254.792 73.9631 254.817 74.0138C254.853 74.0857 254.86 74.1686 254.837 74.2457C254.814 74.3227 254.762 74.3879 254.692 74.4278C254.603 74.5097 254.495 74.568 254.378 74.5974C253.535 74.7071 252.687 74.6822 252.049 74.0587C251.722 73.761 251.494 73.3717 251.392 72.9419C251.291 72.5121 251.321 72.0617 251.48 71.6495C251.655 71.1596 251.975 70.7346 252.397 70.4308C252.819 70.127 253.324 69.9588 253.844 69.9487C254.225 69.9355 254.596 70.068 254.883 70.3191C255.169 70.5703 255.349 70.9212 255.385 71.3004C255.423 71.7186 255.313 72.1367 255.074 72.482C254.835 72.8274 254.483 73.0782 254.079 73.1908C253.964 73.2232 253.843 73.227 253.726 73.2018C253.61 73.1766 253.501 73.1231 253.41 73.0461C253.196 72.8716 252.951 72.682 253.076 72.3528C253.201 72.0236 253.445 72.1184 253.68 72.2032Z" fill="#EC874D"/>
<path d="M237.664 67.5594C237.733 66.9758 237.549 66.3623 237.848 65.8037C238.055 65.3282 238.397 64.9237 238.832 64.6401C239.266 64.3565 239.774 64.2062 240.292 64.2075C240.981 64.8759 240.901 65.7039 240.761 66.5319C240.7 66.8441 240.545 67.1302 240.316 67.3521C240.088 67.574 239.798 67.7211 239.484 67.7739C238.846 67.9385 238.192 68.2777 237.664 67.5594Z" fill="#EB8247"/>
<path d="M333.252 23.4863C332.733 23.9189 332.142 24.2566 331.506 24.4839C327.017 26.4791 322.433 28.1001 317.889 29.8958C311.608 32.393 305.381 35.0183 299.21 37.7717C288.032 42.8045 277.068 48.2463 266.12 53.7729C263.287 55.1994 260.374 56.4464 257.491 57.7632C255.052 58.8605 252.747 60.2073 250.408 61.4892C250.145 61.6628 249.846 61.7725 249.533 61.8098C249.22 61.847 248.903 61.8107 248.607 61.7036C247.694 61.3645 246.702 61.2797 245.799 60.8806C246.298 60.0876 247.201 60.0377 247.929 59.6686C251.66 57.7781 255.461 56.0374 259.236 54.2417C261.286 53.2441 263.282 52.1767 265.282 51.1043C266.778 50.3113 268.205 49.4932 269.636 48.6104C272.838 46.6801 276.036 44.7348 279.403 43.1237C281.802 41.9615 284.226 40.8592 286.67 39.7918C290.97 37.9097 295.321 36.1589 299.723 34.5395C304.641 32.7189 309.5 30.7387 314.383 28.8134C319.041 26.9828 323.67 25.0675 328.299 23.1721C329.072 22.8528 329.795 22.4438 330.554 22.0598C330.863 21.8952 331.332 21.6558 331.147 21.3016C330.923 20.8577 330.524 21.2717 330.229 21.4064C329.935 21.541 329.636 21.8154 329.307 21.95C325.057 23.6626 320.819 25.3684 316.592 27.0676C313.716 28.2215 310.833 29.3604 307.943 30.4843C304.277 31.9109 300.616 33.3574 296.93 34.729C292.571 36.3501 288.296 38.1857 284.046 40.0761C281.003 41.3663 278.038 42.8353 275.168 44.4754C272.4 46.1214 269.606 47.7225 266.803 49.3087C264.758 50.4609 262.728 51.643 260.608 52.6506C258.309 53.7479 256.044 54.9101 253.72 55.9526C250.957 57.1946 248.263 58.5762 245.535 59.893C245.315 59.9812 245.09 60.0562 244.861 60.1175C244.721 60.1567 244.574 60.163 244.431 60.1359C244.288 60.1087 244.153 60.0488 244.037 59.9609C243.921 59.873 243.827 59.7594 243.763 59.6291C243.698 59.4987 243.664 59.3552 243.664 59.2097C243.604 58.8728 243.524 58.5398 243.425 58.2121C246.218 56.5262 249.196 55.1795 252.134 53.7828C255.805 52.0371 259.461 50.2614 263.047 48.366C267.262 46.1314 271.427 43.802 275.731 41.747C280.036 39.692 284.55 37.7018 288.964 35.6867C292.581 34.0307 296.207 32.3947 299.813 30.6988C304.068 28.7286 308.332 26.7634 312.632 24.8929C316.168 23.3566 319.74 21.9002 323.381 20.6382C325.446 19.915 327.511 19.2167 329.526 18.3637C329.782 18.2522 330.06 18.1977 330.339 18.2041C330.938 19.5775 331.539 20.9491 332.145 22.3191C332.228 22.5853 332.371 22.829 332.563 23.0313C332.755 23.2336 332.991 23.3893 333.252 23.4863Z" fill="#323E4C"/>
<path d="M240.078 59.2397C238.966 59.2397 237.898 58.8307 236.741 58.7958C237.39 58.4516 238.038 58.1024 238.696 57.7682C250.084 52.0371 261.481 46.326 273.078 41.0288C287.107 34.6144 301.115 28.1451 315.101 21.6209C319.416 19.6257 323.76 17.6306 328.154 15.82C328.444 15.6953 328.753 15.6105 329.052 15.5057L329.551 15.6254C329.721 16.2489 329.89 16.8724 330.05 17.5009C329.102 17.5458 328.359 18.1493 327.491 18.4386C324.703 19.3664 321.915 20.3191 319.161 21.3516C315.924 22.5686 312.752 23.9503 309.595 25.3419C307.559 26.2497 305.544 27.2024 303.514 28.1251L293.409 32.709C291.199 33.7066 289.014 34.779 286.795 35.7616C282.898 37.4775 279.03 39.2581 275.193 41.1037C271.392 42.9392 267.711 44.9693 263.95 46.9295C259.391 49.3138 254.768 51.5733 250.154 53.8478C247.161 55.3441 244.218 56.9403 241.136 58.2621C240.712 58.4666 240.078 58.5314 240.078 59.2397Z" fill="#36424F"/>
<path d="M240.078 59.2396C240.078 58.5313 240.712 58.4665 241.146 58.2819C244.228 56.9601 247.166 55.3491 250.164 53.8676C254.777 51.5932 259.401 49.3336 263.96 46.9494C267.701 44.9892 271.402 42.9591 275.203 41.1235C279.004 39.288 282.909 37.4973 286.805 35.7815C289.024 34.7839 291.209 33.7414 293.419 32.7289L303.524 28.155C305.554 27.2322 307.569 26.2795 309.605 25.3717C312.762 23.9602 315.934 22.5785 319.171 21.3814C321.925 20.3489 324.713 19.3863 327.501 18.4685C328.369 18.1792 329.112 17.5757 330.06 17.5308C330.242 17.7252 330.342 17.9825 330.339 18.249C330.06 18.2426 329.782 18.2971 329.526 18.4086C327.531 19.2616 325.446 19.9599 323.381 20.6831C319.74 21.95 316.169 23.4015 312.632 24.9378C308.333 26.8083 304.068 28.7735 299.813 30.7437C296.207 32.4147 292.581 34.0507 288.965 35.7316C284.55 37.7268 280.111 39.7219 275.732 41.7919C271.352 43.8619 267.252 46.1763 263.047 48.4109C259.461 50.3063 255.805 52.082 252.134 53.8277C249.196 55.2244 246.218 56.5711 243.425 58.257C242.852 58.3865 242.309 58.6235 241.824 58.9553C241.324 59.2604 240.727 59.3655 240.153 59.2496L240.078 59.2396Z" fill="#404D5C"/>
<path d="M244.861 60.1175C245.09 60.0563 245.315 59.9813 245.535 59.8931C248.263 58.5763 250.957 57.1946 253.72 55.9526C256.044 54.9102 258.309 53.748 260.608 52.6506C262.728 51.6531 264.758 50.461 266.803 49.3088C269.606 47.7226 272.4 46.1215 275.168 44.4755C278.032 42.8361 280.99 41.3671 284.026 40.0761C288.276 38.1857 292.551 36.3502 296.91 34.7291C300.596 33.3574 304.257 31.9109 307.923 30.4844C310.81 29.3571 313.693 28.2182 316.572 27.0677C320.815 25.3718 325.054 23.6643 329.287 21.9451C329.616 21.8104 329.885 21.5511 330.209 21.4014C330.534 21.2518 330.903 20.8528 331.127 21.2967C331.312 21.6508 330.843 21.8902 330.534 22.0548C329.79 22.4389 329.037 22.8479 328.279 23.1671C323.65 25.0625 319.021 26.9779 314.363 28.8085C309.48 30.7338 304.621 32.714 299.703 34.5346C295.304 36.1606 290.953 37.9114 286.65 39.7868C284.206 40.8542 281.782 41.9566 279.383 43.1188C276.016 44.7448 272.819 46.6901 269.616 48.6055C268.185 49.4684 266.733 50.2864 265.262 51.0994C263.267 52.1718 261.272 53.2592 259.217 54.2368C255.441 56.0324 251.64 57.7732 247.909 59.6636C247.181 60.0327 246.268 60.0826 245.779 60.8757L245.071 60.5714C245.016 60.4168 244.941 60.2672 244.861 60.1175Z" fill="#404D5C"/>
<path d="M342.794 19.4212C340.853 20.3629 338.854 21.1793 336.808 21.8653C336.851 21.5903 336.795 21.3091 336.649 21.0722C335.292 19.077 334.609 16.7975 334.005 14.4981C333.958 14.1109 333.783 13.7507 333.506 13.4756C333.826 13.2402 334.188 13.0707 334.574 12.9768C336.404 12.3683 338.18 11.6201 339.951 10.8619C339.557 11.6301 339.058 12.3583 339.232 13.306C339.686 15.775 340.514 18.0246 342.794 19.4212Z" fill="#EB8248"/>
<path d="M228.336 71.3104C226.959 71.8062 225.555 72.2258 224.132 72.5673C223.166 72.8107 222.166 72.8916 221.174 72.8068C219.503 72.697 218.71 71.2256 219.438 69.8689C219.902 69.0302 220.539 68.3006 221.308 67.7291C222.503 66.8058 223.79 66.0084 225.149 65.3499C226.526 65.4346 226.646 65.4346 226.646 66.3175C226.646 67.2004 227.863 67.0707 227.843 67.8937C227.824 68.0498 227.784 68.2025 227.723 68.3476C227.673 68.4452 227.643 68.552 227.636 68.6615C227.629 68.7709 227.645 68.8807 227.681 68.984C227.718 69.0873 227.776 69.1819 227.851 69.262C227.926 69.3422 228.016 69.4061 228.117 69.4499C228.8 69.7941 228.925 70.238 228.411 70.8465C228.311 70.9463 228.351 71.1508 228.336 71.3104Z" fill="#34404E"/>
<path d="M333.506 13.4757C333.783 13.7508 333.958 14.111 334.005 14.4982C334.609 16.7976 335.292 19.0721 336.649 21.0722C336.795 21.3091 336.851 21.5904 336.808 21.8653C336.788 21.9625 336.744 22.0532 336.68 22.1297C336.617 22.2061 336.536 22.266 336.444 22.3042C335.412 22.803 334.419 23.4016 333.237 23.4864C332.977 23.3909 332.742 23.2375 332.551 23.0379C332.359 22.8383 332.215 22.5976 332.13 22.3342C331.524 20.9642 330.923 19.5925 330.324 18.2191C330.327 17.9527 330.227 17.6953 330.045 17.5009C329.88 16.8724 329.71 16.2489 329.546 15.6254L329.591 15.2613C330.279 14.3984 331.406 14.2637 332.264 13.6901C332.634 13.4582 333.08 13.3812 333.506 13.4757Z" fill="#B2BECB"/>
<path d="M342.794 19.4212C340.515 18.0246 339.687 15.775 339.233 13.316C339.058 12.3882 339.557 11.6401 339.951 10.8719C341.682 10.1287 341.876 10.3731 342.714 11.4156C343.994 12.9155 344.701 14.8207 344.709 16.7926C344.684 18.2989 344.27 18.8775 342.794 19.4212Z" fill="#FBC898"/>
<path d="M228.337 71.3104C228.337 71.1508 228.312 70.9462 228.396 70.8465C228.895 70.238 228.785 69.794 228.102 69.4499C228.002 69.4061 227.911 69.3421 227.836 69.262C227.761 69.1819 227.704 69.0872 227.667 68.984C227.63 68.8807 227.614 68.7709 227.621 68.6615C227.629 68.552 227.658 68.4452 227.708 68.3476C227.769 68.2025 227.809 68.0498 227.828 67.8937C227.828 67.0706 226.621 67.2452 226.631 66.3175C226.641 65.3897 226.526 65.4346 225.134 65.3498C225.458 64.9864 225.893 64.7407 226.371 64.6515C226.479 64.6997 226.581 64.76 226.676 64.8311C227.598 65.6341 227.568 65.5892 228.616 64.9857C229.663 64.3822 230.691 63.5292 231.953 63.225C232.076 63.4472 232.135 63.6994 232.122 63.9532C230.66 64.7019 229.237 65.5243 227.858 66.4172C228.301 66.8555 228.613 67.408 228.76 68.0134C229.389 67.7141 229.908 67.4298 230.456 67.2053C231.454 66.7813 232.452 66.2077 233.579 66.108C233.617 66.2634 233.598 66.4274 233.526 66.5702C233.454 66.713 233.333 66.8251 233.185 66.8861C232.711 67.0956 232.252 67.325 231.778 67.5295C231.05 67.8438 230.317 68.1381 229.593 68.4573C229.165 68.6418 228.925 68.9012 229.299 69.3651C229.673 69.829 229.469 70.3627 229.509 70.8615C229.19 71.1559 228.77 71.3167 228.337 71.3104Z" fill="#465361"/>
<path d="M229.533 70.8714C229.493 70.3726 229.683 69.8289 229.324 69.375C228.965 68.9211 229.189 68.6518 229.618 68.4672C230.341 68.148 231.075 67.8537 231.803 67.5395C232.277 67.335 232.736 67.1055 233.209 66.896C233.357 66.835 233.479 66.7229 233.551 66.5801C233.623 66.4373 233.642 66.2733 233.604 66.1179L236.058 67.9934C235.334 68.6268 231.154 70.4574 229.533 70.8714Z" fill="#384452"/>
<path d="M233.594 66.108C232.456 66.2028 231.489 66.7814 230.471 67.2054C229.923 67.4298 229.404 67.7042 228.775 68.0134C228.628 67.4081 228.315 66.8555 227.873 66.4173C229.252 65.5243 230.675 64.7019 232.137 63.9532C232.573 64.704 233.059 65.424 233.594 66.108Z" fill="#36424F"/>
<path d="M231.968 63.2249C230.706 63.5292 229.718 64.3572 228.631 64.9857C227.543 65.6141 227.633 65.6341 226.69 64.831C226.596 64.7599 226.494 64.6997 226.386 64.6515C228.187 63.4145 230.222 62.5815 232.033 61.3595C232.247 61.2148 232.466 61.5939 232.651 61.3146C232.237 61.8832 232.247 62.6064 231.968 63.2249Z" fill="#3A4654"/>
<path d="M244.861 60.1175C244.941 60.2671 245.016 60.4168 245.091 60.5664C243.422 60.197 241.773 59.7391 240.153 59.1947C240.727 59.3107 241.324 59.2056 241.824 58.9005C242.309 58.5686 242.852 58.3317 243.425 58.2021C243.524 58.5298 243.604 58.8629 243.664 59.1997C243.663 59.3461 243.695 59.4908 243.759 59.6224C243.823 59.754 243.917 59.8689 244.033 59.9579C244.15 60.047 244.285 60.1078 244.429 60.1355C244.572 60.1632 244.72 60.157 244.861 60.1175Z" fill="#36424F"/>
<path d="M329.601 15.2612L329.556 15.6253L329.057 15.5056C329.172 15.2812 329.386 15.2712 329.601 15.2612Z" fill="#767F8A"/>
<path d="M232.651 61.3146L232.681 61.2847L232.656 61.3146H232.651Z" fill="#3A4654"/>
</g>
<defs>
<clipPath id="clip0_6126_192470">
<rect width="400" height="291.229" fill="white" transform="translate(0 0.666626)"/>
</clipPath>
</defs>
</svg>
