<svg width="600" height="437" viewBox="0 0 600 437" fill="none" xmlns="http://www.w3.org/2000/svg">
<g clip-path="url(#clip0_5620_6531)">
<g opacity="0.22">
<path opacity="0.22" d="M386.767 39.1227C386.631 48.2095 385.916 57.2784 384.627 66.2744C383.505 74.5643 382.338 82.8467 381.395 91.159C380.325 100.601 379.442 110.073 379.554 119.59C379.652 126.937 380.535 134.157 383.812 140.868C385.172 143.805 387.144 146.418 389.596 148.531C392.047 150.645 394.922 152.211 398.027 153.124C403.837 154.911 409.911 155.688 415.984 155.421C422.807 155.159 429.451 153.924 436.102 152.525C443.232 151.029 450.236 149.084 457.246 147.183C462.199 145.844 467.107 144.348 472.053 143.008C477.522 141.512 482.999 140.105 488.558 138.976C494.092 137.733 499.7 136.846 505.347 136.319C513.001 135.758 520.513 136.402 527.493 139.986C535.057 143.869 539.516 150.161 541.447 158.324C542.68 163.883 542.885 169.622 542.053 175.255C540.339 188.461 535.319 200.461 528.825 211.954C523.21 221.771 516.579 230.972 509.043 239.405C499.347 250.561 488.379 260.545 476.362 269.152C470.841 273.058 465.162 276.707 459.326 280.098C454.575 282.874 449.547 285.111 444.579 287.475C435.511 291.792 426.249 295.705 417.353 300.374C412.377 302.993 407.424 305.649 402.636 308.604C395.426 313.078 388.529 318.037 381.993 323.448C373.419 330.474 365.608 338.3 357.655 345.976C350.383 352.994 343.2 360.109 335.382 366.529C329.854 371.194 323.882 375.306 317.552 378.806C309.464 383.131 301.04 386.782 291.972 388.436C280.24 390.583 269.294 388.608 259.964 380.744C255.054 376.494 251.21 371.151 248.742 365.145C245.225 357.042 242.861 348.602 240.856 340.043C239.666 334.978 238.611 329.89 237.287 324.862C236.052 319.927 233.855 315.285 230.823 311.2C224.862 303.161 217.593 296.181 209.32 290.55C203.334 286.555 197.079 283.069 190.84 279.56C181.225 274.12 171.701 268.531 162.633 262.217C157.882 258.91 153.198 255.52 148.709 251.862C143.064 247.355 137.838 242.347 133.095 236.898C129.055 232.169 125.364 227.153 122.051 221.889C120.323 219.159 118.692 216.375 117.203 213.51C114.42 208.289 112.008 202.878 109.983 197.319C107.636 190.862 105.9 184.199 104.798 177.417C103.693 170.079 103.427 162.639 104.005 155.241C104.508 148.438 105.536 141.684 107.08 135.04C107.783 132.047 108.577 129.055 109.422 126.062C111.155 120.048 113.33 114.172 115.931 108.48C118.418 102.86 121.551 97.549 125.269 92.6554C130.611 85.763 137.914 80.6483 146.218 77.9835C151.1 76.396 156.158 75.411 161.279 75.0506C165.229 74.7363 169.165 74.8411 173.108 74.856C177.529 74.856 181.944 75.2451 186.365 75.275C189.358 75.275 192.351 75.4471 195.344 75.4471C200.117 75.4471 204.885 75.2875 209.649 74.9683C213.951 74.684 218.238 74.3847 222.503 73.7861C229.303 72.8742 235.976 71.1821 242.39 68.7434C254.084 64.2543 264.468 57.5206 274.262 49.8517C281.258 44.3525 287.879 38.4119 294.508 32.4788C303.247 24.6603 312.465 17.5151 322.625 11.582C326.913 9.12012 331.379 6.98426 335.988 5.19248C340.381 3.48368 344.895 2.10323 349.492 1.0625C354.565 -0.156056 359.833 -0.324101 364.972 0.568695C373.008 2.01269 378.499 6.64396 382.113 13.8041C384.567 18.6897 385.734 23.8971 386.363 29.2691C386.681 32.5436 386.816 35.8332 386.767 39.1227Z" fill="#EB8045"/>
</g>
<path d="M281.318 227.531C281.318 227.531 281.483 225.286 281.483 224.845C281.483 224.403 282.021 224.396 282.852 224.456C283.682 224.515 324.945 224.134 329.06 224.052C333.175 223.969 425.404 224.291 426.04 224.291C426.675 224.291 427.087 224.8 427.686 225.937C428.284 227.074 435.916 239.113 436.956 240.901C437.996 242.689 446.682 256.261 447.632 257.54C448.582 258.82 456.176 272.549 457.007 273.798C457.837 275.048 468.843 294.65 469.524 295.743C470.205 296.835 474.627 304.407 475.577 306.606C476.527 308.806 478.113 311.44 478.188 311.634C478.263 311.829 478.188 312.001 477.874 312.061C477.56 312.12 420.338 316.213 416.425 316.452C412.512 316.692 360.311 320.246 353.301 320.942C346.29 321.637 283.173 327.585 281.4 327.817L277.113 328.401C276.934 328.401 276.664 328.491 276.694 327.698C276.724 326.905 277.038 319.692 277.008 318.719C276.978 317.747 278.116 295.436 278.116 293.895C278.116 292.353 278.744 278.624 278.789 277.046C278.834 275.467 279.418 257.308 279.418 256.044C279.418 254.78 280.054 245.682 280.166 244.529C280.278 243.377 281.318 228.204 281.318 227.531Z" fill="#FFDAB6"/>
<path d="M205.377 145.919C205.377 145.919 205.549 143.674 205.549 143.233C205.549 142.791 206.08 142.784 206.911 142.844C207.741 142.903 249.004 142.522 253.119 142.439C257.234 142.357 349.463 142.679 350.099 142.679C350.735 142.679 351.146 143.188 351.752 144.325C352.358 145.462 359.982 157.5 361.015 159.289C362.047 161.077 370.741 174.649 371.691 175.928C372.641 177.208 380.236 190.937 381.066 192.186C381.896 193.436 392.902 213.038 393.583 214.131C394.264 215.223 398.686 222.795 399.636 224.994C400.586 227.194 402.172 229.828 402.247 230.022C402.322 230.217 402.247 230.389 401.933 230.449C401.619 230.508 344.405 234.601 340.484 234.84C336.564 235.08 284.37 238.634 277.36 239.33C270.349 240.025 207.24 245.973 205.459 246.205L201.172 246.789C200.993 246.789 200.723 246.879 200.753 246.086C200.783 245.293 201.097 238.08 201.067 237.107C201.038 236.135 202.175 213.824 202.175 212.283C202.175 210.741 202.811 197.012 202.848 195.433C202.886 193.855 203.477 175.696 203.477 174.432C203.477 173.167 204.113 164.07 204.225 162.917C204.337 161.765 205.377 146.569 205.377 145.919Z" fill="#F5BB83"/>
<path d="M243.347 61.4336C243.347 61.4336 243.519 59.1891 243.519 58.7401C243.519 58.2912 244.051 58.2987 244.881 58.3586C245.712 58.4184 286.974 58.0294 291.089 57.9471C295.204 57.8648 387.433 58.1865 388.069 58.1865C388.705 58.1865 389.116 58.7027 389.715 59.84C390.313 60.9772 397.945 73.008 398.985 74.8037C400.025 76.5993 408.711 90.1714 409.661 91.4433C410.612 92.7153 418.206 106.452 419.036 107.701C419.867 108.951 430.873 128.553 431.553 129.653C432.234 130.753 436.656 138.317 437.606 140.509C438.556 142.702 440.143 145.343 440.217 145.537C440.292 145.732 440.217 145.911 439.903 145.964C439.589 146.016 382.375 150.124 378.455 150.355C374.534 150.587 322.341 154.156 315.33 154.845C308.32 155.533 245.21 161.488 243.43 161.728L239.142 162.304C238.963 162.304 238.694 162.394 238.723 161.608C238.753 160.823 239.068 153.595 239.038 152.63C239.008 151.665 240.145 129.339 240.145 127.798C240.145 126.256 240.774 112.535 240.818 110.949C240.863 109.362 241.447 91.2114 241.447 89.947C241.447 88.6825 242.083 79.5846 242.195 78.4399C242.307 77.2951 243.347 62.092 243.347 61.4336Z" fill="#FFDAB6"/>
<path d="M312.315 283.712C313.28 282.215 314.051 280.981 314.784 279.754C315.357 278.841 316.084 278.033 316.931 277.367C318.263 276.26 319.61 276.469 320.627 277.869C321.34 278.897 321.96 279.986 322.483 281.123C324.129 284.512 325.79 287.917 328.566 290.565C329.705 291.81 331.237 292.626 332.905 292.877C334.074 293.015 335.258 292.826 336.325 292.331C337.393 291.835 338.302 291.053 338.951 290.071C340.574 287.914 341.703 285.426 342.258 282.784C342.371 282.391 342.393 281.978 342.32 281.575C342.248 281.173 342.083 280.793 341.839 280.465C341.262 279.717 340.873 278.796 341.449 277.794C341.538 277.572 341.691 277.383 341.888 277.249C342.086 277.116 342.319 277.045 342.557 277.046C342.767 277.056 342.969 277.124 343.143 277.243C343.316 277.362 343.452 277.527 343.537 277.719C343.762 278.206 343.918 278.722 344.001 279.253C344.337 280.682 344.973 281.116 346.417 280.996C346.597 280.992 346.776 280.964 346.949 280.914C347.6 280.689 348.333 280.435 348.512 281.392C348.669 282.201 347.899 282.26 347.338 282.462C346.715 282.677 346.049 282.734 345.4 282.627C344.001 282.41 343.948 282.403 343.634 283.779C343.025 286.103 342.012 288.301 340.641 290.273C339.614 291.963 338.068 293.275 336.235 294.014C333.309 295.152 330.713 294.381 328.409 292.436C326.081 290.391 324.173 287.913 322.79 285.141C321.922 283.502 321.121 281.826 320.283 280.165C320.08 279.666 319.789 279.207 319.423 278.811C319.317 278.684 319.186 278.579 319.038 278.505C318.89 278.43 318.728 278.386 318.563 278.376C318.397 278.366 318.231 278.391 318.076 278.447C317.92 278.504 317.778 278.592 317.657 278.706C317.288 279.009 316.963 279.362 316.692 279.754C315.361 281.663 314.166 283.663 313.116 285.739C312.745 286.492 312.614 287.341 312.742 288.171C313.233 291.424 313.162 294.736 312.532 297.965C312.128 299.708 312.442 301.534 311.993 303.299C311.676 304.937 311.249 306.552 310.714 308.133C310.53 308.64 310.278 309.121 309.966 309.562C309.861 309.745 309.71 309.899 309.528 310.007C309.346 310.115 309.139 310.174 308.927 310.179C308.716 310.183 308.507 310.133 308.32 310.033C308.134 309.932 307.976 309.786 307.863 309.607C307.578 309.302 307.356 308.943 307.213 308.552C306.577 306.494 306.03 304.399 306.659 302.244C307.153 300.561 306.891 298.81 307.34 297.104C308.124 293.793 309.216 290.561 310.602 287.453C310.901 286.929 311.022 286.323 310.946 285.724C310.385 282.53 309.667 279.417 307.781 276.664C305.596 273.469 302.544 272.414 298.893 273.073C297.174 273.463 295.611 274.356 294.404 275.639C291.488 278.572 289.255 282.113 287.864 286.009C286.428 289.619 285.614 293.447 285.455 297.329C285.395 299.162 285.373 301.189 286.802 302.753C287.176 303.157 287.296 303.614 286.802 303.988C286.308 304.362 286.054 303.95 285.732 303.651C284.612 302.382 284.001 300.743 284.019 299.05C283.69 292.211 285.65 285.949 289.017 280.083C290.384 277.633 292.19 275.454 294.344 273.656C297.995 270.663 303.838 270.491 307.474 273.903C308.974 275.377 310.118 277.173 310.819 279.155C311.335 280.555 311.739 281.969 312.315 283.712ZM310.931 290.296C310.856 290.528 310.804 290.76 310.714 290.977C308.911 295.698 307.721 300.524 308.028 305.626C307.982 306.733 308.347 307.818 309.053 308.671C310.947 302.766 311.797 296.576 311.567 290.378C311.567 290.079 311.844 289.63 311.38 289.555C310.916 289.48 310.946 289.959 310.924 290.296H310.931Z" fill="#B8C4D1"/>
<path d="M291.209 174.971C291.763 174.537 291.755 174.021 291.957 173.602C292.185 173.052 292.458 172.521 292.773 172.015C294.194 170.003 296.012 170.025 297.366 172.068C298.162 173.342 298.705 174.756 298.968 176.235C299.746 180.482 299.746 184.835 298.968 189.082C298.519 191.798 297.876 194.478 297.045 197.102C296.663 198.329 296.716 198.449 297.793 199.115C298.764 199.71 299.801 200.192 300.883 200.551C302.08 200.948 303.285 201.299 304.534 200.671C304.606 200.616 304.689 200.578 304.778 200.56C304.866 200.541 304.957 200.542 305.045 200.563C305.133 200.584 305.215 200.624 305.286 200.68C305.357 200.736 305.414 200.807 305.454 200.888C305.536 201.051 305.555 201.239 305.508 201.415C305.462 201.591 305.352 201.745 305.2 201.846C304.922 202.075 304.6 202.245 304.254 202.345C303.908 202.445 303.545 202.474 303.187 202.429C301.205 202.429 299.446 201.554 297.763 200.716C297.441 200.559 297.142 200.349 296.835 200.17C296.756 200.1 296.659 200.052 296.555 200.03C296.451 200.008 296.344 200.014 296.243 200.046C296.142 200.079 296.051 200.137 295.979 200.215C295.907 200.293 295.857 200.388 295.833 200.491C295.533 201.24 295.264 201.943 294.957 202.654C293.156 207.161 290.709 211.383 287.692 215.186C285.216 218.179 282.343 220.677 278.527 221.822C276.028 222.57 273.537 222.57 271.247 221.209C270.275 220.618 269.751 220.932 269.137 221.62C266.808 224.194 264.241 226.541 261.469 228.631C259.433 230.127 257.339 231.504 254.802 232.012C253.795 232.26 252.732 232.135 251.809 231.661C251.374 231.45 251.028 231.091 250.833 230.648C250.639 230.205 250.608 229.708 250.747 229.244C250.779 229.097 250.857 228.963 250.97 228.864C251.083 228.764 251.225 228.703 251.375 228.691C251.451 228.684 251.527 228.694 251.599 228.718C251.671 228.743 251.737 228.782 251.794 228.833C251.85 228.885 251.895 228.947 251.926 229.016C251.957 229.086 251.973 229.161 251.974 229.237C252.011 229.775 252.011 230.329 252.625 230.591C253.183 230.814 253.796 230.863 254.383 230.733C255.851 230.423 257.244 229.828 258.483 228.982C262.262 226.603 265.411 223.491 268.457 220.266C268.816 219.884 269.018 219.518 268.621 219.024C264.963 214.318 264.177 208.774 264.267 203.073C264.396 192.735 266.975 182.576 271.793 173.43C273.33 170.354 275.488 167.631 278.131 165.431C279.09 164.619 280.18 163.976 281.355 163.531C282.638 162.987 284.073 162.923 285.4 163.348C286.726 163.774 287.856 164.662 288.583 165.85C290.079 167.975 290.58 170.429 290.895 172.943C290.879 173.632 290.986 174.319 291.209 174.971ZM270.05 218.283C270.449 218.092 270.782 217.788 271.008 217.408C273.548 214.311 275.851 211.027 277.899 207.584C282.313 200.222 286.181 192.621 288.373 184.271C289.428 180.26 290.057 176.198 289.376 172.038C289.151 170.007 288.427 168.063 287.266 166.382C286.704 165.56 285.882 164.951 284.932 164.654C283.981 164.356 282.959 164.388 282.029 164.743C280.727 165.204 279.534 165.93 278.527 166.875C276.425 168.753 274.68 170.996 273.38 173.497C268.115 183.223 265.465 194.148 265.688 205.205C265.681 208.933 266.563 212.608 268.262 215.926C268.741 216.802 269.137 217.804 270.05 218.283ZM290.393 182.483C290.304 182.565 290.169 182.632 290.146 182.722C288.179 191.259 284.423 199.047 280.053 206.574C277.635 210.778 274.883 214.782 271.823 218.545C271.075 219.45 271.135 219.63 272.108 220.146C273.647 220.987 275.444 221.227 277.15 220.82C281.011 219.944 283.884 217.617 286.391 214.677C290.057 210.315 292.526 205.287 294.621 200.035C294.791 199.665 294.845 199.252 294.774 198.851C294.703 198.449 294.511 198.08 294.224 197.79C292.65 195.898 291.573 193.642 291.089 191.229C290.644 188.94 290.45 186.609 290.513 184.278C290.628 183.679 290.586 183.061 290.393 182.483ZM295.286 196.975C295.9 196.653 295.87 196.227 295.975 195.92C297.628 190.787 298.347 185.4 298.1 180.014C298.035 177.981 297.633 175.974 296.91 174.073C296.694 173.449 296.356 172.874 295.915 172.382C295.272 171.739 294.868 171.731 294.247 172.382C293.662 173.066 293.235 173.871 292.997 174.739C292.414 176.562 292.092 178.459 292.039 180.373C291.792 184.196 291.553 188.019 292.571 191.783C293.077 193.694 294.005 195.468 295.286 196.975Z" fill="#ED8B54"/>
<path d="M287.864 104.319C287.715 107.065 287.864 109.804 289.204 112.325C291.747 117.091 295.563 118.146 300.015 116.56C303.284 115.361 306.149 113.266 308.282 110.514C309.457 109.07 310.527 107.574 311.589 106.025C311.822 105.761 311.942 105.416 311.922 105.065C311.902 104.713 311.745 104.384 311.484 104.147C308.394 100.055 308.14 95.5806 309.988 90.9344C310.534 89.5502 311.484 88.1886 313.19 88.1811C314.896 88.1736 315.951 89.3931 316.647 90.8895C317.417 92.5869 317.606 94.4906 317.186 96.3064C316.692 98.7629 315.874 101.143 314.754 103.384C314.148 104.604 314.133 104.686 315.39 105.21C319.013 106.814 323.057 107.205 326.92 106.325C328.209 106.027 329.388 105.368 330.316 104.424C330.905 103.92 331.53 103.46 332.187 103.048C332.24 102.994 332.303 102.952 332.372 102.923C332.441 102.894 332.516 102.879 332.591 102.879C332.666 102.879 332.74 102.894 332.81 102.923C332.879 102.952 332.942 102.994 332.995 103.048C333.101 103.157 333.161 103.303 333.161 103.455C333.161 103.608 333.101 103.754 332.995 103.863C332.567 104.363 332.107 104.836 331.618 105.277C329.77 106.893 327.72 108.001 325.161 107.911C323.605 107.851 322.049 107.866 320.493 107.873C318.463 107.897 316.459 107.421 314.657 106.489C313.46 105.876 313.377 105.868 312.682 107.013C311.1 109.463 309.22 111.708 307.085 113.694C305.059 115.818 302.505 117.367 299.686 118.183C294.665 119.463 290.565 118.43 287.976 113.343C286.958 111.345 286.372 109.155 286.256 106.916C286.126 104.116 286.281 101.311 286.72 98.5435C287.64 92.2512 290.019 86.5201 292.967 80.9985C295.004 77.0626 297.719 73.5168 300.987 70.5239C302.564 69.0644 304.468 68.0048 306.539 67.4339C307.427 67.1698 308.364 67.1155 309.276 67.275C310.189 67.4346 311.052 67.8038 311.797 68.3536C312.543 68.9033 313.151 69.6186 313.573 70.4431C313.995 71.2676 314.22 72.1789 314.23 73.1051C314.395 76.3747 313.198 79.143 311.664 81.8814C309.462 85.9333 306.299 89.3834 302.454 91.9295C300.477 93.2905 298.245 94.2373 295.892 94.7127C295.104 94.9154 294.274 94.8815 293.505 94.6154C292.736 94.3493 292.062 93.8627 291.568 93.2164C291.445 93.0831 291.351 92.9253 291.294 92.7533C291.237 92.5812 291.216 92.399 291.235 92.2186C291.253 92.0382 291.31 91.8637 291.401 91.7068C291.492 91.5499 291.615 91.4141 291.762 91.3085C291.902 91.148 292.089 91.0371 292.297 90.9926C292.505 90.948 292.722 90.9723 292.915 91.0616C293.326 91.2711 293.199 91.6377 293.094 91.9968C292.825 92.8498 293.408 93.0592 294.044 93.1266C295.541 93.2728 297.05 93.0144 298.414 92.3784C301.188 91.099 303.696 89.3068 305.806 87.0962C308.309 84.6054 310.352 81.6928 311.844 78.4921C312.725 76.5172 313.029 74.3328 312.719 72.1924C312.45 69.7982 309.726 68.1447 307.325 68.7507C305.474 69.2528 303.775 70.2037 302.379 71.519C297.755 75.6639 294.523 80.774 292.047 86.4228C290.586 89.6959 289.431 93.0972 288.597 96.5832C287.979 99.1127 287.732 101.719 287.864 104.319ZM310.534 96.4186C310.534 96.8002 310.489 97.4661 310.534 98.117C310.666 99.8509 311.277 101.514 312.3 102.92C312.622 103.369 313.086 103.833 313.497 102.98C314.949 99.8827 316.273 96.7478 315.914 93.2089C315.842 92.1872 315.467 91.2102 314.836 90.4032C313.901 89.2659 312.981 89.2585 312.023 90.4032C311.734 90.7838 311.483 91.1924 311.275 91.6227C310.589 93.1219 310.332 94.7822 310.534 96.4186Z" fill="#B8C4D1"/>
<path d="M371.691 275.026C371.502 274.396 371.083 273.862 370.517 273.529C370.053 273.163 369.634 272.781 369.192 272.362C368.424 271.672 367.838 270.802 367.486 269.832C367.133 268.861 367.026 267.818 367.172 266.796C367.554 266.272 367.92 265.756 368.324 265.224C369.015 264.136 369.996 263.263 371.157 262.704C372.318 262.145 373.612 261.922 374.894 262.059C376.838 262.226 378.767 262.544 380.662 263.01C383.655 263.758 386.595 264.693 389.55 265.554C394.9 266.743 400.227 268.015 405.599 269.092C412.333 270.439 418.939 272.175 425.74 273.073C428.157 273.394 429.743 271.793 429.234 269.429C428.848 267.679 428.302 265.969 427.603 264.319C426.189 260.915 423.997 258.386 420.301 257.234C418.191 256.575 416.178 255.677 413.926 255.618C413.799 255.505 413.679 255.311 413.537 255.281C410.387 254.672 407.196 254.297 403.99 254.159C395.773 254.271 387.631 255.75 379.899 258.536C375.933 260.167 371.871 261.566 367.861 263.092C367.341 263.321 366.779 263.44 366.211 263.44C365.643 263.44 365.081 263.321 364.561 263.092C363.521 261.446 364.097 259.83 364.838 258.334C365.474 257.11 366.288 255.988 367.255 255.004C372.8 249.233 379.126 244.266 386.049 240.25C391.689 236.871 397.809 234.366 404.2 232.82C407.151 232.138 410.154 231.71 413.178 231.541C413.433 231.878 413.672 231.855 413.926 231.541C415.266 231.691 416.545 231.129 417.877 231.219C417.93 231.316 418.007 231.397 418.102 231.453C418.197 231.509 418.305 231.539 418.415 231.539C418.526 231.539 418.634 231.509 418.729 231.453C418.824 231.397 418.901 231.316 418.954 231.219H422.905C422.957 231.316 423.035 231.397 423.13 231.453C423.225 231.509 423.333 231.539 423.443 231.539C423.554 231.539 423.662 231.509 423.757 231.453C423.851 231.397 423.929 231.316 423.982 231.219C431.875 231.84 439.552 233.254 446.824 236.636C453.431 239.711 459.319 243.841 465.185 248.076C469.404 251.121 473.22 254.652 477.432 257.705C480.178 259.695 482.67 262.045 485.213 264.304C493.144 271.322 500.656 278.774 507.996 286.398C512.926 291.523 517.76 296.738 522.421 302.11C524.972 305.035 527.658 307.871 530.254 310.729C534.743 315.607 539.232 320.455 543.609 325.468C546.011 328.214 548.502 330.87 550.934 333.586C554.426 337.497 557.86 341.469 561.237 345.505C563.272 347.929 565.389 350.286 567.521 352.627C570.731 356.166 574.023 359.63 577.248 363.177C580.241 366.506 582.822 370.18 585.627 373.651C588.254 376.906 590.955 380.093 593.543 383.378C594.456 384.53 595.691 385.488 596.065 387.021C595.032 387.194 594.089 386.58 593.072 386.715C590.408 387.081 587.767 387.463 585.313 388.69C582.859 389.917 580.285 391.181 577.831 392.566C570.984 396.372 564.811 401.281 559.561 407.095C555.195 411.945 551.702 417.514 549.236 423.555C547.941 426.72 546.797 429.9 546.819 433.379C545.861 432.768 545.034 431.972 544.387 431.037C543.25 429.646 541.971 428.389 540.729 427.102C535.888 422.059 531.212 416.874 526.775 411.472C524.92 409.228 522.952 407.043 520.969 404.888C518.627 402.337 516.196 399.868 513.839 397.324C508.976 392.087 504.113 386.797 499.219 381.56C495.389 377.46 491.738 373.202 487.877 369.117C483.538 364.509 479.445 359.675 475.098 355.074C471.529 351.333 467.766 347.697 464.055 344.046C459.214 339.445 454.126 335.112 448.814 331.065C442.774 326.286 436.731 321.515 430.686 316.752C427.072 313.916 423.398 311.148 419.747 308.365C419.49 308.218 419.216 308.103 418.932 308.021C418.184 306.771 416.837 306.09 415.729 305.215C412.318 302.521 408.697 300.105 405.135 297.613C401.23 294.882 397.287 292.196 393.246 289.668C387.538 286.091 382.024 282.186 376.495 278.392C374.886 277.248 373.562 275.736 371.691 275.026ZM379.42 269.968C378.335 267.566 376.315 266.332 373.913 265.628C373.176 265.417 372.39 265.449 371.672 265.718C370.954 265.988 370.342 266.481 369.926 267.125C369.08 268.442 369.297 269.676 370.187 270.925C371.536 272.743 373.369 274.143 375.477 274.966C376.27 276.051 377.258 275.542 378.208 275.287C378.679 275.205 379.115 274.983 379.458 274.649C379.801 274.315 380.036 273.886 380.131 273.417C380.333 272.227 380.453 270.963 379.42 269.968ZM399.501 281.939C399.15 281.819 398.753 281.707 398.604 282.171C398.454 282.635 398.783 282.919 399.105 283.211C399.24 283.327 399.401 283.407 399.575 283.443C399.749 283.48 399.93 283.472 400.1 283.42C400.7 283.258 401.226 282.894 401.59 282.39C401.954 281.886 402.133 281.272 402.098 280.652C402.044 280.08 401.774 279.551 401.343 279.173C400.912 278.794 400.352 278.595 399.778 278.617C398.998 278.633 398.242 278.886 397.608 279.341C396.975 279.797 396.495 280.434 396.232 281.168C395.996 281.788 395.952 282.464 396.104 283.109C396.256 283.755 396.597 284.34 397.085 284.789C398.042 285.725 399.329 285.762 400.586 285.597C400.759 285.552 400.919 285.465 401.05 285.343C401.153 285.282 401.231 285.185 401.266 285.07C401.302 284.955 401.295 284.831 401.245 284.722C401.208 284.646 401.155 284.578 401.091 284.522C401.027 284.467 400.952 284.426 400.87 284.4C400.339 284.34 399.786 284.4 399.262 284.296C398.757 284.215 398.298 283.957 397.967 283.567C397.636 283.177 397.456 282.682 397.459 282.171C397.564 281.679 397.796 281.223 398.132 280.849C398.468 280.475 398.897 280.196 399.374 280.038C399.579 279.986 399.794 279.995 399.994 280.064C400.193 280.133 400.368 280.26 400.496 280.427C400.62 280.599 400.692 280.802 400.704 281.012C400.716 281.223 400.667 281.433 400.564 281.617C400.521 281.714 400.459 281.8 400.381 281.871C400.302 281.941 400.21 281.995 400.11 282.027C400.009 282.06 399.903 282.071 399.798 282.059C399.694 282.048 399.592 282.014 399.501 281.961V281.939Z" fill="#FBC998"/>
<path d="M546.819 433.334C546.819 429.855 547.942 426.675 549.236 423.511C551.702 417.469 555.195 411.9 559.561 407.05C564.801 401.231 570.964 396.315 577.802 392.498C580.248 391.114 582.755 389.857 585.284 388.623C587.812 387.388 590.379 387.014 593.042 386.647C594.082 386.513 595.025 387.126 596.035 386.954C596.895 387.575 598.01 387.889 598.586 388.877C599.831 390.991 600.267 393.484 599.813 395.895C598.908 400.93 595.923 404.739 592.451 408.263C585.795 415.151 578.519 421.412 570.716 426.967C567.447 429.257 564.095 431.456 560.743 433.581C558.315 435.106 555.622 436.161 552.805 436.694C551.875 436.938 550.896 436.915 549.979 436.628C549.062 436.341 548.244 435.801 547.62 435.07C547.156 434.531 547.246 433.836 546.819 433.334Z" fill="#EB8146"/>
<path d="M371.691 275.026C373.562 275.736 374.886 277.27 376.495 278.348C382.046 282.156 387.538 286.046 393.246 289.623C397.287 292.152 401.229 294.86 405.135 297.568C408.696 300.06 412.318 302.477 415.729 305.17C416.837 306.045 418.146 306.726 418.932 307.976C416.044 308.945 413.077 309.661 410.066 310.116C408.494 310.422 406.893 310.609 405.307 310.864C405.045 310.557 404.806 310.602 404.559 310.924C403.594 310.961 402.659 311.313 401.678 311.2C399.919 310.744 398.073 310.744 396.314 311.2C394.376 310.998 392.453 310.826 390.762 309.704C390.236 309.362 389.783 308.92 389.428 308.403C389.074 307.885 388.825 307.303 388.696 306.689C388.568 306.075 388.562 305.441 388.679 304.825C388.796 304.209 389.033 303.622 389.378 303.098C390.19 301.713 391.218 300.468 392.423 299.409C392.58 299.333 392.73 299.246 392.872 299.147C393.089 298.99 393.501 298.81 393.231 298.511C392.962 298.212 392.595 298.421 392.378 298.758C390.852 299.187 389.297 299.505 387.725 299.708C387.463 299.394 387.223 299.439 386.977 299.761H384.141C383.924 299.446 383.692 299.387 383.393 299.693C382.585 299.476 381.777 299.274 380.976 299.035C378.208 298.204 375.477 294.666 377.303 290.805C377.736 289.892 378.193 289.002 378.642 288.104C378.5 288.019 378.34 287.969 378.175 287.957C378.01 287.945 377.844 287.972 377.692 288.037C375.647 288.742 373.462 288.94 371.325 288.613C369.943 288.494 368.638 287.93 367.604 287.006C366.571 286.082 365.865 284.847 365.593 283.488C365.436 282.426 365.664 281.343 366.237 280.435C367.591 278.138 369.686 276.634 371.691 275.026Z" fill="#ECA26D"/>
<path d="M389.55 265.568C386.558 264.708 383.655 263.773 380.662 263.025C378.767 262.558 376.838 262.241 374.893 262.074C373.612 261.936 372.318 262.16 371.157 262.719C369.996 263.278 369.015 264.151 368.324 265.239C367.95 265.77 367.576 266.287 367.172 266.81C365.309 266.279 364.718 264.858 364.568 263.122C365.087 263.351 365.647 263.469 366.214 263.469C366.781 263.469 367.342 263.351 367.86 263.122C371.871 261.625 375.933 260.196 379.899 258.565C387.631 255.78 395.773 254.301 403.99 254.188C407.196 254.327 410.387 254.702 413.537 255.311C413.679 255.311 413.799 255.535 413.926 255.647C413.881 255.887 413.829 256.186 413.567 256.209C412.453 256.39 411.356 256.668 410.29 257.039C403.451 258.914 396.813 261.455 390.471 264.626C390.059 264.813 389.528 264.94 389.55 265.568Z" fill="#ECA36C"/>
<path d="M396.344 311.178C398.103 310.721 399.949 310.721 401.708 311.178C399.961 311.717 398.091 311.717 396.344 311.178Z" fill="#F4BD9D"/>
<path d="M392.371 298.758C392.588 298.421 392.932 298.197 393.224 298.511C393.516 298.825 393.082 298.99 392.865 299.147C392.722 299.246 392.572 299.333 392.416 299.409L392.371 298.758Z" fill="#F7D7C0"/>
<path d="M418.954 231.144C418.902 231.241 418.824 231.322 418.729 231.378C418.634 231.435 418.526 231.464 418.416 231.464C418.305 231.464 418.197 231.435 418.102 231.378C418.008 231.322 417.93 231.241 417.877 231.144C418.229 230.725 418.558 230.718 418.954 231.144Z" fill="#FDE5CE"/>
<path d="M423.982 231.167C423.929 231.264 423.852 231.344 423.757 231.401C423.662 231.457 423.554 231.487 423.444 231.487C423.333 231.487 423.225 231.457 423.13 231.401C423.035 231.344 422.958 231.264 422.905 231.167C422.958 231.07 423.035 230.989 423.13 230.933C423.225 230.877 423.333 230.847 423.444 230.847C423.554 230.847 423.662 230.877 423.757 230.933C423.852 230.989 423.929 231.07 423.982 231.167Z" fill="#FDE5CE"/>
<path d="M413.926 231.496C413.702 231.84 413.463 231.863 413.178 231.496C413.44 231.182 413.68 231.159 413.926 231.496Z" fill="#FDE5CE"/>
<path d="M383.393 299.693C383.662 299.387 383.894 299.446 384.141 299.761C383.849 300.105 383.618 300.015 383.393 299.693Z" fill="#F4CDB0"/>
<path d="M386.992 299.76C387.209 299.439 387.448 299.394 387.74 299.708C387.493 300.022 387.261 300.105 386.992 299.76Z" fill="#F4CDB0"/>
<path d="M404.589 310.909C404.806 310.587 405.045 310.542 405.337 310.849C405.09 311.163 404.858 311.208 404.589 310.909Z" fill="#F4CDB0"/>
<path d="M389.55 265.568C389.55 264.933 390.059 264.82 390.471 264.611C396.825 261.438 403.476 258.896 410.327 257.024C411.394 256.653 412.49 256.375 413.604 256.194C413.866 256.194 413.919 255.872 413.964 255.633C416.208 255.692 418.228 256.59 420.338 257.249C424.034 258.401 426.226 260.93 427.64 264.334C428.34 265.984 428.886 267.694 429.271 269.444C429.78 271.808 428.194 273.409 425.777 273.088C418.976 272.19 412.31 270.454 405.636 269.107C400.227 268.03 394.9 266.758 389.55 265.568Z" fill="#EB8146"/>
<path d="M375.477 274.996C373.369 274.173 371.536 272.773 370.188 270.955C369.297 269.706 369.08 268.471 369.926 267.155C370.342 266.511 370.955 266.017 371.673 265.748C372.391 265.479 373.176 265.447 373.914 265.658C376.315 266.362 378.335 267.596 379.42 269.998C378.644 269.997 377.883 270.222 377.232 270.646C376.581 271.07 376.068 271.674 375.754 272.384C375.313 273.17 375.59 274.12 375.477 274.996Z" fill="#ECA26C"/>
<path d="M399.501 281.961C399.593 282.008 399.694 282.036 399.798 282.042C399.901 282.048 400.004 282.033 400.101 281.997C400.198 281.961 400.287 281.905 400.361 281.834C400.436 281.762 400.494 281.675 400.534 281.58C400.637 281.396 400.686 281.186 400.674 280.975C400.662 280.764 400.59 280.561 400.467 280.39C400.338 280.222 400.163 280.096 399.964 280.027C399.764 279.958 399.549 279.949 399.344 280.001C398.867 280.158 398.439 280.438 398.102 280.812C397.766 281.186 397.534 281.642 397.429 282.133C397.426 282.644 397.606 283.14 397.937 283.529C398.268 283.919 398.727 284.178 399.232 284.258C399.756 284.348 400.309 284.303 400.841 284.363C400.922 284.388 400.997 284.43 401.061 284.485C401.125 284.54 401.178 284.608 401.215 284.685C401.265 284.794 401.273 284.918 401.237 285.032C401.201 285.147 401.124 285.244 401.02 285.306C400.889 285.427 400.729 285.514 400.556 285.56C399.292 285.725 398.012 285.687 397.055 284.752C396.567 284.302 396.226 283.717 396.074 283.072C395.922 282.427 395.966 281.751 396.202 281.131C396.465 280.396 396.945 279.759 397.579 279.304C398.212 278.848 398.968 278.596 399.748 278.579C400.333 278.55 400.905 278.751 401.344 279.138C401.783 279.525 402.053 280.068 402.098 280.652C402.149 281.278 401.98 281.903 401.621 282.419C401.262 282.935 400.735 283.31 400.13 283.48C399.96 283.532 399.779 283.54 399.605 283.503C399.431 283.466 399.269 283.386 399.135 283.271C398.813 283.001 398.446 282.717 398.633 282.231C398.82 281.744 399.15 281.841 399.501 281.961Z" fill="#EC874D"/>
<path d="M375.477 274.996C375.589 274.12 375.312 273.2 375.754 272.354C376.067 271.644 376.581 271.04 377.232 270.616C377.883 270.192 378.643 269.967 379.42 269.968C380.452 270.963 380.333 272.212 380.131 273.447C380.036 273.916 379.801 274.345 379.458 274.679C379.115 275.013 378.679 275.235 378.208 275.317C377.258 275.572 376.27 276.08 375.477 274.996Z" fill="#EB8247"/>
<path d="M518.859 208.886C518.081 209.534 517.194 210.041 516.241 210.382C509.507 213.375 502.631 215.807 495.815 218.493C486.388 222.214 477.048 226.149 467.796 230.299C451.036 237.856 434.584 246.011 418.168 254.301C413.919 256.441 409.549 258.319 405.217 260.286C401.566 261.94 398.11 263.96 394.593 265.875C394.2 266.137 393.751 266.303 393.282 266.36C392.813 266.417 392.337 266.364 391.892 266.204C390.523 265.696 389.034 265.561 387.687 264.962C388.436 263.773 389.782 263.705 390.882 263.152C396.471 260.309 402.18 257.705 407.843 255.004C410.911 253.508 413.904 251.914 416.904 250.298C419.114 249.116 421.293 247.869 423.443 246.557C428.247 243.662 433.042 240.744 438.093 238.327C441.684 236.591 445.328 234.93 448.994 233.329C455.443 230.511 461.967 227.885 468.566 225.451C475.951 222.72 483.238 219.75 490.555 216.869C497.543 214.116 504.487 211.25 511.437 208.4C512.597 207.928 513.682 207.307 514.812 206.731C515.283 206.492 515.979 206.125 515.709 205.594C515.373 204.935 514.767 205.549 514.333 205.751C513.899 205.953 513.435 206.372 512.949 206.567C506.594 209.145 500.234 211.709 493.87 214.258C489.555 215.979 485.231 217.685 480.896 219.375C475.397 221.523 469.913 223.692 464.384 225.743C457.837 228.182 451.425 230.927 445.058 233.763C440.493 235.703 436.047 237.908 431.741 240.37C427.581 242.829 423.396 245.243 419.186 247.612C416.126 249.34 413.073 251.113 409.901 252.625C406.452 254.271 403.048 256.014 399.561 257.578C395.424 259.441 391.376 261.513 387.291 263.488C386.962 263.625 386.625 263.74 386.281 263.833C386.07 263.891 385.848 263.901 385.632 263.86C385.417 263.818 385.214 263.728 385.04 263.595C384.865 263.463 384.723 263.292 384.626 263.095C384.528 262.899 384.478 262.683 384.478 262.463C384.386 261.959 384.269 261.46 384.126 260.967C388.364 258.535 392.721 256.317 397.182 254.323C402.688 251.705 408.173 249.041 413.552 246.19C419.882 242.846 426.129 239.345 432.586 236.262C439.043 233.179 445.814 230.194 452.428 227.172C457.852 224.695 463.292 222.241 468.701 219.735C475.09 216.742 481.48 213.831 487.937 211.026C493.241 208.714 498.591 206.537 504.053 204.636C507.15 203.559 510.255 202.504 513.278 201.232C513.659 201.062 514.073 200.978 514.49 200.985C515.395 203.043 516.293 205.108 517.198 207.165C517.326 207.559 517.543 207.919 517.83 208.217C518.118 208.515 518.47 208.744 518.859 208.886Z" fill="#323E4C"/>
<path d="M379.098 262.523C377.43 262.523 375.829 261.91 374.093 261.85C375.073 261.341 376.038 260.81 377.026 260.316C394.107 251.719 411.203 243.145 428.598 235.199C449.652 225.583 470.664 215.881 491.633 206.095C498.105 203.065 504.621 200.11 511.213 197.386C511.654 197.207 512.111 197.072 512.567 196.915L513.315 197.102L514.063 199.908C512.642 199.982 511.52 200.88 510.225 201.314C506.035 202.706 501.86 204.142 497.73 205.691C492.867 207.509 488.116 209.589 483.373 211.677C480.32 213.038 477.298 214.467 474.26 215.851C469.21 218.156 464.144 220.43 459.102 222.735C455.787 224.231 452.51 225.84 449.173 227.306C443.327 229.88 437.529 232.551 431.778 235.319C426.069 238.072 420.518 241.125 414.906 244.058C408.075 247.642 401.14 251.024 394.219 254.443C389.73 256.687 385.308 259.074 380.684 261.057C380.056 261.356 379.106 261.461 379.098 262.523Z" fill="#36424F"/>
<path d="M379.098 262.523C379.098 261.461 380.056 261.356 380.699 261.079C385.323 259.096 389.73 256.687 394.234 254.465C401.155 251.046 408.09 247.664 414.921 244.08C420.533 241.147 426.084 238.095 431.793 235.342C437.502 232.588 443.345 229.902 449.188 227.329C452.525 225.832 455.802 224.268 459.117 222.757C464.159 220.453 469.225 218.178 474.275 215.874C477.312 214.49 480.335 213.061 483.388 211.699C488.131 209.589 492.882 207.509 497.745 205.713C501.875 204.165 506.05 202.721 510.24 201.337C511.534 200.903 512.657 200.005 514.078 199.93C514.215 200.073 514.321 200.242 514.392 200.427C514.463 200.612 514.496 200.809 514.49 201.007C514.073 201 513.659 201.084 513.278 201.254C510.285 202.526 507.15 203.581 504.053 204.658C498.591 206.566 493.241 208.736 487.937 211.048C481.48 213.854 475.09 216.794 468.701 219.757C463.291 222.263 457.852 224.717 452.428 227.194C445.814 230.187 439.155 233.179 432.586 236.284C426.017 239.389 419.867 242.868 413.552 246.213C408.173 249.063 402.688 251.727 397.182 254.345C392.727 256.333 388.374 258.543 384.141 260.967C383.277 261.156 382.459 261.512 381.732 262.014C380.983 262.475 380.086 262.63 379.225 262.448L379.098 262.523Z" fill="#404D5C"/>
<path d="M386.281 263.84C386.625 263.748 386.962 263.633 387.291 263.496C391.376 261.521 395.424 259.448 399.561 257.585C403.048 256.022 406.452 254.278 409.901 252.632C413.073 251.136 416.126 249.348 419.186 247.619C423.391 245.25 427.576 242.836 431.741 240.377C436.047 237.916 440.493 235.71 445.058 233.771C451.425 230.935 457.837 228.189 464.384 225.75C469.913 223.7 475.397 221.53 480.896 219.383C485.226 217.702 489.55 215.996 493.87 214.265C500.234 211.717 506.594 209.153 512.949 206.574C513.435 206.379 513.846 205.983 514.333 205.758C514.819 205.534 515.373 204.943 515.709 205.601C515.979 206.133 515.283 206.499 514.812 206.739C513.697 207.315 512.567 207.936 511.437 208.407C504.487 211.258 497.543 214.123 490.555 216.877C483.238 219.757 475.951 222.727 468.566 225.458C461.967 227.897 455.443 230.523 448.994 233.337C445.328 234.938 441.684 236.599 438.093 238.334C433.042 240.774 428.247 243.691 423.443 246.565C421.293 247.856 419.114 249.103 416.904 250.305C413.911 251.922 410.919 253.545 407.843 255.012C402.18 257.712 396.471 260.316 390.882 263.159C389.782 263.713 388.413 263.78 387.687 264.97L386.625 264.513L386.281 263.84Z" fill="#404D5C"/>
<path d="M533.172 202.796C530.258 204.202 527.26 205.426 524.194 206.462C524.251 206.047 524.166 205.626 523.955 205.265C521.92 202.272 520.887 198.86 519.989 195.411C519.915 194.829 519.652 194.288 519.241 193.87C519.716 193.514 520.258 193.26 520.835 193.122C523.581 192.209 526.244 191.086 528.9 189.949C528.317 191.101 527.561 192.194 527.823 193.608C528.541 197.319 529.761 200.693 533.172 202.796Z" fill="#EB8248"/>
<path d="M361.486 280.652C359.419 281.395 357.313 282.026 355.179 282.545C353.729 282.903 352.231 283.024 350.742 282.904C348.243 282.732 347.054 280.532 348.146 278.489C348.837 277.228 349.794 276.133 350.952 275.28C352.745 273.896 354.675 272.7 356.713 271.711C358.77 271.838 358.957 271.846 358.957 273.162C358.957 274.479 360.783 274.292 360.745 275.527C360.717 275.76 360.659 275.989 360.573 276.208C360.498 276.354 360.453 276.513 360.442 276.677C360.431 276.841 360.453 277.005 360.508 277.16C360.563 277.315 360.649 277.457 360.76 277.578C360.872 277.698 361.007 277.795 361.157 277.861C362.182 278.377 362.369 279.043 361.606 279.956C361.456 280.083 361.516 280.39 361.486 280.652Z" fill="#34404E"/>
<path d="M519.249 193.862C519.66 194.281 519.922 194.822 519.997 195.404C520.895 198.853 521.927 202.257 523.962 205.257C524.174 205.618 524.258 206.04 524.202 206.454C524.171 206.6 524.104 206.736 524.007 206.85C523.911 206.963 523.787 207.051 523.648 207.105C522.107 207.853 520.655 208.759 518.837 208.878C518.448 208.736 518.096 208.508 517.808 208.209C517.521 207.911 517.304 207.552 517.176 207.158C516.271 205.1 515.373 203.035 514.468 200.978C514.474 200.78 514.441 200.583 514.37 200.398C514.299 200.213 514.193 200.044 514.056 199.9L513.308 197.094L513.375 196.548C514.415 195.246 516.106 195.052 517.386 194.191C517.939 193.84 518.609 193.722 519.249 193.862Z" fill="#B2BECB"/>
<path d="M533.172 202.796C529.761 200.693 528.519 197.319 527.83 193.63C527.568 192.239 528.324 191.124 528.908 189.972C531.511 188.849 531.796 189.224 533.053 190.787C534.973 193.034 536.033 195.89 536.045 198.845C536.023 201.105 535.387 201.98 533.172 202.796Z" fill="#FBC898"/>
<path d="M361.486 280.652C361.486 280.42 361.486 280.113 361.583 279.956C362.331 279.043 362.159 278.377 361.134 277.861C360.984 277.795 360.849 277.698 360.737 277.578C360.626 277.457 360.54 277.315 360.485 277.16C360.431 277.006 360.408 276.841 360.42 276.677C360.431 276.513 360.475 276.354 360.551 276.208C360.637 275.989 360.695 275.76 360.723 275.527C360.723 274.292 358.912 274.562 358.934 273.163C358.957 271.763 358.77 271.838 356.69 271.711C357.171 271.165 357.822 270.796 358.538 270.664C358.699 270.738 358.851 270.828 358.994 270.933C360.386 272.145 360.341 272.07 361.905 271.165C363.469 270.26 365.025 268.98 366.91 268.531C367.097 268.861 367.186 269.238 367.165 269.616C364.92 270.611 362.99 272.04 360.775 273.357C361.437 274.016 361.906 274.844 362.129 275.751C363.064 275.295 363.85 274.868 364.666 274.532C366.162 273.903 367.658 273.035 369.349 272.893C369.409 273.127 369.382 273.375 369.273 273.591C369.165 273.807 368.982 273.976 368.758 274.068C368.055 274.375 367.359 274.719 366.656 275.026C365.563 275.497 364.464 275.946 363.371 276.417C362.735 276.701 362.376 277.083 362.93 277.779C363.483 278.475 363.184 279.275 363.252 280.023C362.765 280.451 362.133 280.675 361.486 280.652Z" fill="#465361"/>
<path d="M363.289 279.971C363.222 279.223 363.506 278.4 362.967 277.726C362.429 277.053 362.773 276.649 363.409 276.365C364.501 275.893 365.601 275.445 366.693 274.973C367.397 274.666 368.092 274.322 368.796 274.015C369.019 273.924 369.202 273.754 369.311 273.539C369.419 273.323 369.446 273.075 369.387 272.841L373.068 275.654C371.99 276.597 365.691 279.35 363.289 279.971Z" fill="#384452"/>
<path d="M369.372 272.826C367.674 272.968 366.222 273.836 364.688 274.464C363.873 274.801 363.087 275.213 362.152 275.684C361.928 274.777 361.46 273.949 360.798 273.29C363.042 272.01 364.965 270.581 367.187 269.549C367.838 270.691 368.568 271.786 369.372 272.826Z" fill="#36424F"/>
<path d="M366.933 268.501C365.047 268.95 363.558 270.192 361.927 271.135C360.296 272.078 360.431 272.115 359.017 270.903C358.874 270.799 358.721 270.708 358.561 270.634C361.269 268.786 364.322 267.536 367.03 265.703C367.359 265.479 367.688 266.047 367.965 265.636C367.344 266.481 367.352 267.574 366.933 268.501Z" fill="#3A4654"/>
<path d="M386.281 263.84L386.625 264.506C384.118 263.955 381.643 263.268 379.21 262.448C380.071 262.63 380.968 262.475 381.717 262.014C382.444 261.512 383.262 261.156 384.126 260.967C384.269 261.46 384.386 261.959 384.478 262.463C384.477 262.683 384.526 262.9 384.623 263.098C384.72 263.295 384.862 263.467 385.037 263.601C385.211 263.734 385.415 263.825 385.631 263.867C385.846 263.908 386.069 263.899 386.281 263.84Z" fill="#36424F"/>
<path d="M513.383 196.556L513.316 197.102L512.567 196.915C512.747 196.586 513.069 196.571 513.383 196.556Z" fill="#767F8A"/>
<path d="M367.965 265.636L368.003 265.591L367.973 265.636H367.965Z" fill="#3A4654"/>
<path d="M223.505 226.618C217.954 230.426 212.462 234.309 206.754 237.893C202.713 240.422 198.77 243.131 194.865 245.839C191.304 248.323 187.682 250.74 184.271 253.441C183.163 254.316 181.854 254.989 181.068 256.239C180.784 256.321 180.51 256.436 180.253 256.583C176.602 259.374 172.928 262.142 169.314 264.97C163.254 269.719 157.211 274.49 151.186 279.283C145.874 283.332 140.786 287.668 135.945 292.271C132.204 295.923 128.463 299.521 124.902 303.3C120.555 307.901 116.463 312.734 112.123 317.336C108.27 321.421 104.641 325.685 100.781 329.778C95.88 335.015 91.0541 340.253 86.161 345.55C83.8042 348.094 81.3726 350.563 79.0308 353.114C77.0481 355.269 75.0804 357.438 73.2249 359.698C68.7881 365.1 64.112 370.277 59.2712 375.32C58.0292 376.614 56.7498 377.864 55.6126 379.263C54.962 380.194 54.136 380.99 53.181 381.605C53.181 378.126 52.0587 374.938 50.7643 371.781C48.2994 365.739 44.806 360.17 40.4394 355.321C35.1974 349.504 29.0351 344.587 22.1986 340.769C19.752 339.385 17.2456 338.135 14.7168 336.893C12.2537 335.823 9.63354 335.158 6.95807 334.925C5.9181 334.783 4.97538 335.397 3.96533 335.225C4.33942 333.728 5.57393 332.733 6.48672 331.581C9.07544 328.304 11.7764 325.117 14.4025 321.855C17.2082 318.368 19.782 314.687 22.7822 311.38C25.9919 307.834 29.2839 304.362 32.5086 300.831C34.6409 298.489 36.7583 296.132 38.7934 293.708C42.1702 289.683 45.6044 285.707 49.0959 281.782C51.5275 279.066 54.019 276.41 56.4206 273.672C60.7826 268.681 65.2866 263.81 69.7757 258.932C72.4019 256.067 75.0579 253.239 77.6093 250.306C82.2705 244.941 87.1037 239.726 92.0343 234.594C99.374 226.97 106.886 219.518 114.817 212.492C117.36 210.248 119.852 207.884 122.598 205.893C126.81 202.841 130.626 199.309 134.845 196.264C140.711 192.037 146.599 187.899 153.206 184.832C160.478 181.45 168.17 180.036 176.048 179.415C176.101 179.512 176.179 179.593 176.273 179.649C176.368 179.705 176.476 179.735 176.587 179.735C176.697 179.735 176.805 179.705 176.9 179.649C176.995 179.593 177.073 179.512 177.125 179.415H181.076C181.42 179.856 181.779 179.856 182.153 179.415C183.485 179.325 184.764 179.886 186.104 179.737C186.328 180.088 186.568 180.103 186.852 179.737C189.875 179.913 192.878 180.341 195.83 181.016C202.222 182.561 208.343 185.069 213.981 188.453C220.91 192.479 227.237 197.461 232.775 203.252C233.741 204.234 234.556 205.353 235.192 206.574C235.94 208.071 236.509 209.687 235.469 211.34C234.949 211.568 234.387 211.685 233.819 211.685C233.251 211.685 232.69 211.568 232.169 211.34C228.159 209.844 224.097 208.407 220.131 206.784C216.081 205.219 211.867 204.12 207.569 203.507C203.772 202.761 199.909 202.405 196.04 202.444C192.834 202.579 189.642 202.954 186.493 203.566C186.351 203.566 186.231 203.783 186.104 203.903C183.859 203.956 181.839 204.861 179.729 205.512C176.033 206.671 173.841 209.2 172.427 212.605C171.728 214.252 171.182 215.96 170.796 217.707C170.287 220.079 171.873 221.673 174.29 221.358C181.091 220.461 187.72 218.725 194.431 217.378C199.803 216.301 205.13 215.021 210.48 213.839C213.435 212.979 216.375 212.036 219.368 211.288C221.264 210.825 223.192 210.508 225.137 210.338C226.418 210.201 227.711 210.426 228.872 210.985C230.032 211.544 231.014 212.416 231.706 213.502C232.08 214.034 232.454 214.557 232.858 215.081C233.003 216.103 232.895 217.146 232.543 218.116C232.19 219.087 231.605 219.956 230.838 220.648C230.396 221.037 229.977 221.448 229.513 221.807C228.949 222.142 228.53 222.676 228.339 223.304C226.438 223.999 225.114 225.511 223.505 226.618ZM219.869 221.717C219.963 222.186 220.197 222.616 220.54 222.949C220.884 223.281 221.32 223.502 221.792 223.58C222.742 223.835 223.73 224.329 224.523 223.259C226.629 222.437 228.462 221.039 229.813 219.226C230.703 217.969 230.92 216.735 230.075 215.418C229.656 214.776 229.043 214.285 228.326 214.016C227.609 213.747 226.824 213.714 226.087 213.921C223.685 214.625 221.665 215.867 220.58 218.261C219.54 219.226 219.667 220.49 219.869 221.717ZM199.466 229.85C199.362 229.665 199.313 229.454 199.325 229.242C199.337 229.03 199.41 228.826 199.534 228.653C199.662 228.485 199.837 228.359 200.037 228.291C200.236 228.223 200.452 228.216 200.656 228.272C201.133 228.429 201.562 228.709 201.898 229.083C202.234 229.457 202.466 229.912 202.571 230.404C202.572 230.915 202.392 231.409 202.061 231.799C201.731 232.188 201.272 232.447 200.768 232.529C200.244 232.619 199.691 232.566 199.16 232.626C198.997 232.68 198.863 232.796 198.785 232.948C198.735 233.057 198.728 233.181 198.764 233.296C198.799 233.41 198.877 233.508 198.98 233.569C199.109 233.693 199.269 233.781 199.444 233.823C200.708 233.988 201.988 233.95 202.945 233.015C203.438 232.571 203.786 231.989 203.943 231.344C204.1 230.7 204.06 230.023 203.828 229.401C203.564 228.667 203.084 228.029 202.451 227.573C201.818 227.116 201.062 226.861 200.282 226.843C199.711 226.832 199.157 227.034 198.728 227.411C198.299 227.787 198.026 228.31 197.962 228.878C197.911 229.505 198.079 230.131 198.438 230.648C198.797 231.165 199.324 231.542 199.93 231.713C200.101 231.762 200.281 231.768 200.455 231.73C200.629 231.692 200.79 231.612 200.925 231.496C201.247 231.234 201.614 230.95 201.427 230.456C201.239 229.962 200.88 230.105 200.529 230.232C200.435 230.284 200.332 230.316 200.225 230.324C200.119 230.333 200.011 230.319 199.911 230.283C199.81 230.247 199.718 230.189 199.641 230.115C199.565 230.04 199.505 229.95 199.466 229.85Z" fill="#FBC998"/>
<path d="M53.181 381.605C53.181 378.126 52.0587 374.938 50.7643 371.781C48.2994 365.739 44.806 360.17 40.4394 355.321C35.1974 349.504 29.0351 344.587 22.1986 340.769C19.7521 339.385 17.2456 338.135 14.7168 336.893C12.2537 335.823 9.63354 335.158 6.95808 334.925C5.9181 334.783 4.97538 335.397 3.96533 335.225C3.10492 335.853 1.99012 336.167 1.41402 337.147C0.169429 339.261 -0.266518 341.755 0.186997 344.165C1.0923 349.201 4.07756 353.016 7.54914 356.54C14.2071 363.427 21.4825 369.688 29.2839 375.245C32.5535 377.535 35.9054 379.734 39.2573 381.859C41.6852 383.386 44.3777 384.444 47.1955 384.979C48.1258 385.22 49.105 385.195 50.0216 384.906C50.9382 384.618 51.7555 384.078 52.3804 383.348C52.8443 382.802 52.747 382.098 53.181 381.605Z" fill="#EB8146"/>
<path d="M228.309 223.289C226.438 223.999 225.114 225.533 223.505 226.618C217.954 230.426 212.462 234.309 206.754 237.893C202.713 240.422 198.77 243.13 194.865 245.839C191.304 248.323 187.682 250.74 184.271 253.44C183.163 254.316 181.854 254.989 181.068 256.239C183.957 257.207 186.923 257.925 189.934 258.386C191.506 258.685 193.107 258.872 194.693 259.134C194.955 258.835 195.194 258.872 195.441 259.194C196.406 259.194 197.341 259.583 198.322 259.471C200.08 259.011 201.927 259.011 203.686 259.471C205.624 259.269 207.547 259.089 209.238 257.937C210.295 257.256 211.039 256.184 211.306 254.955C211.574 253.727 211.344 252.442 210.667 251.383C209.855 250.001 208.827 248.758 207.621 247.702C207.467 247.624 207.317 247.536 207.173 247.44C206.956 247.275 206.544 247.096 206.813 246.804C207.083 246.512 207.449 246.707 207.666 247.043C209.192 247.476 210.747 247.794 212.32 247.994C212.582 247.679 212.821 247.724 213.068 248.054H215.934C216.151 247.732 216.383 247.672 216.682 247.986C217.49 247.762 218.298 247.56 219.099 247.32C221.867 246.49 224.598 242.951 222.772 239.09C222.338 238.185 221.882 237.295 221.433 236.397C221.575 236.311 221.734 236.26 221.899 236.247C222.064 236.234 222.23 236.26 222.383 236.322C224.426 237.033 226.612 237.234 228.75 236.906C230.133 236.786 231.439 236.221 232.472 235.296C233.506 234.37 234.211 233.134 234.481 231.773C234.639 230.711 234.41 229.628 233.838 228.72C232.409 226.409 230.314 224.897 228.309 223.289Z" fill="#ECA26D"/>
<path d="M210.449 213.839C213.405 212.979 216.345 212.036 219.338 211.288C221.234 210.825 223.162 210.507 225.106 210.337C226.387 210.201 227.681 210.425 228.842 210.985C230.002 211.544 230.984 212.416 231.676 213.502C232.05 214.033 232.424 214.557 232.828 215.081C234.691 214.55 235.282 213.128 235.431 211.392C234.912 211.62 234.352 211.737 233.785 211.737C233.219 211.737 232.658 211.62 232.139 211.392C228.129 209.896 224.066 208.459 220.101 206.836C216.063 205.255 211.859 204.139 207.569 203.506C203.772 202.761 199.909 202.405 196.039 202.444C192.834 202.579 189.642 202.954 186.493 203.566C186.35 203.566 186.231 203.783 186.104 203.903C186.148 204.135 186.201 204.442 186.463 204.457C187.578 204.637 188.675 204.917 189.74 205.295C196.579 207.166 203.218 209.707 209.559 212.881C209.941 213.076 210.472 213.203 210.449 213.839Z" fill="#ECA36C"/>
<path d="M203.656 259.448C201.897 258.988 200.05 258.988 198.292 259.448C200.039 259.987 201.908 259.987 203.656 259.448Z" fill="#F4BD9D"/>
<path d="M207.636 247.021C207.419 246.684 207.075 246.467 206.783 246.782C206.491 247.096 206.925 247.253 207.142 247.418C207.287 247.514 207.437 247.601 207.591 247.679L207.636 247.021Z" fill="#F7D7C0"/>
<path d="M181.046 179.408C181.39 179.849 181.749 179.849 182.123 179.408C182.071 179.311 181.993 179.23 181.898 179.174C181.803 179.117 181.695 179.088 181.585 179.088C181.474 179.088 181.366 179.117 181.271 179.174C181.177 179.23 181.099 179.311 181.046 179.408Z" fill="#FDE5CE"/>
<path d="M176.018 179.438C176.071 179.534 176.149 179.615 176.244 179.671C176.338 179.728 176.447 179.757 176.557 179.757C176.667 179.757 176.775 179.728 176.87 179.671C176.965 179.615 177.043 179.534 177.095 179.438C176.721 178.989 176.362 178.989 176.018 179.438Z" fill="#FDE5CE"/>
<path d="M186.074 179.759C186.298 180.111 186.538 180.126 186.822 179.759C186.56 179.445 186.321 179.422 186.074 179.759Z" fill="#FDE5CE"/>
<path d="M216.592 247.964C216.323 247.65 216.091 247.709 215.844 248.031C216.151 248.338 216.383 248.285 216.592 247.964Z" fill="#F4CDB0"/>
<path d="M213.008 248.031C212.791 247.702 212.552 247.657 212.26 247.971C212.507 248.285 212.739 248.33 213.008 248.031Z" fill="#F4CDB0"/>
<path d="M195.411 259.172C195.194 258.85 194.955 258.813 194.663 259.112C194.91 259.426 195.142 259.471 195.411 259.172Z" fill="#F4CDB0"/>
<path d="M210.45 213.839C210.45 213.203 209.941 213.091 209.529 212.881C203.188 209.707 196.55 207.166 189.71 205.295C188.645 204.917 187.548 204.637 186.433 204.457C186.171 204.457 186.119 204.135 186.074 203.903C183.829 203.955 181.809 204.861 179.699 205.512C176.003 206.671 173.811 209.2 172.397 212.604C171.698 214.252 171.152 215.96 170.766 217.707C170.257 220.079 171.843 221.672 174.26 221.358C181.061 220.46 187.69 218.725 194.401 217.378C199.773 216.308 205.1 215.021 210.45 213.839Z" fill="#EB8146"/>
<path d="M224.523 223.259C226.629 222.437 228.462 221.039 229.813 219.226C230.703 217.969 230.92 216.735 230.075 215.418C229.656 214.776 229.043 214.285 228.326 214.016C227.609 213.747 226.824 213.714 226.087 213.921C223.685 214.625 221.665 215.867 220.58 218.261C221.358 218.26 222.119 218.486 222.77 218.911C223.422 219.336 223.934 219.942 224.246 220.655C224.688 221.463 224.411 222.383 224.523 223.259Z" fill="#ECA26C"/>
<path d="M200.499 230.232C200.406 230.279 200.306 230.306 200.202 230.312C200.099 230.319 199.996 230.303 199.899 230.267C199.802 230.232 199.713 230.176 199.639 230.104C199.564 230.032 199.505 229.946 199.466 229.85C199.362 229.665 199.313 229.454 199.325 229.242C199.337 229.03 199.409 228.825 199.533 228.653C199.661 228.485 199.837 228.359 200.036 228.291C200.236 228.223 200.452 228.216 200.656 228.272C201.133 228.429 201.561 228.708 201.897 229.083C202.233 229.457 202.466 229.912 202.571 230.404C202.572 230.915 202.391 231.409 202.061 231.799C201.731 232.188 201.272 232.447 200.768 232.529C200.244 232.618 199.691 232.566 199.159 232.626C198.997 232.68 198.863 232.795 198.785 232.948C198.735 233.057 198.727 233.181 198.763 233.295C198.799 233.41 198.876 233.507 198.98 233.569C199.109 233.693 199.269 233.781 199.444 233.823C200.708 233.988 201.987 233.95 202.945 233.015C203.438 232.571 203.785 231.989 203.943 231.344C204.1 230.7 204.06 230.023 203.828 229.401C203.564 228.667 203.084 228.029 202.451 227.573C201.818 227.116 201.062 226.861 200.282 226.842C199.711 226.831 199.157 227.034 198.728 227.411C198.299 227.787 198.026 228.31 197.962 228.878C197.911 229.505 198.079 230.131 198.438 230.648C198.797 231.165 199.324 231.542 199.93 231.713C200.101 231.762 200.281 231.768 200.455 231.73C200.628 231.692 200.79 231.612 200.925 231.496C201.247 231.234 201.613 230.95 201.426 230.456C201.239 229.962 200.835 230.105 200.499 230.232Z" fill="#EC874D"/>
<path d="M224.523 223.259C224.411 222.383 224.688 221.463 224.246 220.625C223.934 219.913 223.421 219.306 222.77 218.881C222.119 218.456 221.358 218.23 220.58 218.231C219.547 219.226 219.667 220.476 219.869 221.718C219.963 222.186 220.197 222.616 220.54 222.949C220.884 223.281 221.32 223.502 221.792 223.58C222.742 223.835 223.73 224.344 224.523 223.259Z" fill="#EB8247"/>
<path d="M81.126 157.157C81.9041 157.805 82.7906 158.312 83.7446 158.653C90.4783 161.646 97.3541 164.077 104.17 166.771C113.597 170.487 122.937 174.422 132.19 178.577C148.949 186.126 165.402 194.289 181.817 202.579C186.066 204.719 190.436 206.589 194.768 208.564C198.419 210.21 201.876 212.23 205.392 214.153C205.786 214.414 206.236 214.578 206.704 214.634C207.173 214.69 207.649 214.636 208.093 214.475C209.462 213.966 210.951 213.839 212.298 213.24C211.55 212.043 210.203 211.976 209.103 211.422C203.514 208.587 197.806 205.976 192.149 203.275C189.074 201.816 186.081 200.185 183.081 198.576C180.837 197.386 178.689 196.159 176.542 194.835C171.739 191.94 166.943 189.022 161.893 186.605C158.301 184.869 154.658 183.216 150.992 181.615C144.542 178.797 138.018 176.17 131.419 173.736C124.034 170.998 116.747 168.035 109.43 165.147C102.442 162.401 95.4986 159.528 88.548 156.678C87.3883 156.206 86.3034 155.593 85.1737 155.009C84.7023 154.77 84.0065 154.411 84.2758 153.879C84.6125 153.214 85.2186 153.835 85.6525 154.037C86.0865 154.239 86.5503 154.65 87.0366 154.852C93.3912 157.426 99.7508 159.987 106.115 162.536C110.435 164.267 114.759 165.975 119.089 167.661C124.588 169.801 130.072 171.971 135.601 174.028C142.148 176.46 148.56 179.213 154.934 182.041C159.501 183.974 163.95 186.173 168.26 188.625C172.42 191.094 176.609 193.496 180.814 195.868C183.874 197.603 186.927 199.377 190.099 200.888C193.548 202.526 196.953 204.277 200.439 205.841C204.577 207.696 208.624 209.776 212.717 211.752C213.044 211.884 213.379 211.996 213.719 212.088C213.93 212.149 214.152 212.159 214.367 212.119C214.583 212.079 214.786 211.989 214.961 211.857C215.136 211.725 215.277 211.554 215.375 211.358C215.472 211.162 215.523 210.946 215.523 210.727C215.615 210.222 215.732 209.723 215.874 209.23C211.684 206.701 207.225 204.681 202.818 202.586C197.312 199.968 191.828 197.304 186.448 194.461C180.118 191.109 173.871 187.615 167.414 184.533C160.957 181.45 154.186 178.465 147.572 175.442C142.148 172.958 136.709 170.504 131.299 167.998C124.91 165.042 118.52 162.095 112.063 159.289C106.759 156.984 101.409 154.8 95.9475 152.907C92.85 151.822 89.7451 150.774 86.7224 149.495C86.3407 149.328 85.927 149.246 85.5103 149.256L82.8019 155.428C82.6727 155.825 82.4545 156.187 82.1641 156.486C81.8736 156.786 81.5185 157.015 81.126 157.157Z" fill="#323E4C"/>
<path d="M220.902 210.786C222.57 210.786 224.171 210.173 225.907 210.121C224.927 209.604 223.962 209.081 222.974 208.579C205.893 199.983 188.797 191.416 171.402 183.47C150.348 173.849 129.336 164.145 108.367 154.358C101.895 151.366 95.3786 148.41 88.7871 145.657C88.3457 145.47 87.8893 145.343 87.4329 145.186L86.6847 145.365L85.9365 148.171C87.3581 148.246 88.4804 149.151 89.7747 149.577C93.9646 150.977 98.1394 152.406 102.269 153.954C107.133 155.78 111.884 157.852 116.627 159.94C119.68 161.301 122.702 162.73 125.74 164.115C130.79 166.412 135.855 168.686 140.898 170.99C144.213 172.487 147.49 174.095 150.827 175.569C156.672 178.143 162.471 180.814 168.222 183.582C173.901 186.381 179.467 189.411 185.079 192.366C191.91 195.942 198.845 199.332 205.766 202.743C210.255 204.988 214.677 207.382 219.301 209.357C219.944 209.627 220.894 209.724 220.902 210.786Z" fill="#36424F"/>
<path d="M220.902 210.786C220.902 209.724 219.944 209.627 219.301 209.342C214.677 207.367 210.27 204.951 205.766 202.728C198.845 199.317 191.91 195.927 185.079 192.351C179.467 189.411 173.916 186.366 168.207 183.612C162.498 180.859 156.693 178.151 150.812 175.599C147.475 174.103 144.198 172.532 140.883 171.02C135.841 168.716 130.775 166.441 125.725 164.145C122.688 162.76 119.665 161.331 116.612 159.97C111.869 157.852 107.118 155.78 102.255 153.984C98.1246 152.435 93.9497 150.991 89.7599 149.607C88.4655 149.181 87.3432 148.276 85.9217 148.201C85.6484 148.495 85.5008 148.884 85.5102 149.286C85.9269 149.276 86.3406 149.358 86.7222 149.525C89.715 150.804 92.8499 151.852 95.9474 152.937C101.409 154.837 106.759 157.014 112.063 159.319C118.52 162.124 124.91 165.072 131.299 168.028C136.709 170.534 142.148 172.988 147.572 175.472C154.186 178.465 160.845 181.458 167.414 184.563C173.983 187.667 180.133 191.139 186.448 194.491C191.827 197.334 197.312 199.998 202.818 202.616C207.225 204.711 211.684 206.731 215.874 209.26C216.735 209.456 217.553 209.811 218.283 210.308C219.033 210.766 219.928 210.924 220.79 210.749L220.902 210.786Z" fill="#404D5C"/>
<path d="M213.719 212.103C213.379 212.011 213.044 211.899 212.717 211.767C208.624 209.791 204.576 207.711 200.439 205.856C196.952 204.292 193.548 202.542 190.099 200.903C186.927 199.407 183.874 197.618 180.814 195.883C176.609 193.511 172.419 191.109 168.259 188.64C163.955 186.181 159.511 183.975 154.949 182.034C148.575 179.206 142.163 176.452 135.616 174.021C130.087 171.963 124.603 169.793 119.104 167.654C114.769 165.963 110.445 164.254 106.13 162.529C99.7656 159.985 93.406 157.423 87.0514 154.845C86.5651 154.643 86.1536 154.246 85.6673 154.029C85.1809 153.812 84.6273 153.206 84.2906 153.872C84.0212 154.403 84.717 154.762 85.1884 155.002C86.3032 155.585 87.433 156.199 88.5627 156.67C95.5134 159.521 102.457 162.394 109.445 165.14C116.762 168.028 124.049 170.991 131.434 173.729C138.033 176.168 144.557 178.794 151.006 181.607C154.672 183.208 158.316 184.862 161.907 186.598C166.958 189.044 171.753 191.962 176.557 194.828C178.704 196.122 180.889 197.349 183.096 198.569C186.089 200.177 189.081 201.808 192.164 203.267C197.82 205.968 203.529 208.579 209.118 211.415C210.218 211.969 211.587 212.036 212.313 213.233L213.375 212.777C213.495 212.567 213.607 212.328 213.719 212.103Z" fill="#404D5C"/>
<path d="M66.8281 151.059C69.7408 152.469 72.7395 153.693 75.8064 154.725C75.75 154.31 75.8343 153.889 76.0458 153.528C78.0808 150.535 79.1133 147.123 80.0112 143.674C80.0923 143.108 80.3548 142.583 80.7593 142.178C80.2845 141.823 79.7423 141.568 79.1657 141.43C76.4199 140.517 73.7563 139.395 71.1003 138.257C71.6839 139.41 72.4395 140.502 72.1776 141.923C71.4818 145.59 70.2399 148.971 66.8281 151.059Z" fill="#EB8248"/>
<path d="M238.514 228.892C240.58 229.636 242.686 230.266 244.821 230.778C246.27 231.143 247.77 231.264 249.258 231.137C251.757 230.972 252.947 228.765 251.854 226.73C251.166 225.468 250.208 224.372 249.049 223.521C247.258 222.134 245.327 220.938 243.288 219.952C241.23 220.079 241.043 220.079 241.043 221.403C241.043 222.727 239.217 222.533 239.255 223.767C239.284 224.001 239.342 224.229 239.427 224.448C239.502 224.594 239.547 224.754 239.558 224.918C239.569 225.082 239.547 225.246 239.492 225.401C239.437 225.556 239.352 225.698 239.24 225.818C239.129 225.939 238.994 226.035 238.843 226.102C237.818 226.611 237.631 227.284 238.394 228.197C238.544 228.346 238.484 228.653 238.514 228.892Z" fill="#34404E"/>
<path d="M80.7518 142.14C80.3472 142.545 80.0847 143.07 80.0036 143.637C79.1057 147.086 78.0732 150.498 76.0382 153.49C75.8267 153.851 75.7424 154.273 75.7988 154.687C75.8298 154.834 75.8966 154.971 75.9932 155.086C76.0897 155.201 76.2131 155.29 76.3524 155.346C77.8937 156.094 79.3452 156.992 81.1633 157.119C81.553 156.976 81.9051 156.746 82.1929 156.446C82.4807 156.147 82.6965 155.786 82.8242 155.391L85.5327 149.218C85.5233 148.817 85.6709 148.428 85.9442 148.133L86.6923 145.328L86.625 144.781C85.585 143.487 83.8941 143.285 82.6147 142.425C82.0541 142.092 81.3861 141.99 80.7518 142.14Z" fill="#B2BECB"/>
<path d="M66.8281 151.059C70.2398 148.956 71.4818 145.59 72.1702 141.901C72.432 140.509 71.6763 139.387 71.0928 138.235C68.4891 137.113 68.2048 137.487 66.9478 139.05C65.0281 141.301 63.9678 144.158 63.9551 147.116C63.985 149.375 64.6135 150.243 66.8281 151.059Z" fill="#FBC898"/>
<path d="M238.514 228.893C238.514 228.653 238.514 228.346 238.417 228.197C237.669 227.284 237.841 226.611 238.866 226.102C239.016 226.035 239.151 225.939 239.263 225.818C239.374 225.698 239.46 225.556 239.515 225.401C239.569 225.246 239.592 225.082 239.58 224.918C239.569 224.754 239.525 224.594 239.449 224.448C239.364 224.229 239.306 224.001 239.277 223.767C239.24 222.533 241.088 222.795 241.065 221.403C241.043 220.012 241.23 220.079 243.31 219.952C242.829 219.405 242.178 219.036 241.462 218.904C241.298 218.973 241.145 219.064 241.006 219.174C239.614 220.378 239.659 220.311 238.095 219.398C236.531 218.485 234.975 217.221 233.09 216.764C232.902 217.096 232.813 217.476 232.835 217.857C235.08 218.852 237.01 220.273 239.225 221.553C238.566 222.214 238.098 223.041 237.871 223.947C236.935 223.498 236.15 223.072 235.334 222.727C233.801 222.099 232.342 221.231 230.651 221.089C230.592 221.322 230.619 221.569 230.727 221.783C230.836 221.998 231.019 222.166 231.242 222.256C231.945 222.57 232.641 222.914 233.344 223.221C234.437 223.693 235.536 224.134 236.629 224.613C237.265 224.89 237.624 225.279 237.07 225.975C236.516 226.67 236.816 227.471 236.748 228.219C237.229 228.662 237.861 228.903 238.514 228.893Z" fill="#465361"/>
<path d="M236.749 228.234C236.816 227.486 236.532 226.671 237.07 225.99C237.609 225.309 237.265 224.905 236.629 224.628C235.536 224.149 234.437 223.708 233.344 223.236C232.641 222.93 231.945 222.585 231.242 222.271C231.019 222.181 230.836 222.013 230.728 221.798C230.619 221.584 230.592 221.337 230.651 221.104L226.97 223.917C228.01 224.867 234.309 227.613 236.749 228.234Z" fill="#384452"/>
<path d="M230.628 221.089C232.327 221.231 233.778 222.099 235.312 222.727C236.128 223.072 236.913 223.476 237.848 223.947C238.076 223.041 238.544 222.214 239.203 221.553C236.958 220.273 235.035 218.852 232.813 217.857C232.16 218.983 231.43 220.063 230.628 221.089Z" fill="#36424F"/>
<path d="M233.068 216.764C234.953 217.221 236.442 218.455 238.073 219.398C239.704 220.341 239.569 220.378 240.983 219.174C241.123 219.064 241.276 218.973 241.44 218.904C238.731 217.049 235.679 215.799 232.97 213.966C232.641 213.749 232.312 214.318 232.035 213.899C232.656 214.752 232.649 215.837 233.068 216.764Z" fill="#3A4654"/>
<path d="M213.719 212.103C213.607 212.328 213.495 212.552 213.375 212.777C215.881 212.222 218.356 211.536 220.79 210.719C219.928 210.894 219.033 210.736 218.283 210.278C217.553 209.781 216.735 209.426 215.874 209.23C215.732 209.723 215.614 210.222 215.522 210.727C215.525 210.947 215.476 211.165 215.38 211.363C215.283 211.561 215.142 211.734 214.966 211.868C214.791 212.001 214.587 212.092 214.371 212.133C214.154 212.174 213.931 212.164 213.719 212.103Z" fill="#36424F"/>
<path d="M86.6177 144.819L86.685 145.365L87.4332 145.185C87.2536 144.849 86.9319 144.834 86.6177 144.819Z" fill="#767F8A"/>
<path d="M232.035 213.899L231.998 213.854L232.027 213.899H232.035Z" fill="#3A4654"/>
<path d="M352.717 100.339C352.526 99.7112 352.107 99.1774 351.542 98.8429C351.086 98.4838 350.667 98.0947 350.225 97.6832C349.456 96.9937 348.869 96.1247 348.517 95.1535C348.164 94.1824 348.057 93.1392 348.205 92.1167C348.587 91.593 348.953 91.0693 349.357 90.5381C350.049 89.4514 351.031 88.5795 352.191 88.0204C353.352 87.4612 354.645 87.2371 355.926 87.3732C357.872 87.558 359.8 87.8907 361.695 88.3683C364.688 89.1165 367.621 90.0592 370.583 90.9197C375.933 92.1018 381.26 93.3812 386.632 94.4586C393.366 95.8053 399.972 97.5411 406.773 98.4389C409.182 98.7532 410.776 97.1595 410.267 94.7878C409.881 93.0405 409.335 91.3324 408.636 89.6851C407.222 86.2809 405.03 83.752 401.326 82.5998C399.224 81.9414 397.204 81.0361 394.959 80.9837C394.825 80.864 394.712 80.677 394.563 80.6471C391.413 80.0347 388.222 79.6596 385.016 79.5248C376.807 79.6324 368.673 81.1039 360.947 83.8792C356.974 85.5028 352.919 86.872 348.908 88.4357C348.388 88.6633 347.826 88.7808 347.259 88.7808C346.691 88.7808 346.129 88.6633 345.609 88.4357C344.569 86.7822 345.145 85.1736 345.886 83.6697C346.522 82.4505 347.334 81.3312 348.295 80.3478C353.837 74.5576 360.167 69.5758 367.097 65.5487C372.735 62.1642 378.856 59.6565 385.248 58.1117C388.2 57.4357 391.203 57.0078 394.226 56.8323C394.48 57.169 394.72 57.154 394.974 56.8323C396.313 56.9819 397.593 56.4283 398.925 56.5106C399.299 56.9221 399.673 56.9221 400.002 56.5106H403.952C404.005 56.6074 404.083 56.6882 404.178 56.7445C404.273 56.8008 404.381 56.8305 404.491 56.8305C404.601 56.8305 404.71 56.8008 404.804 56.7445C404.899 56.6882 404.977 56.6074 405.03 56.5106C412.923 57.1316 420.592 58.5457 427.872 61.9275C434.478 64.995 440.359 69.1325 446.232 73.3672C450.445 76.4048 454.268 79.9363 458.473 82.9889C461.219 84.9791 463.71 87.3358 466.261 89.5879C474.185 96.6133 481.704 104.065 489.044 111.689C493.967 116.807 498.77 122.022 503.469 127.401C506.02 130.334 508.706 133.17 511.302 136.028C515.791 140.906 520.28 145.754 524.657 150.767C527.051 153.505 529.55 156.161 531.974 158.877C535.466 162.798 538.903 166.773 542.284 170.803C544.32 173.228 546.429 175.584 548.562 177.926C551.779 181.458 555.071 184.929 558.288 188.476C561.281 191.798 563.862 195.479 566.675 198.95C569.294 202.205 571.995 205.392 574.584 208.677C575.496 209.829 576.738 210.786 577.105 212.32C576.08 212.5 575.13 211.879 574.112 212.021C571.436 212.252 568.815 212.919 566.354 213.996C563.832 215.231 561.326 216.488 558.872 217.864C552.033 221.679 545.87 226.596 540.631 232.417C536.264 237.266 532.768 242.835 530.299 248.877C529.012 252.034 527.859 255.221 527.889 258.7C526.931 258.089 526.104 257.293 525.458 256.358C524.321 254.959 523.041 253.71 521.799 252.416C516.958 247.373 512.282 242.195 507.846 236.793C505.99 234.549 504.015 232.364 502.04 230.209C499.698 227.658 497.259 225.189 494.909 222.645C490.039 217.408 485.183 212.111 480.29 206.881C476.459 202.781 472.808 198.516 468.947 194.431C464.608 189.83 460.508 184.997 456.168 180.395C452.592 176.617 448.829 173.018 445.125 169.367C440.282 164.764 435.192 160.428 429.877 156.378C423.847 151.605 417.816 146.817 411.756 142.073C408.135 139.237 404.469 136.469 400.81 133.686C400.559 133.532 400.287 133.416 400.002 133.342C399.209 132.085 397.907 131.411 396.8 130.536C393.388 127.835 389.767 125.418 386.205 122.935C382.292 120.204 378.35 117.518 374.317 114.989C368.608 111.405 363.094 107.507 357.565 103.714C355.904 102.584 354.58 101.087 352.717 100.339ZM360.453 95.2816C359.368 92.8874 357.34 91.6529 354.946 90.9421C354.209 90.7334 353.424 90.766 352.707 91.0353C351.989 91.3045 351.377 91.7962 350.958 92.4385C350.113 93.7553 350.33 94.9898 351.213 96.2467C352.565 98.0619 354.4 99.4595 356.51 100.279C357.303 101.364 358.283 100.856 359.241 100.601C359.712 100.522 360.147 100.301 360.489 99.9685C360.831 99.6357 361.064 99.2065 361.156 98.7382C361.351 97.5635 361.47 96.3066 360.438 95.304L360.453 95.2816ZM380.534 107.253C380.183 107.125 379.786 107.021 379.629 107.477C379.472 107.933 379.808 108.225 380.13 108.517C380.267 108.632 380.43 108.713 380.604 108.75C380.779 108.788 380.961 108.783 381.133 108.734C381.739 108.565 382.268 108.189 382.626 107.671C382.984 107.153 383.149 106.526 383.093 105.898C383.038 105.33 382.768 104.803 382.339 104.426C381.909 104.05 381.352 103.851 380.781 103.871C380.001 103.886 379.244 104.138 378.61 104.594C377.977 105.05 377.497 105.687 377.235 106.422C376.997 107.04 376.951 107.716 377.103 108.361C377.255 109.005 377.598 109.589 378.088 110.036C379.045 110.971 380.332 111.008 381.582 110.844C381.758 110.8 381.92 110.712 382.053 110.589C382.158 110.53 382.236 110.432 382.27 110.316C382.305 110.201 382.294 110.076 382.24 109.968C382.203 109.892 382.15 109.825 382.086 109.769C382.022 109.714 381.947 109.672 381.866 109.647C381.335 109.587 380.789 109.647 380.265 109.549C379.759 109.469 379.299 109.211 378.967 108.821C378.635 108.432 378.453 107.936 378.454 107.425C378.562 106.933 378.796 106.478 379.134 106.104C379.471 105.73 379.899 105.45 380.377 105.292C380.582 105.238 380.798 105.246 380.998 105.315C381.198 105.385 381.372 105.512 381.499 105.681C381.62 105.854 381.689 106.057 381.701 106.267C381.713 106.477 381.667 106.686 381.567 106.871C381.533 106.973 381.478 107.067 381.404 107.146C381.331 107.225 381.242 107.287 381.142 107.328C381.043 107.369 380.936 107.389 380.828 107.385C380.721 107.381 380.615 107.353 380.519 107.305L380.534 107.253Z" fill="#FBC998"/>
<path d="M527.837 258.678C527.837 255.199 528.959 252.011 530.246 248.854C532.715 242.813 536.211 237.244 540.579 232.394C545.817 226.573 551.98 221.657 558.819 217.842C561.266 216.465 563.772 215.208 566.301 213.974C568.762 212.897 571.383 212.23 574.06 211.998C575.092 211.856 576.043 212.477 577.053 212.298C577.92 212.926 579.035 213.24 579.604 214.221C580.855 216.332 581.291 218.828 580.831 221.238C579.926 226.274 576.94 230.09 573.476 233.613C566.817 240.502 559.539 246.763 551.734 252.318C548.472 254.608 545.12 256.807 541.761 258.932C539.333 260.46 536.641 261.518 533.822 262.052C532.892 262.293 531.913 262.268 530.996 261.979C530.08 261.691 529.262 261.151 528.637 260.421C528.166 259.875 528.263 259.172 527.837 258.678Z" fill="#EB8146"/>
<path d="M352.717 100.339C354.595 101.05 355.919 102.584 357.527 103.669C363.072 107.477 368.571 111.36 374.279 114.944C378.312 117.473 382.255 120.181 386.168 122.889C389.729 125.373 393.351 127.79 396.762 130.491C397.87 131.366 399.172 132.04 399.965 133.297C397.075 134.259 394.109 134.975 391.099 135.437C389.52 135.736 387.926 135.923 386.34 136.185C386.071 135.885 385.839 135.923 385.592 136.245C384.64 136.41 383.677 136.505 382.711 136.529C380.951 136.065 379.1 136.065 377.339 136.529C375.409 136.327 373.486 136.147 371.795 134.995C370.738 134.317 369.992 133.246 369.723 132.019C369.454 130.792 369.682 129.507 370.359 128.448C371.173 127.066 372.201 125.821 373.404 124.76C373.554 124.67 373.718 124.603 373.86 124.498C374.003 124.393 374.489 124.154 374.212 123.862C373.935 123.57 373.584 123.765 373.367 124.101C371.845 124.524 370.295 124.835 368.728 125.029C368.458 124.715 368.227 124.767 367.98 125.089H365.137C364.927 124.767 364.695 124.708 364.388 125.022C363.588 124.797 362.772 124.595 361.972 124.356C361.157 124.104 360.405 123.681 359.766 123.114C359.128 122.548 358.618 121.852 358.271 121.073C357.924 120.293 357.747 119.449 357.753 118.596C357.759 117.742 357.948 116.9 358.306 116.126C358.732 115.221 359.196 114.33 359.645 113.432C359.502 113.347 359.341 113.295 359.175 113.282C359.009 113.269 358.842 113.295 358.687 113.358C356.647 114.069 354.463 114.269 352.328 113.941C350.945 113.823 349.639 113.259 348.604 112.335C347.569 111.411 346.862 110.176 346.589 108.816C346.432 107.751 346.663 106.665 347.24 105.756C348.602 103.481 350.704 101.97 352.717 100.339Z" fill="#ECA26D"/>
<path d="M370.568 90.912C367.605 90.0516 364.687 89.1163 361.695 88.3681C359.799 87.9056 357.87 87.588 355.926 87.4179C354.645 87.2818 353.352 87.5059 352.191 88.0651C351.03 88.6242 350.049 89.4961 349.357 90.5828C348.976 91.114 348.609 91.6377 348.205 92.1615C346.342 91.6302 345.743 90.2087 345.594 88.4729C346.114 88.7005 346.676 88.8181 347.243 88.8181C347.811 88.8181 348.373 88.7005 348.893 88.4729C352.904 86.9765 356.959 85.54 360.932 83.9164C368.661 81.1319 376.8 79.6527 385.016 79.5396C388.222 79.6744 391.413 80.0495 394.562 80.6618C394.712 80.6618 394.824 80.8788 394.959 80.9985C394.907 81.2304 394.862 81.5372 394.592 81.5596C393.477 81.7347 392.38 82.0127 391.315 82.3901C384.476 84.264 377.838 86.805 371.496 89.9767C371.077 90.1488 370.538 90.276 370.568 90.912Z" fill="#ECA36C"/>
<path d="M377.354 136.522C379.115 136.058 380.966 136.058 382.726 136.522C380.976 137.057 379.105 137.057 377.354 136.522Z" fill="#F4BD9D"/>
<path d="M373.381 124.094C373.598 123.757 373.942 123.54 374.227 123.855C374.511 124.169 374.085 124.326 373.875 124.491C373.666 124.655 373.568 124.663 373.419 124.752C373.404 124.528 373.389 124.281 373.381 124.094Z" fill="#F7D7C0"/>
<path d="M399.972 56.4805C399.628 56.922 399.269 56.922 398.895 56.4805C398.947 56.3837 399.025 56.3029 399.12 56.2466C399.215 56.1903 399.323 56.1606 399.433 56.1606C399.543 56.1606 399.652 56.1903 399.747 56.2466C399.841 56.3029 399.919 56.3837 399.972 56.4805Z" fill="#FDE5CE"/>
<path d="M405 56.5106C404.947 56.6074 404.869 56.6882 404.774 56.7445C404.68 56.8008 404.571 56.8305 404.461 56.8305C404.351 56.8305 404.243 56.8008 404.148 56.7445C404.053 56.6882 403.975 56.6074 403.922 56.5106C403.975 56.4138 404.053 56.333 404.148 56.2767C404.243 56.2204 404.351 56.1907 404.461 56.1907C404.571 56.1907 404.68 56.2204 404.774 56.2767C404.869 56.333 404.947 56.4138 405 56.5106Z" fill="#FDE5CE"/>
<path d="M394.944 56.8321C394.72 57.1838 394.481 57.1988 394.196 56.8321C394.451 56.5179 394.69 56.5029 394.944 56.8321Z" fill="#FDE5CE"/>
<path d="M364.418 125.029C364.695 124.715 364.927 124.775 365.167 125.097C364.867 125.411 364.628 125.358 364.418 125.029Z" fill="#F4CDB0"/>
<path d="M368.01 125.104C368.227 124.783 368.459 124.73 368.758 125.044C368.511 125.366 368.272 125.404 368.01 125.104Z" fill="#F4CDB0"/>
<path d="M385.637 136.252C385.854 135.93 386.086 135.893 386.385 136.192C386.108 136.499 385.869 136.544 385.637 136.252Z" fill="#F4CDB0"/>
<path d="M370.568 90.9121C370.568 90.2762 371.077 90.164 371.481 89.9545C377.824 86.7879 384.462 84.2519 391.301 82.3828C392.365 82.0054 393.462 81.7274 394.578 81.5524C394.847 81.5524 394.892 81.2231 394.944 80.9912C397.189 81.0436 399.209 81.9489 401.311 82.6073C405.015 83.7595 407.207 86.2884 408.621 89.6926C409.32 91.3399 409.866 93.0479 410.252 94.7952C410.761 97.167 409.167 98.7606 406.758 98.4464C399.957 97.5486 393.291 95.8128 386.617 94.466C381.245 93.3737 375.91 92.1092 370.568 90.9121Z" fill="#EB8146"/>
<path d="M356.495 100.339C354.393 99.5136 352.565 98.1136 351.22 96.299C350.337 95.0421 350.121 93.8076 350.966 92.4907C351.384 91.8485 351.997 91.3568 352.714 91.0876C353.432 90.8183 354.216 90.7857 354.954 90.9944C357.348 91.7052 359.376 92.9397 360.46 95.3339C359.682 95.3318 358.921 95.5574 358.269 95.9828C357.618 96.4082 357.105 97.0149 356.794 97.728C356.323 98.5361 356.6 99.4564 356.495 100.339Z" fill="#ECA26C"/>
<path d="M380.519 107.305C380.611 107.352 380.712 107.379 380.815 107.385C380.919 107.392 381.022 107.376 381.119 107.34C381.216 107.305 381.305 107.249 381.379 107.177C381.454 107.105 381.512 107.019 381.552 106.923C381.652 106.738 381.698 106.529 381.686 106.319C381.674 106.109 381.604 105.906 381.484 105.734C381.357 105.564 381.183 105.437 380.983 105.368C380.783 105.298 380.567 105.29 380.362 105.345C379.884 105.503 379.456 105.782 379.119 106.156C378.781 106.53 378.547 106.985 378.439 107.477C378.438 107.989 378.62 108.484 378.952 108.874C379.284 109.263 379.744 109.521 380.25 109.602C380.774 109.691 381.32 109.639 381.851 109.699C381.932 109.725 382.007 109.766 382.071 109.822C382.135 109.877 382.188 109.945 382.225 110.021C382.279 110.128 382.29 110.253 382.255 110.368C382.22 110.484 382.143 110.582 382.038 110.642C381.905 110.765 381.743 110.852 381.567 110.896C380.302 111.061 379.03 111.023 378.073 110.088C377.583 109.641 377.24 109.058 377.088 108.413C376.936 107.768 376.982 107.093 377.22 106.474C377.482 105.739 377.962 105.102 378.595 104.646C379.229 104.19 379.986 103.938 380.766 103.923C381.337 103.903 381.894 104.102 382.324 104.479C382.753 104.855 383.023 105.382 383.078 105.951C383.134 106.578 382.969 107.205 382.611 107.723C382.253 108.241 381.724 108.617 381.118 108.786C380.946 108.835 380.764 108.841 380.589 108.803C380.415 108.765 380.252 108.685 380.115 108.569C379.793 108.307 379.427 108.023 379.614 107.529C379.801 107.035 380.167 107.178 380.519 107.305Z" fill="#EC874D"/>
<path d="M356.495 100.339C356.6 99.4637 356.323 98.5435 356.772 97.7055C357.083 96.9923 357.596 96.3856 358.247 95.9602C358.898 95.5348 359.66 95.3092 360.438 95.3113C361.471 96.3139 361.351 97.5559 361.141 98.7978C361.049 99.2662 360.816 99.6953 360.474 100.028C360.132 100.361 359.697 100.582 359.226 100.661C358.268 100.908 357.288 101.416 356.495 100.339Z" fill="#EB8247"/>
<path d="M499.877 34.2295C499.099 34.8783 498.213 35.3848 497.259 35.7258C490.525 38.7186 483.649 41.1502 476.833 43.8437C467.411 47.5896 458.071 51.5275 448.814 55.6575C432.047 63.2067 415.602 71.3694 399.179 79.6593C394.929 81.7991 390.56 83.6696 386.236 85.6448C382.577 87.2908 379.12 89.3109 375.611 91.2337C375.217 91.4941 374.768 91.6588 374.299 91.7147C373.83 91.7705 373.355 91.716 372.91 91.5555C371.541 91.0467 370.052 90.9195 368.698 90.3209C369.446 89.1313 370.801 89.0565 371.893 88.5028C377.489 85.6672 383.19 83.0561 388.854 80.3626C391.929 78.8662 394.922 77.2651 397.922 75.6565C400.167 74.4669 402.307 73.2399 404.454 71.9156C409.257 69.0201 414.053 66.1022 419.103 63.6855C422.702 61.9423 426.338 60.2888 430.004 58.6877C436.454 55.8645 442.98 53.2384 449.584 50.8093C456.962 48.0784 464.249 45.1081 471.574 42.2201C478.562 39.4742 485.505 36.6012 492.448 33.7581C493.608 33.2793 494.693 32.6658 495.83 32.0897C496.294 31.8428 496.997 31.4836 496.72 30.9524C496.383 30.2865 495.785 30.9075 495.343 31.1095C494.902 31.3115 494.453 31.723 493.959 31.9251C487.585 34.4938 481.228 37.0526 474.888 39.6014C470.574 41.3322 466.249 43.0406 461.915 44.7265C456.415 46.8663 450.924 49.0361 445.395 51.0936C438.855 53.5252 432.444 56.2785 426.069 59.1141C421.504 61.0495 417.057 63.253 412.751 65.7131C408.599 68.1821 404.409 70.5838 400.204 72.963C397.137 74.6913 394.092 76.4645 390.912 77.9759C387.463 79.6219 384.066 81.3652 380.579 82.9289C376.434 84.7919 372.394 86.8643 368.302 88.8395C367.972 88.9719 367.635 89.0843 367.291 89.1762C367.081 89.2351 366.86 89.2446 366.646 89.2038C366.431 89.1631 366.229 89.0732 366.056 88.9413C365.882 88.8095 365.741 88.6391 365.643 88.4436C365.546 88.2481 365.496 88.0328 365.496 87.8145C365.405 87.3093 365.285 86.8097 365.137 86.3181C369.327 83.7893 373.793 81.7692 378.2 79.6743C383.707 77.0556 389.191 74.3921 394.57 71.549C400.893 68.1971 407.14 64.7031 413.597 61.6205C420.054 58.538 426.825 55.5528 433.446 52.5301C438.87 50.0461 444.31 47.5921 449.719 45.0482C456.101 42.0929 462.498 39.145 468.947 36.3394C474.252 34.0349 479.609 31.8502 485.071 29.9573C488.168 28.8725 491.266 27.825 494.289 26.5456C494.673 26.3782 495.089 26.2965 495.508 26.3062C496.406 28.3662 497.309 30.4237 498.216 32.4787C498.341 32.878 498.556 33.2434 498.844 33.5469C499.132 33.8504 499.485 34.0839 499.877 34.2295Z" fill="#323E4C"/>
<path d="M360.117 87.8595C358.448 87.8595 356.847 87.2459 355.111 87.1936C356.084 86.6773 357.057 86.1536 358.044 85.6523C375.125 77.0557 392.221 68.4889 409.617 60.5432C430.661 50.9215 451.672 41.2176 472.651 31.4313C479.123 28.4386 485.64 25.4458 492.231 22.7299C492.665 22.5429 493.129 22.4157 493.578 22.2585L494.326 22.4381C494.581 23.3733 494.835 24.3086 495.074 25.2513C493.653 25.3186 492.538 26.2239 491.236 26.6579C487.054 28.0495 482.871 29.4785 478.742 31.0273C473.886 32.8529 469.127 34.9253 464.391 37.0128C461.339 38.3745 458.316 39.8035 455.271 41.1876L440.113 48.0635C436.798 49.5598 433.521 51.1684 430.192 52.6424C424.346 55.2161 418.545 57.8871 412.789 60.6554C407.088 63.4088 401.566 66.4539 395.925 69.3942C389.086 72.9706 382.151 76.3598 375.23 79.7716C370.741 82.0161 366.327 84.4103 361.703 86.393C361.067 86.6998 360.117 86.797 360.117 87.8595Z" fill="#36424F"/>
<path d="M360.117 87.8594C360.117 86.797 361.067 86.6997 361.718 86.4229C366.342 84.4402 370.748 82.0236 375.245 79.8015C382.166 76.3897 389.101 73.0005 395.94 69.4241C401.551 66.4838 407.103 63.4386 412.804 60.6853C418.505 57.932 424.363 55.246 430.207 52.6723C433.536 51.1759 436.813 49.6122 440.128 48.0934L455.286 41.2325C458.331 39.8484 461.354 38.4193 464.406 37.0576C469.142 34.9403 473.901 32.8678 478.757 31.0721C482.886 29.5234 487.069 28.0794 491.251 26.7027C492.553 26.2688 493.668 25.3635 495.089 25.2961C495.363 25.5877 495.513 25.9738 495.508 26.3735C495.089 26.3639 494.673 26.4456 494.289 26.613C491.296 27.8923 488.169 28.9398 485.071 30.0247C479.609 31.9251 474.252 34.1023 468.948 36.4067C462.498 39.2124 456.101 42.1603 449.719 45.1156C444.31 47.622 438.871 50.0761 433.446 52.5974C426.825 55.5902 420.166 58.5829 413.597 61.6879C407.028 64.7929 400.878 68.2644 394.571 71.6163C389.191 74.4594 383.707 77.123 378.2 79.7416C373.794 81.8365 369.327 83.8566 365.137 86.3855C364.277 86.5798 363.463 86.9352 362.735 87.433C361.985 87.8907 361.09 88.0483 360.229 87.8744L360.117 87.8594Z" fill="#404D5C"/>
<path d="M367.292 89.1763C367.635 89.0844 367.972 88.9719 368.302 88.8396C372.394 86.8644 376.434 84.7919 380.579 82.9289C384.066 81.3652 387.463 79.622 390.912 77.976C394.092 76.4796 397.137 74.6914 400.204 72.9631C404.409 70.5839 408.599 68.1822 412.751 65.7132C417.047 63.2542 421.484 61.0507 426.039 59.1142C432.414 56.2786 438.826 53.5253 445.365 51.0937C450.894 49.0361 456.385 46.8664 461.885 44.7266C466.214 43.0357 470.539 41.3273 474.858 39.6015C481.223 37.0577 487.58 34.4964 493.929 31.9177C494.423 31.7156 494.827 31.3266 495.314 31.1021C495.8 30.8777 496.354 30.2791 496.69 30.945C496.967 31.4762 496.264 31.8354 495.8 32.0823C494.685 32.6584 493.555 33.2719 492.418 33.7507C485.475 36.5938 478.532 39.4668 471.544 42.2127C464.219 45.1007 456.932 48.071 449.555 50.8019C442.956 53.2409 436.429 55.8671 429.975 58.6803C426.308 60.2814 422.672 61.9349 419.073 63.6781C414.023 66.1172 409.227 69.0351 404.424 71.9082C402.277 73.2025 400.099 74.4296 397.892 75.6491C394.9 77.2577 391.907 78.8887 388.824 80.3552C383.161 83.0487 377.459 85.6598 371.863 88.4954C370.771 89.0491 369.401 89.1239 368.668 90.3135L367.606 89.8572C367.523 89.6252 367.411 89.4008 367.292 89.1763Z" fill="#404D5C"/>
<path d="M514.19 28.1318C511.279 29.5444 508.28 30.769 505.212 31.7979C505.277 31.3855 505.192 30.9636 504.973 30.6083C502.938 27.6156 501.913 24.1964 501.007 20.7472C500.937 20.1664 500.674 19.6262 500.259 19.2135C500.738 18.8604 501.282 18.6061 501.86 18.4653C504.606 17.5525 507.27 16.4302 509.926 15.293C509.335 16.4452 508.587 17.5375 508.848 18.9591C509.529 22.6626 510.771 26.0369 514.19 28.1318Z" fill="#EB8248"/>
<path d="M342.504 105.965C340.438 106.709 338.332 107.339 336.197 107.851C334.748 108.216 333.249 108.337 331.76 108.21C329.254 108.045 328.064 105.838 329.157 103.803C329.852 102.545 330.808 101.451 331.962 100.593C333.754 99.2085 335.685 98.0125 337.723 97.0247C339.788 97.1518 339.968 97.1518 339.968 98.4761C339.968 99.8004 341.793 99.6059 341.763 100.84C341.735 101.075 341.675 101.304 341.584 101.521C341.509 101.668 341.465 101.828 341.454 101.992C341.443 102.156 341.466 102.321 341.522 102.476C341.577 102.631 341.664 102.773 341.776 102.893C341.888 103.013 342.024 103.109 342.175 103.175C343.2 103.691 343.387 104.357 342.616 105.27C342.467 105.419 342.527 105.726 342.504 105.965Z" fill="#34404E"/>
<path d="M500.259 19.2134C500.674 19.626 500.937 20.1663 501.007 20.7471C501.912 24.1963 502.937 27.608 504.973 30.6082C505.192 30.9635 505.277 31.3854 505.212 31.7978C505.181 31.9436 505.115 32.0797 505.02 32.1944C504.925 32.309 504.803 32.3989 504.666 32.4562C503.117 33.2044 501.628 34.1022 499.855 34.2294C499.465 34.0862 499.113 33.8561 498.825 33.5567C498.538 33.2573 498.322 32.8963 498.194 32.5011C497.286 30.4461 496.383 28.3886 495.486 26.3286C495.49 25.9289 495.34 25.5428 495.067 25.2512C494.82 24.3085 494.565 23.3733 494.318 22.438L494.386 21.8919C495.418 20.5975 497.109 20.3955 498.396 19.5351C498.951 19.1872 499.62 19.0717 500.259 19.2134Z" fill="#B2BECB"/>
<path d="M514.19 28.1317C510.771 26.0368 509.529 22.6625 508.848 18.9739C508.586 17.5823 509.335 16.46 509.926 15.3078C512.522 14.193 512.814 14.5596 514.071 16.1233C515.991 18.3731 517.051 21.2309 517.063 24.1888C517.026 26.4483 516.405 27.3162 514.19 28.1317Z" fill="#FBC898"/>
<path d="M342.504 105.965C342.504 105.726 342.467 105.419 342.594 105.27C343.342 104.357 343.177 103.691 342.152 103.175C342.002 103.109 341.866 103.013 341.753 102.893C341.641 102.773 341.555 102.631 341.499 102.476C341.444 102.321 341.421 102.156 341.431 101.992C341.442 101.828 341.486 101.668 341.561 101.521C341.652 101.304 341.713 101.075 341.741 100.84C341.741 99.6059 339.93 99.8678 339.945 98.4762C339.96 97.0845 339.788 97.1519 337.701 97.0247C338.186 96.4795 338.839 96.111 339.556 95.9772C339.718 96.0496 339.871 96.1399 340.013 96.2466C341.397 97.4511 341.352 97.3838 342.923 96.4785C344.494 95.5732 346.035 94.2938 347.928 93.8374C348.113 94.1708 348.201 94.5491 348.183 94.9298C345.989 96.0528 343.854 97.2864 341.786 98.6258C342.45 99.2832 342.919 100.112 343.14 101.02C344.083 100.571 344.861 100.145 345.684 99.8079C347.18 99.172 348.677 98.3116 350.367 98.1619C350.425 98.395 350.397 98.641 350.289 98.8552C350.18 99.0694 349.998 99.2375 349.776 99.3291C349.066 99.6433 348.377 99.9875 347.667 100.294C346.574 100.766 345.474 101.207 344.389 101.686C343.746 101.963 343.387 102.352 343.948 103.048C344.509 103.743 344.202 104.544 344.262 105.292C343.784 105.734 343.155 105.975 342.504 105.965Z" fill="#465361"/>
<path d="M344.3 105.307C344.24 104.559 344.524 103.743 343.986 103.062C343.447 102.382 343.784 101.978 344.427 101.701C345.512 101.222 346.612 100.78 347.704 100.309C348.415 100.002 349.103 99.6582 349.814 99.3439C350.036 99.2524 350.218 99.0842 350.326 98.87C350.435 98.6559 350.463 98.4098 350.405 98.1768L354.086 100.99C353.001 101.94 346.731 104.686 344.3 105.307Z" fill="#384452"/>
<path d="M350.39 98.1618C348.684 98.304 347.233 99.1719 345.707 99.8078C344.884 100.145 344.106 100.556 343.163 101.02C342.942 100.112 342.473 99.2831 341.809 98.6257C343.877 97.2863 346.012 96.0527 348.206 94.9297C348.859 96.0558 349.589 97.1357 350.39 98.1618Z" fill="#36424F"/>
<path d="M347.951 93.8375C346.058 94.2939 344.576 95.5359 342.945 96.4786C341.314 97.4213 341.449 97.4512 340.035 96.2466C339.893 96.14 339.74 96.0496 339.579 95.9773C342.28 94.1218 345.332 92.8723 348.048 91.0393C348.37 90.8223 348.699 91.3909 348.976 90.9719C348.355 91.8249 348.37 92.9097 347.951 93.8375Z" fill="#3A4654"/>
<path d="M367.291 89.1763C367.411 89.4007 367.523 89.6252 367.636 89.8496C365.132 89.2955 362.659 88.6087 360.229 87.7921C361.09 87.966 361.985 87.8084 362.735 87.3507C363.462 86.8529 364.277 86.4975 365.137 86.3032C365.285 86.7947 365.405 87.2943 365.496 87.7996C365.493 88.0191 365.542 88.2362 365.638 88.4336C365.734 88.631 365.875 88.8033 366.049 88.9369C366.224 89.0705 366.427 89.1616 366.642 89.2032C366.858 89.2447 367.08 89.2355 367.291 89.1763Z" fill="#36424F"/>
<path d="M494.401 21.8918L494.334 22.438L493.585 22.2585C493.758 21.9218 494.079 21.9068 494.401 21.8918Z" fill="#767F8A"/>
<path d="M348.976 90.9719L349.021 90.927L348.984 90.9719H348.976Z" fill="#3A4654"/>
</g>
<defs>
<clipPath id="clip0_5620_6531">
<rect width="600" height="436.843" fill="white"/>
</clipPath>
</defs>
</svg>
