<svg width="321" height="450" viewBox="0 0 321 450" fill="none" xmlns="http://www.w3.org/2000/svg">
<g clip-path="url(#clip0_5651_55869)">
<path d="M30.9752 264.573C30.5859 262.252 31.5776 260.306 32.8777 258.572C34.0137 257.158 35.3528 255.921 36.8515 254.899C39.5914 252.879 42.1843 250.668 44.8874 248.597C52.5707 242.721 60.489 237.138 68.5028 231.703C71.8964 229.389 75.2385 226.994 78.6468 224.702C80.2995 223.593 82.0624 222.646 83.7518 221.595C84.0483 221.408 84.3868 221.297 84.7368 221.272C85.0869 221.248 85.4375 221.311 85.7571 221.456C87.9444 222.294 90.0743 223.276 92.1329 224.394C97.495 227.156 102.776 230.094 108.219 232.68C110.915 233.958 113.633 235.214 116.351 236.462C122.697 239.401 128.801 242.765 134.971 246.011C135.904 246.504 136.837 246.996 137.777 247.48C138.277 247.73 138.688 248.024 138.681 248.656C137.314 249.581 136.323 250.918 135.008 251.932C132.892 253.599 130.696 255.171 128.551 256.794C125.187 259.343 121.896 261.98 118.642 264.661C115.777 266.988 112.793 269.165 109.703 271.184C102.901 275.665 96.4373 280.652 89.349 284.692C85.0666 287.138 80.6153 288.894 75.5029 288.541C74.0339 288.446 72.6676 287.909 71.2279 287.763C68.7083 287.147 66.4898 285.655 64.9697 283.554C64.7198 282.992 64.6183 282.375 64.6749 281.763C64.7315 281.151 64.9443 280.564 65.2929 280.057C65.7997 279.227 66.2037 278.338 66.6444 277.501C66.2551 277.134 65.9099 277.303 65.6087 277.435C64.7419 277.765 63.8679 278.111 62.9791 278.383C61.0314 278.968 59.0115 279.28 56.9779 279.308C55.8687 279.308 54.811 278.823 53.6872 278.948C52.6662 278.441 51.6378 277.956 50.6241 277.42C49.111 276.62 48.09 275.283 47.0029 274.019C46.6797 271.882 47.7374 270.214 48.9053 268.613C48.8106 268.519 48.6877 268.458 48.5552 268.439C48.4227 268.42 48.2878 268.446 48.1708 268.51C45.1625 269.939 41.7832 270.394 38.5043 269.81C38.2608 269.778 38.0152 269.766 37.7697 269.774C37.4894 269.478 37.1339 269.265 36.7414 269.157C34.7361 268.224 32.7161 267.328 31.7171 265.131C31.6518 264.983 31.5492 264.853 31.4192 264.755C31.2893 264.657 31.1364 264.595 30.9752 264.573ZM111.466 254.348C112.046 254.275 112.2 253.915 112.245 253.371C112.567 249.901 111.68 246.426 109.732 243.536C108.004 241.096 105.697 239.122 103.019 237.792C98.9338 235.632 94.4148 234.419 89.7971 234.244C86.3525 234.057 82.9031 234.511 79.6237 235.581C74.4011 237.344 69.634 239.775 65.7483 243.815C61.3778 248.362 60.0409 253.584 61.8699 259.615C62.0682 260.276 62.3033 261.003 63.2215 261.018C63.5205 261.202 63.7721 261.454 63.956 261.753C65.5424 263.876 67.5041 265.691 69.7442 267.107C73.6078 269.575 78.0298 270.244 82.4664 270.552C88.0488 270.949 93.389 269.656 98.5895 267.717C99.9754 267.234 101.279 266.54 102.453 265.66C105.061 263.654 107.408 261.33 109.439 258.741C110.556 257.524 111.264 255.988 111.466 254.348Z" fill="#EB8046"/>
<path d="M71.243 287.785C72.7121 287.932 74.0269 288.468 75.518 288.563C80.6598 288.916 85.067 287.16 89.3641 284.714C96.4524 280.674 102.916 275.687 109.718 271.206C112.808 269.188 115.792 267.01 118.657 264.683C121.911 262.002 125.202 259.365 128.566 256.817C130.711 255.193 132.907 253.621 135.023 251.954C136.323 250.94 137.315 249.603 138.696 248.678C139.173 249.008 139.019 249.515 139.026 249.963C139.026 251.374 139.078 252.784 139.026 254.194C138.872 259.593 139.349 264.977 139.393 270.354C139.455 270.924 139.352 271.499 139.099 272.013C138.845 272.527 138.451 272.958 137.961 273.255C133.804 276.105 129.543 278.794 125.298 281.497C119.705 285.057 114.287 288.86 109.042 292.904C104.165 296.658 99.0673 300.103 94.1386 303.783C89.4228 307.294 84.1268 309.057 78.5296 310.203C75.7898 310.761 72.9692 311.136 70.2734 309.85C70.2734 309.211 70.3542 308.565 70.3249 307.926C70.2536 304.469 70.3811 301.011 70.7068 297.569C70.9051 294.322 71.0741 291.053 71.243 287.785Z" fill="#FBC998"/>
<path d="M53.702 278.97C54.8258 278.845 55.9056 279.352 56.9927 279.33C59.0264 279.302 61.0462 278.99 62.9939 278.405C63.8827 278.133 64.7568 277.787 65.6236 277.457C65.9541 277.325 66.2699 277.156 66.6593 277.523C66.2185 278.36 65.8145 279.249 65.3077 280.079C64.9591 280.586 64.7463 281.173 64.6897 281.785C64.6331 282.397 64.7346 283.014 64.9845 283.576C64.4483 284.031 64.6172 284.663 64.6466 285.221C64.8449 290.01 64.3087 294.77 64.2279 299.567C63.4052 299.743 62.5238 299.86 62.0243 299.978C60.5937 300.382 59.1318 300.664 57.6538 300.823C56.9167 300.851 56.1786 300.807 55.4502 300.69C54.8699 300.61 53.8489 300.279 53.2466 300.198C53.2466 299.993 53.2466 299.324 53.2466 299.324C53.3421 292.361 53.1952 285.926 53.702 278.97Z" fill="#DE5F1A"/>
<path d="M37.8359 269.796C38.0814 269.788 38.3271 269.8 38.5705 269.832C41.8494 270.416 45.2287 269.961 48.237 268.532C48.354 268.468 48.489 268.442 48.6214 268.461C48.7539 268.48 48.8768 268.541 48.9715 268.635C47.8036 270.236 46.7679 271.904 47.0691 274.041C46.9002 277.714 47.2821 281.387 46.7532 285.023C46.6038 286.885 46.5866 288.755 46.7018 290.62H45.9673L44.961 290.664C44.3575 290.888 43.7357 291.06 43.1026 291.178C41.7238 291.408 40.32 291.448 38.9304 291.296C38.3267 291.28 37.7282 291.178 37.1528 290.994C37.3365 284.053 37.0794 276.766 37.8359 269.796Z" fill="#DE5F19"/>
<path d="M37.8362 269.796C37.1017 276.745 37.682 283.715 37.4763 290.671C37.3588 290.782 37.2412 290.892 37.131 291.009C34.6835 290.404 32.5352 288.939 31.0785 286.881C30.6023 286.072 30.3845 285.137 30.4541 284.2C30.3586 279.925 30.9683 275.679 30.8801 271.412C30.7761 269.132 30.808 266.849 30.9756 264.573C31.1508 264.586 31.3192 264.646 31.4619 264.749C31.6046 264.851 31.716 264.991 31.7836 265.154C32.7826 267.357 34.8026 268.246 36.8079 269.179C37.2003 269.287 37.5559 269.501 37.8362 269.796Z" fill="#ED691F"/>
<path d="M46.6505 290.62C46.5352 288.755 46.5524 286.885 46.7019 285.023C47.2308 281.35 46.8488 277.677 47.0178 274.041C48.1049 275.305 49.1259 276.642 50.639 277.442C51.6527 277.979 52.6811 278.463 53.7021 278.97C53.1952 285.926 53.3568 293.235 53.2907 300.198C53.1879 300.198 52.8647 300.11 52.4827 300C51.2529 299.709 50.093 299.177 49.0704 298.434C48.0479 297.691 47.1829 296.753 46.5256 295.674C46.3769 295.432 46.3123 295.148 46.342 294.866C46.342 294.52 46.3934 294.006 46.4228 293.705C46.5632 292.831 46.5977 291.943 46.5256 291.061C46.5697 290.914 46.6138 290.767 46.6505 290.62Z" fill="#ED691F"/>
<path d="M64.2278 299.537C64.3086 294.755 64.8448 289.988 64.6465 285.192C64.6465 284.633 64.4481 284.002 64.9844 283.546C66.5045 285.648 68.723 287.14 71.2426 287.755C71.0737 291.024 70.9047 294.293 70.7064 297.561C70.3807 301.004 70.2532 304.462 70.3244 307.918C70.3244 308.557 70.2877 309.204 70.273 309.843C68.3727 309.081 66.6407 307.953 65.1753 306.523C64.7821 306.147 64.4773 305.688 64.2829 305.18C64.0885 304.672 64.0095 304.127 64.0515 303.585C64.1617 302.24 64.0735 300.904 64.2278 299.537Z" fill="#ED691F"/>
<path d="M111.466 254.348C111.268 255.993 110.559 257.535 109.439 258.756C107.408 261.345 105.061 263.669 102.453 265.675C101.279 266.555 99.9756 267.249 98.5897 267.732C93.3892 269.671 88.0491 270.964 82.4666 270.567C78.0594 270.258 73.6081 269.59 69.7444 267.122C67.5043 265.705 65.5426 263.89 63.9562 261.767C63.7723 261.468 63.5207 261.217 63.2217 261.033C63.8522 258.172 65.2841 255.551 67.3498 253.474C68.7713 251.994 70.3933 250.721 72.1684 249.691C76.2638 247.202 80.7753 245.472 85.4855 244.586C86.8053 244.328 88.1444 244.181 89.4888 244.146C92.4581 244.036 95.4274 244.361 98.3032 245.108C100.417 245.691 102.459 246.506 104.393 247.539C107.357 249.081 109.813 251.445 111.466 254.348Z" fill="#FFFEFE"/>
<path d="M111.466 254.348C109.817 251.441 107.363 249.071 104.4 247.525C102.466 246.492 100.424 245.676 98.3103 245.093C95.4345 244.346 92.4652 244.022 89.4959 244.131C88.1515 244.166 86.8124 244.313 85.4926 244.572C80.7824 245.458 76.2709 247.187 72.1755 249.677C70.4004 250.706 68.7784 251.98 67.3569 253.46C65.2912 255.536 63.8593 258.158 63.2288 261.018C62.3106 261.018 62.0756 260.283 61.8773 259.615C60.0483 253.584 61.3851 248.362 65.7556 243.815C69.6413 239.775 74.4085 237.344 79.631 235.581C82.9104 234.511 86.3598 234.057 89.8044 234.244C94.4221 234.419 98.9412 235.632 103.026 237.792C105.704 239.122 108.011 241.096 109.74 243.536C111.689 246.426 112.58 249.9 112.259 253.371C112.208 253.915 112.046 254.275 111.466 254.348Z" fill="#DE601A"/>
<path d="M102.512 319.656C101.991 316.586 103.305 314.022 105.024 311.731C106.524 309.853 108.291 308.205 110.269 306.839C113.89 304.172 117.32 301.249 120.89 298.509C131.049 290.723 141.516 283.377 152.101 276.179C156.589 273.131 161.003 269.957 165.506 266.931C167.71 265.462 170.016 264.221 172.256 262.825C172.648 262.578 173.094 262.432 173.556 262.401C174.018 262.37 174.48 262.455 174.901 262.649C177.796 263.767 180.613 265.077 183.333 266.571C190.414 270.244 197.392 274.1 204.591 277.523C208.146 279.213 211.738 280.865 215.33 282.518C223.718 286.374 231.791 290.848 239.937 295.167C241.171 295.82 242.405 296.474 243.609 297.099C244.271 297.429 244.821 297.833 244.799 298.648C243 299.883 241.692 301.645 239.973 302.99C237.168 305.193 234.273 307.265 231.431 309.409C227.024 312.774 222.616 316.263 218.341 319.803C214.558 322.883 210.615 325.761 206.53 328.427C197.547 334.34 189.004 340.914 179.631 346.283C173.975 349.515 168.092 351.829 161.341 351.366C159.365 351.234 157.588 350.529 155.685 350.338C152.336 349.368 149.456 347.701 147.422 344.777C147.089 344.036 146.952 343.222 147.026 342.412C147.099 341.603 147.38 340.827 147.84 340.157C148.516 339.055 149.052 337.88 149.625 336.771C149.111 336.286 148.7 336.514 148.259 336.683C147.113 337.124 145.967 337.579 144.785 337.939C142.209 338.71 139.54 339.123 136.852 339.166C135.383 339.166 133.994 338.519 132.511 338.688C131.159 338.02 129.793 337.373 128.463 336.668C126.458 335.61 125.106 333.848 123.674 332.173C123.241 329.352 124.636 327.141 126.186 325.026C126.063 324.907 125.906 324.831 125.738 324.807C125.569 324.783 125.397 324.813 125.246 324.894C121.147 326.656 116.924 327.501 112.465 326.605C112.158 326.567 111.849 326.555 111.54 326.568C111.171 326.174 110.701 325.89 110.181 325.746C107.529 324.519 104.855 323.322 103.57 320.428C103.482 320.214 103.337 320.028 103.15 319.892C102.963 319.756 102.742 319.674 102.512 319.656ZM208.88 306.148C209.615 306.053 209.857 305.583 209.901 304.863C210.331 300.276 209.161 295.683 206.589 291.861C204.307 288.634 201.258 286.027 197.716 284.274C192.322 281.417 186.354 279.813 180.256 279.58C175.704 279.332 171.147 279.929 166.813 281.343C159.901 283.671 153.592 286.889 148.45 292.229C142.662 298.237 140.899 305.142 143.308 313.112C143.573 313.978 143.881 314.941 145.093 314.963C145.489 315.207 145.822 315.542 146.063 315.939C148.159 318.742 150.747 321.138 153.702 323.013C158.844 326.274 164.654 327.156 170.523 327.567C177.868 328.081 184.957 326.377 191.825 323.821C193.667 323.18 195.401 322.261 196.966 321.096C200.412 318.445 203.511 315.373 206.192 311.951C207.536 310.239 208.734 308.433 208.88 306.148Z" fill="#EB8046"/>
<path d="M155.722 350.338C157.624 350.529 159.395 351.234 161.378 351.366C168.128 351.829 174.012 349.515 179.668 346.283C189.041 340.936 197.583 334.34 206.567 328.427C210.652 325.761 214.595 322.883 218.378 319.803C222.682 316.263 227.024 312.774 231.468 309.409C234.31 307.265 237.204 305.193 240.01 302.99C241.729 301.645 243.037 299.882 244.836 298.648C245.475 299.089 245.27 299.758 245.277 300.353C245.277 302.218 245.35 304.084 245.277 305.942C245.079 313.082 245.71 320.2 245.762 327.325C245.845 328.078 245.711 328.84 245.375 329.519C245.039 330.199 244.516 330.768 243.867 331.159C238.372 334.927 232.738 338.504 227.126 342.052C219.747 346.763 212.588 351.787 205.649 357.125C199.207 362.083 192.471 366.674 185.963 371.5C179.727 376.15 172.741 378.478 165.33 379.991C161.709 380.726 157.984 381.218 154.415 379.521C154.415 378.676 154.525 377.824 154.481 376.98C154.246 372.403 154.716 367.842 154.995 363.295C155.281 358.976 155.502 354.628 155.722 350.338Z" fill="#FBC998"/>
<path d="M132.548 338.688C134.017 338.519 135.427 339.195 136.889 339.166C139.577 339.122 142.246 338.71 144.822 337.939C146.004 337.579 147.15 337.123 148.296 336.683C148.737 336.514 149.148 336.286 149.662 336.771C149.089 337.88 148.553 339.055 147.877 340.157C147.417 340.826 147.136 341.603 147.063 342.412C146.989 343.222 147.126 344.036 147.459 344.777C146.724 345.38 146.974 346.246 147.003 346.981C147.268 353.313 146.555 359.622 146.452 365.939C145.373 366.174 144.197 366.329 143.558 366.483C141.668 367.014 139.737 367.388 137.785 367.599C136.802 367.637 135.818 367.578 134.847 367.423C134.112 367.32 132.731 366.88 131.967 366.769C131.967 366.505 131.967 365.616 131.967 365.616C132.092 356.376 131.872 347.884 132.548 338.688Z" fill="#DE5F1A"/>
<path d="M111.576 326.568C111.885 326.555 112.195 326.567 112.502 326.605C116.961 327.501 121.184 326.656 125.283 324.893C125.434 324.813 125.606 324.783 125.774 324.807C125.943 324.831 126.1 324.907 126.223 325.026C124.673 327.141 123.285 329.352 123.711 332.173C123.483 337.006 123.99 341.847 123.285 346.687C122.94 349.104 123.226 351.609 123.226 354.077H122.293L120.964 354.135C120.168 354.441 119.344 354.667 118.503 354.811C116.68 355.116 114.824 355.168 112.987 354.965C112.19 354.949 111.401 354.816 110.644 354.569C110.908 345.402 110.57 335.743 111.576 326.568Z" fill="#DE5F19"/>
<path d="M111.576 326.568C110.57 335.743 111.371 344.932 111.099 354.143L110.643 354.591C107.41 353.795 104.573 351.86 102.652 349.141C102.016 348.074 101.726 346.838 101.822 345.6C101.697 339.951 102.497 334.34 102.38 328.706C102.244 325.694 102.288 322.677 102.512 319.671C102.744 319.688 102.966 319.769 103.154 319.905C103.342 320.041 103.489 320.227 103.577 320.442C104.892 323.336 107.566 324.534 110.188 325.76C110.717 325.895 111.198 326.175 111.576 326.568Z" fill="#ED691F"/>
<path d="M123.226 354.077C123.226 351.609 122.94 349.104 123.285 346.687C124.019 341.847 123.483 337.006 123.711 332.173C125.18 333.847 126.495 335.61 128.5 336.668C129.829 337.403 131.196 338.02 132.547 338.688C131.872 347.884 132.085 357.536 131.996 366.733C131.864 366.696 131.438 366.623 130.939 366.476C129.311 366.094 127.777 365.392 126.424 364.41C125.07 363.429 123.926 362.189 123.057 360.761C122.863 360.439 122.78 360.062 122.822 359.689C122.822 359.24 122.881 358.557 122.918 358.153C123.107 357 123.154 355.829 123.057 354.664L123.226 354.077Z" fill="#ED691F"/>
<path d="M146.452 365.903C146.555 359.586 147.267 353.276 147.003 346.944C147.003 346.21 146.739 345.38 147.458 344.741C149.493 347.679 152.372 349.332 155.722 350.301C155.502 354.62 155.281 358.939 154.987 363.258C154.708 367.805 154.253 372.367 154.473 376.943C154.517 377.788 154.436 378.64 154.407 379.484C151.896 378.473 149.609 376.976 147.679 375.077C147.159 374.573 146.757 373.959 146.503 373.281C146.249 372.603 146.149 371.876 146.21 371.155C146.364 369.443 146.254 367.666 146.452 365.903Z" fill="#ED691F"/>
<path d="M208.881 306.148C208.734 308.432 207.536 310.239 206.192 311.951C203.511 315.373 200.412 318.445 196.966 321.096C195.401 322.261 193.667 323.18 191.825 323.821C184.964 326.377 177.905 328.081 170.523 327.567C164.647 327.156 158.814 326.274 153.702 323.013C150.747 321.138 148.159 318.741 146.063 315.939C145.822 315.542 145.489 315.207 145.093 314.962C145.922 311.18 147.816 307.714 150.551 304.973C152.433 303.02 154.576 301.337 156.919 299.971C162.329 296.682 168.289 294.4 174.512 293.235C176.259 292.887 178.033 292.69 179.815 292.647C183.745 292.647 187.608 292.794 191.457 293.911C194.262 294.681 196.973 295.762 199.537 297.135C203.456 299.175 206.701 302.305 208.881 306.148Z" fill="#FFFEFE"/>
<path d="M208.881 306.148C206.701 302.305 203.456 299.175 199.537 297.135C196.973 295.762 194.263 294.681 191.457 293.911C187.608 292.794 183.745 292.64 179.815 292.647C178.034 292.69 176.259 292.887 174.512 293.235C168.289 294.4 162.329 296.682 156.919 299.971C154.576 301.337 152.433 303.02 150.551 304.973C147.816 307.714 145.922 311.18 145.093 314.963C143.881 314.963 143.573 313.978 143.308 313.111C140.892 305.142 142.655 298.237 148.45 292.229C153.592 286.888 159.872 283.671 166.814 281.343C171.147 279.929 175.705 279.331 180.256 279.58C186.354 279.813 192.322 281.417 197.716 284.274C201.258 286.027 204.307 288.634 206.589 291.861C209.161 295.683 210.331 300.276 209.902 304.863C209.858 305.582 209.645 306.053 208.881 306.148Z" fill="#DE601A"/>
<path d="M209.439 378.463C209.049 376.142 210.041 374.196 211.341 372.462C212.481 371.052 213.819 369.815 215.315 368.789C218.055 366.777 220.648 364.559 223.351 362.487C231.034 356.611 238.952 351.028 246.966 345.593C250.36 343.286 253.702 340.884 257.11 338.593C258.763 337.483 260.526 336.543 262.215 335.486C262.512 335.299 262.851 335.189 263.201 335.166C263.551 335.143 263.901 335.207 264.22 335.353C266.409 336.189 268.539 337.17 270.596 338.291C275.958 341.053 281.24 343.991 286.683 346.577C289.378 347.855 292.096 349.111 294.814 350.36C301.153 353.298 307.301 356.662 313.435 359.909C314.367 360.408 315.3 360.901 316.24 361.378C316.74 361.628 317.151 361.922 317.137 362.553C315.778 363.479 314.786 364.816 313.464 365.837C311.341 367.504 309.152 369.069 307.007 370.699C303.643 373.241 300.352 375.885 297.098 378.559C294.235 380.888 291.251 383.065 288.159 385.082C281.357 389.562 274.893 394.55 267.805 398.597C263.523 401.043 259.071 402.791 253.959 402.446C252.49 402.343 251.124 401.814 249.684 401.667C247.168 401.044 244.952 399.554 243.426 397.458C243.176 396.897 243.074 396.28 243.131 395.668C243.188 395.056 243.4 394.468 243.749 393.962C244.256 393.132 244.66 392.236 245.1 391.399C244.711 391.031 244.366 391.208 244.065 391.332C243.198 391.663 242.324 392.016 241.435 392.28C239.487 392.866 237.468 393.177 235.434 393.206C234.325 393.206 233.23 392.721 232.143 392.853C231.122 392.339 230.094 391.854 229.08 391.318C227.567 390.517 226.546 389.188 225.459 387.917C225.136 385.779 226.193 384.112 227.361 382.511C227.267 382.416 227.144 382.355 227.011 382.337C226.879 382.318 226.744 382.343 226.627 382.408C223.619 383.837 220.239 384.291 216.96 383.708C216.716 383.688 216.47 383.688 216.226 383.708C215.948 383.408 215.591 383.192 215.197 383.084C213.192 382.158 211.172 381.255 210.173 379.058C210.113 378.904 210.013 378.768 209.885 378.664C209.756 378.559 209.602 378.49 209.439 378.463ZM289.929 368.239C290.51 368.165 290.664 367.813 290.708 367.269C291.032 363.796 290.144 360.319 288.196 357.426C286.469 354.986 284.161 353.015 281.482 351.689C277.399 349.523 272.879 348.308 268.26 348.134C264.817 347.953 261.371 348.411 258.094 349.486C252.872 351.249 248.105 353.68 244.219 357.72C239.849 362.267 238.512 367.497 240.341 373.52C240.539 374.181 240.774 374.908 241.692 374.923C241.992 375.106 242.244 375.358 242.427 375.657C244.017 377.777 245.978 379.591 248.215 381.012C252.079 383.48 256.5 384.141 260.937 384.457C266.52 384.846 271.86 383.554 277.097 381.622C278.482 381.133 279.785 380.437 280.961 379.558C283.569 377.552 285.915 375.227 287.946 372.638C289.047 371.413 289.74 369.875 289.929 368.239Z" fill="#EB8046"/>
<path d="M249.706 401.682C251.175 401.829 252.49 402.358 253.981 402.461C259.123 402.806 263.53 401.058 267.827 398.612C274.916 394.564 281.38 389.577 288.181 385.096C291.273 383.08 294.257 380.903 297.121 378.573C300.375 375.9 303.665 373.255 307.03 370.714C309.174 369.083 311.363 367.519 313.486 365.851C314.786 364.83 315.778 363.493 317.159 362.568C317.644 362.898 317.489 363.405 317.497 363.853C317.497 365.264 317.548 366.674 317.497 368.084C317.343 373.483 317.82 378.875 317.864 384.244C317.933 384.814 317.837 385.392 317.588 385.91C317.34 386.428 316.949 386.864 316.461 387.168C312.304 390.018 308.043 392.706 303.798 395.409C298.21 398.974 292.792 402.776 287.542 406.816C282.665 410.57 277.567 414.022 272.639 417.695C267.923 421.213 262.627 422.976 257.03 424.115C254.29 424.68 251.469 425.048 248.773 423.762C248.773 423.123 248.854 422.477 248.825 421.838C248.754 418.383 248.881 414.928 249.207 411.488C249.368 408.249 249.537 404.951 249.706 401.682Z" fill="#FBC998"/>
<path d="M232.165 392.868C233.289 392.735 234.369 393.242 235.456 393.22C237.49 393.192 239.51 392.88 241.457 392.295C242.346 392.03 243.22 391.678 244.087 391.347C244.418 391.222 244.733 391.046 245.123 391.413C244.682 392.251 244.278 393.147 243.771 393.977C243.423 394.483 243.21 395.071 243.153 395.683C243.097 396.295 243.198 396.911 243.448 397.473C242.912 397.929 243.081 398.553 243.11 399.111C243.308 403.908 242.772 408.66 242.691 413.457C241.869 413.64 240.987 413.75 240.488 413.868C239.045 414.274 237.571 414.556 236.081 414.713C235.343 414.741 234.605 414.697 233.877 414.581C233.297 414.5 232.276 414.169 231.673 414.088C231.673 413.883 231.673 413.214 231.673 413.214C231.806 406.251 231.659 399.824 232.165 392.868Z" fill="#DE5F1A"/>
<path d="M216.299 383.693C216.544 383.673 216.789 383.673 217.034 383.693C220.313 384.277 223.692 383.822 226.7 382.393C226.817 382.328 226.952 382.303 227.085 382.322C227.217 382.34 227.34 382.401 227.435 382.496C226.267 384.097 225.231 385.765 225.532 387.902C225.364 391.575 225.745 395.247 225.217 398.92C225.067 400.78 225.05 402.648 225.165 404.51H224.431L223.424 404.554C222.823 404.785 222.201 404.958 221.566 405.068C220.187 405.298 218.783 405.338 217.394 405.186C216.79 405.17 216.192 405.068 215.616 404.885C215.829 397.965 215.543 390.62 216.299 383.693Z" fill="#DE5F19"/>
<path d="M216.299 383.693C215.565 390.635 216.145 397.605 215.939 404.561C215.822 404.672 215.704 404.782 215.594 404.899C213.148 404.294 211.001 402.832 209.542 400.779C209.066 399.966 208.848 399.029 208.917 398.09C208.822 393.823 209.431 389.577 209.343 385.302C209.239 383.023 209.271 380.739 209.439 378.463C209.614 378.477 209.782 378.538 209.924 378.64C210.067 378.742 210.178 378.882 210.247 379.044C211.246 381.247 213.266 382.143 215.271 383.069C215.665 383.178 216.021 383.394 216.299 383.693Z" fill="#ED691F"/>
<path d="M225.114 404.51C224.999 402.648 225.016 400.78 225.165 398.92C225.694 395.247 225.312 391.575 225.481 387.902C226.568 389.173 227.589 390.502 229.103 391.303C230.116 391.839 231.145 392.324 232.166 392.838C231.659 399.794 231.82 407.096 231.754 414.059C231.651 414.059 231.328 413.971 230.946 413.861C229.717 413.571 228.557 413.039 227.535 412.298C226.512 411.557 225.647 410.62 224.989 409.542C224.841 409.297 224.777 409.011 224.805 408.726C224.805 408.388 224.857 407.867 224.879 407.566C225.026 406.692 225.063 405.804 224.989 404.921C225.033 404.804 225.077 404.657 225.114 404.51Z" fill="#ED691F"/>
<path d="M242.691 413.457C242.772 408.675 243.308 403.908 243.11 399.111C243.11 398.553 242.911 397.929 243.448 397.473C244.974 399.569 247.19 401.059 249.706 401.682C249.537 404.951 249.368 408.219 249.17 411.488C248.844 414.928 248.717 418.383 248.788 421.838C248.788 422.477 248.788 423.123 248.736 423.762C246.836 423 245.104 421.872 243.639 420.442C243.245 420.066 242.941 419.608 242.746 419.099C242.552 418.591 242.473 418.046 242.515 417.504C242.625 416.138 242.537 414.794 242.691 413.457Z" fill="#ED691F"/>
<path d="M289.93 368.239C289.73 369.883 289.021 371.424 287.902 372.646C285.872 375.235 283.525 377.559 280.917 379.565C279.741 380.445 278.438 381.141 277.053 381.629C271.853 383.561 266.513 384.854 260.893 384.465C256.486 384.149 252.035 383.488 248.171 381.02C245.934 379.599 243.973 377.784 242.383 375.665C242.2 375.365 241.948 375.113 241.648 374.93C242.274 372.068 243.707 369.445 245.777 367.372C247.202 365.896 248.823 364.623 250.595 363.589C254.69 361.099 259.202 359.372 263.912 358.491C265.232 358.231 266.571 358.081 267.915 358.043C270.885 357.938 273.853 358.262 276.73 359.005C278.845 359.588 280.887 360.406 282.819 361.444C285.795 362.975 288.265 365.335 289.93 368.239Z" fill="#FFFEFE"/>
<path d="M289.929 368.239C288.28 365.333 285.826 362.966 282.863 361.422C280.931 360.384 278.888 359.566 276.774 358.983C273.897 358.24 270.928 357.916 267.959 358.021C266.615 358.059 265.276 358.208 263.956 358.469C259.245 359.35 254.734 361.077 250.639 363.567C248.867 364.601 247.246 365.874 245.82 367.35C243.75 369.423 242.318 372.046 241.692 374.908C240.774 374.908 240.539 374.174 240.341 373.505C238.512 367.482 239.849 362.252 244.219 357.705C248.105 353.665 252.872 351.234 258.094 349.471C261.374 348.401 264.823 347.947 268.268 348.134C272.887 348.308 277.406 349.523 281.489 351.689C284.169 353.015 286.476 354.986 288.203 357.426C290.151 360.319 291.039 363.796 290.715 367.269C290.671 367.849 290.51 368.165 289.929 368.239Z" fill="#DE601A"/>
<path d="M211.672 240.319C211.283 237.99 212.274 236.051 213.574 234.318C214.71 232.904 216.05 231.666 217.548 230.645C220.288 228.625 222.881 226.414 225.584 224.343C233.267 218.466 241.186 212.884 249.2 207.448C252.593 205.142 255.935 202.747 259.344 200.455C260.989 199.346 262.759 198.399 264.485 197.348C264.782 197.161 265.12 197.049 265.47 197.025C265.82 197.001 266.171 197.064 266.491 197.209C268.676 198.052 270.806 199.033 272.866 200.147C278.229 202.916 283.51 205.854 288.953 208.44C291.648 209.718 294.366 210.967 297.077 212.215C303.423 215.153 309.564 218.518 315.705 221.764C316.63 222.256 317.57 222.749 318.511 223.233C319.01 223.483 319.421 223.777 319.407 224.409C318.048 225.334 317.056 226.671 315.734 227.685C313.611 229.352 311.422 230.924 309.27 232.547C305.906 235.089 302.622 237.733 299.368 240.407C296.505 242.739 293.521 244.918 290.429 246.937C283.627 251.41 277.163 256.398 270.075 260.445C265.778 262.906 261.327 264.661 256.229 264.279C254.76 264.177 253.394 263.648 251.954 263.501C249.436 262.882 247.218 261.391 245.696 259.292C245.446 258.73 245.344 258.114 245.401 257.502C245.458 256.889 245.67 256.302 246.019 255.795C246.526 254.965 246.93 254.077 247.371 253.232C246.981 252.865 246.636 253.041 246.335 253.166C245.461 253.504 244.594 253.849 243.705 254.121C241.754 254.704 239.733 255.015 237.697 255.046C236.595 255.046 235.537 254.561 234.413 254.686C233.392 254.18 232.364 253.695 231.35 253.158C229.837 252.358 228.816 251.021 227.729 249.758C227.406 247.62 228.464 245.953 229.631 244.351C229.537 244.256 229.414 244.194 229.282 244.175C229.149 244.157 229.014 244.183 228.897 244.249C225.886 245.679 222.504 246.132 219.223 245.541C218.979 245.521 218.733 245.521 218.489 245.541C218.209 245.245 217.853 245.031 217.46 244.924C215.455 243.991 213.428 243.088 212.436 240.899C212.373 240.742 212.269 240.605 212.134 240.503C212 240.401 211.84 240.337 211.672 240.319ZM292.163 230.094C292.736 230.021 292.897 229.661 292.934 229.117C293.261 225.648 292.376 222.172 290.429 219.282C288.7 216.841 286.394 214.868 283.715 213.538C279.632 211.375 275.112 210.162 270.494 209.99C267.05 209.803 263.601 210.254 260.32 211.319C255.098 213.082 250.331 215.521 246.445 219.561C242.038 224.108 240.738 229.33 242.567 235.361C242.765 236.022 243 236.742 243.918 236.764C244.216 236.95 244.467 237.201 244.653 237.498C246.237 239.623 248.199 241.438 250.441 242.853C254.305 245.321 258.719 245.989 263.163 246.298C268.746 246.687 274.086 245.402 279.279 243.463C280.666 242.978 281.972 242.285 283.15 241.406C285.752 239.396 288.096 237.072 290.128 234.487C291.244 233.268 291.955 231.733 292.163 230.094Z" fill="#EB8046"/>
<path d="M251.939 263.545C253.408 263.692 254.723 264.221 256.214 264.324C261.356 264.676 265.763 262.921 270.06 260.475C277.149 256.427 283.613 251.44 290.414 246.966C293.507 244.948 296.491 242.768 299.354 240.436C302.608 237.763 305.891 235.118 309.255 232.577C311.408 230.953 313.597 229.382 315.719 227.714C317.019 226.7 318.011 225.364 319.392 224.438C319.877 224.769 319.723 225.275 319.73 225.724C319.73 227.134 319.781 228.544 319.73 229.954C319.576 235.353 320.053 240.737 320.097 246.114C320.163 246.694 320.059 247.28 319.799 247.801C319.538 248.323 319.131 248.758 318.628 249.052C314.471 251.895 310.218 254.591 305.965 257.294C300.382 260.859 294.964 264.661 289.709 268.701C284.839 272.447 279.742 275.9 274.813 279.573C270.097 283.091 264.801 284.854 259.204 286C256.464 286.558 253.644 286.933 250.94 285.647C250.94 285.001 251.029 284.362 250.992 283.723C250.927 280.266 251.057 276.808 251.381 273.366C251.602 270.068 251.77 266.799 251.939 263.545Z" fill="#FBC998"/>
<path d="M234.398 254.73C235.522 254.605 236.602 255.112 237.682 255.09C239.718 255.059 241.739 254.748 243.69 254.165C244.579 253.893 245.446 253.548 246.32 253.21C246.651 253.085 246.966 252.909 247.356 253.276C246.915 254.121 246.511 255.01 246.004 255.84C245.656 256.346 245.443 256.933 245.386 257.546C245.33 258.158 245.431 258.774 245.681 259.336C245.137 259.791 245.314 260.423 245.336 260.981C245.541 265.77 244.998 270.53 244.924 275.327C244.102 275.503 243.213 275.621 242.721 275.738C241.277 276.14 239.803 276.423 238.313 276.583C237.576 276.611 236.838 276.567 236.11 276.451C235.53 276.37 234.509 276.032 233.906 275.959C233.906 275.753 233.906 275.084 233.906 275.084C234.038 268.106 233.892 261.672 234.398 254.73Z" fill="#DE5F1A"/>
<path d="M218.532 245.541C218.777 245.521 219.022 245.521 219.267 245.541C222.547 246.132 225.93 245.679 228.941 244.249C229.057 244.183 229.193 244.157 229.325 244.175C229.458 244.194 229.581 244.256 229.675 244.351C228.5 245.953 227.472 247.62 227.773 249.758C227.604 253.43 227.978 257.103 227.45 260.776C227.303 262.636 227.288 264.504 227.405 266.366H226.671L225.665 266.41C225.062 266.639 224.44 266.814 223.806 266.931C222.427 267.154 221.024 267.193 219.634 267.049C219.027 267.033 218.426 266.929 217.849 266.74C218.033 259.791 217.768 252.527 218.532 245.541Z" fill="#DE5F19"/>
<path d="M218.532 245.541C217.798 252.49 218.378 259.461 218.172 266.41L217.82 266.747C215.374 266.148 213.227 264.684 211.775 262.627C211.295 261.819 211.077 260.882 211.15 259.946C211.055 255.671 211.664 251.425 211.576 247.15C211.472 244.873 211.504 242.592 211.672 240.319C211.847 240.329 212.017 240.389 212.159 240.492C212.302 240.595 212.413 240.736 212.48 240.899C213.471 243.103 215.499 243.991 217.504 244.924C217.897 245.031 218.253 245.244 218.532 245.541Z" fill="#ED691F"/>
<path d="M227.347 266.358C227.229 264.496 227.244 262.628 227.391 260.768C227.92 257.096 227.545 253.423 227.714 249.75C228.801 251.014 229.822 252.351 231.335 253.151C232.349 253.687 233.377 254.172 234.398 254.679C233.892 261.635 234.053 268.944 233.987 275.907C233.884 275.907 233.561 275.819 233.179 275.709C231.949 275.418 230.789 274.885 229.767 274.143C228.744 273.4 227.879 272.462 227.222 271.382C227.073 271.141 227.009 270.857 227.038 270.574C227.038 270.229 227.09 269.715 227.112 269.414C227.258 268.54 227.296 267.652 227.222 266.77C227.266 266.659 227.303 266.483 227.347 266.358Z" fill="#ED691F"/>
<path d="M244.925 275.298C244.998 270.516 245.542 265.749 245.336 260.952C245.336 260.394 245.138 259.762 245.681 259.307C247.204 261.406 249.421 262.897 251.939 263.516C251.77 266.784 251.601 270.053 251.403 273.322C251.079 276.764 250.949 280.222 251.014 283.679C251.051 284.318 251.014 284.957 250.962 285.603C249.064 284.841 247.335 283.713 245.872 282.283C245.479 281.907 245.174 281.448 244.98 280.94C244.785 280.432 244.706 279.887 244.748 279.345C244.858 277.986 244.77 276.642 244.925 275.298Z" fill="#ED691F"/>
<path d="M292.162 230.094C291.958 231.739 291.247 233.279 290.128 234.501C288.096 237.087 285.752 239.411 283.15 241.421C281.972 242.299 280.666 242.993 279.279 243.477C274.085 245.416 268.745 246.702 263.163 246.313C258.719 246.004 254.304 245.336 250.441 242.868C248.199 241.453 246.237 239.638 244.653 237.513C244.466 237.215 244.215 236.964 243.918 236.778C244.542 233.915 245.974 231.292 248.046 229.22C249.468 227.74 251.09 226.467 252.865 225.437C256.955 222.935 261.464 221.193 266.174 220.295C267.497 220.037 268.838 219.89 270.185 219.855C273.154 219.747 276.123 220.068 279 220.809C281.111 221.394 283.151 222.212 285.082 223.248C288.054 224.797 290.514 227.175 292.162 230.094Z" fill="#FFFEFE"/>
<path d="M292.163 230.094C290.512 227.185 288.056 224.815 285.089 223.27C283.159 222.234 281.119 221.416 279.007 220.832C276.13 220.091 273.161 219.769 270.193 219.877C268.846 219.912 267.504 220.059 266.182 220.317C261.472 221.215 256.962 222.957 252.872 225.459C251.097 226.489 249.475 227.762 248.054 229.242C245.982 231.314 244.549 233.937 243.925 236.8C243.007 236.8 242.772 236.066 242.574 235.397C240.745 229.367 242.074 224.144 246.452 219.598C250.338 215.558 255.105 213.119 260.328 211.356C263.608 210.291 267.057 209.84 270.501 210.026C275.119 210.199 279.639 211.411 283.723 213.574C286.401 214.905 288.708 216.878 290.436 219.318C292.38 222.197 293.27 225.658 292.956 229.117C292.904 229.661 292.735 230.021 292.163 230.094Z" fill="#DE601A"/>
<path d="M18.0622 403.842C17.6729 401.52 18.6645 399.574 19.9646 397.84C21.1022 396.428 22.4412 395.191 23.9385 394.168C26.6783 392.089 29.2565 389.885 31.9743 387.829C39.6649 381.952 47.5759 376.37 55.5897 370.934C58.9906 368.621 62.3254 366.226 65.7337 363.934C67.3864 362.825 69.1493 361.877 70.8387 360.827C71.1352 360.639 71.4737 360.528 71.8237 360.504C72.1738 360.48 72.5244 360.543 72.844 360.687C75.0279 361.537 77.1529 362.531 79.2051 363.662C84.5672 366.424 89.8485 369.362 95.2915 371.948C97.9872 373.226 100.705 374.482 103.423 375.723C109.769 378.662 115.873 382.033 122.043 385.272C122.976 385.765 123.909 386.257 124.849 386.742C125.349 386.991 125.76 387.285 125.753 387.917C124.387 388.842 123.395 390.179 122.08 391.193C119.957 392.86 117.761 394.432 115.616 396.056C112.252 398.604 108.969 401.241 105.707 403.922C102.864 406.25 99.9019 408.43 96.834 410.452C90.0322 414.933 83.5683 419.921 76.48 423.961C72.1976 426.407 67.7463 428.162 62.6413 427.81C61.1722 427.714 59.7986 427.178 58.3589 427.031C55.8406 426.417 53.6241 424.925 52.108 422.822C51.8549 422.261 51.7511 421.645 51.8064 421.032C51.8617 420.42 52.0744 419.832 52.4238 419.326C52.9307 418.496 53.3347 417.607 53.7754 416.769C53.3861 416.402 53.0409 416.571 52.7397 416.703C51.8729 417.034 51.0062 417.379 50.1101 417.651C48.1624 418.237 46.1425 418.548 44.1089 418.576C43.0071 418.576 41.942 418.092 40.8181 418.217C39.7971 417.71 38.7688 417.225 37.7624 416.689C36.242 415.888 35.221 414.551 34.1339 413.288C33.8107 411.15 34.8684 409.483 36.0363 407.882C35.9422 407.786 35.8192 407.724 35.6865 407.706C35.5537 407.687 35.4185 407.713 35.3018 407.779C32.2907 409.207 28.9093 409.662 25.6279 409.079C25.3956 409.061 25.1623 409.061 24.9301 409.079C24.6459 408.785 24.2884 408.572 23.8944 408.462C21.8891 407.529 19.8691 406.625 18.8701 404.437C18.8046 404.272 18.6942 404.129 18.5514 404.023C18.4085 403.918 18.239 403.855 18.0622 403.842ZM98.5528 393.617C99.1331 393.543 99.2874 393.183 99.3314 392.64C99.66 389.169 98.7777 385.691 96.834 382.797C95.1071 380.355 92.7999 378.381 90.1203 377.053C86.0354 374.893 81.5164 373.68 76.8986 373.505C73.4515 373.316 69.9993 373.769 66.7179 374.842C61.488 376.605 56.7209 379.036 52.8425 383.076C48.4353 387.623 47.1278 392.846 48.9568 398.876C49.1551 399.537 49.3902 400.264 50.3084 400.279C50.6052 400.466 50.8563 400.717 51.0429 401.014C52.6248 403.138 54.5844 404.954 56.8237 406.368C60.6947 408.836 65.1093 409.505 69.5459 409.813C75.1284 410.21 80.4758 408.917 85.669 406.978C87.055 406.495 88.3582 405.801 89.5327 404.921C92.1408 402.915 94.4875 400.591 96.5182 398.002C97.6379 396.786 98.3493 395.25 98.5528 393.609V393.617Z" fill="#EB8046"/>
<path d="M58.3294 427.046C59.7985 427.193 61.1207 427.729 62.6118 427.824C67.7168 428.177 72.1608 426.421 76.4505 423.975C83.5388 419.935 90.0027 414.948 96.8045 410.467C99.8948 408.449 102.879 406.271 105.744 403.944C109.005 401.263 112.289 398.626 115.653 396.078C117.798 394.454 119.994 392.882 122.117 391.215C123.41 390.201 124.401 388.864 125.789 387.939C126.274 388.269 126.113 388.776 126.12 389.224C126.12 390.635 126.171 392.045 126.12 393.455C125.973 398.854 126.45 404.238 126.487 409.615C126.556 410.191 126.457 410.774 126.203 411.295C125.949 411.816 125.55 412.253 125.055 412.553C120.897 415.403 116.637 418.092 112.391 420.795C106.799 424.36 101.381 428.162 96.1361 432.202C91.2588 435.956 86.1611 439.401 81.2323 443.081C76.5166 446.592 71.2206 448.355 65.6234 449.5C62.8836 450.059 60.0703 450.433 57.3672 449.148C57.3672 448.509 57.448 447.862 57.4186 447.223C57.351 443.767 57.4785 440.309 57.8006 436.866C57.9989 433.583 58.1605 430.285 58.3294 427.046Z" fill="#FBC998"/>
<path d="M40.7889 418.231C41.9127 418.106 42.9925 418.613 44.0796 418.591C46.1133 418.563 48.1331 418.251 50.0808 417.666C50.9769 417.394 51.8437 417.049 52.7104 416.718C53.041 416.586 53.3568 416.417 53.7461 416.784C53.3054 417.622 52.9014 418.51 52.3946 419.34C52.0452 419.847 51.8325 420.434 51.7772 421.047C51.7218 421.66 51.8257 422.276 52.0787 422.837C51.5352 423.292 51.7115 423.924 51.7335 424.482C51.9318 429.271 51.3956 434.031 51.3148 438.828C50.4995 439.004 49.6107 439.121 49.1112 439.239C47.683 439.642 46.2235 439.925 44.748 440.084C44.011 440.112 43.2729 440.067 42.5444 439.951C41.9715 439.871 40.9505 439.54 40.3408 439.459C40.3408 439.254 40.3408 438.585 40.3408 438.585C40.429 431.622 40.2747 425.187 40.7889 418.231Z" fill="#DE5F1A"/>
<path d="M24.9302 409.057C25.1625 409.039 25.3958 409.039 25.6281 409.057C28.9094 409.64 32.2909 409.185 35.3019 407.757C35.4186 407.691 35.5538 407.665 35.6866 407.684C35.8194 407.702 35.9424 407.764 36.0365 407.86C34.8686 409.461 33.8329 411.128 34.134 413.266C33.9651 416.938 34.347 420.611 33.8182 424.284C33.6711 426.146 33.6564 428.017 33.7741 429.881H33.0396L32.0332 429.925C31.43 430.15 30.8082 430.323 30.1749 430.439C28.7961 430.669 27.3922 430.709 26.0027 430.557C25.3989 430.541 24.8004 430.439 24.2251 430.256C24.4234 423.314 24.1663 416.006 24.9302 409.057Z" fill="#DE5F19"/>
<path d="M24.9302 409.057C24.1957 416.006 24.7686 422.976 24.5629 429.932L24.2177 430.27C21.7723 429.665 19.6264 428.199 18.1725 426.142C17.6928 425.334 17.4747 424.398 17.5481 423.461C17.4453 419.186 18.0549 414.94 17.9668 410.673C17.8664 408.393 17.8983 406.11 18.0623 403.834C18.2375 403.847 18.4059 403.907 18.5486 404.01C18.6912 404.112 18.8026 404.252 18.8703 404.415C19.8692 406.618 21.8892 407.507 23.8945 408.44C24.2885 408.55 24.646 408.763 24.9302 409.057Z" fill="#ED691F"/>
<path d="M33.7449 429.881C33.6272 428.017 33.6419 426.146 33.789 424.284C34.3178 420.611 33.9359 416.938 34.1048 413.266C35.1919 414.529 36.2129 415.866 37.7334 416.667C38.7397 417.203 39.7681 417.688 40.7891 418.194C40.2823 425.151 40.4439 432.459 40.3778 439.423C40.2749 439.423 39.9517 439.334 39.5771 439.224C38.3459 438.934 37.1847 438.402 36.1608 437.66C35.1369 436.917 34.2707 435.978 33.6127 434.898C33.4665 434.655 33.4045 434.371 33.4364 434.09C33.4364 433.745 33.4805 433.23 33.5098 432.929C33.6541 432.056 33.6887 431.167 33.6127 430.285L33.7449 429.881Z" fill="#ED691F"/>
<path d="M51.2928 438.828C51.3736 434.046 51.9098 429.279 51.7115 424.482C51.7115 423.924 51.5131 423.292 52.0567 422.837C53.5728 424.939 55.7893 426.432 58.3076 427.046C58.1387 430.314 57.9771 433.583 57.7714 436.852C57.4494 440.294 57.3218 443.752 57.3894 447.209C57.3894 447.848 57.3527 448.494 57.338 449.133C55.439 448.373 53.7091 447.244 52.2477 445.813C51.8556 445.436 51.5511 444.977 51.3556 444.47C51.1601 443.962 51.0785 443.418 51.1165 442.875C51.2487 441.501 51.1605 440.165 51.2928 438.828Z" fill="#ED691F"/>
<path d="M98.553 393.609C98.3545 395.254 97.6455 396.796 96.5257 398.017C94.4951 400.606 92.1483 402.93 89.5402 404.936C88.3657 405.816 87.0625 406.51 85.6766 406.993C80.4834 408.932 75.1359 410.225 69.5534 409.828C65.1462 409.52 60.7023 408.851 56.8313 406.383C54.5919 404.968 52.6323 403.153 51.0505 401.028C50.8638 400.731 50.6128 400.48 50.3159 400.294C50.9464 397.433 52.3783 394.812 54.444 392.735C55.867 391.257 57.4887 389.984 59.2626 388.952C63.3555 386.45 67.8671 384.708 72.5798 383.811C73.902 383.552 75.2435 383.405 76.5903 383.37C79.5596 383.261 82.5289 383.585 85.4048 384.332C87.5158 384.915 89.5555 385.731 91.4868 386.764C94.4547 388.314 96.9092 390.692 98.553 393.609Z" fill="#FFFEFE"/>
<path d="M98.5531 393.609C96.906 390.7 94.4517 388.33 91.4869 386.786C89.5557 385.753 87.5159 384.937 85.4049 384.354C82.529 383.607 79.5597 383.283 76.5905 383.392C75.2436 383.427 73.9021 383.574 72.5799 383.833C67.8672 384.73 63.3556 386.472 59.2627 388.975C57.4889 390.006 55.8671 391.279 54.4441 392.757C52.3784 394.834 50.9466 397.456 50.316 400.316C49.3979 400.316 49.1628 399.581 48.9645 398.913C47.1355 392.882 48.4723 387.66 52.8502 383.113C56.7285 379.073 61.4957 376.642 66.7256 374.879C70.0023 373.808 73.4494 373.354 76.8916 373.542C81.5093 373.717 86.0284 374.929 90.1133 377.09C92.7929 378.418 95.1 380.392 96.827 382.834C98.7741 385.724 99.6617 389.199 99.3391 392.669C99.295 393.176 99.1334 393.558 98.5531 393.609Z" fill="#DE601A"/>
<path d="M100.272 374.115C96.7534 372.55 93.1542 371.177 89.7974 368.973C90.8184 367.504 92.2507 366.615 93.5215 365.55C99.3243 360.702 105.524 356.376 111.503 351.763C113.707 350.081 115.815 348.34 117.974 346.621C118.334 346.327 118.709 346.07 119.091 345.776C119.228 345.642 119.394 345.539 119.575 345.474C119.756 345.409 119.949 345.384 120.141 345.401C120.333 345.418 120.519 345.476 120.686 345.571C120.854 345.666 120.998 345.796 121.111 345.953C121.316 346.158 121.515 346.379 121.72 346.584C122.259 347.166 122.911 347.631 123.636 347.952C124.361 348.273 125.144 348.442 125.937 348.45C127.403 348.357 128.875 348.521 130.285 348.935C131.02 349.214 131.894 349.324 132.356 350.117C132.244 350.454 132.008 350.735 131.695 350.903C125.329 355.257 119.025 359.686 112.781 364.191C108.66 367.129 104.635 370.244 100.632 373.366C100.523 373.459 100.435 373.574 100.373 373.703C100.311 373.831 100.277 373.972 100.272 374.115Z" fill="#EE7F7B"/>
<path d="M209.498 343.147C210.335 336.712 217.702 333.884 223.072 337.013C223.527 337.285 223.961 337.594 224.394 337.888L240.51 348.641C240.84 348.869 241.244 349.016 241.465 349.376C241.421 349.941 240.899 350.074 240.539 350.338C237.219 352.755 233.884 355.149 230.373 357.279C229.94 356.368 229.022 356.009 228.25 355.524C222.631 351.976 217.181 348.178 211.797 344.307C211.106 343.837 210.445 343.198 209.498 343.147Z" fill="#EE7F7B"/>
<path d="M216.608 283.546C212.935 281.703 208.917 280.461 205.37 278.125C205.786 277.502 206.336 276.977 206.978 276.59C213.589 271.669 220.295 266.784 226.686 261.532C226.957 261.307 227.242 261.099 227.538 260.908C228.603 260.173 228.97 260.129 229.8 261.099C231.446 263.023 233.517 263.574 235.934 263.523C237.755 263.523 239.562 263.714 240.951 265.131C240.836 265.467 240.6 265.747 240.29 265.917C236.45 268.591 232.614 271.27 228.779 273.953C224.945 276.637 221.17 279.301 217.453 281.945C217.159 282.086 216.918 282.318 216.766 282.606C216.614 282.895 216.559 283.224 216.608 283.546Z" fill="#EE7F7B"/>
<path d="M106.545 280.381C106.976 278.722 107.898 277.232 109.189 276.105C111.393 274.254 113.934 273.961 116.637 274.747C118.708 275.413 120.672 276.373 122.47 277.597C127.215 280.616 131.563 284.207 136.58 287.307C133.281 289.881 129.848 292.279 126.297 294.491C126.297 293.705 125.716 293.411 125.173 293.022C123.858 292.155 122.565 291.252 121.243 290.385C117.24 287.763 113.126 285.317 109.446 282.209C108.587 281.504 107.742 280.645 106.545 280.381Z" fill="#EE7F7B"/>
<path d="M100.272 374.115C100.279 373.974 100.314 373.837 100.376 373.711C100.438 373.584 100.525 373.472 100.632 373.38C104.635 370.259 108.66 367.173 112.781 364.206C119.039 359.711 125.344 355.281 131.696 350.918C132.008 350.75 132.244 350.469 132.357 350.132C132.704 350.286 133.015 350.513 133.269 350.796C133.522 351.08 133.712 351.415 133.826 351.778C134.261 352.963 134.36 354.245 134.112 355.483C133.865 356.72 133.28 357.866 132.423 358.792C131.62 359.563 130.747 360.256 129.815 360.864C123.153 365.22 116.476 369.568 110.027 374.24C108.888 375.062 107.639 375.709 106.479 376.517C106.199 376.725 105.859 376.838 105.509 376.838C105.16 376.838 104.82 376.725 104.54 376.517C103.144 375.694 101.704 374.916 100.272 374.115Z" fill="#E8524C"/>
<path d="M216.608 283.546C216.558 283.224 216.614 282.895 216.766 282.606C216.918 282.318 217.159 282.086 217.453 281.945C221.228 279.281 225.004 276.617 228.779 273.953C232.555 271.289 236.391 268.611 240.289 265.917C240.6 265.747 240.836 265.467 240.951 265.131C241.298 265.285 241.609 265.512 241.863 265.796C242.116 266.079 242.306 266.414 242.42 266.777C242.854 267.965 242.951 269.251 242.701 270.491C242.451 271.732 241.863 272.879 241.002 273.806C240.196 274.573 239.323 275.266 238.394 275.878C233.399 279.183 228.316 282.349 223.461 285.853C223.14 286.144 222.727 286.314 222.293 286.333C221.86 286.351 221.434 286.218 221.089 285.956C219.649 285.074 218.114 284.34 216.608 283.546Z" fill="#E8524C"/>
<path d="M106.545 280.38C107.742 280.645 108.602 281.504 109.483 282.239C113.156 285.346 117.277 287.792 121.28 290.414C122.602 291.281 123.895 292.185 125.21 293.051C125.753 293.411 126.341 293.705 126.333 294.52C124.989 295.556 123.616 296.562 122.315 297.649C122.199 297.779 122.057 297.882 121.898 297.952C121.739 298.023 121.567 298.059 121.394 298.059C121.22 298.059 121.048 298.023 120.889 297.952C120.73 297.882 120.588 297.779 120.472 297.649C119.605 296.959 118.665 296.349 117.776 295.674C114.97 293.558 112.149 291.457 109.38 289.283C108.021 288.295 107.013 286.898 106.503 285.297C105.993 283.695 106.008 281.973 106.545 280.38Z" fill="#E8524C"/>
<path d="M209.498 343.147C210.445 343.198 211.106 343.837 211.797 344.337C217.181 348.222 222.631 352.005 228.251 355.553C229.022 356.038 229.94 356.398 230.373 357.309L228.17 359.005C227.905 359.24 227.567 359.378 227.213 359.395C226.859 359.413 226.51 359.309 226.223 359.101C221.574 356.163 216.887 353.298 212.267 350.323C209.652 348.641 208.873 346.136 209.498 343.147Z" fill="#E8534D"/>
<path d="M4.28223 88.4164C6.00839 84.5747 9.424 82.3344 12.6486 80.0867C22.9909 72.9323 33.4287 65.9542 44.1529 59.3433C60.1291 49.5666 75.9584 39.5108 92.0301 29.903C95.0491 28.0887 97.9432 26.0688 100.881 24.1149C103.058 22.6159 105.37 21.3224 107.786 20.2512C111.363 18.7234 114.698 19.4579 117.805 21.4485C120.912 23.4391 123.542 26.2891 126.348 28.7939C132.665 34.4205 138.886 40.1523 145.012 45.9894C147.87 48.7072 151.124 50.9476 154.231 53.3348C159.123 57.125 163.427 61.5543 167.915 65.7779C172.925 70.5132 177.878 75.2926 182.775 80.1161C186.205 83.4949 189.966 86.5286 193.507 89.7973C198.773 94.6526 203.93 99.6328 209.218 104.488C216.027 110.717 222.154 117.636 228.97 123.865C236.511 130.687 243.526 138.068 249.956 145.945L252.82 149.508C253.122 151.19 254.231 152.446 255.127 153.805C257.645 157.588 258.965 162.042 258.917 166.586C258.917 169.877 258.44 173.138 258.484 176.421C258.486 176.598 258.474 176.775 258.447 176.95C257.739 180.982 256.78 184.967 255.575 188.879C254.179 193.514 251.998 197.789 249.86 202.101C248.495 204.762 246.745 207.207 244.667 209.358C241.969 212.213 239.019 214.819 235.853 217.144C231.284 220.523 226.884 224.13 222.506 227.751C219.304 230.4 216.057 233 212.766 235.552C208.704 238.718 204.929 242.251 200.712 245.233C197.218 247.596 193.854 250.146 190.635 252.872C187.665 255.522 184.436 257.868 180.997 259.872C178.794 261.121 176.678 262.546 173.968 262.267C172.547 262.411 171.125 262.012 169.987 261.15C169.052 260.549 168.177 259.86 167.372 259.094C165.462 257.191 163.699 255.12 161.811 253.217C155.795 247.201 149.993 240.973 143.639 235.295C141.935 233.774 140.532 231.938 138.923 230.329C134.119 225.511 129.257 220.743 124.401 215.976C114.933 206.692 105.369 197.488 96.3639 187.733C93.8591 185.023 91.2662 182.386 88.6806 179.756C75.7822 166.681 62.7368 153.754 49.7501 140.737C46.5696 137.535 43.2788 134.443 40.2966 131.034C37.3144 127.626 34.1779 124.423 31.0929 121.118C27.8168 117.614 24.2176 114.397 21.3088 110.548C19.994 108.807 18.3707 107.382 16.9016 105.766C14.365 102.931 11.8529 100.076 9.36524 97.2014C7.3673 94.9097 5.31058 92.6473 4.77437 89.4741C4.75233 89.1068 4.7156 88.6441 4.28223 88.4164ZM149.302 205.84C151.506 205.061 153.232 203.54 155.127 202.284C157.331 200.815 157.757 199.471 157.007 196.724C157.096 195.674 156.405 195.035 155.781 194.329C154.473 192.86 152.843 191.707 151.807 189.966C153.415 188.607 155.039 187.27 156.618 185.882C158.197 184.494 158.447 183.488 157.676 181.255C157.733 180.994 157.724 180.723 157.65 180.466C157.575 180.209 157.438 179.975 157.25 179.786C155.147 177.827 153.162 175.744 151.307 173.549C151.211 173.398 151.081 173.272 150.927 173.18C150.773 173.088 150.601 173.032 150.422 173.018C150.243 173.004 150.064 173.031 149.898 173.098C149.731 173.164 149.583 173.269 149.464 173.402C147.392 175.143 144.998 176.407 142.772 177.927C141.031 179.132 140.73 179.058 139.452 177.442C137.63 175.151 135.61 173.035 133.877 170.648C132.79 169.179 132.356 169.179 130.939 170.435C129.653 171.559 128.456 172.785 127.09 173.777C125.205 175.095 123.882 177.071 123.38 179.315C123.227 179.722 123.201 180.165 123.306 180.586C123.411 181.007 123.642 181.386 123.968 181.673C125.077 182.724 126.135 183.826 127.178 184.935C127.986 185.801 127.978 185.941 127.178 186.83C125.767 188.402 124.372 189.981 122.917 191.509C121.641 192.895 120.802 194.627 120.508 196.489C120.44 196.807 120.464 197.137 120.577 197.442C120.69 197.746 120.888 198.012 121.147 198.208C123.897 200.586 126.509 203.119 128.97 205.796C129.624 206.464 130.167 206.662 130.931 206.119C131.6 206.119 131.923 205.575 132.356 205.215C134.56 203.408 136.617 201.447 138.967 199.86C139.22 199.999 139.465 200.151 139.702 200.316C142.28 202.321 144.976 204.15 147.693 205.957C148.34 206.391 148.825 206.567 149.302 205.84ZM171.14 97.9213C171.148 96.9338 171.047 95.9485 170.839 94.9831C169.907 91.2116 168.318 87.6337 166.145 84.4131C160.915 76.7519 154.304 70.2953 147.782 63.7946C143.918 59.9383 140.032 56.0967 136.029 52.4166C132.819 49.4785 129.771 46.3787 126.59 43.4185C124.915 41.8613 123.16 40.3776 121.346 39.0113C120.419 38.2889 119.355 37.7621 118.219 37.4629C117.082 37.1636 115.897 37.0982 114.735 37.2705C112.591 37.6214 110.571 38.5055 108.858 39.8413C105.509 42.2212 102.064 44.4542 98.5749 46.6285C91.8979 50.7786 85.4046 55.2226 78.6248 59.2258C72.6089 62.7736 66.7253 66.5712 60.5405 69.8105C55.5162 72.4695 50.5875 75.3269 45.8497 78.456C40.0542 82.2536 34.2146 85.9703 28.3971 89.7312C27.0162 90.6273 25.6279 91.5088 24.2984 92.4783C22.1315 94.0649 21.7275 96.3053 23.3288 98.2812C26.3918 102.071 29.4989 105.832 32.8778 109.336C38.4676 115.124 44.1089 120.861 49.7061 126.642C51.3 128.287 52.8205 129.999 54.3483 131.703C57.7933 135.552 61.1795 139.452 64.6833 143.25C68.187 147.047 71.9772 150.595 75.4663 154.385C77.4496 156.552 79.565 158.601 81.6438 160.673C82.3824 161.435 83.2783 162.027 84.269 162.408C85.2598 162.788 86.3216 162.948 87.3805 162.876C89.6847 162.77 91.91 162.005 93.793 160.673C96.6871 158.668 99.5959 156.677 102.387 154.532C112.671 146.628 122.873 138.622 133.348 130.968C139.746 126.296 146.077 121.529 152.409 116.77C157.551 112.891 162.935 109.27 167.724 104.921C169.7 103.048 171.375 100.948 171.14 97.9213ZM190.488 197.818C190.488 196.731 190.488 195.703 189.327 195.071C188.166 194.44 187.212 194.807 186.227 195.439C185.385 195.972 184.66 196.672 184.097 197.495C182.592 199.737 181.558 202.261 181.056 204.914C180.826 206.01 180.936 207.151 181.372 208.183C181.484 208.517 181.713 208.799 182.017 208.979C182.32 209.158 182.678 209.222 183.025 209.16C183.84 209.103 184.635 208.877 185.36 208.498C186.084 208.119 186.722 207.594 187.234 206.956C189.423 204.26 189.9 201.021 190.488 197.811V197.818ZM200.69 189.739C200.658 190.53 200.745 191.323 200.947 192.089C201.682 193.889 203.078 194.388 204.708 193.33C205.049 193.103 205.365 192.84 205.648 192.544C207.141 190.973 208.335 189.144 209.174 187.146C209.698 186.097 210.014 184.957 210.107 183.789C210.247 181.071 208.484 179.888 206.03 181.005C205.77 181.123 205.523 181.271 205.296 181.446C204.005 182.444 202.931 183.695 202.139 185.122C201.348 186.549 200.855 188.122 200.69 189.746V189.739Z" fill="#EB8045"/>
<path d="M4.28217 88.4164C4.7082 88.6441 4.74493 89.1068 4.8037 89.4815C5.33991 92.6547 7.3966 94.917 9.39455 97.2088C11.892 100.083 14.4041 102.938 16.9309 105.774C18.4 107.39 20.016 108.815 21.3381 110.555C24.2763 114.404 27.8462 117.622 31.1222 121.125C34.2073 124.416 37.3584 127.648 40.326 131.042C43.2935 134.435 46.5989 137.542 49.7795 140.745C62.7367 153.761 75.7821 166.689 88.71 179.764C91.2955 182.393 93.8885 185.03 96.3932 187.741C105.399 197.495 114.962 206.699 124.431 215.984C129.286 220.751 134.148 225.533 138.952 230.336C140.561 231.945 141.964 233.781 143.668 235.302C150.022 240.98 155.825 247.209 161.841 253.225C163.743 255.12 165.513 257.191 167.401 259.101C168.206 259.867 169.081 260.556 170.016 261.158C171.154 262.02 172.577 262.419 173.997 262.274C174.269 262.861 174.351 263.519 174.232 264.155C173.439 269.171 172.594 274.181 171.918 279.22C171.654 281.159 170.604 283.12 171.757 285.096C170.498 285.235 169.225 285.122 168.011 284.764C166.796 284.406 165.665 283.809 164.683 283.01C163.839 282.378 163.016 281.703 162.142 281.115C158.969 278.985 156.596 276.069 154.238 273.138C152.034 270.391 149.882 267.592 147.701 264.823C144.601 260.879 140.84 257.573 137.16 254.202C130.549 248.134 124.129 241.825 117.71 235.537C107.054 225.092 96.3957 214.649 85.7351 204.209C80.4538 199.016 75.4516 193.551 70.3098 188.218C65.168 182.885 60.1732 177.751 55.0608 172.565C53.4521 170.934 51.726 169.429 50.0439 167.871C43.8003 162.069 38.0342 155.781 31.8567 149.919C28.0224 146.283 24.0412 142.794 20.4347 138.901C16.5049 134.692 12.6339 130.439 8.68206 126.216C7.12484 124.534 5.48681 122.932 3.95163 121.228C2.58563 119.805 1.53028 118.114 0.852517 116.261C0.174759 114.409 -0.11061 112.436 0.0145056 110.467C0.403811 104.73 0.873917 98.9937 1.80678 93.3157C2.01239 91.437 2.8918 89.6965 4.28217 88.4164Z" fill="#ED691F"/>
<path d="M171.757 285.104C170.603 283.113 171.654 281.152 171.918 279.227C172.594 274.188 173.439 269.179 174.232 264.162C174.351 263.526 174.269 262.869 173.997 262.281C176.707 262.561 178.852 261.136 181.026 259.887C184.467 257.871 187.696 255.513 190.664 252.85C193.873 250.115 197.227 247.555 200.712 245.181C204.928 242.199 208.704 238.666 212.766 235.5C216.047 232.944 219.293 230.344 222.506 227.699C226.913 224.078 231.284 220.472 235.852 217.093C239.019 214.768 241.969 212.162 244.667 209.307C246.745 207.156 248.495 204.71 249.86 202.049C251.998 197.738 254.179 193.463 255.575 188.828C256.774 184.92 257.729 180.94 258.432 176.913C258.459 176.738 258.471 176.562 258.469 176.385C258.425 173.101 258.91 169.84 258.902 166.549C258.944 162.012 257.621 157.566 255.105 153.79C254.208 152.446 253.099 151.175 252.798 149.493C254.106 150.073 254.664 151.396 255.545 152.38C258.116 155.267 260.643 158.197 263.045 161.231C265.623 164.492 268.187 167.842 269.656 171.757C271.307 176.212 271.873 180.996 271.309 185.713C270.489 192.647 268.635 199.419 265.807 205.803C263.155 212.091 259.38 217.622 253.929 221.919C251.131 224.122 248.582 226.678 245.769 228.882C240.091 233.289 234.875 238.314 229.073 242.611C223.806 246.518 218.679 250.624 213.647 254.833C210.32 257.61 207.036 260.445 203.702 263.222C201.63 264.948 199.515 266.623 197.297 268.158C194.358 270.207 191.692 272.565 188.937 274.871C185.257 277.774 181.419 280.472 177.442 282.951C175.697 284.017 173.769 284.747 171.757 285.104Z" fill="#FBC998"/>
<path d="M171.14 97.9212C171.375 100.948 169.671 103.063 167.651 104.899C162.862 109.248 157.499 112.869 152.336 116.747C146.004 121.507 139.672 126.296 133.274 130.946C122.8 138.6 112.597 146.606 102.314 154.51C99.5224 156.655 96.6136 158.645 93.7196 160.651C91.8366 161.983 89.6112 162.748 87.307 162.854C86.2481 162.926 85.1863 162.766 84.1955 162.386C83.2048 162.005 82.3089 161.413 81.5703 160.651C79.4915 158.579 77.3761 156.53 75.3928 154.363C71.9038 150.551 68.1135 147.018 64.6098 143.228C61.1061 139.437 57.7198 135.53 54.2748 131.681C52.747 129.976 51.2265 128.265 49.6326 126.62C44.0354 120.839 38.3941 115.102 32.8043 109.314C29.4181 105.81 26.311 102.049 23.2553 98.2591C21.654 96.2832 22.058 94.0429 24.2249 92.4563C25.5544 91.4867 26.9427 90.6052 28.3236 89.7091C34.1412 85.9482 39.9807 82.2315 45.7762 78.4339C50.5434 75.3048 55.4721 72.4474 60.467 69.7884C66.6518 66.5197 72.5355 62.7515 78.5513 59.2037C85.3311 55.2005 91.8244 50.7565 98.5014 46.6064C101.99 44.4028 105.435 42.1992 108.785 39.8193C110.497 38.4834 112.518 37.5993 114.661 37.2484C115.824 37.0761 117.009 37.1415 118.145 37.4408C119.282 37.74 120.345 38.2668 121.272 38.9892C123.086 40.3775 124.842 41.8613 126.517 43.3965C129.697 46.3346 132.746 49.4637 135.955 52.3946C139.988 56.0672 143.874 59.9162 147.708 63.7725C154.223 70.2732 160.834 76.7298 166.072 84.391C168.244 87.6116 169.833 91.1895 170.765 94.961C170.999 95.9308 171.125 96.9236 171.14 97.9212ZM158.778 100.323C158.78 99.6368 158.642 98.9572 158.373 98.3258C158.104 97.6943 157.71 97.1243 157.213 96.6505C155.009 94.7113 153.033 92.5517 150.83 90.6346C146.32 86.7122 141.744 82.8485 137.38 78.7645C132.062 73.7916 126.81 68.7527 121.551 63.7211C118.246 60.5553 114.94 57.3527 111.679 54.1721C111.431 53.9098 111.166 53.6645 110.886 53.4376C110.396 53.0027 109.769 52.7528 109.115 52.7314C108.46 52.7099 107.818 52.9182 107.301 53.3201C105.002 54.8332 102.571 56.1407 100.352 57.8008C96.026 61.0327 91.2662 63.6183 86.7194 66.5124C81.4748 69.8472 76.0392 72.8808 70.7138 76.0614C64.3748 79.8663 58.0724 83.7153 51.7554 87.5569C50.6457 88.2192 49.6239 89.0188 48.7144 89.9368C47.2086 91.4793 47.2821 92.706 49.0303 93.9841C49.9262 94.6502 50.7312 95.4305 51.4248 96.3052C52.7239 97.9677 54.1143 99.5568 55.5897 101.065C57.5435 103.004 59.6149 104.841 61.5762 106.765C69.1566 114.203 76.6807 121.701 84.1485 129.257C86.881 132.011 89.9367 134.398 92.75 137.043C93.6914 138.012 94.7471 138.863 95.8938 139.577C96.9821 140.275 98.2934 140.537 99.5665 140.311C102.336 139.808 104.933 138.613 107.118 136.837C110.467 134.171 114.118 131.93 117.452 129.249C118.704 128.283 120.025 127.409 121.404 126.634C124.489 124.832 127.528 122.947 130.52 120.978C136.866 116.791 142.625 111.723 149.405 108.161C151.491 107.066 153.232 105.465 155.215 104.224C156.219 103.523 157.181 102.762 158.094 101.946C158.337 101.756 158.527 101.507 158.646 101.223C158.766 100.939 158.811 100.629 158.778 100.323ZM54.1426 119.502C54.9979 119.524 55.8284 119.214 56.4589 118.635C57.0893 118.057 57.4704 117.256 57.5215 116.402C57.5322 115.394 57.1518 114.42 56.4602 113.686C55.7686 112.952 54.8195 112.514 53.8121 112.465C51.7407 112.465 50.1394 113.736 50.2643 115.55C50.3891 118.106 52.1814 119.619 54.1426 119.502Z" fill="#BDB3CF"/>
<path d="M151.807 189.966C152.821 191.707 154.473 192.868 155.781 194.329C156.405 195.064 157.096 195.674 157.008 196.724C155.523 198.034 153.942 199.229 152.277 200.301C149.17 202.16 149.177 202.16 149.302 205.84C148.825 206.574 148.34 206.391 147.701 205.972C144.983 204.165 142.287 202.336 139.709 200.331C139.472 200.166 139.227 200.014 138.975 199.875V196.643C138.773 196.609 138.566 196.627 138.373 196.695C138.181 196.763 138.008 196.879 137.873 197.033C136.103 198.568 134.274 200.037 132.511 201.572C132.018 201.974 131.622 202.482 131.352 203.058C131.082 203.634 130.946 204.263 130.953 204.899C130.953 205.311 130.953 205.722 130.953 206.133C130.219 206.677 129.646 206.479 128.992 205.81C126.531 203.134 123.92 200.601 121.169 198.222C120.91 198.027 120.712 197.761 120.599 197.456C120.486 197.152 120.462 196.821 120.53 196.504C120.823 194.659 121.65 192.94 122.91 191.56C124.379 190.032 125.76 188.453 127.171 186.881C127.964 185.992 127.971 185.853 127.171 184.986C126.128 183.877 125.07 182.782 123.961 181.725C123.635 181.438 123.404 181.059 123.299 180.637C123.194 180.216 123.22 179.773 123.373 179.367C123.875 177.122 125.198 175.147 127.082 173.828C128.449 172.837 129.646 171.625 130.931 170.486C132.364 169.238 132.797 169.216 133.87 170.699C135.603 173.072 137.623 175.202 139.445 177.494C140.723 179.11 141.024 179.183 142.765 177.979C144.968 176.458 147.385 175.195 149.457 173.454C149.576 173.32 149.724 173.216 149.891 173.149C150.057 173.082 150.236 173.055 150.415 173.069C150.593 173.084 150.766 173.139 150.92 173.231C151.073 173.323 151.204 173.45 151.3 173.601C153.155 175.796 155.14 177.878 157.243 179.837C157.431 180.027 157.568 180.261 157.642 180.517C157.717 180.774 157.726 181.045 157.669 181.306C155.663 183.069 153.783 184.979 151.638 186.587C149.603 188.115 149.611 188.38 151.638 189.959C151.693 189.973 151.751 189.975 151.807 189.966Z" fill="#8B7AB0"/>
<path d="M190.488 197.811C189.9 201.021 189.423 204.26 187.234 206.927C186.722 207.564 186.084 208.089 185.36 208.469C184.635 208.848 183.84 209.073 183.025 209.13C182.678 209.193 182.32 209.129 182.017 208.949C181.713 208.77 181.484 208.487 181.372 208.153C180.936 207.121 180.826 205.981 181.056 204.885C181.558 202.232 182.592 199.708 184.097 197.466C184.66 196.643 185.385 195.943 186.227 195.409C187.212 194.777 188.166 194.41 189.327 195.042C190.488 195.674 190.458 196.702 190.488 197.811Z" fill="#8B7AB0"/>
<path d="M200.69 189.746C200.852 188.126 201.341 186.555 202.127 185.13C202.914 183.704 203.982 182.453 205.266 181.453C205.494 181.278 205.74 181.131 206.001 181.012C208.454 179.896 210.217 181.078 210.078 183.796C209.985 184.964 209.668 186.104 209.145 187.153C208.306 189.151 207.111 190.98 205.619 192.552C205.335 192.847 205.02 193.111 204.679 193.338C203.048 194.395 201.616 193.896 200.918 192.096C200.725 191.329 200.648 190.536 200.69 189.746Z" fill="#8B7AB0"/>
<path d="M149.302 205.84C149.177 202.167 149.17 202.167 152.277 200.301C153.941 199.229 155.523 198.034 157.007 196.724C157.742 199.471 157.33 200.815 155.127 202.284C153.232 203.541 151.491 205.061 149.302 205.84Z" fill="#BDB3CF"/>
<path d="M130.924 206.133C130.924 205.722 130.924 205.311 130.924 204.899C130.917 204.263 131.053 203.634 131.323 203.058C131.592 202.482 131.988 201.974 132.481 201.572C134.244 200.037 136.073 198.568 137.843 197.032C137.979 196.879 138.151 196.763 138.344 196.695C138.537 196.627 138.744 196.609 138.945 196.643V199.875C136.58 201.462 134.538 203.423 132.334 205.23C131.916 205.59 131.593 206.148 130.924 206.133Z" fill="#BDB3CF"/>
<path d="M151.807 189.966C151.75 189.958 151.695 189.938 151.645 189.907C149.618 188.328 149.611 188.064 151.645 186.536C153.79 184.927 155.671 183.018 157.676 181.255C158.447 183.458 158.241 184.472 156.618 185.882C154.995 187.293 153.394 188.622 151.807 189.966Z" fill="#BDB3CF"/>
<path d="M158.777 100.323C158.816 100.634 158.773 100.95 158.654 101.24C158.534 101.529 158.341 101.783 158.094 101.976C157.182 102.781 156.223 103.532 155.222 104.224C153.239 105.465 151.498 107.066 149.412 108.161C142.632 111.723 136.873 116.792 130.527 120.978C127.535 122.937 124.496 124.823 121.411 126.634C120.032 127.409 118.712 128.283 117.46 129.249C114.125 131.93 110.474 134.171 107.125 136.837C104.939 138.641 102.33 139.86 99.5442 140.378C98.2711 140.603 96.9598 140.341 95.8715 139.643C94.7248 138.929 93.6691 138.078 92.7277 137.109C89.9144 134.457 86.8514 132.077 84.1262 129.323C76.6584 121.777 69.1417 114.275 61.5759 106.817C59.6147 104.892 57.5433 103.056 55.5894 101.117C54.1141 99.6083 52.7237 98.0192 51.4246 96.3567C50.7309 95.482 49.9259 94.7016 49.03 94.0356C47.2818 92.7575 47.2083 91.5308 48.7141 89.9883C49.6237 89.0703 50.6454 88.2706 51.7551 87.6084C58.0722 83.7667 64.3745 79.9178 70.7136 76.1129C76.039 72.9029 81.4746 69.8693 86.7192 66.5639C91.2659 63.6698 96.0257 61.0842 100.352 57.8522C102.556 56.1922 105.002 54.9141 107.301 53.3716C107.818 52.9697 108.46 52.7614 109.114 52.7829C109.769 52.8043 110.396 53.0542 110.885 53.4891C111.166 53.7159 111.431 53.9613 111.679 54.2236C114.969 57.4042 118.246 60.6068 121.551 63.7726C126.81 68.8042 132.062 73.8431 137.38 78.816C141.743 82.9 146.32 86.7637 150.83 90.6861C153.033 92.6032 155.024 94.7628 157.213 96.702C157.703 97.1698 158.094 97.7315 158.363 98.3536C158.632 98.9757 158.773 99.6455 158.777 100.323Z" fill="#8B7AB0"/>
<path d="M54.1428 119.502C52.1815 119.62 50.3893 118.033 50.2644 115.55C50.1689 113.736 51.7335 112.443 53.8122 112.465C54.8196 112.514 55.7687 112.952 56.4603 113.686C57.1519 114.42 57.5323 115.394 57.5216 116.402C57.4705 117.256 57.0894 118.057 56.459 118.635C55.8285 119.214 54.998 119.524 54.1428 119.502Z" fill="#EB8045"/>
<g opacity="0.59">
<path opacity="0.59" d="M137.234 37.7112C139.747 36.5585 142.388 35.7055 145.101 35.1697C156.611 32.8554 168.504 33.2756 179.822 36.3964C190.975 39.3426 201.451 44.4212 210.673 51.3516C225.144 62.0293 237.374 75.4494 246.665 90.8477C252.965 101.303 256.939 112.993 258.315 125.121C259.398 134.526 259.517 144.016 258.668 153.445C258.124 159.534 257.536 165.616 256.413 171.618C255.619 175.819 254.569 179.984 253.43 184.105C251.168 192.309 248.457 200.375 245.505 208.344C241.34 219.634 237.197 230.931 232.481 242.008C231.262 244.866 229.999 247.716 228.596 250.492C226.374 255.026 224.543 259.742 223.123 264.588C221.493 269.913 219.406 275.099 217.827 280.447C215.851 287.146 213.942 293.859 212.326 300.661C211.784 302.884 211.102 305.07 210.284 307.206C209.38 309.571 207.742 311.407 206.141 313.273C203.914 315.842 201.455 318.2 198.795 320.317C197.371 321.452 195.799 322.388 194.124 323.101C188.521 325.535 182.573 327.081 176.495 327.685C171.991 328.131 167.445 327.883 163.016 326.95C160.831 326.537 158.673 325.995 156.552 325.327C151.719 323.711 147.907 320.641 144.557 316.968C139.173 311.092 133.612 305.311 128.566 299.111C123.52 292.912 118.283 287.16 113.875 280.66C109.708 274.693 106.023 268.402 102.857 261.848C98.5732 253.105 97.5949 243.108 100.103 233.701C101.682 227.841 104.43 222.362 108.183 217.592C113.288 210.842 119.752 205.516 126.95 200.889C137.542 194.124 148.516 187.968 159.035 181.1C166.798 176.128 174.237 170.667 181.306 164.75C184.391 162.127 187.667 159.718 190.855 157.221C197.773 151.745 204.106 145.569 209.755 138.791C212.326 135.743 214.676 132.496 216.96 129.242C219.245 125.988 221.199 122.411 221.941 118.437C223.263 111.305 222.301 104.532 218.143 98.3841C216.902 96.5551 215.205 95.1888 213.655 93.6757C211.328 91.5117 208.824 89.5461 206.17 87.7994C202.872 85.5223 199.074 84.4646 195.27 83.4436C194.586 83.2673 193.903 83.1057 193.228 82.9073C191.208 82.243 189.055 82.0891 186.962 82.4593C186.626 82.5639 186.267 82.5652 185.93 82.4631C185.593 82.3609 185.295 82.16 185.074 81.8863C184.766 81.5338 184.34 81.2767 184.046 80.9241C182.378 79.0216 180.307 77.5599 178.434 75.8778C174.982 72.7707 171.75 69.4433 168.452 66.1819C162.23 60.0118 155.546 54.3632 148.847 48.722C145.115 45.5855 141.582 42.214 137.968 38.9453C137.592 38.6275 137.334 38.1931 137.234 37.7112Z" fill="#534672"/>
<path opacity="0.59" d="M137.476 80.5716C137.248 92.7429 134.619 105.171 130.777 117.387C127.497 127.941 122.86 138.025 116.983 147.385C111.128 156.659 103.335 164.555 94.1385 170.53C91.1818 172.34 88.0872 173.915 84.8833 175.239C79.007 177.883 73.1307 180.527 66.8357 182.217C61.356 183.686 55.8176 184.825 50.1396 183.921C42.7943 182.76 36.2716 179.969 31.5852 173.858C30.2998 172.183 28.9482 170.552 27.7142 168.834C23.2335 162.597 20.8536 155.524 19.48 148.054C19.2597 146.842 18.9585 145.637 18.819 144.381C17.8567 136.183 19.671 128.75 25.0405 122.345C27.2441 119.678 30.2631 117.938 33.2159 116.314C36.8519 114.28 40.6788 112.59 44.3148 110.555C50.0956 107.316 55.9058 104.106 60.8933 99.6181C64.5101 96.4347 67.9135 93.0166 71.0813 89.386C75.5767 84.112 77.9786 77.8391 79.7342 71.265C80.9315 66.8063 81.1592 62.2375 81.3575 57.654C81.6219 51.4251 81.218 45.1668 81.5558 38.9747C81.8209 33.81 82.6585 28.6908 84.0533 23.711C84.4129 22.3415 85.0435 21.058 85.9077 19.9364C86.7719 18.8148 87.8523 17.8778 89.0849 17.1809C92.3315 15.3079 95.5635 15.7119 98.3107 18.2387C101.034 20.7748 103.034 23.9892 104.106 27.5526C105.87 33.1529 107.168 38.8896 107.985 44.7041C108.499 48.3033 109.123 51.8952 109.718 55.4797C109.9 56.885 110.386 58.2336 111.143 59.4316C112.223 61.0255 113.405 61.3046 115.065 60.335C116.34 59.5017 117.506 58.5149 118.54 57.3969C120.067 55.7557 121.978 54.519 124.1 53.7976C125.751 53.2262 127.542 53.1982 129.21 53.7176C130.878 54.2371 132.336 55.2767 133.37 56.6844C135.059 58.8932 136.111 61.5225 136.411 64.2869C137.153 69.4507 137.821 74.6438 137.476 80.5716Z" fill="#534672"/>
<path opacity="0.59" d="M115.734 14.5366C115.696 11.416 116.291 8.32005 117.482 5.43564C118.724 2.60767 120.7 0.484853 123.939 0.066166C126.613 -0.279067 128.978 0.484852 130.594 2.76927C132.994 6.18774 134.637 10.0794 135.412 14.184C136.147 18.0109 136.558 21.8526 135.471 25.6942C135.211 26.7106 134.842 27.6958 134.369 28.6323C133.921 29.5425 133.286 30.3481 132.505 30.9968C131.725 31.6456 130.817 32.123 129.841 32.398C128.864 32.673 127.84 32.7395 126.836 32.5931C125.832 32.4468 124.87 32.0908 124.012 31.5485C121.687 30.1265 119.797 28.094 118.547 25.6722C116.674 22.2617 115.705 18.4278 115.734 14.5366Z" fill="#534672"/>
</g>
</g>
<defs>
<clipPath id="clip0_5651_55869">
<rect width="320.082" height="450" fill="white"/>
</clipPath>
</defs>
</svg>
