<svg width="18" height="20" viewBox="0 0 18 20" fill="none" xmlns="http://www.w3.org/2000/svg">
<path fill-rule="evenodd" clip-rule="evenodd" d="M3.0001 8.80002V6.40002C3.0001 3.08632 5.68639 0.400024 9.00009 0.400024C12.3138 0.400024 15.0001 3.08632 15.0001 6.40002V8.80002C16.3256 8.80002 17.4001 9.87454 17.4001 11.2V17.2C17.4001 18.5255 16.3256 19.6 15.0001 19.6H3.0001C1.67461 19.6 0.600098 18.5255 0.600098 17.2V11.2C0.600098 9.87454 1.67461 8.80002 3.0001 8.80002ZM12.6001 6.40002V8.80002H5.40009V6.40002C5.40009 4.4118 7.01187 2.80002 9.00009 2.80002C10.9883 2.80002 12.6001 4.4118 12.6001 6.40002Z" fill="#FEECA5"/>
</svg>
