<svg width="48" height="48" viewBox="0 0 48 48" fill="none" xmlns="http://www.w3.org/2000/svg">
<rect width="48" height="48" rx="6" fill="#5596DC"/>
<path d="M22.7998 14.3999C22.1371 14.3999 21.5998 14.9372 21.5998 15.5999C21.5998 16.2626 22.1371 16.7999 22.7998 16.7999H25.1998C25.8625 16.7999 26.3998 16.2626 26.3998 15.5999C26.3998 14.9372 25.8625 14.3999 25.1998 14.3999H22.7998Z" fill="white"/>
<path fill-rule="evenodd" clip-rule="evenodd" d="M16.7998 17.9999C16.7998 16.6744 17.8743 15.5999 19.1998 15.5999C19.1998 17.5881 20.8116 19.1999 22.7998 19.1999H25.1998C27.188 19.1999 28.7998 17.5881 28.7998 15.5999C30.1253 15.5999 31.1998 16.6744 31.1998 17.9999V31.1999C31.1998 32.5254 30.1253 33.5999 28.7998 33.5999H19.1998C17.8743 33.5999 16.7998 32.5254 16.7998 31.1999V17.9999ZM28.4483 24.8484C28.917 24.3798 28.917 23.62 28.4483 23.1514C27.9797 22.6827 27.2199 22.6827 26.7513 23.1514L22.7998 27.1028L21.2483 25.5514C20.7797 25.0827 20.0199 25.0827 19.5513 25.5514C19.0826 26.02 19.0826 26.7798 19.5513 27.2484L21.9513 29.6484C22.4199 30.1171 23.1797 30.1171 23.6483 29.6484L28.4483 24.8484Z" fill="white"/>
</svg>
