<svg width="343" height="200" viewBox="0 0 343 200" fill="none" xmlns="http://www.w3.org/2000/svg">
<path d="M150.055 64.6855H143.341V131.427H150.055V64.6855Z" fill="#EB8045"/>
<path d="M150.055 64.6855H143.341V131.427H150.055V64.6855Z" fill="black" fill-opacity="0.1"/>
<path d="M61.6948 172.498C95.2769 172.498 122.5 139.029 122.5 97.7422C122.5 56.4558 95.2769 22.9866 61.6948 22.9866C28.1128 22.9866 0.88916 56.4558 0.88916 97.7422C0.88916 139.029 28.1128 172.498 61.6948 172.498Z" fill="#EB8045"/>
<path d="M61.6948 172.498C95.2769 172.498 122.5 139.029 122.5 97.7422C122.5 56.4558 95.2769 22.9866 61.6948 22.9866C28.1128 22.9866 0.88916 56.4558 0.88916 97.7422C0.88916 139.029 28.1128 172.498 61.6948 172.498Z" fill="black" fill-opacity="0.1"/>
<path d="M150.055 74.5845H136.626V120.586H150.055V74.5845Z" fill="#EB8045"/>
<path d="M152.354 56.8093H140.847V64.6793H152.354V56.8093Z" fill="#EB8045"/>
<path d="M152.354 56.8093H140.847V64.6793H152.354V56.8093Z" fill="black" fill-opacity="0.1"/>
<path d="M152.863 131.238H141.356V139.108H152.863V131.238Z" fill="#EB8045"/>
<path d="M152.863 131.238H141.356V139.108H152.863V131.238Z" fill="black" fill-opacity="0.1"/>
<path d="M80.0415 172.498C113.624 172.498 140.847 139.029 140.847 97.7422C140.847 56.4558 113.624 22.9866 80.0415 22.9866C46.4595 22.9866 19.2358 56.4558 19.2358 97.7422C19.2358 139.029 46.4595 172.498 80.0415 172.498Z" fill="#FBC998"/>
<path d="M84.2877 155.426C110.172 155.426 131.156 129.53 131.156 97.585C131.156 65.6402 110.172 39.7439 84.2877 39.7439C58.4031 39.7439 37.4194 65.6402 37.4194 97.585C37.4194 129.53 58.4031 155.426 84.2877 155.426Z" fill="#EB8045"/>
<path d="M131.156 97.5851C131.156 97.5851 131.156 97.3024 131.118 96.7372C131.08 96.1719 131.118 95.3365 131.037 94.2248C130.868 91.0277 130.493 87.845 129.912 84.6966C129.812 84.1879 129.711 83.6603 129.611 83.1201L129.228 81.4682C128.989 80.3377 128.599 79.1757 128.304 77.9509C127.516 75.3147 126.574 72.7268 125.484 70.2002C122.805 64.0399 119.078 58.3912 114.467 53.5055C111.783 50.6896 108.755 48.2228 105.454 46.1631C101.884 43.9022 97.9858 42.2073 93.8974 41.1384C89.5107 40.0173 84.9612 39.675 80.4562 40.1272C78.1041 40.3527 75.7796 40.8071 73.5158 41.4838C71.1827 42.1583 68.9179 43.0499 66.7512 44.1469C64.5271 45.261 62.4026 46.5639 60.4012 48.0411C58.3585 49.5723 56.4314 51.2517 54.6353 53.0659C52.8299 54.9368 51.1513 56.9259 49.6105 59.0202C48.0575 61.1708 46.6455 63.42 45.3835 65.7533C40.2682 75.6045 37.5979 86.5416 37.5979 97.6416C37.5979 108.742 40.2682 119.679 45.3835 129.53C46.6462 131.866 48.0603 134.117 49.6168 136.269C51.1554 138.363 52.8342 140.35 54.6416 142.217C56.4364 144.033 58.3636 145.712 60.4075 147.242C62.4089 148.719 64.5333 150.022 66.7575 151.136C68.9247 152.232 71.1893 153.124 73.522 153.799C75.7879 154.477 78.1145 154.931 80.4687 155.156C84.972 155.609 89.52 155.265 93.9037 154.139C97.9941 153.07 101.895 151.375 105.467 149.114C108.773 147.011 111.8 144.497 114.474 141.633C119.082 136.747 122.807 131.098 125.484 124.939C126.574 122.414 127.516 119.828 128.304 117.194C128.631 115.969 128.989 114.807 129.228 113.671C129.359 113.112 129.485 112.559 129.611 112.025C129.736 111.491 129.812 110.957 129.912 110.448C130.484 107.304 130.851 104.125 131.011 100.933C131.074 99.8399 131.074 98.9983 131.093 98.4204C131.112 97.8426 131.131 97.5662 131.131 97.5662C131.131 97.5662 131.131 98.7219 131.08 100.92C130.937 104.123 130.581 107.312 130.013 110.467C129.918 110.982 129.818 111.51 129.718 112.05C129.617 112.59 129.473 113.143 129.341 113.708C129.108 114.839 128.757 116.007 128.43 117.232C127.649 119.878 126.713 122.477 125.629 125.014C122.957 131.204 119.229 136.883 114.612 141.797C111.922 144.646 108.883 147.144 105.567 149.233C101.981 151.518 98.064 153.237 93.9539 154.327C89.5382 155.466 84.9561 155.817 80.4185 155.363C78.0479 155.138 75.7046 154.684 73.4215 154.007C71.071 153.331 68.7893 152.435 66.6067 151.331C64.3639 150.212 62.2224 148.901 60.2065 147.412C58.1483 145.885 56.2083 144.205 54.4029 142.387C52.5772 140.509 50.8816 138.509 49.3279 136.401C47.7631 134.241 46.3406 131.982 45.0694 129.637C39.93 119.741 37.2471 108.754 37.2471 97.6039C37.2471 86.4534 39.93 75.4666 45.0694 65.5712C46.35 63.2149 47.783 60.9448 49.3593 58.7752C50.9164 56.6697 52.6118 54.6701 54.4343 52.7895C56.2425 50.974 58.1823 49.2946 60.2379 47.7648C62.2538 46.2755 64.3953 44.9641 66.6381 43.8455C68.8207 42.7415 71.1024 41.8457 73.4529 41.1698C75.7359 40.4923 78.0792 40.0379 80.4499 39.8131C84.9769 39.3651 89.5473 39.7137 93.9539 40.8432C98.0682 41.927 101.99 43.641 105.58 45.9244C108.896 48.0131 111.934 50.5117 114.624 53.3611C119.241 58.2737 122.967 63.9527 125.635 70.1437C126.724 72.6777 127.662 75.2742 128.442 77.9195C128.769 79.1757 129.115 80.3125 129.353 81.4494C129.479 82.0147 129.604 82.5674 129.73 83.1013C129.856 83.6351 129.925 84.1753 130.025 84.6841C130.593 87.8412 130.95 91.0327 131.093 94.2373C131.168 96.4105 131.156 97.5851 131.156 97.5851Z" fill="#EB8045"/>
<path d="M131.156 97.5851C131.156 97.5851 131.156 97.3024 131.118 96.7372C131.08 96.1719 131.118 95.3365 131.037 94.2248C130.868 91.0277 130.493 87.845 129.912 84.6966C129.812 84.1879 129.711 83.6603 129.611 83.1201L129.228 81.4682C128.989 80.3377 128.599 79.1757 128.304 77.9509C127.516 75.3147 126.574 72.7268 125.484 70.2002C122.805 64.0399 119.078 58.3912 114.467 53.5055C111.783 50.6896 108.755 48.2228 105.454 46.1631C101.884 43.9022 97.9858 42.2073 93.8974 41.1384C89.5107 40.0173 84.9612 39.675 80.4562 40.1272C78.1041 40.3527 75.7796 40.8071 73.5158 41.4838C71.1827 42.1583 68.9179 43.0499 66.7512 44.1469C64.5271 45.261 62.4026 46.5639 60.4012 48.0411C58.3585 49.5723 56.4314 51.2517 54.6353 53.0659C52.8299 54.9368 51.1513 56.9259 49.6105 59.0202C48.0575 61.1708 46.6455 63.42 45.3835 65.7533C40.2682 75.6045 37.5979 86.5416 37.5979 97.6416C37.5979 108.742 40.2682 119.679 45.3835 129.53C46.6462 131.866 48.0603 134.117 49.6168 136.269C51.1554 138.363 52.8342 140.35 54.6416 142.217C56.4364 144.033 58.3636 145.712 60.4075 147.242C62.4089 148.719 64.5333 150.022 66.7575 151.136C68.9247 152.232 71.1893 153.124 73.522 153.799C75.7879 154.477 78.1145 154.931 80.4687 155.156C84.972 155.609 89.52 155.265 93.9037 154.139C97.9941 153.07 101.895 151.375 105.467 149.114C108.773 147.011 111.8 144.497 114.474 141.633C119.082 136.747 122.807 131.098 125.484 124.939C126.574 122.414 127.516 119.828 128.304 117.194C128.631 115.969 128.989 114.807 129.228 113.671C129.359 113.112 129.485 112.559 129.611 112.025C129.736 111.491 129.812 110.957 129.912 110.448C130.484 107.304 130.851 104.125 131.011 100.933C131.074 99.8399 131.074 98.9983 131.093 98.4204C131.112 97.8426 131.131 97.5662 131.131 97.5662C131.131 97.5662 131.131 98.7219 131.08 100.92C130.937 104.123 130.581 107.312 130.013 110.467C129.918 110.982 129.818 111.51 129.718 112.05C129.617 112.59 129.473 113.143 129.341 113.708C129.108 114.839 128.757 116.007 128.43 117.232C127.649 119.878 126.713 122.477 125.629 125.014C122.957 131.204 119.229 136.883 114.612 141.797C111.922 144.646 108.883 147.144 105.567 149.233C101.981 151.518 98.064 153.237 93.9539 154.327C89.5382 155.466 84.9561 155.817 80.4185 155.363C78.0479 155.138 75.7046 154.684 73.4215 154.007C71.071 153.331 68.7893 152.435 66.6067 151.331C64.3639 150.212 62.2224 148.901 60.2065 147.412C58.1483 145.885 56.2083 144.205 54.4029 142.387C52.5772 140.509 50.8816 138.509 49.3279 136.401C47.7631 134.241 46.3406 131.982 45.0694 129.637C39.93 119.741 37.2471 108.754 37.2471 97.6039C37.2471 86.4534 39.93 75.4666 45.0694 65.5712C46.35 63.2149 47.783 60.9448 49.3593 58.7752C50.9164 56.6697 52.6118 54.6701 54.4343 52.7895C56.2425 50.974 58.1823 49.2946 60.2379 47.7648C62.2538 46.2755 64.3953 44.9641 66.6381 43.8455C68.8207 42.7415 71.1024 41.8457 73.4529 41.1698C75.7359 40.4923 78.0792 40.0379 80.4499 39.8131C84.9769 39.3651 89.5473 39.7137 93.9539 40.8432C98.0682 41.927 101.99 43.641 105.58 45.9244C108.896 48.0131 111.934 50.5117 114.624 53.3611C119.241 58.2737 122.967 63.9527 125.635 70.1437C126.724 72.6777 127.662 75.2742 128.442 77.9195C128.769 79.1757 129.115 80.3125 129.353 81.4494C129.479 82.0147 129.604 82.5674 129.73 83.1013C129.856 83.6351 129.925 84.1753 130.025 84.6841C130.593 87.8412 130.95 91.0327 131.093 94.2373C131.168 96.4105 131.156 97.5851 131.156 97.5851Z" fill="black" fill-opacity="0.1"/>
<path d="M96.7866 123.136C111.966 123.136 124.272 111.12 124.272 96.2974C124.272 81.475 111.966 69.459 96.7866 69.459C81.6069 69.459 69.3013 81.475 69.3013 96.2974C69.3013 111.12 81.6069 123.136 96.7866 123.136Z" fill="#EB8045"/>
<path d="M96.7866 123.136C111.966 123.136 124.272 111.12 124.272 96.2974C124.272 81.475 111.966 69.459 96.7866 69.459C81.6069 69.459 69.3013 81.475 69.3013 96.2974C69.3013 111.12 81.6069 123.136 96.7866 123.136Z" fill="black" fill-opacity="0.1"/>
<path d="M82.6917 80.4696C81.9244 81.3113 80.8542 81.814 79.7165 81.867C78.5787 81.92 77.4665 81.519 76.6243 80.7522L73.2263 77.6557C72.3845 76.8884 71.8819 75.8183 71.8289 74.6806C71.7759 73.5428 72.1768 72.4306 72.9436 71.5883V71.5883C73.7109 70.7466 74.7811 70.2439 75.9188 70.1909C77.0566 70.1379 78.1688 70.5389 79.011 71.3057L82.409 74.4022C83.2508 75.1695 83.7534 76.2396 83.8064 77.3774C83.8594 78.5151 83.4585 79.6274 82.6917 80.4696V80.4696Z" fill="#EB8045"/>
<path d="M82.6917 80.4696C81.9244 81.3113 80.8542 81.814 79.7165 81.867C78.5787 81.92 77.4665 81.519 76.6243 80.7522L73.2263 77.6557C72.3845 76.8884 71.8819 75.8183 71.8289 74.6806C71.7759 73.5428 72.1768 72.4306 72.9436 71.5883V71.5883C73.7109 70.7466 74.7811 70.2439 75.9188 70.1909C77.0566 70.1379 78.1688 70.5389 79.011 71.3057L82.409 74.4022C83.2508 75.1695 83.7534 76.2396 83.8064 77.3774C83.8594 78.5151 83.4585 79.6274 82.6917 80.4696V80.4696Z" fill="black" fill-opacity="0.1"/>
<path d="M97.094 72.5806C96.5301 72.5815 95.9716 72.4711 95.4504 72.2559C94.9292 72.0407 94.4556 71.7248 94.0565 71.3264C93.6575 70.928 93.341 70.4548 93.125 69.9339C92.909 69.413 92.7979 68.8546 92.7979 68.2908V63.6931C92.7979 62.5537 93.2505 61.461 94.0562 60.6553C94.8618 59.8496 95.9546 59.397 97.094 59.397V59.397C97.6579 59.397 98.2162 59.5081 98.7371 59.7241C99.258 59.9401 99.7312 60.2566 100.13 60.6557C100.528 61.0547 100.844 61.5283 101.059 62.0495C101.274 62.5707 101.385 63.1292 101.384 63.6931V68.2908C101.384 69.4285 100.932 70.5197 100.127 71.3242C99.3229 72.1287 98.2317 72.5806 97.094 72.5806V72.5806Z" fill="#EB8045"/>
<path d="M97.094 72.5806C96.5301 72.5815 95.9716 72.4711 95.4504 72.2559C94.9292 72.0407 94.4556 71.7248 94.0565 71.3264C93.6575 70.928 93.341 70.4548 93.125 69.9339C92.909 69.413 92.7979 68.8546 92.7979 68.2908V63.6931C92.7979 62.5537 93.2505 61.461 94.0562 60.6553C94.8618 59.8496 95.9546 59.397 97.094 59.397V59.397C97.6579 59.397 98.2162 59.5081 98.7371 59.7241C99.258 59.9401 99.7312 60.2566 100.13 60.6557C100.528 61.0547 100.844 61.5283 101.059 62.0495C101.274 62.5707 101.385 63.1292 101.384 63.6931V68.2908C101.384 69.4285 100.932 70.5197 100.127 71.3242C99.3229 72.1287 98.2317 72.5806 97.094 72.5806V72.5806Z" fill="black" fill-opacity="0.1"/>
<path d="M114.141 79.8727C113.688 79.5358 113.306 79.1129 113.018 78.6283C112.729 78.1436 112.538 77.6068 112.457 77.0484C112.376 76.4901 112.406 75.9212 112.545 75.3744C112.684 74.8276 112.93 74.3137 113.268 73.8619L116.012 70.175C116.694 69.2624 117.71 68.6578 118.837 68.4941C119.964 68.3304 121.11 68.621 122.023 69.3019V69.3019C122.476 69.6389 122.857 70.0618 123.146 70.5464C123.435 71.031 123.626 71.5679 123.707 72.1263C123.788 72.6846 123.758 73.2535 123.619 73.8002C123.48 74.347 123.234 74.861 122.896 75.3128L120.151 78.9934C119.471 79.907 118.455 80.5128 117.328 80.6777C116.201 80.8426 115.054 80.5531 114.141 79.8727Z" fill="#EB8045"/>
<path d="M114.141 79.8727C113.688 79.5358 113.306 79.1129 113.018 78.6283C112.729 78.1436 112.538 77.6068 112.457 77.0484C112.376 76.4901 112.406 75.9212 112.545 75.3744C112.684 74.8276 112.93 74.3137 113.268 73.8619L116.012 70.175C116.694 69.2624 117.71 68.6578 118.837 68.4941C119.964 68.3304 121.11 68.621 122.023 69.3019V69.3019C122.476 69.6389 122.857 70.0618 123.146 70.5464C123.435 71.031 123.626 71.5679 123.707 72.1263C123.788 72.6846 123.758 73.2535 123.619 73.8002C123.48 74.347 123.234 74.861 122.896 75.3128L120.151 78.9934C119.471 79.907 118.455 80.5128 117.328 80.6777C116.201 80.8426 115.054 80.5531 114.141 79.8727Z" fill="black" fill-opacity="0.1"/>
<path d="M77.2462 97.585C77.247 98.1489 77.1366 98.7074 76.9214 99.2286C76.7062 99.7498 76.3903 100.223 75.9919 100.623C75.5935 101.022 75.1203 101.338 74.5994 101.554C74.0785 101.77 73.5202 101.881 72.9563 101.881H68.3587C67.2192 101.881 66.1265 101.429 65.3208 100.623C64.5151 99.8172 64.0625 98.7245 64.0625 97.585V97.585C64.0625 97.0212 64.1737 96.4628 64.3896 95.9419C64.6056 95.4211 64.9222 94.9479 65.3212 94.5494C65.7202 94.151 66.1939 93.8351 66.7151 93.6199C67.2363 93.4047 67.7948 93.2943 68.3587 93.2952H72.9563C74.094 93.2952 75.1852 93.7471 75.9897 94.5517C76.7942 95.3562 77.2462 96.4473 77.2462 97.585V97.585Z" fill="#EB8045"/>
<path d="M77.2462 97.585C77.247 98.1489 77.1366 98.7074 76.9214 99.2286C76.7062 99.7498 76.3903 100.223 75.9919 100.623C75.5935 101.022 75.1203 101.338 74.5994 101.554C74.0785 101.77 73.5202 101.881 72.9563 101.881H68.3587C67.2192 101.881 66.1265 101.429 65.3208 100.623C64.5151 99.8172 64.0625 98.7245 64.0625 97.585V97.585C64.0625 97.0212 64.1737 96.4628 64.3896 95.9419C64.6056 95.4211 64.9222 94.9479 65.3212 94.5494C65.7202 94.151 66.1939 93.8351 66.7151 93.6199C67.2363 93.4047 67.7948 93.2943 68.3587 93.2952H72.9563C74.094 93.2952 75.1852 93.7471 75.9897 94.5517C76.7942 95.3562 77.2462 96.4473 77.2462 97.585V97.585Z" fill="black" fill-opacity="0.1"/>
<path d="M133.8 96.2598C133.8 96.8237 133.689 97.382 133.473 97.9029C133.257 98.4238 132.94 98.897 132.541 99.2954C132.142 99.6938 131.669 100.01 131.147 100.225C130.626 100.44 130.068 100.55 129.504 100.55H124.906C123.768 100.55 122.677 100.098 121.873 99.2932C121.068 98.4887 120.616 97.3975 120.616 96.2598V96.2598C120.615 95.6959 120.726 95.1374 120.941 94.6162C121.156 94.095 121.472 93.6213 121.87 93.2223C122.269 92.8233 122.742 92.5067 123.263 92.2908C123.784 92.0748 124.342 91.9636 124.906 91.9636H129.504C130.643 91.9636 131.736 92.4163 132.542 93.2219C133.347 94.0276 133.8 95.1204 133.8 96.2598V96.2598Z" fill="#EB8045"/>
<path d="M133.8 96.2598C133.8 96.8237 133.689 97.382 133.473 97.9029C133.257 98.4238 132.94 98.897 132.541 99.2954C132.142 99.6938 131.669 100.01 131.147 100.225C130.626 100.44 130.068 100.55 129.504 100.55H124.906C123.768 100.55 122.677 100.098 121.873 99.2932C121.068 98.4887 120.616 97.3975 120.616 96.2598V96.2598C120.615 95.6959 120.726 95.1374 120.941 94.6162C121.156 94.095 121.472 93.6213 121.87 93.2223C122.269 92.8233 122.742 92.5067 123.263 92.2908C123.784 92.0748 124.342 91.9636 124.906 91.9636H129.504C130.643 91.9636 131.736 92.4163 132.542 93.2219C133.347 94.0276 133.8 95.1204 133.8 96.2598V96.2598Z" fill="black" fill-opacity="0.1"/>
<path d="M83.6406 114.186C84.4089 115.026 84.8121 116.138 84.7615 117.275C84.7108 118.413 84.2105 119.484 83.3705 120.253L79.9788 123.35C79.563 123.731 79.076 124.026 78.5458 124.219C78.0157 124.412 77.4527 124.498 76.8891 124.473C76.3255 124.448 75.7724 124.312 75.2615 124.073C74.7505 123.834 74.2917 123.496 73.9114 123.079C73.5302 122.664 73.2347 122.177 73.0419 121.646C72.8492 121.116 72.7628 120.553 72.7879 119.99C72.813 119.426 72.949 118.873 73.1882 118.362C73.4273 117.851 73.7648 117.392 74.1815 117.012L77.5732 113.916C77.9891 113.534 78.476 113.239 79.0062 113.046C79.5363 112.853 80.0993 112.767 80.6629 112.792C81.2265 112.817 81.7796 112.953 82.2905 113.192C82.8015 113.431 83.2603 113.769 83.6406 114.186V114.186Z" fill="#EB8045"/>
<path d="M83.6406 114.186C84.4089 115.026 84.8121 116.138 84.7615 117.275C84.7108 118.413 84.2105 119.484 83.3705 120.253L79.9788 123.35C79.563 123.731 79.076 124.026 78.5458 124.219C78.0157 124.412 77.4527 124.498 76.8891 124.473C76.3255 124.448 75.7724 124.312 75.2615 124.073C74.7505 123.834 74.2917 123.496 73.9114 123.079C73.5302 122.664 73.2347 122.177 73.0419 121.646C72.8492 121.116 72.7628 120.553 72.7879 119.99C72.813 119.426 72.949 118.873 73.1882 118.362C73.4273 117.851 73.7648 117.392 74.1815 117.012L77.5732 113.916C77.9891 113.534 78.476 113.239 79.0062 113.046C79.5363 112.853 80.0993 112.767 80.6629 112.792C81.2265 112.817 81.7796 112.953 82.2905 113.192C82.8015 113.431 83.2603 113.769 83.6406 114.186V114.186Z" fill="black" fill-opacity="0.1"/>
<path d="M101.529 117.621C102.092 117.594 102.654 117.678 103.185 117.869C103.715 118.059 104.203 118.353 104.62 118.732C105.037 119.111 105.375 119.569 105.615 120.079C105.856 120.588 105.993 121.141 106.019 121.704L106.233 126.295C106.261 126.858 106.177 127.421 105.987 127.952C105.797 128.483 105.504 128.971 105.124 129.388C104.745 129.806 104.287 130.144 103.777 130.384C103.266 130.623 102.714 130.76 102.15 130.786V130.786C101.587 130.814 101.023 130.73 100.492 130.54C99.9611 130.35 99.4726 130.057 99.0549 129.678C98.6372 129.298 98.2983 128.84 98.0578 128.33C97.8173 127.82 97.6798 127.267 97.6533 126.703L97.4397 122.112C97.3868 120.974 97.7878 119.862 98.5545 119.02C99.3213 118.178 100.391 117.675 101.529 117.621V117.621Z" fill="#EB8045"/>
<path d="M101.529 117.621C102.092 117.594 102.654 117.678 103.185 117.869C103.715 118.059 104.203 118.353 104.62 118.732C105.037 119.111 105.375 119.569 105.615 120.079C105.856 120.588 105.993 121.141 106.019 121.704L106.233 126.295C106.261 126.858 106.177 127.421 105.987 127.952C105.797 128.483 105.504 128.971 105.124 129.388C104.745 129.806 104.287 130.144 103.777 130.384C103.266 130.623 102.714 130.76 102.15 130.786V130.786C101.587 130.814 101.023 130.73 100.492 130.54C99.9611 130.35 99.4726 130.057 99.0549 129.678C98.6372 129.298 98.2983 128.84 98.0578 128.33C97.8173 127.82 97.6798 127.267 97.6533 126.703L97.4397 122.112C97.3868 120.974 97.7878 119.862 98.5545 119.02C99.3213 118.178 100.391 117.675 101.529 117.621V117.621Z" fill="black" fill-opacity="0.1"/>
<path d="M115.742 111.899C116.51 111.058 117.58 110.555 118.718 110.502C119.855 110.449 120.968 110.85 121.81 111.617L125.208 114.713C125.625 115.093 125.963 115.552 126.203 116.062C126.442 116.573 126.579 117.126 126.605 117.69C126.63 118.253 126.544 118.816 126.352 119.347C126.16 119.877 125.865 120.364 125.484 120.781C125.105 121.198 124.647 121.535 124.137 121.775C123.627 122.015 123.074 122.151 122.511 122.177C121.948 122.203 121.385 122.117 120.855 121.925C120.326 121.732 119.839 121.438 119.423 121.057L116.025 117.96C115.608 117.581 115.271 117.123 115.031 116.613C114.791 116.103 114.654 115.551 114.628 114.988C114.602 114.426 114.687 113.863 114.878 113.333C115.069 112.803 115.363 112.316 115.742 111.899V111.899Z" fill="#EB8045"/>
<path d="M115.742 111.899C116.51 111.058 117.58 110.555 118.718 110.502C119.855 110.449 120.968 110.85 121.81 111.617L125.208 114.713C125.625 115.093 125.963 115.552 126.203 116.062C126.442 116.573 126.579 117.126 126.605 117.69C126.63 118.253 126.544 118.816 126.352 119.347C126.16 119.877 125.865 120.364 125.484 120.781C125.105 121.198 124.647 121.535 124.137 121.775C123.627 122.015 123.074 122.151 122.511 122.177C121.948 122.203 121.385 122.117 120.855 121.925C120.326 121.732 119.839 121.438 119.423 121.057L116.025 117.96C115.608 117.581 115.271 117.123 115.031 116.613C114.791 116.103 114.654 115.551 114.628 114.988C114.602 114.426 114.687 113.863 114.878 113.333C115.069 112.803 115.363 112.316 115.742 111.899V111.899Z" fill="black" fill-opacity="0.1"/>
<path d="M101.836 121.434C114.126 121.434 124.09 110.239 124.09 96.4294C124.09 82.6199 114.126 71.425 101.836 71.425C89.5462 71.425 79.583 82.6199 79.583 96.4294C79.583 110.239 89.5462 121.434 101.836 121.434Z" fill="#FBC998"/>
<path d="M292.111 150C319.726 122.386 319.726 77.614 292.111 49.9998C264.497 22.3855 219.726 22.3855 192.111 49.9998C164.497 77.614 164.497 122.386 192.111 150C219.726 177.614 264.497 177.614 292.111 150Z" fill="#0E1216"/>
<path d="M216.149 129.989V102.472H241.147V88.6977H271.402V60.4335H300.238V80.4571H310.149V46.2261L316.016 55.3334C316.016 55.3334 328.578 78.5226 309.414 105.449C290.251 132.375 254.004 147.946 216.149 129.989Z" fill="#303C4A"/>
<path d="M179.167 77.6809H206.935L210.892 86.1979H228.121L233.899 93.2953V116.937L240.469 116.34L246.285 122.15V143.436H193.305C193.305 143.436 167.189 121.12 179.167 77.6809Z" fill="#EB8045"/>
<path opacity="0.4" d="M179.167 77.6809H206.935L210.892 86.1979H228.121L233.899 93.2953V116.937L240.469 116.34L246.285 122.15V143.436H193.305C193.305 143.436 167.189 121.12 179.167 77.6809Z" fill="black"/>
<path d="M220.941 161.06V142.757H204.454V132.84H195.661V129.235H182.885C182.885 129.235 194.448 153.46 220.941 161.06Z" fill="#EB8045"/>
<path opacity="0.3" d="M220.941 161.06V142.757H204.454V132.84H195.661V129.235H182.885C182.885 129.235 194.448 153.46 220.941 161.06Z" fill="black"/>
<path d="M213.813 159.616V136.012H235.275V124.197H261.215V99.9279H285.949V117.1H294.448V87.7617H302.261C302.261 87.7617 310.238 115.461 293.819 138.562C277.401 161.663 246.285 175.023 213.813 159.616Z" fill="#EB8045"/>
<path d="M247.635 178.019V151.243H271.76V136.703H284.642V131.427H303.303C303.303 131.427 286.414 166.901 247.635 178.019Z" fill="#EB8045"/>
<path opacity="0.3" d="M247.635 178.728V151.953H271.76V137.412H284.642V132.136H303.303C303.303 132.136 286.414 167.611 247.635 178.728Z" fill="white"/>
<path d="M242.994 9.95361C225.627 9.95361 208.651 15.1034 194.211 24.7518C179.771 34.4002 168.516 48.1139 161.871 64.1586C155.225 80.2033 153.486 97.8584 156.874 114.891C160.262 131.924 168.625 147.57 180.905 159.85C193.185 172.13 208.831 180.493 225.864 183.881C242.897 187.269 260.552 185.53 276.596 178.884C292.641 172.238 306.355 160.984 316.003 146.544C325.652 132.104 330.801 115.128 330.801 97.761C330.801 74.473 321.55 52.1389 305.083 35.6718C288.616 19.2047 266.282 9.95361 242.994 9.95361V9.95361ZM240.224 163.937C227.578 163.936 215.217 160.185 204.703 153.158C194.189 146.131 185.994 136.145 181.156 124.461C176.317 112.778 175.052 99.9218 177.52 87.5191C179.988 75.1164 186.078 63.724 195.02 54.7825C203.963 45.841 215.356 39.7519 227.759 37.2853C240.162 34.8187 253.017 36.0852 264.701 40.9249C276.384 45.7645 286.369 53.9599 293.395 64.4746C300.42 74.9893 304.17 87.3512 304.17 99.997C304.17 108.394 302.516 116.709 299.302 124.467C296.089 132.225 291.378 139.274 285.44 145.211C279.502 151.149 272.453 155.859 264.695 159.071C256.936 162.284 248.621 163.938 240.224 163.937V163.937Z" fill="#FBC998"/>
<path d="M242.994 30.9319C234.205 30.9311 225.502 32.6615 217.382 36.0243C209.261 39.3872 201.883 44.3166 195.668 50.531C189.453 56.7455 184.523 64.1234 181.159 72.2433C177.796 80.3632 176.064 89.0662 176.064 97.8552C176.066 100.65 176.24 103.442 176.586 106.215C176.391 104.174 176.284 102.095 176.284 99.997C176.298 86.4174 180.639 73.1955 188.677 62.2505C196.716 51.3056 208.033 43.2071 220.986 39.1306C233.939 35.0541 247.855 35.2118 260.712 39.5808C273.57 43.9497 284.701 52.3026 292.489 63.4269C300.277 74.5512 304.317 87.868 304.023 101.444C303.729 115.021 299.116 128.15 290.854 138.927C282.592 149.704 271.11 157.567 258.075 161.375C245.04 165.184 231.131 164.739 218.366 160.105C227.527 163.726 237.373 165.28 247.203 164.657C257.033 164.034 266.604 161.249 275.234 156.5C283.863 151.752 291.338 145.158 297.126 137.188C302.913 129.218 306.87 120.068 308.714 110.393C310.558 100.718 310.244 90.7543 307.795 81.2142C305.345 71.6741 300.819 62.7923 294.541 55.2026C288.264 47.6128 280.388 41.5023 271.476 37.3069C262.565 33.1115 252.837 30.9347 242.988 30.9319H242.994Z" fill="#EB8045"/>
<path d="M242.994 30.9319C234.205 30.9311 225.502 32.6615 217.382 36.0243C209.261 39.3872 201.883 44.3166 195.668 50.531C189.453 56.7455 184.523 64.1234 181.159 72.2433C177.796 80.3632 176.064 89.0662 176.064 97.8552C176.066 100.65 176.24 103.442 176.586 106.215C176.391 104.174 176.284 102.095 176.284 99.997C176.298 86.4174 180.639 73.1955 188.677 62.2505C196.716 51.3056 208.033 43.2071 220.986 39.1306C233.939 35.0541 247.855 35.2118 260.712 39.5808C273.57 43.9497 284.701 52.3026 292.489 63.4269C300.277 74.5512 304.317 87.868 304.023 101.444C303.729 115.021 299.116 128.15 290.854 138.927C282.592 149.704 271.11 157.567 258.075 161.375C245.04 165.184 231.131 164.739 218.366 160.105C227.527 163.726 237.373 165.28 247.203 164.657C257.033 164.034 266.604 161.249 275.234 156.5C283.863 151.752 291.338 145.158 297.126 137.188C302.913 129.218 306.87 120.068 308.714 110.393C310.558 100.718 310.244 90.7543 307.795 81.2142C305.345 71.6741 300.819 62.7923 294.541 55.2026C288.264 47.6128 280.388 41.5023 271.476 37.3069C262.565 33.1115 252.837 30.9347 242.988 30.9319H242.994Z" fill="black" fill-opacity="0.1"/>
<path d="M282.925 29.6953C283.66 27.1202 282.168 24.4368 279.593 23.7018C277.018 22.9668 274.334 24.4585 273.599 27.0336C272.864 29.6087 274.356 32.2921 276.931 33.0271C279.506 33.7621 282.19 32.2704 282.925 29.6953Z" fill="#EB8045"/>
<path d="M223.156 28.5936C225.632 27.5735 226.813 24.7393 225.793 22.2632C224.773 19.7872 221.938 18.6068 219.462 19.6269C216.986 20.647 215.806 23.4811 216.826 25.9572C217.846 28.4333 220.68 29.6136 223.156 28.5936Z" fill="#EB8045"/>
<path d="M317.045 66.8427C318.939 64.9491 318.939 61.879 317.045 59.9854C315.152 58.0918 312.082 58.0918 310.188 59.9854C308.294 61.879 308.294 64.9491 310.188 66.8427C312.082 68.7363 315.152 68.7364 317.045 66.8427Z" fill="#EB8045"/>
<path d="M177.799 62.1036C178.416 59.4978 176.804 56.8848 174.198 56.2674C171.592 55.65 168.98 57.2619 168.362 59.8677C167.745 62.4735 169.357 65.0865 171.962 65.7039C174.568 66.3213 177.181 64.7094 177.799 62.1036Z" fill="#EB8045"/>
<path d="M318.642 128.64C320.535 126.747 320.535 123.677 318.641 121.783C316.748 119.889 313.678 119.889 311.784 121.783C309.891 123.677 309.891 126.747 311.784 128.64C313.678 130.534 316.748 130.534 318.642 128.64Z" fill="#EB8045"/>
<path d="M175.329 126.341C175.947 123.735 174.335 121.122 171.729 120.505C169.123 119.887 166.51 121.499 165.893 124.105C165.275 126.711 166.887 129.324 169.493 129.941C172.099 130.559 174.712 128.947 175.329 126.341Z" fill="#EB8045"/>
<path d="M281.414 171.551C283.308 169.658 283.308 166.588 281.414 164.694C279.52 162.801 276.45 162.801 274.557 164.694C272.663 166.588 272.663 169.658 274.557 171.551C276.45 173.445 279.52 173.445 281.414 171.551Z" fill="#EB8045"/>
<path d="M213.364 169.859C213.981 167.254 212.37 164.641 209.764 164.023C207.158 163.406 204.545 165.018 203.928 167.624C203.31 170.229 204.922 172.842 207.528 173.46C210.134 174.077 212.747 172.465 213.364 169.859Z" fill="#EB8045"/>
</svg>
